# Blender v2.78 (sub 0) OBJ File: 'Low_Poly_Trees_Pack.blend'
# www.blender.org
g Random_Tree_NoLeaves_crk_m_01
v -1.343523 -0.017850 0.345962
v -1.332990 0.067296 0.399959
v -1.348552 0.142997 0.331531
v -1.362152 0.018397 0.256080
v -2.218842 -0.023778 0.739091
v -2.217759 0.028084 0.773635
v -2.224434 0.075108 0.731546
v -2.225144 -0.000792 0.683296
v -3.499290 0.003327 1.008528
v -3.499060 0.014364 1.015880
v -3.500480 0.024372 1.006922
v -3.500631 0.008219 0.996654
v 0.000000 0.000000 -0.302400
v -0.287600 0.000000 -0.093447
v -0.177746 0.000000 0.244647
v 0.177746 0.000000 0.244647
v 0.287599 0.000000 -0.093447
v -0.039610 0.772021 -0.211148
v -0.229862 0.753616 -0.071186
v -0.155839 0.757276 0.153828
v 0.080161 0.777943 0.152932
v 0.151995 0.787056 -0.072636
v 0.049553 2.519320 -0.122011
v -0.072783 2.461264 -0.044249
v -0.027927 2.519527 0.091555
v 0.111606 2.504530 0.096035
v 0.159492 2.504402 -0.035955
v 0.261196 4.630823 -0.176185
v 0.186871 4.636821 -0.125618
v 0.211480 4.630956 -0.039146
v 0.301014 4.621333 -0.036271
v 0.331741 4.621250 -0.120966
v 0.402897 6.262435 -0.122927
v 0.363933 6.257475 -0.093772
v 0.379463 6.258927 -0.047409
v 0.428025 6.264786 -0.047910
v 0.442508 6.266954 -0.094583
v 0.491503 8.051528 0.063419
v 0.482017 8.050321 0.070517
v 0.485798 8.050674 0.081803
v 0.499382 8.052364 0.076000
v -0.041776 2.682771 -0.068356
v -0.596255 2.686664 -0.159721
v -0.527437 2.735813 -0.215622
v -0.566330 2.702957 -0.062282
v -0.468002 2.772087 -0.145682
vt 0.4894 0.8361
vt 0.4898 0.8389
vt 0.4702 0.8393
vt 0.4699 0.8375
vt 0.4889 0.8342
vt 0.4696 0.8363
vt 0.4894 0.8408
vt 0.4699 0.8405
vt 0.4891 0.8428
vt 0.4697 0.8418
vt 0.4438 0.8399
vt 0.4439 0.8394
vt 0.4438 0.8403
vt 0.4438 0.8390
vt 0.4438 0.8385
vt 0.4529 0.7867
vt 0.4529 0.7869
vt 0.4526 0.7870
vt 0.4526 0.7866
vt 0.6875 0.9327
vt 0.6963 0.9312
vt 0.6963 0.9443
vt 0.6873 0.9418
vt 0.4304 0.7663
vt 0.4295 0.7828
vt 0.4245 0.7826
vt 0.4236 0.7663
vt 0.4169 0.7674
vt 0.4195 0.7826
vt 0.4146 0.7835
vt 0.4101 0.7692
vt 0.4371 0.7673
vt 0.4346 0.7829
vt 0.4438 0.7691
vt 0.4395 0.7833
vt 0.4257 0.8189
vt 0.4229 0.8192
vt 0.4344 0.8182
vt 0.4314 0.8192
vt 0.4286 0.8190
vt 0.4199 0.8183
vt 0.4298 0.8619
vt 0.4280 0.8618
vt 0.4262 0.8619
vt 0.4244 0.8623
vt 0.4201 0.8229
vt 0.4316 0.8619
vt 0.4599 0.7663
vt 0.4628 0.7674
vt 0.4547 0.7763
vt 0.4526 0.7757
vt 0.4508 0.7664
vt 0.4502 0.7986
vt 0.4493 0.7988
vt 0.4490 0.7663
vt 0.4473 0.7663
vt 0.4483 0.7988
vt 0.4474 0.7986
vt 0.4455 0.7664
vt 0.4526 0.7664
vt 0.4512 0.7985
vt 0.4464 0.7986
vt 0.4438 0.7666
vt 0.4494 0.8341
vt 0.4488 0.8341
vt 0.4482 0.8340
vt 0.4500 0.8340
vt 0.4506 0.8340
vt 0.4683 0.7729
vt 0.4683 0.7760
vt 0.4577 0.7815
vt 0.4574 0.7795
vt 0.4338 0.8223
vt 0.4334 0.8619
vt 0.4644 0.7718
vt 0.4574 0.7775
vt 0.4527 0.7873
vt 0.4526 0.7871
vt 0.4529 0.7870
vt 0.4529 0.7873
vt 0.6989 0.9309
vt 0.6898 0.9311
vt 0.6873 0.9222
vt 0.7005 0.9222
vn -0.3917 0.5032 -0.7703
vn 0.2635 0.6715 0.6926
vn -0.1518 -0.9244 -0.3499
vn 0.3503 -0.5291 0.7729
vn -0.0974 -0.9240 -0.3697
vn 0.1609 -0.5495 0.8199
vn -0.1992 0.5271 -0.8261
vn 0.1307 0.6714 0.7294
vn -0.9941 -0.0488 0.0968
vn 0.9792 0.0124 -0.2027
vn 0.9397 0.1539 0.3054
vn -0.9488 0.0641 0.3094
vn 0.5800 0.1231 -0.8053
vn -0.0026 0.1179 0.9930
vn -0.5901 0.0669 -0.8046
vn -0.0101 0.0346 0.9994
vn -0.5815 0.0687 -0.8107
vn 0.9483 -0.0089 0.3173
vn -0.9507 0.0811 0.2993
vn 0.5972 0.0125 -0.8020
vn 0.9382 -0.0627 0.3404
vn -0.9645 0.1219 0.2342
vn 0.6075 -0.0812 -0.7902
vn -0.0251 0.0646 0.9976
vn -0.4156 -0.8192 0.3951
vn 0.6034 -0.0271 -0.7970
vn -0.0170 0.0076 0.9998
vn -0.5733 0.0775 -0.8157
vn 0.9436 -0.0697 0.3236
vn -0.9516 0.0990 0.2908
vn 0.9542 -0.0584 0.2934
vn -0.9480 0.0334 0.3165
vn 0.6488 0.0494 -0.7594
vn 0.1097 -0.0755 0.9911
vn -0.6044 0.1121 -0.7887
vn -0.1318 -0.6727 -0.7281
vn -0.5089 0.0315 -0.8602
vn 0.2980 0.5363 -0.7897
vn 0.0356 0.7165 0.6967
vn -0.1197 0.9928 0.0090
vn -0.5567 0.8299 0.0366
s off
f 3/1/1 4/2/1 8/3/1 7/4/1
f 2/5/2 3/1/2 7/4/2 6/6/2
f 4/2/3 1/7/3 5/8/3 8/3/3
f 1/7/4 2/9/4 6/10/4 5/8/4
f 8/3/5 5/8/5 9/11/5 12/12/5
f 5/8/6 6/10/6 10/13/6 9/11/6
f 7/4/7 8/3/7 12/12/7 11/14/7
f 6/6/8 7/4/8 11/14/8 10/15/8
f 9/16/9 10/17/9 11/18/9 12/19/9
f 1/20/10 4/21/10 3/22/10 2/23/10
f 17/24/11 22/25/11 21/26/11 16/27/11
f 15/28/12 20/29/12 19/30/12 14/31/12
f 13/32/13 18/33/13 22/25/13 17/24/13
f 16/27/14 21/26/14 20/29/14 15/28/14
f 14/34/15 19/35/15 18/33/15 13/32/15
f 21/26/16 26/36/16 25/37/16 20/29/16
f 19/35/17 24/38/17 23/39/17 18/33/17
f 22/25/18 27/40/18 26/36/18 21/26/18
f 20/29/19 25/37/19 24/41/19 19/30/19
f 18/33/20 23/39/20 27/40/20 22/25/20
f 27/40/21 32/42/21 31/43/21 26/36/21
f 25/37/22 30/44/22 29/45/22 42/46/22
f 23/39/23 28/47/23 32/42/23 27/40/23
f 26/36/24 31/43/24 30/44/24 25/37/24
f 24/48/25 25/49/25 45/50/25 43/51/25
f 28/52/26 33/53/26 37/54/26 32/55/26
f 31/56/27 36/57/27 35/58/27 30/59/27
f 29/60/28 34/61/28 33/53/28 28/52/28
f 32/55/29 37/54/29 36/57/29 31/56/29
f 30/59/30 35/58/30 34/62/30 29/63/30
f 36/57/31 37/54/31 41/64/31
f 34/62/32 35/58/32 40/65/32 39/66/32
f 37/54/33 33/53/33 38/67/33 41/64/33
f 35/58/34 36/57/34 41/64/34 40/65/34
f 33/53/35 34/61/35 39/68/35 38/67/35
f 23/69/36 24/70/36 43/71/36 44/72/36
f 23/39/37 42/73/37 29/74/37 28/47/37
f 42/75/38 23/69/38 44/72/38 46/76/38
f 25/49/39 42/75/39 46/76/39 45/50/39
f 39/77/40 40/78/40 41/79/40 38/80/40
f 44/81/41 43/82/41 45/83/41 46/84/41
