# Blender v2.78 (sub 0) OBJ File: 'Low_Poly_Trees_Pack.blend'
# www.blender.org
g Random_Tree_s_04
v 0.181354 2.521479 -0.213102
v 0.087227 2.302364 -0.120333
v 0.364288 2.533639 -0.376981
v -0.073497 2.466816 -0.415318
v 0.161341 2.631096 -0.484014
v -0.076128 2.233276 -0.252225
v 0.456995 2.324958 -0.461716
v 0.446977 2.208106 -0.251691
v 0.445915 2.119391 -0.516847
v 0.263894 2.450014 -0.662616
v 0.056416 2.550717 -0.633435
v 0.158672 1.848818 -0.327757
v 0.344654 2.002644 -0.189720
v 0.171702 1.846346 -0.522526
v -0.003264 1.971485 -0.553990
v -0.015663 1.874136 -0.338595
v 0.135456 1.900109 -0.160741
v 0.324625 2.241766 -0.139429
v -0.128047 2.278881 -0.494470
v 0.076044 2.231558 -0.691534
v 0.307554 1.926136 -0.012951
v 0.371636 1.911317 0.123736
v 0.361761 2.135675 -0.307945
v 0.410746 1.749336 -0.004328
v 0.341490 1.885777 -0.303955
v 0.455669 1.801367 0.143373
v 0.591566 2.308361 -0.363876
v 0.533816 2.394170 -0.124133
v 0.791293 2.361257 -0.319498
v 0.610424 2.038910 -0.458219
v 0.494940 1.779920 -0.340214
v 0.893988 2.324181 0.041099
v 0.637735 2.346755 0.040336
v 1.019119 2.183257 -0.067037
v 0.920140 1.885046 -0.016329
v 0.827802 1.912139 0.192176
v 0.675978 2.142963 0.224263
v 0.426630 2.215756 0.019974
v 0.584179 1.704801 0.016193
v 0.830568 1.859707 -0.293635
v -0.292081 2.636949 0.096793
v -0.186600 2.351974 0.266431
v -0.475879 2.652764 -0.229768
v -0.592095 2.565856 0.469745
v -0.645045 2.779514 0.077511
v -0.380888 2.268225 0.509187
v -0.567321 2.381360 -0.399706
v -0.245609 2.229401 -0.398818
v -0.645309 2.116437 -0.392135
v -0.860328 2.544004 -0.121953
v -0.854026 2.674975 0.218458
v -0.426866 1.723772 -0.128009
v -0.203199 1.978121 -0.218897
v -0.717465 1.751448 0.000419
v -0.788679 1.935934 0.345131
v -0.492266 1.805016 0.463822
v -0.207967 1.829810 0.151622
v -0.150157 2.273163 -0.147014
v -0.703515 2.321433 0.543235
v -0.987290 2.259886 0.210150
v 0.000000 0.000000 -0.066000
v -0.066000 0.000000 0.000000
v 0.000000 0.000000 0.066000
v 0.066000 0.000000 -0.000000
v 0.023207 0.418156 -0.045017
v -0.021163 0.418156 -0.000647
v 0.023207 0.418156 0.043724
v 0.067578 0.418156 -0.000647
v -0.033126 1.010784 -0.010887
v -0.066159 1.011323 0.022555
v -0.032721 1.010898 0.055592
v 0.000313 1.010359 0.022150
v -0.029095 1.291628 -0.011006
v -0.073190 1.292347 0.033633
v -0.028554 1.291780 0.077733
v 0.015540 1.291060 0.033093
v -0.121917 1.457492 0.019693
v -0.140601 1.441692 0.043792
v -0.118848 1.452796 0.067937
v -0.100165 1.468597 0.043838
v -0.343121 1.609497 0.055804
v -0.349310 1.591932 0.086600
v -0.337377 1.603095 0.103605
v -0.325744 1.625754 0.080568
v -0.022086 1.348793 0.036588
v 0.183903 1.395101 0.020009
v 0.188318 1.388341 0.059734
v 0.168625 1.416725 0.047906
v 0.456964 1.614932 0.016206
v 0.461301 1.610467 0.049692
v 0.438698 1.628379 0.039224
v 0.645317 1.741921 0.037149
v 0.649819 1.742117 0.063642
v 0.630908 1.754032 0.054348
v 0.895433 2.099285 0.006259
v -0.587515 1.903332 0.288079
v -0.585109 1.890238 0.303674
v -0.572138 1.905043 0.297927
v -0.363999 1.634599 0.075647
v -0.315077 1.830501 -0.077002
v -0.303515 1.841318 -0.060525
v -0.328969 1.847203 -0.063799
v 0.022354 1.316622 -0.003515
v 0.065377 1.588086 -0.214398
v 0.066237 1.614117 -0.180543
v 0.103465 1.597401 -0.200108
v 0.122223 1.971941 -0.375714
v 0.115597 1.976918 -0.350179
v 0.143083 1.973208 -0.359634
v 0.462628 1.654267 0.038622
v 0.411081 1.732214 -0.050543
v 0.402849 1.738905 -0.035064
v 0.420418 1.749061 -0.032350
v 0.410220 2.138931 -0.120616
vt 0.5820 0.1920
vt 0.5731 0.1926
vt 0.5724 0.1828
vt 0.5842 0.1729
vt 0.5924 0.1875
vt 0.5943 0.1952
vt 0.5833 0.2022
vt 0.5740 0.2000
vt 0.5388 0.1710
vt 0.5568 0.1776
vt 0.5391 0.1810
vt 0.5286 0.1764
vt 0.6017 0.1860
vt 0.6057 0.1955
vt 0.5970 0.2054
vt 0.5436 0.1944
vt 0.5374 0.1896
vt 0.5319 0.1934
vt 0.5292 0.1868
vt 0.5331 0.2023
vt 0.5471 0.2067
vt 0.5566 0.1951
vt 0.5589 0.2048
vt 0.5630 0.1933
vt 0.5701 0.2086
vt 0.5814 0.2139
vt 0.5183 0.1789
vt 0.5678 0.1712
vt 0.5192 0.1970
vt 0.5820 0.1920
vt 0.5731 0.1926
vt 0.5724 0.1828
vt 0.5842 0.1729
vt 0.5924 0.1875
vt 0.5943 0.1952
vt 0.5833 0.2022
vt 0.5740 0.2000
vt 0.5388 0.1710
vt 0.5568 0.1776
vt 0.5391 0.1810
vt 0.5286 0.1764
vt 0.6017 0.1860
vt 0.6057 0.1955
vt 0.5970 0.2054
vt 0.5436 0.1944
vt 0.5374 0.1896
vt 0.5319 0.1934
vt 0.5292 0.1868
vt 0.5331 0.2023
vt 0.5471 0.2067
vt 0.5566 0.1951
vt 0.5589 0.2048
vt 0.5630 0.1933
vt 0.5701 0.2086
vt 0.5814 0.2139
vt 0.5183 0.1789
vt 0.5678 0.1712
vt 0.5192 0.1970
vt 0.5820 0.1920
vt 0.5731 0.1926
vt 0.5724 0.1828
vt 0.5842 0.1729
vt 0.5924 0.1875
vt 0.5943 0.1952
vt 0.5833 0.2022
vt 0.5740 0.2000
vt 0.5388 0.1710
vt 0.5568 0.1776
vt 0.5391 0.1810
vt 0.5286 0.1764
vt 0.6017 0.1860
vt 0.6057 0.1955
vt 0.5970 0.2054
vt 0.5436 0.1944
vt 0.5374 0.1896
vt 0.5319 0.1934
vt 0.5292 0.1868
vt 0.5331 0.2023
vt 0.5471 0.2067
vt 0.5566 0.1951
vt 0.5589 0.2048
vt 0.5630 0.1933
vt 0.5701 0.2086
vt 0.5814 0.2139
vt 0.5183 0.1789
vt 0.5678 0.1712
vt 0.5192 0.1970
vt 0.5601 0.7657
vt 0.5541 0.8024
vt 0.5487 0.8019
vt 0.5519 0.7650
vt 0.5436 0.7642
vt 0.5433 0.8018
vt 0.5379 0.8019
vt 0.5353 0.7642
vt 0.5325 0.8022
vt 0.5270 0.7655
vt 0.5461 0.8512
vt 0.5428 0.8514
vt 0.5493 0.8515
vt 0.5396 0.8514
vt 0.5483 0.8669
vt 0.5456 0.8668
vt 0.5438 0.8671
vt 0.5403 0.8673
vt 0.5363 0.8513
vt 0.5367 0.8673
vt 0.5639 0.7642
vt 0.5675 0.7672
vt 0.5670 0.7764
vt 0.5648 0.7766
vt 0.5717 0.7644
vt 0.5749 0.7670
vt 0.5713 0.7775
vt 0.5691 0.7769
vt 0.5462 0.8672
vt 0.5601 0.7662
vt 0.5626 0.7769
vt 0.5704 0.7947
vt 0.5681 0.7943
vt 0.5659 0.7945
vt 0.5635 0.7944
vt 0.5619 0.7941
vt 0.5461 0.8673
vt 0.5461 0.8673
vt 0.5463 0.8674
vt 0.5463 0.8674
vt 0.5448 0.8677
vt 0.5461 0.8672
vt 0.5463 0.8674
vt 0.5457 0.8677
vt 0.5800 0.7652
vt 0.5846 0.7660
vt 0.5834 0.7900
vt 0.5803 0.7898
vt 0.5463 0.8674
vt 0.5463 0.8674
vt 0.5463 0.8674
vt 0.5463 0.8674
vt 0.5463 0.8674
vt 0.5629 0.8256
vt 0.5614 0.8251
vt 0.5677 0.7966
vt 0.5643 0.8257
vt 0.5658 0.8256
vt 0.5907 0.7644
vt 0.5934 0.7642
vt 0.5916 0.7804
vt 0.5898 0.7807
vt 0.5882 0.7642
vt 0.5882 0.7802
vt 0.5957 0.7648
vt 0.5932 0.7806
vt 0.5881 0.7642
vt 0.5862 0.7896
vt 0.5750 0.7642
vt 0.5773 0.7895
vt 0.5823 0.8183
vt 0.5802 0.8181
vt 0.5841 0.8185
vt 0.5997 0.7738
vt 0.6015 0.7735
vt 0.5971 0.8024
vt 0.6000 0.7652
vt 0.6028 0.7642
vt 0.5978 0.7643
vt 0.5983 0.7734
vt 0.5957 0.7642
vt 0.5971 0.7733
vt 0.5784 0.8184
vn 0.1583 0.3265 0.9318
vn 0.6591 0.4883 0.5720
vn 0.5912 0.4161 0.6909
vn -0.4610 0.8103 0.3619
vn -0.6597 0.5151 0.5473
vn 0.9982 -0.0579 0.0154
vn 0.7544 0.1318 -0.6431
vn 0.5801 0.5142 -0.6317
vn 0.2796 0.7498 -0.5997
vn 0.7402 -0.6386 0.2107
vn -0.1453 -0.4276 -0.8922
vn -0.1439 -0.9896 0.0029
vn -0.4912 -0.7828 -0.3821
vn 0.2223 -0.1828 0.9577
vn 0.0562 -0.0931 0.9941
vn -0.7124 -0.2752 0.6455
vn -0.1548 -0.9502 0.2703
vn -0.9550 0.1770 0.2380
vn -0.8481 0.3949 -0.3532
vn -0.0530 0.1757 -0.9830
vn 0.6572 -0.1020 0.7468
vn 0.2509 0.9036 0.3471
vn -0.6108 0.4580 0.6459
vn 0.9214 0.3193 0.2216
vn 0.7031 0.6598 -0.2652
vn 0.7433 -0.5031 -0.4408
vn 0.7039 -0.7081 0.0561
vn 0.4524 -0.8329 0.3187
vn -0.5819 -0.1501 0.7993
vn -0.9646 -0.2029 0.1685
vn -0.5791 0.8146 -0.0316
vn -0.6808 0.0904 -0.7268
vn 0.3691 -0.1972 -0.9082
vn -0.7046 -0.1518 -0.6932
vn -0.9202 -0.3341 -0.2040
vn 0.3274 -0.3103 -0.8925
vn -0.8506 0.3007 0.4314
vn -0.9012 0.3916 -0.1855
vn -0.8715 0.4610 0.1674
vn -0.8626 -0.5050 -0.0306
vn -0.7817 -0.5425 0.3077
vn -0.1612 0.9162 -0.3668
vn 0.1188 0.3355 -0.9345
vn -0.2392 0.0039 -0.9710
vn -0.3768 -0.2397 -0.8948
vn 0.1667 0.9845 0.0538
vn 0.9023 -0.3437 -0.2601
vn 0.7280 0.1299 0.6732
vn 0.8808 -0.2211 0.4188
vn -0.4186 0.5639 0.7119
vn -0.5270 0.3579 0.7708
vn -0.0736 -0.1846 0.9801
vn 0.5125 0.2218 0.8295
vn -0.2720 -0.8787 0.3923
vn -0.2299 -0.9623 -0.1453
vn 0.2326 -0.4872 -0.8417
vn -0.4880 0.7068 0.5121
vn -0.9889 0.0782 -0.1262
vn -0.7996 -0.4472 0.4007
vn -0.6116 0.6866 -0.3931
vn -0.5802 0.2327 -0.7805
vn 0.0848 0.9704 0.2262
vn 0.6927 0.7104 -0.1242
vn 0.0573 0.6748 0.7358
vn -0.2825 -0.0447 0.9582
vn 0.1267 -0.7242 0.6779
vn -0.5886 -0.7784 -0.2184
vn 0.2574 -0.9305 -0.2606
vn 0.6019 0.0060 -0.7986
vn 0.4663 -0.8818 -0.0700
vn 0.4721 -0.8230 0.3160
vn 0.7508 0.0248 -0.6601
vn 0.9348 0.3548 0.0148
vn 0.7480 0.5454 -0.3783
vn 0.7361 0.5551 -0.3874
vn 0.3202 0.8494 0.4195
vn 0.5346 0.5695 0.6244
vn -0.0094 -0.0258 -0.9996
vn -0.6294 0.1636 -0.7597
vn -0.6076 0.5584 -0.5648
vn -0.5754 0.7668 -0.2844
vn 0.1280 -0.5035 -0.8544
vn -0.8649 -0.4945 0.0859
vn -0.0360 -0.9906 0.1320
vn -0.4890 -0.8071 0.3309
vn 0.9850 -0.1642 -0.0530
vn 0.9931 -0.0625 0.0994
vn 0.7275 -0.2379 0.6436
vn 0.2581 -0.9529 0.1593
vn 0.1391 0.2265 0.9640
vn -0.5118 0.4528 0.7301
vn -0.9468 0.3060 -0.1002
vn 0.9365 -0.0855 -0.3401
vn 0.3771 0.9108 -0.1681
vn 0.6166 0.5163 0.5944
vn 0.2211 0.4630 -0.8584
vn -0.2049 0.7349 -0.6465
vn 0.2748 -0.5287 -0.8031
vn -0.3581 -0.6500 -0.6702
vn 0.6744 -0.6884 -0.2669
vn 0.7969 -0.1607 0.5824
vn 0.0851 -0.1174 0.9894
vn -0.1056 0.8672 0.4866
vn -0.7612 0.2322 0.6056
vn -0.8747 -0.1484 -0.4613
vn -0.7331 -0.1757 0.6570
vn -0.4703 -0.3189 0.8228
vn -0.8614 -0.2832 -0.4217
vn 0.7071 -0.0038 -0.7071
vn -0.7050 0.0767 0.7050
vn 0.7071 -0.0016 0.7071
vn -0.7051 0.0745 -0.7051
vn 0.7082 0.0530 0.7041
vn 0.7015 0.1070 -0.7046
vn -0.7032 -0.0807 0.7064
vn 0.7027 -0.0104 -0.7114
vn -0.7024 -0.0456 0.7103
vn 0.7094 -0.0658 0.7018
vn -0.7113 0.0099 -0.7028
vn 0.6317 0.3848 0.6730
vn -0.6841 -0.2594 -0.6817
vn 0.3994 -0.8211 0.4078
vn -0.6503 -0.3312 0.6837
vn -0.5300 -0.5965 -0.6027
vn 0.3541 0.6664 -0.6561
vn -0.3525 -0.6714 0.6519
vn 0.4708 0.5106 0.7194
vn 0.6146 -0.7654 -0.1908
vn 0.5987 0.4465 -0.6650
vn -0.1866 0.4968 0.8475
vn -0.4605 0.5597 -0.6889
vn 0.4776 -0.8143 -0.3298
vn 0.6736 0.3020 0.6745
vn -0.2410 0.2447 0.9392
vn -0.1905 0.2792 0.9412
vn 0.8066 -0.5760 -0.1328
vn -0.5849 0.3459 -0.7336
vn -0.2737 0.5572 -0.7840
vn 0.5690 -0.8101 -0.1415
vn -0.2490 0.3182 0.9147
vn 0.6989 0.0865 0.7100
vn -0.8357 -0.3876 -0.3890
vn 0.2705 0.7270 -0.6312
vn -0.2810 -0.6999 0.6566
vn -0.8399 -0.4207 -0.3428
vn 0.0186 0.5462 0.8374
vn -0.8014 -0.2301 -0.5521
vn 0.8602 -0.3384 -0.3815
vn 0.4416 -0.7721 -0.4569
vn -0.2080 0.6700 -0.7127
vn 0.3988 -0.6012 -0.6925
vn -0.9673 0.2180 -0.1292
vn 0.4690 0.3118 0.8264
vn 0.4759 -0.3928 -0.7869
vn 0.9118 -0.0679 -0.4051
vn -0.2479 0.2626 0.9325
vn 0.8923 0.0825 -0.4438
vn -0.4060 0.4199 0.8117
vn -0.8180 -0.4850 -0.3093
vn -0.2648 0.2063 0.9420
vn -0.8938 -0.0780 -0.4416
vn -0.7088 -0.0265 -0.7049
vn -0.9873 0.0795 -0.1374
s off
f 1/1/1 2/2/1 18/3/1
f 18/3/2 8/4/2 1/1/2
f 1/1/3 8/4/3 3/5/3
f 1/1/4 5/6/4 4/7/4
f 1/1/5 6/8/5 2/2/5
f 7/9/6 8/10/6 9/11/6
f 7/9/7 9/11/7 10/12/7
f 7/13/8 5/6/8 3/5/8
f 10/14/9 11/15/9 5/6/9
f 9/11/10 8/10/10 12/16/10
f 14/17/11 15/18/11 20/19/11
f 12/16/12 16/20/12 14/17/12
f 14/17/13 16/20/13 15/18/13
f 17/21/14 13/22/14 18/23/14
f 17/24/15 18/3/15 2/2/15
f 17/24/16 6/8/16 16/25/16
f 17/21/17 16/20/17 12/16/17
f 19/26/18 6/8/18 4/7/18
f 19/26/19 4/7/19 11/15/19
f 11/27/20 10/12/20 20/19/20
f 8/4/21 18/3/21 13/28/21
f 1/1/22 3/5/22 5/6/22
f 1/1/23 4/7/23 6/8/23
f 7/13/24 3/5/24 8/4/24
f 7/13/25 10/14/25 5/6/25
f 12/16/26 8/10/26 13/22/26
f 9/11/27 12/16/27 14/17/27
f 17/21/28 12/16/28 13/22/28
f 17/24/29 2/2/29 6/8/29
f 19/26/30 16/25/30 6/8/30
f 11/15/31 4/7/31 5/6/31
f 19/29/32 11/27/32 20/19/32
f 10/12/33 9/11/33 20/19/33
f 19/29/34 20/19/34 15/18/34
f 19/29/35 15/18/35 16/20/35
f 9/11/36 14/17/36 20/19/36
f 21/30/37 22/31/37 38/32/37
f 38/32/38 28/33/38 21/30/38
f 21/30/39 28/33/39 23/34/39
f 21/30/40 25/35/40 24/36/40
f 21/30/41 26/37/41 22/31/41
f 27/38/42 28/39/42 29/40/42
f 27/38/43 29/40/43 30/41/43
f 27/42/44 25/35/44 23/34/44
f 30/43/45 31/44/45 25/35/45
f 29/40/46 28/39/46 32/45/46
f 34/46/47 35/47/47 40/48/47
f 32/45/48 36/49/48 34/46/48
f 34/46/49 36/49/49 35/47/49
f 37/50/50 33/51/50 38/52/50
f 37/53/51 38/32/51 22/31/51
f 37/53/52 26/37/52 36/54/52
f 37/50/53 36/49/53 32/45/53
f 39/55/54 26/37/54 24/36/54
f 39/55/55 24/36/55 31/44/55
f 31/56/56 30/41/56 40/48/56
f 28/33/57 38/32/57 33/57/57
f 21/30/58 23/34/58 25/35/58
f 21/30/59 24/36/59 26/37/59
f 27/42/60 23/34/60 28/33/60
f 27/42/61 30/43/61 25/35/61
f 32/45/62 28/39/62 33/51/62
f 29/40/63 32/45/63 34/46/63
f 37/50/64 32/45/64 33/51/64
f 37/53/65 22/31/65 26/37/65
f 39/55/66 36/54/66 26/37/66
f 31/44/67 24/36/67 25/35/67
f 39/58/68 31/56/68 40/48/68
f 30/41/69 29/40/69 40/48/69
f 39/58/70 40/48/70 35/47/70
f 39/58/71 35/47/71 36/49/71
f 29/40/72 34/46/72 40/48/72
f 41/59/73 42/60/73 58/61/73
f 58/61/74 48/62/74 41/59/74
f 41/59/75 48/62/75 43/63/75
f 41/59/76 45/64/76 44/65/76
f 41/59/77 46/66/77 42/60/77
f 47/67/78 48/68/78 49/69/78
f 47/67/79 49/69/79 50/70/79
f 47/71/80 45/64/80 43/63/80
f 50/72/81 51/73/81 45/64/81
f 49/69/82 48/68/82 52/74/82
f 54/75/83 55/76/83 60/77/83
f 52/74/84 56/78/84 54/75/84
f 54/75/85 56/78/85 55/76/85
f 57/79/86 53/80/86 58/81/86
f 57/82/87 58/61/87 42/60/87
f 57/82/88 46/66/88 56/83/88
f 57/79/89 56/78/89 52/74/89
f 59/84/90 46/66/90 44/65/90
f 59/84/91 44/65/91 51/73/91
f 51/85/92 50/70/92 60/77/92
f 48/62/93 58/61/93 53/86/93
f 41/59/94 43/63/94 45/64/94
f 41/59/95 44/65/95 46/66/95
f 47/71/96 43/63/96 48/62/96
f 47/71/97 50/72/97 45/64/97
f 52/74/98 48/68/98 53/80/98
f 49/69/99 52/74/99 54/75/99
f 57/79/100 52/74/100 53/80/100
f 57/82/101 42/60/101 46/66/101
f 59/84/102 56/83/102 46/66/102
f 51/73/103 44/65/103 45/64/103
f 59/87/104 51/85/104 60/77/104
f 50/70/105 49/69/105 60/77/105
f 59/87/106 60/77/106 55/76/106
f 59/87/107 55/76/107 56/78/107
f 49/69/108 54/75/108 60/77/108
f 61/88/109 65/89/109 68/90/109 64/91/109
f 63/92/110 67/93/110 66/94/110 62/95/110
f 64/91/111 68/90/111 67/93/111 63/92/111
f 62/95/112 66/94/112 65/96/112 61/97/112
f 68/90/113 72/98/113 71/99/113 67/93/113
f 65/89/114 69/100/114 72/98/114 68/90/114
f 67/93/115 71/99/115 70/101/115 66/94/115
f 72/98/116 69/100/116 73/102/116 76/103/116
f 70/101/117 71/99/117 75/104/117 74/105/117
f 71/99/118 72/98/118 76/103/118 75/104/118
f 69/106/119 70/101/119 74/105/119 73/107/119
f 75/108/120 85/109/120 80/110/120 79/111/120
f 73/112/121 74/113/121 78/114/121 77/115/121
f 75/104/122 76/103/122 87/116/122
f 74/117/123 75/108/123 79/111/123 78/118/123
f 77/115/124 78/114/124 82/119/124 81/120/124
f 80/110/125 77/115/125 81/120/125 84/121/125
f 78/118/126 79/111/126 83/122/126 82/123/126
f 79/111/127 80/110/127 84/121/127 83/122/127
f 87/124/128 86/125/128 89/126/128 90/127/128
f 85/109/129 73/112/129 77/115/129 80/110/129
f 85/128/130 75/104/130 87/116/130 88/129/130
f 86/125/131 88/129/131 91/130/131 89/126/131
f 76/103/132 103/131/132 86/125/132 87/124/132
f 85/132/133 103/133/133 106/134/133 105/135/133
f 91/130/134 90/127/134 110/136/134
f 88/129/135 87/116/135 90/127/135 91/130/135
f 93/137/136 92/138/136 95/139/136
f 92/138/137 94/140/137 95/139/137
f 89/126/138 110/136/138 94/140/138 92/138/138
f 90/127/139 89/126/139 92/138/139 93/137/139
f 94/140/140 93/137/140 95/139/140
f 83/122/141 84/121/141 98/141/141 97/142/141
f 81/120/142 82/119/142 99/143/142
f 84/121/143 99/143/143 96/144/143 98/141/143
f 82/123/144 83/122/144 97/142/144
f 99/143/145 82/119/145 97/145/145 96/144/145
f 99/146/146 84/147/146 101/148/146 102/149/146
f 81/150/147 99/146/147 102/149/147 100/151/147
f 84/147/148 81/152/148 100/153/148 101/148/148
f 103/131/149 76/103/149 73/102/149
f 103/131/150 85/128/150 88/129/150 86/125/150
f 103/133/151 73/154/151 104/155/151 106/134/151
f 73/156/152 85/132/152 105/135/152 104/157/152
f 106/134/153 109/158/153 108/159/153 105/135/153
f 104/155/154 107/160/154 109/158/154 106/134/154
f 113/161/155 111/162/155 114/163/155
f 110/136/156 90/127/156 93/137/156 94/140/156
f 110/164/157 89/165/157 111/162/157 113/161/157
f 91/166/158 110/164/158 113/161/158 112/167/158
f 89/168/159 91/166/159 112/167/159 111/169/159
f 112/167/160 113/161/160 114/163/160
f 111/169/161 112/167/161 114/163/161
f 66/94/162 70/101/162 69/106/162 65/96/162
f 105/135/163 108/159/163 107/170/163 104/157/163
