# Blender v2.78 (sub 0) OBJ File: 'Low_Poly_Trees_Pack.blend'
# www.blender.org
g Random_Tree_NoLeaves_m_08
v 0.000000 0.000000 -0.302400
v -0.287600 0.000000 -0.093447
v -0.177746 0.000000 0.244647
v 0.177746 0.000000 0.244647
v 0.287599 0.000000 -0.093447
v -0.039512 1.135171 -0.184786
v -0.202280 1.119425 -0.065043
v -0.138951 1.122556 0.127466
v 0.062956 1.140238 0.126700
v 0.124413 1.148034 -0.066283
v -0.083813 2.525028 -0.101387
v -0.191848 2.440113 -0.027218
v -0.162028 2.502771 0.110746
v -0.022568 2.517702 0.117265
v 0.025772 2.531457 -0.013840
v -0.054428 4.630249 -0.132820
v -0.127743 4.643856 -0.082253
v -0.103868 4.635492 0.004219
v -0.015797 4.616715 0.007094
v 0.014758 4.613474 -0.077601
v -0.100309 6.399275 -0.126594
v -0.136504 6.394667 -0.099510
v -0.122078 6.396016 -0.056442
v -0.076967 6.401458 -0.056908
v -0.063514 6.403472 -0.100264
v -0.124900 8.439320 -0.122188
v -0.134385 8.438112 -0.115090
v -0.130605 8.438466 -0.103804
v -0.117020 8.440156 -0.109607
v -0.208514 2.663728 -0.045279
v -0.555271 2.736032 -0.218161
v -0.629194 2.694374 -0.162694
v -0.597634 2.706188 -0.065125
v -0.492136 2.764657 -0.147916
v -1.210399 3.408442 -0.259231
v -1.255846 3.382831 -0.225131
v -1.236444 3.390094 -0.165147
v -1.171585 3.426040 -0.216046
v -1.387122 4.243185 -0.268600
v -1.396794 4.237735 -0.261342
v -1.392665 4.239280 -0.248576
v -1.378861 4.246930 -0.259409
v 0.040431 3.330661 0.095823
v 0.088748 3.435531 -0.025126
v -0.102156 3.544716 -0.046629
v -0.074621 3.437894 0.083596
v -0.005902 3.444817 -0.100681
v 0.047394 3.555428 0.066260
v 0.450076 3.452903 0.513074
v 0.473258 3.492670 0.431945
v 0.404884 3.514627 0.526889
v 0.426912 3.573187 0.461129
v 0.848821 3.669079 0.711994
v 0.854804 3.691714 0.643598
v 0.803309 3.708036 0.718392
v 0.805332 3.746449 0.659493
v 1.252464 4.294113 0.747445
v 1.246023 4.293895 0.698127
v 1.212715 4.305334 0.750937
v 1.199310 4.315328 0.705518
v 1.463272 5.295279 0.618838
v 1.461595 5.295222 0.606001
v 1.452925 5.298200 0.619747
v 1.449436 5.300800 0.607925
vt 0.4161 0.7665
vt 0.4147 0.7909
vt 0.4103 0.7909
vt 0.4089 0.7665
vt 0.4018 0.7676
vt 0.4060 0.7910
vt 0.4017 0.7916
vt 0.3948 0.7694
vt 0.4233 0.7676
vt 0.4190 0.7911
vt 0.4304 0.7695
vt 0.4233 0.7917
vt 0.4108 0.8204
vt 0.4079 0.8202
vt 0.4197 0.8191
vt 0.4167 0.8205
vt 0.4138 0.8206
vt 0.4049 0.8191
vt 0.4143 0.8391
vt 0.4151 0.8635
vt 0.4133 0.8636
vt 0.4122 0.8415
vt 0.4095 0.8392
vt 0.4115 0.8642
vt 0.4096 0.8647
vt 0.4070 0.8418
vt 0.4167 0.8392
vt 0.4170 0.8639
vt 0.4392 0.7791
vt 0.4420 0.7782
vt 0.4422 0.7889
vt 0.4401 0.7898
vt 0.4374 0.7787
vt 0.4351 0.8138
vt 0.4342 0.8138
vt 0.4357 0.7782
vt 0.4339 0.7782
vt 0.4333 0.8137
vt 0.4324 0.8136
vt 0.4322 0.7786
vt 0.4391 0.7791
vt 0.4360 0.8138
vt 0.4315 0.8136
vt 0.4304 0.7788
vt 0.4324 0.8544
vt 0.4317 0.8543
vt 0.4310 0.8543
vt 0.4331 0.8544
vt 0.4338 0.8544
vt 0.4481 0.7783
vt 0.4512 0.7797
vt 0.4487 0.7903
vt 0.4468 0.7895
vt 0.4190 0.8412
vt 0.4188 0.8642
vt 0.4452 0.7812
vt 0.4452 0.7882
vt 0.4428 0.8088
vt 0.4410 0.8085
vt 0.4397 0.8085
vt 0.4441 0.8091
vt 0.4454 0.8093
vt 0.4401 0.8265
vt 0.4398 0.8265
vt 0.4404 0.8265
vt 0.4395 0.8263
vt 0.4392 0.8263
vt 0.4516 0.7785
vt 0.4513 0.7785
vt 0.4512 0.7782
vt 0.4516 0.7782
vt 0.4513 0.7788
vt 0.4512 0.7785
vt 0.4515 0.7785
vt 0.4515 0.7788
vt 0.4197 0.8231
vt 0.4117 0.8370
vt 0.4049 0.8237
vt 0.4310 0.7752
vt 0.4319 0.7724
vt 0.4437 0.7728
vt 0.4436 0.7748
vt 0.4320 0.7782
vt 0.4441 0.7767
vt 0.4304 0.7691
vt 0.4440 0.7709
vt 0.4325 0.7665
vt 0.4444 0.7693
vt 0.4541 0.7748
vt 0.4541 0.7763
vt 0.4542 0.7717
vt 0.4543 0.7731
vt 0.4544 0.7705
vt 0.4695 0.7736
vt 0.4695 0.7745
vt 0.4697 0.7728
vt 0.4694 0.7755
vt 0.4694 0.7765
vt 0.4895 0.7767
vt 0.4894 0.7770
vt 0.4894 0.7773
vt 0.4895 0.7763
vt 0.4895 0.7760
vt 0.4515 0.7788
vt 0.4515 0.7791
vt 0.4512 0.7791
vt 0.4513 0.7788
vn 0.9435 0.1268 0.3062
vn -0.9488 0.0648 0.3093
vn 0.5821 0.1028 -0.8066
vn -0.0019 0.1033 0.9946
vn -0.5898 0.0641 -0.8050
vn -0.0177 0.0088 0.9998
vn -0.5890 0.0288 -0.8076
vn 0.9444 0.0579 0.3238
vn -0.9621 -0.0066 0.2725
vn 0.5971 0.0699 -0.7991
vn 0.9403 0.0742 0.3321
vn -0.9743 -0.0120 0.2248
vn 0.6243 0.0044 -0.7812
vn -0.5321 -0.7576 0.3782
vn 0.6110 0.0177 -0.7914
vn -0.0146 0.0348 0.9993
vn -0.5790 -0.0115 -0.8152
vn 0.9449 0.0447 0.3243
vn -0.9590 -0.0011 0.2835
vn 0.9544 0.0264 0.2974
vn -0.9482 0.0034 0.3175
vn 0.6560 0.0117 -0.7547
vn 0.1031 0.0256 0.9943
vn -0.5987 -0.0055 -0.8010
vn -0.1093 -0.6302 -0.7687
vn -0.5451 -0.0425 -0.8373
vn 0.4460 0.6381 -0.6277
vn 0.0449 0.7301 0.6819
vn 0.3724 0.4652 0.8031
vn -0.7174 -0.6251 0.3077
vn 0.5421 0.4863 -0.6854
vn -0.3805 -0.4210 -0.8234
vn 0.7068 0.1419 -0.6931
vn -0.5492 -0.1255 -0.8262
vn 0.5434 0.1805 0.8199
vn -0.9369 -0.1409 0.3201
vn -0.4597 0.8869 0.0457
vn -0.1197 0.9928 0.0089
vn -0.4095 0.0416 -0.9114
vn -0.0615 0.0330 0.9976
vn 0.6227 -0.0526 -0.7807
vn -0.9346 0.1050 0.3399
vn 0.9414 -0.0627 0.3315
vn 0.0391 0.0628 0.9973
vn 0.5736 0.5918 -0.5664
vn 0.5529 -0.7577 -0.3467
vn -0.5495 0.6791 0.4866
vn -0.5347 -0.5134 0.6712
vn 0.5484 -0.8043 -0.2287
vn -0.5545 0.7053 0.4417
vn -0.2352 -0.3906 0.8900
vn 0.2395 0.4554 -0.8574
vn -0.7882 0.5209 0.3277
vn 0.0595 -0.0948 0.9937
vn -0.1116 0.1590 -0.9810
vn 0.8382 -0.5352 -0.1052
vn -0.1792 -0.0518 -0.9824
vn 0.9675 -0.2198 -0.1254
vn -0.9082 0.2628 0.3259
vn 0.1157 0.1025 0.9880
vn 0.3556 0.9344 0.0218
s off
f 5/1/1 10/2/1 9/3/1 4/4/1
f 3/5/2 8/6/2 7/7/2 2/8/2
f 1/9/3 6/10/3 10/2/3 5/1/3
f 4/4/4 9/3/4 8/6/4 3/5/4
f 2/11/5 7/12/5 6/10/5 1/9/5
f 9/3/6 14/13/6 13/14/6 8/6/6
f 7/12/7 12/15/7 11/16/7 6/10/7
f 10/2/8 15/17/8 14/13/8 9/3/8
f 8/6/9 13/14/9 12/18/9 7/7/9
f 6/10/10 11/16/10 15/17/10 10/2/10
f 44/19/11 20/20/11 19/21/11 48/22/11
f 46/23/12 18/24/12 17/25/12 45/26/12
f 47/27/13 16/28/13 20/20/13 44/19/13
f 12/29/14 13/30/14 33/31/14 32/32/14
f 16/33/15 21/34/15 25/35/15 20/36/15
f 19/37/16 24/38/16 23/39/16 18/40/16
f 17/41/17 22/42/17 21/34/17 16/33/17
f 20/36/18 25/35/18 24/38/18 19/37/18
f 18/40/19 23/39/19 22/43/19 17/44/19
f 24/38/20 25/35/20 29/45/20
f 22/43/21 23/39/21 28/46/21 27/47/21
f 25/35/22 21/34/22 26/48/22 29/45/22
f 23/39/23 24/38/23 29/45/23 28/46/23
f 21/34/24 22/42/24 27/49/24 26/48/24
f 11/50/25 12/51/25 32/52/25 31/53/25
f 47/27/26 45/54/26 17/55/26 16/28/26
f 30/56/27 11/50/27 31/53/27 34/57/27
f 13/30/28 30/56/28 34/57/28 33/31/28
f 33/31/29 34/57/29 38/58/29 37/59/29
f 32/32/30 33/31/30 37/59/30 36/60/30
f 34/57/31 31/53/31 35/61/31 38/58/31
f 31/53/32 32/52/32 36/62/32 35/61/32
f 38/58/33 35/61/33 39/63/33 42/64/33
f 35/61/34 36/62/34 40/65/34 39/63/34
f 37/59/35 38/58/35 42/64/35 41/66/35
f 36/60/36 37/59/36 41/66/36 40/67/36
f 39/68/37 40/69/37 41/70/37 42/71/37
f 27/72/38 28/73/38 29/74/38 26/75/38
f 11/16/39 30/76/39 45/54/39 47/27/39
f 14/13/40 43/77/40 46/23/40 13/14/40
f 11/16/41 47/27/41 44/19/41 15/17/41
f 13/14/42 46/23/42 45/26/42 30/78/42
f 15/17/43 44/19/43 43/77/43 14/13/43
f 46/23/44 48/22/44 19/21/44 18/24/44
f 44/79/45 48/80/45 52/81/45 50/82/45
f 43/83/46 44/79/46 50/82/46 49/84/46
f 48/80/47 46/85/47 51/86/47 52/81/47
f 46/85/48 43/87/48 49/88/48 51/86/48
f 49/84/49 50/82/49 54/89/49 53/90/49
f 52/81/50 51/86/50 55/91/50 56/92/50
f 51/86/51 49/88/51 53/93/51 55/91/51
f 50/82/52 52/81/52 56/92/52 54/89/52
f 56/92/53 55/91/53 59/94/53 60/95/53
f 55/91/54 53/93/54 57/96/54 59/94/54
f 54/89/55 56/92/55 60/95/55 58/97/55
f 53/90/56 54/89/56 58/97/56 57/98/56
f 58/97/57 60/95/57 64/99/57 62/100/57
f 57/98/58 58/97/58 62/100/58 61/101/58
f 60/95/59 59/94/59 63/102/59 64/99/59
f 59/94/60 57/96/60 61/103/60 63/102/60
f 61/104/61 62/105/61 64/106/61 63/107/61
