# Blender v2.78 (sub 0) OBJ File: 'Low_Poly_Trees_Pack.blend'
# www.blender.org
g Random_Tree_NoLeaves_s_01
v 0.000000 0.000000 -0.055975
v -0.055975 0.000000 0.000000
v 0.000000 0.000000 0.055975
v 0.055975 0.000000 -0.000000
v -0.027430 3.521893 0.017582
v 0.045897 0.816602 0.000000
v -0.028085 1.718526 -0.006919
v -0.045409 2.661742 0.000000
v -0.061242 2.662894 -0.015875
v -0.065783 1.718526 -0.044616
v -0.000793 0.859263 -0.046836
v -0.046993 0.866955 0.000000
v -0.103480 1.718526 -0.006919
v -0.077075 2.664046 0.000000
v -0.061242 2.662894 0.015875
v -0.063041 1.672465 0.031268
v -0.000793 0.859263 0.046836
v 0.040198 0.926454 0.000000
v 0.171148 0.897123 0.000000
v 0.141692 0.930505 -0.039945
v 0.141692 0.930505 0.039945
v 0.118114 0.961271 0.000000
v 0.269348 1.069573 -0.015130
v 0.240956 1.074169 -0.043832
v 0.240353 1.081216 0.010847
v 0.216226 1.086456 -0.017891
v 0.324101 1.664024 -0.060316
v 0.293230 1.658112 -0.089055
v 0.290523 1.664254 -0.055908
v 0.475671 1.872112 -0.067925
v 0.464261 1.875017 -0.078690
v 0.464320 1.877531 -0.066273
v 0.550225 2.242104 -0.070963
v 0.314624 1.694132 -0.056808
v 0.153712 1.791446 -0.139389
v 0.153027 1.793388 -0.130218
v 0.162863 1.797483 -0.129605
v 0.090927 1.958963 -0.173402
v -0.065930 1.770127 0.030201
v -0.126765 1.828431 0.190054
v -0.178671 1.830851 0.190179
v -0.151977 1.803323 0.221910
v -0.136836 1.846840 0.173983
v -0.291208 2.287449 0.383734
v -0.317215 2.282015 0.391573
v -0.299648 2.279754 0.414143
v -0.366763 2.936195 0.484634
vt 0.4257 0.8392
vt 0.4244 0.8617
vt 0.4251 0.8391
vt 0.4269 0.8393
vt 0.4263 0.8393
vt 0.4274 0.8393
vt 0.4285 0.7697
vt 0.4285 0.7923
vt 0.4268 0.7921
vt 0.4265 0.7697
vt 0.4283 0.8146
vt 0.4269 0.8145
vt 0.4327 0.7697
vt 0.4320 0.7910
vt 0.4302 0.7921
vt 0.4306 0.7697
vt 0.4376 0.7700
vt 0.4393 0.7697
vt 0.4390 0.7734
vt 0.4376 0.7734
vt 0.4341 0.7697
vt 0.4346 0.7712
vt 0.4346 0.7754
vt 0.4339 0.7753
vt 0.4297 0.8134
vt 0.4360 0.7703
vt 0.4376 0.7703
vt 0.4369 0.7757
vt 0.4357 0.7758
vt 0.4250 0.7910
vt 0.4244 0.7697
vt 0.4405 0.7713
vt 0.4405 0.7734
vt 0.4255 0.8145
vt 0.4416 0.7698
vt 0.4433 0.7701
vt 0.4433 0.7733
vt 0.4419 0.7732
vt 0.4319 0.7938
vt 0.4311 0.8145
vt 0.4251 0.7938
vt 0.4416 0.7778
vt 0.4405 0.7778
vt 0.4426 0.7778
vt 0.4395 0.7779
vt 0.4385 0.7780
vt 0.4418 0.7947
vt 0.4425 0.7947
vt 0.4411 0.7946
vt 0.4402 0.7949
vt 0.4440 0.7697
vt 0.4446 0.7705
vt 0.4440 0.7768
vt 0.4437 0.7767
vt 0.4433 0.7701
vt 0.4433 0.7768
vt 0.4423 0.7954
vt 0.4444 0.7768
vt 0.4436 0.7867
vt 0.4463 0.7748
vt 0.4467 0.7750
vt 0.4459 0.7796
vt 0.4466 0.7697
vt 0.4476 0.7699
vt 0.4451 0.7702
vt 0.4458 0.7697
vt 0.4461 0.7749
vt 0.4451 0.7698
vt 0.4458 0.7749
vt 0.4295 0.8161
vt 0.4311 0.8149
vt 0.4327 0.7701
vt 0.4328 0.7754
vt 0.4336 0.7889
vt 0.4327 0.7889
vt 0.4344 0.7890
vt 0.4352 0.7890
vt 0.4331 0.8103
vn 0.7080 -0.0004 -0.7062
vn -0.7068 0.0264 0.7069
vn 0.7067 -0.0292 0.7069
vn -0.7049 0.0553 -0.7071
vn -0.7090 0.0071 -0.7052
vn -0.7112 -0.0524 -0.7011
vn -0.7069 0.0249 -0.7069
vn 0.7093 0.0084 0.7048
vn 0.3300 -0.5473 -0.7691
vn 0.8358 0.5351 0.1229
vn -0.7090 0.0071 0.7052
vn -0.7128 -0.0414 0.7002
vn -0.7699 -0.6341 0.0718
vn 0.7093 0.0084 -0.7048
vn -0.2972 0.6622 -0.6879
vn 0.7075 0.0181 -0.7065
vn 0.3300 -0.5473 0.7691
vn 0.6983 0.0668 0.7127
vn 0.7086 0.0552 -0.7035
vn -0.2972 0.6622 0.6879
vn -0.5581 0.5096 0.6548
vn 0.6180 -0.2757 0.7363
vn -0.6044 0.3873 -0.6962
vn 0.5775 -0.4034 -0.7098
vn -0.7459 0.1388 0.6515
vn 0.4434 0.0456 0.8952
vn -0.8969 0.0664 -0.4372
vn 0.6925 -0.1175 -0.7118
vn -0.7698 0.6172 -0.1627
vn 0.6211 -0.4674 -0.6292
vn 0.1293 -0.0745 0.9888
vn 0.1350 -0.0191 0.9907
vn 0.6606 -0.1392 -0.7377
vn -0.9726 0.2286 -0.0417
vn 0.6898 0.1133 -0.7151
vn 0.5800 0.3252 -0.7469
vn 0.1377 -0.0629 0.9885
vn -0.2585 0.2660 0.9287
vn -0.7040 -0.7058 0.0784
vn -0.1433 0.1991 0.9694
vn -0.9367 -0.3502 0.0042
vn -0.4389 0.6927 -0.5723
vn -0.7115 0.0149 0.7026
vn 0.7064 0.0077 0.7078
vn 0.8320 -0.1905 0.5211
vn 0.8593 0.0781 0.5055
vn -0.3968 0.2736 -0.8762
vn 0.9138 0.3836 -0.1332
vn -0.8016 -0.4255 0.4199
vn -0.3080 0.1111 -0.9449
vn -0.7878 -0.1448 0.5987
vn 0.9568 0.0675 0.2826
s off
f 9/1/1 5/2/1 8/3/1
f 15/4/2 5/2/2 14/5/2
f 8/6/3 5/2/3 15/4/3
f 14/5/4 5/2/4 9/1/4
f 2/7/5 12/8/5 11/9/5 1/10/5
f 12/8/6 13/11/6 10/12/6 11/9/6
f 13/11/7 14/5/7 9/1/7 10/12/7
f 4/13/8 6/14/8 17/15/8 3/16/8
f 6/17/9 11/18/9 20/19/9 19/20/9
f 7/21/10 39/22/10 43/23/10 40/24/10
f 3/16/11 17/15/11 12/8/11 2/7/11
f 17/15/12 16/25/12 13/11/12 12/8/12
f 13/26/13 16/27/13 42/28/13 41/29/13
f 1/10/14 11/9/14 6/30/14 4/31/14
f 11/18/15 18/32/15 22/33/15 20/19/15
f 10/12/16 9/1/16 8/3/16 7/34/16
f 17/35/17 6/36/17 19/37/17 21/38/17
f 17/15/18 18/39/18 7/40/18 16/25/18
f 18/41/19 11/9/19 10/12/19 7/34/19
f 18/32/20 17/35/20 21/38/20 22/33/20
f 22/33/21 21/38/21 25/42/21 26/43/21
f 21/38/22 19/37/22 23/44/22 25/42/22
f 20/19/23 22/33/23 26/43/23 24/45/23
f 19/20/24 20/19/24 24/45/24 23/46/24
f 26/43/25 25/42/25 29/47/25
f 25/42/26 23/44/26 27/48/26 29/47/26
f 24/45/27 26/43/27 29/47/27 28/49/27
f 23/46/28 24/45/28 28/49/28 27/50/28
f 28/51/29 34/52/29 32/53/29 31/54/29
f 27/55/30 28/51/30 31/54/30 30/56/30
f 29/47/31 27/48/31 34/57/31
f 32/53/32 30/58/32 33/59/32
f 30/56/33 31/54/33 33/59/33
f 31/54/34 32/53/34 33/59/34
f 37/60/35 35/61/35 38/62/35
f 34/63/36 28/64/36 35/61/36 37/60/36
f 34/52/37 27/65/37 30/58/37 32/53/37
f 29/66/38 34/63/38 37/60/38 36/67/38
f 28/68/39 29/66/39 36/67/39 35/69/39
f 36/67/40 37/60/40 38/62/40
f 35/69/41 36/67/41 38/62/41
f 39/22/42 13/26/42 41/29/42 43/23/42
f 13/11/43 39/70/43 15/4/43 14/5/43
f 39/70/44 7/71/44 8/6/44 15/4/44
f 16/72/45 7/21/45 40/24/45 42/73/45
f 42/73/46 40/24/46 44/74/46 46/75/46
f 43/23/47 41/29/47 45/76/47 44/74/47
f 40/24/48 43/23/48 44/74/48
f 41/29/49 42/28/49 46/77/49 45/76/49
f 44/74/50 45/76/50 47/78/50
f 45/76/51 46/77/51 47/78/51
f 46/75/52 44/74/52 47/78/52
