# Blender v2.78 (sub 0) OBJ File: 'Low_Poly_Trees_Pack.blend'
# www.blender.org
g Random_Tree_NoLeaves_crk_m_04
v 1.227974 1.788820 -0.678499
v 1.313208 1.811383 -0.748362
v 1.366853 1.859500 -0.694284
v 1.352206 1.832698 -0.609523
v 1.289509 1.768018 -0.611216
v 2.530829 0.622041 -1.193107
v 2.547829 0.658449 -1.214326
v 2.578388 0.677753 -1.186790
v 2.580277 0.653276 -1.148553
v 2.550883 0.618843 -1.152457
v 4.460097 -0.047972 -1.761030
v 4.464552 -0.038431 -1.766590
v 4.472560 -0.033371 -1.759374
v 4.469203 -0.044298 -1.749865
v 0.493382 2.663005 -0.117215
v 0.481808 2.499089 -0.148175
v 0.551741 2.504282 -0.357723
v 0.565604 2.640332 -0.255618
v 0.439079 2.489717 -0.261487
v 0.632827 2.498965 -0.188548
v 0.857361 2.656766 0.356421
v 0.828121 2.570436 0.336597
v 0.912743 2.647018 0.302747
v 0.907709 2.558870 0.281690
v 1.136026 2.460187 0.715589
v 1.104105 2.400543 0.690096
v 1.169985 2.460402 0.665823
v 1.156114 2.398487 0.635444
v 1.591891 1.900547 0.899550
v 1.557472 1.872967 0.876564
v 1.603813 1.913882 0.862158
v 1.579665 1.885457 0.831315
v 2.208513 1.089126 0.742425
v 2.199553 1.081948 0.736441
v 2.211616 1.092597 0.732692
v 2.205329 1.085199 0.724663
v 1.334976 1.694720 -0.728110
v 1.069906 1.499260 -0.722423
v 1.121598 1.510680 -0.769056
v 1.101137 1.460860 -0.692051
v 1.159118 1.465939 -0.737318
v 0.963616 0.882161 -0.983771
v 0.993091 0.897413 -1.007025
v 0.985007 0.869724 -0.961403
v 1.018968 0.883015 -0.982936
v 1.181746 0.376846 -1.253906
v 1.195143 0.383778 -1.264475
v 1.191469 0.371193 -1.243739
v 1.206905 0.377234 -1.253526
v 0.089791 2.866772 -0.002594
v 0.137426 3.004980 0.016537
v 0.168510 3.028405 -0.113451
v 0.165288 2.871531 -0.236582
v 0.037536 2.862083 -0.122294
v 3.494844 0.164288 -1.454481
v 3.495579 0.181990 -1.478354
v 3.476295 0.169808 -1.495730
v 3.465568 0.146834 -1.482340
v 3.480147 0.147072 -1.456433
v 0.148363 0.000000 -0.263504
v -0.204760 0.000000 -0.222529
v -0.274912 0.000000 0.125974
v 0.034856 0.000000 0.300384
v 0.296454 0.000000 0.059674
v 0.082015 0.817463 -0.203661
v -0.161258 0.806124 -0.174561
v -0.209167 0.808379 0.066150
v 0.004497 0.821112 0.185817
v 0.184457 0.826726 0.019065
v -0.012609 2.316651 -0.123452
v -0.143137 2.231735 -0.111827
v -0.184840 2.294394 0.023021
v -0.066517 2.309324 0.097124
v 0.039928 2.323080 0.006598
v -0.148799 2.455351 -0.135743
v -0.497136 2.713032 -0.523152
v -0.581336 2.674751 -0.512066
v -0.600054 2.685607 -0.419710
v -0.478251 2.739336 -0.438440
v -0.828784 3.473827 -0.759704
v -0.880493 3.450318 -0.752896
v -0.891988 3.456984 -0.696178
v -0.817186 3.489981 -0.707681
v -0.879624 4.700458 -0.803510
v -0.891613 4.695007 -0.801932
v -0.894278 4.696552 -0.788782
v -0.876935 4.704203 -0.791449
v 0.064794 2.879305 0.014122
v 0.015822 2.880734 -0.107039
v -0.039149 2.819993 0.100229
v -0.119232 2.845004 -0.119649
v -0.174847 3.299422 0.093002
v -0.228164 3.399541 -0.017763
v -0.151710 3.165973 -0.160580
vt 0.5403 0.8392
vt 0.5674 0.8395
vt 0.5674 0.8416
vt 0.5429 0.8415
vt 0.5404 0.8445
vt 0.5680 0.8435
vt 0.5684 0.8456
vt 0.5431 0.8473
vt 0.5407 0.8365
vt 0.5667 0.8374
vt 0.5554 0.8162
vt 0.5536 0.8151
vt 0.5558 0.8081
vt 0.5571 0.8081
vt 0.5144 0.8558
vt 0.5554 0.8559
vt 0.5553 0.8569
vt 0.5148 0.8578
vt 0.5153 0.8497
vt 0.5553 0.8527
vt 0.5553 0.8538
vt 0.5171 0.8517
vt 0.5144 0.8538
vt 0.5554 0.8548
vt 0.5552 0.8579
vt 0.5151 0.8597
vt 0.5801 0.8559
vt 0.5799 0.8554
vt 0.6045 0.8562
vt 0.5799 0.8572
vt 0.5801 0.8566
vt 0.6045 0.8566
vt 0.6044 0.8570
vt 0.5798 0.8547
vt 0.6043 0.8558
vt 0.5800 0.8541
vt 0.6045 0.8553
vt 0.5431 0.8341
vt 0.5684 0.8354
vt 0.5625 0.7957
vt 0.5626 0.7960
vt 0.5622 0.7960
vt 0.5622 0.7957
vt 0.5277 0.8356
vt 0.5306 0.8328
vt 0.5262 0.8421
vt 0.5379 0.8419
vt 0.5272 0.8451
vt 0.5274 0.8388
vt 0.5305 0.8484
vt 0.5543 0.7752
vt 0.5553 0.7721
vt 0.5683 0.7725
vt 0.5682 0.7748
vt 0.5554 0.7785
vt 0.5687 0.7768
vt 0.5536 0.7685
vt 0.5686 0.7704
vt 0.5559 0.7656
vt 0.5691 0.7687
vt 0.5798 0.7747
vt 0.5797 0.7764
vt 0.5798 0.7714
vt 0.5799 0.7729
vt 0.5801 0.7700
vt 0.5967 0.7734
vt 0.5967 0.7744
vt 0.5970 0.7725
vt 0.5966 0.7755
vt 0.5966 0.7766
vt 0.6188 0.7768
vt 0.6187 0.7772
vt 0.6186 0.7776
vt 0.6188 0.7765
vt 0.6188 0.7761
vt 0.5622 0.7964
vt 0.5622 0.7961
vt 0.5625 0.7961
vt 0.5625 0.7964
vt 0.5583 0.7927
vt 0.5591 0.7928
vt 0.5603 0.8171
vt 0.5586 0.8154
vt 0.5586 0.8087
vt 0.5602 0.8092
vt 0.5601 0.7929
vt 0.5610 0.7931
vt 0.5622 0.8159
vt 0.5617 0.8087
vt 0.5610 0.7786
vt 0.5614 0.7785
vt 0.5607 0.7786
vt 0.5619 0.7930
vt 0.5622 0.7949
vt 0.5627 0.7953
vt 0.5622 0.7953
vt 0.5627 0.7949
vt 0.5618 0.7787
vt 0.5622 0.7787
vt 0.5378 0.7656
vt 0.5363 0.7925
vt 0.5315 0.7924
vt 0.5299 0.7656
vt 0.5221 0.7668
vt 0.5267 0.7925
vt 0.5220 0.7933
vt 0.5144 0.7688
vt 0.5457 0.7668
vt 0.5410 0.7927
vt 0.5536 0.7689
vt 0.5457 0.7934
vt 0.5320 0.8197
vt 0.5289 0.8197
vt 0.5417 0.8186
vt 0.5385 0.8200
vt 0.5352 0.8201
vt 0.5255 0.8186
vt 0.5744 0.7846
vt 0.5778 0.7841
vt 0.5777 0.8007
vt 0.5756 0.8013
vt 0.5838 0.7841
vt 0.5872 0.7851
vt 0.5847 0.8018
vt 0.5827 0.8013
vt 0.5813 0.7878
vt 0.5808 0.8004
vt 0.5790 0.8207
vt 0.5773 0.8201
vt 0.5760 0.8201
vt 0.5803 0.8207
vt 0.5815 0.8206
vt 0.5758 0.8485
vt 0.5753 0.8486
vt 0.5763 0.8484
vt 0.5749 0.8483
vt 0.5744 0.8483
vt 0.5626 0.7956
vt 0.5623 0.7956
vt 0.5622 0.7953
vt 0.5627 0.7953
vt 0.5350 0.8328
vt 0.5320 0.8313
vt 0.6959 0.9351
vt 0.6806 0.9362
vt 0.6799 0.9107
vt 0.6964 0.9018
vt 0.5379 0.8328
vt 0.6847 0.9444
vt 0.6932 0.9444
vt 0.5416 0.8231
vt 0.5410 0.8320
vt 0.5266 0.8388
vt 0.5270 0.8357
vt 0.5144 0.8466
vt 0.5160 0.8433
vt 0.5204 0.8496
vt 0.6555 0.9594
vt 0.6721 0.9512
vt 0.6623 0.9672
vt 0.7008 0.9512
vt 0.6908 0.9670
vt 0.6880 0.8981
vt 0.7043 0.9636
vt 0.6995 0.9707
vn 0.2570 -0.3003 0.9186
vn 0.1561 0.6049 -0.7808
vn -0.5556 -0.7860 0.2710
vn -0.6389 0.2166 0.7382
vn 0.7249 0.6058 0.3278
vn -0.5292 -0.2372 -0.8146
vn 0.1942 -0.2343 0.9526
vn 0.2654 0.5908 -0.7619
vn 0.2194 -0.2929 0.9306
vn 0.0116 0.8127 -0.5826
vn -0.1349 -0.9727 0.1888
vn 0.3385 0.6933 0.6361
vn -0.3167 -0.3629 -0.8764
vn -0.6014 -0.2246 -0.7667
vn 0.7191 -0.5686 -0.3994
vn -0.5890 -0.3757 -0.7155
vn 0.7192 0.6365 0.2786
vn -0.5958 -0.7497 0.2881
vn 0.2938 0.5718 -0.7660
vn 0.1759 -0.1945 0.9650
vn 0.7418 0.5621 0.3658
vn 0.0048 -0.9911 0.1331
vn -0.8037 0.0103 0.5949
vn 0.8454 0.1250 -0.5193
vn 0.1230 0.9887 -0.0852
vn -0.7543 0.1154 0.6464
vn 0.8328 0.0827 -0.5474
vn 0.3527 0.9093 0.2208
vn -0.2837 -0.9321 -0.2249
vn 0.6301 0.2361 -0.7397
vn 0.6253 0.6509 0.4304
vn -0.5687 -0.6597 -0.4913
vn -0.4865 -0.1116 0.8665
vn -0.7177 -0.4959 -0.4889
vn -0.2804 -0.3835 0.8800
vn 0.4491 0.4537 -0.7697
vn 0.7601 0.4964 0.4194
vn 0.6689 -0.7421 0.0442
vn -0.7639 -0.1364 0.6307
vn 0.3307 -0.1771 -0.9270
vn -0.5929 -0.7669 0.2456
vn 0.7158 0.1175 -0.6884
vn 0.6080 -0.5148 0.6044
vn -0.6412 0.4481 -0.6230
vn 0.5802 -0.2060 0.7880
vn -0.7386 -0.5368 0.4078
vn 0.5854 -0.4294 0.6877
vn -0.6716 0.3851 -0.6330
vn 0.0209 -0.8652 -0.5010
vn 0.0211 -0.8480 -0.5295
vn -0.6521 0.1188 -0.7487
vn 0.7196 0.5160 -0.4647
vn -0.4190 -0.3032 -0.8559
vn 0.5320 0.7050 0.4689
vn -0.4029 -0.8994 0.1697
vn 0.1669 0.7107 -0.6834
vn 0.1785 -0.2599 0.9490
vn 0.6718 0.1268 0.7298
vn -0.9784 0.0648 -0.1963
vn 0.9034 0.1029 -0.4163
vn -0.4891 0.1033 0.8661
vn -0.1177 0.0641 -0.9910
vn -0.5057 0.0303 0.8622
vn -0.1197 0.0453 -0.9918
vn 0.6637 0.0732 0.7444
vn -0.9720 0.0157 -0.2346
vn 0.9111 0.0819 -0.4039
vn -0.7161 -0.6971 0.0351
vn 0.2206 -0.5348 -0.8157
vn 0.7370 0.6307 -0.2432
vn -0.1094 0.6799 0.7251
vn -0.0035 0.3362 0.9418
vn -0.9089 -0.3934 -0.1380
vn 0.9059 0.3029 -0.2960
vn 0.0077 -0.2938 -0.9558
vn 0.9734 0.0322 -0.2270
vn -0.1125 -0.0401 -0.9928
vn 0.1195 0.0742 0.9901
vn -0.9803 -0.0165 -0.1967
vn -0.4230 0.8869 -0.1857
vn 0.6505 -0.0394 0.7585
vn -0.9337 0.0515 0.3543
vn 0.9268 -0.0361 -0.3738
vn -0.3117 0.9309 0.1901
vn 0.1018 0.0277 -0.9944
vn -0.4461 -0.8725 0.1993
vn 0.4382 -0.2697 0.8575
vn -0.6526 -0.1528 -0.7421
vn 0.6925 0.6658 0.2777
vn 0.3543 0.5709 -0.7406
vn -0.9227 -0.3694 0.1102
vn -0.6037 -0.7288 0.3231
vn -0.4505 0.6760 0.5831
vn -0.5575 0.7923 -0.2480
s off
f 16/1/1 5/2/1 4/3/1 20/4/1
f 18/5/2 3/6/2 2/7/2 17/8/2
f 19/9/3 1/10/3 5/2/3 16/1/3
f 5/11/4 1/12/4 38/13/4 40/14/4
f 4/15/5 9/16/5 8/17/5 3/18/5
f 2/19/6 7/20/6 6/21/6 37/22/6
f 5/23/7 10/24/7 9/16/7 4/15/7
f 3/18/8 8/17/8 7/25/8 2/26/8
f 55/27/9 59/28/9 14/29/9
f 57/30/10 56/31/10 13/32/10 12/33/10
f 59/28/11 58/34/11 11/35/11 14/29/11
f 56/31/12 55/27/12 14/29/12 13/32/12
f 58/34/13 57/36/13 12/37/13 11/35/13
f 19/9/14 17/38/14 2/39/14 1/10/14
f 12/40/15 13/41/15 14/42/15 11/43/15
f 54/44/16 53/45/16 17/38/16 19/9/16
f 51/46/17 15/47/17 18/5/17 52/48/17
f 54/44/18 19/9/18 16/1/18 50/49/18
f 52/48/19 18/5/19 17/8/19 53/50/19
f 50/49/20 16/1/20 15/47/20 51/46/20
f 18/5/21 20/4/21 4/3/21 3/6/21
f 16/51/22 20/52/22 24/53/22 22/54/22
f 15/55/23 16/51/23 22/54/23 21/56/23
f 20/52/24 18/57/24 23/58/24 24/53/24
f 18/57/25 15/59/25 21/60/25 23/58/25
f 21/56/26 22/54/26 26/61/26 25/62/26
f 24/53/27 23/58/27 27/63/27 28/64/27
f 23/58/28 21/60/28 25/65/28 27/63/28
f 22/54/29 24/53/29 28/64/29 26/61/29
f 28/64/30 27/63/30 31/66/30 32/67/30
f 27/63/31 25/65/31 29/68/31 31/66/31
f 26/61/32 28/64/32 32/67/32 30/69/32
f 25/62/33 26/61/33 30/69/33 29/70/33
f 30/69/34 32/67/34 36/71/34 34/72/34
f 29/70/35 30/69/35 34/72/35 33/73/35
f 32/67/36 31/66/36 35/74/36 36/71/36
f 31/66/37 29/68/37 33/75/37 35/74/37
f 33/76/38 34/77/38 36/78/38 35/79/38
f 40/14/39 38/13/39 42/80/39 44/81/39
f 2/82/40 37/83/40 41/84/40 39/85/40
f 5/23/41 37/22/41 6/21/41 10/24/41
f 39/85/42 41/84/42 45/86/42 43/87/42
f 37/83/43 5/11/43 40/14/43 41/84/43
f 1/88/44 2/82/44 39/85/44 38/89/44
f 45/86/45 44/81/45 48/90/45 49/91/45
f 44/81/46 42/80/46 46/92/46 48/90/46
f 41/84/47 40/14/47 44/81/47 45/86/47
f 38/89/48 39/85/48 43/87/48 42/93/48
f 46/94/49 49/95/49 48/96/49
f 49/95/50 46/94/50 47/97/50
f 42/93/51 43/87/51 47/98/51 46/99/51
f 43/87/52 45/86/52 49/91/52 47/98/52
f 6/21/53 7/20/53 57/36/53 58/34/53
f 8/17/54 9/16/54 55/27/54 56/31/54
f 10/24/55 6/21/55 58/34/55 59/28/55
f 7/25/56 8/17/56 56/31/56 57/30/56
f 9/16/57 10/24/57 59/28/57 55/27/57
f 64/100/58 69/101/58 68/102/58 63/103/58
f 62/104/59 67/105/59 66/106/59 61/107/59
f 60/108/60 65/109/60 69/101/60 64/100/60
f 63/103/61 68/102/61 67/105/61 62/104/61
f 61/110/62 66/111/62 65/109/62 60/108/62
f 68/102/63 73/112/63 72/113/63 67/105/63
f 66/111/64 71/114/64 70/115/64 65/109/64
f 69/101/65 74/116/65 73/112/65 68/102/65
f 67/105/66 72/113/66 71/117/66 66/106/66
f 65/109/67 70/115/67 74/116/67 69/101/67
f 71/118/68 72/119/68 78/120/68 77/121/68
f 70/122/69 71/123/69 77/124/69 76/125/69
f 75/126/70 70/122/70 76/125/70 79/127/70
f 72/119/71 75/126/71 79/127/71 78/120/71
f 78/120/72 79/127/72 83/128/72 82/129/72
f 77/121/73 78/120/73 82/129/73 81/130/73
f 79/127/74 76/125/74 80/131/74 83/128/74
f 76/125/75 77/124/75 81/132/75 80/131/75
f 83/128/76 80/131/76 84/133/76 87/134/76
f 80/131/77 81/132/77 85/135/77 84/133/77
f 82/129/78 83/128/78 87/134/78 86/136/78
f 81/130/79 82/129/79 86/136/79 85/137/79
f 84/138/80 85/139/80 86/140/80 87/141/80
f 74/116/81 88/142/81 90/143/81 73/112/81
f 90/144/82 91/145/82 75/146/82 73/147/82
f 70/115/83 89/148/83 88/142/83 74/116/83
f 89/149/84 91/145/84 90/144/84 88/150/84
f 70/115/85 75/151/85 91/152/85 89/148/85
f 50/49/86 88/153/86 89/154/86 54/44/86
f 51/46/87 88/153/87 50/49/87
f 54/44/88 89/154/88 53/45/88
f 51/46/89 52/48/89 93/155/89 92/156/89
f 52/48/90 53/50/90 94/157/90 93/155/90
f 93/158/91 94/159/91 92/160/91
f 92/160/92 94/159/92 53/161/92 51/162/92
f 72/163/93 73/147/93 75/146/93
f 53/161/94 89/164/94 88/165/94 51/162/94
