# Blender v2.78 (sub 0) OBJ File: 'Low_Poly_Trees_Pack.blend'
# www.blender.org
g Random_Tree_NoLeaves_crk_m_02
v 0.418357 4.260382 -0.085216
v 0.457870 4.247590 0.005424
v 0.367924 4.235694 0.066052
v 0.298232 4.200241 0.004160
v 0.329401 4.215498 -0.089329
v 1.381041 2.457067 -0.079840
v 1.386451 2.468939 -0.032695
v 1.351509 2.446050 -0.007239
v 1.324505 2.420033 -0.038651
v 1.342757 2.426842 -0.083521
v 2.188675 0.855768 0.084461
v 2.189991 0.858658 0.095937
v 2.181486 0.853085 0.102134
v 2.177134 0.847581 0.089026
v -0.629876 -0.017850 -0.993591
v -0.670592 0.067296 -0.956594
v -0.620142 0.142997 -1.005373
v -0.562668 0.018397 -1.056113
v -1.419790 -0.023778 -1.538356
v -1.448769 0.028084 -1.519525
v -1.416237 0.075108 -1.547050
v -1.375342 -0.000792 -1.572667
v -2.313926 0.003327 -2.493691
v -2.320093 0.014364 -2.489683
v -2.313170 0.024372 -2.495541
v -2.304466 0.008219 -2.500993
v 0.000000 0.000000 -0.302400
v -0.287600 0.000000 -0.093447
v -0.177746 0.000000 0.244647
v 0.177746 0.000000 0.244647
v 0.287599 0.000000 -0.093447
v -0.039610 0.772021 -0.211148
v -0.229862 0.753616 -0.071186
v -0.155839 0.757276 0.153828
v 0.080161 0.777943 0.152932
v 0.151995 0.787056 -0.072636
v 0.049553 2.519320 -0.122011
v -0.072783 2.461264 -0.044249
v -0.027927 2.519527 0.091555
v 0.111606 2.504530 0.096035
v 0.159492 2.504402 -0.035955
v -0.041776 2.682771 -0.068356
v -0.596255 2.686664 -0.159721
v -0.527437 2.735813 -0.215622
v -0.566330 2.702957 -0.062282
v -0.468002 2.772087 -0.145682
v 0.220702 4.226829 -0.165820
v 0.165674 4.226976 -0.014139
v 0.264775 4.216325 -0.010957
v 0.298784 4.216234 -0.104701
v 0.276478 4.551079 -0.122689
v 0.327429 4.513082 -0.029101
v 0.226044 4.526392 0.028580
v 0.241602 3.957351 0.005229
v 0.277677 3.956841 -0.094284
v 0.105961 3.945358 -0.105355
v 0.136380 3.968617 0.001854
v 0.194738 3.967793 -0.159174
vt 0.5547 0.8507
vt 0.5594 0.8046
vt 0.5604 0.8045
vt 0.5569 0.8521
vt 0.5593 0.8520
vt 0.5614 0.8046
vt 0.5625 0.8048
vt 0.5615 0.8514
vt 0.5526 0.8498
vt 0.5584 0.8046
vt 0.5635 0.8049
vt 0.5639 0.8506
vt 0.5633 0.7664
vt 0.5639 0.7665
vt 0.5646 0.7666
vt 0.5626 0.7664
vt 0.5619 0.7664
vt 0.5670 0.8162
vt 0.5669 0.8159
vt 0.5673 0.8159
vt 0.5673 0.8162
vt 0.6158 0.7686
vt 0.6163 0.7717
vt 0.5943 0.7722
vt 0.5939 0.7701
vt 0.6152 0.7664
vt 0.5936 0.7687
vt 0.6158 0.7738
vt 0.5940 0.7735
vt 0.6155 0.7761
vt 0.5937 0.7749
vt 0.5647 0.7728
vt 0.5647 0.7723
vt 0.5646 0.7733
vt 0.5647 0.7718
vt 0.5646 0.7713
vt 0.5672 0.8155
vt 0.5672 0.8158
vt 0.5669 0.8158
vt 0.5669 0.8154
vt 0.5647 0.8158
vt 0.5669 0.8154
vt 0.5669 0.8188
vt 0.5646 0.8181
vt 0.5376 0.7664
vt 0.5366 0.7848
vt 0.5309 0.7847
vt 0.5299 0.7664
vt 0.5223 0.7676
vt 0.5252 0.7847
vt 0.5198 0.7856
vt 0.5148 0.7696
vt 0.5450 0.7675
vt 0.5422 0.7849
vt 0.5525 0.7695
vt 0.5477 0.7855
vt 0.5323 0.8254
vt 0.5291 0.8257
vt 0.5420 0.8246
vt 0.5386 0.8257
vt 0.5354 0.8255
vt 0.5257 0.8247
vt 0.5364 0.8585
vt 0.5366 0.8643
vt 0.5343 0.8642
vt 0.5340 0.8584
vt 0.5388 0.8586
vt 0.5388 0.8644
vt 0.5321 0.8644
vt 0.5316 0.8586
vt 0.5727 0.7761
vt 0.5761 0.7774
vt 0.5669 0.7873
vt 0.5646 0.7867
vt 0.5822 0.7835
vt 0.5822 0.7871
vt 0.5703 0.7932
vt 0.5700 0.7909
vt 0.6820 0.9454
vt 0.6876 0.9401
vt 0.6945 0.9447
vt 0.5778 0.7823
vt 0.5700 0.7887
vt 0.5676 0.8210
vt 0.5652 0.8211
vt 0.5646 0.8188
vt 0.5680 0.8188
vt 0.5591 0.8528
vt 0.5572 0.8529
vt 0.5646 0.8572
vt 0.5623 0.8586
vt 0.5546 0.8582
vt 0.5525 0.8567
vt 0.6883 0.9400
vt 0.6820 0.9346
vt 0.6937 0.9334
vt 0.6820 0.9109
vt 0.6937 0.9097
vt 0.6828 0.9016
vt 0.6900 0.9009
vt 0.5414 0.8291
vt 0.5410 0.8578
vt 0.5291 0.8583
vt 0.5259 0.8298
vt 0.6938 0.9637
vt 0.6820 0.9644
vt 0.6919 0.9707
vt 0.6847 0.9711
vn 0.0476 0.0231 -0.9986
vn -0.5392 -0.3288 0.7754
vn 0.8494 0.4510 -0.2739
vn -0.8107 -0.4595 -0.3629
vn 0.5034 0.2439 0.8289
vn -0.7945 -0.4627 -0.3934
vn 0.4352 0.2854 0.8539
vn 0.0455 -0.0819 -0.9956
vn -0.6652 -0.3025 0.6827
vn 0.8818 0.4234 -0.2078
vn 0.6070 -0.7844 0.1278
vn 0.4557 0.5032 -0.7342
vn -0.4557 0.6715 0.5844
vn 0.2206 -0.9244 -0.3112
vn -0.4794 -0.5291 0.7002
vn 0.2657 -0.9240 -0.2749
vn -0.6177 -0.5495 0.5626
vn 0.6032 0.5271 -0.5986
vn -0.5560 0.6714 0.4899
vn -0.5981 -0.0488 -0.7999
vn 0.6809 0.0124 0.7323
vn 0.9397 0.1539 0.3054
vn -0.9488 0.0641 0.3094
vn 0.5800 0.1231 -0.8053
vn -0.0026 0.1179 0.9930
vn -0.5901 0.0669 -0.8046
vn -0.0101 0.0346 0.9994
vn -0.5815 0.0687 -0.8107
vn 0.9483 -0.0089 0.3173
vn -0.9507 0.0811 0.2993
vn 0.5972 0.0125 -0.8020
vn 0.9382 -0.0627 0.3404
vn 0.6075 -0.0812 -0.7902
vn -0.0251 0.0646 0.9976
vn -0.4156 -0.8192 0.3951
vn -0.1318 -0.6727 -0.7281
vn -0.3094 0.9437 -0.1170
vn 0.2980 0.5363 -0.7897
vn 0.0356 0.7165 0.6967
vn -0.5567 0.8299 0.0366
vn -0.1867 -0.9718 -0.1437
vn -0.5191 -0.3448 0.7821
vn 0.3425 -0.6136 -0.7115
vn 0.4953 0.3457 0.7969
vn 0.8666 0.3829 -0.3200
vn 0.2589 0.9359 0.2390
vn -0.8241 -0.4471 -0.3477
vn -0.2750 0.9615 0.0018
vn -0.4949 0.0297 -0.8684
vn -0.9669 0.1217 0.2240
vn -0.9366 0.0852 -0.3399
vn 0.1056 0.9937 0.0373
s off
f 1/1/1 6/2/1 10/3/1 5/4/1
f 4/5/2 9/6/2 8/7/2 3/8/2
f 2/9/3 7/10/3 6/2/3 1/1/3
f 5/4/4 10/3/4 9/6/4 4/5/4
f 3/8/5 8/7/5 7/11/5 2/12/5
f 9/6/6 10/3/6 14/13/6
f 7/11/7 8/7/7 13/14/7 12/15/7
f 10/3/8 6/2/8 11/16/8 14/13/8
f 8/7/9 9/6/9 14/13/9 13/14/9
f 6/2/10 7/10/10 12/17/10 11/16/10
f 12/18/11 13/19/11 14/20/11 11/21/11
f 17/22/12 18/23/12 22/24/12 21/25/12
f 16/26/13 17/22/13 21/25/13 20/27/13
f 18/23/14 15/28/14 19/29/14 22/24/14
f 15/28/15 16/30/15 20/31/15 19/29/15
f 22/24/16 19/29/16 23/32/16 26/33/16
f 19/29/17 20/31/17 24/34/17 23/32/17
f 21/25/18 22/24/18 26/33/18 25/35/18
f 20/27/19 21/25/19 25/35/19 24/36/19
f 23/37/20 24/38/20 25/39/20 26/40/20
f 15/41/21 18/42/21 17/43/21 16/44/21
f 31/45/22 36/46/22 35/47/22 30/48/22
f 29/49/23 34/50/23 33/51/23 28/52/23
f 27/53/24 32/54/24 36/46/24 31/45/24
f 30/48/25 35/47/25 34/50/25 29/49/25
f 28/55/26 33/56/26 32/54/26 27/53/26
f 35/47/27 40/57/27 39/58/27 34/50/27
f 33/56/28 38/59/28 37/60/28 32/54/28
f 36/46/29 41/61/29 40/57/29 35/47/29
f 34/50/30 39/58/30 38/62/30 33/51/30
f 32/54/31 37/60/31 41/61/31 36/46/31
f 55/63/32 50/64/32 49/65/32 54/66/32
f 58/67/33 47/68/33 50/64/33 55/63/33
f 54/66/34 49/65/34 48/69/34 57/70/34
f 38/71/35 39/72/35 45/73/35 43/74/35
f 37/75/36 38/76/36 43/77/36 44/78/36
f 58/79/37 56/80/37 57/81/37
f 42/82/38 37/75/38 44/78/38 46/83/38
f 39/72/39 42/82/39 46/83/39 45/73/39
f 44/84/40 43/85/40 45/86/40 46/87/40
f 4/5/41 49/88/41 50/89/41 5/4/41
f 3/8/42 49/88/42 4/5/42
f 5/4/43 50/89/43 1/1/43
f 3/8/44 2/12/44 52/90/44 53/91/44
f 2/9/45 1/1/45 51/92/45 52/93/45
f 52/94/46 51/95/46 53/96/46
f 53/96/47 51/95/47 1/97/47 3/98/47
f 1/97/48 50/99/48 49/100/48 3/98/48
f 37/60/49 42/101/49 56/102/49 58/67/49
f 40/57/34 54/66/34 57/70/34 39/58/34
f 37/60/33 58/67/33 55/63/33 41/61/33
f 39/58/50 57/70/50 56/103/50 42/104/50
f 41/61/32 55/63/32 54/66/32 40/57/32
f 58/79/51 57/81/51 48/105/51 47/106/51
f 49/107/52 50/108/52 47/106/52 48/105/52
