# Blender v2.78 (sub 0) OBJ File: 'Low_Poly_Trees_Pack.blend'
# www.blender.org
g Random_Tree_s_03
v -0.274628 2.788545 0.117686
v -0.169148 2.503571 0.287324
v -0.458427 2.804360 -0.208875
v -0.574642 2.717452 0.490638
v -0.627593 2.931110 0.098404
v -0.363436 2.419822 0.530080
v -0.549868 2.532956 -0.378814
v -0.228156 2.380997 -0.377925
v -0.627857 2.268033 -0.371242
v -0.842875 2.695600 -0.101060
v -0.836573 2.826572 0.239351
v -0.409413 1.875369 -0.107117
v -0.185746 2.129718 -0.198004
v -0.700013 1.903044 0.021312
v -0.771226 2.087530 0.366024
v -0.474813 1.956612 0.484715
v -0.190515 1.981406 0.172515
v -0.132705 2.424759 -0.126121
v -0.686063 2.473029 0.564128
v -0.969837 2.411482 0.231043
v 0.469739 1.930169 0.106083
v 0.533822 1.915351 0.242770
v 0.523946 2.139709 -0.188911
v 0.572932 1.753370 0.114706
v 0.503676 1.889811 -0.184921
v 0.617854 1.805400 0.262407
v 0.753751 2.312395 -0.244842
v 0.696002 2.398204 -0.005099
v 0.953478 2.365291 -0.200464
v 0.772610 2.042944 -0.339185
v 0.657126 1.783954 -0.221180
v 1.056174 2.328214 0.160133
v 0.799920 2.350789 0.159370
v 1.181304 2.187291 0.051997
v 1.082326 1.889080 0.102705
v 0.989987 1.916173 0.311210
v 0.838163 2.146997 0.343297
v 0.588815 2.219790 0.139008
v 0.746364 1.708835 0.135227
v 0.992753 1.863741 -0.174601
v 0.000000 0.000000 -0.066000
v -0.066000 0.000000 0.000000
v 0.000000 0.000000 0.066000
v 0.066000 0.000000 -0.000000
v 0.033430 0.256848 -0.066340
v -0.010940 0.256848 -0.021969
v 0.033430 0.256848 0.022401
v 0.077801 0.256848 -0.021969
v 0.010809 0.556777 -0.052718
v -0.033021 0.547699 -0.008740
v 0.010439 0.554588 0.035996
v 0.054269 0.563666 -0.007982
v -0.120761 0.933547 -0.013670
v -0.156874 0.935697 0.022625
v -0.120614 0.934051 0.058799
v -0.084502 0.931902 0.022504
v -0.082561 1.348200 -0.006508
v -0.126780 1.350832 0.032175
v -0.082381 1.348817 0.070711
v -0.038819 1.340310 0.031892
v -0.169162 1.517623 0.017148
v -0.188530 1.502674 0.041249
v -0.166472 1.513079 0.065429
v -0.147104 1.528029 0.041328
v -0.384599 1.678086 0.051492
v -0.391576 1.660936 0.082354
v -0.379299 1.671733 0.099351
v -0.366721 1.693808 0.076244
v -0.073588 1.405319 0.035052
v 0.134073 1.443707 0.019121
v 0.138064 1.437002 0.058900
v 0.119509 1.466045 0.046837
v 0.588590 1.890069 -0.025355
v 0.589695 1.887410 0.001363
v 0.580899 1.907656 -0.008572
v -0.606509 2.007315 0.270982
v -0.604665 1.994225 0.286657
v -0.591119 2.008497 0.280888
v -0.404593 1.704068 0.071110
v -0.355340 1.846698 -0.109421
v -0.343444 1.857160 -0.092951
v -0.368644 1.863986 -0.096367
v -0.379757 2.175478 -0.222066
vt 0.5820 0.1920
vt 0.5731 0.1926
vt 0.5724 0.1828
vt 0.5842 0.1729
vt 0.5924 0.1875
vt 0.5943 0.1952
vt 0.5833 0.2022
vt 0.5740 0.2000
vt 0.5388 0.1710
vt 0.5568 0.1776
vt 0.5391 0.1810
vt 0.5286 0.1764
vt 0.6017 0.1860
vt 0.6057 0.1955
vt 0.5970 0.2054
vt 0.5436 0.1944
vt 0.5374 0.1896
vt 0.5319 0.1934
vt 0.5292 0.1868
vt 0.5331 0.2023
vt 0.5471 0.2067
vt 0.5566 0.1951
vt 0.5589 0.2048
vt 0.5630 0.1933
vt 0.5701 0.2086
vt 0.5814 0.2139
vt 0.5183 0.1789
vt 0.5678 0.1712
vt 0.5192 0.1970
vt 0.5820 0.1920
vt 0.5731 0.1926
vt 0.5724 0.1828
vt 0.5842 0.1729
vt 0.5924 0.1875
vt 0.5943 0.1952
vt 0.5833 0.2022
vt 0.5740 0.2000
vt 0.5388 0.1710
vt 0.5568 0.1776
vt 0.5391 0.1810
vt 0.5286 0.1764
vt 0.6017 0.1860
vt 0.6057 0.1955
vt 0.5970 0.2054
vt 0.5436 0.1944
vt 0.5374 0.1896
vt 0.5319 0.1934
vt 0.5292 0.1868
vt 0.5331 0.2023
vt 0.5471 0.2067
vt 0.5566 0.1951
vt 0.5589 0.2048
vt 0.5630 0.1933
vt 0.5701 0.2086
vt 0.5814 0.2139
vt 0.5183 0.1789
vt 0.5678 0.1712
vt 0.5192 0.1970
vt 0.4118 0.7639
vt 0.4125 0.7780
vt 0.4091 0.7782
vt 0.4069 0.7646
vt 0.4218 0.7638
vt 0.4198 0.7783
vt 0.4161 0.7780
vt 0.4168 0.7631
vt 0.4266 0.7655
vt 0.4232 0.7788
vt 0.4119 0.7949
vt 0.4084 0.7949
vt 0.4190 0.7954
vt 0.4154 0.7952
vt 0.4225 0.7955
vt 0.4201 0.8176
vt 0.4173 0.8179
vt 0.4145 0.8180
vt 0.4118 0.8174
vt 0.4090 0.8171
vt 0.4102 0.8412
vt 0.4069 0.8408
vt 0.4170 0.8416
vt 0.4136 0.8414
vt 0.4204 0.8413
vt 0.4420 0.7640
vt 0.4441 0.7670
vt 0.4420 0.7741
vt 0.4402 0.7740
vt 0.4361 0.7631
vt 0.4389 0.7646
vt 0.4381 0.7740
vt 0.4362 0.7737
vt 0.4079 0.8435
vt 0.4103 0.8416
vt 0.4200 0.8460
vt 0.4375 0.7892
vt 0.4354 0.7892
vt 0.4343 0.7735
vt 0.4335 0.7890
vt 0.4388 0.7893
vt 0.4407 0.7894
vt 0.4335 0.7660
vt 0.4088 0.8469
vt 0.4199 0.8480
vt 0.4561 0.8479
vt 0.4563 0.8492
vt 0.4091 0.8524
vt 0.4069 0.8502
vt 0.4198 0.8502
vt 0.4198 0.8524
vt 0.4561 0.8507
vt 0.4560 0.8522
vt 0.4278 0.7636
vt 0.4298 0.7634
vt 0.4298 0.7878
vt 0.4287 0.7875
vt 0.4358 0.7914
vt 0.4315 0.7648
vt 0.4308 0.7877
vt 0.4266 0.7631
vt 0.4454 0.7765
vt 0.4469 0.7762
vt 0.4447 0.7956
vt 0.4335 0.7631
vt 0.4319 0.7876
vt 0.4462 0.7633
vt 0.4484 0.7632
vt 0.4441 0.7631
vt 0.4441 0.7761
vt 0.4502 0.7636
vt 0.4482 0.7764
vn 0.9348 0.3548 0.0148
vn 0.7480 0.5454 -0.3783
vn 0.7361 0.5551 -0.3874
vn 0.3202 0.8494 0.4195
vn 0.5346 0.5695 0.6244
vn -0.0094 -0.0258 -0.9996
vn -0.6294 0.1636 -0.7597
vn -0.6076 0.5584 -0.5648
vn -0.5754 0.7668 -0.2844
vn 0.1280 -0.5035 -0.8544
vn -0.8649 -0.4945 0.0859
vn -0.0360 -0.9906 0.1320
vn -0.4890 -0.8071 0.3309
vn 0.9850 -0.1642 -0.0530
vn 0.9931 -0.0625 0.0994
vn 0.7275 -0.2379 0.6436
vn 0.2581 -0.9529 0.1593
vn 0.1391 0.2265 0.9640
vn -0.5118 0.4528 0.7301
vn -0.9468 0.3060 -0.1002
vn 0.9365 -0.0855 -0.3401
vn 0.3771 0.9108 -0.1681
vn 0.6166 0.5163 0.5944
vn 0.2211 0.4630 -0.8584
vn -0.2049 0.7349 -0.6465
vn 0.2748 -0.5287 -0.8031
vn -0.3581 -0.6500 -0.6702
vn 0.6744 -0.6884 -0.2669
vn 0.7969 -0.1607 0.5824
vn 0.0851 -0.1174 0.9894
vn -0.1056 0.8672 0.4866
vn -0.7612 0.2322 0.6056
vn -0.8747 -0.1484 -0.4613
vn -0.7331 -0.1757 0.6570
vn -0.4703 -0.3189 0.8228
vn -0.8614 -0.2832 -0.4217
vn -0.8506 0.3007 0.4314
vn -0.9012 0.3916 -0.1855
vn -0.8715 0.4610 0.1674
vn -0.8626 -0.5050 -0.0306
vn -0.7817 -0.5425 0.3077
vn -0.1612 0.9162 -0.3668
vn 0.1188 0.3355 -0.9345
vn -0.2392 0.0039 -0.9710
vn -0.3768 -0.2397 -0.8948
vn 0.1667 0.9845 0.0538
vn 0.9023 -0.3437 -0.2601
vn 0.7280 0.1299 0.6732
vn 0.8808 -0.2211 0.4188
vn -0.4186 0.5639 0.7119
vn -0.5270 0.3579 0.7708
vn -0.0736 -0.1846 0.9801
vn 0.5125 0.2218 0.8295
vn -0.2720 -0.8787 0.3923
vn -0.2299 -0.9623 -0.1453
vn 0.2326 -0.4872 -0.8417
vn -0.4880 0.7068 0.5121
vn -0.9889 0.0782 -0.1262
vn -0.7996 -0.4472 0.4007
vn -0.6116 0.6866 -0.3931
vn -0.5802 0.2327 -0.7805
vn 0.0848 0.9704 0.2262
vn 0.6927 0.7104 -0.1242
vn 0.0573 0.6748 0.7358
vn -0.2825 -0.0447 0.9582
vn 0.1267 -0.7242 0.6779
vn -0.5886 -0.7784 -0.2184
vn 0.2574 -0.9305 -0.2606
vn 0.6019 0.0060 -0.7986
vn 0.4663 -0.8818 -0.0700
vn 0.4721 -0.8230 0.3160
vn 0.7508 0.0248 -0.6601
vn 0.7041 -0.0926 -0.7041
vn -0.6917 0.2074 0.6917
vn 0.7068 0.0280 0.7068
vn -0.7042 0.0907 -0.7042
vn 0.7062 0.0857 -0.7028
vn -0.7062 -0.0861 0.7028
vn 0.7064 0.0221 0.7075
vn -0.7064 -0.0213 -0.7075
vn 0.6860 0.1977 0.7002
vn -0.6915 -0.1662 -0.7030
vn 0.6682 0.3058 -0.6782
vn -0.6764 -0.2729 0.6841
vn 0.6774 -0.0543 -0.7336
vn -0.6782 0.0369 0.7340
vn 0.6771 -0.0879 0.7307
vn -0.6784 0.0706 -0.7313
vn 0.6251 0.3409 0.7022
vn -0.6603 -0.2321 -0.7143
vn 0.3363 -0.7676 0.5456
vn -0.6341 -0.3011 0.7122
vn -0.5497 -0.5793 -0.6018
vn 0.3818 0.6489 -0.6581
vn -0.3804 -0.6540 0.6539
vn 0.4868 0.4964 0.7188
vn 0.5995 0.3996 -0.6935
vn -0.1676 0.4656 0.8690
vn -0.1887 0.3110 0.9315
vn 0.4432 -0.7927 -0.4186
vn -0.1757 0.6399 -0.7481
vn 0.6864 -0.7110 -0.1527
vn 0.7021 0.0591 0.7096
vn -0.8482 -0.3578 -0.3906
vn 0.3062 0.6602 -0.6858
vn -0.3638 -0.6447 0.6723
vn -0.0246 0.3734 0.9274
vn -0.8747 -0.3770 -0.3044
vn 0.0975 0.7093 0.6982
vn -0.8365 -0.2953 -0.4615
vn 0.8351 -0.4486 -0.3182
vn -0.8203 -0.2389 -0.5196
vn 0.8393 -0.1194 -0.5304
vn -0.5375 0.4761 -0.6960
s off
f 1/1/1 2/2/1 18/3/1
f 18/3/2 8/4/2 1/1/2
f 1/1/3 8/4/3 3/5/3
f 1/1/4 5/6/4 4/7/4
f 1/1/5 6/8/5 2/2/5
f 7/9/6 8/10/6 9/11/6
f 7/9/7 9/11/7 10/12/7
f 7/13/8 5/6/8 3/5/8
f 10/14/9 11/15/9 5/6/9
f 9/11/10 8/10/10 12/16/10
f 14/17/11 15/18/11 20/19/11
f 12/16/12 16/20/12 14/17/12
f 14/17/13 16/20/13 15/18/13
f 17/21/14 13/22/14 18/23/14
f 17/24/15 18/3/15 2/2/15
f 17/24/16 6/8/16 16/25/16
f 17/21/17 16/20/17 12/16/17
f 19/26/18 6/8/18 4/7/18
f 19/26/19 4/7/19 11/15/19
f 11/27/20 10/12/20 20/19/20
f 8/4/21 18/3/21 13/28/21
f 1/1/22 3/5/22 5/6/22
f 1/1/23 4/7/23 6/8/23
f 7/13/24 3/5/24 8/4/24
f 7/13/25 10/14/25 5/6/25
f 12/16/26 8/10/26 13/22/26
f 9/11/27 12/16/27 14/17/27
f 17/21/28 12/16/28 13/22/28
f 17/24/29 2/2/29 6/8/29
f 19/26/30 16/25/30 6/8/30
f 11/15/31 4/7/31 5/6/31
f 19/29/32 11/27/32 20/19/32
f 10/12/33 9/11/33 20/19/33
f 19/29/34 20/19/34 15/18/34
f 19/29/35 15/18/35 16/20/35
f 9/11/36 14/17/36 20/19/36
f 21/30/37 22/31/37 38/32/37
f 38/32/38 28/33/38 21/30/38
f 21/30/39 28/33/39 23/34/39
f 21/30/40 25/35/40 24/36/40
f 21/30/41 26/37/41 22/31/41
f 27/38/42 28/39/42 29/40/42
f 27/38/43 29/40/43 30/41/43
f 27/42/44 25/35/44 23/34/44
f 30/43/45 31/44/45 25/35/45
f 29/40/46 28/39/46 32/45/46
f 34/46/47 35/47/47 40/48/47
f 32/45/48 36/49/48 34/46/48
f 34/46/49 36/49/49 35/47/49
f 37/50/50 33/51/50 38/52/50
f 37/53/51 38/32/51 22/31/51
f 37/53/52 26/37/52 36/54/52
f 37/50/53 36/49/53 32/45/53
f 39/55/54 26/37/54 24/36/54
f 39/55/55 24/36/55 31/44/55
f 31/56/56 30/41/56 40/48/56
f 28/33/57 38/32/57 33/57/57
f 21/30/58 23/34/58 25/35/58
f 21/30/59 24/36/59 26/37/59
f 27/42/60 23/34/60 28/33/60
f 27/42/61 30/43/61 25/35/61
f 32/45/62 28/39/62 33/51/62
f 29/40/63 32/45/63 34/46/63
f 37/50/64 32/45/64 33/51/64
f 37/53/65 22/31/65 26/37/65
f 39/55/66 36/54/66 26/37/66
f 31/44/67 24/36/67 25/35/67
f 39/58/68 31/56/68 40/48/68
f 30/41/69 29/40/69 40/48/69
f 39/58/70 40/48/70 35/47/70
f 39/58/71 35/47/71 36/49/71
f 29/40/72 34/46/72 40/48/72
f 41/59/73 45/60/73 48/61/73 44/62/73
f 43/63/74 47/64/74 46/65/74 42/66/74
f 44/67/75 48/68/75 47/64/75 43/63/75
f 42/66/76 46/65/76 45/60/76 41/59/76
f 48/61/77 45/60/77 49/69/77 52/70/77
f 46/65/78 47/64/78 51/71/78 50/72/78
f 47/64/79 48/68/79 52/73/79 51/71/79
f 45/60/80 46/65/80 50/72/80 49/69/80
f 51/71/81 52/73/81 56/74/81 55/75/81
f 49/69/82 50/72/82 54/76/82 53/77/82
f 52/70/83 49/69/83 53/77/83 56/78/83
f 50/72/84 51/71/84 55/75/84 54/76/84
f 56/78/85 53/77/85 57/79/85 60/80/85
f 54/76/86 55/75/86 59/81/86 58/82/86
f 55/75/87 56/74/87 60/83/87 59/81/87
f 53/77/88 54/76/88 58/82/88 57/79/88
f 59/84/89 69/85/89 64/86/89 63/87/89
f 57/88/90 58/89/90 62/90/90 61/91/90
f 59/92/91 60/93/91 71/94/91
f 58/89/92 59/84/92 63/87/92 62/90/92
f 61/91/93 62/90/93 66/95/93 65/96/93
f 64/97/94 61/91/94 65/96/94 68/98/94
f 62/90/95 63/87/95 67/99/95 66/95/95
f 63/87/96 64/86/96 68/100/96 67/99/96
f 69/101/97 57/88/97 61/91/97 64/97/97
f 69/102/98 59/92/98 71/94/98 72/103/98
f 72/103/99 71/94/99 74/104/99 75/105/99
f 60/106/100 57/107/100 70/108/100 71/109/100
f 57/107/101 69/102/101 72/103/101 70/108/101
f 70/108/102 73/110/102 74/111/102 71/109/102
f 67/112/103 68/113/103 78/114/103 77/115/103
f 65/96/104 66/95/104 79/116/104
f 68/113/105 79/117/105 76/118/105 78/114/105
f 66/119/106 67/112/106 77/115/106
f 82/120/107 81/121/107 83/122/107
f 79/117/108 66/123/108 77/124/108 76/118/108
f 79/125/109 68/126/109 81/121/109 82/120/109
f 65/127/110 79/125/110 82/120/110 80/128/110
f 68/126/111 65/129/111 80/130/111 81/121/111
f 80/128/112 82/120/112 83/122/112
f 81/121/113 80/130/113 83/122/113
f 72/103/114 75/105/114 73/110/114 70/108/114
