# Blender v2.78 (sub 0) OBJ File: 'Low_Poly_Trees_Pack.blend'
# www.blender.org
g Random_Tree_NoLeaves_s_02
v 0.045852 0.000000 -0.032106
v -0.032106 0.000000 -0.045852
v -0.045852 0.000000 0.032106
v 0.032106 0.000000 0.045852
v -0.120833 3.521893 -0.091457
v 0.015008 0.805774 0.030278
v -0.048584 2.661742 0.002498
v -0.044662 2.662894 -0.019720
v 0.025356 0.765063 -0.022724
v -0.028237 0.805774 -0.031482
v -0.066747 2.664046 -0.026352
v -0.070670 2.662894 -0.004140
v -0.036323 0.759714 0.023548
v -0.037106 0.857375 0.020569
v -0.224828 0.915679 0.067570
v -0.254702 0.918100 0.025124
v -0.265383 0.890572 0.065190
v -0.217440 0.934089 0.050104
v -0.420216 1.382480 0.080436
v -0.446533 1.375778 0.057028
v -0.456907 1.372990 0.088733
v -0.558394 2.302480 -0.026356
v -0.461343 1.412601 0.087491
v -0.611274 1.413149 -0.011879
v -0.618867 1.410667 0.005193
v -0.613463 1.432111 0.008399
v -0.802460 1.626258 -0.020667
v 0.023374 0.841764 -0.023070
v 0.120449 0.860387 -0.096595
v 0.130798 0.819675 -0.149597
v 0.088864 0.864785 -0.142390
v 0.205901 1.116069 -0.206818
v 0.218219 1.105376 -0.243444
v 0.185760 1.114428 -0.231360
v 0.463353 1.397538 -0.369451
v 0.465257 1.386329 -0.384145
v 0.455507 1.398981 -0.381624
v 0.522738 1.674898 -0.442171
v 0.050666 1.581518 -0.199446
v 0.203613 1.133395 -0.240897
v -0.005519 1.733758 0.077848
v -0.036223 1.734910 0.033998
v -0.042618 1.760135 0.071061
v 0.000625 1.752329 0.040136
v -0.006780 1.790778 0.075775
v 0.095293 1.777465 0.104587
v 0.089474 1.787178 0.077939
v 0.068605 1.805528 0.100958
v 0.222477 1.917608 0.119584
v 0.215618 1.922038 0.099721
v 0.196713 1.930283 0.116778
v 0.283506 2.410603 0.097100
vt 0.5477 0.8299
vt 0.5485 0.8606
vt 0.5469 0.8299
vt 0.5493 0.8299
vt 0.5485 0.8300
vt 0.5501 0.8299
vt 0.5692 0.7637
vt 0.5673 0.7924
vt 0.5656 0.7907
vt 0.5664 0.7636
vt 0.5709 0.7643
vt 0.5721 0.7650
vt 0.5708 0.7680
vt 0.5635 0.7923
vt 0.5635 0.7635
vt 0.5539 0.7635
vt 0.5546 0.7652
vt 0.5546 0.7705
vt 0.5539 0.7703
vt 0.5607 0.7635
vt 0.5616 0.7909
vt 0.5597 0.7924
vt 0.5579 0.7637
vt 0.5561 0.7642
vt 0.5579 0.7642
vt 0.5573 0.7706
vt 0.5560 0.7708
vt 0.5722 0.7635
vt 0.5734 0.7643
vt 0.5741 0.7678
vt 0.5723 0.7677
vt 0.5485 0.7968
vt 0.5499 0.7976
vt 0.5513 0.7967
vt 0.5512 0.7987
vt 0.5524 0.7641
vt 0.5526 0.7704
vt 0.5538 0.7859
vt 0.5525 0.7859
vt 0.5549 0.7859
vt 0.5558 0.7860
vt 0.5565 0.7999
vt 0.5569 0.7999
vt 0.5572 0.8204
vt 0.5576 0.8005
vt 0.5560 0.7999
vt 0.5559 0.8005
vt 0.5591 0.8058
vt 0.5594 0.8056
vt 0.5595 0.8099
vt 0.5587 0.8033
vt 0.5593 0.8031
vt 0.5583 0.8032
vt 0.5588 0.8057
vt 0.5597 0.8031
vt 0.5597 0.8057
vt 0.5695 0.7642
vt 0.5692 0.7678
vt 0.5472 0.7974
vt 0.5459 0.7987
vt 0.5718 0.7765
vt 0.5709 0.7764
vt 0.5730 0.7769
vt 0.5698 0.7768
vt 0.5708 0.7773
vt 0.5700 0.7952
vt 0.5692 0.7948
vt 0.5719 0.7950
vt 0.5709 0.7952
vt 0.5795 0.7642
vt 0.5803 0.7638
vt 0.5813 0.7811
vt 0.5693 0.8170
vt 0.5784 0.7638
vt 0.5813 0.7635
vt 0.5467 0.7648
vt 0.5485 0.7635
vt 0.5447 0.7635
vt 0.5458 0.7967
vt 0.5505 0.7654
vt 0.5524 0.7635
vt 0.5753 0.7636
vt 0.5768 0.7640
vt 0.5769 0.7665
vt 0.5757 0.7666
vt 0.5772 0.7728
vt 0.5762 0.7729
vt 0.5783 0.7635
vt 0.5781 0.7667
vt 0.5741 0.7637
vt 0.5748 0.7669
vt 0.5783 0.7936
vt 0.5783 0.7727
vt 0.5754 0.7729
vn 0.9788 0.1017 0.1781
vn -0.9813 -0.0753 -0.1772
vn -0.2831 0.0806 0.9557
vn 0.2845 -0.0547 -0.9571
vn -0.1614 0.0144 0.9868
vn -0.5503 0.8226 -0.1433
vn -0.9872 0.0090 -0.1589
vn 0.3568 0.5273 0.7711
vn 0.9845 0.0242 0.1736
vn -0.4745 -0.6484 -0.5954
vn 0.7798 -0.4137 0.4700
vn 0.1823 0.7048 -0.6856
vn -0.9871 -0.0430 -0.1544
vn -0.1575 0.0324 0.9870
vn 0.0603 -0.2030 0.9773
vn 0.0790 -0.0060 0.9969
vn 0.5160 0.2803 -0.8094
vn 0.7329 0.2898 0.6155
vn -0.8602 -0.3277 -0.3908
vn 0.6628 0.0126 -0.7487
vn -0.9465 -0.1404 -0.2905
vn 0.2070 0.0538 0.9769
vn 0.6668 0.5789 -0.4693
vn 0.2738 0.1514 0.9498
vn 0.4071 0.6794 -0.6105
vn -0.4628 -0.0212 0.8862
vn -0.1493 -0.9757 -0.1604
vn -0.2363 -0.0852 0.9679
vn -0.6768 -0.6233 -0.3916
vn 0.1736 0.0167 -0.9847
vn -0.4719 -0.5378 -0.6986
vn 0.9862 0.0598 0.1546
vn 0.2257 -0.0543 -0.9727
vn 0.0921 0.9295 0.3571
vn -0.7042 0.4655 0.5361
vn 0.9275 -0.1708 0.3325
vn -0.3699 -0.1837 -0.9107
vn -0.3869 -0.1177 -0.9146
vn 0.7768 -0.4721 0.4167
vn -0.4203 -0.0597 -0.9054
vn -0.3793 -0.1092 -0.9188
vn 0.9613 -0.1443 0.2346
vn -0.7822 0.3093 0.5408
vn -0.3738 -0.1112 -0.9208
vn -0.5393 0.7325 0.4154
vn 0.9447 0.3136 0.0960
vn -0.7387 -0.2562 0.6234
vn 0.1198 0.0713 -0.9902
vn 0.9862 0.0133 0.1651
vn -0.2281 -0.0553 0.9721
vn -0.9851 0.0036 -0.1719
vn 0.0426 0.7279 -0.6843
vn -0.2272 0.0723 0.9712
vn -0.4136 0.5139 -0.7515
vn -0.2747 -0.0258 0.9612
vn 0.4584 -0.8145 -0.3556
vn -0.6465 0.0858 -0.7581
vn -0.1209 0.0011 0.9927
vn 0.7063 -0.6004 -0.3751
vn -0.0811 0.0554 0.9952
vn 0.9278 -0.1308 -0.3495
s off
f 8/1/1 5/2/1 7/3/1
f 12/4/2 5/2/2 11/5/2
f 7/6/3 5/2/3 12/4/3
f 11/5/4 5/2/4 8/1/4
f 4/7/5 6/8/5 13/9/5 3/10/5
f 10/11/6 28/12/6 31/13/6
f 3/10/7 13/9/7 10/14/7 2/15/7
f 6/16/8 14/17/8 18/18/8 15/19/8
f 1/20/9 9/21/9 6/22/9 4/23/9
f 10/24/10 13/25/10 17/26/10 16/27/10
f 6/28/11 9/29/11 30/30/11 29/31/11
f 14/17/12 10/24/12 16/27/12 18/18/12
f 42/32/13 43/33/13 12/4/13 11/5/13
f 43/33/14 41/34/14 45/35/14
f 13/36/15 6/16/15 15/19/15 17/37/15
f 17/37/16 15/19/16 19/38/16 21/39/16
f 18/18/17 16/27/17 20/40/17 19/38/17
f 15/19/18 18/18/18 19/38/18
f 16/27/19 17/26/19 21/41/19 20/40/19
f 19/42/20 20/43/20 22/44/20
f 20/43/21 23/45/21 22/44/21
f 21/46/22 19/42/22 23/47/22
f 26/48/23 24/49/23 27/50/23
f 23/47/24 19/42/24 22/44/24
f 23/51/25 20/52/25 24/49/25 26/48/25
f 21/53/26 23/51/26 26/48/26 25/54/26
f 20/52/27 21/55/27 25/56/27 24/49/27
f 25/54/28 26/48/28 27/50/28
f 24/49/29 25/56/29 27/50/29
f 2/15/30 10/14/30 9/21/30 1/20/30
f 9/57/31 10/11/31 31/13/31 30/58/31
f 44/59/32 8/1/32 7/3/32 45/60/32
f 44/59/33 42/32/33 11/5/33 8/1/33
f 28/12/34 6/28/34 29/31/34 31/13/34
f 31/13/35 29/31/35 32/61/35 34/62/35
f 29/31/36 30/30/36 33/63/36 32/61/36
f 30/58/37 31/13/37 34/62/37 33/64/37
f 33/64/38 40/65/38 37/66/38 36/67/38
f 32/61/39 33/63/39 36/68/39 35/69/39
f 40/70/40 34/71/40 39/72/40
f 36/67/41 37/66/41 38/73/41
f 35/69/42 36/68/42 38/73/42
f 37/66/43 35/69/43 38/73/43
f 40/65/44 33/64/44 34/62/44
f 40/65/45 32/61/45 35/69/45 37/66/45
f 32/74/46 40/70/46 39/72/46
f 34/71/47 32/75/47 39/72/47
f 28/76/48 10/77/48 42/32/48 44/59/48
f 6/78/49 28/76/49 44/59/49 41/79/49
f 14/80/50 6/81/50 41/34/50 43/33/50
f 10/77/51 14/80/51 43/33/51 42/32/51
f 44/82/52 45/83/52 48/84/52 47/85/52
f 12/4/53 43/33/53 45/35/53 7/6/53
f 47/85/54 48/84/54 51/86/54 50/87/54
f 45/83/55 41/88/55 46/89/55 48/84/55
f 41/90/56 44/82/56 47/85/56 46/91/56
f 50/87/57 51/86/57 52/92/57
f 48/84/58 46/89/58 49/93/58 51/86/58
f 46/91/59 47/85/59 50/87/59 49/94/59
f 51/86/60 49/93/60 52/92/60
f 49/94/61 50/87/61 52/92/61
