# Blender v2.78 (sub 0) OBJ File: 'Low_Poly_Trees_Pack.blend'
# www.blender.org
g Random_Tree_NoLeaves_m_05
v 0.059775 0.000000 0.339000
v 0.340880 0.000000 0.047908
v 0.150900 0.000000 -0.309392
v -0.247618 0.000000 -0.239122
v -0.303937 0.000000 0.161606
v 0.080821 1.292195 0.199341
v 0.239620 1.274271 0.032930
v 0.130573 1.277835 -0.170360
v -0.095621 1.297963 -0.129590
v -0.126369 1.306838 0.098898
v -0.031433 2.867808 0.146573
v 0.090339 2.801722 0.035218
v 0.013210 2.868044 -0.108157
v -0.142330 2.794342 -0.087202
v -0.171688 2.850827 0.071834
v -0.113840 5.283789 0.242388
v -0.040514 5.290617 0.171765
v -0.085194 5.283940 0.082262
v -0.186134 5.272986 0.097569
v -0.203838 5.272892 0.196545
v -0.177406 7.165275 0.387408
v -0.139597 7.159645 0.347136
v -0.166096 7.161293 0.298370
v -0.220282 7.167943 0.308503
v -0.227272 7.170404 0.363531
v -0.284484 8.725357 0.627478
v -0.273242 8.723683 0.615126
v -0.281121 8.724174 0.600573
v -0.298272 8.726517 0.612243
v 0.060344 3.053869 0.068372
v 0.665600 3.114497 0.134806
v 0.737506 3.067077 0.058014
v 0.682841 3.080524 -0.045126
v 0.580939 3.147081 0.068539
v 1.408139 3.879919 0.051267
v 1.452345 3.850766 0.004138
v 1.418738 3.859033 -0.059270
v 1.356091 3.899951 0.010304
v 1.846879 5.464192 0.064881
v 1.856287 5.457988 0.056176
v 1.849134 5.459747 0.042306
v 1.835801 5.468455 0.055257
v -0.146343 2.980324 -0.067833
v -0.411498 3.063540 -0.495620
v -0.519070 2.994511 -0.455371
v -0.567797 3.049817 -0.345713
v -0.465091 3.124156 -0.382780
v -0.791012 3.581807 -0.800276
v -0.873781 3.560456 -0.786653
v -0.893581 3.575255 -0.704965
v -0.806843 3.580865 -0.710050
v -1.181688 3.959251 -1.146333
v -1.239308 3.942920 -1.136402
v -1.253569 3.954515 -1.079435
v -1.197217 3.973185 -1.086990
v -0.857048 3.638258 -0.761984
v -0.822129 3.943975 -0.386739
v -0.833469 3.941494 -0.374945
v -0.821820 3.934867 -0.373560
v -0.835287 3.950488 -0.387002
v -1.650976 4.552026 -1.404007
v -1.677143 4.544611 -1.399498
v -1.683619 4.549876 -1.373628
v -1.658028 4.558354 -1.377059
vt 0.4170 0.7647
vt 0.4157 0.7888
vt 0.4114 0.7886
vt 0.4101 0.7647
vt 0.4032 0.7657
vt 0.4071 0.7885
vt 0.4029 0.7891
vt 0.3964 0.7675
vt 0.4238 0.7657
vt 0.4200 0.7888
vt 0.4308 0.7675
vt 0.4242 0.7891
vt 0.4121 0.8162
vt 0.4093 0.8175
vt 0.4208 0.8165
vt 0.4178 0.8175
vt 0.4150 0.8172
vt 0.4063 0.8166
vt 0.4158 0.8600
vt 0.4140 0.8599
vt 0.4124 0.8194
vt 0.4095 0.8175
vt 0.4122 0.8601
vt 0.4105 0.8605
vt 0.4067 0.8211
vt 0.4175 0.8602
vt 0.4927 0.8344
vt 0.4914 0.8372
vt 0.4816 0.8366
vt 0.4819 0.8342
vt 0.4308 0.7666
vt 0.4336 0.7652
vt 0.4345 0.7781
vt 0.4326 0.7790
vt 0.4506 0.7653
vt 0.4479 0.7984
vt 0.4468 0.7984
vt 0.4489 0.7650
vt 0.4471 0.7647
vt 0.4457 0.7981
vt 0.4446 0.7979
vt 0.4453 0.7648
vt 0.4524 0.7655
vt 0.4490 0.7982
vt 0.4435 0.7979
vt 0.4435 0.7650
vt 0.4447 0.8262
vt 0.4443 0.8260
vt 0.4438 0.8261
vt 0.4452 0.8262
vt 0.4457 0.8262
vt 0.4410 0.7647
vt 0.4435 0.7668
vt 0.4407 0.7792
vt 0.4389 0.7783
vt 0.4200 0.8207
vt 0.4193 0.8602
vt 0.4377 0.7669
vt 0.4373 0.7770
vt 0.4356 0.7968
vt 0.4339 0.7965
vt 0.4327 0.7966
vt 0.4368 0.7971
vt 0.4380 0.7972
vt 0.4322 0.8252
vt 0.4317 0.8251
vt 0.4327 0.8251
vt 0.4313 0.8250
vt 0.4308 0.8249
vt 0.4527 0.7756
vt 0.4525 0.7756
vt 0.4524 0.7753
vt 0.4528 0.7753
vt 0.4525 0.7759
vt 0.4524 0.7757
vt 0.4527 0.7756
vt 0.4527 0.7759
vt 0.4914 0.8263
vt 0.4928 0.8290
vt 0.4819 0.8292
vt 0.4816 0.8269
vt 0.4907 0.8317
vt 0.4819 0.8316
vt 0.4699 0.8317
vt 0.4691 0.8303
vt 0.4686 0.8289
vt 0.4691 0.8331
vt 0.4686 0.8346
vt 0.4546 0.7658
vt 0.4563 0.7658
vt 0.4552 0.7746
vt 0.4549 0.7745
vt 0.4573 0.8338
vt 0.4577 0.8328
vt 0.4682 0.8317
vt 0.4579 0.8317
vt 0.4576 0.8306
vt 0.4573 0.8296
vt 0.4533 0.7647
vt 0.4547 0.7745
vt 0.4578 0.7662
vt 0.4554 0.7746
vt 0.4524 0.7661
vt 0.4544 0.7746
vt 0.4437 0.8322
vt 0.4437 0.8317
vt 0.4526 0.7759
vt 0.4526 0.7762
vt 0.4524 0.7763
vt 0.4524 0.7760
vt 0.4529 0.7748
vt 0.4529 0.7753
vt 0.4524 0.7751
vt 0.4524 0.7746
vt 0.4435 0.8327
vt 0.4436 0.8312
vt 0.4435 0.8308
vn -0.9823 0.1268 -0.1377
vn 0.8806 0.0648 -0.4693
vn -0.4331 0.1028 0.8954
vn -0.1708 0.1033 -0.9799
vn 0.7206 0.0641 0.6904
vn -0.1630 0.0248 -0.9863
vn 0.7125 0.0714 0.6981
vn -0.9885 -0.0292 -0.1484
vn 0.8848 0.0852 -0.4580
vn -0.4502 0.0001 0.8929
vn -0.9837 -0.0040 -0.1796
vn 0.9285 0.0629 -0.3660
vn -0.4584 -0.0513 0.8872
vn 0.2454 -0.7272 -0.6410
vn 0.3309 -0.8316 -0.4460
vn -0.4418 -0.0839 0.8932
vn -0.1638 0.1060 -0.9808
vn 0.7062 -0.0298 0.7074
vn -0.9874 0.0008 -0.1583
vn 0.8841 0.0904 -0.4584
vn -0.9919 -0.0253 -0.1249
vn 0.8705 0.1545 -0.4674
vn -0.5282 -0.1610 0.8337
vn -0.2688 0.1675 -0.9485
vn 0.7265 -0.0554 0.6849
vn 0.2565 -0.6879 0.6790
vn 0.6729 -0.0052 0.7398
vn -0.1453 0.5487 0.8233
vn -0.1525 0.7313 -0.6648
vn -0.5058 0.4647 -0.7268
vn 0.6530 -0.6251 -0.4276
vn -0.4153 0.4869 0.7684
vn 0.5176 -0.4208 0.7450
vn -0.5810 0.1544 0.7991
vn 0.6472 -0.1861 0.7393
vn -0.6482 0.2199 -0.7290
vn 0.8558 -0.1997 -0.4773
vn 0.4558 0.8808 -0.1279
vn 0.1158 0.9929 -0.0292
vn -0.5791 -0.7986 0.1639
vn -0.1827 0.0688 -0.9808
vn 0.5411 0.8225 -0.1754
vn -0.2921 0.7246 0.6242
vn -0.0470 0.5506 0.8334
vn -0.8200 -0.5659 -0.0863
vn 0.7754 0.6262 0.0811
vn -0.0029 -0.5074 -0.8617
vn -0.9416 0.2906 -0.1703
vn 0.0468 -0.6489 -0.7595
vn -0.0664 0.6642 0.7446
vn -0.7051 -0.7081 -0.0384
vn 0.2824 0.7307 -0.6216
vn 0.6790 0.7331 0.0387
vn 0.0205 -0.6798 0.7332
vn 0.9867 -0.0831 0.1400
vn 0.7716 0.6339 0.0531
vn 0.3726 0.7686 0.5200
vn -0.3209 0.9046 -0.2807
vn -0.0364 -0.4225 -0.9057
vn -0.0216 0.4303 0.9024
vn -0.7906 -0.6078 -0.0742
s off
f 5/1/1 10/2/1 9/3/1 4/4/1
f 3/5/2 8/6/2 7/7/2 2/8/2
f 1/9/3 6/10/3 10/2/3 5/1/3
f 4/4/4 9/3/4 8/6/4 3/5/4
f 2/11/5 7/12/5 6/10/5 1/9/5
f 9/3/6 14/13/6 13/14/6 8/6/6
f 7/12/7 12/15/7 11/16/7 6/10/7
f 10/2/8 15/17/8 14/13/8 9/3/8
f 8/6/9 13/14/9 12/18/9 7/7/9
f 6/10/10 11/16/10 15/17/10 10/2/10
f 15/17/11 20/19/11 19/20/11 43/21/11
f 13/22/12 18/23/12 17/24/12 30/25/12
f 11/16/13 16/26/13 20/19/13 15/17/13
f 13/27/14 14/28/14 45/29/14 44/30/14
f 12/31/15 13/32/15 33/33/15 32/34/15
f 16/35/16 21/36/16 25/37/16 20/38/16
f 19/39/17 24/40/17 23/41/17 18/42/17
f 17/43/18 22/44/18 21/36/18 16/35/18
f 20/38/19 25/37/19 24/40/19 19/39/19
f 18/42/20 23/41/20 22/45/20 17/46/20
f 24/40/21 25/37/21 29/47/21
f 22/45/22 23/41/22 28/48/22 27/49/22
f 25/37/23 21/36/23 26/50/23 29/47/23
f 23/41/24 24/40/24 29/47/24 28/48/24
f 21/36/25 22/44/25 27/51/25 26/50/25
f 11/52/26 12/53/26 32/54/26 31/55/26
f 11/16/27 30/56/27 17/57/27 16/26/27
f 30/58/28 11/52/28 31/55/28 34/59/28
f 13/32/29 30/58/29 34/59/29 33/33/29
f 33/33/30 34/59/30 38/60/30 37/61/30
f 32/34/31 33/33/31 37/61/31 36/62/31
f 34/59/32 31/55/32 35/63/32 38/60/32
f 31/55/33 32/54/33 36/64/33 35/63/33
f 38/60/34 35/63/34 39/65/34 42/66/34
f 35/63/35 36/64/35 40/67/35 39/65/35
f 37/61/36 38/60/36 42/66/36 41/68/36
f 36/62/37 37/61/37 41/68/37 40/69/37
f 39/70/38 40/71/38 41/72/38 42/73/38
f 27/74/39 28/75/39 29/76/39 26/77/39
f 14/78/40 15/79/40 46/80/40 45/81/40
f 13/22/41 43/21/41 19/20/41 18/23/41
f 43/82/42 13/27/42 44/30/42 47/83/42
f 15/79/43 43/82/43 47/83/43 46/80/43
f 46/80/44 47/83/44 51/84/44 50/85/44
f 45/81/45 46/80/45 50/85/45 49/86/45
f 47/83/46 44/30/46 48/87/46 51/84/46
f 44/30/47 45/29/47 49/88/47 48/87/47
f 56/89/48 50/90/48 58/91/48 60/92/48
f 48/87/49 49/88/49 53/93/49 52/94/49
f 50/85/50 56/95/50 55/96/50 54/97/50
f 49/86/51 50/85/51 54/97/51 53/98/51
f 48/99/52 56/89/52 60/92/52 57/100/52
f 56/95/53 48/87/53 52/94/53 55/96/53
f 50/90/54 51/101/54 59/102/54 58/91/54
f 51/103/55 48/99/55 57/100/55 59/104/55
f 55/96/56 52/94/56 61/105/56 64/106/56
f 59/107/57 57/108/57 60/109/57 58/110/57
f 62/111/58 63/112/58 64/113/58 61/114/58
f 52/94/59 53/93/59 62/115/59 61/105/59
f 54/97/60 55/96/60 64/106/60 63/116/60
f 53/98/61 54/97/61 63/116/61 62/117/61
