# Blender v2.78 (sub 0) OBJ File: 'Low_Poly_Trees_Pack.blend'
# www.blender.org
g Random_Tree_m_05
v -2.045032 5.704368 -1.238784
v -1.901398 5.766599 -1.785193
v -2.459600 5.517582 -1.445227
v -2.588589 4.943123 -1.406964
v -2.238623 4.311265 -0.663156
v -1.779961 4.488201 -0.220623
v -1.169966 4.727979 -0.132472
v -2.487729 5.504754 -1.820929
v -1.959379 5.051085 -2.125381
v -1.270176 5.127902 -2.003558
v -2.490358 4.942855 -1.765821
v -1.474872 4.421962 -2.129408
v -0.588224 4.073790 -1.757594
v -0.532891 4.753111 -1.740230
v -0.239805 4.604620 -1.052471
v -0.068730 3.739761 -0.978128
v -0.747568 3.321827 -1.541450
v -0.963333 2.953283 -1.013305
v -1.600231 3.243192 -1.509878
v -0.403661 3.209712 -0.644334
v -0.415926 4.238366 -0.276209
v -1.551082 5.638009 -1.007359
v -1.251542 3.731800 -0.208541
v -1.551635 3.298987 -0.457204
v -2.195552 3.811698 -1.239201
v -0.751606 5.279542 -1.231224
v 1.344919 6.237777 0.279630
v 1.830220 6.297618 0.569405
v 1.657459 6.275854 -0.107984
v 1.768554 5.814183 -0.458160
v 1.129722 5.007715 -0.586511
v 0.584893 4.912980 -0.223606
v 0.339569 4.851907 0.387494
v 2.025823 6.322345 -0.042765
v 2.322536 5.725306 0.322153
v 2.066211 5.480290 0.930436
v 2.095525 5.815062 -0.280628
v 2.376865 4.954027 0.503084
v 1.937828 4.213508 1.054893
v 1.763669 4.793964 1.367271
v 1.083702 4.450572 1.393482
v 1.169859 3.595136 1.184724
v 1.922193 3.584844 0.562863
v 1.533838 3.284993 0.093197
v 2.060802 3.880416 -0.229374
v 1.024346 3.226405 0.595306
v 0.449668 4.105366 0.896918
v 1.049289 5.936217 0.631214
v 0.643606 4.007058 -0.058157
v 1.029751 3.780976 -0.430975
v 1.783469 4.613137 -0.599615
v 1.199696 5.296836 1.252782
v -1.278223 6.520846 0.608018
v -1.158759 6.654484 1.130470
v -1.118919 8.113057 1.128590
v -0.955905 8.483964 0.750658
v -1.421541 7.191785 0.417177
v -1.354319 7.206047 0.035371
v -1.434269 5.114983 0.244387
v -1.408376 4.531858 -0.117281
v -1.155595 4.250431 0.447553
v -1.447951 5.590758 -0.383346
v -0.843861 4.849919 1.125171
v -0.844639 6.282242 1.425486
v -0.581046 8.275136 -0.299219
v -0.926499 8.997328 0.363781
v -0.445499 9.324819 0.082010
v -1.111573 7.671204 -0.212384
v -0.093176 8.379047 -0.493579
v 0.170635 9.232526 0.249986
v 0.404886 7.864645 -0.617370
v -0.429273 6.559659 -1.090420
v -0.090418 5.644042 -1.181866
v -0.725142 5.178218 -1.037773
v 0.553525 6.762672 -0.981437
v -1.114612 6.148526 -0.772458
v 0.936697 7.462126 -0.017597
v 0.447449 8.942182 0.723466
v 1.176663 7.013691 0.593585
v 0.560403 8.207278 1.452483
v 1.164317 6.744165 1.013404
v 1.410661 5.621852 0.029098
v 1.107130 4.255903 0.472407
v 1.025447 4.719530 -0.714768
v 1.139999 5.485849 1.127952
v 0.656029 7.814850 -0.421269
v 0.260161 6.704010 1.509406
v -0.150565 8.069373 1.595144
v -0.398913 6.347049 1.611193
v -0.797463 8.496263 1.479223
v 0.286139 5.022919 1.440313
v -0.067643 4.449800 1.179104
v 0.705960 4.382523 1.315926
v 0.896032 6.933687 1.303202
v 0.034411 3.852165 0.695586
v -0.551519 3.904047 -0.074091
v -0.723232 4.346331 -0.742537
v 0.534632 4.103842 -0.772882
v -0.118633 9.277785 1.203305
v -0.262672 9.534963 0.667730
v -0.385141 9.588128 0.385535
v -0.763213 9.237192 0.824197
v 0.059775 0.000000 0.339000
v 0.340880 0.000000 0.047908
v 0.150900 0.000000 -0.309392
v -0.247618 0.000000 -0.239122
v -0.303937 0.000000 0.161606
v 0.080821 1.292195 0.199341
v 0.239620 1.274271 0.032930
v 0.130573 1.277835 -0.170360
v -0.095621 1.297963 -0.129590
v -0.126369 1.306838 0.098898
v -0.031433 2.867808 0.146573
v 0.090339 2.801722 0.035218
v 0.013210 2.868044 -0.108157
v -0.142330 2.794342 -0.087202
v -0.171688 2.850827 0.071834
v -0.113840 5.283789 0.242388
v -0.040514 5.290617 0.171765
v -0.085194 5.283940 0.082262
v -0.186134 5.272986 0.097569
v -0.203838 5.272892 0.196545
v 0.060344 3.053869 0.068372
v 0.665600 3.114497 0.134806
v 0.737506 3.067077 0.058014
v 0.682841 3.080524 -0.045126
v 0.580939 3.147081 0.068539
v 1.408139 3.879919 0.051267
v 1.452345 3.850766 0.004138
v 1.418738 3.859033 -0.059270
v 1.356091 3.899951 0.010304
v -0.146343 2.980324 -0.067833
v -0.411498 3.063540 -0.495620
v -0.519070 2.994511 -0.455371
v -0.567797 3.049817 -0.345713
v -0.465091 3.124156 -0.382780
v -0.791012 3.581807 -0.800276
v -0.873781 3.560456 -0.786653
v -0.893581 3.575255 -0.704965
v -0.806843 3.580865 -0.710050
vt 0.4560 0.1839
vt 0.4641 0.1689
vt 0.4620 0.1889
vt 0.4718 0.1858
vt 0.4666 0.1973
vt 0.4574 0.2024
vt 0.4500 0.1984
vt 0.4422 0.1906
vt 0.4169 0.1556
vt 0.4329 0.1653
vt 0.4164 0.1656
vt 0.4145 0.1742
vt 0.4034 0.1626
vt 0.3903 0.1815
vt 0.4191 0.1806
vt 0.4252 0.1725
vt 0.4268 0.1803
vt 0.4285 0.1901
vt 0.4196 0.1897
vt 0.4122 0.1828
vt 0.4063 0.1869
vt 0.4036 0.1803
vt 0.4123 0.1923
vt 0.4226 0.2008
vt 0.4352 0.1991
vt 0.4237 0.2101
vt 0.4450 0.2073
vt 0.4515 0.2144
vt 0.3954 0.1950
vt 0.4374 0.1879
vt 0.4493 0.1796
vt 0.4455 0.1671
vt 0.4773 0.1950
vt 0.4662 0.2111
vt 0.4008 0.2044
vt 0.4560 0.1839
vt 0.4641 0.1689
vt 0.4620 0.1889
vt 0.4718 0.1858
vt 0.4666 0.1973
vt 0.4574 0.2024
vt 0.4500 0.1984
vt 0.4422 0.1906
vt 0.4169 0.1556
vt 0.4329 0.1653
vt 0.4164 0.1656
vt 0.4145 0.1742
vt 0.4034 0.1626
vt 0.3903 0.1815
vt 0.4191 0.1806
vt 0.4252 0.1725
vt 0.4268 0.1803
vt 0.4285 0.1901
vt 0.4196 0.1897
vt 0.4122 0.1828
vt 0.4063 0.1869
vt 0.4036 0.1803
vt 0.4123 0.1923
vt 0.4226 0.2008
vt 0.4352 0.1991
vt 0.4237 0.2101
vt 0.4450 0.2073
vt 0.4515 0.2144
vt 0.3954 0.1950
vt 0.4374 0.1879
vt 0.4493 0.1796
vt 0.4455 0.1671
vt 0.4773 0.1950
vt 0.4662 0.2111
vt 0.4008 0.2044
vt 0.4611 0.1932
vt 0.4556 0.1922
vt 0.4597 0.1860
vt 0.4646 0.1835
vt 0.4655 0.1902
vt 0.4697 0.1894
vt 0.4643 0.1977
vt 0.4683 0.2010
vt 0.4621 0.2033
vt 0.4715 0.1961
vt 0.4549 0.2000
vt 0.4508 0.1933
vt 0.4812 0.1827
vt 0.4693 0.1800
vt 0.4735 0.1725
vt 0.4742 0.1870
vt 0.4226 0.1642
vt 0.4345 0.1693
vt 0.4222 0.1724
vt 0.4304 0.1800
vt 0.4208 0.1788
vt 0.4101 0.1708
vt 0.4092 0.1785
vt 0.4007 0.1751
vt 0.4166 0.1812
vt 0.4767 0.1948
vt 0.4865 0.1955
vt 0.4800 0.2026
vt 0.4224 0.1861
vt 0.4319 0.1873
vt 0.4232 0.1920
vt 0.4335 0.1965
vt 0.4236 0.1961
vt 0.4182 0.1896
vt 0.4128 0.1934
vt 0.4137 0.1873
vt 0.4198 0.1973
vt 0.4216 0.1817
vt 0.4280 0.2065
vt 0.4398 0.2048
vt 0.4290 0.2151
vt 0.4438 0.1933
vt 0.4535 0.1828
vt 0.4155 0.2104
vt 0.4062 0.2096
vt 0.4117 0.2020
vt 0.4442 0.2069
vt 0.4520 0.2089
vt 0.4262 0.1998
vt 0.4574 0.2148
vt 0.4671 0.2130
vt 0.4756 0.2084
vt 0.3975 0.1827
vt 0.4088 0.1872
vt 0.3975 0.1930
vt 0.4026 0.2010
vt 0.4418 0.1943
vt 0.4423 0.1845
vt 0.4394 0.1754
vt 0.4610 0.1790
vt 0.4666 0.1687
vt 0.4569 0.1675
vt 0.4487 0.1712
vt 0.4447 0.1796
vt 0.4170 0.7647
vt 0.4157 0.7888
vt 0.4114 0.7886
vt 0.4101 0.7647
vt 0.4032 0.7657
vt 0.4071 0.7885
vt 0.4029 0.7891
vt 0.3964 0.7675
vt 0.4238 0.7657
vt 0.4200 0.7888
vt 0.4308 0.7675
vt 0.4242 0.7891
vt 0.4121 0.8162
vt 0.4093 0.8175
vt 0.4208 0.8165
vt 0.4178 0.8175
vt 0.4150 0.8172
vt 0.4063 0.8166
vt 0.4158 0.8600
vt 0.4140 0.8599
vt 0.4124 0.8194
vt 0.4095 0.8175
vt 0.4122 0.8601
vt 0.4105 0.8605
vt 0.4067 0.8211
vt 0.4175 0.8602
vt 0.4927 0.8344
vt 0.4914 0.8372
vt 0.4816 0.8366
vt 0.4819 0.8342
vt 0.4308 0.7666
vt 0.4336 0.7652
vt 0.4345 0.7781
vt 0.4326 0.7790
vt 0.4410 0.7647
vt 0.4435 0.7668
vt 0.4407 0.7792
vt 0.4389 0.7783
vt 0.4200 0.8207
vt 0.4193 0.8602
vt 0.4377 0.7669
vt 0.4373 0.7770
vt 0.4356 0.7968
vt 0.4339 0.7965
vt 0.4327 0.7966
vt 0.4368 0.7971
vt 0.4380 0.7972
vt 0.4914 0.8263
vt 0.4928 0.8290
vt 0.4819 0.8292
vt 0.4816 0.8269
vt 0.4907 0.8317
vt 0.4819 0.8316
vt 0.4699 0.8317
vt 0.4691 0.8303
vt 0.4686 0.8289
vt 0.4691 0.8331
vt 0.4686 0.8346
vn -0.4093 0.9124 -0.0037
vn -0.4077 0.9131 -0.0007
vn -0.7994 0.2168 0.5603
vn -0.3306 0.5624 0.7579
vn -0.7203 0.2796 0.6348
vn -0.1398 0.4344 -0.8898
vn -0.4722 -0.3585 -0.8053
vn -0.5010 -0.4692 -0.7272
vn 0.3349 -0.0032 -0.9422
vn 0.8494 0.1239 -0.5130
vn 0.0559 -0.8294 -0.5559
vn 0.8797 -0.2939 -0.3739
vn 0.5573 -0.7703 -0.3099
vn 0.0102 -0.4661 -0.8847
vn 0.5611 0.6922 0.4539
vn 0.5399 0.6898 0.4824
vn -0.1172 -0.0661 0.9909
vn 0.8237 -0.1823 0.5369
vn -0.6143 -0.2658 0.7430
vn -0.5599 -0.8247 -0.0797
vn 0.8042 0.5506 -0.2238
vn 0.4020 0.9152 -0.0298
vn -0.2690 0.6066 0.7481
vn -0.9727 0.2228 0.0652
vn -0.5532 0.4606 0.6942
vn 0.1125 0.4192 -0.9009
vn -0.5478 -0.0791 -0.8328
vn -0.9643 -0.0214 -0.2639
vn -0.9034 -0.3505 -0.2470
vn 0.4018 0.0465 -0.9145
vn 0.1587 0.1285 -0.9789
vn 0.9130 -0.0641 -0.4029
vn 0.4602 -0.6628 -0.5907
vn 0.2582 -0.3170 -0.9126
vn 0.9274 0.2101 0.3095
vn 0.1322 -0.0862 0.9875
vn 0.2686 -0.3217 0.9079
vn -0.8062 -0.4755 0.3521
vn 0.0936 -0.5440 0.8339
vn -0.3781 -0.2499 0.8914
vn -0.9361 -0.2973 0.1879
vn -0.6232 -0.3109 -0.7176
vn -0.5814 -0.7542 0.3054
vn 0.0239 -0.8375 0.5459
vn 0.5293 0.6931 -0.4893
vn 0.4397 0.5262 0.7278
vn 0.5277 0.6906 -0.4946
vn 0.0713 0.9888 0.1314
vn -0.1219 0.9925 -0.0008
vn -0.1252 0.9921 0.0001
vn -0.4425 0.4719 -0.7625
vn -0.7907 0.5532 -0.2621
vn -0.5417 0.4846 -0.6868
vn 0.7845 0.5568 0.2731
vn 0.9348 -0.0173 -0.3546
vn 0.8891 -0.1131 -0.4435
vn 0.8454 -0.0333 0.5332
vn 0.3142 -0.1951 0.9291
vn 0.7038 -0.6971 -0.1369
vn 0.2661 -0.5982 0.7559
vn 0.3656 -0.8917 0.2669
vn 0.9485 -0.3128 0.0492
vn -0.6860 0.3195 0.6537
vn -0.7090 0.3232 0.6268
vn -0.9158 -0.1288 -0.3805
vn -0.6223 -0.5853 0.5198
vn -0.5459 -0.0615 -0.8356
vn 0.3554 -0.4839 -0.7997
vn -0.0480 0.1702 0.9842
vn -0.2419 0.6465 0.7236
vn -0.8019 0.5671 -0.1879
vn 0.0622 0.6126 -0.7879
vn -0.6678 0.5665 -0.4828
vn 0.7535 0.4352 0.4928
vn 0.9140 0.2683 -0.3043
vn 0.4297 0.4311 -0.7935
vn 0.4741 0.1088 -0.8737
vn 0.7961 -0.0213 0.6048
vn 0.8833 0.1651 0.4387
vn 0.2380 -0.4039 0.8833
vn 0.6290 -0.7193 0.2947
vn 0.8988 -0.2839 0.3341
vn -0.5078 -0.2522 0.8237
vn -0.9525 -0.2546 -0.1672
vn -0.8493 -0.5143 -0.1195
vn -0.0910 -0.1180 -0.9888
vn -0.6987 -0.6278 -0.3429
vn -0.7338 -0.1678 -0.6583
vn 0.0510 0.1174 -0.9918
vn 0.8673 0.0799 -0.4914
vn -0.0256 -0.4586 -0.8883
vn -0.3461 -0.8246 -0.4474
vn 0.2247 0.4489 0.8648
vn -0.8912 0.1906 0.4117
vn 0.2306 0.4481 0.8637
vn -0.3537 0.8360 0.4196
vn -0.9760 0.0269 0.2163
vn -0.9343 0.3516 -0.0579
vn -0.9177 0.3688 -0.1478
vn -0.9260 -0.2278 0.3009
vn -0.9997 0.0041 0.0249
vn -0.9992 -0.0394 -0.0081
vn -0.9511 -0.1667 0.2601
vn -0.7582 -0.1342 0.6380
vn -0.8415 -0.1492 0.5192
vn -0.6355 0.3348 -0.6958
vn -0.9917 0.1086 0.0687
vn -0.4104 0.3577 -0.8389
vn 0.3721 0.5417 -0.7538
vn -0.2298 0.0121 -0.9732
vn 0.0427 0.3043 -0.9516
vn 0.0829 0.1294 -0.9881
vn -0.4803 0.3036 -0.8229
vn -0.8490 0.1782 -0.4974
vn -0.4507 0.0626 -0.8905
vn 0.8728 0.4162 -0.2550
vn 0.9282 0.3578 -0.1019
vn 0.9223 0.3124 0.2277
vn 0.9491 -0.2658 -0.1691
vn 0.9672 0.0628 0.2460
vn 0.9650 -0.1430 0.2200
vn 0.8709 0.1621 -0.4639
vn 0.6217 0.3200 -0.7149
vn 0.8180 0.1154 -0.5636
vn 0.1972 -0.0023 0.9804
vn 0.1599 -0.0139 0.9870
vn -0.3828 -0.0143 0.9237
vn -0.1916 -0.3067 0.9323
vn -0.2267 -0.2391 0.9442
vn -0.2152 -0.2919 0.9319
vn 0.3272 -0.0590 0.9431
vn 0.7478 0.0458 0.6623
vn 0.3282 0.0318 0.9441
vn -0.3527 -0.6144 0.7058
vn -0.5384 -0.7598 -0.3645
vn -0.7224 -0.2327 -0.6511
vn -0.0780 -0.2853 -0.9552
vn 0.2130 -0.0779 -0.9739
vn 0.2866 -0.9162 -0.2799
vn 0.8561 -0.2607 0.4463
vn 0.7050 0.5511 0.4463
vn 0.5258 0.8479 -0.0685
vn 0.2841 0.6956 -0.6599
vn -0.9530 0.2591 -0.1568
vn -0.7325 0.6746 -0.0917
vn -0.5746 0.6667 0.4747
vn -0.7484 0.0213 0.6629
vn -0.6865 -0.0030 0.7271
vn -0.8881 -0.0601 0.4556
vn -0.8578 -0.0374 0.5127
vn -0.9805 0.1006 -0.1689
vn -0.8363 -0.0484 0.5461
vn -0.5666 0.3936 -0.7239
vn -0.9080 0.3808 -0.1746
vn 0.2943 0.5745 -0.7638
vn -0.4101 0.3518 -0.8414
vn 0.1013 0.3244 -0.9405
vn -0.5469 0.3103 -0.7776
vn -0.8589 0.1783 -0.4801
vn -0.6946 -0.0834 -0.7146
vn 0.8756 0.4160 -0.2454
vn 0.5921 0.5014 -0.6309
vn 0.9216 0.3353 0.1953
vn 0.9506 0.2398 -0.1973
vn 0.9997 -0.0177 0.0180
vn 0.8487 0.2062 -0.4870
vn 0.3173 -0.0275 0.9479
vn 0.7683 0.1290 0.6269
vn -0.1560 0.0317 0.9872
vn 0.1725 -0.0378 0.9843
vn -0.3535 -0.1921 0.9155
vn 0.3590 -0.0328 0.9328
vn -0.3486 -0.9148 0.2037
vn -0.1876 -0.6370 0.7477
vn -0.3686 -0.6219 0.6909
vn -0.5806 -0.8021 -0.1398
vn -0.6895 -0.2006 -0.6960
vn -0.1745 -0.8412 -0.5118
vn 0.0314 -0.3342 -0.9420
vn 0.4116 -0.0742 -0.9084
vn 0.1985 -0.9797 0.0284
vn 0.3911 -0.8645 0.3158
vn 0.7634 -0.5821 -0.2799
vn 0.6188 0.7600 0.1985
vn 0.1307 0.3027 0.9441
vn 0.6329 0.7677 0.1007
vn -0.4022 0.8521 0.3351
vn -0.6651 0.6245 -0.4095
vn -0.9497 0.2213 0.2215
vn -0.1614 0.6578 0.7357
vn 0.0325 0.3075 0.9510
vn -0.8500 0.3704 0.3745
vn -0.9823 0.1268 -0.1377
vn 0.8806 0.0648 -0.4693
vn -0.4331 0.1028 0.8954
vn -0.1708 0.1033 -0.9799
vn 0.7206 0.0641 0.6904
vn -0.1630 0.0248 -0.9863
vn 0.7125 0.0714 0.6981
vn -0.9885 -0.0292 -0.1484
vn 0.8848 0.0852 -0.4580
vn -0.4502 0.0001 0.8929
vn -0.9837 -0.0040 -0.1796
vn 0.9285 0.0629 -0.3660
vn -0.4584 -0.0513 0.8872
vn 0.2454 -0.7272 -0.6410
vn 0.3309 -0.8316 -0.4460
vn 0.2565 -0.6879 0.6790
vn 0.6729 -0.0052 0.7398
vn -0.1453 0.5487 0.8233
vn -0.1525 0.7313 -0.6648
vn -0.5058 0.4647 -0.7268
vn 0.6530 -0.6251 -0.4276
vn -0.4153 0.4869 0.7684
vn 0.5176 -0.4208 0.7450
vn -0.5791 -0.7986 0.1639
vn -0.1827 0.0688 -0.9808
vn 0.5411 0.8225 -0.1754
vn -0.2921 0.7246 0.6242
vn -0.0470 0.5506 0.8334
vn -0.8200 -0.5659 -0.0863
vn 0.7754 0.6262 0.0811
vn -0.0029 -0.5074 -0.8617
s off
f 1/1/1 2/2/1 3/3/1
f 3/3/2 2/2/2 8/4/2
f 3/3/3 4/5/3 5/6/3
f 1/1/4 6/7/4 7/8/4
f 3/3/5 5/6/5 6/7/5
f 8/9/6 2/10/6 9/11/6
f 9/11/7 12/12/7 11/13/7
f 11/13/8 12/12/8 25/14/8
f 13/15/9 10/16/9 14/17/9
f 13/15/10 15/18/10 16/19/10
f 17/20/11 18/21/11 19/22/11
f 13/15/12 20/23/12 17/20/12
f 17/20/13 20/23/13 18/21/13
f 17/20/14 19/22/14 12/12/14
f 21/24/15 15/18/15 22/25/15
f 21/24/16 22/25/16 7/26/16
f 7/8/17 6/7/17 23/27/17
f 21/24/18 20/23/18 16/19/18
f 24/28/19 6/7/19 5/6/19
f 25/14/20 18/21/20 24/29/20
f 26/30/21 15/18/21 14/17/21
f 2/2/22 22/31/22 26/32/22
f 1/1/23 7/8/23 22/31/23
f 3/3/24 8/4/24 4/5/24
f 1/1/25 3/3/25 6/7/25
f 9/11/26 2/10/26 10/16/26
f 8/9/27 9/11/27 11/13/27
f 8/4/28 11/33/28 4/5/28
f 11/33/29 25/34/29 4/5/29
f 13/15/30 12/12/30 10/16/30
f 12/12/31 9/11/31 10/16/31
f 13/15/32 14/17/32 15/18/32
f 13/15/33 16/19/33 20/23/33
f 13/15/34 17/20/34 12/12/34
f 21/24/35 16/19/35 15/18/35
f 21/24/36 7/26/36 23/35/36
f 21/24/37 23/35/37 20/23/37
f 25/34/38 24/28/38 5/6/38
f 24/29/39 20/23/39 23/35/39
f 24/28/40 23/27/40 6/7/40
f 25/34/41 5/6/41 4/5/41
f 19/22/42 25/14/42 12/12/42
f 25/14/43 19/22/43 18/21/43
f 24/29/44 18/21/44 20/23/44
f 2/10/45 26/30/45 14/17/45
f 26/30/46 22/25/46 15/18/46
f 2/10/47 14/17/47 10/16/47
f 2/2/48 1/1/48 22/31/48
f 27/36/49 28/37/49 29/38/49
f 29/38/50 28/37/50 34/39/50
f 29/38/51 30/40/51 31/41/51
f 27/36/52 32/42/52 33/43/52
f 29/38/53 31/41/53 32/42/53
f 34/44/54 28/45/54 35/46/54
f 35/46/55 38/47/55 37/48/55
f 37/48/56 38/47/56 51/49/56
f 39/50/57 36/51/57 40/52/57
f 39/50/58 41/53/58 42/54/58
f 43/55/59 44/56/59 45/57/59
f 39/50/60 46/58/60 43/55/60
f 43/55/61 46/58/61 44/56/61
f 43/55/62 45/57/62 38/47/62
f 47/59/63 41/53/63 48/60/63
f 47/59/64 48/60/64 33/61/64
f 33/43/65 32/42/65 49/62/65
f 47/59/66 46/58/66 42/54/66
f 50/63/67 32/42/67 31/41/67
f 51/49/68 44/56/68 50/64/68
f 52/65/69 41/53/69 40/52/69
f 28/37/70 48/66/70 52/67/70
f 27/36/71 33/43/71 48/66/71
f 29/38/72 34/39/72 30/40/72
f 27/36/73 29/38/73 32/42/73
f 35/46/74 28/45/74 36/51/74
f 34/44/75 35/46/75 37/48/75
f 34/39/76 37/68/76 30/40/76
f 37/68/77 51/69/77 30/40/77
f 39/50/78 38/47/78 36/51/78
f 38/47/79 35/46/79 36/51/79
f 39/50/80 40/52/80 41/53/80
f 39/50/81 42/54/81 46/58/81
f 39/50/82 43/55/82 38/47/82
f 47/59/83 42/54/83 41/53/83
f 47/59/84 33/61/84 49/70/84
f 47/59/85 49/70/85 46/58/85
f 51/69/86 50/63/86 31/41/86
f 50/64/87 46/58/87 49/70/87
f 50/63/88 49/62/88 32/42/88
f 51/69/89 31/41/89 30/40/89
f 45/57/90 51/49/90 38/47/90
f 51/49/91 45/57/91 44/56/91
f 50/64/92 44/56/92 46/58/92
f 28/45/93 52/65/93 40/52/93
f 52/65/94 48/60/94 41/53/94
f 28/45/95 40/52/95 36/51/95
f 28/37/96 27/36/96 48/66/96
f 53/71/97 54/72/97 55/73/97
f 55/73/98 56/74/98 57/75/98
f 57/75/99 56/74/99 58/76/99
f 59/77/100 60/78/100 61/79/100
f 57/75/101 62/80/101 59/77/101
f 59/77/102 62/80/102 60/78/102
f 53/71/103 63/81/103 54/72/103
f 54/72/104 63/81/104 64/82/104
f 59/77/105 61/79/105 63/81/105
f 65/83/106 66/84/106 67/85/106
f 68/86/107 56/74/107 66/84/107
f 65/87/108 67/88/108 69/89/108
f 69/89/109 70/90/109 71/91/109
f 72/92/110 73/93/110 74/94/110
f 69/89/111 75/95/111 72/92/111
f 72/92/112 75/95/112 73/93/112
f 65/83/113 76/96/113 68/86/113
f 68/86/114 62/80/114 58/76/114
f 72/97/115 74/98/115 76/96/115
f 77/99/116 70/90/116 78/100/116
f 77/99/117 78/100/117 79/101/117
f 79/101/118 80/102/118 81/103/118
f 82/104/119 83/105/119 84/106/119
f 79/101/120 85/107/120 82/104/120
f 82/104/121 85/107/121 83/105/121
f 77/99/122 75/95/122 86/108/122
f 86/108/123 75/95/123 71/91/123
f 82/104/124 84/106/124 75/95/124
f 87/109/125 80/102/125 88/110/125
f 87/109/126 88/110/126 89/111/126
f 89/112/127 90/113/127 64/82/127
f 91/114/128 92/115/128 93/116/128
f 89/112/129 63/81/129 91/117/129
f 91/117/130 63/81/130 92/118/130
f 87/109/131 85/107/131 94/119/131
f 94/119/132 85/107/132 81/103/132
f 91/114/133 93/116/133 85/107/133
f 95/120/134 63/81/134 61/79/134
f 96/121/135 60/78/135 97/122/135
f 97/122/136 62/80/136 74/98/136
f 97/123/137 73/93/137 98/124/137
f 98/124/138 75/95/138 84/106/138
f 96/125/139 83/105/139 95/126/139
f 83/105/140 85/107/140 93/116/140
f 99/127/141 80/102/141 78/100/141
f 100/128/142 70/90/142 101/129/142
f 101/129/143 70/90/143 67/88/143
f 102/130/144 56/74/144 55/73/144
f 101/131/145 66/84/145 102/130/145
f 100/132/146 90/113/146 99/133/146
f 55/73/147 54/72/147 90/113/147
f 54/72/148 64/82/148 90/113/148
f 53/71/149 55/73/149 57/75/149
f 53/71/150 57/75/150 59/77/150
f 57/75/151 58/76/151 62/80/151
f 53/71/152 59/77/152 63/81/152
f 65/83/153 68/86/153 66/84/153
f 68/86/154 58/76/154 56/74/154
f 69/89/155 67/88/155 70/90/155
f 65/87/156 69/89/156 72/92/156
f 69/89/157 71/91/157 75/95/157
f 65/83/158 72/97/158 76/96/158
f 68/86/159 76/96/159 62/80/159
f 76/96/160 74/98/160 62/80/160
f 77/99/161 86/108/161 70/90/161
f 86/108/162 71/91/162 70/90/162
f 79/101/163 78/100/163 80/102/163
f 77/99/164 79/101/164 82/104/164
f 79/101/165 81/103/165 85/107/165
f 77/99/166 82/104/166 75/95/166
f 87/109/167 94/119/167 80/102/167
f 94/119/168 81/103/168 80/102/168
f 89/112/169 88/134/169 90/113/169
f 87/109/170 89/111/170 91/114/170
f 89/112/171 64/82/171 63/81/171
f 87/109/172 91/114/172 85/107/172
f 96/121/173 95/120/173 61/79/173
f 95/126/174 93/116/174 92/115/174
f 95/120/175 92/118/175 63/81/175
f 96/121/176 61/79/176 60/78/176
f 97/122/177 60/78/177 62/80/177
f 96/125/178 97/123/178 98/124/178
f 97/123/179 74/94/179 73/93/179
f 98/124/180 73/93/180 75/95/180
f 96/125/181 98/124/181 83/105/181
f 95/126/182 83/105/182 93/116/182
f 98/124/183 84/106/183 83/105/183
f 100/128/184 99/127/184 78/100/184
f 99/127/185 88/110/185 80/102/185
f 100/128/186 78/100/186 70/90/186
f 100/132/187 101/131/187 102/130/187
f 101/131/188 67/85/188 66/84/188
f 102/130/189 66/84/189 56/74/189
f 100/132/190 102/130/190 90/113/190
f 99/133/191 90/113/191 88/134/191
f 102/130/192 55/73/192 90/113/192
f 107/135/193 112/136/193 111/137/193 106/138/193
f 105/139/194 110/140/194 109/141/194 104/142/194
f 103/143/195 108/144/195 112/136/195 107/135/195
f 106/138/196 111/137/196 110/140/196 105/139/196
f 104/145/197 109/146/197 108/144/197 103/143/197
f 111/137/198 116/147/198 115/148/198 110/140/198
f 109/146/199 114/149/199 113/150/199 108/144/199
f 112/136/200 117/151/200 116/147/200 111/137/200
f 110/140/201 115/148/201 114/152/201 109/141/201
f 108/144/202 113/150/202 117/151/202 112/136/202
f 117/151/203 122/153/203 121/154/203 132/155/203
f 115/156/204 120/157/204 119/158/204 123/159/204
f 113/150/205 118/160/205 122/153/205 117/151/205
f 115/161/206 116/162/206 134/163/206 133/164/206
f 114/165/207 115/166/207 126/167/207 125/168/207
f 113/169/208 114/170/208 125/171/208 124/172/208
f 113/150/209 123/173/209 119/174/209 118/160/209
f 123/175/210 113/169/210 124/172/210 127/176/210
f 115/166/211 123/175/211 127/176/211 126/167/211
f 126/167/212 127/176/212 131/177/212 130/178/212
f 125/168/213 126/167/213 130/178/213 129/179/213
f 127/176/214 124/172/214 128/180/214 131/177/214
f 124/172/215 125/171/215 129/181/215 128/180/215
f 116/182/216 117/183/216 135/184/216 134/185/216
f 115/156/217 132/155/217 121/154/217 120/157/217
f 132/186/218 115/161/218 133/164/218 136/187/218
f 117/183/219 132/186/219 136/187/219 135/184/219
f 135/184/220 136/187/220 140/188/220 139/189/220
f 134/185/221 135/184/221 139/189/221 138/190/221
f 136/187/222 133/164/222 137/191/222 140/188/222
f 133/164/223 134/163/223 138/192/223 137/191/223
