# Blender v2.78 (sub 0) OBJ File: 'Low_Poly_Trees_Pack.blend'
# www.blender.org
g Random_Tree_NoLeaves_crk_s_01
v 0.000000 0.000000 -0.055975
v -0.055975 0.000000 0.000000
v 0.000000 0.000000 0.055975
v 0.055975 0.000000 -0.000000
v 0.034098 0.816602 0.000000
v -0.012592 0.859263 -0.046836
v -0.058793 0.866955 0.000000
v -0.012592 0.859263 0.046836
v 0.028398 0.926454 0.000000
v 0.159349 0.897123 0.000000
v 0.129893 0.930505 -0.039945
v 0.129893 0.930505 0.039945
v 0.106314 0.961271 0.000000
v 0.269348 1.069573 -0.015130
v 0.240956 1.074169 -0.043832
v 0.240353 1.081216 0.010847
v 0.216226 1.086456 -0.017891
v 0.311785 1.674983 -0.063274
v 0.288521 1.670003 -0.085027
v 0.286371 1.674606 -0.059937
v 0.462957 1.883453 -0.067925
v 0.451486 1.886111 -0.078690
v 0.451491 1.888626 -0.066273
v 0.529479 2.254973 -0.070963
v 0.304120 1.697611 -0.060618
v 0.142820 1.795833 -0.139389
v 0.142093 1.797759 -0.130218
v 0.151838 1.802067 -0.129605
v 0.076421 1.961950 -0.173402
v -0.009671 1.322490 -0.003459
v -0.049015 1.288894 -0.045726
v -0.090964 1.292740 -0.003459
v -0.047644 1.265864 0.039052
v -1.587609 -0.037614 -0.955339
v -0.349851 1.036786 -0.207114
v -0.965917 0.417246 -0.562975
v -0.953249 0.399520 -0.557559
v -0.317984 0.996412 -0.193093
v -0.343056 0.992917 -0.146174
v -0.964559 0.397324 -0.538290
v -0.977227 0.415051 -0.543706
v -0.345634 1.065055 -0.143989
v -0.407975 0.999397 -0.180728
v -0.561069 1.004312 -0.084855
v -0.558057 0.972599 -0.043803
v -0.566552 1.021538 -0.040651
v -0.559977 0.978630 -0.091005
v -0.990542 0.705129 -0.048892
v -0.990591 0.697363 -0.022302
v -1.007751 0.720093 -0.025759
v -1.481145 0.289008 -0.200264
v -0.114133 1.315665 -0.076636
v -0.106050 1.351157 -0.005007
vt 0.4056 0.7891
vt 0.4058 0.8243
vt 0.4031 0.8240
vt 0.4024 0.7892
vt 0.4120 0.7892
vt 0.4112 0.8222
vt 0.4084 0.8239
vt 0.4088 0.7891
vt 0.4120 0.7899
vt 0.4146 0.7893
vt 0.4142 0.7948
vt 0.4120 0.7948
vt 0.4004 0.8223
vt 0.3992 0.7892
vt 0.4164 0.7917
vt 0.4164 0.7949
vt 0.4182 0.7891
vt 0.4208 0.7897
vt 0.4208 0.7948
vt 0.4186 0.7947
vt 0.4178 0.8018
vt 0.4162 0.8017
vt 0.4194 0.8021
vt 0.4146 0.8017
vt 0.4130 0.8018
vt 0.4153 0.8280
vt 0.4164 0.8282
vt 0.4142 0.8278
vt 0.4128 0.8280
vt 0.4220 0.7891
vt 0.4229 0.7905
vt 0.4220 0.8002
vt 0.4215 0.8001
vt 0.4209 0.7898
vt 0.4209 0.8002
vt 0.4158 0.8292
vt 0.4225 0.8002
vt 0.4213 0.8155
vt 0.4256 0.7972
vt 0.4261 0.7974
vt 0.4247 0.8045
vt 0.4259 0.7891
vt 0.4275 0.7894
vt 0.4237 0.7900
vt 0.4247 0.7891
vt 0.4251 0.7972
vt 0.4237 0.7893
vt 0.4248 0.7973
vt 0.4005 0.8266
vt 0.4034 0.8414
vt 0.4010 0.8426
vt 0.4110 0.8266
vt 0.4105 0.8426
vt 0.4082 0.8404
vt 0.4058 0.8416
vt 0.4342 0.7810
vt 0.3992 0.7795
vt 0.4342 0.7801
vt 0.4340 0.7828
vt 0.4341 0.7819
vt 0.4339 0.7837
vt 0.4896 0.7846
vt 0.4723 0.7846
vt 0.4724 0.7824
vt 0.4900 0.7822
vt 0.4621 0.8448
vt 0.4598 0.8457
vt 0.4532 0.8458
vt 0.4535 0.8448
vt 0.4908 0.7867
vt 0.4743 0.7867
vt 0.4613 0.8478
vt 0.4613 0.8503
vt 0.4529 0.8494
vt 0.4527 0.8476
vt 0.4724 0.7802
vt 0.4886 0.7891
vt 0.4725 0.7889
vt 0.4885 0.7795
vt 0.4700 0.7865
vt 0.4718 0.7889
vt 0.4613 0.8427
vt 0.4532 0.8431
vt 0.4324 0.8443
vt 0.4324 0.8429
vt 0.4322 0.8455
vt 0.4321 0.8468
vt 0.3992 0.8427
vt 0.6879 0.9299
vt 0.6850 0.9428
vt 0.6753 0.9308
vt 0.6753 0.9406
vt 0.6915 0.9403
vt 0.6880 0.9299
vt 0.7013 0.9299
vt 0.7013 0.9409
vn -0.7094 -0.0026 -0.7048
vn 0.7113 0.0185 0.7026
vn 0.3300 -0.5473 -0.7691
vn -0.7094 -0.0026 0.7048
vn 0.7113 0.0185 -0.7026
vn -0.2972 0.6622 -0.6879
vn 0.3300 -0.5473 0.7691
vn -0.2972 0.6622 0.6879
vn -0.5339 0.5376 0.6527
vn 0.5983 -0.3069 0.7401
vn -0.5793 0.4195 -0.6989
vn 0.5573 -0.4324 -0.7088
vn -0.7465 0.1356 0.6514
vn 0.4819 0.0512 0.8747
vn -0.8761 0.0534 -0.4791
vn 0.6953 -0.1050 -0.7110
vn -0.7853 0.5989 -0.1571
vn 0.6234 -0.4587 -0.6332
vn 0.1309 -0.0717 0.9888
vn 0.1354 -0.0161 0.9907
vn 0.6635 -0.1248 -0.7377
vn -0.9773 0.2075 -0.0417
vn 0.6872 0.1283 -0.7151
vn 0.5715 0.3392 -0.7472
vn 0.1246 -0.0676 0.9899
vn -0.2470 0.2509 0.9360
vn -0.6697 -0.7378 0.0844
vn -0.1476 0.1960 0.9694
vn -0.9289 -0.3704 0.0042
vn 0.7056 0.0617 -0.7059
vn 0.6947 0.0733 0.7156
vn -0.7149 -0.0483 0.6976
vn -0.7135 -0.0591 -0.6982
vn 0.4877 0.0830 -0.8690
vn -0.5049 -0.0989 0.8575
vn -0.4961 0.8461 -0.1948
vn 0.4777 -0.8593 0.1825
vn 0.5648 -0.7061 0.4272
vn 0.5814 -0.7733 0.2531
vn -0.5156 0.1988 -0.8335
vn -0.4379 -0.0636 0.8967
vn 0.4269 -0.0008 0.9043
vn 0.4580 0.0542 -0.8873
vn -0.6714 0.6917 -0.2660
vn 0.4442 0.0428 -0.8949
vn 0.0220 -0.9854 -0.1688
vn -0.4761 -0.0800 0.8757
vn -0.6032 0.7522 -0.2652
vn -0.3448 0.8628 -0.3698
vn -0.5100 0.6965 -0.5048
vn 0.5198 -0.8373 -0.1697
vn -0.2308 0.2173 -0.9484
vn 0.0314 0.0155 0.9994
vn 0.6692 -0.7136 -0.2072
vn -0.2871 -0.0714 0.9552
vn -0.3435 0.6512 -0.6768
vn 0.5098 0.7466 -0.4275
vn 0.7045 0.2000 0.6810
vn -0.2499 0.6829 0.6864
vn -0.3161 0.8638 -0.3923
s off
f 2/1/1 7/2/1 6/3/1 1/4/1
f 4/5/2 5/6/2 8/7/2 3/8/2
f 5/9/3 6/10/3 11/11/3 10/12/3
f 3/8/4 8/7/4 7/2/4 2/1/4
f 1/4/5 6/3/5 5/13/5 4/14/5
f 6/10/6 9/15/6 13/16/6 11/11/6
f 8/17/7 5/18/7 10/19/7 12/20/7
f 9/15/8 8/17/8 12/20/8 13/16/8
f 13/16/9 12/20/9 16/21/9 17/22/9
f 12/20/10 10/19/10 14/23/10 16/21/10
f 11/11/11 13/16/11 17/22/11 15/24/11
f 10/12/12 11/11/12 15/24/12 14/25/12
f 17/22/13 16/21/13 20/26/13
f 16/21/14 14/23/14 18/27/14 20/26/14
f 15/24/15 17/22/15 20/26/15 19/28/15
f 14/25/16 15/24/16 19/28/16 18/29/16
f 19/30/17 25/31/17 23/32/17 22/33/17
f 18/34/18 19/30/18 22/33/18 21/35/18
f 20/26/19 18/27/19 25/36/19
f 23/32/20 21/37/20 24/38/20
f 21/35/21 22/33/21 24/38/21
f 22/33/22 23/32/22 24/38/22
f 28/39/23 26/40/23 29/41/23
f 25/42/24 19/43/24 26/40/24 28/39/24
f 25/31/25 18/44/25 21/37/25 23/32/25
f 20/45/26 25/42/26 28/39/26 27/46/26
f 19/47/27 20/45/27 27/46/27 26/48/27
f 27/46/28 28/39/28 29/41/28
f 26/48/29 27/46/29 29/41/29
f 9/49/30 6/3/30 31/50/30 30/51/30
f 8/7/31 9/52/31 30/53/31 33/54/31
f 8/7/32 33/54/32 32/55/32 7/2/32
f 7/2/33 32/55/33 31/50/33 6/3/33
f 37/56/34 34/57/34 36/58/34
f 41/59/35 34/57/35 40/60/35
f 36/61/36 34/57/36 41/59/36
f 40/60/37 34/57/37 37/56/37
f 32/62/38 39/63/38 38/64/38 31/65/38
f 39/63/39 40/60/39 37/56/39 38/64/39
f 35/66/40 43/67/40 47/68/40 44/69/40
f 53/70/41 42/71/41 39/63/41 32/62/41
f 39/72/42 42/73/42 46/74/42 45/75/42
f 38/64/43 37/56/43 36/58/43 35/76/43
f 53/70/44 52/77/44 35/78/44 42/71/44
f 52/79/45 31/65/45 38/64/45 35/76/45
f 43/67/46 39/72/46 45/75/46 47/68/46
f 39/63/47 43/80/47 41/59/47 40/60/47
f 43/80/48 35/81/48 36/61/48 41/59/48
f 42/82/49 35/66/49 44/69/49 46/83/49
f 46/83/50 44/69/50 48/84/50 50/85/50
f 47/68/51 45/75/51 49/86/51 48/84/51
f 44/69/52 47/68/52 48/84/52
f 45/75/53 46/74/53 50/87/53 49/86/53
f 48/84/54 49/86/54 51/88/54
f 49/86/55 50/87/55 51/88/55
f 50/85/56 48/84/56 51/88/56
f 52/89/57 53/90/57 31/91/57
f 53/90/58 32/92/58 31/91/58
f 32/93/59 33/94/59 30/95/59
f 31/96/60 32/93/60 30/95/60
