# Blender v2.78 (sub 0) OBJ File: 'Low_Poly_Trees_Pack.blend'
# www.blender.org
g Random_Tree_m_07
v 0.340669 5.676934 0.224706
v 0.468418 5.857254 -0.243256
v -0.013471 7.544973 -0.174665
v -0.448793 7.996807 -0.059644
v 0.160184 6.382714 0.478989
v -0.111573 6.324192 0.725275
v 0.440288 4.419978 0.611416
v 0.308670 3.878766 0.856786
v 0.458412 3.661890 0.326267
v 0.060393 4.757811 1.066748
v 0.470002 4.205635 -0.328570
v 0.421110 5.480325 -0.651301
v -1.280739 7.536085 0.559157
v -0.811275 8.547321 0.052200
v -1.379957 8.734928 -0.123040
v -0.626809 6.828661 0.814547
v -1.794114 7.457675 0.436594
v -1.702574 8.414120 -0.539098
v -2.207765 6.578203 0.325994
v -1.362810 5.340561 1.060097
v -1.466096 4.538424 0.955193
v -0.772060 4.233483 1.171136
v -2.264314 5.382820 0.488407
v -0.493972 5.137669 1.177263
v -2.345127 6.092084 -0.424277
v -1.615480 7.966546 -0.959316
v -2.107350 5.713725 -1.084409
v -1.209387 7.095098 -1.526286
v -1.757551 5.532331 -1.439953
v -2.214858 4.513279 -0.677446
v -1.262136 3.394219 -0.828283
v -1.912692 3.689211 0.060883
v -1.307425 4.531648 -1.415949
v -2.328202 6.478333 0.050653
v -0.657029 5.711771 -1.492553
v -0.527443 7.212358 -1.193040
v 0.109229 5.494814 -1.087558
v -0.152591 7.866592 -0.667043
v -0.306373 4.256341 -1.190328
v -0.031387 3.768351 -0.754750
v -0.527503 3.623908 -1.239729
v -1.389897 5.774357 -1.618900
v -0.208762 3.181075 -0.448789
v -0.164740 3.220095 0.395446
v -0.458410 3.549986 0.959258
v -1.375862 3.180454 0.348985
v -0.972445 8.447427 -1.094622
v -1.235679 8.818813 -0.740616
v -1.318232 8.929427 -0.480937
v -0.736500 8.700906 -0.461582
v 0.000000 0.000000 -0.302400
v -0.287600 0.000000 -0.093447
v -0.177746 0.000000 0.244647
v 0.177746 0.000000 0.244647
v 0.287599 0.000000 -0.093447
v -0.039512 1.135171 -0.184786
v -0.202280 1.119425 -0.065043
v -0.138951 1.122556 0.127466
v 0.062956 1.140238 0.126700
v 0.124413 1.148034 -0.066283
v -0.083813 2.525028 -0.101387
v -0.191848 2.440113 -0.027218
v -0.162028 2.502771 0.110746
v -0.022568 2.517702 0.117265
v 0.025772 2.531457 -0.013840
v -0.250281 4.533875 -0.139843
v -0.324607 4.539873 -0.089276
v -0.299998 4.534008 -0.002805
v -0.210463 4.524384 0.000070
v -0.179737 4.524302 -0.084624
v -0.208514 2.663728 -0.045279
v -0.555271 2.736032 -0.218161
v -0.629194 2.694374 -0.162694
v -0.597634 2.706188 -0.065125
v -0.492136 2.764657 -0.147916
v -1.210399 3.408442 -0.259231
v -1.255846 3.382831 -0.225131
v -1.236444 3.390094 -0.165147
v -1.171585 3.426040 -0.216046
vt 0.4611 0.1932
vt 0.4556 0.1922
vt 0.4597 0.1860
vt 0.4646 0.1835
vt 0.4655 0.1902
vt 0.4697 0.1894
vt 0.4643 0.1977
vt 0.4683 0.2010
vt 0.4621 0.2033
vt 0.4715 0.1961
vt 0.4549 0.2000
vt 0.4508 0.1933
vt 0.4812 0.1827
vt 0.4693 0.1800
vt 0.4735 0.1725
vt 0.4742 0.1870
vt 0.4226 0.1642
vt 0.4345 0.1693
vt 0.4222 0.1724
vt 0.4304 0.1800
vt 0.4208 0.1788
vt 0.4101 0.1708
vt 0.4092 0.1785
vt 0.4007 0.1751
vt 0.4166 0.1812
vt 0.4767 0.1948
vt 0.4865 0.1955
vt 0.4800 0.2026
vt 0.4224 0.1861
vt 0.4319 0.1873
vt 0.4232 0.1920
vt 0.4335 0.1965
vt 0.4236 0.1961
vt 0.4182 0.1896
vt 0.4128 0.1934
vt 0.4137 0.1873
vt 0.4198 0.1973
vt 0.4216 0.1817
vt 0.4280 0.2065
vt 0.4398 0.2048
vt 0.4290 0.2151
vt 0.4438 0.1933
vt 0.4535 0.1828
vt 0.4155 0.2104
vt 0.4062 0.2096
vt 0.4117 0.2020
vt 0.4442 0.2069
vt 0.4520 0.2089
vt 0.4262 0.1998
vt 0.4574 0.2148
vt 0.4671 0.2130
vt 0.4756 0.2084
vt 0.3975 0.1827
vt 0.4088 0.1872
vt 0.3975 0.1930
vt 0.4026 0.2010
vt 0.4418 0.1943
vt 0.4423 0.1845
vt 0.4394 0.1754
vt 0.4610 0.1790
vt 0.4666 0.1687
vt 0.4569 0.1675
vt 0.4487 0.1712
vt 0.4447 0.1796
vt 0.4269 0.7624
vt 0.4207 0.7881
vt 0.4160 0.7871
vt 0.4194 0.7610
vt 0.4119 0.7607
vt 0.4114 0.7861
vt 0.4068 0.7859
vt 0.4041 0.7612
vt 0.4341 0.7648
vt 0.4253 0.7890
vt 0.4412 0.7682
vt 0.4297 0.7902
vt 0.4110 0.8180
vt 0.4080 0.8177
vt 0.4205 0.8190
vt 0.4170 0.8195
vt 0.4140 0.8187
vt 0.4049 0.8161
vt 0.4099 0.8666
vt 0.4081 0.8661
vt 0.4061 0.8659
vt 0.4041 0.8662
vt 0.4049 0.8217
vt 0.4119 0.8670
vt 0.4542 0.7771
vt 0.4572 0.7753
vt 0.4597 0.7896
vt 0.4577 0.7908
vt 0.4655 0.7738
vt 0.4685 0.7759
vt 0.4669 0.7902
vt 0.4647 0.7893
vt 0.4197 0.8228
vt 0.4138 0.8669
vt 0.4620 0.7767
vt 0.4628 0.7880
vt 0.4630 0.8094
vt 0.4611 0.8097
vt 0.4598 0.8100
vt 0.4643 0.8097
vt 0.4656 0.8099
vn 0.9071 0.2451 0.3421
vn 0.6329 0.4492 0.6306
vn 0.5476 0.4434 0.7096
vn 0.9478 -0.0921 0.3052
vn 0.8119 0.1539 0.5632
vn 0.7938 0.0802 0.6028
vn 0.9658 -0.0124 0.2589
vn 0.9925 0.0072 -0.1218
vn 0.9995 0.0131 0.0286
vn -0.1074 0.4850 0.8679
vn 0.7140 0.3465 0.6084
vn -0.2720 0.4588 0.8459
vn -0.8801 0.3777 0.2877
vn -0.3283 -0.0808 0.9411
vn -0.5256 0.1401 0.8391
vn -0.5365 -0.0412 0.8429
vn -0.1674 0.1942 0.9666
vn 0.3863 0.2368 0.8915
vn -0.1262 0.0321 0.9915
vn -0.8799 0.2227 -0.4196
vn -0.8731 0.2149 -0.4377
vn -0.6507 0.1876 -0.7358
vn -0.7368 -0.5806 -0.3465
vn -0.6156 -0.2030 -0.7615
vn -0.5755 -0.3933 -0.7170
vn -0.9975 -0.0332 0.0625
vn -0.9242 0.0940 0.3702
vn -0.9631 -0.2336 0.1334
vn 0.4145 0.1436 -0.8987
vn 0.4917 0.1294 -0.8611
vn 0.8018 0.1890 -0.5669
vn 0.7141 -0.1972 -0.6717
vn 0.7242 -0.1880 -0.6635
vn 0.7248 -0.1841 -0.6639
vn 0.1556 -0.1491 -0.9765
vn -0.3363 -0.1735 -0.9256
vn 0.2197 -0.0006 -0.9756
vn 0.7901 -0.4784 -0.3833
vn 0.3803 -0.6982 0.6066
vn 0.2372 -0.1867 0.9534
vn -0.3923 -0.3966 0.8299
vn -0.6606 -0.3098 0.6839
vn -0.2175 -0.9744 0.0564
vn -0.3282 -0.4439 -0.8338
vn -0.4314 0.3421 -0.8348
vn -0.6868 0.5640 -0.4586
vn -0.7986 0.5758 0.1752
vn 0.6934 0.5494 0.4661
vn 0.3380 0.8871 0.3144
vn 0.6462 0.7143 -0.2688
vn 0.9567 0.2768 -0.0895
vn 0.9247 0.2203 -0.3107
vn 0.9717 0.2081 0.1120
vn 0.9554 0.1534 0.2524
vn 0.6256 0.2311 0.7452
vn 0.9965 0.0829 0.0126
vn 0.0916 0.4120 0.9066
vn 0.5552 0.4424 0.7043
vn -0.8450 0.4194 0.3318
vn -0.2586 0.2241 0.9397
vn -0.5209 0.1391 0.8422
vn -0.0785 0.2245 0.9713
vn 0.3351 0.2227 0.9155
vn 0.1585 -0.0554 0.9858
vn -0.9514 0.2547 -0.1732
vn -0.8937 0.3673 0.2577
vn -0.6452 0.1821 -0.7420
vn -0.9451 -0.0258 -0.3257
vn -0.7508 -0.3511 -0.5595
vn -0.9961 -0.0857 0.0216
vn 0.1735 0.0453 -0.9838
vn -0.5011 0.1285 -0.8558
vn 0.6621 0.2011 -0.7219
vn 0.4488 -0.0767 -0.8903
vn 0.8062 -0.1160 -0.5802
vn 0.1751 -0.1596 -0.9715
vn 0.5789 -0.8154 0.0075
vn 0.6781 -0.4901 -0.5477
vn 0.7728 -0.4608 -0.4364
vn 0.5504 -0.7068 0.4443
vn 0.2029 -0.1729 0.9638
vn 0.0087 -0.8611 0.5084
vn -0.4381 -0.4434 0.7819
vn -0.7099 -0.3259 0.6244
vn 0.0389 -0.9838 -0.1749
vn -0.0007 -0.8727 -0.4883
vn -0.6162 -0.7623 -0.1979
vn -0.4711 0.4103 -0.7808
vn 0.3988 0.2147 -0.8916
vn -0.6521 0.4476 -0.6119
vn 0.3601 0.8941 -0.2664
vn 0.1328 0.8611 0.4908
vn 0.8288 0.4914 0.2675
vn 0.5066 0.5233 -0.6852
vn 0.5898 0.2731 -0.7600
vn 0.8271 0.5482 0.1244
vn 0.9435 0.1268 0.3062
vn -0.9488 0.0648 0.3093
vn 0.5821 0.1028 -0.8066
vn -0.0019 0.1033 0.9946
vn -0.5898 0.0641 -0.8050
vn -0.0177 0.0088 0.9998
vn -0.5890 0.0288 -0.8076
vn 0.9444 0.0579 0.3238
vn -0.9621 -0.0066 0.2725
vn 0.5971 0.0699 -0.7991
vn 0.9312 0.1080 0.3480
vn -0.9675 -0.0529 0.2472
vn 0.6211 0.0364 -0.7829
vn -0.0422 0.0536 0.9977
vn -0.5321 -0.7576 0.3782
vn -0.1093 -0.6302 -0.7687
vn -0.5024 -0.0549 -0.8629
vn 0.4460 0.6381 -0.6277
vn 0.0449 0.7301 0.6819
vn 0.3724 0.4652 0.8031
vn -0.7174 -0.6251 0.3077
vn 0.5421 0.4863 -0.6854
vn -0.3805 -0.4210 -0.8234
s off
f 1/1/1 2/2/1 3/3/1
f 3/3/2 4/4/2 5/5/2
f 5/5/3 4/4/3 6/6/3
f 7/7/4 8/8/4 9/9/4
f 5/5/5 10/10/5 7/7/5
f 7/7/6 10/10/6 8/8/6
f 1/1/7 11/11/7 2/2/7
f 2/2/8 11/11/8 12/12/8
f 7/7/9 9/9/9 11/11/9
f 13/13/10 14/14/10 15/15/10
f 16/16/11 4/4/11 14/14/11
f 13/17/12 15/18/12 17/19/12
f 17/19/13 18/20/13 19/21/13
f 20/22/14 21/23/14 22/24/14
f 17/19/15 23/25/15 20/22/15
f 20/22/16 23/25/16 21/23/16
f 13/13/17 24/26/17 16/16/17
f 16/16/18 10/10/18 6/6/18
f 20/27/19 22/28/19 24/26/19
f 25/29/20 18/20/20 26/30/20
f 25/29/21 26/30/21 27/31/21
f 27/31/22 28/32/22 29/33/22
f 30/34/23 31/35/23 32/36/23
f 27/31/24 33/37/24 30/34/24
f 30/34/25 33/37/25 31/35/25
f 25/29/26 23/25/26 34/38/26
f 34/38/27 23/25/27 19/21/27
f 30/34/28 32/36/28 23/25/28
f 35/39/29 28/32/29 36/40/29
f 35/39/30 36/40/30 37/41/30
f 37/42/31 38/43/31 12/12/31
f 39/44/32 40/45/32 41/46/32
f 37/42/33 11/11/33 39/47/33
f 39/47/34 11/11/34 40/48/34
f 35/39/35 33/37/35 42/49/35
f 42/49/36 33/37/36 29/33/36
f 39/44/37 41/46/37 33/37/37
f 43/50/38 11/11/38 9/9/38
f 44/51/39 8/8/39 45/52/39
f 45/52/40 10/10/40 22/28/40
f 45/53/41 21/23/41 46/54/41
f 46/54/42 23/25/42 32/36/42
f 44/55/43 31/35/43 43/56/43
f 31/35/44 33/37/44 41/46/44
f 47/57/45 28/32/45 26/30/45
f 48/58/46 18/20/46 49/59/46
f 49/59/47 18/20/47 15/18/47
f 50/60/48 4/4/48 3/3/48
f 49/61/49 14/14/49 50/60/49
f 48/62/50 38/43/50 47/63/50
f 3/3/51 2/2/51 38/43/51
f 2/2/52 12/12/52 38/43/52
f 1/1/53 3/3/53 5/5/53
f 1/1/54 5/5/54 7/7/54
f 5/5/55 6/6/55 10/10/55
f 1/1/56 7/7/56 11/11/56
f 13/13/57 16/16/57 14/14/57
f 16/16/58 6/6/58 4/4/58
f 17/19/59 15/18/59 18/20/59
f 13/17/60 17/19/60 20/22/60
f 17/19/61 19/21/61 23/25/61
f 13/13/62 20/27/62 24/26/62
f 16/16/63 24/26/63 10/10/63
f 24/26/64 22/28/64 10/10/64
f 25/29/65 34/38/65 18/20/65
f 34/38/66 19/21/66 18/20/66
f 27/31/67 26/30/67 28/32/67
f 25/29/68 27/31/68 30/34/68
f 27/31/69 29/33/69 33/37/69
f 25/29/70 30/34/70 23/25/70
f 35/39/71 42/49/71 28/32/71
f 42/49/72 29/33/72 28/32/72
f 37/42/73 36/64/73 38/43/73
f 35/39/74 37/41/74 39/44/74
f 37/42/75 12/12/75 11/11/75
f 35/39/76 39/44/76 33/37/76
f 44/51/77 43/50/77 9/9/77
f 43/56/78 41/46/78 40/45/78
f 43/50/79 40/48/79 11/11/79
f 44/51/80 9/9/80 8/8/80
f 45/52/81 8/8/81 10/10/81
f 44/55/82 45/53/82 46/54/82
f 45/53/83 22/24/83 21/23/83
f 46/54/84 21/23/84 23/25/84
f 44/55/85 46/54/85 31/35/85
f 43/56/86 31/35/86 41/46/86
f 46/54/87 32/36/87 31/35/87
f 48/58/88 47/57/88 26/30/88
f 47/57/89 36/40/89 28/32/89
f 48/58/90 26/30/90 18/20/90
f 48/62/91 49/61/91 50/60/91
f 49/61/92 15/15/92 14/14/92
f 50/60/93 14/14/93 4/4/93
f 48/62/94 50/60/94 38/43/94
f 47/63/95 38/43/95 36/64/95
f 50/60/96 3/3/96 38/43/96
f 55/65/97 60/66/97 59/67/97 54/68/97
f 53/69/98 58/70/98 57/71/98 52/72/98
f 51/73/99 56/74/99 60/66/99 55/65/99
f 54/68/100 59/67/100 58/70/100 53/69/100
f 52/75/101 57/76/101 56/74/101 51/73/101
f 59/67/102 64/77/102 63/78/102 58/70/102
f 57/76/103 62/79/103 61/80/103 56/74/103
f 60/66/104 65/81/104 64/77/104 59/67/104
f 58/70/105 63/78/105 62/82/105 57/71/105
f 56/74/106 61/80/106 65/81/106 60/66/106
f 65/81/107 70/83/107 69/84/107 64/77/107
f 63/78/108 68/85/108 67/86/108 71/87/108
f 61/80/109 66/88/109 70/83/109 65/81/109
f 64/77/110 69/84/110 68/85/110 63/78/110
f 62/89/111 63/90/111 74/91/111 73/92/111
f 61/93/112 62/94/112 73/95/112 72/96/112
f 61/80/113 71/97/113 67/98/113 66/88/113
f 71/99/114 61/93/114 72/96/114 75/100/114
f 63/90/115 71/99/115 75/100/115 74/91/115
f 74/91/116 75/100/116 79/101/116 78/102/116
f 73/92/117 74/91/117 78/102/117 77/103/117
f 75/100/118 72/96/118 76/104/118 79/101/118
f 72/96/119 73/95/119 77/105/119 76/104/119
