# Blender v2.78 (sub 0) OBJ File: 'Low_Poly_Trees_Pack.blend'
# www.blender.org
g Random_Tree_NoLeaves_s_04
v 0.000000 0.000000 -0.066000
v -0.066000 0.000000 0.000000
v 0.000000 0.000000 0.066000
v 0.066000 0.000000 -0.000000
v 0.023207 0.418156 -0.045017
v -0.021163 0.418156 -0.000647
v 0.023207 0.418156 0.043724
v 0.067578 0.418156 -0.000647
v -0.033126 1.010784 -0.010887
v -0.066159 1.011323 0.022555
v -0.032721 1.010898 0.055592
v 0.000313 1.010359 0.022150
v -0.029095 1.291628 -0.011006
v -0.073190 1.292347 0.033633
v -0.028554 1.291780 0.077733
v 0.015540 1.291060 0.033093
v -0.121917 1.457492 0.019693
v -0.140601 1.441692 0.043792
v -0.118848 1.452796 0.067937
v -0.100165 1.468597 0.043838
v -0.343121 1.609497 0.055804
v -0.349310 1.591932 0.086600
v -0.337377 1.603095 0.103605
v -0.325744 1.625754 0.080568
v -0.022086 1.348793 0.036588
v 0.183903 1.395101 0.020009
v 0.188318 1.388341 0.059734
v 0.168625 1.416725 0.047906
v 0.456964 1.614932 0.016206
v 0.461301 1.610467 0.049692
v 0.438698 1.628379 0.039224
v 0.645317 1.741921 0.037149
v 0.649819 1.742117 0.063642
v 0.630908 1.754032 0.054348
v 0.895433 2.099285 0.006259
v -0.587515 1.903332 0.288079
v -0.585109 1.890238 0.303674
v -0.572138 1.905043 0.297927
v -0.363999 1.634599 0.075647
v -0.320962 1.779948 -0.104303
v -0.309400 1.790765 -0.087826
v -0.334854 1.796651 -0.091100
v -0.358292 2.108162 -0.215047
v -0.633171 2.287223 0.453018
v 0.022354 1.316622 -0.003515
v 0.065377 1.588086 -0.214398
v 0.066237 1.614117 -0.180543
v 0.103465 1.597401 -0.200108
v 0.122223 1.971941 -0.375714
v 0.115597 1.976918 -0.350179
v 0.143083 1.973208 -0.359634
v 0.199142 2.356485 -0.424134
v 0.462628 1.654267 0.038622
v 0.411081 1.732214 -0.050543
v 0.402849 1.738905 -0.035064
v 0.420418 1.749061 -0.032350
v 0.410220 2.138931 -0.120616
vt 0.5601 0.7657
vt 0.5541 0.8024
vt 0.5487 0.8019
vt 0.5519 0.7650
vt 0.5436 0.7642
vt 0.5433 0.8018
vt 0.5379 0.8019
vt 0.5353 0.7642
vt 0.5325 0.8022
vt 0.5270 0.7655
vt 0.5461 0.8512
vt 0.5428 0.8514
vt 0.5493 0.8515
vt 0.5396 0.8514
vt 0.5483 0.8669
vt 0.5456 0.8668
vt 0.5438 0.8671
vt 0.5403 0.8673
vt 0.5363 0.8513
vt 0.5367 0.8673
vt 0.5639 0.7642
vt 0.5675 0.7672
vt 0.5670 0.7764
vt 0.5648 0.7766
vt 0.5717 0.7644
vt 0.5749 0.7670
vt 0.5713 0.7775
vt 0.5691 0.7769
vt 0.5462 0.8672
vt 0.5601 0.7662
vt 0.5626 0.7769
vt 0.5704 0.7947
vt 0.5681 0.7943
vt 0.5659 0.7945
vt 0.5635 0.7944
vt 0.5619 0.7941
vt 0.5461 0.8673
vt 0.5461 0.8673
vt 0.5463 0.8674
vt 0.5463 0.8674
vt 0.5448 0.8677
vt 0.5461 0.8672
vt 0.5463 0.8674
vt 0.5457 0.8677
vt 0.5800 0.7652
vt 0.5846 0.7660
vt 0.5834 0.7900
vt 0.5803 0.7898
vt 0.5463 0.8674
vt 0.5463 0.8674
vt 0.5463 0.8674
vt 0.5463 0.8674
vt 0.5463 0.8674
vt 0.5629 0.8256
vt 0.5614 0.8251
vt 0.5677 0.7966
vt 0.5643 0.8257
vt 0.5898 0.7807
vt 0.5916 0.7804
vt 0.5886 0.8042
vt 0.5658 0.8256
vt 0.5907 0.7644
vt 0.5934 0.7642
vt 0.5882 0.7642
vt 0.5882 0.7802
vt 0.5957 0.7648
vt 0.5932 0.7806
vt 0.5601 0.8594
vt 0.5881 0.7642
vt 0.5862 0.7896
vt 0.5750 0.7642
vt 0.5773 0.7895
vt 0.5823 0.8183
vt 0.5802 0.8181
vt 0.5841 0.8185
vt 0.5808 0.8462
vt 0.5784 0.8184
vt 0.5997 0.7738
vt 0.6015 0.7735
vt 0.5971 0.8024
vt 0.6000 0.7652
vt 0.6028 0.7642
vt 0.5978 0.7643
vt 0.5983 0.7734
vt 0.5957 0.7642
vt 0.5971 0.7733
vn 0.7071 -0.0038 -0.7071
vn -0.7050 0.0767 0.7050
vn 0.7071 -0.0016 0.7071
vn -0.7051 0.0745 -0.7051
vn 0.7082 0.0530 0.7041
vn 0.7015 0.1070 -0.7046
vn -0.7032 -0.0807 0.7064
vn 0.7027 -0.0104 -0.7114
vn -0.7024 -0.0456 0.7103
vn 0.7094 -0.0658 0.7018
vn -0.7113 0.0099 -0.7028
vn 0.6317 0.3848 0.6730
vn -0.6841 -0.2594 -0.6817
vn 0.3994 -0.8211 0.4078
vn -0.6503 -0.3312 0.6837
vn -0.5300 -0.5965 -0.6027
vn 0.3541 0.6664 -0.6561
vn -0.3525 -0.6714 0.6519
vn 0.4708 0.5106 0.7194
vn 0.6146 -0.7654 -0.1908
vn 0.5987 0.4465 -0.6650
vn -0.1866 0.4968 0.8475
vn -0.4605 0.5597 -0.6889
vn 0.4776 -0.8143 -0.3298
vn 0.6736 0.3020 0.6745
vn -0.2410 0.2447 0.9392
vn -0.1905 0.2792 0.9412
vn 0.8066 -0.5760 -0.1328
vn -0.5849 0.3459 -0.7336
vn -0.2737 0.5572 -0.7840
vn 0.5690 -0.8101 -0.1415
vn -0.2490 0.3182 0.9147
vn 0.6989 0.0865 0.7100
vn -0.8357 -0.3876 -0.3890
vn 0.2705 0.7270 -0.6312
vn -0.2810 -0.6999 0.6566
vn -0.0347 0.3672 0.9295
vn -0.8399 -0.4207 -0.3428
vn 0.0736 0.7087 0.7016
vn -0.8268 -0.3243 -0.4597
vn 0.8501 -0.4150 -0.3241
vn -0.8129 -0.2671 -0.5175
vn 0.8409 -0.0847 -0.5345
vn 0.5935 -0.2194 0.7743
vn -0.9901 -0.1348 0.0396
vn 0.4637 0.3957 -0.7927
vn 0.4416 -0.7721 -0.4569
vn -0.2080 0.6700 -0.7127
vn 0.3988 -0.6012 -0.6925
vn -0.9673 0.2180 -0.1292
vn 0.4690 0.3118 0.8264
vn 0.4759 -0.3928 -0.7869
vn 0.3364 0.1082 0.9355
vn 0.6042 -0.2174 -0.7666
vn -0.9485 0.1549 -0.2763
vn 0.9118 -0.0679 -0.4051
vn -0.2479 0.2626 0.9325
vn 0.8923 0.0825 -0.4438
vn -0.4060 0.4199 0.8117
vn -0.8180 -0.4850 -0.3093
vn -0.2648 0.2063 0.9420
vn -0.8938 -0.0780 -0.4416
vn -0.7088 -0.0265 -0.7049
vn -0.9873 0.0795 -0.1374
s off
f 1/1/1 5/2/1 8/3/1 4/4/1
f 3/5/2 7/6/2 6/7/2 2/8/2
f 4/4/3 8/3/3 7/6/3 3/5/3
f 2/8/4 6/7/4 5/9/4 1/10/4
f 8/3/5 12/11/5 11/12/5 7/6/5
f 5/2/6 9/13/6 12/11/6 8/3/6
f 7/6/7 11/12/7 10/14/7 6/7/7
f 12/11/8 9/13/8 13/15/8 16/16/8
f 10/14/9 11/12/9 15/17/9 14/18/9
f 11/12/10 12/11/10 16/16/10 15/17/10
f 9/19/11 10/14/11 14/18/11 13/20/11
f 15/21/12 25/22/12 20/23/12 19/24/12
f 13/25/13 14/26/13 18/27/13 17/28/13
f 15/17/14 16/16/14 27/29/14
f 14/30/15 15/21/15 19/24/15 18/31/15
f 17/28/16 18/27/16 22/32/16 21/33/16
f 20/23/17 17/28/17 21/33/17 24/34/17
f 18/31/18 19/24/18 23/35/18 22/36/18
f 19/24/19 20/23/19 24/34/19 23/35/19
f 27/37/20 26/38/20 29/39/20 30/40/20
f 25/22/21 13/25/21 17/28/21 20/23/21
f 25/41/22 15/17/22 27/29/22 28/42/22
f 26/38/23 28/42/23 31/43/23 29/39/23
f 16/16/24 45/44/24 26/38/24 27/37/24
f 25/45/25 45/46/25 48/47/25 47/48/25
f 31/43/26 30/40/26 53/49/26
f 28/42/27 27/29/27 30/40/27 31/43/27
f 33/50/28 32/51/28 35/52/28
f 32/51/29 34/53/29 35/52/29
f 29/39/30 53/49/30 34/53/30 32/51/30
f 30/40/31 29/39/31 32/51/31 33/50/31
f 34/53/32 33/50/32 35/52/32
f 23/35/33 24/34/33 38/54/33 37/55/33
f 21/33/34 22/32/34 39/56/34
f 24/34/35 39/56/35 36/57/35 38/54/35
f 22/36/36 23/35/36 37/55/36
f 42/58/37 41/59/37 43/60/37
f 39/56/38 22/32/38 37/61/38 36/57/38
f 39/62/39 24/63/39 41/59/39 42/58/39
f 21/64/40 39/62/40 42/58/40 40/65/40
f 24/63/41 21/66/41 40/67/41 41/59/41
f 40/65/42 42/58/42 43/60/42
f 41/59/43 40/67/43 43/60/43
f 37/55/44 38/54/44 44/68/44
f 36/57/45 37/61/45 44/68/45
f 38/54/46 36/57/46 44/68/46
f 45/44/47 16/16/47 13/15/47
f 45/44/48 25/41/48 28/42/48 26/38/48
f 45/46/49 13/69/49 46/70/49 48/47/49
f 13/71/50 25/45/50 47/48/50 46/72/50
f 48/47/51 51/73/51 50/74/51 47/48/51
f 46/70/52 49/75/52 51/73/52 48/47/52
f 50/74/53 51/73/53 52/76/53
f 51/73/54 49/75/54 52/76/54
f 49/77/55 50/74/55 52/76/55
f 56/78/56 54/79/56 57/80/56
f 53/49/57 30/40/57 33/50/57 34/53/57
f 53/81/58 29/82/58 54/79/58 56/78/58
f 31/83/59 53/81/59 56/78/59 55/84/59
f 29/85/60 31/83/60 55/84/60 54/86/60
f 55/84/61 56/78/61 57/80/61
f 54/86/62 55/84/62 57/80/62
f 6/7/63 10/14/63 9/19/63 5/9/63
f 47/48/64 50/74/64 49/77/64 46/72/64
