# Blender v2.78 (sub 0) OBJ File: 'Low_Poly_Trees_Pack.blend'
# www.blender.org
g Fir_Tree_s_06
v 0.000663 0.411445 -0.000411
v -0.245754 0.214165 -0.167261
v -0.229478 0.169611 0.216952
v 0.186042 0.179090 0.189046
v 0.188494 0.224337 -0.215700
v -0.122921 0.556925 -0.097134
v -0.089985 0.563196 0.104219
v 0.124945 0.549239 0.102087
v 0.114987 0.538010 -0.110655
v -0.153458 0.599343 -0.106305
v -0.122724 0.605225 0.109418
v 0.142017 0.586570 0.148340
v 0.140923 0.575884 -0.142648
v 0.169177 1.439856 0.000549
v 0.128433 1.073040 -0.041328
v 0.128831 1.074563 0.039988
v 0.055895 1.091684 0.026103
v 0.043813 1.093152 -0.038054
v -0.006143 0.000000 -0.060665
v -0.065757 0.000000 0.016171
v 0.019358 0.000000 0.069926
v 0.064733 0.000000 -0.009171
v -0.006561 0.412289 -0.043964
v -0.033381 0.412603 0.005551
v -0.001280 0.412499 0.024461
v 0.031552 0.412224 -0.012390
vt 0.4441 0.4372
vt 0.4108 0.4118
vt 0.4727 0.4088
vt 0.4720 0.4680
vt 0.4108 0.4697
vt 0.4883 0.4779
vt 0.3881 0.4779
vt 0.4350 0.4466
vt 0.4507 0.4446
vt 0.3912 0.3881
vt 0.4830 0.3892
vt 0.4499 0.4325
vt 0.4352 0.4299
vt 0.4383 0.4424
vt 0.4489 0.4432
vt 0.4466 0.4336
vt 0.4368 0.4340
vt 0.4083 0.3891
vt 0.4950 0.4161
vt 0.4437 0.4372
vt 0.4398 0.4374
vt 0.4083 0.4786
vt 0.4406 0.4399
vt 0.4848 0.4729
vt 0.4429 0.4402
vt 0.4413 0.4389
vt 0.9142 0.8887
vt 0.9450 0.8883
vt 0.9446 0.9884
vt 0.9141 0.9880
vt 0.9752 0.8882
vt 0.9745 0.9887
vt 0.9595 0.9887
vt 0.9601 0.8877
vt 0.8989 0.9883
vt 0.8989 0.8879
vn 0.0946 -0.7091 0.6988
vn -0.7472 -0.6600 -0.0783
vn -0.0363 -0.6487 -0.7602
vn -0.0852 0.2629 -0.9611
vn 0.0479 0.2481 0.9676
vn 0.6667 -0.7366 -0.1137
vn -0.1190 -0.4584 -0.8808
vn 0.9812 0.1932 -0.0013
vn 0.8679 -0.4968 0.0026
vn -0.1011 -0.5552 0.8256
vn -0.9354 0.3391 0.1008
vn -0.0814 0.1828 -0.9798
vn 0.9996 0.0260 -0.0049
vn -0.1290 0.2124 0.9686
vn -0.0112 0.1146 -0.9933
vn -0.7957 -0.5897 0.1386
vn -0.9309 0.3163 0.1826
vn -0.9244 0.3565 0.1358
vn -0.1576 0.1232 0.9798
vn 0.9939 -0.1101 -0.0028
vn -0.5257 0.0651 0.8482
vn 0.6058 0.0377 -0.7948
vn -0.8248 0.0361 -0.5643
vn 0.8260 0.0868 0.5569
s off
f 1/1/1 2/2/1 5/3/1
f 1/1/2 5/3/2 4/4/2
f 1/1/3 4/4/3 3/5/3
f 5/6/4 2/7/4 6/8/4 9/9/4
f 3/10/5 4/11/5 8/12/5 7/13/5
f 1/1/6 3/5/6 2/2/6
f 9/9/7 6/8/7 10/14/7 13/15/7
f 4/11/8 5/6/8 9/9/8 8/12/8
f 8/12/9 9/9/9 13/15/9 12/16/9
f 7/13/10 8/12/10 12/16/10 11/17/10
f 2/7/11 3/10/11 7/13/11 6/8/11
f 13/18/12 10/19/12 18/20/12 15/21/12
f 12/22/13 13/18/13 15/21/13 16/23/13
f 11/24/14 12/22/14 16/23/14 17/25/14
f 18/20/15 14/26/15 15/21/15
f 6/8/16 7/13/16 11/17/16 10/14/16
f 18/20/17 17/25/17 14/26/17
f 10/19/18 11/24/18 17/25/18 18/20/18
f 16/23/19 14/26/19 17/25/19
f 15/21/20 14/26/20 16/23/20
f 20/27/21 21/28/21 25/29/21 24/30/21
f 19/31/22 23/32/22 26/33/22 22/34/22
f 20/27/23 24/30/23 23/35/23 19/36/23
f 22/34/24 26/33/24 25/29/24 21/28/24
