# Blender v2.78 (sub 0) OBJ File: 'Low_Poly_Trees_Pack.blend'
# www.blender.org
g Fir_Tree_m_04
v 0.313840 1.014478 -2.045897
v -1.149577 0.722599 -1.460591
v -1.867311 0.969536 -0.061242
v -1.582083 0.795118 1.303507
v -0.343246 1.058260 2.154140
v 1.122252 0.853083 1.722401
v 1.863786 1.100217 0.578422
v 1.554319 0.779003 -1.040980
v 0.225880 1.657576 -1.603491
v -0.816481 1.691610 -0.931198
v -1.406878 1.650893 -0.030015
v -1.011004 1.765447 0.951458
v -0.192545 1.751539 1.536212
v 0.794901 1.826698 1.138145
v 1.370571 1.744583 0.335234
v 1.015877 1.746606 -0.871464
v 0.209870 1.860732 -1.707185
v -0.963790 1.930991 -1.065479
v -1.627670 1.884368 -0.006075
v -1.144488 2.018082 1.124615
v -0.184088 2.002240 1.783692
v 0.957969 2.089370 1.296576
v 1.604931 1.993384 0.353386
v 1.161527 1.994779 -1.043290
v 0.055334 2.927862 -1.026402
v -0.793781 2.972657 -0.761262
v -1.061131 2.907162 0.070467
v -0.814470 2.921217 0.941771
v 0.023743 2.863352 1.186552
v 0.882202 2.904934 0.953733
v 1.142777 2.883513 0.096271
v 0.900566 2.952545 -0.751202
v 0.052052 3.189830 -1.294415
v -1.000106 3.245513 -0.964924
v -1.332129 3.164162 0.072045
v -1.025572 3.181623 1.150651
v 0.021472 3.109846 1.454271
v 1.084294 3.161437 1.162664
v 1.405634 3.134792 0.090562
v 1.104292 3.220529 -0.952625
v 0.004041 4.119156 -0.733898
v -0.507865 3.997091 -0.470780
v -0.773148 4.121400 0.048906
v -0.510140 3.963151 0.548689
v 0.000596 4.067933 0.835327
v 0.497482 3.927456 0.551024
v 0.777799 4.065472 0.052498
v 0.499693 3.960053 -0.468450
v 0.013988 4.365302 -0.866942
v -0.584720 4.222538 -0.559208
v -0.894986 4.367927 0.048599
v -0.587381 4.182844 0.633129
v 0.009959 4.305393 0.968371
v 0.591100 4.141096 0.635859
v 0.918949 4.302515 0.052801
v 0.593686 4.179220 -0.556483
v 0.140043 6.370655 0.111944
v -0.211462 5.270548 -0.242686
v 0.090044 5.305239 -0.381545
v 0.400640 5.264640 -0.241381
v 0.543361 5.296479 0.063666
v 0.399654 5.260730 0.362351
v 0.088614 5.298189 0.506968
v -0.212398 5.266100 0.361057
v -0.350959 5.305751 0.061760
v 0.023478 0.000000 -0.271078
v -0.249823 0.000000 -0.101361
v -0.171261 0.000000 0.214856
v 0.150707 0.000000 0.234909
v 0.271503 0.000000 -0.061340
v 0.003210 1.637083 -0.124181
v -0.138685 1.638236 -0.027384
v -0.090266 1.638697 0.138645
v 0.082350 1.637856 0.144306
v 0.141291 1.636844 -0.017555
v -0.189888 0.552972 -0.059945
v -0.130359 0.552938 0.181914
v 0.210823 0.552994 -0.029123
v 0.020723 0.553009 -0.190416
v 0.117297 0.552950 0.198992
v 0.300226 0.757354 -1.833451
v -1.017068 0.494619 -1.306589
v -1.663134 0.716899 -0.046966
v -1.406387 0.559897 1.181511
v -0.291249 0.796763 1.947207
v 1.027917 0.612074 1.558578
v 1.695408 0.834532 0.528827
v 1.416841 0.545391 -0.928877
v -0.002740 1.505497 0.033980
vt 0.3364 0.3677
vt 0.3266 0.3428
vt 0.3440 0.3284
vt 0.3607 0.3382
vt 0.3463 0.3062
vt 0.3709 0.2992
vt 0.3378 0.2641
vt 0.3298 0.2856
vt 0.3056 0.2862
vt 0.2920 0.2553
vt 0.2579 0.2953
vt 0.2846 0.3033
vt 0.2878 0.3304
vt 0.2595 0.3463
vt 0.2964 0.3677
vt 0.3048 0.3465
vt 0.3316 0.2644
vt 0.3667 0.2901
vt 0.3300 0.3076
vt 0.3174 0.2954
vt 0.2613 0.2993
vt 0.2840 0.2677
vt 0.3008 0.2968
vt 0.2883 0.3080
vt 0.2920 0.3635
vt 0.2613 0.3389
vt 0.2912 0.3244
vt 0.3031 0.3359
vt 0.3620 0.3368
vt 0.3309 0.3676
vt 0.3193 0.3350
vt 0.3312 0.3248
vt 0.3289 0.2714
vt 0.3521 0.2940
vt 0.3261 0.3074
vt 0.3179 0.3002
vt 0.2718 0.2952
vt 0.2945 0.2706
vt 0.3071 0.2992
vt 0.3000 0.3078
vt 0.2957 0.3522
vt 0.2707 0.3282
vt 0.2987 0.3191
vt 0.3072 0.3262
vt 0.3521 0.3280
vt 0.3287 0.3518
vt 0.3182 0.3268
vt 0.3247 0.3180
vt 0.3076 0.4548
vt 0.2948 0.4465
vt 0.3132 0.4366
vt 0.3230 0.4548
vt 0.3311 0.4268
vt 0.3312 0.4417
vt 0.3033 0.4186
vt 0.3184 0.4186
vt 0.2951 0.4311
vt 0.2561 0.4188
vt 0.2820 0.3790
vt 0.3302 0.3790
vt 0.3701 0.4050
vt 0.3704 0.4524
vt 0.3441 0.4941
vt 0.2556 0.4679
vt 0.2963 0.4941
vt 0.8112 0.9237
vt 0.8137 0.9805
vt 0.8046 0.9813
vt 0.7970 0.9248
vt 0.8534 0.9272
vt 0.8407 0.9828
vt 0.8318 0.9812
vt 0.8394 0.9248
vt 0.8253 0.9238
vt 0.8228 0.9805
vt 0.7957 0.9828
vt 0.7830 0.9273
vt 0.8435 0.8960
vt 0.8266 0.8949
vt 0.7929 0.8960
vt 0.7763 0.8989
vt 0.8097 0.8949
vt 0.8602 0.8988
vt 0.3223 0.3089
vt 0.3164 0.3040
vt 0.3088 0.3030
vt 0.3039 0.3094
vt 0.3026 0.3175
vt 0.3088 0.3224
vt 0.3166 0.3230
vt 0.3208 0.3164
vt 0.3247 0.3102
vt 0.3147 0.3025
vt 0.3032 0.3021
vt 0.2952 0.3104
vt 0.2964 0.3218
vt 0.3058 0.3292
vt 0.3172 0.3298
vt 0.3245 0.3224
vt 0.3246 0.3380
vt 0.3381 0.3248
vt 0.3395 0.3078
vt 0.3261 0.2924
vt 0.3083 0.2938
vt 0.2943 0.3071
vt 0.2946 0.3264
vt 0.3065 0.3400
vt 0.2957 0.2715
vt 0.3282 0.2715
vt 0.3253 0.2790
vt 0.2984 0.2788
vt 0.3530 0.2978
vt 0.3571 0.3341
vt 0.3495 0.3309
vt 0.3462 0.3008
vt 0.3269 0.3548
vt 0.3245 0.3481
vt 0.2892 0.3541
vt 0.2696 0.3290
vt 0.2768 0.3266
vt 0.2931 0.3473
vt 0.2676 0.2933
vt 0.2752 0.2970
vt 0.3125 0.3149
vn -0.4265 0.5136 -0.7445
vn 0.5909 0.4770 -0.6506
vn 0.6508 0.5804 0.4895
vn -0.5097 0.5876 0.6285
vn -0.7291 0.5068 -0.4600
vn 0.8205 0.5137 -0.2508
vn 0.2885 0.5800 0.7618
vn -0.7999 0.5474 0.2462
vn 0.3781 0.4628 -0.8018
vn 0.8289 0.3992 0.3918
vn -0.3813 0.4686 0.7969
vn -0.8412 0.3724 -0.3921
vn 0.8968 0.3559 -0.2628
vn 0.2758 0.4534 0.8475
vn -0.8632 0.4175 0.2839
vn -0.3564 0.3975 -0.8455
vn 0.7352 0.6173 -0.2801
vn 0.3022 0.6221 0.7223
vn -0.7493 0.5787 0.3220
vn -0.3137 0.5628 -0.7648
vn 0.3367 0.5907 -0.7333
vn 0.7098 0.6293 0.3165
vn -0.2936 0.6037 0.7412
vn -0.7691 0.5587 -0.3105
vn -0.4212 0.3974 -0.8153
vn 0.4222 0.3646 -0.8299
vn 0.8459 0.2977 0.4426
vn -0.4401 0.3289 0.8356
vn -0.8165 0.3963 -0.4199
vn 0.8397 0.3345 -0.4278
vn 0.4319 0.2934 0.8529
vn -0.8271 0.3611 0.4307
vn -0.7671 0.4118 0.4919
vn 0.5019 0.3080 0.8082
vn 0.8273 0.3006 -0.4745
vn -0.7712 0.4336 -0.4661
vn -0.4865 0.3836 0.7850
vn 0.8185 0.2818 0.5007
vn 0.4923 0.3444 -0.7994
vn -0.4684 0.4195 -0.7775
vn -0.9659 0.0419 0.2556
vn 0.6315 0.0531 -0.7735
vn -0.0539 0.0451 0.9975
vn -0.5412 0.0466 -0.8396
vn 0.9227 0.0798 0.3771
vn -0.5233 0.1202 -0.8436
vn -0.0649 0.0625 0.9959
vn 0.6420 0.1142 -0.7581
vn -0.9671 0.0863 0.2393
vn 0.9301 0.0520 0.3635
vn 0.8098 -0.4818 -0.3348
vn 0.3342 -0.4707 0.8166
vn -0.8511 -0.4202 0.3148
vn -0.3256 -0.4394 -0.8372
vn 0.2983 -0.4631 -0.8346
vn 0.8130 -0.4845 0.3230
vn -0.3678 -0.4435 0.8174
vn -0.8456 -0.4183 -0.3316
vn 0.2411 -0.6930 -0.6794
vn 0.6737 -0.7052 0.2207
vn -0.2398 -0.7167 0.6549
vn -0.6629 -0.6992 -0.2676
vn 0.6687 -0.7004 -0.2496
vn 0.2161 -0.7154 0.6644
vn -0.6740 -0.7104 0.2027
vn -0.2482 -0.6936 -0.6762
vn -0.4462 -0.5460 -0.7091
vn 0.5668 -0.5417 -0.6207
vn 0.6011 -0.6347 0.4856
vn -0.4493 -0.6360 0.6274
vn -0.6533 -0.6124 -0.4452
vn 0.7384 -0.6349 -0.2272
vn 0.3332 -0.6508 0.6823
vn -0.6795 -0.6404 0.3581
vn -0.7774 -0.6236 0.0828
vn -0.1813 -0.6207 -0.7628
vn 0.4402 -0.5857 -0.6806
vn 0.7521 -0.5456 0.3696
vn -0.3483 -0.6233 0.7001
vn -0.7409 -0.6142 -0.2717
vn 0.8481 -0.5267 -0.0576
vn 0.1493 -0.5952 0.7896
vn -0.4184 -0.8723 0.2530
vn -0.2345 -0.8995 -0.3686
vn 0.4282 -0.8808 -0.2021
vn 0.3295 -0.8568 0.3967
vn -0.3967 -0.8725 0.2852
vn -0.2513 -0.8996 -0.3572
vn 0.3749 -0.8863 -0.2718
vn 0.3880 -0.8528 0.3495
s off
f 2/1/1 10/2/1 9/3/1 1/4/1
f 1/4/2 9/3/2 16/5/2 8/6/2
f 7/7/3 15/8/3 14/9/3 6/10/3
f 5/11/4 13/12/4 12/13/4 4/14/4
f 3/15/5 11/16/5 10/2/5 2/1/5
f 8/6/6 16/5/6 15/8/6 7/7/6
f 6/10/7 14/9/7 13/12/7 5/11/7
f 4/14/8 12/13/8 11/16/8 3/15/8
f 24/17/9 17/18/9 25/19/9 32/20/9
f 22/21/10 23/22/10 31/23/10 30/24/10
f 20/25/11 21/26/11 29/27/11 28/28/11
f 18/29/12 19/30/12 27/31/12 26/32/12
f 23/22/13 24/17/13 32/20/13 31/23/13
f 21/26/14 22/21/14 30/24/14 29/27/14
f 19/30/15 20/25/15 28/28/15 27/31/15
f 17/18/16 18/29/16 26/32/16 25/19/16
f 39/33/17 40/34/17 48/35/17 47/36/17
f 37/37/18 38/38/18 46/39/18 45/40/18
f 35/41/19 36/42/19 44/43/19 43/44/19
f 33/45/20 34/46/20 42/47/20 41/48/20
f 40/34/21 33/45/21 41/48/21 48/35/21
f 38/38/22 39/33/22 47/36/22 46/39/22
f 36/42/23 37/37/23 45/40/23 44/43/23
f 34/46/24 35/41/24 43/44/24 42/47/24
f 59/49/25 58/50/25 57/51/25
f 60/52/26 59/49/26 57/51/26
f 62/53/27 61/54/27 57/51/27
f 64/55/28 63/56/28 57/51/28
f 58/50/29 65/57/29 57/51/29
f 61/54/30 60/52/30 57/51/30
f 63/56/31 62/53/31 57/51/31
f 65/57/32 64/55/32 57/51/32
f 51/58/33 52/59/33 64/55/33 65/57/33
f 53/60/34 54/61/34 62/53/34 63/56/34
f 55/62/35 56/63/35 60/52/35 61/54/35
f 50/64/36 51/58/36 65/57/36 58/50/36
f 52/59/37 53/60/37 63/56/37 64/55/37
f 54/61/38 55/62/38 61/54/38 62/53/38
f 56/63/39 49/65/39 59/49/39 60/52/39
f 49/65/40 50/64/40 58/50/40 59/49/40
f 77/66/41 73/67/41 72/68/41 76/69/41
f 79/70/42 71/71/42 75/72/42 78/73/42
f 80/74/43 74/75/43 73/67/43 77/66/43
f 76/69/44 72/68/44 71/76/44 79/77/44
f 70/78/45 78/73/45 80/74/45 69/79/45
f 67/80/46 76/69/46 79/77/46 66/81/46
f 69/79/47 80/74/47 77/66/47 68/82/47
f 66/83/48 79/70/48 78/73/48 70/78/48
f 68/82/49 77/66/49 76/69/49 67/80/49
f 78/73/50 75/72/50 74/75/50 80/74/50
f 56/84/51 55/85/51 47/36/51 48/35/51
f 54/86/52 53/87/52 45/40/52 46/39/52
f 52/88/53 51/89/53 43/44/53 44/43/53
f 50/90/54 49/91/54 41/48/54 42/47/54
f 49/91/55 56/84/55 48/35/55 41/48/55
f 55/85/56 54/86/56 46/39/56 47/36/56
f 53/87/57 52/88/57 44/43/57 45/40/57
f 51/89/58 50/90/58 42/47/58 43/44/58
f 33/92/59 40/93/59 32/20/59 25/19/59
f 39/94/60 38/95/60 30/24/60 31/23/60
f 37/96/61 36/97/61 28/28/61 29/27/61
f 35/98/62 34/99/62 26/32/62 27/31/62
f 40/93/63 39/94/63 31/23/63 32/20/63
f 38/95/64 37/96/64 29/27/64 30/24/64
f 36/97/65 35/98/65 27/31/65 28/28/65
f 34/99/66 33/92/66 25/19/66 26/32/66
f 18/100/67 17/101/67 9/3/67 10/2/67
f 17/101/68 24/102/68 16/5/68 9/3/68
f 23/103/69 22/104/69 14/9/69 15/8/69
f 21/105/70 20/106/70 12/13/70 13/12/70
f 19/107/71 18/100/71 10/2/71 11/16/71
f 24/102/72 23/103/72 15/8/72 16/5/72
f 22/104/73 21/105/73 13/12/73 14/9/73
f 20/106/74 19/107/74 11/16/74 12/13/74
f 4/108/75 3/109/75 83/110/75 84/111/75
f 2/112/76 1/113/76 81/114/76 82/115/76
f 1/113/77 8/116/77 88/117/77 81/114/77
f 7/118/78 6/119/78 86/120/78 87/121/78
f 5/122/79 4/108/79 84/111/79 85/123/79
f 3/109/80 2/112/80 82/115/80 83/110/80
f 8/116/81 7/118/81 87/121/81 88/117/81
f 6/119/82 5/122/82 85/123/82 86/120/82
f 88/117/83 87/121/83 89/124/83
f 86/120/84 85/123/84 89/124/84
f 84/111/85 83/110/85 89/124/85
f 82/115/86 81/114/86 89/124/86
f 81/114/87 88/117/87 89/124/87
f 87/121/88 86/120/88 89/124/88
f 85/123/89 84/111/89 89/124/89
f 83/110/90 82/115/90 89/124/90
