# Blender v2.78 (sub 0) OBJ File: 'Low_Poly_Trees_Pack.blend'
# www.blender.org
g Fir_Tree_s_04
v 0.058136 0.571631 0.013283
v 0.013248 0.208090 -0.604318
v -0.449133 0.245506 -0.064431
v -0.244758 0.237197 0.548116
v 0.444236 0.191431 0.381946
v 0.436248 0.179851 -0.368995
v 0.127869 0.727312 -0.301742
v -0.164721 0.785513 0.029489
v -0.048903 0.763592 0.396011
v 0.378283 0.681559 0.311617
v 0.380943 0.677866 -0.156678
v 0.133323 0.799861 -0.347497
v -0.230873 0.877313 0.027186
v -0.081905 0.831312 0.488155
v 0.460306 0.710231 0.352419
v 0.464540 0.718591 -0.204540
v 0.256966 1.243307 -0.135360
v 0.030859 1.262480 0.070236
v 0.138397 1.230598 0.343717
v 0.460458 1.156940 0.270324
v 0.459168 1.189102 -0.076133
v 0.277398 1.306007 -0.192831
v 0.011018 1.326768 0.078871
v 0.147416 1.273314 0.377670
v 0.508483 1.199102 0.357501
v 0.541373 1.244986 -0.097553
v 0.689435 2.380695 0.149505
v 0.491898 1.906594 0.013264
v 0.579513 1.880714 0.048479
v 0.581067 1.883125 0.217652
v 0.466136 1.917698 0.217418
v 0.411152 1.932098 0.099165
v -0.009319 0.001024 -0.122189
v -0.107747 0.001428 0.004814
v 0.032637 0.000879 0.093665
v 0.107546 0.000552 -0.037074
v 0.046272 0.537102 -0.055980
v 0.002629 0.542721 0.031477
v 0.054939 0.536538 0.056599
v 0.108386 0.529844 -0.010251
v -0.070170 0.253466 0.019151
v 0.107831 0.250406 -0.022737
v 0.009664 0.252108 -0.094516
v 0.040143 0.251584 0.086423
vt 0.3063 0.3071
vt 0.3008 0.2711
vt 0.3465 0.2918
vt 0.3405 0.3270
vt 0.2909 0.3431
vt 0.2649 0.3001
vt 0.2596 0.3510
vt 0.2661 0.2750
vt 0.2951 0.2989
vt 0.2900 0.3158
vt 0.3686 0.2950
vt 0.3346 0.3609
vt 0.3111 0.3190
vt 0.3218 0.3024
vt 0.3366 0.2555
vt 0.3120 0.2891
vt 0.3104 0.2955
vt 0.2973 0.2997
vt 0.2962 0.3111
vt 0.3083 0.3144
vt 0.3184 0.3028
vt 0.2760 0.3415
vt 0.2632 0.2833
vt 0.2948 0.3005
vt 0.2964 0.3129
vt 0.3498 0.2919
vt 0.3262 0.3438
vt 0.3084 0.3138
vt 0.3136 0.3026
vt 0.3234 0.2595
vt 0.3070 0.2929
vt 0.3049 0.2970
vt 0.2977 0.3030
vt 0.2976 0.3107
vt 0.3071 0.3122
vt 0.3099 0.3022
vt 0.2802 0.3854
vt 0.3650 0.4070
vt 0.3202 0.4293
vt 0.3158 0.4271
vt 0.2596 0.4488
vt 0.3134 0.4313
vt 0.3650 0.4574
vt 0.3011 0.4887
vt 0.3175 0.4344
vt 0.3207 0.4320
vt 0.3179 0.4304
vt 0.9754 0.9173
vt 0.9748 0.9857
vt 0.9608 0.9858
vt 0.9610 0.9171
vt 0.9188 0.9175
vt 0.9183 0.9851
vt 0.9041 0.9854
vt 0.9047 0.9171
vt 0.9614 0.8912
vt 0.9467 0.9173
vt 0.9472 0.8918
vt 0.9184 0.8922
vt 0.9041 0.8914
vt 0.9468 0.9854
vt 0.9755 0.8917
vn 0.4401 -0.7874 0.4315
vn -0.7104 -0.7036 0.0184
vn -0.1957 -0.7778 -0.5972
vn 0.2350 0.1790 0.9554
vn -0.6413 0.4689 -0.6073
vn 0.9924 0.1226 -0.0059
vn 0.5514 -0.8112 -0.1950
vn -0.3299 -0.8029 0.4966
vn 0.4873 0.3716 -0.7902
vn 0.3864 -0.9223 -0.0016
vn -0.0333 -0.8033 0.5947
vn -0.7017 -0.4261 -0.5710
vn -0.8650 0.4057 0.2954
vn 0.2699 0.1828 0.9454
vn -0.7777 -0.5960 0.1999
vn -0.5769 0.4733 -0.6657
vn 0.1793 -0.7066 -0.6845
vn 1.0000 0.0055 0.0035
vn 0.6173 -0.7850 -0.0521
vn -0.0900 -0.7952 0.5996
vn -0.7847 0.5248 0.3297
vn -0.6829 -0.2595 -0.6829
vn 0.4009 0.2739 -0.8742
vn 0.9955 -0.0837 0.0441
vn 0.0856 0.1955 0.9770
vn -0.6164 0.4371 -0.6549
vn -0.9068 -0.2318 0.3520
vn 0.1076 -0.6136 -0.7823
vn 0.3958 0.0975 -0.9131
vn -0.7909 0.4433 0.4218
vn -0.7616 0.4861 0.4286
vn 0.0364 0.1278 0.9911
vn 0.9769 -0.2136 -0.0059
vn -0.5856 0.4397 -0.6810
vn 0.3811 0.1804 -0.9068
vn 0.5922 0.0338 -0.8051
vn -0.8311 0.2042 -0.5173
vn 0.8594 -0.0206 0.5109
vn -0.7953 0.1387 -0.5901
vn -0.4877 0.1008 0.8672
vn 0.5891 0.0450 -0.8068
vn 0.8236 -0.0050 0.5671
vn -0.5281 0.0354 0.8485
s off
f 1/1/1 3/2/1 2/3/1
f 1/1/2 6/4/2 5/5/2
f 1/1/3 5/5/3 4/6/3
f 4/7/4 5/8/4 10/9/4 9/10/4
f 2/11/5 3/12/5 8/13/5 7/14/5
f 5/8/6 6/15/6 11/16/6 10/9/6
f 1/1/7 4/6/7 3/2/7
f 1/1/8 2/3/8 6/4/8
f 6/15/9 2/11/9 7/14/9 11/16/9
f 10/9/10 11/16/10 16/17/10 15/18/10
f 9/10/11 10/9/11 15/18/11 14/19/11
f 7/14/12 8/13/12 13/20/12 12/21/12
f 3/12/13 4/7/13 9/10/13 8/13/13
f 14/22/14 15/23/14 20/24/14 19/25/14
f 8/13/15 9/10/15 14/19/15 13/20/15
f 12/26/16 13/27/16 18/28/16 17/29/16
f 11/16/17 7/14/17 12/21/17 16/17/17
f 15/23/18 16/30/18 21/31/18 20/24/18
f 20/24/19 21/31/19 26/32/19 25/33/19
f 19/25/20 20/24/20 25/33/20 24/34/20
f 13/27/21 14/22/21 19/25/21 18/28/21
f 17/29/22 18/28/22 23/35/22 22/36/22
f 16/30/23 12/26/23 17/29/23 21/31/23
f 25/37/24 26/38/24 29/39/24 30/40/24
f 24/41/25 25/37/25 30/40/25 31/42/25
f 22/43/26 23/44/26 32/45/26 28/46/26
f 18/28/27 19/25/27 24/34/27 23/35/27
f 21/31/28 17/29/28 22/36/28 26/32/28
f 29/39/29 28/46/29 27/47/29
f 32/45/30 31/42/30 27/47/30
f 23/44/31 24/41/31 31/42/31 32/45/31
f 30/40/32 27/47/32 31/42/32
f 29/39/33 27/47/33 30/40/33
f 32/45/34 27/47/34 28/46/34
f 26/38/35 22/43/35 28/46/35 29/39/35
f 43/48/36 37/49/36 40/50/36 42/51/36
f 41/52/37 38/53/37 37/54/37 43/55/37
f 36/56/38 42/51/38 44/57/38 35/58/38
f 34/59/39 41/52/39 43/55/39 33/60/39
f 44/57/40 39/61/40 38/53/40 41/52/40
f 33/62/41 43/48/41 42/51/41 36/56/41
f 42/51/42 40/50/42 39/61/42 44/57/42
f 44/57/43 41/52/43 34/59/43 35/58/43
