# Blender v2.78 (sub 0) OBJ File: 'Low_Poly_Trees_Pack.blend'
# www.blender.org
g Fir_Tree_m_01
v -0.046364 0.818141 -1.694147
v -1.166731 0.590719 -1.028792
v -1.569918 0.801063 0.203667
v -1.163839 0.654525 1.279800
v -0.042484 0.860295 1.813832
v 1.094786 0.677551 1.274100
v 1.554627 0.874673 0.246049
v 1.091613 0.612460 -1.033849
v 0.038887 1.451283 -1.380905
v -0.816217 1.536305 -0.795583
v -1.287637 1.514916 0.125497
v -0.834882 1.610760 0.971061
v 0.008435 1.574695 1.446541
v 0.867071 1.617062 0.988618
v 1.332143 1.524130 0.152501
v 0.887290 1.536019 -0.904921
v 0.053973 1.706628 -1.578225
v -0.920482 1.803518 -0.911207
v -1.457701 1.779143 0.138433
v -0.941752 1.888364 1.102016
v 0.019271 1.847265 1.643861
v 0.997750 1.895546 1.122023
v 1.527734 1.789643 0.169206
v 1.020791 1.803191 -1.035805
v 0.048387 2.857233 -0.860700
v -0.670999 2.907275 -0.635190
v -0.899133 2.855371 0.074532
v -0.689151 2.863842 0.812748
v 0.027378 2.802845 1.020528
v 0.754453 2.826093 0.820969
v 0.974094 2.804213 0.085343
v 0.768808 2.866304 -0.626773
v 0.051027 3.110001 -1.088437
v -0.842533 3.172159 -0.808328
v -1.125902 3.107689 0.073229
v -0.865080 3.118211 0.990178
v 0.024932 3.042445 1.248266
v 0.928043 3.071321 1.000391
v 1.200863 3.044144 0.086657
v 0.945874 3.121269 -0.797873
v 0.005377 4.161119 -0.681008
v -0.465357 4.022273 -0.435627
v -0.718524 4.125000 0.049028
v -0.465807 3.990553 0.515121
v 0.004687 4.113246 0.782437
v 0.474341 4.006849 0.517298
v 0.728612 4.149163 0.052378
v 0.474797 4.037314 -0.433454
v 0.005430 4.388660 -0.797061
v -0.539963 4.227794 -0.512762
v -0.833284 4.346813 0.048760
v -0.540485 4.191043 0.588777
v 0.004630 4.333195 0.898490
v 0.548772 4.209924 0.591300
v 0.843372 4.374809 0.052642
v 0.549301 4.245221 -0.510244
v 0.003262 6.884625 0.111944
v -0.210041 5.632072 -0.122001
v -0.023165 5.633758 -0.199485
v 0.179284 5.636883 -0.121228
v 0.256516 5.640505 0.066891
v 0.178841 5.642602 0.254712
v -0.023733 5.641702 0.332186
v -0.210405 5.637593 0.253954
v -0.287580 5.633646 0.065821
v 0.000000 0.000000 -0.271531
v -0.260336 0.000000 -0.082386
v -0.160897 0.000000 0.223658
v 0.160897 0.000000 0.223658
v 0.260336 0.000000 -0.082386
v -0.001533 1.637083 -0.124400
v -0.141416 1.638236 -0.023135
v -0.087883 1.638697 0.141071
v 0.085089 1.637856 0.141289
v 0.138457 1.636844 -0.022780
v -0.217480 0.552972 -0.050526
v -0.133620 0.552934 0.207566
v 0.221613 0.552997 -0.050526
v 0.002067 0.553012 -0.210036
v 0.137754 0.552948 0.207566
v -0.031546 0.579615 -1.519009
v -1.040043 0.374901 -0.920091
v -1.402971 0.564242 0.189306
v -1.037439 0.432336 1.157986
v -0.028054 0.617559 1.638694
v 0.995659 0.453062 1.152855
v 1.409584 0.630502 0.227456
v 0.992803 0.394472 -0.924643
v -0.003518 1.548426 0.033844
vt 0.3364 0.3677
vt 0.3266 0.3428
vt 0.3440 0.3284
vt 0.3607 0.3382
vt 0.3463 0.3062
vt 0.3709 0.2992
vt 0.3378 0.2641
vt 0.3298 0.2856
vt 0.3056 0.2862
vt 0.2920 0.2553
vt 0.2579 0.2953
vt 0.2846 0.3033
vt 0.2878 0.3304
vt 0.2595 0.3463
vt 0.2964 0.3677
vt 0.3048 0.3465
vt 0.3316 0.2644
vt 0.3667 0.2901
vt 0.3300 0.3076
vt 0.3174 0.2954
vt 0.2613 0.2993
vt 0.2840 0.2677
vt 0.3008 0.2968
vt 0.2883 0.3080
vt 0.2920 0.3635
vt 0.2613 0.3389
vt 0.2912 0.3244
vt 0.3031 0.3359
vt 0.3620 0.3368
vt 0.3309 0.3676
vt 0.3193 0.3350
vt 0.3312 0.3248
vt 0.3289 0.2714
vt 0.3521 0.2940
vt 0.3261 0.3074
vt 0.3179 0.3002
vt 0.2718 0.2952
vt 0.2945 0.2706
vt 0.3071 0.2992
vt 0.3000 0.3078
vt 0.2957 0.3522
vt 0.2707 0.3282
vt 0.2987 0.3191
vt 0.3072 0.3262
vt 0.3521 0.3280
vt 0.3287 0.3518
vt 0.3182 0.3268
vt 0.3247 0.3180
vt 0.3111 0.4429
vt 0.3068 0.4400
vt 0.3132 0.4366
vt 0.3166 0.4429
vt 0.3192 0.4335
vt 0.3193 0.4385
vt 0.3098 0.4306
vt 0.3147 0.4306
vt 0.3069 0.4348
vt 0.2561 0.4188
vt 0.2820 0.3790
vt 0.3302 0.3790
vt 0.3701 0.4050
vt 0.3704 0.4524
vt 0.3441 0.4941
vt 0.2556 0.4679
vt 0.2963 0.4941
vt 0.8112 0.9237
vt 0.8137 0.9805
vt 0.8046 0.9813
vt 0.7970 0.9248
vt 0.8534 0.9272
vt 0.8407 0.9828
vt 0.8318 0.9812
vt 0.8394 0.9248
vt 0.8253 0.9238
vt 0.8228 0.9805
vt 0.7957 0.9828
vt 0.7830 0.9273
vt 0.8435 0.8960
vt 0.8266 0.8949
vt 0.7929 0.8960
vt 0.7763 0.8989
vt 0.8097 0.8949
vt 0.8602 0.8988
vt 0.3223 0.3089
vt 0.3164 0.3040
vt 0.3088 0.3030
vt 0.3039 0.3094
vt 0.3026 0.3175
vt 0.3088 0.3224
vt 0.3166 0.3230
vt 0.3208 0.3164
vt 0.3247 0.3102
vt 0.3147 0.3025
vt 0.3032 0.3021
vt 0.2952 0.3104
vt 0.2964 0.3218
vt 0.3058 0.3292
vt 0.3172 0.3298
vt 0.3245 0.3224
vt 0.3246 0.3380
vt 0.3381 0.3248
vt 0.3395 0.3078
vt 0.3261 0.2924
vt 0.3083 0.2938
vt 0.2943 0.3071
vt 0.2946 0.3264
vt 0.3065 0.3400
vt 0.2957 0.2715
vt 0.3282 0.2715
vt 0.3253 0.2790
vt 0.2984 0.2788
vt 0.3530 0.2978
vt 0.3571 0.3341
vt 0.3495 0.3309
vt 0.3462 0.3008
vt 0.3269 0.3548
vt 0.3245 0.3481
vt 0.2892 0.3541
vt 0.2696 0.3290
vt 0.2768 0.3266
vt 0.2931 0.3473
vt 0.2676 0.2933
vt 0.2752 0.2970
vt 0.3125 0.3149
vn -0.5100 0.4037 -0.7596
vn 0.4902 0.2726 -0.8279
vn 0.8348 0.3398 0.4332
vn -0.4431 0.4210 0.7915
vn -0.8528 0.3605 -0.3780
vn 0.8930 0.2507 -0.3737
vn 0.4360 0.3703 0.8202
vn -0.8350 0.3945 0.3836
vn 0.3480 0.4570 -0.8185
vn 0.8434 0.4135 0.3432
vn -0.3442 0.4388 0.8301
vn -0.8628 0.3549 -0.3600
vn 0.8698 0.3855 -0.3079
vn 0.3322 0.4482 0.8299
vn -0.8543 0.3958 0.3370
vn -0.3983 0.4057 -0.8227
vn 0.8367 0.4431 -0.3219
vn 0.3327 0.4663 0.8197
vn -0.8262 0.4442 0.3466
vn -0.3481 0.4072 -0.8444
vn 0.3626 0.4214 -0.8312
vn 0.8163 0.4593 0.3504
vn -0.3332 0.4628 0.8215
vn -0.8417 0.4175 -0.3423
vn -0.3744 0.2315 -0.8979
vn 0.3488 0.2195 -0.9111
vn 0.9110 0.1719 0.3748
vn -0.3841 0.1692 0.9077
vn -0.9004 0.2231 -0.3736
vn 0.9054 0.1979 -0.3755
vn 0.3522 0.1559 0.9228
vn -0.9084 0.1976 0.3685
vn -0.8169 0.3177 0.4813
vn 0.4742 0.3368 0.8134
vn 0.8087 0.3616 -0.4640
vn -0.8211 0.3370 -0.4606
vn -0.4929 0.3188 0.8096
vn 0.8026 0.3429 0.4881
vn 0.4634 0.3711 -0.8047
vn -0.4763 0.3544 -0.8047
vn -0.9493 0.0588 0.3088
vn 0.5864 0.0657 -0.8073
vn -0.0004 0.0611 0.9981
vn -0.5860 0.0617 -0.8080
vn 0.9499 0.0487 0.3087
vn -0.5853 0.0918 -0.8056
vn -0.0000 0.0291 0.9996
vn 0.5855 0.0874 -0.8059
vn -0.9496 0.0558 0.3085
vn 0.9491 0.0649 0.3084
vn 0.8384 -0.4260 -0.3399
vn 0.3663 -0.4342 0.8230
vn -0.8387 -0.4335 0.3297
vn -0.3137 -0.4314 -0.8459
vn 0.3303 -0.4289 -0.8408
vn 0.8415 -0.4284 0.3291
vn -0.3558 -0.4362 0.8265
vn -0.8338 -0.4318 -0.3440
vn 0.2419 -0.6509 -0.7196
vn 0.7065 -0.6690 0.2308
vn -0.2594 -0.6667 0.6987
vn -0.7140 -0.6432 -0.2766
vn 0.7024 -0.6625 -0.2603
vn 0.2160 -0.6715 0.7088
vn -0.7270 -0.6523 0.2143
vn -0.2694 -0.6431 -0.7169
vn -0.5219 -0.5020 -0.6896
vn 0.4463 -0.5635 -0.6952
vn 0.7042 -0.5472 0.4525
vn -0.4374 -0.5159 0.7366
vn -0.7765 -0.4798 -0.4086
vn 0.7698 -0.5463 -0.3300
vn 0.4156 -0.5441 0.7288
vn -0.7396 -0.4982 0.4525
vn -0.7908 -0.5709 0.2207
vn -0.3299 -0.5719 -0.7510
vn 0.3468 -0.5410 -0.7662
vn 0.8189 -0.5069 0.2691
vn -0.2635 -0.5747 0.7748
vn -0.8103 -0.5610 -0.1693
vn 0.8480 -0.4880 -0.2068
vn 0.2844 -0.5498 0.7854
vn -0.5432 -0.7619 0.3526
vn -0.3542 -0.8066 -0.4733
vn 0.5246 -0.7944 -0.3061
vn 0.4354 -0.7673 0.4709
vn -0.4204 -0.7664 0.4857
vn -0.4715 -0.8028 -0.3648
vn 0.3682 -0.8067 -0.4623
vn 0.5690 -0.7593 0.3157
s off
f 2/1/1 10/2/1 9/3/1 1/4/1
f 1/4/2 9/3/2 16/5/2 8/6/2
f 7/7/3 15/8/3 14/9/3 6/10/3
f 5/11/4 13/12/4 12/13/4 4/14/4
f 3/15/5 11/16/5 10/2/5 2/1/5
f 8/6/6 16/5/6 15/8/6 7/7/6
f 6/10/7 14/9/7 13/12/7 5/11/7
f 4/14/8 12/13/8 11/16/8 3/15/8
f 24/17/9 17/18/9 25/19/9 32/20/9
f 22/21/10 23/22/10 31/23/10 30/24/10
f 20/25/11 21/26/11 29/27/11 28/28/11
f 18/29/12 19/30/12 27/31/12 26/32/12
f 23/22/13 24/17/13 32/20/13 31/23/13
f 21/26/14 22/21/14 30/24/14 29/27/14
f 19/30/15 20/25/15 28/28/15 27/31/15
f 17/18/16 18/29/16 26/32/16 25/19/16
f 39/33/17 40/34/17 48/35/17 47/36/17
f 37/37/18 38/38/18 46/39/18 45/40/18
f 35/41/19 36/42/19 44/43/19 43/44/19
f 33/45/20 34/46/20 42/47/20 41/48/20
f 40/34/21 33/45/21 41/48/21 48/35/21
f 38/38/22 39/33/22 47/36/22 46/39/22
f 36/42/23 37/37/23 45/40/23 44/43/23
f 34/46/24 35/41/24 43/44/24 42/47/24
f 59/49/25 58/50/25 57/51/25
f 60/52/26 59/49/26 57/51/26
f 62/53/27 61/54/27 57/51/27
f 64/55/28 63/56/28 57/51/28
f 58/50/29 65/57/29 57/51/29
f 61/54/30 60/52/30 57/51/30
f 63/56/31 62/53/31 57/51/31
f 65/57/32 64/55/32 57/51/32
f 51/58/33 52/59/33 64/55/33 65/57/33
f 53/60/34 54/61/34 62/53/34 63/56/34
f 55/62/35 56/63/35 60/52/35 61/54/35
f 50/64/36 51/58/36 65/57/36 58/50/36
f 52/59/37 53/60/37 63/56/37 64/55/37
f 54/61/38 55/62/38 61/54/38 62/53/38
f 56/63/39 49/65/39 59/49/39 60/52/39
f 49/65/40 50/64/40 58/50/40 59/49/40
f 77/66/41 73/67/41 72/68/41 76/69/41
f 79/70/42 71/71/42 75/72/42 78/73/42
f 80/74/43 74/75/43 73/67/43 77/66/43
f 76/69/44 72/68/44 71/76/44 79/77/44
f 70/78/45 78/73/45 80/74/45 69/79/45
f 67/80/46 76/69/46 79/77/46 66/81/46
f 69/79/47 80/74/47 77/66/47 68/82/47
f 66/83/48 79/70/48 78/73/48 70/78/48
f 68/82/49 77/66/49 76/69/49 67/80/49
f 78/73/50 75/72/50 74/75/50 80/74/50
f 56/84/51 55/85/51 47/36/51 48/35/51
f 54/86/52 53/87/52 45/40/52 46/39/52
f 52/88/53 51/89/53 43/44/53 44/43/53
f 50/90/54 49/91/54 41/48/54 42/47/54
f 49/91/55 56/84/55 48/35/55 41/48/55
f 55/85/56 54/86/56 46/39/56 47/36/56
f 53/87/57 52/88/57 44/43/57 45/40/57
f 51/89/58 50/90/58 42/47/58 43/44/58
f 33/92/59 40/93/59 32/20/59 25/19/59
f 39/94/60 38/95/60 30/24/60 31/23/60
f 37/96/61 36/97/61 28/28/61 29/27/61
f 35/98/62 34/99/62 26/32/62 27/31/62
f 40/93/63 39/94/63 31/23/63 32/20/63
f 38/95/64 37/96/64 29/27/64 30/24/64
f 36/97/65 35/98/65 27/31/65 28/28/65
f 34/99/66 33/92/66 25/19/66 26/32/66
f 18/100/67 17/101/67 9/3/67 10/2/67
f 17/101/68 24/102/68 16/5/68 9/3/68
f 23/103/69 22/104/69 14/9/69 15/8/69
f 21/105/70 20/106/70 12/13/70 13/12/70
f 19/107/71 18/100/71 10/2/71 11/16/71
f 24/102/72 23/103/72 15/8/72 16/5/72
f 22/104/73 21/105/73 13/12/73 14/9/73
f 20/106/74 19/107/74 11/16/74 12/13/74
f 4/108/75 3/109/75 83/110/75 84/111/75
f 2/112/76 1/113/76 81/114/76 82/115/76
f 1/113/77 8/116/77 88/117/77 81/114/77
f 7/118/78 6/119/78 86/120/78 87/121/78
f 5/122/79 4/108/79 84/111/79 85/123/79
f 3/109/80 2/112/80 82/115/80 83/110/80
f 8/116/81 7/118/81 87/121/81 88/117/81
f 6/119/82 5/122/82 85/123/82 86/120/82
f 88/117/83 87/121/83 89/124/83
f 86/120/84 85/123/84 89/124/84
f 84/111/85 83/110/85 89/124/85
f 82/115/86 81/114/86 89/124/86
f 81/114/87 88/117/87 89/124/87
f 87/121/88 86/120/88 89/124/88
f 85/123/89 84/111/89 89/124/89
f 83/110/90 82/115/90 89/124/90
