# Blender v2.78 (sub 0) OBJ File: 'Low_Poly_Trees_Pack.blend'
# www.blender.org
g Fir_Tree_s_09
v 0.016545 0.526994 -0.000170
v -0.185558 0.194821 -0.128809
v -0.172970 0.165758 0.168352
v 0.148406 0.171941 0.146768
v 0.150302 0.201456 -0.166274
v -0.100207 0.534936 -0.080078
v -0.069711 0.536193 0.093551
v 0.128122 0.529824 0.085946
v 0.115389 0.527332 -0.111213
v -0.123593 0.577518 -0.094405
v -0.095989 0.581973 0.099347
v 0.141788 0.567842 0.134305
v 0.140806 0.559747 -0.127047
v 0.213134 1.406508 0.000949
v 0.165601 1.045589 -0.047905
v 0.166066 1.047088 0.046959
v 0.080979 1.063933 0.030760
v 0.066884 1.065377 -0.044085
v -0.016382 -0.000000 -0.060665
v -0.075996 -0.000000 0.016171
v 0.009119 -0.000000 0.069926
v 0.054494 -0.000000 -0.009171
v 0.004141 0.450423 -0.028903
v -0.022679 0.450737 0.020612
v 0.009422 0.450634 0.039522
v 0.042254 0.450358 0.002671
vt 0.4388 0.4390
vt 0.4644 0.4072
vt 0.4661 0.4676
vt 0.4084 0.4663
vt 0.4086 0.4072
vt 0.4783 0.4824
vt 0.3888 0.4698
vt 0.4329 0.4422
vt 0.4392 0.4427
vt 0.3967 0.3984
vt 0.4744 0.3984
vt 0.4388 0.4375
vt 0.4328 0.4357
vt 0.4342 0.4412
vt 0.4385 0.4414
vt 0.4375 0.4379
vt 0.4338 0.4378
vt 0.4005 0.3916
vt 0.4824 0.4147
vt 0.4337 0.4361
vt 0.4325 0.4363
vt 0.4005 0.4794
vt 0.4328 0.4369
vt 0.4760 0.4683
vt 0.4335 0.4370
vt 0.4330 0.4366
vt 0.7900 0.8905
vt 0.8183 0.8900
vt 0.8179 0.9820
vt 0.7899 0.9817
vt 0.8461 0.8900
vt 0.8454 0.9823
vt 0.8317 0.9823
vt 0.8322 0.8895
vt 0.7760 0.9820
vt 0.7760 0.8897
vn 0.1089 -0.4159 0.9029
vn -0.9312 -0.3623 -0.0398
vn -0.0538 -0.3988 -0.9154
vn -0.1215 0.1618 -0.9793
vn 0.0553 0.1767 0.9827
vn 0.8655 -0.4937 -0.0849
vn -0.1416 -0.3661 -0.9198
vn 0.9966 0.0803 -0.0169
vn 0.8773 -0.4798 -0.0152
vn -0.0781 -0.5494 0.8319
vn -0.9604 0.2587 0.1032
vn -0.0835 0.1495 -0.9852
vn 0.9987 -0.0508 -0.0027
vn -0.1363 0.1864 0.9730
vn -0.0112 0.1356 -0.9907
vn -0.8685 -0.4742 0.1447
vn -0.9126 0.3676 0.1790
vn -0.9251 0.3531 0.1397
vn -0.1571 0.1456 0.9768
vn 0.9915 -0.1302 -0.0028
vn -0.5260 0.0557 0.8486
vn 0.6059 0.0329 -0.7949
vn -0.8219 0.0899 -0.5625
vn 0.8289 0.0225 0.5590
s off
f 1/1/1 2/2/1 5/3/1
f 1/1/2 5/3/2 4/4/2
f 1/1/3 4/4/3 3/5/3
f 5/6/4 2/7/4 6/8/4 9/9/4
f 3/10/5 4/11/5 8/12/5 7/13/5
f 1/1/6 3/5/6 2/2/6
f 9/9/7 6/8/7 10/14/7 13/15/7
f 4/11/8 5/6/8 9/9/8 8/12/8
f 8/12/9 9/9/9 13/15/9 12/16/9
f 7/13/10 8/12/10 12/16/10 11/17/10
f 2/7/11 3/10/11 7/13/11 6/8/11
f 13/18/12 10/19/12 18/20/12 15/21/12
f 12/22/13 13/18/13 15/21/13 16/23/13
f 11/24/14 12/22/14 16/23/14 17/25/14
f 18/20/15 14/26/15 15/21/15
f 6/8/16 7/13/16 11/17/16 10/14/16
f 18/20/17 17/25/17 14/26/17
f 10/19/18 11/24/18 17/25/18 18/20/18
f 16/23/19 14/26/19 17/25/19
f 15/21/20 14/26/20 16/23/20
f 20/27/21 21/28/21 25/29/21 24/30/21
f 19/31/22 23/32/22 26/33/22 22/34/22
f 20/27/23 24/30/23 23/35/23 19/36/23
f 22/34/24 26/33/24 25/29/24 21/28/24
