# Blender v2.78 (sub 0) OBJ File: 'Low_Poly_Trees_Pack.blend'
# www.blender.org
g Fir_Tree_crk_m_04
v 0.053810 0.000989 -0.139082
v -0.108590 0.000462 -0.064513
v -0.012129 -0.000110 0.095875
v 0.128478 0.000480 0.002366
v 0.100422 0.226274 -0.002544
v -0.018797 0.225432 0.067462
v -0.091169 0.226258 -0.055530
v 0.043039 0.227074 -0.119195
v -0.369287 0.417820 -0.931111
v -0.363638 -0.003451 -0.542972
v -0.627646 0.022232 0.293323
v -0.771796 0.624234 0.243083
v -0.561236 0.725419 -0.602395
v -0.705802 0.305701 -1.047869
v -0.729313 0.006186 -0.602662
v -0.952030 0.097375 0.055294
v -1.051921 0.533772 -0.030426
v -0.843067 0.658837 -0.821383
v -0.734909 0.298386 -1.108700
v -0.794211 -0.043218 -0.603987
v -1.018096 0.037670 0.063754
v -1.122930 0.553111 -0.001057
v -0.889017 0.685546 -0.852402
v -1.407228 0.168843 -1.009749
v -1.413361 -0.138251 -0.680309
v -1.541884 0.100871 -0.225971
v -1.584862 0.419019 -0.398858
v -1.474915 0.421092 -0.857644
v -1.429759 0.122310 -1.087929
v -1.455788 -0.257693 -0.655085
v -1.595790 0.076450 -0.164347
v -1.655784 0.460646 -0.378037
v -1.531244 0.462393 -0.927826
v -1.938392 0.109035 -1.061763
v -1.964267 -0.134926 -0.789811
v -2.053403 0.055689 -0.535836
v -2.090464 0.314626 -0.615233
v -1.997024 0.318518 -0.966056
v -1.943237 0.094420 -1.134438
v -2.011270 -0.189746 -0.843755
v -2.129705 0.024443 -0.544005
v -2.164188 0.327634 -0.597301
v -2.031138 0.368970 -1.018031
v -3.192868 0.032368 -1.121712
v -2.729060 0.058473 -1.116665
v -2.741559 0.144745 -1.085252
v -2.790884 0.146827 -0.924944
v -2.787752 0.032634 -0.922590
v -2.751711 -0.023534 -1.033381
v -1.097091 0.140967 -0.444143
v -1.065663 0.163903 -0.513856
v -1.086467 0.113769 -0.422124
v -1.105628 0.166776 -0.397705
v -1.093860 0.225837 -0.468324
v -0.350783 0.195081 -0.150023
v -0.381315 0.389520 -0.177883
v -0.334277 0.297306 -0.256528
v -0.401026 0.303248 -0.071659
vt 0.9575 0.9258
vt 0.9822 0.9301
vt 0.9809 0.9453
vt 0.9559 0.9443
vt 0.9577 0.9648
vt 0.9823 0.9609
vt 0.9858 0.9769
vt 0.9618 0.9840
vt 0.9619 0.9088
vt 0.9858 0.9163
vt 0.8095 0.7984
vt 0.8095 0.8257
vt 0.7783 0.8262
vt 0.7805 0.7962
vt 0.4662 0.4324
vt 0.4553 0.4543
vt 0.4530 0.4519
vt 0.4631 0.4318
vt 0.4968 0.4303
vt 0.4598 0.4156
vt 0.4664 0.3913
vt 0.4259 0.4207
vt 0.4586 0.4175
vt 0.4286 0.4239
vt 0.4200 0.4521
vt 0.4277 0.4483
vt 0.3935 0.4751
vt 0.4704 0.4784
vt 0.3820 0.4556
vt 0.3933 0.3973
vt 0.4326 0.4253
vt 0.4231 0.4373
vt 0.4972 0.4467
vt 0.4468 0.4930
vt 0.4384 0.4450
vt 0.4495 0.4380
vt 0.4823 0.3973
vt 0.4478 0.4263
vt 0.4462 0.4294
vt 0.4335 0.4273
vt 0.4279 0.4365
vt 0.4368 0.4422
vt 0.4466 0.4379
vt 0.3972 0.4674
vt 0.3972 0.4227
vt 0.4305 0.4346
vt 0.4291 0.4447
vt 0.4823 0.4244
vt 0.4575 0.4795
vt 0.4422 0.4448
vt 0.4470 0.4339
vt 0.4474 0.3945
vt 0.4393 0.4302
vt 0.4394 0.4325
vt 0.4317 0.4358
vt 0.4326 0.4426
vt 0.4416 0.4420
vt 0.4439 0.4352
vt 0.5158 0.4606
vt 0.5416 0.3870
vt 0.5596 0.4328
vt 0.5590 0.4368
vt 0.5580 0.4881
vt 0.5606 0.4382
vt 0.5891 0.3873
vt 0.6132 0.4528
vt 0.5636 0.4369
vt 0.5631 0.4328
vt 0.4869 0.4406
vt 0.4376 0.4360
vt 0.4601 0.4036
vt 0.5607 0.4361
vt 0.4612 0.4711
vt 0.3987 0.4613
vt 0.3987 0.4129
vt 0.3935 0.4067
vt 0.9559 0.8982
vt 0.9448 0.9840
vt 0.9358 0.9829
vt 0.9417 0.8967
vt 0.9109 0.8958
vt 0.9189 0.9820
vt 0.9074 0.9840
vt 0.8948 0.8984
vt 0.9266 0.8953
vt 0.9257 0.9819
vt 0.8095 0.8262
vt 0.8123 0.7950
vt 0.8396 0.7971
vt 0.8396 0.8261
vn 0.5294 0.1029 0.8421
vn -0.4218 0.0640 -0.9044
vn 0.8867 0.0912 -0.4532
vn -0.8582 0.0425 0.5115
vn -0.0023 1.0000 0.0080
vn 0.6500 -0.6550 -0.3854
vn 0.1850 0.6846 -0.7051
vn 0.3530 0.9051 0.2371
vn 0.2068 0.1961 0.9585
vn -0.1360 -0.9902 0.0332
vn -0.5735 0.1290 0.8090
vn 0.1264 -0.7878 -0.6028
vn -0.3563 0.9344 0.0024
vn 0.6197 -0.7241 0.3028
vn 0.6935 0.5647 -0.4474
vn -0.2118 0.4728 -0.8553
vn 0.5084 0.8525 0.1214
vn 0.5313 0.4670 0.7069
vn 0.9297 -0.2923 -0.2242
vn -0.0556 -0.9646 0.2576
vn -0.5767 0.2651 0.7727
vn 0.8487 -0.3094 0.4288
vn -0.0098 -0.7483 -0.6632
vn 0.7816 0.4506 -0.4313
vn -0.2881 0.9555 -0.0638
vn 0.4545 0.8714 0.1845
vn 0.0348 0.2338 0.9717
vn -0.3336 -0.8159 0.4723
vn 0.9171 -0.3555 -0.1806
vn -0.0546 0.4083 -0.9112
vn -0.2833 0.9587 -0.0241
vn -0.4879 0.0720 0.8699
vn 0.0174 -0.7165 -0.6974
vn 0.2082 -0.7508 0.6269
vn 0.9157 0.3576 -0.1834
vn 0.2266 0.6616 0.7148
vn -0.0090 0.3410 -0.9400
vn 0.7471 -0.6559 0.1076
vn 0.8442 0.1594 -0.5117
vn -0.1926 -0.8991 0.3931
vn -0.2879 -0.8460 0.4488
vn -0.4411 0.0064 0.8974
vn -0.2343 0.9685 -0.0847
vn 0.0480 -0.7182 -0.6942
vn -0.0338 0.3708 -0.9281
vn 0.6097 -0.3691 0.7014
vn 0.2646 -0.7322 -0.6276
vn -0.3105 0.9492 0.0516
vn 0.1973 0.9798 0.0322
vn 0.1428 0.6622 -0.7356
vn 0.3099 -0.7811 -0.5420
vn -0.2312 -0.5919 0.7721
vn -0.3929 0.7435 0.5411
vn -0.6443 -0.0515 0.7630
vn 0.9250 0.1922 0.3278
s off
f 4/1/1 5/2/1 6/3/1 3/4/1
f 2/5/2 7/6/2 8/7/2 1/8/2
f 1/9/3 8/10/3 5/2/3 4/1/3
f 6/3/4 7/6/4 2/5/4 3/4/4
f 5/11/5 8/12/5 7/13/5 6/14/5
f 14/15/6 15/16/6 20/17/6 19/18/6
f 9/19/7 14/15/7 18/20/7 13/21/7
f 17/22/8 18/20/8 23/23/8 22/24/8
f 16/25/9 17/22/9 22/24/9 21/26/9
f 11/27/10 16/25/10 15/16/10 10/28/10
f 21/29/11 22/30/11 27/31/11 26/32/11
f 19/33/12 20/34/12 25/35/12 24/36/12
f 22/30/13 23/37/13 28/38/13 27/31/13
f 15/16/14 16/25/14 21/26/14 20/17/14
f 18/20/15 14/15/15 19/18/15 23/23/15
f 23/37/16 19/33/16 24/36/16 28/38/16
f 27/31/17 28/38/17 33/39/17 32/40/17
f 26/32/18 27/31/18 32/40/18 31/41/18
f 24/36/19 25/35/19 30/42/19 29/43/19
f 20/34/20 21/29/20 26/32/20 25/35/20
f 31/44/21 32/45/21 37/46/21 36/47/21
f 25/35/22 26/32/22 31/41/22 30/42/22
f 29/48/23 30/49/23 35/50/23 34/51/23
f 28/38/24 24/36/24 29/43/24 33/39/24
f 32/45/25 33/52/25 38/53/25 37/46/25
f 37/46/26 38/53/26 43/54/26 42/55/26
f 36/47/27 37/46/27 42/55/27 41/56/27
f 30/49/28 31/44/28 36/47/28 35/50/28
f 34/51/29 35/50/29 40/57/29 39/58/29
f 33/52/30 29/48/30 34/51/30 38/53/30
f 42/59/31 43/60/31 46/61/31 47/62/31
f 41/63/32 42/59/32 47/62/32 48/64/32
f 39/65/33 40/66/33 49/67/33 45/68/33
f 35/50/34 36/47/34 41/56/34 40/57/34
f 38/53/35 34/51/35 39/58/35 43/54/35
f 9/69/36 50/70/36 10/71/36
f 46/61/37 45/68/37 44/72/37
f 13/73/38 12/74/38 50/70/38
f 12/74/39 11/75/39 50/70/39
f 49/67/40 48/64/40 44/72/40
f 40/66/41 41/63/41 48/64/41 49/67/41
f 47/62/42 44/72/42 48/64/42
f 46/61/43 44/72/43 47/62/43
f 49/67/44 44/72/44 45/68/44
f 43/60/45 39/65/45 45/68/45 46/61/45
f 9/69/46 13/73/46 50/70/46
f 10/28/47 15/16/47 14/15/47 9/19/47
f 13/21/48 18/20/48 17/22/48 12/76/48
f 11/75/49 10/71/49 50/70/49
f 57/77/50 51/78/50 54/79/50 56/80/50
f 55/81/51 52/82/51 51/83/51 57/84/51
f 58/85/52 53/86/52 52/82/52 55/81/52
f 56/80/53 54/79/53 53/86/53 58/85/53
f 12/76/54 17/22/54 16/25/54 11/27/54
f 55/87/55 57/88/55 56/89/55 58/90/55
