# Blender v2.78 (sub 0) OBJ File: 'Low_Poly_Trees_Pack.blend'
# www.blender.org
g Fir_Tree_s_02
v 0.011053 0.579821 -0.051146
v 0.254453 0.239722 -0.587595
v -0.390829 0.250721 -0.279650
v -0.453951 0.230909 0.355906
v 0.239004 0.204907 0.497052
v 0.583170 0.219428 -0.237734
v 0.118968 0.769983 -0.308450
v -0.276526 0.745964 -0.054834
v -0.217292 0.723752 0.334602
v 0.196383 0.734474 0.323737
v 0.342012 0.766048 -0.125710
v 0.084343 0.841189 -0.392418
v -0.334953 0.804273 -0.075426
v -0.252721 0.764054 0.404864
v 0.323572 0.781458 0.357022
v 0.405984 0.830818 -0.203712
v 0.053421 1.241665 -0.247082
v -0.204385 1.252709 -0.029546
v -0.104831 1.253189 0.194078
v 0.162817 1.248337 0.183887
v 0.230192 1.254357 -0.122373
v 0.021214 1.286205 -0.316287
v -0.249654 1.293117 -0.062237
v -0.122098 1.301773 0.235727
v 0.232721 1.302898 0.246839
v 0.245365 1.289347 -0.214392
v -0.001329 2.358926 0.024342
v -0.010129 1.932626 -0.088598
v 0.071173 1.933880 -0.057171
v 0.070995 1.936177 0.093803
v -0.036618 1.934793 0.093594
v -0.086532 1.932593 -0.011938
v 0.014973 0.000000 -0.116998
v -0.113794 0.000000 -0.022018
v 0.002664 0.000000 0.103013
v 0.107960 0.000000 -0.005953
v 0.000150 0.612651 -0.052114
v -0.059537 0.613160 0.023469
v -0.011946 0.612992 0.057861
v 0.053048 0.612546 0.002809
v -0.097925 0.202909 -0.009712
v 0.081103 0.202917 0.006759
v 0.010341 0.202922 -0.087281
v -0.011835 0.202900 0.088739
vt 0.4385 0.4349
vt 0.4534 0.4053
vt 0.4759 0.4478
vt 0.4530 0.4732
vt 0.4020 0.4537
vt 0.4093 0.4053
vt 0.4376 0.4942
vt 0.3849 0.4505
vt 0.4232 0.4404
vt 0.4328 0.4521
vt 0.4660 0.3814
vt 0.4945 0.4547
vt 0.4506 0.4474
vt 0.4482 0.4256
vt 0.4169 0.3814
vt 0.4320 0.4231
vt 0.4347 0.4265
vt 0.4242 0.4379
vt 0.4329 0.4487
vt 0.4469 0.4455
vt 0.4457 0.4312
vt 0.4060 0.3995
vt 0.4609 0.3995
vt 0.4425 0.4292
vt 0.4317 0.4282
vt 0.4470 0.4797
vt 0.3945 0.4498
vt 0.4280 0.4381
vt 0.4370 0.4492
vt 0.4754 0.4516
vt 0.4435 0.4411
vt 0.4428 0.4416
vt 0.4405 0.4325
vt 0.4330 0.4298
vt 0.4306 0.4385
vt 0.4368 0.4435
vt 0.5177 0.4665
vt 0.5465 0.3833
vt 0.5639 0.4335
vt 0.5636 0.4395
vt 0.5809 0.4863
vt 0.5668 0.4400
vt 0.5849 0.3833
vt 0.6188 0.4427
vt 0.5694 0.4379
vt 0.5682 0.4338
vt 0.5663 0.4377
vt 0.9803 0.9100
vt 0.9797 0.9847
vt 0.9653 0.9848
vt 0.9656 0.9097
vt 0.9223 0.9102
vt 0.9219 0.9841
vt 0.9073 0.9844
vt 0.9079 0.9098
vt 0.9659 0.8881
vt 0.9510 0.9100
vt 0.9514 0.8887
vt 0.9220 0.8891
vt 0.9073 0.8883
vt 0.9510 0.9844
vt 0.9804 0.8886
vn 0.2738 -0.7513 0.6005
vn -0.5757 -0.7665 -0.2848
vn 0.0894 -0.8044 -0.5873
vn -0.1116 0.2062 0.9721
vn -0.4413 0.3884 -0.8089
vn 0.8897 0.2561 0.3779
vn 0.6204 -0.7834 0.0372
vn -0.4177 -0.8411 0.3437
vn 0.6303 0.4502 -0.6325
vn 0.5123 -0.8575 0.0469
vn 0.0587 -0.7883 0.6125
vn -0.3557 -0.7284 -0.5857
vn -0.9429 0.3328 0.0101
vn 0.0581 0.3727 0.9261
vn -0.7065 -0.7048 0.0643
vn -0.6069 0.2418 -0.7571
vn 0.3623 -0.7451 -0.5599
vn 0.9136 0.3640 0.1811
vn 0.7358 -0.6720 0.0833
vn -0.0053 -0.7107 0.7035
vn -0.9141 0.3161 0.2539
vn -0.3853 -0.8315 -0.4003
vn 0.4987 0.3440 -0.7956
vn 0.9671 0.2542 0.0137
vn -0.0251 0.2255 0.9739
vn -0.6701 0.2218 -0.7083
vn -0.7537 -0.5636 0.3380
vn 0.2867 -0.8468 -0.4480
vn 0.3475 0.2334 -0.9082
vn -0.8958 0.1432 0.4207
vn -0.8982 0.2036 0.3896
vn -0.0040 0.1615 0.9869
vn 0.9857 0.1684 -0.0014
vn -0.6944 0.1977 -0.6919
vn 0.3752 0.3192 -0.8702
vn 0.7681 0.0601 -0.6376
vn -0.6713 0.0845 -0.7364
vn 0.6919 0.0733 0.7183
vn -0.5856 0.0995 -0.8045
vn -0.7045 0.0309 0.7090
vn 0.7753 0.1249 -0.6191
vn 0.6545 0.0545 0.7541
vn -0.7409 0.0058 0.6715
s off
f 1/1/1 3/2/1 2/3/1
f 1/1/2 6/4/2 5/5/2
f 1/1/3 5/5/3 4/6/3
f 4/7/4 5/8/4 10/9/4 9/10/4
f 2/11/5 3/12/5 8/13/5 7/14/5
f 5/8/6 6/15/6 11/16/6 10/9/6
f 1/1/7 4/6/7 3/2/7
f 1/1/8 2/3/8 6/4/8
f 6/15/9 2/11/9 7/14/9 11/16/9
f 10/9/10 11/16/10 16/17/10 15/18/10
f 9/10/11 10/9/11 15/18/11 14/19/11
f 7/14/12 8/13/12 13/20/12 12/21/12
f 3/12/13 4/7/13 9/10/13 8/13/13
f 14/22/14 15/23/14 20/24/14 19/25/14
f 8/13/15 9/10/15 14/19/15 13/20/15
f 12/26/16 13/27/16 18/28/16 17/29/16
f 11/16/17 7/14/17 12/21/17 16/17/17
f 15/23/18 16/30/18 21/31/18 20/24/18
f 20/24/19 21/31/19 26/32/19 25/33/19
f 19/25/20 20/24/20 25/33/20 24/34/20
f 13/27/21 14/22/21 19/25/21 18/28/21
f 17/29/22 18/28/22 23/35/22 22/36/22
f 16/30/23 12/26/23 17/29/23 21/31/23
f 25/37/24 26/38/24 29/39/24 30/40/24
f 24/41/25 25/37/25 30/40/25 31/42/25
f 22/43/26 23/44/26 32/45/26 28/46/26
f 18/28/27 19/25/27 24/34/27 23/35/27
f 21/31/28 17/29/28 22/36/28 26/32/28
f 29/39/29 28/46/29 27/47/29
f 32/45/30 31/42/30 27/47/30
f 23/44/31 24/41/31 31/42/31 32/45/31
f 30/40/32 27/47/32 31/42/32
f 29/39/33 27/47/33 30/40/33
f 32/45/34 27/47/34 28/46/34
f 26/38/35 22/43/35 28/46/35 29/39/35
f 43/48/36 37/49/36 40/50/36 42/51/36
f 41/52/37 38/53/37 37/54/37 43/55/37
f 36/56/38 42/51/38 44/57/38 35/58/38
f 34/59/39 41/52/39 43/55/39 33/60/39
f 44/57/40 39/61/40 38/53/40 41/52/40
f 33/62/41 43/48/41 42/51/41 36/56/41
f 42/51/42 40/50/42 39/61/42 44/57/42
f 44/57/43 41/52/43 34/59/43 35/58/43
