# Blender v2.78 (sub 0) OBJ File: 'Low_Poly_Trees_Pack.blend'
# www.blender.org
g Fir_Tree_crk_s_03
v -0.004915 0.000000 -0.061075
v -0.064528 0.000000 0.015762
v 0.020587 0.000000 0.069517
v 0.065962 0.000000 -0.009580
v -0.049931 0.186023 0.010974
v 0.051002 0.185852 -0.011032
v -0.005103 0.185882 -0.053545
v 0.011282 0.185976 0.049019
v -0.386281 0.092830 -0.170319
v -0.093093 -0.003278 -0.221565
v -0.213497 -0.003316 0.145306
v -0.295840 0.327822 0.076353
v -0.171610 0.317899 -0.311385
v -0.476228 0.008365 -0.304955
v -0.541025 0.019502 -0.129404
v -0.583487 0.181808 -0.124130
v -0.478691 0.178688 -0.342565
v -0.477030 -0.030315 -0.333040
v -0.579218 -0.000800 -0.135694
v -0.632187 0.190471 -0.117660
v -0.501267 0.190564 -0.384752
v -1.336041 0.018678 -0.592796
v -0.984409 0.063774 -0.481939
v -1.018988 0.064177 -0.408325
v -1.013257 -0.010803 -0.420602
v -0.985881 -0.023188 -0.478579
v -0.368164 0.062769 -0.207259
v -0.384025 0.036439 -0.160075
v -0.397676 0.067897 -0.145513
v -0.388204 0.100107 -0.181691
v -0.181218 0.064851 -0.061330
v -0.190525 0.163733 -0.089746
v -0.162608 0.108781 -0.123748
v -0.208208 0.124808 -0.031816
vt 0.8403 0.8887
vt 0.8357 0.9244
vt 0.8218 0.9232
vt 0.8228 0.8870
vt 0.8034 0.8884
vt 0.8079 0.9242
vt 0.7930 0.9271
vt 0.7849 0.8920
vt 0.8569 0.8920
vt 0.8490 0.9271
vt 0.3116 0.3083
vt 0.3387 0.2804
vt 0.3428 0.3365
vt 0.2790 0.3365
vt 0.2772 0.2788
vt 0.2665 0.2601
vt 0.3584 0.2648
vt 0.3143 0.3021
vt 0.3031 0.3010
vt 0.3567 0.3591
vt 0.2732 0.3591
vt 0.3045 0.3131
vt 0.3155 0.3143
vt 0.3120 0.3046
vt 0.3059 0.3031
vt 0.3063 0.3111
vt 0.3137 0.3123
vt 0.2829 0.2558
vt 0.3574 0.2745
vt 0.3086 0.3087
vt 0.3069 0.3079
vt 0.2829 0.3583
vt 0.3077 0.3096
vt 0.3474 0.3511
vt 0.3084 0.3093
vt 0.3081 0.3090
vt 0.8305 0.9420
vt 0.8315 0.9559
vt 0.7875 0.9547
vt 0.7869 0.9476
vt 0.8277 0.9831
vt 0.7849 0.9736
vt 0.7868 0.9642
vt 0.8303 0.9697
vt 0.7849 0.9369
vt 0.8276 0.9271
vt 0.8168 0.8090
vt 0.8003 0.8094
vt 0.7994 0.7929
vt 0.8175 0.7929
vt 0.7998 0.8101
vt 0.8160 0.8094
vt 0.8160 0.8275
vt 0.7994 0.8266
vn 0.8500 0.0861 0.5197
vn -0.8038 0.0355 -0.5939
vn 0.5946 0.0374 -0.8031
vn -0.5303 0.0650 0.8453
vn 0.2637 0.3190 0.9103
vn 0.7751 -0.5744 0.2630
vn 0.8859 0.1274 -0.4461
vn 0.1985 -0.2152 -0.9562
vn -0.6042 -0.0502 0.7952
vn 0.3266 0.9391 0.1073
vn 0.9496 -0.0067 -0.3133
vn -0.3750 0.9129 -0.1613
vn 0.2269 0.9683 0.1041
vn 0.0105 -0.0630 0.9980
vn -0.0501 -0.9987 0.0033
vn 0.2522 -0.1523 -0.9556
vn -0.2308 0.9664 -0.1130
vn -0.5374 -0.2114 0.8164
vn 0.3053 -0.0419 -0.9513
vn 0.6626 -0.6524 0.3678
vn -0.1604 -0.9780 0.1332
vn -0.0577 -0.9894 0.1331
vn -0.4758 -0.1774 0.8615
vn -0.1094 0.9924 -0.0568
vn -0.3155 -0.5223 0.7923
vn 0.1779 0.5973 -0.7821
vn 0.3434 -0.8360 -0.4279
vn -0.4719 0.7635 0.4409
vn 0.8911 0.2008 0.4070
vn 0.0014 1.0000 -0.0012
s off
f 4/1/1 6/2/1 8/3/1 3/4/1
f 2/5/2 5/6/2 7/7/2 1/8/2
f 1/9/3 7/10/3 6/2/3 4/1/3
f 2/5/4 3/4/4 8/3/4 5/6/4
f 9/11/5 10/12/5 13/13/5
f 9/11/6 13/13/6 12/14/6
f 9/11/7 12/14/7 11/15/7
f 13/16/8 10/17/8 14/18/8 17/19/8
f 11/20/9 12/21/9 16/22/9 15/23/9
f 9/11/10 11/15/10 10/12/10
f 17/19/11 14/18/11 18/24/11 21/25/11
f 12/21/12 13/16/12 17/19/12 16/22/12
f 16/22/13 17/19/13 21/25/13 20/26/13
f 15/23/14 16/22/14 20/26/14 19/27/14
f 10/17/15 11/20/15 15/23/15 14/18/15
f 21/28/16 18/29/16 26/30/16 23/31/16
f 20/32/17 21/28/17 23/31/17 24/33/17
f 19/34/18 20/32/18 24/33/18 25/35/18
f 26/30/19 22/36/19 23/31/19
f 14/18/20 15/23/20 19/27/20 18/24/20
f 26/30/21 25/35/21 22/36/21
f 18/29/22 19/34/22 25/35/22 26/30/22
f 24/33/23 22/36/23 25/35/23
f 23/31/24 22/36/24 24/33/24
f 31/37/25 34/38/25 29/39/25 28/40/25
f 33/41/26 27/42/26 30/43/26 32/44/26
f 31/37/27 28/40/27 27/45/27 33/46/27
f 32/44/28 30/43/28 29/39/28 34/38/28
f 32/47/29 34/48/29 31/49/29 33/50/29
f 6/51/30 7/52/30 5/53/30 8/54/30
