# Blender v2.78 (sub 0) OBJ File: 'Low_Poly_Trees_Pack.blend'
# www.blender.org
g Fir_Tree_s_05
v -0.004195 0.410102 0.000954
v -0.227811 0.183294 -0.175238
v -0.215078 0.163302 0.224029
v 0.205942 0.101487 0.200411
v 0.212993 0.117440 -0.219841
v -0.141127 0.469030 -0.104657
v -0.121420 0.479251 0.124168
v 0.126364 0.519038 0.135145
v 0.139810 0.493366 -0.135055
v -0.184488 0.503595 -0.125055
v -0.150247 0.517394 0.130423
v 0.158756 0.557359 0.176518
v 0.159517 0.544913 -0.168096
v 0.023274 1.332773 0.001914
v 0.067561 1.001180 -0.047295
v 0.068031 1.002947 0.048685
v -0.018057 1.022812 0.032296
v -0.032319 1.024515 -0.043430
v -0.005119 0.000000 -0.059300
v -0.064733 0.000000 0.017537
v 0.020382 0.000000 0.071291
v 0.065757 0.000000 -0.007805
v -0.014859 0.406884 -0.042599
v -0.041348 0.407198 0.006917
v -0.009577 0.407094 0.025827
v 0.022796 0.406819 -0.011025
vt 0.3094 0.3134
vt 0.3375 0.2834
vt 0.3406 0.3487
vt 0.2770 0.3472
vt 0.2772 0.2834
vt 0.3632 0.3574
vt 0.2649 0.3574
vt 0.3010 0.3220
vt 0.3199 0.3214
vt 0.2673 0.2638
vt 0.3628 0.2661
vt 0.3161 0.3054
vt 0.3002 0.3054
vt 0.3044 0.3177
vt 0.3172 0.3193
vt 0.3131 0.3090
vt 0.3017 0.3075
vt 0.2662 0.3572
vt 0.2718 0.2646
vt 0.3061 0.3110
vt 0.3075 0.3174
vt 0.3560 0.3347
vt 0.3117 0.3148
vt 0.3318 0.2606
vt 0.3109 0.3110
vt 0.3095 0.3137
vt 0.7897 0.8878
vt 0.8205 0.8874
vt 0.8201 0.9875
vt 0.7896 0.9872
vt 0.8508 0.8873
vt 0.8501 0.9878
vt 0.8351 0.9879
vt 0.8357 0.8868
vt 0.7744 0.9875
vt 0.7744 0.8870
vn -0.0103 -0.6071 0.7946
vn -0.8152 -0.5781 -0.0356
vn -0.1324 -0.6000 -0.7890
vn -0.0875 0.2294 -0.9694
vn 0.0257 0.2191 0.9754
vn 0.7328 -0.6780 -0.0573
vn -0.0429 -0.5353 -0.8436
vn 0.9817 0.1884 0.0265
vn 0.8619 -0.5044 0.0512
vn -0.0114 -0.5283 0.8490
vn -0.9558 0.2891 0.0539
vn -0.1111 0.2081 -0.9718
vn 0.9801 0.1985 -0.0058
vn -0.1635 0.2348 0.9582
vn -0.0041 0.1463 -0.9892
vn -0.7160 -0.6887 0.1139
vn -0.9713 0.1478 0.1863
vn -0.9550 0.2667 0.1301
vn -0.1595 0.1173 0.9802
vn 0.9910 0.1334 -0.0073
vn -0.5272 0.0542 0.8480
vn 0.6070 0.0525 -0.7930
vn -0.8262 0.0181 -0.5631
vn 0.8259 0.1071 0.5535
s off
f 1/1/1 2/2/1 5/3/1
f 1/1/2 5/3/2 4/4/2
f 1/1/3 4/4/3 3/5/3
f 5/6/4 2/7/4 6/8/4 9/9/4
f 3/10/5 4/11/5 8/12/5 7/13/5
f 1/1/6 3/5/6 2/2/6
f 9/9/7 6/8/7 10/14/7 13/15/7
f 4/11/8 5/6/8 9/9/8 8/12/8
f 8/12/9 9/9/9 13/15/9 12/16/9
f 7/13/10 8/12/10 12/16/10 11/17/10
f 2/7/11 3/10/11 7/13/11 6/8/11
f 13/18/12 10/19/12 18/20/12 15/21/12
f 12/22/13 13/18/13 15/21/13 16/23/13
f 11/24/14 12/22/14 16/23/14 17/25/14
f 18/20/15 14/26/15 15/21/15
f 6/8/16 7/13/16 11/17/16 10/14/16
f 18/20/17 17/25/17 14/26/17
f 10/19/18 11/24/18 17/25/18 18/20/18
f 16/23/19 14/26/19 17/25/19
f 15/21/20 14/26/20 16/23/20
f 20/27/21 21/28/21 25/29/21 24/30/21
f 19/31/22 23/32/22 26/33/22 22/34/22
f 20/27/23 24/30/23 23/35/23 19/36/23
f 22/34/24 26/33/24 25/29/24 21/28/24
