# Blender v2.78 (sub 0) OBJ File: 'Low_Poly_Trees_Pack.blend'
# www.blender.org
g Fir_Tree_crk_s_04
v -0.019025 0.000000 0.066408
v 0.067476 0.000000 0.021964
v 0.013054 0.000000 -0.062725
v -0.061498 0.000000 -0.010215
v 0.050463 0.165113 0.012236
v -0.020921 0.164998 0.052686
v 0.008246 0.165075 -0.052678
v 0.376110 0.113775 0.203288
v 0.072624 -0.000502 0.066074
v 0.177429 0.163462 -0.132849
v 0.157883 0.351288 0.094609
v 0.045758 0.195083 0.313712
v 0.408638 0.021299 0.220413
v 0.476406 0.083429 0.120252
v 0.479156 0.211763 0.226881
v 0.382277 0.128266 0.378058
v 0.427572 0.001013 0.222623
v 0.515928 0.072134 0.114135
v 0.507240 0.236491 0.241945
v 0.384437 0.119123 0.411325
v 1.195874 0.001154 0.680865
v 0.853341 0.060192 0.551241
v 0.896621 0.103726 0.489309
v 0.908656 0.025507 0.450286
v 0.877525 -0.003082 0.491089
v 0.336549 0.103875 0.217069
v 0.360029 0.113573 0.166811
v 0.366749 0.149214 0.175328
v 0.348615 0.151699 0.221165
v 0.059080 0.169117 0.024515
v 0.043799 0.235620 0.109326
v 0.027116 0.164534 0.099942
v 0.074001 0.243401 0.040493
v -0.032209 0.164990 0.031549
v 0.060869 0.199724 0.024728
v -0.039541 0.259945 0.076935
v 0.005708 0.263334 0.013950
v -0.022471 0.246805 -0.007663
v -0.019973 0.082499 0.059547
v 0.010650 0.082538 -0.057702
v 0.058969 0.082557 0.017100
v -0.059452 0.057238 -0.010922
v -0.031665 0.000000 0.043604
v -0.031454 0.082496 0.038482
vt 0.9090 0.9628
vt 0.9104 0.9762
vt 0.8973 0.9784
vt 0.8947 0.9652
vt 0.9233 0.9628
vt 0.9229 0.9762
vt 0.4447 0.4398
vt 0.4171 0.4753
vt 0.4126 0.4075
vt 0.4769 0.4099
vt 0.4798 0.4753
vt 0.4036 0.4861
vt 0.4075 0.3886
vt 0.4435 0.4365
vt 0.4449 0.4407
vt 0.4924 0.3875
vt 0.5002 0.4861
vt 0.4494 0.4407
vt 0.4487 0.4346
vt 0.4441 0.4366
vt 0.4452 0.4400
vt 0.4482 0.4403
vt 0.4479 0.4364
vt 0.4311 0.4600
vt 0.4214 0.4569
vt 0.4340 0.4371
vt 0.4377 0.4388
vt 0.4416 0.4608
vt 0.4416 0.4392
vt 0.4508 0.4614
vt 0.4455 0.4388
vt 0.4419 0.4227
vt 0.4480 0.4380
vt 0.4575 0.4594
vt 0.9538 0.9089
vt 0.9491 0.9213
vt 0.8962 0.9100
vt 0.8974 0.9041
vt 0.9423 0.9441
vt 0.8921 0.9252
vt 0.8943 0.9176
vt 0.9455 0.9328
vt 0.8977 0.8952
vt 0.9513 0.8952
vt 0.9607 0.8962
vt 0.9566 0.9089
vt 0.9529 0.9146
vt 0.9515 0.9495
vt 0.9662 0.9232
vt 0.9605 0.9255
vt 0.9770 0.8978
vt 0.9797 0.8952
vt 0.9881 0.9051
vt 0.9851 0.9071
vt 0.8077 0.8220
vt 0.8240 0.8261
vt 0.8199 0.8411
vt 0.8053 0.8363
vt 0.9593 0.9376
vt 0.8015 0.8239
vt 0.8296 0.8230
vt 0.8371 0.8343
vt 0.9076 0.9495
vt 0.9238 0.9495
vt 0.8100 0.8085
vt 0.8162 0.7956
vt 0.8193 0.7935
vt 0.8238 0.8063
vt 0.9483 0.9522
vt 0.9458 0.9653
vt 0.9373 0.9600
vt 0.9385 0.9509
vt 0.8921 0.9521
vt 0.9525 0.9528
vt 0.9496 0.9659
vt 0.7967 0.7854
vt 0.8079 0.7860
vt 0.7967 0.8012
vn 0.4809 0.0895 0.8722
vn 0.8379 0.0559 -0.5430
vn -0.0145 0.7839 -0.6207
vn -0.3800 -0.6502 -0.6580
vn -0.7621 -0.5299 0.3721
vn -0.2356 -0.7934 0.5613
vn 0.5616 0.6149 -0.5536
vn -0.4752 0.7853 0.3969
vn -0.8734 -0.4695 0.1298
vn 0.0837 0.8143 0.5744
vn -0.5831 0.8055 0.1051
vn -0.0209 0.6248 -0.7805
vn 0.2400 -0.8360 -0.4935
vn -0.2838 -0.8098 0.5135
vn -0.0573 0.8384 0.5420
vn 0.5905 0.4910 -0.6405
vn -0.3525 -0.7120 0.6073
vn -0.3819 -0.6224 -0.6832
vn 0.2585 -0.8727 -0.4142
vn 0.2355 -0.8847 -0.4024
vn 0.5866 0.4320 -0.6850
vn -0.0619 0.8364 0.5446
vn 0.4432 0.1110 -0.8895
vn -0.3535 -0.0206 0.9352
vn -0.1172 -0.9796 -0.1630
vn 0.2289 0.9632 0.1410
vn 0.0542 -0.9985 0.0078
vn 0.8245 -0.0442 -0.5642
vn -0.6992 0.0702 0.7115
vn 0.4407 0.2354 -0.8662
vn -0.8797 0.0306 0.4746
vn -0.4422 -0.8814 0.1662
vn 0.2031 0.9590 0.1975
vn -0.3665 0.9054 -0.2146
vn -0.4785 0.6946 -0.5372
vn 0.8393 0.0560 -0.5407
vn -0.0014 1.0000 0.0003
vn -0.8755 0.0343 0.4821
vn 0.4631 0.0892 0.8818
vn -0.5686 0.0239 -0.8223
vn -0.8759 0.0311 0.4816
vn -0.4452 0.8740 -0.1945
vn -0.9091 -0.0222 -0.4160
s off
f 41/1/1 5/2/1 6/3/1 39/4/1
f 41/1/2 40/5/2 7/6/2 5/2/2
f 8/7/3 9/8/3 12/9/3
f 8/7/4 12/9/4 11/10/4
f 8/7/5 11/10/5 10/11/5
f 12/12/6 9/13/6 13/14/6 16/15/6
f 10/16/7 11/17/7 15/18/7 14/19/7
f 8/7/8 10/11/8 9/8/8
f 16/15/9 13/14/9 17/20/9 20/21/9
f 11/17/10 12/12/10 16/15/10 15/18/10
f 15/18/11 16/15/11 20/21/11 19/22/11
f 14/19/12 15/18/12 19/22/12 18/23/12
f 9/13/13 10/16/13 14/19/13 13/14/13
f 20/24/14 17/25/14 25/26/14 22/27/14
f 19/28/15 20/24/15 22/27/15 23/29/15
f 18/30/16 19/28/16 23/29/16 24/31/16
f 25/26/17 21/32/17 22/27/17
f 13/14/18 14/19/18 18/23/18 17/20/18
f 25/33/19 24/31/19 21/32/19
f 17/34/20 18/30/20 24/31/20 25/33/20
f 23/29/21 21/32/21 24/31/21
f 22/27/22 21/32/22 23/29/22
f 30/35/23 33/36/23 28/37/23 27/38/23
f 32/39/24 26/40/24 29/41/24 31/42/24
f 30/35/25 27/38/25 26/43/25 32/44/25
f 31/42/26 29/41/26 28/37/26 33/36/26
f 6/45/27 5/46/27 30/35/27 32/44/27
f 30/35/28 5/46/28 35/47/28
f 32/39/29 31/42/29 6/48/29
f 33/36/30 35/47/30 38/49/30 37/50/30
f 44/51/31 39/52/31 6/53/31 34/54/31
f 35/47/28 33/36/28 30/35/28
f 38/55/32 35/56/32 31/57/32 36/58/32
f 31/42/33 33/36/33 37/50/33 36/59/33
f 37/60/34 38/55/34 36/58/34
f 35/56/35 5/61/35 6/62/35 31/57/35
f 2/63/36 3/64/36 40/5/36 41/1/36
f 7/65/37 34/66/37 6/67/37 5/68/37
f 43/69/38 44/70/38 42/71/38 4/72/38
f 2/63/39 41/1/39 39/4/39 1/73/39
f 4/72/40 42/71/40 40/5/40 3/64/40
f 1/74/41 39/75/41 44/70/41 43/69/41
f 42/76/42 44/77/42 40/78/42
f 44/77/43 34/66/43 7/65/43 40/78/43
