# Blender v2.78 (sub 0) OBJ File: 'Low_Poly_Trees_Pack.blend'
# www.blender.org
g Fir_Tree_crk_s_01
v 0.002696 0.000890 -0.134189
v -0.111695 0.000416 -0.021135
v 0.019254 -0.000099 0.084817
v 0.109385 0.000432 -0.037547
v -0.094197 0.203632 -0.018900
v -0.000291 0.204367 -0.114055
v -0.360627 0.149256 -0.401008
v 0.264468 -0.001713 -0.460314
v -0.212031 -0.004313 0.041709
v -0.583369 0.238882 0.302561
v -0.343306 0.766486 -0.102565
v 0.226899 0.417814 -0.562491
v -0.255401 -0.010457 -0.672360
v -0.552153 -0.018232 -0.364369
v -0.759217 0.176253 -0.207878
v -0.593209 0.485550 -0.489397
v -0.298521 0.242980 -0.733269
v -0.310702 -0.130605 -0.736446
v -0.649480 -0.181600 -0.329210
v -0.876047 0.222239 -0.179955
v -0.623787 0.561915 -0.570067
v -0.289536 0.217835 -0.858947
v -0.688940 -0.086341 -0.987686
v -0.910397 -0.120004 -0.734903
v -1.034902 0.136854 -0.660518
v -0.888491 0.343677 -0.882628
v -0.674376 0.126859 -1.060764
v -0.680079 -0.152464 -1.020025
v -0.949218 -0.193015 -0.767995
v -1.093663 0.089833 -0.713300
v -0.954840 0.395938 -0.924154
v -0.635775 0.150882 -1.152947
v -1.540870 0.030035 -1.727885
v -1.236064 -0.053163 -1.447683
v -1.223348 0.029893 -1.471828
v -1.320738 0.122299 -1.402774
v -1.363883 0.038253 -1.352154
v -1.316052 -0.065702 -1.376520
v -0.310780 0.124253 -0.412537
v -0.381005 0.138629 -0.347852
v -0.383582 0.193053 -0.365625
v -0.324618 0.197527 -0.426201
v -0.120616 0.218143 -0.048451
v -0.058973 0.344365 -0.159245
v -0.028763 0.232288 -0.144557
v -0.147058 0.341717 -0.071398
v -0.114924 0.289227 -0.040025
v -0.024954 0.297623 -0.132001
v 0.094296 0.418736 0.016958
v 0.017205 0.417153 0.088025
v -0.017448 0.347008 0.045379
v 0.061527 0.354339 -0.029817
v -0.039376 0.000131 0.037379
v -0.039486 0.203222 0.026243
v 0.061617 0.000637 -0.080816
v 0.046341 0.203969 -0.069326
v 0.017051 0.030991 0.081451
v 0.105519 0.031557 -0.036860
v -0.039422 0.084507 0.032753
v 0.055271 0.085113 -0.076043
vt 0.8003 0.9628
vt 0.8037 0.9843
vt 0.7897 0.9874
vt 0.7835 0.9664
vt 0.8107 0.9709
vt 0.8102 0.9619
vt 0.3091 0.3045
vt 0.2936 0.2824
vt 0.3379 0.2840
vt 0.3447 0.3136
vt 0.2998 0.3417
vt 0.2670 0.3055
vt 0.2597 0.3269
vt 0.2800 0.2637
vt 0.3023 0.2938
vt 0.2960 0.3077
vt 0.3685 0.3150
vt 0.3059 0.3576
vt 0.3091 0.3175
vt 0.3256 0.3082
vt 0.3579 0.2685
vt 0.3194 0.2943
vt 0.3178 0.2990
vt 0.3051 0.2957
vt 0.2991 0.3044
vt 0.3084 0.3110
vt 0.3185 0.3082
vt 0.2656 0.3267
vt 0.2793 0.2732
vt 0.3015 0.2983
vt 0.2964 0.3101
vt 0.3484 0.3152
vt 0.3064 0.3491
vt 0.3074 0.3155
vt 0.3151 0.3070
vt 0.3388 0.2734
vt 0.3156 0.2956
vt 0.3111 0.3006
vt 0.3031 0.3010
vt 0.2995 0.3095
vt 0.3078 0.3123
vt 0.3124 0.3070
vt 0.3009 0.3839
vt 0.3648 0.4325
vt 0.3146 0.4326
vt 0.3099 0.4308
vt 0.2549 0.4357
vt 0.3070 0.4329
vt 0.3411 0.4826
vt 0.2781 0.4826
vt 0.3088 0.4377
vt 0.3137 0.4364
vt 0.3107 0.4333
vt 0.7887 0.9290
vt 0.8038 0.8884
vt 0.8114 0.8913
vt 0.8005 0.9331
vt 0.8270 0.9376
vt 0.8263 0.8940
vt 0.8366 0.8931
vt 0.8412 0.9361
vt 0.8133 0.9363
vt 0.8203 0.8936
vt 0.8412 0.9412
vt 0.8279 0.9419
vt 0.8195 0.9400
vt 0.7938 0.9344
vt 0.7835 0.9309
vt 0.7959 0.9589
vt 0.7925 0.9503
vt 0.8143 0.9548
vt 0.8070 0.9612
vt 0.8204 0.8158
vt 0.8034 0.8149
vt 0.8045 0.8005
vt 0.8221 0.8019
vt 0.8037 0.7776
vt 0.8246 0.7785
vt 0.8034 0.7629
vt 0.8250 0.7626
vt 0.8182 0.9646
vt 0.8183 0.9612
vt 0.8494 0.9665
vt 0.8428 0.9874
vt 0.8361 0.9856
vt 0.8391 0.9732
vt 0.8034 0.8307
vt 0.8034 0.8158
vt 0.8273 0.8172
vt 0.8268 0.8307
vt 0.8037 0.8614
vt 0.8042 0.8499
vt 0.8251 0.8500
vt 0.8254 0.8604
vt 0.8412 0.9644
vt 0.8113 0.9837
vt 0.8339 0.9659
vt 0.8345 0.9626
vn -0.7057 0.0640 -0.7056
vn -0.6283 0.0423 0.7768
vn 0.2494 0.9378 0.2416
vn 0.4101 -0.4063 0.8165
vn 0.9310 -0.1797 0.3176
vn -0.8189 0.5450 0.1799
vn 0.0211 -0.9998 0.0073
vn 0.0067 0.7697 -0.6384
vn 0.5861 0.8060 0.0829
vn 0.1504 0.2466 0.9574
vn 0.3658 -0.1775 -0.9136
vn 0.7208 0.6866 0.0950
vn 0.2443 0.6169 0.7482
vn 0.6917 -0.4314 0.5792
vn -0.4221 -0.8523 0.3088
vn -0.7264 0.6750 0.1295
vn 0.3732 -0.1932 0.9074
vn -0.0179 -0.9897 -0.1421
vn 0.9761 -0.0300 -0.2153
vn 0.1789 0.7269 -0.6630
vn 0.7289 0.6487 0.2188
vn -0.4042 0.7107 0.5757
vn -0.7604 -0.5308 0.3744
vn 0.6790 -0.4270 0.5971
vn 0.4989 -0.3131 -0.8081
vn 0.1897 0.7708 -0.6082
vn -0.7821 0.5549 0.2837
vn -0.0271 -0.9813 -0.1905
vn -0.3175 -0.3673 0.8742
vn 0.9375 0.0314 0.3467
vn 0.5974 -0.3069 -0.7409
vn -0.7999 -0.4587 0.3868
vn -0.7960 -0.4729 0.3778
vn -0.7403 0.5824 0.3360
vn 0.3936 0.7793 -0.4877
vn -0.0530 -0.9716 -0.2308
vn 0.5091 -0.3875 -0.7685
vn 0.6854 0.0518 -0.7263
vn 0.1630 -0.9726 0.1657
vn -0.7705 0.0202 0.6372
vn -0.2832 0.9296 -0.2360
vn -0.2956 -0.8864 -0.3561
vn -0.7188 -0.0248 0.6948
vn 0.6989 0.0955 -0.7088
vn -0.7499 -0.0184 0.6614
vn 0.7636 0.0786 -0.6408
vn 0.7210 0.1278 -0.6811
vn -0.6671 -0.0546 0.7429
vn -0.2266 0.9511 -0.2102
vn 0.5467 -0.6360 0.5446
vn 0.3237 -0.9149 0.2410
vn 0.6688 0.3167 0.6726
vn -0.6290 0.0415 0.7763
vn 0.6814 0.0857 -0.7269
vn 0.4746 0.7906 0.3869
vn 0.0006 1.0000 0.0083
vn 0.6687 0.0919 -0.7378
vn 0.7491 0.0278 0.6619
vn -0.6324 0.0445 0.7733
vn 0.6706 0.0940 -0.7359
vn 0.7985 0.1034 0.5930
s off
f 2/1/1 5/2/1 6/3/1 1/4/1
f 59/5/2 2/1/2 53/6/2
f 7/7/3 9/8/3 8/9/3
f 7/7/4 12/10/4 11/11/4
f 7/7/5 11/11/5 10/12/5
f 10/13/6 11/14/6 16/15/6 15/16/6
f 8/17/7 9/18/7 14/19/7 13/20/7
f 11/14/8 12/21/8 17/22/8 16/15/8
f 7/7/9 10/12/9 9/8/9
f 7/7/10 8/9/10 12/10/10
f 12/21/11 8/17/11 13/20/11 17/22/11
f 16/15/12 17/22/12 22/23/12 21/24/12
f 15/16/13 16/15/13 21/24/13 20/25/13
f 13/20/14 14/19/14 19/26/14 18/27/14
f 9/18/15 10/13/15 15/16/15 14/19/15
f 20/28/16 21/29/16 26/30/16 25/31/16
f 14/19/17 15/16/17 20/25/17 19/26/17
f 18/32/18 19/33/18 24/34/18 23/35/18
f 17/22/19 13/20/19 18/27/19 22/23/19
f 21/29/20 22/36/20 27/37/20 26/30/20
f 26/30/21 27/37/21 32/38/21 31/39/21
f 25/31/22 26/30/22 31/39/22 30/40/22
f 19/33/23 20/28/23 25/31/23 24/34/23
f 23/35/24 24/34/24 29/41/24 28/42/24
f 22/36/25 18/32/25 23/35/25 27/37/25
f 31/43/26 32/44/26 35/45/26 36/46/26
f 30/47/27 31/43/27 36/46/27 37/48/27
f 28/49/28 29/50/28 38/51/28 34/52/28
f 24/34/29 25/31/29 30/40/29 29/41/29
f 27/37/30 23/35/30 28/42/30 32/38/30
f 35/45/31 34/52/31 33/53/31
f 38/51/32 37/48/32 33/53/32
f 29/50/33 30/47/33 37/48/33 38/51/33
f 36/46/34 33/53/34 37/48/34
f 35/45/35 33/53/35 36/46/35
f 38/51/36 33/53/36 34/52/36
f 32/44/37 28/49/37 34/52/37 35/45/37
f 45/54/38 39/55/38 42/56/38 44/57/38
f 43/58/39 40/59/39 39/60/39 45/61/39
f 46/62/40 41/63/40 40/59/40 43/58/40
f 44/57/41 42/56/41 41/63/41 46/62/41
f 6/64/42 5/65/42 43/58/42 45/61/42
f 43/58/43 47/66/43 46/62/43
f 44/57/44 48/67/44 45/54/44
f 43/58/45 5/65/45 47/66/45
f 45/54/46 48/67/46 6/68/46
f 48/67/47 44/57/47 49/69/47 52/70/47
f 46/62/48 47/66/48 51/71/48 50/72/48
f 44/57/49 46/62/49 50/72/49 49/69/49
f 49/73/50 50/74/50 51/75/50 52/76/50
f 52/76/51 51/75/51 47/77/51 48/78/51
f 47/77/52 5/79/52 6/80/52 48/78/52
f 57/81/53 59/5/53 53/6/53 3/82/53
f 1/83/54 6/84/54 56/85/54 60/86/54
f 59/87/55 57/88/55 58/89/55 60/90/55
f 5/91/56 54/92/56 56/93/56 6/94/56
f 1/83/57 60/86/57 55/95/57
f 56/93/58 54/92/58 59/87/58 60/90/58
f 54/96/59 5/2/59 2/1/59 59/5/59
f 55/95/60 60/86/60 58/97/60 4/98/60
f 4/98/61 58/97/61 57/81/61 3/82/61
