# Blender v2.78 (sub 0) OBJ File: 'Low_Poly_Trees_Pack.blend'
# www.blender.org
g Fir_Tree_m_03
v -0.099230 0.771463 -2.039885
v -1.397748 0.584319 -1.241108
v -1.856375 0.880497 0.238493
v -1.387211 0.660271 1.530419
v -0.023926 0.781828 2.171538
v 1.315278 0.437194 1.523576
v 1.886839 0.621812 0.289373
v 1.304263 0.359738 -1.247180
v -0.009444 1.474171 -1.633347
v -0.957601 1.469868 -0.942148
v -1.511521 1.408881 0.145544
v -0.985248 1.556192 1.144059
v 0.011292 1.577700 1.705546
v 1.019931 1.692799 1.164791
v 1.575047 1.618584 0.177432
v 1.049910 1.598829 -1.071263
v -0.002707 1.655602 -1.914819
v -1.121850 1.657249 -1.107082
v -1.769163 1.585979 0.163996
v -1.154159 1.758127 1.330863
v 0.010399 1.783262 1.987018
v 1.189097 1.917767 1.355090
v 1.837806 1.831038 0.201261
v 1.224130 1.807953 -1.257967
v -0.025631 2.862557 -1.077066
v -0.857684 2.953661 -0.838958
v -1.128736 2.924850 0.081240
v -0.868764 3.021651 0.995536
v 0.008462 2.857739 1.252877
v 0.907961 2.915912 1.005719
v 1.176511 2.755332 0.094629
v 0.930092 2.963940 -0.787342
v 0.005420 3.119098 -1.359124
v -0.930725 3.246683 -0.928243
v -1.380742 3.206060 0.079626
v -1.057827 3.299800 1.215288
v 0.031790 3.098596 1.534935
v 1.149071 3.144356 1.227936
v 1.482642 2.971394 0.096257
v 1.176560 3.204012 -0.999253
v -0.056099 4.358709 -0.776429
v -0.506544 4.107298 -0.497348
v -0.804916 4.194086 0.053868
v -0.503366 4.071359 0.583972
v 0.014676 4.264873 0.888001
v 0.558402 4.199102 0.586449
v 0.829534 4.389677 0.057678
v 0.555377 4.233623 -0.494877
v -0.082551 4.618214 -0.927791
v -0.626925 4.328278 -0.597951
v -0.979564 4.430851 0.053519
v -0.623168 4.285802 0.680038
v -0.010905 4.514513 1.039364
v 0.631713 4.436779 0.682965
v 0.952158 4.662015 0.058022
v 0.628137 4.477580 -0.595030
v -0.062401 7.355865 0.123138
v -0.300952 5.936572 -0.201896
v -0.094214 5.978626 -0.314975
v 0.267230 5.943592 -0.200768
v 0.379943 5.948878 0.073774
v 0.266583 5.951938 0.347881
v -0.029054 5.950625 0.460947
v -0.301484 5.944628 0.346775
v -0.414113 5.938867 0.072213
v 0.000000 0.000000 -0.298684
v -0.286370 0.000000 -0.090624
v -0.176986 0.000000 0.246024
v 0.176986 0.000000 0.246024
v 0.286370 0.000000 -0.090624
v -0.001687 1.800791 -0.136840
v -0.155558 1.802060 -0.025448
v -0.096671 1.802567 0.155178
v 0.093598 1.801641 0.155418
v 0.152303 1.800528 -0.025058
v -0.239227 0.608269 -0.055579
v -0.146982 0.608228 0.228323
v 0.243775 0.608296 -0.055579
v 0.002274 0.608314 -0.231040
v 0.151530 0.608243 0.228323
v -0.107982 0.638662 -1.829628
v -1.270253 0.466252 -1.110610
v -1.683084 0.732856 0.221252
v -1.260767 0.534620 1.384178
v -0.033607 0.644039 1.961280
v 1.171875 0.333817 1.378018
v 1.686365 0.500000 0.267051
v 1.161961 0.264096 -1.116075
v -0.069860 1.486046 0.037228
vt 0.7134 0.4936
vt 0.7035 0.4687
vt 0.7210 0.4542
vt 0.7377 0.4641
vt 0.7232 0.4321
vt 0.7478 0.4251
vt 0.7147 0.3900
vt 0.7067 0.4114
vt 0.6826 0.4121
vt 0.6689 0.3812
vt 0.6349 0.4211
vt 0.6615 0.4292
vt 0.6647 0.4562
vt 0.6364 0.4722
vt 0.6734 0.4936
vt 0.6817 0.4724
vt 0.7085 0.3902
vt 0.7436 0.4160
vt 0.7070 0.4335
vt 0.6944 0.4213
vt 0.6382 0.4252
vt 0.6610 0.3936
vt 0.6777 0.4227
vt 0.6653 0.4339
vt 0.6689 0.4894
vt 0.6382 0.4648
vt 0.6681 0.4503
vt 0.6801 0.4618
vt 0.7389 0.4626
vt 0.7078 0.4934
vt 0.6962 0.4609
vt 0.7081 0.4507
vt 0.7058 0.3973
vt 0.7291 0.4199
vt 0.7030 0.4333
vt 0.6949 0.4261
vt 0.6487 0.4211
vt 0.6715 0.3964
vt 0.6840 0.4251
vt 0.6769 0.4336
vt 0.6726 0.4781
vt 0.6476 0.4541
vt 0.6756 0.4449
vt 0.6841 0.4521
vt 0.7291 0.4538
vt 0.7056 0.4777
vt 0.6952 0.4527
vt 0.7016 0.4439
vt 0.8076 0.4451
vt 0.8035 0.4424
vt 0.8096 0.4391
vt 0.8129 0.4451
vt 0.8153 0.4362
vt 0.8154 0.4409
vt 0.8064 0.4335
vt 0.8111 0.4335
vt 0.8036 0.4374
vt 0.7556 0.4223
vt 0.7800 0.3846
vt 0.8257 0.3847
vt 0.8635 0.4092
vt 0.8638 0.4541
vt 0.8388 0.4935
vt 0.7551 0.4688
vt 0.7936 0.4935
vt 0.8112 0.9237
vt 0.8137 0.9805
vt 0.8046 0.9813
vt 0.7970 0.9248
vt 0.8534 0.9272
vt 0.8407 0.9828
vt 0.8318 0.9812
vt 0.8394 0.9248
vt 0.8253 0.9238
vt 0.8228 0.9805
vt 0.7957 0.9828
vt 0.7830 0.9273
vt 0.8435 0.8960
vt 0.8266 0.8949
vt 0.7929 0.8960
vt 0.7763 0.8989
vt 0.8097 0.8949
vt 0.8602 0.8988
vt 0.6992 0.4348
vt 0.6934 0.4299
vt 0.6857 0.4289
vt 0.6808 0.4352
vt 0.6795 0.4434
vt 0.6857 0.4483
vt 0.6935 0.4489
vt 0.6978 0.4423
vt 0.7016 0.4361
vt 0.6917 0.4283
vt 0.6801 0.4280
vt 0.6721 0.4363
vt 0.6733 0.4477
vt 0.6828 0.4551
vt 0.6941 0.4556
vt 0.7014 0.4482
vt 0.7015 0.4639
vt 0.7150 0.4507
vt 0.7164 0.4337
vt 0.7031 0.4182
vt 0.6852 0.4197
vt 0.6712 0.4329
vt 0.6715 0.4523
vt 0.6834 0.4659
vt 0.6726 0.3973
vt 0.7051 0.3973
vt 0.7023 0.4049
vt 0.6753 0.4047
vt 0.7299 0.4237
vt 0.7341 0.4600
vt 0.7264 0.4568
vt 0.7231 0.4267
vt 0.7038 0.4806
vt 0.7014 0.4740
vt 0.6662 0.4800
vt 0.6466 0.4549
vt 0.6537 0.4525
vt 0.6701 0.4732
vt 0.6445 0.4191
vt 0.6521 0.4229
vt 0.6894 0.4408
vn -0.5115 0.4856 -0.7089
vn 0.4871 0.2885 -0.8243
vn 0.8390 0.3184 0.4413
vn -0.4187 0.4926 0.7629
vn -0.7932 0.4926 -0.3580
vn 0.8942 0.2373 -0.3796
vn 0.4469 0.3819 0.8090
vn -0.7744 0.5249 0.3533
vn 0.2974 0.4927 -0.8178
vn 0.8231 0.4767 0.3086
vn -0.3455 0.4247 0.8368
vn -0.8771 0.3259 -0.3527
vn 0.8534 0.4406 -0.2786
vn 0.3055 0.4736 0.8261
vn -0.8749 0.3628 0.3209
vn -0.4180 0.4005 -0.8154
vn 0.8319 0.4845 -0.2704
vn 0.2956 0.5386 0.7890
vn -0.7514 0.5917 0.2920
vn -0.4384 0.4509 -0.7775
vn 0.3058 0.4846 -0.8195
vn 0.8156 0.4933 0.3023
vn -0.2918 0.5817 0.7593
vn -0.7733 0.5029 -0.3861
vn -0.5038 0.2724 -0.8197
vn 0.3138 0.2812 -0.9069
vn 0.8915 0.2674 0.3657
vn -0.3820 0.2074 0.9006
vn -0.8975 0.2362 -0.3725
vn 0.8832 0.2906 -0.3682
vn 0.3470 0.2270 0.9100
vn -0.9058 0.2116 0.3671
vn -0.8329 0.2807 0.4769
vn 0.4449 0.3170 0.8376
vn 0.8197 0.3459 -0.4567
vn -0.8379 0.3003 -0.4557
vn -0.5102 0.2887 0.8102
vn 0.8168 0.3274 0.4750
vn 0.4087 0.3537 -0.8414
vn -0.5817 0.3163 -0.7494
vn -0.9493 0.0588 0.3088
vn 0.5864 0.0657 -0.8073
vn -0.0004 0.0611 0.9981
vn -0.5860 0.0617 -0.8080
vn 0.9499 0.0487 0.3087
vn -0.5853 0.0918 -0.8056
vn -0.0000 0.0291 0.9996
vn 0.5855 0.0874 -0.8059
vn -0.9496 0.0558 0.3085
vn 0.9491 0.0649 0.3084
vn 0.8643 -0.3888 -0.3191
vn 0.3918 -0.4473 0.8040
vn -0.7666 -0.5650 0.3052
vn -0.2326 -0.5065 -0.8303
vn 0.3010 -0.4482 -0.8417
vn 0.8685 -0.3914 0.3042
vn -0.2804 -0.5185 0.8078
vn -0.7612 -0.5620 -0.3236
vn 0.2525 -0.7496 -0.6118
vn 0.5306 -0.7976 0.2867
vn -0.3164 -0.7097 0.6295
vn -0.8025 -0.5046 -0.3183
vn 0.5265 -0.7866 -0.3226
vn 0.2062 -0.7679 0.6065
vn -0.7056 -0.6585 0.2618
vn -0.3552 -0.5418 -0.7617
vn -0.3695 -0.7762 -0.5109
vn 0.3657 -0.7794 -0.5088
vn 0.5630 -0.7380 0.3720
vn -0.3000 -0.7708 0.5620
vn -0.5516 -0.7686 -0.3240
vn 0.6224 -0.7417 -0.2500
vn 0.3783 -0.7470 0.5467
vn -0.5052 -0.7746 0.3805
vn -0.6392 -0.7622 0.1022
vn -0.2081 -0.8209 -0.5318
vn 0.0558 -0.8410 -0.5381
vn 0.5075 -0.8549 0.1072
vn -0.1832 -0.8184 0.5447
vn -0.6506 -0.7578 -0.0500
vn 0.5229 -0.8508 -0.0531
vn 0.0489 -0.8364 0.5459
vn -0.4950 -0.8058 0.3251
vn -0.3929 -0.8452 -0.3625
vn 0.3781 -0.8800 -0.2873
vn 0.3610 -0.8519 0.3793
vn -0.4504 -0.8095 0.3766
vn -0.4302 -0.8421 -0.3252
vn 0.2625 -0.8822 -0.3910
vn 0.4313 -0.8495 0.3037
s off
f 2/1/1 10/2/1 9/3/1 1/4/1
f 1/4/2 9/3/2 16/5/2 8/6/2
f 7/7/3 15/8/3 14/9/3 6/10/3
f 5/11/4 13/12/4 12/13/4 4/14/4
f 3/15/5 11/16/5 10/2/5 2/1/5
f 8/6/6 16/5/6 15/8/6 7/7/6
f 6/10/7 14/9/7 13/12/7 5/11/7
f 4/14/8 12/13/8 11/16/8 3/15/8
f 24/17/9 17/18/9 25/19/9 32/20/9
f 22/21/10 23/22/10 31/23/10 30/24/10
f 20/25/11 21/26/11 29/27/11 28/28/11
f 18/29/12 19/30/12 27/31/12 26/32/12
f 23/22/13 24/17/13 32/20/13 31/23/13
f 21/26/14 22/21/14 30/24/14 29/27/14
f 19/30/15 20/25/15 28/28/15 27/31/15
f 17/18/16 18/29/16 26/32/16 25/19/16
f 39/33/17 40/34/17 48/35/17 47/36/17
f 37/37/18 38/38/18 46/39/18 45/40/18
f 35/41/19 36/42/19 44/43/19 43/44/19
f 33/45/20 34/46/20 42/47/20 41/48/20
f 40/34/21 33/45/21 41/48/21 48/35/21
f 38/38/22 39/33/22 47/36/22 46/39/22
f 36/42/23 37/37/23 45/40/23 44/43/23
f 34/46/24 35/41/24 43/44/24 42/47/24
f 59/49/25 58/50/25 57/51/25
f 60/52/26 59/49/26 57/51/26
f 62/53/27 61/54/27 57/51/27
f 64/55/28 63/56/28 57/51/28
f 58/50/29 65/57/29 57/51/29
f 61/54/30 60/52/30 57/51/30
f 63/56/31 62/53/31 57/51/31
f 65/57/32 64/55/32 57/51/32
f 51/58/33 52/59/33 64/55/33 65/57/33
f 53/60/34 54/61/34 62/53/34 63/56/34
f 55/62/35 56/63/35 60/52/35 61/54/35
f 50/64/36 51/58/36 65/57/36 58/50/36
f 52/59/37 53/60/37 63/56/37 64/55/37
f 54/61/38 55/62/38 61/54/38 62/53/38
f 56/63/39 49/65/39 59/49/39 60/52/39
f 49/65/40 50/64/40 58/50/40 59/49/40
f 77/66/41 73/67/41 72/68/41 76/69/41
f 79/70/42 71/71/42 75/72/42 78/73/42
f 80/74/43 74/75/43 73/67/43 77/66/43
f 76/69/44 72/68/44 71/76/44 79/77/44
f 70/78/45 78/73/45 80/74/45 69/79/45
f 67/80/46 76/69/46 79/77/46 66/81/46
f 69/79/47 80/74/47 77/66/47 68/82/47
f 66/83/48 79/70/48 78/73/48 70/78/48
f 68/82/49 77/66/49 76/69/49 67/80/49
f 78/73/50 75/72/50 74/75/50 80/74/50
f 56/84/51 55/85/51 47/36/51 48/35/51
f 54/86/52 53/87/52 45/40/52 46/39/52
f 52/88/53 51/89/53 43/44/53 44/43/53
f 50/90/54 49/91/54 41/48/54 42/47/54
f 49/91/55 56/84/55 48/35/55 41/48/55
f 55/85/56 54/86/56 46/39/56 47/36/56
f 53/87/57 52/88/57 44/43/57 45/40/57
f 51/89/58 50/90/58 42/47/58 43/44/58
f 33/92/59 40/93/59 32/20/59 25/19/59
f 39/94/60 38/95/60 30/24/60 31/23/60
f 37/96/61 36/97/61 28/28/61 29/27/61
f 35/98/62 34/99/62 26/32/62 27/31/62
f 40/93/63 39/94/63 31/23/63 32/20/63
f 38/95/64 37/96/64 29/27/64 30/24/64
f 36/97/65 35/98/65 27/31/65 28/28/65
f 34/99/66 33/92/66 25/19/66 26/32/66
f 18/100/67 17/101/67 9/3/67 10/2/67
f 17/101/68 24/102/68 16/5/68 9/3/68
f 23/103/69 22/104/69 14/9/69 15/8/69
f 21/105/70 20/106/70 12/13/70 13/12/70
f 19/107/71 18/100/71 10/2/71 11/16/71
f 24/102/72 23/103/72 15/8/72 16/5/72
f 22/104/73 21/105/73 13/12/73 14/9/73
f 20/106/74 19/107/74 11/16/74 12/13/74
f 4/108/75 3/109/75 83/110/75 84/111/75
f 2/112/76 1/113/76 81/114/76 82/115/76
f 1/113/77 8/116/77 88/117/77 81/114/77
f 7/118/78 6/119/78 86/120/78 87/121/78
f 5/122/79 4/108/79 84/111/79 85/123/79
f 3/109/80 2/112/80 82/115/80 83/110/80
f 8/116/81 7/118/81 87/121/81 88/117/81
f 6/119/82 5/122/82 85/123/82 86/120/82
f 88/117/83 87/121/83 89/124/83
f 86/120/84 85/123/84 89/124/84
f 84/111/85 83/110/85 89/124/85
f 82/115/86 81/114/86 89/124/86
f 81/114/87 88/117/87 89/124/87
f 87/121/88 86/120/88 89/124/88
f 85/123/89 84/111/89 89/124/89
f 83/110/90 82/115/90 89/124/90
