# Blender v2.78 (sub 0) OBJ File: 'Low_Poly_Trees_Pack.blend'
# www.blender.org
g Fir_Tree_m_07
v -0.033356 1.431246 -2.153491
v -1.466299 1.290375 -1.313889
v -1.942144 1.611517 0.241333
v -1.453927 1.370547 1.599290
v -0.024393 1.484280 2.273175
v 1.379561 1.105768 1.592096
v 1.972399 1.289776 0.294814
v 1.368502 1.024709 -1.320271
v -0.003847 2.119510 -1.615750
v -0.980650 2.330522 -0.933195
v -1.522327 2.360442 0.140893
v -0.995212 2.424748 1.126921
v -0.031118 2.271002 1.681386
v 0.953075 2.208383 1.147393
v 1.480540 2.041997 0.172383
v 0.972236 2.113218 -1.060696
v 0.037856 2.350281 -1.845848
v -1.072497 2.599525 -1.068026
v -1.689197 2.636637 0.155978
v -1.087499 2.707665 1.279629
v 0.008777 2.523182 1.911484
v 1.129205 2.442977 1.302960
v 1.727929 2.250601 0.191863
v 1.149588 2.335666 -1.213323
v 0.055140 3.531089 -1.027667
v -0.761746 3.710581 -0.762128
v -1.032986 3.684338 0.073577
v -0.790570 3.659108 0.942832
v 0.021745 3.469610 1.187496
v 0.859640 3.375548 0.952513
v 1.107669 3.312589 0.086306
v 0.882810 3.419381 -0.752216
v 0.097337 3.783333 -1.295830
v -0.915443 4.015253 -0.965999
v -1.253130 3.986282 0.072042
v -0.952792 3.950894 1.151758
v 0.054405 3.707558 1.455659
v 1.094419 3.581158 1.163783
v 1.401950 3.499447 0.087854
v 1.124269 3.634649 -0.953688
v 0.236361 4.805390 -0.681008
v -0.257492 4.788441 -0.435627
v -0.463713 4.958756 0.049028
v -0.266630 4.757461 0.515121
v 0.221985 4.759066 0.782437
v 0.635235 4.534501 0.517298
v 0.921980 4.604541 0.052378
v 0.643936 4.563792 -0.433454
v 0.313100 5.027657 -0.797061
v -0.260163 5.015174 -0.512761
v -0.495731 5.215286 0.048760
v -0.270993 4.979548 0.588777
v 0.295964 4.974312 0.898490
v 0.771263 4.709480 0.591300
v 1.105064 4.785995 0.052642
v 0.781579 4.743279 -0.510244
v 1.205868 7.442634 0.111944
v 0.300752 5.965302 -0.230495
v 0.591126 5.934414 -0.364971
v 0.865491 5.821993 -0.229239
v 1.009970 5.821157 0.063178
v 0.865001 5.816976 0.348889
v 0.589801 5.925879 0.489482
v 0.300190 5.959854 0.347643
v 0.181961 6.034671 0.061334
v 0.000000 0.000000 -0.285804
v -0.275344 0.000000 -0.085755
v -0.170172 0.000000 0.237931
v 0.170172 0.000000 0.237931
v 0.275344 0.000000 -0.085755
v -0.021164 1.645810 -0.156567
v -0.192833 1.649045 -0.030781
v -0.127337 1.649055 0.173185
v 0.084757 1.645715 0.173457
v 0.150359 1.643636 -0.030341
v -0.226238 0.552972 -0.052493
v -0.139033 0.552933 0.215896
v 0.230372 0.552998 -0.052493
v 0.002067 0.553014 -0.218366
v 0.143167 0.552947 0.215896
v -0.044321 1.129142 -1.932487
v -1.336792 1.002786 -1.176721
v -1.765355 1.288205 0.223211
v -1.325839 1.074542 1.445574
v -0.035200 1.176467 2.052172
v 1.228564 0.837197 1.439099
v 1.767731 1.005604 0.271351
v 1.217389 0.764022 -1.182466
v -0.036956 2.126821 0.033844
vt 0.3364 0.3677
vt 0.3266 0.3428
vt 0.3440 0.3284
vt 0.3607 0.3382
vt 0.3463 0.3062
vt 0.3709 0.2992
vt 0.3378 0.2641
vt 0.3298 0.2856
vt 0.3056 0.2862
vt 0.2920 0.2553
vt 0.2579 0.2953
vt 0.2846 0.3033
vt 0.2878 0.3304
vt 0.2595 0.3463
vt 0.2964 0.3677
vt 0.3048 0.3465
vt 0.3316 0.2644
vt 0.3667 0.2901
vt 0.3300 0.3076
vt 0.3174 0.2954
vt 0.2613 0.2993
vt 0.2840 0.2677
vt 0.3008 0.2968
vt 0.2883 0.3080
vt 0.2920 0.3635
vt 0.2613 0.3389
vt 0.2912 0.3244
vt 0.3031 0.3359
vt 0.3620 0.3368
vt 0.3309 0.3676
vt 0.3193 0.3350
vt 0.3312 0.3248
vt 0.3289 0.2714
vt 0.3521 0.2940
vt 0.3261 0.3074
vt 0.3179 0.3002
vt 0.2718 0.2952
vt 0.2945 0.2706
vt 0.3071 0.2992
vt 0.3000 0.3078
vt 0.2957 0.3522
vt 0.2707 0.3282
vt 0.2987 0.3191
vt 0.3072 0.3262
vt 0.3521 0.3280
vt 0.3287 0.3518
vt 0.3182 0.3268
vt 0.3247 0.3180
vt 0.3072 0.4563
vt 0.2933 0.4473
vt 0.3132 0.4366
vt 0.3238 0.4563
vt 0.3325 0.4260
vt 0.3327 0.4421
vt 0.3025 0.4171
vt 0.3188 0.4171
vt 0.2936 0.4306
vt 0.2561 0.4188
vt 0.2820 0.3790
vt 0.3302 0.3790
vt 0.3701 0.4050
vt 0.3704 0.4524
vt 0.3441 0.4941
vt 0.2556 0.4679
vt 0.2963 0.4941
vt 0.8112 0.9237
vt 0.8137 0.9805
vt 0.8046 0.9813
vt 0.7970 0.9248
vt 0.8534 0.9272
vt 0.8407 0.9828
vt 0.8318 0.9812
vt 0.8394 0.9248
vt 0.8253 0.9238
vt 0.8228 0.9805
vt 0.7957 0.9828
vt 0.7830 0.9273
vt 0.8435 0.8960
vt 0.8266 0.8949
vt 0.7929 0.8960
vt 0.7763 0.8989
vt 0.8097 0.8949
vt 0.8602 0.8988
vt 0.3223 0.3089
vt 0.3164 0.3040
vt 0.3088 0.3030
vt 0.3039 0.3094
vt 0.3026 0.3175
vt 0.3088 0.3224
vt 0.3166 0.3230
vt 0.3208 0.3164
vt 0.3247 0.3102
vt 0.3147 0.3025
vt 0.3032 0.3021
vt 0.2952 0.3104
vt 0.2964 0.3218
vt 0.3058 0.3292
vt 0.3172 0.3298
vt 0.3245 0.3224
vt 0.3246 0.3380
vt 0.3381 0.3248
vt 0.3395 0.3078
vt 0.3261 0.2924
vt 0.3083 0.2938
vt 0.2943 0.3071
vt 0.2946 0.3264
vt 0.3065 0.3400
vt 0.2957 0.2715
vt 0.3282 0.2715
vt 0.3253 0.2790
vt 0.2984 0.2788
vt 0.3530 0.2978
vt 0.3571 0.3341
vt 0.3495 0.3309
vt 0.3462 0.3008
vt 0.3269 0.3548
vt 0.3245 0.3481
vt 0.2892 0.3541
vt 0.2696 0.3290
vt 0.2768 0.3266
vt 0.2931 0.3473
vt 0.2676 0.2933
vt 0.2752 0.2970
vt 0.3125 0.3149
vn -0.4453 0.5200 -0.7289
vn 0.5088 0.4377 -0.7413
vn 0.7745 0.5014 0.3857
vn -0.3798 0.5311 0.7574
vn -0.8031 0.4648 -0.3728
vn 0.8318 0.4277 -0.3539
vn 0.4636 0.5055 0.7277
vn -0.7805 0.4996 0.3757
vn 0.3966 0.4843 -0.7798
vn 0.8425 0.4452 0.3033
vn -0.2774 0.5029 0.8186
vn -0.8360 0.4120 -0.3626
vn 0.8709 0.4059 -0.2771
vn 0.3801 0.4977 0.7796
vn -0.8205 0.4618 0.3369
vn -0.3445 0.4527 -0.8224
vn 0.8416 0.4634 -0.2775
vn 0.4117 0.5421 0.7326
vn -0.6684 0.6723 0.3180
vn -0.2128 0.5909 -0.7782
vn 0.4421 0.5075 -0.7396
vn 0.8207 0.4781 0.3129
vn -0.1894 0.6224 0.7594
vn -0.6871 0.6588 -0.3066
vn -0.3474 0.4085 -0.8440
vn 0.4699 0.0862 -0.8785
vn 0.8860 -0.1205 0.4478
vn -0.3748 0.3644 0.8525
vn -0.7251 0.5426 -0.4241
vn 0.8924 -0.0945 -0.4412
vn 0.4646 0.0316 0.8850
vn -0.7342 0.5182 0.4386
vn -0.6870 0.5387 0.4876
vn 0.5611 0.1518 0.8137
vn 0.8736 0.0710 -0.4814
vn -0.6884 0.5589 -0.4623
vn -0.4007 0.4483 0.7990
vn 0.8611 0.0552 0.5055
vn 0.5595 0.1879 -0.8072
vn -0.3756 0.4757 -0.7954
vn -0.9513 0.0225 0.3075
vn 0.5891 0.0588 -0.8059
vn -0.0003 0.0389 0.9992
vn -0.5887 0.0336 -0.8077
vn 0.9494 0.0587 0.3085
vn -0.5848 0.1003 -0.8049
vn -0.0000 0.0398 0.9992
vn 0.5851 0.0960 -0.8053
vn -0.9490 0.0657 0.3084
vn 0.9496 0.0631 0.3070
vn 0.6694 -0.6650 -0.3310
vn 0.2369 -0.5255 0.8172
vn -0.9331 -0.1227 0.3379
vn -0.4174 -0.3002 -0.8577
vn 0.2037 -0.5099 -0.8358
vn 0.6724 -0.6683 0.3182
vn -0.4597 -0.2908 0.8391
vn -0.9291 -0.1226 -0.3489
vn 0.1175 -0.7384 -0.6641
vn 0.5259 -0.8238 0.2118
vn -0.3557 -0.6720 0.6495
vn -0.7765 -0.5697 -0.2691
vn 0.5220 -0.8171 -0.2447
vn 0.0930 -0.7562 0.6477
vn -0.7898 -0.5792 0.2019
vn -0.3638 -0.6436 -0.6734
vn -0.5629 -0.5235 -0.6396
vn 0.3491 -0.6973 -0.6260
vn 0.5640 -0.7073 0.4261
vn -0.4848 -0.5398 0.6882
vn -0.7967 -0.4633 -0.3881
vn 0.6307 -0.7148 -0.3021
vn 0.3178 -0.6714 0.6694
vn -0.7588 -0.4829 0.4370
vn -0.8493 -0.4794 0.2209
vn -0.3874 -0.5342 -0.7513
vn 0.2900 -0.5725 -0.7669
vn 0.7683 -0.5805 0.2698
vn -0.3218 -0.5436 0.7752
vn -0.8674 -0.4679 -0.1694
vn 0.7987 -0.5650 -0.2071
vn 0.2271 -0.5742 0.7866
vn -0.5291 -0.7817 0.3302
vn -0.4099 -0.8254 -0.3883
vn 0.3912 -0.8724 -0.2931
vn 0.3314 -0.8419 0.4259
vn -0.4667 -0.7880 0.4016
vn -0.4655 -0.8199 -0.3332
vn 0.2622 -0.8730 -0.4113
vn 0.4425 -0.8425 0.3072
s off
f 2/1/1 10/2/1 9/3/1 1/4/1
f 1/4/2 9/3/2 16/5/2 8/6/2
f 7/7/3 15/8/3 14/9/3 6/10/3
f 5/11/4 13/12/4 12/13/4 4/14/4
f 3/15/5 11/16/5 10/2/5 2/1/5
f 8/6/6 16/5/6 15/8/6 7/7/6
f 6/10/7 14/9/7 13/12/7 5/11/7
f 4/14/8 12/13/8 11/16/8 3/15/8
f 24/17/9 17/18/9 25/19/9 32/20/9
f 22/21/10 23/22/10 31/23/10 30/24/10
f 20/25/11 21/26/11 29/27/11 28/28/11
f 18/29/12 19/30/12 27/31/12 26/32/12
f 23/22/13 24/17/13 32/20/13 31/23/13
f 21/26/14 22/21/14 30/24/14 29/27/14
f 19/30/15 20/25/15 28/28/15 27/31/15
f 17/18/16 18/29/16 26/32/16 25/19/16
f 39/33/17 40/34/17 48/35/17 47/36/17
f 37/37/18 38/38/18 46/39/18 45/40/18
f 35/41/19 36/42/19 44/43/19 43/44/19
f 33/45/20 34/46/20 42/47/20 41/48/20
f 40/34/21 33/45/21 41/48/21 48/35/21
f 38/38/22 39/33/22 47/36/22 46/39/22
f 36/42/23 37/37/23 45/40/23 44/43/23
f 34/46/24 35/41/24 43/44/24 42/47/24
f 59/49/25 58/50/25 57/51/25
f 60/52/26 59/49/26 57/51/26
f 62/53/27 61/54/27 57/51/27
f 64/55/28 63/56/28 57/51/28
f 58/50/29 65/57/29 57/51/29
f 61/54/30 60/52/30 57/51/30
f 63/56/31 62/53/31 57/51/31
f 65/57/32 64/55/32 57/51/32
f 51/58/33 52/59/33 64/55/33 65/57/33
f 53/60/34 54/61/34 62/53/34 63/56/34
f 55/62/35 56/63/35 60/52/35 61/54/35
f 50/64/36 51/58/36 65/57/36 58/50/36
f 52/59/37 53/60/37 63/56/37 64/55/37
f 54/61/38 55/62/38 61/54/38 62/53/38
f 56/63/39 49/65/39 59/49/39 60/52/39
f 49/65/40 50/64/40 58/50/40 59/49/40
f 77/66/41 73/67/41 72/68/41 76/69/41
f 79/70/42 71/71/42 75/72/42 78/73/42
f 80/74/43 74/75/43 73/67/43 77/66/43
f 76/69/44 72/68/44 71/76/44 79/77/44
f 70/78/45 78/73/45 80/74/45 69/79/45
f 67/80/46 76/69/46 79/77/46 66/81/46
f 69/79/47 80/74/47 77/66/47 68/82/47
f 66/83/48 79/70/48 78/73/48 70/78/48
f 68/82/49 77/66/49 76/69/49 67/80/49
f 78/73/50 75/72/50 74/75/50 80/74/50
f 56/84/51 55/85/51 47/36/51 48/35/51
f 54/86/52 53/87/52 45/40/52 46/39/52
f 52/88/53 51/89/53 43/44/53 44/43/53
f 50/90/54 49/91/54 41/48/54 42/47/54
f 49/91/55 56/84/55 48/35/55 41/48/55
f 55/85/56 54/86/56 46/39/56 47/36/56
f 53/87/57 52/88/57 44/43/57 45/40/57
f 51/89/58 50/90/58 42/47/58 43/44/58
f 33/92/59 40/93/59 32/20/59 25/19/59
f 39/94/60 38/95/60 30/24/60 31/23/60
f 37/96/61 36/97/61 28/28/61 29/27/61
f 35/98/62 34/99/62 26/32/62 27/31/62
f 40/93/63 39/94/63 31/23/63 32/20/63
f 38/95/64 37/96/64 29/27/64 30/24/64
f 36/97/65 35/98/65 27/31/65 28/28/65
f 34/99/66 33/92/66 25/19/66 26/32/66
f 18/100/67 17/101/67 9/3/67 10/2/67
f 17/101/68 24/102/68 16/5/68 9/3/68
f 23/103/69 22/104/69 14/9/69 15/8/69
f 21/105/70 20/106/70 12/13/70 13/12/70
f 19/107/71 18/100/71 10/2/71 11/16/71
f 24/102/72 23/103/72 15/8/72 16/5/72
f 22/104/73 21/105/73 13/12/73 14/9/73
f 20/106/74 19/107/74 11/16/74 12/13/74
f 4/108/75 3/109/75 83/110/75 84/111/75
f 2/112/76 1/113/76 81/114/76 82/115/76
f 1/113/77 8/116/77 88/117/77 81/114/77
f 7/118/78 6/119/78 86/120/78 87/121/78
f 5/122/79 4/108/79 84/111/79 85/123/79
f 3/109/80 2/112/80 82/115/80 83/110/80
f 8/116/81 7/118/81 87/121/81 88/117/81
f 6/119/82 5/122/82 85/123/82 86/120/82
f 88/117/83 87/121/83 89/124/83
f 86/120/84 85/123/84 89/124/84
f 84/111/85 83/110/85 89/124/85
f 82/115/86 81/114/86 89/124/86
f 81/114/87 88/117/87 89/124/87
f 87/121/88 86/120/88 89/124/88
f 85/123/89 84/111/89 89/124/89
f 83/110/90 82/115/90 89/124/90
