# Blender v2.78 (sub 0) OBJ File: 'Low_Poly_Trees_Pack.blend'
# www.blender.org
g Dead_Pine_Tree_OneSided_l_05
v -0.436738 6.035220 -0.842097
v -0.427651 6.055509 -0.826344
v -0.452156 6.044279 -0.821328
v -0.039246 5.640220 -0.150273
v -0.025286 5.711458 -0.125748
v -0.087916 5.674311 -0.101897
v -0.021900 7.677091 0.022505
v -0.068002 7.713362 -0.017275
v -0.085039 7.648941 0.006871
v -0.290535 7.889258 0.478022
v -0.314022 7.907069 0.455572
v -0.324406 7.875662 0.471739
v -0.264801 0.000000 0.209536
v 0.122314 0.000000 0.293020
v 0.319261 0.000000 -0.056813
v 0.039924 0.000000 -0.363852
v -0.298749 0.000000 -0.177387
v -0.176411 10.494678 -0.035622
v -0.059133 10.494678 -0.010465
v 0.001035 10.494678 -0.114229
v -0.079059 10.494678 -0.203516
v -0.188726 10.494678 -0.154935
v -0.039587 18.119371 0.424372
v -0.024160 18.092318 0.424576
v -0.018001 18.067362 0.402725
v -0.030875 18.061893 0.388428
v -0.046024 18.108387 0.400093
v -0.054162 3.419994 -0.300827
v 0.021635 6.970825 -0.203235
v -0.216070 7.025231 -0.128947
v -0.341683 3.461281 -0.170286
v -0.021750 3.440058 0.186631
v 0.012706 6.909972 0.128183
v 0.133551 6.979023 -0.077842
v 0.168872 3.422541 -0.052059
v -0.225627 7.020411 0.067873
v -0.331209 3.351959 0.124479
v -0.145608 13.127392 -0.009994
v -0.175797 15.623129 0.148483
v -0.136398 15.611353 0.126364
v -0.074711 13.081197 -0.037957
v -0.008808 13.074891 0.035851
v -0.100356 15.615745 0.148228
v -0.120129 15.607420 0.205087
v -0.033120 13.082618 0.114839
v -0.132708 13.113662 0.071314
v -0.170626 15.630080 0.187509
v 0.786540 9.244391 -0.283650
v 0.569576 9.267179 -0.717901
v -0.106714 9.897951 -0.074983
v 0.345500 9.588440 -0.193151
v 0.246552 9.598833 -0.391194
v 1.366518 8.850401 -0.423613
v 1.013527 8.887476 -1.130123
v 1.731719 8.455092 -0.550149
v 1.317551 8.498593 -1.379103
v 1.652299 8.564545 -0.850780
v 1.455607 8.484093 -1.102785
v 1.897932 8.243957 -1.163357
v 1.175603 8.904309 -0.136956
v 0.682941 8.949104 -1.150161
v 0.698766 9.289319 -0.509362
v 0.456930 9.472055 -0.378945
v 1.210731 8.902472 -0.785455
v 1.443076 8.726912 -0.910754
v -0.683515 8.469838 -0.781506
v -0.962337 8.491899 -0.412878
v -0.102211 9.042589 -0.085677
v -0.406259 8.773247 -0.431980
v -0.533417 8.783308 -0.263865
v -1.063438 8.126930 -1.230433
v -1.517071 8.162822 -0.630688
v -1.341927 7.772023 -1.501724
v -1.874178 7.814138 -0.798038
v -1.560510 7.879775 -1.303907
v -1.696761 7.800100 -1.032600
v -1.944438 7.594780 -1.392448
v -0.736292 8.161721 -1.186330
v -1.392901 8.205892 -0.338085
v -0.837465 8.513968 -0.610169
v -0.616713 8.672680 -0.452696
v -1.304794 8.177974 -0.943538
v -1.516881 8.025491 -1.094830
v 0.691921 6.335251 1.591333
v 0.579321 6.504014 1.343287
v 0.214009 7.051545 0.538541
v 0.331209 6.875884 0.796721
v 0.982746 6.541062 0.834754
v -0.072225 6.495385 1.263540
v 0.921478 5.864279 2.081617
v 0.887756 6.093106 1.624379
v 0.619118 6.176440 1.803026
v 1.175689 6.107762 1.503644
v 0.311890 6.063792 1.865848
v 0.940610 6.488145 1.168482
v 0.204402 6.450670 1.477185
v 0.239214 7.173671 0.323496
v 0.032847 7.163166 0.410029
v -0.059149 7.460951 -0.063196
v 0.550646 6.852793 0.681398
v 0.098142 6.829760 0.871139
vt 0.8507 0.9092
vt 0.8382 0.9088
vt 0.8381 0.9084
vt 0.8508 0.9081
vt 0.8507 0.9103
vt 0.8380 0.9092
vt 0.8380 0.9264
vt 0.8382 0.9261
vt 0.8384 0.9264
vt 0.8380 0.9080
vt 0.8507 0.9070
vt 0.8380 0.9125
vt 0.8468 0.9122
vt 0.8469 0.9128
vt 0.8382 0.9136
vt 0.8382 0.9103
vt 0.8469 0.9111
vt 0.8468 0.9116
vt 0.8380 0.9114
vt 0.8380 0.9240
vt 0.8383 0.9235
vt 0.8386 0.9240
vt 0.8218 0.8892
vt 0.8204 0.9394
vt 0.8181 0.9394
vt 0.8182 0.8883
vt 0.8314 0.8889
vt 0.8273 0.9398
vt 0.8250 0.9396
vt 0.8281 0.8877
vt 0.8246 0.8892
vt 0.8227 0.9395
vt 0.8158 0.9394
vt 0.8158 0.8884
vt 0.8335 0.9236
vt 0.8347 0.9247
vt 0.8353 0.9597
vt 0.8347 0.9583
vt 0.8369 0.9232
vt 0.8380 0.9251
vt 0.8373 0.9583
vt 0.8366 0.9591
vt 0.8354 0.9253
vt 0.8361 0.9600
vt 0.8315 0.9252
vt 0.8341 0.9585
vt 0.8101 0.8882
vt 0.8064 0.9378
vt 0.8019 0.9363
vt 0.8045 0.8878
vt 0.8027 0.9866
vt 0.7992 0.9880
vt 0.7935 0.8877
vt 0.7932 0.9370
vt 0.7884 0.9371
vt 0.7875 0.8878
vt 0.7929 0.9871
vt 0.7905 0.9872
vt 0.7976 0.9377
vt 0.7990 0.8877
vt 0.7964 0.9880
vt 0.8158 0.8888
vt 0.8107 0.9379
vt 0.8060 0.9878
vt 0.8223 0.9757
vt 0.8208 0.9760
vt 0.8353 0.8883
vt 0.8368 0.8878
vt 0.8185 0.9754
vt 0.8170 0.9754
vt 0.8316 0.8878
vt 0.8330 0.8878
vt 0.8196 0.9761
vt 0.8341 0.8885
vt 0.8235 0.9756
vt 0.8380 0.8877
vt 0.8380 0.9218
vt 0.8385 0.9214
vt 0.8391 0.9228
vt 0.8387 0.9235
vt 0.8380 0.9228
vt 0.8102 0.3459
vt 0.8144 0.3377
vt 0.8186 0.3459
vt 0.8144 0.3666
vt 0.8144 0.3253
vt 0.8235 0.3253
vt 0.8052 0.3253
vt 0.7995 0.2989
vt 0.8144 0.2989
vt 0.7969 0.2787
vt 0.8086 0.2787
vt 0.8293 0.2989
vt 0.8202 0.2787
vt 0.8318 0.2787
vt 0.8144 0.2870
vt 0.8144 0.2606
vt 0.7932 0.3096
vt 0.8356 0.3091
vt 0.6830 0.3459
vt 0.6872 0.3377
vt 0.6914 0.3459
vt 0.6872 0.3666
vt 0.6872 0.3253
vt 0.6963 0.3253
vt 0.6780 0.3253
vt 0.6723 0.2989
vt 0.6872 0.2989
vt 0.6697 0.2787
vt 0.6814 0.2787
vt 0.7021 0.2989
vt 0.6930 0.2787
vt 0.7046 0.2787
vt 0.6872 0.2870
vt 0.6872 0.2606
vt 0.6660 0.3096
vt 0.7084 0.3091
vt 0.8144 0.2989
vt 0.7995 0.2989
vt 0.8086 0.2787
vt 0.8144 0.2870
vt 0.8052 0.3253
vt 0.7932 0.3096
vt 0.8293 0.2989
vt 0.8202 0.2787
vt 0.8318 0.2787
vt 0.8144 0.3253
vt 0.7969 0.2787
vt 0.8102 0.3459
vt 0.8144 0.3377
vt 0.8186 0.3459
vt 0.8144 0.3666
vt 0.8235 0.3253
vt 0.8144 0.2606
vt 0.8356 0.3091
vn -0.2629 0.7975 0.5430
vn 0.8673 0.0007 -0.4978
vn -0.4300 0.6659 -0.6097
vn -0.6199 -0.7797 -0.0880
vn 0.2353 -0.8204 0.5211
vn -0.8775 0.0505 -0.4769
vn 0.6155 0.7881 -0.0034
vn -0.3525 0.5178 0.7795
vn -0.3344 -0.0070 -0.9424
vn 0.8592 0.0373 0.5103
vn -0.9999 0.0112 0.0089
vn 0.7448 0.0212 -0.6670
vn -0.2240 0.0327 0.9741
vn -0.4325 0.1137 -0.8944
vn 0.9436 -0.0653 0.3247
vn -0.9847 0.0349 0.1707
vn 0.5851 0.0628 -0.8086
vn -0.3105 -0.0728 0.9478
vn -0.2072 0.0211 0.9781
vn -0.2174 0.0200 0.9759
vn 0.7414 0.0331 -0.6703
vn 0.7450 0.0025 -0.6670
vn -0.9979 -0.0153 0.0626
vn -0.9994 0.0320 0.0093
vn 0.8350 0.0439 0.5486
vn 0.8187 0.0070 0.5742
vn -0.4517 0.0001 -0.8922
vn -0.3587 0.0284 -0.9330
vn -0.3067 -0.0383 0.9510
vn -0.3911 -0.0473 0.9191
vn 0.7452 0.0414 -0.6655
vn 0.6837 0.0603 -0.7273
vn -0.9921 0.0104 0.1254
vn -0.9889 -0.0215 0.1473
vn 0.9070 -0.0252 0.4203
vn 0.9509 0.0212 0.3087
vn -0.3769 0.0584 -0.9244
vn -0.3901 0.0519 -0.9193
vn 0.7079 0.4485 -0.5457
vn 0.8287 0.4703 -0.3035
vn 0.5134 0.8313 -0.2129
vn 0.4703 0.8157 -0.3367
vn 0.5552 0.8264 -0.0937
vn 0.7413 0.6695 0.0479
vn 0.6547 0.6978 -0.2905
vn 0.5939 0.7971 -0.1087
vn 0.4339 0.7032 -0.5632
vn 0.5845 0.7739 0.2438
vn 0.1851 0.8141 -0.5505
vn 0.5171 0.6884 -0.5086
vn 0.4433 0.8382 -0.3178
vn 0.5857 0.8036 -0.1059
vn -0.3785 0.8617 -0.3379
vn -0.4714 0.8472 -0.2451
vn -0.2903 0.8558 -0.4282
vn -0.2525 0.7048 -0.6629
vn -0.5165 0.7377 -0.4348
vn -0.3222 0.8289 -0.4573
vn -0.6636 0.7390 -0.1162
vn -0.0030 0.7959 -0.6054
vn -0.5375 0.8367 0.1050
vn -0.6519 0.7270 -0.2154
vn -0.4414 0.8677 -0.2284
vn -0.3157 0.8349 -0.4509
vn 0.0582 0.8154 0.5760
vn -0.2925 0.7868 0.5435
vn 0.4637 0.7103 0.5296
vn 0.2366 0.7205 0.6518
vn 0.0455 0.8433 0.5355
vn -0.1065 0.6898 0.7161
vn 0.1671 0.8488 0.5016
vn 0.2765 0.8551 0.4386
vn 0.5236 0.7235 0.4499
vn 0.2938 0.8337 0.4675
vn 0.5264 0.8269 0.1976
vn 0.0558 0.8216 0.5673
s off
f 5/1/1 2/2/1 3/3/1 6/4/1
f 4/5/2 1/6/2 2/2/2 5/1/2
f 2/7/3 1/8/3 3/9/3
f 6/4/4 3/3/4 1/10/4 4/11/4
f 7/12/5 10/13/5 12/14/5 9/15/5
f 9/16/6 12/17/6 11/18/6 8/19/6
f 8/19/7 11/18/7 10/13/7 7/12/7
f 11/20/8 12/21/8 10/22/8
f 30/23/9 22/24/9 21/25/9 29/26/9
f 34/27/10 20/28/10 19/29/10 33/30/10
f 36/31/11 18/32/11 22/24/11 30/23/11
f 29/26/12 21/25/12 20/33/12 34/34/12
f 33/30/13 19/29/13 18/32/13 36/31/13
f 40/35/14 39/36/14 27/37/14 26/38/14
f 44/39/15 43/40/15 25/41/15 24/42/15
f 39/36/16 47/43/16 23/44/16 27/37/16
f 43/45/17 40/35/17 26/38/17 25/46/17
f 47/43/18 44/39/18 24/42/18 23/44/18
f 14/47/19 32/48/19 37/49/19 13/50/19
f 32/48/20 33/51/20 36/52/20 37/49/20
f 16/53/21 28/54/21 35/55/21 15/56/21
f 28/54/22 29/57/22 34/58/22 35/55/22
f 13/50/23 37/49/23 31/59/23 17/60/23
f 37/49/24 36/52/24 30/61/24 31/59/24
f 15/62/25 35/63/25 32/48/25 14/47/25
f 35/63/26 34/64/26 33/51/26 32/48/26
f 17/60/27 31/59/27 28/54/27 16/53/27
f 31/59/28 30/61/28 29/57/28 28/54/28
f 18/32/29 19/29/29 45/65/29 46/66/29
f 46/67/30 45/68/30 44/39/30 47/43/30
f 20/33/31 21/25/31 41/69/31 42/70/31
f 42/71/32 41/72/32 40/35/32 43/45/32
f 22/24/33 18/32/33 46/66/33 38/73/33
f 38/74/34 46/67/34 47/43/34 39/36/34
f 19/29/35 20/28/35 42/75/35 45/65/35
f 45/68/36 42/76/36 43/40/36 44/39/36
f 21/25/37 22/24/37 38/73/37 41/69/37
f 41/72/38 38/74/38 39/36/38 40/35/38
f 25/77/39 26/78/39 27/79/39 23/80/39
f 24/81/40 25/77/40 23/80/40
f 51/82/41 63/83/41 52/84/41 50/85/41
f 62/86/42 49/87/42 52/84/42 63/83/42
f 62/86/43 48/88/43 53/89/43 64/90/43
f 53/89/44 55/91/44 57/92/44
f 54/93/45 58/94/45 56/95/45
f 64/90/46 53/89/46 57/92/46 65/96/46
f 58/94/47 65/96/47 57/92/47 59/97/47
f 53/89/48 48/88/48 60/98/48
f 49/87/49 54/93/49 61/99/49
f 54/93/50 64/90/50 65/96/50 58/94/50
f 49/87/51 62/86/51 64/90/51 54/93/51
f 48/88/52 62/86/52 63/83/52 51/82/52
f 69/100/53 81/101/53 70/102/53 68/103/53
f 80/104/54 67/105/54 70/102/54 81/101/54
f 80/104/55 66/106/55 71/107/55 82/108/55
f 71/107/56 73/109/56 75/110/56
f 72/111/57 76/112/57 74/113/57
f 82/108/58 71/107/58 75/110/58 83/114/58
f 76/112/59 83/114/59 75/110/59 77/115/59
f 71/107/60 66/106/60 78/116/60
f 67/105/61 72/111/61 79/117/61
f 72/111/62 82/108/62 83/114/62 76/112/62
f 67/105/63 80/104/63 82/108/63 72/111/63
f 66/106/64 80/104/64 81/101/64 69/100/64
f 85/118/65 96/119/65 92/120/65 84/121/65
f 96/119/66 101/122/66 89/123/66
f 95/124/67 85/118/67 84/121/67 91/125/67
f 95/124/68 91/125/68 93/126/68
f 87/127/69 101/122/69 96/119/69 85/118/69
f 96/119/70 94/128/70 92/120/70
f 98/129/71 86/130/71 97/131/71 99/132/71
f 100/133/72 87/127/72 85/118/72 95/124/72
f 91/125/73 84/121/73 92/120/73 90/134/73
f 87/127/74 100/133/74 97/131/74 86/130/74
f 100/133/75 95/124/75 88/135/75
f 101/122/76 87/127/76 86/130/76 98/129/76
