# Blender v2.78 (sub 0) OBJ File: 'Low_Poly_Trees_Pack.blend'
# www.blender.org
g Dead_Pine_Tree_crk_OneSided_l_02
v -0.979912 3.614069 -0.507180
v -1.113368 3.621785 -0.062992
v -0.147425 4.092097 -0.023155
v -0.574237 3.870733 -0.258006
v -0.635101 3.874252 -0.055431
v -1.519326 3.332489 -0.816212
v -1.736455 3.345043 -0.093533
v -1.903733 3.017982 -0.994538
v -2.158492 3.032712 -0.146613
v -2.031898 3.121883 -0.726609
v -2.073573 3.027802 -0.429255
v -2.446690 2.868051 -0.692703
v -1.194306 3.343945 -0.886610
v -1.516050 3.356022 0.140347
v -1.061913 3.652888 -0.290282
v -0.787349 3.784755 -0.210080
v -1.643163 3.373727 -0.460069
v -1.906951 3.247035 -0.537123
v -0.781184 5.573308 0.590450
v -0.433926 5.598621 0.917135
v 0.013780 6.123085 0.051708
v -0.383072 5.866263 0.334340
v -0.224703 5.877807 0.483327
v -1.293863 5.246238 0.942020
v -0.728885 5.287424 1.473524
v -1.613361 4.898374 1.210221
v -0.950469 4.946696 1.833839
v -1.432036 5.013645 1.452544
v -1.171433 4.930589 1.625966
v -1.574024 4.737771 1.846851
v -1.210914 5.267622 0.610413
v -0.413716 5.319689 1.377783
v -0.621554 5.620987 0.765960
v -0.430802 5.771736 0.551514
v -1.025373 5.301853 1.219939
v -1.208639 5.157021 1.425968
v 1.004980 4.652275 -0.364658
v 0.757536 4.695380 -0.779502
v 0.068720 5.179499 -0.034879
v 0.539670 4.934936 -0.211927
v 0.426821 4.954594 -0.401119
v 1.609494 4.340368 -0.579927
v 1.206912 4.410499 -1.254863
v 2.002383 4.002581 -0.769447
v 1.530029 4.084866 -1.561355
v 1.891684 4.132518 -1.050652
v 1.687480 4.057438 -1.297385
v 2.145622 3.874424 -1.409305
v 1.434953 4.343838 -0.279021
v 0.871890 4.437613 -1.248649
v 0.897770 4.710032 -0.578167
v 0.648857 4.850984 -0.415051
v 1.424715 4.411637 -0.923482
v 1.663859 4.276217 -1.080196
v 0.133173 7.405227 0.946138
v 0.585380 7.428669 0.797978
v 0.041832 7.943866 -0.013466
v 0.099429 7.692629 0.471937
v 0.305662 7.703320 0.404368
v 0.195713 7.085301 1.566682
v 0.931439 7.123439 1.325631
v 0.277610 6.742420 1.978392
v 1.140843 6.787167 1.695565
v 0.576629 6.856814 1.934269
v 0.853099 6.772251 1.789841
v 0.853909 6.584655 2.250071
v -0.055037 7.104360 1.335233
v 0.998332 7.152221 1.003489
v 0.363258 7.452082 0.889771
v 0.266754 7.599735 0.618584
v 0.567558 7.139503 1.463869
v 0.660275 6.997646 1.724412
v 0.528385 8.990742 -0.874310
v 0.082221 9.013971 -1.027031
v 0.027849 9.524531 -0.060680
v 0.272025 9.275556 -0.479045
v 0.068550 9.286151 -0.548694
v 0.849317 8.673695 -1.402532
v 0.123425 8.711490 -1.651003
v 1.030282 8.333899 -1.777107
v 0.178587 8.378244 -2.068640
v 0.767401 8.447264 -1.920687
v 0.462486 8.363461 -1.971462
v 0.736559 8.177555 -2.336017
v 0.909523 8.692582 -1.069767
v -0.121780 8.740011 -1.436097
v 0.312726 9.037173 -0.967059
v 0.227195 9.183497 -0.694929
v 0.493794 8.727408 -1.543156
v 0.575967 8.586828 -1.804605
v -0.040970 6.547828 -0.957463
v -0.521471 6.560350 -0.757857
v 0.090910 7.279220 -0.007342
v 0.009941 6.931289 -0.489878
v -0.209194 6.936998 -0.398846
v -0.132553 6.105241 -1.575577
v -0.914310 6.125615 -1.250826
v -0.225535 5.667488 -1.963271
v -1.142777 5.691392 -1.582237
v -0.556604 5.774502 -1.903427
v -0.837030 5.683424 -1.709248
v -0.859908 5.412316 -2.179075
v 0.157409 6.179610 -1.352458
v -0.962388 6.199506 -0.900974
v -0.290163 6.589069 -0.881382
v -0.175750 6.796278 -0.618961
v -0.532374 6.150409 -1.436923
v -0.642296 5.951332 -1.689045
v 0.466177 7.304509 0.657189
v 0.457611 7.324904 0.643998
v 0.480010 7.313710 0.637312
v 0.039871 6.987818 0.004350
v 0.028302 7.056941 -0.013932
v 0.084643 7.021028 -0.041895
v -0.053697 8.797942 -0.028469
v -0.009116 8.833703 -0.072962
v -0.014282 8.761580 -0.077154
v -0.451708 8.823485 -0.452727
v -0.426773 8.841643 -0.474686
v -0.432876 8.804866 -0.479765
v -0.011253 4.372740 0.106552
v -0.077043 4.434394 0.022437
v -0.077043 4.311087 0.022437
v -0.412516 4.506170 0.379080
v -0.427838 4.526328 0.338131
v -0.448568 4.486013 0.354345
v -0.812164 4.674993 0.681060
v -0.821347 4.687074 0.656517
v -0.833771 4.662911 0.666235
v 0.057830 5.173169 0.100248
v 0.000568 5.208604 0.126920
v 0.016714 5.142334 0.151284
v 0.361561 5.382714 0.550691
v 0.330374 5.400076 0.563324
v 0.341430 5.367715 0.579014
v -0.051413 5.995215 -0.016613
v -0.005403 6.025744 -0.063485
v -0.029500 5.958424 -0.075026
v -0.631029 6.336658 -0.517374
v -0.611470 6.345658 -0.531803
v -0.626136 6.326434 -0.540669
v -0.063426 0.000000 -0.312824
v -0.299320 0.000000 -0.022170
v -0.088608 0.000000 0.293437
v 0.289666 0.000000 0.189225
v 0.277275 0.000000 -0.176009
v 0.002577 9.920107 -0.162995
v -0.093760 9.920107 -0.044028
v -0.010386 9.920107 0.084356
v 0.137479 9.920107 0.044736
v 0.145490 9.920107 -0.108135
v 0.213060 3.250479 0.215892
v 0.162082 6.589181 0.105134
v 0.201089 6.640608 -0.127020
v 0.225943 3.289505 -0.082310
v -0.211738 3.269444 0.034798
v -0.113494 6.531659 -0.044094
v 0.008521 6.596931 0.145869
v -0.092018 3.252886 0.297552
v 0.039251 6.636053 -0.219229
v -0.027029 3.186168 -0.199510
vt 0.6830 0.3459
vt 0.6872 0.3377
vt 0.6914 0.3459
vt 0.6872 0.3666
vt 0.6872 0.3253
vt 0.6963 0.3253
vt 0.6780 0.3253
vt 0.6723 0.2989
vt 0.6872 0.2989
vt 0.6697 0.2787
vt 0.6814 0.2787
vt 0.7021 0.2989
vt 0.6930 0.2787
vt 0.7046 0.2787
vt 0.6872 0.2870
vt 0.6872 0.2606
vt 0.6660 0.3096
vt 0.7084 0.3091
vt 0.9310 0.3459
vt 0.9351 0.3377
vt 0.9393 0.3459
vt 0.9351 0.3666
vt 0.9351 0.3253
vt 0.9443 0.3253
vt 0.9260 0.3253
vt 0.9203 0.2989
vt 0.9351 0.2989
vt 0.9177 0.2787
vt 0.9293 0.2787
vt 0.9500 0.2989
vt 0.9410 0.2787
vt 0.9526 0.2787
vt 0.9351 0.2870
vt 0.9351 0.2606
vt 0.9139 0.3096
vt 0.9564 0.3091
vt 0.9310 0.3459
vt 0.9351 0.3377
vt 0.9393 0.3459
vt 0.9351 0.3666
vt 0.9351 0.3253
vt 0.9443 0.3253
vt 0.9260 0.3253
vt 0.9203 0.2989
vt 0.9351 0.2989
vt 0.9177 0.2787
vt 0.9293 0.2787
vt 0.9500 0.2989
vt 0.9410 0.2787
vt 0.9526 0.2787
vt 0.9351 0.2870
vt 0.9351 0.2606
vt 0.9139 0.3096
vt 0.9564 0.3091
vt 0.8102 0.3459
vt 0.8144 0.3377
vt 0.8186 0.3459
vt 0.8144 0.3666
vt 0.8144 0.3253
vt 0.8235 0.3253
vt 0.8052 0.3253
vt 0.7995 0.2989
vt 0.8144 0.2989
vt 0.7969 0.2787
vt 0.8086 0.2787
vt 0.8293 0.2989
vt 0.8202 0.2787
vt 0.8318 0.2787
vt 0.8144 0.2870
vt 0.8144 0.2606
vt 0.7932 0.3096
vt 0.8356 0.3091
vt 0.8102 0.3459
vt 0.8144 0.3377
vt 0.8186 0.3459
vt 0.8144 0.3666
vt 0.8144 0.3253
vt 0.8235 0.3253
vt 0.8052 0.3253
vt 0.7995 0.2989
vt 0.8144 0.2989
vt 0.7969 0.2787
vt 0.8086 0.2787
vt 0.8293 0.2989
vt 0.8202 0.2787
vt 0.8318 0.2787
vt 0.8144 0.2870
vt 0.8144 0.2606
vt 0.7932 0.3096
vt 0.8356 0.3091
vt 0.9310 0.3459
vt 0.9351 0.3377
vt 0.9393 0.3459
vt 0.9351 0.3666
vt 0.9351 0.3253
vt 0.9443 0.3253
vt 0.9260 0.3253
vt 0.9203 0.2989
vt 0.9351 0.2989
vt 0.9177 0.2787
vt 0.9293 0.2787
vt 0.9500 0.2989
vt 0.9410 0.2787
vt 0.9526 0.2787
vt 0.9351 0.2870
vt 0.9351 0.2606
vt 0.9139 0.3096
vt 0.9564 0.3091
vt 0.8385 0.9184
vt 0.8266 0.9181
vt 0.8266 0.9177
vt 0.8386 0.9174
vt 0.8385 0.9195
vt 0.8265 0.9184
vt 0.8265 0.9347
vt 0.8267 0.9344
vt 0.8269 0.9347
vt 0.8265 0.9174
vt 0.8385 0.9164
vt 0.8265 0.9215
vt 0.8348 0.9213
vt 0.8349 0.9218
vt 0.8266 0.9226
vt 0.8266 0.9195
vt 0.8349 0.9202
vt 0.8348 0.9208
vt 0.8265 0.9205
vt 0.8265 0.9325
vt 0.8268 0.9320
vt 0.8270 0.9325
vt 0.8265 0.9083
vt 0.8338 0.9078
vt 0.8339 0.9085
vt 0.8265 0.9101
vt 0.8265 0.9048
vt 0.8339 0.9065
vt 0.8337 0.9071
vt 0.8267 0.9066
vt 0.8412 0.9077
vt 0.8413 0.9081
vt 0.8413 0.9069
vt 0.8411 0.9073
vt 0.8269 0.9338
vt 0.8265 0.9340
vt 0.8265 0.9336
vt 0.8349 0.9236
vt 0.8266 0.9239
vt 0.8265 0.9233
vt 0.8348 0.9226
vt 0.8348 0.9257
vt 0.8265 0.9249
vt 0.8266 0.9244
vt 0.8349 0.9247
vt 0.8265 0.9330
vt 0.8265 0.9325
vt 0.8270 0.9328
vt 0.8265 0.9122
vt 0.8385 0.9119
vt 0.8386 0.9122
vt 0.8266 0.9132
vt 0.8266 0.9101
vt 0.8386 0.9111
vt 0.8384 0.9115
vt 0.8266 0.9111
vt 0.8265 0.9344
vt 0.8267 0.9341
vt 0.8269 0.9344
vt 0.8201 0.8920
vt 0.8206 0.9409
vt 0.8183 0.9409
vt 0.8166 0.8913
vt 0.8298 0.8915
vt 0.8275 0.9410
vt 0.8252 0.9410
vt 0.8264 0.8905
vt 0.8229 0.8919
vt 0.8229 0.9409
vt 0.8160 0.9410
vt 0.8143 0.8915
vt 0.8086 0.8910
vt 0.8049 0.9397
vt 0.8005 0.9382
vt 0.8031 0.8906
vt 0.8012 0.9882
vt 0.7977 0.9896
vt 0.7922 0.8905
vt 0.7919 0.9389
vt 0.7871 0.9390
vt 0.7863 0.8906
vt 0.7915 0.9887
vt 0.7891 0.9888
vt 0.7963 0.9396
vt 0.7977 0.8905
vt 0.7949 0.9896
vt 0.8142 0.8916
vt 0.8092 0.9398
vt 0.8044 0.9894
vt 0.8117 0.8174
vt 0.8073 0.8041
vt 0.8186 0.7959
vt 0.8300 0.8041
vt 0.8256 0.8174
vn -0.3967 0.9080 -0.1350
vn -0.4531 0.8913 -0.0167
vn -0.3455 0.9044 -0.2505
vn -0.4031 0.7716 -0.4920
vn -0.5695 0.8009 -0.1850
vn -0.3875 0.8820 -0.2682
vn -0.5981 0.7844 0.1643
vn -0.1422 0.8426 -0.5195
vn -0.3963 0.8555 0.3333
vn -0.6221 0.7800 0.0668
vn -0.4177 0.9085 -0.0103
vn -0.3787 0.8870 -0.2641
vn -0.3532 0.8837 0.3070
vn -0.2715 0.8707 0.4100
vn -0.4336 0.8764 0.2097
vn -0.6668 0.7296 0.1519
vn -0.4680 0.7675 0.4380
vn -0.4667 0.8515 0.2392
vn -0.1674 0.7673 0.6190
vn -0.5800 0.8093 -0.0929
vn 0.0688 0.8547 0.5145
vn -0.2650 0.7572 0.5970
vn -0.2512 0.8897 0.3813
vn -0.4595 0.8570 0.2332
vn 0.4102 0.8994 -0.1512
vn 0.3604 0.8919 -0.2733
vn 0.4606 0.8869 -0.0360
vn 0.6710 0.7375 0.0766
vn 0.5586 0.7905 -0.2510
vn 0.5009 0.8637 -0.0563
vn 0.3199 0.7997 -0.5081
vn 0.5185 0.8038 0.2915
vn 0.0626 0.8811 -0.4688
vn 0.4077 0.7885 -0.4604
vn 0.3326 0.9092 -0.2505
vn 0.4922 0.8689 -0.0523
vn 0.1007 0.8884 0.4479
vn 0.2302 0.8751 0.4256
vn -0.0232 0.8814 0.4718
vn -0.1858 0.7365 0.6504
vn 0.1606 0.7739 0.6126
vn -0.0132 0.8569 0.5152
vn 0.4635 0.7717 0.4355
vn -0.3590 0.8143 0.4560
vn 0.4851 0.8563 0.1772
vn 0.3975 0.7624 0.5107
vn 0.2148 0.8937 0.3939
vn -0.0150 0.8624 0.5060
vn 0.1894 0.8884 -0.4182
vn 0.0726 0.8751 -0.4784
vn 0.3027 0.8814 -0.3627
vn 0.5401 0.7365 -0.4072
vn 0.2408 0.7739 -0.5857
vn 0.3209 0.8569 -0.4033
vn -0.1077 0.7717 -0.6269
vn 0.5613 0.8143 -0.1478
vn -0.2805 0.8563 -0.4336
vn -0.0096 0.7624 -0.6471
vn 0.0658 0.8937 -0.4438
vn 0.3168 0.8624 -0.3948
vn -0.2070 0.8097 -0.5491
vn -0.3329 0.7905 -0.5141
vn -0.0852 0.8082 -0.5827
vn 0.0745 0.6523 -0.7543
vn -0.2699 0.6699 -0.6917
vn -0.0964 0.7775 -0.6215
vn -0.5571 0.6704 -0.4901
vn 0.2552 0.7678 -0.5876
vn -0.5655 0.7878 -0.2441
vn -0.4965 0.6556 -0.5689
vn -0.3167 0.8143 -0.4865
vn -0.0944 0.7843 -0.6132
vn 0.2666 0.8191 -0.5079
vn -0.8381 0.0033 0.5456
vn 0.4905 0.6091 0.6233
vn 0.5901 -0.8073 0.0053
vn -0.3964 -0.8605 0.3199
vn 0.6928 -0.0103 -0.7210
vn -0.3305 0.8718 0.3617
vn -0.7280 0.2109 -0.6523
vn 0.0911 -0.8351 0.5425
vn -0.6654 0.0103 -0.7464
vn 0.4577 0.8504 0.2594
vn 0.0758 -0.8242 0.5612
vn -0.6268 0.0089 -0.7792
vn 0.5140 0.8301 0.2163
vn -0.6596 0.5467 0.5159
vn 0.5849 -0.8109 -0.0169
vn -0.8019 0.0213 0.5971
vn 0.2426 0.8071 -0.5383
vn 0.5512 0.5089 0.6612
vn -0.6305 -0.7440 0.2212
vn 0.5857 -0.0720 -0.8073
vn 0.0137 0.8336 0.5522
vn -0.6168 0.6649 -0.4214
vn 0.9923 0.0128 0.1229
vn -0.8408 0.0051 0.5414
vn 0.4344 0.0164 -0.9006
vn 0.2580 0.0194 0.9659
vn -0.7637 0.0035 -0.6456
vn -0.7776 0.0315 -0.6280
vn -0.7719 0.0096 -0.6357
vn 0.2625 -0.0013 0.9649
vn 0.2584 0.0360 0.9654
vn 0.3887 0.0303 -0.9209
vn 0.4530 -0.0112 -0.8915
vn -0.8682 0.0066 0.4962
vn -0.8832 0.0429 0.4670
vn 0.9998 0.0195 0.0019
vn 0.9949 0.0136 0.0997
vn 0.0000 1.0000 -0.0000
s off
f 4/1/1 16/2/1 5/3/1 3/4/1
f 15/5/2 2/6/2 5/3/2 16/2/2
f 15/5/3 1/7/3 6/8/3 17/9/3
f 6/8/4 8/10/4 10/11/4
f 7/12/5 11/13/5 9/14/5
f 17/9/6 6/8/6 10/11/6 18/15/6
f 11/13/7 18/15/7 10/11/7 12/16/7
f 6/8/8 1/7/8 13/17/8
f 2/6/9 7/12/9 14/18/9
f 7/12/10 17/9/10 18/15/10 11/13/10
f 2/6/11 15/5/11 17/9/11 7/12/11
f 1/7/12 15/5/12 16/2/12 4/1/12
f 22/19/13 34/20/13 23/21/13 21/22/13
f 33/23/14 20/24/14 23/21/14 34/20/14
f 33/23/15 19/25/15 24/26/15 35/27/15
f 24/26/16 26/28/16 28/29/16
f 25/30/17 29/31/17 27/32/17
f 35/27/18 24/26/18 28/29/18 36/33/18
f 29/31/19 36/33/19 28/29/19 30/34/19
f 24/26/20 19/25/20 31/35/20
f 20/24/21 25/30/21 32/36/21
f 25/30/22 35/27/22 36/33/22 29/31/22
f 20/24/23 33/23/23 35/27/23 25/30/23
f 19/25/24 33/23/24 34/20/24 22/19/24
f 40/37/25 52/38/25 41/39/25 39/40/25
f 51/41/26 38/42/26 41/39/26 52/38/26
f 51/41/27 37/43/27 42/44/27 53/45/27
f 42/44/28 44/46/28 46/47/28
f 43/48/29 47/49/29 45/50/29
f 53/45/30 42/44/30 46/47/30 54/51/30
f 47/49/31 54/51/31 46/47/31 48/52/31
f 42/44/32 37/43/32 49/53/32
f 38/42/33 43/48/33 50/54/33
f 43/48/34 53/45/34 54/51/34 47/49/34
f 38/42/35 51/41/35 53/45/35 43/48/35
f 37/43/36 51/41/36 52/38/36 40/37/36
f 58/55/37 70/56/37 59/57/37 57/58/37
f 69/59/38 56/60/38 59/57/38 70/56/38
f 69/59/39 55/61/39 60/62/39 71/63/39
f 60/62/40 62/64/40 64/65/40
f 61/66/41 65/67/41 63/68/41
f 71/63/42 60/62/42 64/65/42 72/69/42
f 65/67/43 72/69/43 64/65/43 66/70/43
f 60/62/44 55/61/44 67/71/44
f 56/60/45 61/66/45 68/72/45
f 61/66/46 71/63/46 72/69/46 65/67/46
f 56/60/47 69/59/47 71/63/47 61/66/47
f 55/61/48 69/59/48 70/56/48 58/55/48
f 76/73/49 88/74/49 77/75/49 75/76/49
f 87/77/50 74/78/50 77/75/50 88/74/50
f 87/77/51 73/79/51 78/80/51 89/81/51
f 78/80/52 80/82/52 82/83/52
f 79/84/53 83/85/53 81/86/53
f 89/81/54 78/80/54 82/83/54 90/87/54
f 83/85/55 90/87/55 82/83/55 84/88/55
f 78/80/56 73/79/56 85/89/56
f 74/78/57 79/84/57 86/90/57
f 79/84/58 89/81/58 90/87/58 83/85/58
f 74/78/59 87/77/59 89/81/59 79/84/59
f 73/79/60 87/77/60 88/74/60 76/73/60
f 94/91/61 106/92/61 95/93/61 93/94/61
f 105/95/62 92/96/62 95/93/62 106/92/62
f 105/95/63 91/97/63 96/98/63 107/99/63
f 96/98/64 98/100/64 100/101/64
f 97/102/65 101/103/65 99/104/65
f 107/99/66 96/98/66 100/101/66 108/105/66
f 101/103/67 108/105/67 100/101/67 102/106/67
f 96/98/68 91/97/68 103/107/68
f 92/96/69 97/102/69 104/108/69
f 97/102/70 107/99/70 108/105/70 101/103/70
f 92/96/71 105/95/71 107/99/71 97/102/71
f 91/97/72 105/95/72 106/92/72 94/91/72
f 113/109/73 110/110/73 111/111/73 114/112/73
f 112/113/74 109/114/74 110/110/74 113/109/74
f 110/115/75 109/116/75 111/117/75
f 114/112/76 111/111/76 109/118/76 112/119/76
f 115/120/77 118/121/77 120/122/77 117/123/77
f 117/124/78 120/125/78 119/126/78 116/127/78
f 116/127/79 119/126/79 118/121/79 115/120/79
f 119/128/80 120/129/80 118/130/80
f 121/131/81 124/132/81 126/133/81 123/134/81
f 123/135/82 126/136/82 125/137/82 122/138/82
f 122/138/83 125/137/83 124/132/83 121/131/83
f 124/132/84 127/139/84 129/140/84 126/133/84
f 126/136/85 129/141/85 128/142/85 125/137/85
f 125/137/86 128/142/86 127/139/86 124/132/86
f 128/143/87 129/144/87 127/145/87
f 130/146/88 133/147/88 135/148/88 132/149/88
f 132/150/89 135/151/89 134/152/89 131/153/89
f 131/153/90 134/152/90 133/147/90 130/146/90
f 134/154/91 135/155/91 133/156/91
f 136/157/92 139/158/92 141/159/92 138/160/92
f 138/161/93 141/162/93 140/163/93 137/164/93
f 137/164/94 140/163/94 139/158/94 136/157/94
f 140/165/95 141/166/95 139/167/95
f 154/168/96 151/169/96 150/170/96 153/171/96
f 158/172/97 149/173/97 148/174/97 157/175/97
f 160/176/98 147/177/98 151/169/98 154/168/98
f 153/171/99 150/170/99 149/178/99 158/179/99
f 157/175/100 148/174/100 147/177/100 160/176/100
f 143/180/101 156/181/101 161/182/101 142/183/101
f 156/181/102 157/184/102 160/185/102 161/182/102
f 145/186/103 152/187/103 159/188/103 144/189/103
f 152/187/104 153/190/104 158/191/104 159/188/104
f 142/183/105 161/182/105 155/192/105 146/193/105
f 161/182/106 160/185/106 154/194/106 155/192/106
f 144/195/107 159/196/107 156/181/107 143/180/107
f 159/196/108 158/197/108 157/184/108 156/181/108
f 146/193/109 155/192/109 152/187/109 145/186/109
f 155/192/110 154/194/110 153/190/110 152/187/110
f 148/198/111 149/199/111 150/200/111 151/201/111
f 147/202/111 148/198/111 151/201/111
