# Blender v2.78 (sub 0) OBJ File: 'Low_Poly_Trees_Pack.blend'
# www.blender.org
g Dead_Pine_Tree_crk_OneSided_l_05
v 0.595644 4.377398 0.740328
v 0.935625 4.410678 0.301549
v -0.075066 5.115792 -0.075719
v 0.276976 4.766654 0.331272
v 0.432027 4.781833 0.131163
v 1.035134 3.932787 1.268056
v 1.588270 3.986934 0.554178
v 1.354450 3.485142 1.580874
v 2.003448 3.548673 0.743275
v 1.622979 3.615773 1.350420
v 1.787116 3.527496 1.022474
v 2.073458 3.256547 1.448004
v 0.643859 3.987737 1.213240
v 1.443996 4.055888 0.203432
v 0.784069 4.432694 0.538154
v 0.526123 4.637787 0.353846
v 1.330137 3.998517 0.928333
v 1.577958 3.801474 1.105407
v -0.961714 6.195369 0.236522
v -0.720653 6.221965 0.665026
v -0.081491 6.875579 -0.017994
v -0.526896 6.552830 0.123595
v -0.416958 6.564958 0.319017
v -1.533607 5.784462 0.406393
v -1.141408 5.827733 1.103554
v -1.888857 5.376519 0.551800
v -1.428687 5.427288 1.369785
v -1.795436 5.488415 0.852303
v -1.582077 5.410364 1.097123
v -2.021768 5.158198 1.180126
v -1.356046 5.843404 0.106808
v -0.807151 5.896701 1.107269
v -0.862363 6.242209 0.460607
v -0.627915 6.432372 0.316912
v -1.358687 5.839640 0.764806
v -1.583933 5.656942 0.902861
v 0.219397 8.416563 0.837597
v 0.649451 8.439596 0.601342
v -0.026569 9.077178 -0.056390
v 0.110608 8.764325 0.395701
v 0.306736 8.774831 0.287956
v 0.383623 8.018318 1.417875
v 1.083304 8.055795 1.033497
v 0.525822 7.618742 1.781751
v 1.346764 7.662713 1.330757
v 0.826337 7.729376 1.689685
v 1.073117 7.648056 1.481089
v 1.151729 7.405328 1.925461
v 0.086566 8.072809 1.236344
v 1.090514 8.118088 0.698807
v 0.443913 8.461976 0.740047
v 0.302656 8.646685 0.500926
v 0.742953 8.070952 1.246264
v 0.878666 7.893496 1.476000
v -0.828013 8.843160 -0.558547
v -0.970005 8.874620 -0.115294
v 0.000658 9.349809 -0.083566
v -0.424427 9.114585 -0.314997
v -0.489184 9.128934 -0.112848
v -1.365030 8.543399 -0.863211
v -1.596046 8.594584 -0.142052
v -1.748484 8.217698 -1.032148
v -2.019537 8.277757 -0.186006
v -1.882045 8.336308 -0.770940
v -1.929186 8.257738 -0.468053
v -2.299768 8.082895 -0.730561
v -1.036975 8.551380 -0.928809
v -1.378528 8.618320 0.096065
v -0.914269 8.893709 -0.344280
v -0.639573 9.030647 -0.266004
v -1.495799 8.603811 -0.509991
v -1.759713 8.472247 -0.585196
v 0.660996 10.545414 -0.246124
v 0.495642 10.562359 -0.584697
v -0.097381 10.941134 -0.066026
v 0.284378 10.757828 -0.165834
v 0.208967 10.765556 -0.320243
v 1.150194 10.311996 -0.365007
v 0.881168 10.339565 -0.915852
v 1.474320 10.054075 -0.476976
v 1.158670 10.086422 -1.123287
v 1.404234 10.145178 -0.705551
v 1.263887 10.075640 -0.907851
v 1.630112 9.941522 -0.959741
v 0.995131 10.318237 -0.143373
v 0.620643 10.352789 -0.933543
v 0.590726 10.582253 -0.420050
v 0.384130 10.690003 -0.313759
v 1.028089 10.354149 -0.645069
v 1.226577 10.250627 -0.747189
v -0.622302 12.124329 0.392853
v -0.352691 12.155660 0.631177
v -0.085304 12.626916 -0.006987
v -0.354322 12.388601 0.203842
v -0.231363 12.402890 0.312531
v -0.970645 11.820645 0.655233
v -0.531996 11.871614 1.042976
v -1.174821 11.520909 0.848435
v -0.660151 11.580714 1.303378
v -1.039746 11.610442 1.032204
v -0.831708 11.560779 1.151730
v -1.112065 11.373007 1.319402
v -0.920677 11.859269 0.403937
v -0.300694 11.925817 0.963873
v -0.500381 12.164577 0.523360
v -0.375759 12.303390 0.364129
v -0.764205 11.870710 0.860449
v -0.883936 11.737349 1.013430
v 0.310146 3.939024 -1.004303
v -0.177811 3.965256 -1.064667
v -0.013808 4.578011 -0.116041
v 0.139697 4.276375 -0.572169
v -0.082839 4.288337 -0.599699
v 0.516803 3.554966 -1.582709
v -0.277086 3.597643 -1.680919
v 0.614101 3.164720 -1.972586
v -0.317376 3.214792 -2.087817
v 0.316345 3.279274 -2.071427
v -0.006883 3.198101 -2.049407
v 0.189838 2.965483 -2.462922
v 0.651386 3.600310 -1.259314
v -0.479534 3.653320 -1.411822
v 0.070665 3.986703 -1.055827
v 0.045304 4.164236 -0.773667
v 0.124356 3.610868 -1.653156
v 0.148723 3.440303 -1.924242
v -0.436738 6.035220 -0.842097
v -0.427651 6.055509 -0.826344
v -0.452156 6.044279 -0.821328
v -0.039246 5.640220 -0.150273
v -0.025286 5.711458 -0.125748
v -0.087916 5.674311 -0.101897
v -0.021900 7.677091 0.022505
v -0.068002 7.713362 -0.017275
v -0.085039 7.648941 0.006871
v -0.290535 7.889258 0.478022
v -0.314022 7.907069 0.455572
v -0.324406 7.875662 0.471739
v -0.264801 0.000000 0.209536
v 0.122314 0.000000 0.293020
v 0.319261 0.000000 -0.056813
v 0.039924 0.000000 -0.363852
v -0.298749 0.000000 -0.177387
v -0.176411 10.494678 -0.035622
v -0.059133 10.494678 -0.010465
v 0.001035 10.494678 -0.114229
v -0.079059 10.494678 -0.203516
v -0.188726 10.494678 -0.154935
v -0.054162 3.419994 -0.300827
v 0.021635 6.970825 -0.203235
v -0.216070 7.025231 -0.128947
v -0.341683 3.461281 -0.170286
v -0.021750 3.440058 0.186631
v 0.012706 6.909972 0.128183
v 0.133551 6.979023 -0.077842
v 0.168872 3.422541 -0.052059
v -0.225627 7.020411 0.067873
v -0.331209 3.351959 0.124479
v -0.145608 13.127392 -0.009994
v -0.074711 13.081197 -0.037957
v -0.008808 13.074891 0.035851
v -0.033120 13.082618 0.114839
v -0.132708 13.113662 0.071314
vt 0.6830 0.3459
vt 0.6872 0.3377
vt 0.6914 0.3459
vt 0.6872 0.3666
vt 0.6872 0.3253
vt 0.6963 0.3253
vt 0.6780 0.3253
vt 0.6723 0.2989
vt 0.6872 0.2989
vt 0.6697 0.2787
vt 0.6814 0.2787
vt 0.7021 0.2989
vt 0.6930 0.2787
vt 0.7046 0.2787
vt 0.6872 0.2870
vt 0.6872 0.2606
vt 0.6660 0.3096
vt 0.7084 0.3091
vt 0.9310 0.3459
vt 0.9351 0.3377
vt 0.9393 0.3459
vt 0.9351 0.3666
vt 0.9351 0.3253
vt 0.9443 0.3253
vt 0.9260 0.3253
vt 0.9203 0.2989
vt 0.9351 0.2989
vt 0.9177 0.2787
vt 0.9293 0.2787
vt 0.9500 0.2989
vt 0.9410 0.2787
vt 0.9526 0.2787
vt 0.9351 0.2870
vt 0.9351 0.2606
vt 0.9139 0.3096
vt 0.9564 0.3091
vt 0.8102 0.3459
vt 0.8144 0.3377
vt 0.8186 0.3459
vt 0.8144 0.3666
vt 0.8144 0.3253
vt 0.8235 0.3253
vt 0.8052 0.3253
vt 0.7995 0.2989
vt 0.8144 0.2989
vt 0.7969 0.2787
vt 0.8086 0.2787
vt 0.8293 0.2989
vt 0.8202 0.2787
vt 0.8318 0.2787
vt 0.8144 0.2870
vt 0.8144 0.2606
vt 0.7932 0.3096
vt 0.8356 0.3091
vt 0.6830 0.3459
vt 0.6872 0.3377
vt 0.6914 0.3459
vt 0.6872 0.3666
vt 0.6872 0.3253
vt 0.6963 0.3253
vt 0.6780 0.3253
vt 0.6723 0.2989
vt 0.6872 0.2989
vt 0.6697 0.2787
vt 0.6814 0.2787
vt 0.7021 0.2989
vt 0.6930 0.2787
vt 0.7046 0.2787
vt 0.6872 0.2870
vt 0.6872 0.2606
vt 0.6660 0.3096
vt 0.7084 0.3091
vt 0.8102 0.3459
vt 0.8144 0.3377
vt 0.8186 0.3459
vt 0.8144 0.3666
vt 0.8144 0.3253
vt 0.8235 0.3253
vt 0.8052 0.3253
vt 0.7995 0.2989
vt 0.8144 0.2989
vt 0.7969 0.2787
vt 0.8086 0.2787
vt 0.8293 0.2989
vt 0.8202 0.2787
vt 0.8318 0.2787
vt 0.8144 0.2870
vt 0.8144 0.2606
vt 0.7932 0.3096
vt 0.8356 0.3091
vt 0.6830 0.3459
vt 0.6872 0.3377
vt 0.6914 0.3459
vt 0.6872 0.3666
vt 0.6872 0.3253
vt 0.6963 0.3253
vt 0.6780 0.3253
vt 0.6723 0.2989
vt 0.6872 0.2989
vt 0.6697 0.2787
vt 0.6814 0.2787
vt 0.7021 0.2989
vt 0.6930 0.2787
vt 0.7046 0.2787
vt 0.6872 0.2870
vt 0.6872 0.2606
vt 0.6660 0.3096
vt 0.7084 0.3091
vt 0.9310 0.3459
vt 0.9351 0.3377
vt 0.9393 0.3459
vt 0.9351 0.3666
vt 0.9351 0.3253
vt 0.9443 0.3253
vt 0.9260 0.3253
vt 0.9203 0.2989
vt 0.9351 0.2989
vt 0.9177 0.2787
vt 0.9293 0.2787
vt 0.9500 0.2989
vt 0.9410 0.2787
vt 0.9526 0.2787
vt 0.9351 0.2870
vt 0.9351 0.2606
vt 0.9139 0.3096
vt 0.9564 0.3091
vt 0.9831 0.9086
vt 0.9703 0.9082
vt 0.9703 0.9078
vt 0.9832 0.9075
vt 0.9831 0.9097
vt 0.9702 0.9086
vt 0.9702 0.9262
vt 0.9704 0.9259
vt 0.9706 0.9262
vt 0.9702 0.9074
vt 0.9831 0.9063
vt 0.9702 0.9120
vt 0.9792 0.9117
vt 0.9793 0.9123
vt 0.9703 0.9131
vt 0.9703 0.9097
vt 0.9793 0.9105
vt 0.9791 0.9111
vt 0.9702 0.9108
vt 0.9702 0.9238
vt 0.9705 0.9233
vt 0.9708 0.9238
vt 0.9535 0.8881
vt 0.9522 0.9395
vt 0.9498 0.9395
vt 0.9499 0.8872
vt 0.9634 0.8879
vt 0.9592 0.9399
vt 0.9569 0.9398
vt 0.9600 0.8866
vt 0.9564 0.8881
vt 0.9545 0.9396
vt 0.9474 0.9395
vt 0.9474 0.8873
vt 0.9416 0.8871
vt 0.9377 0.9379
vt 0.9332 0.9363
vt 0.9358 0.8867
vt 0.9340 0.9879
vt 0.9304 0.9894
vt 0.9245 0.8866
vt 0.9242 0.9371
vt 0.9193 0.9372
vt 0.9184 0.8867
vt 0.9239 0.9884
vt 0.9215 0.9885
vt 0.9288 0.9378
vt 0.9302 0.8866
vt 0.9275 0.9893
vt 0.9474 0.8877
vt 0.9422 0.9380
vt 0.9374 0.9892
vt 0.9541 0.9767
vt 0.9525 0.9770
vt 0.8151 0.8365
vt 0.8499 0.8029
vt 0.8466 0.8365
vt 0.9501 0.9765
vt 0.9487 0.9764
vt 0.7900 0.8018
vt 0.9513 0.9772
vt 0.9553 0.9767
vt 0.8168 0.7853
vn 0.3994 0.8375 0.3730
vn 0.4927 0.8238 0.2805
vn 0.3102 0.8307 0.4623
vn 0.2658 0.6724 0.6908
vn 0.5329 0.7060 0.4664
vn 0.3410 0.8019 0.4906
vn 0.6830 0.7150 0.1494
vn 0.0196 0.7726 0.6346
vn 0.5619 0.8243 -0.0691
vn 0.6701 0.6997 0.2479
vn 0.4635 0.8457 0.2644
vn 0.3347 0.8083 0.4844
vn -0.5182 0.8207 0.2406
vn -0.4687 0.8057 0.3621
vn -0.5659 0.8152 0.1237
vn -0.7557 0.6549 -0.0089
vn -0.6529 0.6843 0.3248
vn -0.6032 0.7851 0.1405
vn -0.4188 0.6935 0.5861
vn -0.6110 0.7627 -0.2121
vn -0.1732 0.8093 0.5613
vn -0.5043 0.6772 0.5358
vn -0.4431 0.8287 0.3419
vn -0.5952 0.7918 0.1373
vn 0.2327 0.8313 0.5047
vn 0.3548 0.8157 0.4568
vn 0.1153 0.8264 0.5512
vn -0.0190 0.6695 0.7426
vn 0.3158 0.6978 0.6429
vn 0.1318 0.7971 0.5893
vn 0.5797 0.7032 0.4116
vn -0.2208 0.7739 0.5936
vn 0.5573 0.8141 0.1635
vn 0.5284 0.6884 0.4969
vn 0.3348 0.8382 0.4306
vn 0.1286 0.8036 0.5811
vn -0.3941 0.8992 -0.1901
vn -0.4526 0.8888 -0.0721
vn -0.3409 0.8895 -0.3043
vn -0.3943 0.7440 -0.5394
vn -0.5660 0.7895 -0.2374
vn -0.3826 0.8661 -0.3215
vn -0.6008 0.7916 0.1118
vn -0.1330 0.8136 -0.5661
vn -0.4019 0.8717 0.2803
vn -0.6231 0.7820 0.0142
vn -0.4173 0.9064 -0.0660
vn -0.3739 0.8714 -0.3176
vn 0.3963 0.9061 -0.1482
vn 0.3572 0.8930 -0.2737
vn 0.4371 0.8990 -0.0288
vn 0.6413 0.7599 0.1062
vn 0.5556 0.7986 -0.2314
vn 0.4796 0.8763 -0.0449
vn 0.3393 0.7920 -0.5076
vn 0.4695 0.8285 0.3051
vn 0.0775 0.8666 -0.4929
vn 0.4231 0.7851 -0.4524
vn 0.3271 0.9102 -0.2539
vn 0.4705 0.8814 -0.0418
vn -0.4297 0.8198 0.3784
vn -0.3428 0.8092 0.4772
vn -0.5129 0.8102 0.2838
vn -0.7319 0.6433 0.2246
vn -0.5261 0.6841 0.5052
vn -0.5420 0.7801 0.3126
vn -0.2197 0.7044 0.6750
vn -0.6644 0.7472 -0.0173
vn 0.0015 0.8229 0.5682
vn -0.3165 0.6853 0.6559
vn -0.3258 0.8319 0.4492
vn -0.5357 0.7867 0.3067
vn 0.1101 0.8457 -0.5222
vn -0.0169 0.8314 -0.5555
vn 0.2324 0.8395 -0.4911
vn 0.4530 0.6841 -0.5717
vn 0.1234 0.7166 -0.6865
vn 0.2413 0.8113 -0.5324
vn -0.2259 0.7222 -0.6538
vn 0.5293 0.7817 -0.3299
vn -0.3530 0.8275 -0.4367
vn -0.1344 0.7082 -0.6931
vn -0.0161 0.8529 -0.5219
vn 0.2391 0.8176 -0.5238
vn -0.2629 0.7975 0.5430
vn 0.8673 0.0007 -0.4978
vn -0.4300 0.6659 -0.6097
vn -0.6199 -0.7797 -0.0880
vn 0.2353 -0.8204 0.5211
vn -0.8775 0.0505 -0.4769
vn 0.6155 0.7881 -0.0034
vn -0.3525 0.5178 0.7795
vn -0.3344 -0.0070 -0.9424
vn 0.8592 0.0373 0.5103
vn -0.9999 0.0112 0.0089
vn 0.7448 0.0212 -0.6670
vn -0.2240 0.0327 0.9741
vn -0.2072 0.0211 0.9781
vn -0.2174 0.0200 0.9759
vn 0.7414 0.0331 -0.6703
vn 0.7450 0.0025 -0.6670
vn -0.9979 -0.0153 0.0626
vn -0.9994 0.0320 0.0093
vn 0.8350 0.0439 0.5486
vn 0.8187 0.0070 0.5742
vn -0.4517 0.0001 -0.8922
vn -0.3587 0.0284 -0.9330
vn -0.3067 -0.0383 0.9510
vn 0.5592 0.8274 0.0510
vn 0.7452 0.0414 -0.6655
vn 0.3357 0.9366 -0.1001
vn -0.9921 0.0104 0.1254
vn 0.9070 -0.0252 0.4203
vn 0.1507 0.9873 -0.0502
vn -0.3769 0.0584 -0.9244
s off
f 4/1/1 16/2/1 5/3/1 3/4/1
f 15/5/2 2/6/2 5/3/2 16/2/2
f 15/5/3 1/7/3 6/8/3 17/9/3
f 6/8/4 8/10/4 10/11/4
f 7/12/5 11/13/5 9/14/5
f 17/9/6 6/8/6 10/11/6 18/15/6
f 11/13/7 18/15/7 10/11/7 12/16/7
f 6/8/8 1/7/8 13/17/8
f 2/6/9 7/12/9 14/18/9
f 7/12/10 17/9/10 18/15/10 11/13/10
f 2/6/11 15/5/11 17/9/11 7/12/11
f 1/7/12 15/5/12 16/2/12 4/1/12
f 22/19/13 34/20/13 23/21/13 21/22/13
f 33/23/14 20/24/14 23/21/14 34/20/14
f 33/23/15 19/25/15 24/26/15 35/27/15
f 24/26/16 26/28/16 28/29/16
f 25/30/17 29/31/17 27/32/17
f 35/27/18 24/26/18 28/29/18 36/33/18
f 29/31/19 36/33/19 28/29/19 30/34/19
f 24/26/20 19/25/20 31/35/20
f 20/24/21 25/30/21 32/36/21
f 25/30/22 35/27/22 36/33/22 29/31/22
f 20/24/23 33/23/23 35/27/23 25/30/23
f 19/25/24 33/23/24 34/20/24 22/19/24
f 40/37/25 52/38/25 41/39/25 39/40/25
f 51/41/26 38/42/26 41/39/26 52/38/26
f 51/41/27 37/43/27 42/44/27 53/45/27
f 42/44/28 44/46/28 46/47/28
f 43/48/29 47/49/29 45/50/29
f 53/45/30 42/44/30 46/47/30 54/51/30
f 47/49/31 54/51/31 46/47/31 48/52/31
f 42/44/32 37/43/32 49/53/32
f 38/42/33 43/48/33 50/54/33
f 43/48/34 53/45/34 54/51/34 47/49/34
f 38/42/35 51/41/35 53/45/35 43/48/35
f 37/43/36 51/41/36 52/38/36 40/37/36
f 58/55/37 70/56/37 59/57/37 57/58/37
f 69/59/38 56/60/38 59/57/38 70/56/38
f 69/59/39 55/61/39 60/62/39 71/63/39
f 60/62/40 62/64/40 64/65/40
f 61/66/41 65/67/41 63/68/41
f 71/63/42 60/62/42 64/65/42 72/69/42
f 65/67/43 72/69/43 64/65/43 66/70/43
f 60/62/44 55/61/44 67/71/44
f 56/60/45 61/66/45 68/72/45
f 61/66/46 71/63/46 72/69/46 65/67/46
f 56/60/47 69/59/47 71/63/47 61/66/47
f 55/61/48 69/59/48 70/56/48 58/55/48
f 76/73/49 88/74/49 77/75/49 75/76/49
f 87/77/50 74/78/50 77/75/50 88/74/50
f 87/77/51 73/79/51 78/80/51 89/81/51
f 78/80/52 80/82/52 82/83/52
f 79/84/53 83/85/53 81/86/53
f 89/81/54 78/80/54 82/83/54 90/87/54
f 83/85/55 90/87/55 82/83/55 84/88/55
f 78/80/56 73/79/56 85/89/56
f 74/78/57 79/84/57 86/90/57
f 79/84/58 89/81/58 90/87/58 83/85/58
f 74/78/59 87/77/59 89/81/59 79/84/59
f 73/79/60 87/77/60 88/74/60 76/73/60
f 94/91/61 106/92/61 95/93/61 93/94/61
f 105/95/62 92/96/62 95/93/62 106/92/62
f 105/95/63 91/97/63 96/98/63 107/99/63
f 96/98/64 98/100/64 100/101/64
f 97/102/65 101/103/65 99/104/65
f 107/99/66 96/98/66 100/101/66 108/105/66
f 101/103/67 108/105/67 100/101/67 102/106/67
f 96/98/68 91/97/68 103/107/68
f 92/96/69 97/102/69 104/108/69
f 97/102/70 107/99/70 108/105/70 101/103/70
f 92/96/71 105/95/71 107/99/71 97/102/71
f 91/97/72 105/95/72 106/92/72 94/91/72
f 112/109/73 124/110/73 113/111/73 111/112/73
f 123/113/74 110/114/74 113/111/74 124/110/74
f 123/113/75 109/115/75 114/116/75 125/117/75
f 114/116/76 116/118/76 118/119/76
f 115/120/77 119/121/77 117/122/77
f 125/117/78 114/116/78 118/119/78 126/123/78
f 119/121/79 126/123/79 118/119/79 120/124/79
f 114/116/80 109/115/80 121/125/80
f 110/114/81 115/120/81 122/126/81
f 115/120/82 125/117/82 126/123/82 119/121/82
f 110/114/83 123/113/83 125/117/83 115/120/83
f 109/115/84 123/113/84 124/110/84 112/109/84
f 131/127/85 128/128/85 129/129/85 132/130/85
f 130/131/86 127/132/86 128/128/86 131/127/86
f 128/133/87 127/134/87 129/135/87
f 132/130/88 129/129/88 127/136/88 130/137/88
f 133/138/89 136/139/89 138/140/89 135/141/89
f 135/142/90 138/143/90 137/144/90 134/145/90
f 134/145/91 137/144/91 136/139/91 133/138/91
f 137/146/92 138/147/92 136/148/92
f 151/149/93 148/150/93 147/151/93 150/152/93
f 155/153/94 146/154/94 145/155/94 154/156/94
f 157/157/95 144/158/95 148/150/95 151/149/95
f 150/152/96 147/151/96 146/159/96 155/160/96
f 154/156/97 145/155/97 144/158/97 157/157/97
f 140/161/98 153/162/98 158/163/98 139/164/98
f 153/162/99 154/165/99 157/166/99 158/163/99
f 142/167/100 149/168/100 156/169/100 141/170/100
f 149/168/101 150/171/101 155/172/101 156/169/101
f 139/164/102 158/163/102 152/173/102 143/174/102
f 158/163/103 157/166/103 151/175/103 152/173/103
f 141/176/104 156/177/104 153/162/104 140/161/104
f 156/177/105 155/178/105 154/165/105 153/162/105
f 143/174/106 152/173/106 149/168/106 142/167/106
f 152/173/107 151/175/107 150/171/107 149/168/107
f 144/158/108 145/155/108 162/179/108 163/180/108
f 163/181/109 160/182/109 159/183/109
f 146/159/110 147/151/110 160/184/110 161/185/110
f 163/181/111 162/186/111 160/182/111
f 148/150/112 144/158/112 163/180/112 159/187/112
f 145/155/113 146/154/113 161/188/113 162/179/113
f 162/186/114 161/189/114 160/182/114
f 147/151/115 148/150/115 159/187/115 160/184/115
