# Blender v2.78 (sub 0) OBJ File: 'Low_Poly_Trees_Pack.blend'
# www.blender.org
g Pine_Tree_OneSided_s_08
v -0.017761 -0.000000 -0.059212
v -0.050544 -0.000000 0.034015
v 0.024325 -0.000000 0.055159
v 0.050859 -0.000000 -0.026504
v 0.009063 0.743482 -0.041941
v -0.004984 0.743936 -0.006277
v 0.032432 0.743854 0.014891
v 0.047368 0.743743 -0.031079
v -0.041733 0.173814 0.028591
v 0.038303 0.173830 -0.016403
v -0.017111 0.173834 -0.039517
v 0.016814 0.173818 0.049735
v -0.062198 0.356764 -0.302650
v -0.390317 0.210572 -0.093426
v -0.276155 0.363759 0.232972
v 0.039537 0.238043 0.390718
v 0.361981 0.384333 0.154614
v 0.275817 0.262770 -0.214264
v -0.050011 1.047566 -0.072774
v -0.048619 1.048979 0.013482
v -0.012201 1.048918 0.105600
v 0.083123 1.044630 0.143043
v 0.078895 1.046042 0.013736
v 0.042027 1.045478 -0.031894
v -0.107596 0.691706 -0.260769
v -0.234422 0.800796 -0.041011
v -0.199659 0.695446 0.205290
v 0.059585 0.754157 0.241958
v 0.313488 0.655239 0.059261
v 0.132919 0.752804 -0.158550
v 0.095814 1.620507 0.035189
v -0.028720 1.222686 -0.053903
v 0.070885 1.221112 -0.028411
v 0.136269 1.225307 0.026196
v 0.092916 1.220737 0.134980
v -0.012549 1.224421 0.114458
v -0.057946 1.224450 0.027912
vt 0.8429 0.9181
vt 0.8426 0.9486
vt 0.8303 0.9485
vt 0.8304 0.9179
vt 0.8180 0.9181
vt 0.8180 0.9484
vt 0.8058 0.9484
vt 0.8058 0.9183
vt 0.8307 0.8954
vt 0.8184 0.8959
vt 0.7813 0.9484
vt 0.7815 0.9179
vt 0.8060 0.8964
vt 0.8430 0.8959
vt 0.5155 0.3270
vt 0.5345 0.2875
vt 0.5614 0.3114
vt 0.5575 0.3151
vt 0.5821 0.2618
vt 0.6064 0.3068
vt 0.5689 0.3137
vt 0.5663 0.3096
vt 0.5899 0.3467
vt 0.5670 0.3184
vt 0.5387 0.3652
vt 0.5620 0.3198
vt 0.4412 0.3615
vt 0.4393 0.3267
vt 0.4513 0.3214
vt 0.4796 0.3407
vt 0.4024 0.2784
vt 0.4440 0.2617
vt 0.4410 0.2965
vt 0.4279 0.3024
vt 0.4567 0.3033
vt 0.4414 0.3117
vt 0.4257 0.3181
vt 0.3921 0.3336
vt 0.4940 0.2817
vt 0.7810 0.8956
vn 0.3408 -0.0246 -0.9398
vn -0.4023 0.0743 0.9125
vn 0.9498 0.0507 0.3086
vn -0.9362 0.0403 -0.3490
vn -0.3020 0.0309 0.9528
vn 0.4087 0.0918 -0.9080
vn 0.9510 -0.0072 0.3090
vn -0.3326 0.2939 0.8961
vn 0.8767 0.3239 -0.3557
vn 0.3355 0.3003 -0.8929
vn -0.9107 0.3646 0.1942
vn 0.6602 0.2909 0.6925
vn -0.7096 0.3042 -0.6356
vn 0.2884 0.3016 -0.9088
vn -0.1846 0.2307 0.9553
vn 0.9242 0.0861 0.3719
vn -0.8805 0.3478 -0.3220
vn 0.6357 0.0825 -0.7675
vn -0.8396 0.3179 0.4405
vn -0.8822 0.3441 0.3214
vn -0.1774 0.2396 0.9545
vn 0.7602 0.2319 -0.6069
vn -0.7687 0.3586 -0.5296
vn 0.7175 0.1901 0.6701
vn 0.2476 0.1373 -0.9591
vn -0.9414 0.0394 -0.3350
s off
f 11/1/1 5/2/1 8/3/1 10/4/1
f 12/5/2 7/6/2 6/7/2 9/8/2
f 4/9/3 10/4/3 12/5/3 3/10/3
f 5/11/4 11/12/4 9/8/4 6/7/4
f 3/10/5 12/5/5 9/8/5 2/13/5
f 1/14/6 11/1/6 10/4/6 4/9/6
f 10/4/7 8/3/7 7/6/7 12/5/7
f 15/15/8 16/16/8 22/17/8 21/18/8
f 17/19/9 18/20/9 24/21/9 23/22/9
f 18/20/10 13/23/10 19/24/10 24/21/10
f 14/25/11 15/15/11 21/18/11 20/26/11
f 16/16/12 17/19/12 23/22/12 22/17/12
f 13/23/13 14/25/13 20/26/13 19/24/13
f 25/27/14 32/28/14 33/29/14 30/30/14
f 27/31/15 28/32/15 35/33/15 36/34/15
f 35/33/16 34/35/16 31/36/16
f 32/28/17 37/37/17 31/36/17
f 34/35/18 33/29/18 31/36/18
f 37/37/19 36/34/19 31/36/19
f 26/38/20 27/31/20 36/34/20 37/37/20
f 35/33/21 31/36/21 36/34/21
f 29/39/22 30/30/22 33/29/22 34/35/22
f 25/27/23 26/38/23 37/37/23 32/28/23
f 28/32/24 29/39/24 34/35/24 35/33/24
f 33/29/25 32/28/25 31/36/25
f 2/13/26 9/8/26 11/12/26 1/40/26
