# Blender v2.78 (sub 0) OBJ File: 'Low_Poly_Trees_Pack.blend'
# www.blender.org
g Pine_Tree_OneSided_s_03
v 0.000000 0.000000 -0.111501
v -0.105252 0.000000 -0.035031
v -0.065049 0.000000 0.088700
v 0.065049 0.000000 0.088700
v 0.105252 0.000000 -0.035031
v 0.000214 0.749510 -0.073500
v -0.077618 0.749978 -0.016935
v -0.047792 0.750412 0.074447
v 0.048255 0.750249 0.074494
v 0.077888 0.750028 -0.016710
v -0.084261 0.263338 -0.019728
v -0.051699 0.263355 0.080483
v 0.086227 0.263379 -0.019726
v 0.000984 0.263385 -0.081659
v 0.053667 0.263360 0.080483
v -0.343724 0.282536 -0.504994
v -0.576728 0.479561 0.096891
v -0.266497 0.259628 0.559995
v 0.323390 0.416178 0.491145
v 0.633075 0.255388 -0.072036
v 0.218592 0.422245 -0.571192
v -0.111137 1.584190 -0.107066
v -0.105167 1.576441 0.024016
v -0.051736 1.584178 0.163343
v 0.091461 1.577198 0.219640
v 0.081950 1.575012 0.024299
v 0.027918 1.574851 -0.042739
v -0.079465 0.980939 -0.458560
v -0.568003 0.741039 -0.141554
v -0.403812 0.979433 0.352988
v 0.081284 0.806937 0.591997
v 0.561224 1.046664 0.234264
v 0.437636 0.857734 -0.324643
v -0.100070 2.027569 -0.110264
v -0.098042 2.029787 0.020427
v -0.042897 2.031754 0.160000
v 0.101674 2.030651 0.216732
v 0.095193 2.032549 0.020812
v 0.039403 2.029612 -0.048324
v -0.167140 1.485507 -0.395104
v -0.365333 1.643510 -0.062137
v -0.306743 1.485966 0.311045
v 0.082458 1.589515 0.366604
v 0.472485 1.454100 0.089790
v 0.193569 1.591613 -0.240227
v 0.088331 2.903303 0.053316
v -0.077734 2.293922 -0.081671
v 0.073166 2.297171 -0.043048
v 0.171926 2.307218 0.039690
v 0.106546 2.297848 0.204515
v -0.053347 2.297463 0.173421
v -0.122084 2.294941 0.042290
vt 0.8058 0.9183
vt 0.8058 0.9484
vt 0.7935 0.9484
vt 0.7938 0.9182
vt 0.8429 0.9181
vt 0.8426 0.9486
vt 0.8303 0.9485
vt 0.8304 0.9179
vt 0.8180 0.9181
vt 0.8180 0.9484
vt 0.7813 0.9484
vt 0.7815 0.9179
vt 0.8307 0.8954
vt 0.8184 0.8959
vt 0.7934 0.8963
vt 0.7810 0.8956
vt 0.8060 0.8964
vt 0.8430 0.8959
vt 0.5926 0.3457
vt 0.5684 0.3245
vt 0.5731 0.3109
vt 0.6096 0.3095
vt 0.5173 0.3264
vt 0.5350 0.2881
vt 0.5529 0.3052
vt 0.5471 0.3172
vt 0.5799 0.2631
vt 0.5656 0.3008
vt 0.5408 0.3626
vt 0.5558 0.3270
vt 0.5155 0.3270
vt 0.5345 0.2875
vt 0.5614 0.3114
vt 0.5575 0.3151
vt 0.5821 0.2618
vt 0.6064 0.3068
vt 0.5689 0.3137
vt 0.5663 0.3096
vt 0.5899 0.3467
vt 0.5670 0.3184
vt 0.5387 0.3652
vt 0.5620 0.3198
vt 0.4412 0.3615
vt 0.4393 0.3267
vt 0.4513 0.3214
vt 0.4796 0.3407
vt 0.4024 0.2784
vt 0.4440 0.2617
vt 0.4410 0.2965
vt 0.4279 0.3024
vt 0.4567 0.3033
vt 0.4414 0.3117
vt 0.4257 0.3181
vt 0.3921 0.3336
vt 0.4940 0.2817
vn -0.9508 0.0113 0.3096
vn 0.5888 0.0148 -0.8081
vn -0.0002 0.0123 0.9999
vn -0.5878 0.0127 -0.8089
vn 0.9498 0.0507 0.3086
vn -0.5852 0.0935 -0.8055
vn -0.0000 0.0312 0.9995
vn 0.5854 0.0891 -0.8058
vn -0.9495 0.0578 0.3085
vn 0.9510 0.0144 0.3090
vn -0.0682 0.3533 -0.9330
vn -0.0364 0.2592 0.9651
vn 0.9058 0.3066 0.2926
vn -0.8837 0.3073 -0.3531
vn 0.7674 0.3637 -0.5280
vn -0.7549 0.3245 0.5700
vn -0.3433 0.2813 0.8961
vn 0.8640 0.3564 -0.3557
vn 0.3240 0.3126 -0.8929
vn -0.9236 0.3304 0.1942
vn 0.6488 0.3154 0.6925
vn -0.7204 0.2775 -0.6356
vn 0.2770 0.3122 -0.9088
vn -0.1931 0.2237 0.9553
vn 0.9204 0.1206 0.3719
vn -0.8929 0.3147 -0.3220
vn 0.6322 0.1062 -0.7675
vn -0.8509 0.2863 0.4405
vn -0.8944 0.3109 0.3214
vn -0.1862 0.2328 0.9545
vn 0.7510 0.2601 -0.6069
vn -0.7816 0.3297 -0.5296
vn 0.7099 0.2168 0.6701
vn 0.2423 0.1464 -0.9591
s off
f 12/1/1 8/2/1 7/3/1 11/4/1
f 14/5/2 6/6/2 10/7/2 13/8/2
f 15/9/3 9/10/3 8/2/3 12/1/3
f 11/4/4 7/3/4 6/11/4 14/12/4
f 5/13/5 13/8/5 15/9/5 4/14/5
f 2/15/6 11/4/6 14/12/6 1/16/6
f 4/14/7 15/9/7 12/1/7 3/17/7
f 1/18/8 14/5/8 13/8/8 5/13/8
f 3/17/9 12/1/9 11/4/9 2/15/9
f 13/8/10 10/7/10 9/10/10 15/9/10
f 16/19/11 22/20/11 27/21/11 21/22/11
f 18/23/12 19/24/12 25/25/12 24/26/12
f 19/24/13 20/27/13 26/28/13 25/25/13
f 16/19/14 17/29/14 23/30/14 22/20/14
f 20/27/15 21/22/15 27/21/15 26/28/15
f 17/29/16 18/23/16 24/26/16 23/30/16
f 30/31/17 31/32/17 37/33/17 36/34/17
f 32/35/18 33/36/18 39/37/18 38/38/18
f 33/36/19 28/39/19 34/40/19 39/37/19
f 29/41/20 30/31/20 36/34/20 35/42/20
f 31/32/21 32/35/21 38/38/21 37/33/21
f 28/39/22 29/41/22 35/42/22 34/40/22
f 40/43/23 47/44/23 48/45/23 45/46/23
f 42/47/24 43/48/24 50/49/24 51/50/24
f 50/49/25 49/51/25 46/52/25
f 47/44/26 52/53/26 46/52/26
f 49/51/27 48/45/27 46/52/27
f 52/53/28 51/50/28 46/52/28
f 41/54/29 42/47/29 51/50/29 52/53/29
f 50/49/30 46/52/30 51/50/30
f 44/55/31 45/46/31 48/45/31 49/51/31
f 40/43/32 41/54/32 52/53/32 47/44/32
f 43/48/33 44/55/33 49/51/33 50/49/33
f 48/45/34 47/44/34 46/52/34
