# Blender v2.78 (sub 0) OBJ File: 'Low_Poly_Trees_Pack.blend'
# www.blender.org
g Pine_Tree_OneSided_s_04
v 0.000000 0.000000 -0.107933
v -0.101884 0.000000 -0.033910
v -0.062968 0.000000 0.085861
v 0.062968 0.000000 0.085861
v 0.101884 0.000000 -0.033910
v 0.002118 0.750174 -0.068374
v -0.069772 0.750434 -0.016125
v -0.042241 0.750454 0.068354
v 0.046641 0.750205 0.068314
v 0.074050 0.750032 -0.016189
v -0.081562 0.254942 -0.019095
v -0.050044 0.254928 0.077907
v 0.083468 0.254951 -0.019095
v 0.000953 0.254957 -0.079046
v 0.051950 0.254933 0.077907
v -0.354829 0.385184 -0.572947
v -0.645823 0.634340 0.004219
v -0.221396 0.508020 0.565620
v 0.436493 0.438466 0.527235
v 0.676365 0.494109 0.023768
v 0.282644 0.328269 -0.608077
v 0.015488 1.504068 -0.049915
v -0.028068 1.505986 0.017316
v 0.038358 1.504090 0.085301
v 0.118983 1.501208 0.085215
v 0.143877 1.499837 0.017134
v 0.092029 1.501347 -0.046440
v -0.276227 1.072701 -0.382708
v -0.589383 0.873428 0.033987
v -0.146994 1.038673 0.497366
v 0.357733 1.059057 0.455159
v 0.560348 0.923587 0.040794
v 0.215764 1.081968 -0.384812
v 0.100480 1.925753 -0.052657
v 0.055087 1.928399 0.017049
v 0.124941 1.924962 0.087686
v 0.209443 1.920418 0.087707
v 0.235292 1.918755 0.017095
v 0.180708 1.921490 -0.048947
v -0.139250 1.537664 -0.326140
v -0.287806 1.700133 0.005719
v -0.036366 1.492000 0.403448
v 0.361439 1.416518 0.357240
v 0.510065 1.538746 0.009665
v 0.252541 1.471846 -0.335552
v 0.302349 2.719501 0.069684
v 0.091894 2.156565 -0.107194
v 0.273151 2.145265 -0.128739
v 0.371810 2.136712 0.031805
v 0.319715 2.139716 0.172493
v 0.142736 2.151700 0.172436
v -0.001209 2.161816 0.031675
vt 0.8058 0.9183
vt 0.8058 0.9526
vt 0.7935 0.9526
vt 0.7938 0.9182
vt 0.8429 0.9181
vt 0.8426 0.9529
vt 0.8303 0.9528
vt 0.8304 0.9179
vt 0.8180 0.9181
vt 0.8180 0.9527
vt 0.7812 0.9526
vt 0.7815 0.9179
vt 0.8307 0.8954
vt 0.8184 0.8959
vt 0.7934 0.8963
vt 0.7810 0.8956
vt 0.8060 0.8964
vt 0.8430 0.8959
vt 0.9660 0.4780
vt 0.9455 0.4520
vt 0.9506 0.4379
vt 0.9829 0.4363
vt 0.9001 0.4369
vt 0.9183 0.3921
vt 0.9330 0.4282
vt 0.9270 0.4421
vt 0.9574 0.3918
vt 0.9436 0.4281
vt 0.9196 0.4878
vt 0.9341 0.4534
vt 0.8987 0.4369
vt 0.9183 0.3908
vt 0.9401 0.4366
vt 0.9376 0.4418
vt 0.9594 0.3905
vt 0.9802 0.4341
vt 0.9467 0.4406
vt 0.9442 0.4366
vt 0.9635 0.4798
vt 0.9445 0.4456
vt 0.9176 0.4903
vt 0.9401 0.4465
vt 0.9306 0.6104
vt 0.9337 0.5811
vt 0.9472 0.5757
vt 0.9733 0.5896
vt 0.9147 0.5338
vt 0.9621 0.5165
vt 0.9445 0.5520
vt 0.9295 0.5585
vt 0.9530 0.5621
vt 0.9382 0.5687
vt 0.9229 0.5737
vt 0.8901 0.5858
vt 0.9892 0.5452
vn -0.9507 0.0209 0.3093
vn 0.5875 0.0160 -0.8091
vn 0.0002 0.0193 0.9998
vn -0.5877 0.0188 -0.8088
vn 0.9498 0.0507 0.3086
vn -0.5852 0.0935 -0.8055
vn -0.0000 0.0312 0.9995
vn 0.5854 0.0891 -0.8058
vn -0.9495 0.0578 0.3085
vn 0.9510 0.0162 0.3087
vn -0.0043 0.4280 -0.9038
vn 0.0875 0.4093 0.9082
vn 0.8070 0.4214 0.4138
vn -0.6837 0.4860 -0.5443
vn 0.7326 0.3860 -0.5606
vn -0.6534 0.4578 0.6029
vn 0.0546 0.4025 0.9138
vn 0.7901 0.2503 -0.5595
vn -0.0006 0.3662 -0.9305
vn -0.7079 0.4532 0.5417
vn 0.8932 0.2986 0.3363
vn -0.7864 0.4839 -0.3841
vn -0.0090 0.3145 -0.9492
vn 0.1185 0.2751 0.9541
vn 0.9347 0.0890 0.3442
vn -0.7392 0.4373 -0.5122
vn 0.8474 0.1344 -0.5136
vn -0.6538 0.3088 0.6908
vn -0.6590 0.3912 0.6424
vn 0.0115 0.1749 0.9845
vn 0.7947 0.1780 -0.5802
vn -0.7118 0.4611 -0.5297
vn 0.8955 0.1725 0.4103
vn -0.0912 0.3294 -0.9398
s off
f 12/1/1 8/2/1 7/3/1 11/4/1
f 14/5/2 6/6/2 10/7/2 13/8/2
f 15/9/3 9/10/3 8/2/3 12/1/3
f 11/4/4 7/3/4 6/11/4 14/12/4
f 5/13/5 13/8/5 15/9/5 4/14/5
f 2/15/6 11/4/6 14/12/6 1/16/6
f 4/14/7 15/9/7 12/1/7 3/17/7
f 1/18/8 14/5/8 13/8/8 5/13/8
f 3/17/9 12/1/9 11/4/9 2/15/9
f 13/8/10 10/7/10 9/10/10 15/9/10
f 16/19/11 22/20/11 27/21/11 21/22/11
f 18/23/12 19/24/12 25/25/12 24/26/12
f 19/24/13 20/27/13 26/28/13 25/25/13
f 16/19/14 17/29/14 23/30/14 22/20/14
f 20/27/15 21/22/15 27/21/15 26/28/15
f 17/29/16 18/23/16 24/26/16 23/30/16
f 30/31/17 31/32/17 37/33/17 36/34/17
f 32/35/18 33/36/18 39/37/18 38/38/18
f 33/36/19 28/39/19 34/40/19 39/37/19
f 29/41/20 30/31/20 36/34/20 35/42/20
f 31/32/21 32/35/21 38/38/21 37/33/21
f 28/39/22 29/41/22 35/42/22 34/40/22
f 40/43/23 47/44/23 48/45/23 45/46/23
f 42/47/24 43/48/24 50/49/24 51/50/24
f 50/49/25 49/51/25 46/52/25
f 47/44/26 52/53/26 46/52/26
f 49/51/27 48/45/27 46/52/27
f 52/53/28 51/50/28 46/52/28
f 41/54/29 42/47/29 51/50/29 52/53/29
f 50/49/30 46/52/30 51/50/30
f 44/55/31 45/46/31 48/45/31 49/51/31
f 40/43/32 41/54/32 52/53/32 47/44/32
f 43/48/33 44/55/33 49/51/33 50/49/33
f 48/45/34 47/44/34 46/52/34
