# Blender v2.78 (sub 0) OBJ File: 'Low_Poly_Trees_Pack.blend'
# www.blender.org
g Pine_Tree_OneSided_m_11
v -0.449287 0.779935 -0.867186
v -1.045148 1.140790 -0.117720
v -0.705213 0.812062 0.872597
v 0.347039 0.823162 0.869891
v 1.059569 0.629904 -0.013420
v 0.796507 0.794138 -0.870025
v -0.253700 2.146001 -0.474551
v -0.579530 2.180089 -0.110170
v -0.377498 2.175022 0.372869
v 0.142595 2.126050 0.373082
v 0.532263 2.077770 -0.049941
v 0.361972 2.090063 -0.473684
v -0.380074 2.027313 -0.888743
v -0.959062 1.796357 -0.113108
v -0.631693 2.005773 0.823058
v 0.363533 1.900349 0.824035
v 1.027937 1.573098 0.016866
v 0.799029 1.905334 -0.975653
v 0.207933 3.527313 -0.080360
v 0.124322 3.549581 0.014826
v 0.176831 3.542012 0.140773
v 0.310355 3.511454 0.140528
v 0.410389 3.484456 0.029942
v 0.365807 3.491010 -0.080437
v -0.180817 2.635245 -0.649440
v -0.704569 2.875224 -0.029161
v -0.341950 2.587299 0.693916
v 0.451452 2.515981 0.696653
v 1.109550 2.684441 0.077764
v 0.656807 2.640720 -0.700485
v 0.506480 4.265533 -0.138350
v 0.420680 4.296506 -0.040044
v 0.475905 4.288644 0.090864
v 0.614124 4.248478 0.091429
v 0.716999 4.211391 -0.022816
v 0.669971 4.218040 -0.137697
v 0.216438 3.871067 -0.388687
v -0.300479 3.616300 -0.031620
v 0.097761 3.776887 0.410423
v 0.579190 3.658499 0.410072
v 1.016289 3.343729 0.005020
v 0.785869 3.730411 -0.388182
v 1.120072 5.446801 -0.090262
v 0.645059 4.660290 -0.224666
v 0.910539 4.572943 -0.221947
v 0.983276 4.560404 -0.041408
v 0.818845 4.626710 0.136494
v 0.594467 4.700526 0.134147
v 0.507740 4.715241 -0.071451
v -0.000892 0.019135 -0.199678
v -0.190683 0.019125 -0.061788
v -0.118196 0.019026 0.161341
v 0.116328 0.019592 0.161248
v 0.188797 0.019551 -0.061761
v -0.010164 1.751672 -0.099599
v -0.119877 1.758301 -0.018489
v -0.077907 1.756481 0.112954
v 0.057655 1.747942 0.113081
v 0.099374 1.744169 -0.018182
v -0.172194 0.464755 -0.039641
v -0.106599 0.464929 0.162831
v 0.170970 0.464774 -0.039615
v -0.000466 0.464751 -0.164781
v 0.105340 0.465150 0.162703
vt 0.5249 0.2786
vt 0.5468 0.2927
vt 0.5367 0.3166
vt 0.5059 0.3241
vt 0.5777 0.2592
vt 0.5702 0.2875
vt 0.5396 0.3599
vt 0.5524 0.3324
vt 0.5735 0.3278
vt 0.5848 0.3460
vt 0.6101 0.2909
vt 0.5834 0.3010
vt 0.5873 0.3434
vt 0.5625 0.3224
vt 0.5684 0.3061
vt 0.6107 0.2937
vt 0.5089 0.3240
vt 0.5267 0.2801
vt 0.5481 0.3015
vt 0.5430 0.3163
vt 0.5748 0.2609
vt 0.5605 0.2985
vt 0.5429 0.3578
vt 0.5524 0.3243
vt 0.5070 0.3246
vt 0.5262 0.2793
vt 0.5558 0.3086
vt 0.5539 0.3140
vt 0.5769 0.2597
vt 0.6073 0.2896
vt 0.5640 0.3103
vt 0.5612 0.3072
vt 0.5846 0.3445
vt 0.5621 0.3163
vt 0.5408 0.3601
vt 0.5574 0.3174
vt 0.4361 0.3556
vt 0.4343 0.3274
vt 0.4509 0.3215
vt 0.4892 0.3324
vt 0.3949 0.2857
vt 0.4413 0.2687
vt 0.4368 0.3008
vt 0.4221 0.3071
vt 0.4518 0.3085
vt 0.4365 0.3154
vt 0.4226 0.3215
vt 0.3939 0.3362
vt 0.4892 0.2911
vt 0.9371 0.9156
vt 0.9370 0.9811
vt 0.9231 0.9812
vt 0.9236 0.9155
vt 0.9785 0.9154
vt 0.9780 0.9818
vt 0.9644 0.9818
vt 0.9646 0.9152
vt 0.9507 0.9154
vt 0.9508 0.9815
vt 0.9093 0.9814
vt 0.9099 0.9152
vt 0.9649 0.8900
vt 0.9512 0.8906
vt 0.9232 0.8910
vt 0.9093 0.8902
vt 0.9372 0.8912
vt 0.9786 0.8905
vn 0.0099 0.3497 0.9368
vn 0.7537 0.3126 0.5781
vn -0.6807 0.2984 -0.6691
vn 0.9010 0.3495 -0.2568
vn -0.8462 0.3599 0.3928
vn 0.0003 0.4833 -0.8754
vn 0.0462 0.3883 0.9204
vn 0.7890 0.2565 0.5582
vn -0.7401 0.5073 -0.4415
vn 0.9387 0.3172 -0.1353
vn -0.8342 0.5136 0.2008
vn 0.0353 0.3227 0.9458
vn 0.8557 0.1770 -0.4862
vn -0.0340 0.3240 -0.9455
vn -0.6794 0.5238 0.5138
vn 0.6610 0.2031 0.7224
vn -0.5855 0.4575 -0.6692
vn 0.0532 0.1807 -0.9821
vn 0.0666 0.2545 0.9648
vn 0.7187 -0.0728 0.6915
vn -0.5720 0.4614 -0.6782
vn 0.9114 -0.1615 -0.3784
vn -0.7153 0.6076 0.3452
vn -0.7289 0.5367 0.4250
vn 0.0695 0.2421 0.9678
vn 0.8807 -0.0117 -0.4735
vn -0.6300 0.4541 -0.6299
vn 0.7073 0.0365 0.7060
vn 0.0548 0.1359 -0.9892
vn -0.9513 0.0332 0.3066
vn 0.5925 0.0459 -0.8042
vn 0.0009 0.0386 0.9993
vn -0.5901 0.0367 -0.8065
vn 0.9509 0.0226 0.3087
vn -0.5871 0.0641 -0.8070
vn 0.0005 -0.0033 1.0000
vn 0.5876 0.0631 -0.8067
vn -0.9509 0.0239 0.3085
vn 0.9510 0.0476 0.3055
vn 0.0054 0.2846 -0.9586
s off
f 4/1/1 10/2/1 9/3/1 3/4/1
f 5/5/2 11/6/2 10/2/2 4/1/2
f 2/7/3 8/8/3 7/9/3 1/10/3
f 6/11/4 12/12/4 11/6/4 5/5/4
f 3/4/5 9/3/5 8/8/5 2/7/5
f 13/13/6 19/14/6 24/15/6 18/16/6
f 15/17/7 16/18/7 22/19/7 21/20/7
f 16/18/8 17/21/8 23/22/8 22/19/8
f 13/13/9 14/23/9 20/24/9 19/14/9
f 17/21/10 18/16/10 24/15/10 23/22/10
f 14/23/11 15/17/11 21/20/11 20/24/11
f 27/25/12 28/26/12 34/27/12 33/28/12
f 29/29/13 30/30/13 36/31/13 35/32/13
f 30/30/14 25/33/14 31/34/14 36/31/14
f 26/35/15 27/25/15 33/28/15 32/36/15
f 28/26/16 29/29/16 35/32/16 34/27/16
f 25/33/17 26/35/17 32/36/17 31/34/17
f 37/37/18 44/38/18 45/39/18 42/40/18
f 39/41/19 40/42/19 47/43/19 48/44/19
f 47/43/20 46/45/20 43/46/20
f 44/38/21 49/47/21 43/46/21
f 46/45/22 45/39/22 43/46/22
f 49/47/23 48/44/23 43/46/23
f 38/48/24 39/41/24 48/44/24 49/47/24
f 47/43/25 43/46/25 48/44/25
f 41/49/26 42/40/26 45/39/26 46/45/26
f 37/37/27 38/48/27 49/47/27 44/38/27
f 40/42/28 41/49/28 46/45/28 47/43/28
f 45/39/29 44/38/29 43/46/29
f 61/50/30 57/51/30 56/52/30 60/53/30
f 63/54/31 55/55/31 59/56/31 62/57/31
f 64/58/32 58/59/32 57/51/32 61/50/32
f 60/53/33 56/52/33 55/60/33 63/61/33
f 54/62/34 62/57/34 64/58/34 53/63/34
f 51/64/35 60/53/35 63/61/35 50/65/35
f 53/63/36 64/58/36 61/50/36 52/66/36
f 50/67/37 63/54/37 62/57/37 54/62/37
f 52/66/38 61/50/38 60/53/38 51/64/38
f 62/57/39 59/56/39 58/59/39 64/58/39
f 7/9/40 12/12/40 6/11/40 1/10/40
