# Blender v2.78 (sub 0) OBJ File: 'Low_Poly_Trees_Pack.blend'
# www.blender.org
g Pine_Tree_OneSided_m_09
v 0.000000 0.000000 -0.185835
v -0.175420 0.000000 -0.058385
v -0.108415 0.000000 0.147833
v 0.108415 0.000000 0.147833
v 0.175420 0.000000 -0.058385
v -0.000858 2.016129 -0.109628
v -0.118884 2.017721 -0.023819
v -0.073489 2.019104 0.114555
v 0.071886 2.018568 0.114709
v 0.116658 2.017820 -0.023092
v -0.140435 0.438896 -0.032881
v -0.086164 0.438925 0.134138
v 0.143712 0.438965 -0.032877
v 0.001641 0.438975 -0.136098
v 0.089446 0.438934 0.134138
v -0.870052 0.445180 -0.782906
v -1.039646 0.863833 0.367833
v -0.376031 0.445180 1.012118
v 0.646597 0.863833 0.747597
v 1.076431 0.445180 -0.419301
v 0.130662 0.863833 -0.968743
v -0.298900 1.968979 -0.424307
v -0.500894 1.977721 -0.052004
v -0.289655 1.982313 0.309476
v 0.121004 1.976542 0.365392
v 0.333667 1.974559 -0.048199
v 0.100185 1.966865 -0.348419
v -0.572873 1.275628 -0.841657
v -0.961214 1.604002 0.161485
v -0.444162 1.237448 0.933326
v 0.538983 1.498364 0.818575
v 1.055125 1.230381 -0.120060
v 0.364319 1.508476 -0.951986
v -0.185228 3.445050 -0.178444
v -0.175279 3.432137 0.040027
v -0.086227 3.445032 0.272238
v 0.152435 3.433397 0.366067
v 0.136583 3.429755 0.040498
v 0.046531 3.429486 -0.071232
v -0.132441 2.439633 -0.764267
v -0.946671 2.039800 -0.235923
v -0.673020 2.437123 0.588313
v 0.135473 2.149630 0.986661
v 0.935374 2.549175 0.390440
v 0.729393 2.234292 -0.541071
v -0.166783 4.184016 -0.183773
v -0.163403 4.187713 0.034045
v -0.071496 4.190991 0.266667
v 0.169457 4.189152 0.361221
v 0.158656 4.192317 0.034687
v 0.065672 4.187420 -0.080540
v -0.278566 3.280580 -0.658507
v -0.608888 3.543917 -0.103562
v -0.511238 3.281344 0.518409
v 0.137431 3.453927 0.611006
v 0.787475 3.228235 0.149649
v 0.322615 3.457423 -0.400378
v 0.147218 5.643572 0.088861
v -0.129557 4.627937 -0.136119
v 0.121943 4.633352 -0.071746
v 0.286544 4.650098 0.066151
v 0.177576 4.634480 0.340859
v -0.088911 4.633839 0.289035
v -0.203473 4.629636 0.070484
vt 0.8058 0.9183
vt 0.8058 0.9769
vt 0.7933 0.9769
vt 0.7938 0.9182
vt 0.8429 0.9181
vt 0.8424 0.9774
vt 0.8302 0.9775
vt 0.8304 0.9179
vt 0.8180 0.9181
vt 0.8181 0.9772
vt 0.7810 0.9772
vt 0.7815 0.9179
vt 0.8307 0.8954
vt 0.8184 0.8959
vt 0.7934 0.8963
vt 0.7810 0.8956
vt 0.8060 0.8964
vt 0.8430 0.8959
vt 0.5336 0.2869
vt 0.5531 0.2957
vt 0.5422 0.3174
vt 0.5144 0.3266
vt 0.5829 0.2614
vt 0.5753 0.2898
vt 0.5373 0.3647
vt 0.5552 0.3348
vt 0.5785 0.3301
vt 0.5901 0.3483
vt 0.6085 0.3082
vt 0.5875 0.3079
vt 0.5926 0.3457
vt 0.5684 0.3245
vt 0.5731 0.3109
vt 0.6096 0.3095
vt 0.5173 0.3264
vt 0.5350 0.2881
vt 0.5529 0.3052
vt 0.5471 0.3172
vt 0.5799 0.2631
vt 0.5656 0.3008
vt 0.5408 0.3626
vt 0.5558 0.3270
vt 0.5155 0.3270
vt 0.5345 0.2875
vt 0.5614 0.3114
vt 0.5575 0.3151
vt 0.5821 0.2618
vt 0.6064 0.3068
vt 0.5689 0.3137
vt 0.5663 0.3096
vt 0.5899 0.3467
vt 0.5670 0.3184
vt 0.5387 0.3652
vt 0.5620 0.3198
vt 0.4412 0.3615
vt 0.4393 0.3267
vt 0.4513 0.3214
vt 0.4796 0.3407
vt 0.4024 0.2784
vt 0.4440 0.2617
vt 0.4410 0.2965
vt 0.4279 0.3024
vt 0.4567 0.3033
vt 0.4414 0.3117
vt 0.4257 0.3181
vt 0.3921 0.3336
vt 0.4940 0.2817
vn -0.9506 0.0113 0.3102
vn 0.5900 0.0148 -0.8073
vn -0.0005 0.0123 0.9999
vn -0.5878 0.0127 -0.8089
vn 0.9498 0.0507 0.3086
vn -0.5852 0.0935 -0.8055
vn -0.0000 0.0312 0.9995
vn 0.5854 0.0891 -0.8058
vn -0.9495 0.0578 0.3085
vn 0.9510 0.0144 0.3089
vn 0.0243 0.3822 0.9238
vn 0.8740 0.4206 0.2434
vn -0.8772 0.3618 -0.3156
vn 0.6217 0.4293 -0.6551
vn -0.5865 0.4291 0.6869
vn -0.0682 0.3533 -0.9330
vn -0.0364 0.2592 0.9651
vn 0.9058 0.3066 0.2926
vn -0.8837 0.3073 -0.3531
vn 0.7674 0.3637 -0.5280
vn -0.7549 0.3245 0.5700
vn -0.3433 0.2813 0.8961
vn 0.8640 0.3564 -0.3557
vn 0.3240 0.3126 -0.8929
vn -0.9236 0.3304 0.1942
vn 0.6488 0.3154 0.6925
vn -0.7204 0.2775 -0.6356
vn 0.2770 0.3122 -0.9088
vn -0.1931 0.2237 0.9553
vn 0.9204 0.1206 0.3719
vn -0.8929 0.3147 -0.3220
vn 0.6322 0.1062 -0.7675
vn -0.8509 0.2863 0.4405
vn -0.8944 0.3109 0.3214
vn -0.1862 0.2328 0.9545
vn 0.7510 0.2601 -0.6069
vn -0.7816 0.3297 -0.5296
vn 0.7099 0.2168 0.6701
vn 0.2423 0.1464 -0.9591
vn -0.1833 0.3762 -0.9082
s off
f 12/1/1 8/2/1 7/3/1 11/4/1
f 14/5/2 6/6/2 10/7/2 13/8/2
f 15/9/3 9/10/3 8/2/3 12/1/3
f 11/4/4 7/3/4 6/11/4 14/12/4
f 5/13/5 13/8/5 15/9/5 4/14/5
f 2/15/6 11/4/6 14/12/6 1/16/6
f 4/14/7 15/9/7 12/1/7 3/17/7
f 1/18/8 14/5/8 13/8/8 5/13/8
f 3/17/9 12/1/9 11/4/9 2/15/9
f 13/8/10 10/7/10 9/10/10 15/9/10
f 19/19/11 25/20/11 24/21/11 18/22/11
f 20/23/12 26/24/12 25/20/12 19/19/12
f 17/25/13 23/26/13 22/27/13 16/28/13
f 21/29/14 27/30/14 26/24/14 20/23/14
f 18/22/15 24/21/15 23/26/15 17/25/15
f 28/31/16 34/32/16 39/33/16 33/34/16
f 30/35/17 31/36/17 37/37/17 36/38/17
f 31/36/18 32/39/18 38/40/18 37/37/18
f 28/31/19 29/41/19 35/42/19 34/32/19
f 32/39/20 33/34/20 39/33/20 38/40/20
f 29/41/21 30/35/21 36/38/21 35/42/21
f 42/43/22 43/44/22 49/45/22 48/46/22
f 44/47/23 45/48/23 51/49/23 50/50/23
f 45/48/24 40/51/24 46/52/24 51/49/24
f 41/53/25 42/43/25 48/46/25 47/54/25
f 43/44/26 44/47/26 50/50/26 49/45/26
f 40/51/27 41/53/27 47/54/27 46/52/27
f 52/55/28 59/56/28 60/57/28 57/58/28
f 54/59/29 55/60/29 62/61/29 63/62/29
f 62/61/30 61/63/30 58/64/30
f 59/56/31 64/65/31 58/64/31
f 61/63/32 60/57/32 58/64/32
f 64/65/33 63/62/33 58/64/33
f 53/66/34 54/59/34 63/62/34 64/65/34
f 62/61/35 58/64/35 63/62/35
f 56/67/36 57/58/36 60/57/36 61/63/36
f 52/55/37 53/66/37 64/65/37 59/56/37
f 55/60/38 56/67/38 61/63/38 62/61/38
f 60/57/39 59/56/39 58/64/39
f 22/27/40 27/30/40 21/29/40 16/28/40
