# Blender v2.78 (sub 0) OBJ File: 'Low_Poly_Trees_Pack.blend'
# www.blender.org
g Pine_Tree_OneSided_m_05
v -0.082745 2.202601 -2.143697
v -1.637552 1.449825 -1.620304
v -2.136120 2.243594 0.007598
v -1.633777 1.515690 1.633052
v -0.080553 2.289930 2.148906
v 1.489998 1.548641 1.625019
v 1.961822 2.236408 -0.002347
v 1.489911 1.485480 -1.627431
v 0.032018 4.302981 -0.995662
v -0.591100 4.368007 -0.734545
v -0.844798 4.398921 -0.095089
v -0.585570 4.394730 0.544233
v 0.038834 4.339254 0.807465
v 0.659610 4.277483 0.544742
v 0.912275 4.236211 -0.093550
v 0.655381 4.254754 -0.732790
v -0.007616 3.174136 -2.280429
v -1.465411 3.870255 -1.606835
v -1.969964 3.289990 0.024180
v -1.479202 3.783435 1.539285
v -0.027716 3.063782 2.011249
v 1.475281 3.470469 1.542185
v 1.922815 2.942569 0.031549
v 1.494629 3.564035 -1.825014
v 0.485664 6.573225 -0.235994
v 0.287934 6.621270 -0.150268
v 0.207138 6.646463 0.056664
v 0.290847 6.634673 0.263398
v 0.489820 6.592472 0.348658
v 0.687234 6.543957 0.262668
v 0.767656 6.517875 0.056008
v 0.684264 6.530134 -0.150462
v 0.351059 5.415643 -1.684237
v -0.941611 4.943360 -1.080189
v -1.477130 5.451211 0.133986
v -0.990600 4.700850 1.329395
v 0.264805 5.071453 1.957894
v 1.364738 4.489132 1.337520
v 2.075476 5.021400 0.145463
v 1.409176 4.696742 -1.068612
v 1.046768 7.944711 -0.347268
v 0.842788 8.009312 -0.259209
v 0.760826 8.046274 -0.045025
v 0.848879 8.034164 0.169798
v 1.055305 7.979845 0.259466
v 1.259204 7.914925 0.171475
v 1.341187 7.877648 -0.042679
v 1.253219 7.890085 -0.257570
v 0.498370 6.399448 -1.228393
v 0.040504 7.331053 -0.727383
v -0.719181 6.687059 0.049383
v 0.061990 7.405558 0.767294
v 0.524960 6.499356 1.324848
v 1.491188 7.054107 0.766253
v 1.733990 6.197538 0.047597
v 1.470013 6.977946 -0.726116
v 2.095159 10.188552 -0.168840
v 1.036749 8.773229 -0.421990
v 1.355798 8.660633 -0.558262
v 1.703215 8.553951 -0.415164
v 1.839274 8.530496 -0.077456
v 1.710994 8.595539 0.257194
v 1.367069 8.719383 0.392491
v 1.044892 8.814675 0.250228
v 0.908018 8.836831 -0.087083
v -0.001668 0.035793 -0.373508
v -0.356683 0.035774 -0.115578
v -0.221092 0.035589 0.301797
v 0.217599 0.036647 0.301624
v 0.353156 0.036571 -0.115527
v -0.019013 3.276603 -0.186306
v -0.224237 3.289002 -0.034584
v -0.145729 3.285599 0.211286
v 0.107847 3.269625 0.211525
v 0.185885 3.262568 -0.034011
v -0.322099 0.869350 -0.074150
v -0.199400 0.869676 0.304585
v 0.319809 0.869386 -0.074101
v -0.000872 0.869343 -0.308232
v 0.197045 0.870090 0.304345
vt 0.5762 0.3649
vt 0.5694 0.3328
vt 0.5832 0.3196
vt 0.6091 0.3358
vt 0.5834 0.3010
vt 0.6101 0.2909
vt 0.5777 0.2592
vt 0.5702 0.2875
vt 0.5509 0.2867
vt 0.5331 0.2592
vt 0.5027 0.2897
vt 0.5367 0.2995
vt 0.5362 0.3189
vt 0.5028 0.3314
vt 0.5323 0.3622
vt 0.5501 0.3324
vt 0.6107 0.2937
vt 0.6106 0.3329
vt 0.5690 0.3171
vt 0.5684 0.3061
vt 0.5344 0.2613
vt 0.5748 0.2609
vt 0.5605 0.2985
vt 0.5495 0.2985
vt 0.5060 0.3311
vt 0.5060 0.2900
vt 0.5422 0.3066
vt 0.5427 0.3175
vt 0.5793 0.3604
vt 0.5357 0.3601
vt 0.5507 0.3246
vt 0.5613 0.3249
vt 0.5769 0.2597
vt 0.6073 0.2896
vt 0.5640 0.3103
vt 0.5612 0.3072
vt 0.5045 0.2897
vt 0.5344 0.2599
vt 0.5569 0.3072
vt 0.5538 0.3102
vt 0.5336 0.3627
vt 0.5039 0.3318
vt 0.5539 0.3146
vt 0.5569 0.3175
vt 0.6073 0.3325
vt 0.5769 0.3633
vt 0.5610 0.3173
vt 0.5638 0.3144
vt 0.4407 0.3302
vt 0.4286 0.3295
vt 0.4365 0.3154
vt 0.4509 0.3215
vt 0.4431 0.2981
vt 0.4518 0.3085
vt 0.4197 0.3082
vt 0.4286 0.2985
vt 0.4208 0.3205
vt 0.3870 0.3330
vt 0.3874 0.2884
vt 0.4196 0.2592
vt 0.4612 0.2615
vt 0.4892 0.2911
vt 0.4892 0.3324
vt 0.4180 0.3635
vt 0.4604 0.3626
vt 0.9371 0.9156
vt 0.9370 0.9811
vt 0.9231 0.9812
vt 0.9236 0.9155
vt 0.9785 0.9154
vt 0.9780 0.9818
vt 0.9644 0.9818
vt 0.9646 0.9152
vt 0.9507 0.9154
vt 0.9508 0.9815
vt 0.9093 0.9814
vt 0.9099 0.9152
vt 0.9649 0.8900
vt 0.9512 0.8906
vt 0.9232 0.8910
vt 0.9093 0.8902
vt 0.9372 0.8912
vt 0.9786 0.8905
vn -0.4223 0.4227 -0.8019
vn 0.4275 0.4027 -0.8094
vn 0.8218 0.4217 0.3831
vn -0.4316 0.4791 0.7643
vn -0.7970 0.4323 -0.4217
vn 0.8299 0.3943 -0.3947
vn 0.4441 0.4568 0.7708
vn -0.7845 0.4624 0.4133
vn 0.1669 0.5036 -0.8477
vn 0.9328 0.3080 0.1874
vn -0.0955 0.4445 0.8907
vn -0.8263 0.5551 -0.0955
vn 0.9387 0.3172 -0.1353
vn 0.2054 0.4054 0.8908
vn -0.8263 0.5498 0.1219
vn -0.1456 0.5291 -0.8360
vn 0.8541 0.1761 -0.4893
vn 0.5638 0.2889 0.7737
vn -0.6229 0.5533 0.5530
vn -0.4723 0.4915 -0.7317
vn 0.5800 0.2378 -0.7791
vn 0.8130 0.2245 0.5373
vn -0.4643 0.5229 0.7148
vn -0.6787 0.5389 -0.4990
vn -0.2588 0.3543 -0.8986
vn 0.3921 0.0444 -0.9188
vn 0.9188 -0.1211 0.3757
vn -0.2460 0.4499 0.8585
vn -0.7051 0.5960 -0.3842
vn 0.9114 -0.1615 -0.3784
vn 0.4066 0.1433 0.9023
vn -0.7005 0.6349 0.3259
vn -0.7552 0.6017 0.2600
vn 0.3957 0.2291 0.8894
vn 0.9240 -0.0621 -0.3774
vn -0.7607 0.5702 -0.3102
vn -0.2024 0.4493 0.8701
vn 0.9369 -0.0215 0.3489
vn 0.4021 0.1179 -0.9080
vn -0.2503 0.3618 -0.8980
vn -0.9513 0.0332 0.3066
vn 0.5925 0.0459 -0.8042
vn 0.0009 0.0386 0.9993
vn -0.5901 0.0367 -0.8065
vn 0.9509 0.0226 0.3087
vn -0.5871 0.0641 -0.8070
vn 0.0005 -0.0033 1.0000
vn 0.5876 0.0631 -0.8067
vn -0.9509 0.0239 0.3085
vn 0.9510 0.0476 0.3055
s off
f 2/1/1 10/2/1 9/3/1 1/4/1
f 1/4/2 9/3/2 16/5/2 8/6/2
f 7/7/3 15/8/3 14/9/3 6/10/3
f 5/11/4 13/12/4 12/13/4 4/14/4
f 3/15/5 11/16/5 10/2/5 2/1/5
f 8/6/6 16/5/6 15/8/6 7/7/6
f 6/10/7 14/9/7 13/12/7 5/11/7
f 4/14/8 12/13/8 11/16/8 3/15/8
f 24/17/9 17/18/9 25/19/9 32/20/9
f 22/21/10 23/22/10 31/23/10 30/24/10
f 20/25/11 21/26/11 29/27/11 28/28/11
f 18/29/12 19/30/12 27/31/12 26/32/12
f 23/22/13 24/17/13 32/20/13 31/23/13
f 21/26/14 22/21/14 30/24/14 29/27/14
f 19/30/15 20/25/15 28/28/15 27/31/15
f 17/18/16 18/29/16 26/32/16 25/19/16
f 39/33/17 40/34/17 48/35/17 47/36/17
f 37/37/18 38/38/18 46/39/18 45/40/18
f 35/41/19 36/42/19 44/43/19 43/44/19
f 33/45/20 34/46/20 42/47/20 41/48/20
f 40/34/21 33/45/21 41/48/21 48/35/21
f 38/38/22 39/33/22 47/36/22 46/39/22
f 36/42/23 37/37/23 45/40/23 44/43/23
f 34/46/24 35/41/24 43/44/24 42/47/24
f 59/49/25 58/50/25 57/51/25
f 60/52/26 59/49/26 57/51/26
f 62/53/27 61/54/27 57/51/27
f 64/55/28 63/56/28 57/51/28
f 58/50/29 65/57/29 57/51/29
f 61/54/30 60/52/30 57/51/30
f 63/56/31 62/53/31 57/51/31
f 65/57/32 64/55/32 57/51/32
f 51/58/33 52/59/33 64/55/33 65/57/33
f 53/60/34 54/61/34 62/53/34 63/56/34
f 55/62/35 56/63/35 60/52/35 61/54/35
f 50/64/36 51/58/36 65/57/36 58/50/36
f 52/59/37 53/60/37 63/56/37 64/55/37
f 54/61/38 55/62/38 61/54/38 62/53/38
f 56/63/39 49/65/39 59/49/39 60/52/39
f 49/65/40 50/64/40 58/50/40 59/49/40
f 77/66/41 73/67/41 72/68/41 76/69/41
f 79/70/42 71/71/42 75/72/42 78/73/42
f 80/74/43 74/75/43 73/67/43 77/66/43
f 76/69/44 72/68/44 71/76/44 79/77/44
f 70/78/45 78/73/45 80/74/45 69/79/45
f 67/80/46 76/69/46 79/77/46 66/81/46
f 69/79/47 80/74/47 77/66/47 68/82/47
f 66/83/48 79/70/48 78/73/48 70/78/48
f 68/82/49 77/66/49 76/69/49 67/80/49
f 78/73/50 75/72/50 74/75/50 80/74/50
