# Blender v2.78 (sub 0) OBJ File: 'Low_Poly_Trees_Pack.blend'
# www.blender.org
g Pine_Tree_OneSided_l_01
v -0.070473 0.000000 -0.347582
v -0.332578 0.000000 -0.024634
v -0.098454 0.000000 0.326041
v 0.321852 0.000000 0.210250
v 0.308083 0.000000 -0.195566
v 0.273680 3.629813 0.235887
v 0.180091 7.321312 0.116816
v 0.223432 7.378453 -0.141134
v 0.287994 3.673176 -0.095448
v -0.198318 3.650885 0.034671
v -0.126105 7.257399 -0.048993
v 0.009468 7.329923 0.162077
v -0.065296 3.632488 0.326620
v 0.043612 7.373392 -0.243588
v 0.006913 3.558357 -0.225671
v 0.804138 9.021112 0.035133
v 0.578904 8.602118 0.578896
v 0.035141 9.021112 0.804130
v -0.508622 8.602118 0.578897
v -0.733856 9.021112 0.035134
v -0.508622 8.602118 -0.508629
v 0.035141 9.021112 -0.733863
v 0.578903 8.602118 -0.508630
v 3.328521 5.542918 -0.000007
v 2.353620 4.854803 2.353611
v 0.000001 5.542918 3.328513
v -2.353617 4.854803 2.353614
v -3.328518 5.542918 -0.000004
v -2.353617 4.854803 -2.353623
v 0.000001 5.542918 -3.328525
v 2.353620 4.854803 -2.353626
v 0.454679 9.982553 0.496225
v 0.000001 9.632200 0.684558
v -0.454676 9.982553 0.496225
v -0.643010 9.632200 0.041548
v -0.454676 9.982553 -0.413130
v 0.000001 9.632200 -0.601464
v 0.454679 9.982553 -0.413131
v 0.643013 9.632200 0.041547
v 1.972788 7.022038 1.972780
v 0.000002 6.323932 2.789936
v -1.972785 7.022038 1.972782
v -2.789940 6.323932 -0.000004
v -1.972785 7.022038 -1.972791
v 0.000001 6.323932 -2.789948
v 1.972788 7.022038 -1.972793
v 2.789943 6.323932 -0.000007
v -1.431120 6.204033 1.466255
v 0.017571 6.623029 -2.031194
v -1.431120 6.204033 -1.431126
v 1.466262 6.204033 1.466254
v 1.466262 6.204033 -1.431128
v 0.017571 6.623029 2.066322
v -2.031187 6.623029 0.017565
v 2.066329 6.623029 0.017563
v 0.569738 11.715162 0.024891
v 0.410158 11.418300 0.410151
v 0.024898 11.715162 0.569731
v -0.360362 11.418300 0.410151
v -0.519942 11.715162 0.024891
v -0.360362 11.418300 -0.360369
v 0.024898 11.715162 -0.519949
v 0.410158 11.418300 -0.360370
v 2.657663 8.693686 -0.000007
v 1.926127 7.975463 1.926119
v 0.000002 8.693686 2.657656
v -1.926124 7.975463 1.926121
v -2.657660 8.693686 -0.000005
v -1.926124 7.975463 -1.926131
v 0.000001 8.693686 -2.657667
v 1.926127 7.975463 -1.926132
v 0.344743 13.940604 -0.315879
v 0.475582 13.697208 -0.000006
v 0.344743 13.940604 0.315868
v 0.028869 13.697208 0.446707
v -0.287004 13.940604 0.315868
v -0.417843 13.697208 -0.000006
v -0.287004 13.940604 -0.315879
v 0.028869 13.697208 -0.446718
v 1.621107 10.348769 -1.621112
v 2.292591 9.813187 -0.000007
v 1.621107 10.348769 1.621099
v 0.000001 9.813187 2.292584
v -1.621104 10.348769 1.621100
v -2.292588 9.813187 -0.000005
v -1.621104 10.348769 -1.621110
v 0.000001 9.813187 -2.292596
v 0.334705 15.136808 -0.306683
v 0.461735 14.863738 -0.000006
v 0.334705 15.136808 0.306671
v 0.028029 14.863738 0.433700
v -0.278648 15.136808 0.306671
v -0.405678 14.863738 -0.000006
v -0.278648 15.136808 -0.306682
v 0.028029 14.863738 -0.433712
v 1.253386 12.281407 -1.253390
v 1.833551 11.660411 -0.000007
v 1.253385 12.281407 1.253378
v 0.000001 11.660411 1.833544
v -1.253383 12.281407 1.253379
v -1.833548 11.660411 -0.000005
v -1.253382 12.281407 -1.253389
v 0.000001 11.660411 -1.833556
v 0.168503 17.730568 -0.154398
v 0.232454 17.474365 -0.000006
v 0.168503 17.730568 0.154386
v 0.014111 17.474365 0.218337
v -0.140281 17.730568 0.154386
v -0.204232 17.474365 -0.000006
v -0.140281 17.730568 -0.154398
v 0.014111 17.474365 -0.218349
v 0.768077 15.651210 -0.768082
v 1.196887 15.177897 -0.000006
v 0.768077 15.651210 0.768069
v 0.000001 15.177897 1.196880
v -0.768074 15.651210 0.768070
v -1.196885 15.177897 -0.000005
v -0.768074 15.651210 -0.768081
v 0.000001 15.177897 -1.196892
v 0.011740 19.246939 -0.000006
v -0.541682 16.906275 -0.541689
v -0.766054 16.698599 -0.000006
v -0.541682 16.906275 0.541677
v 0.000001 16.698599 0.766050
v 0.541684 16.906275 0.541677
v 0.766057 16.698599 -0.000006
v 0.541684 16.906275 -0.541689
v 0.231298 18.017572 -0.231303
v 0.327104 17.928894 -0.000006
v 0.231298 18.017572 0.231291
v 0.000001 17.928894 0.327097
v -0.231296 18.017572 0.231291
v -0.327102 17.928894 -0.000006
v -0.231296 18.017572 -0.231303
v 0.000001 17.928894 -0.327109
v 0.000001 16.698599 -0.766061
v 0.203542 16.470415 -0.186502
v 0.280791 16.304356 -0.000006
v 0.203542 16.470415 0.186490
v 0.017045 16.304356 0.263740
v -0.169451 16.470415 0.186491
v -0.246701 16.304356 -0.000006
v -0.169451 16.470415 -0.186502
v 0.017045 16.304356 -0.263752
v 1.096060 13.883383 -1.096064
v 1.603981 13.567958 -0.000007
v 1.096060 13.883383 1.096052
v 0.000001 13.567958 1.603974
v -1.096056 13.883383 1.096053
v -1.603979 13.567958 -0.000005
v -1.096056 13.883383 -1.096063
v 0.000001 13.567958 -1.603986
v 0.677886 6.853113 -0.621126
v 0.935162 6.374511 -0.000006
v 0.677886 6.853113 0.621114
v 0.056766 6.374511 0.878390
v -0.564354 6.853113 0.621114
v -0.821631 6.374511 -0.000005
v -0.564354 6.853113 -0.621126
v 0.056766 6.374511 -0.878402
v 2.538512 4.197536 -2.538517
v 3.589997 3.542503 -0.000007
v 2.538512 4.197536 2.538503
v 0.000001 3.542503 3.589990
v -2.538509 4.197536 2.538505
v -3.589994 3.542503 -0.000004
v -2.538509 4.197536 -2.538515
v 0.000001 3.542503 -3.590002
v 0.028383 4.465450 2.234190
v -1.551432 4.930707 -1.579820
v -2.205813 4.465450 -0.000005
v 2.262579 4.465450 -0.000007
v 0.028383 4.465450 -2.234202
v 1.608199 4.930707 1.579808
v -1.551432 4.930707 1.579810
v 1.608199 4.930707 -1.579821
vt 0.8093 0.8892
vt 0.8055 0.9398
vt 0.8010 0.9383
vt 0.8036 0.8888
vt 0.8018 0.9898
vt 0.7982 0.9912
vt 0.7923 0.8887
vt 0.7920 0.9391
vt 0.7872 0.9391
vt 0.7863 0.8887
vt 0.7917 0.9903
vt 0.7893 0.9904
vt 0.7966 0.9397
vt 0.7980 0.8887
vt 0.7953 0.9912
vt 0.8152 0.8898
vt 0.8100 0.9399
vt 0.8052 0.9910
vt 0.5832 0.2917
vt 0.5664 0.3064
vt 0.5580 0.3058
vt 0.5592 0.2838
vt 0.5553 0.3454
vt 0.5569 0.3230
vt 0.5653 0.3234
vt 0.5801 0.3405
vt 0.5312 0.3375
vt 0.5484 0.3223
vt 0.5658 0.3149
vt 0.5880 0.3165
vt 0.5264 0.3126
vt 0.5490 0.3138
vt 0.5344 0.2885
vt 0.5495 0.3053
vt 0.6108 0.2766
vt 0.5791 0.3054
vt 0.5690 0.3047
vt 0.5706 0.2624
vt 0.5656 0.3686
vt 0.5680 0.3255
vt 0.5781 0.3256
vt 0.6069 0.3582
vt 0.5253 0.3544
vt 0.5580 0.3247
vt 0.5787 0.3155
vt 0.6212 0.3179
vt 0.5149 0.3129
vt 0.5583 0.3146
vt 0.5292 0.2727
vt 0.5589 0.3044
vt 0.5604 0.2615
vt 0.5193 0.2720
vt 0.5036 0.3114
vt 0.5142 0.3525
vt 0.6102 0.3182
vt 0.5997 0.2772
vt 0.5946 0.3575
vt 0.5536 0.3682
vt 0.6152 0.2712
vt 0.5829 0.3025
vt 0.5723 0.3020
vt 0.5726 0.2576
vt 0.5708 0.3692
vt 0.5720 0.3239
vt 0.5826 0.3237
vt 0.6139 0.3569
vt 0.5281 0.3556
vt 0.5614 0.3234
vt 0.5829 0.3131
vt 0.6275 0.3142
vt 0.5158 0.3124
vt 0.5614 0.3127
vt 0.5295 0.2698
vt 0.5618 0.3021
vt 0.6012 0.2748
vt 0.5714 0.3019
vt 0.5625 0.3014
vt 0.5640 0.2619
vt 0.5595 0.3598
vt 0.5617 0.3195
vt 0.5706 0.3197
vt 0.5977 0.3502
vt 0.5223 0.3468
vt 0.5529 0.3189
vt 0.5710 0.3108
vt 0.6106 0.3130
vt 0.5128 0.3085
vt 0.5532 0.3100
vt 0.5257 0.2713
vt 0.5537 0.3011
vt 0.6012 0.2748
vt 0.5714 0.3019
vt 0.5625 0.3014
vt 0.5640 0.2619
vt 0.5595 0.3598
vt 0.5617 0.3195
vt 0.5706 0.3197
vt 0.5977 0.3502
vt 0.5223 0.3468
vt 0.5529 0.3189
vt 0.5710 0.3108
vt 0.6106 0.3130
vt 0.5128 0.3085
vt 0.5532 0.3100
vt 0.5257 0.2713
vt 0.5537 0.3011
vt 0.6012 0.2748
vt 0.5714 0.3019
vt 0.5625 0.3014
vt 0.5640 0.2619
vt 0.5595 0.3598
vt 0.5617 0.3195
vt 0.5706 0.3197
vt 0.5977 0.3502
vt 0.5223 0.3468
vt 0.5529 0.3189
vt 0.5710 0.3108
vt 0.6106 0.3130
vt 0.5128 0.3085
vt 0.5532 0.3100
vt 0.5257 0.2713
vt 0.5537 0.3011
vt 0.6012 0.2748
vt 0.5625 0.3014
vt 0.5640 0.2619
vt 0.5595 0.3598
vt 0.5706 0.3197
vt 0.5977 0.3502
vt 0.5223 0.3468
vt 0.5617 0.3195
vt 0.5710 0.3108
vt 0.6106 0.3130
vt 0.5714 0.3019
vt 0.5128 0.3085
vt 0.5529 0.3189
vt 0.5257 0.2713
vt 0.5532 0.3100
vt 0.5537 0.3011
vt 0.5977 0.3502
vt 0.5595 0.3598
vt 0.5223 0.3468
vt 0.5128 0.3085
vt 0.5257 0.2713
vt 0.5640 0.2619
vt 0.6106 0.3130
vt 0.6012 0.2748
vt 0.6012 0.2748
vt 0.5714 0.3019
vt 0.5625 0.3014
vt 0.5640 0.2619
vt 0.5595 0.3598
vt 0.5617 0.3195
vt 0.5706 0.3197
vt 0.5977 0.3502
vt 0.5223 0.3468
vt 0.5529 0.3189
vt 0.5710 0.3108
vt 0.6106 0.3130
vt 0.5128 0.3085
vt 0.5532 0.3100
vt 0.5257 0.2713
vt 0.5537 0.3011
vt 0.5928 0.2870
vt 0.5768 0.3025
vt 0.5670 0.3022
vt 0.5671 0.2804
vt 0.5662 0.3446
vt 0.5667 0.3223
vt 0.5765 0.3223
vt 0.5921 0.3387
vt 0.5405 0.3379
vt 0.5569 0.3220
vt 0.5767 0.3124
vt 0.5987 0.3129
vt 0.5346 0.3120
vt 0.5570 0.3121
vt 0.5412 0.2862
vt 0.5572 0.3022
vt 0.5673 0.2585
vt 0.5253 0.2702
vt 0.5122 0.3118
vt 0.5240 0.3539
vt 0.6206 0.3135
vt 0.6088 0.2715
vt 0.6076 0.3551
vt 0.5657 0.3669
vn -0.7768 0.0386 -0.6285
vn -0.7717 0.0026 -0.6359
vn 0.2625 -0.0029 0.9649
vn 0.2584 0.0377 0.9653
vn 0.3895 0.0252 -0.9207
vn 0.4519 -0.0059 -0.8921
vn -0.8680 0.0159 0.4964
vn -0.8831 0.0337 0.4679
vn 1.0000 0.0093 0.0013
vn 0.9946 0.0235 0.1013
vn 0.4937 0.4286 0.7567
vn 0.4949 0.4373 -0.7509
vn -0.4957 0.4429 -0.7470
vn 0.7529 0.4343 -0.4945
vn 0.7567 0.4286 0.4937
vn -0.7470 0.4429 -0.4957
vn -0.7509 0.4373 0.4949
vn -0.4945 0.4343 0.7529
vn -0.1284 0.5153 0.8473
vn 0.8428 0.5241 -0.1227
vn 0.1185 0.5305 -0.8393
vn 0.8440 0.5218 0.1242
vn 0.1284 0.5153 0.8473
vn -0.1185 0.5305 -0.8393
vn -0.8428 0.5241 -0.1227
vn -0.8440 0.5218 0.1242
vn -0.4400 0.6845 0.5812
vn -0.5790 0.6865 0.4397
vn -0.5723 0.6928 -0.4388
vn 0.5879 0.6781 0.4410
vn 0.5812 0.6845 -0.4400
vn -0.4388 0.6928 -0.5723
vn 0.4397 0.6865 -0.5790
vn 0.4410 0.6781 0.5879
vn 0.4948 0.5074 0.7055
vn 0.4958 0.5150 -0.6993
vn -0.4964 0.5203 -0.6949
vn 0.7011 0.5128 -0.4955
vn 0.7055 0.5074 0.4948
vn -0.6949 0.5203 -0.4964
vn -0.6993 0.5150 0.4958
vn -0.4955 0.5128 0.7011
vn 0.8909 0.4047 0.2063
vn -0.2026 0.4115 -0.8886
vn -0.8872 0.4158 -0.2003
vn 0.2040 0.4090 -0.8895
vn 0.8909 0.4047 -0.2063
vn -0.8872 0.4158 0.2003
vn -0.2026 0.4115 0.8886
vn 0.2040 0.4090 0.8895
vn 0.9065 0.3735 0.1969
vn -0.1911 0.3818 -0.9043
vn -0.9027 0.3873 -0.1873
vn 0.1931 0.3789 -0.9051
vn 0.9065 0.3735 -0.1969
vn -0.9027 0.3873 0.1873
vn -0.1911 0.3818 0.9043
vn 0.1931 0.3789 0.9051
vn 0.9118 0.3549 0.2064
vn -0.2011 0.3609 -0.9107
vn -0.9099 0.3647 -0.1977
vn 0.2030 0.3587 -0.9111
vn 0.9118 0.3549 -0.2064
vn -0.9099 0.3647 0.1977
vn -0.2011 0.3609 0.9107
vn 0.2030 0.3587 0.9111
vn 0.9280 0.2220 0.2993
vn -0.2947 0.2326 -0.9268
vn -0.9262 0.2381 -0.2924
vn 0.2969 0.2275 -0.9274
vn 0.9280 0.2220 -0.2993
vn -0.9262 0.2381 0.2924
vn -0.2947 0.2326 0.9268
vn 0.2969 0.2275 0.9274
vn -0.2528 0.3251 -0.9113
vn -0.9113 0.3251 0.2528
vn 0.2528 0.3251 0.9113
vn 0.2528 0.3251 -0.9113
vn 0.9113 0.3251 -0.2528
vn -0.9113 0.3251 -0.2528
vn -0.2528 0.3251 0.9113
vn 0.9113 0.3251 0.2528
vn 0.8787 0.4081 0.2477
vn -0.2447 0.4139 -0.8768
vn -0.8757 0.4172 -0.2429
vn 0.2460 0.4114 -0.8776
vn 0.8787 0.4081 -0.2477
vn -0.8757 0.4172 0.2429
vn -0.2447 0.4139 0.8768
vn 0.2460 0.4114 0.8776
vn 0.8413 0.5265 0.1227
vn -0.1165 0.5360 -0.8362
vn -0.8322 0.5430 -0.1118
vn 0.1180 0.5337 -0.8374
vn 0.8413 0.5265 -0.1227
vn -0.8322 0.5430 0.1118
vn -0.1165 0.5360 0.8362
vn 0.1180 0.5337 0.8374
vn 0.0171 0.8163 0.5774
vn -0.0168 0.8166 0.5769
vn -0.5692 0.8221 0.0122
vn 0.5853 0.8106 -0.0219
vn 0.0171 0.8163 -0.5774
vn -0.5692 0.8221 -0.0122
vn -0.0168 0.8166 -0.5769
vn 0.5853 0.8106 0.0219
s off
f 2/1/1 10/2/1 15/3/1 1/4/1
f 10/2/2 11/5/2 14/6/2 15/3/2
f 4/7/3 6/8/3 13/9/3 3/10/3
f 6/8/4 7/11/4 12/12/4 13/9/4
f 1/4/5 15/3/5 9/13/5 5/14/5
f 15/3/6 14/6/6 8/15/6 9/13/6
f 3/16/7 13/17/7 10/2/7 2/1/7
f 13/17/8 12/18/8 11/5/8 10/2/8
f 5/14/9 9/13/9 6/8/9 4/7/9
f 9/13/10 8/15/10 7/11/10 6/8/10
f 51/19/11 17/20/11 18/21/11 53/22/11
f 49/23/12 22/24/12 23/25/12 52/26/12
f 50/27/13 21/28/13 22/24/13 49/23/13
f 52/26/14 23/25/14 16/29/14 55/30/14
f 55/30/15 16/29/15 17/20/15 51/19/15
f 54/31/16 20/32/16 21/28/16 50/27/16
f 48/33/17 19/34/17 20/32/17 54/31/17
f 53/22/18 18/21/18 19/34/18 48/33/18
f 41/35/19 33/36/19 34/37/19 42/38/19
f 46/39/20 38/40/20 39/41/20 47/42/20
f 45/43/21 37/44/21 38/40/21 46/39/21
f 47/42/22 39/41/22 32/45/22 40/46/22
f 40/46/23 32/45/23 33/36/23 41/35/23
f 44/47/24 36/48/24 37/44/24 45/43/24
f 43/49/25 35/50/25 36/48/25 44/47/25
f 42/38/26 34/37/26 35/50/26 43/49/26
f 26/51/27 53/22/27 48/33/27 27/52/27
f 27/52/28 48/33/28 54/31/28 28/53/28
f 28/53/29 54/31/29 50/27/29 29/54/29
f 24/55/30 55/30/30 51/19/30 25/56/30
f 31/57/31 52/26/31 55/30/31 24/55/31
f 29/54/32 50/27/32 49/23/32 30/58/32
f 30/58/33 49/23/33 52/26/33 31/57/33
f 25/56/34 51/19/34 53/22/34 26/51/34
f 65/59/35 57/60/35 58/61/35 66/62/35
f 70/63/36 62/64/36 63/65/36 71/66/36
f 69/67/37 61/68/37 62/64/37 70/63/37
f 71/66/38 63/65/38 56/69/38 64/70/38
f 64/70/39 56/69/39 57/60/39 65/59/39
f 68/71/40 60/72/40 61/68/40 69/67/40
f 67/73/41 59/74/41 60/72/41 68/71/41
f 66/62/42 58/61/42 59/74/42 67/73/42
f 81/75/43 73/76/43 74/77/43 82/78/43
f 86/79/44 78/80/44 79/81/44 87/82/44
f 85/83/45 77/84/45 78/80/45 86/79/45
f 87/82/46 79/81/46 72/85/46 80/86/46
f 80/86/47 72/85/47 73/76/47 81/75/47
f 84/87/48 76/88/48 77/84/48 85/83/48
f 83/89/49 75/90/49 76/88/49 84/87/49
f 82/78/50 74/77/50 75/90/50 83/89/50
f 97/91/51 89/92/51 90/93/51 98/94/51
f 102/95/52 94/96/52 95/97/52 103/98/52
f 101/99/53 93/100/53 94/96/53 102/95/53
f 103/98/54 95/97/54 88/101/54 96/102/54
f 96/102/55 88/101/55 89/92/55 97/91/55
f 100/103/56 92/104/56 93/100/56 101/99/56
f 99/105/57 91/106/57 92/104/57 100/103/57
f 98/94/58 90/93/58 91/106/58 99/105/58
f 113/107/59 105/108/59 106/109/59 114/110/59
f 118/111/60 110/112/60 111/113/60 119/114/60
f 117/115/61 109/116/61 110/112/61 118/111/61
f 119/114/62 111/113/62 104/117/62 112/118/62
f 112/118/63 104/117/63 105/108/63 113/107/63
f 116/119/64 108/120/64 109/116/64 117/115/64
f 115/121/65 107/122/65 108/120/65 116/119/65
f 114/110/66 106/109/66 107/122/66 115/121/66
f 129/123/67 120/124/67 130/125/67
f 134/126/68 120/127/68 135/128/68
f 133/129/69 120/130/69 134/126/69
f 135/128/70 120/131/70 128/132/70
f 128/132/71 120/133/71 129/123/71
f 132/134/72 120/135/72 133/129/72
f 131/136/73 120/137/73 132/134/73
f 130/125/74 120/138/74 131/136/74
f 134/126/75 135/128/75 136/139/75 121/140/75
f 132/134/76 133/129/76 122/141/76 123/142/76
f 130/125/77 131/136/77 124/143/77 125/144/77
f 135/128/78 128/132/78 127/145/78 136/139/78
f 128/132/79 129/123/79 126/146/79 127/145/79
f 133/129/80 134/126/80 121/140/80 122/141/80
f 131/136/81 132/134/81 123/142/81 124/143/81
f 129/123/82 130/125/82 125/144/82 126/146/82
f 146/147/83 138/148/83 139/149/83 147/150/83
f 151/151/84 143/152/84 144/153/84 152/154/84
f 150/155/85 142/156/85 143/152/85 151/151/85
f 152/154/86 144/153/86 137/157/86 145/158/86
f 145/158/87 137/157/87 138/148/87 146/147/87
f 149/159/88 141/160/88 142/156/88 150/155/88
f 148/161/89 140/162/89 141/160/89 149/159/89
f 147/150/90 139/149/90 140/162/90 148/161/90
f 172/163/91 154/164/91 155/165/91 174/166/91
f 170/167/92 159/168/92 160/169/92 173/170/92
f 171/171/93 158/172/93 159/168/93 170/167/93
f 173/170/94 160/169/94 153/173/94 176/174/94
f 176/174/95 153/173/95 154/164/95 172/163/95
f 175/175/96 157/176/96 158/172/96 171/171/96
f 169/177/97 156/178/97 157/176/97 175/175/97
f 174/166/98 155/165/98 156/178/98 169/177/98
f 163/179/99 174/166/99 169/177/99 164/180/99
f 164/180/100 169/177/100 175/175/100 165/181/100
f 165/181/101 175/175/101 171/171/101 166/182/101
f 161/183/102 176/174/102 172/163/102 162/184/102
f 168/185/103 173/170/103 176/174/103 161/183/103
f 166/182/104 171/171/104 170/167/104 167/186/104
f 167/186/105 170/167/105 173/170/105 168/185/105
f 162/184/106 172/163/106 174/166/106 163/179/106
