# Blender v2.78 (sub 0) OBJ File: 'Low_Poly_Trees_Pack.blend'
# www.blender.org
g Pine_Tree_OneSided_m_10
v 0.000000 0.000000 -0.206483
v -0.194911 0.000000 -0.064872
v -0.120461 0.000000 0.164259
v 0.120461 0.000000 0.164259
v 0.194911 0.000000 -0.064872
v 0.005628 2.104820 -0.116374
v -0.117533 2.105690 -0.026833
v -0.070257 2.105773 0.117847
v 0.082047 2.104955 0.117717
v 0.128927 2.104364 -0.027040
v -0.156034 0.487722 -0.036530
v -0.095738 0.487694 0.149042
v 0.159680 0.487739 -0.036530
v 0.001823 0.487750 -0.151220
v 0.099384 0.487704 0.149042
v -0.609151 0.839534 -0.916518
v -1.280328 0.449394 0.008333
v -0.303464 0.882458 1.022236
v 0.796123 0.898868 0.926861
v 1.207877 0.486189 0.001870
v 0.463697 0.834650 -0.925661
v -0.392328 1.913418 -0.561704
v -0.726652 1.925194 -0.062052
v -0.218778 1.926000 0.535284
v 0.398093 1.917711 0.442068
v 0.589358 1.907648 -0.063851
v 0.219365 1.906051 -0.591454
v -0.678813 1.236129 -1.096088
v -1.235505 1.712783 0.008072
v -0.423547 1.471123 1.082070
v 0.835041 1.338062 1.008638
v 1.293934 1.444510 0.045470
v 0.540718 1.127246 -1.163294
v 0.029630 3.376631 -0.095491
v -0.053696 3.380302 0.033127
v 0.073382 3.376675 0.163187
v 0.227622 3.371161 0.163022
v 0.275247 3.368539 0.032779
v 0.176057 3.371428 -0.088843
v -0.528441 2.551396 -0.732147
v -1.127532 2.170174 0.065020
v -0.281211 2.486299 0.951495
v 0.684369 2.525294 0.870751
v 1.071985 2.266131 0.078042
v 0.412772 2.569126 -0.736173
v 0.192226 4.183346 -0.100737
v 0.105386 4.188408 0.032615
v 0.239022 4.181832 0.167750
v 0.400679 4.173140 0.167789
v 0.450130 4.169959 0.032704
v 0.345706 4.175189 -0.093639
v -0.266395 3.440904 -0.623930
v -0.550594 3.751719 0.010940
v -0.069571 3.353546 0.771825
v 0.691458 3.209143 0.683426
v 0.975790 3.442974 0.018491
v 0.483128 3.314989 -0.641935
v 0.578414 5.701841 0.133310
v 0.175800 4.624906 -0.205070
v 0.522557 4.603288 -0.246287
v 0.711298 4.586924 0.060846
v 0.611638 4.592671 0.329991
v 0.273064 4.615597 0.329882
v -0.002313 4.634950 0.060596
vt 0.8058 0.9183
vt 0.8058 0.9769
vt 0.7933 0.9769
vt 0.7938 0.9182
vt 0.8429 0.9181
vt 0.8424 0.9774
vt 0.8302 0.9775
vt 0.8304 0.9179
vt 0.8180 0.9181
vt 0.8181 0.9772
vt 0.7810 0.9772
vt 0.7815 0.9179
vt 0.8307 0.8954
vt 0.8184 0.8959
vt 0.7934 0.8963
vt 0.7810 0.8956
vt 0.8060 0.8964
vt 0.8430 0.8959
vt 0.9170 0.3901
vt 0.9343 0.4167
vt 0.9215 0.4399
vt 0.8976 0.4364
vt 0.9602 0.3901
vt 0.9530 0.4175
vt 0.9162 0.4898
vt 0.9335 0.4610
vt 0.9544 0.4583
vt 0.9633 0.4813
vt 0.9820 0.4353
vt 0.9644 0.4348
vt 0.9660 0.4780
vt 0.9455 0.4520
vt 0.9506 0.4379
vt 0.9829 0.4363
vt 0.9001 0.4369
vt 0.9183 0.3921
vt 0.9330 0.4282
vt 0.9270 0.4421
vt 0.9574 0.3918
vt 0.9436 0.4281
vt 0.9196 0.4878
vt 0.9341 0.4534
vt 0.8987 0.4369
vt 0.9183 0.3908
vt 0.9401 0.4366
vt 0.9376 0.4418
vt 0.9594 0.3905
vt 0.9802 0.4341
vt 0.9467 0.4406
vt 0.9442 0.4366
vt 0.9635 0.4798
vt 0.9445 0.4456
vt 0.9176 0.4903
vt 0.9401 0.4465
vt 0.9306 0.6104
vt 0.9337 0.5811
vt 0.9472 0.5757
vt 0.9733 0.5896
vt 0.9147 0.5338
vt 0.9621 0.5165
vt 0.9445 0.5520
vt 0.9295 0.5585
vt 0.9530 0.5621
vt 0.9382 0.5687
vt 0.9229 0.5737
vt 0.8901 0.5858
vt 0.9892 0.5452
vn -0.9506 0.0209 0.3096
vn 0.5873 0.0160 -0.8092
vn 0.0004 0.0193 0.9998
vn -0.5878 0.0188 -0.8088
vn 0.9498 0.0507 0.3086
vn -0.5852 0.0935 -0.8055
vn -0.0000 0.0312 0.9995
vn 0.5854 0.0891 -0.8058
vn -0.9495 0.0578 0.3085
vn 0.9511 0.0162 0.3085
vn 0.0962 0.4362 0.8947
vn 0.8743 0.4194 0.2445
vn -0.8149 0.3015 -0.4951
vn 0.7861 0.3285 -0.5236
vn -0.7383 0.3186 0.5945
vn -0.0043 0.4280 -0.9038
vn 0.0875 0.4093 0.9082
vn 0.8070 0.4214 0.4138
vn -0.6837 0.4860 -0.5443
vn 0.7326 0.3860 -0.5606
vn -0.6534 0.4578 0.6029
vn 0.0546 0.4025 0.9138
vn 0.7901 0.2503 -0.5595
vn -0.0006 0.3662 -0.9305
vn -0.7079 0.4532 0.5417
vn 0.8932 0.2986 0.3363
vn -0.7864 0.4839 -0.3841
vn -0.0090 0.3145 -0.9492
vn 0.1185 0.2751 0.9541
vn 0.9347 0.0890 0.3442
vn -0.7392 0.4373 -0.5122
vn 0.8474 0.1344 -0.5136
vn -0.6538 0.3088 0.6908
vn -0.6590 0.3912 0.6424
vn 0.0115 0.1749 0.9845
vn 0.7947 0.1780 -0.5802
vn -0.7118 0.4611 -0.5297
vn 0.8955 0.1725 0.4103
vn -0.0912 0.3294 -0.9398
vn -0.0198 0.3055 -0.9520
s off
f 12/1/1 8/2/1 7/3/1 11/4/1
f 14/5/2 6/6/2 10/7/2 13/8/2
f 15/9/3 9/10/3 8/2/3 12/1/3
f 11/4/4 7/3/4 6/11/4 14/12/4
f 5/13/5 13/8/5 15/9/5 4/14/5
f 2/15/6 11/4/6 14/12/6 1/16/6
f 4/14/7 15/9/7 12/1/7 3/17/7
f 1/18/8 14/5/8 13/8/8 5/13/8
f 3/17/9 12/1/9 11/4/9 2/15/9
f 13/8/10 10/7/10 9/10/10 15/9/10
f 19/19/11 25/20/11 24/21/11 18/22/11
f 20/23/12 26/24/12 25/20/12 19/19/12
f 17/25/13 23/26/13 22/27/13 16/28/13
f 21/29/14 27/30/14 26/24/14 20/23/14
f 18/22/15 24/21/15 23/26/15 17/25/15
f 28/31/16 34/32/16 39/33/16 33/34/16
f 30/35/17 31/36/17 37/37/17 36/38/17
f 31/36/18 32/39/18 38/40/18 37/37/18
f 28/31/19 29/41/19 35/42/19 34/32/19
f 32/39/20 33/34/20 39/33/20 38/40/20
f 29/41/21 30/35/21 36/38/21 35/42/21
f 42/43/22 43/44/22 49/45/22 48/46/22
f 44/47/23 45/48/23 51/49/23 50/50/23
f 45/48/24 40/51/24 46/52/24 51/49/24
f 41/53/25 42/43/25 48/46/25 47/54/25
f 43/44/26 44/47/26 50/50/26 49/45/26
f 40/51/27 41/53/27 47/54/27 46/52/27
f 52/55/28 59/56/28 60/57/28 57/58/28
f 54/59/29 55/60/29 62/61/29 63/62/29
f 62/61/30 61/63/30 58/64/30
f 59/56/31 64/65/31 58/64/31
f 61/63/32 60/57/32 58/64/32
f 64/65/33 63/62/33 58/64/33
f 53/66/34 54/59/34 63/62/34 64/65/34
f 62/61/35 58/64/35 63/62/35
f 56/67/36 57/58/36 60/57/36 61/63/36
f 52/55/37 53/66/37 64/65/37 59/56/37
f 55/60/38 56/67/38 61/63/38 62/61/38
f 60/57/39 59/56/39 58/64/39
f 22/27/40 27/30/40 21/29/40 16/28/40
