# Blender v2.78 (sub 0) OBJ File: 'Low_Poly_Trees_Pack.blend'
# www.blender.org
g Pine_Tree_OneSided_l_03
v 0.454679 7.900629 0.496230
v 0.000002 7.899911 0.684564
v -0.454676 7.900046 0.496230
v -0.643010 7.900957 0.041553
v -0.454676 7.902110 -0.413125
v 0.000001 7.902829 -0.601458
v 0.454679 7.902692 -0.413125
v 0.643013 7.901781 0.041553
v 1.972788 4.566999 1.972786
v 0.000002 3.868928 2.789941
v -1.972785 4.566150 1.972786
v -2.789940 3.868564 0.000000
v -1.972785 4.566150 -1.972786
v 0.000001 3.868928 -2.789942
v 1.972788 4.566999 -1.972787
v 2.789943 3.869293 -0.000000
v 0.569738 10.347101 0.024896
v 0.410158 9.961651 0.410156
v 0.024898 10.346609 0.569736
v -0.360362 9.962396 0.410156
v -0.519942 10.348206 0.024896
v -0.360362 9.963808 -0.360364
v 0.024898 10.348698 -0.519944
v 0.410158 9.963062 -0.360364
v 2.657663 6.409329 0.000000
v 1.926127 5.590450 1.926125
v 0.000002 6.408180 2.657661
v -1.926124 5.589152 1.926125
v -2.657660 6.407033 -0.000000
v -1.926124 5.589152 -1.926125
v 0.000001 6.408180 -2.657661
v 1.926127 5.590451 -1.926125
v 0.344743 13.217534 -0.315874
v 0.475582 12.909124 -0.000000
v 0.344743 13.217534 0.315873
v 0.028869 12.909882 0.446712
v -0.287004 13.218634 0.315873
v -0.417843 12.910639 -0.000000
v -0.287004 13.218634 -0.315874
v 0.028869 12.909882 -0.446713
v 1.621107 8.443099 -1.621105
v 2.579605 7.747663 -0.000000
v 1.621107 8.443099 1.621105
v 0.000002 7.746163 2.579603
v -1.621104 8.440943 1.621105
v -2.579603 7.744664 -0.000000
v -1.621104 8.440943 -1.621105
v 0.000001 7.746163 -2.579604
v 0.334705 14.695389 -0.306677
v 0.461735 14.364293 -0.000000
v 0.334705 14.695389 0.306676
v 0.028029 14.365076 0.433706
v -0.278648 14.696523 0.306676
v -0.405678 14.365857 -0.000000
v -0.278648 14.696523 -0.306677
v 0.028029 14.365076 -0.433706
v 1.253386 10.967632 -1.253384
v 2.297536 10.094868 -0.000000
v 1.253386 10.967632 1.253383
v 0.000001 10.092948 2.297534
v -1.253382 10.965274 1.253383
v -2.297534 10.091028 -0.000000
v -1.253382 10.965274 -1.253384
v 0.000001 10.092948 -2.297535
v 0.168503 17.586544 -0.154392
v 0.232454 17.326462 -0.000000
v 0.168503 17.586544 0.154391
v 0.014111 17.326530 0.218343
v -0.140280 17.586641 0.154391
v -0.204232 17.326601 -0.000000
v -0.140280 17.586641 -0.154392
v 0.014111 17.326530 -0.218343
v 0.768077 15.250050 -0.768076
v 1.196887 14.676848 -0.000000
v 0.768077 15.250050 0.768075
v 0.000001 14.675281 1.196885
v -0.768074 15.247955 0.768075
v -1.196885 14.673714 -0.000000
v -0.768074 15.247955 -0.768076
v 0.000001 14.675281 -1.196886
v 0.011740 18.998592 -0.000000
v -0.541681 16.693474 -0.541683
v -0.766054 16.468184 -0.000000
v -0.541681 16.693474 0.541682
v 0.000001 16.469315 0.766055
v 0.541684 16.695095 0.541682
v 0.766057 16.470448 -0.000000
v 0.541684 16.695095 -0.541683
v 0.231298 17.866924 -0.231297
v 0.327105 17.780169 -0.000000
v 0.231298 17.866924 0.231297
v 0.000001 17.779648 0.327103
v -0.231296 17.866182 0.231297
v -0.327102 17.779125 -0.000000
v -0.231296 17.866182 -0.231297
v 0.000001 17.779648 -0.327104
v 0.000001 16.469315 -0.766056
v 0.203542 16.250250 -0.186497
v 0.280791 16.064440 -0.000000
v 0.203542 16.250250 0.186496
v 0.017045 16.064613 0.263745
v -0.169451 16.250498 0.186496
v -0.246700 16.064787 -0.000000
v -0.169451 16.250498 -0.186497
v 0.017045 16.064613 -0.263746
v 1.096060 13.037630 -1.096058
v 1.603981 12.633258 -0.000000
v 1.096060 13.037630 1.096058
v 0.000001 12.631482 1.603980
v -1.096056 13.035115 1.096057
v -1.603979 12.629704 -0.000000
v -1.096056 13.035115 -1.096058
v 0.000001 12.631482 -1.603980
v -0.070473 0.000000 -0.347582
v -0.332578 0.000000 -0.024634
v -0.098454 0.000000 0.326041
v 0.321852 0.000000 0.210250
v 0.308083 0.000000 -0.195566
v 0.273680 3.765712 0.235887
v 0.180091 8.794636 0.116816
v 0.223432 8.879724 -0.141134
v 0.287994 3.816693 -0.095448
v -0.198318 3.790870 0.034671
v -0.126105 8.699448 -0.048993
v 0.009468 8.808056 0.162077
v -0.065296 3.768912 0.326620
v 0.043612 8.872256 -0.243588
v 0.006913 3.683160 -0.225671
vt 0.9815 0.4032
vt 0.9523 0.4298
vt 0.9430 0.4291
vt 0.9445 0.3901
vt 0.9399 0.4881
vt 0.9421 0.4483
vt 0.9514 0.4484
vt 0.9780 0.4785
vt 0.9027 0.4749
vt 0.9328 0.4476
vt 0.9520 0.4391
vt 0.9911 0.4413
vt 0.8931 0.4367
vt 0.9331 0.4382
vt 0.9063 0.3996
vt 0.9337 0.4289
vt 0.9857 0.3982
vt 0.9558 0.4271
vt 0.9461 0.4266
vt 0.9464 0.3857
vt 0.9447 0.4886
vt 0.9458 0.4468
vt 0.9555 0.4467
vt 0.9844 0.4773
vt 0.9053 0.4760
vt 0.9360 0.4464
vt 0.9558 0.4369
vt 0.9969 0.4379
vt 0.8940 0.4362
vt 0.9360 0.4365
vt 0.9066 0.3969
vt 0.9363 0.4267
vt 0.9727 0.4015
vt 0.9452 0.4266
vt 0.9371 0.4261
vt 0.9384 0.3896
vt 0.9343 0.4799
vt 0.9363 0.4428
vt 0.9445 0.4430
vt 0.9695 0.4711
vt 0.9000 0.4680
vt 0.9281 0.4423
vt 0.9448 0.4348
vt 0.9814 0.4368
vt 0.8912 0.4327
vt 0.9285 0.4340
vt 0.9031 0.3984
vt 0.9289 0.4258
vt 0.9727 0.4015
vt 0.9452 0.4266
vt 0.9371 0.4261
vt 0.9384 0.3896
vt 0.9343 0.4799
vt 0.9363 0.4428
vt 0.9445 0.4430
vt 0.9695 0.4711
vt 0.9000 0.4680
vt 0.9281 0.4423
vt 0.9448 0.4348
vt 0.9814 0.4368
vt 0.8912 0.4327
vt 0.9285 0.4340
vt 0.9031 0.3984
vt 0.9289 0.4258
vt 0.9727 0.4015
vt 0.9452 0.4266
vt 0.9371 0.4261
vt 0.9384 0.3896
vt 0.9343 0.4799
vt 0.9363 0.4428
vt 0.9445 0.4430
vt 0.9695 0.4711
vt 0.9000 0.4680
vt 0.9281 0.4423
vt 0.9448 0.4348
vt 0.9814 0.4368
vt 0.8912 0.4327
vt 0.9285 0.4340
vt 0.9031 0.3984
vt 0.9289 0.4258
vt 0.9727 0.4015
vt 0.9371 0.4261
vt 0.9384 0.3896
vt 0.9343 0.4799
vt 0.9445 0.4430
vt 0.9695 0.4711
vt 0.9000 0.4680
vt 0.9363 0.4428
vt 0.9448 0.4348
vt 0.9814 0.4368
vt 0.9452 0.4266
vt 0.8912 0.4327
vt 0.9281 0.4423
vt 0.9031 0.3984
vt 0.9285 0.4340
vt 0.9289 0.4258
vt 0.9695 0.4711
vt 0.9343 0.4799
vt 0.9000 0.4680
vt 0.8912 0.4327
vt 0.9031 0.3984
vt 0.9384 0.3896
vt 0.9814 0.4368
vt 0.9727 0.4015
vt 0.9727 0.4015
vt 0.9452 0.4266
vt 0.9371 0.4261
vt 0.9384 0.3896
vt 0.9343 0.4799
vt 0.9363 0.4428
vt 0.9445 0.4430
vt 0.9695 0.4711
vt 0.9000 0.4680
vt 0.9281 0.4423
vt 0.9448 0.4348
vt 0.9814 0.4368
vt 0.8912 0.4327
vt 0.9285 0.4340
vt 0.9031 0.3984
vt 0.9289 0.4258
vt 0.8093 0.8892
vt 0.8055 0.9398
vt 0.8010 0.9383
vt 0.8036 0.8888
vt 0.8018 0.9898
vt 0.7982 0.9912
vt 0.7923 0.8887
vt 0.7920 0.9391
vt 0.7872 0.9391
vt 0.7863 0.8887
vt 0.7917 0.9903
vt 0.7893 0.9904
vt 0.7966 0.9397
vt 0.7980 0.8887
vt 0.7953 0.9912
vt 0.8152 0.8898
vt 0.8100 0.9399
vt 0.8052 0.9910
vn -0.2223 0.4631 0.8580
vn 0.8541 0.4722 -0.2179
vn 0.2155 0.4776 -0.8517
vn 0.8556 0.4686 0.2200
vn 0.2221 0.4631 0.8580
vn -0.2157 0.4776 -0.8517
vn -0.8541 0.4722 -0.2179
vn -0.8556 0.4686 0.2199
vn 0.5078 0.4178 0.7533
vn 0.5096 0.4248 -0.7483
vn -0.5108 0.4294 -0.7448
vn 0.7499 0.4226 -0.5090
vn 0.7532 0.4178 0.5081
vn -0.7449 0.4294 -0.5106
vn -0.7483 0.4247 0.5096
vn -0.5091 0.4226 0.7499
vn 0.8835 0.3426 0.3194
vn -0.3158 0.3485 -0.8825
vn -0.8821 0.3513 -0.3139
vn 0.3175 0.3454 -0.8831
vn 0.8835 0.3426 -0.3194
vn -0.8821 0.3513 0.3139
vn -0.3158 0.3485 0.8825
vn 0.3175 0.3454 0.8831
vn 0.8590 0.3411 0.3817
vn -0.3756 0.3486 -0.8587
vn -0.8586 0.3515 -0.3731
vn 0.3792 0.3440 -0.8590
vn 0.8590 0.3411 -0.3817
vn -0.8586 0.3515 0.3731
vn -0.3756 0.3486 0.8587
vn 0.3792 0.3440 0.8590
vn 0.9255 0.3160 0.2089
vn -0.2039 0.3213 -0.9248
vn -0.9244 0.3247 -0.2001
vn 0.2051 0.3194 -0.9251
vn 0.9255 0.3160 -0.2089
vn -0.9244 0.3247 0.2001
vn -0.2039 0.3213 0.9248
vn 0.2051 0.3194 0.9251
vn 0.9255 0.2395 0.2935
vn -0.2889 0.2507 -0.9239
vn -0.9233 0.2565 -0.2859
vn 0.2905 0.2454 -0.9249
vn 0.9255 0.2395 -0.2935
vn -0.9233 0.2565 0.2859
vn -0.2889 0.2507 0.9239
vn 0.2905 0.2454 0.9249
vn -0.2555 0.3085 -0.9163
vn -0.9165 0.3084 0.2550
vn 0.2547 0.3085 0.9165
vn 0.2547 0.3085 -0.9165
vn 0.9163 0.3086 -0.2552
vn -0.9165 0.3084 -0.2550
vn -0.2555 0.3085 0.9163
vn 0.9163 0.3086 0.2552
vn 0.9054 0.3373 0.2579
vn -0.2553 0.3422 -0.9043
vn -0.9038 0.3450 -0.2533
vn 0.2560 0.3401 -0.9049
vn 0.9054 0.3373 -0.2579
vn -0.9038 0.3450 0.2533
vn -0.2553 0.3422 0.9043
vn 0.2560 0.3401 0.9049
vn -0.7765 0.0372 -0.6290
vn -0.7718 0.0019 -0.6358
vn 0.2625 -0.0028 0.9649
vn 0.2586 0.0277 0.9656
vn 0.3891 0.0243 -0.9209
vn 0.4517 -0.0043 -0.8922
vn -0.8680 0.0153 0.4964
vn -0.8836 0.0247 0.4676
vn 1.0000 0.0090 0.0014
vn 0.9947 0.0172 0.1013
s off
f 10/1/1 2/2/1 3/3/1 11/4/1
f 15/5/2 7/6/2 8/7/2 16/8/2
f 14/9/3 6/10/3 7/6/3 15/5/3
f 16/8/4 8/7/4 1/11/4 9/12/4
f 9/12/5 1/11/5 2/2/5 10/1/5
f 13/13/6 5/14/6 6/10/6 14/9/6
f 12/15/7 4/16/7 5/14/7 13/13/7
f 11/4/8 3/3/8 4/16/8 12/15/8
f 26/17/9 18/18/9 19/19/9 27/20/9
f 31/21/10 23/22/10 24/23/10 32/24/10
f 30/25/11 22/26/11 23/22/11 31/21/11
f 32/24/12 24/23/12 17/27/12 25/28/12
f 25/28/13 17/27/13 18/18/13 26/17/13
f 29/29/14 21/30/14 22/26/14 30/25/14
f 28/31/15 20/32/15 21/30/15 29/29/15
f 27/20/16 19/19/16 20/32/16 28/31/16
f 42/33/17 34/34/17 35/35/17 43/36/17
f 47/37/18 39/38/18 40/39/18 48/40/18
f 46/41/19 38/42/19 39/38/19 47/37/19
f 48/40/20 40/39/20 33/43/20 41/44/20
f 41/44/21 33/43/21 34/34/21 42/33/21
f 45/45/22 37/46/22 38/42/22 46/41/22
f 44/47/23 36/48/23 37/46/23 45/45/23
f 43/36/24 35/35/24 36/48/24 44/47/24
f 58/49/25 50/50/25 51/51/25 59/52/25
f 63/53/26 55/54/26 56/55/26 64/56/26
f 62/57/27 54/58/27 55/54/27 63/53/27
f 64/56/28 56/55/28 49/59/28 57/60/28
f 57/60/29 49/59/29 50/50/29 58/49/29
f 61/61/30 53/62/30 54/58/30 62/57/30
f 60/63/31 52/64/31 53/62/31 61/61/31
f 59/52/32 51/51/32 52/64/32 60/63/32
f 74/65/33 66/66/33 67/67/33 75/68/33
f 79/69/34 71/70/34 72/71/34 80/72/34
f 78/73/35 70/74/35 71/70/35 79/69/35
f 80/72/36 72/71/36 65/75/36 73/76/36
f 73/76/37 65/75/37 66/66/37 74/65/37
f 77/77/38 69/78/38 70/74/38 78/73/38
f 76/79/39 68/80/39 69/78/39 77/77/39
f 75/68/40 67/67/40 68/80/40 76/79/40
f 90/81/41 81/82/41 91/83/41
f 95/84/42 81/85/42 96/86/42
f 94/87/43 81/88/43 95/84/43
f 96/86/44 81/89/44 89/90/44
f 89/90/45 81/91/45 90/81/45
f 93/92/46 81/93/46 94/87/46
f 92/94/47 81/95/47 93/92/47
f 91/83/48 81/96/48 92/94/48
f 95/84/49 96/86/49 97/97/49 82/98/49
f 93/92/50 94/87/50 83/99/50 84/100/50
f 91/83/51 92/94/51 85/101/51 86/102/51
f 96/86/52 89/90/52 88/103/52 97/97/52
f 89/90/53 90/81/53 87/104/53 88/103/53
f 94/87/54 95/84/54 82/98/54 83/99/54
f 92/94/55 93/92/55 84/100/55 85/101/55
f 90/81/56 91/83/56 86/102/56 87/104/56
f 107/105/57 99/106/57 100/107/57 108/108/57
f 112/109/58 104/110/58 105/111/58 113/112/58
f 111/113/59 103/114/59 104/110/59 112/109/59
f 113/112/60 105/111/60 98/115/60 106/116/60
f 106/116/61 98/115/61 99/106/61 107/105/61
f 110/117/62 102/118/62 103/114/62 111/113/62
f 109/119/63 101/120/63 102/118/63 110/117/63
f 108/108/64 100/107/64 101/120/64 109/119/64
f 115/121/65 123/122/65 128/123/65 114/124/65
f 123/122/66 124/125/66 127/126/66 128/123/66
f 117/127/67 119/128/67 126/129/67 116/130/67
f 119/128/68 120/131/68 125/132/68 126/129/68
f 114/124/69 128/123/69 122/133/69 118/134/69
f 128/123/70 127/126/70 121/135/70 122/133/70
f 116/136/71 126/137/71 123/122/71 115/121/71
f 126/137/72 125/138/72 124/125/72 123/122/72
f 118/134/73 122/133/73 119/128/73 117/127/73
f 122/133/74 121/135/74 120/131/74 119/128/74
