# Blender v2.78 (sub 0) OBJ File: 'Low_Poly_Trees_Pack.blend'
# www.blender.org
g Pine_Tree_OneSided_s_10
v -0.134837 0.248342 -0.264036
v -0.351064 0.338380 -0.011856
v -0.199624 0.226563 0.282118
v 0.123760 0.208898 0.283231
v 0.388750 0.286728 0.031616
v 0.205419 0.262509 -0.284789
v 0.121174 0.920543 -0.056247
v 0.085871 0.931904 -0.016280
v 0.108422 0.929497 0.036942
v 0.165154 0.915148 0.037171
v 0.207482 0.901546 -0.009276
v 0.188279 0.903577 -0.055982
v 0.008952 0.756132 -0.158024
v -0.197445 0.645248 -0.012856
v -0.037925 0.716174 0.166861
v 0.159372 0.674936 0.166719
v 0.341458 0.553273 0.002041
v 0.242322 0.707101 -0.157819
v 0.353641 1.409253 -0.036697
v 0.020248 0.007786 -0.059355
v -0.056316 0.007783 -0.021481
v -0.029698 0.007746 0.060455
v 0.061330 0.007954 0.030974
v 0.055768 0.618963 -0.024912
v 0.006348 0.627256 -0.005764
v 0.022653 0.624307 0.045925
v 0.080106 0.613973 0.016508
v -0.044140 0.197071 -0.011547
v -0.022103 0.194026 0.057121
v 0.020402 0.188944 -0.041227
v 0.053991 0.184071 0.027630
vt 0.5070 0.3246
vt 0.5262 0.2793
vt 0.5558 0.3086
vt 0.5539 0.3140
vt 0.5769 0.2597
vt 0.6073 0.2896
vt 0.5640 0.3103
vt 0.5612 0.3072
vt 0.5846 0.3445
vt 0.5621 0.3163
vt 0.5408 0.3601
vt 0.5574 0.3174
vt 0.4413 0.2687
vt 0.4892 0.2911
vt 0.4365 0.3154
vt 0.4361 0.3556
vt 0.4892 0.3324
vt 0.3949 0.2857
vt 0.3939 0.3362
vt 0.9371 0.9156
vt 0.9370 0.9695
vt 0.9232 0.9695
vt 0.9236 0.9155
vt 0.9507 0.9154
vt 0.9508 0.9697
vt 0.9094 0.9696
vt 0.9099 0.9152
vt 0.9785 0.9154
vt 0.9781 0.9699
vt 0.9232 0.8910
vt 0.9093 0.8902
vt 0.9512 0.8906
vt 0.9372 0.8912
vt 0.9786 0.8905
vn 0.0239 0.3238 0.9458
vn 0.8490 0.2069 -0.4862
vn -0.0453 0.3226 -0.9455
vn -0.6974 0.4997 0.5138
vn 0.6534 0.2261 0.7224
vn -0.6012 0.4367 -0.6692
vn 0.6792 0.0235 0.7336
vn 0.0354 0.1644 -0.9858
vn 0.0537 0.2534 0.9659
vn -0.6627 0.4596 -0.5912
vn 0.8330 -0.0368 -0.5520
vn -0.9458 0.1066 0.3066
vn 0.4024 -0.0094 0.9154
vn -0.3855 0.0621 -0.9206
vn 0.8815 -0.0602 -0.4684
vn -0.4265 0.0824 -0.9007
vn 0.3336 0.0171 0.9426
vn -0.9504 0.0446 0.3079
vn -0.7251 0.5365 0.4319
vn 0.9052 0.0357 -0.4235
s off
f 3/1/1 4/2/1 10/3/1 9/4/1
f 5/5/2 6/6/2 12/7/2 11/8/2
f 6/6/3 1/9/3 7/10/3 12/7/3
f 2/11/4 3/1/4 9/4/4 8/12/4
f 4/2/5 5/5/5 11/8/5 10/3/5
f 1/9/6 2/11/6 8/12/6 7/10/6
f 16/13/7 17/14/7 19/15/7
f 13/16/8 19/15/8 18/17/8
f 16/13/9 19/15/9 15/18/9
f 13/16/10 14/19/10 19/15/10
f 17/14/11 18/17/11 19/15/11
f 29/20/12 26/21/12 25/22/12 28/23/12
f 31/24/13 27/25/13 26/21/13 29/20/13
f 28/23/14 25/22/14 24/26/14 30/27/14
f 27/25/15 31/24/15 30/28/15 24/29/15
f 21/30/16 28/23/16 30/27/16 20/31/16
f 23/32/17 31/24/17 29/20/17 22/33/17
f 22/33/18 29/20/18 28/23/18 21/30/18
f 14/19/19 15/18/19 19/15/19
f 20/34/20 30/28/20 31/24/20 23/32/20
