# Blender v2.78 (sub 0) OBJ File: 'Low_Poly_Trees_Pack.blend'
# www.blender.org
g Pine_Tree_OneSided_s_09
v 0.007104 0.000000 -0.061333
v -0.065971 0.000000 -0.022536
v -0.040772 0.000000 0.055017
v 0.042802 -0.000000 0.037763
v 0.047318 0.606968 -0.030716
v -0.000287 0.617698 -0.009399
v 0.015240 0.613656 0.039836
v 0.067354 0.600430 0.022559
v -0.050742 0.182204 -0.011971
v -0.031106 0.180765 0.048624
v 0.007772 0.178469 -0.040287
v 0.034469 0.176140 0.031370
v -0.225317 0.300565 -0.267896
v -0.444527 0.161074 0.023791
v -0.134855 0.276745 0.348156
v 0.218455 0.291014 0.318611
v 0.360285 0.196185 0.028556
v 0.119076 0.307052 -0.269369
v 0.038378 0.897702 -0.036860
v 0.006602 0.899554 0.011934
v 0.055500 0.897148 0.061380
v 0.114651 0.893967 0.061395
v 0.132746 0.892803 0.011966
v 0.094537 0.894717 -0.034263
v -0.129434 0.626039 -0.228298
v -0.233423 0.739768 0.004003
v -0.057415 0.594075 0.282414
v 0.221048 0.541237 0.250068
v 0.325087 0.626797 0.006766
v 0.144820 0.579966 -0.234887
v 0.179685 1.453325 0.048779
vt 0.8058 0.9183
vt 0.8058 0.9526
vt 0.7935 0.9526
vt 0.7938 0.9182
vt 0.8180 0.9181
vt 0.8180 0.9527
vt 0.7812 0.9526
vt 0.7815 0.9179
vt 0.8429 0.9181
vt 0.8426 0.9529
vt 0.7934 0.8963
vt 0.7810 0.8956
vt 0.8184 0.8959
vt 0.8060 0.8964
vt 0.8987 0.4369
vt 0.9183 0.3908
vt 0.9401 0.4366
vt 0.9376 0.4418
vt 0.9594 0.3905
vt 0.9802 0.4341
vt 0.9467 0.4406
vt 0.9442 0.4366
vt 0.9635 0.4798
vt 0.9445 0.4456
vt 0.9176 0.4903
vt 0.9401 0.4465
vt 0.9621 0.5165
vt 0.9892 0.5452
vt 0.9382 0.5687
vt 0.9306 0.6104
vt 0.9733 0.5896
vt 0.9147 0.5338
vt 0.8901 0.5858
vt 0.8430 0.8959
vn -0.9453 0.1076 0.3080
vn 0.2807 -0.0062 0.9598
vn -0.4167 0.0562 -0.9073
vn 0.9319 -0.0788 -0.3542
vn -0.4500 0.0976 -0.8877
vn 0.2263 0.0340 0.9735
vn -0.9492 0.0616 0.3087
vn 0.0546 0.4025 0.9138
vn 0.7901 0.2503 -0.5595
vn -0.0006 0.3662 -0.9305
vn -0.7079 0.4532 0.5417
vn 0.8932 0.2986 0.3363
vn -0.7864 0.4839 -0.3841
vn 0.8929 0.1353 0.4294
vn 0.0289 0.3077 -0.9510
vn 0.1536 0.2196 0.9634
vn -0.7141 0.4472 -0.5386
vn 0.7744 0.1673 -0.6101
vn -0.6913 0.3610 0.6259
vn 0.9389 0.0345 -0.3426
s off
f 10/1/1 7/2/1 6/3/1 9/4/1
f 12/5/2 8/6/2 7/2/2 10/1/2
f 9/4/3 6/3/3 5/7/3 11/8/3
f 8/6/4 12/5/4 11/9/4 5/10/4
f 2/11/5 9/4/5 11/8/5 1/12/5
f 4/13/6 12/5/6 10/1/6 3/14/6
f 3/14/7 10/1/7 9/4/7 2/11/7
f 15/15/8 16/16/8 22/17/8 21/18/8
f 17/19/9 18/20/9 24/21/9 23/22/9
f 18/20/10 13/23/10 19/24/10 24/21/10
f 14/25/11 15/15/11 21/18/11 20/26/11
f 16/16/12 17/19/12 23/22/12 22/17/12
f 13/23/13 14/25/13 20/26/13 19/24/13
f 28/27/14 29/28/14 31/29/14
f 25/30/15 31/29/15 30/31/15
f 28/27/16 31/29/16 27/32/16
f 25/30/17 26/33/17 31/29/17
f 29/28/18 30/31/18 31/29/18
f 26/33/19 27/32/19 31/29/19
f 1/34/20 11/9/20 12/5/20 4/13/20
