# Blender v2.78 (sub 0) OBJ File: 'Low_Poly_Trees_Pack.blend'
# www.blender.org
g Pine_Tree_OneSided_l_02
v 0.804138 6.479955 0.035139
v 0.578904 6.041501 0.578902
v 0.035141 6.479710 0.804136
v -0.508622 6.042115 0.578902
v -0.733856 6.480932 0.035139
v -0.508622 6.043037 -0.508624
v 0.035141 6.481178 -0.733858
v 0.578904 6.042422 -0.508624
v 3.328520 3.095328 0.000000
v 2.353620 2.509248 2.353618
v 0.000002 3.095328 3.328518
v -2.353617 2.509248 2.353618
v -3.328517 3.095328 -0.000000
v -2.353617 2.509248 -2.353619
v 0.000001 3.095328 -3.328519
v 2.353620 2.509248 -2.353619
v 0.454679 7.320748 0.496230
v 0.000002 7.320315 0.684564
v -0.454676 7.320396 0.496230
v -0.643010 7.320946 0.041553
v -0.454676 7.321642 -0.413125
v 0.000001 7.322076 -0.601458
v 0.454679 7.321994 -0.413125
v 0.643013 7.321444 0.041553
v 1.972788 4.417256 1.972786
v 0.000002 3.776204 2.789941
v -1.972785 4.416805 1.972786
v -2.789940 3.776047 0.000000
v -1.972785 4.416805 -1.972786
v 0.000001 3.776204 -2.789942
v 1.972788 4.417256 -1.972787
v 2.789943 3.776362 -0.000000
v -1.431119 3.677360 1.466260
v 0.017571 4.061200 -2.031188
v -1.431120 3.677632 -1.431121
v 1.466262 3.677271 1.466260
v 1.466262 3.677541 -1.431121
v 0.017571 4.060601 2.066327
v -2.031187 4.060999 0.017569
v 2.066329 4.060800 0.017570
v 0.569738 9.413968 0.024896
v 0.410158 9.085038 0.410156
v 0.024898 9.413669 0.569736
v -0.360362 9.085492 0.410156
v -0.519942 9.414640 0.024896
v -0.360362 9.086350 -0.360364
v 0.024898 9.414941 -0.519944
v 0.410158 9.085896 -0.360364
v 2.657663 6.062862 0.000000
v 1.926127 5.338487 1.926125
v 0.000002 6.062182 2.657661
v -1.926124 5.337737 1.926125
v -2.657660 6.061503 -0.000000
v -1.926124 5.337737 -1.926125
v 0.000001 6.062182 -2.657661
v 1.926127 5.338487 -1.926125
v 0.344743 11.877288 -0.315874
v 0.475582 11.610209 -0.000000
v 0.344743 11.877288 0.315873
v 0.028869 11.610679 0.446712
v -0.287004 11.877971 0.315873
v -0.417843 11.611149 -0.000000
v -0.287004 11.877971 -0.315874
v 0.028869 11.610679 -0.446713
v 1.621107 7.822624 -1.621105
v 2.579605 7.230466 -0.000000
v 1.621107 7.822624 1.621105
v 0.000002 7.229565 2.579603
v -1.621104 7.821321 1.621105
v -2.579603 7.228663 -0.000000
v -1.621104 7.821321 -1.621105
v 0.000001 7.229565 -2.579604
v 0.334705 13.171368 -0.306677
v 0.461735 12.879092 -0.000000
v 0.334705 13.171368 0.306676
v 0.028029 12.879584 0.433706
v -0.278648 13.172085 0.306676
v -0.405678 12.880077 -0.000000
v -0.278648 13.172085 -0.306677
v 0.028029 12.879584 -0.433706
v 1.253386 9.971869 -1.253384
v 2.297536 9.243032 -0.000000
v 1.253386 9.971869 1.253383
v 0.000001 9.241863 2.297534
v -1.253382 9.970428 1.253383
v -2.297534 9.240696 -0.000000
v -1.253382 9.970428 -1.253384
v 0.000001 9.241863 -2.297535
v 0.168503 15.809078 -0.154392
v 0.232454 15.563399 -0.000000
v 0.168503 15.809078 0.154391
v 0.014111 15.563445 0.218343
v -0.140280 15.809144 0.154391
v -0.204232 15.563492 -0.000000
v -0.140280 15.809144 -0.154392
v 0.014111 15.563445 -0.218343
v 0.768077 13.679255 -0.768076
v 1.196887 13.172094 -0.000000
v 0.768077 13.679255 0.768075
v 0.000001 13.171103 1.196885
v -0.768074 13.677918 0.768075
v -1.196885 13.170110 -0.000000
v -0.768074 13.677918 -0.768076
v 0.000001 13.171103 -1.196886
v 0.011740 17.181713 -0.000000
v -0.541681 14.982784 -0.541683
v -0.766054 14.775131 -0.000000
v -0.541681 14.982784 0.541682
v 0.000001 14.775870 0.766055
v 0.541684 14.983849 0.541682
v 0.766057 14.776610 -0.000000
v 0.541684 14.983849 -0.541683
v 0.231298 16.077286 -0.231297
v 0.327105 15.994297 -0.000000
v 0.231298 16.077286 0.231297
v 0.000001 15.993945 0.327103
v -0.231296 16.076784 0.231297
v -0.327102 15.993591 -0.000000
v -0.231296 16.076784 -0.231297
v 0.000001 15.993945 -0.327104
v 0.000001 14.775870 -0.766056
v 0.203542 14.566525 -0.186497
v 0.280791 14.397150 -0.000000
v 0.203542 14.566525 0.186496
v 0.017045 14.397263 0.263745
v -0.169451 14.566686 0.186496
v -0.246700 14.397375 -0.000000
v -0.169451 14.566686 -0.186497
v 0.017045 14.397263 -0.263746
v 1.096060 11.747778 -1.096058
v 1.603981 11.399170 -0.000000
v 1.096060 11.747778 1.096058
v 0.000001 11.398072 1.603980
v -1.096056 11.746217 1.096057
v -1.603979 11.396972 -0.000000
v -1.096056 11.746217 -1.096058
v 0.000001 11.398072 -1.603980
v -0.070473 0.000000 -0.347582
v -0.332578 0.000000 -0.024634
v -0.098454 0.000000 0.326041
v 0.321852 0.000000 0.210250
v 0.308083 0.000000 -0.195566
v 0.273680 3.659123 0.235887
v 0.180091 8.085276 0.116816
v 0.223432 8.158289 -0.141134
v 0.287994 3.705909 -0.095448
v -0.198318 3.682041 0.034671
v -0.126105 8.003602 -0.048993
v 0.009468 8.096640 0.162077
v -0.065296 3.662035 0.326620
v 0.043612 8.151864 -0.243588
v 0.006913 3.582837 -0.225671
vt 0.9561 0.4171
vt 0.9406 0.4307
vt 0.9328 0.4301
vt 0.9340 0.4098
vt 0.9304 0.4667
vt 0.9318 0.4460
vt 0.9396 0.4464
vt 0.9532 0.4622
vt 0.9082 0.4593
vt 0.9240 0.4454
vt 0.9401 0.4385
vt 0.9605 0.4400
vt 0.9037 0.4364
vt 0.9246 0.4376
vt 0.9111 0.4142
vt 0.9251 0.4297
vt 0.9815 0.4032
vt 0.9523 0.4298
vt 0.9430 0.4291
vt 0.9445 0.3901
vt 0.9399 0.4881
vt 0.9421 0.4483
vt 0.9514 0.4484
vt 0.9780 0.4785
vt 0.9027 0.4749
vt 0.9328 0.4476
vt 0.9520 0.4391
vt 0.9911 0.4413
vt 0.8931 0.4367
vt 0.9331 0.4382
vt 0.9063 0.3996
vt 0.9337 0.4289
vt 0.9350 0.3893
vt 0.8972 0.3990
vt 0.8827 0.4353
vt 0.8925 0.4732
vt 0.9810 0.4415
vt 0.9713 0.4037
vt 0.9666 0.4778
vt 0.9288 0.4877
vt 0.9857 0.3982
vt 0.9558 0.4271
vt 0.9461 0.4266
vt 0.9464 0.3857
vt 0.9447 0.4886
vt 0.9458 0.4468
vt 0.9555 0.4467
vt 0.9844 0.4773
vt 0.9053 0.4760
vt 0.9360 0.4464
vt 0.9558 0.4369
vt 0.9969 0.4379
vt 0.8940 0.4362
vt 0.9360 0.4365
vt 0.9066 0.3969
vt 0.9363 0.4267
vt 0.9727 0.4015
vt 0.9452 0.4266
vt 0.9371 0.4261
vt 0.9384 0.3896
vt 0.9343 0.4799
vt 0.9363 0.4428
vt 0.9445 0.4430
vt 0.9695 0.4711
vt 0.9000 0.4680
vt 0.9281 0.4423
vt 0.9448 0.4348
vt 0.9814 0.4368
vt 0.8912 0.4327
vt 0.9285 0.4340
vt 0.9031 0.3984
vt 0.9289 0.4258
vt 0.9727 0.4015
vt 0.9452 0.4266
vt 0.9371 0.4261
vt 0.9384 0.3896
vt 0.9343 0.4799
vt 0.9363 0.4428
vt 0.9445 0.4430
vt 0.9695 0.4711
vt 0.9000 0.4680
vt 0.9281 0.4423
vt 0.9448 0.4348
vt 0.9814 0.4368
vt 0.8912 0.4327
vt 0.9285 0.4340
vt 0.9031 0.3984
vt 0.9289 0.4258
vt 0.9727 0.4015
vt 0.9452 0.4266
vt 0.9371 0.4261
vt 0.9384 0.3896
vt 0.9343 0.4799
vt 0.9363 0.4428
vt 0.9445 0.4430
vt 0.9695 0.4711
vt 0.9000 0.4680
vt 0.9281 0.4423
vt 0.9448 0.4348
vt 0.9814 0.4368
vt 0.8912 0.4327
vt 0.9285 0.4340
vt 0.9031 0.3984
vt 0.9289 0.4258
vt 0.9727 0.4015
vt 0.9371 0.4261
vt 0.9384 0.3896
vt 0.9343 0.4799
vt 0.9445 0.4430
vt 0.9695 0.4711
vt 0.9000 0.4680
vt 0.9363 0.4428
vt 0.9448 0.4348
vt 0.9814 0.4368
vt 0.9452 0.4266
vt 0.8912 0.4327
vt 0.9281 0.4423
vt 0.9031 0.3984
vt 0.9285 0.4340
vt 0.9289 0.4258
vt 0.9695 0.4711
vt 0.9343 0.4799
vt 0.9000 0.4680
vt 0.8912 0.4327
vt 0.9031 0.3984
vt 0.9384 0.3896
vt 0.9814 0.4368
vt 0.9727 0.4015
vt 0.9727 0.4015
vt 0.9452 0.4266
vt 0.9371 0.4261
vt 0.9384 0.3896
vt 0.9343 0.4799
vt 0.9363 0.4428
vt 0.9445 0.4430
vt 0.9695 0.4711
vt 0.9000 0.4680
vt 0.9281 0.4423
vt 0.9448 0.4348
vt 0.9814 0.4368
vt 0.8912 0.4327
vt 0.9285 0.4340
vt 0.9031 0.3984
vt 0.9289 0.4258
vt 0.8093 0.8892
vt 0.8055 0.9398
vt 0.8010 0.9383
vt 0.8036 0.8888
vt 0.8018 0.9898
vt 0.7982 0.9912
vt 0.7923 0.8887
vt 0.7920 0.9391
vt 0.7872 0.9391
vt 0.7863 0.8887
vt 0.7917 0.9903
vt 0.7893 0.9904
vt 0.7966 0.9397
vt 0.7980 0.8887
vt 0.7953 0.9912
vt 0.8152 0.8898
vt 0.8100 0.9399
vt 0.8052 0.9910
vn 0.4911 0.4298 0.7577
vn 0.4924 0.4383 -0.7519
vn -0.4930 0.4439 -0.7482
vn 0.7541 0.4354 -0.4917
vn 0.7577 0.4298 0.4911
vn -0.7483 0.4439 -0.4929
vn -0.7519 0.4384 0.4924
vn -0.4917 0.4354 0.7540
vn -0.2098 0.5121 0.8329
vn 0.8282 0.5215 -0.2052
vn 0.2026 0.5272 -0.8252
vn 0.8300 0.5178 0.2072
vn 0.2097 0.5121 0.8329
vn -0.2028 0.5272 -0.8252
vn -0.8282 0.5216 -0.2052
vn -0.8300 0.5178 0.2072
vn -0.4119 0.7304 0.5448
vn -0.5426 0.7323 0.4115
vn -0.5358 0.7380 -0.4101
vn 0.5518 0.7244 0.4133
vn 0.5449 0.7304 -0.4119
vn -0.4102 0.7380 -0.5359
vn 0.4115 0.7322 -0.5427
vn 0.4132 0.7244 0.5517
vn 0.4962 0.4737 0.7276
vn 0.4974 0.4810 -0.7219
vn -0.4982 0.4860 -0.7180
vn 0.7237 0.4788 -0.4970
vn 0.7275 0.4737 0.4963
vn -0.7181 0.4860 -0.4981
vn -0.7219 0.4810 0.4974
vn -0.4970 0.4788 0.7237
vn 0.8645 0.3946 0.3111
vn -0.3073 0.4012 -0.8629
vn -0.8621 0.4044 -0.3054
vn 0.3092 0.3978 -0.8638
vn 0.8645 0.3946 -0.3111
vn -0.8621 0.4044 0.3054
vn -0.3073 0.4012 0.8629
vn 0.3092 0.3978 0.8638
vn 0.8405 0.3907 0.3753
vn -0.3690 0.3990 -0.8394
vn -0.8390 0.4023 -0.3664
vn 0.3727 0.3939 -0.8402
vn 0.8405 0.3907 -0.3753
vn -0.8390 0.4023 0.3664
vn -0.3690 0.3990 0.8394
vn 0.3727 0.3939 0.8402
vn 0.9154 0.3448 0.2076
vn -0.2025 0.3506 -0.9144
vn -0.9138 0.3542 -0.1988
vn 0.2039 0.3485 -0.9149
vn 0.9154 0.3448 -0.2076
vn -0.9138 0.3542 0.1988
vn -0.2025 0.3506 0.9144
vn 0.2039 0.3485 0.9149
vn 0.9236 0.2453 0.2946
vn -0.2899 0.2568 -0.9220
vn -0.9212 0.2627 -0.2871
vn 0.2917 0.2513 -0.9229
vn 0.9236 0.2453 -0.2946
vn -0.9212 0.2627 0.2871
vn -0.2899 0.2568 0.9220
vn 0.2917 0.2513 0.9229
vn -0.2535 0.3289 -0.9097
vn -0.9098 0.3288 0.2531
vn 0.2529 0.3289 0.9099
vn 0.2529 0.3289 -0.9099
vn 0.9097 0.3290 -0.2533
vn -0.9098 0.3288 -0.2531
vn -0.2535 0.3289 0.9097
vn 0.9097 0.3290 0.2533
vn 0.8902 0.3787 0.2532
vn -0.2504 0.3841 -0.8887
vn -0.8879 0.3872 -0.2485
vn 0.2513 0.3818 -0.8894
vn 0.8902 0.3787 -0.2532
vn -0.8879 0.3872 0.2485
vn -0.2504 0.3841 0.8887
vn 0.2513 0.3818 0.8894
vn -0.7766 0.0383 -0.6288
vn -0.7718 0.0022 -0.6359
vn 0.2625 -0.0029 0.9649
vn 0.2585 0.0315 0.9655
vn 0.3893 0.0250 -0.9208
vn 0.4518 -0.0049 -0.8921
vn -0.8680 0.0157 0.4964
vn -0.8835 0.0281 0.4677
vn 1.0000 0.0092 0.0013
vn 0.9947 0.0196 0.1013
s off
f 36/1/1 2/2/1 3/3/1 38/4/1
f 34/5/2 7/6/2 8/7/2 37/8/2
f 35/9/3 6/10/3 7/6/3 34/5/3
f 37/8/4 8/7/4 1/11/4 40/12/4
f 40/12/5 1/11/5 2/2/5 36/1/5
f 39/13/6 5/14/6 6/10/6 35/9/6
f 33/15/7 4/16/7 5/14/7 39/13/7
f 38/4/8 3/3/8 4/16/8 33/15/8
f 26/17/9 18/18/9 19/19/9 27/20/9
f 31/21/10 23/22/10 24/23/10 32/24/10
f 30/25/11 22/26/11 23/22/11 31/21/11
f 32/24/12 24/23/12 17/27/12 25/28/12
f 25/28/13 17/27/13 18/18/13 26/17/13
f 29/29/14 21/30/14 22/26/14 30/25/14
f 28/31/15 20/32/15 21/30/15 29/29/15
f 27/20/16 19/19/16 20/32/16 28/31/16
f 11/33/17 38/4/17 33/15/17 12/34/17
f 12/34/18 33/15/18 39/13/18 13/35/18
f 13/35/19 39/13/19 35/9/19 14/36/19
f 9/37/20 40/12/20 36/1/20 10/38/20
f 16/39/21 37/8/21 40/12/21 9/37/21
f 14/36/22 35/9/22 34/5/22 15/40/22
f 15/40/23 34/5/23 37/8/23 16/39/23
f 10/38/24 36/1/24 38/4/24 11/33/24
f 50/41/25 42/42/25 43/43/25 51/44/25
f 55/45/26 47/46/26 48/47/26 56/48/26
f 54/49/27 46/50/27 47/46/27 55/45/27
f 56/48/28 48/47/28 41/51/28 49/52/28
f 49/52/29 41/51/29 42/42/29 50/41/29
f 53/53/30 45/54/30 46/50/30 54/49/30
f 52/55/31 44/56/31 45/54/31 53/53/31
f 51/44/32 43/43/32 44/56/32 52/55/32
f 66/57/33 58/58/33 59/59/33 67/60/33
f 71/61/34 63/62/34 64/63/34 72/64/34
f 70/65/35 62/66/35 63/62/35 71/61/35
f 72/64/36 64/63/36 57/67/36 65/68/36
f 65/68/37 57/67/37 58/58/37 66/57/37
f 69/69/38 61/70/38 62/66/38 70/65/38
f 68/71/39 60/72/39 61/70/39 69/69/39
f 67/60/40 59/59/40 60/72/40 68/71/40
f 82/73/41 74/74/41 75/75/41 83/76/41
f 87/77/42 79/78/42 80/79/42 88/80/42
f 86/81/43 78/82/43 79/78/43 87/77/43
f 88/80/44 80/79/44 73/83/44 81/84/44
f 81/84/45 73/83/45 74/74/45 82/73/45
f 85/85/46 77/86/46 78/82/46 86/81/46
f 84/87/47 76/88/47 77/86/47 85/85/47
f 83/76/48 75/75/48 76/88/48 84/87/48
f 98/89/49 90/90/49 91/91/49 99/92/49
f 103/93/50 95/94/50 96/95/50 104/96/50
f 102/97/51 94/98/51 95/94/51 103/93/51
f 104/96/52 96/95/52 89/99/52 97/100/52
f 97/100/53 89/99/53 90/90/53 98/89/53
f 101/101/54 93/102/54 94/98/54 102/97/54
f 100/103/55 92/104/55 93/102/55 101/101/55
f 99/92/56 91/91/56 92/104/56 100/103/56
f 114/105/57 105/106/57 115/107/57
f 119/108/58 105/109/58 120/110/58
f 118/111/59 105/112/59 119/108/59
f 120/110/60 105/113/60 113/114/60
f 113/114/61 105/115/61 114/105/61
f 117/116/62 105/117/62 118/111/62
f 116/118/63 105/119/63 117/116/63
f 115/107/64 105/120/64 116/118/64
f 119/108/65 120/110/65 121/121/65 106/122/65
f 117/116/66 118/111/66 107/123/66 108/124/66
f 115/107/67 116/118/67 109/125/67 110/126/67
f 120/110/68 113/114/68 112/127/68 121/121/68
f 113/114/69 114/105/69 111/128/69 112/127/69
f 118/111/70 119/108/70 106/122/70 107/123/70
f 116/118/71 117/116/71 108/124/71 109/125/71
f 114/105/72 115/107/72 110/126/72 111/128/72
f 131/129/73 123/130/73 124/131/73 132/132/73
f 136/133/74 128/134/74 129/135/74 137/136/74
f 135/137/75 127/138/75 128/134/75 136/133/75
f 137/136/76 129/135/76 122/139/76 130/140/76
f 130/140/77 122/139/77 123/130/77 131/129/77
f 134/141/78 126/142/78 127/138/78 135/137/78
f 133/143/79 125/144/79 126/142/79 134/141/79
f 132/132/80 124/131/80 125/144/80 133/143/80
f 139/145/81 147/146/81 152/147/81 138/148/81
f 147/146/82 148/149/82 151/150/82 152/147/82
f 141/151/83 143/152/83 150/153/83 140/154/83
f 143/152/84 144/155/84 149/156/84 150/153/84
f 138/148/85 152/147/85 146/157/85 142/158/85
f 152/147/86 151/150/86 145/159/86 146/157/86
f 140/160/87 150/161/87 147/146/87 139/145/87
f 150/161/88 149/162/88 148/149/88 147/146/88
f 142/158/89 146/157/89 143/152/89 141/151/89
f 146/157/90 145/159/90 144/155/90 143/152/90
