# Blender v2.78 (sub 0) OBJ File: 'Low_Poly_Trees_Pack.blend'
# www.blender.org
g Pine_Tree_OneSided_m_04
v 0.000000 0.000000 -0.327751
v -0.309382 0.000000 -0.102972
v -0.191209 0.000000 0.260729
v 0.191209 0.000000 0.260729
v 0.309382 0.000000 -0.102972
v 0.008933 3.340984 -0.184720
v -0.186561 3.342365 -0.042591
v -0.111519 3.342497 0.187059
v 0.130233 3.341199 0.186853
v 0.204645 3.340260 -0.042920
v -0.247674 0.774162 -0.057985
v -0.151965 0.774118 0.236575
v 0.253461 0.774189 -0.057985
v 0.002894 0.774207 -0.240033
v 0.157753 0.774134 0.236575
v -0.060117 0.949908 -2.037888
v -1.371871 1.583510 -1.362171
v -2.032266 0.962352 0.007130
v -1.368462 1.636520 1.357417
v -0.054839 1.030367 2.042654
v 1.263687 1.675803 1.350702
v 1.917265 1.020755 -0.002324
v 1.259949 1.621725 -1.368129
v -0.110667 3.588453 -1.000514
v -0.748522 3.601011 -0.735176
v -1.011125 3.614695 -0.095987
v -0.744508 3.621573 0.542639
v -0.105288 3.617326 0.806476
v 0.530964 3.604435 0.540953
v 0.793199 3.590639 -0.098260
v 0.528250 3.584131 -0.736701
v 0.066175 2.634137 -2.306578
v -1.539163 2.253239 -1.604146
v -1.961119 2.967730 0.006749
v -1.566751 2.406662 1.539772
v 0.029430 2.852373 2.048010
v 1.446008 2.088144 1.581461
v 2.053863 2.541900 0.061453
v 1.475716 1.921465 -1.788257
v 0.174678 5.603816 -0.226157
v -0.009587 5.610772 -0.147106
v -0.085232 5.614586 0.043397
v -0.007908 5.613275 0.233765
v 0.177068 5.607368 0.312469
v 0.361305 5.600077 0.233401
v 0.436899 5.595914 0.042889
v 0.359604 5.597558 -0.147460
v 0.114730 3.965550 -1.797024
v -1.143506 4.423726 -1.185453
v -1.783011 3.782015 0.083491
v -1.177334 4.286511 1.335048
v 0.071884 3.770017 1.985409
v 1.301910 4.386638 1.347669
v 1.961860 3.945389 0.103922
v 1.327935 4.521139 -1.172449
v 0.438534 6.881961 -0.236741
v 0.245774 6.892412 -0.154940
v 0.167279 6.897294 0.042649
v 0.249030 6.893867 0.240287
v 0.443179 6.883875 0.322189
v 0.635998 6.873059 0.240374
v 0.714492 6.868009 0.042779
v 0.632682 6.871806 -0.154845
v 0.352748 6.014793 -1.260679
v -0.702795 5.759466 -0.931032
v -0.873958 6.204137 0.010945
v -0.724169 5.688571 0.985945
v 0.325891 5.917072 1.293842
v 1.097552 5.342905 0.994619
v 1.548873 5.714066 0.021989
v 1.118576 5.410771 -0.922355
v 0.918117 9.299569 0.189940
v 0.154839 7.598506 -0.310076
v 0.543196 7.575153 -0.472976
v 0.965256 7.544253 -0.309791
v 1.129045 7.529859 0.083944
v 0.970854 7.538982 0.477634
v 0.551081 7.568130 0.640644
v 0.160389 7.593861 0.477394
v -0.003672 7.606090 0.083578
vt 0.8058 0.9183
vt 0.8058 0.9769
vt 0.7933 0.9769
vt 0.7938 0.9182
vt 0.8429 0.9181
vt 0.8424 0.9774
vt 0.8302 0.9775
vt 0.8304 0.9179
vt 0.8180 0.9181
vt 0.8181 0.9772
vt 0.7810 0.9772
vt 0.7815 0.9179
vt 0.8307 0.8954
vt 0.8184 0.8959
vt 0.7934 0.8963
vt 0.7810 0.8956
vt 0.8060 0.8964
vt 0.8430 0.8959
vt 0.9586 0.4920
vt 0.9521 0.4609
vt 0.9655 0.4482
vt 0.9905 0.4639
vt 0.9656 0.4301
vt 0.9915 0.4204
vt 0.9601 0.3897
vt 0.9528 0.4171
vt 0.9341 0.4162
vt 0.9169 0.3897
vt 0.8874 0.4192
vt 0.9204 0.4287
vt 0.9199 0.4475
vt 0.8876 0.4595
vt 0.9161 0.4894
vt 0.9334 0.4605
vt 0.9921 0.4230
vt 0.9920 0.4610
vt 0.9517 0.4457
vt 0.9511 0.4350
vt 0.9182 0.3917
vt 0.9573 0.3913
vt 0.9434 0.4277
vt 0.9328 0.4277
vt 0.8907 0.4593
vt 0.8907 0.4195
vt 0.9257 0.4355
vt 0.9262 0.4461
vt 0.9617 0.4877
vt 0.9194 0.4874
vt 0.9340 0.4530
vt 0.9443 0.4533
vt 0.9593 0.3901
vt 0.9888 0.4191
vt 0.9469 0.4391
vt 0.9441 0.4362
vt 0.8892 0.4192
vt 0.9181 0.3903
vt 0.9400 0.4361
vt 0.9370 0.4391
vt 0.9174 0.4899
vt 0.8886 0.4600
vt 0.9370 0.4433
vt 0.9400 0.4461
vt 0.9888 0.4606
vt 0.9593 0.4904
vt 0.9440 0.4460
vt 0.9466 0.4431
vt 0.9391 0.5832
vt 0.9278 0.5825
vt 0.9352 0.5694
vt 0.9486 0.5751
vt 0.9413 0.5533
vt 0.9495 0.5630
vt 0.9196 0.5627
vt 0.9278 0.5537
vt 0.9206 0.5741
vt 0.8892 0.5858
vt 0.8896 0.5443
vt 0.9195 0.5172
vt 0.9582 0.5192
vt 0.9842 0.5468
vt 0.9842 0.5852
vt 0.9180 0.6142
vt 0.9574 0.6133
vn -0.9506 0.0209 0.3096
vn 0.5873 0.0160 -0.8092
vn 0.0004 0.0193 0.9998
vn -0.5878 0.0188 -0.8088
vn 0.9498 0.0507 0.3086
vn -0.5852 0.0935 -0.8055
vn -0.0000 0.0312 0.9995
vn 0.5854 0.0891 -0.8058
vn -0.9495 0.0578 0.3085
vn 0.9511 0.0162 0.3085
vn -0.3090 0.3536 -0.8829
vn 0.2941 0.3697 -0.8814
vn 0.8722 0.4128 0.2623
vn -0.2863 0.4218 0.8603
vn -0.8877 0.3466 -0.3031
vn 0.8744 0.3918 -0.2861
vn 0.2781 0.4360 0.8559
vn -0.8836 0.3702 0.2866
vn 0.4893 0.4814 -0.7272
vn 0.8001 0.4186 0.4297
vn -0.3800 0.5044 0.7754
vn -0.7434 0.5248 -0.4146
vn 0.8159 0.4257 -0.3913
vn 0.4735 0.4449 0.7602
vn -0.7594 0.5280 0.3802
vn -0.4305 0.5228 -0.7357
vn 0.8830 0.3762 -0.2808
vn 0.2490 0.4399 0.8628
vn -0.8237 0.5274 0.2084
vn -0.2458 0.4826 -0.8406
vn 0.2613 0.4391 -0.8596
vn 0.8665 0.3771 0.3271
vn -0.2496 0.4830 0.8393
vn -0.8305 0.5281 -0.1773
vn -0.3338 0.4006 -0.8533
vn 0.3646 0.2640 -0.8930
vn 0.9250 0.0881 0.3696
vn -0.3500 0.3048 0.8858
vn -0.8175 0.4662 -0.3382
vn 0.9169 0.1318 -0.3766
vn 0.3670 0.1607 0.9162
vn -0.8291 0.4288 0.3587
vn -0.8011 0.4734 0.3662
vn 0.4570 0.2481 0.8542
vn 0.8783 0.2015 -0.4335
vn -0.7878 0.4977 -0.3630
vn -0.3354 0.3855 0.8596
vn 0.8824 0.1700 0.4387
vn 0.5032 0.3019 -0.8097
vn -0.3523 0.4489 -0.8212
s off
f 12/1/1 8/2/1 7/3/1 11/4/1
f 14/5/2 6/6/2 10/7/2 13/8/2
f 15/9/3 9/10/3 8/2/3 12/1/3
f 11/4/4 7/3/4 6/11/4 14/12/4
f 5/13/5 13/8/5 15/9/5 4/14/5
f 2/15/6 11/4/6 14/12/6 1/16/6
f 4/14/7 15/9/7 12/1/7 3/17/7
f 1/18/8 14/5/8 13/8/8 5/13/8
f 3/17/9 12/1/9 11/4/9 2/15/9
f 13/8/10 10/7/10 9/10/10 15/9/10
f 17/19/11 25/20/11 24/21/11 16/22/11
f 16/22/12 24/21/12 31/23/12 23/24/12
f 22/25/13 30/26/13 29/27/13 21/28/13
f 20/29/14 28/30/14 27/31/14 19/32/14
f 18/33/15 26/34/15 25/20/15 17/19/15
f 23/24/16 31/23/16 30/26/16 22/25/16
f 21/28/17 29/27/17 28/30/17 20/29/17
f 19/32/18 27/31/18 26/34/18 18/33/18
f 39/35/19 32/36/19 40/37/19 47/38/19
f 37/39/20 38/40/20 46/41/20 45/42/20
f 35/43/21 36/44/21 44/45/21 43/46/21
f 33/47/22 34/48/22 42/49/22 41/50/22
f 38/40/23 39/35/23 47/38/23 46/41/23
f 36/44/24 37/39/24 45/42/24 44/45/24
f 34/48/25 35/43/25 43/46/25 42/49/25
f 32/36/26 33/47/26 41/50/26 40/37/26
f 54/51/27 55/52/27 63/53/27 62/54/27
f 52/55/28 53/56/28 61/57/28 60/58/28
f 50/59/29 51/60/29 59/61/29 58/62/29
f 48/63/30 49/64/30 57/65/30 56/66/30
f 55/52/31 48/63/31 56/66/31 63/53/31
f 53/56/32 54/51/32 62/54/32 61/57/32
f 51/60/33 52/55/33 60/58/33 59/61/33
f 49/64/34 50/59/34 58/62/34 57/65/34
f 74/67/35 73/68/35 72/69/35
f 75/70/36 74/67/36 72/69/36
f 77/71/37 76/72/37 72/69/37
f 79/73/38 78/74/38 72/69/38
f 73/68/39 80/75/39 72/69/39
f 76/72/40 75/70/40 72/69/40
f 78/74/41 77/71/41 72/69/41
f 80/75/42 79/73/42 72/69/42
f 66/76/43 67/77/43 79/73/43 80/75/43
f 68/78/44 69/79/44 77/71/44 78/74/44
f 70/80/45 71/81/45 75/70/45 76/72/45
f 65/82/46 66/76/46 80/75/46 73/68/46
f 67/77/47 68/78/47 78/74/47 79/73/47
f 69/79/48 70/80/48 76/72/48 77/71/48
f 71/81/49 64/83/49 74/67/49 75/70/49
f 64/83/50 65/82/50 73/68/50 74/67/50
