# Blender v2.78 (sub 0) OBJ File: 'Low_Poly_Trees_Pack.blend'
# www.blender.org
g Pine_Tree_OneSided_m_02
v -0.065688 2.203225 -2.217564
v -1.693408 1.429683 -1.676158
v -2.211728 2.216767 0.007770
v -1.689191 1.495281 1.689166
v -0.059944 2.290780 2.222773
v 1.567933 1.543890 1.680856
v 2.086049 2.280320 -0.002517
v 1.563308 1.476973 -1.683530
v -0.128234 4.344719 -1.095659
v -0.832409 4.358963 -0.803616
v -1.122869 4.374901 -0.097449
v -0.829564 4.383605 0.609176
v -0.124649 4.380019 0.902332
v 0.579046 4.365817 0.610297
v 0.869643 4.349301 -0.095866
v 0.576818 4.340552 -0.802498
v 0.006315 3.188582 -2.351914
v -1.538862 3.787757 -1.641433
v -2.050037 3.223251 0.024845
v -1.549248 3.699480 1.573657
v -0.008568 3.073684 2.076246
v 1.543365 3.558943 1.579498
v 2.046129 3.036351 0.032497
v 1.554773 3.651293 -1.866686
v -0.036090 6.448077 -0.215144
v -0.242140 6.450634 -0.129205
v -0.327668 6.454645 0.078865
v -0.242585 6.457911 0.287180
v -0.036730 6.458571 0.373706
v 0.169323 6.456097 0.287762
v 0.254868 6.451880 0.079695
v 0.169783 6.448529 -0.128613
v 0.132369 5.390178 -1.705780
v -1.106236 4.797916 -1.095169
v -1.729059 5.207165 0.135564
v -1.127401 4.574507 1.352141
v 0.105340 5.057048 1.989694
v 1.322270 4.598482 1.360628
v 1.965221 5.239027 0.148383
v 1.337198 4.816186 -1.086677
v -0.003494 7.820106 -0.235955
v -0.217684 7.819677 -0.146910
v -0.306723 7.823291 0.068897
v -0.218471 7.828885 0.285046
v -0.004618 7.833234 0.374918
v 0.209578 7.833750 0.285871
v 0.298641 7.830067 0.070067
v 0.210382 7.824390 -0.146079
v 0.042598 6.317055 -1.224107
v -0.692950 7.049683 -0.685158
v -1.231108 6.350588 0.061099
v -0.693719 7.091884 0.818722
v 0.041311 6.390984 1.350713
v 0.793370 7.096628 0.821228
v 1.315055 6.357095 0.065488
v 0.794120 7.052446 -0.682537
v -0.036460 10.188552 0.163359
v -0.373584 8.564691 -0.237231
v -0.037492 8.567721 -0.376583
v 0.326608 8.573341 -0.235840
v 0.465509 8.579856 0.102488
v 0.325812 8.583627 0.440280
v -0.038514 8.582009 0.579616
v -0.374240 8.574618 0.438917
v -0.513036 8.567519 0.100565
v 0.000000 0.000000 -0.380848
v -0.361940 0.000000 -0.117884
v -0.223691 0.000000 0.307602
v 0.223691 0.000000 0.307602
v 0.361940 0.000000 -0.117884
v -0.002346 3.266890 -0.190332
v -0.216367 3.268655 -0.035396
v -0.134461 3.269360 0.215838
v 0.130186 3.268073 0.216173
v 0.211839 3.266525 -0.034853
v -0.326349 0.846047 -0.075869
v -0.200487 0.845991 0.311494
v 0.332673 0.846084 -0.075869
v 0.003162 0.846108 -0.315273
v 0.206811 0.846012 0.311494
vt 0.9617 0.4949
vt 0.9548 0.4623
vt 0.9689 0.4489
vt 0.9951 0.4654
vt 0.9690 0.4300
vt 0.9961 0.4197
vt 0.9632 0.3876
vt 0.9556 0.4163
vt 0.9360 0.4154
vt 0.9179 0.3876
vt 0.8870 0.4185
vt 0.9216 0.4285
vt 0.9211 0.4482
vt 0.8872 0.4608
vt 0.9171 0.4922
vt 0.9352 0.4619
vt 0.9967 0.4226
vt 0.9967 0.4624
vt 0.9544 0.4463
vt 0.9538 0.4351
vt 0.9192 0.3897
vt 0.9602 0.3893
vt 0.9457 0.4274
vt 0.9346 0.4275
vt 0.8904 0.4605
vt 0.8904 0.4188
vt 0.9271 0.4357
vt 0.9276 0.4467
vt 0.9649 0.4904
vt 0.9206 0.4900
vt 0.9358 0.4540
vt 0.9466 0.4543
vt 0.9624 0.3880
vt 0.9933 0.4184
vt 0.9493 0.4394
vt 0.9464 0.4363
vt 0.8889 0.4185
vt 0.9192 0.3883
vt 0.9421 0.4363
vt 0.9389 0.4394
vt 0.9185 0.4927
vt 0.8883 0.4613
vt 0.9390 0.4438
vt 0.9421 0.4467
vt 0.9933 0.4620
vt 0.9624 0.4932
vt 0.9463 0.4466
vt 0.9491 0.4436
vt 0.9427 0.5824
vt 0.9302 0.5816
vt 0.9384 0.5672
vt 0.9531 0.5735
vt 0.9451 0.5496
vt 0.9540 0.5602
vt 0.9212 0.5598
vt 0.9303 0.5499
vt 0.9223 0.5724
vt 0.8878 0.5852
vt 0.8882 0.5396
vt 0.9211 0.5098
vt 0.9636 0.5121
vt 0.9922 0.5424
vt 0.9922 0.5846
vt 0.9194 0.6164
vt 0.9627 0.6154
vt 0.9371 0.9156
vt 0.9370 0.9811
vt 0.9231 0.9812
vt 0.9236 0.9155
vt 0.9785 0.9154
vt 0.9780 0.9818
vt 0.9644 0.9818
vt 0.9646 0.9152
vt 0.9507 0.9154
vt 0.9508 0.9815
vt 0.9093 0.9814
vt 0.9099 0.9152
vt 0.9649 0.8900
vt 0.9512 0.8906
vt 0.9232 0.8910
vt 0.9093 0.8902
vt 0.9372 0.8912
vt 0.9786 0.8905
vn -0.4197 0.3887 -0.8202
vn 0.4162 0.4117 -0.8108
vn 0.7934 0.4542 0.4053
vn -0.4296 0.4470 0.7846
vn -0.8300 0.3797 -0.4085
vn 0.8024 0.4252 -0.4187
vn 0.4291 0.4681 0.7725
vn -0.8184 0.4104 0.4021
vn 0.1216 0.5551 -0.8229
vn 0.8712 0.4668 0.1519
vn -0.1336 0.4559 0.8799
vn -0.8674 0.4796 -0.1327
vn 0.8738 0.4757 -0.1009
vn 0.1654 0.4542 0.8754
vn -0.8671 0.4715 0.1605
vn -0.1855 0.5436 -0.8186
vn 0.7426 0.4472 -0.4986
vn 0.5112 0.4355 0.7410
vn -0.7456 0.3991 0.5337
vn -0.5255 0.4045 -0.7485
vn 0.5367 0.4429 -0.7181
vn 0.7009 0.4447 0.5576
vn -0.5159 0.4042 0.7553
vn -0.7747 0.3948 -0.4939
vn -0.3683 0.2940 -0.8820
vn 0.3403 0.2970 -0.8922
vn 0.8922 0.2645 0.3660
vn -0.3803 0.2324 0.8952
vn -0.8878 0.2753 -0.3688
vn 0.8835 0.2896 -0.3683
vn 0.3463 0.2349 0.9082
vn -0.8977 0.2498 0.3630
vn -0.8905 0.2825 0.3565
vn 0.3250 0.3264 0.8876
vn 0.8824 0.3509 -0.3134
vn -0.8840 0.2933 -0.3642
vn -0.3604 0.3002 0.8832
vn 0.8886 0.3437 0.3038
vn 0.3096 0.3485 -0.8847
vn -0.3376 0.3253 -0.8833
vn -0.9503 0.0380 0.3091
vn 0.5871 0.0430 -0.8083
vn -0.0004 0.0394 0.9992
vn -0.5867 0.0403 -0.8088
vn 0.9509 0.0176 0.3090
vn -0.5866 0.0648 -0.8073
vn 0.0000 -0.0046 1.0000
vn 0.5867 0.0604 -0.8075
vn -0.9508 0.0247 0.3089
vn 0.9502 0.0422 0.3088
s off
f 2/1/1 10/2/1 9/3/1 1/4/1
f 1/4/2 9/3/2 16/5/2 8/6/2
f 7/7/3 15/8/3 14/9/3 6/10/3
f 5/11/4 13/12/4 12/13/4 4/14/4
f 3/15/5 11/16/5 10/2/5 2/1/5
f 8/6/6 16/5/6 15/8/6 7/7/6
f 6/10/7 14/9/7 13/12/7 5/11/7
f 4/14/8 12/13/8 11/16/8 3/15/8
f 24/17/9 17/18/9 25/19/9 32/20/9
f 22/21/10 23/22/10 31/23/10 30/24/10
f 20/25/11 21/26/11 29/27/11 28/28/11
f 18/29/12 19/30/12 27/31/12 26/32/12
f 23/22/13 24/17/13 32/20/13 31/23/13
f 21/26/14 22/21/14 30/24/14 29/27/14
f 19/30/15 20/25/15 28/28/15 27/31/15
f 17/18/16 18/29/16 26/32/16 25/19/16
f 39/33/17 40/34/17 48/35/17 47/36/17
f 37/37/18 38/38/18 46/39/18 45/40/18
f 35/41/19 36/42/19 44/43/19 43/44/19
f 33/45/20 34/46/20 42/47/20 41/48/20
f 40/34/21 33/45/21 41/48/21 48/35/21
f 38/38/22 39/33/22 47/36/22 46/39/22
f 36/42/23 37/37/23 45/40/23 44/43/23
f 34/46/24 35/41/24 43/44/24 42/47/24
f 59/49/25 58/50/25 57/51/25
f 60/52/26 59/49/26 57/51/26
f 62/53/27 61/54/27 57/51/27
f 64/55/28 63/56/28 57/51/28
f 58/50/29 65/57/29 57/51/29
f 61/54/30 60/52/30 57/51/30
f 63/56/31 62/53/31 57/51/31
f 65/57/32 64/55/32 57/51/32
f 51/58/33 52/59/33 64/55/33 65/57/33
f 53/60/34 54/61/34 62/53/34 63/56/34
f 55/62/35 56/63/35 60/52/35 61/54/35
f 50/64/36 51/58/36 65/57/36 58/50/36
f 52/59/37 53/60/37 63/56/37 64/55/37
f 54/61/38 55/62/38 61/54/38 62/53/38
f 56/63/39 49/65/39 59/49/39 60/52/39
f 49/65/40 50/64/40 58/50/40 59/49/40
f 77/66/41 73/67/41 72/68/41 76/69/41
f 79/70/42 71/71/42 75/72/42 78/73/42
f 80/74/43 74/75/43 73/67/43 77/66/43
f 76/69/44 72/68/44 71/76/44 79/77/44
f 70/78/45 78/73/45 80/74/45 69/79/45
f 67/80/46 76/69/46 79/77/46 66/81/46
f 69/79/47 80/74/47 77/66/47 68/82/47
f 66/83/48 79/70/48 78/73/48 70/78/48
f 68/82/49 77/66/49 76/69/49 67/80/49
f 78/73/50 75/72/50 74/75/50 80/74/50
