# Blender v2.78 (sub 0) OBJ File: 'Low_Poly_Trees_Pack.blend'
# www.blender.org
g Pine_Tree_OneSided_m_08
v 0.000000 0.000000 -0.185835
v -0.175420 0.000000 -0.058385
v -0.108415 0.000000 0.147833
v 0.108415 0.000000 0.147833
v 0.175420 0.000000 -0.058385
v -0.000858 1.877063 -0.109628
v -0.118884 1.878655 -0.023819
v -0.073489 1.880038 0.114555
v 0.071886 1.879501 0.114709
v 0.116658 1.878754 -0.023092
v -0.140435 0.438896 -0.032881
v -0.086164 0.438925 0.134138
v 0.143712 0.438965 -0.032877
v 0.001641 0.438975 -0.136098
v 0.089446 0.438934 0.134138
v -0.918920 0.752820 -0.848827
v -1.416901 0.242391 0.439913
v -0.374513 0.747640 1.129277
v 0.796695 0.277442 0.889355
v 1.226090 0.784982 -0.448137
v 0.186097 0.285853 -1.141894
v -0.419152 1.826779 -0.644858
v -0.733975 1.840404 -0.064598
v -0.404744 1.847561 0.498793
v 0.235298 1.838566 0.585943
v 0.566747 1.835476 -0.058668
v 0.202850 1.823484 -0.526581
v -0.803564 1.083873 -1.151436
v -1.336439 1.534464 0.225060
v -0.626948 1.031484 1.284168
v 0.722109 1.389509 1.126709
v 1.430350 1.021786 -0.161273
v 0.482437 1.403385 -1.302828
v -0.185228 3.305984 -0.178444
v -0.175279 3.293070 0.040027
v -0.086227 3.305965 0.272238
v 0.152435 3.294331 0.366067
v 0.136583 3.290688 0.040498
v 0.046531 3.290419 -0.071232
v -0.177750 2.352435 -1.077112
v -1.282943 1.809721 -0.359966
v -0.911503 2.349028 0.758810
v 0.185902 1.958799 1.299506
v 1.271646 2.501121 0.490227
v 0.992059 2.073714 -0.774157
v -0.166783 4.044949 -0.183773
v -0.163403 4.048646 0.034045
v -0.071496 4.051925 0.266667
v 0.169457 4.050086 0.361221
v 0.158656 4.053250 0.034687
v 0.065672 4.048354 -0.080540
v -0.317715 3.107953 -0.860440
v -0.753121 3.455064 -0.128952
v -0.624406 3.108959 0.690884
v 0.230622 3.336445 0.812938
v 1.087462 3.038955 0.204813
v 0.474719 3.341054 -0.520193
v 0.002589 5.549006 0.088861
v -0.207760 4.485968 -0.198602
v 0.109633 4.492802 -0.117364
v 0.317359 4.513935 0.056661
v 0.179841 4.494225 0.403342
v -0.156465 4.493416 0.337941
v -0.301041 4.488111 0.062130
vt 0.8058 0.9183
vt 0.8058 0.9769
vt 0.7933 0.9769
vt 0.7938 0.9182
vt 0.8429 0.9181
vt 0.8424 0.9774
vt 0.8302 0.9775
vt 0.8304 0.9179
vt 0.8180 0.9181
vt 0.8181 0.9772
vt 0.7810 0.9772
vt 0.7815 0.9179
vt 0.8307 0.8954
vt 0.8184 0.8959
vt 0.7934 0.8963
vt 0.7810 0.8956
vt 0.8060 0.8964
vt 0.8430 0.8959
vt 0.9095 0.4110
vt 0.9295 0.4200
vt 0.9183 0.4421
vt 0.8898 0.4516
vt 0.9599 0.3849
vt 0.9522 0.4139
vt 0.9133 0.4906
vt 0.9316 0.4600
vt 0.9554 0.4552
vt 0.9673 0.4738
vt 0.9861 0.4328
vt 0.9647 0.4325
vt 0.9699 0.4711
vt 0.9451 0.4494
vt 0.9499 0.4356
vt 0.9873 0.4341
vt 0.8928 0.4514
vt 0.9109 0.4122
vt 0.9292 0.4297
vt 0.9233 0.4419
vt 0.9569 0.3866
vt 0.9422 0.4252
vt 0.9168 0.4884
vt 0.9322 0.4520
vt 0.8910 0.4520
vt 0.9104 0.4115
vt 0.9379 0.4361
vt 0.9340 0.4398
vt 0.9591 0.3853
vt 0.9840 0.4313
vt 0.9456 0.4384
vt 0.9430 0.4342
vt 0.9671 0.4722
vt 0.9436 0.4432
vt 0.9147 0.4911
vt 0.9386 0.4447
vt 0.9350 0.6190
vt 0.9329 0.5800
vt 0.9457 0.5741
vt 0.9759 0.5957
vt 0.8937 0.5260
vt 0.9379 0.5072
vt 0.9347 0.5462
vt 0.9209 0.5528
vt 0.9515 0.5538
vt 0.9352 0.5633
vt 0.9185 0.5704
vt 0.8827 0.5877
vt 0.9912 0.5296
vn -0.9506 0.0124 0.3102
vn 0.5900 0.0162 -0.8072
vn -0.0005 0.0135 0.9999
vn -0.5878 0.0139 -0.8089
vn 0.9498 0.0507 0.3086
vn -0.5852 0.0935 -0.8055
vn -0.0000 0.0312 0.9995
vn 0.5854 0.0891 -0.8058
vn -0.9495 0.0578 0.3085
vn 0.9510 0.0158 0.3089
vn 0.1726 0.3601 0.9168
vn 0.8299 0.3743 0.4138
vn -0.8868 0.3599 -0.2900
vn 0.4837 0.4185 -0.7687
vn -0.6932 0.4155 0.5890
vn -0.1202 0.4735 -0.8726
vn -0.0482 0.3897 0.9197
vn 0.8641 0.4224 0.2736
vn -0.8111 0.4391 -0.3864
vn 0.7440 0.4726 -0.4724
vn -0.6688 0.4564 0.5868
vn -0.2979 0.3927 0.8701
vn 0.7946 0.4842 -0.3663
vn 0.3286 0.4430 -0.8341
vn -0.8871 0.4441 0.1258
vn 0.5362 0.4415 0.7195
vn -0.6990 0.3960 -0.5955
vn 0.2496 0.3969 -0.8833
vn -0.2057 0.3120 0.9275
vn 0.8924 0.2599 0.3688
vn -0.9065 0.2677 -0.3265
vn 0.6151 0.2107 -0.7598
vn -0.8626 0.2356 0.4476
vn -0.8751 0.3551 0.3287
vn -0.1853 0.2520 0.9498
vn 0.7402 0.3741 -0.5587
vn -0.7613 0.3666 -0.5347
vn 0.6978 0.3500 0.6249
vn 0.2382 0.2093 -0.9484
vn -0.0143 0.3019 -0.9532
s off
f 12/1/1 8/2/1 7/3/1 11/4/1
f 14/5/2 6/6/2 10/7/2 13/8/2
f 15/9/3 9/10/3 8/2/3 12/1/3
f 11/4/4 7/3/4 6/11/4 14/12/4
f 5/13/5 13/8/5 15/9/5 4/14/5
f 2/15/6 11/4/6 14/12/6 1/16/6
f 4/14/7 15/9/7 12/1/7 3/17/7
f 1/18/8 14/5/8 13/8/8 5/13/8
f 3/17/9 12/1/9 11/4/9 2/15/9
f 13/8/10 10/7/10 9/10/10 15/9/10
f 19/19/11 25/20/11 24/21/11 18/22/11
f 20/23/12 26/24/12 25/20/12 19/19/12
f 17/25/13 23/26/13 22/27/13 16/28/13
f 21/29/14 27/30/14 26/24/14 20/23/14
f 18/22/15 24/21/15 23/26/15 17/25/15
f 28/31/16 34/32/16 39/33/16 33/34/16
f 30/35/17 31/36/17 37/37/17 36/38/17
f 31/36/18 32/39/18 38/40/18 37/37/18
f 28/31/19 29/41/19 35/42/19 34/32/19
f 32/39/20 33/34/20 39/33/20 38/40/20
f 29/41/21 30/35/21 36/38/21 35/42/21
f 42/43/22 43/44/22 49/45/22 48/46/22
f 44/47/23 45/48/23 51/49/23 50/50/23
f 45/48/24 40/51/24 46/52/24 51/49/24
f 41/53/25 42/43/25 48/46/25 47/54/25
f 43/44/26 44/47/26 50/50/26 49/45/26
f 40/51/27 41/53/27 47/54/27 46/52/27
f 52/55/28 59/56/28 60/57/28 57/58/28
f 54/59/29 55/60/29 62/61/29 63/62/29
f 62/61/30 61/63/30 58/64/30
f 59/56/31 64/65/31 58/64/31
f 61/63/32 60/57/32 58/64/32
f 64/65/33 63/62/33 58/64/33
f 53/66/34 54/59/34 63/62/34 64/65/34
f 62/61/35 58/64/35 63/62/35
f 56/67/36 57/58/36 60/57/36 61/63/36
f 52/55/37 53/66/37 64/65/37 59/56/37
f 55/60/38 56/67/38 61/63/38 62/61/38
f 60/57/39 59/56/39 58/64/39
f 22/27/40 27/30/40 21/29/40 16/28/40
