# Blender v2.78 (sub 0) OBJ File: 'Low_Poly_Trees_Pack.blend'
# www.blender.org
g Acacia_Stump_03
v 0.000000 0.000000 -0.563101
v -0.443024 0.000000 -0.349752
v -0.552441 0.000000 0.129639
v -0.245859 0.000000 0.514080
v 0.245860 0.000000 0.514080
v 0.552441 0.000000 0.129639
v 0.443024 0.000000 -0.349752
v 0.471075 0.741891 -0.208131
v 0.189312 0.741891 -0.343821
v 0.345679 0.741891 0.341267
v 0.540665 0.741891 0.096762
v -0.162041 0.741891 0.096762
v 0.032945 0.741891 0.341267
v -0.092451 0.741891 -0.208131
v -0.238651 0.741891 0.114248
v -0.153887 0.741891 -0.257124
v 0.379773 0.741891 0.412065
v -0.001149 0.741891 0.412065
v 0.532511 0.741891 -0.257124
v 0.617275 0.741891 0.114248
v 0.189312 0.741891 -0.422400
vt 0.5522 0.8586
vt 0.5500 0.8337
vt 0.5623 0.8322
vt 0.5654 0.8567
vt 0.5259 0.8544
vt 0.5260 0.8329
vt 0.5376 0.8339
vt 0.5390 0.8574
vt 0.5901 0.8468
vt 0.5855 0.8258
vt 0.5959 0.8223
vt 0.6033 0.8419
vt 0.5744 0.8293
vt 0.5777 0.8522
vt 0.6061 0.8190
vt 0.6167 0.8379
vt 0.7994 0.7151
vt 0.8358 0.6694
vt 0.8416 0.6948
vt 0.8254 0.7151
vt 0.8124 0.6582
vt 0.7890 0.6694
vt 0.7832 0.6948
vt 0.5215 0.7769
vt 0.5157 0.8022
vt 0.5093 0.8037
vt 0.5163 0.7728
vt 0.5683 0.7769
vt 0.5449 0.7656
vt 0.5449 0.7591
vt 0.5734 0.7728
vt 0.5579 0.8226
vt 0.5741 0.8022
vt 0.5804 0.8037
vt 0.5607 0.8284
vt 0.5319 0.8226
vt 0.5290 0.8284
vn -0.9028 0.3776 -0.2061
vn 0.0000 0.1362 0.9907
vn 0.9710 -0.0895 -0.2216
vn -0.4176 0.2710 -0.8672
vn -0.7394 0.3250 0.5896
vn 0.7806 -0.0553 0.6225
vn 0.4331 0.0600 -0.8993
vn 0.0000 1.0000 0.0000
s off
f 3/1/1 15/2/1 16/3/1 2/4/1
f 5/5/2 17/6/2 18/7/2 4/8/2
f 7/9/3 19/10/3 20/11/3 6/12/3
f 2/4/4 16/3/4 21/13/4 1/14/4
f 4/8/5 18/7/5 15/2/5 3/1/5
f 6/12/6 20/11/6 17/15/6 5/16/6
f 1/14/7 21/13/7 19/10/7 7/9/7
f 9/17/8 10/18/8 11/19/8 8/20/8
f 13/21/8 10/18/8 9/17/8
f 12/22/8 13/21/8 9/17/8 14/23/8
f 12/24/8 14/25/8 16/26/8 15/27/8
f 10/28/8 13/29/8 18/30/8 17/31/8
f 8/32/8 11/33/8 20/34/8 19/35/8
f 14/25/8 9/36/8 21/37/8 16/26/8
f 13/29/8 12/24/8 15/27/8 18/30/8
f 11/33/8 10/28/8 17/31/8 20/34/8
f 9/36/8 8/32/8 19/35/8 21/37/8
