# Blender v2.78 (sub 0) OBJ File: 'Low_Poly_Trees_Pack.blend'
# www.blender.org
g Acacia_Stump_01
v 0.218111 2.335435 -0.019948
v 0.338095 0.000000 0.199472
v 0.181566 0.000000 -0.201265
v -0.247927 0.000000 -0.176232
v -0.356840 0.000000 0.239977
v 0.005341 0.000000 0.472174
v 0.257084 1.097889 0.101070
v -0.023505 1.103490 0.284992
v -0.209662 0.947154 -0.166051
v -0.300085 0.772085 0.149627
v 0.131920 1.097234 -0.227854
v 0.131826 2.332353 -0.273088
v -0.161050 2.244603 -0.216499
v -0.023971 2.240342 0.146259
v -0.018971 1.100201 0.316375
v -0.326660 0.734472 0.166749
v -0.010063 2.243180 0.173213
v -0.226296 0.935454 -0.191827
v -0.169648 2.244928 -0.245677
v 0.150506 2.341513 -0.307508
v 0.253092 2.344415 -0.007278
vt 0.5621 0.8145
vt 0.5872 0.8066
vt 0.6039 0.8336
vt 0.5676 0.8469
vt 0.8341 0.6608
vt 0.8487 0.6603
vt 0.8487 0.7090
vt 0.8302 0.7036
vt 0.5414 0.8231
vt 0.5390 0.7798
vt 0.5460 0.7755
vt 0.5517 0.8164
vt 0.5536 0.7764
vt 0.5659 0.7771
vt 0.8384 0.7184
vt 0.5439 0.8529
vt 0.5562 0.8511
vt 0.5194 0.8490
vt 0.5199 0.8179
vt 0.5303 0.8299
vt 0.5316 0.8517
vt 0.8225 0.6642
vt 0.8228 0.7142
vt 0.7840 0.7052
vt 0.7830 0.6707
vt 0.6074 0.7735
vt 0.6154 0.7688
vt 0.6164 0.7689
vt 0.6075 0.7742
vt 0.5837 0.7721
vt 0.5837 0.7728
vt 0.6101 0.7633
vt 0.6103 0.7626
vt 0.6044 0.7675
vt 0.5824 0.7696
vt 0.5803 0.7677
vt 0.6044 0.7653
vt 0.5832 0.7641
vt 0.5832 0.7635
vt 0.5817 0.7887
vt 0.5794 0.7902
vt 0.6027 0.7950
vt 0.6023 0.7972
vn 0.6213 0.1193 0.7745
vn -0.9313 0.0465 0.3612
vn -0.1246 -0.0481 -0.9910
vn 0.5796 0.0841 0.8106
vn -0.7850 0.6091 0.1129
vn -0.0728 -0.0217 -0.9971
vn -0.5356 0.1063 0.8378
vn 0.9323 0.0350 -0.3600
vn -0.9663 0.0163 -0.2568
vn 0.9399 -0.0312 -0.3401
vn -0.2825 0.9536 0.1043
vn -0.7869 0.5991 0.1477
vn -0.9526 0.0408 0.3015
vn -0.7567 0.6382 0.1418
vn -0.2687 0.9580 0.1003
vn -0.9116 0.0531 0.4076
vn -0.2870 0.9539 0.0876
vn -0.3045 0.9479 0.0930
s off
f 7/1/1 15/2/1 6/3/1 2/4/1
f 14/5/2 13/6/2 9/7/2 8/8/2
f 18/9/3 19/10/3 20/11/3 11/12/3
f 21/13/4 17/14/4 15/2/4 7/1/4
f 10/15/5 8/8/5 9/7/5
f 4/16/6 18/9/6 11/12/6 3/17/6
f 6/18/7 15/19/7 16/20/7 5/21/7
f 3/17/8 11/12/8 7/1/8 2/4/8
f 5/21/9 16/20/9 18/9/9 4/16/9
f 11/12/10 20/11/10 21/13/10 7/1/10
f 13/22/11 14/23/11 1/24/11 12/25/11
f 8/26/12 10/27/12 16/28/12 15/29/12
f 14/30/13 8/26/13 15/29/13 17/31/13
f 10/27/14 9/32/14 18/33/14 16/28/14
f 13/34/15 12/35/15 20/36/15 19/37/15
f 9/32/16 13/38/16 19/39/16 18/33/16
f 12/35/17 1/40/17 21/41/17 20/36/17
f 1/40/18 14/42/18 17/43/18 21/41/18
