# Blender v2.78 (sub 0) OBJ File: 'Low_Poly_Trees_Pack.blend'
# www.blender.org
g Dead_Stump_02
v 0.000000 0.000000 -0.490066
v -0.490066 0.000000 0.000000
v 0.000000 0.000000 0.490066
v 0.490066 0.000000 -0.000000
v -0.021907 0.899348 -0.124486
v -0.113317 0.899348 0.245693
v 0.256862 0.899348 0.337103
v 0.348272 0.899348 -0.033076
v -0.160364 0.899348 0.274106
v -0.050320 0.899348 -0.171533
v 0.285275 0.899348 0.384150
v 0.395319 0.899348 -0.061489
vt 0.5868 0.6511
vt 0.5862 0.6839
vt 0.5695 0.6843
vt 0.5418 0.6545
vt 0.5530 0.6851
vt 0.5373 0.6856
vt 0.5647 0.6528
vt 0.6082 0.6570
vt 0.6012 0.6889
vt 0.5188 0.6579
vt 0.6711 0.7937
vt 0.7021 0.7937
vt 0.7021 0.8248
vt 0.6711 0.8248
vt 0.5529 0.6923
vt 0.5529 0.7234
vt 0.5497 0.7265
vt 0.5497 0.6891
vt 0.5840 0.6923
vt 0.5871 0.6891
vt 0.5840 0.7234
vt 0.5871 0.7265
vn 0.2258 0.3364 -0.9142
vn -0.2355 0.1870 0.9537
vn 0.9641 0.1178 0.2381
vn -0.8922 0.3942 -0.2203
vn 0.7002 -0.1396 0.7002
vn -0.7064 0.0437 0.7064
vn -0.6919 0.2063 -0.6919
vn 0.7069 0.0261 -0.7069
vn 0.0000 1.0000 0.0000
s off
f 1/1/1 10/2/1 12/3/1
f 3/4/2 11/5/2 9/6/2
f 4/7/3 12/3/3 11/5/3
f 2/8/4 9/9/4 10/2/4
f 3/4/5 4/7/5 11/5/5
f 2/10/6 3/4/6 9/6/6
f 1/1/7 2/8/7 10/2/7
f 4/7/8 1/1/8 12/3/8
f 6/11/9 7/12/9 8/13/9 5/14/9
f 6/15/9 5/16/9 10/17/9 9/18/9
f 7/19/9 6/15/9 9/18/9 11/20/9
f 8/21/9 7/19/9 11/20/9 12/22/9
f 5/16/9 8/21/9 12/22/9 10/17/9
