# Blender v2.78 (sub 0) OBJ File: 'Low_Poly_Trees_Pack.blend'
# www.blender.org
g Dead_Stump_01
v -0.437742 0.000000 0.870915
v 0.626056 0.000000 0.534515
v 0.289656 0.000000 -0.529283
v -0.774142 0.000000 -0.192883
v -0.388445 1.078266 0.326139
v 0.102422 1.078266 0.306252
v 0.082535 1.078266 -0.184616
v -0.408332 1.078266 -0.164729
v 0.184942 1.078266 0.382345
v -0.464539 1.078266 0.408658
v 0.158629 1.078266 -0.267135
v -0.490852 1.078266 -0.240822
vt 0.7086 0.6737
vt 0.7086 0.7075
vt 0.6889 0.7075
vt 0.6889 0.6737
vt 0.6692 0.6737
vt 0.6692 0.7075
vt 0.6495 0.7075
vt 0.6495 0.6737
vt 0.7283 0.6737
vt 0.7283 0.7075
vt 0.6904 0.8028
vt 0.6904 0.8176
vt 0.6756 0.8176
vt 0.6756 0.8028
vt 0.6969 0.6506
vt 0.6820 0.6506
vt 0.6796 0.6482
vt 0.6993 0.6482
vt 0.6969 0.6655
vt 0.6993 0.6679
vt 0.6820 0.6655
vt 0.6796 0.6679
vn -0.9652 0.1631 0.2043
vn 0.9445 0.2608 -0.2000
vn -0.2058 0.1111 -0.9723
vn 0.1971 0.3079 0.9308
vn 0.0000 1.0000 0.0000
s off
f 1/1/1 10/2/1 12/3/1 4/4/1
f 3/5/2 11/6/2 9/7/2 2/8/2
f 4/4/3 12/3/3 11/6/3 3/5/3
f 2/9/4 9/10/4 10/2/4 1/1/4
f 6/11/5 7/12/5 8/13/5 5/14/5
f 6/15/5 5/16/5 10/17/5 9/18/5
f 7/19/5 6/15/5 9/18/5 11/20/5
f 8/21/5 7/19/5 11/20/5 12/22/5
f 5/16/5 8/21/5 12/22/5 10/17/5
