# Blender v2.78 (sub 0) OBJ File: 'Low_Poly_Trees_Pack.blend'
# www.blender.org
g Fir_Stump_02
v 0.042516 0.000989 -0.116494
v -0.119884 0.000462 -0.041925
v -0.023423 -0.000110 0.118463
v 0.117184 0.000480 0.024954
v 0.069091 0.226276 0.014035
v -0.024647 0.225613 0.069079
v -0.080756 0.226255 -0.026275
v 0.024662 0.226894 -0.076282
v 0.089128 0.226274 0.020044
v -0.030091 0.225432 0.090050
v 0.031745 0.227074 -0.096607
v -0.102464 0.226258 -0.032942
vt 0.8990 0.9168
vt 0.9283 0.9220
vt 0.9268 0.9400
vt 0.8970 0.9388
vt 0.8991 0.9632
vt 0.9285 0.9586
vt 0.9326 0.9776
vt 0.9041 0.9861
vt 0.9042 0.8965
vt 0.9326 0.9055
vt 0.8063 0.8014
vt 0.8063 0.8226
vt 0.7818 0.8229
vt 0.7835 0.7997
vt 0.9657 0.9302
vt 0.9429 0.9285
vt 0.9399 0.9251
vt 0.9689 0.9272
vt 0.9657 0.9514
vt 0.9689 0.9545
vt 0.9412 0.9517
vt 0.9377 0.9550
vn 0.5294 0.1029 0.8421
vn -0.4218 0.0640 -0.9044
vn 0.8867 0.0912 -0.4532
vn -0.8582 0.0425 0.5115
vn -0.0023 1.0000 0.0080
vn -0.0023 1.0000 0.0081
s off
f 4/1/1 9/2/1 10/3/1 3/4/1
f 2/5/2 12/6/2 11/7/2 1/8/2
f 1/9/3 11/10/3 9/2/3 4/1/3
f 10/3/4 12/6/4 2/5/4 3/4/4
f 5/11/5 8/12/5 7/13/5 6/14/5
f 5/15/6 6/16/6 10/17/6 9/18/6
f 8/19/5 5/15/5 9/18/5 11/20/5
f 6/16/6 7/21/6 12/22/6 10/17/6
f 7/21/5 8/19/5 11/20/5 12/22/5
