# Blender v2.78 (sub 0) OBJ File: 'Low_Poly_Trees_Pack.blend'
# www.blender.org
g Oak_Stump_06
v 0.000000 0.000000 -0.414720
v -0.232786 0.000000 -0.350629
v -0.405402 0.000000 -0.113042
v -0.394422 0.000000 0.128156
v -0.265421 0.000000 0.328480
v 0.021654 0.000000 0.421756
v 0.243766 0.000000 0.335516
v 0.409338 0.000000 0.128156
v 0.409338 0.000000 -0.128156
v 0.243766 0.000000 -0.335516
v 0.000000 0.476619 -0.290631
v -0.170829 0.476619 -0.235125
v -0.276406 0.476619 -0.089810
v -0.276406 0.476619 0.089810
v -0.170829 0.476619 0.235125
v 0.000000 0.476619 0.290631
v 0.170829 0.476619 0.235125
v 0.276406 0.476619 0.089810
v 0.276406 0.476619 -0.089810
v 0.170828 0.476619 -0.235125
v -0.000000 0.238310 -0.371922
v -0.210123 0.238310 -0.312574
v 0.353719 0.238310 0.119032
v 0.353719 0.238310 -0.119032
v -0.237639 0.238310 0.294709
v 0.019029 0.238310 0.378105
v -0.362207 0.238310 -0.103248
v 0.218610 0.238310 -0.300892
v 0.218610 0.238310 0.300891
v -0.353719 0.238310 0.114930
v -0.213163 -0.006907 0.517361
v -0.125025 -0.006907 0.545999
v -0.052830 0.234856 0.402067
v -0.195820 0.234856 0.355606
v -0.422486 -0.000407 -0.345252
v -0.486612 -0.000407 -0.256989
v -0.291838 0.238106 -0.296804
v -0.383632 0.238106 -0.170460
v 0.497664 0.000000 0.058204
v 0.497664 0.000000 -0.058204
v 0.392700 0.238310 0.080815
v 0.392700 0.238310 -0.080815
v 0.099047 0.476619 -0.032182
v -0.099047 0.476619 0.032182
v -0.198094 0.476619 -0.272653
v -0.000000 0.476619 -0.337018
v -0.320523 0.476619 -0.104144
v -0.320523 0.476619 0.104144
v -0.198094 0.476619 0.272653
v 0.198094 0.476619 0.272653
v 0.000000 0.476619 0.337018
v 0.320523 0.476619 0.104144
v 0.320523 0.476619 -0.104144
v 0.198094 0.476619 -0.272653
v -0.316319 0.594965 0.084294
v -0.316319 0.594965 -0.084294
v 0.310886 0.594965 0.101013
v 0.211793 0.594965 0.237404
v 0.310886 0.594965 -0.067575
v 0.025478 0.590207 -0.334739
v 0.169019 0.590380 -0.285269
v -0.177601 0.588694 0.304558
v -0.017352 0.591208 0.356862
v -0.280611 0.594965 0.072692
v -0.280611 0.594965 -0.072692
v 0.275178 0.594965 0.089411
v 0.189724 0.594965 0.207029
v 0.275178 0.594965 -0.055973
v 0.025321 0.599563 -0.302247
v 0.149105 0.599712 -0.259586
v -0.156081 0.598896 0.275532
v -0.017888 0.601064 0.320638
v -0.306796 0.597723 -0.124891
v -0.219997 0.597723 -0.244360
v -0.275518 0.597723 -0.114728
v -0.200666 0.597723 -0.217754
vt 0.9802 0.6907
vt 0.9749 0.6974
vt 0.9691 0.6928
vt 0.9741 0.6858
vt 0.9582 0.6766
vt 0.9525 0.6749
vt 0.9561 0.6662
vt 0.9600 0.6674
vt 0.9043 0.6905
vt 0.8978 0.6832
vt 0.9002 0.6803
vt 0.9081 0.6862
vt 0.9672 0.6813
vt 0.9629 0.6888
vt 0.9563 0.6854
vt 0.9600 0.6776
vt 0.9423 0.6741
vt 0.9420 0.6826
vt 0.9346 0.6828
vt 0.9345 0.6740
vt 0.9169 0.6806
vt 0.9212 0.6878
vt 0.9152 0.6920
vt 0.9103 0.6849
vt 0.9505 0.6748
vt 0.9493 0.6834
vt 0.9237 0.6768
vt 0.9277 0.6846
vt 0.9196 0.6691
vt 0.9124 0.6732
vt 0.9521 0.6661
vt 0.9428 0.6654
vt 0.9792 0.6789
vt 0.9716 0.6739
vt 0.9053 0.6778
vt 0.9343 0.6652
vt 0.9633 0.6694
vt 0.9105 0.6974
vt 0.9859 0.6842
vt 0.9261 0.6754
vt 0.9248 0.6648
vt 0.9279 0.6640
vt 0.9316 0.6739
vt 0.9030 0.6932
vt 0.8955 0.6893
vt 0.8081 0.6962
vt 0.8005 0.7194
vt 0.7815 0.7056
vt 0.7743 0.6833
vt 0.8503 0.6833
vt 0.8165 0.6703
vt 0.8240 0.6471
vt 0.8430 0.6609
vt 0.7815 0.6609
vt 0.8005 0.6471
vt 0.8430 0.7056
vt 0.8240 0.7194
vt 0.9185 0.7214
vt 0.8902 0.7241
vt 0.8884 0.7211
vt 0.9191 0.7177
vt 0.9231 0.7207
vt 0.9198 0.7194
vt 0.9216 0.7195
vt 0.9621 0.7008
vt 0.9608 0.7057
vt 0.9528 0.7026
vt 0.9534 0.7012
vt 0.9823 0.7311
vt 0.9294 0.7221
vt 0.9282 0.7154
vt 0.9887 0.7189
vt 0.9296 0.7032
vt 0.9131 0.7098
vt 0.9104 0.7067
vt 0.9291 0.6983
vt 0.9010 0.7132
vt 0.9078 0.7105
vt 0.9078 0.7102
vt 0.8873 0.7234
vt 0.8888 0.7226
vt 0.8882 0.7233
vt 0.9777 0.7163
vt 0.9817 0.7130
vt 0.9248 0.7194
vt 0.9276 0.7191
vt 0.9038 0.7163
vt 0.9076 0.7104
vt 0.9077 0.7107
vt 0.9247 0.7195
vt 0.9275 0.7185
vt 0.9457 0.7017
vt 0.9385 0.7015
vt 0.9380 0.6998
vt 0.9459 0.6995
vt 0.8889 0.7229
vt 0.8882 0.7232
vt 0.9230 0.7187
vt 0.8878 0.7242
vt 0.9448 0.7119
vt 0.9466 0.6887
vt 0.9199 0.7193
vt 0.9217 0.7195
vn -0.2865 0.1556 -0.9454
vn 0.9152 0.4031 0.0000
vn -0.7051 0.4903 -0.5123
vn 0.7975 0.1429 -0.5862
vn 0.3309 0.1627 0.9295
vn -0.9876 0.1556 0.0197
vn 0.3061 0.1380 -0.9420
vn 0.7975 0.1429 0.5862
vn -0.8141 0.1627 0.5575
vn -0.8280 0.1716 0.5339
vn 0.7774 0.1869 0.6006
vn 0.3046 0.1684 -0.9375
vn -0.9840 0.1735 0.0417
vn 0.3561 0.1716 0.9186
vn 0.7774 0.1869 -0.6006
vn -0.7569 0.3532 -0.5499
vn 0.9571 0.2899 0.0000
vn -0.2644 0.1735 -0.9487
vn -0.2581 0.5500 0.7943
vn -0.2940 0.3077 0.9049
vn 0.3028 0.1854 0.9348
vn -0.8051 0.1857 0.5634
vn -0.9079 0.2285 0.3514
vn 0.5373 0.2382 0.8090
vn -0.9398 0.1655 0.2991
vn -0.8842 0.1843 0.4292
vn -0.1871 0.1715 -0.9673
vn -0.0765 0.2017 -0.9764
vn 0.0000 1.0000 0.0000
vn 0.6353 0.1929 -0.7478
vn 0.6931 0.1407 -0.7070
vn 0.6353 0.1929 0.7478
vn 0.6931 0.1407 0.7070
vn 0.8037 0.1143 0.5839
vn -0.2984 0.2595 -0.9185
vn -0.3015 -0.2083 0.9305
vn 0.3159 -0.0381 -0.9480
vn 0.9994 0.0355 0.0000
vn 0.2968 0.2656 -0.9173
vn 0.0936 0.9569 -0.2751
vn -0.1008 0.9596 0.2626
vn -0.9776 0.2089 -0.0267
vn -0.9994 0.0355 0.0000
vn 0.7923 0.2566 0.5535
vn 0.3057 0.1469 -0.9407
vn -0.8090 -0.0104 -0.5878
vn 0.3057 0.1469 0.9407
vn -0.9999 -0.0104 0.0000
vn -0.7933 0.2852 -0.5378
vn 0.8063 0.0812 0.5858
vn -0.7813 0.2595 0.5676
vn 0.9967 0.0812 0.0000
vn -0.3130 0.1423 0.9390
vn 0.9896 0.1437 0.0107
vn -0.3031 0.1942 0.9330
vn 0.7783 0.2729 -0.5655
vn -0.8090 -0.0090 -0.5878
s off
f 22/1/1 45/2/1 46/3/1 21/4/1
f 42/5/2 41/6/2 39/7/2 40/8/2
f 37/9/3 35/10/3 36/11/3 38/12/3
f 28/13/4 54/14/4 53/15/4 24/16/4
f 29/17/5 50/18/5 51/19/5 26/20/5
f 30/21/6 48/22/6 47/23/6 27/24/6
f 21/4/7 46/3/7 54/14/7 28/13/7
f 23/25/8 52/26/8 50/18/8 29/17/8
f 25/27/9 49/28/9 48/22/9 30/21/9
f 5/29/10 25/27/10 30/21/10 4/30/10
f 8/31/11 23/25/11 29/17/11 7/32/11
f 1/33/12 21/4/12 28/13/12 10/34/12
f 4/30/13 30/21/13 27/24/13 3/35/13
f 7/32/14 29/17/14 26/20/14 6/36/14
f 10/34/15 28/13/15 24/16/15 9/37/15
f 45/38/16 37/9/16 38/12/16 47/23/16
f 53/15/17 52/26/17 41/6/17 42/5/17
f 2/39/18 22/1/18 21/4/18 1/33/18
f 34/40/19 31/41/19 32/42/19 33/43/19
f 49/28/20 34/40/20 33/43/20 51/19/20
f 26/20/21 51/19/21 33/43/21
f 49/28/22 25/27/22 34/40/22
f 25/27/23 5/29/23 31/41/23 34/40/23
f 6/36/24 26/20/24 33/43/24 32/42/24
f 27/24/25 47/23/25 38/12/25
f 3/35/26 27/24/26 38/12/26 36/11/26
f 45/38/27 22/44/27 37/9/27
f 22/44/28 2/45/28 35/10/28 37/9/28
f 44/46/29 14/47/29 15/48/29 16/49/29
f 24/16/30 42/5/30 40/8/30 9/37/30
f 53/15/31 42/5/31 24/16/31
f 41/6/32 23/25/32 8/31/32 39/7/32
f 23/25/33 41/6/33 52/26/33
f 11/50/29 43/51/29 19/52/29 20/53/29
f 19/52/29 43/51/29 17/54/29 18/55/29
f 12/56/29 13/57/29 14/47/29 44/46/29
f 43/51/29 44/46/29 16/49/29 17/54/29
f 11/50/29 12/56/29 44/46/29 43/51/29
f 12/58/29 11/59/29 46/60/29 45/61/29
f 13/62/34 12/58/34 76/63/34 75/64/34
f 53/65/35 19/66/35 68/67/35 59/68/35
f 15/69/29 14/70/29 48/71/29 49/72/29
f 17/73/29 16/74/29 51/75/29 50/76/29
f 49/77/36 51/75/36 63/78/36 62/79/36
f 54/80/37 46/60/37 60/81/37 61/82/37
f 20/83/29 19/66/29 53/65/29 54/84/29
f 14/70/38 13/62/38 65/85/38 64/86/38
f 16/74/39 15/87/39 71/88/39 72/89/39
f 64/86/29 65/85/29 56/90/29 55/91/29
f 66/92/29 67/93/29 58/94/29 57/95/29
f 68/67/29 66/92/29 57/95/29 59/68/29
f 69/96/40 70/97/40 61/82/40 60/81/40
f 72/89/41 71/88/41 62/79/41 63/78/41
f 46/60/42 11/59/42 69/96/42 60/81/42
f 47/98/43 48/71/43 55/91/43 56/90/43
f 20/99/44 54/80/44 61/82/44 70/97/44
f 13/62/45 47/98/45 56/90/45 65/85/45
f 18/100/46 17/73/46 67/93/46 66/92/46
f 48/71/47 14/70/47 64/86/47 55/91/47
f 19/66/48 18/100/48 66/92/48 68/67/48
f 15/87/49 49/77/49 62/79/49 71/88/49
f 50/76/50 52/101/50 57/95/50 58/94/50
f 17/73/51 50/76/51 58/94/51 67/93/51
f 52/101/52 53/65/52 59/68/52 57/95/52
f 11/59/53 20/99/53 70/97/53 69/96/53
f 51/75/54 16/74/54 72/89/54 63/78/54
f 75/64/29 76/63/29 74/102/29 73/103/29
f 47/98/55 13/62/55 75/64/55 73/103/55
f 12/58/56 45/61/56 74/102/56 76/63/56
f 45/61/57 47/98/57 73/103/57 74/102/57
