# Blender v2.78 (sub 0) OBJ File: 'Low_Poly_Trees_Pack.blend'
# www.blender.org
g Oak_Stump_01
v 0.348878 0.000000 0.131865
v -0.044114 0.000000 0.323662
v -0.281939 0.000000 0.058390
v -0.284686 0.000000 -0.164742
v -0.049610 0.000000 -0.443415
v 0.344390 0.000000 -0.232610
v 0.282786 0.255924 -0.198536
v -0.033492 0.298864 -0.367757
v -0.222196 0.280914 -0.144055
v -0.219991 0.290303 0.035060
v -0.029080 0.317647 0.248004
v 0.286388 0.271260 0.094041
v 0.189102 1.111752 0.052000
v -0.047210 1.146851 0.121800
v -0.189435 1.124051 0.008752
v -0.191058 1.115015 -0.120366
v -0.051127 1.127627 -0.241360
v 0.185944 1.096465 -0.159903
v -0.211898 1.125629 0.019545
v -0.213742 1.117775 -0.130298
v -0.055878 1.132791 -0.266598
v 0.208711 1.096869 -0.175875
v -0.052187 1.148505 0.146845
v 0.211725 1.109699 0.068887
vt 0.9161 0.7797
vt 0.9025 0.7832
vt 0.8971 0.7699
vt 0.9125 0.7645
vt 0.8944 0.7862
vt 0.8877 0.7745
vt 0.9339 0.7751
vt 0.9329 0.7613
vt 0.9568 0.8198
vt 0.9455 0.8140
vt 0.9489 0.7751
vt 0.9666 0.7804
vt 0.9800 0.7853
vt 0.9714 0.7663
vt 0.9867 0.7737
vt 0.9504 0.7618
vt 0.9662 0.8226
vt 0.9240 0.8188
vt 0.9150 0.8214
vt 0.9349 0.8139
vt 0.9083 0.8232
vt 0.8041 0.6532
vt 0.8433 0.6648
vt 0.8430 0.6996
vt 0.7810 0.6934
vt 0.8039 0.7134
vt 0.7810 0.6722
vt 0.9210 0.8286
vt 0.9164 0.8438
vt 0.9133 0.8442
vt 0.9187 0.8265
vt 0.9284 0.8632
vt 0.9595 0.8619
vt 0.9616 0.8646
vt 0.9269 0.8661
vt 0.9418 0.8200
vt 0.9422 0.8169
vt 0.9674 0.8370
vt 0.9707 0.8358
vn -0.7354 0.1986 0.6479
vn -0.9771 0.2129 0.0071
vn 0.4401 0.2040 0.8745
vn 0.4170 0.0909 -0.9043
vn -0.7516 0.2060 -0.6266
vn 0.9733 0.2290 -0.0173
vn 0.4712 0.2082 -0.8571
vn -0.7217 0.0415 -0.6910
vn -0.6990 0.0437 0.7138
vn 0.3817 0.0919 0.9197
vn 0.9960 0.0882 -0.0169
vn -0.9999 0.0099 0.0118
vn 0.1253 0.9894 -0.0732
vn 0.0672 0.9814 0.1800
vn 0.0113 0.9905 -0.1369
vn 0.0943 0.9937 -0.0613
vn 0.0747 0.9834 0.1655
vn -0.0489 0.9907 -0.1268
vn 0.0598 0.9828 0.1748
vn 0.1326 0.9901 -0.0464
vn 0.0375 0.9974 -0.0619
s off
f 11/1/1 10/2/1 3/3/1 2/4/1
f 10/2/2 9/5/2 4/6/2 3/3/2
f 12/7/3 11/1/3 2/4/3 1/8/3
f 21/9/4 22/10/4 7/11/4 8/12/4
f 9/13/5 8/12/5 5/14/5 4/15/5
f 7/11/6 12/7/6 1/8/6 6/16/6
f 8/12/7 7/11/7 6/16/7 5/14/7
f 20/17/8 21/9/8 8/12/8 9/13/8
f 23/18/9 19/19/9 10/2/9 11/1/9
f 24/20/10 23/18/10 11/1/10 12/7/10
f 22/10/11 24/20/11 12/7/11 7/11/11
f 19/19/12 20/21/12 9/5/12 10/2/12
f 14/22/13 13/23/13 18/24/13
f 16/25/14 18/24/14 17/26/14
f 15/27/15 14/22/15 18/24/15 16/25/15
f 15/28/16 16/29/16 20/30/16 19/31/16
f 17/32/17 18/33/17 22/34/17 21/35/17
f 14/36/18 15/28/18 19/31/18 23/37/18
f 16/29/19 17/32/19 21/35/19 20/30/19
f 13/38/20 14/36/20 23/37/20 24/39/20
f 18/33/21 13/38/21 24/39/21 22/34/21
