# Blender v2.78 (sub 0) OBJ File: 'Low_Poly_Trees_Pack.blend'
# www.blender.org
g Oak_Stump_03
v 0.000000 0.000000 -0.414720
v -0.232786 0.000000 -0.350629
v -0.405402 0.000000 -0.113042
v -0.394422 0.000000 0.128156
v -0.265421 0.000000 0.328480
v 0.021654 0.000000 0.421756
v 0.243766 0.000000 0.335516
v 0.409338 0.000000 0.128156
v 0.409338 0.000000 -0.128156
v 0.243766 0.000000 -0.335516
v 0.000000 0.476619 -0.280381
v -0.164804 0.476619 -0.226833
v -0.266658 0.476619 -0.086642
v -0.266658 0.476619 0.086643
v -0.164804 0.476619 0.226833
v 0.000000 0.476619 0.280381
v 0.164804 0.476619 0.226833
v 0.266658 0.476619 0.086643
v 0.266658 0.476619 -0.086643
v 0.164804 0.476619 -0.226833
v -0.000000 0.238310 -0.371922
v -0.210123 0.238310 -0.312574
v 0.353719 0.238310 0.119032
v 0.353719 0.238310 -0.119032
v -0.237639 0.238310 0.294709
v 0.019029 0.238310 0.378105
v -0.362207 0.238310 -0.103248
v 0.218610 0.238310 -0.300892
v 0.218610 0.238310 0.300891
v -0.353719 0.238310 0.114930
v -0.213163 -0.006907 0.517361
v -0.125025 -0.006907 0.545999
v -0.052830 0.234856 0.402067
v -0.195820 0.234856 0.355606
v -0.422486 -0.000407 -0.345252
v -0.486612 -0.000407 -0.256989
v -0.291838 0.238106 -0.296804
v -0.383632 0.238106 -0.170460
v 0.497664 0.000000 0.058204
v 0.497664 0.000000 -0.058204
v 0.392700 0.238310 0.080815
v 0.392700 0.238310 -0.080815
v 0.099047 0.476619 -0.032182
v -0.099047 0.476619 0.032182
v -0.198094 0.476619 -0.272653
v -0.000000 0.476619 -0.337018
v -0.320523 0.476619 -0.104144
v -0.320523 0.476619 0.104144
v -0.198094 0.476619 0.272653
v 0.198094 0.476619 0.272653
v 0.000000 0.476619 0.337018
v 0.320523 0.476619 0.104144
v 0.320523 0.476619 -0.104144
v 0.198094 0.476619 -0.272653
vt 0.9802 0.6606
vt 0.9749 0.6674
vt 0.9691 0.6628
vt 0.9741 0.6558
vt 0.9582 0.6466
vt 0.9525 0.6449
vt 0.9561 0.6362
vt 0.9600 0.6373
vt 0.9043 0.6605
vt 0.8978 0.6532
vt 0.9002 0.6503
vt 0.9081 0.6562
vt 0.9672 0.6513
vt 0.9629 0.6587
vt 0.9563 0.6554
vt 0.9600 0.6475
vt 0.9423 0.6440
vt 0.9420 0.6526
vt 0.9346 0.6528
vt 0.9345 0.6440
vt 0.9169 0.6505
vt 0.9212 0.6578
vt 0.9152 0.6619
vt 0.9103 0.6549
vt 0.9505 0.6448
vt 0.9493 0.6533
vt 0.9237 0.6468
vt 0.9277 0.6545
vt 0.9196 0.6391
vt 0.9124 0.6432
vt 0.9521 0.6361
vt 0.9428 0.6354
vt 0.9792 0.6489
vt 0.9716 0.6439
vt 0.9053 0.6478
vt 0.9343 0.6352
vt 0.9633 0.6394
vt 0.9105 0.6674
vt 0.9859 0.6542
vt 0.9261 0.6454
vt 0.9248 0.6348
vt 0.9279 0.6339
vt 0.9316 0.6439
vt 0.9030 0.6632
vt 0.8955 0.6593
vt 0.8081 0.6962
vt 0.8009 0.7182
vt 0.7826 0.7048
vt 0.7756 0.6833
vt 0.8490 0.6833
vt 0.8165 0.6703
vt 0.8236 0.6484
vt 0.8420 0.6617
vt 0.7826 0.6617
vt 0.8009 0.6484
vt 0.8420 0.7048
vt 0.8236 0.7182
vt 0.9697 0.7221
vt 0.9768 0.7005
vt 0.9842 0.7005
vt 0.9757 0.7265
vt 0.9514 0.7354
vt 0.9537 0.7425
vt 0.9287 0.7354
vt 0.9265 0.7425
vt 0.9104 0.7221
vt 0.9044 0.7265
vt 0.9104 0.6790
vt 0.9034 0.7005
vt 0.8960 0.7005
vt 0.9044 0.6746
vt 0.9287 0.6657
vt 0.9265 0.6586
vt 0.9514 0.6657
vt 0.9537 0.6586
vt 0.9697 0.6790
vt 0.9757 0.6746
vn -0.2865 0.1556 -0.9454
vn 0.9152 0.4031 0.0000
vn -0.7051 0.4903 -0.5123
vn 0.7975 0.1429 -0.5862
vn 0.3309 0.1627 0.9295
vn -0.9876 0.1556 0.0197
vn 0.3061 0.1380 -0.9420
vn 0.7975 0.1429 0.5862
vn -0.8141 0.1627 0.5575
vn -0.8280 0.1716 0.5339
vn 0.7774 0.1869 0.6006
vn 0.3046 0.1684 -0.9375
vn -0.9840 0.1735 0.0417
vn 0.3561 0.1716 0.9186
vn 0.7774 0.1869 -0.6006
vn -0.7569 0.3532 -0.5499
vn 0.9571 0.2899 0.0000
vn -0.2644 0.1735 -0.9487
vn -0.2581 0.5500 0.7943
vn -0.2940 0.3077 0.9049
vn 0.3028 0.1854 0.9348
vn -0.8051 0.1857 0.5634
vn -0.9079 0.2285 0.3514
vn 0.5373 0.2382 0.8090
vn -0.9398 0.1655 0.2991
vn -0.8842 0.1843 0.4292
vn -0.1871 0.1715 -0.9673
vn -0.0765 0.2017 -0.9764
vn 0.0000 1.0000 0.0000
vn 0.6353 0.1929 -0.7478
vn 0.6931 0.1407 -0.7070
vn 0.6353 0.1929 0.7478
vn 0.6931 0.1407 0.7070
s off
f 22/1/1 45/2/1 46/3/1 21/4/1
f 42/5/2 41/6/2 39/7/2 40/8/2
f 37/9/3 35/10/3 36/11/3 38/12/3
f 28/13/4 54/14/4 53/15/4 24/16/4
f 29/17/5 50/18/5 51/19/5 26/20/5
f 30/21/6 48/22/6 47/23/6 27/24/6
f 21/4/7 46/3/7 54/14/7 28/13/7
f 23/25/8 52/26/8 50/18/8 29/17/8
f 25/27/9 49/28/9 48/22/9 30/21/9
f 5/29/10 25/27/10 30/21/10 4/30/10
f 8/31/11 23/25/11 29/17/11 7/32/11
f 1/33/12 21/4/12 28/13/12 10/34/12
f 4/30/13 30/21/13 27/24/13 3/35/13
f 7/32/14 29/17/14 26/20/14 6/36/14
f 10/34/15 28/13/15 24/16/15 9/37/15
f 45/38/16 37/9/16 38/12/16 47/23/16
f 53/15/17 52/26/17 41/6/17 42/5/17
f 2/39/18 22/1/18 21/4/18 1/33/18
f 34/40/19 31/41/19 32/42/19 33/43/19
f 49/28/20 34/40/20 33/43/20 51/19/20
f 26/20/21 51/19/21 33/43/21
f 49/28/22 25/27/22 34/40/22
f 25/27/23 5/29/23 31/41/23 34/40/23
f 6/36/24 26/20/24 33/43/24 32/42/24
f 27/24/25 47/23/25 38/12/25
f 3/35/26 27/24/26 38/12/26 36/11/26
f 45/38/27 22/44/27 37/9/27
f 22/44/28 2/45/28 35/10/28 37/9/28
f 44/46/29 14/47/29 15/48/29 16/49/29
f 24/16/30 42/5/30 40/8/30 9/37/30
f 53/15/31 42/5/31 24/16/31
f 41/6/32 23/25/32 8/31/32 39/7/32
f 23/25/33 41/6/33 52/26/33
f 11/50/29 43/51/29 19/52/29 20/53/29
f 19/52/29 43/51/29 17/54/29 18/55/29
f 12/56/29 13/57/29 14/47/29 44/46/29
f 43/51/29 44/46/29 16/49/29 17/54/29
f 11/50/29 12/56/29 44/46/29 43/51/29
f 12/58/29 11/59/29 46/60/29 45/61/29
f 13/62/29 12/58/29 45/61/29 47/63/29
f 14/64/29 13/62/29 47/63/29 48/65/29
f 15/66/29 14/64/29 48/65/29 49/67/29
f 17/68/29 16/69/29 51/70/29 50/71/29
f 18/72/29 17/68/29 50/71/29 52/73/29
f 19/74/29 18/72/29 52/73/29 53/75/29
f 20/76/29 19/74/29 53/75/29 54/77/29
f 11/59/29 20/76/29 54/77/29 46/60/29
f 16/69/29 15/66/29 49/67/29 51/70/29
