# Blender v2.78 (sub 0) OBJ File: 'Low_Poly_Trees_Pack.blend'
# www.blender.org
g Pine_Stump_01
v -0.069768 0.000000 -0.344106
v -0.329252 0.000000 -0.024387
v -0.097469 0.000000 0.322780
v 0.318633 0.000000 0.208148
v 0.305002 0.000000 -0.193610
v 0.264348 1.801614 -0.184113
v -0.041268 1.781701 0.196502
v -0.000164 1.746861 -0.296876
v 0.264069 1.781073 0.113479
v -0.188945 1.790809 -0.061978
v 0.311806 1.799479 -0.215187
v 0.311536 1.778015 0.149703
v -0.064308 1.779339 0.251932
v -0.246045 1.788445 -0.066166
v -0.014714 1.742644 -0.354895
vt 0.9331 0.8888
vt 0.9332 0.9575
vt 0.9192 0.9565
vt 0.9177 0.8887
vt 0.9801 0.8898
vt 0.9748 0.9575
vt 0.9608 0.9571
vt 0.9642 0.8889
vt 0.9485 0.8888
vt 0.9467 0.9553
vt 0.9044 0.9568
vt 0.9013 0.8890
vt 0.8276 0.8166
vt 0.8127 0.8286
vt 0.7967 0.8166
vt 0.8016 0.7976
vt 0.8225 0.7976
vt 0.9622 0.9786
vt 0.9578 0.9623
vt 0.9598 0.9596
vt 0.9653 0.9796
vt 0.9398 0.9623
vt 0.9355 0.9787
vt 0.9324 0.9797
vt 0.9377 0.9596
vt 0.9493 0.9890
vt 0.9494 0.9925
vn 0.9998 -0.0003 -0.0174
vn -0.8482 0.0443 0.5278
vn 0.3834 -0.0151 -0.9235
vn 0.2640 0.0331 0.9639
vn -0.7774 0.0211 -0.6287
vn -0.0437 0.9963 -0.0740
vn 0.0208 0.9974 0.0689
vn 0.0511 0.9967 0.0632
vn -0.0284 0.9985 0.0477
vn -0.1345 0.9836 -0.1198
vn 0.0176 0.9984 0.0543
vn 0.0332 0.9892 -0.1429
s off
f 5/1/1 11/2/1 12/3/1 4/4/1
f 3/5/2 13/6/2 14/7/2 2/8/2
f 1/9/3 15/10/3 11/2/3 5/1/3
f 4/4/4 12/3/4 13/11/4 3/12/4
f 2/8/5 14/7/5 15/10/5 1/9/5
f 6/13/6 8/14/6 10/15/6 7/16/6
f 9/17/7 6/13/7 7/16/7
f 6/18/8 9/19/8 12/20/8 11/21/8
f 7/22/9 10/23/9 14/24/9 13/25/9
f 8/26/10 6/18/10 11/21/10 15/27/10
f 9/19/11 7/22/11 13/25/11 12/20/11
f 10/23/12 8/26/12 15/27/12 14/24/12
