# Blender v2.78 (sub 0) OBJ File: 'Low_Poly_Trees_Pack.blend'
# www.blender.org
g Pine_Stump_03
v 0.000000 0.000000 -0.327751
v -0.309382 0.000000 -0.102972
v -0.191209 0.000000 0.260729
v 0.191209 0.000000 0.260729
v 0.309382 0.000000 -0.102972
v 0.232288 0.651843 -0.055794
v 0.142224 0.783048 0.206373
v -0.212168 0.774161 -0.046448
v 0.008319 0.782848 -0.206641
v -0.130022 0.774124 0.206372
v 0.264141 0.626330 -0.066577
v 0.157753 0.774134 0.236575
v 0.002894 0.774207 -0.240033
v -0.151965 0.774118 0.236575
v -0.247674 0.774161 -0.057985
vt 0.8307 0.8954
vt 0.8305 0.9136
vt 0.8180 0.9181
vt 0.8184 0.8959
vt 0.7934 0.8963
vt 0.7938 0.9182
vt 0.7815 0.9179
vt 0.7810 0.8956
vt 0.8058 0.9183
vt 0.8060 0.8964
vt 0.8430 0.8959
vt 0.8429 0.9181
vt 0.7983 0.8322
vt 0.7773 0.8254
vt 0.7773 0.8039
vt 0.7983 0.7970
vt 0.8151 0.8150
vt 0.8473 0.9535
vt 0.8305 0.9355
vt 0.8309 0.9328
vt 0.8507 0.9535
vt 0.8305 0.9707
vt 0.8309 0.9734
vt 0.8095 0.9423
vt 0.8070 0.9406
vt 0.8095 0.9639
vt 0.8070 0.9657
vn 0.9498 0.0507 0.3086
vn -0.5852 0.0935 -0.8055
vn -0.0000 0.0312 0.9995
vn 0.5854 0.0891 -0.8058
vn -0.9495 0.0578 0.3085
vn -0.0324 0.9994 0.0103
vn 0.5883 0.7857 -0.1911
vn 0.6226 0.7657 -0.1616
vn 0.5977 0.7665 -0.2351
vn -0.0152 0.9894 0.1445
vn -0.0943 0.9900 -0.1045
vn -0.0001 1.0000 0.0002
s off
f 5/1/1 11/2/1 12/3/1 4/4/1
f 2/5/2 15/6/2 13/7/2 1/8/2
f 4/4/3 12/3/3 14/9/3 3/10/3
f 1/11/4 13/12/4 11/2/4 5/1/4
f 3/10/5 14/9/5 15/6/5 2/5/5
f 9/13/6 8/14/6 10/15/6 7/16/6
f 6/17/7 9/13/7 7/16/7
f 6/18/8 7/19/8 12/20/8 11/21/8
f 9/22/9 6/18/9 11/21/9 13/23/9
f 7/19/10 10/24/10 14/25/10 12/20/10
f 8/26/11 9/22/11 13/23/11 15/27/11
f 10/24/12 8/26/12 15/27/12 14/25/12
