# Blender v2.78 (sub 0) OBJ File: 'Low_Poly_Trees_Pack.blend'
# www.blender.org
g Random_Stump_01
v 0.184560 0.000000 0.189876
v 0.234388 0.000000 -0.111454
v -0.036796 0.000000 -0.251959
v -0.254225 0.000000 -0.037466
v -0.117419 0.000000 0.235603
v 0.375919 0.663283 0.110165
v 0.407833 0.647470 -0.090232
v 0.226793 0.650615 -0.183194
v 0.082990 0.668371 -0.040251
v 0.175155 0.676200 0.141055
v 0.384964 1.409124 -0.107321
v 0.284581 1.410210 -0.010137
v 0.484591 1.414131 0.096226
v 0.510220 1.383374 -0.042725
v 0.346165 1.413131 0.115584
v 0.497338 1.413880 0.109804
v 0.337373 1.413930 0.132099
v 0.382040 1.407635 -0.125561
v 0.527248 1.381034 -0.051081
v 0.266115 1.410071 -0.013364
vt 0.4240 0.7739
vt 0.4211 0.8088
vt 0.4113 0.8070
vt 0.4111 0.7716
vt 0.3986 0.7757
vt 0.4015 0.8083
vt 0.3926 0.8116
vt 0.3864 0.7818
vt 0.4357 0.7801
vt 0.4305 0.8118
vt 0.4487 0.7843
vt 0.4399 0.8134
vt 0.4258 0.8470
vt 0.4186 0.8452
vt 0.4038 0.8448
vt 0.3961 0.8454
vt 0.4112 0.8440
vt 0.4335 0.8466
vt 0.6622 0.9179
vt 0.6967 0.9654
vt 0.6622 0.9542
vt 0.6966 0.9066
vt 0.7195 0.9362
vt 0.4469 0.8146
vt 0.4404 0.8449
vt 0.4366 0.8466
vt 0.4441 0.8115
vt 0.4904 0.8400
vt 0.4787 0.8105
vt 0.4809 0.8068
vt 0.4944 0.8409
vt 0.4672 0.8606
vt 0.4676 0.8647
vn -0.8166 0.4118 0.4044
vn 0.4563 -0.0923 -0.8850
vn 0.1521 0.0733 0.9856
vn -0.6551 0.3323 -0.6785
vn 0.9523 -0.2578 0.1633
vn 0.1451 -0.0215 0.9892
vn 0.4546 -0.0260 -0.8903
vn -0.8792 0.2000 0.4325
vn 0.9688 -0.1621 0.1876
vn -0.6799 0.1934 -0.7074
vn -0.0079 0.9998 -0.0194
vn 0.1062 0.9914 -0.0763
vn -0.0056 0.9998 -0.0175
vn 0.2057 0.9781 -0.0318
vn 0.0097 0.9995 -0.0297
vn 0.1174 0.9757 -0.1852
vn -0.0290 0.9985 -0.0468
s off
f 5/1/1 10/2/1 9/3/1 4/4/1
f 3/5/2 8/6/2 7/7/2 2/8/2
f 1/9/3 6/10/3 10/2/3 5/1/3
f 4/4/4 9/3/4 8/6/4 3/5/4
f 2/11/5 7/12/5 6/10/5 1/9/5
f 6/10/6 16/13/6 17/14/6 10/2/6
f 8/6/7 18/15/7 19/16/7 7/7/7
f 10/2/8 17/14/8 20/17/8 9/3/8
f 7/12/9 19/18/9 16/13/9 6/10/9
f 9/3/10 20/17/10 18/15/10 8/6/10
f 15/19/11 11/20/11 12/21/11
f 13/22/12 14/23/12 11/20/12 15/19/12
f 13/24/13 15/25/13 17/26/13 16/27/13
f 11/28/14 14/29/14 19/30/14 18/31/14
f 15/25/15 12/32/15 20/33/15 17/26/15
f 14/29/16 13/24/16 16/27/16 19/30/16
f 12/32/17 11/28/17 18/31/17 20/33/17
