# Blender v2.78 (sub 0) OBJ File: 'Low_Poly_Trees_Pack.blend'
# www.blender.org
g Random_Stump_02
v 0.326597 0.000000 -0.152295
v -0.043917 0.000000 -0.357674
v -0.353739 0.000000 -0.068760
v -0.174706 0.000000 0.315178
v 0.245765 0.000000 0.263551
v -0.116660 0.411147 0.209421
v 0.173312 0.398625 0.172662
v -0.024796 0.467885 -0.251353
v -0.239095 0.453950 -0.052619
v 0.230072 0.433693 -0.112114
v -0.276136 0.457128 -0.059603
v -0.029274 0.473181 -0.288533
v 0.264355 0.433788 -0.128119
v 0.198965 0.393389 0.199953
v -0.135077 0.407814 0.242299
vt 0.4777 0.8508
vt 0.4602 0.8409
vt 0.4674 0.8286
vt 0.4850 0.8344
vt 0.4893 0.7992
vt 0.4718 0.8011
vt 0.4666 0.7879
vt 0.4852 0.7818
vt 0.4723 0.8153
vt 0.4892 0.8171
vt 0.4602 0.7752
vt 0.4778 0.7655
vt 0.7036 0.9113
vt 0.7158 0.9491
vt 0.6837 0.9725
vt 0.6515 0.9491
vt 0.6638 0.9113
vt 0.4467 0.7810
vt 0.4069 0.7810
vt 0.4039 0.7768
vt 0.4497 0.7768
vt 0.3946 0.8188
vt 0.3897 0.8204
vt 0.4268 0.8421
vt 0.4268 0.8473
vt 0.4590 0.8188
vt 0.4638 0.8204
vn 0.4845 0.1147 -0.8673
vn -0.8914 0.1523 0.4270
vn 0.9705 0.1374 0.1982
vn -0.6775 0.1281 -0.7243
vn 0.1250 0.1677 0.9779
vn 0.0597 0.9892 0.1337
s off
f 2/1/1 12/2/1 13/3/1 1/4/1
f 4/5/2 15/6/2 11/7/2 3/8/2
f 1/4/3 13/3/3 14/9/3 5/10/3
f 3/8/4 11/7/4 12/11/4 2/12/4
f 5/10/5 14/9/5 15/6/5 4/5/5
f 9/13/6 6/14/6 7/15/6 10/16/6
f 8/17/6 9/13/6 10/16/6
f 9/18/6 8/19/6 12/20/6 11/21/6
f 8/19/6 10/22/6 13/23/6 12/20/6
f 10/22/6 7/24/6 14/25/6 13/23/6
f 7/24/6 6/26/6 15/27/6 14/25/6
f 6/26/6 9/18/6 11/21/6 15/27/6
