# Blender v2.78 (sub 0) OBJ File: 'Low_Poly_Trees_Pack.blend'
# www.blender.org
g Simple_Stump_01
v 0.000000 0.000000 -0.300000
v -0.285317 0.000000 -0.092619
v -0.176336 0.000000 0.242726
v 0.176336 0.000000 0.242705
v 0.285317 0.000000 -0.092705
v 0.050218 0.675520 -0.267645
v -0.212436 0.653595 -0.074407
v -0.112111 0.661970 0.234696
v 0.212547 0.689071 0.232600
v 0.312872 0.697446 -0.077827
v -0.138714 1.309079 -0.026165
v 0.064881 1.335567 -0.177532
v -0.061171 1.319167 0.213574
v 0.190062 1.351853 0.210858
v 0.267772 1.361963 -0.031080
v -0.181343 1.303533 -0.039940
v 0.064566 1.335526 -0.222766
v -0.087414 1.315753 0.250457
v 0.216546 1.355299 0.247171
v 0.310474 1.367519 -0.045262
vt 0.4356 0.6933
vt 0.4627 0.6925
vt 0.4615 0.7053
vt 0.4352 0.7070
vt 0.4357 0.6517
vt 0.4614 0.6544
vt 0.4617 0.6672
vt 0.4352 0.6655
vt 0.4356 0.6794
vt 0.4628 0.6797
vt 0.4616 0.7182
vt 0.4358 0.7209
vt 0.4876 0.6681
vt 0.4890 0.6801
vt 0.4889 0.6922
vt 0.4874 0.7042
vt 0.4870 0.6560
vt 0.4871 0.7161
vt 0.6929 0.9656
vt 0.6596 0.9552
vt 0.6596 0.9200
vt 0.7135 0.9370
vt 0.6930 0.9088
vt 0.4285 0.6951
vt 0.4281 0.6680
vt 0.4319 0.6652
vt 0.4325 0.6978
vt 0.4033 0.7039
vt 0.4019 0.7085
vt 0.3873 0.6824
vt 0.3825 0.6825
vt 0.4026 0.6602
vt 0.4010 0.6557
vn 0.0026 0.0132 0.9999
vn -0.5903 0.0852 -0.8027
vn 0.9505 -0.0448 0.3075
vn -0.9470 0.0963 0.3063
vn 0.5869 -0.0054 -0.8096
vn 0.5821 0.0421 -0.8121
vn 0.0110 -0.0232 0.9997
vn -0.5979 0.0691 -0.7986
vn 0.9519 -0.0119 0.3063
vn -0.9512 0.0289 0.3072
vn -0.1290 0.9916 0.0000
s off
f 4/1/1 9/2/1 8/3/1 3/4/1
f 2/5/2 7/6/2 6/7/2 1/8/2
f 5/9/3 10/10/3 9/2/3 4/1/3
f 3/4/4 8/3/4 7/11/4 2/12/4
f 1/8/5 6/7/5 10/10/5 5/9/5
f 10/10/6 6/7/6 17/13/6 20/14/6
f 8/3/7 9/2/7 19/15/7 18/16/7
f 6/7/8 7/6/8 16/17/8 17/13/8
f 9/2/9 10/10/9 20/14/9 19/15/9
f 7/11/10 8/3/10 18/16/10 16/18/10
f 11/19/11 13/20/11 14/21/11
f 12/22/11 11/19/11 14/21/11 15/23/11
f 11/24/11 12/25/11 17/26/11 16/27/11
f 13/28/11 11/24/11 16/27/11 18/29/11
f 14/30/11 13/28/11 18/29/11 19/31/11
f 15/32/11 14/30/11 19/31/11 20/33/11
f 12/25/11 15/32/11 20/33/11 17/26/11
