# Blender v2.78 (sub 0) OBJ File: 'Low_Poly_Trees_Pack.blend'
# www.blender.org
g Simple_Stump_02
v 0.000000 0.000000 -0.300000
v -0.285317 0.000000 -0.092619
v -0.176336 0.000000 0.242726
v 0.176336 0.000000 0.242705
v 0.285317 0.000000 -0.092705
v 0.050391 0.675535 -0.226645
v -0.173599 0.656837 -0.061852
v -0.088165 0.663969 0.201372
v 0.188468 0.687061 0.199586
v 0.273994 0.694201 -0.065049
v -0.212436 0.653595 -0.074407
v 0.050218 0.675520 -0.267645
v -0.112111 0.661970 0.234696
v 0.212547 0.689071 0.232600
v 0.312872 0.697446 -0.077827
vt 0.4526 0.6969
vt 0.4864 0.6959
vt 0.4850 0.7119
vt 0.4522 0.7141
vt 0.4527 0.6450
vt 0.4848 0.6484
vt 0.4851 0.6644
vt 0.4522 0.6623
vt 0.4526 0.6796
vt 0.4866 0.6800
vt 0.4851 0.7280
vt 0.4529 0.7314
vt 0.6570 0.9328
vt 0.6778 0.9043
vt 0.6778 0.9617
vt 0.7114 0.9154
vt 0.7114 0.9509
vt 0.3906 0.6820
vt 0.4114 0.7108
vt 0.4098 0.7158
vt 0.3854 0.6820
vt 0.4114 0.6534
vt 0.4098 0.6484
vt 0.4450 0.6646
vt 0.4493 0.6615
vt 0.4450 0.7001
vt 0.4493 0.7031
vn 0.0026 0.0132 0.9999
vn -0.5903 0.0852 -0.8027
vn 0.9505 -0.0448 0.3075
vn -0.9470 0.0963 0.3063
vn 0.5869 -0.0054 -0.8096
vn -0.0832 0.9965 0.0000
s off
f 4/1/1 14/2/1 13/3/1 3/4/1
f 2/5/2 11/6/2 12/7/2 1/8/2
f 5/9/3 15/10/3 14/2/3 4/1/3
f 3/4/4 13/3/4 11/11/4 2/12/4
f 1/8/5 12/7/5 15/10/5 5/9/5
f 7/13/6 8/14/6 6/15/6
f 8/14/6 9/16/6 10/17/6 6/15/6
f 7/18/6 6/19/6 12/20/6 11/21/6
f 8/22/6 7/18/6 11/21/6 13/23/6
f 9/24/6 8/22/6 13/23/6 14/25/6
f 10/26/6 9/24/6 14/25/6 15/27/6
f 6/19/6 10/26/6 15/27/6 12/20/6
