# Blender v2.78 (sub 0) OBJ File: 'Low_Poly_Trees_Pack.blend'
# www.blender.org
g Simple_Stump_03
v 0.000000 0.000000 -0.112000
v -0.112000 0.000000 0.000000
v 0.000000 0.000000 0.112000
v 0.112000 0.000000 -0.000000
v 0.001328 0.805708 0.112303
v 0.056995 0.805708 0.056635
v 0.058408 0.765438 0.169383
v 0.114076 0.765438 0.113716
v -0.011404 0.809950 0.113009
v 0.057702 0.809950 0.043904
v 0.057702 0.761196 0.182115
v 0.126807 0.761196 0.113009
vt 0.4492 0.6650
vt 0.4170 0.6650
vt 0.4164 0.6612
vt 0.4480 0.6589
vt 0.4471 0.6770
vt 0.4158 0.6724
vt 0.4167 0.6687
vt 0.4486 0.6711
vt 0.4158 0.6575
vt 0.4471 0.6528
vt 0.6794 0.9270
vt 0.6932 0.9270
vt 0.6932 0.9404
vt 0.6794 0.9404
vt 0.4290 0.7112
vt 0.4290 0.7246
vt 0.4276 0.7263
vt 0.4276 0.7096
vt 0.4428 0.7112
vt 0.4443 0.7096
vt 0.4428 0.7246
vt 0.4443 0.7263
vn 0.7159 0.0856 -0.6929
vn -0.7085 -0.0109 0.7056
vn 0.7022 -0.1179 0.7022
vn -0.6951 0.1833 -0.6951
vn 0.3157 0.8948 0.3157
vn 0.3157 0.8948 0.3156
vn 0.3156 0.8948 0.3156
vn 0.3156 0.8948 0.3157
s off
f 1/1/1 10/2/1 12/3/1 4/4/1
f 3/5/2 11/6/2 9/7/2 2/8/2
f 4/4/3 12/3/3 11/9/3 3/10/3
f 2/8/4 9/7/4 10/2/4 1/1/4
f 5/11/5 7/12/5 8/13/5 6/14/5
f 5/15/5 6/16/5 10/17/5 9/18/5
f 7/19/6 5/15/6 9/18/6 11/20/6
f 8/21/7 7/19/7 11/20/7 12/22/7
f 6/16/8 8/21/8 12/22/8 10/17/8
