# Blender v2.78 (sub 0) OBJ File: 'Low_Poly_Trees_Pack.blend'
# www.blender.org
g Thuja_Stump_01
v 0.000000 0.000000 -0.111321
v -0.105873 0.000000 -0.034400
v -0.065433 0.000000 0.090061
v 0.065433 0.000000 0.090061
v 0.105873 0.000000 -0.034400
v -0.055357 0.562753 0.073584
v 0.053462 0.560154 0.073584
v -0.001533 0.562753 -0.092069
v -0.088850 0.508846 -0.028869
v 0.086503 0.560154 -0.028107
v 0.062495 0.280077 0.086017
v -0.101119 0.280077 -0.032855
v 0.101119 0.280077 -0.032855
v -0.062495 0.280077 0.086017
v 0.000000 0.280077 -0.106322
v -0.097361 0.501454 -0.031634
v 0.000000 0.560154 -0.101323
v 0.096364 0.560154 -0.031311
v 0.059556 0.560154 0.081972
v -0.059556 0.560154 0.081972
vt 0.3397 0.7954
vt 0.3382 0.8230
vt 0.3265 0.8225
vt 0.3274 0.7949
vt 0.3027 0.7946
vt 0.3030 0.8222
vt 0.2911 0.8167
vt 0.2904 0.7949
vt 0.3148 0.8222
vt 0.3151 0.7946
vt 0.2796 0.8230
vt 0.2781 0.7954
vt 0.3154 0.7670
vt 0.3025 0.7670
vt 0.2896 0.7673
vt 0.2767 0.7678
vt 0.3283 0.7673
vt 0.3411 0.7678
vt 0.6971 0.7687
vt 0.7087 0.7789
vt 0.6863 0.7796
vt 0.7049 0.7922
vt 0.6911 0.7927
vt 0.2922 0.8242
vt 0.2814 0.8351
vt 0.2802 0.8350
vt 0.2921 0.8227
vt 0.2862 0.8482
vt 0.2854 0.8493
vt 0.2999 0.8477
vt 0.3007 0.8488
vt 0.3037 0.8345
vt 0.3049 0.8341
vn 0.5877 0.0144 -0.8089
vn -0.9510 0.0144 0.3090
vn 0.9510 0.0144 0.3090
vn -0.5877 0.0144 -0.8089
vn 0.0000 0.0144 0.9999
vn -0.6154 0.7624 -0.2000
vn 0.0239 0.9997 0.0078
vn -0.6282 0.7374 -0.2483
vn 0.0984 0.9883 -0.1162
vn 0.0000 1.0000 -0.0000
vn 0.0113 0.9883 0.1519
vn -0.6542 0.7374 -0.1684
s off
f 15/1/1 17/2/1 18/3/1 13/4/1
f 14/5/2 20/6/2 16/7/2 12/8/2
f 13/4/3 18/3/3 19/9/3 11/10/3
f 12/8/4 16/7/4 17/11/4 15/12/4
f 11/10/5 19/9/5 20/6/5 14/5/5
f 4/13/5 11/10/5 14/5/5 3/14/5
f 2/15/4 12/8/4 15/12/4 1/16/4
f 5/17/3 13/4/3 11/10/3 4/13/3
f 3/14/2 14/5/2 12/8/2 2/15/2
f 1/18/1 15/1/1 13/4/1 5/17/1
f 9/19/6 6/20/6 8/21/6
f 8/21/7 6/20/7 7/22/7 10/23/7
f 9/24/8 8/25/8 17/26/8 16/27/8
f 8/25/9 10/28/9 18/29/9 17/26/9
f 10/28/10 7/30/10 19/31/10 18/29/10
f 7/30/11 6/32/11 20/33/11 19/31/11
f 6/32/12 9/24/12 16/27/12 20/33/12
