# Blender v2.78 (sub 0) OBJ File: 'Low_Poly_Trees_Pack.blend'
# www.blender.org
g Simple_Firewood_06
v -0.278843 0.077456 0.150936
v -0.278843 -0.000135 0.125642
v -0.278843 -0.000055 0.044032
v 0.281157 0.077456 0.150936
v 0.281157 -0.000135 0.125642
v 0.281157 -0.000055 0.044032
v -0.278843 0.038765 0.031460
v 0.281157 0.038765 0.031460
v 0.250316 0.077456 -0.159631
v 0.251626 -0.000135 -0.134370
v 0.255854 -0.000055 -0.052870
v -0.308932 0.077456 -0.130621
v -0.307622 -0.000135 -0.105360
v -0.303394 -0.000055 -0.023860
v 0.256505 0.038765 -0.040315
v -0.302743 0.038765 -0.011305
vt 0.2739 0.6920
vt 0.3586 0.6920
vt 0.3586 0.6982
vt 0.2739 0.6982
vt 0.2739 0.7106
vt 0.3586 0.7106
vt 0.3586 0.7229
vt 0.2739 0.7229
vt 0.7841 0.6903
vt 0.7841 0.7047
vt 0.7794 0.7047
vt 0.7765 0.6958
vt 0.8484 0.6903
vt 0.8559 0.6958
vt 0.8530 0.7047
vt 0.8484 0.7047
vt 0.4864 0.6988
vt 0.4017 0.6988
vt 0.4017 0.6926
vt 0.4864 0.6926
vt 0.4864 0.6803
vt 0.4017 0.6803
vt 0.4017 0.6680
vt 0.4864 0.6680
vt 0.8484 0.6891
vt 0.8484 0.6747
vt 0.8530 0.6747
vt 0.8559 0.6836
vt 0.7841 0.6891
vt 0.7765 0.6836
vt 0.7794 0.6747
vt 0.7841 0.6747
vn 0.0000 -0.3081 -0.9514
vn 0.0000 -0.3099 0.9508
vn 0.0000 -1.0000 -0.0010
vn -1.0000 0.0000 0.0000
vn 1.0000 -0.0000 0.0000
vn 0.0000 0.9514 -0.3081
vn 0.0493 -0.3081 0.9501
vn -0.0493 -0.3099 -0.9495
vn 0.0001 -1.0000 0.0010
vn 0.9987 0.0000 -0.0518
vn -0.9987 0.0000 0.0518
vn 0.0160 0.9514 0.3077
s off
f 7/1/1 8/2/1 6/3/1 3/4/1
f 2/5/2 5/6/2 4/7/2 1/8/2
f 3/4/3 6/3/3 5/6/3 2/5/3
f 1/9/4 7/10/4 3/11/4 2/12/4
f 4/13/5 5/14/5 6/15/5 8/16/5
f 1/9/6 4/13/6 8/16/6 7/10/6
f 15/17/7 16/18/7 14/19/7 11/20/7
f 10/21/8 13/22/8 12/23/8 9/24/8
f 11/20/9 14/19/9 13/22/9 10/21/9
f 9/25/10 15/26/10 11/27/10 10/28/10
f 12/29/11 13/30/11 14/31/11 16/32/11
f 9/25/12 12/29/12 16/32/12 15/26/12
