# Blender v2.78 (sub 0) OBJ File: 'Low_Poly_Trees_Pack.blend'
# www.blender.org
g Simple_Firewood_03
v -0.267845 -0.000003 -0.061083
v -0.263881 0.077611 -0.085993
v -0.268650 0.125584 0.009767
v -0.260475 0.077619 0.070766
v -0.263824 0.000002 0.045776
v 0.275518 -0.000003 -0.047825
v 0.272649 0.077611 -0.072885
v 0.278588 0.125584 0.011041
v 0.272961 0.077619 0.076827
v 0.275110 0.000002 0.051705
v -0.269011 -0.000001 0.007072
v -0.166217 0.000002 0.040968
v -0.166217 -0.000003 -0.040641
v -0.166217 0.125584 0.000155
v -0.166217 0.077619 0.066182
v -0.166217 0.077611 -0.065865
v -0.166217 -0.000001 -0.000617
v 0.278900 -0.000000 -0.018284
v -0.273898 0.125584 -0.023045
v -0.273470 -0.000001 -0.025730
v 0.111981 0.000002 0.040968
v 0.111981 0.125584 0.000155
v 0.111981 -0.000003 -0.040641
v 0.111981 0.077619 0.066182
v 0.111981 0.077611 -0.065865
v 0.111978 -0.000000 0.000593
v 0.278767 0.125584 -0.019451
v 0.278488 -0.000000 0.012210
vt 0.3325 0.7140
vt 0.3616 0.7190
vt 0.3324 0.7211
vt 0.3326 0.6711
vt 0.3612 0.6849
vt 0.3323 0.6853
vt 0.3608 0.6997
vt 0.3326 0.6996
vt 0.3607 0.6566
vt 0.3324 0.6568
vt 0.3615 0.6872
vt 0.8526 0.6711
vt 0.8402 0.6862
vt 0.8402 0.6614
vt 0.7719 0.7036
vt 0.7848 0.6884
vt 0.7848 0.7132
vt 0.8615 0.7038
vt 0.8508 0.6884
vt 0.8567 0.6885
vt 0.7982 0.6862
vt 0.7859 0.6706
vt 0.7982 0.6614
vt 0.2653 0.6870
vt 0.2832 0.6998
vt 0.2658 0.7004
vt 0.2838 0.6569
vt 0.2673 0.6711
vt 0.2669 0.6571
vt 0.2660 0.7141
vt 0.2837 0.6712
vt 0.2662 0.6845
vt 0.2838 0.7143
vt 0.2661 0.7200
vt 0.8185 0.6862
vt 0.2839 0.6497
vt 0.2662 0.6504
vt 0.3609 0.6498
vt 0.3321 0.6498
vt 0.2839 0.6854
vt 0.2844 0.7211
vt 0.8177 0.7132
vt 0.8177 0.6884
vt 0.3611 0.7139
vt 0.3608 0.6708
vt 0.8473 0.6863
vt 0.7770 0.6883
vt 0.8508 0.7132
vt 0.7905 0.6860
vt 0.8185 0.6614
vn 0.0000 -1.0000 0.0001
vn -0.0384 0.8085 0.5873
vn -0.0415 -0.3088 -0.9502
vn -0.0625 -0.3084 0.9492
vn -0.0689 0.8071 -0.5864
vn -0.9876 -0.0000 -0.1571
vn 0.9964 0.0000 0.0852
vn 0.9935 0.0000 -0.1138
vn -0.9911 0.0000 0.1328
vn 0.1215 0.7987 -0.5894
vn 0.0468 -0.3080 0.9502
vn 0.1920 -0.3088 -0.9316
vn 0.0299 0.7877 0.6154
vn -0.2279 -0.0216 0.9734
vn -0.0746 0.0216 -0.9970
vn 0.0000 0.8090 -0.5878
vn 0.0000 -0.3090 0.9511
vn 0.0000 -0.3091 -0.9510
vn 0.0000 0.8091 0.5877
vn 0.1124 0.0035 0.9937
vn 0.0652 -0.0035 -0.9979
vn -0.0388 0.8090 0.5865
vn -0.0417 -0.3084 -0.9503
vn -0.0628 -0.3089 0.9490
vn -0.0291 0.7454 -0.6659
vn 0.1257 0.8026 -0.5832
vn 0.0462 -0.3086 0.9501
vn 0.1879 -0.3036 -0.9341
vn 0.0551 0.8078 0.5868
vn -0.2106 -0.0060 0.9775
vn -0.0934 0.0061 -0.9956
vn 0.1167 0.0093 0.9931
vn 0.0696 -0.0093 -0.9975
s off
f 23/1/1 18/2/1 26/3/1
f 24/4/2 8/5/2 22/6/2
f 7/7/3 23/1/3 25/8/3
f 10/9/4 24/4/4 21/10/4
f 27/11/5 25/8/5 22/6/5
f 2/12/6 20/13/6 19/14/6
f 9/15/7 28/16/7 8/17/7
f 7/18/8 18/19/8 6/20/8
f 11/21/9 4/22/9 3/23/9
f 19/24/10 16/25/10 2/26/10
f 12/27/11 4/28/11 5/29/11
f 16/25/12 1/30/12 2/26/12
f 15/31/13 3/32/13 4/28/13
f 13/33/1 20/34/1 1/30/1
f 17/35/14 19/14/14 20/13/14
f 17/36/1 5/29/1 11/37/1
f 28/38/1 21/10/1 26/39/1
f 3/23/15 17/35/15 11/21/15
f 26/39/1 12/27/1 17/36/1
f 22/6/16 16/25/16 14/40/16
f 21/10/17 15/31/17 12/27/17
f 25/8/18 13/33/18 16/25/18
f 24/4/19 14/40/19 15/31/19
f 23/1/1 17/41/1 13/33/1
f 18/19/20 22/42/20 26/43/20
f 8/17/21 26/43/21 22/42/21
f 23/1/1 6/44/1 18/2/1
f 24/4/22 9/45/22 8/5/22
f 7/7/23 6/44/23 23/1/23
f 10/9/24 9/45/24 24/4/24
f 27/11/25 7/7/25 25/8/25
f 2/12/6 1/46/6 20/13/6
f 9/15/7 10/47/7 28/16/7
f 7/18/8 27/48/8 18/19/8
f 11/21/9 5/49/9 4/22/9
f 19/24/26 14/40/26 16/25/26
f 12/27/27 15/31/27 4/28/27
f 16/25/28 13/33/28 1/30/28
f 15/31/29 14/40/29 3/32/29
f 13/33/1 17/41/1 20/34/1
f 17/35/30 14/50/30 19/14/30
f 17/36/1 12/27/1 5/29/1
f 28/38/1 10/9/1 21/10/1
f 3/23/31 14/50/31 17/35/31
f 26/39/1 21/10/1 12/27/1
f 22/6/16 25/8/16 16/25/16
f 21/10/17 24/4/17 15/31/17
f 25/8/18 23/1/18 13/33/18
f 24/4/19 22/6/19 14/40/19
f 23/1/1 26/3/1 17/41/1
f 18/19/32 27/48/32 22/42/32
f 8/17/33 28/16/33 26/43/33
