# Blender v2.78 (sub 0) OBJ File: 'Low_Poly_Trees_Pack.blend'
# www.blender.org
g Simple_Firewood_04
v 0.423329 0.000196 -0.076736
v 0.397468 -0.000033 -0.154140
v 0.389408 0.077512 -0.178265
v 0.410287 0.125666 -0.115772
v 0.431252 0.077882 -0.053024
v 0.281566 0.077882 -0.003012
v 0.247152 0.000196 -0.017873
v 0.073560 0.077512 -0.072737
v 0.174280 0.125666 -0.036919
v 0.118598 -0.000033 -0.060966
v -0.278843 -0.000003 -0.040641
v -0.278843 0.077611 -0.065865
v -0.278843 0.125584 0.000155
v -0.278843 0.077619 0.066182
v -0.278843 0.000002 0.040968
v 0.123337 0.000002 0.040968
v 0.095407 -0.000003 -0.040641
v -0.051853 0.125584 0.000155
v 0.032325 0.077619 0.066182
v -0.012866 0.077611 -0.065865
vt 0.4822 0.6638
vt 0.4602 0.6751
vt 0.4563 0.6638
vt 0.4476 0.6865
vt 0.4822 0.6978
vt 0.4359 0.6978
vt 0.4822 0.7092
vt 0.4563 0.7205
vt 0.4413 0.7092
vt 0.4822 0.6865
vt 0.8330 0.7197
vt 0.8079 0.7015
vt 0.8389 0.7015
vt 0.8234 0.6903
vt 0.8367 0.6896
vt 0.8224 0.6601
vt 0.8542 0.6601
vt 0.7998 0.6803
vt 0.7752 0.6992
vt 0.7806 0.6809
vt 0.8062 0.6984
vt 0.7910 0.7100
vt 0.3883 0.6751
vt 0.4199 0.6865
vt 0.3883 0.6865
vt 0.3883 0.6978
vt 0.4253 0.6978
vt 0.3883 0.7092
vt 0.4403 0.7092
vt 0.3883 0.7205
vt 0.3883 0.6638
vt 0.4316 0.6751
vt 0.7903 0.6495
vt 0.8079 0.6790
vt 0.7761 0.6790
vt 0.7653 0.6608
vt 0.4822 0.6751
vt 0.4822 0.7205
vt 0.8139 0.7197
vt 0.8630 0.6783
vt 0.8116 0.6783
vt 0.4442 0.7205
vt 0.4442 0.6638
vt 0.8167 0.6608
vn 0.3017 -0.3064 0.9029
vn -0.1870 0.8074 -0.5596
vn 0.0009 -1.0000 0.0027
vn 0.1855 0.8107 0.5553
vn -0.3011 -0.3117 -0.9012
vn 0.9485 -0.0000 -0.3169
vn -0.3175 -0.0406 0.9474
vn -1.0000 0.0000 0.0000
vn 0.0000 0.8091 0.5877
vn 0.0000 0.8090 -0.5878
vn 0.0000 -0.3091 -0.9510
vn 0.0000 -1.0000 0.0001
vn 0.0000 -0.3090 0.9511
vn 0.6014 0.7720 -0.2059
s off
f 1/1/1 6/2/1 7/3/1
f 9/4/2 3/5/2 8/6/2
f 2/7/3 7/8/3 10/9/3
f 6/2/4 4/10/4 9/4/4
f 3/5/5 10/9/5 8/6/5
f 4/11/6 1/12/6 3/13/6
f 2/14/6 3/13/6 1/12/6
f 9/15/7 10/16/7 7/17/7
f 13/18/8 15/19/8 14/20/8
f 12/21/8 11/22/8 13/18/8
f 14/23/9 18/24/9 13/25/9
f 18/24/10 12/26/10 13/25/10
f 20/27/11 11/28/11 12/26/11
f 17/29/12 15/30/12 11/28/12
f 15/31/13 19/32/13 14/23/13
f 19/33/14 17/34/14 20/35/14
f 18/36/14 19/33/14 20/35/14
f 1/1/1 5/37/1 6/2/1
f 9/4/2 4/10/2 3/5/2
f 2/7/3 1/38/3 7/8/3
f 6/2/4 5/37/4 4/10/4
f 3/5/5 2/7/5 10/9/5
f 4/11/6 5/39/6 1/12/6
f 7/17/7 6/40/7 9/15/7
f 9/15/7 8/41/7 10/16/7
f 13/18/8 11/22/8 15/19/8
f 14/23/9 19/32/9 18/24/9
f 18/24/10 20/27/10 12/26/10
f 20/27/11 17/29/11 11/28/11
f 17/29/12 16/42/12 15/30/12
f 15/31/13 16/43/13 19/32/13
f 19/33/14 16/44/14 17/34/14
