# Blender v2.78 (sub 0) OBJ File: 'Low_Poly_Trees_Pack.blend'
# www.blender.org
g Simple_Firewood_Pile_02
v -0.239440 0.120003 -0.296513
v -0.239440 0.186478 -0.274835
v -0.239440 0.186403 -0.204915
v -0.239440 0.119882 -0.183380
v -0.239440 0.078844 -0.239990
v 0.240347 0.120003 -0.296513
v 0.240347 0.186478 -0.274835
v 0.240347 0.186403 -0.204915
v 0.240347 0.119882 -0.183380
v 0.240347 0.078844 -0.239990
v -0.268849 0.117590 0.010783
v -0.268849 0.187756 0.033664
v -0.268849 0.187677 0.107467
v -0.268849 0.117462 0.130198
v -0.268849 0.074146 0.070444
v 0.237577 0.117590 0.010783
v 0.237577 0.187756 0.033664
v 0.237577 0.187677 0.107467
v 0.237577 0.117462 0.130198
v 0.237577 0.074146 0.070444
v -0.239613 0.176538 -0.202619
v -0.239613 0.233376 -0.183476
v -0.239613 0.232733 -0.123504
v -0.239613 0.175498 -0.105583
v -0.239613 0.140768 -0.154479
v 0.266629 0.176538 -0.202619
v 0.266629 0.233376 -0.183476
v 0.266629 0.232733 -0.123504
v 0.266629 0.175498 -0.105583
v 0.266629 0.140768 -0.154479
v 0.214284 0.139771 -0.130749
v 0.226204 0.213551 -0.107580
v 0.218628 0.215974 -0.029739
v 0.202026 0.143691 -0.004800
v 0.199341 0.096595 -0.067227
v 0.738678 0.038028 -0.076545
v 0.750598 0.111808 -0.053376
v 0.743022 0.114231 0.024464
v 0.726420 0.041948 0.049403
v 0.723735 -0.005148 -0.013024
v -0.274103 -0.000003 -0.344899
v -0.274103 0.077611 -0.370123
v -0.274103 0.125584 -0.304103
v -0.274103 0.077619 -0.238076
v -0.274103 0.000002 -0.263289
v 0.272918 -0.000003 -0.344899
v 0.272918 0.077611 -0.370123
v 0.272918 0.125584 -0.304103
v 0.272918 0.077619 -0.238076
v 0.272918 0.000002 -0.263289
v -0.289588 -0.000004 -0.193839
v -0.289588 0.091086 -0.223442
v -0.289588 0.147390 -0.145958
v -0.289588 0.091097 -0.068467
v -0.289588 0.000003 -0.098059
v 0.291992 -0.000004 -0.193839
v 0.291992 0.091086 -0.223442
v 0.291992 0.147390 -0.145958
v 0.291992 0.091097 -0.068467
v 0.291992 0.000003 -0.098059
v -0.295363 -0.000003 0.100061
v -0.295363 0.077611 0.074837
v -0.295363 0.125584 0.140858
v -0.295363 0.077619 0.206885
v -0.295363 0.000002 0.181671
v 0.294355 -0.000003 0.100061
v 0.294355 0.077611 0.074837
v 0.294355 0.125584 0.140858
v 0.294355 0.077619 0.206885
v 0.294355 0.000002 0.181671
v -0.278843 -0.000003 -0.040641
v -0.278843 0.077611 -0.065865
v -0.278843 0.125584 0.000155
v -0.278843 0.077619 0.066182
v -0.278843 0.000002 0.040968
v 0.281157 -0.000003 -0.040641
v 0.281157 0.077611 -0.065865
v 0.281157 0.125584 0.000155
v 0.281157 0.077619 0.066182
v 0.281157 0.000002 0.040968
v -0.444544 -0.004554 -0.444943
v -0.448779 0.045523 -0.460657
v -0.437694 0.076476 -0.419527
v -0.426609 0.045529 -0.378393
v -0.430842 -0.004551 -0.394101
v -0.095670 -0.004554 -0.538964
v -0.099905 0.045523 -0.554678
v -0.088820 0.076476 -0.513548
v -0.077735 0.045529 -0.472414
v -0.081968 -0.004551 -0.488122
vt 0.4204 0.6394
vt 0.4329 0.7251
vt 0.4204 0.7251
vt 0.4454 0.6394
vt 0.4579 0.7251
vt 0.4454 0.7251
vt 0.4329 0.6394
vt 0.8011 0.6457
vt 0.8160 0.6409
vt 0.8103 0.6487
vt 0.8103 0.6330
vt 0.8011 0.6360
vt 0.7816 0.6332
vt 0.7943 0.6424
vt 0.7786 0.6424
vt 0.7864 0.6481
vt 0.4579 0.6394
vt 0.7913 0.6332
vt 0.2717 0.6375
vt 0.2853 0.7306
vt 0.2717 0.7306
vt 0.2989 0.6375
vt 0.3124 0.7306
vt 0.2989 0.7306
vt 0.2853 0.6375
vt 0.8504 0.6683
vt 0.8638 0.6585
vt 0.8606 0.6683
vt 0.8555 0.6525
vt 0.8472 0.6585
vt 0.8042 0.7031
vt 0.8139 0.7165
vt 0.8042 0.7134
vt 0.8200 0.7083
vt 0.8139 0.7000
vt 0.3124 0.6375
vt 0.4592 0.6489
vt 0.4676 0.7203
vt 0.4592 0.7203
vt 0.4338 0.6489
vt 0.4423 0.7203
vt 0.4338 0.7203
vt 0.4507 0.6489
vt 0.4507 0.7203
vt 0.4253 0.6489
vt 0.4253 0.7203
vt 0.4423 0.6489
vt 0.8242 0.7051
vt 0.8351 0.7130
vt 0.8268 0.7130
vt 0.8309 0.7002
vt 0.8377 0.7051
vt 0.8548 0.6984
vt 0.8507 0.7112
vt 0.8481 0.7033
vt 0.8590 0.7112
vt 0.8616 0.7033
vt 0.3450 0.6430
vt 0.3535 0.7014
vt 0.3450 0.7014
vt 0.3195 0.6430
vt 0.3280 0.7014
vt 0.3195 0.7014
vt 0.3365 0.6430
vt 0.3365 0.7014
vt 0.3110 0.6430
vt 0.3110 0.7014
vt 0.3280 0.6430
vt 0.8057 0.6796
vt 0.8057 0.6972
vt 0.7994 0.6884
vt 0.8161 0.6830
vt 0.8161 0.6938
vt 0.7893 0.6792
vt 0.7751 0.6895
vt 0.7785 0.6792
vt 0.7839 0.6959
vt 0.7927 0.6895
vt 0.2874 0.6608
vt 0.2939 0.7048
vt 0.2874 0.7048
vt 0.3005 0.6608
vt 0.3071 0.7048
vt 0.3005 0.7048
vt 0.2808 0.6608
vt 0.2808 0.7048
vt 0.2939 0.6608
vt 0.8258 0.7347
vt 0.8406 0.7240
vt 0.8371 0.7347
vt 0.8315 0.7173
vt 0.8223 0.7240
vt 0.8242 0.6842
vt 0.8425 0.6842
vt 0.8277 0.6949
vt 0.8390 0.6949
vt 0.4332 0.6527
vt 0.4440 0.7178
vt 0.4332 0.7178
vt 0.4547 0.6527
vt 0.4654 0.7178
vt 0.4547 0.7178
vt 0.4225 0.6527
vt 0.4225 0.7178
vt 0.4440 0.6527
vt 0.7751 0.6551
vt 0.7877 0.6725
vt 0.7751 0.6684
vt 0.7955 0.6617
vt 0.7877 0.6510
vt 0.8035 0.6729
vt 0.8101 0.6525
vt 0.8167 0.6729
vt 0.8208 0.6603
vt 0.4321 0.6435
vt 0.4431 0.7230
vt 0.4321 0.7230
vt 0.4541 0.6435
vt 0.4651 0.7230
vt 0.4541 0.7230
vt 0.4211 0.6435
vt 0.4211 0.7230
vt 0.4431 0.6435
vt 0.8309 0.6525
vt 0.8309 0.6708
vt 0.8242 0.6617
vt 0.8416 0.6560
vt 0.8416 0.6673
vt 0.7827 0.7165
vt 0.7975 0.7058
vt 0.7940 0.7165
vt 0.7884 0.6991
vt 0.7792 0.7058
vt 0.2812 0.6455
vt 0.2915 0.7160
vt 0.2812 0.7160
vt 0.3018 0.6455
vt 0.3120 0.7160
vt 0.3018 0.7160
vt 0.2709 0.6455
vt 0.2709 0.7160
vt 0.2915 0.6455
vt 0.8003 0.7256
vt 0.8151 0.7364
vt 0.8038 0.7364
vt 0.8094 0.7189
vt 0.8186 0.7256
vt 0.8481 0.7347
vt 0.8629 0.7240
vt 0.8594 0.7347
vt 0.8538 0.7173
vt 0.8446 0.7240
vt 0.4676 0.6489
vt 0.3535 0.6430
vt 0.3071 0.6608
vt 0.8334 0.6775
vt 0.4654 0.6527
vt 0.7994 0.6603
vt 0.4651 0.6435
vt 0.3120 0.6455
vt 0.2812 0.6455
vt 0.2915 0.7160
vt 0.2812 0.7160
vt 0.3018 0.6455
vt 0.3120 0.7160
vt 0.3018 0.7160
vt 0.2709 0.6455
vt 0.2709 0.7160
vt 0.2915 0.6455
vt 0.8003 0.7256
vt 0.8151 0.7364
vt 0.8038 0.7364
vt 0.8094 0.7189
vt 0.8186 0.7256
vt 0.8481 0.7347
vt 0.8629 0.7240
vt 0.8594 0.7347
vt 0.8538 0.7173
vt 0.8446 0.7240
vt 0.3120 0.6455
vn 0.0000 0.3080 0.9514
vn 0.0000 0.3100 -0.9507
vn 0.0000 1.0000 0.0011
vn -1.0000 0.0000 0.0000
vn 1.0000 0.0000 0.0000
vn 0.0000 -0.8027 -0.5964
vn 0.0000 0.2988 0.9543
vn 0.0000 0.3192 -0.9477
vn 0.0000 -0.8153 0.5791
vn 0.0000 0.9999 0.0107
vn -0.0981 -0.8122 -0.5751
vn -0.0329 0.3327 0.9425
vn 0.1513 0.2738 -0.9498
vn -0.2120 -0.7758 0.5944
vn 0.1916 0.9814 -0.0119
vn -0.9767 0.1895 -0.1010
vn 0.9767 -0.1895 0.1010
vn 0.0000 0.8091 0.5877
vn 0.0000 -0.3091 -0.9510
vn 0.0000 -0.3090 0.9511
vn 0.0000 0.8090 -0.5878
vn 0.1529 0.8091 0.5675
vn -0.2475 -0.3091 -0.9183
vn 0.2475 -0.3090 0.9183
vn -0.1530 0.8090 -0.5676
vn -0.9656 -0.0000 0.2602
vn 0.9656 0.0000 -0.2602
s off
f 9/1/1 3/2/1 4/3/1
f 7/4/2 1/5/2 2/6/2
f 8/7/3 2/6/3 3/2/3
f 4/8/4 1/9/4 5/10/4
f 2/11/4 1/9/4 3/12/4
f 9/13/5 6/14/5 8/15/5
f 7/16/5 8/15/5 6/14/5
f 9/1/1 8/7/1 3/2/1
f 7/4/2 6/17/2 1/5/2
f 8/7/3 7/4/3 2/6/3
f 4/8/4 3/12/4 1/9/4
f 9/13/5 10/18/5 6/14/5
f 19/19/1 13/20/1 14/21/1
f 17/22/2 11/23/2 12/24/2
f 18/25/3 12/24/3 13/20/3
f 14/26/4 11/27/4 15/28/4
f 12/29/4 11/27/4 13/30/4
f 20/31/5 18/32/5 19/33/5
f 17/34/5 18/32/5 16/35/5
f 19/19/1 18/25/1 13/20/1
f 17/22/2 16/36/2 11/23/2
f 18/25/3 17/22/3 12/24/3
f 14/26/4 13/30/4 11/27/4
f 20/31/5 16/35/5 18/32/5
f 26/37/6 25/38/6 21/39/6
f 29/40/7 23/41/7 24/42/7
f 27/43/8 21/39/8 22/44/8
f 30/45/9 24/42/9 25/46/9
f 28/47/10 22/44/10 23/41/10
f 23/48/4 25/49/4 24/50/4
f 22/51/4 21/52/4 23/48/4
f 30/53/5 28/54/5 29/55/5
f 27/56/5 28/54/5 26/57/5
f 36/58/11 35/59/11 31/60/11
f 39/61/12 33/62/12 34/63/12
f 37/64/13 31/60/13 32/65/13
f 40/66/14 34/63/14 35/67/14
f 38/68/15 32/65/15 33/62/15
f 33/69/16 35/70/16 34/71/16
f 32/72/16 31/73/16 33/69/16
f 40/74/17 38/75/17 39/76/17
f 37/77/17 38/75/17 36/78/17
f 49/79/18 43/80/18 44/81/18
f 47/82/19 41/83/19 42/84/19
f 50/85/20 44/81/20 45/86/20
f 48/87/21 42/84/21 43/80/21
f 44/88/4 41/89/4 45/90/4
f 42/91/4 41/89/4 43/92/4
f 49/93/5 46/94/5 48/95/5
f 47/96/5 48/95/5 46/94/5
f 59/97/18 53/98/18 54/99/18
f 57/100/19 51/101/19 52/102/19
f 60/103/20 54/99/20 55/104/20
f 58/105/21 52/102/21 53/98/21
f 54/106/4 51/107/4 55/108/4
f 52/109/4 51/107/4 53/110/4
f 59/111/5 56/112/5 58/113/5
f 57/114/5 58/113/5 56/112/5
f 69/115/18 63/116/18 64/117/18
f 67/118/19 61/119/19 62/120/19
f 70/121/20 64/117/20 65/122/20
f 68/123/21 62/120/21 63/116/21
f 63/124/4 65/125/4 64/126/4
f 62/127/4 61/128/4 63/124/4
f 70/129/5 68/130/5 69/131/5
f 67/132/5 68/130/5 66/133/5
f 79/134/18 73/135/18 74/136/18
f 77/137/19 71/138/19 72/139/19
f 80/140/20 74/136/20 75/141/20
f 78/142/21 72/139/21 73/135/21
f 73/143/4 75/144/4 74/145/4
f 72/146/4 71/147/4 73/143/4
f 80/148/5 78/149/5 79/150/5
f 77/151/5 78/149/5 76/152/5
f 26/37/6 30/153/6 25/38/6
f 29/40/7 28/47/7 23/41/7
f 27/43/8 26/37/8 21/39/8
f 30/45/9 29/40/9 24/42/9
f 28/47/10 27/43/10 22/44/10
f 23/48/4 21/52/4 25/49/4
f 30/53/5 26/57/5 28/54/5
f 36/58/11 40/154/11 35/59/11
f 39/61/12 38/68/12 33/62/12
f 37/64/13 36/58/13 31/60/13
f 40/66/14 39/61/14 34/63/14
f 38/68/15 37/64/15 32/65/15
f 33/69/16 31/73/16 35/70/16
f 40/74/17 36/78/17 38/75/17
f 49/79/18 48/87/18 43/80/18
f 47/82/19 46/155/19 41/83/19
f 50/85/20 49/79/20 44/81/20
f 48/87/21 47/82/21 42/84/21
f 44/88/4 43/92/4 41/89/4
f 49/93/5 50/156/5 46/94/5
f 59/97/18 58/105/18 53/98/18
f 57/100/19 56/157/19 51/101/19
f 60/103/20 59/97/20 54/99/20
f 58/105/21 57/100/21 52/102/21
f 54/106/4 53/110/4 51/107/4
f 59/111/5 60/158/5 56/112/5
f 69/115/18 68/123/18 63/116/18
f 67/118/19 66/159/19 61/119/19
f 70/121/20 69/115/20 64/117/20
f 68/123/21 67/118/21 62/120/21
f 63/124/4 61/128/4 65/125/4
f 70/129/5 66/133/5 68/130/5
f 79/134/18 78/142/18 73/135/18
f 77/137/19 76/160/19 71/138/19
f 80/140/20 79/134/20 74/136/20
f 78/142/21 77/137/21 72/139/21
f 73/143/4 71/147/4 75/144/4
f 80/148/5 76/152/5 78/149/5
f 89/161/22 83/162/22 84/163/22
f 87/164/23 81/165/23 82/166/23
f 90/167/24 84/163/24 85/168/24
f 88/169/25 82/166/25 83/162/25
f 83/170/26 85/171/26 84/172/26
f 82/173/26 81/174/26 83/170/26
f 90/175/27 88/176/27 89/177/27
f 87/178/27 88/176/27 86/179/27
f 89/161/22 88/169/22 83/162/22
f 87/164/23 86/180/23 81/165/23
f 90/167/24 89/161/24 84/163/24
f 88/169/25 87/164/25 82/166/25
f 83/170/26 81/174/26 85/171/26
f 90/175/27 86/179/27 88/176/27
