# Blender v2.78 (sub 0) OBJ File: 'Low_Poly_Trees_Pack.blend'
# www.blender.org
g Simple_Firewood_01
v -0.278843 -0.000003 -0.040641
v -0.278843 0.077611 -0.065865
v -0.278843 0.125584 0.000155
v -0.278843 0.077619 0.066182
v -0.278843 0.000002 0.040968
v 0.281157 -0.000003 -0.093532
v 0.281157 0.077611 -0.118756
v 0.281157 0.125584 -0.052736
v 0.281157 0.077619 0.013291
v 0.281157 0.000002 -0.011923
v 0.001157 0.000002 0.040968
v 0.001157 -0.000003 -0.040641
v 0.001157 0.125584 0.000155
v 0.001157 0.077619 0.066182
v 0.001157 0.077611 -0.065865
vt 0.3167 0.7062
vt 0.3591 0.7180
vt 0.3155 0.7189
vt 0.3584 0.6685
vt 0.3161 0.6802
vt 0.3152 0.6678
vt 0.3171 0.6931
vt 0.3612 0.7057
vt 0.3156 0.6555
vt 0.3600 0.6809
vt 0.8439 0.6624
vt 0.8196 0.6958
vt 0.8196 0.6703
vt 0.8589 0.6830
vt 0.8439 0.7037
vt 0.7744 0.6843
vt 0.8144 0.6947
vt 0.7906 0.7041
vt 0.8129 0.6692
vt 0.7882 0.6628
vt 0.2731 0.6931
vt 0.2729 0.6806
vt 0.2728 0.6681
vt 0.2727 0.6555
vt 0.2730 0.7055
vt 0.2727 0.7180
vt 0.3619 0.6932
vt 0.3592 0.6560
vn 0.0000 -1.0000 0.0001
vn 0.1103 0.8041 0.5841
vn -0.1768 -0.3042 -0.9361
vn 0.1768 -0.3041 0.9361
vn -0.1104 0.8040 -0.5842
vn -1.0000 0.0000 0.0000
vn 1.0000 -0.0000 0.0000
vn 0.0000 0.8090 -0.5878
vn 0.0000 -0.3090 0.9511
vn 0.0000 -0.3091 -0.9510
vn 0.0000 0.8091 0.5877
s off
f 12/1/1 10/2/1 11/3/1
f 9/4/2 13/5/2 14/6/2
f 15/7/3 6/8/3 12/1/3
f 11/9/4 9/4/4 14/6/4
f 8/10/5 15/7/5 13/5/5
f 3/11/6 5/12/6 4/13/6
f 2/14/6 1/15/6 3/11/6
f 10/16/7 8/17/7 9/18/7
f 7/19/7 8/17/7 6/20/7
f 13/5/8 2/21/8 3/22/8
f 11/9/9 4/23/9 5/24/9
f 15/7/10 1/25/10 2/21/10
f 14/6/11 3/22/11 4/23/11
f 12/1/1 5/26/1 1/25/1
f 12/1/1 6/8/1 10/2/1
f 9/4/2 8/10/2 13/5/2
f 15/7/3 7/27/3 6/8/3
f 11/9/4 10/28/4 9/4/4
f 8/10/5 7/27/5 15/7/5
f 3/11/6 1/15/6 5/12/6
f 10/16/7 6/20/7 8/17/7
f 13/5/8 15/7/8 2/21/8
f 11/9/9 14/6/9 4/23/9
f 15/7/10 12/1/10 1/25/10
f 14/6/11 13/5/11 3/22/11
f 12/1/1 11/3/1 5/26/1
