# Blender v2.78 (sub 0) OBJ File: 'Low_Poly_Trees_Pack.blend'
# www.blender.org
g Oak_Firewood_05
v -0.278843 0.077456 0.066335
v -0.278843 -0.000135 0.041041
v -0.278843 -0.000055 -0.040569
v 0.281157 0.077456 0.066335
v 0.281157 -0.000135 0.041041
v 0.281157 -0.000055 -0.040569
v -0.278843 0.038765 -0.053141
v 0.281157 0.038765 -0.053141
vt 0.9226 0.8546
vt 0.9226 0.7768
vt 0.9283 0.7768
vt 0.9283 0.8546
vt 0.9396 0.8546
vt 0.9396 0.7768
vt 0.9509 0.7768
vt 0.9509 0.8546
vt 0.7833 0.6841
vt 0.7833 0.6983
vt 0.7787 0.6983
vt 0.7758 0.6895
vt 0.8468 0.6841
vt 0.8542 0.6895
vt 0.8514 0.6983
vt 0.8468 0.6983
vn 0.0000 -0.3081 -0.9514
vn 0.0000 -0.3099 0.9508
vn 0.0000 -1.0000 -0.0010
vn -1.0000 0.0000 0.0000
vn 1.0000 -0.0000 0.0000
vn 0.0000 0.9514 -0.3081
s off
f 7/1/1 8/2/1 6/3/1 3/4/1
f 2/5/2 5/6/2 4/7/2 1/8/2
f 3/4/3 6/3/3 5/6/3 2/5/3
f 1/9/4 7/10/4 3/11/4 2/12/4
f 4/13/5 5/14/5 6/15/5 8/16/5
f 1/9/6 4/13/6 8/16/6 7/10/6
