# Blender v2.78 (sub 0) OBJ File: 'Low_Poly_Trees_Pack.blend'
# www.blender.org
g Oak_Firewood_04
v 0.350427 -0.000003 0.035046
v 0.354233 0.077611 0.010110
v 0.344272 0.125584 0.075375
v 0.334309 0.077619 0.140646
v 0.338114 0.000002 0.115721
v 0.059635 0.000002 0.073217
v 0.076370 -0.000003 -0.006784
v 0.077651 0.125584 0.034681
v 0.060427 0.077619 0.098843
v 0.087504 0.077611 -0.030601
v -0.278843 -0.000003 -0.040641
v -0.278843 0.077611 -0.065865
v -0.278843 0.125584 0.000155
v -0.278843 0.077619 0.066182
v -0.278843 0.000002 0.040968
v -0.000546 0.000002 0.040968
v 0.003926 -0.000003 -0.040641
v 0.011449 0.125584 0.000155
v 0.004103 0.077619 0.066182
v 0.011339 0.077611 -0.065865
vt 0.9379 0.7076
vt 0.9817 0.7205
vt 0.9372 0.7205
vt 0.9817 0.6690
vt 0.9391 0.6818
vt 0.9380 0.6690
vt 0.9391 0.6947
vt 0.9817 0.7076
vt 0.9817 0.6561
vt 0.9372 0.6561
vt 0.9817 0.6947
vt 0.7652 0.6959
vt 0.8010 0.6959
vt 0.7720 0.7169
vt 0.7941 0.7169
vt 0.7765 0.6502
vt 0.8106 0.6612
vt 0.7976 0.6791
vt 0.8281 0.6852
vt 0.8071 0.7141
vt 0.8071 0.6920
vt 0.8411 0.7031
vt 0.8281 0.7210
vt 0.9359 0.6690
vt 0.8912 0.6818
vt 0.8912 0.6690
vt 0.9371 0.6947
vt 0.8912 0.6947
vt 0.9359 0.7076
vt 0.8912 0.7076
vt 0.9352 0.7205
vt 0.8912 0.7205
vt 0.9352 0.6561
vt 0.8912 0.6561
vt 0.8211 0.6773
vt 0.8321 0.6433
vt 0.8501 0.6563
vt 0.8433 0.6773
vt 0.9817 0.6818
vt 0.7831 0.6829
vt 0.7765 0.6724
vt 0.7976 0.6433
vt 0.9371 0.6818
vt 0.8141 0.6563
vn -0.0000 -1.0000 0.0001
vn -0.0887 0.8091 0.5810
vn 0.1435 -0.3091 -0.9401
vn -0.1435 -0.3090 0.9402
vn 0.0887 0.8090 -0.5811
vn 0.9886 0.0000 0.1509
vn -0.9759 0.0774 -0.2041
vn -1.0000 0.0000 0.0000
vn 0.0000 0.8091 0.5877
vn 0.0000 0.8090 -0.5878
vn 0.0000 -0.3091 -0.9510
vn 0.0000 -0.3090 0.9511
vn 0.9955 -0.0774 0.0546
s off
f 7/1/1 5/2/1 6/3/1
f 4/4/2 8/5/2 9/6/2
f 10/7/3 1/8/3 7/1/3
f 5/9/4 9/6/4 6/10/4
f 8/5/5 2/11/5 10/7/5
f 4/12/6 1/13/6 3/14/6
f 2/15/6 3/14/6 1/13/6
f 9/16/7 10/17/7 7/18/7
f 13/19/8 15/20/8 14/21/8
f 12/22/8 11/23/8 13/19/8
f 19/24/9 13/25/9 14/26/9
f 13/25/10 20/27/10 12/28/10
f 12/28/11 17/29/11 11/30/11
f 11/30/1 16/31/1 15/32/1
f 16/33/12 14/26/12 15/34/12
f 19/35/13 17/36/13 20/37/13
f 18/38/13 19/35/13 20/37/13
f 7/1/1 1/8/1 5/2/1
f 4/4/2 3/39/2 8/5/2
f 10/7/3 2/11/3 1/8/3
f 5/9/4 4/4/4 9/6/4
f 8/5/5 3/39/5 2/11/5
f 4/12/6 5/40/6 1/13/6
f 7/18/7 6/41/7 9/16/7
f 9/16/7 8/42/7 10/17/7
f 13/19/8 11/23/8 15/20/8
f 19/24/9 18/43/9 13/25/9
f 13/25/10 18/43/10 20/27/10
f 12/28/11 20/27/11 17/29/11
f 11/30/1 17/29/1 16/31/1
f 16/33/12 19/24/12 14/26/12
f 19/35/13 16/44/13 17/36/13
