# Blender v2.78 (sub 0) OBJ File: 'Low_Poly_Trees_Pack.blend'
# www.blender.org
g Oak_Firewood_02
v -0.278843 -0.000003 -0.040641
v -0.245356 0.077611 -0.065865
v -0.261034 0.125584 0.000155
v -0.226633 0.077619 0.066182
v -0.245157 0.000002 0.040968
v 0.281157 -0.000003 -0.040641
v 0.281157 0.077611 -0.065865
v 0.281157 0.125584 0.000155
v 0.281157 0.077619 0.066182
v 0.281157 0.000002 0.040968
v -0.002368 -0.000003 -0.040641
v -0.074883 -0.000003 -0.040641
v -0.010056 0.077611 -0.065865
v -0.086791 0.077611 -0.065865
v -0.020496 0.004725 -0.116733
v -0.060856 0.004725 -0.116733
v -0.025650 0.040929 -0.133271
v -0.061366 0.040929 -0.133271
v 0.093942 0.125584 0.000155
v 0.141761 0.125584 0.000155
v 0.138466 0.077619 0.066182
v 0.095522 0.077619 0.066182
v 0.166643 0.101682 0.033058
v 0.108135 0.190293 0.069041
v 0.135210 0.190293 0.069041
v 0.133345 0.163135 0.106426
v 0.109029 0.163135 0.106426
v 0.149298 0.176759 0.087671
v 0.076398 0.101592 0.033181
v 0.093542 0.175580 0.089294
vt 0.9383 0.7197
vt 0.9854 0.7316
vt 0.8978 0.7352
vt 0.9008 0.6795
vt 0.9526 0.6862
vt 0.8944 0.6932
vt 0.8968 0.7071
vt 0.9263 0.7201
vt 0.8910 0.7216
vt 0.9854 0.6669
vt 0.9610 0.6808
vt 0.9552 0.6809
vt 0.9613 0.6917
vt 0.9370 0.7060
vt 0.9551 0.6916
vt 0.7927 0.6857
vt 0.7918 0.7279
vt 0.7749 0.7074
vt 0.8184 0.6912
vt 0.8184 0.7192
vt 0.8194 0.6632
vt 0.8440 0.6971
vt 0.8194 0.6891
vt 0.8592 0.6762
vt 0.8440 0.6552
vt 0.8342 0.7146
vt 0.8232 0.7019
vt 0.8359 0.7019
vt 0.9646 0.6444
vt 0.9495 0.6567
vt 0.9491 0.6396
vt 0.9839 0.7052
vt 0.9846 0.7183
vt 0.9322 0.6437
vt 0.9349 0.6634
vt 0.9210 0.6543
vt 0.9411 0.6575
vt 0.9640 0.6634
vt 0.9567 0.6590
vt 0.7981 0.6714
vt 0.8047 0.6673
vt 0.8055 0.6840
vt 0.9581 0.6867
vt 0.9584 0.6867
vt 0.9647 0.6863
vt 0.9837 0.6928
vt 0.9842 0.6801
vt 0.9587 0.6864
vt 0.9582 0.6860
vt 0.9579 0.6861
vt 0.9578 0.6864
vt 0.9240 0.7063
vt 0.8982 0.6661
vt 0.8217 0.7132
vt 0.9783 0.6551
vt 0.8128 0.6795
vt 0.7974 0.6797
vt 0.8128 0.6710
vn 0.0000 -1.0000 0.0001
vn -0.0000 0.8091 0.5877
vn 0.0000 -0.3091 -0.9510
vn 0.0000 -0.3090 0.9511
vn 0.0000 0.8090 -0.5878
vn -0.8708 0.0489 0.4892
vn -0.8836 0.2532 -0.3938
vn 1.0000 -0.0000 0.0000
vn 0.0000 -0.4155 -0.9096
vn 0.0000 0.8784 -0.4780
vn 0.0000 -0.9981 -0.0620
vn -0.9593 -0.2089 -0.1898
vn 0.9704 0.0285 -0.2400
vn 0.0000 0.7289 -0.6847
vn 0.8423 0.4305 -0.3243
vn -0.8981 0.3975 -0.1883
vn 0.8142 -0.2066 0.5426
vn 0.0000 -0.4258 0.9048
vn -0.7866 -0.1568 0.5972
vn -0.9243 0.0071 0.3815
vn -0.9492 -0.1417 -0.2809
vn 0.9729 0.0215 -0.2304
vn -0.8517 0.4273 -0.3032
vn -0.8943 -0.1198 0.4312
s off
f 11/1/1 10/2/1 5/3/1
f 4/4/2 29/5/2 3/6/2
f 2/7/3 12/8/3 1/9/3
f 10/10/4 21/11/4 22/12/4
f 20/13/5 13/14/5 19/15/5
f 3/16/6 5/17/6 4/18/6
f 2/19/7 1/20/7 3/16/7
f 10/21/8 8/22/8 9/23/8
f 7/24/8 8/22/8 6/25/8
f 16/26/9 17/27/9 15/28/9
f 13/29/10 18/30/10 14/31/10
f 11/1/3 7/32/3 6/33/3
f 12/34/11 15/35/11 11/36/11
f 14/31/12 16/37/12 12/34/12
f 13/29/13 15/38/13 17/39/13
f 27/40/2 26/41/2 24/42/2
f 20/13/14 24/43/14 25/44/14
f 23/45/2 8/46/2 20/13/2
f 9/47/2 23/45/2 21/11/2
f 23/45/15 25/44/15 28/48/15
f 29/5/16 24/43/16 19/15/16
f 23/45/17 26/49/17 21/11/17
f 21/11/18 27/50/18 22/12/18
f 3/6/2 29/5/2 19/15/2
f 30/51/19 22/12/19 27/50/19
f 5/3/1 1/9/1 12/8/1
f 11/1/1 6/33/1 10/2/1
f 5/3/1 12/8/1 11/1/1
f 4/4/2 22/12/2 29/5/2
f 2/7/3 14/52/3 12/8/3
f 4/4/4 5/53/4 22/12/4
f 10/10/4 9/47/4 21/11/4
f 22/12/4 5/53/4 10/10/4
f 2/7/5 3/6/5 14/52/5
f 20/13/5 8/46/5 7/32/5
f 3/6/5 19/15/5 14/52/5
f 7/32/5 13/14/5 20/13/5
f 14/52/5 19/15/5 13/14/5
f 3/16/20 1/20/20 5/17/20
f 10/21/8 6/25/8 8/22/8
f 16/26/9 18/54/9 17/27/9
f 13/29/10 17/39/10 18/30/10
f 11/1/3 13/14/3 7/32/3
f 12/34/11 16/37/11 15/35/11
f 14/31/21 18/30/21 16/37/21
f 13/29/22 11/55/22 15/38/22
f 25/56/2 24/42/2 26/41/2
f 30/57/2 27/40/2 24/42/2
f 26/41/2 28/58/2 25/56/2
f 20/13/14 19/15/14 24/43/14
f 23/45/2 9/47/2 8/46/2
f 23/45/15 20/13/15 25/44/15
f 29/5/23 30/51/23 24/43/23
f 23/45/17 28/48/17 26/49/17
f 21/11/18 26/49/18 27/50/18
f 30/51/24 29/5/24 22/12/24
