# Blender v2.78 (sub 0) OBJ File: 'Low_Poly_Trees_Pack.blend'
# www.blender.org
g Thuja_BushTree_m_04
v 0.284419 0.831098 0.473257
v 0.426808 1.504660 0.350142
v 0.114234 3.541922 0.355399
v -0.141116 1.514877 0.519999
v -0.267615 2.956274 0.342439
v -0.453508 1.046842 0.316067
v -0.167367 0.314284 0.433383
v 0.121830 0.248528 0.382977
v -0.480591 2.464191 0.068980
v -0.146154 4.145688 -0.007085
v -0.441974 1.422446 -0.344553
v -0.521483 0.813586 -0.107641
v -0.151253 -0.007724 -0.304377
v -0.332180 0.058009 0.028216
v -0.208567 1.000052 -0.492397
v 0.043986 1.853765 -0.542481
v 0.159538 4.139451 -0.159480
v 0.484488 1.146484 -0.298194
v 0.120543 0.233403 -0.445690
v 0.323586 3.887790 0.028008
v 0.528672 1.815820 0.016888
v 0.453985 0.337800 0.127979
v 0.301775 0.068915 -0.073783
v 0.041346 -0.039212 0.131912
v 0.131505 4.299253 0.058679
v -0.057470 3.717591 -0.270774
v 0.003472 4.227567 0.151971
vt 0.8024 0.5354
vt 0.8041 0.5498
vt 0.7906 0.5916
vt 0.7912 0.5481
vt 0.7838 0.5781
vt 0.7846 0.5370
vt 0.7947 0.5236
vt 0.8011 0.5226
vt 0.7764 0.5673
vt 0.7800 0.6059
vt 0.8515 0.5726
vt 0.8395 0.6140
vt 0.8457 0.5509
vt 0.8499 0.5372
vt 0.8358 0.5232
vt 0.8423 0.5168
vt 0.7764 0.5292
vt 0.7883 0.5124
vt 0.8379 0.5426
vt 0.8337 0.5606
vt 0.8302 0.6102
vt 0.8220 0.5456
vt 0.8309 0.5289
vt 0.8235 0.6065
vt 0.8102 0.5579
vt 0.7960 0.6019
vt 0.8123 0.5238
vt 0.8164 0.5249
vt 0.8248 0.5225
vt 0.8282 0.5122
vt 0.8007 0.5122
vt 0.8289 0.6172
vt 0.8353 0.6010
vt 0.7853 0.6057
vt 0.7877 0.6097
vt 0.8164 0.5592
vn 0.4520 0.0670 0.8895
vn -0.5942 0.0468 0.8029
vn -0.1917 0.1034 0.9760
vn -0.4900 -0.0521 0.8701
vn 0.1274 -0.1865 0.9742
vn -0.8479 0.0753 0.5248
vn -0.9135 0.1978 0.3556
vn -0.8719 0.1524 -0.4653
vn -0.8635 -0.2905 -0.4123
vn -0.9473 -0.1911 0.2572
vn -0.4327 0.0753 -0.8984
vn 0.6028 0.1021 -0.7913
vn 0.4443 -0.0325 -0.8953
vn -0.3138 -0.1914 -0.9300
vn -0.7243 -0.1660 -0.6692
vn 0.8189 0.1150 -0.5622
vn 0.9260 0.0897 0.3668
vn 0.8437 -0.0814 0.5306
vn 0.8993 -0.2300 -0.3720
vn 0.6126 -0.6661 0.4255
vn -0.3533 -0.7190 0.5985
vn 0.3950 -0.7534 -0.5257
vn 0.8822 0.4267 -0.1992
vn -0.3980 0.4199 -0.8156
vn -0.3566 0.2123 0.9098
vn 0.4344 0.3200 0.8420
vn 0.6662 0.2588 0.6994
vn 0.1957 0.0549 0.9791
vn -0.0059 -0.0718 0.9974
vn -0.9880 0.0080 0.1541
vn -0.9769 0.0465 -0.2084
vn -0.8312 0.1564 -0.5335
vn -0.7240 -0.1660 -0.6695
vn -0.8334 -0.2463 0.4948
vn -0.4532 0.1044 -0.8853
vn 0.2008 0.1520 -0.9678
vn 0.0031 -0.0595 -0.9982
vn 0.9383 0.0947 -0.3327
vn 0.7757 0.1174 0.6201
vn 0.9631 -0.0285 0.2677
vn 0.6307 -0.2877 0.7208
vn 0.9982 -0.0526 -0.0283
vn 0.8240 -0.2460 -0.5104
vn 0.5746 -0.6234 0.5303
vn -0.0171 -0.6546 0.7558
vn -0.2638 -0.9634 0.0469
vn 0.2525 -0.9507 -0.1801
vn -0.2790 0.7573 -0.5905
vn -0.4851 0.8744 0.0062
vn -0.7662 0.2520 0.5911
s off
f 1/1/1 2/2/1 3/3/1
f 4/4/2 5/5/2 6/6/2
f 3/3/3 5/5/3 4/4/3
f 4/4/4 6/6/4 7/7/4
f 7/7/5 8/8/5 1/1/5
f 6/6/6 5/5/6 9/9/6
f 9/9/7 5/5/7 10/10/7
f 9/11/8 10/12/8 11/13/8
f 12/14/9 13/15/9 14/16/9
f 12/17/10 14/18/10 6/6/10
f 15/19/11 11/13/11 16/20/11
f 16/20/12 17/21/12 18/22/12
f 16/20/13 18/22/13 19/23/13
f 19/23/14 13/15/14 15/19/14
f 15/19/15 13/15/15 11/13/15
f 18/22/16 17/21/16 20/24/16
f 21/25/17 20/26/17 2/2/17
f 2/2/18 1/1/18 22/27/18
f 22/28/19 23/29/19 18/22/19
f 23/29/20 22/28/20 24/30/20
f 24/31/21 7/7/21 14/18/21
f 13/15/22 19/23/22 23/29/22
f 25/32/23 20/24/23 17/21/23
f 17/21/24 26/33/24 10/12/24
f 27/34/25 5/5/25 3/3/25
f 27/34/26 3/3/26 25/35/26
f 25/35/27 3/3/27 20/26/27
f 4/4/28 1/1/28 3/3/28
f 4/4/29 7/7/29 1/1/29
f 12/17/30 6/6/30 9/9/30
f 12/14/31 9/11/31 11/13/31
f 11/13/32 10/12/32 26/33/32
f 12/14/33 11/13/33 13/15/33
f 6/6/34 14/18/34 7/7/34
f 16/20/35 11/13/35 26/33/35
f 16/20/36 26/33/36 17/21/36
f 16/20/37 19/23/37 15/19/37
f 21/36/38 18/22/38 20/24/38
f 2/2/39 20/26/39 3/3/39
f 21/25/40 2/2/40 22/27/40
f 22/27/41 1/1/41 8/8/41
f 21/36/42 22/28/42 18/22/42
f 18/22/43 23/29/43 19/23/43
f 24/31/44 22/27/44 8/8/44
f 24/31/45 8/8/45 7/7/45
f 24/30/46 14/16/46 13/15/46
f 24/30/47 13/15/47 23/29/47
f 25/32/48 17/21/48 10/12/48
f 25/35/49 10/10/49 27/34/49
f 27/34/50 10/10/50 5/5/50
