# Blender v2.78 (sub 0) OBJ File: 'Low_Poly_Trees_Pack.blend'
# www.blender.org
g Thuja_BushTree_m_08
v -0.199103 2.985685 0.085863
v 0.241137 3.816699 -0.029782
v 0.329646 3.905479 -0.145552
v -0.069514 3.140051 -0.251594
v -0.548438 1.317038 -0.100384
v -0.439008 0.565536 -0.221648
v -0.471520 0.402639 0.075985
v -0.397056 1.299713 -0.405248
v -0.492617 1.049299 0.342529
v -0.251016 2.292183 0.414624
v 0.053873 2.800706 -0.455248
v 0.385030 3.790035 -0.228629
v 0.552723 3.875604 -0.179266
v 0.278591 2.320051 -0.475113
v 0.641643 3.619597 -0.155226
v 0.488632 2.367553 -0.316878
v 0.101899 0.726551 -0.588831
v 0.223439 0.243738 -0.443051
v 0.503810 0.848063 -0.353822
v -0.221931 1.239793 -0.531010
v 0.593808 2.703322 -0.016791
v 0.681661 3.730399 0.005264
v 0.537013 2.522916 0.186977
v 0.541805 3.555778 0.187708
v 0.367222 2.261197 0.418515
v 0.584608 0.825476 0.100747
v 0.362281 0.090271 0.223294
v 0.473208 0.226678 -0.076526
v 0.354199 0.776885 0.505823
v 0.058543 2.287864 0.500980
v 0.536663 3.873152 0.123230
v 0.335950 3.837802 0.081857
v -0.104048 0.554874 0.593701
v -0.223411 0.257816 0.442904
v 0.076555 0.142163 0.473249
v -0.104369 -0.057059 0.276479
v -0.137255 -0.104114 -0.000000
v -0.104369 0.015658 -0.276479
v 0.276505 -0.049926 -0.104395
v 0.617553 4.075012 -0.031499
v 0.449943 4.086488 -0.074874
v -0.412664 0.268698 0.360530
v -0.117403 0.271732 -0.456123
vt 0.6706 0.6037
vt 0.6684 0.6058
vt 0.6649 0.5899
vt 0.6671 0.5494
vt 0.6628 0.5328
vt 0.6697 0.5287
vt 0.6596 0.5493
vt 0.6722 0.5858
vt 0.6770 0.5430
vt 0.6805 0.5711
vt 0.6565 0.5841
vt 0.6655 0.6048
vt 0.6643 0.6092
vt 0.7311 0.5844
vt 0.7195 0.6123
vt 0.7255 0.5728
vt 0.7169 0.6048
vt 0.7197 0.5738
vt 0.7311 0.5355
vt 0.7212 0.5267
vt 0.7279 0.5205
vt 0.7202 0.5409
vt 0.6463 0.5364
vt 0.6532 0.5243
vt 0.6547 0.5482
vt 0.7130 0.5819
vt 0.7130 0.6078
vt 0.7084 0.5777
vt 0.7078 0.6036
vt 0.7021 0.5718
vt 0.7099 0.5413
vt 0.7067 0.5267
vt 0.7123 0.5298
vt 0.6999 0.5399
vt 0.6946 0.5733
vt 0.7083 0.6128
vt 0.6869 0.5748
vt 0.6893 0.5320
vt 0.6913 0.5214
vt 0.6992 0.5247
vt 0.6872 0.5302
vt 0.6812 0.5228
vt 0.6762 0.5254
vt 0.6658 0.5127
vt 0.6579 0.5166
vt 0.7197 0.5150
vt 0.7132 0.5235
vt 0.7097 0.5127
vt 0.7017 0.5160
vt 0.7149 0.6181
vt 0.6695 0.6089
vt 0.6707 0.6132
vt 0.6732 0.6051
vt 0.6760 0.6087
vt 0.6745 0.5127
vn -0.8362 0.4742 -0.2756
vn -0.9787 -0.1151 -0.1699
vn -0.8744 0.1928 -0.4452
vn -0.8954 -0.0592 -0.4413
vn -0.9608 0.1742 0.2158
vn -0.9941 -0.0673 0.0846
vn 0.2069 0.1521 -0.9665
vn -0.4841 0.3461 -0.8037
vn 0.2229 0.1441 -0.9641
vn 0.5970 0.0305 -0.8016
vn 0.0133 -0.2860 -0.9581
vn 0.5034 0.0058 -0.8640
vn 0.5280 -0.1209 -0.8406
vn -0.6789 0.1803 -0.7117
vn -0.3395 -0.1089 -0.9343
vn 0.9787 -0.0797 -0.1891
vn 0.9769 -0.0877 0.1946
vn 0.8086 -0.0042 0.5883
vn 0.9403 -0.2449 0.2364
vn 0.8693 -0.0007 0.4944
vn 0.8638 -0.1830 0.4694
vn 0.9372 0.0178 -0.3484
vn 0.9753 -0.1282 -0.1797
vn 0.1076 0.1996 0.9739
vn -0.2529 0.2958 0.9212
vn -0.2318 -0.3647 0.9018
vn -0.4995 0.0469 0.8651
vn -0.6449 -0.1237 0.7542
vn 0.2621 0.0544 0.9635
vn 0.2615 -0.1632 0.9513
vn -0.9827 -0.0970 0.1576
vn -0.8271 -0.4731 -0.3033
vn 0.1727 -0.7306 -0.6606
vn 0.5964 -0.3514 -0.7217
vn 0.3115 -0.9422 0.1233
vn 0.5969 -0.2993 0.7444
vn 0.7092 0.1514 0.6885
vn 0.7619 0.2070 -0.6137
vn -0.7936 0.5882 -0.1557
vn 0.0298 0.4551 -0.8900
vn -0.2615 0.6510 0.7126
vn -0.7196 0.4543 0.5252
vn -0.5987 0.3793 0.7055
vn -0.8833 0.4493 -0.1337
vn -0.9396 0.2255 -0.2577
vn -0.9581 0.1753 0.2267
vn -0.4345 0.3420 -0.8332
vn 0.4753 0.0828 -0.8759
vn 0.0517 0.0654 -0.9965
vn 0.5978 0.0255 -0.8012
vn -0.0790 0.0622 -0.9949
vn -0.5466 0.1367 -0.8262
vn -0.6068 -0.1262 -0.7848
vn 0.9665 -0.0869 -0.2415
vn 0.7955 -0.0041 0.6059
vn 0.9602 0.0128 0.2789
vn 0.7901 0.0291 0.6123
vn 0.9843 -0.0158 -0.1757
vn 0.2666 0.1342 0.9544
vn -0.2421 0.2912 0.9255
vn -0.2669 0.0764 0.9607
vn 0.1711 0.0366 0.9846
vn -0.8059 -0.5603 0.1912
vn -0.2851 -0.5299 0.7987
vn -0.4000 -0.0198 0.9163
vn -0.8052 -0.4787 -0.3499
vn -0.6659 -0.1449 -0.7318
vn 0.0205 -0.9183 -0.3954
vn -0.0158 -0.5748 -0.8182
vn 0.8457 -0.3305 -0.4191
vn 0.2057 -0.9180 0.3389
vn 0.3105 -0.7957 0.5201
vn 0.8127 -0.5816 0.0361
vn 0.7313 0.2054 0.6503
vn 0.9342 0.1387 -0.3287
vn 0.2468 0.5239 -0.8152
vn -0.2413 0.4879 -0.8389
vn -0.1668 0.5793 0.7979
vn -0.6663 0.5916 0.4540
vn -0.3620 -0.5389 0.7606
vn -0.7372 -0.6572 -0.1569
vn -0.7506 -0.4047 -0.5224
s off
f 2/1/1 3/2/1 4/3/1
f 5/4/2 6/5/2 7/6/2
f 4/3/3 8/7/3 5/4/3
f 5/4/4 8/7/4 6/5/4
f 1/8/5 9/9/5 10/10/5
f 5/4/6 7/6/6 9/9/6
f 11/11/7 12/12/7 13/13/7
f 11/11/8 3/2/8 12/12/8
f 11/14/9 13/15/9 14/16/9
f 14/16/10 15/17/10 16/18/10
f 17/19/11 18/20/11 43/21/11
f 14/16/12 19/22/12 17/19/12
f 17/19/13 19/22/13 18/20/13
f 11/11/14 8/7/14 4/3/14
f 17/23/15 43/24/15 20/25/15
f 21/26/16 15/17/16 22/27/16
f 21/26/17 22/27/17 23/28/17
f 23/28/18 24/29/18 25/30/18
f 26/31/19 27/32/19 28/33/19
f 23/28/20 29/34/20 26/31/20
f 26/31/21 29/34/21 27/32/21
f 21/26/22 19/22/22 16/18/22
f 26/31/23 28/33/23 19/22/23
f 30/35/24 24/29/24 31/36/24
f 30/35/25 31/36/25 10/37/25
f 33/38/26 34/39/26 35/40/26
f 10/10/27 9/9/27 33/41/27
f 33/41/28 9/9/28 34/42/28
f 30/35/29 29/34/29 25/30/29
f 33/38/30 35/40/30 29/34/30
f 42/43/31 9/9/31 7/6/31
f 37/44/32 6/5/32 38/45/32
f 38/46/33 18/20/33 39/47/33
f 39/47/34 19/22/34 28/33/34
f 37/48/35 27/32/35 36/49/35
f 27/32/36 29/34/36 35/40/36
f 31/36/37 24/29/37 22/27/37
f 40/50/38 15/17/38 13/15/38
f 41/51/39 3/2/39 2/1/39
f 13/13/40 12/12/40 41/51/40
f 40/52/41 32/53/41 31/54/41
f 2/1/42 1/8/42 32/53/42
f 1/8/43 10/10/43 32/53/43
f 1/8/44 2/1/44 4/3/44
f 1/8/45 4/3/45 5/4/45
f 1/8/46 5/4/46 9/9/46
f 11/11/47 4/3/47 3/2/47
f 14/16/48 13/15/48 15/17/48
f 11/14/49 14/16/49 17/19/49
f 14/16/50 16/18/50 19/22/50
f 11/11/51 17/23/51 20/25/51
f 11/11/52 20/25/52 8/7/52
f 20/25/53 43/24/53 8/7/53
f 21/26/54 16/18/54 15/17/54
f 23/28/55 22/27/55 24/29/55
f 21/26/56 23/28/56 26/31/56
f 23/28/57 25/30/57 29/34/57
f 21/26/58 26/31/58 19/22/58
f 30/35/59 25/30/59 24/29/59
f 10/10/60 31/54/60 32/53/60
f 30/35/61 10/37/61 33/38/61
f 30/35/62 33/38/62 29/34/62
f 37/44/63 36/55/63 7/6/63
f 36/49/64 35/40/64 34/39/64
f 34/42/65 9/9/65 42/43/65
f 37/44/66 7/6/66 6/5/66
f 6/5/67 8/7/67 43/24/67
f 37/48/68 38/46/68 39/47/68
f 38/46/69 43/21/69 18/20/69
f 39/47/70 18/20/70 19/22/70
f 37/48/71 39/47/71 27/32/71
f 36/49/72 27/32/72 35/40/72
f 39/47/73 28/33/73 27/32/73
f 40/50/74 31/36/74 22/27/74
f 40/50/75 22/27/75 15/17/75
f 40/52/76 13/13/76 41/51/76
f 41/51/77 12/12/77 3/2/77
f 40/52/78 41/51/78 32/53/78
f 41/51/79 2/1/79 32/53/79
f 36/55/80 34/42/80 42/43/80
f 36/55/81 42/43/81 7/6/81
f 38/45/82 6/5/82 43/24/82
