# Blender v2.78 (sub 0) OBJ File: 'Low_Poly_Trees_Pack.blend'
# www.blender.org
g Thuja_BushTree_s_07
v -0.900494 0.672542 0.000000
v -0.985961 1.052740 0.000000
v -0.850646 0.660704 -0.364047
v -0.733019 0.368434 0.000000
v -0.850646 0.660704 0.364048
v -0.984261 1.051193 0.420548
v -0.984261 1.051193 -0.420547
v -0.732060 0.368888 -0.312789
v -0.732060 0.368888 0.312789
v 0.000000 0.672542 -0.900494
v 0.000000 1.052740 -0.985961
v 0.364048 0.660704 -0.850645
v 0.000000 0.368434 -0.733019
v -0.364048 0.660704 -0.850645
v -0.420548 1.051193 -0.984260
v 0.420548 1.051193 -0.984260
v 0.312789 0.368888 -0.732059
v -0.312789 0.368888 -0.732059
v 0.900494 0.672542 0.000000
v 0.985961 1.052740 0.000000
v 0.850646 0.660704 0.364048
v 0.733019 0.368434 0.000000
v 0.850646 0.660704 -0.364047
v 0.984261 1.051193 -0.420547
v 0.984261 1.051193 0.420548
v 0.732060 0.368888 0.312789
v 0.732060 0.368888 -0.312789
v 0.000000 0.672542 0.900494
v 0.000000 1.052740 0.985961
v -0.364048 0.660704 0.850646
v 0.000000 0.368434 0.733019
v 0.364048 0.660704 0.850646
v 0.420548 1.051193 0.984261
v -0.420548 1.051193 0.984261
v -0.312789 0.368888 0.732060
v 0.312789 0.368888 0.732060
v 0.000000 -0.032964 0.000000
v -0.270338 0.003353 0.000000
v 0.000000 0.003353 -0.270337
v 0.270338 0.003353 0.000000
v 0.000000 0.003353 0.270338
v -0.269422 0.004471 0.269422
v -0.269422 0.004471 -0.269422
v 0.269422 0.004471 -0.269422
v 0.269422 0.004471 0.269422
v 0.482288 1.662068 0.000000
v 0.000000 1.662068 -0.482288
v -0.482288 1.662068 0.000000
v 0.000000 1.662068 0.482288
v 0.480655 1.660075 0.480655
v 0.480655 1.660075 -0.480655
v -0.480655 1.660075 -0.480655
v -0.480655 1.660075 0.480655
v -0.595839 0.376439 0.595839
v -0.679520 0.652961 0.679520
v -0.797396 1.029389 0.797397
v -0.881336 1.453579 0.444500
v -0.868796 1.439672 0.000000
v -0.881336 1.453579 -0.444500
v -0.797396 1.029389 -0.797396
v -0.679520 0.652961 -0.679519
v -0.595839 0.376439 -0.595839
v -0.532595 0.126325 -0.268613
v -0.524793 0.133034 0.000000
v -0.532595 0.126325 0.268613
v -0.444500 1.453579 -0.881335
v 0.000000 1.439672 -0.868795
v 0.444500 1.453579 -0.881335
v 0.797396 1.029389 -0.797396
v 0.679520 0.652961 -0.679519
v 0.595839 0.376439 -0.595839
v 0.268613 0.126325 -0.532595
v 0.000000 0.133034 -0.524793
v -0.268613 0.126325 -0.532595
v 0.881336 1.453579 -0.444500
v 0.868796 1.439672 0.000000
v 0.881336 1.453579 0.444500
v 0.797396 1.029389 0.797397
v 0.679520 0.652961 0.679520
v 0.595839 0.376439 0.595839
v 0.532595 0.126325 0.268613
v 0.524793 0.133034 0.000000
v 0.532595 0.126325 -0.268613
v 0.444500 1.453579 0.881336
v 0.000000 1.439672 0.868796
v -0.444500 1.453579 0.881336
v -0.268613 0.126325 0.532595
v 0.000000 0.133034 0.524793
v 0.268613 0.126325 0.532595
v -0.477366 0.184839 0.477367
v -0.764832 1.346183 0.764832
v -0.477366 0.184839 -0.477366
v -0.764832 1.346183 -0.764832
v 0.477366 0.184839 0.477367
v 0.764832 1.346183 0.764832
v 0.477366 0.184839 -0.477366
v 0.764832 1.346183 -0.764832
v 0.000000 1.726860 0.000000
vt 0.5593 0.5385
vt 0.5553 0.5356
vt 0.5582 0.5317
vt 0.5622 0.5345
vt 0.5610 0.5277
vt 0.5651 0.5304
vt 0.5512 0.5326
vt 0.5543 0.5288
vt 0.5573 0.5260
vt 0.5660 0.5374
vt 0.5633 0.5414
vt 0.5700 0.5401
vt 0.5674 0.5443
vt 0.5689 0.5335
vt 0.5717 0.5365
vt 0.5604 0.5452
vt 0.5564 0.5425
vt 0.5576 0.5492
vt 0.5534 0.5466
vt 0.5642 0.5481
vt 0.5613 0.5509
vt 0.5525 0.5396
vt 0.5485 0.5368
vt 0.5496 0.5434
vt 0.5468 0.5405
vt 0.5791 0.5528
vt 0.5725 0.5480
vt 0.5753 0.5420
vt 0.5836 0.5441
vt 0.5762 0.5357
vt 0.5836 0.5346
vt 0.5791 0.6031
vt 0.5722 0.6101
vt 0.5677 0.6030
vt 0.5725 0.5983
vt 0.5642 0.5985
vt 0.5674 0.5947
vt 0.5632 0.6131
vt 0.5620 0.6057
vt 0.5613 0.6012
vt 0.5753 0.5923
vt 0.5836 0.5944
vt 0.5762 0.5861
vt 0.5836 0.5849
vt 0.5700 0.5905
vt 0.5717 0.5868
vt 0.5722 0.5598
vt 0.5677 0.5526
vt 0.5632 0.5628
vt 0.5620 0.5554
vt 0.5593 0.5888
vt 0.5633 0.5917
vt 0.5604 0.5956
vt 0.5564 0.5928
vt 0.5576 0.5996
vt 0.5534 0.5969
vt 0.5525 0.5899
vt 0.5553 0.5859
vt 0.5485 0.5871
vt 0.5512 0.5830
vt 0.5496 0.5938
vt 0.5468 0.5908
vt 0.5582 0.5820
vt 0.5622 0.5848
vt 0.5610 0.5781
vt 0.5651 0.5807
vt 0.5543 0.5791
vt 0.5573 0.5764
vt 0.5660 0.5877
vt 0.5689 0.5838
vt 0.5394 0.5745
vt 0.5461 0.5793
vt 0.5432 0.5853
vt 0.5350 0.5832
vt 0.5424 0.5915
vt 0.5350 0.5927
vt 0.5394 0.5241
vt 0.5463 0.5172
vt 0.5509 0.5243
vt 0.5461 0.5289
vt 0.5554 0.5142
vt 0.5565 0.5216
vt 0.5432 0.5350
vt 0.5350 0.5328
vt 0.5424 0.5412
vt 0.5350 0.5424
vt 0.5463 0.5675
vt 0.5509 0.5747
vt 0.5554 0.5645
vt 0.5565 0.5719
vt 0.5450 0.5583
vt 0.5380 0.5514
vt 0.5451 0.5469
vt 0.5498 0.5517
vt 0.5558 0.5545
vt 0.5537 0.5628
vt 0.5736 0.5690
vt 0.5806 0.5758
vt 0.5734 0.5804
vt 0.5688 0.5756
vt 0.5628 0.5727
vt 0.5649 0.5645
vt 0.5450 0.6086
vt 0.5380 0.6018
vt 0.5451 0.5972
vt 0.5498 0.6020
vt 0.5558 0.6049
vt 0.5537 0.6131
vt 0.5736 0.5186
vt 0.5806 0.5255
vt 0.5734 0.5301
vt 0.5688 0.5253
vt 0.5628 0.5224
vt 0.5649 0.5142
vn -0.9591 -0.2769 0.0583
vn -0.9630 0.2690 -0.0159
vn -0.8325 -0.3673 0.4148
vn -0.8910 0.1729 0.4198
vn -0.9591 -0.2769 -0.0583
vn -0.8325 -0.3673 -0.4148
vn -0.9630 0.2690 0.0159
vn -0.8910 0.1729 -0.4198
vn -0.8979 -0.4362 -0.0601
vn -0.7615 -0.6480 0.0159
vn -0.8187 -0.3912 -0.4203
vn -0.6870 -0.6353 -0.3528
vn -0.8979 -0.4362 0.0601
vn -0.8187 -0.3912 0.4203
vn -0.7615 -0.6480 -0.0159
vn -0.6870 -0.6353 0.3528
vn -0.0583 -0.2769 -0.9591
vn 0.0159 0.2690 -0.9630
vn -0.4148 -0.3673 -0.8325
vn -0.4198 0.1729 -0.8910
vn 0.0583 -0.2769 -0.9591
vn 0.4148 -0.3673 -0.8325
vn -0.0159 0.2690 -0.9630
vn 0.4198 0.1729 -0.8910
vn 0.0601 -0.4362 -0.8979
vn -0.0159 -0.6480 -0.7615
vn 0.4203 -0.3912 -0.8187
vn 0.3528 -0.6353 -0.6870
vn -0.0601 -0.4362 -0.8979
vn -0.4203 -0.3912 -0.8187
vn 0.0159 -0.6480 -0.7615
vn -0.3528 -0.6353 -0.6870
vn 0.9591 -0.2769 -0.0583
vn 0.9630 0.2690 0.0159
vn 0.8325 -0.3673 -0.4148
vn 0.8910 0.1729 -0.4198
vn 0.9591 -0.2769 0.0583
vn 0.8325 -0.3673 0.4148
vn 0.9630 0.2690 -0.0159
vn 0.8910 0.1729 0.4198
vn 0.8979 -0.4362 0.0601
vn 0.7615 -0.6480 -0.0159
vn 0.8187 -0.3912 0.4203
vn 0.6870 -0.6353 0.3528
vn 0.8979 -0.4362 -0.0601
vn 0.8187 -0.3912 -0.4203
vn 0.7615 -0.6480 0.0159
vn 0.6870 -0.6353 -0.3528
vn 0.0583 -0.2769 0.9591
vn -0.0159 0.2690 0.9630
vn 0.4148 -0.3673 0.8325
vn 0.4198 0.1729 0.8910
vn -0.0583 -0.2769 0.9591
vn -0.4148 -0.3673 0.8325
vn 0.0159 0.2690 0.9630
vn -0.4198 0.1729 0.8910
vn -0.0601 -0.4362 0.8979
vn 0.0159 -0.6480 0.7615
vn -0.4203 -0.3912 0.8187
vn -0.3528 -0.6353 0.6870
vn 0.0601 -0.4362 0.8979
vn 0.4203 -0.3912 0.8187
vn -0.0159 -0.6480 0.7615
vn 0.3528 -0.6353 0.6870
vn -0.0691 -0.9952 0.0691
vn -0.4370 -0.8993 -0.0149
vn 0.0149 -0.8993 0.4370
vn -0.3697 -0.8524 0.3697
vn -0.0691 -0.9952 -0.0691
vn 0.0149 -0.8993 -0.4370
vn -0.4370 -0.8993 0.0149
vn -0.3697 -0.8524 -0.3697
vn 0.0691 -0.9952 -0.0691
vn 0.4370 -0.8993 0.0149
vn -0.0149 -0.8993 -0.4370
vn 0.3697 -0.8524 -0.3697
vn 0.0691 -0.9952 0.0691
vn -0.0149 -0.8993 0.4370
vn 0.4370 -0.8993 -0.0149
vn 0.3697 -0.8524 0.3697
vn 0.0691 0.9952 0.0691
vn 0.4778 0.8783 -0.0169
vn -0.0169 0.8783 0.4778
vn 0.4353 0.7881 0.4353
vn 0.0691 0.9952 -0.0691
vn -0.0169 0.8783 -0.4778
vn 0.4778 0.8783 0.0169
vn 0.4353 0.7881 -0.4353
vn -0.0691 0.9952 -0.0691
vn -0.4778 0.8783 0.0169
vn 0.0169 0.8783 -0.4778
vn -0.4353 0.7881 -0.4353
vn -0.0691 0.9952 0.0691
vn 0.0169 0.8783 0.4778
vn -0.4778 0.8783 -0.0169
vn -0.4353 0.7881 0.4353
s off
f 1/1/1 5/2/1 6/3/1 2/4/1
f 2/4/2 6/3/2 57/5/2 58/6/2
f 5/2/3 55/7/3 56/8/3 6/3/3
f 6/3/4 56/8/4 91/9/4 57/5/4
f 1/1/5 2/4/5 7/10/5 3/11/5
f 3/11/6 7/10/6 60/12/6 61/13/6
f 2/4/7 58/6/7 59/14/7 7/10/7
f 7/10/8 59/14/8 93/15/8 60/12/8
f 1/1/9 3/11/9 8/16/9 4/17/9
f 4/17/10 8/16/10 63/18/10 64/19/10
f 3/11/11 61/13/11 62/20/11 8/16/11
f 8/16/12 62/20/12 92/21/12 63/18/12
f 1/1/13 4/17/13 9/22/13 5/2/13
f 5/2/14 9/22/14 54/23/14 55/7/14
f 4/17/15 64/19/15 65/24/15 9/22/15
f 9/22/16 65/24/16 90/25/16 54/23/16
f 10/26/17 14/27/17 15/28/17 11/29/17
f 11/29/18 15/28/18 66/30/18 67/31/18
f 14/27/19 61/13/19 60/12/19 15/28/19
f 15/28/20 60/12/20 93/15/20 66/30/20
f 10/32/21 11/33/21 16/34/21 12/35/21
f 12/35/22 16/34/22 69/36/22 70/37/22
f 11/33/23 67/38/23 68/39/23 16/34/23
f 16/34/24 68/39/24 97/40/24 69/36/24
f 10/32/25 12/35/25 17/41/25 13/42/25
f 13/42/26 17/41/26 72/43/26 73/44/26
f 12/35/27 70/37/27 71/45/27 17/41/27
f 17/41/28 71/45/28 96/46/28 72/43/28
f 10/26/29 13/47/29 18/48/29 14/27/29
f 14/27/30 18/48/30 62/20/30 61/13/30
f 13/47/31 73/49/31 74/50/31 18/48/31
f 18/48/32 74/50/32 92/21/32 62/20/32
f 19/51/33 23/52/33 24/53/33 20/54/33
f 20/54/34 24/53/34 75/55/34 76/56/34
f 23/52/35 70/37/35 69/36/35 24/53/35
f 24/53/36 69/36/36 97/40/36 75/55/36
f 19/51/37 20/54/37 25/57/37 21/58/37
f 21/58/38 25/57/38 78/59/38 79/60/38
f 20/54/39 76/56/39 77/61/39 25/57/39
f 25/57/40 77/61/40 95/62/40 78/59/40
f 19/51/41 21/58/41 26/63/41 22/64/41
f 22/64/42 26/63/42 81/65/42 82/66/42
f 21/58/43 79/60/43 80/67/43 26/63/43
f 26/63/44 80/67/44 94/68/44 81/65/44
f 19/51/45 22/64/45 27/69/45 23/52/45
f 23/52/46 27/69/46 71/45/46 70/37/46
f 22/64/47 82/66/47 83/70/47 27/69/47
f 27/69/48 83/70/48 96/46/48 71/45/48
f 28/71/49 32/72/49 33/73/49 29/74/49
f 29/74/50 33/73/50 84/75/50 85/76/50
f 32/72/51 79/60/51 78/59/51 33/73/51
f 33/73/52 78/59/52 95/62/52 84/75/52
f 28/77/53 29/78/53 34/79/53 30/80/53
f 30/80/54 34/79/54 56/8/54 55/7/54
f 29/78/55 85/81/55 86/82/55 34/79/55
f 34/79/56 86/82/56 91/9/56 56/8/56
f 28/77/57 30/80/57 35/83/57 31/84/57
f 31/84/58 35/83/58 87/85/58 88/86/58
f 30/80/59 55/7/59 54/23/59 35/83/59
f 35/83/60 54/23/60 90/25/60 87/85/60
f 28/71/61 31/87/61 36/88/61 32/72/61
f 32/72/62 36/88/62 80/67/62 79/60/62
f 31/87/63 88/89/63 89/90/63 36/88/63
f 36/88/64 89/90/64 94/68/64 80/67/64
f 37/91/65 41/92/65 42/93/65 38/94/65
f 38/94/66 42/93/66 65/24/66 64/19/66
f 41/92/67 88/86/67 87/85/67 42/93/67
f 42/93/68 87/85/68 90/25/68 65/24/68
f 37/91/69 38/94/69 43/95/69 39/96/69
f 39/96/70 43/95/70 74/50/70 73/49/70
f 38/94/71 64/19/71 63/18/71 43/95/71
f 43/95/72 63/18/72 92/21/72 74/50/72
f 37/97/73 39/98/73 44/99/73 40/100/73
f 40/100/74 44/99/74 83/70/74 82/66/74
f 39/98/75 73/44/75 72/43/75 44/99/75
f 44/99/76 72/43/76 96/46/76 83/70/76
f 37/97/77 40/100/77 45/101/77 41/102/77
f 41/102/78 45/101/78 89/90/78 88/89/78
f 40/100/79 82/66/79 81/65/79 45/101/79
f 45/101/80 81/65/80 94/68/80 89/90/80
f 98/103/81 49/104/81 50/105/81 46/106/81
f 46/106/82 50/105/82 77/61/82 76/56/82
f 49/104/83 85/76/83 84/75/83 50/105/83
f 50/105/84 84/75/84 95/62/84 77/61/84
f 98/103/85 46/106/85 51/107/85 47/108/85
f 47/108/86 51/107/86 68/39/86 67/38/86
f 46/106/87 76/56/87 75/55/87 51/107/87
f 51/107/88 75/55/88 97/40/88 68/39/88
f 98/109/89 47/110/89 52/111/89 48/112/89
f 48/112/90 52/111/90 59/14/90 58/6/90
f 47/110/91 67/31/91 66/30/91 52/111/91
f 52/111/92 66/30/92 93/15/92 59/14/92
f 98/109/93 48/112/93 53/113/93 49/114/93
f 49/114/94 53/113/94 86/82/94 85/81/94
f 48/112/95 58/6/95 57/5/95 53/113/95
f 53/113/96 57/5/96 91/9/96 86/82/96
