# Blender v2.78 (sub 0) OBJ File: 'Low_Poly_Trees_Pack.blend'
# www.blender.org
g Thuja_Tree_m_02
v 0.000000 0.000000 -0.133586
v -0.127048 0.000000 -0.041280
v -0.078520 0.000000 0.108073
v 0.078520 0.000000 0.108073
v 0.127048 0.000000 -0.041280
v 0.000000 0.768959 -0.119860
v -0.113994 0.768959 -0.037039
v -0.070452 0.768959 0.096969
v 0.070452 0.768959 0.096969
v 0.113994 0.768959 -0.037039
v -0.448610 3.615979 0.090036
v -0.294814 4.560357 -0.027793
v -0.233650 4.672384 -0.148749
v -0.370623 3.793537 -0.256959
v -0.558062 1.946644 -0.100384
v -0.439077 1.203066 -0.221648
v -0.471515 1.040588 0.075985
v -0.406519 1.931011 -0.405248
v -0.496132 1.683240 0.342529
v -0.329643 2.908964 0.419680
v -0.139701 3.455813 -0.463996
v -0.141701 4.563503 -0.235414
v 0.003842 4.689218 -0.183960
v 0.201520 2.972829 -0.480321
v 0.180318 4.433947 -0.158576
v 0.407680 3.039747 -0.320386
v 0.101266 1.364357 -0.588832
v 0.223439 0.881717 -0.443051
v 0.502186 1.487341 -0.353822
v -0.230017 1.873474 -0.531010
v 0.438105 3.415745 -0.015491
v 0.187235 4.560110 0.008700
v 0.426249 3.211159 0.191638
v 0.103658 4.343779 0.198275
v 0.304287 2.916235 0.424113
v 0.583198 1.464944 0.100747
v 0.362281 0.728249 0.223294
v 0.473208 0.864657 -0.076526
v 0.353302 1.415343 0.505823
v -0.014296 2.923389 0.507351
v -0.007672 4.681784 0.132046
v -0.204928 4.602666 0.088819
v -0.104099 1.192697 0.593701
v -0.223411 0.895795 0.442904
v 0.076555 0.780142 0.473249
v -0.104369 0.580920 0.276479
v -0.137255 0.533864 0.000000
v -0.104369 0.653637 -0.276479
v 0.276505 0.588053 -0.104395
v 0.020304 4.909426 -0.029521
v -0.159449 4.886143 -0.074874
v -0.412664 0.906677 0.360530
v -0.117403 0.909711 -0.456123
vt 0.5682 0.7896
vt 0.5675 0.8527
vt 0.5559 0.8527
vt 0.5553 0.7896
vt 0.5424 0.7898
vt 0.5443 0.8530
vt 0.5328 0.8535
vt 0.5295 0.7904
vt 0.5810 0.7898
vt 0.5791 0.8530
vt 0.5939 0.7904
vt 0.5906 0.8535
vt 0.6706 0.6037
vt 0.6684 0.6058
vt 0.6649 0.5899
vt 0.6671 0.5494
vt 0.6628 0.5328
vt 0.6697 0.5287
vt 0.6596 0.5493
vt 0.6722 0.5858
vt 0.6770 0.5430
vt 0.6805 0.5711
vt 0.6565 0.5841
vt 0.6655 0.6048
vt 0.6643 0.6092
vt 0.7311 0.5844
vt 0.7195 0.6123
vt 0.7255 0.5728
vt 0.7169 0.6048
vt 0.7197 0.5738
vt 0.7311 0.5355
vt 0.7212 0.5267
vt 0.7279 0.5205
vt 0.7202 0.5409
vt 0.6463 0.5364
vt 0.6532 0.5243
vt 0.6547 0.5482
vt 0.7130 0.5819
vt 0.7130 0.6078
vt 0.7084 0.5777
vt 0.7078 0.6036
vt 0.7021 0.5718
vt 0.7099 0.5413
vt 0.7067 0.5267
vt 0.7123 0.5298
vt 0.6999 0.5399
vt 0.6946 0.5733
vt 0.7083 0.6128
vt 0.6869 0.5748
vt 0.6893 0.5320
vt 0.6913 0.5214
vt 0.6992 0.5247
vt 0.6872 0.5302
vt 0.6812 0.5228
vt 0.6762 0.5254
vt 0.6658 0.5127
vt 0.6579 0.5166
vt 0.7197 0.5150
vt 0.7132 0.5235
vt 0.7097 0.5127
vt 0.7017 0.5160
vt 0.7149 0.6181
vt 0.6695 0.6089
vt 0.6707 0.6132
vt 0.6732 0.6051
vt 0.6760 0.6087
vt 0.6745 0.5127
vn 0.0000 0.0144 0.9999
vn -0.5877 0.0144 -0.8089
vn 0.9510 0.0144 0.3090
vn -0.9510 0.0144 0.3090
vn 0.5877 0.0144 -0.8089
vn -0.9351 0.1831 -0.3033
vn -0.9761 -0.1275 -0.1760
vn -0.8931 0.0528 -0.4467
vn -0.8946 -0.0712 -0.4411
vn -0.8638 0.0861 0.4964
vn -0.9927 -0.0767 0.0932
vn 0.1689 0.1995 -0.9652
vn -0.5654 0.1657 -0.8080
vn 0.2244 0.1908 -0.9556
vn 0.5641 0.1854 -0.8047
vn 0.0133 -0.2860 -0.9581
vn 0.4993 0.0273 -0.8660
vn 0.5291 -0.1198 -0.8400
vn -0.6028 0.0749 -0.7944
vn -0.3352 -0.1119 -0.9355
vn 0.9560 0.2138 -0.2008
vn 0.9460 0.2020 0.2537
vn 0.7349 0.2055 0.6463
vn 0.9406 -0.2425 0.2377
vn 0.8658 0.0519 0.4977
vn 0.8646 -0.1814 0.4685
vn 0.9823 0.0636 -0.1764
vn 0.9756 -0.1256 -0.1801
vn 0.0513 0.2083 0.9767
vn -0.2709 0.2019 0.9412
vn -0.2319 -0.3648 0.9017
vn -0.5237 0.0175 0.8517
vn -0.6421 -0.1260 0.7562
vn 0.2536 0.0608 0.9654
vn 0.2621 -0.1630 0.9512
vn -0.9826 -0.1020 0.1552
vn -0.8269 -0.4735 -0.3035
vn 0.1727 -0.7306 -0.6606
vn 0.5947 -0.3500 -0.7238
vn 0.3115 -0.9422 0.1233
vn 0.5972 -0.2984 0.7446
vn 0.6464 0.3461 0.6800
vn 0.6636 0.3957 -0.6349
vn -0.9222 0.3646 -0.1287
vn -0.0651 0.4417 -0.8948
vn -0.3864 0.5649 0.7291
vn -0.8098 0.2007 0.5514
vn -0.7335 0.1819 0.6549
vn -0.9789 0.1410 -0.1479
vn -0.9806 0.0845 -0.1771
vn -0.9852 0.0458 0.1650
vn -0.4956 0.1818 -0.8493
vn 0.4183 0.2011 -0.8858
vn 0.0437 0.0645 -0.9970
vn 0.6011 0.0538 -0.7974
vn -0.1000 0.0478 -0.9938
vn -0.5644 0.0671 -0.8228
vn -0.6033 -0.1316 -0.7865
vn 0.9265 0.1889 -0.3254
vn 0.7768 0.2178 0.5910
vn 0.9872 0.0816 0.1371
vn 0.8531 0.0561 0.5187
vn 0.9831 0.0629 -0.1721
vn 0.2523 0.1857 0.9497
vn -0.2869 0.2040 0.9360
vn -0.2700 0.0619 0.9609
vn 0.1696 0.0403 0.9847
vn -0.8059 -0.5603 0.1912
vn -0.2851 -0.5299 0.7987
vn -0.4001 -0.0218 0.9162
vn -0.8054 -0.4789 -0.3492
vn -0.6696 -0.1533 -0.7267
vn 0.0205 -0.9183 -0.3954
vn -0.0158 -0.5748 -0.8182
vn 0.8472 -0.3284 -0.4176
vn 0.2057 -0.9180 0.3389
vn 0.3105 -0.7957 0.5201
vn 0.8127 -0.5816 0.0361
vn 0.6528 0.3834 0.6533
vn 0.8675 0.3793 -0.3220
vn 0.1331 0.5624 -0.8161
vn -0.3229 0.4073 -0.8543
vn -0.2719 0.5136 0.8138
vn -0.7911 0.3961 0.4661
vn -0.3620 -0.5389 0.7606
vn -0.7372 -0.6572 -0.1568
vn -0.7502 -0.4049 -0.5227
s off
f 4/1/1 9/2/1 8/3/1 3/4/1
f 2/5/2 7/6/2 6/7/2 1/8/2
f 5/9/3 10/10/3 9/2/3 4/1/3
f 3/4/4 8/3/4 7/6/4 2/5/4
f 1/11/5 6/12/5 10/10/5 5/9/5
f 12/13/6 13/14/6 14/15/6
f 15/16/7 16/17/7 17/18/7
f 14/15/8 18/19/8 15/16/8
f 15/16/9 18/19/9 16/17/9
f 11/20/10 19/21/10 20/22/10
f 15/16/11 17/18/11 19/21/11
f 21/23/12 22/24/12 23/25/12
f 21/23/13 13/14/13 22/24/13
f 21/26/14 23/27/14 24/28/14
f 24/28/15 25/29/15 26/30/15
f 27/31/16 28/32/16 53/33/16
f 24/28/17 29/34/17 27/31/17
f 27/31/18 29/34/18 28/32/18
f 21/23/19 18/19/19 14/15/19
f 27/35/20 53/36/20 30/37/20
f 31/38/21 25/29/21 32/39/21
f 31/38/22 32/39/22 33/40/22
f 33/40/23 34/41/23 35/42/23
f 36/43/24 37/44/24 38/45/24
f 33/40/25 39/46/25 36/43/25
f 36/43/26 39/46/26 37/44/26
f 31/38/27 29/34/27 26/30/27
f 36/43/28 38/45/28 29/34/28
f 40/47/29 34/41/29 41/48/29
f 40/47/30 41/48/30 20/49/30
f 43/50/31 44/51/31 45/52/31
f 20/22/32 19/21/32 43/53/32
f 43/53/33 19/21/33 44/54/33
f 40/47/34 39/46/34 35/42/34
f 43/50/35 45/52/35 39/46/35
f 52/55/36 19/21/36 17/18/36
f 47/56/37 16/17/37 48/57/37
f 48/58/38 28/32/38 49/59/38
f 49/59/39 29/34/39 38/45/39
f 47/60/40 37/44/40 46/61/40
f 37/44/41 39/46/41 45/52/41
f 41/48/42 34/41/42 32/39/42
f 50/62/43 25/29/43 23/27/43
f 51/63/44 13/14/44 12/13/44
f 23/25/45 22/24/45 51/63/45
f 50/64/46 42/65/46 41/66/46
f 12/13/47 11/20/47 42/65/47
f 11/20/48 20/22/48 42/65/48
f 11/20/49 12/13/49 14/15/49
f 11/20/50 14/15/50 15/16/50
f 11/20/51 15/16/51 19/21/51
f 21/23/52 14/15/52 13/14/52
f 24/28/53 23/27/53 25/29/53
f 21/26/54 24/28/54 27/31/54
f 24/28/55 26/30/55 29/34/55
f 21/23/56 27/35/56 30/37/56
f 21/23/57 30/37/57 18/19/57
f 30/37/58 53/36/58 18/19/58
f 31/38/59 26/30/59 25/29/59
f 33/40/60 32/39/60 34/41/60
f 31/38/61 33/40/61 36/43/61
f 33/40/62 35/42/62 39/46/62
f 31/38/63 36/43/63 29/34/63
f 40/47/64 35/42/64 34/41/64
f 20/22/65 41/66/65 42/65/65
f 40/47/66 20/49/66 43/50/66
f 40/47/67 43/50/67 39/46/67
f 47/56/68 46/67/68 17/18/68
f 46/61/69 45/52/69 44/51/69
f 44/54/70 19/21/70 52/55/70
f 47/56/71 17/18/71 16/17/71
f 16/17/72 18/19/72 53/36/72
f 47/60/73 48/58/73 49/59/73
f 48/58/74 53/33/74 28/32/74
f 49/59/75 28/32/75 29/34/75
f 47/60/76 49/59/76 37/44/76
f 46/61/77 37/44/77 45/52/77
f 49/59/78 38/45/78 37/44/78
f 50/62/79 41/48/79 32/39/79
f 50/62/80 32/39/80 25/29/80
f 50/64/81 23/25/81 51/63/81
f 51/63/82 22/24/82 13/14/82
f 50/64/83 51/63/83 42/65/83
f 51/63/84 12/13/84 42/65/84
f 46/67/85 44/54/85 52/55/85
f 46/67/86 52/55/86 17/18/86
f 48/57/87 16/17/87 53/36/87
