# Blender v2.78 (sub 0) OBJ File: 'Low_Poly_Trees_Pack.blend'
# www.blender.org
g Thuja_BushTree_m_01
v -0.477990 1.307214 -0.143929
v -0.168919 2.848494 -0.236520
v -0.150542 1.494956 -0.480493
v 0.326839 1.290793 -0.389083
v 0.165771 2.596985 0.268576
v 0.296164 0.058560 0.179567
v 0.404407 1.394863 0.298415
v 0.282356 0.329430 0.411653
v 0.120672 1.317846 0.484193
v -0.306591 1.215763 0.406396
v -0.153230 2.946375 0.175680
v -0.303702 0.459250 -0.412539
v 0.313429 0.025194 -0.060541
v 0.482775 0.356175 0.090130
v -0.362222 0.143563 -0.183757
v 0.473762 1.652629 -0.103355
v 0.048521 3.264369 0.112014
v 0.163660 2.854049 -0.228875
v -0.390970 0.108144 0.058054
v 0.112895 3.388551 -0.015738
v -0.448042 1.319902 0.205535
v -0.095888 3.329922 -0.093194
v -0.100298 0.102726 0.388380
v 0.270799 3.010343 0.048132
v -0.416897 0.383182 0.295097
v -0.080261 0.324832 0.489934
v 0.422404 0.408890 -0.287489
v -0.486249 0.395980 -0.086024
v 0.118343 0.211927 -0.462801
v -0.067550 0.114953 -0.393370
v -0.131402 -0.036100 0.120260
v -0.344063 2.486037 -0.004334
v -0.093143 0.007059 -0.242491
vt 0.8382 0.5512
vt 0.8489 0.5524
vt 0.8400 0.5860
vt 0.8416 0.5269
vt 0.8391 0.5197
vt 0.8453 0.5197
vt 0.8318 0.5270
vt 0.8519 0.5263
vt 0.8231 0.5563
vt 0.8315 0.5970
vt 0.8218 0.6018
vt 0.7691 0.5260
vt 0.7735 0.5174
vt 0.7801 0.5306
vt 0.7885 0.6144
vt 0.7848 0.5935
vt 0.7933 0.6047
vt 0.8218 0.5158
vt 0.7837 0.5103
vt 0.7985 0.5103
vt 0.7923 0.5230
vt 0.8340 0.6142
vt 0.8352 0.6081
vt 0.8404 0.6123
vt 0.8448 0.6011
vt 0.7940 0.6178
vt 0.8029 0.6014
vt 0.7787 0.6067
vt 0.7863 0.5242
vt 0.8078 0.5219
vt 0.7990 0.5321
vt 0.8054 0.5133
vt 0.8345 0.5111
vt 0.8483 0.5103
vt 0.8579 0.5147
vt 0.7743 0.5575
vt 0.7606 0.5559
vt 0.7843 0.5589
vt 0.7963 0.5653
vt 0.7895 0.5321
vt 0.8050 0.5549
vt 0.8194 0.5609
vt 0.8566 0.5499
vt 0.8293 0.5147
vt 0.8627 0.5217
vn -0.9914 0.1030 0.0812
vn -0.9090 -0.3831 -0.1642
vn -0.8707 -0.0233 -0.4913
vn -0.8345 -0.2134 -0.5079
vn -0.9960 -0.0249 0.0863
vn -0.9579 -0.2338 0.1665
vn 0.0196 0.1776 -0.9839
vn 0.1964 -0.4223 0.8849
vn 0.5477 0.2811 0.7880
vn -0.9835 0.0203 0.1797
vn -0.1433 -0.0437 -0.9887
vn 0.0925 -0.9898 -0.1080
vn -0.4049 0.7492 0.5242
vn -0.9280 0.2966 0.2252
vn -0.6174 0.5114 0.5978
vn 0.0173 0.2829 -0.9590
vn 0.2263 0.3793 -0.8972
vn 0.8373 0.2692 -0.4758
vn -0.0413 0.2213 0.9743
vn 0.6267 0.3768 0.6821
vn 0.1347 -0.8862 0.4432
vn 0.1940 -0.9697 0.1487
vn 0.6534 -0.5142 -0.5556
vn 0.2204 -0.8107 -0.5424
vn -0.4134 -0.4828 -0.7720
vn -0.4441 -0.8774 -0.1813
vn -0.6708 -0.6239 0.4009
vn 0.2113 -0.0371 0.9767
vn -0.1891 0.0439 0.9810
vn 0.5197 0.1242 0.8453
vn 0.9869 -0.0170 -0.1602
vn 0.9807 0.0355 0.1921
vn 0.7945 0.1434 -0.5901
vn 0.8787 0.1807 -0.4418
vn 0.1997 0.0283 -0.9795
vn -0.7329 0.0639 -0.6774
vn -0.7697 0.1509 0.6203
vn -0.8570 0.1643 0.4884
vn -0.9164 0.2354 -0.3238
vn 0.3159 -0.6080 0.7284
vn 0.2641 -0.8195 -0.5085
vn -0.7076 -0.5124 -0.4865
vn -0.4735 -0.8674 -0.1531
vn -0.4848 -0.5968 0.6394
vn 0.5424 0.0271 0.8397
vn -0.5156 -0.3174 0.7959
vn -0.5066 -0.0480 0.8609
vn -0.2112 0.1475 0.9662
vn -0.1006 0.1688 0.9805
vn 0.9063 -0.3740 -0.1971
vn 0.8687 0.0372 -0.4939
vn 0.8041 -0.3626 0.4711
vn 0.8494 -0.0414 0.5261
vn 0.8572 -0.4981 0.1309
vn 0.7370 0.1626 0.6560
vn 0.9633 0.1171 0.2414
vn -0.2400 -0.2173 -0.9461
vn 0.5194 -0.0420 -0.8535
vn 0.2373 0.1235 -0.9635
vn -0.8101 0.0291 0.5856
vn -0.7422 0.1091 -0.6612
vn -0.8886 0.1522 -0.4327
s off
f 1/1/1 21/2/1 32/3/1
f 28/4/2 15/5/2 19/6/2
f 1/1/3 12/7/3 28/4/3
f 28/4/4 12/7/4 15/5/4
f 1/1/5 25/8/5 21/2/5
f 28/4/6 19/6/6 25/8/6
f 3/9/7 2/10/7 18/11/7
f 26/12/8 23/13/8 8/14/8
f 17/15/9 5/16/9 24/17/9
f 1/1/10 28/4/10 25/8/10
f 3/9/11 29/18/11 12/7/11
f 31/19/12 33/20/12 13/21/12
f 20/22/13 22/23/13 17/24/13
f 22/23/14 32/3/14 11/25/14
f 17/24/15 22/23/15 11/25/15
f 22/23/16 18/11/16 2/10/16
f 20/22/17 18/11/17 22/23/17
f 20/26/18 24/17/18 18/27/18
f 17/15/19 11/28/19 5/16/19
f 20/26/20 17/15/20 24/17/20
f 23/13/21 31/19/21 6/29/21
f 31/19/22 13/21/22 6/29/22
f 13/21/23 29/30/23 27/31/23
f 33/20/24 30/32/24 29/30/24
f 33/33/25 15/5/25 12/7/25
f 31/34/26 19/6/26 15/5/26
f 31/34/27 23/35/27 25/8/27
f 9/36/28 26/12/28 8/14/28
f 9/36/29 10/37/29 26/12/29
f 9/36/30 7/38/30 5/16/30
f 16/39/31 14/40/31 27/31/31
f 16/39/32 7/38/32 14/40/32
f 16/39/33 4/41/33 18/27/33
f 24/17/34 16/39/34 18/27/34
f 3/42/35 4/41/35 29/30/35
f 1/1/36 3/9/36 12/7/36
f 21/2/37 10/43/37 11/25/37
f 32/3/38 21/2/38 11/25/38
f 22/23/39 2/10/39 32/3/39
f 6/29/40 8/14/40 23/13/40
f 33/20/41 29/30/41 13/21/41
f 33/33/42 12/7/42 30/44/42
f 31/34/43 15/5/43 33/33/43
f 31/34/44 25/8/44 19/6/44
f 9/36/45 8/14/45 7/38/45
f 26/45/46 25/8/46 23/35/46
f 10/43/47 25/8/47 26/45/47
f 9/36/48 11/28/48 10/37/48
f 11/28/49 9/36/49 5/16/49
f 14/40/50 13/21/50 27/31/50
f 16/39/51 27/31/51 4/41/51
f 14/40/52 8/14/52 6/29/52
f 14/40/53 7/38/53 8/14/53
f 14/40/54 6/29/54 13/21/54
f 7/38/55 24/17/55 5/16/55
f 16/39/56 24/17/56 7/38/56
f 29/18/57 30/44/57 12/7/57
f 29/30/58 4/41/58 27/31/58
f 3/42/59 18/27/59 4/41/59
f 21/2/60 25/8/60 10/43/60
f 1/1/61 2/10/61 3/9/61
f 1/1/62 32/3/62 2/10/62
