# Blender v2.78 (sub 0) OBJ File: 'Low_Poly_Trees_Pack.blend'
# www.blender.org
g Thuja_Tree_s_04
v -0.482746 1.275107 -0.638565
v -0.609762 1.811279 -0.387876
v -0.168893 2.210816 -0.385029
v 0.127002 1.811731 -0.708469
v 0.272339 2.100340 -0.428246
v 0.643360 1.477947 -0.527760
v 0.205643 0.740724 -0.651959
v -0.214196 0.670492 -0.516938
v 0.558425 2.003997 -0.142539
v 0.180469 2.445665 -0.008547
v 0.623457 1.643429 0.374247
v 0.787344 1.194515 0.082148
v 0.293364 0.415027 0.422143
v 0.497332 0.473527 -0.073566
v 0.415237 1.404286 0.691642
v 0.042141 1.863915 0.675431
v -0.150987 2.494197 0.210286
v -0.618999 1.538675 0.534160
v -0.063997 0.644583 0.703681
v -0.364162 2.334467 0.016724
v -0.664378 1.913672 0.071761
v -0.674146 0.753278 -0.084110
v -0.386226 0.471367 0.181753
v -0.049333 0.374911 -0.153575
v -0.149263 2.526989 -0.045468
v 0.113889 2.324588 0.305445
v -0.014578 2.512346 -0.171132
v 0.000000 0.000000 -0.111321
v -0.105873 0.000000 -0.034400
v -0.065433 0.000000 0.090061
v 0.065433 0.000000 0.090061
v 0.105873 0.000000 -0.034400
v 0.000000 0.924006 -0.094829
v -0.090187 0.924006 -0.029304
v -0.055739 0.924006 0.076718
v 0.055739 0.924006 0.076718
v 0.090187 0.924006 -0.029304
vt 0.8024 0.5354
vt 0.8041 0.5498
vt 0.7906 0.5916
vt 0.7912 0.5481
vt 0.7838 0.5781
vt 0.7846 0.5370
vt 0.7947 0.5236
vt 0.8011 0.5226
vt 0.7764 0.5673
vt 0.7800 0.6059
vt 0.8515 0.5726
vt 0.8395 0.6140
vt 0.8457 0.5509
vt 0.8499 0.5372
vt 0.8358 0.5232
vt 0.8423 0.5168
vt 0.7764 0.5292
vt 0.7883 0.5124
vt 0.8379 0.5426
vt 0.8337 0.5606
vt 0.8302 0.6102
vt 0.8220 0.5456
vt 0.8309 0.5289
vt 0.8235 0.6065
vt 0.8102 0.5579
vt 0.7960 0.6019
vt 0.8123 0.5238
vt 0.8164 0.5249
vt 0.8248 0.5225
vt 0.8282 0.5122
vt 0.8007 0.5122
vt 0.8289 0.6172
vt 0.8353 0.6010
vt 0.7853 0.6057
vt 0.7877 0.6097
vt 0.8164 0.5592
vt 0.3154 0.7670
vt 0.3144 0.8581
vt 0.3034 0.8581
vt 0.3025 0.7670
vt 0.2896 0.7673
vt 0.2924 0.8583
vt 0.2814 0.8588
vt 0.2767 0.7678
vt 0.3283 0.7673
vt 0.3254 0.8583
vt 0.3411 0.7678
vt 0.3364 0.8588
vn -0.3052 0.3431 -0.8884
vn 0.5346 0.4346 -0.7248
vn 0.0951 0.6684 -0.7377
vn 0.3146 -0.0270 -0.9488
vn -0.2473 -0.2955 -0.9228
vn 0.6915 0.4962 -0.5251
vn 0.6294 0.6620 -0.4070
vn 0.7680 0.5666 0.2987
vn 0.8590 -0.4114 0.3049
vn 0.8945 -0.2856 -0.3439
vn 0.5398 0.4630 0.7030
vn -0.3971 0.4631 0.7924
vn -0.2287 0.0424 0.9726
vn 0.4733 -0.2853 0.8334
vn 0.8835 -0.2213 0.4129
vn -0.7556 0.5096 0.4116
vn -0.8077 0.5478 -0.2180
vn -0.9291 -0.0487 -0.3666
vn -0.7956 -0.3392 0.5019
vn -0.5191 -0.8039 -0.2903
vn 0.2241 -0.8368 -0.4996
vn -0.2243 -0.8751 0.4289
vn -0.6494 0.7548 0.0924
vn 0.3869 0.8298 0.4020
vn 0.0585 0.5575 -0.8281
vn -0.4744 0.6578 -0.5851
vn -0.6550 0.5715 -0.4943
vn -0.4170 0.3654 -0.8323
vn -0.0638 -0.0573 -0.9963
vn 0.9637 0.2404 -0.1158
vn 0.9524 0.2928 0.0844
vn 0.7231 0.5790 0.3766
vn 0.7257 -0.1690 0.6669
vn 0.7571 -0.3574 -0.5469
vn 0.5401 0.4743 0.6952
vn 0.1104 0.6118 0.7832
vn -0.0135 0.0243 0.9996
vn -0.6692 0.5437 0.5066
vn -0.5857 0.6497 -0.4846
vn -0.9920 0.0249 -0.1234
vn -0.6611 -0.4189 -0.6224
vn -0.9955 -0.0043 0.0942
vn -0.7403 -0.3508 0.5735
vn -0.5079 -0.7665 -0.3931
vn -0.0649 -0.7883 -0.6118
vn 0.1831 -0.9823 -0.0406
vn -0.1335 -0.9800 0.1478
vn 0.2243 0.9664 0.1254
vn 0.2240 0.9662 0.1275
vn 0.5920 0.6811 -0.4308
vn 0.0000 0.0144 0.9999
vn -0.5877 0.0144 -0.8089
vn 0.9510 0.0144 0.3090
vn -0.9510 0.0144 0.3090
vn 0.5877 0.0144 -0.8089
s off
f 1/1/1 2/2/1 3/3/1
f 4/4/2 5/5/2 6/6/2
f 3/3/3 5/5/3 4/4/3
f 4/4/4 6/6/4 7/7/4
f 7/7/5 8/8/5 1/1/5
f 6/6/6 5/5/6 9/9/6
f 9/9/7 5/5/7 10/10/7
f 9/11/8 10/12/8 11/13/8
f 12/14/9 13/15/9 14/16/9
f 12/17/10 14/18/10 6/6/10
f 15/19/11 11/13/11 16/20/11
f 16/20/12 17/21/12 18/22/12
f 16/20/13 18/22/13 19/23/13
f 19/23/14 13/15/14 15/19/14
f 15/19/15 13/15/15 11/13/15
f 18/22/16 17/21/16 20/24/16
f 21/25/17 20/26/17 2/2/17
f 2/2/18 1/1/18 22/27/18
f 22/28/19 23/29/19 18/22/19
f 23/29/20 22/28/20 24/30/20
f 24/31/21 7/7/21 14/18/21
f 13/15/22 19/23/22 23/29/22
f 25/32/23 20/24/23 17/21/23
f 17/21/24 26/33/24 10/12/24
f 27/34/25 5/5/25 3/3/25
f 27/34/26 3/3/26 25/35/26
f 25/35/27 3/3/27 20/26/27
f 4/4/28 1/1/28 3/3/28
f 4/4/29 7/7/29 1/1/29
f 12/17/30 6/6/30 9/9/30
f 12/14/31 9/11/31 11/13/31
f 11/13/32 10/12/32 26/33/32
f 12/14/33 11/13/33 13/15/33
f 6/6/34 14/18/34 7/7/34
f 16/20/35 11/13/35 26/33/35
f 16/20/36 26/33/36 17/21/36
f 16/20/37 19/23/37 15/19/37
f 21/36/38 18/22/38 20/24/38
f 2/2/39 20/26/39 3/3/39
f 21/25/40 2/2/40 22/27/40
f 22/27/41 1/1/41 8/8/41
f 21/36/42 22/28/42 18/22/42
f 18/22/43 23/29/43 19/23/43
f 24/31/44 22/27/44 8/8/44
f 24/31/45 8/8/45 7/7/45
f 24/30/46 14/16/46 13/15/46
f 24/30/47 13/15/47 23/29/47
f 25/32/48 17/21/48 10/12/48
f 25/35/49 10/10/49 27/34/49
f 27/34/50 10/10/50 5/5/50
f 31/37/51 36/38/51 35/39/51 30/40/51
f 29/41/52 34/42/52 33/43/52 28/44/52
f 32/45/53 37/46/53 36/38/53 31/37/53
f 30/40/54 35/39/54 34/42/54 29/41/54
f 28/47/55 33/48/55 37/46/55 32/45/55
