# Blender v2.78 (sub 0) OBJ File: 'Low_Poly_Trees_Pack.blend'
# www.blender.org
g Thuja_Tree_crk_m_01
v 0.000000 0.000000 -0.133586
v -0.127048 0.000000 -0.041280
v -0.078520 0.000000 0.108073
v 0.078520 0.000000 0.108073
v 0.127048 0.000000 -0.041280
v -0.075300 0.306931 0.103641
v 0.075943 0.245632 0.104526
v 0.000000 0.384480 -0.126723
v -0.120521 0.384480 -0.039160
v 0.121837 0.306931 -0.039587
v 0.478312 0.486141 0.708595
v 0.356522 0.475212 0.777913
v 0.327109 0.362517 0.785560
v 0.430722 0.305132 0.720968
v 0.524170 0.378676 0.673401
v 1.473272 0.330288 3.418830
v 2.111754 0.296106 4.140501
v 2.268095 0.359251 4.184397
v 1.778311 0.563186 3.465100
v 0.646848 0.633187 1.986577
v 0.418782 0.734441 1.264202
v 0.177392 0.523030 1.199920
v 0.890232 0.818351 1.840787
v 0.357878 0.279494 1.821711
v 1.056743 0.115242 2.820966
v 1.874452 0.658275 3.024617
v 2.321090 0.396862 4.030261
v 2.467275 0.273467 4.082828
v 1.891773 0.564806 2.447279
v 2.457993 0.186928 3.786469
v 2.003456 0.350948 2.443575
v 1.064943 0.769235 1.080301
v 0.847050 0.614145 0.637070
v 1.313411 0.402052 1.051255
v 1.048952 0.842921 1.684225
v 2.073738 0.068528 2.817503
v 2.449371 0.035574 3.926831
v 1.867953 -0.032477 2.688738
v 2.193032 -0.065018 3.817174
v 1.524493 -0.113259 2.537567
v 1.153425 0.075384 1.088402
v 0.567086 0.066704 0.578021
v 0.854181 0.230761 0.583334
v 0.773925 -0.082546 1.234358
v 1.255641 -0.057062 2.706942
v 2.310238 0.015751 4.146781
v 2.145513 0.153088 4.159900
v 0.286165 -0.003082 1.269653
v 0.119362 0.155492 1.036598
v 0.268302 0.015498 0.805357
v 0.126023 0.220028 0.675523
v 0.205093 0.443448 0.592958
v 0.415799 0.642488 0.624472
v 0.584250 0.331494 0.428628
v 2.518498 0.113934 4.297476
v 2.395488 0.241994 4.350404
v 0.023389 0.278881 1.115791
v 0.616381 0.784289 0.814824
v 0.289549 0.473892 0.374785
v 0.300489 0.342805 0.269841
v 0.089870 0.322122 0.389717
v 0.160786 0.461023 0.448072
v 0.170082 0.246385 0.267573
vt 0.5939 0.7904
vt 0.5923 0.8219
vt 0.5803 0.8150
vt 0.5810 0.7898
vt 0.5553 0.7896
vt 0.5555 0.8148
vt 0.5433 0.8214
vt 0.5424 0.7898
vt 0.5679 0.8097
vt 0.5682 0.7896
vt 0.5311 0.8219
vt 0.5295 0.7904
vt 0.5679 0.8097
vt 0.5675 0.8527
vt 0.5559 0.8527
vt 0.5555 0.8148
vt 0.5433 0.8214
vt 0.5443 0.8530
vt 0.5328 0.8535
vt 0.5311 0.8219
vt 0.5803 0.8150
vt 0.5791 0.8530
vt 0.5923 0.8219
vt 0.5906 0.8535
vt 0.6706 0.6037
vt 0.6684 0.6058
vt 0.6649 0.5899
vt 0.6671 0.5494
vt 0.6628 0.5328
vt 0.6697 0.5287
vt 0.6596 0.5493
vt 0.6722 0.5858
vt 0.6770 0.5430
vt 0.6805 0.5711
vt 0.6565 0.5841
vt 0.6655 0.6048
vt 0.6643 0.6092
vt 0.7311 0.5844
vt 0.7195 0.6123
vt 0.7255 0.5728
vt 0.7169 0.6048
vt 0.7197 0.5738
vt 0.7311 0.5355
vt 0.7212 0.5267
vt 0.7279 0.5205
vt 0.7202 0.5409
vt 0.6463 0.5364
vt 0.6532 0.5243
vt 0.6547 0.5482
vt 0.7130 0.5819
vt 0.7130 0.6078
vt 0.7084 0.5777
vt 0.7078 0.6036
vt 0.7021 0.5718
vt 0.7099 0.5413
vt 0.7067 0.5267
vt 0.7123 0.5298
vt 0.6999 0.5399
vt 0.6946 0.5733
vt 0.7083 0.6128
vt 0.6869 0.5748
vt 0.6893 0.5320
vt 0.6913 0.5214
vt 0.6992 0.5247
vt 0.6872 0.5302
vt 0.6812 0.5228
vt 0.6762 0.5254
vt 0.6658 0.5127
vt 0.6579 0.5166
vt 0.7197 0.5150
vt 0.7132 0.5235
vt 0.7097 0.5127
vt 0.7017 0.5160
vt 0.7149 0.6181
vt 0.6695 0.6089
vt 0.6707 0.6132
vt 0.6732 0.6051
vt 0.6760 0.6087
vt 0.6745 0.5127
vt 0.6964 0.8042
vt 0.7097 0.7921
vt 0.7234 0.8042
vt 0.7184 0.8220
vt 0.7019 0.8220
vt 0.6633 0.8221
vt 0.6580 0.8042
vt 0.6715 0.7921
vt 0.6850 0.8042
vt 0.6798 0.8221
vn 0.5877 0.0144 -0.8089
vn -0.9510 0.0144 0.3090
vn 0.9510 0.0144 0.3090
vn -0.5877 0.0144 -0.8089
vn 0.0000 0.0144 0.9999
vn -0.3382 -0.8912 0.3023
vn -0.0881 0.9960 0.0114
vn 0.5591 -0.7971 -0.2280
vn -0.8418 0.2381 0.4844
vn 0.7659 0.4513 -0.4579
vn -0.4414 0.7384 0.5099
vn -0.6720 0.6741 0.3066
vn -0.4187 0.8338 0.3599
vn -0.4766 0.8373 0.2678
vn -0.8198 -0.0042 0.5727
vn -0.7909 0.4559 0.4081
vn 0.6628 0.7419 -0.1015
vn 0.0196 0.9697 0.2434
vn 0.6616 0.7431 -0.1004
vn 0.8598 0.4531 -0.2357
vn 0.2887 0.8506 -0.4395
vn 0.7537 0.5397 -0.3752
vn 0.6896 0.5075 -0.5166
vn -0.0751 0.9780 0.1947
vn 0.1029 0.9877 -0.1178
vn 0.8881 -0.3388 -0.3108
vn 0.5314 -0.8221 -0.2044
vn 0.2716 -0.9566 -0.1058
vn 0.4389 -0.7522 -0.4915
vn 0.3095 -0.9294 -0.2008
vn 0.2689 -0.9174 -0.2934
vn 0.8320 -0.3562 -0.4254
vn 0.7205 -0.4160 -0.5548
vn -0.4286 -0.8305 0.3559
vn -0.4691 -0.7954 0.3838
vn -0.6871 -0.7266 -0.0026
vn -0.7029 -0.5920 0.3943
vn -0.8491 -0.4172 0.3239
vn -0.1617 -0.9844 0.0699
vn -0.1630 -0.9861 -0.0332
vn -0.8325 0.3893 0.3941
vn -0.6750 0.7307 -0.1019
vn 0.0607 0.5552 -0.8295
vn 0.5642 0.4234 -0.7088
vn -0.2885 -0.2404 -0.9268
vn -0.0013 -0.9752 -0.2214
vn 0.3190 -0.9405 0.1170
vn 0.9768 0.1956 -0.0877
vn -0.4247 0.5532 0.7167
vn 0.5722 0.7825 0.2456
vn -0.3463 -0.4917 0.7989
vn -0.7481 -0.0874 0.6578
vn -0.7452 -0.2619 0.6133
vn -0.5642 0.6338 0.5292
vn -0.5786 0.6636 0.4742
vn -0.7637 0.3810 0.5212
vn 0.0731 0.9715 0.2257
vn 0.8116 0.5534 -0.1870
vn 0.4366 0.8901 -0.1310
vn 0.8143 0.4320 -0.3877
vn 0.3729 0.9222 -0.1026
vn -0.0116 0.9896 0.1435
vn -0.1468 0.9891 0.0064
vn 0.9161 -0.2178 -0.3367
vn 0.4147 -0.8983 -0.1454
vn 0.5664 -0.7658 -0.3045
vn 0.3063 -0.9310 -0.1983
vn 0.7934 -0.4368 -0.4240
vn -0.1372 -0.9845 0.1088
vn -0.5454 -0.6985 0.4633
vn -0.5117 -0.7993 0.3152
vn -0.1556 -0.9855 0.0680
vn -0.9487 0.3050 -0.0833
vn -0.7756 -0.6188 -0.1249
vn -0.6459 -0.6992 0.3066
vn -0.6337 0.7628 -0.1289
vn -0.1998 0.9796 0.0208
vn -0.2576 0.4111 -0.8744
vn 0.0689 0.7639 -0.6417
vn 0.6513 -0.0470 -0.7574
vn -0.4621 -0.4129 -0.7849
vn -0.3744 -0.6684 -0.6427
vn 0.2920 -0.4843 -0.8248
vn 0.3424 -0.9301 0.1328
vn 0.9721 -0.1869 -0.1418
vn 0.7477 0.6058 0.2719
vn 0.3617 0.8694 0.3365
vn -0.3292 -0.6131 0.7181
vn -0.5984 -0.0327 0.8005
vn -0.8186 -0.5625 -0.1156
vn -0.7747 0.5775 -0.2578
vn -0.4935 0.8612 -0.1215
vn -0.4498 0.5633 -0.6931
vn -0.4584 0.5318 -0.7121
vn 0.3021 0.8578 0.4158
vn 0.2816 0.8778 0.3875
s off
f 1/1/1 8/2/1 10/3/1 5/4/1
f 3/5/2 6/6/2 9/7/2 2/8/2
f 5/4/3 10/3/3 7/9/3 4/10/3
f 2/8/4 9/7/4 8/11/4 1/12/4
f 4/10/5 7/9/5 6/6/5 3/5/5
f 63/13/6 14/14/6 13/15/6 61/16/6
f 62/17/7 12/18/7 11/19/7 59/20/7
f 60/21/8 15/22/8 14/14/8 63/13/8
f 61/16/9 13/15/9 12/18/9 62/17/9
f 59/23/10 11/24/10 15/22/10 60/21/10
f 17/25/11 18/26/11 19/27/11
f 20/28/12 21/29/12 22/30/12
f 19/27/13 23/31/13 20/28/13
f 20/28/14 23/31/14 21/29/14
f 16/32/15 24/33/15 25/34/15
f 20/28/16 22/30/16 24/33/16
f 26/35/17 27/36/17 28/37/17
f 26/35/18 18/26/18 27/36/18
f 26/38/19 28/39/19 29/40/19
f 29/40/20 30/41/20 31/42/20
f 32/43/21 33/44/21 58/45/21
f 29/40/22 34/46/22 32/43/22
f 32/43/23 34/46/23 33/44/23
f 26/35/24 23/31/24 19/27/24
f 32/47/25 58/48/25 35/49/25
f 36/50/26 30/41/26 37/51/26
f 36/50/27 37/51/27 38/52/27
f 38/52/28 39/53/28 40/54/28
f 41/55/29 42/56/29 43/57/29
f 38/52/30 44/58/30 41/55/30
f 41/55/31 44/58/31 42/56/31
f 36/50/32 34/46/32 31/42/32
f 41/55/33 43/57/33 34/46/33
f 45/59/34 39/53/34 46/60/34
f 45/59/35 46/60/35 25/61/35
f 48/62/36 49/63/36 50/64/36
f 25/34/37 24/33/37 48/65/37
f 48/65/38 24/33/38 49/66/38
f 45/59/39 44/58/39 40/54/39
f 48/62/40 50/64/40 44/58/40
f 57/67/41 24/33/41 22/30/41
f 52/68/42 21/29/42 53/69/42
f 53/70/43 33/44/43 54/71/43
f 54/71/44 34/46/44 43/57/44
f 52/72/45 42/56/45 51/73/45
f 42/56/46 44/58/46 50/64/46
f 46/60/47 39/53/47 37/51/47
f 55/74/48 30/41/48 28/39/48
f 56/75/49 18/26/49 17/25/49
f 28/37/50 27/36/50 56/75/50
f 55/76/51 47/77/51 46/78/51
f 17/25/52 16/32/52 47/77/52
f 16/32/53 25/34/53 47/77/53
f 16/32/54 17/25/54 19/27/54
f 16/32/55 19/27/55 20/28/55
f 16/32/56 20/28/56 24/33/56
f 26/35/57 19/27/57 18/26/57
f 29/40/58 28/39/58 30/41/58
f 26/38/59 29/40/59 32/43/59
f 29/40/60 31/42/60 34/46/60
f 26/35/61 32/47/61 35/49/61
f 26/35/62 35/49/62 23/31/62
f 35/49/63 58/48/63 23/31/63
f 36/50/64 31/42/64 30/41/64
f 38/52/65 37/51/65 39/53/65
f 36/50/66 38/52/66 41/55/66
f 38/52/67 40/54/67 44/58/67
f 36/50/68 41/55/68 34/46/68
f 45/59/69 40/54/69 39/53/69
f 25/34/70 46/78/70 47/77/70
f 45/59/71 25/61/71 48/62/71
f 45/59/72 48/62/72 44/58/72
f 52/68/73 51/79/73 22/30/73
f 51/73/74 50/64/74 49/63/74
f 49/66/75 24/33/75 57/67/75
f 52/68/76 22/30/76 21/29/76
f 21/29/77 23/31/77 58/48/77
f 52/72/78 53/70/78 54/71/78
f 53/70/79 58/45/79 33/44/79
f 54/71/80 33/44/80 34/46/80
f 52/72/81 54/71/81 42/56/81
f 51/73/82 42/56/82 50/64/82
f 54/71/83 43/57/83 42/56/83
f 55/74/84 46/60/84 37/51/84
f 55/74/85 37/51/85 30/41/85
f 55/76/86 28/37/86 56/75/86
f 56/75/87 27/36/87 18/26/87
f 55/76/88 56/75/88 47/77/88
f 56/75/89 17/25/89 47/77/89
f 51/79/90 49/66/90 57/67/90
f 51/79/91 57/67/91 22/30/91
f 53/69/92 21/29/92 58/48/92
f 60/80/93 63/81/93 61/82/93 62/83/93
f 59/84/94 60/80/94 62/83/94
f 9/85/95 6/86/95 7/87/95 10/88/95
f 8/89/96 9/85/96 10/88/96
