# Blender v2.78 (sub 0) OBJ File: 'Low_Poly_Trees_Pack.blend'
# www.blender.org
g Thuja_Tree_crk_m_02
v 0.000000 0.000000 -0.111321
v -0.105873 0.000000 -0.034400
v -0.065433 0.000000 0.090061
v 0.065433 0.000000 0.090061
v 0.105873 0.000000 -0.034400
v -0.059556 0.560154 0.081972
v 0.059556 0.560154 0.081972
v 0.000000 0.560154 -0.101323
v -0.097361 0.501454 -0.031634
v 0.096364 0.560154 -0.031311
v 0.489377 0.619998 0.036575
v 0.475820 0.689505 0.122670
v 0.443580 0.629317 0.210790
v 0.437212 0.522611 0.179158
v 0.465516 0.516852 0.071487
v 3.513553 0.451555 1.191553
v 3.898556 0.327094 1.130747
v 1.474172 1.019360 0.269330
v 0.525336 1.062337 0.120954
v 0.334296 0.939509 0.325261
v 1.149993 0.831079 0.766336
v 1.647611 0.714364 -0.057807
v 4.003927 0.180245 0.974656
v 1.741071 0.344476 -0.075895
v 3.746015 -0.051813 0.947901
v 1.278473 0.149953 -0.111490
v 0.472761 0.691553 -0.329923
v 1.841106 -0.122391 0.406851
v 3.905029 -0.019898 1.209669
v 1.324440 0.018071 0.714117
v 0.337885 0.151426 0.088470
v 0.362804 0.334240 -0.213286
v 1.681776 0.366617 1.006666
v 0.293989 0.481908 0.541725
v 0.178837 0.644042 0.203271
v 0.268688 0.614573 -0.070954
v 3.964624 0.127503 1.240494
v 3.860708 0.187585 1.299862
v 3.817731 0.126941 1.309811
v 3.918238 0.016974 1.243533
v 3.934522 0.183401 1.264266
v 0.143146 0.670337 -0.063527
v 0.117650 0.560127 -0.026225
v 0.094213 0.680294 0.122619
v 0.128660 0.744604 0.028463
v 0.087408 0.566281 0.088820
v -0.077690 0.705570 -0.125815
v -0.066772 0.705978 0.077213
v -0.112978 0.783156 -0.039692
v 0.062495 0.280077 0.086017
v -0.101119 0.280077 -0.032855
v 0.101119 0.280077 -0.032855
v -0.062495 0.280077 0.086017
v 0.000000 0.280077 -0.106322
vt 0.3397 0.7954
vt 0.3382 0.8230
vt 0.3265 0.8225
vt 0.3274 0.7949
vt 0.3027 0.7946
vt 0.3030 0.8222
vt 0.2911 0.8167
vt 0.2904 0.7949
vt 0.3148 0.8222
vt 0.3151 0.7946
vt 0.2796 0.8230
vt 0.2781 0.7954
vt 0.3148 0.8222
vt 0.3144 0.8581
vt 0.3034 0.8581
vt 0.3030 0.8222
vt 0.2913 0.8225
vt 0.2924 0.8583
vt 0.2814 0.8588
vt 0.2796 0.8230
vt 0.3265 0.8225
vt 0.3254 0.8583
vt 0.3382 0.8230
vt 0.3364 0.8588
vt 0.5534 0.6001
vt 0.5510 0.6112
vt 0.5339 0.5448
vt 0.5360 0.5226
vt 0.5422 0.5196
vt 0.5491 0.5393
vt 0.5205 0.5488
vt 0.5465 0.6171
vt 0.6133 0.5500
vt 0.5921 0.6173
vt 0.6032 0.5528
vt 0.5877 0.6078
vt 0.5967 0.5419
vt 0.6056 0.5154
vt 0.5862 0.5592
vt 0.5827 0.6131
vt 0.5742 0.5479
vt 0.5857 0.5222
vt 0.5939 0.5201
vt 0.5775 0.6140
vt 0.5819 0.6141
vt 0.5820 0.6177
vt 0.5616 0.5543
vt 0.5553 0.5140
vt 0.5632 0.5573
vt 0.5704 0.5155
vt 0.5423 0.5097
vt 0.5332 0.5085
vt 0.5235 0.5135
vt 0.5931 0.5095
vt 0.5825 0.5067
vt 0.5563 0.6168
vt 0.5561 0.6142
vt 0.5578 0.6123
vt 0.5604 0.6123
vt 0.3537 0.7994
vt 0.3655 0.7994
vt 0.3655 0.8225
vt 0.3537 0.8247
vt 0.3418 0.7992
vt 0.3418 0.8160
vt 0.3154 0.7670
vt 0.3025 0.7670
vt 0.2896 0.7673
vt 0.2767 0.7678
vt 0.3283 0.7673
vt 0.3411 0.7678
vt 0.6974 0.8463
vt 0.6839 0.8386
vt 0.7090 0.8313
vt 0.6971 0.7672
vt 0.7099 0.7785
vt 0.6851 0.7794
vt 0.7057 0.7932
vt 0.6904 0.7938
vt 0.6851 0.8088
vt 0.7099 0.8096
vt 0.3472 0.8411
vt 0.3464 0.8536
vt 0.3433 0.8535
vt 0.3449 0.8410
vt 0.3498 0.8657
vt 0.3493 0.8288
vn 0.5877 0.0144 -0.8089
vn -0.9510 0.0144 0.3090
vn 0.9510 0.0144 0.3090
vn -0.5877 0.0144 -0.8089
vn 0.0000 0.0144 0.9999
vn -0.2717 -0.2586 0.9270
vn 0.2784 0.7683 -0.5764
vn -0.1287 -0.9915 0.0192
vn -0.0201 0.8290 0.5589
vn 0.2112 -0.3569 -0.9100
vn 0.2968 0.9524 -0.0700
vn -0.1142 0.8950 0.4312
vn 0.3883 0.7875 -0.4787
vn 0.4253 0.1511 -0.8924
vn 0.2913 -0.5494 -0.7831
vn 0.1477 -0.1730 -0.9738
vn 0.1340 0.7593 -0.6368
vn -0.0734 -0.9479 0.3098
vn -0.2003 -0.9737 0.1083
vn -0.1122 -0.8457 -0.5216
vn 0.4222 -0.1526 0.8935
vn -0.1102 0.3544 0.9286
vn -0.3041 0.1394 0.9424
vn -0.3213 -0.3936 0.8613
vn -0.4229 -0.7512 0.5068
vn -0.7611 0.5694 -0.3106
vn -0.7156 0.5782 -0.3920
vn -0.9542 -0.2144 -0.2087
vn -0.9308 -0.2353 -0.2797
vn -0.9290 -0.3361 0.1551
vn 0.6531 -0.6898 -0.3126
vn 0.0757 0.9151 0.3960
vn -0.0119 0.9376 0.3475
vn 0.3979 0.7667 -0.5038
vn 0.3794 -0.3217 -0.8675
vn 0.2225 0.1036 -0.9694
vn 0.0405 -0.3213 -0.9461
vn 0.1332 0.7578 -0.6387
vn 0.2041 -0.7578 -0.6197
vn 0.0029 -0.9929 0.1193
vn -0.0844 -0.9169 -0.3902
vn -0.3872 0.4219 0.8198
vn -0.8612 0.2773 0.4259
vn -0.7496 0.5478 -0.3716
vn -0.7910 0.0442 -0.6102
vn 0.9210 -0.3849 0.0598
vn 0.8885 0.4087 0.2085
vn -0.1574 -0.6186 0.7698
vn -0.1769 -0.5200 0.8356
vn 0.3290 0.6910 0.6437
vn -0.1091 0.2484 0.9625
vn 0.2845 0.7673 -0.5747
vn -0.0249 0.8297 0.5576
vn -0.8877 -0.4578 0.0487
vn -0.6057 0.7710 -0.1968
vn 0.0000 1.0000 0.0000
vn -0.1605 -0.9870 0.0106
vn 0.1089 -0.9923 0.0587
vn -0.1734 -0.2704 0.9470
vn 0.2166 -0.3576 -0.9084
vn -0.9046 0.3297 -0.2700
s off
f 54/1/1 8/2/1 10/3/1 52/4/1
f 53/5/2 6/6/2 9/7/2 51/8/2
f 52/4/3 10/3/3 7/9/3 50/10/3
f 51/8/4 9/7/4 8/11/4 54/12/4
f 50/10/5 7/9/5 6/6/5 53/5/5
f 46/13/6 14/14/6 13/15/6 44/16/6
f 45/17/7 12/18/7 11/19/7 42/20/7
f 43/21/8 15/22/8 14/14/8 46/13/8
f 44/16/9 13/15/9 12/18/9 45/17/9
f 42/23/10 11/24/10 15/22/10 43/21/10
f 16/25/11 17/26/11 18/27/11
f 19/28/12 20/29/12 21/30/12
f 22/31/13 17/26/13 23/32/13
f 22/33/14 23/34/14 24/35/14
f 24/35/15 25/36/15 26/37/15
f 24/35/16 26/37/16 27/38/16
f 22/31/17 19/28/17 18/27/17
f 28/39/18 29/40/18 30/41/18
f 28/39/19 30/41/19 31/42/19
f 31/42/20 32/43/20 26/37/20
f 39/44/21 40/45/21 37/46/21
f 33/47/22 16/25/22 21/30/22
f 33/47/23 21/30/23 34/48/23
f 33/49/24 34/50/24 30/41/24
f 34/50/25 31/42/25 30/41/25
f 35/51/26 19/28/26 36/52/26
f 36/52/27 19/28/27 27/53/27
f 36/54/28 32/43/28 31/42/28
f 36/54/29 31/42/29 35/55/29
f 35/55/30 31/42/30 34/50/30
f 29/40/31 25/36/31 23/34/31
f 18/27/32 21/30/32 16/25/32
f 18/27/33 19/28/33 21/30/33
f 22/31/34 18/27/34 17/26/34
f 24/35/35 23/34/35 25/36/35
f 22/33/36 24/35/36 27/38/36
f 27/38/37 26/37/37 32/43/37
f 22/31/38 27/53/38 19/28/38
f 28/39/39 26/37/39 25/36/39
f 28/39/40 25/36/40 29/40/40
f 28/39/41 31/42/41 26/37/41
f 34/48/42 21/30/42 20/29/42
f 35/51/43 34/48/43 20/29/43
f 35/51/44 20/29/44 19/28/44
f 36/54/45 27/38/45 32/43/45
f 40/45/46 29/40/46 23/34/46 37/46/46
f 37/56/47 23/32/47 17/26/47 41/57/47
f 30/41/48 29/40/48 40/45/48 39/44/48
f 33/49/49 30/41/49 39/44/49
f 17/26/50 16/25/50 38/58/50 41/57/50
f 33/47/51 39/59/51 38/58/51 16/25/51
f 38/58/21 39/59/21 37/56/21 41/57/21
f 45/60/52 42/61/52 47/62/52 49/63/52
f 44/64/53 45/60/53 49/63/53 48/65/53
f 4/66/5 50/10/5 53/5/5 3/67/5
f 2/68/4 51/8/4 54/12/4 1/69/4
f 5/70/3 52/4/3 50/10/3 4/66/3
f 3/67/2 53/5/2 51/8/2 2/68/2
f 1/71/1 54/1/1 52/4/1 5/70/1
f 49/72/54 47/73/54 48/74/54
f 9/75/55 6/76/55 8/77/55
f 8/77/56 6/76/56 7/78/56 10/79/56
f 42/80/57 44/81/57 48/74/57 47/73/57
f 43/82/58 46/83/58 7/84/58 10/85/58
f 46/83/59 44/86/59 7/84/59
f 43/82/60 10/85/60 42/87/60
f 42/80/61 10/79/61 7/78/61 44/81/61
