# Blender v2.78 (sub 0) OBJ File: 'Low_Poly_Trees_Pack.blend'
# www.blender.org
g Thuja_Tree_s_02
v 0.209355 2.618081 -0.408098
v 0.205466 3.181173 -0.213298
v 0.261964 3.248389 -0.090093
v 0.431946 2.721081 -0.129808
v 0.491376 1.660071 -0.449483
v 0.529829 1.040411 -0.236274
v 0.283675 0.894470 -0.466783
v 0.667219 1.648620 -0.072874
v 0.049520 1.459896 -0.711519
v -0.135744 2.230488 -0.544087
v 0.453358 2.530225 0.182040
v 0.272461 3.183060 0.035824
v 0.141532 3.258489 0.117604
v 0.255248 2.264114 0.477784
v 0.011722 3.105327 0.239822
v -0.005149 2.280227 0.525709
v 0.456269 1.222594 0.551660
v 0.221154 0.888453 0.532900
v -0.065840 1.322243 0.759795
v 0.653050 1.606473 0.191333
v -0.260814 2.494405 0.352304
v -0.123426 3.181025 0.141008
v -0.415831 2.372355 0.214152
v -0.219632 3.051226 -0.042481
v -0.533200 2.209220 -0.026162
v -0.561018 1.305738 0.491667
v -0.422571 0.752937 0.191173
v -0.257186 0.872412 0.503470
v -0.717050 1.258752 -0.004789
v -0.397730 2.214141 -0.332911
v -0.098464 3.254029 -0.088295
v 0.058250 3.206558 -0.215649
v -0.473715 1.084424 -0.519953
v -0.260301 0.891125 -0.523821
v -0.374537 0.719780 -0.192888
v -0.116396 0.572357 -0.242827
v 0.045628 0.535601 -0.008593
v 0.341225 0.679640 0.129253
v -0.091861 0.648001 0.317662
v 0.010478 3.390614 0.034254
v 0.157950 3.376644 -0.078085
v -0.022002 0.861867 -0.609189
v 0.488788 0.859064 0.234524
v -0.000000 -0.000121 -0.119807
v -0.114789 -0.000074 -0.036402
v -0.071232 -0.003826 0.098975
v 0.071207 -0.003546 0.098942
v 0.114981 -0.001635 -0.036448
v -0.000028 0.924022 -0.100719
v -0.096308 0.923084 -0.030682
v -0.059779 0.927166 0.082888
v 0.059677 0.926411 0.082816
v 0.097138 0.932158 -0.030866
vt 0.6706 0.6037
vt 0.6684 0.6058
vt 0.6649 0.5899
vt 0.6671 0.5494
vt 0.6628 0.5328
vt 0.6697 0.5287
vt 0.6596 0.5493
vt 0.6722 0.5858
vt 0.6770 0.5430
vt 0.6805 0.5711
vt 0.6565 0.5841
vt 0.6655 0.6048
vt 0.6643 0.6092
vt 0.7311 0.5844
vt 0.7195 0.6123
vt 0.7255 0.5728
vt 0.7169 0.6048
vt 0.7197 0.5738
vt 0.7311 0.5355
vt 0.7212 0.5267
vt 0.7279 0.5205
vt 0.7202 0.5409
vt 0.6463 0.5364
vt 0.6532 0.5243
vt 0.6547 0.5482
vt 0.7130 0.5819
vt 0.7130 0.6078
vt 0.7084 0.5777
vt 0.7078 0.6036
vt 0.7021 0.5718
vt 0.7099 0.5413
vt 0.7067 0.5267
vt 0.7123 0.5298
vt 0.6999 0.5399
vt 0.6946 0.5733
vt 0.7083 0.6128
vt 0.6869 0.5748
vt 0.6893 0.5320
vt 0.6913 0.5214
vt 0.6992 0.5247
vt 0.6872 0.5302
vt 0.6812 0.5228
vt 0.6762 0.5254
vt 0.6658 0.5127
vt 0.6579 0.5166
vt 0.7197 0.5150
vt 0.7132 0.5235
vt 0.7097 0.5127
vt 0.7017 0.5160
vt 0.7149 0.6181
vt 0.6695 0.6089
vt 0.6707 0.6132
vt 0.6732 0.6051
vt 0.6760 0.6087
vt 0.6745 0.5127
vt 0.3154 0.7670
vt 0.3144 0.8581
vt 0.3034 0.8581
vt 0.3025 0.7670
vt 0.2896 0.7673
vt 0.2924 0.8583
vt 0.2814 0.8588
vt 0.2767 0.7678
vt 0.3283 0.7673
vt 0.3254 0.8583
vt 0.3411 0.7678
vt 0.3364 0.8588
vn 0.7965 0.2964 -0.5270
vn 0.7275 -0.1824 -0.6614
vn 0.8943 0.1743 -0.4122
vn 0.9014 -0.0898 -0.4236
vn 0.1140 0.2370 -0.9648
vn 0.5487 -0.1302 -0.8258
vn 0.6298 0.3318 0.7023
vn 0.9578 0.2800 0.0655
vn 0.6208 0.3288 0.7117
vn 0.1906 0.3179 0.9288
vn 0.6301 -0.4777 0.6122
vn 0.3896 0.1398 0.9103
vn 0.3115 -0.2704 0.9110
vn 0.9739 0.2172 0.0660
vn 0.9322 -0.1870 0.3099
vn -0.4218 0.3427 0.8394
vn -0.7589 0.3254 0.5641
vn -0.9143 0.3446 0.2126
vn -0.6925 -0.4706 0.5468
vn -0.9400 0.1999 0.2765
vn -0.8690 -0.3860 0.3096
vn -0.3980 0.2415 0.8850
vn -0.4480 -0.2911 0.8453
vn -0.7786 0.3471 -0.5229
vn -0.6024 0.3429 -0.7208
vn -0.5771 -0.6267 -0.5237
vn -0.4047 0.1002 -0.9089
vn -0.2032 -0.2052 -0.9574
vn -0.9031 0.1658 -0.3962
vn -0.8544 -0.4560 -0.2493
vn 0.4312 -0.2020 -0.8793
vn 0.5491 -0.7189 -0.4262
vn 0.2795 -0.8163 0.5054
vn 0.1820 -0.5441 0.8190
vn -0.3769 -0.9189 0.1165
vn -0.8520 -0.5199 -0.0617
vn -0.8486 0.5238 0.0744
vn 0.0735 0.5832 0.8090
vn 0.6073 0.5465 -0.5766
vn 0.6381 0.6343 0.4365
vn -0.2632 0.7521 -0.6042
vn 0.0714 0.3265 -0.9425
vn 0.0197 0.3153 -0.9488
vn 0.7156 0.2328 -0.6585
vn 0.7134 0.2385 -0.6589
vn 0.4450 0.1690 -0.8794
vn 0.9478 0.2968 0.1165
vn 0.3861 0.3529 0.8523
vn 0.7297 0.1875 0.6575
vn 0.1898 0.2217 0.9565
vn 0.7747 0.1736 0.6080
vn 0.9736 0.2113 0.0859
vn 0.9767 -0.2136 0.0183
vn -0.3383 0.3143 0.8870
vn -0.9085 0.3493 0.2293
vn -0.7485 0.2605 0.6098
vn -0.9268 0.1866 0.3260
vn -0.4702 0.2190 0.8549
vn -0.8696 0.3165 -0.3790
vn -0.5187 0.3635 -0.7738
vn -0.6250 0.1682 -0.7623
vn -0.8775 0.1352 -0.4602
vn 0.4177 -0.8079 -0.4157
vn -0.4959 -0.6894 -0.5281
vn -0.3477 -0.1176 -0.9302
vn 0.6476 -0.7258 -0.2320
vn 0.9754 -0.2204 0.0001
vn 0.2407 -0.8819 0.4053
vn 0.4923 -0.7047 0.5110
vn -0.1570 -0.5373 0.8286
vn -0.3556 -0.9196 0.1669
vn -0.4939 -0.8694 0.0133
vn -0.4316 -0.7423 0.5125
vn -0.8171 0.5690 0.0922
vn -0.2576 0.5641 0.7845
vn 0.4444 0.7499 0.4901
vn 0.7640 0.5966 0.2458
vn -0.3855 0.7062 -0.5938
vn 0.1135 0.5837 -0.8040
vn -0.3146 -0.7036 -0.6371
vn 0.3307 -0.7800 -0.5312
vn 0.8051 -0.5737 -0.1508
vn 0.0004 0.0173 0.9999
vn -0.5880 0.0167 -0.8087
vn 0.9504 0.0167 0.3105
vn -0.9518 0.0171 0.3062
vn 0.5851 0.0164 -0.8108
s off
f 2/1/1 3/2/1 4/3/1
f 5/4/2 6/5/2 7/6/2
f 4/3/3 8/7/3 5/4/3
f 5/4/4 8/7/4 6/5/4
f 1/8/5 9/9/5 10/10/5
f 5/4/6 7/6/6 9/9/6
f 11/11/7 12/12/7 13/13/7
f 11/11/8 3/2/8 12/12/8
f 11/14/9 13/15/9 14/16/9
f 14/16/10 15/17/10 16/18/10
f 17/19/11 18/20/11 43/21/11
f 14/16/12 19/22/12 17/19/12
f 17/19/13 19/22/13 18/20/13
f 11/11/14 8/7/14 4/3/14
f 17/23/15 43/24/15 20/25/15
f 21/26/16 15/17/16 22/27/16
f 21/26/17 22/27/17 23/28/17
f 23/28/18 24/29/18 25/30/18
f 26/31/19 27/32/19 28/33/19
f 23/28/20 29/34/20 26/31/20
f 26/31/21 29/34/21 27/32/21
f 21/26/22 19/22/22 16/18/22
f 26/31/23 28/33/23 19/22/23
f 30/35/24 24/29/24 31/36/24
f 30/35/25 31/36/25 10/37/25
f 33/38/26 34/39/26 35/40/26
f 10/10/27 9/9/27 33/41/27
f 33/41/28 9/9/28 34/42/28
f 30/35/29 29/34/29 25/30/29
f 33/38/30 35/40/30 29/34/30
f 42/43/31 9/9/31 7/6/31
f 37/44/32 6/5/32 38/45/32
f 38/46/33 18/20/33 39/47/33
f 39/47/34 19/22/34 28/33/34
f 37/48/35 27/32/35 36/49/35
f 27/32/36 29/34/36 35/40/36
f 31/36/37 24/29/37 22/27/37
f 40/50/38 15/17/38 13/15/38
f 41/51/39 3/2/39 2/1/39
f 13/13/40 12/12/40 41/51/40
f 40/52/41 32/53/41 31/54/41
f 2/1/42 1/8/42 32/53/42
f 1/8/43 10/10/43 32/53/43
f 1/8/44 2/1/44 4/3/44
f 1/8/45 4/3/45 5/4/45
f 1/8/46 5/4/46 9/9/46
f 11/11/47 4/3/47 3/2/47
f 14/16/48 13/15/48 15/17/48
f 11/14/49 14/16/49 17/19/49
f 14/16/50 16/18/50 19/22/50
f 11/11/51 17/23/51 20/25/51
f 11/11/52 20/25/52 8/7/52
f 20/25/53 43/24/53 8/7/53
f 21/26/54 16/18/54 15/17/54
f 23/28/55 22/27/55 24/29/55
f 21/26/56 23/28/56 26/31/56
f 23/28/57 25/30/57 29/34/57
f 21/26/58 26/31/58 19/22/58
f 30/35/59 25/30/59 24/29/59
f 10/10/60 31/54/60 32/53/60
f 30/35/61 10/37/61 33/38/61
f 30/35/62 33/38/62 29/34/62
f 37/44/63 36/55/63 7/6/63
f 36/49/64 35/40/64 34/39/64
f 34/42/65 9/9/65 42/43/65
f 37/44/66 7/6/66 6/5/66
f 6/5/67 8/7/67 43/24/67
f 37/48/68 38/46/68 39/47/68
f 38/46/69 43/21/69 18/20/69
f 39/47/70 18/20/70 19/22/70
f 37/48/71 39/47/71 27/32/71
f 36/49/72 27/32/72 35/40/72
f 39/47/73 28/33/73 27/32/73
f 40/50/74 31/36/74 22/27/74
f 40/50/75 22/27/75 15/17/75
f 40/52/76 13/13/76 41/51/76
f 41/51/77 12/12/77 3/2/77
f 40/52/78 41/51/78 32/53/78
f 41/51/79 2/1/79 32/53/79
f 36/55/80 34/42/80 42/43/80
f 36/55/81 42/43/81 7/6/81
f 38/45/82 6/5/82 43/24/82
f 47/56/83 52/57/83 51/58/83 46/59/83
f 45/60/84 50/61/84 49/62/84 44/63/84
f 48/64/85 53/65/85 52/57/85 47/56/85
f 46/59/86 51/58/86 50/61/86 45/60/86
f 44/66/87 49/67/87 53/65/87 48/64/87
