# Blender v2.78 (sub 0) OBJ File: 'Low_Poly_Trees_Pack.blend'
# www.blender.org
g Thuja_Tree_m_03
v 0.000000 0.000000 -0.111321
v -0.105873 0.000000 -0.034400
v -0.065433 0.000000 0.090061
v 0.065433 0.000000 0.090061
v 0.105873 0.000000 -0.034400
v 0.000000 0.924006 -0.094829
v -0.090187 0.924006 -0.029304
v -0.055739 0.924006 0.076718
v 0.055739 0.924006 0.076718
v 0.090187 0.924006 -0.029304
v -0.312273 4.141131 0.161084
v -0.170977 4.511523 0.036538
v -0.504571 1.872905 -0.263608
v -0.449401 0.921060 -0.140728
v -0.378892 0.807570 0.133996
v -0.446860 1.716504 0.336197
v -0.129712 1.995017 -0.536904
v 0.017062 4.590113 -0.096805
v 0.224137 2.129229 -0.485345
v 0.242440 4.363805 0.004752
v 0.446860 1.703491 -0.336197
v 0.036454 0.803748 -0.446860
v 0.528320 2.412238 0.051679
v 0.147709 4.579459 0.199653
v 0.336197 1.978641 0.446860
v 0.442442 0.855181 0.116620
v 0.351657 0.776520 -0.216049
v -0.100856 2.349533 0.525492
v 0.000000 0.886208 0.462839
v -0.052576 0.666820 0.141585
v 0.048313 0.685794 -0.129712
v -0.004845 4.627204 0.173639
v -0.074611 4.535792 0.242266
v -0.017373 4.504286 0.279076
v 0.102322 4.596520 0.217813
v -0.063817 4.597888 0.189724
vt 0.3154 0.7670
vt 0.3144 0.8581
vt 0.3034 0.8581
vt 0.3025 0.7670
vt 0.2896 0.7673
vt 0.2924 0.8583
vt 0.2814 0.8588
vt 0.2767 0.7678
vt 0.3283 0.7673
vt 0.3254 0.8583
vt 0.3411 0.7678
vt 0.3364 0.8588
vt 0.5534 0.6001
vt 0.5510 0.6112
vt 0.5339 0.5448
vt 0.5360 0.5226
vt 0.5422 0.5196
vt 0.5491 0.5393
vt 0.5205 0.5488
vt 0.5465 0.6171
vt 0.6133 0.5500
vt 0.5921 0.6173
vt 0.6032 0.5528
vt 0.5877 0.6078
vt 0.5967 0.5419
vt 0.6056 0.5154
vt 0.5862 0.5592
vt 0.5827 0.6131
vt 0.5742 0.5479
vt 0.5857 0.5222
vt 0.5939 0.5201
vt 0.5775 0.6140
vt 0.5819 0.6141
vt 0.5820 0.6177
vt 0.5616 0.5543
vt 0.5553 0.5140
vt 0.5632 0.5573
vt 0.5704 0.5155
vt 0.5423 0.5097
vt 0.5332 0.5085
vt 0.5235 0.5135
vt 0.5931 0.5095
vt 0.5825 0.5067
vt 0.5563 0.6168
vt 0.5561 0.6142
vt 0.5578 0.6123
vt 0.5604 0.6123
vn 0.0000 0.0144 0.9999
vn -0.5877 0.0144 -0.8089
vn 0.9510 0.0144 0.3090
vn -0.9510 0.0144 0.3090
vn 0.5877 0.0144 -0.8089
vn -0.8582 0.1638 -0.4864
vn -0.9725 -0.1175 0.2011
vn -0.6156 0.1655 -0.7705
vn 0.0818 0.1621 -0.9834
vn 0.7238 0.1421 -0.6752
vn 0.4335 -0.0874 -0.8969
vn -0.5537 -0.1381 -0.8212
vn 0.8402 0.1113 0.5307
vn 0.9128 -0.0334 0.4071
vn 0.9640 -0.1291 -0.2325
vn -0.1210 0.6534 0.7473
vn -0.6006 0.0907 0.7944
vn -0.3835 -0.0659 0.9212
vn 0.1507 -0.0319 0.9881
vn 0.5994 -0.1730 0.7815
vn -0.4134 -0.8847 -0.2156
vn -0.4013 -0.8633 -0.3061
vn 0.3189 -0.9381 0.1348
vn 0.3578 -0.9313 0.0679
vn 0.3308 -0.8037 0.4947
vn 0.7397 0.6001 -0.3044
vn -0.9917 0.0631 0.1119
vn -0.9954 -0.0469 0.0835
vn 0.5454 0.1753 -0.8197
vn 0.1632 -0.0517 -0.9852
vn 0.5737 -0.1630 -0.8027
vn -0.5517 -0.1391 -0.8223
vn 0.9025 0.1223 -0.4130
vn 0.9435 0.1454 0.2977
vn 0.9932 -0.0590 -0.1008
vn -0.6143 -0.2148 0.7592
vn -0.3371 -0.7509 0.5679
vn -0.3761 -0.8865 -0.2697
vn 0.1760 -0.9205 -0.3489
vn 0.3132 0.9440 -0.1041
vn -0.4737 0.8666 -0.1572
vn 0.3878 0.1147 0.9146
vn 0.2577 0.0999 0.9610
vn -0.8349 0.4328 0.3400
vn -0.4905 0.1177 0.8635
s off
f 4/1/1 9/2/1 8/3/1 3/4/1
f 2/5/2 7/6/2 6/7/2 1/8/2
f 5/9/3 10/10/3 9/2/3 4/1/3
f 3/4/4 8/3/4 7/6/4 2/5/4
f 1/11/5 6/12/5 10/10/5 5/9/5
f 11/13/6 12/14/6 13/15/6
f 14/16/7 15/17/7 16/18/7
f 17/19/8 12/14/8 18/20/8
f 17/21/9 18/22/9 19/23/9
f 19/23/10 20/24/10 21/25/10
f 19/23/11 21/25/11 22/26/11
f 17/19/12 14/16/12 13/15/12
f 23/27/13 24/28/13 25/29/13
f 23/27/14 25/29/14 26/30/14
f 26/30/15 27/31/15 21/25/15
f 34/32/16 35/33/16 32/34/16
f 28/35/17 11/13/17 16/18/17
f 28/35/18 16/18/18 29/36/18
f 28/37/19 29/38/19 25/29/19
f 29/38/20 26/30/20 25/29/20
f 30/39/21 14/16/21 31/40/21
f 31/40/22 14/16/22 22/41/22
f 31/42/23 27/31/23 26/30/23
f 31/42/24 26/30/24 30/43/24
f 30/43/25 26/30/25 29/38/25
f 24/28/26 20/24/26 18/22/26
f 13/15/27 16/18/27 11/13/27
f 13/15/28 14/16/28 16/18/28
f 17/19/8 13/15/8 12/14/8
f 19/23/29 18/22/29 20/24/29
f 17/21/30 19/23/30 22/26/30
f 22/26/31 21/25/31 27/31/31
f 17/19/32 22/41/32 14/16/32
f 23/27/33 21/25/33 20/24/33
f 23/27/34 20/24/34 24/28/34
f 23/27/35 26/30/35 21/25/35
f 29/36/36 16/18/36 15/17/36
f 30/39/37 29/36/37 15/17/37
f 30/39/38 15/17/38 14/16/38
f 31/42/39 22/26/39 27/31/39
f 35/33/40 24/28/40 18/22/40 32/34/40
f 32/44/41 18/20/41 12/14/41 36/45/41
f 25/29/42 24/28/42 35/33/42 34/32/42
f 28/37/43 25/29/43 34/32/43
f 12/14/44 11/13/44 33/46/44 36/45/44
f 28/35/45 34/47/45 33/46/45 11/13/45
f 33/46/16 34/47/16 32/44/16 36/45/16
