# Blender v2.78 (sub 0) OBJ File: 'Low_Poly_Trees_Pack.blend'
# www.blender.org
g Thuja_BushTree_s_02
v -0.449630 1.820363 0.090539
v -0.294840 2.383454 -0.027793
v -0.233676 2.450671 -0.148749
v -0.370649 1.923362 -0.256959
v -0.657718 0.862353 -0.104265
v -0.512455 0.317676 -0.252309
v -0.536043 0.213166 0.104079
v -0.472708 0.850901 -0.476456
v -0.582111 0.669407 0.436464
v -0.340977 1.432770 0.445194
v -0.140072 1.732507 -0.468009
v -0.141727 2.385342 -0.235415
v 0.003816 2.460771 -0.183960
v 0.214685 1.466396 -0.497321
v 0.180292 2.307608 -0.158576
v 0.414415 1.482508 -0.323507
v 0.147219 0.435824 -0.700583
v 0.279219 0.104384 -0.503902
v 0.636681 0.525910 -0.413673
v -0.257226 0.808755 -0.629992
v 0.438079 1.696687 -0.015491
v 0.187208 2.383306 0.008700
v 0.426607 1.574636 0.191836
v 0.103632 2.253508 0.198275
v 0.311770 1.411502 0.433370
v 0.735584 0.509504 0.141286
v 0.421132 0.019235 0.261705
v 0.560152 0.100702 -0.075583
v 0.454916 0.473171 0.635820
v -0.012567 1.416423 0.518534
v -0.007698 2.456311 0.132046
v -0.204954 2.408840 0.088819
v -0.103500 0.310081 0.743107
v -0.245475 0.105798 0.542370
v 0.108332 0.031000 0.569630
v -0.104062 -0.082910 0.323138
v -0.140639 -0.102663 0.009169
v -0.104053 -0.035641 -0.302327
v 0.308988 -0.050948 -0.106224
v 0.020278 2.592896 -0.029521
v -0.159475 2.578926 -0.074874
v -0.457925 0.130497 0.426125
v -0.119122 0.126998 -0.516461
vt 0.6706 0.6037
vt 0.6684 0.6058
vt 0.6649 0.5899
vt 0.6671 0.5494
vt 0.6628 0.5328
vt 0.6697 0.5287
vt 0.6596 0.5493
vt 0.6722 0.5858
vt 0.6770 0.5430
vt 0.6805 0.5711
vt 0.6565 0.5841
vt 0.6655 0.6048
vt 0.6643 0.6092
vt 0.7311 0.5844
vt 0.7195 0.6123
vt 0.7255 0.5728
vt 0.7169 0.6048
vt 0.7197 0.5738
vt 0.7311 0.5355
vt 0.7212 0.5267
vt 0.7279 0.5205
vt 0.7202 0.5409
vt 0.6463 0.5364
vt 0.6532 0.5243
vt 0.6547 0.5482
vt 0.7130 0.5819
vt 0.7130 0.6078
vt 0.7084 0.5777
vt 0.7078 0.6036
vt 0.7021 0.5718
vt 0.7099 0.5413
vt 0.7067 0.5267
vt 0.7123 0.5298
vt 0.6999 0.5399
vt 0.6946 0.5733
vt 0.7083 0.6128
vt 0.6869 0.5748
vt 0.6893 0.5320
vt 0.6913 0.5214
vt 0.6992 0.5247
vt 0.6872 0.5302
vt 0.6812 0.5228
vt 0.6762 0.5254
vt 0.6658 0.5127
vt 0.6579 0.5166
vt 0.7197 0.5150
vt 0.7132 0.5235
vt 0.7097 0.5127
vt 0.7017 0.5160
vt 0.7149 0.6181
vt 0.6695 0.6089
vt 0.6707 0.6132
vt 0.6732 0.6051
vt 0.6760 0.6087
vt 0.6745 0.5127
vn -0.9085 0.2964 -0.2946
vn -0.9663 -0.2226 -0.1292
vn -0.8796 0.1743 -0.4426
vn -0.8906 -0.1182 -0.4391
vn -0.8140 0.2511 0.5238
vn -0.9840 -0.1584 0.0811
vn 0.1569 0.3318 -0.9302
vn -0.5456 0.2800 -0.7899
vn 0.1699 0.3288 -0.9290
vn 0.6077 0.3179 -0.7278
vn -0.0019 -0.5109 -0.8596
vn 0.4816 0.1391 -0.8653
vn 0.5234 -0.2709 -0.8079
vn -0.5552 0.2172 -0.8029
vn -0.3646 -0.2244 -0.9037
vn 0.9194 0.3427 -0.1931
vn 0.9140 0.3254 0.2422
vn 0.7360 0.3446 0.5827
vn 0.8438 -0.4845 0.2308
vn 0.8412 0.2206 0.4936
vn 0.8052 -0.4117 0.4268
vn 0.9404 0.2411 -0.2399
vn 0.9350 -0.3080 -0.1757
vn 0.0761 0.3471 0.9347
vn -0.1884 0.3429 0.9203
vn -0.1894 -0.6181 0.7630
vn -0.4604 0.1354 0.8773
vn -0.6495 -0.2532 0.7170
vn 0.2499 0.2405 0.9379
vn 0.2741 -0.3490 0.8961
vn -0.9587 -0.2243 0.1750
vn -0.6525 -0.7214 -0.2319
vn 0.1413 -0.9185 -0.3693
vn 0.4457 -0.6049 -0.6599
vn 0.1952 -0.9800 0.0389
vn 0.5781 -0.5441 0.6080
vn 0.5869 0.5238 0.6174
vn 0.5870 0.5832 -0.5615
vn -0.8294 0.5465 -0.1157
vn -0.0561 0.6343 -0.7711
vn -0.3086 0.7521 0.5824
vn -0.7816 0.3265 0.5314
vn -0.7544 0.3153 0.5757
vn -0.9610 0.2328 -0.1494
vn -0.9599 0.2385 -0.1475
vn -0.9658 0.1700 0.1957
vn -0.4994 0.2968 -0.8140
vn 0.4261 0.3529 -0.8330
vn 0.0610 0.1893 -0.9800
vn 0.6308 0.2168 -0.7450
vn -0.0113 0.1741 -0.9847
vn -0.5394 0.2113 -0.8151
vn -0.5939 -0.2478 -0.7655
vn 0.9046 0.3143 -0.2880
vn 0.7454 0.3493 0.5678
vn 0.9421 0.2635 0.2072
vn 0.8038 0.2401 0.5443
vn 0.9616 0.2192 -0.1649
vn 0.2454 0.3165 0.9163
vn -0.2820 0.3635 0.8879
vn -0.2030 0.2108 0.9562
vn 0.1325 0.1867 0.9734
vn -0.6019 -0.7895 0.1198
vn -0.2128 -0.8042 0.5550
vn -0.4875 -0.1289 0.8636
vn -0.6401 -0.7248 -0.2549
vn -0.6226 -0.2634 -0.7369
vn 0.0603 -0.9773 -0.2032
vn -0.0262 -0.7970 -0.6035
vn 0.7603 -0.5838 -0.2849
vn 0.1488 -0.9787 0.1413
vn 0.2131 -0.9438 0.2525
vn 0.5163 -0.8564 0.0060
vn 0.5813 0.5690 0.5817
vn 0.7741 0.5641 -0.2873
vn 0.1065 0.7499 -0.6529
vn -0.2837 0.5966 -0.7507
vn -0.2243 0.7062 0.6715
vn -0.6996 0.5837 0.4122
vn -0.3514 -0.8096 0.4702
vn -0.5329 -0.8417 -0.0868
vn -0.6155 -0.6479 -0.4488
s off
f 2/1/1 3/2/1 4/3/1
f 5/4/2 6/5/2 7/6/2
f 4/3/3 8/7/3 5/4/3
f 5/4/4 8/7/4 6/5/4
f 1/8/5 9/9/5 10/10/5
f 5/4/6 7/6/6 9/9/6
f 11/11/7 12/12/7 13/13/7
f 11/11/8 3/2/8 12/12/8
f 11/14/9 13/15/9 14/16/9
f 14/16/10 15/17/10 16/18/10
f 17/19/11 18/20/11 43/21/11
f 14/16/12 19/22/12 17/19/12
f 17/19/13 19/22/13 18/20/13
f 11/11/14 8/7/14 4/3/14
f 17/23/15 43/24/15 20/25/15
f 21/26/16 15/17/16 22/27/16
f 21/26/17 22/27/17 23/28/17
f 23/28/18 24/29/18 25/30/18
f 26/31/19 27/32/19 28/33/19
f 23/28/20 29/34/20 26/31/20
f 26/31/21 29/34/21 27/32/21
f 21/26/22 19/22/22 16/18/22
f 26/31/23 28/33/23 19/22/23
f 30/35/24 24/29/24 31/36/24
f 30/35/25 31/36/25 10/37/25
f 33/38/26 34/39/26 35/40/26
f 10/10/27 9/9/27 33/41/27
f 33/41/28 9/9/28 34/42/28
f 30/35/29 29/34/29 25/30/29
f 33/38/30 35/40/30 29/34/30
f 42/43/31 9/9/31 7/6/31
f 37/44/32 6/5/32 38/45/32
f 38/46/33 18/20/33 39/47/33
f 39/47/34 19/22/34 28/33/34
f 37/48/35 27/32/35 36/49/35
f 27/32/36 29/34/36 35/40/36
f 31/36/37 24/29/37 22/27/37
f 40/50/38 15/17/38 13/15/38
f 41/51/39 3/2/39 2/1/39
f 13/13/40 12/12/40 41/51/40
f 40/52/41 32/53/41 31/54/41
f 2/1/42 1/8/42 32/53/42
f 1/8/43 10/10/43 32/53/43
f 1/8/44 2/1/44 4/3/44
f 1/8/45 4/3/45 5/4/45
f 1/8/46 5/4/46 9/9/46
f 11/11/47 4/3/47 3/2/47
f 14/16/48 13/15/48 15/17/48
f 11/14/49 14/16/49 17/19/49
f 14/16/50 16/18/50 19/22/50
f 11/11/51 17/23/51 20/25/51
f 11/11/52 20/25/52 8/7/52
f 20/25/53 43/24/53 8/7/53
f 21/26/54 16/18/54 15/17/54
f 23/28/55 22/27/55 24/29/55
f 21/26/56 23/28/56 26/31/56
f 23/28/57 25/30/57 29/34/57
f 21/26/58 26/31/58 19/22/58
f 30/35/59 25/30/59 24/29/59
f 10/10/60 31/54/60 32/53/60
f 30/35/61 10/37/61 33/38/61
f 30/35/62 33/38/62 29/34/62
f 37/44/63 36/55/63 7/6/63
f 36/49/64 35/40/64 34/39/64
f 34/42/65 9/9/65 42/43/65
f 37/44/66 7/6/66 6/5/66
f 6/5/67 8/7/67 43/24/67
f 37/48/68 38/46/68 39/47/68
f 38/46/69 43/21/69 18/20/69
f 39/47/70 18/20/70 19/22/70
f 37/48/71 39/47/71 27/32/71
f 36/49/72 27/32/72 35/40/72
f 39/47/73 28/33/73 27/32/73
f 40/50/74 31/36/74 22/27/74
f 40/50/75 22/27/75 15/17/75
f 40/52/76 13/13/76 41/51/76
f 41/51/77 12/12/77 3/2/77
f 40/52/78 41/51/78 32/53/78
f 41/51/79 2/1/79 32/53/79
f 36/55/80 34/42/80 42/43/80
f 36/55/81 42/43/81 7/6/81
f 38/45/82 6/5/82 43/24/82
