# Blender v2.78 (sub 0) OBJ File: 'Low_Poly_Trees_Pack.blend'
# www.blender.org
g Thuja_Tree_s_01
v -0.478012 1.087832 -0.143929
v -0.168941 1.858472 -0.236520
v -0.150563 1.181702 -0.480493
v 0.326818 1.079621 -0.389083
v 0.165750 1.732717 0.268576
v 0.263746 0.419861 0.146242
v 0.404385 1.131656 0.298414
v 0.282334 0.598940 0.411653
v 0.120651 1.093148 0.484193
v -0.306613 1.042107 0.406396
v -0.153252 1.907412 0.175680
v -0.303724 0.663850 -0.412539
v 0.278285 0.405813 -0.055949
v 0.482753 0.612313 0.090130
v -0.362244 0.506006 -0.183757
v 0.473740 1.260539 -0.103355
v 0.048500 2.066409 0.112014
v 0.163638 1.861249 -0.228875
v -0.390992 0.488297 0.058054
v 0.112873 2.128500 -0.015738
v -0.448064 1.094176 0.205535
v -0.095910 2.099186 -0.093194
v -0.100319 0.485588 0.388380
v 0.270777 1.939396 0.048132
v -0.416918 0.625816 0.295097
v -0.080283 0.596641 0.489934
v 0.482174 0.726759 -0.235405
v -0.486271 0.632215 -0.086024
v 0.123559 0.690542 -0.451777
v -0.067572 0.491701 -0.393370
v -0.096301 0.380005 0.096301
v -0.344085 1.677243 -0.004334
v -0.064084 0.398177 -0.209167
v 0.000130 0.046454 -0.085689
v -0.085262 0.012028 -0.029788
v -0.049264 0.041037 0.065329
v 0.050062 0.035979 0.066227
v 0.082900 0.025279 -0.029244
v 0.000204 0.483658 -0.087586
v -0.076112 0.457031 -0.027158
v -0.048967 0.473372 0.065670
v 0.049390 0.473499 0.065694
v 0.078752 0.468276 -0.027640
vt 0.8382 0.5512
vt 0.8489 0.5524
vt 0.8400 0.5860
vt 0.8416 0.5269
vt 0.8391 0.5197
vt 0.8453 0.5197
vt 0.8318 0.5270
vt 0.8519 0.5263
vt 0.8231 0.5563
vt 0.8315 0.5970
vt 0.8218 0.6018
vt 0.7691 0.5260
vt 0.7735 0.5174
vt 0.7801 0.5306
vt 0.7885 0.6144
vt 0.7848 0.5935
vt 0.7933 0.6047
vt 0.8218 0.5158
vt 0.7837 0.5103
vt 0.7985 0.5103
vt 0.7923 0.5230
vt 0.8340 0.6142
vt 0.8352 0.6081
vt 0.8404 0.6123
vt 0.8448 0.6011
vt 0.7940 0.6178
vt 0.8029 0.6014
vt 0.7787 0.6067
vt 0.7863 0.5242
vt 0.8078 0.5219
vt 0.7990 0.5321
vt 0.8054 0.5133
vt 0.8345 0.5111
vt 0.8483 0.5103
vt 0.8579 0.5147
vt 0.7743 0.5575
vt 0.7606 0.5559
vt 0.7843 0.5589
vt 0.7963 0.5653
vt 0.7895 0.5321
vt 0.8050 0.5549
vt 0.8194 0.5609
vt 0.8566 0.5499
vt 0.8293 0.5147
vt 0.8627 0.5217
vt 0.3154 0.7670
vt 0.3148 0.8155
vt 0.3030 0.8155
vt 0.3025 0.7670
vt 0.2896 0.7673
vt 0.2911 0.8157
vt 0.2792 0.8162
vt 0.2767 0.7678
vt 0.3283 0.7673
vt 0.3267 0.8157
vt 0.3411 0.7678
vt 0.3386 0.8162
vn -0.9759 0.2028 0.0800
vn -0.7574 -0.6384 -0.1368
vn -0.8700 -0.0466 -0.4909
vn -0.7828 -0.4003 -0.4764
vn -0.9950 -0.0497 0.0862
vn -0.8879 -0.4334 0.1543
vn 0.0188 0.3395 -0.9404
vn 0.1585 -0.6817 0.7142
vn 0.4925 0.5055 0.7085
vn -0.9829 0.0406 0.1795
vn -0.0844 -0.1051 -0.9909
vn 0.0466 -0.9974 -0.0544
vn -0.2471 0.9146 0.3200
vn -0.8255 0.5277 0.2003
vn -0.4621 0.7656 0.4475
vn 0.0156 0.5080 -0.8612
vn 0.1892 0.6340 -0.7499
vn 0.7589 0.4880 -0.4312
vn -0.0386 0.4133 0.9098
vn 0.5248 0.6311 0.5712
vn 0.0567 -0.9387 0.3401
vn 0.0993 -0.9921 0.0761
vn 0.4449 -0.6355 -0.6310
vn 0.6147 -0.6985 -0.3663
vn -0.3182 -0.7403 -0.5922
vn -0.3305 -0.9376 -0.1080
vn -0.4584 -0.8378 0.2965
vn 0.2109 -0.0741 0.9747
vn -0.1886 0.0876 0.9781
vn 0.5081 0.2428 0.8264
vn 0.9999 0.0149 0.0035
vn 0.9789 0.0708 0.1917
vn 0.7710 0.2784 -0.5727
vn 0.8386 0.3448 -0.4216
vn 0.1989 0.0538 -0.9785
vn -0.7284 0.1271 -0.6732
vn -0.7447 0.2920 0.6001
vn -0.8243 0.3161 0.4697
vn -0.8486 0.4360 -0.2998
vn 0.2095 -0.8173 0.5368
vn 0.2986 -0.7156 -0.6315
vn -0.5253 -0.7627 -0.3773
vn -0.3456 -0.9339 -0.0920
vn -0.3596 -0.8237 0.4385
vn 0.5418 0.0542 0.8387
vn -0.4519 -0.5562 0.6974
vn -0.5048 -0.0956 0.8579
vn -0.2046 0.2859 0.9362
vn -0.0966 0.3241 0.9411
vn 0.7657 -0.6064 -0.2145
vn 0.8406 0.1425 -0.5225
vn 0.6627 -0.6415 0.3864
vn 0.8473 -0.0826 0.5247
vn 0.6711 -0.7347 0.0993
vn 0.7094 0.3130 0.6315
vn 0.9441 0.2295 0.2366
vn -0.0762 -0.2129 -0.9741
vn 0.5218 -0.1369 -0.8420
vn 0.2321 0.2416 -0.9422
vn -0.8091 0.0580 0.5848
vn -0.7293 0.2144 -0.6497
vn -0.8592 0.2943 -0.4184
vn -0.0047 0.0002 1.0000
vn -0.5856 0.0068 -0.8105
vn 0.9499 0.0048 0.3125
vn -0.9486 0.0091 0.3165
vn 0.5855 0.0024 -0.8107
s off
f 1/1/1 21/2/1 32/3/1
f 28/4/2 15/5/2 19/6/2
f 1/1/3 12/7/3 28/4/3
f 28/4/4 12/7/4 15/5/4
f 1/1/5 25/8/5 21/2/5
f 28/4/6 19/6/6 25/8/6
f 3/9/7 2/10/7 18/11/7
f 26/12/8 23/13/8 8/14/8
f 17/15/9 5/16/9 24/17/9
f 1/1/10 28/4/10 25/8/10
f 3/9/11 29/18/11 12/7/11
f 31/19/12 33/20/12 13/21/12
f 20/22/13 22/23/13 17/24/13
f 22/23/14 32/3/14 11/25/14
f 17/24/15 22/23/15 11/25/15
f 22/23/16 18/11/16 2/10/16
f 20/22/17 18/11/17 22/23/17
f 20/26/18 24/17/18 18/27/18
f 17/15/19 11/28/19 5/16/19
f 20/26/20 17/15/20 24/17/20
f 23/13/21 31/19/21 6/29/21
f 31/19/22 13/21/22 6/29/22
f 13/21/23 29/30/23 27/31/23
f 33/20/24 30/32/24 29/30/24
f 33/33/25 15/5/25 12/7/25
f 31/34/26 19/6/26 15/5/26
f 31/34/27 23/35/27 25/8/27
f 9/36/28 26/12/28 8/14/28
f 9/36/29 10/37/29 26/12/29
f 9/36/30 7/38/30 5/16/30
f 16/39/31 14/40/31 27/31/31
f 16/39/32 7/38/32 14/40/32
f 16/39/33 4/41/33 18/27/33
f 24/17/34 16/39/34 18/27/34
f 3/42/35 4/41/35 29/30/35
f 1/1/36 3/9/36 12/7/36
f 21/2/37 10/43/37 11/25/37
f 32/3/38 21/2/38 11/25/38
f 22/23/39 2/10/39 32/3/39
f 6/29/40 8/14/40 23/13/40
f 33/20/41 29/30/41 13/21/41
f 33/33/42 12/7/42 30/44/42
f 31/34/43 15/5/43 33/33/43
f 31/34/44 25/8/44 19/6/44
f 9/36/45 8/14/45 7/38/45
f 26/45/46 25/8/46 23/35/46
f 10/43/47 25/8/47 26/45/47
f 9/36/48 11/28/48 10/37/48
f 11/28/49 9/36/49 5/16/49
f 14/40/50 13/21/50 27/31/50
f 16/39/51 27/31/51 4/41/51
f 14/40/52 8/14/52 6/29/52
f 14/40/53 7/38/53 8/14/53
f 14/40/54 6/29/54 13/21/54
f 7/38/55 24/17/55 5/16/55
f 16/39/56 24/17/56 7/38/56
f 29/18/57 30/44/57 12/7/57
f 29/30/58 4/41/58 27/31/58
f 3/42/59 18/27/59 4/41/59
f 21/2/60 25/8/60 10/43/60
f 1/1/61 2/10/61 3/9/61
f 1/1/62 32/3/62 2/10/62
f 37/46/63 42/47/63 41/48/63 36/49/63
f 35/50/64 40/51/64 39/52/64 34/53/64
f 38/54/65 43/55/65 42/47/65 37/46/65
f 36/49/66 41/48/66 40/51/66 35/50/66
f 34/56/67 39/57/67 43/55/67 38/54/67
