# Blender v2.78 (sub 0) OBJ File: 'Low_Poly_Trees_Pack.blend'
# www.blender.org
g Thuja_Tree_m_05
v 0.000000 0.000000 -0.127028
v -0.120810 0.000000 -0.039254
v -0.074665 0.000000 0.102768
v 0.074665 0.000000 0.102768
v 0.120810 0.000000 -0.039254
v 0.000000 0.924006 -0.109928
v -0.104548 0.924006 -0.033970
v -0.064614 0.924006 0.088934
v 0.064614 0.924006 0.088934
v 0.104548 0.924006 -0.033970
v -0.000022 4.788529 0.000000
v 0.434143 2.888705 0.315435
v -0.165855 2.888706 0.510390
v -0.536678 2.888690 0.000000
v -0.165855 2.888706 -0.510390
v 0.434143 2.888705 -0.315435
v 0.165811 1.150877 0.510390
v -0.434186 1.150878 0.315435
v -0.434186 1.150878 -0.315435
v 0.165811 1.150877 -0.510390
v 0.536634 1.150881 0.000000
v -0.000022 0.651445 0.000000
v -0.097495 4.588466 0.299997
v 0.255172 4.588464 0.185407
v 0.157700 3.188836 0.485407
v 0.510367 3.188828 0.000000
v 0.255172 4.588464 -0.185407
v -0.315460 4.588454 0.000000
v -0.412935 3.188830 0.299998
v -0.097495 4.588466 -0.299997
v -0.412935 3.188830 -0.299998
v 0.157700 3.188836 -0.485407
v 0.570613 1.626369 0.185408
v 0.570613 1.626369 -0.185408
v -0.000022 1.626369 0.600000
v 0.352650 1.626369 0.485410
v -0.570656 1.626369 0.185408
v -0.352693 1.626369 0.485410
v -0.352693 1.626369 -0.485410
v -0.570656 1.626369 -0.185408
v 0.352650 1.626369 -0.485410
v -0.000022 1.626369 -0.600000
v 0.412892 1.077491 0.299998
v -0.157743 1.077490 0.485407
v -0.510410 1.077492 0.000000
v -0.157743 1.077490 -0.485407
v 0.412892 1.077491 -0.299998
v 0.097452 0.778215 0.299997
v 0.315416 0.778217 0.000000
v -0.255215 0.778216 0.185407
v -0.255215 0.778216 -0.185407
v 0.097452 0.778215 -0.299997
vt 0.3154 0.7670
vt 0.3144 0.8581
vt 0.3034 0.8581
vt 0.3025 0.7670
vt 0.2896 0.7673
vt 0.2924 0.8583
vt 0.2814 0.8588
vt 0.2767 0.7678
vt 0.3283 0.7673
vt 0.3254 0.8583
vt 0.3411 0.7678
vt 0.3364 0.8588
vt 0.7170 0.6145
vt 0.7088 0.6093
vt 0.7165 0.6061
vt 0.7143 0.5703
vt 0.7218 0.5769
vt 0.6553 0.6207
vt 0.6598 0.6128
vt 0.6663 0.6188
vt 0.6528 0.6119
vt 0.6452 0.6162
vt 0.7175 0.5423
vt 0.6991 0.5722
vt 0.7003 0.5417
vt 0.7074 0.5778
vt 0.6684 0.5788
vt 0.6770 0.5523
vt 0.6740 0.5872
vt 0.6532 0.5762
vt 0.6619 0.5492
vt 0.6599 0.5840
vt 0.7293 0.5705
vt 0.7347 0.5413
vt 0.7357 0.5779
vt 0.7091 0.5421
vt 0.6834 0.5829
vt 0.6853 0.5525
vt 0.6950 0.5519
vt 0.6695 0.5512
vt 0.6538 0.5465
vt 0.7259 0.5421
vt 0.7063 0.5302
vt 0.7110 0.5201
vt 0.7142 0.5301
vt 0.6804 0.5428
vt 0.6788 0.5349
vt 0.6866 0.5394
vt 0.6684 0.5414
vt 0.6717 0.5341
vt 0.6745 0.5415
vt 0.6556 0.5330
vt 0.6668 0.5259
vt 0.6633 0.5369
vt 0.7212 0.5320
vt 0.7206 0.5218
vt 0.7279 0.5293
vt 0.6768 0.5191
vt 0.6758 0.5284
vt 0.7299 0.5191
vt 0.7357 0.5285
vt 0.6852 0.5278
vt 0.6949 0.5368
vt 0.6449 0.5434
vt 0.6449 0.5828
vt 0.7245 0.6084
vn 0.0000 0.0150 0.9999
vn -0.5877 0.0150 -0.8089
vn 0.9510 0.0150 0.3090
vn -0.9509 0.0150 0.3090
vn 0.5877 0.0150 -0.8089
vn 0.1907 0.7870 0.5868
vn 0.9310 0.1243 0.3432
vn -0.4992 0.7870 0.3626
vn -0.4992 0.7870 -0.3626
vn 0.1907 0.7870 -0.5868
vn 0.9517 0.0721 0.2986
vn 0.0101 0.0721 0.9973
vn -0.9454 0.0721 0.3178
vn -0.5944 0.0721 -0.8009
vn 0.5781 0.0721 -0.8128
vn 0.8087 0.0269 0.5876
vn -0.3089 0.0269 0.9507
vn -0.9996 0.0269 0.0000
vn -0.3089 0.0269 -0.9507
vn 0.8087 0.0269 -0.5876
vn 0.4720 -0.4975 0.7278
vn -0.5464 -0.4975 0.6738
vn -0.8097 -0.4975 -0.3114
vn 0.0460 -0.4975 -0.8663
vn 0.8381 -0.4975 -0.2240
vn 0.3599 -0.8956 -0.2615
vn 0.6156 -0.6488 -0.4473
vn 0.4720 -0.4975 -0.7278
vn -0.1375 -0.8956 -0.4231
vn -0.2351 -0.6488 -0.7237
vn -0.5464 -0.4975 -0.6738
vn -0.4449 -0.8956 0.0000
vn -0.7609 -0.6488 0.0000
vn -0.8097 -0.4975 0.3114
vn -0.1375 -0.8956 0.4231
vn -0.2351 -0.6488 0.7237
vn 0.0460 -0.4975 0.8663
vn 0.3599 -0.8956 0.2615
vn 0.6156 -0.6488 0.4473
vn 0.8381 -0.4975 0.2240
vn 0.9225 -0.1956 -0.3327
vn 0.8042 -0.1091 -0.5843
vn 0.6015 -0.1956 -0.7746
vn -0.0313 -0.1956 -0.9802
vn -0.3072 -0.1091 -0.9454
vn -0.5508 -0.1956 -0.8114
vn -0.9419 -0.1956 -0.2731
vn -0.9940 -0.1091 0.0000
vn -0.9419 -0.1956 0.2731
vn -0.5508 -0.1956 0.8114
vn -0.3072 -0.1091 0.9454
vn -0.0313 -0.1956 0.9802
vn 0.6015 -0.1956 0.7746
vn 0.8042 -0.1091 0.5843
vn 0.9225 -0.1956 0.3327
vn 0.3082 -0.0713 -0.9486
vn 0.3088 0.0385 -0.9504
vn 0.0101 0.0721 -0.9973
vn -0.8070 -0.0713 -0.5863
vn -0.8084 0.0385 -0.5873
vn -0.9454 0.0721 -0.3178
vn -0.8070 -0.0713 0.5863
vn -0.8084 0.0385 0.5873
vn -0.5944 0.0721 0.8009
vn 0.3082 -0.0713 0.9486
vn 0.3088 0.0385 0.9504
vn 0.5781 0.0721 0.8128
vn 0.9975 -0.0713 0.0000
vn 0.9993 0.0385 0.0000
vn 0.9517 0.0721 -0.2986
vn 0.6141 0.1243 -0.7794
vn 0.3040 0.1794 -0.9356
vn -0.0387 0.1243 -0.9915
vn -0.5514 0.1243 -0.8249
vn -0.7959 0.1794 -0.5783
vn -0.9549 0.1243 -0.2695
vn -0.9549 0.1243 0.2695
vn -0.7959 0.1794 0.5783
vn -0.5514 0.1243 0.8249
vn 0.9310 0.1243 -0.3432
vn 0.9838 0.1794 0.0000
vn 0.6170 0.7870 0.0000
vn -0.0387 0.1243 0.9915
vn 0.3040 0.1794 0.9356
vn 0.6141 0.1243 0.7794
s off
f 4/1/1 9/2/1 8/3/1 3/4/1
f 2/5/2 7/6/2 6/7/2 1/8/2
f 5/9/3 10/10/3 9/2/3 4/1/3
f 3/4/4 8/3/4 7/6/4 2/5/4
f 1/11/5 6/12/5 10/10/5 5/9/5
f 11/13/6 23/14/6 24/15/6
f 12/16/7 26/17/7 24/15/7
f 11/18/8 28/19/8 23/20/8
f 11/18/9 30/21/9 28/19/9
f 11/18/10 27/22/10 30/21/10
f 12/16/11 33/23/11 26/17/11
f 13/24/12 35/25/12 25/26/12
f 14/27/13 37/28/13 29/29/13
f 15/30/14 39/31/14 31/32/14
f 16/33/15 41/34/15 32/35/15
f 12/16/16 36/36/16 33/23/16
f 13/37/17 38/38/17 35/39/17
f 14/27/18 40/40/18 37/28/18
f 15/30/19 42/41/19 39/31/19
f 16/33/20 34/42/20 41/34/20
f 17/43/21 48/44/21 43/45/21
f 18/46/22 50/47/22 44/48/22
f 19/49/23 51/50/23 45/51/23
f 20/52/24 52/53/24 46/54/24
f 21/55/25 49/56/25 47/57/25
f 49/58/26 22/59/26 52/53/26
f 49/56/27 52/60/27 47/57/27
f 47/57/28 52/60/28 20/61/28
f 52/53/29 22/59/29 51/50/29
f 52/53/30 51/50/30 46/54/30
f 46/54/31 51/50/31 19/49/31
f 51/50/32 22/59/32 50/47/32
f 51/50/33 50/47/33 45/51/33
f 45/51/34 50/47/34 18/46/34
f 50/47/35 22/59/35 48/62/35
f 50/47/36 48/62/36 44/48/36
f 44/48/37 48/62/37 17/63/37
f 48/62/38 22/59/38 49/58/38
f 48/44/39 49/56/39 43/45/39
f 43/45/40 49/56/40 21/55/40
f 34/42/41 21/55/41 47/57/41
f 34/42/42 47/57/42 41/34/42
f 41/34/43 47/57/43 20/61/43
f 42/41/44 20/52/44 46/54/44
f 42/41/45 46/54/45 39/31/45
f 39/31/46 46/54/46 19/49/46
f 40/40/47 19/49/47 45/51/47
f 40/40/48 45/51/48 37/28/48
f 37/28/49 45/51/49 18/46/49
f 38/38/50 18/46/50 44/48/50
f 38/38/51 44/48/51 35/39/51
f 35/39/52 44/48/52 17/63/52
f 36/36/53 17/43/53 43/45/53
f 36/36/54 43/45/54 33/23/54
f 33/23/55 43/45/55 21/55/55
f 41/64/56 20/52/56 42/41/56
f 41/64/57 42/41/57 32/65/57
f 32/65/58 42/41/58 15/30/58
f 39/31/59 19/49/59 40/40/59
f 39/31/60 40/40/60 31/32/60
f 31/32/61 40/40/61 14/27/61
f 37/28/62 18/46/62 38/38/62
f 37/28/63 38/38/63 29/29/63
f 29/29/64 38/38/64 13/37/64
f 35/25/65 17/43/65 36/36/65
f 35/25/66 36/36/66 25/26/66
f 25/26/67 36/36/67 12/16/67
f 33/23/68 21/55/68 34/42/68
f 33/23/69 34/42/69 26/17/69
f 26/17/70 34/42/70 16/33/70
f 27/66/71 16/33/71 32/35/71
f 27/22/72 32/65/72 30/21/72
f 30/21/73 32/65/73 15/30/73
f 30/21/74 15/30/74 31/32/74
f 30/21/75 31/32/75 28/19/75
f 28/19/76 31/32/76 14/27/76
f 28/19/77 14/27/77 29/29/77
f 28/19/78 29/29/78 23/20/78
f 23/20/79 29/29/79 13/37/79
f 26/17/80 16/33/80 27/66/80
f 26/17/81 27/66/81 24/15/81
f 24/15/82 27/66/82 11/13/82
f 23/14/83 13/24/83 25/26/83
f 23/14/84 25/26/84 24/15/84
f 24/15/85 25/26/85 12/16/85
