# Blender v2.78 (sub 0) OBJ File: 'Low_Poly_Trees_Pack.blend'
# www.blender.org
g Thuja_BushTree_s_05
v 0.000000 1.687585 0.000000
v 0.551567 1.210737 0.400732
v -0.210675 1.210737 0.648404
v -0.681774 1.210736 0.000000
v -0.210675 1.210737 -0.648404
v 0.551567 1.210737 -0.400732
v 0.266196 0.403246 0.819280
v -0.696922 0.403246 0.506338
v -0.696922 0.403246 -0.506338
v 0.266196 0.403246 -0.819280
v 0.861443 0.403251 0.000000
v 0.000000 -0.163206 0.000000
v -0.098721 1.566365 0.303837
v 0.258460 1.566365 0.187780
v 0.204591 1.265749 0.629654
v 0.662061 1.265749 0.000000
v 0.258460 1.566365 -0.187780
v -0.319476 1.566358 0.000000
v -0.535618 1.265748 0.389148
v -0.098721 1.566365 -0.303837
v -0.535618 1.265748 -0.389148
v 0.204591 1.265749 -0.629654
v 0.845973 0.897003 0.274869
v 0.845973 0.897003 -0.274869
v 0.000001 0.897002 0.889506
v 0.522839 0.897002 0.719625
v -0.845971 0.897002 0.274869
v -0.522838 0.897002 0.719625
v -0.522838 0.897002 -0.719625
v -0.845971 0.897002 -0.274869
v 0.522839 0.897002 -0.719625
v 0.000001 0.897002 -0.889506
v 0.662812 0.294490 0.481558
v -0.253174 0.294488 0.779178
v -0.819278 0.294491 0.000000
v -0.253174 0.294488 -0.779178
v 0.662812 0.294490 -0.481558
v 0.142121 -0.135015 0.437409
v 0.459922 -0.135011 0.000000
v -0.372083 -0.135014 0.270331
v -0.372083 -0.135014 -0.270331
v 0.142121 -0.135015 -0.437409
vt 0.7170 0.6145
vt 0.7088 0.6093
vt 0.7165 0.6061
vt 0.7143 0.5703
vt 0.7218 0.5769
vt 0.6553 0.6207
vt 0.6598 0.6128
vt 0.6663 0.6188
vt 0.6528 0.6119
vt 0.6452 0.6162
vt 0.7175 0.5423
vt 0.6991 0.5722
vt 0.7003 0.5417
vt 0.7074 0.5778
vt 0.6684 0.5788
vt 0.6770 0.5523
vt 0.6740 0.5872
vt 0.6532 0.5762
vt 0.6619 0.5492
vt 0.6599 0.5840
vt 0.7293 0.5705
vt 0.7347 0.5413
vt 0.7357 0.5779
vt 0.7091 0.5421
vt 0.6834 0.5829
vt 0.6853 0.5525
vt 0.6950 0.5519
vt 0.6695 0.5512
vt 0.6538 0.5465
vt 0.7259 0.5421
vt 0.7063 0.5302
vt 0.7110 0.5201
vt 0.7142 0.5301
vt 0.6804 0.5428
vt 0.6788 0.5349
vt 0.6866 0.5394
vt 0.6684 0.5414
vt 0.6717 0.5341
vt 0.6745 0.5415
vt 0.6556 0.5330
vt 0.6668 0.5259
vt 0.6633 0.5369
vt 0.7212 0.5320
vt 0.7206 0.5218
vt 0.7279 0.5293
vt 0.6768 0.5191
vt 0.6758 0.5284
vt 0.7299 0.5191
vt 0.7357 0.5285
vt 0.6852 0.5278
vt 0.6949 0.5368
vt 0.6449 0.5434
vt 0.6449 0.5828
vt 0.7245 0.6084
vn 0.1312 0.9054 0.4038
vn 0.6535 0.7044 0.2769
vn -0.3435 0.9054 0.2496
vn -0.3435 0.9054 -0.2496
vn 0.1312 0.9054 -0.4038
vn 0.7532 0.5910 0.2888
vn -0.0419 0.5910 0.8056
vn -0.7791 0.5910 0.2091
vn -0.4396 0.5910 -0.6764
vn 0.5074 0.5910 -0.6271
vn 0.7168 0.4637 0.5208
vn -0.2738 0.4637 0.8426
vn -0.8860 0.4637 0.0000
vn -0.2738 0.4637 -0.8426
vn 0.7168 0.4637 -0.5208
vn 0.4256 -0.5868 0.6888
vn -0.5236 -0.5868 0.6177
vn -0.7492 -0.5868 -0.3071
vn 0.0605 -0.5868 -0.8075
vn 0.7866 -0.5868 -0.1919
vn 0.0611 -0.9971 -0.0444
vn 0.5604 -0.7212 -0.4072
vn 0.4256 -0.5868 -0.6888
vn -0.0233 -0.9971 -0.0719
vn -0.2141 -0.7212 -0.6588
vn -0.5236 -0.5868 -0.6177
vn -0.0756 -0.9971 0.0000
vn -0.6927 -0.7212 0.0000
vn -0.7492 -0.5868 0.3071
vn -0.0233 -0.9971 0.0719
vn -0.2141 -0.7212 0.6588
vn 0.0605 -0.5868 0.8075
vn 0.0611 -0.9971 0.0444
vn 0.5604 -0.7212 0.4072
vn 0.7866 -0.5868 0.1919
vn 0.9245 -0.1629 -0.3446
vn 0.8082 -0.0443 -0.5872
vn 0.6134 -0.1629 -0.7728
vn -0.0420 -0.1629 -0.9858
vn -0.3087 -0.0443 -0.9501
vn -0.5454 -0.1629 -0.8222
vn -0.9505 -0.1629 -0.2647
vn -0.9990 -0.0443 0.0000
vn -0.9505 -0.1629 0.2647
vn -0.5454 -0.1629 0.8222
vn -0.3087 -0.0443 0.9501
vn -0.0420 -0.1629 0.9858
vn 0.6134 -0.1629 0.7728
vn 0.8082 -0.0443 0.5872
vn 0.9245 -0.1629 0.3446
vn 0.3089 0.0313 -0.9506
vn 0.2765 0.4463 -0.8511
vn -0.0419 0.5910 -0.8056
vn -0.8086 0.0313 -0.5875
vn -0.7240 0.4463 -0.5260
vn -0.7791 0.5910 -0.2091
vn -0.8086 0.0313 0.5875
vn -0.7240 0.4463 0.5260
vn -0.4396 0.5910 0.6764
vn 0.3089 0.0313 0.9506
vn 0.2765 0.4463 0.8511
vn 0.5074 0.5910 0.6271
vn 0.9995 0.0313 0.0000
vn 0.8949 0.4463 0.0000
vn 0.7532 0.5910 -0.2888
vn 0.4653 0.7044 -0.5360
vn 0.1846 0.8020 -0.5681
vn -0.0614 0.7044 -0.7071
vn -0.3660 0.7044 -0.6081
vn -0.4833 0.8020 -0.3511
vn -0.6915 0.7044 -0.1601
vn -0.6915 0.7044 0.1601
vn -0.4833 0.8020 0.3511
vn -0.3660 0.7044 0.6081
vn 0.6535 0.7044 -0.2769
vn 0.5973 0.8020 0.0000
vn 0.4246 0.9054 0.0000
vn -0.0614 0.7044 0.7071
vn 0.1846 0.8020 0.5681
vn 0.4653 0.7044 0.5360
s off
f 1/1/1 13/2/1 14/3/1
f 2/4/2 16/5/2 14/3/2
f 1/6/3 18/7/3 13/8/3
f 1/6/4 20/9/4 18/7/4
f 1/6/5 17/10/5 20/9/5
f 2/4/6 23/11/6 16/5/6
f 3/12/7 25/13/7 15/14/7
f 4/15/8 27/16/8 19/17/8
f 5/18/9 29/19/9 21/20/9
f 6/21/10 31/22/10 22/23/10
f 2/4/11 26/24/11 23/11/11
f 3/25/12 28/26/12 25/27/12
f 4/15/13 30/28/13 27/16/13
f 5/18/14 32/29/14 29/19/14
f 6/21/15 24/30/15 31/22/15
f 7/31/16 38/32/16 33/33/16
f 8/34/17 40/35/17 34/36/17
f 9/37/18 41/38/18 35/39/18
f 10/40/19 42/41/19 36/42/19
f 11/43/20 39/44/20 37/45/20
f 39/46/21 12/47/21 42/41/21
f 39/44/22 42/48/22 37/45/22
f 37/45/23 42/48/23 10/49/23
f 42/41/24 12/47/24 41/38/24
f 42/41/25 41/38/25 36/42/25
f 36/42/26 41/38/26 9/37/26
f 41/38/27 12/47/27 40/35/27
f 41/38/28 40/35/28 35/39/28
f 35/39/29 40/35/29 8/34/29
f 40/35/30 12/47/30 38/50/30
f 40/35/31 38/50/31 34/36/31
f 34/36/32 38/50/32 7/51/32
f 38/50/33 12/47/33 39/46/33
f 38/32/34 39/44/34 33/33/34
f 33/33/35 39/44/35 11/43/35
f 24/30/36 11/43/36 37/45/36
f 24/30/37 37/45/37 31/22/37
f 31/22/38 37/45/38 10/49/38
f 32/29/39 10/40/39 36/42/39
f 32/29/40 36/42/40 29/19/40
f 29/19/41 36/42/41 9/37/41
f 30/28/42 9/37/42 35/39/42
f 30/28/43 35/39/43 27/16/43
f 27/16/44 35/39/44 8/34/44
f 28/26/45 8/34/45 34/36/45
f 28/26/46 34/36/46 25/27/46
f 25/27/47 34/36/47 7/51/47
f 26/24/48 7/31/48 33/33/48
f 26/24/49 33/33/49 23/11/49
f 23/11/50 33/33/50 11/43/50
f 31/52/51 10/40/51 32/29/51
f 31/52/52 32/29/52 22/53/52
f 22/53/53 32/29/53 5/18/53
f 29/19/54 9/37/54 30/28/54
f 29/19/55 30/28/55 21/20/55
f 21/20/56 30/28/56 4/15/56
f 27/16/57 8/34/57 28/26/57
f 27/16/58 28/26/58 19/17/58
f 19/17/59 28/26/59 3/25/59
f 25/13/60 7/31/60 26/24/60
f 25/13/61 26/24/61 15/14/61
f 15/14/62 26/24/62 2/4/62
f 23/11/63 11/43/63 24/30/63
f 23/11/64 24/30/64 16/5/64
f 16/5/65 24/30/65 6/21/65
f 17/54/66 6/21/66 22/23/66
f 17/10/67 22/53/67 20/9/67
f 20/9/68 22/53/68 5/18/68
f 20/9/69 5/18/69 21/20/69
f 20/9/70 21/20/70 18/7/70
f 18/7/71 21/20/71 4/15/71
f 18/7/72 4/15/72 19/17/72
f 18/7/73 19/17/73 13/8/73
f 13/8/74 19/17/74 3/25/74
f 16/5/75 6/21/75 17/54/75
f 16/5/76 17/54/76 14/3/76
f 14/3/77 17/54/77 1/1/77
f 13/2/78 3/12/78 15/14/78
f 13/2/79 15/14/79 14/3/79
f 14/3/80 15/14/80 2/4/80
