# Blender v2.78 (sub 0) OBJ File: 'Low_Poly_Trees_Pack.blend'
# www.blender.org
g Thuja_BushTree_s_04
v 0.402096 0.822921 0.692191
v 0.558458 1.359093 0.458675
v 0.121159 1.758630 0.402608
v -0.211630 1.359545 0.687947
v -0.322062 1.648154 0.392223
v -0.702386 1.025761 0.446202
v -0.282872 0.288538 0.622353
v 0.150201 0.218306 0.539023
v -0.571552 1.551811 0.074058
v -0.180180 1.993479 -0.013309
v -0.573698 1.191243 -0.446799
v -0.771661 0.742329 -0.176630
v -0.240237 -0.037159 -0.454482
v -0.502576 0.021341 0.012968
v -0.328672 0.952100 -0.736726
v 0.039736 1.411729 -0.675576
v 0.175277 2.042011 -0.190513
v 0.678977 1.086489 -0.455498
v 0.148508 0.192397 -0.690802
v 0.363517 1.882281 0.027377
v 0.668182 1.461486 0.008997
v 0.659055 0.301092 0.164908
v 0.405349 0.019181 -0.133780
v 0.030425 -0.077275 0.158409
v 0.142679 2.074802 0.063161
v -0.076168 1.872402 -0.316963
v -0.006196 2.060160 0.171640
vt 0.8024 0.5354
vt 0.8041 0.5498
vt 0.7906 0.5916
vt 0.7912 0.5481
vt 0.7838 0.5781
vt 0.7846 0.5370
vt 0.7947 0.5236
vt 0.8011 0.5226
vt 0.7764 0.5673
vt 0.7800 0.6059
vt 0.8515 0.5726
vt 0.8395 0.6140
vt 0.8457 0.5509
vt 0.8499 0.5372
vt 0.8358 0.5232
vt 0.8423 0.5168
vt 0.7764 0.5292
vt 0.7883 0.5124
vt 0.8379 0.5426
vt 0.8337 0.5606
vt 0.8302 0.6102
vt 0.8220 0.5456
vt 0.8309 0.5289
vt 0.8235 0.6065
vt 0.8102 0.5579
vt 0.7960 0.6019
vt 0.8123 0.5238
vt 0.8164 0.5249
vt 0.8248 0.5225
vt 0.8282 0.5122
vt 0.8007 0.5122
vt 0.8289 0.6172
vt 0.8353 0.6010
vt 0.7853 0.6057
vt 0.7877 0.6097
vt 0.8164 0.5592
vn 0.1956 0.3431 0.9187
vn -0.6182 0.4346 0.6550
vn -0.1835 0.6684 0.7208
vn -0.4269 -0.0270 0.9039
vn 0.1341 -0.2955 0.9459
vn -0.7498 0.4962 0.4377
vn -0.6739 0.6620 0.3280
vn -0.7263 0.5666 -0.3892
vn -0.8159 -0.4114 -0.4064
vn -0.9295 -0.2856 0.2333
vn -0.4510 0.4630 -0.7630
vn 0.4899 0.4631 -0.7386
vn 0.3445 0.0424 -0.9378
vn -0.3692 -0.2853 -0.8845
vn -0.8272 -0.2213 -0.5165
vn 0.7998 0.5096 -0.3174
vn 0.7755 0.5478 0.3140
vn 0.8780 -0.0487 0.4761
vn 0.8504 -0.3392 -0.4022
vn 0.4802 -0.8039 0.3508
vn -0.2828 -0.8368 0.4689
vn 0.2744 -0.8751 -0.3987
vn 0.6558 0.7548 -0.0133
vn -0.3356 0.8298 -0.4458
vn -0.1581 0.5575 0.8150
vn 0.4002 0.6578 0.6381
vn 0.5906 0.5715 0.5698
vn 0.3134 0.3654 0.8765
vn -0.0570 -0.0573 0.9967
vn -0.9707 0.2404 -0.0014
vn -0.9353 0.2928 -0.1988
vn -0.6724 0.5790 -0.4612
vn -0.6399 -0.1690 -0.7497
vn -0.8176 -0.3574 0.4515
vn -0.4522 0.4743 -0.7554
vn -0.0150 0.6119 -0.7908
vn 0.1341 0.0243 -0.9907
vn 0.7255 0.5437 -0.4221
vn 0.5229 0.6497 0.5518
vn 0.9699 0.0249 0.2423
vn 0.5811 -0.4189 0.6977
vn 0.9996 -0.0043 0.0267
vn 0.8041 -0.3508 -0.4799
vn 0.4567 -0.7665 0.4515
vn -0.0095 -0.7883 0.6152
vn -0.1867 -0.9823 0.0182
vn 0.1504 -0.9800 -0.1306
vn -0.2075 0.9664 -0.1516
vn -0.2070 0.9662 -0.1536
vn -0.6397 0.6811 0.3562
s off
f 1/1/1 2/2/1 3/3/1
f 4/4/2 5/5/2 6/6/2
f 3/3/3 5/5/3 4/4/3
f 4/4/4 6/6/4 7/7/4
f 7/7/5 8/8/5 1/1/5
f 6/6/6 5/5/6 9/9/6
f 9/9/7 5/5/7 10/10/7
f 9/11/8 10/12/8 11/13/8
f 12/14/9 13/15/9 14/16/9
f 12/17/10 14/18/10 6/6/10
f 15/19/11 11/13/11 16/20/11
f 16/20/12 17/21/12 18/22/12
f 16/20/13 18/22/13 19/23/13
f 19/23/14 13/15/14 15/19/14
f 15/19/15 13/15/15 11/13/15
f 18/22/16 17/21/16 20/24/16
f 21/25/17 20/26/17 2/2/17
f 2/2/18 1/1/18 22/27/18
f 22/28/19 23/29/19 18/22/19
f 23/29/20 22/28/20 24/30/20
f 24/31/21 7/7/21 14/18/21
f 13/15/22 19/23/22 23/29/22
f 25/32/23 20/24/23 17/21/23
f 17/21/24 26/33/24 10/12/24
f 27/34/25 5/5/25 3/3/25
f 27/34/26 3/3/26 25/35/26
f 25/35/27 3/3/27 20/26/27
f 4/4/28 1/1/28 3/3/28
f 4/4/29 7/7/29 1/1/29
f 12/17/30 6/6/30 9/9/30
f 12/14/31 9/11/31 11/13/31
f 11/13/32 10/12/32 26/33/32
f 12/14/33 11/13/33 13/15/33
f 6/6/34 14/18/34 7/7/34
f 16/20/35 11/13/35 26/33/35
f 16/20/36 26/33/36 17/21/36
f 16/20/37 19/23/37 15/19/37
f 21/36/38 18/22/38 20/24/38
f 2/2/39 20/26/39 3/3/39
f 21/25/40 2/2/40 22/27/40
f 22/27/41 1/1/41 8/8/41
f 21/36/42 22/28/42 18/22/42
f 18/22/43 23/29/43 19/23/43
f 24/31/44 22/27/44 8/8/44
f 24/31/45 8/8/45 7/7/45
f 24/30/46 14/16/46 13/15/46
f 24/30/47 13/15/47 23/29/47
f 25/32/48 17/21/48 10/12/48
f 25/35/49 10/10/49 27/34/49
f 27/34/50 10/10/50 5/5/50
