# Blender v2.78 (sub 0) OBJ File: 'Low_Poly_Trees_Pack.blend'
# www.blender.org
g Pine_Firewood_03
v -0.124943 -0.000003 -0.067304
v -0.120979 0.077611 -0.092215
v -0.271138 0.125584 0.035897
v -0.262964 0.077619 0.096896
v -0.266313 0.000002 0.071906
v 0.281157 -0.000003 -0.040641
v 0.281157 0.077611 -0.065865
v 0.281157 0.125584 0.000155
v 0.281157 0.077619 0.066182
v 0.281157 0.000002 0.040968
v -0.271499 -0.000001 0.033202
v 0.001157 0.000002 0.040968
v 0.001157 -0.000003 -0.040641
v 0.001157 0.125584 0.000155
v 0.001157 0.077619 0.066182
v 0.001157 0.077611 -0.065865
v 0.001157 -0.000001 -0.000617
v 0.281157 -0.000000 0.001329
v -0.130995 0.125584 -0.029267
v -0.130568 -0.000001 -0.031952
vt 0.8353 0.8937
vt 0.8385 0.9313
vt 0.8338 0.9308
vt 0.8021 0.8936
vt 0.8151 0.9318
vt 0.8029 0.9330
vt 0.8244 0.8936
vt 0.8246 0.9308
vt 0.7907 0.8936
vt 0.7906 0.9330
vt 0.8134 0.8936
vt 0.8462 0.8044
vt 0.8382 0.8142
vt 0.8382 0.7980
vt 0.7883 0.7958
vt 0.7838 0.7780
vt 0.8024 0.7912
vt 0.7855 0.8142
vt 0.7774 0.8041
vt 0.7855 0.7981
vt 0.8208 0.9445
vt 0.8259 0.9411
vt 0.7907 0.9754
vt 0.8036 0.9749
vt 0.8313 0.9422
vt 0.8158 0.9747
vt 0.8326 0.9444
vt 0.8208 0.8142
vt 0.7844 0.9758
vt 0.7851 0.8935
vt 0.7844 0.9327
vt 0.8208 0.7980
vt 0.8024 0.7764
vt 0.7883 0.7718
vt 0.8412 0.8937
vt 0.8428 0.8143
vt 0.7796 0.7838
vt 0.7805 0.8141
vn 0.0000 -1.0000 0.0001
vn 0.0000 0.8091 0.5877
vn 0.0000 -0.3091 -0.9510
vn 0.0000 -0.3090 0.9511
vn 0.0000 0.8090 -0.5878
vn -0.9876 -0.0000 -0.1571
vn 1.0000 -0.0000 0.0000
vn -0.9911 -0.0000 0.1328
vn 0.1269 0.7986 -0.5884
vn 0.1099 -0.3089 0.9447
vn 0.2006 -0.3087 -0.9298
vn 0.0710 0.7887 0.6107
vn -0.2314 -0.0216 0.9726
vn -0.1231 0.0061 -0.9924
vn 0.1298 0.8021 -0.5829
vn 0.1093 -0.3071 0.9454
vn 0.1971 -0.3030 -0.9324
vn 0.0769 0.8067 0.5860
vn -0.2173 -0.0060 0.9761
vn -0.1301 0.0216 -0.9913
s off
f 6/1/1 17/2/1 13/3/1
f 9/4/2 14/5/2 15/6/2
f 7/7/3 13/3/3 16/8/3
f 10/9/4 15/6/4 12/10/4
f 8/11/5 16/8/5 14/5/5
f 2/12/6 20/13/6 19/14/6
f 9/15/7 18/16/7 8/17/7
f 11/18/8 4/19/8 3/20/8
f 19/21/9 16/8/9 2/22/9
f 5/23/10 15/6/10 4/24/10
f 16/8/11 1/25/11 2/22/11
f 15/6/12 3/26/12 4/24/12
f 13/3/1 20/27/1 1/25/1
f 17/28/13 19/14/13 20/13/13
f 11/29/1 12/10/1 5/23/1
f 18/30/1 12/10/1 17/31/1
f 11/18/14 14/32/14 17/28/14
f 7/33/7 18/16/7 6/34/7
f 6/1/1 18/35/1 17/2/1
f 9/4/2 8/11/2 14/5/2
f 7/7/3 6/1/3 13/3/3
f 10/9/4 9/4/4 15/6/4
f 8/11/5 7/7/5 16/8/5
f 2/12/6 1/36/6 20/13/6
f 9/15/7 10/37/7 18/16/7
f 11/18/8 5/38/8 4/19/8
f 19/21/15 14/5/15 16/8/15
f 5/23/16 12/10/16 15/6/16
f 16/8/17 13/3/17 1/25/17
f 15/6/18 14/5/18 3/26/18
f 13/3/1 17/2/1 20/27/1
f 17/28/19 14/32/19 19/14/19
f 11/29/1 17/31/1 12/10/1
f 18/30/1 10/9/1 12/10/1
f 11/18/20 3/20/20 14/32/20
f 7/33/7 8/17/7 18/16/7
