# Blender v2.78 (sub 0) OBJ File: 'Low_Poly_Trees_Pack.blend'
# www.blender.org
g Pine_Firewood_Pile_01
v -0.239440 0.120003 -0.296513
v -0.239440 0.186478 -0.274835
v -0.239440 0.186403 -0.204915
v -0.239440 0.119882 -0.183380
v -0.239440 0.078844 -0.239990
v 0.240347 0.120003 -0.296513
v 0.240347 0.186478 -0.274835
v 0.240347 0.186403 -0.204915
v 0.240347 0.119882 -0.183380
v 0.240347 0.078844 -0.239990
v -0.268849 0.117590 0.010783
v -0.268849 0.187756 0.033664
v -0.268849 0.187677 0.107467
v -0.268849 0.117462 0.130198
v -0.268849 0.074146 0.070444
v 0.237577 0.117590 0.010783
v 0.237577 0.187756 0.033664
v 0.237577 0.187677 0.107467
v 0.237577 0.117462 0.130198
v 0.237577 0.074146 0.070444
v -0.239613 0.176538 -0.202619
v -0.239613 0.233376 -0.183476
v -0.239613 0.232733 -0.123504
v -0.239613 0.175498 -0.105583
v -0.239613 0.140768 -0.154479
v 0.266629 0.176538 -0.202619
v 0.266629 0.233376 -0.183476
v 0.266629 0.232733 -0.123504
v 0.266629 0.175498 -0.105583
v 0.266629 0.140768 -0.154479
v -0.270488 0.129354 -0.121111
v -0.270488 0.203744 -0.096852
v -0.270488 0.203660 -0.018606
v -0.270488 0.129218 0.005493
v -0.270488 0.083294 -0.057858
v 0.266429 0.129354 -0.121111
v 0.266429 0.203744 -0.096852
v 0.266429 0.203660 -0.018606
v 0.266429 0.129218 0.005493
v 0.266429 0.083294 -0.057858
v -0.274103 -0.000003 -0.344899
v -0.274103 0.077611 -0.370123
v -0.274103 0.125584 -0.304103
v -0.274103 0.077619 -0.238076
v -0.274103 0.000002 -0.263289
v 0.272918 -0.000003 -0.344899
v 0.272918 0.077611 -0.370123
v 0.272918 0.125584 -0.304103
v 0.272918 0.077619 -0.238076
v 0.272918 0.000002 -0.263289
v -0.289588 -0.000004 -0.193839
v -0.289588 0.091086 -0.223442
v -0.289588 0.147390 -0.145958
v -0.289588 0.091097 -0.068467
v -0.289588 0.000003 -0.098059
v 0.291992 -0.000004 -0.193839
v 0.291992 0.091086 -0.223442
v 0.291992 0.147390 -0.145958
v 0.291992 0.091097 -0.068467
v 0.291992 0.000003 -0.098059
v -0.295363 -0.000003 0.100061
v -0.295363 0.077611 0.074837
v -0.295363 0.125584 0.140858
v -0.295363 0.077619 0.206885
v -0.295363 0.000002 0.181671
v 0.294355 -0.000003 0.100061
v 0.294355 0.077611 0.074837
v 0.294355 0.125584 0.140858
v 0.294355 0.077619 0.206885
v 0.294355 0.000002 0.181671
v -0.278843 -0.000003 -0.040641
v -0.278843 0.077611 -0.065865
v -0.278843 0.125584 0.000155
v -0.278843 0.077619 0.066182
v -0.278843 0.000002 0.040968
v 0.281157 -0.000003 -0.040641
v 0.281157 0.077611 -0.065865
v 0.281157 0.125584 0.000155
v 0.281157 0.077619 0.066182
v 0.281157 0.000002 0.040968
vt 0.9268 0.8944
vt 0.9404 0.9875
vt 0.9268 0.9875
vt 0.9540 0.8944
vt 0.9675 0.9875
vt 0.9540 0.9875
vt 0.9404 0.8944
vt 0.7949 0.7741
vt 0.8098 0.7692
vt 0.8041 0.7771
vt 0.8041 0.7614
vt 0.7949 0.7644
vt 0.7754 0.7616
vt 0.7881 0.7708
vt 0.7724 0.7708
vt 0.7802 0.7765
vt 0.9675 0.8944
vt 0.7851 0.7616
vt 0.7738 0.8908
vt 0.7879 0.9877
vt 0.7738 0.9877
vt 0.8020 0.8908
vt 0.8161 0.9877
vt 0.8020 0.9877
vt 0.7879 0.8908
vt 0.8442 0.7966
vt 0.8576 0.7869
vt 0.8544 0.7966
vt 0.8493 0.7809
vt 0.8410 0.7869
vt 0.7980 0.8315
vt 0.8077 0.8449
vt 0.7980 0.8417
vt 0.8138 0.8366
vt 0.8077 0.8283
vt 0.8161 0.8908
vt 0.9554 0.9064
vt 0.9646 0.9839
vt 0.9554 0.9839
vt 0.9279 0.9064
vt 0.9371 0.9839
vt 0.9279 0.9839
vt 0.9463 0.9064
vt 0.9463 0.9839
vt 0.9187 0.9064
vt 0.9187 0.9839
vt 0.9371 0.9064
vt 0.8180 0.8334
vt 0.8289 0.8413
vt 0.8206 0.8413
vt 0.8247 0.8285
vt 0.8315 0.8334
vt 0.8486 0.8268
vt 0.8445 0.8396
vt 0.8419 0.8317
vt 0.8528 0.8396
vt 0.8554 0.8317
vt 0.8501 0.8965
vt 0.8589 0.9573
vt 0.8501 0.9573
vt 0.8235 0.8965
vt 0.8323 0.9573
vt 0.8235 0.9573
vt 0.8412 0.8965
vt 0.8412 0.9573
vt 0.8146 0.8965
vt 0.8146 0.9573
vt 0.8323 0.8965
vt 0.7995 0.8080
vt 0.7995 0.8255
vt 0.7932 0.8167
vt 0.8099 0.8113
vt 0.8099 0.8222
vt 0.7831 0.8075
vt 0.7689 0.8178
vt 0.7723 0.8075
vt 0.7777 0.8242
vt 0.7865 0.8178
vt 0.8165 0.9090
vt 0.8233 0.9548
vt 0.8165 0.9548
vt 0.8301 0.9090
vt 0.8370 0.9548
vt 0.8301 0.9548
vt 0.8096 0.9090
vt 0.8096 0.9548
vt 0.8233 0.9090
vt 0.8196 0.8631
vt 0.8344 0.8523
vt 0.8309 0.8631
vt 0.8253 0.8457
vt 0.8161 0.8523
vt 0.8180 0.8125
vt 0.8363 0.8125
vt 0.8215 0.8233
vt 0.8328 0.8233
vt 0.9273 0.9105
vt 0.9389 0.9812
vt 0.9273 0.9812
vt 0.9506 0.9105
vt 0.9622 0.9812
vt 0.9506 0.9812
vt 0.9156 0.9105
vt 0.9156 0.9812
vt 0.9389 0.9105
vt 0.7689 0.7834
vt 0.7815 0.8008
vt 0.7689 0.7967
vt 0.7893 0.7901
vt 0.7815 0.7793
vt 0.7973 0.8013
vt 0.8039 0.7809
vt 0.8105 0.8013
vt 0.8146 0.7887
vt 0.9300 0.9013
vt 0.9420 0.9876
vt 0.9300 0.9876
vt 0.9539 0.9013
vt 0.9659 0.9876
vt 0.9539 0.9876
vt 0.9181 0.9013
vt 0.9181 0.9876
vt 0.9420 0.9013
vt 0.8247 0.7809
vt 0.8247 0.7992
vt 0.8180 0.7900
vt 0.8354 0.7843
vt 0.8354 0.7957
vt 0.7765 0.8449
vt 0.7913 0.8341
vt 0.7878 0.8449
vt 0.7822 0.8275
vt 0.7730 0.8341
vt 0.7836 0.8991
vt 0.7943 0.9725
vt 0.7836 0.9725
vt 0.8050 0.8991
vt 0.8157 0.9725
vt 0.8050 0.9725
vt 0.7729 0.8991
vt 0.7729 0.9725
vt 0.7943 0.8991
vt 0.7941 0.8539
vt 0.8089 0.8647
vt 0.7976 0.8647
vt 0.8032 0.8473
vt 0.8124 0.8539
vt 0.8419 0.8631
vt 0.8567 0.8523
vt 0.8532 0.8631
vt 0.8476 0.8457
vt 0.8384 0.8523
vt 0.9646 0.9064
vt 0.8589 0.8965
vt 0.8370 0.9090
vt 0.8272 0.8058
vt 0.9622 0.9105
vt 0.7932 0.7887
vt 0.9659 0.9013
vt 0.8157 0.8991
vn 0.0000 0.3080 0.9514
vn 0.0000 0.3100 -0.9507
vn 0.0000 1.0000 0.0011
vn -1.0000 0.0000 0.0000
vn 1.0000 0.0000 0.0000
vn 0.0000 -0.8027 -0.5964
vn 0.0000 0.2988 0.9543
vn 0.0000 0.3192 -0.9477
vn 0.0000 -0.8153 0.5791
vn 0.0000 0.9999 0.0107
vn 0.0000 -0.8084 -0.5887
vn 0.0000 -0.8096 0.5869
vn 0.0000 0.8091 0.5877
vn 0.0000 -0.3091 -0.9510
vn 0.0000 -0.3090 0.9511
vn 0.0000 0.8090 -0.5878
s off
f 9/1/1 3/2/1 4/3/1
f 7/4/2 1/5/2 2/6/2
f 8/7/3 2/6/3 3/2/3
f 4/8/4 1/9/4 5/10/4
f 2/11/4 1/9/4 3/12/4
f 9/13/5 6/14/5 8/15/5
f 7/16/5 8/15/5 6/14/5
f 9/1/1 8/7/1 3/2/1
f 7/4/2 6/17/2 1/5/2
f 8/7/3 7/4/3 2/6/3
f 4/8/4 3/12/4 1/9/4
f 9/13/5 10/18/5 6/14/5
f 19/19/1 13/20/1 14/21/1
f 17/22/2 11/23/2 12/24/2
f 18/25/3 12/24/3 13/20/3
f 14/26/4 11/27/4 15/28/4
f 12/29/4 11/27/4 13/30/4
f 20/31/5 18/32/5 19/33/5
f 17/34/5 18/32/5 16/35/5
f 19/19/1 18/25/1 13/20/1
f 17/22/2 16/36/2 11/23/2
f 18/25/3 17/22/3 12/24/3
f 14/26/4 13/30/4 11/27/4
f 20/31/5 16/35/5 18/32/5
f 26/37/6 25/38/6 21/39/6
f 29/40/7 23/41/7 24/42/7
f 27/43/8 21/39/8 22/44/8
f 30/45/9 24/42/9 25/46/9
f 28/47/10 22/44/10 23/41/10
f 23/48/4 25/49/4 24/50/4
f 22/51/4 21/52/4 23/48/4
f 30/53/5 28/54/5 29/55/5
f 27/56/5 28/54/5 26/57/5
f 36/58/11 35/59/11 31/60/11
f 39/61/1 33/62/1 34/63/1
f 37/64/2 31/60/2 32/65/2
f 40/66/12 34/63/12 35/67/12
f 38/68/3 32/65/3 33/62/3
f 33/69/4 35/70/4 34/71/4
f 32/72/4 31/73/4 33/69/4
f 40/74/5 38/75/5 39/76/5
f 37/77/5 38/75/5 36/78/5
f 49/79/13 43/80/13 44/81/13
f 47/82/14 41/83/14 42/84/14
f 50/85/15 44/81/15 45/86/15
f 48/87/16 42/84/16 43/80/16
f 44/88/4 41/89/4 45/90/4
f 42/91/4 41/89/4 43/92/4
f 49/93/5 46/94/5 48/95/5
f 47/96/5 48/95/5 46/94/5
f 59/97/13 53/98/13 54/99/13
f 57/100/14 51/101/14 52/102/14
f 60/103/15 54/99/15 55/104/15
f 58/105/16 52/102/16 53/98/16
f 54/106/4 51/107/4 55/108/4
f 52/109/4 51/107/4 53/110/4
f 59/111/5 56/112/5 58/113/5
f 57/114/5 58/113/5 56/112/5
f 69/115/13 63/116/13 64/117/13
f 67/118/14 61/119/14 62/120/14
f 70/121/15 64/117/15 65/122/15
f 68/123/16 62/120/16 63/116/16
f 63/124/4 65/125/4 64/126/4
f 62/127/4 61/128/4 63/124/4
f 70/129/5 68/130/5 69/131/5
f 67/132/5 68/130/5 66/133/5
f 79/134/13 73/135/13 74/136/13
f 77/137/14 71/138/14 72/139/14
f 80/140/15 74/136/15 75/141/15
f 78/142/16 72/139/16 73/135/16
f 73/143/4 75/144/4 74/145/4
f 72/146/4 71/147/4 73/143/4
f 80/148/5 78/149/5 79/150/5
f 77/151/5 78/149/5 76/152/5
f 26/37/6 30/153/6 25/38/6
f 29/40/7 28/47/7 23/41/7
f 27/43/8 26/37/8 21/39/8
f 30/45/9 29/40/9 24/42/9
f 28/47/10 27/43/10 22/44/10
f 23/48/4 21/52/4 25/49/4
f 30/53/5 26/57/5 28/54/5
f 36/58/11 40/154/11 35/59/11
f 39/61/1 38/68/1 33/62/1
f 37/64/2 36/58/2 31/60/2
f 40/66/12 39/61/12 34/63/12
f 38/68/3 37/64/3 32/65/3
f 33/69/4 31/73/4 35/70/4
f 40/74/5 36/78/5 38/75/5
f 49/79/13 48/87/13 43/80/13
f 47/82/14 46/155/14 41/83/14
f 50/85/15 49/79/15 44/81/15
f 48/87/16 47/82/16 42/84/16
f 44/88/4 43/92/4 41/89/4
f 49/93/5 50/156/5 46/94/5
f 59/97/13 58/105/13 53/98/13
f 57/100/14 56/157/14 51/101/14
f 60/103/15 59/97/15 54/99/15
f 58/105/16 57/100/16 52/102/16
f 54/106/4 53/110/4 51/107/4
f 59/111/5 60/158/5 56/112/5
f 69/115/13 68/123/13 63/116/13
f 67/118/14 66/159/14 61/119/14
f 70/121/15 69/115/15 64/117/15
f 68/123/16 67/118/16 62/120/16
f 63/124/4 61/128/4 65/125/4
f 70/129/5 66/133/5 68/130/5
f 79/134/13 78/142/13 73/135/13
f 77/137/14 76/160/14 71/138/14
f 80/140/15 79/134/15 74/136/15
f 78/142/16 77/137/16 72/139/16
f 73/143/4 71/147/4 75/144/4
f 80/148/5 76/152/5 78/149/5
