# Blender v2.78 (sub 0) OBJ File: 'Low_Poly_Trees_Pack.blend'
# www.blender.org
g Pine_Firewood_01
v -0.264522 -0.000003 -0.040641
v -0.201120 0.077611 -0.065865
v -0.196738 0.125584 0.000155
v -0.232110 0.077619 0.066182
v -0.264522 0.000002 0.040968
v 0.281157 -0.000003 -0.040641
v 0.281157 0.077611 -0.065865
v 0.281157 0.125584 0.000155
v 0.281157 0.077619 0.066182
v 0.281157 0.000002 0.040968
vt 0.7666 0.8988
vt 0.8626 0.9131
vt 0.7666 0.9131
vt 0.8626 0.9275
vt 0.7785 0.9419
vt 0.7723 0.9275
vt 0.7778 0.9562
vt 0.8626 0.9706
vt 0.7666 0.9706
vt 0.8626 0.9562
vt 0.7778 0.8084
vt 0.8165 0.8240
vt 0.7925 0.8310
vt 0.8165 0.7923
vt 0.7924 0.7853
vt 0.8197 0.7971
vt 0.8436 0.8299
vt 0.8197 0.8222
vt 0.8583 0.8096
vt 0.8436 0.7893
vt 0.8626 0.8988
vt 0.8626 0.9419
vn 0.0000 -1.0000 0.0001
vn 0.0000 0.8091 0.5877
vn 0.0000 -0.3091 -0.9510
vn 0.0000 -0.3090 0.9511
vn 0.0000 0.8090 -0.5878
vn -0.9228 0.3853 -0.0000
vn -0.7804 0.5293 -0.3328
vn 1.0000 -0.0000 0.0000
vn -0.8616 0.4976 -0.1001
s off
f 1/1/1 10/2/1 5/3/1
f 9/4/2 3/5/2 4/6/2
f 2/7/3 6/8/3 1/9/3
f 10/2/4 4/6/4 5/3/4
f 3/5/5 7/10/5 2/7/5
f 4/11/6 1/12/6 5/13/6
f 2/14/7 1/12/7 3/15/7
f 10/16/8 8/17/8 9/18/8
f 7/19/8 8/17/8 6/20/8
f 1/1/1 6/21/1 10/2/1
f 9/4/2 8/22/2 3/5/2
f 2/7/3 7/10/3 6/8/3
f 10/2/4 9/4/4 4/6/4
f 3/5/5 8/22/5 7/10/5
f 4/11/9 3/15/9 1/12/9
f 10/16/8 6/20/8 8/17/8
