# Blender v2.78 (sub 0) OBJ File: 'Low_Poly_Trees_Pack.blend'
# www.blender.org
g Dead_Pine_Tree_crk_l_08
v 5.100288 0.121629 0.024259
v 4.733167 0.425623 0.051996
v 4.906114 0.161249 1.112720
v 5.013398 0.161378 0.572515
v 4.849770 0.304579 0.583933
v 5.202158 0.143110 -0.655459
v 4.586899 0.617292 -0.626506
v 5.194689 0.082667 -1.180582
v 4.468588 0.633450 -1.171631
v 5.017127 0.358676 -1.164660
v 4.707429 0.453034 -1.175931
v 4.881094 0.430830 -1.642189
v 5.312783 0.009124 -0.374896
v 4.400678 0.590077 -0.363135
v 4.942612 0.304039 0.043038
v 4.938315 0.261335 0.364484
v 4.916706 0.415130 -0.636521
v 4.912842 0.458089 -0.945991
v 5.456159 0.606008 1.940496
v 5.471778 0.282758 2.225495
v 6.310346 0.158578 1.579587
v 5.922893 0.430856 1.821209
v 5.910395 0.246948 1.920517
v 4.934806 0.913565 2.224721
v 4.967031 0.384579 2.679961
v 4.445733 1.049279 2.382421
v 4.440493 0.354260 2.760555
v 4.524487 0.851943 2.629632
v 4.505970 0.592336 2.774744
v 4.116014 0.804086 2.830635
v 5.058457 0.890396 1.878739
v 5.084663 0.139477 2.538286
v 5.489968 0.457926 2.110948
v 5.751259 0.395888 1.974489
v 4.977353 0.661958 2.484478
v 4.728623 0.718539 2.636849
v 7.267371 0.259584 1.360381
v 7.083890 0.409236 1.581227
v 7.651268 0.149560 1.998827
v 7.459675 0.222123 1.684660
v 7.376180 0.290484 1.786361
v 7.057118 0.317279 0.935250
v 6.752282 0.564309 1.287463
v 6.842920 0.305923 0.636155
v 6.479481 0.599300 1.043996
v 6.768491 0.460671 0.756311
v 6.606725 0.494470 0.901893
v 6.495540 0.540511 0.581142
v 7.184607 0.164011 1.017970
v 6.749313 0.515524 1.517911
v 7.190198 0.356676 1.466895
v 7.325099 0.298510 1.629965
v 6.921800 0.460100 1.104753
v 6.804256 0.502152 0.936228
v 8.663416 0.314308 3.071741
v 8.496712 0.149893 2.994676
v 8.888609 0.141317 2.563464
v 8.769600 0.219478 2.812387
v 8.694062 0.144220 2.777339
v 8.584867 0.386861 3.440835
v 8.319013 0.124316 3.297806
v 8.474008 0.424295 3.718179
v 8.167583 0.122313 3.533677
v 8.410154 0.287272 3.664524
v 8.268977 0.229607 3.597528
v 8.248377 0.212210 3.857679
v 8.654913 0.477067 3.318305
v 8.268229 0.098787 3.136191
v 8.592976 0.218546 3.036193
v 8.671237 0.196408 2.888788
v 8.465700 0.246800 3.372097
v 8.411413 0.238008 3.527828
v 5.100020 0.121404 0.024215
v 4.732993 0.425322 0.051943
v 4.905879 0.160991 1.112673
v 5.013159 0.161123 0.572472
v 4.849545 0.304311 0.583888
v 5.201885 0.142891 -0.655489
v 4.586753 0.616973 -0.626530
v 5.194395 0.082476 -1.180558
v 4.468378 0.633170 -1.171597
v 5.016932 0.358384 -1.164650
v 4.707288 0.452712 -1.175907
v 4.880990 0.430494 -1.642171
v 5.312468 0.008979 -0.374953
v 4.400611 0.589742 -0.363222
v 4.942387 0.303771 0.042995
v 4.938086 0.261071 0.364447
v 4.916501 0.414845 -0.636545
v 4.912665 0.457784 -0.945986
v 5.455920 0.605838 1.940277
v 5.471543 0.282689 2.225215
v 6.310115 0.158469 1.579344
v 5.922661 0.430734 1.820967
v 5.910167 0.246847 1.920269
v 4.934572 0.913370 2.224503
v 4.966824 0.384528 2.679666
v 4.445560 1.049054 2.382215
v 4.440338 0.354155 2.760288
v 4.524279 0.851811 2.629327
v 4.505812 0.592306 2.774452
v 4.115846 0.804082 2.830326
v 5.058218 0.890174 1.878608
v 5.084439 0.139530 2.538015
v 5.489729 0.457798 2.110688
v 5.751029 0.395768 1.974236
v 4.977124 0.661828 2.484197
v 4.728415 0.718425 2.636539
v 7.267152 0.259322 1.360467
v 7.083745 0.408916 1.581236
v 7.651081 0.149265 1.998873
v 7.459486 0.221832 1.684714
v 7.376003 0.290185 1.786402
v 7.056893 0.317029 0.935350
v 6.752164 0.563978 1.287484
v 6.842706 0.305695 0.636318
v 6.479347 0.598992 1.044101
v 6.768350 0.460358 0.756388
v 6.606644 0.494130 0.901939
v 6.495481 0.540165 0.581156
v 7.184324 0.163839 1.018088
v 6.749221 0.515191 1.517838
v 7.190015 0.356380 1.466945
v 7.324920 0.298212 1.630017
v 6.921639 0.459793 1.104812
v 6.804130 0.501829 0.936288
v 8.663177 0.314534 3.071616
v 8.496549 0.150187 2.994575
v 8.888430 0.141572 2.563302
v 8.769416 0.219730 2.812224
v 8.693887 0.144481 2.777182
v 8.584599 0.387069 3.440736
v 8.318859 0.124621 3.297722
v 8.473736 0.424474 3.718045
v 8.167384 0.122575 3.533553
v 8.409955 0.287552 3.664448
v 8.268831 0.229919 3.597454
v 8.248257 0.212540 3.857646
v 8.654595 0.477189 3.318214
v 8.268138 0.099126 3.136166
v 8.592779 0.218809 3.036068
v 8.671054 0.196666 2.888634
v 8.465496 0.247071 3.372003
v 8.411227 0.238297 3.527748
v 10.516193 0.180580 2.875017
v 10.486626 0.294305 3.004069
v 10.828274 0.114932 3.126174
v 10.675046 0.157173 3.001221
v 10.661865 0.209133 3.060514
v 10.329134 0.210648 2.700562
v 10.276765 0.397868 2.907895
v 10.160537 0.212775 2.595995
v 10.095449 0.434663 2.837353
v 10.163408 0.309807 2.653787
v 10.118194 0.355915 2.753406
v 10.000437 0.374133 2.612323
v 10.395057 0.120159 2.732229
v 10.319532 0.386677 3.026937
v 10.509688 0.247048 2.932516
v 10.604685 0.210110 2.992590
v 10.311629 0.311848 2.795686
v 10.222507 0.337938 2.731205
v 10.516082 0.180475 2.875129
v 10.486528 0.294157 3.004134
v 10.828165 0.114804 3.126263
v 10.674938 0.157047 3.001316
v 10.661760 0.209001 3.060599
v 10.329021 0.210551 2.700681
v 10.276683 0.397711 2.907962
v 10.160445 0.212691 2.596142
v 10.095379 0.434525 2.837464
v 10.163326 0.309665 2.653885
v 10.118134 0.355751 2.753479
v 10.000380 0.373960 2.612377
v 10.394930 0.120111 2.732360
v 10.319444 0.386510 3.026953
v 10.509583 0.246918 2.932606
v 10.604584 0.209980 2.992680
v 10.311536 0.311711 2.795778
v 10.222430 0.337788 2.731294
v 6.863971 0.027242 3.378953
v 6.888930 0.029624 3.373069
v 6.878046 0.006114 3.373790
v 6.895565 0.056548 2.538495
v 6.967211 0.062381 2.547369
v 6.937150 -0.002741 2.537293
v 8.030833 0.211034 2.215469
v 8.078566 0.166118 2.184648
v 8.011634 0.171948 2.157593
v 8.194405 0.608722 1.822851
v 8.218420 0.583617 1.807795
v 8.185262 0.590059 1.791221
v 10.845706 0.030348 3.791900
v 10.857759 0.034613 3.805243
v 10.851398 0.017243 3.803734
v 11.121083 0.016423 3.564424
v 11.146456 0.026454 3.595820
v 11.132938 -0.012668 3.591691
v 3.795290 0.209416 0.926044
v 3.881211 0.274621 0.866290
v 3.764404 0.275757 0.826799
v 3.837930 0.609477 1.228070
v 3.870274 0.624606 1.195778
v 3.827074 0.645709 1.198284
v 3.904649 1.007601 1.569328
v 3.924033 1.016669 1.549973
v 3.898142 1.029317 1.551475
v 5.372035 0.234594 1.329093
v 5.415562 0.188297 1.294339
v 5.355699 0.213011 1.261912
v 5.860952 0.810953 0.965680
v 5.873927 0.791310 0.954839
v 5.858684 0.806152 0.940324
v 9.136433 0.144394 2.447256
v 9.099178 0.240747 2.560225
v 9.057327 0.157398 2.681614
v 9.068716 0.009533 2.643668
v 9.117607 0.001496 2.498826
v 15.940212 0.089839 4.866239
v 15.898291 0.100217 4.872263
v 15.858090 0.077157 4.881403
v 15.852856 0.051223 4.872225
v 15.922991 0.055590 4.868169
v 2.695199 -0.004522 0.669583
v 5.893822 0.015652 1.634054
v 6.016547 -0.023866 1.430489
v 2.827561 -0.017814 0.399551
v 2.774896 0.420053 0.505289
v 5.889547 0.291722 1.475034
v 5.889466 0.169141 1.675554
v 2.674007 0.300534 0.748565
v 6.043187 0.137991 1.342131
v 2.769431 0.236081 0.256136
v 11.466988 -0.016600 3.319648
v 13.739157 -0.013471 4.091088
v 13.659463 -0.015761 4.135806
v 11.402713 -0.009445 3.373628
v 11.390175 0.081008 3.394708
v 13.678995 0.024740 4.150407
v 13.651319 0.101061 4.099540
v 11.414967 0.137123 3.345795
v 11.462996 0.057574 3.293068
v 13.780109 0.042048 4.084225
v -0.063426 0.000000 -0.312824
v -0.299320 0.000000 -0.022170
v -0.088608 0.000000 0.293437
v 0.289666 0.000000 0.189225
v 0.277275 0.000000 -0.176009
v -0.211738 3.269444 0.034798
v -0.027029 3.186168 -0.199510
v 0.213060 3.250479 0.215892
v -0.092018 3.252886 0.297552
v 0.225943 3.289505 -0.082310
vt 0.9310 0.3459
vt 0.9351 0.3377
vt 0.9393 0.3459
vt 0.9351 0.3666
vt 0.9351 0.3253
vt 0.9443 0.3253
vt 0.9260 0.3253
vt 0.9203 0.2989
vt 0.9351 0.2989
vt 0.9177 0.2787
vt 0.9293 0.2787
vt 0.9500 0.2989
vt 0.9410 0.2787
vt 0.9526 0.2787
vt 0.9351 0.2870
vt 0.9351 0.2606
vt 0.9139 0.3096
vt 0.9564 0.3091
vt 0.9310 0.3459
vt 0.9351 0.3377
vt 0.9393 0.3459
vt 0.9351 0.3666
vt 0.9351 0.3253
vt 0.9443 0.3253
vt 0.9260 0.3253
vt 0.9203 0.2989
vt 0.9351 0.2989
vt 0.9177 0.2787
vt 0.9293 0.2787
vt 0.9500 0.2989
vt 0.9410 0.2787
vt 0.9526 0.2787
vt 0.9351 0.2870
vt 0.9351 0.2606
vt 0.9139 0.3096
vt 0.9564 0.3091
vt 0.9310 0.3459
vt 0.9351 0.3377
vt 0.9393 0.3459
vt 0.9351 0.3666
vt 0.9351 0.3253
vt 0.9443 0.3253
vt 0.9260 0.3253
vt 0.9203 0.2989
vt 0.9351 0.2989
vt 0.9177 0.2787
vt 0.9293 0.2787
vt 0.9500 0.2989
vt 0.9410 0.2787
vt 0.9526 0.2787
vt 0.9351 0.2870
vt 0.9351 0.2606
vt 0.9139 0.3096
vt 0.9564 0.3091
vt 0.9310 0.3459
vt 0.9351 0.3377
vt 0.9393 0.3459
vt 0.9351 0.3666
vt 0.9351 0.3253
vt 0.9443 0.3253
vt 0.9260 0.3253
vt 0.9203 0.2989
vt 0.9351 0.2989
vt 0.9177 0.2787
vt 0.9293 0.2787
vt 0.9500 0.2989
vt 0.9410 0.2787
vt 0.9526 0.2787
vt 0.9351 0.2870
vt 0.9351 0.2606
vt 0.9139 0.3096
vt 0.9564 0.3091
vt 0.9351 0.3666
vt 0.9393 0.3459
vt 0.9351 0.3377
vt 0.9310 0.3459
vt 0.9443 0.3253
vt 0.9351 0.3253
vt 0.9351 0.2989
vt 0.9203 0.2989
vt 0.9260 0.3253
vt 0.9293 0.2787
vt 0.9177 0.2787
vt 0.9526 0.2787
vt 0.9410 0.2787
vt 0.9500 0.2989
vt 0.9351 0.2870
vt 0.9351 0.2606
vt 0.9139 0.3096
vt 0.9564 0.3091
vt 0.9351 0.3666
vt 0.9393 0.3459
vt 0.9351 0.3377
vt 0.9310 0.3459
vt 0.9443 0.3253
vt 0.9351 0.3253
vt 0.9351 0.2989
vt 0.9203 0.2989
vt 0.9260 0.3253
vt 0.9293 0.2787
vt 0.9177 0.2787
vt 0.9526 0.2787
vt 0.9410 0.2787
vt 0.9500 0.2989
vt 0.9351 0.2870
vt 0.9351 0.2606
vt 0.9139 0.3096
vt 0.9564 0.3091
vt 0.9351 0.3666
vt 0.9393 0.3459
vt 0.9351 0.3377
vt 0.9310 0.3459
vt 0.9443 0.3253
vt 0.9351 0.3253
vt 0.9351 0.2989
vt 0.9203 0.2989
vt 0.9260 0.3253
vt 0.9293 0.2787
vt 0.9177 0.2787
vt 0.9526 0.2787
vt 0.9410 0.2787
vt 0.9500 0.2989
vt 0.9351 0.2870
vt 0.9351 0.2606
vt 0.9139 0.3096
vt 0.9564 0.3091
vt 0.9351 0.3666
vt 0.9393 0.3459
vt 0.9351 0.3377
vt 0.9310 0.3459
vt 0.9443 0.3253
vt 0.9351 0.3253
vt 0.9351 0.2989
vt 0.9203 0.2989
vt 0.9260 0.3253
vt 0.9293 0.2787
vt 0.9177 0.2787
vt 0.9526 0.2787
vt 0.9410 0.2787
vt 0.9500 0.2989
vt 0.9351 0.2870
vt 0.9351 0.2606
vt 0.9139 0.3096
vt 0.9564 0.3091
vt 0.9310 0.3459
vt 0.9351 0.3377
vt 0.9393 0.3459
vt 0.9351 0.3666
vt 0.9351 0.3253
vt 0.9443 0.3253
vt 0.9260 0.3253
vt 0.9203 0.2989
vt 0.9351 0.2989
vt 0.9177 0.2787
vt 0.9293 0.2787
vt 0.9500 0.2989
vt 0.9410 0.2787
vt 0.9526 0.2787
vt 0.9351 0.2870
vt 0.9351 0.2606
vt 0.9139 0.3096
vt 0.9564 0.3091
vt 0.9351 0.3666
vt 0.9393 0.3459
vt 0.9351 0.3377
vt 0.9310 0.3459
vt 0.9443 0.3253
vt 0.9351 0.3253
vt 0.9351 0.2989
vt 0.9203 0.2989
vt 0.9260 0.3253
vt 0.9293 0.2787
vt 0.9177 0.2787
vt 0.9526 0.2787
vt 0.9410 0.2787
vt 0.9500 0.2989
vt 0.9351 0.2870
vt 0.9351 0.2606
vt 0.9139 0.3096
vt 0.9564 0.3091
vt 0.8398 0.9180
vt 0.8280 0.9176
vt 0.8280 0.9173
vt 0.8399 0.9169
vt 0.8398 0.9190
vt 0.8279 0.9180
vt 0.8279 0.9342
vt 0.8281 0.9339
vt 0.8283 0.9342
vt 0.8279 0.9169
vt 0.8398 0.9159
vt 0.8279 0.9211
vt 0.8362 0.9208
vt 0.8363 0.9214
vt 0.8280 0.9221
vt 0.8280 0.9190
vt 0.8363 0.9198
vt 0.8361 0.9203
vt 0.8279 0.9200
vt 0.8279 0.9319
vt 0.8282 0.9315
vt 0.8284 0.9319
vt 0.8330 0.9289
vt 0.8279 0.9285
vt 0.8279 0.9282
vt 0.8329 0.9283
vt 0.8329 0.9294
vt 0.8279 0.9288
vt 0.8279 0.9353
vt 0.8280 0.9350
vt 0.8282 0.9353
vt 0.8279 0.9280
vt 0.8330 0.9277
vt 0.8279 0.9079
vt 0.8351 0.9074
vt 0.8353 0.9080
vt 0.8279 0.9096
vt 0.8279 0.9044
vt 0.8353 0.9061
vt 0.8350 0.9067
vt 0.8281 0.9062
vt 0.8425 0.9073
vt 0.8426 0.9077
vt 0.8426 0.9065
vt 0.8425 0.9069
vt 0.8282 0.9333
vt 0.8279 0.9335
vt 0.8279 0.9331
vt 0.8279 0.9117
vt 0.8398 0.9114
vt 0.8399 0.9118
vt 0.8280 0.9128
vt 0.8280 0.9097
vt 0.8399 0.9107
vt 0.8398 0.9110
vt 0.8280 0.9107
vt 0.8279 0.9339
vt 0.8281 0.9335
vt 0.8283 0.9339
vt 0.7676 0.9663
vt 0.8211 0.9677
vt 0.8211 0.9702
vt 0.7667 0.9701
vt 0.7675 0.9557
vt 0.8216 0.9602
vt 0.8214 0.9627
vt 0.7662 0.9593
vt 0.7676 0.9632
vt 0.8212 0.9652
vt 0.8211 0.9727
vt 0.7668 0.9727
vt 0.8043 0.9777
vt 0.8053 0.9766
vt 0.8426 0.9762
vt 0.8411 0.9768
vt 0.8040 0.9744
vt 0.8047 0.9730
vt 0.8411 0.9742
vt 0.8419 0.9749
vt 0.8058 0.9757
vt 0.8429 0.9755
vt 0.8047 0.9783
vt 0.8413 0.9774
vt 0.7983 0.9066
vt 0.8515 0.9098
vt 0.8532 0.9136
vt 0.7968 0.9115
vt 0.7977 0.9209
vt 0.8522 0.9205
vt 0.8524 0.9231
vt 0.7978 0.9261
vt 0.8532 0.9167
vt 0.7984 0.9161
vt 0.7983 0.9019
vt 0.8528 0.9062
vt 0.8612 0.9657
vt 0.8616 0.9674
vt 0.7667 0.9756
vt 0.7663 0.9740
vt 0.8610 0.9699
vt 0.8609 0.9714
vt 0.7662 0.9795
vt 0.7662 0.9780
vt 0.8618 0.9687
vt 0.7669 0.9769
vt 0.8612 0.9644
vt 0.7662 0.9727
vt 0.7971 0.9418
vt 0.7968 0.9415
vt 0.7979 0.9410
vt 0.7984 0.9413
vt 0.7979 0.9418
vt 0.8203 0.8142
vt 0.8346 0.8307
vt 0.8205 0.8462
vt 0.8002 0.8175
vt 0.8002 0.8398
vt 0.7906 0.9022
vt 0.7879 0.9556
vt 0.7831 0.9540
vt 0.7845 0.9019
vt 0.7726 0.9021
vt 0.7737 0.9552
vt 0.7685 0.9554
vt 0.7662 0.9024
vt 0.7786 0.9557
vt 0.7785 0.9019
vt 0.7968 0.9027
vt 0.7927 0.9557
vt 0.8002 0.8106
vt 0.8002 0.7883
vt 0.8205 0.7820
vt 0.8203 0.8140
vt 0.8346 0.7975
vn 0.6582 0.7419 0.1276
vn 0.5345 0.8403 0.0909
vn 0.7163 0.6895 0.1073
vn 0.8367 0.5426 -0.0744
vn 0.5981 0.7943 -0.1063
vn 0.7074 0.7044 0.0592
vn 0.2928 0.9548 -0.0507
vn 0.6294 0.7680 0.1186
vn 0.1855 0.9554 0.2299
vn 0.3732 0.9243 -0.0798
vn 0.5140 0.8488 0.1241
vn 0.7422 0.6654 0.0801
vn 0.6342 0.3335 0.6975
vn 0.5317 0.3733 0.7602
vn 0.6142 0.6295 0.4759
vn 0.3777 0.7786 0.5012
vn 0.1562 -0.1015 0.9825
vn 0.4667 0.6861 0.5581
vn 0.3260 0.4434 0.8349
vn 0.5604 0.8153 0.1457
vn 0.6506 -0.1211 0.7497
vn 0.4327 0.4124 0.8017
vn 0.6476 0.4025 0.6470
vn 0.4290 0.6958 0.5761
vn 0.5292 0.8386 -0.1293
vn 0.4266 0.9023 -0.0614
vn 0.6013 0.7715 -0.2077
vn 0.6070 0.6486 -0.4593
vn 0.3819 0.8734 -0.3024
vn 0.5708 0.7821 -0.2499
vn 0.1691 0.9848 -0.0407
vn 0.8055 0.4910 -0.3317
vn 0.2613 0.9436 0.2031
vn 0.1975 0.9699 -0.1424
vn 0.4466 0.8930 -0.0566
vn 0.5804 0.7792 -0.2368
vn 0.5086 -0.7260 0.4628
vn 0.4571 -0.7914 0.4058
vn 0.6771 -0.6745 0.2941
vn 0.7737 -0.5085 0.3779
vn 0.5642 -0.7450 0.3559
vn 0.6973 -0.6801 0.2266
vn 0.3380 -0.9365 0.0938
vn 0.9012 -0.3467 0.2600
vn 0.2592 -0.9632 0.0707
vn 0.3928 -0.8773 0.2758
vn 0.5212 -0.8153 0.2522
vn 0.5832 -0.6712 0.4575
vn -0.6582 -0.7419 -0.1276
vn -0.5345 -0.8403 -0.0909
vn -0.7163 -0.6895 -0.1073
vn -0.8368 -0.5425 0.0744
vn -0.5981 -0.7944 0.1063
vn -0.7074 -0.7043 -0.0592
vn -0.2927 -0.9548 0.0507
vn -0.6293 -0.7681 -0.1186
vn -0.1854 -0.9554 -0.2299
vn -0.3732 -0.9243 0.0799
vn -0.5140 -0.8488 -0.1241
vn -0.7422 -0.6654 -0.0801
vn -0.6342 -0.3336 -0.6975
vn -0.5316 -0.3734 -0.7602
vn -0.6142 -0.6296 -0.4758
vn -0.3777 -0.7786 -0.5012
vn -0.1563 0.1014 -0.9825
vn -0.4667 -0.6861 -0.5581
vn -0.3261 -0.4436 -0.8348
vn -0.5604 -0.8154 -0.1456
vn -0.6506 0.1211 -0.7497
vn -0.4328 -0.4125 -0.8016
vn -0.6476 -0.4025 -0.6470
vn -0.4290 -0.6958 -0.5761
vn -0.5292 -0.8386 0.1293
vn -0.4266 -0.9023 0.0614
vn -0.6013 -0.7715 0.2077
vn -0.6070 -0.6485 0.4594
vn -0.3818 -0.8734 0.3023
vn -0.5709 -0.7821 0.2499
vn -0.1691 -0.9848 0.0406
vn -0.8056 -0.4909 0.3318
vn -0.2613 -0.9436 -0.2032
vn -0.1975 -0.9699 0.1424
vn -0.4466 -0.8930 0.0566
vn -0.5804 -0.7791 0.2368
vn -0.5086 0.7260 -0.4628
vn -0.4571 0.7914 -0.4058
vn -0.6772 0.6745 -0.2941
vn -0.7738 0.5084 -0.3779
vn -0.5642 0.7450 -0.3559
vn -0.6973 0.6801 -0.2266
vn -0.3379 0.9365 -0.0938
vn -0.9013 0.3466 -0.2600
vn -0.2591 0.9633 -0.0707
vn -0.3927 0.8773 -0.2758
vn -0.5212 0.8153 -0.2522
vn -0.5832 0.6712 -0.4575
vn 0.5678 0.6775 -0.4675
vn 0.5121 0.7699 -0.3807
vn 0.5913 0.5875 -0.5524
vn 0.4775 0.4391 -0.7610
vn 0.3725 0.7251 -0.5792
vn 0.5489 0.5999 -0.5820
vn 0.3008 0.9102 -0.2848
vn 0.6810 0.2560 -0.6861
vn 0.4728 0.8768 -0.0874
vn 0.2842 0.8780 -0.3851
vn 0.5305 0.7569 -0.3817
vn 0.5622 0.5964 -0.5729
vn -0.5678 -0.6775 0.4676
vn -0.5121 -0.7700 0.3807
vn -0.5913 -0.5875 0.5525
vn -0.4775 -0.4390 0.7611
vn -0.3725 -0.7251 0.5792
vn -0.5489 -0.5999 0.5820
vn -0.3007 -0.9102 0.2847
vn -0.6810 -0.2559 0.6861
vn -0.4727 -0.8769 0.0873
vn -0.2842 -0.8780 0.3851
vn -0.5305 -0.7569 0.3817
vn -0.5622 -0.5964 0.5729
vn 0.9029 -0.4244 0.0685
vn -0.0857 0.9958 0.0314
vn 0.2359 -0.0795 0.9685
vn -0.8231 -0.5656 -0.0514
vn -0.9141 0.4044 0.0285
vn 0.2151 -0.6928 -0.6883
vn 0.7129 0.3225 0.6227
vn 0.4151 0.7260 -0.5483
vn 0.5595 -0.2749 0.7819
vn -0.1227 0.9705 -0.2075
vn -0.7578 0.2242 0.6128
vn -0.4780 -0.6957 -0.5363
vn -0.9656 -0.0833 0.2462
vn 0.2547 0.6651 -0.7019
vn 0.7185 -0.4655 0.5168
vn -0.9612 -0.0681 0.2674
vn 0.2635 0.6265 -0.7335
vn 0.7125 -0.5216 0.4693
vn 0.3584 0.6546 0.6656
vn -0.7701 0.6374 -0.0269
vn 0.1852 -0.5852 -0.7895
vn 0.6127 -0.0213 0.7900
vn 0.7702 0.6105 -0.1845
vn -0.0359 -0.9924 0.1177
vn -0.1612 0.8408 0.5168
vn 0.3002 -0.4346 -0.8491
vn -0.2933 -0.2580 0.9206
vn 0.2168 0.7635 -0.6083
vn 0.0379 -0.9991 -0.0199
vn -0.2799 0.5218 0.8058
vn 0.3293 -0.3011 -0.8949
vn -0.3052 -0.2180 0.9270
vn 0.2186 0.7351 -0.6418
vn 0.2195 0.7717 -0.5970
vn -0.2774 -0.2586 0.9253
vn 0.2709 -0.4530 -0.8494
vn -0.1012 0.8829 0.4586
vn -0.0278 -0.9950 0.0960
vn 0.2544 0.7256 -0.6393
vn 0.2473 0.6627 -0.7068
vn -0.2903 -0.2574 0.9217
vn -0.3108 -0.2344 0.9211
vn 0.3088 -0.3408 -0.8880
vn 0.3048 -0.3183 -0.8976
vn -0.1587 0.7934 0.5876
vn -0.2472 0.5796 0.7765
vn -0.0279 -0.9978 0.0604
vn -0.0116 -0.9994 0.0323
vn 0.1422 -0.1705 0.9751
vn 0.1657 0.0999 0.9811
vn -0.9799 -0.1497 0.1321
vn -0.9286 0.0312 -0.3698
vn -0.7776 0.0315 -0.6280
vn 0.2625 -0.0013 0.9649
vn 0.3887 0.0303 -0.9209
vn -0.8682 0.0066 0.4962
vn 0.9998 0.0195 0.0019
vn 0.0430 0.9904 0.1315
vn -0.0257 0.9969 0.0745
vn -0.1580 0.8845 -0.4389
vn -0.8980 -0.0017 -0.4401
s off
f 4/1/1 16/2/1 5/3/1 3/4/1
f 15/5/2 2/6/2 5/3/2 16/2/2
f 15/5/3 1/7/3 6/8/3 17/9/3
f 6/8/4 8/10/4 10/11/4
f 7/12/5 11/13/5 9/14/5
f 17/9/6 6/8/6 10/11/6 18/15/6
f 11/13/7 18/15/7 10/11/7 12/16/7
f 6/8/8 1/7/8 13/17/8
f 2/6/9 7/12/9 14/18/9
f 7/12/10 17/9/10 18/15/10 11/13/10
f 2/6/11 15/5/11 17/9/11 7/12/11
f 1/7/12 15/5/12 16/2/12 4/1/12
f 22/19/13 34/20/13 23/21/13 21/22/13
f 33/23/14 20/24/14 23/21/14 34/20/14
f 33/23/15 19/25/15 24/26/15 35/27/15
f 24/26/16 26/28/16 28/29/16
f 25/30/17 29/31/17 27/32/17
f 35/27/18 24/26/18 28/29/18 36/33/18
f 29/31/19 36/33/19 28/29/19 30/34/19
f 24/26/20 19/25/20 31/35/20
f 20/24/21 25/30/21 32/36/21
f 25/30/22 35/27/22 36/33/22 29/31/22
f 20/24/23 33/23/23 35/27/23 25/30/23
f 19/25/24 33/23/24 34/20/24 22/19/24
f 40/37/25 52/38/25 41/39/25 39/40/25
f 51/41/26 38/42/26 41/39/26 52/38/26
f 51/41/27 37/43/27 42/44/27 53/45/27
f 42/44/28 44/46/28 46/47/28
f 43/48/29 47/49/29 45/50/29
f 53/45/30 42/44/30 46/47/30 54/51/30
f 47/49/31 54/51/31 46/47/31 48/52/31
f 42/44/32 37/43/32 49/53/32
f 38/42/33 43/48/33 50/54/33
f 43/48/34 53/45/34 54/51/34 47/49/34
f 38/42/35 51/41/35 53/45/35 43/48/35
f 37/43/36 51/41/36 52/38/36 40/37/36
f 58/55/37 70/56/37 59/57/37 57/58/37
f 69/59/38 56/60/38 59/57/38 70/56/38
f 69/59/39 55/61/39 60/62/39 71/63/39
f 60/62/40 62/64/40 64/65/40
f 61/66/41 65/67/41 63/68/41
f 71/63/42 60/62/42 64/65/42 72/69/42
f 65/67/43 72/69/43 64/65/43 66/70/43
f 60/62/44 55/61/44 67/71/44
f 56/60/45 61/66/45 68/72/45
f 61/66/46 71/63/46 72/69/46 65/67/46
f 56/60/47 69/59/47 71/63/47 61/66/47
f 55/61/48 69/59/48 70/56/48 58/55/48
f 75/73/49 77/74/49 88/75/49 76/76/49
f 88/75/50 77/74/50 74/77/50 87/78/50
f 89/79/51 78/80/51 73/81/51 87/78/51
f 82/82/52 80/83/52 78/80/52
f 81/84/53 83/85/53 79/86/53
f 90/87/54 82/82/54 78/80/54 89/79/54
f 84/88/55 82/82/55 90/87/55 83/85/55
f 85/89/56 73/81/56 78/80/56
f 86/90/57 79/86/57 74/77/57
f 83/85/58 90/87/58 89/79/58 79/86/58
f 79/86/59 89/79/59 87/78/59 74/77/59
f 76/76/60 88/75/60 87/78/60 73/81/60
f 93/91/61 95/92/61 106/93/61 94/94/61
f 106/93/62 95/92/62 92/95/62 105/96/62
f 107/97/63 96/98/63 91/99/63 105/96/63
f 100/100/64 98/101/64 96/98/64
f 99/102/65 101/103/65 97/104/65
f 108/105/66 100/100/66 96/98/66 107/97/66
f 102/106/67 100/100/67 108/105/67 101/103/67
f 103/107/68 91/99/68 96/98/68
f 104/108/69 97/104/69 92/95/69
f 101/103/70 108/105/70 107/97/70 97/104/70
f 97/104/71 107/97/71 105/96/71 92/95/71
f 94/94/72 106/93/72 105/96/72 91/99/72
f 111/109/73 113/110/73 124/111/73 112/112/73
f 124/111/74 113/110/74 110/113/74 123/114/74
f 125/115/75 114/116/75 109/117/75 123/114/75
f 118/118/76 116/119/76 114/116/76
f 117/120/77 119/121/77 115/122/77
f 126/123/78 118/118/78 114/116/78 125/115/78
f 120/124/79 118/118/79 126/123/79 119/121/79
f 121/125/80 109/117/80 114/116/80
f 122/126/81 115/122/81 110/113/81
f 119/121/82 126/123/82 125/115/82 115/122/82
f 115/122/83 125/115/83 123/114/83 110/113/83
f 112/112/84 124/111/84 123/114/84 109/117/84
f 129/127/85 131/128/85 142/129/85 130/130/85
f 142/129/86 131/128/86 128/131/86 141/132/86
f 143/133/87 132/134/87 127/135/87 141/132/87
f 136/136/88 134/137/88 132/134/88
f 135/138/89 137/139/89 133/140/89
f 144/141/90 136/136/90 132/134/90 143/133/90
f 138/142/91 136/136/91 144/141/91 137/139/91
f 139/143/92 127/135/92 132/134/92
f 140/144/93 133/140/93 128/131/93
f 137/139/94 144/141/94 143/133/94 133/140/94
f 133/140/95 143/133/95 141/132/95 128/131/95
f 130/130/96 142/129/96 141/132/96 127/135/96
f 148/145/97 160/146/97 149/147/97 147/148/97
f 159/149/98 146/150/98 149/147/98 160/146/98
f 159/149/99 145/151/99 150/152/99 161/153/99
f 150/152/100 152/154/100 154/155/100
f 151/156/101 155/157/101 153/158/101
f 161/153/102 150/152/102 154/155/102 162/159/102
f 155/157/103 162/159/103 154/155/103 156/160/103
f 150/152/104 145/151/104 157/161/104
f 146/150/105 151/156/105 158/162/105
f 151/156/106 161/153/106 162/159/106 155/157/106
f 146/150/107 159/149/107 161/153/107 151/156/107
f 145/151/108 159/149/108 160/146/108 148/145/108
f 165/163/109 167/164/109 178/165/109 166/166/109
f 178/165/110 167/164/110 164/167/110 177/168/110
f 179/169/111 168/170/111 163/171/111 177/168/111
f 172/172/112 170/173/112 168/170/112
f 171/174/113 173/175/113 169/176/113
f 180/177/114 172/172/114 168/170/114 179/169/114
f 174/178/115 172/172/115 180/177/115 173/175/115
f 175/179/116 163/171/116 168/170/116
f 176/180/117 169/176/117 164/167/117
f 173/175/118 180/177/118 179/169/118 169/176/118
f 169/176/119 179/169/119 177/168/119 164/167/119
f 166/166/120 178/165/120 177/168/120 163/171/120
f 185/181/121 182/182/121 183/183/121 186/184/121
f 184/185/122 181/186/122 182/182/122 185/181/122
f 182/187/123 181/188/123 183/189/123
f 186/184/124 183/183/124 181/190/124 184/191/124
f 187/192/125 190/193/125 192/194/125 189/195/125
f 189/196/126 192/197/126 191/198/126 188/199/126
f 188/199/127 191/198/127 190/193/127 187/192/127
f 191/200/128 192/201/128 190/202/128
f 197/203/129 194/204/129 195/205/129 198/206/129
f 196/207/130 193/208/130 194/204/130 197/203/130
f 194/209/131 193/210/131 195/211/131
f 198/206/132 195/205/132 193/212/132 196/213/132
f 199/214/133 202/215/133 204/216/133 201/217/133
f 201/218/134 204/219/134 203/220/134 200/221/134
f 200/221/135 203/220/135 202/215/135 199/214/135
f 202/215/136 205/222/136 207/223/136 204/216/136
f 204/219/137 207/224/137 206/225/137 203/220/137
f 203/220/138 206/225/138 205/222/138 202/215/138
f 206/226/139 207/227/139 205/228/139
f 208/229/140 211/230/140 213/231/140 210/232/140
f 210/233/141 213/234/141 212/235/141 209/236/141
f 209/236/142 212/235/142 211/230/142 208/229/142
f 212/237/143 213/238/143 211/239/143
f 226/240/144 218/241/144 217/242/144 225/243/144
f 230/244/145 216/245/145 215/246/145 229/247/145
f 232/248/146 214/249/146 218/241/146 226/240/146
f 225/243/147 217/242/147 216/250/147 230/251/147
f 229/247/148 215/246/148 214/249/148 232/248/148
f 236/252/149 235/253/149 223/254/149 222/255/149
f 240/256/150 239/257/150 221/258/150 220/259/150
f 235/253/151 243/260/151 219/261/151 223/254/151
f 239/262/152 236/252/152 222/255/152 221/263/152
f 243/260/153 240/256/153 220/259/153 219/261/153
f 228/264/154 229/265/154 232/266/154 233/267/154
f 224/268/155 225/269/155 230/270/155 231/271/155
f 233/267/156 232/266/156 226/272/156 227/273/156
f 231/274/157 230/275/157 229/265/157 228/264/157
f 227/273/158 226/272/158 225/269/158 224/268/158
f 214/249/159 215/246/159 241/276/159 242/277/159
f 242/278/160 241/279/160 240/256/160 243/260/160
f 216/250/161 217/242/161 237/280/161 238/281/161
f 238/282/162 237/283/162 236/252/162 239/262/162
f 218/241/163 214/249/163 242/277/163 234/284/163
f 234/285/164 242/278/164 243/260/164 235/253/164
f 215/246/165 216/245/165 238/286/165 241/276/165
f 241/279/166 238/287/166 239/257/166 240/256/166
f 217/242/167 218/241/167 234/284/167 237/280/167
f 237/283/168 234/285/168 235/253/168 236/252/168
f 221/288/169 222/289/169 223/290/169 219/291/169
f 220/292/170 221/288/170 219/291/170
f 228/293/171 233/294/171 227/295/171
f 231/296/172 228/293/172 224/297/172
f 245/298/173 249/299/173 250/300/173 244/301/173
f 247/302/174 251/303/174 252/304/174 246/305/174
f 244/301/175 250/300/175 253/306/175 248/307/175
f 246/308/176 252/309/176 249/299/176 245/298/176
f 248/307/177 253/306/177 251/303/177 247/302/177
f 252/310/178 251/311/178 253/312/178
f 249/313/179 252/310/179 253/312/179
f 250/314/180 249/313/180 253/312/180
f 224/297/181 228/293/181 227/295/181
