# Blender v2.78 (sub 0) OBJ File: 'Low_Poly_Trees_Pack.blend'
# www.blender.org
g Dead_Pine_Tree_crk_l_09
v 4.205920 0.121630 2.158528
v 3.849460 0.425624 2.250637
v 4.206939 0.161250 3.264173
v 4.217177 0.161378 2.713514
v 4.058133 0.304579 2.753637
v 4.186200 0.143111 1.471503
v 3.585715 0.617293 1.608611
v 4.086149 0.082668 0.955945
v 3.373031 0.633450 1.092932
v 3.914186 0.358677 1.002962
v 3.607363 0.453034 1.046538
v 3.695992 0.430830 0.556946
v 4.344615 0.009124 1.728131
v 3.448910 0.590078 1.900720
v 4.054034 0.304039 2.204847
v 4.106550 0.261335 2.522003
v 3.908574 0.415130 1.540534
v 3.850141 0.458089 1.236606
v 5.326774 0.486237 4.379482
v 5.121272 0.456156 4.757401
v 6.158317 0.253835 4.964590
v 5.739445 0.421655 4.683486
v 5.646105 0.356504 4.859223
v 4.782503 0.577400 4.026104
v 4.458381 0.524037 4.642711
v 4.323922 0.560088 3.757992
v 4.001462 0.333246 4.444013
v 4.204841 0.616283 4.056182
v 4.069282 0.527012 4.306086
v 3.759666 0.538271 3.983535
v 5.094153 0.398833 3.945371
v 4.610662 0.323163 4.817196
v 5.227656 0.508438 4.583953
v 5.506999 0.421834 4.695511
v 4.621676 0.590309 4.352535
v 4.341208 0.618146 4.258472
v 7.694467 0.103878 5.410300
v 7.512747 0.097058 5.243888
v 7.220531 0.150996 5.745188
v 7.447545 0.127715 5.571529
v 7.364668 0.125119 5.495880
v 8.021367 0.155891 5.215122
v 7.715147 0.137154 4.958328
v 8.249269 0.177990 5.019718
v 7.880843 0.148029 4.732501
v 8.117896 0.218982 4.937307
v 8.009222 0.153764 4.829226
v 8.205816 0.259421 4.692870
v 7.984921 0.081160 5.360532
v 7.562472 0.061762 4.977197
v 7.600254 0.118726 5.330935
v 7.480818 0.119523 5.449584
v 7.867589 0.161744 5.093216
v 7.979748 0.200120 4.978219
v 4.205648 0.121405 2.158533
v 3.849279 0.425323 2.250616
v 4.206699 0.160991 3.264168
v 4.216934 0.161124 2.713512
v 4.057905 0.304311 2.753633
v 4.185926 0.142891 1.471521
v 3.585566 0.616974 1.608614
v 4.085864 0.082477 0.956021
v 3.372830 0.633170 1.093004
v 3.913996 0.358385 1.003006
v 3.607229 0.452713 1.046587
v 3.695893 0.430494 0.556982
v 4.344295 0.008980 1.728130
v 3.448829 0.589743 1.900646
v 4.053805 0.303772 2.204844
v 4.106317 0.261071 2.522008
v 3.908368 0.414846 1.540546
v 3.849967 0.457785 1.236642
v 5.326712 0.485888 4.379390
v 5.121261 0.455837 4.757210
v 6.158281 0.253515 4.964446
v 5.739408 0.421327 4.683352
v 5.646077 0.356188 4.859073
v 4.782441 0.577037 4.026033
v 4.458405 0.523733 4.642513
v 4.323895 0.559739 3.757979
v 4.001501 0.332945 4.443892
v 4.204860 0.615918 4.056039
v 4.069343 0.526745 4.305897
v 3.759734 0.538006 3.983312
v 5.094028 0.398504 3.945358
v 4.610669 0.322936 4.816921
v 5.227624 0.508091 4.583811
v 5.506971 0.421502 4.695372
v 4.621665 0.589953 4.352390
v 4.341234 0.617790 4.258311
v 7.694458 0.103530 5.410250
v 7.512808 0.096713 5.243916
v 7.220519 0.150645 5.745214
v 7.447530 0.127365 5.571549
v 7.364663 0.124769 5.495909
v 8.021366 0.155551 5.215031
v 7.715231 0.136814 4.958359
v 8.249223 0.177654 5.019627
v 7.880862 0.147679 4.732497
v 8.117964 0.218637 4.937289
v 8.009318 0.153427 4.829262
v 8.205960 0.259102 4.692917
v 7.984868 0.080856 5.360363
v 7.562632 0.061456 4.977266
v 7.600271 0.118375 5.330932
v 7.480814 0.119172 5.449604
v 7.867637 0.161396 5.093200
v 7.979820 0.199775 4.978218
v 8.299404 0.175162 6.972267
v 8.327359 0.093913 7.124185
v 8.704313 0.151307 6.988464
v 8.502759 0.167179 6.989344
v 8.515985 0.130004 7.058858
v 8.044950 0.204730 6.945624
v 8.085117 0.072645 7.194062
v 7.849780 0.184456 6.916278
v 7.892493 0.029415 7.209298
v 7.866885 0.171077 7.027146
v 7.878009 0.082942 7.105903
v 7.700384 0.124861 7.077719
v 8.132438 0.193357 6.869774
v 8.188584 0.005083 7.223312
v 8.314356 0.147522 7.054601
v 8.431496 0.147618 7.037987
v 8.065848 0.152459 7.073794
v 7.952948 0.155971 7.078551
v 8.299395 0.174981 6.972210
v 8.327344 0.093763 7.124071
v 8.704299 0.151138 6.988379
v 8.502750 0.167008 6.989262
v 8.515971 0.129839 7.058767
v 8.044944 0.204546 6.945578
v 8.085116 0.072501 7.193940
v 7.849805 0.184268 6.916252
v 7.892524 0.029249 7.209208
v 7.866899 0.170913 7.027050
v 7.878032 0.082804 7.105775
v 7.700400 0.124736 7.077578
v 8.132418 0.193169 6.869777
v 8.188552 0.004970 7.223162
v 8.314346 0.147353 7.054512
v 8.431487 0.147451 7.037899
v 8.065849 0.152294 7.073701
v 7.952963 0.155816 7.078444
v 10.446157 0.197179 8.314803
v 10.304249 0.183691 8.445446
v 10.714371 0.092973 8.683462
v 10.577291 0.168221 8.503543
v 10.512244 0.139009 8.564615
v 10.266319 0.238055 8.086063
v 10.039527 0.214128 8.300835
v 10.110506 0.230293 7.905913
v 9.874373 0.128580 8.150381
v 10.016813 0.255490 8.015225
v 9.923119 0.215462 8.101663
v 9.838403 0.220510 7.919967
v 10.410262 0.157989 8.096906
v 10.078900 0.124059 8.396922
v 10.374501 0.207134 8.387234
v 10.476905 0.168302 8.475006
v 10.150823 0.243844 8.201321
v 10.045408 0.256325 8.120811
v 10.446143 0.197023 8.314754
v 10.304274 0.183548 8.445363
v 10.714377 0.092830 8.683396
v 10.577294 0.168075 8.503481
v 10.512256 0.138867 8.564548
v 10.266303 0.237893 8.086025
v 10.039566 0.213992 8.300755
v 10.110497 0.230136 7.905902
v 9.874407 0.128445 8.150335
v 10.016843 0.255326 8.015168
v 9.923171 0.215342 8.101591
v 9.838463 0.220391 7.919882
v 10.410212 0.157841 8.096882
v 10.078942 0.123957 8.396807
v 10.374507 0.206978 8.387170
v 10.476912 0.168153 8.474941
v 10.150840 0.243684 8.201259
v 10.045444 0.256165 8.120746
v -0.069768 0.000000 -0.344106
v -0.329252 0.000000 -0.024387
v -0.097469 0.000000 0.322780
v 0.318633 0.000000 0.208148
v 0.305002 0.000000 -0.193610
v 0.311806 1.799479 -0.215187
v -0.064308 1.779339 0.251932
v -0.014714 1.742644 -0.354895
v 0.311536 1.778015 0.149703
v -0.246045 1.788445 -0.066166
v 5.760671 0.125930 3.440327
v 5.764985 0.124617 3.468295
v 5.760593 0.149862 3.455798
v 4.917129 0.088476 3.819788
v 4.955768 0.086025 3.889421
v 4.931324 0.155857 3.859863
v 7.320467 -0.000226 6.542661
v 7.355813 0.062258 6.559318
v 7.284885 0.064228 6.539410
v 7.133340 -0.010304 7.104712
v 7.152069 0.022718 7.111273
v 7.114241 0.023127 7.105399
v 3.407067 0.268076 2.816123
v 3.465693 0.319158 2.798767
v 3.391779 0.332893 2.772390
v 3.298829 0.813581 3.552126
v 3.320302 0.829313 3.541917
v 3.293828 0.839361 3.541060
v 8.793767 0.198655 7.055814
v 8.742919 0.101741 7.115618
v 8.784879 -0.002845 7.062181
v 8.861659 0.029431 6.969351
v 8.867154 0.153965 6.965416
v 14.851162 -0.004219 12.191195
v 14.811732 -0.024681 12.173100
v 14.798090 -0.047821 12.128622
v 14.809813 -0.039979 12.101234
v 14.862001 -0.012053 12.151147
v 3.225296 0.063943 2.241438
v 5.998556 -0.012321 4.680926
v 6.072274 0.242229 4.685924
v 3.271028 0.391329 2.260642
v 2.947119 0.262834 2.617638
v 5.759112 0.152703 4.876561
v 5.897489 -0.057245 4.816502
v 3.013454 -0.025911 2.501714
v 5.956557 0.343719 4.821254
v 3.008025 0.521834 2.404773
v 10.933453 0.104654 8.761988
v 12.952953 0.132212 10.425022
v 12.902155 0.058490 10.379249
v 10.890770 0.026440 8.736547
v 10.822329 0.000134 8.809013
v 12.893040 0.049797 10.429703
v 12.803776 0.093703 10.464495
v 10.789968 0.059710 8.862423
v 10.871017 0.131130 8.816137
v 12.944883 0.153222 10.497887
v 1.875680 0.395039 1.124146
v 1.616414 -0.071751 1.397927
v 1.626110 0.535532 1.341724
v 1.854956 0.030487 1.107485
v 1.511605 0.246188 1.547017
vt 0.9310 0.3459
vt 0.9351 0.3377
vt 0.9393 0.3459
vt 0.9351 0.3666
vt 0.9351 0.3253
vt 0.9443 0.3253
vt 0.9260 0.3253
vt 0.9203 0.2989
vt 0.9351 0.2989
vt 0.9177 0.2787
vt 0.9293 0.2787
vt 0.9500 0.2989
vt 0.9410 0.2787
vt 0.9526 0.2787
vt 0.9351 0.2870
vt 0.9351 0.2606
vt 0.9139 0.3096
vt 0.9564 0.3091
vt 0.9310 0.3459
vt 0.9351 0.3377
vt 0.9393 0.3459
vt 0.9351 0.3666
vt 0.9351 0.3253
vt 0.9443 0.3253
vt 0.9260 0.3253
vt 0.9203 0.2989
vt 0.9351 0.2989
vt 0.9177 0.2787
vt 0.9293 0.2787
vt 0.9500 0.2989
vt 0.9410 0.2787
vt 0.9526 0.2787
vt 0.9351 0.2870
vt 0.9351 0.2606
vt 0.9139 0.3096
vt 0.9564 0.3091
vt 0.9310 0.3459
vt 0.9351 0.3377
vt 0.9393 0.3459
vt 0.9351 0.3666
vt 0.9351 0.3253
vt 0.9443 0.3253
vt 0.9260 0.3253
vt 0.9203 0.2989
vt 0.9351 0.2989
vt 0.9177 0.2787
vt 0.9293 0.2787
vt 0.9500 0.2989
vt 0.9410 0.2787
vt 0.9526 0.2787
vt 0.9351 0.2870
vt 0.9351 0.2606
vt 0.9139 0.3096
vt 0.9564 0.3091
vt 0.9351 0.3666
vt 0.9393 0.3459
vt 0.9351 0.3377
vt 0.9310 0.3459
vt 0.9443 0.3253
vt 0.9351 0.3253
vt 0.9351 0.2989
vt 0.9203 0.2989
vt 0.9260 0.3253
vt 0.9293 0.2787
vt 0.9177 0.2787
vt 0.9526 0.2787
vt 0.9410 0.2787
vt 0.9500 0.2989
vt 0.9351 0.2870
vt 0.9351 0.2606
vt 0.9139 0.3096
vt 0.9564 0.3091
vt 0.9351 0.3666
vt 0.9393 0.3459
vt 0.9351 0.3377
vt 0.9310 0.3459
vt 0.9443 0.3253
vt 0.9351 0.3253
vt 0.9351 0.2989
vt 0.9203 0.2989
vt 0.9260 0.3253
vt 0.9293 0.2787
vt 0.9177 0.2787
vt 0.9526 0.2787
vt 0.9410 0.2787
vt 0.9500 0.2989
vt 0.9351 0.2870
vt 0.9351 0.2606
vt 0.9139 0.3096
vt 0.9564 0.3091
vt 0.9351 0.3666
vt 0.9393 0.3459
vt 0.9351 0.3377
vt 0.9310 0.3459
vt 0.9443 0.3253
vt 0.9351 0.3253
vt 0.9351 0.2989
vt 0.9203 0.2989
vt 0.9260 0.3253
vt 0.9293 0.2787
vt 0.9177 0.2787
vt 0.9526 0.2787
vt 0.9410 0.2787
vt 0.9500 0.2989
vt 0.9351 0.2870
vt 0.9351 0.2606
vt 0.9139 0.3096
vt 0.9564 0.3091
vt 0.9310 0.3459
vt 0.9351 0.3377
vt 0.9393 0.3459
vt 0.9351 0.3666
vt 0.9351 0.3253
vt 0.9443 0.3253
vt 0.9260 0.3253
vt 0.9203 0.2989
vt 0.9351 0.2989
vt 0.9177 0.2787
vt 0.9293 0.2787
vt 0.9500 0.2989
vt 0.9410 0.2787
vt 0.9526 0.2787
vt 0.9351 0.2870
vt 0.9351 0.2606
vt 0.9139 0.3096
vt 0.9564 0.3091
vt 0.9351 0.3666
vt 0.9393 0.3459
vt 0.9351 0.3377
vt 0.9310 0.3459
vt 0.9443 0.3253
vt 0.9351 0.3253
vt 0.9351 0.2989
vt 0.9203 0.2989
vt 0.9260 0.3253
vt 0.9293 0.2787
vt 0.9177 0.2787
vt 0.9526 0.2787
vt 0.9410 0.2787
vt 0.9500 0.2989
vt 0.9351 0.2870
vt 0.9351 0.2606
vt 0.9139 0.3096
vt 0.9564 0.3091
vt 0.9310 0.3459
vt 0.9351 0.3377
vt 0.9393 0.3459
vt 0.9351 0.3666
vt 0.9351 0.3253
vt 0.9443 0.3253
vt 0.9260 0.3253
vt 0.9203 0.2989
vt 0.9351 0.2989
vt 0.9177 0.2787
vt 0.9293 0.2787
vt 0.9500 0.2989
vt 0.9410 0.2787
vt 0.9526 0.2787
vt 0.9351 0.2870
vt 0.9351 0.2606
vt 0.9139 0.3096
vt 0.9564 0.3091
vt 0.9351 0.3666
vt 0.9393 0.3459
vt 0.9351 0.3377
vt 0.9310 0.3459
vt 0.9443 0.3253
vt 0.9351 0.3253
vt 0.9351 0.2989
vt 0.9203 0.2989
vt 0.9260 0.3253
vt 0.9293 0.2787
vt 0.9177 0.2787
vt 0.9526 0.2787
vt 0.9410 0.2787
vt 0.9500 0.2989
vt 0.9351 0.2870
vt 0.9351 0.2606
vt 0.9139 0.3096
vt 0.9564 0.3091
vt 0.9046 0.9430
vt 0.9046 0.9697
vt 0.8992 0.9693
vt 0.8986 0.9429
vt 0.9229 0.9433
vt 0.9208 0.9697
vt 0.9154 0.9696
vt 0.9167 0.9430
vt 0.9106 0.9430
vt 0.9099 0.9689
vt 0.8934 0.9694
vt 0.8922 0.9430
vt 0.8123 0.8118
vt 0.7962 0.8248
vt 0.7790 0.8119
vt 0.7843 0.7914
vt 0.8067 0.7914
vt 0.9680 0.9164
vt 0.9565 0.9160
vt 0.9565 0.9157
vt 0.9681 0.9154
vt 0.9680 0.9174
vt 0.9564 0.9164
vt 0.9564 0.9322
vt 0.9566 0.9319
vt 0.9568 0.9322
vt 0.9564 0.9153
vt 0.9680 0.9144
vt 0.9564 0.9194
vt 0.9645 0.9191
vt 0.9646 0.9197
vt 0.9565 0.9204
vt 0.9565 0.9174
vt 0.9646 0.9181
vt 0.9644 0.9186
vt 0.9564 0.9184
vt 0.9564 0.9300
vt 0.9567 0.9295
vt 0.9569 0.9300
vt 0.9564 0.9103
vt 0.9680 0.9100
vt 0.9681 0.9103
vt 0.9565 0.9113
vt 0.9565 0.9083
vt 0.9681 0.9093
vt 0.9680 0.9096
vt 0.9565 0.9093
vt 0.9564 0.9318
vt 0.9566 0.9315
vt 0.9568 0.9318
vt 0.9864 0.9325
vt 0.9329 0.9306
vt 0.9329 0.9288
vt 0.9874 0.9287
vt 0.9864 0.9429
vt 0.9325 0.9362
vt 0.9326 0.9343
vt 0.9879 0.9394
vt 0.9864 0.9355
vt 0.9328 0.9325
vt 0.9329 0.9269
vt 0.9873 0.9261
vt 0.9307 0.9716
vt 0.9298 0.9727
vt 0.8925 0.9733
vt 0.8939 0.9727
vt 0.9310 0.9749
vt 0.9303 0.9763
vt 0.8939 0.9753
vt 0.8932 0.9746
vt 0.9292 0.9736
vt 0.8922 0.9740
vt 0.9303 0.9709
vt 0.8937 0.9720
vt 0.9736 0.9206
vt 0.9470 0.9182
vt 0.9487 0.9134
vt 0.9745 0.9151
vt 0.8936 0.9139
vt 0.8923 0.9100
vt 0.9744 0.9043
vt 0.9480 0.9040
vt 0.9480 0.8988
vt 0.9745 0.8985
vt 0.8932 0.9030
vt 0.8930 0.9004
vt 0.9472 0.9088
vt 0.9738 0.9097
vt 0.8923 0.9069
vt 0.9732 0.9260
vt 0.9469 0.9229
vt 0.8922 0.9175
vt 0.8927 0.9317
vt 0.8923 0.9300
vt 0.9683 0.9737
vt 0.9688 0.9753
vt 0.8930 0.9276
vt 0.8931 0.9261
vt 0.9689 0.9697
vt 0.9688 0.9713
vt 0.8922 0.9287
vt 0.9680 0.9724
vt 0.8927 0.9330
vt 0.9689 0.9766
vt 0.9410 0.9442
vt 0.9406 0.9445
vt 0.9401 0.9434
vt 0.9405 0.9429
vt 0.9410 0.9434
vt 0.8124 0.8118
vt 0.8179 0.7914
vt 0.8404 0.7914
vt 0.8457 0.8119
vt 0.8285 0.8248
vn 0.6704 0.7419 0.0094
vn 0.5421 0.8403 -0.0049
vn 0.7239 0.6895 -0.0208
vn 0.8105 0.5426 -0.2209
vn 0.5700 0.7943 -0.2102
vn 0.7067 0.7044 -0.0666
vn 0.2792 0.9548 -0.1016
vn 0.6404 0.7680 0.0056
vn 0.2232 0.9554 0.1935
vn 0.3533 0.9243 -0.1445
vn 0.5278 0.8488 0.0314
vn 0.7446 0.6654 -0.0522
vn 0.0791 0.9203 0.3832
vn 0.1341 0.9396 0.3148
vn 0.1458 0.9893 0.0060
vn 0.0578 0.9850 -0.1625
vn -0.5162 0.6092 0.6020
vn 0.0793 0.9966 -0.0242
vn -0.2313 0.9491 0.2136
vn 0.3854 0.8426 -0.3761
vn -0.0710 0.6229 0.7791
vn -0.1322 0.9527 0.2736
vn 0.0401 0.9622 0.2694
vn 0.1436 0.9825 0.1183
vn 0.0364 0.9966 -0.0741
vn -0.0549 0.9916 -0.1168
vn -0.0442 0.9868 0.1559
vn 0.1330 0.9555 0.2632
vn -0.0521 0.9986 0.0099
vn -0.0988 0.9749 0.1994
vn -0.4075 0.9031 -0.1352
vn 0.1500 0.8636 0.4814
vn -0.4536 0.8686 -0.1995
vn -0.2186 0.9648 -0.1464
vn -0.1825 0.9832 -0.0076
vn 0.0749 0.9971 0.0103
vn -0.6704 -0.7419 -0.0094
vn -0.5421 -0.8403 0.0049
vn -0.7240 -0.6895 0.0208
vn -0.8105 -0.5425 0.2209
vn -0.5699 -0.7944 0.2102
vn -0.7067 -0.7043 0.0666
vn -0.2792 -0.9548 0.1016
vn -0.6403 -0.7681 -0.0056
vn -0.2231 -0.9554 -0.1936
vn -0.3532 -0.9243 0.1445
vn -0.5278 -0.8488 -0.0314
vn -0.7446 -0.6654 0.0522
vn -0.0791 -0.9203 -0.3832
vn -0.1341 -0.9397 -0.3147
vn -0.1458 -0.9893 -0.0059
vn -0.0579 -0.9850 0.1625
vn 0.5161 -0.6093 -0.6020
vn -0.0793 -0.9966 0.0242
vn 0.2312 -0.9492 -0.2134
vn -0.3854 -0.8426 0.3762
vn 0.0710 -0.6229 -0.7791
vn 0.1321 -0.9528 -0.2735
vn -0.0401 -0.9622 -0.2693
vn -0.1436 -0.9825 -0.1183
vn -0.0364 -0.9966 0.0741
vn 0.0549 -0.9916 0.1168
vn 0.0442 -0.9868 -0.1560
vn -0.1331 -0.9555 -0.2633
vn 0.0521 -0.9986 -0.0098
vn 0.0987 -0.9749 -0.1994
vn 0.4076 -0.9031 0.1353
vn -0.1501 -0.8635 -0.4815
vn 0.4536 -0.8685 0.1996
vn 0.2186 -0.9648 0.1465
vn 0.1825 -0.9832 0.0076
vn -0.0749 -0.9971 -0.0103
vn 0.0715 0.8852 0.4598
vn 0.0585 0.8140 0.5779
vn 0.0591 0.9366 0.3455
vn -0.1228 0.9829 0.1375
vn -0.1575 0.8678 0.4713
vn 0.0061 0.9374 0.3481
vn -0.0835 0.6581 0.7483
vn 0.1169 0.9930 -0.0141
vn 0.1722 0.6015 0.7801
vn -0.1475 0.7144 0.6840
vn 0.0752 0.8218 0.5648
vn 0.0226 0.9374 0.3475
vn -0.0715 -0.8852 -0.4597
vn -0.0585 -0.8140 -0.5779
vn -0.0591 -0.9366 -0.3455
vn 0.1228 -0.9829 -0.1374
vn 0.1575 -0.8678 -0.4714
vn -0.0061 -0.9375 -0.3481
vn 0.0835 -0.6581 -0.7483
vn -0.1169 -0.9930 0.0142
vn -0.1722 -0.6014 -0.7802
vn 0.1475 -0.7144 -0.6841
vn -0.0752 -0.8218 -0.5648
vn -0.0226 -0.9374 -0.3475
vn -0.0488 0.9203 0.3882
vn 0.0253 0.9396 0.3412
vn 0.1361 0.9893 0.0527
vn 0.1072 0.9850 -0.1352
vn -0.6829 0.6092 0.4032
vn 0.0828 0.9966 0.0027
vn -0.2879 0.9491 0.1275
vn 0.4862 0.8426 -0.2316
vn -0.3187 0.6229 0.7145
vn -0.2134 0.9527 0.2163
vn -0.0490 0.9622 0.2679
vn 0.0977 0.9825 0.1584
vn 0.0488 -0.9203 -0.3882
vn -0.0254 -0.9397 -0.3411
vn -0.1361 -0.9893 -0.0527
vn -0.1072 -0.9850 0.1352
vn 0.6828 -0.6093 -0.4032
vn -0.0829 -0.9966 -0.0027
vn 0.2877 -0.9492 -0.1274
vn -0.4862 -0.8426 0.2317
vn 0.3187 -0.6229 -0.7145
vn 0.2133 -0.9528 -0.2163
vn 0.0489 -0.9622 -0.2678
vn -0.0977 -0.9825 -0.1583
vn 0.9998 -0.0003 -0.0174
vn -0.8482 0.0443 0.5278
vn 0.3834 -0.0151 -0.9235
vn 0.2640 0.0331 0.9639
vn -0.7774 0.0211 -0.6287
vn -0.0366 0.9973 -0.0633
vn 0.0195 0.9981 0.0587
vn 0.3899 0.4688 0.7926
vn 0.0225 -0.9986 -0.0484
vn 0.9842 0.0984 -0.1472
vn -0.3693 0.5240 -0.7675
vn -0.8334 -0.4730 -0.2858
vn 0.0044 0.9973 0.0734
vn 0.8113 -0.5229 0.2614
vn -0.1537 -0.1080 0.9822
vn -0.9774 -0.2108 0.0134
vn 0.3247 0.8082 -0.4912
vn 0.6470 -0.5638 0.5133
vn 0.1271 0.4120 0.9023
vn 0.6224 -0.1279 -0.7722
vn -0.5123 -0.5359 0.6711
vn 0.3003 0.8955 -0.3284
vn 0.1695 -0.9661 -0.1945
vn -0.4547 0.6398 0.6196
vn 0.6709 0.0181 -0.7413
vn -0.3688 -0.8529 0.3695
vn 0.2535 0.9466 -0.1994
vn 0.1097 -0.9778 -0.1783
vn -0.4621 0.6660 0.5856
vn -0.4716 0.6251 0.6219
vn -0.4675 0.6349 0.6151
vn 0.1805 -0.9652 -0.1890
vn 0.1551 -0.9661 -0.2064
vn 0.2578 0.9123 -0.3182
vn 0.3160 0.8950 -0.3148
vn -0.5341 -0.4604 0.7090
vn -0.5596 -0.4705 0.6823
vn 0.6345 -0.0209 -0.7726
vn 0.6517 -0.1025 -0.7515
vn -0.4509 0.7013 0.5522
vn -0.4162 0.7560 0.5052
vn 0.1682 -0.9663 -0.1947
vn 0.1599 -0.9714 -0.1757
vn 0.2349 0.9412 -0.2427
vn 0.1916 0.9495 -0.2486
vn -0.5138 -0.6191 0.5938
vn -0.3518 -0.8114 0.4669
vn 0.6540 -0.0756 -0.7527
vn 0.6341 -0.0280 -0.7727
vn 0.4427 -0.8844 0.1480
vn 0.2880 -0.8829 0.3710
vn -0.7726 0.0583 -0.6322
vn -0.7058 -0.2024 -0.6789
s off
f 4/1/1 16/2/1 5/3/1 3/4/1
f 15/5/2 2/6/2 5/3/2 16/2/2
f 15/5/3 1/7/3 6/8/3 17/9/3
f 6/8/4 8/10/4 10/11/4
f 7/12/5 11/13/5 9/14/5
f 17/9/6 6/8/6 10/11/6 18/15/6
f 11/13/7 18/15/7 10/11/7 12/16/7
f 6/8/8 1/7/8 13/17/8
f 2/6/9 7/12/9 14/18/9
f 7/12/10 17/9/10 18/15/10 11/13/10
f 2/6/11 15/5/11 17/9/11 7/12/11
f 1/7/12 15/5/12 16/2/12 4/1/12
f 22/19/13 34/20/13 23/21/13 21/22/13
f 33/23/14 20/24/14 23/21/14 34/20/14
f 33/23/15 19/25/15 24/26/15 35/27/15
f 24/26/16 26/28/16 28/29/16
f 25/30/17 29/31/17 27/32/17
f 35/27/18 24/26/18 28/29/18 36/33/18
f 29/31/19 36/33/19 28/29/19 30/34/19
f 24/26/20 19/25/20 31/35/20
f 20/24/21 25/30/21 32/36/21
f 25/30/22 35/27/22 36/33/22 29/31/22
f 20/24/23 33/23/23 35/27/23 25/30/23
f 19/25/24 33/23/24 34/20/24 22/19/24
f 40/37/25 52/38/25 41/39/25 39/40/25
f 51/41/26 38/42/26 41/39/26 52/38/26
f 51/41/27 37/43/27 42/44/27 53/45/27
f 42/44/28 44/46/28 46/47/28
f 43/48/29 47/49/29 45/50/29
f 53/45/30 42/44/30 46/47/30 54/51/30
f 47/49/31 54/51/31 46/47/31 48/52/31
f 42/44/32 37/43/32 49/53/32
f 38/42/33 43/48/33 50/54/33
f 43/48/34 53/45/34 54/51/34 47/49/34
f 38/42/35 51/41/35 53/45/35 43/48/35
f 37/43/36 51/41/36 52/38/36 40/37/36
f 57/55/37 59/56/37 70/57/37 58/58/37
f 70/57/38 59/56/38 56/59/38 69/60/38
f 71/61/39 60/62/39 55/63/39 69/60/39
f 64/64/40 62/65/40 60/62/40
f 63/66/41 65/67/41 61/68/41
f 72/69/42 64/64/42 60/62/42 71/61/42
f 66/70/43 64/64/43 72/69/43 65/67/43
f 67/71/44 55/63/44 60/62/44
f 68/72/45 61/68/45 56/59/45
f 65/67/46 72/69/46 71/61/46 61/68/46
f 61/68/47 71/61/47 69/60/47 56/59/47
f 58/58/48 70/57/48 69/60/48 55/63/48
f 75/73/49 77/74/49 88/75/49 76/76/49
f 88/75/50 77/74/50 74/77/50 87/78/50
f 89/79/51 78/80/51 73/81/51 87/78/51
f 82/82/52 80/83/52 78/80/52
f 81/84/53 83/85/53 79/86/53
f 90/87/54 82/82/54 78/80/54 89/79/54
f 84/88/55 82/82/55 90/87/55 83/85/55
f 85/89/56 73/81/56 78/80/56
f 86/90/57 79/86/57 74/77/57
f 83/85/58 90/87/58 89/79/58 79/86/58
f 79/86/59 89/79/59 87/78/59 74/77/59
f 76/76/60 88/75/60 87/78/60 73/81/60
f 93/91/61 95/92/61 106/93/61 94/94/61
f 106/93/62 95/92/62 92/95/62 105/96/62
f 107/97/63 96/98/63 91/99/63 105/96/63
f 100/100/64 98/101/64 96/98/64
f 99/102/65 101/103/65 97/104/65
f 108/105/66 100/100/66 96/98/66 107/97/66
f 102/106/67 100/100/67 108/105/67 101/103/67
f 103/107/68 91/99/68 96/98/68
f 104/108/69 97/104/69 92/95/69
f 101/103/70 108/105/70 107/97/70 97/104/70
f 97/104/71 107/97/71 105/96/71 92/95/71
f 94/94/72 106/93/72 105/96/72 91/99/72
f 112/109/73 124/110/73 113/111/73 111/112/73
f 123/113/74 110/114/74 113/111/74 124/110/74
f 123/113/75 109/115/75 114/116/75 125/117/75
f 114/116/76 116/118/76 118/119/76
f 115/120/77 119/121/77 117/122/77
f 125/117/78 114/116/78 118/119/78 126/123/78
f 119/121/79 126/123/79 118/119/79 120/124/79
f 114/116/80 109/115/80 121/125/80
f 110/114/81 115/120/81 122/126/81
f 115/120/82 125/117/82 126/123/82 119/121/82
f 110/114/83 123/113/83 125/117/83 115/120/83
f 109/115/84 123/113/84 124/110/84 112/109/84
f 129/127/85 131/128/85 142/129/85 130/130/85
f 142/129/86 131/128/86 128/131/86 141/132/86
f 143/133/87 132/134/87 127/135/87 141/132/87
f 136/136/88 134/137/88 132/134/88
f 135/138/89 137/139/89 133/140/89
f 144/141/90 136/136/90 132/134/90 143/133/90
f 138/142/91 136/136/91 144/141/91 137/139/91
f 139/143/92 127/135/92 132/134/92
f 140/144/93 133/140/93 128/131/93
f 137/139/94 144/141/94 143/133/94 133/140/94
f 133/140/95 143/133/95 141/132/95 128/131/95
f 130/130/96 142/129/96 141/132/96 127/135/96
f 148/145/97 160/146/97 149/147/97 147/148/97
f 159/149/98 146/150/98 149/147/98 160/146/98
f 159/149/99 145/151/99 150/152/99 161/153/99
f 150/152/100 152/154/100 154/155/100
f 151/156/101 155/157/101 153/158/101
f 161/153/102 150/152/102 154/155/102 162/159/102
f 155/157/103 162/159/103 154/155/103 156/160/103
f 150/152/104 145/151/104 157/161/104
f 146/150/105 151/156/105 158/162/105
f 151/156/106 161/153/106 162/159/106 155/157/106
f 146/150/107 159/149/107 161/153/107 151/156/107
f 145/151/108 159/149/108 160/146/108 148/145/108
f 165/163/109 167/164/109 178/165/109 166/166/109
f 178/165/110 167/164/110 164/167/110 177/168/110
f 179/169/111 168/170/111 163/171/111 177/168/111
f 172/172/112 170/173/112 168/170/112
f 171/174/113 173/175/113 169/176/113
f 180/177/114 172/172/114 168/170/114 179/169/114
f 174/178/115 172/172/115 180/177/115 173/175/115
f 175/179/116 163/171/116 168/170/116
f 176/180/117 169/176/117 164/167/117
f 173/175/118 180/177/118 179/169/118 169/176/118
f 169/176/119 179/169/119 177/168/119 164/167/119
f 166/166/120 178/165/120 177/168/120 163/171/120
f 185/181/121 186/182/121 189/183/121 184/184/121
f 183/185/122 187/186/122 190/187/122 182/188/122
f 181/189/123 188/190/123 186/182/123 185/181/123
f 184/184/124 189/183/124 187/191/124 183/192/124
f 182/188/125 190/187/125 188/190/125 181/189/125
f 186/193/126 188/194/126 190/195/126 187/196/126
f 189/197/127 186/193/127 187/196/127
f 195/198/128 192/199/128 193/200/128 196/201/128
f 194/202/129 191/203/129 192/199/129 195/198/129
f 192/204/130 191/205/130 193/206/130
f 196/201/131 193/200/131 191/207/131 194/208/131
f 197/209/132 200/210/132 202/211/132 199/212/132
f 199/213/133 202/214/133 201/215/133 198/216/133
f 198/216/134 201/215/134 200/210/134 197/209/134
f 201/217/135 202/218/135 200/219/135
f 203/220/136 206/221/136 208/222/136 205/223/136
f 205/224/137 208/225/137 207/226/137 204/227/137
f 204/227/138 207/226/138 206/221/138 203/220/138
f 207/228/139 208/229/139 206/230/139
f 221/231/140 213/232/140 212/233/140 220/234/140
f 225/235/141 211/236/141 210/237/141 224/238/141
f 227/239/142 209/240/142 213/232/142 221/231/142
f 220/234/143 212/233/143 211/241/143 225/242/143
f 224/238/144 210/237/144 209/240/144 227/239/144
f 231/243/145 230/244/145 218/245/145 217/246/145
f 235/247/146 234/248/146 216/249/146 215/250/146
f 230/244/147 238/251/147 214/252/147 218/245/147
f 234/253/148 231/243/148 217/246/148 216/254/148
f 238/251/149 235/247/149 215/250/149 214/252/149
f 243/255/150 223/256/150 228/257/150 241/258/150
f 223/256/151 224/259/151 227/260/151 228/257/151
f 242/261/152 219/262/152 226/263/152 240/264/152
f 219/262/153 220/265/153 225/266/153 226/263/153
f 241/258/154 228/257/154 222/267/154 239/268/154
f 228/257/155 227/260/155 221/269/155 222/267/155
f 240/270/156 226/271/156 223/256/156 243/255/156
f 226/271/157 225/272/157 224/259/157 223/256/157
f 239/268/158 222/267/158 219/262/158 242/261/158
f 222/267/159 221/269/159 220/265/159 219/262/159
f 209/240/160 210/237/160 236/273/160 237/274/160
f 237/275/161 236/276/161 235/247/161 238/251/161
f 211/241/162 212/233/162 232/277/162 233/278/162
f 233/279/163 232/280/163 231/243/163 234/253/163
f 213/232/164 209/240/164 237/274/164 229/281/164
f 229/282/165 237/275/165 238/251/165 230/244/165
f 210/237/166 211/236/166 233/283/166 236/273/166
f 236/276/167 233/284/167 234/248/167 235/247/167
f 212/233/168 213/232/168 229/281/168 232/277/168
f 232/280/169 229/282/169 230/244/169 231/243/169
f 216/285/170 217/286/170 218/287/170 214/288/170
f 215/289/171 216/285/171 214/288/171
f 239/290/172 242/291/172 240/292/172 243/293/172
f 241/294/173 239/290/173 243/293/173
