# Blender v2.78 (sub 0) OBJ File: 'Low_Poly_Trees_Pack.blend'
# www.blender.org
g Dead_Pine_Tree_l_04
v 0.816777 9.226707 0.120387
v 0.813274 9.249494 -0.365035
v -0.077067 9.880265 -0.085739
v 0.380965 9.570754 0.007364
v 0.379368 9.581148 -0.214015
v 1.399111 8.832715 0.250202
v 1.393412 8.869791 -0.539561
v 1.782711 8.437407 0.297467
v 1.776024 8.480907 -0.629170
v 1.843833 8.546859 -0.007411
v 1.778253 8.466408 -0.320291
v 2.202036 8.226272 -0.179834
v 1.101448 8.886624 0.423459
v 1.105451 8.931418 -0.703167
v 0.837399 9.271634 -0.120911
v 0.562841 9.454370 -0.110351
v 1.418635 8.884787 -0.143266
v 1.682417 8.709226 -0.153412
v -0.701902 8.475756 -0.792095
v -0.979932 8.501079 -0.423079
v -0.095003 9.000934 -0.080759
v -0.411021 8.755949 -0.434356
v -0.537819 8.767497 -0.266064
v -1.097061 8.163733 -1.250302
v -1.549406 8.204932 -0.649926
v -1.391754 7.830050 -1.531239
v -1.922494 7.878392 -0.826812
v -1.605252 7.942703 -1.330619
v -1.745580 7.862278 -1.061621
v -2.002214 7.678894 -1.426998
v -0.768696 8.181640 -1.205178
v -1.423781 8.234043 -0.356224
v -0.853838 8.522513 -0.619661
v -0.626006 8.666153 -0.457862
v -1.336154 8.218428 -0.962189
v -1.555044 8.080425 -1.117638
v 0.687650 6.315526 1.581328
v 0.577237 6.492983 1.338417
v 0.219024 7.068716 0.550335
v 0.333947 6.884007 0.803170
v 0.981256 6.540118 0.831192
v -0.074339 6.494840 1.258482
v 0.911171 5.827358 2.057371
v 0.880446 6.070086 1.607146
v 0.612808 6.151407 1.788205
v 1.168578 6.084743 1.486886
v 0.304182 6.040773 1.847664
v 0.938358 6.477825 1.163200
v 0.201641 6.440350 1.470688
v 0.245817 7.196861 0.339018
v 0.039307 7.186357 0.425210
v -0.048824 7.499209 -0.038942
v 0.553117 6.861627 0.687199
v 0.100301 6.838593 0.876194
v -0.084850 13.476875 -0.453986
v -0.379390 13.493148 -0.383629
v -0.085573 13.915672 0.095084
v -0.092910 13.706692 -0.185369
v -0.227237 13.714112 -0.153282
v -0.087222 13.210836 -0.812160
v -0.566429 13.237306 -0.697691
v -0.111491 12.951136 -1.037988
v -0.673751 12.982204 -0.903683
v -0.305860 13.018460 -1.035488
v -0.486330 12.971847 -0.948451
v -0.460298 12.807080 -1.217247
v 0.060162 13.253963 -0.658069
v -0.625138 13.286272 -0.501859
v -0.234574 13.505133 -0.433735
v -0.189838 13.628390 -0.274964
v -0.329279 13.244191 -0.769854
v -0.372259 13.125770 -0.922394
v 0.063533 5.399255 -0.978114
v -0.478764 5.450744 -0.904018
v -0.003420 6.125756 0.066470
v 0.018277 5.782826 -0.466535
v -0.229041 5.806308 -0.432743
v 0.103919 4.962109 -1.657422
v -0.778379 5.045878 -1.536870
v 0.080046 4.522797 -2.101927
v -0.955162 4.621084 -1.960483
v -0.264254 4.664230 -2.124666
v -0.610093 4.588321 -2.007631
v -0.526551 4.320375 -2.507727
v 0.343577 5.006196 -1.347355
v -0.917235 5.116860 -1.189147
v -0.207344 5.463379 -0.965749
v -0.146118 5.662250 -0.655837
v -0.336959 5.042374 -1.621828
v -0.395781 4.851308 -1.919577
v 0.816589 9.226421 0.120315
v 0.813087 9.249204 -0.364988
v -0.077260 9.879976 -0.085752
v 0.380770 9.570467 0.007342
v 0.379173 9.580858 -0.214017
v 1.398920 8.832438 0.250111
v 1.393206 8.869517 -0.539495
v 1.782487 8.437174 0.297338
v 1.775775 8.480664 -0.629179
v 1.843604 8.546597 -0.007404
v 1.778017 8.466162 -0.320220
v 2.201814 8.226027 -0.179725
v 1.101303 8.886354 0.423293
v 1.105309 8.931135 -0.703023
v 0.837204 9.271345 -0.120923
v 0.562642 9.454084 -0.110363
v 1.418427 8.884508 -0.143267
v 1.682190 8.708962 -0.153382
v -0.701825 8.475452 -0.791941
v -0.979783 8.500769 -0.423020
v -0.094885 9.000624 -0.080650
v -0.410909 8.755641 -0.434238
v -0.537694 8.767188 -0.265961
v -1.096992 8.163438 -1.250130
v -1.549229 8.204637 -0.649869
v -1.391678 7.829794 -1.531015
v -1.922327 7.878123 -0.826668
v -1.605092 7.942416 -1.330502
v -1.745375 7.862007 -1.061548
v -2.001996 7.678625 -1.426964
v -0.768709 8.181357 -1.204975
v -1.423608 8.233744 -0.356268
v -0.853719 8.522205 -0.619551
v -0.625883 8.665848 -0.457748
v -1.336017 8.218127 -0.962079
v -1.554872 8.080139 -1.117539
v 0.687537 6.315263 1.581130
v 0.577159 6.492704 1.338224
v 0.218960 7.068430 0.550146
v 0.333884 6.883718 0.802984
v 0.981069 6.539834 0.831114
v -0.074241 6.494570 1.258284
v 0.910986 5.827113 2.057207
v 0.880291 6.069840 1.606954
v 0.612714 6.151145 1.787996
v 1.168493 6.084500 1.486651
v 0.304216 6.040539 1.847408
v 0.938219 6.477551 1.163034
v 0.201653 6.440073 1.470476
v 0.245745 7.196572 0.338837
v 0.039253 7.186068 0.425021
v -0.048886 7.498919 -0.039126
v 0.553003 6.861336 0.687044
v 0.100296 6.838309 0.875993
v -0.084875 13.476600 -0.453771
v -0.379300 13.492867 -0.383441
v -0.085539 13.915394 0.095290
v -0.092885 13.706415 -0.185159
v -0.227193 13.713835 -0.153076
v -0.087265 13.210571 -0.811938
v -0.566316 13.237044 -0.697491
v -0.111564 12.950916 -1.037727
v -0.673702 12.981976 -0.903425
v -0.305799 13.018211 -1.035252
v -0.486206 12.971614 -0.948223
v -0.460140 12.806849 -1.217042
v 0.060035 13.253703 -0.657875
v -0.624964 13.285996 -0.501738
v -0.234540 13.504855 -0.433527
v -0.189802 13.628117 -0.274751
v -0.329231 13.243923 -0.769636
v -0.372177 13.125519 -0.922166
v 0.063471 5.398970 -0.977923
v -0.478708 5.450448 -0.903843
v -0.003422 6.125463 0.066659
v 0.018266 5.782535 -0.466344
v -0.229033 5.806014 -0.432555
v 0.103839 4.961833 -1.657225
v -0.778301 5.045598 -1.536679
v 0.079935 4.522564 -2.101692
v -0.955152 4.620835 -1.960238
v -0.264231 4.663962 -2.124444
v -0.610005 4.588067 -2.007410
v -0.526427 4.320120 -2.507524
v 0.343418 5.005932 -1.347194
v -0.917089 5.116567 -1.189028
v -0.207345 5.463088 -0.965558
v -0.146119 5.661960 -0.655642
v -0.336947 5.042090 -1.621626
v -0.395736 4.851039 -1.919361
v -0.436738 6.035220 -0.842097
v -0.427651 6.055509 -0.826344
v -0.452156 6.044279 -0.821328
v -0.039246 5.640220 -0.150273
v -0.025286 5.711458 -0.125748
v -0.087916 5.674311 -0.101897
v -0.021900 7.677091 0.022505
v -0.068002 7.713362 -0.017275
v -0.085039 7.648941 0.006871
v -0.290535 7.889258 0.478022
v -0.314022 7.907069 0.455572
v -0.324406 7.875662 0.471739
v -0.264801 0.000000 0.209536
v 0.122314 0.000000 0.293020
v 0.319261 0.000000 -0.056813
v 0.039924 0.000000 -0.363852
v -0.298749 0.000000 -0.177387
v -0.176411 10.494678 -0.035622
v -0.059133 10.494678 -0.010465
v 0.001035 10.494678 -0.114229
v -0.079059 10.494678 -0.203516
v -0.188726 10.494678 -0.154935
v -0.036965 18.109161 0.419175
v -0.027018 18.091719 0.419308
v -0.023047 18.075628 0.405219
v -0.031348 18.072104 0.396002
v -0.041114 18.102079 0.403522
v -0.054162 3.419994 -0.300827
v 0.021635 6.970825 -0.203235
v -0.216070 7.025231 -0.128947
v -0.341683 3.461281 -0.170286
v -0.021750 3.440058 0.186631
v 0.012706 6.909972 0.128183
v 0.133551 6.979023 -0.077842
v 0.168872 3.422541 -0.052059
v -0.225627 7.020411 0.067873
v -0.331209 3.351959 0.124479
v -0.145608 13.127392 -0.009994
v -0.179454 15.624047 0.150275
v -0.138954 15.609802 0.127537
v -0.074711 13.081197 -0.037957
v -0.008808 13.074891 0.035851
v -0.102227 15.613706 0.170551
v -0.122230 15.605046 0.208460
v -0.033120 13.082618 0.114839
v -0.132708 13.113662 0.071314
v -0.174138 15.632453 0.190391
vt 0.8102 0.3459
vt 0.8144 0.3377
vt 0.8186 0.3459
vt 0.8144 0.3666
vt 0.8144 0.3253
vt 0.8235 0.3253
vt 0.8052 0.3253
vt 0.7995 0.2989
vt 0.8144 0.2989
vt 0.7969 0.2787
vt 0.8086 0.2787
vt 0.8293 0.2989
vt 0.8202 0.2787
vt 0.8318 0.2787
vt 0.8144 0.2870
vt 0.8144 0.2606
vt 0.7932 0.3096
vt 0.8356 0.3091
vt 0.6830 0.3459
vt 0.6872 0.3377
vt 0.6914 0.3459
vt 0.6872 0.3666
vt 0.6872 0.3253
vt 0.6963 0.3253
vt 0.6780 0.3253
vt 0.6723 0.2989
vt 0.6872 0.2989
vt 0.6697 0.2787
vt 0.6814 0.2787
vt 0.7021 0.2989
vt 0.6930 0.2787
vt 0.7046 0.2787
vt 0.6872 0.2870
vt 0.6872 0.2606
vt 0.6660 0.3096
vt 0.7084 0.3091
vt 0.8144 0.2989
vt 0.7995 0.2989
vt 0.8086 0.2787
vt 0.8144 0.2870
vt 0.8052 0.3253
vt 0.7932 0.3096
vt 0.8293 0.2989
vt 0.8202 0.2787
vt 0.8318 0.2787
vt 0.8144 0.3253
vt 0.7969 0.2787
vt 0.8102 0.3459
vt 0.8144 0.3377
vt 0.8186 0.3459
vt 0.8144 0.3666
vt 0.8235 0.3253
vt 0.8144 0.2606
vt 0.8356 0.3091
vt 0.9310 0.3459
vt 0.9351 0.3377
vt 0.9393 0.3459
vt 0.9351 0.3666
vt 0.9351 0.3253
vt 0.9443 0.3253
vt 0.9260 0.3253
vt 0.9203 0.2989
vt 0.9351 0.2989
vt 0.9177 0.2787
vt 0.9293 0.2787
vt 0.9500 0.2989
vt 0.9410 0.2787
vt 0.9526 0.2787
vt 0.9351 0.2870
vt 0.9351 0.2606
vt 0.9139 0.3096
vt 0.9564 0.3091
vt 0.9310 0.3459
vt 0.9351 0.3377
vt 0.9393 0.3459
vt 0.9351 0.3666
vt 0.9351 0.3253
vt 0.9443 0.3253
vt 0.9260 0.3253
vt 0.9203 0.2989
vt 0.9351 0.2989
vt 0.9177 0.2787
vt 0.9293 0.2787
vt 0.9500 0.2989
vt 0.9410 0.2787
vt 0.9526 0.2787
vt 0.9351 0.2870
vt 0.9351 0.2606
vt 0.9139 0.3096
vt 0.9564 0.3091
vt 0.8144 0.3666
vt 0.8186 0.3459
vt 0.8144 0.3377
vt 0.8102 0.3459
vt 0.8235 0.3253
vt 0.8144 0.3253
vt 0.8144 0.2989
vt 0.7995 0.2989
vt 0.8052 0.3253
vt 0.8086 0.2787
vt 0.7969 0.2787
vt 0.8318 0.2787
vt 0.8202 0.2787
vt 0.8293 0.2989
vt 0.8144 0.2870
vt 0.8144 0.2606
vt 0.7932 0.3096
vt 0.8356 0.3091
vt 0.6872 0.3666
vt 0.6914 0.3459
vt 0.6872 0.3377
vt 0.6830 0.3459
vt 0.6963 0.3253
vt 0.6872 0.3253
vt 0.6872 0.2989
vt 0.6723 0.2989
vt 0.6780 0.3253
vt 0.6814 0.2787
vt 0.6697 0.2787
vt 0.7046 0.2787
vt 0.6930 0.2787
vt 0.7021 0.2989
vt 0.6872 0.2870
vt 0.6872 0.2606
vt 0.6660 0.3096
vt 0.7084 0.3091
vt 0.8144 0.2870
vt 0.8086 0.2787
vt 0.7995 0.2989
vt 0.8144 0.2989
vt 0.7932 0.3096
vt 0.8052 0.3253
vt 0.8202 0.2787
vt 0.8293 0.2989
vt 0.8318 0.2787
vt 0.8144 0.3253
vt 0.7969 0.2787
vt 0.8144 0.3666
vt 0.8186 0.3459
vt 0.8144 0.3377
vt 0.8102 0.3459
vt 0.8235 0.3253
vt 0.8144 0.2606
vt 0.8356 0.3091
vt 0.9351 0.3666
vt 0.9393 0.3459
vt 0.9351 0.3377
vt 0.9310 0.3459
vt 0.9443 0.3253
vt 0.9351 0.3253
vt 0.9351 0.2989
vt 0.9203 0.2989
vt 0.9260 0.3253
vt 0.9293 0.2787
vt 0.9177 0.2787
vt 0.9526 0.2787
vt 0.9410 0.2787
vt 0.9500 0.2989
vt 0.9351 0.2870
vt 0.9351 0.2606
vt 0.9139 0.3096
vt 0.9564 0.3091
vt 0.9351 0.3666
vt 0.9393 0.3459
vt 0.9351 0.3377
vt 0.9310 0.3459
vt 0.9443 0.3253
vt 0.9351 0.3253
vt 0.9351 0.2989
vt 0.9203 0.2989
vt 0.9260 0.3253
vt 0.9293 0.2787
vt 0.9177 0.2787
vt 0.9526 0.2787
vt 0.9410 0.2787
vt 0.9500 0.2989
vt 0.9351 0.2870
vt 0.9351 0.2606
vt 0.9139 0.3096
vt 0.9564 0.3091
vt 0.9741 0.9086
vt 0.9612 0.9083
vt 0.9611 0.9079
vt 0.9743 0.9075
vt 0.9741 0.9098
vt 0.9610 0.9086
vt 0.9610 0.9265
vt 0.9612 0.9262
vt 0.9614 0.9265
vt 0.9610 0.9075
vt 0.9741 0.9064
vt 0.9610 0.9121
vt 0.9701 0.9118
vt 0.9702 0.9124
vt 0.9612 0.9132
vt 0.9612 0.9098
vt 0.9702 0.9106
vt 0.9701 0.9112
vt 0.9610 0.9109
vt 0.9610 0.9240
vt 0.9613 0.9235
vt 0.9616 0.9240
vt 0.9442 0.8879
vt 0.9428 0.9400
vt 0.9404 0.9400
vt 0.9405 0.8870
vt 0.9542 0.8876
vt 0.9499 0.9404
vt 0.9476 0.9402
vt 0.9508 0.8864
vt 0.9471 0.8879
vt 0.9452 0.9401
vt 0.9380 0.9400
vt 0.9380 0.8870
vt 0.9564 0.9236
vt 0.9576 0.9247
vt 0.9582 0.9610
vt 0.9576 0.9596
vt 0.9598 0.9232
vt 0.9610 0.9252
vt 0.9603 0.9596
vt 0.9596 0.9604
vt 0.9583 0.9253
vt 0.9590 0.9614
vt 0.9542 0.9252
vt 0.9570 0.9598
vt 0.9321 0.8869
vt 0.9282 0.9383
vt 0.9236 0.9367
vt 0.9263 0.8865
vt 0.9244 0.9890
vt 0.9207 0.9905
vt 0.9148 0.8864
vt 0.9145 0.9375
vt 0.9095 0.9376
vt 0.9086 0.8864
vt 0.9142 0.9895
vt 0.9117 0.9896
vt 0.9191 0.9382
vt 0.9206 0.8864
vt 0.9178 0.9904
vt 0.9380 0.8875
vt 0.9327 0.9384
vt 0.9278 0.9902
vt 0.9448 0.9776
vt 0.9431 0.9780
vt 0.9582 0.8870
vt 0.9598 0.8865
vt 0.9407 0.9774
vt 0.9393 0.9774
vt 0.9543 0.8864
vt 0.9558 0.8865
vt 0.9419 0.9781
vt 0.9570 0.8872
vt 0.9460 0.9776
vt 0.9610 0.8864
vt 0.9610 0.9217
vt 0.9615 0.9213
vt 0.9622 0.9228
vt 0.9617 0.9235
vt 0.9610 0.9228
vn 0.5547 0.8313 0.0350
vn 0.5706 0.8157 -0.0952
vn 0.5398 0.8264 0.1604
vn 0.6444 0.6695 0.3695
vn 0.7157 0.6978 0.0276
vn 0.5811 0.7971 0.1640
vn 0.6376 0.7032 -0.3145
vn 0.4174 0.7739 0.4763
vn 0.4087 0.8141 -0.4127
vn 0.6883 0.6884 -0.2289
vn 0.5379 0.8382 -0.0901
vn 0.5724 0.8036 0.1629
vn -0.3364 0.8877 -0.3144
vn -0.4300 0.8751 -0.2220
vn -0.2485 0.8800 -0.4048
vn -0.2175 0.7339 -0.6435
vn -0.4800 0.7731 -0.4147
vn -0.2815 0.8555 -0.4346
vn -0.6273 0.7728 -0.0962
vn 0.0359 0.8113 -0.5835
vn -0.4971 0.8582 0.1276
vn -0.6161 0.7629 -0.1957
vn -0.3991 0.8937 -0.2048
vn -0.2747 0.8610 -0.4281
vn 0.0681 0.7971 0.6000
vn -0.2829 0.7739 0.5666
vn 0.4723 0.6884 0.5504
vn 0.2454 0.6978 0.6729
vn 0.0558 0.8264 0.5603
vn -0.0981 0.6695 0.7363
vn 0.1775 0.8313 0.5266
vn 0.2870 0.8382 0.4638
vn 0.5324 0.7032 0.4712
vn 0.3040 0.8157 0.4921
vn 0.5366 0.8141 0.2221
vn 0.0659 0.8036 0.5915
vn -0.0975 0.7993 -0.5930
vn -0.2278 0.7836 -0.5780
vn 0.0280 0.7943 -0.6068
vn 0.2088 0.6305 -0.7476
vn -0.1406 0.6571 -0.7406
vn 0.0223 0.7628 -0.6463
vn -0.4559 0.6690 -0.5870
vn 0.3638 0.7466 -0.5570
vn -0.5000 0.7929 -0.3482
vn -0.3840 0.6509 -0.6549
vn -0.2155 0.8078 -0.5487
vn 0.0232 0.7698 -0.6379
vn 0.0060 0.8411 -0.5409
vn -0.1258 0.8320 -0.5404
vn 0.1318 0.8299 -0.5421
vn 0.3180 0.6657 -0.6750
vn -0.0283 0.7117 -0.7019
vn 0.1287 0.8014 -0.5841
vn -0.3571 0.7315 -0.5809
vn 0.4576 0.7598 -0.4618
vn -0.4201 0.8416 -0.3395
vn -0.2794 0.7138 -0.6422
vn -0.1155 0.8534 -0.5083
vn 0.1291 0.8078 -0.5752
vn -0.5547 -0.8313 -0.0350
vn -0.5706 -0.8157 0.0952
vn -0.5398 -0.8264 -0.1604
vn -0.6444 -0.6695 -0.3696
vn -0.7157 -0.6978 -0.0276
vn -0.5811 -0.7971 -0.1640
vn -0.6376 -0.7032 0.3145
vn -0.4174 -0.7739 -0.4764
vn -0.4086 -0.8141 0.4127
vn -0.6883 -0.6884 0.2289
vn -0.5379 -0.8382 0.0901
vn -0.5724 -0.8036 -0.1629
vn 0.3364 -0.8877 0.3144
vn 0.4300 -0.8751 0.2220
vn 0.2485 -0.8800 0.4048
vn 0.2174 -0.7338 0.6436
vn 0.4800 -0.7731 0.4147
vn 0.2815 -0.8555 0.4346
vn 0.6274 -0.7728 0.0962
vn -0.0360 -0.8113 0.5835
vn 0.4972 -0.8582 -0.1276
vn 0.6162 -0.7629 0.1957
vn 0.3991 -0.8937 0.2048
vn 0.2747 -0.8610 0.4281
vn -0.0681 -0.7971 -0.6000
vn 0.2829 -0.7739 -0.5666
vn -0.4724 -0.6884 -0.5504
vn -0.2454 -0.6978 -0.6729
vn -0.0558 -0.8264 -0.5603
vn 0.0982 -0.6695 -0.7363
vn -0.1775 -0.8313 -0.5266
vn -0.2870 -0.8382 -0.4638
vn -0.5325 -0.7032 -0.4711
vn -0.3040 -0.8157 -0.4921
vn -0.5367 -0.8141 -0.2220
vn -0.0659 -0.8036 -0.5915
vn 0.0975 -0.7993 0.5930
vn 0.2278 -0.7836 0.5780
vn -0.0280 -0.7943 0.6068
vn -0.2089 -0.6305 0.7475
vn 0.1406 -0.6571 0.7406
vn -0.0223 -0.7628 0.6462
vn 0.4560 -0.6690 0.5870
vn -0.3639 -0.7466 0.5569
vn 0.5001 -0.7929 0.3481
vn 0.3840 -0.6509 0.6549
vn 0.2155 -0.8078 0.5487
vn -0.0232 -0.7698 0.6379
vn -0.0059 -0.8411 0.5409
vn 0.1258 -0.8320 0.5404
vn -0.1318 -0.8299 0.5421
vn -0.3181 -0.6657 0.6750
vn 0.0284 -0.7117 0.7019
vn -0.1287 -0.8014 0.5841
vn 0.3572 -0.7314 0.5809
vn -0.4577 -0.7598 0.4618
vn 0.4201 -0.8416 0.3395
vn 0.2794 -0.7138 0.6422
vn 0.1155 -0.8534 0.5083
vn -0.1291 -0.8078 0.5752
vn -0.2629 0.7975 0.5430
vn 0.8673 0.0007 -0.4978
vn -0.4300 0.6659 -0.6097
vn -0.6199 -0.7797 -0.0880
vn 0.2353 -0.8204 0.5211
vn -0.8775 0.0505 -0.4769
vn 0.6155 0.7881 -0.0034
vn -0.3525 0.5178 0.7795
vn -0.3344 -0.0070 -0.9424
vn 0.8592 0.0373 0.5103
vn -0.9999 0.0112 0.0089
vn 0.7448 0.0212 -0.6670
vn -0.2240 0.0327 0.9741
vn -0.4354 0.1160 -0.8927
vn 0.9020 -0.0701 0.4259
vn -0.9869 0.0397 0.1565
vn 0.7541 0.0384 -0.6556
vn -0.3268 -0.0682 0.9426
vn -0.2072 0.0211 0.9781
vn -0.2174 0.0200 0.9759
vn 0.7414 0.0331 -0.6703
vn 0.7450 0.0025 -0.6670
vn -0.9979 -0.0153 0.0626
vn -0.9994 0.0320 0.0093
vn 0.8350 0.0439 0.5486
vn 0.8187 0.0070 0.5742
vn -0.4517 0.0001 -0.8922
vn -0.3587 0.0284 -0.9330
vn -0.3067 -0.0383 0.9510
vn -0.3923 -0.0489 0.9185
vn 0.7452 0.0414 -0.6655
vn 0.7504 0.0623 -0.6580
vn -0.9921 0.0104 0.1254
vn -0.9888 -0.0230 0.1473
vn 0.9070 -0.0252 0.4203
vn 0.9349 0.0177 0.3545
vn -0.3769 0.0584 -0.9244
vn -0.3902 0.0520 -0.9193
vn 0.7079 0.4485 -0.5457
vn 0.8286 0.4702 -0.3037
s off
f 4/1/1 16/2/1 5/3/1 3/4/1
f 15/5/2 2/6/2 5/3/2 16/2/2
f 15/5/3 1/7/3 6/8/3 17/9/3
f 6/8/4 8/10/4 10/11/4
f 7/12/5 11/13/5 9/14/5
f 17/9/6 6/8/6 10/11/6 18/15/6
f 11/13/7 18/15/7 10/11/7 12/16/7
f 6/8/8 1/7/8 13/17/8
f 2/6/9 7/12/9 14/18/9
f 7/12/10 17/9/10 18/15/10 11/13/10
f 2/6/11 15/5/11 17/9/11 7/12/11
f 1/7/12 15/5/12 16/2/12 4/1/12
f 22/19/13 34/20/13 23/21/13 21/22/13
f 33/23/14 20/24/14 23/21/14 34/20/14
f 33/23/15 19/25/15 24/26/15 35/27/15
f 24/26/16 26/28/16 28/29/16
f 25/30/17 29/31/17 27/32/17
f 35/27/18 24/26/18 28/29/18 36/33/18
f 29/31/19 36/33/19 28/29/19 30/34/19
f 24/26/20 19/25/20 31/35/20
f 20/24/21 25/30/21 32/36/21
f 25/30/22 35/27/22 36/33/22 29/31/22
f 20/24/23 33/23/23 35/27/23 25/30/23
f 19/25/24 33/23/24 34/20/24 22/19/24
f 38/37/25 49/38/25 45/39/25 37/40/25
f 49/38/26 54/41/26 42/42/26
f 48/43/27 38/37/27 37/40/27 44/44/27
f 48/43/28 44/44/28 46/45/28
f 40/46/29 54/41/29 49/38/29 38/37/29
f 49/38/30 47/47/30 45/39/30
f 51/48/31 39/49/31 50/50/31 52/51/31
f 53/52/32 40/46/32 38/37/32 48/43/32
f 44/44/33 37/40/33 45/39/33 43/53/33
f 40/46/34 53/52/34 50/50/34 39/49/34
f 53/52/35 48/43/35 41/54/35
f 54/41/36 40/46/36 39/49/36 51/48/36
f 58/55/37 70/56/37 59/57/37 57/58/37
f 69/59/38 56/60/38 59/57/38 70/56/38
f 69/59/39 55/61/39 60/62/39 71/63/39
f 60/62/40 62/64/40 64/65/40
f 61/66/41 65/67/41 63/68/41
f 71/63/42 60/62/42 64/65/42 72/69/42
f 65/67/43 72/69/43 64/65/43 66/70/43
f 60/62/44 55/61/44 67/71/44
f 56/60/45 61/66/45 68/72/45
f 61/66/46 71/63/46 72/69/46 65/67/46
f 56/60/47 69/59/47 71/63/47 61/66/47
f 55/61/48 69/59/48 70/56/48 58/55/48
f 76/73/49 88/74/49 77/75/49 75/76/49
f 87/77/50 74/78/50 77/75/50 88/74/50
f 87/77/51 73/79/51 78/80/51 89/81/51
f 78/80/52 80/82/52 82/83/52
f 79/84/53 83/85/53 81/86/53
f 89/81/54 78/80/54 82/83/54 90/87/54
f 83/85/55 90/87/55 82/83/55 84/88/55
f 78/80/56 73/79/56 85/89/56
f 74/78/57 79/84/57 86/90/57
f 79/84/58 89/81/58 90/87/58 83/85/58
f 74/78/59 87/77/59 89/81/59 79/84/59
f 73/79/60 87/77/60 88/74/60 76/73/60
f 93/91/61 95/92/61 106/93/61 94/94/61
f 106/93/62 95/92/62 92/95/62 105/96/62
f 107/97/63 96/98/63 91/99/63 105/96/63
f 100/100/64 98/101/64 96/98/64
f 99/102/65 101/103/65 97/104/65
f 108/105/66 100/100/66 96/98/66 107/97/66
f 102/106/67 100/100/67 108/105/67 101/103/67
f 103/107/68 91/99/68 96/98/68
f 104/108/69 97/104/69 92/95/69
f 101/103/70 108/105/70 107/97/70 97/104/70
f 97/104/71 107/97/71 105/96/71 92/95/71
f 94/94/72 106/93/72 105/96/72 91/99/72
f 111/109/73 113/110/73 124/111/73 112/112/73
f 124/111/74 113/110/74 110/113/74 123/114/74
f 125/115/75 114/116/75 109/117/75 123/114/75
f 118/118/76 116/119/76 114/116/76
f 117/120/77 119/121/77 115/122/77
f 126/123/78 118/118/78 114/116/78 125/115/78
f 120/124/79 118/118/79 126/123/79 119/121/79
f 121/125/80 109/117/80 114/116/80
f 122/126/81 115/122/81 110/113/81
f 119/121/82 126/123/82 125/115/82 115/122/82
f 115/122/83 125/115/83 123/114/83 110/113/83
f 112/112/84 124/111/84 123/114/84 109/117/84
f 127/127/85 135/128/85 139/129/85 128/130/85
f 132/131/86 144/132/86 139/129/86
f 134/133/87 127/127/87 128/130/87 138/134/87
f 136/135/88 134/133/88 138/134/88
f 128/130/89 139/129/89 144/132/89 130/136/89
f 135/128/90 137/137/90 139/129/90
f 142/138/91 140/139/91 129/140/91 141/141/91
f 138/134/92 128/130/92 130/136/92 143/142/92
f 133/143/93 135/128/93 127/127/93 134/133/93
f 129/140/94 140/139/94 143/142/94 130/136/94
f 131/144/95 138/134/95 143/142/95
f 141/141/96 129/140/96 130/136/96 144/132/96
f 147/145/97 149/146/97 160/147/97 148/148/97
f 160/147/98 149/146/98 146/149/98 159/150/98
f 161/151/99 150/152/99 145/153/99 159/150/99
f 154/154/100 152/155/100 150/152/100
f 153/156/101 155/157/101 151/158/101
f 162/159/102 154/154/102 150/152/102 161/151/102
f 156/160/103 154/154/103 162/159/103 155/157/103
f 157/161/104 145/153/104 150/152/104
f 158/162/105 151/158/105 146/149/105
f 155/157/106 162/159/106 161/151/106 151/158/106
f 151/158/107 161/151/107 159/150/107 146/149/107
f 148/148/108 160/147/108 159/150/108 145/153/108
f 165/163/109 167/164/109 178/165/109 166/166/109
f 178/165/110 167/164/110 164/167/110 177/168/110
f 179/169/111 168/170/111 163/171/111 177/168/111
f 172/172/112 170/173/112 168/170/112
f 171/174/113 173/175/113 169/176/113
f 180/177/114 172/172/114 168/170/114 179/169/114
f 174/178/115 172/172/115 180/177/115 173/175/115
f 175/179/116 163/171/116 168/170/116
f 176/180/117 169/176/117 164/167/117
f 173/175/118 180/177/118 179/169/118 169/176/118
f 169/176/119 179/169/119 177/168/119 164/167/119
f 166/166/120 178/165/120 177/168/120 163/171/120
f 185/181/121 182/182/121 183/183/121 186/184/121
f 184/185/122 181/186/122 182/182/122 185/181/122
f 182/187/123 181/188/123 183/189/123
f 186/184/124 183/183/124 181/190/124 184/191/124
f 187/192/125 190/193/125 192/194/125 189/195/125
f 189/196/126 192/197/126 191/198/126 188/199/126
f 188/199/127 191/198/127 190/193/127 187/192/127
f 191/200/128 192/201/128 190/202/128
f 210/203/129 202/204/129 201/205/129 209/206/129
f 214/207/130 200/208/130 199/209/130 213/210/130
f 216/211/131 198/212/131 202/204/131 210/203/131
f 209/206/132 201/205/132 200/213/132 214/214/132
f 213/210/133 199/209/133 198/212/133 216/211/133
f 220/215/134 219/216/134 207/217/134 206/218/134
f 224/219/135 223/220/135 205/221/135 204/222/135
f 219/216/136 227/223/136 203/224/136 207/217/136
f 223/225/137 220/215/137 206/218/137 205/226/137
f 227/223/138 224/219/138 204/222/138 203/224/138
f 194/227/139 212/228/139 217/229/139 193/230/139
f 212/228/140 213/231/140 216/232/140 217/229/140
f 196/233/141 208/234/141 215/235/141 195/236/141
f 208/234/142 209/237/142 214/238/142 215/235/142
f 193/230/143 217/229/143 211/239/143 197/240/143
f 217/229/144 216/232/144 210/241/144 211/239/144
f 195/242/145 215/243/145 212/228/145 194/227/145
f 215/243/146 214/244/146 213/231/146 212/228/146
f 197/240/147 211/239/147 208/234/147 196/233/147
f 211/239/148 210/241/148 209/237/148 208/234/148
f 198/212/149 199/209/149 225/245/149 226/246/149
f 226/247/150 225/248/150 224/219/150 227/223/150
f 200/213/151 201/205/151 221/249/151 222/250/151
f 222/251/152 221/252/152 220/215/152 223/225/152
f 202/204/153 198/212/153 226/246/153 218/253/153
f 218/254/154 226/247/154 227/223/154 219/216/154
f 199/209/155 200/208/155 222/255/155 225/245/155
f 225/248/156 222/256/156 223/220/156 224/219/156
f 201/205/157 202/204/157 218/253/157 221/249/157
f 221/252/158 218/254/158 219/216/158 220/215/158
f 205/257/159 206/258/159 207/259/159 203/260/159
f 204/261/160 205/257/160 203/260/160
