# Blender v2.78 (sub 0) OBJ File: 'Low_Poly_Trees_Pack.blend'
# www.blender.org
g Dead_Pine_Tree_crk_l_04
v -0.436738 6.035220 -0.842097
v -0.427651 6.055509 -0.826344
v -0.452156 6.044279 -0.821328
v -0.039246 5.640220 -0.150273
v -0.025286 5.711458 -0.125748
v -0.087916 5.674311 -0.101897
v -0.264801 0.000000 0.209536
v 0.122314 0.000000 0.293020
v 0.319261 0.000000 -0.056813
v 0.039924 0.000000 -0.363852
v -0.298749 0.000000 -0.177387
v -0.054162 3.419994 -0.300827
v 0.021635 6.970825 -0.203235
v -0.216070 7.025231 -0.128947
v -0.341683 3.461281 -0.170286
v -0.021750 3.440058 0.186631
v 0.012706 6.909972 0.128183
v 0.133551 6.979023 -0.077842
v 0.168872 3.422541 -0.052059
v -0.225627 7.020411 0.067873
v -0.331209 3.351959 0.124479
v -1.090288 2.931688 -0.561454
v -1.223744 2.939404 -0.117266
v -0.257801 3.409715 -0.077428
v -0.684613 3.188351 -0.312280
v -0.745477 3.191870 -0.109705
v -1.629701 2.650107 -0.870486
v -1.846831 2.662662 -0.147807
v -2.014109 2.335601 -1.048812
v -2.268867 2.350331 -0.200887
v -2.142274 2.439501 -0.780883
v -2.183948 2.345420 -0.483529
v -2.557065 2.185670 -0.746977
v -1.304682 2.661564 -0.940883
v -1.626426 2.673641 0.086073
v -1.172289 2.970507 -0.344556
v -0.897724 3.102374 -0.264354
v -1.753539 2.691345 -0.514343
v -2.017327 2.564654 -0.591397
v -0.651112 4.172078 0.734593
v -0.229030 4.197392 0.956309
v -0.029530 4.721854 0.002578
v -0.336161 4.465033 0.381193
v -0.143668 4.476576 0.482309
v -1.050869 3.845008 1.210655
v -0.364156 3.886193 1.571379
v -1.286840 3.497144 1.554644
v -0.481115 3.545465 1.977885
v -1.047226 3.612414 1.739535
v -0.749690 3.529358 1.836804
v -1.078392 3.336540 2.157466
v -1.059787 3.866392 0.868948
v -0.086155 3.918459 1.394706
v -0.450299 4.219757 0.860924
v -0.323968 4.370506 0.603215
v -0.717740 3.900623 1.406489
v -0.839113 3.755791 1.654084
v 0.923803 4.944801 -0.364658
v 0.676359 4.987906 -0.779502
v -0.012457 5.472025 -0.034879
v 0.458493 5.227461 -0.211927
v 0.345644 5.247120 -0.401119
v 1.528317 4.632894 -0.579927
v 1.125735 4.703024 -1.254862
v 1.921205 4.295106 -0.769447
v 1.448852 4.377391 -1.561354
v 1.810507 4.425044 -1.050652
v 1.606303 4.349964 -1.297385
v 2.064445 4.166950 -1.409304
v 1.353776 4.636364 -0.279021
v 0.790713 4.730140 -1.248648
v 0.816593 5.002557 -0.578167
v 0.567680 5.143509 -0.415051
v 1.343538 4.704163 -0.923482
v 1.582682 4.568742 -1.080195
v 0.652710 5.832497 0.653267
v 0.895254 5.848583 0.193057
v -0.057901 6.564866 0.010053
v 0.313678 6.216532 0.327928
v 0.424292 6.223866 0.118046
v 1.119336 5.389312 1.068217
v 1.513946 5.415484 0.319471
v 1.439989 4.951423 1.304888
v 1.902990 4.982129 0.426378
v 1.656299 5.060737 1.048177
v 1.748656 4.971893 0.719214
v 2.067105 4.700021 1.064810
v 0.753423 5.462203 1.081868
v 1.327442 5.490377 0.019847
v 0.795871 5.875532 0.435921
v 0.539535 6.082496 0.308059
v 1.338529 5.437390 0.706602
v 1.584804 5.238549 0.829447
v -1.090183 2.931403 -0.561361
v -1.223608 2.939118 -0.117276
v -0.257675 3.409428 -0.077386
v -0.684489 3.188064 -0.312228
v -0.745347 3.191583 -0.109670
v -1.629598 2.649830 -0.870374
v -1.846670 2.662390 -0.147827
v -2.013981 2.335356 -1.048656
v -2.268687 2.350077 -0.200828
v -2.142108 2.439234 -0.780846
v -2.183757 2.345168 -0.483544
v -2.556876 2.185421 -0.747029
v -1.304637 2.661297 -0.940719
v -1.626300 2.673370 0.085968
v -1.172162 2.970220 -0.344513
v -0.897593 3.102089 -0.264309
v -1.753396 2.691065 -0.514305
v -2.017158 2.564387 -0.591380
v -0.650985 4.171803 0.734499
v -0.228999 4.197111 0.956165
v -0.029449 4.721574 0.002455
v -0.336071 4.464755 0.381073
v -0.143594 4.476297 0.482179
v -1.050724 3.844740 1.210566
v -0.364130 3.885927 1.571210
v -1.286650 3.496913 1.554541
v -0.481009 3.545222 1.977711
v -1.047144 3.612155 1.739372
v -0.749655 3.529113 1.836607
v -1.078393 3.336297 2.157263
v -1.059602 3.866135 0.868927
v -0.086220 3.918188 1.394555
v -0.450217 4.219478 0.860799
v -0.323884 4.370229 0.603086
v -0.717661 3.900351 1.406348
v -0.839050 3.755531 1.653913
v 0.923650 4.944524 -0.364659
v 0.676261 4.987619 -0.779410
v -0.012586 5.471740 -0.034831
v 0.458357 5.227178 -0.211886
v 0.345517 5.246835 -0.401062
v 1.528152 4.632625 -0.579940
v 1.125629 4.702750 -1.254746
v 1.920993 4.294873 -0.769471
v 1.448675 4.377141 -1.561275
v 1.810355 4.424778 -1.050569
v 1.606173 4.349709 -1.297248
v 2.064344 4.166697 -1.409143
v 1.353612 4.636109 -0.279113
v 0.790693 4.729860 -1.248500
v 0.816462 5.002274 -0.578118
v 0.567545 5.143228 -0.415000
v 1.343401 4.703885 -0.923417
v 1.582542 4.568475 -1.080097
v 0.652579 5.832244 0.653128
v 0.895073 5.848327 0.193013
v -0.058062 6.564610 0.009959
v 0.313520 6.216277 0.327826
v 0.424126 6.223610 0.117960
v 1.119211 5.389066 1.068061
v 1.513743 5.415244 0.319434
v 1.439856 4.951217 1.304688
v 1.902785 4.981916 0.426262
v 1.656102 5.060506 1.048084
v 1.748427 4.971679 0.719169
v 2.066870 4.699808 1.064802
v 0.753368 5.461960 1.081671
v 1.327255 5.490127 0.019900
v 0.795709 5.875277 0.435826
v 0.539369 6.082243 0.307963
v 1.338352 5.437144 0.706512
v 1.584600 5.238318 0.829373
vt 0.8496 0.9134
vt 0.8363 0.9131
vt 0.8363 0.9126
vt 0.8497 0.9123
vt 0.8496 0.9146
vt 0.8362 0.9134
vt 0.8362 0.9318
vt 0.8364 0.9314
vt 0.8366 0.9318
vt 0.8362 0.9122
vt 0.8496 0.9111
vt 0.8119 0.8863
vt 0.8096 0.9368
vt 0.8050 0.9354
vt 0.8061 0.8863
vt 0.8076 0.9877
vt 0.8040 0.9891
vt 0.7947 0.8863
vt 0.7961 0.9364
vt 0.7912 0.9367
vt 0.7886 0.8864
vt 0.7973 0.9885
vt 0.7949 0.9888
vt 0.8007 0.9370
vt 0.8003 0.8863
vt 0.8010 0.9892
vt 0.8178 0.8866
vt 0.8141 0.9367
vt 0.8111 0.9889
vt 0.7974 0.8093
vt 0.8200 0.7993
vt 0.8331 0.8132
vt 0.7974 0.8257
vt 0.8194 0.8355
vt 0.6830 0.3459
vt 0.6872 0.3377
vt 0.6914 0.3459
vt 0.6872 0.3666
vt 0.6872 0.3253
vt 0.6963 0.3253
vt 0.6780 0.3253
vt 0.6723 0.2989
vt 0.6872 0.2989
vt 0.6697 0.2787
vt 0.6814 0.2787
vt 0.7021 0.2989
vt 0.6930 0.2787
vt 0.7046 0.2787
vt 0.6872 0.2870
vt 0.6872 0.2606
vt 0.6660 0.3096
vt 0.7084 0.3091
vt 0.9310 0.3459
vt 0.9351 0.3377
vt 0.9393 0.3459
vt 0.9351 0.3666
vt 0.9351 0.3253
vt 0.9443 0.3253
vt 0.9260 0.3253
vt 0.9203 0.2989
vt 0.9351 0.2989
vt 0.9177 0.2787
vt 0.9293 0.2787
vt 0.9500 0.2989
vt 0.9410 0.2787
vt 0.9526 0.2787
vt 0.9351 0.2870
vt 0.9351 0.2606
vt 0.9139 0.3096
vt 0.9564 0.3091
vt 0.9310 0.3459
vt 0.9351 0.3377
vt 0.9393 0.3459
vt 0.9351 0.3666
vt 0.9351 0.3253
vt 0.9443 0.3253
vt 0.9260 0.3253
vt 0.9203 0.2989
vt 0.9351 0.2989
vt 0.9177 0.2787
vt 0.9293 0.2787
vt 0.9500 0.2989
vt 0.9410 0.2787
vt 0.9526 0.2787
vt 0.9351 0.2870
vt 0.9351 0.2606
vt 0.9139 0.3096
vt 0.9564 0.3091
vt 0.9310 0.3459
vt 0.9351 0.3377
vt 0.9393 0.3459
vt 0.9351 0.3666
vt 0.9351 0.3253
vt 0.9443 0.3253
vt 0.9260 0.3253
vt 0.9203 0.2989
vt 0.9351 0.2989
vt 0.9177 0.2787
vt 0.9293 0.2787
vt 0.9500 0.2989
vt 0.9410 0.2787
vt 0.9526 0.2787
vt 0.9351 0.2870
vt 0.9351 0.2606
vt 0.9139 0.3096
vt 0.9564 0.3091
vt 0.6872 0.3666
vt 0.6914 0.3459
vt 0.6872 0.3377
vt 0.6830 0.3459
vt 0.6963 0.3253
vt 0.6872 0.3253
vt 0.6872 0.2989
vt 0.6723 0.2989
vt 0.6780 0.3253
vt 0.6814 0.2787
vt 0.6697 0.2787
vt 0.7046 0.2787
vt 0.6930 0.2787
vt 0.7021 0.2989
vt 0.6872 0.2870
vt 0.6872 0.2606
vt 0.6660 0.3096
vt 0.7084 0.3091
vt 0.9351 0.3666
vt 0.9393 0.3459
vt 0.9351 0.3377
vt 0.9310 0.3459
vt 0.9443 0.3253
vt 0.9351 0.3253
vt 0.9351 0.2989
vt 0.9203 0.2989
vt 0.9260 0.3253
vt 0.9293 0.2787
vt 0.9177 0.2787
vt 0.9526 0.2787
vt 0.9410 0.2787
vt 0.9500 0.2989
vt 0.9351 0.2870
vt 0.9351 0.2606
vt 0.9139 0.3096
vt 0.9564 0.3091
vt 0.9351 0.3666
vt 0.9393 0.3459
vt 0.9351 0.3377
vt 0.9310 0.3459
vt 0.9443 0.3253
vt 0.9351 0.3253
vt 0.9351 0.2989
vt 0.9203 0.2989
vt 0.9260 0.3253
vt 0.9293 0.2787
vt 0.9177 0.2787
vt 0.9526 0.2787
vt 0.9410 0.2787
vt 0.9500 0.2989
vt 0.9351 0.2870
vt 0.9351 0.2606
vt 0.9139 0.3096
vt 0.9564 0.3091
vt 0.9351 0.3666
vt 0.9393 0.3459
vt 0.9351 0.3377
vt 0.9310 0.3459
vt 0.9443 0.3253
vt 0.9351 0.3253
vt 0.9351 0.2989
vt 0.9203 0.2989
vt 0.9260 0.3253
vt 0.9293 0.2787
vt 0.9177 0.2787
vt 0.9526 0.2787
vt 0.9410 0.2787
vt 0.9500 0.2989
vt 0.9351 0.2870
vt 0.9351 0.2606
vt 0.9139 0.3096
vt 0.9564 0.3091
vn -0.2629 0.7975 0.5430
vn 0.8673 0.0007 -0.4978
vn -0.4300 0.6659 -0.6097
vn -0.6199 -0.7797 -0.0880
vn -0.2072 0.0211 0.9781
vn -0.2174 0.0200 0.9759
vn 0.7414 0.0331 -0.6703
vn 0.7450 0.0025 -0.6670
vn -0.9979 -0.0153 0.0626
vn -0.9994 0.0320 0.0093
vn 0.8350 0.0439 0.5486
vn 0.8187 0.0070 0.5742
vn -0.4517 0.0001 -0.8922
vn -0.3587 0.0284 -0.9330
vn 0.2334 0.9717 0.0351
vn 0.0645 0.9904 -0.1223
vn 0.2798 0.8488 0.4486
vn -0.3967 0.9080 -0.1350
vn -0.4531 0.8913 -0.0167
vn -0.3455 0.9044 -0.2505
vn -0.4031 0.7716 -0.4920
vn -0.5695 0.8009 -0.1850
vn -0.3875 0.8820 -0.2682
vn -0.5981 0.7844 0.1643
vn -0.1422 0.8426 -0.5195
vn -0.3963 0.8555 0.3333
vn -0.6222 0.7800 0.0668
vn -0.4177 0.9085 -0.0103
vn -0.3787 0.8870 -0.2641
vn -0.2581 0.8837 0.3904
vn -0.1518 0.8707 0.4677
vn -0.3615 0.8764 0.3182
vn -0.6017 0.7296 0.3250
vn -0.3336 0.7675 0.5474
vn -0.3855 0.8515 0.3554
vn 0.0046 0.7673 0.6412
vn -0.5837 0.8093 0.0659
vn 0.2041 0.8547 0.4773
vn -0.0954 0.7572 0.6462
vn -0.1399 0.8897 0.4347
vn -0.3802 0.8570 0.3477
vn 0.4102 0.8994 -0.1512
vn 0.3604 0.8919 -0.2733
vn 0.4606 0.8869 -0.0360
vn 0.6710 0.7375 0.0766
vn 0.5586 0.7905 -0.2510
vn 0.5009 0.8637 -0.0563
vn 0.3199 0.7997 -0.5081
vn 0.5186 0.8038 0.2915
vn 0.0626 0.8811 -0.4688
vn 0.4077 0.7885 -0.4604
vn 0.3326 0.9092 -0.2505
vn 0.4922 0.8689 -0.0523
vn 0.5067 0.8100 0.2953
vn 0.5813 0.7917 0.1880
vn 0.4343 0.8076 0.3989
vn 0.4215 0.6503 0.6321
vn 0.6466 0.6703 0.3642
vn 0.4678 0.7769 0.4214
vn 0.7391 0.6731 0.0257
vn 0.1755 0.7650 0.6197
vn 0.5881 0.7910 -0.1684
vn 0.7428 0.6578 0.1250
vn 0.5511 0.8154 0.1772
vn 0.4609 0.7837 0.4164
vn 0.3967 -0.9080 0.1350
vn 0.4531 -0.8913 0.0167
vn 0.3455 -0.9044 0.2505
vn 0.4030 -0.7716 0.4921
vn 0.5695 -0.8009 0.1850
vn 0.3875 -0.8820 0.2682
vn 0.5981 -0.7844 -0.1644
vn 0.1422 -0.8425 0.5195
vn 0.3963 -0.8555 -0.3334
vn 0.6222 -0.7800 -0.0668
vn 0.4177 -0.9085 0.0103
vn 0.3787 -0.8870 0.2641
vn 0.2581 -0.8837 -0.3904
vn 0.1518 -0.8707 -0.4677
vn 0.3615 -0.8764 -0.3182
vn 0.6018 -0.7295 -0.3250
vn 0.3335 -0.7675 -0.5474
vn 0.3856 -0.8515 -0.3554
vn -0.0046 -0.7673 -0.6413
vn 0.5837 -0.8093 -0.0658
vn -0.2042 -0.8547 -0.4773
vn 0.0954 -0.7572 -0.6462
vn 0.1399 -0.8897 -0.4347
vn 0.3802 -0.8570 -0.3477
vn -0.4102 -0.8994 0.1512
vn -0.3604 -0.8919 0.2733
vn -0.4606 -0.8869 0.0360
vn -0.6710 -0.7374 -0.0767
vn -0.5586 -0.7905 0.2511
vn -0.5009 -0.8637 0.0563
vn -0.3199 -0.7997 0.5081
vn -0.5186 -0.8038 -0.2916
vn -0.0626 -0.8811 0.4689
vn -0.4077 -0.7885 0.4605
vn -0.3326 -0.9092 0.2505
vn -0.4922 -0.8689 0.0523
vn -0.5067 -0.8100 -0.2953
vn -0.5813 -0.7917 -0.1880
vn -0.4343 -0.8076 -0.3989
vn -0.4214 -0.6502 -0.6321
vn -0.6466 -0.6703 -0.3642
vn -0.4678 -0.7769 -0.4215
vn -0.7391 -0.6731 -0.0257
vn -0.1755 -0.7650 -0.6197
vn -0.5881 -0.7910 0.1684
vn -0.7428 -0.6578 -0.1250
vn -0.5511 -0.8154 -0.1772
vn -0.4609 -0.7837 -0.4164
s off
f 5/1/1 2/2/1 3/3/1 6/4/1
f 4/5/2 1/6/2 2/2/2 5/1/2
f 2/7/3 1/8/3 3/9/3
f 6/4/4 3/3/4 1/10/4 4/11/4
f 8/12/5 16/13/5 21/14/5 7/15/5
f 16/13/6 17/16/6 20/17/6 21/14/6
f 10/18/7 12/19/7 19/20/7 9/21/7
f 12/19/8 13/22/8 18/23/8 19/20/8
f 7/15/9 21/14/9 15/24/9 11/25/9
f 21/14/10 20/17/10 14/26/10 15/24/10
f 9/27/11 19/28/11 16/13/11 8/12/11
f 19/28/12 18/29/12 17/16/12 16/13/12
f 11/25/13 15/24/13 12/19/13 10/18/13
f 15/24/14 14/26/14 13/22/14 12/19/14
f 13/30/15 14/31/15 20/32/15
f 18/33/16 13/30/16 20/32/16
f 17/34/17 18/33/17 20/32/17
f 25/35/18 37/36/18 26/37/18 24/38/18
f 36/39/19 23/40/19 26/37/19 37/36/19
f 36/39/20 22/41/20 27/42/20 38/43/20
f 27/42/21 29/44/21 31/45/21
f 28/46/22 32/47/22 30/48/22
f 38/43/23 27/42/23 31/45/23 39/49/23
f 32/47/24 39/49/24 31/45/24 33/50/24
f 27/42/25 22/41/25 34/51/25
f 23/40/26 28/46/26 35/52/26
f 28/46/27 38/43/27 39/49/27 32/47/27
f 23/40/28 36/39/28 38/43/28 28/46/28
f 22/41/29 36/39/29 37/36/29 25/35/29
f 43/53/30 55/54/30 44/55/30 42/56/30
f 54/57/31 41/58/31 44/55/31 55/54/31
f 54/57/32 40/59/32 45/60/32 56/61/32
f 45/60/33 47/62/33 49/63/33
f 46/64/34 50/65/34 48/66/34
f 56/61/35 45/60/35 49/63/35 57/67/35
f 50/65/36 57/67/36 49/63/36 51/68/36
f 45/60/37 40/59/37 52/69/37
f 41/58/38 46/64/38 53/70/38
f 46/64/39 56/61/39 57/67/39 50/65/39
f 41/58/40 54/57/40 56/61/40 46/64/40
f 40/59/41 54/57/41 55/54/41 43/53/41
f 61/71/42 73/72/42 62/73/42 60/74/42
f 72/75/43 59/76/43 62/73/43 73/72/43
f 72/75/44 58/77/44 63/78/44 74/79/44
f 63/78/45 65/80/45 67/81/45
f 64/82/46 68/83/46 66/84/46
f 74/79/47 63/78/47 67/81/47 75/85/47
f 68/83/48 75/85/48 67/81/48 69/86/48
f 63/78/49 58/77/49 70/87/49
f 59/76/50 64/82/50 71/88/50
f 64/82/51 74/79/51 75/85/51 68/83/51
f 59/76/52 72/75/52 74/79/52 64/82/52
f 58/77/53 72/75/53 73/72/53 61/71/53
f 79/89/54 91/90/54 80/91/54 78/92/54
f 90/93/55 77/94/55 80/91/55 91/90/55
f 90/93/56 76/95/56 81/96/56 92/97/56
f 81/96/57 83/98/57 85/99/57
f 82/100/58 86/101/58 84/102/58
f 92/97/59 81/96/59 85/99/59 93/103/59
f 86/101/60 93/103/60 85/99/60 87/104/60
f 81/96/61 76/95/61 88/105/61
f 77/94/62 82/100/62 89/106/62
f 82/100/63 92/97/63 93/103/63 86/101/63
f 77/94/64 90/93/64 92/97/64 82/100/64
f 76/95/65 90/93/65 91/90/65 79/89/65
f 96/107/66 98/108/66 109/109/66 97/110/66
f 109/109/67 98/108/67 95/111/67 108/112/67
f 110/113/68 99/114/68 94/115/68 108/112/68
f 103/116/69 101/117/69 99/114/69
f 102/118/70 104/119/70 100/120/70
f 111/121/71 103/116/71 99/114/71 110/113/71
f 105/122/72 103/116/72 111/121/72 104/119/72
f 106/123/73 94/115/73 99/114/73
f 107/124/74 100/120/74 95/111/74
f 104/119/75 111/121/75 110/113/75 100/120/75
f 100/120/76 110/113/76 108/112/76 95/111/76
f 97/110/77 109/109/77 108/112/77 94/115/77
f 114/125/78 116/126/78 127/127/78 115/128/78
f 127/127/79 116/126/79 113/129/79 126/130/79
f 128/131/80 117/132/80 112/133/80 126/130/80
f 121/134/81 119/135/81 117/132/81
f 120/136/82 122/137/82 118/138/82
f 129/139/83 121/134/83 117/132/83 128/131/83
f 123/140/84 121/134/84 129/139/84 122/137/84
f 124/141/85 112/133/85 117/132/85
f 125/142/86 118/138/86 113/129/86
f 122/137/87 129/139/87 128/131/87 118/138/87
f 118/138/88 128/131/88 126/130/88 113/129/88
f 115/128/89 127/127/89 126/130/89 112/133/89
f 132/143/90 134/144/90 145/145/90 133/146/90
f 145/145/91 134/144/91 131/147/91 144/148/91
f 146/149/92 135/150/92 130/151/92 144/148/92
f 139/152/93 137/153/93 135/150/93
f 138/154/94 140/155/94 136/156/94
f 147/157/95 139/152/95 135/150/95 146/149/95
f 141/158/96 139/152/96 147/157/96 140/155/96
f 142/159/97 130/151/97 135/150/97
f 143/160/98 136/156/98 131/147/98
f 140/155/99 147/157/99 146/149/99 136/156/99
f 136/156/100 146/149/100 144/148/100 131/147/100
f 133/146/101 145/145/101 144/148/101 130/151/101
f 150/161/102 152/162/102 163/163/102 151/164/102
f 163/163/103 152/162/103 149/165/103 162/166/103
f 164/167/104 153/168/104 148/169/104 162/166/104
f 157/170/105 155/171/105 153/168/105
f 156/172/106 158/173/106 154/174/106
f 165/175/107 157/170/107 153/168/107 164/167/107
f 159/176/108 157/170/108 165/175/108 158/173/108
f 160/177/109 148/169/109 153/168/109
f 161/178/110 154/174/110 149/165/110
f 158/173/111 165/175/111 164/167/111 154/174/111
f 154/174/112 164/167/112 162/166/112 149/165/112
f 151/164/113 163/163/113 162/166/113 148/169/113
