# Blender v2.78 (sub 0) OBJ File: 'Low_Poly_Trees_Pack.blend'
# www.blender.org
g Dead_Pine_Tree_crk_l_03
v 0.212571 2.944778 0.110273
v 0.149583 2.983756 0.139612
v 0.167343 2.910860 0.166412
v 0.546675 3.175277 0.605760
v 0.512369 3.194376 0.619656
v 0.524531 3.158779 0.636916
v -0.069768 0.000000 -0.344106
v -0.329252 0.000000 -0.024387
v -0.097469 0.000000 0.322780
v 0.318633 0.000000 0.208148
v 0.305002 0.000000 -0.193610
v 0.304439 3.556030 0.091258
v 0.318610 3.598958 -0.236763
v -0.162839 3.576891 -0.107945
v -0.031147 3.558677 0.181084
v 0.040340 3.485288 -0.365684
v -0.979914 1.815339 -0.507177
v -1.113370 1.823056 -0.062989
v -0.147427 2.293367 -0.023152
v -0.574239 2.072003 -0.258003
v -0.635103 2.075522 -0.055428
v -1.519328 1.533759 -0.816209
v -1.736457 1.546314 -0.093530
v -1.903735 1.219252 -0.994536
v -2.158494 1.233982 -0.146611
v -2.031900 1.323153 -0.726607
v -2.073574 1.229072 -0.429252
v -2.446692 1.069321 -0.692701
v -1.194308 1.545215 -0.886607
v -1.516052 1.557292 0.140350
v -1.061915 1.854158 -0.290279
v -0.787350 1.986025 -0.210077
v -1.643165 1.574997 -0.460066
v -1.906953 1.448306 -0.537120
v 1.098987 2.692339 -0.425097
v 0.887471 2.716173 -0.821043
v 0.227642 3.209977 -0.183647
v 0.666743 2.968169 -0.316393
v 0.570279 2.979038 -0.496967
v 1.662168 2.384389 -0.584496
v 1.318038 2.423167 -1.228685
v 2.027915 2.056860 -0.727642
v 1.624145 2.102357 -1.483474
v 1.939055 2.165392 -0.998395
v 1.758735 2.087192 -1.231530
v 2.184376 1.905645 -1.307460
v 1.488386 2.404523 -0.313605
v 1.008046 2.453547 -1.238100
v 1.009380 2.737231 -0.629713
v 0.774672 2.879168 -0.495787
v 1.506254 2.436753 -0.913233
v 1.731750 2.300387 -1.041903
v -0.979797 1.815024 -0.507074
v -1.113218 1.822738 -0.063000
v -0.147287 2.293047 -0.023104
v -0.574101 2.071684 -0.257945
v -0.634959 2.075203 -0.055390
v -1.519212 1.533450 -0.816085
v -1.736279 1.546011 -0.093553
v -1.903593 1.218981 -0.994362
v -2.158293 1.233701 -0.146545
v -2.031716 1.322855 -0.726566
v -2.073362 1.228792 -0.429269
v -2.446481 1.069045 -0.692759
v -1.194257 1.544919 -0.886424
v -1.515912 1.556991 0.140233
v -1.061773 1.853839 -0.290231
v -0.787204 1.985709 -0.210028
v -1.643006 1.574685 -0.460025
v -1.906766 1.448009 -0.537101
v 1.098812 2.692034 -0.425090
v 0.887352 2.715862 -0.820930
v 0.227490 3.209666 -0.183584
v 0.666584 2.967860 -0.316339
v 0.570130 2.978727 -0.496894
v 1.661980 2.384092 -0.584504
v 1.317909 2.422870 -1.228546
v 2.027675 2.056604 -0.727666
v 1.623939 2.102087 -1.483381
v 1.938878 2.165105 -0.998296
v 1.758579 2.086919 -1.231371
v 2.184251 1.905375 -1.307272
v 1.488203 2.404238 -0.313702
v 1.008011 2.453246 -1.237921
v 1.009226 2.736921 -0.629649
v 0.774514 2.878860 -0.495721
v 1.506092 2.436451 -0.913153
v 1.731585 2.300098 -1.041786
vt 0.9763 0.9238
vt 0.9679 0.9241
vt 0.9678 0.9235
vt 0.9761 0.9228
vt 0.9761 0.9259
vt 0.9678 0.9252
vt 0.9679 0.9246
vt 0.9762 0.9249
vt 0.9678 0.9333
vt 0.9678 0.9328
vt 0.9682 0.9331
vt 0.9585 0.8916
vt 0.9543 0.9843
vt 0.9458 0.9819
vt 0.9478 0.8916
vt 0.9269 0.8916
vt 0.9294 0.9838
vt 0.9204 0.9840
vt 0.9158 0.8918
vt 0.9379 0.9849
vt 0.9374 0.8916
vt 0.9693 0.8921
vt 0.9626 0.9842
vt 0.7956 0.8262
vt 0.7956 0.7985
vt 0.8208 0.7907
vt 0.8384 0.8100
vt 0.8206 0.8305
vt 0.6830 0.3459
vt 0.6872 0.3377
vt 0.6914 0.3459
vt 0.6872 0.3666
vt 0.6872 0.3253
vt 0.6963 0.3253
vt 0.6780 0.3253
vt 0.6723 0.2989
vt 0.6872 0.2989
vt 0.6697 0.2787
vt 0.6814 0.2787
vt 0.7021 0.2989
vt 0.6930 0.2787
vt 0.7046 0.2787
vt 0.6872 0.2870
vt 0.6872 0.2606
vt 0.6660 0.3096
vt 0.7084 0.3091
vt 0.9310 0.3459
vt 0.9351 0.3377
vt 0.9393 0.3459
vt 0.9351 0.3666
vt 0.9351 0.3253
vt 0.9443 0.3253
vt 0.9260 0.3253
vt 0.9203 0.2989
vt 0.9351 0.2989
vt 0.9177 0.2787
vt 0.9293 0.2787
vt 0.9500 0.2989
vt 0.9410 0.2787
vt 0.9526 0.2787
vt 0.9351 0.2870
vt 0.9351 0.2606
vt 0.9139 0.3096
vt 0.9564 0.3091
vt 0.6872 0.3666
vt 0.6914 0.3459
vt 0.6872 0.3377
vt 0.6830 0.3459
vt 0.6963 0.3253
vt 0.6872 0.3253
vt 0.6872 0.2989
vt 0.6723 0.2989
vt 0.6780 0.3253
vt 0.6814 0.2787
vt 0.6697 0.2787
vt 0.7046 0.2787
vt 0.6930 0.2787
vt 0.7021 0.2989
vt 0.6872 0.2870
vt 0.6872 0.2606
vt 0.6660 0.3096
vt 0.7084 0.3091
vt 0.9351 0.3666
vt 0.9393 0.3459
vt 0.9351 0.3377
vt 0.9310 0.3459
vt 0.9443 0.3253
vt 0.9351 0.3253
vt 0.9351 0.2989
vt 0.9203 0.2989
vt 0.9260 0.3253
vt 0.9293 0.2787
vt 0.9177 0.2787
vt 0.9526 0.2787
vt 0.9410 0.2787
vt 0.9500 0.2989
vt 0.9351 0.2870
vt 0.9351 0.2606
vt 0.9139 0.3096
vt 0.9564 0.3091
vn 0.5849 -0.8109 -0.0169
vn -0.8019 0.0213 0.5971
vn 0.2426 0.8071 -0.5383
vn 0.5512 0.5089 0.6612
vn -0.7786 0.0211 -0.6272
vn 0.2624 0.0331 0.9644
vn 0.3956 -0.0153 -0.9183
vn -0.8669 0.0439 0.4965
vn 1.0000 0.0001 0.0007
vn 0.0430 0.9904 0.1315
vn -0.1580 0.8845 -0.4389
vn -0.0257 0.9969 0.0745
vn -0.3967 0.9080 -0.1350
vn -0.4531 0.8913 -0.0167
vn -0.3455 0.9044 -0.2505
vn -0.4031 0.7716 -0.4920
vn -0.5695 0.8009 -0.1850
vn -0.3875 0.8820 -0.2682
vn -0.5981 0.7844 0.1643
vn -0.1422 0.8426 -0.5195
vn -0.3963 0.8555 0.3333
vn -0.6222 0.7800 0.0668
vn -0.4177 0.9085 -0.0103
vn -0.3787 0.8870 -0.2641
vn 0.4328 0.8837 -0.1780
vn 0.3883 0.8707 -0.3017
vn 0.4779 0.8764 -0.0602
vn 0.6804 0.7296 0.0691
vn 0.5834 0.7675 -0.2655
vn 0.5186 0.8515 -0.0775
vn 0.3564 0.7673 -0.5331
vn 0.5199 0.8093 0.2734
vn 0.0992 0.8547 -0.5095
vn 0.4419 0.7572 -0.4810
vn 0.3599 0.8897 -0.2810
vn 0.5099 0.8570 -0.0741
vn 0.3967 -0.9080 0.1350
vn 0.4531 -0.8913 0.0167
vn 0.3455 -0.9044 0.2505
vn 0.4030 -0.7716 0.4921
vn 0.5695 -0.8009 0.1850
vn 0.3875 -0.8820 0.2682
vn 0.5981 -0.7844 -0.1644
vn 0.1422 -0.8425 0.5195
vn 0.3963 -0.8555 -0.3334
vn 0.6222 -0.7800 -0.0668
vn 0.4177 -0.9085 0.0103
vn 0.3787 -0.8870 0.2641
vn -0.4328 -0.8837 0.1780
vn -0.3883 -0.8707 0.3017
vn -0.4779 -0.8764 0.0602
vn -0.6804 -0.7295 -0.0692
vn -0.5834 -0.7675 0.2655
vn -0.5186 -0.8515 0.0775
vn -0.3564 -0.7673 0.5331
vn -0.5199 -0.8093 -0.2734
vn -0.0992 -0.8547 0.5096
vn -0.4419 -0.7572 0.4811
vn -0.3599 -0.8897 0.2810
vn -0.5099 -0.8570 0.0741
s off
f 1/1/1 4/2/1 6/3/1 3/4/1
f 3/5/2 6/6/2 5/7/2 2/8/2
f 2/8/3 5/7/3 4/2/3 1/1/3
f 5/9/4 6/10/4 4/11/4
f 8/12/5 14/13/5 16/14/5 7/15/5
f 10/16/6 12/17/6 15/18/6 9/19/6
f 7/15/7 16/14/7 13/20/7 11/21/7
f 9/22/8 15/23/8 14/13/8 8/12/8
f 11/21/9 13/20/9 12/17/9 10/16/9
f 15/24/10 12/25/10 13/26/10
f 16/27/11 14/28/11 13/26/11
f 14/28/12 15/24/12 13/26/12
f 20/29/13 32/30/13 21/31/13 19/32/13
f 31/33/14 18/34/14 21/31/14 32/30/14
f 31/33/15 17/35/15 22/36/15 33/37/15
f 22/36/16 24/38/16 26/39/16
f 23/40/17 27/41/17 25/42/17
f 33/37/18 22/36/18 26/39/18 34/43/18
f 27/41/19 34/43/19 26/39/19 28/44/19
f 22/36/20 17/35/20 29/45/20
f 18/34/21 23/40/21 30/46/21
f 23/40/22 33/37/22 34/43/22 27/41/22
f 18/34/23 31/33/23 33/37/23 23/40/23
f 17/35/24 31/33/24 32/30/24 20/29/24
f 38/47/25 50/48/25 39/49/25 37/50/25
f 49/51/26 36/52/26 39/49/26 50/48/26
f 49/51/27 35/53/27 40/54/27 51/55/27
f 40/54/28 42/56/28 44/57/28
f 41/58/29 45/59/29 43/60/29
f 51/55/30 40/54/30 44/57/30 52/61/30
f 45/59/31 52/61/31 44/57/31 46/62/31
f 40/54/32 35/53/32 47/63/32
f 36/52/33 41/58/33 48/64/33
f 41/58/34 51/55/34 52/61/34 45/59/34
f 36/52/35 49/51/35 51/55/35 41/58/35
f 35/53/36 49/51/36 50/48/36 38/47/36
f 55/65/37 57/66/37 68/67/37 56/68/37
f 68/67/38 57/66/38 54/69/38 67/70/38
f 69/71/39 58/72/39 53/73/39 67/70/39
f 62/74/40 60/75/40 58/72/40
f 61/76/41 63/77/41 59/78/41
f 70/79/42 62/74/42 58/72/42 69/71/42
f 64/80/43 62/74/43 70/79/43 63/77/43
f 65/81/44 53/73/44 58/72/44
f 66/82/45 59/78/45 54/69/45
f 63/77/46 70/79/46 69/71/46 59/78/46
f 59/78/47 69/71/47 67/70/47 54/69/47
f 56/68/48 68/67/48 67/70/48 53/73/48
f 73/83/49 75/84/49 86/85/49 74/86/49
f 86/85/50 75/84/50 72/87/50 85/88/50
f 87/89/51 76/90/51 71/91/51 85/88/51
f 80/92/52 78/93/52 76/90/52
f 79/94/53 81/95/53 77/96/53
f 88/97/54 80/92/54 76/90/54 87/89/54
f 82/98/55 80/92/55 88/97/55 81/95/55
f 83/99/56 71/91/56 76/90/56
f 84/100/57 77/96/57 72/87/57
f 81/95/58 88/97/58 87/89/58 77/96/58
f 77/96/59 87/89/59 85/88/59 72/87/59
f 74/86/60 86/85/60 85/88/60 71/91/60
