# Blender v2.78 (sub 0) OBJ File: 'Low_Poly_Trees_Pack.blend'
# www.blender.org
g Pine_Tree_crk_s_03
v -0.048850 0.007786 -0.039328
v -0.039446 0.007783 0.045573
v 0.046652 0.007746 0.048584
v 0.050082 0.007954 -0.047038
v -0.025947 0.197071 0.037529
v -0.031763 0.188944 -0.033272
v 0.045214 0.159644 -0.042082
v 0.046191 0.168189 0.041455
v 0.441947 0.134627 0.430362
v 0.450743 0.106825 0.417911
v 0.124892 0.456055 0.321461
v -0.016320 0.174231 0.459630
v -0.000089 0.011640 0.208805
v 0.240939 0.000914 -0.005860
v 0.523580 0.199047 -0.050052
v 0.401138 0.496607 0.125375
v 0.715596 0.096521 0.608475
v 0.690617 0.052552 0.628860
v 0.700759 0.003623 0.599704
v 0.736103 0.011263 0.553694
v 0.765901 0.062559 0.528899
v 0.757408 0.105561 0.554059
v 0.538153 0.229908 0.581919
v 0.292701 0.104909 0.591799
v 0.412127 -0.033278 0.534159
v 0.597560 0.003093 0.312635
v 0.654349 0.153506 0.184434
v 0.689789 0.259396 0.400251
v 1.195875 0.000829 0.821249
v 0.475196 0.141584 0.417719
v 0.439650 0.117438 0.449832
v 0.444761 0.069680 0.424547
v 0.486458 0.104816 0.388493
v 0.135744 0.233323 0.163732
v 0.143365 0.169674 0.130554
v 0.205563 0.259371 0.146316
v 0.220732 0.198728 0.105459
vt 0.9232 0.8910
vt 0.9236 0.9155
vt 0.9099 0.9152
vt 0.9093 0.8902
vt 0.9512 0.8906
vt 0.9507 0.9119
vt 0.9371 0.9122
vt 0.9372 0.8912
vt 0.9786 0.8905
vt 0.9785 0.9154
vt 0.5473 0.3233
vt 0.5251 0.3481
vt 0.5069 0.2981
vt 0.5684 0.3000
vt 0.5854 0.2746
vt 0.6046 0.3327
vt 0.5404 0.3066
vt 0.5394 0.2634
vt 0.5070 0.3246
vt 0.5262 0.2793
vt 0.5558 0.3086
vt 0.5539 0.3140
vt 0.5657 0.3305
vt 0.5758 0.3612
vt 0.5528 0.2942
vt 0.5766 0.3195
vt 0.5769 0.2597
vt 0.6073 0.2896
vt 0.5640 0.3103
vt 0.5612 0.3072
vt 0.5846 0.3445
vt 0.5621 0.3163
vt 0.5408 0.3601
vt 0.5574 0.3174
vt 0.5486 0.3124
vt 0.5587 0.3167
vt 0.5651 0.3591
vt 0.5077 0.3353
vt 0.5673 0.3117
vt 0.6065 0.3332
vt 0.5673 0.3033
vt 0.5557 0.2984
vt 0.5429 0.2630
vt 0.6071 0.2902
vt 0.5483 0.3026
vt 0.5086 0.2870
vt 0.4413 0.2687
vt 0.4892 0.2911
vt 0.4365 0.3154
vt 0.4361 0.3556
vt 0.4892 0.3324
vt 0.3949 0.2857
vt 0.3939 0.3362
vt 0.9371 0.9156
vt 0.9370 0.9695
vt 0.9232 0.9695
vt 0.9236 0.9155
vt 0.9507 0.9193
vt 0.9508 0.9697
vt 0.9094 0.9696
vt 0.9099 0.9192
vt 0.9785 0.9193
vt 0.9781 0.9699
vt 0.8242 0.8461
vt 0.7932 0.8471
vt 0.7912 0.8169
vt 0.8262 0.8169
vt 0.7919 0.8019
vt 0.7912 0.7704
vt 0.8252 0.7704
vt 0.8208 0.8036
vn -0.9923 0.0824 0.0927
vn 0.9998 0.0172 0.0129
vn -0.0356 0.0446 0.9984
vn -0.0875 0.0361 -0.9955
vn -0.1206 0.9755 -0.1841
vn -0.4134 -0.5796 -0.7022
vn 0.0729 0.8390 -0.5392
vn -0.0040 -1.0000 0.0075
vn -0.5646 0.8220 0.0741
vn -0.1366 -0.3801 -0.9148
vn -0.9420 -0.2698 -0.1998
vn 0.8436 0.4735 -0.2533
vn 0.2692 0.8205 0.5043
vn -0.2937 -0.7758 0.5585
vn -0.1389 0.9891 0.0481
vn 0.5103 -0.7537 -0.4141
vn -0.1246 0.4848 0.8657
vn -0.7053 0.5950 0.3854
vn -0.4733 -0.7213 -0.5056
vn 0.0338 -0.2284 -0.9730
vn -0.9482 -0.2118 0.2369
vn 0.1394 0.4945 -0.8580
vn 0.4812 -0.6667 -0.5691
vn 0.2051 0.9245 0.3213
vn 0.0787 -0.9922 -0.0970
vn -0.1778 0.4195 0.8902
vn 0.6632 0.6231 -0.4146
vn -0.7057 -0.3908 0.5910
vn 0.2066 -0.8480 -0.4880
vn -0.1585 0.8418 0.5159
vn 0.7016 0.5317 -0.4744
vn -0.2642 -0.5568 0.7875
vn -0.3927 0.4164 -0.8200
vn 0.3577 0.9266 -0.1158
s off
f 2/1/1 5/2/1 6/3/1 1/4/1
f 4/5/2 7/6/2 8/7/2 3/8/2
f 3/8/3 8/7/3 5/2/3 2/1/3
f 1/9/4 6/10/4 7/6/4 4/5/4
f 10/11/5 14/12/5 13/13/5
f 10/14/6 11/15/6 16/16/6
f 10/17/7 13/13/7 12/18/7
f 13/19/8 14/20/8 20/21/8 19/22/8
f 10/23/9 15/24/9 14/12/9
f 10/25/10 12/18/10 11/15/10
f 10/26/11 16/16/11 15/24/11
f 15/27/12 16/28/12 22/29/12 21/30/12
f 16/28/13 11/31/13 17/32/13 22/29/13
f 12/33/14 13/19/14 19/22/14 18/34/14
f 19/35/15 20/36/15 26/37/15 25/38/15
f 14/20/16 15/27/16 21/30/16 20/21/16
f 11/31/17 12/33/17 18/34/17 17/32/17
f 20/36/18 21/39/18 27/40/18 26/37/18
f 22/41/19 17/42/19 23/43/19 28/44/19
f 17/42/20 18/45/20 24/46/20 23/43/20
f 21/39/21 22/41/21 28/44/21 27/40/21
f 18/45/22 19/35/22 25/38/22 24/46/22
f 26/47/23 27/48/23 29/49/23
f 23/50/24 29/49/24 28/51/24
f 26/47/25 29/49/25 25/52/25
f 23/50/26 24/53/26 29/49/26
f 27/48/27 28/51/27 29/49/27
f 35/54/28 32/55/28 31/56/28 34/57/28
f 37/58/29 33/59/29 32/55/29 35/54/29
f 34/57/30 31/56/30 30/60/30 36/61/30
f 33/59/31 37/58/31 36/62/31 30/63/31
f 24/53/32 25/52/32 29/49/32
f 34/64/33 36/65/33 37/66/33 35/67/33
f 5/68/34 8/69/34 7/70/34 6/71/34
