# Blender v2.78 (sub 0) OBJ File: 'Low_Poly_Trees_Pack.blend'
# www.blender.org
g Pine_Tree_s_05
v 0.033487 0.950154 -0.027542
v -0.248091 0.590336 -0.563108
v -0.609580 0.431228 -0.071665
v -0.406941 0.571106 0.521490
v 0.225589 0.526464 0.522108
v 0.653568 0.334008 0.010686
v 0.501239 0.539297 -0.618174
v 0.090912 1.553217 -0.050916
v 0.037473 1.565459 0.009393
v 0.070890 1.561833 0.089194
v 0.156118 1.545450 0.089038
v 0.220061 1.530578 0.018971
v 0.191686 1.533737 -0.050965
v -0.135427 0.979712 -0.411485
v -0.472405 1.120032 -0.018477
v -0.236394 0.945772 0.439665
v 0.267582 0.918242 0.441399
v 0.680553 1.039535 0.049272
v 0.394843 1.001791 -0.443827
v 0.263551 2.027299 -0.087658
v 0.208534 2.045005 -0.025372
v 0.243678 2.041254 0.057572
v 0.332092 2.018891 0.057929
v 0.398057 1.997693 -0.014456
v 0.368131 2.000858 -0.087245
v 0.088659 1.771074 -0.246272
v -0.232998 1.598267 -0.020035
v 0.015604 1.708801 0.260044
v 0.323081 1.644534 0.259822
v 0.606850 1.454931 0.003180
v 0.452354 1.694662 -0.245952
v 0.625837 2.788924 -0.057190
v 0.342530 2.280342 -0.142348
v 0.512575 2.230932 -0.140626
v 0.558912 2.224608 -0.026236
v 0.453319 2.262940 0.086482
v 0.309600 2.304696 0.084996
v 0.254357 2.312087 -0.045271
v -0.000568 0.012134 -0.115447
v -0.109181 0.012129 -0.036536
v -0.067699 0.012072 0.091157
v 0.066515 0.012396 0.091104
v 0.107987 0.012373 -0.036520
v 0.054788 0.964617 -0.061770
v -0.011523 0.977541 -0.012043
v 0.013887 0.972946 0.068511
v 0.095776 0.956840 0.068559
v 0.120930 0.951307 -0.011897
v -0.090206 0.307124 -0.021054
v -0.055863 0.302378 0.085960
v 0.089397 0.281828 -0.021040
v -0.000329 0.294458 -0.087196
v 0.055076 0.286864 0.085893
vt 0.5382 0.3277
vt 0.5228 0.3407
vt 0.5052 0.2964
vt 0.5724 0.2905
vt 0.5836 0.2773
vt 0.6090 0.3281
vt 0.5472 0.2807
vt 0.5385 0.2619
vt 0.5850 0.3222
vt 0.5720 0.3606
vt 0.5270 0.3010
vt 0.5873 0.3434
vt 0.5625 0.3224
vt 0.5684 0.3061
vt 0.6107 0.2937
vt 0.5675 0.3392
vt 0.5089 0.3240
vt 0.5267 0.2801
vt 0.5481 0.3015
vt 0.5430 0.3163
vt 0.5748 0.2609
vt 0.5605 0.2985
vt 0.5404 0.3066
vt 0.5473 0.3233
vt 0.5251 0.3481
vt 0.5069 0.2981
vt 0.5429 0.3578
vt 0.5524 0.3243
vt 0.5766 0.3195
vt 0.5684 0.3000
vt 0.5854 0.2746
vt 0.6046 0.3327
vt 0.5528 0.2942
vt 0.5394 0.2634
vt 0.5070 0.3246
vt 0.5262 0.2793
vt 0.5558 0.3086
vt 0.5539 0.3140
vt 0.5657 0.3305
vt 0.5758 0.3612
vt 0.5769 0.2597
vt 0.6073 0.2896
vt 0.5640 0.3103
vt 0.5612 0.3072
vt 0.5846 0.3445
vt 0.5621 0.3163
vt 0.5408 0.3601
vt 0.5574 0.3174
vt 0.5486 0.3124
vt 0.5587 0.3167
vt 0.5651 0.3591
vt 0.5077 0.3353
vt 0.5673 0.3117
vt 0.6065 0.3332
vt 0.5673 0.3033
vt 0.5557 0.2984
vt 0.5429 0.2630
vt 0.6071 0.2902
vt 0.5483 0.3026
vt 0.5086 0.2870
vt 0.4361 0.3556
vt 0.4343 0.3274
vt 0.4509 0.3215
vt 0.4892 0.3324
vt 0.3949 0.2857
vt 0.4413 0.2687
vt 0.4368 0.3008
vt 0.4221 0.3071
vt 0.4518 0.3085
vt 0.4365 0.3154
vt 0.4226 0.3215
vt 0.3939 0.3362
vt 0.4892 0.2911
vt 0.9371 0.9156
vt 0.9370 0.9695
vt 0.9232 0.9695
vt 0.9236 0.9155
vt 0.9785 0.9154
vt 0.9781 0.9699
vt 0.9644 0.9699
vt 0.9646 0.9152
vt 0.9507 0.9154
vt 0.9508 0.9697
vt 0.9094 0.9696
vt 0.9099 0.9152
vt 0.9649 0.8900
vt 0.9512 0.8906
vt 0.9232 0.8910
vt 0.9093 0.8902
vt 0.9372 0.8912
vt 0.9786 0.8905
vn -0.0559 -0.8001 -0.5972
vn -0.0149 -0.8263 0.5630
vn 0.6074 -0.7695 0.1976
vn -0.7016 -0.7099 -0.0618
vn 0.6290 -0.7768 -0.0317
vn -0.0167 0.4830 -0.8754
vn -0.6637 -0.6864 -0.2971
vn 0.0325 0.3897 0.9204
vn 0.7796 0.2840 0.5582
vn -0.0340 -0.4878 -0.8723
vn -0.7574 0.4810 -0.4415
vn 0.9270 0.3499 -0.1353
vn -0.8517 0.4840 0.2008
vn 0.0447 -0.5633 0.8251
vn 0.6024 -0.6175 -0.5059
vn 0.0239 0.3238 0.9458
vn -0.5393 -0.5061 -0.6730
vn 0.4964 -0.5984 0.6289
vn -0.6865 -0.5940 0.4194
vn 0.8490 0.2069 -0.4862
vn -0.0453 0.3226 -0.9455
vn -0.6974 0.4997 0.5138
vn -0.1021 -0.4680 -0.8778
vn 0.6534 0.2261 0.7224
vn -0.6012 0.4367 -0.6692
vn -0.7436 -0.3045 -0.5953
vn -0.1058 -0.4756 0.8733
vn 0.6156 -0.6401 0.4597
vn -0.9016 -0.3528 0.2503
vn 0.6710 -0.6644 -0.3291
vn 0.0468 0.1825 -0.9821
vn 0.0576 0.2567 0.9648
vn 0.7209 -0.0476 0.6915
vn -0.5879 0.4410 -0.6782
vn 0.9165 -0.1295 -0.3784
vn -0.7362 0.5821 0.3452
vn -0.7473 0.5108 0.4250
vn 0.0610 0.2443 0.9678
vn 0.8806 0.0192 -0.4735
vn -0.6456 0.4318 -0.6299
vn 0.7056 0.0613 0.7060
vn 0.0500 0.1378 -0.9892
vn -0.9458 0.1066 0.3066
vn 0.5951 -0.0178 -0.8034
vn 0.0043 0.0256 0.9997
vn -0.5855 0.0792 -0.8068
vn 0.9508 0.0467 0.3062
vn -0.5847 0.0806 -0.8072
vn 0.0016 0.0184 0.9998
vn 0.5918 0.0832 -0.8017
vn -0.9504 0.0446 0.3079
vn 0.9512 -0.0494 0.3047
s off
f 1/1/1 5/2/1 4/3/1
f 1/4/2 2/5/2 7/6/2
f 1/7/3 3/8/3 2/5/3
f 1/9/4 7/6/4 6/10/4
f 1/11/5 4/3/5 3/8/5
f 2/12/6 8/13/6 13/14/6 7/15/6
f 1/16/7 6/10/7 5/2/7
f 4/17/8 5/18/8 11/19/8 10/20/8
f 5/18/9 6/21/9 12/22/9 11/19/9
f 10/23/10 11/24/10 17/25/10 16/26/10
f 2/12/11 3/27/11 9/28/11 8/13/11
f 6/21/12 7/15/12 13/14/12 12/22/12
f 3/27/13 4/17/13 10/20/13 9/28/13
f 13/29/14 8/30/14 14/31/14 19/32/14
f 9/33/15 10/23/15 16/26/15 15/34/15
f 16/35/16 17/36/16 23/37/16 22/38/16
f 11/24/17 12/39/17 18/40/17 17/25/17
f 8/30/18 9/33/18 15/34/18 14/31/18
f 12/39/19 13/29/19 19/32/19 18/40/19
f 18/41/20 19/42/20 25/43/20 24/44/20
f 19/42/21 14/45/21 20/46/21 25/43/21
f 15/47/22 16/35/22 22/38/22 21/48/22
f 22/49/23 23/50/23 29/51/23 28/52/23
f 17/36/24 18/41/24 24/44/24 23/37/24
f 14/45/25 15/47/25 21/48/25 20/46/25
f 23/50/26 24/53/26 30/54/26 29/51/26
f 25/55/27 20/56/27 26/57/27 31/58/27
f 20/56/28 21/59/28 27/60/28 26/57/28
f 24/53/29 25/55/29 31/58/29 30/54/29
f 21/59/30 22/49/30 28/52/30 27/60/30
f 26/61/31 33/62/31 34/63/31 31/64/31
f 28/65/32 29/66/32 36/67/32 37/68/32
f 36/67/33 35/69/33 32/70/33
f 33/62/34 38/71/34 32/70/34
f 35/69/35 34/63/35 32/70/35
f 38/71/36 37/68/36 32/70/36
f 27/72/37 28/65/37 37/68/37 38/71/37
f 36/67/38 32/70/38 37/68/38
f 30/73/39 31/64/39 34/63/39 35/69/39
f 26/61/40 27/72/40 38/71/40 33/62/40
f 29/66/41 30/73/41 35/69/41 36/67/41
f 34/63/42 33/62/42 32/70/42
f 50/74/43 46/75/43 45/76/43 49/77/43
f 52/78/44 44/79/44 48/80/44 51/81/44
f 53/82/45 47/83/45 46/75/45 50/74/45
f 49/77/46 45/76/46 44/84/46 52/85/46
f 43/86/47 51/81/47 53/82/47 42/87/47
f 40/88/48 49/77/48 52/85/48 39/89/48
f 42/87/49 53/82/49 50/74/49 41/90/49
f 39/91/50 52/78/50 51/81/50 43/86/50
f 41/90/51 50/74/51 49/77/51 40/88/51
f 51/81/52 48/80/52 47/83/52 53/82/52
