# Blender v2.78 (sub 0) OBJ File: 'Low_Poly_Trees_Pack.blend'
# www.blender.org
g Pine_Tree_NoLeaves_crk_l_01
v 0.187147 3.354709 0.031315
v 0.187147 3.414670 0.135172
v 0.187148 3.294747 0.135172
v 0.657831 3.484477 0.062969
v 0.645033 3.504080 0.103518
v 0.670629 3.464873 0.103518
v 1.144923 3.648665 0.071092
v 1.137253 3.660415 0.095396
v 1.152593 3.636916 0.095396
v -0.074926 4.464355 -0.009858
v 0.001508 4.532858 -0.100613
v 0.001508 4.395850 -0.100613
v -0.462936 4.612610 -0.383919
v -0.421910 4.635007 -0.409935
v -0.444276 4.590213 -0.428772
v -0.882602 4.800190 -0.749495
v -0.858013 4.813614 -0.765087
v -0.871419 4.786767 -0.776377
v -0.006419 5.924503 0.096943
v -0.043928 5.964237 0.037860
v -0.049720 5.884101 0.042453
v -0.562556 5.952884 0.426335
v -0.580361 5.973060 0.393994
v -0.587342 5.932195 0.399390
v 0.049748 6.734743 -0.098371
v 0.109655 6.774477 -0.062192
v 0.112794 6.694341 -0.068885
v 0.569786 6.868625 -0.859887
v 0.588800 6.881977 -0.842872
v 0.594943 6.856151 -0.853555
v -0.070473 0.000000 -0.347582
v -0.332578 0.000000 -0.024634
v -0.098454 0.000000 0.326041
v 0.321852 0.000000 0.210250
v 0.308083 0.000000 -0.195566
v 0.273680 3.629813 0.235887
v 0.180091 7.321312 0.116816
v 0.223432 7.378453 -0.141134
v 0.287994 3.673176 -0.095448
v -0.198318 3.650885 0.034671
v -0.126105 7.257399 -0.048993
v 0.009468 7.329923 0.162077
v -0.065296 3.632488 0.326620
v 0.043612 7.373392 -0.243588
v 0.006913 3.558357 -0.225671
vt 0.9652 0.8972
vt 0.9749 0.8965
vt 0.9751 0.8974
vt 0.9652 0.8996
vt 0.9652 0.8926
vt 0.9752 0.8948
vt 0.9748 0.8956
vt 0.9655 0.8949
vt 0.9849 0.8964
vt 0.9850 0.8970
vt 0.9850 0.8954
vt 0.9848 0.8959
vt 0.9652 0.9301
vt 0.9652 0.9295
vt 0.9657 0.9298
vt 0.9652 0.9033
vt 0.9729 0.9028
vt 0.9731 0.9035
vt 0.9652 0.9052
vt 0.9652 0.8996
vt 0.9731 0.9014
vt 0.9728 0.9020
vt 0.9655 0.9015
vt 0.9808 0.9027
vt 0.9808 0.9031
vt 0.9809 0.9019
vt 0.9807 0.9023
vt 0.9656 0.9303
vt 0.9652 0.9305
vt 0.9652 0.9301
vt 0.9741 0.9195
vt 0.9653 0.9198
vt 0.9652 0.9192
vt 0.9740 0.9184
vt 0.9740 0.9217
vt 0.9652 0.9209
vt 0.9654 0.9204
vt 0.9741 0.9206
vt 0.9652 0.9295
vt 0.9652 0.9289
vt 0.9657 0.9292
vt 0.9652 0.9074
vt 0.9779 0.9071
vt 0.9780 0.9074
vt 0.9653 0.9085
vt 0.9653 0.9052
vt 0.9780 0.9063
vt 0.9779 0.9067
vt 0.9653 0.9063
vt 0.9652 0.9309
vt 0.9654 0.9306
vt 0.9656 0.9309
vt 0.9459 0.8851
vt 0.9418 0.9391
vt 0.9370 0.9374
vt 0.9398 0.8847
vt 0.9379 0.9923
vt 0.9340 0.9938
vt 0.9278 0.8846
vt 0.9275 0.9382
vt 0.9223 0.9383
vt 0.9213 0.8846
vt 0.9271 0.9928
vt 0.9245 0.9929
vt 0.9324 0.9390
vt 0.9338 0.8846
vt 0.9310 0.9938
vt 0.9521 0.8858
vt 0.9466 0.9392
vt 0.9415 0.9936
vt 0.7946 0.8281
vt 0.7946 0.8154
vt 0.8123 0.8078
vt 0.8120 0.8352
vt 0.8230 0.8181
vn 0.2625 -0.8351 -0.4834
vn 0.0643 0.0103 0.9979
vn -0.2007 0.8504 -0.4863
vn 0.2860 -0.8242 -0.4887
vn 0.0137 0.0089 0.9999
vn -0.2717 0.8301 -0.4870
vn 0.8374 0.5466 0.0000
vn -0.5122 -0.8351 0.2007
vn 0.5937 0.0103 -0.8046
vn -0.1598 0.8504 0.5013
vn -0.5336 -0.8242 0.1896
vn 0.6336 0.0089 -0.7736
vn -0.1059 0.8301 0.5475
vn -0.6405 0.5466 -0.5394
vn 0.2262 -0.8605 0.4564
vn -0.5535 -0.0103 -0.8328
vn 0.2813 0.8718 0.4011
vn -0.7947 0.2109 0.5691
vn -0.3515 -0.8508 -0.3905
vn 0.8529 -0.0109 0.5219
vn -0.4694 0.8667 -0.1685
vn 0.4151 0.4303 -0.8016
vn -0.7768 0.0386 -0.6285
vn -0.7717 0.0026 -0.6359
vn 0.2625 -0.0029 0.9649
vn 0.2584 0.0377 0.9653
vn 0.3895 0.0252 -0.9207
vn 0.4519 -0.0059 -0.8921
vn -0.8680 0.0159 0.4964
vn -0.8831 0.0337 0.4679
vn 1.0000 0.0093 0.0013
vn 0.9946 0.0235 0.1013
vn 0.1105 0.9663 0.2326
vn -0.3484 0.9324 -0.0966
vn -0.2237 0.9105 0.3477
s off
f 1/1/1 4/2/1 6/3/1 3/4/1
f 3/5/2 6/6/2 5/7/2 2/8/2
f 2/8/3 5/7/3 4/2/3 1/1/3
f 4/2/4 7/9/4 9/10/4 6/3/4
f 6/6/5 9/11/5 8/12/5 5/7/5
f 5/7/6 8/12/6 7/9/6 4/2/6
f 8/13/7 9/14/7 7/15/7
f 10/16/8 13/17/8 15/18/8 12/19/8
f 12/20/9 15/21/9 14/22/9 11/23/9
f 11/23/10 14/22/10 13/17/10 10/16/10
f 13/17/11 16/24/11 18/25/11 15/18/11
f 15/21/12 18/26/12 17/27/12 14/22/12
f 14/22/13 17/27/13 16/24/13 13/17/13
f 17/28/14 18/29/14 16/30/14
f 19/31/15 22/32/15 24/33/15 21/34/15
f 21/35/16 24/36/16 23/37/16 20/38/16
f 20/38/17 23/37/17 22/32/17 19/31/17
f 23/39/18 24/40/18 22/41/18
f 25/42/19 28/43/19 30/44/19 27/45/19
f 27/46/20 30/47/20 29/48/20 26/49/20
f 26/49/21 29/48/21 28/43/21 25/42/21
f 29/50/22 30/51/22 28/52/22
f 32/53/23 40/54/23 45/55/23 31/56/23
f 40/54/24 41/57/24 44/58/24 45/55/24
f 34/59/25 36/60/25 43/61/25 33/62/25
f 36/60/26 37/63/26 42/64/26 43/61/26
f 31/56/27 45/55/27 39/65/27 35/66/27
f 45/55/28 44/58/28 38/67/28 39/65/28
f 33/68/29 43/69/29 40/54/29 32/53/29
f 43/69/30 42/70/30 41/57/30 40/54/30
f 35/66/31 39/65/31 36/60/31 34/59/31
f 39/65/32 38/67/32 37/63/32 36/60/32
f 42/71/33 37/72/33 38/73/33
f 41/74/34 42/71/34 38/73/34
f 44/75/35 41/74/35 38/73/35
