# Blender v2.78 (sub 0) OBJ File: 'Low_Poly_Trees_Pack.blend'
# www.blender.org
g Pine_Tree_s_02
v 0.000000 0.000000 -0.106649
v -0.100672 0.000000 -0.033507
v -0.062219 0.000000 0.084840
v 0.062219 0.000000 0.084840
v 0.100672 0.000000 -0.033507
v -0.000029 0.810735 -0.067820
v -0.072220 0.811339 -0.015349
v -0.044524 0.811882 0.069371
v 0.044509 0.811675 0.069431
v 0.071962 0.811390 -0.015066
v -0.080594 0.251879 -0.018870
v -0.049449 0.251895 0.076981
v 0.082475 0.251918 -0.018868
v 0.000942 0.251924 -0.078106
v 0.051332 0.251900 0.076981
v 0.016130 0.780134 -0.022236
v -0.461159 0.304902 -0.660800
v -0.766971 0.598914 0.129160
v -0.359800 0.270718 0.736973
v 0.414412 0.504331 0.646609
v 0.820866 0.264390 -0.092553
v 0.276867 0.513385 -0.747682
v -0.106301 1.754837 -0.102407
v -0.100591 1.746411 0.022971
v -0.049485 1.754825 0.156235
v 0.087481 1.747233 0.210083
v 0.078384 1.744856 0.023242
v 0.026704 1.744681 -0.040879
v -0.102009 1.132643 -0.618146
v -0.736270 0.778520 -0.206582
v -0.523104 1.130420 0.435474
v 0.106688 0.875794 0.745776
v 0.729787 1.229661 0.281337
v 0.569334 0.950777 -0.444282
v -0.095715 2.237014 -0.105466
v -0.093776 2.239427 0.019538
v -0.041031 2.241566 0.153038
v 0.097250 2.240366 0.207302
v 0.091051 2.242430 0.019907
v 0.037689 2.239236 -0.046221
v -0.182334 1.625621 -0.493799
v -0.432210 1.852112 -0.074005
v -0.358341 1.626278 0.396493
v 0.132352 1.774713 0.466539
v 0.624085 1.580600 0.117540
v 0.272437 1.777720 -0.298534
v 0.001486 3.218417 0.050996
v -0.119232 2.524781 -0.113976
v 0.062917 2.529240 -0.067354
v 0.182130 2.543029 0.032518
v 0.103210 2.530168 0.231475
v -0.089794 2.529640 0.193941
v -0.172765 2.526179 0.035656
vt 0.8058 0.9183
vt 0.8058 0.9580
vt 0.7935 0.9580
vt 0.7938 0.9182
vt 0.8429 0.9181
vt 0.8425 0.9583
vt 0.8303 0.9582
vt 0.8304 0.9179
vt 0.8180 0.9181
vt 0.8180 0.9581
vt 0.7812 0.9580
vt 0.7815 0.9179
vt 0.8307 0.8954
vt 0.8184 0.8959
vt 0.7934 0.8963
vt 0.7810 0.8956
vt 0.8060 0.8964
vt 0.8430 0.8959
vt 0.9195 0.4521
vt 0.9055 0.4630
vt 0.8868 0.4246
vt 0.9520 0.4184
vt 0.9661 0.4012
vt 0.9854 0.4440
vt 0.9226 0.4068
vt 0.9108 0.3883
vt 0.9612 0.4415
vt 0.9516 0.4887
vt 0.9085 0.4288
vt 0.9671 0.4713
vt 0.9429 0.4500
vt 0.9476 0.4365
vt 0.9842 0.4350
vt 0.9471 0.4673
vt 0.8916 0.4520
vt 0.9093 0.4136
vt 0.9273 0.4307
vt 0.9215 0.4427
vt 0.9544 0.3885
vt 0.9400 0.4263
vt 0.9212 0.4345
vt 0.9280 0.4491
vt 0.9088 0.4760
vt 0.8902 0.4291
vt 0.9151 0.4883
vt 0.9302 0.4525
vt 0.9540 0.4421
vt 0.9480 0.4279
vt 0.9635 0.4018
vt 0.9826 0.4511
vt 0.9297 0.4210
vt 0.9144 0.3904
vt 0.8898 0.4526
vt 0.9088 0.4129
vt 0.9358 0.4370
vt 0.9319 0.4406
vt 0.9453 0.4585
vt 0.9555 0.4894
vt 0.9565 0.3872
vt 0.9809 0.4323
vt 0.9433 0.4393
vt 0.9407 0.4351
vt 0.9644 0.4724
vt 0.9414 0.4440
vt 0.9130 0.4909
vt 0.9364 0.4454
vt 0.9284 0.4397
vt 0.9367 0.4427
vt 0.9320 0.4769
vt 0.8922 0.4616
vt 0.9469 0.4395
vt 0.9863 0.4612
vt 0.9440 0.4299
vt 0.9363 0.4268
vt 0.9327 0.3945
vt 0.9751 0.4102
vt 0.9266 0.4311
vt 0.8822 0.4180
vt 0.9366 0.6183
vt 0.9346 0.5821
vt 0.9465 0.5766
vt 0.9745 0.5966
vt 0.8982 0.5319
vt 0.9393 0.5145
vt 0.9363 0.5507
vt 0.9234 0.5568
vt 0.9519 0.5577
vt 0.9368 0.5665
vt 0.9212 0.5731
vt 0.8879 0.5893
vt 0.9888 0.5352
vn -0.9507 0.0124 0.3098
vn 0.5892 0.0162 -0.8078
vn -0.0003 0.0135 0.9999
vn -0.5878 0.0139 -0.8089
vn 0.9498 0.0507 0.3086
vn -0.5852 0.0935 -0.8055
vn -0.0000 0.0312 0.9995
vn 0.5854 0.0891 -0.8058
vn -0.9495 0.0578 0.3085
vn 0.9509 0.0158 0.3090
vn 0.2031 -0.8567 -0.4742
vn 0.2921 -0.8588 0.4208
vn 0.2815 -0.8586 0.4285
vn -0.5283 -0.8406 0.1192
vn 0.0953 -0.8478 -0.5217
vn -0.1234 0.4274 -0.8956
vn -0.5409 -0.8407 -0.0246
vn -0.0490 0.3488 0.9359
vn 0.8821 0.3793 0.2793
vn 0.2165 -0.5170 -0.8282
vn -0.8294 0.3949 -0.3951
vn 0.7636 0.4266 -0.4848
vn -0.6852 0.4112 0.6012
vn -0.3533 -0.6015 0.7165
vn 0.8202 -0.5719 -0.0138
vn -0.3033 0.3516 0.8857
vn -0.4007 -0.5934 -0.6981
vn 0.7096 -0.5098 0.4864
vn -0.6538 -0.6410 0.4021
vn 0.8166 0.4376 -0.3764
vn 0.3361 0.3986 -0.8533
vn -0.9076 0.3996 0.1287
vn 0.2750 -0.4635 -0.8423
vn 0.5484 0.3971 0.7359
vn -0.7118 0.3546 -0.6063
vn -0.7202 -0.5113 -0.4689
vn -0.2195 -0.5223 0.8240
vn 0.6612 -0.5351 0.5258
vn -0.7332 -0.5552 0.3926
vn 0.7548 -0.5477 -0.3611
vn 0.2542 0.3555 -0.8994
vn -0.2080 0.2775 0.9379
vn 0.8993 0.2304 0.3716
vn -0.9139 0.2374 -0.3292
vn 0.6182 0.1862 -0.7636
vn -0.8681 0.2085 0.4505
vn -0.8879 0.3168 0.3335
vn -0.1867 0.2233 0.9567
vn 0.7523 0.3343 -0.5677
vn -0.7732 0.3275 -0.5431
vn 0.7077 0.3122 0.6338
vn 0.2394 0.1850 -0.9531
s off
f 12/1/1 8/2/1 7/3/1 11/4/1
f 14/5/2 6/6/2 10/7/2 13/8/2
f 15/9/3 9/10/3 8/2/3 12/1/3
f 11/4/4 7/3/4 6/11/4 14/12/4
f 5/13/5 13/8/5 15/9/5 4/14/5
f 2/15/6 11/4/6 14/12/6 1/16/6
f 4/14/7 15/9/7 12/1/7 3/17/7
f 1/18/8 14/5/8 13/8/8 5/13/8
f 3/17/9 12/1/9 11/4/9 2/15/9
f 13/8/10 10/7/10 9/10/10 15/9/10
f 16/19/11 20/20/11 19/21/11
f 16/22/12 17/23/12 22/24/12
f 16/25/13 18/26/13 17/23/13
f 16/27/14 22/24/14 21/28/14
f 16/29/15 19/21/15 18/26/15
f 17/30/16 23/31/16 28/32/16 22/33/16
f 16/34/17 21/28/17 20/20/17
f 19/35/18 20/36/18 26/37/18 25/38/18
f 20/36/19 21/39/19 27/40/19 26/37/19
f 25/41/20 26/42/20 32/43/20 31/44/20
f 17/30/21 18/45/21 24/46/21 23/31/21
f 21/39/22 22/33/22 28/32/22 27/40/22
f 18/45/23 19/35/23 25/38/23 24/46/23
f 28/47/24 23/48/24 29/49/24 34/50/24
f 24/51/25 25/41/25 31/44/25 30/52/25
f 31/53/26 32/54/26 38/55/26 37/56/26
f 26/42/27 27/57/27 33/58/27 32/43/27
f 23/48/28 24/51/28 30/52/28 29/49/28
f 27/57/29 28/47/29 34/50/29 33/58/29
f 33/59/30 34/60/30 40/61/30 39/62/30
f 34/60/31 29/63/31 35/64/31 40/61/31
f 30/65/32 31/53/32 37/56/32 36/66/32
f 37/67/33 38/68/33 44/69/33 43/70/33
f 32/54/34 33/59/34 39/62/34 38/55/34
f 29/63/35 30/65/35 36/66/35 35/64/35
f 38/68/36 39/71/36 45/72/36 44/69/36
f 40/73/37 35/74/37 41/75/37 46/76/37
f 35/74/38 36/77/38 42/78/38 41/75/38
f 39/71/39 40/73/39 46/76/39 45/72/39
f 36/77/40 37/67/40 43/70/40 42/78/40
f 41/79/41 48/80/41 49/81/41 46/82/41
f 43/83/42 44/84/42 51/85/42 52/86/42
f 51/85/43 50/87/43 47/88/43
f 48/80/44 53/89/44 47/88/44
f 50/87/45 49/81/45 47/88/45
f 53/89/46 52/86/46 47/88/46
f 42/90/47 43/83/47 52/86/47 53/89/47
f 51/85/48 47/88/48 52/86/48
f 45/91/49 46/82/49 49/81/49 50/87/49
f 41/79/50 42/90/50 53/89/50 48/80/50
f 44/84/51 45/91/51 50/87/51 51/85/51
f 49/81/52 48/80/52 47/88/52
