# Blender v2.78 (sub 0) OBJ File: 'Low_Poly_Trees_Pack.blend'
# www.blender.org
g Pine_Tree_s_08
v -0.017761 -0.000000 -0.059212
v -0.050544 -0.000000 0.034015
v 0.024325 -0.000000 0.055159
v 0.050859 -0.000000 -0.026504
v 0.009063 0.743482 -0.041941
v -0.004984 0.743936 -0.006277
v 0.032432 0.743854 0.014891
v 0.047368 0.743743 -0.031079
v -0.041733 0.173814 0.028591
v 0.038303 0.173830 -0.016403
v -0.017111 0.173834 -0.039517
v 0.016814 0.173818 0.049735
v 0.008723 0.748876 -0.002430
v -0.062198 0.356764 -0.302650
v -0.390317 0.210572 -0.093426
v -0.276155 0.363759 0.232972
v 0.039537 0.238043 0.390718
v 0.361981 0.384333 0.154614
v 0.275817 0.262770 -0.214264
v -0.050011 1.047566 -0.072774
v -0.048619 1.048979 0.013482
v -0.012201 1.048918 0.105600
v 0.083123 1.044630 0.143043
v 0.078895 1.046042 0.013736
v 0.042027 1.045478 -0.031894
v -0.107596 0.691706 -0.260769
v -0.234422 0.800796 -0.041011
v -0.199659 0.695446 0.205290
v 0.059585 0.754157 0.241958
v 0.313488 0.655239 0.059261
v 0.132919 0.752804 -0.158550
v 0.095814 1.620507 0.035189
v -0.028720 1.222686 -0.053903
v 0.070885 1.221112 -0.028411
v 0.136269 1.225307 0.026196
v 0.092916 1.220737 0.134980
v -0.012549 1.224421 0.114458
v -0.057946 1.224450 0.027912
vt 0.8429 0.9181
vt 0.8426 0.9486
vt 0.8303 0.9485
vt 0.8304 0.9179
vt 0.8180 0.9181
vt 0.8180 0.9484
vt 0.8058 0.9484
vt 0.8058 0.9183
vt 0.8307 0.8954
vt 0.8184 0.8959
vt 0.7813 0.9484
vt 0.7815 0.9179
vt 0.8060 0.8964
vt 0.8430 0.8959
vt 0.5536 0.3235
vt 0.5345 0.3504
vt 0.5159 0.3036
vt 0.5736 0.3024
vt 0.5890 0.2764
vt 0.6080 0.3256
vt 0.5468 0.3090
vt 0.5400 0.2650
vt 0.5155 0.3270
vt 0.5345 0.2875
vt 0.5614 0.3114
vt 0.5575 0.3151
vt 0.5709 0.3329
vt 0.5810 0.3637
vt 0.5553 0.2955
vt 0.5796 0.3166
vt 0.5821 0.2618
vt 0.6064 0.3068
vt 0.5689 0.3137
vt 0.5663 0.3096
vt 0.5899 0.3467
vt 0.5670 0.3184
vt 0.5387 0.3652
vt 0.5620 0.3198
vt 0.5541 0.3142
vt 0.5623 0.3171
vt 0.5576 0.3512
vt 0.5179 0.3360
vt 0.5725 0.3140
vt 0.6118 0.3356
vt 0.5696 0.3044
vt 0.5619 0.3013
vt 0.5583 0.2691
vt 0.6005 0.2848
vt 0.5522 0.3056
vt 0.5080 0.2925
vt 0.4412 0.3615
vt 0.4393 0.3267
vt 0.4513 0.3214
vt 0.4796 0.3407
vt 0.4024 0.2784
vt 0.4440 0.2617
vt 0.4410 0.2965
vt 0.4279 0.3024
vt 0.4567 0.3033
vt 0.4414 0.3117
vt 0.4257 0.3181
vt 0.3921 0.3336
vt 0.4940 0.2817
vt 0.7810 0.8956
vn 0.3408 -0.0246 -0.9398
vn -0.4023 0.0743 0.9125
vn 0.9498 0.0507 0.3086
vn -0.9362 0.0403 -0.3490
vn -0.3020 0.0309 0.9528
vn 0.4087 0.0918 -0.9080
vn 0.9510 -0.0072 0.3090
vn 0.1559 -0.5965 -0.7873
vn -0.3493 -0.5290 0.7734
vn 0.8035 -0.5953 -0.0016
vn -0.3326 0.2939 0.8961
vn -0.2805 -0.5960 -0.7524
vn 0.6094 -0.5485 0.5725
vn -0.7427 -0.5648 0.3596
vn 0.8767 0.3239 -0.3557
vn 0.3355 0.3003 -0.8929
vn -0.9107 0.3646 0.1942
vn 0.2434 -0.3578 -0.9015
vn 0.6602 0.2909 0.6925
vn -0.7096 0.3042 -0.6356
vn -0.7815 -0.3514 -0.5156
vn -0.2915 -0.4296 0.8547
vn 0.7328 -0.4863 0.4760
vn -0.7691 -0.4231 0.4790
vn 0.7918 -0.5158 -0.3272
vn 0.2884 0.3016 -0.9088
vn -0.1846 0.2307 0.9553
vn 0.9242 0.0861 0.3719
vn -0.8805 0.3478 -0.3220
vn 0.6357 0.0825 -0.7675
vn -0.8396 0.3179 0.4405
vn -0.8822 0.3441 0.3214
vn -0.1774 0.2396 0.9545
vn 0.7602 0.2319 -0.6069
vn -0.7687 0.3586 -0.5296
vn 0.7175 0.1901 0.6701
vn 0.2476 0.1373 -0.9591
vn -0.9414 0.0394 -0.3350
s off
f 11/1/1 5/2/1 8/3/1 10/4/1
f 12/5/2 7/6/2 6/7/2 9/8/2
f 4/9/3 10/4/3 12/5/3 3/10/3
f 5/11/4 11/12/4 9/8/4 6/7/4
f 3/10/5 12/5/5 9/8/5 2/13/5
f 1/14/6 11/1/6 10/4/6 4/9/6
f 10/4/7 8/3/7 7/6/7 12/5/7
f 13/15/8 17/16/8 16/17/8
f 13/18/9 14/19/9 19/20/9
f 13/21/10 16/17/10 15/22/10
f 16/23/11 17/24/11 23/25/11 22/26/11
f 13/27/12 18/28/12 17/16/12
f 13/29/13 15/22/13 14/19/13
f 13/30/14 19/20/14 18/28/14
f 18/31/15 19/32/15 25/33/15 24/34/15
f 19/32/16 14/35/16 20/36/16 25/33/16
f 15/37/17 16/23/17 22/26/17 21/38/17
f 22/39/18 23/40/18 29/41/18 28/42/18
f 17/24/19 18/31/19 24/34/19 23/25/19
f 14/35/20 15/37/20 21/38/20 20/36/20
f 23/40/21 24/43/21 30/44/21 29/41/21
f 25/45/22 20/46/22 26/47/22 31/48/22
f 20/46/23 21/49/23 27/50/23 26/47/23
f 24/43/24 25/45/24 31/48/24 30/44/24
f 21/49/25 22/39/25 28/42/25 27/50/25
f 26/51/26 33/52/26 34/53/26 31/54/26
f 28/55/27 29/56/27 36/57/27 37/58/27
f 36/57/28 35/59/28 32/60/28
f 33/52/29 38/61/29 32/60/29
f 35/59/30 34/53/30 32/60/30
f 38/61/31 37/58/31 32/60/31
f 27/62/32 28/55/32 37/58/32 38/61/32
f 36/57/33 32/60/33 37/58/33
f 30/63/34 31/54/34 34/53/34 35/59/34
f 26/51/35 27/62/35 38/61/35 33/52/35
f 29/56/36 30/63/36 35/59/36 36/57/36
f 34/53/37 33/52/37 32/60/37
f 2/13/38 9/8/38 11/12/38 1/64/38
