# Blender v2.78 (sub 0) OBJ File: 'Low_Poly_Trees_Pack.blend'
# www.blender.org
g Pine_Tree_m_10
v 0.000000 0.000000 -0.206483
v -0.194911 0.000000 -0.064872
v -0.120461 0.000000 0.164259
v 0.120461 0.000000 0.164259
v 0.194911 0.000000 -0.064872
v 0.005628 2.104820 -0.116374
v -0.117533 2.105690 -0.026833
v -0.070257 2.105773 0.117847
v 0.082047 2.104955 0.117717
v 0.128927 2.104364 -0.027040
v -0.156034 0.487722 -0.036530
v -0.095738 0.487694 0.149042
v 0.159680 0.487739 -0.036530
v 0.001823 0.487750 -0.151220
v 0.099384 0.487704 0.149042
v -0.609151 0.839534 -0.916518
v -1.280328 0.449394 0.008333
v -0.303464 0.882458 1.022236
v 0.796123 0.898868 0.926861
v 1.207877 0.486189 0.001870
v 0.463697 0.834650 -0.925661
v -0.392328 1.913418 -0.561704
v -0.726652 1.925194 -0.062052
v -0.218778 1.926000 0.535284
v 0.398093 1.917711 0.442068
v 0.589358 1.907648 -0.063851
v 0.219365 1.906051 -0.591454
v -0.678813 1.236129 -1.096088
v -1.235505 1.712783 0.008072
v -0.423547 1.471123 1.082070
v 0.835041 1.338062 1.008638
v 1.293934 1.444510 0.045470
v 0.540718 1.127246 -1.163294
v 0.029630 3.376631 -0.095491
v -0.053696 3.380302 0.033127
v 0.073382 3.376675 0.163187
v 0.227622 3.371161 0.163022
v 0.275247 3.368539 0.032779
v 0.176057 3.371428 -0.088843
v -0.528441 2.551396 -0.732147
v -1.127532 2.170174 0.065020
v -0.281211 2.486299 0.951495
v 0.684369 2.525294 0.870751
v 1.071985 2.266131 0.078042
v 0.412772 2.569126 -0.736173
v 0.192226 4.183346 -0.100737
v 0.105386 4.188408 0.032615
v 0.239022 4.181832 0.167750
v 0.400679 4.173140 0.167789
v 0.450130 4.169959 0.032704
v 0.345706 4.175189 -0.093639
v -0.266395 3.440904 -0.623930
v -0.550594 3.751719 0.010940
v -0.069571 3.353546 0.771825
v 0.691458 3.209143 0.683426
v 0.975790 3.442974 0.018491
v 0.483128 3.314989 -0.641935
v 0.578414 5.701841 0.133310
v 0.175800 4.624906 -0.205070
v 0.522557 4.603288 -0.246287
v 0.711298 4.586924 0.060846
v 0.611638 4.592671 0.329991
v 0.273064 4.615597 0.329882
v -0.002313 4.634950 0.060596
v -0.033732 1.528963 0.032538
vt 0.8058 0.9183
vt 0.8058 0.9769
vt 0.7933 0.9769
vt 0.7938 0.9182
vt 0.8429 0.9181
vt 0.8424 0.9774
vt 0.8302 0.9775
vt 0.8304 0.9179
vt 0.8180 0.9181
vt 0.8181 0.9772
vt 0.7810 0.9772
vt 0.7815 0.9179
vt 0.8307 0.8954
vt 0.8184 0.8959
vt 0.7934 0.8963
vt 0.7810 0.8956
vt 0.8060 0.8964
vt 0.8430 0.8959
vt 0.9170 0.3901
vt 0.9343 0.4167
vt 0.9215 0.4399
vt 0.8976 0.4364
vt 0.9602 0.3901
vt 0.9530 0.4175
vt 0.9152 0.4402
vt 0.9266 0.4675
vt 0.9144 0.4873
vt 0.8964 0.4422
vt 0.9162 0.4898
vt 0.9335 0.4610
vt 0.9544 0.4583
vt 0.9633 0.4813
vt 0.9820 0.4353
vt 0.9644 0.4348
vt 0.9624 0.4427
vt 0.9532 0.4164
vt 0.9631 0.4016
vt 0.9858 0.4461
vt 0.9268 0.4094
vt 0.9154 0.3916
vt 0.9503 0.4676
vt 0.9547 0.4883
vt 0.9660 0.4780
vt 0.9455 0.4520
vt 0.9506 0.4379
vt 0.9829 0.4363
vt 0.9001 0.4369
vt 0.9183 0.3921
vt 0.9330 0.4282
vt 0.9270 0.4421
vt 0.9574 0.3918
vt 0.9436 0.4281
vt 0.9266 0.4421
vt 0.9336 0.4591
vt 0.9191 0.4888
vt 0.8939 0.4388
vt 0.9196 0.4878
vt 0.9341 0.4534
vt 0.9560 0.4434
vt 0.9500 0.4271
vt 0.9623 0.3999
vt 0.9836 0.4525
vt 0.9336 0.4231
vt 0.9189 0.3936
vt 0.8987 0.4369
vt 0.9183 0.3908
vt 0.9401 0.4366
vt 0.9376 0.4418
vt 0.9486 0.4592
vt 0.9584 0.4889
vt 0.9594 0.3905
vt 0.9802 0.4341
vt 0.9467 0.4406
vt 0.9442 0.4366
vt 0.9635 0.4798
vt 0.9445 0.4456
vt 0.9176 0.4903
vt 0.9401 0.4465
vt 0.9352 0.4429
vt 0.9445 0.4468
vt 0.9584 0.4906
vt 0.9100 0.4716
vt 0.9502 0.4409
vt 0.9881 0.4617
vt 0.9470 0.4320
vt 0.9385 0.4281
vt 0.9274 0.3927
vt 0.9772 0.4131
vt 0.9306 0.4328
vt 0.8879 0.4201
vt 0.9306 0.6104
vt 0.9337 0.5811
vt 0.9472 0.5757
vt 0.9733 0.5896
vt 0.9147 0.5338
vt 0.9621 0.5165
vt 0.9445 0.5520
vt 0.9295 0.5585
vt 0.9530 0.5621
vt 0.9382 0.5687
vt 0.9620 0.4026
vt 0.9781 0.4451
vt 0.9414 0.4408
vt 0.9229 0.5737
vt 0.8901 0.5858
vt 0.9892 0.5452
vt 0.9218 0.4850
vt 0.9034 0.4410
vt 0.9594 0.4842
vt 0.9219 0.3963
vn -0.9506 0.0209 0.3096
vn 0.5873 0.0160 -0.8092
vn 0.0004 0.0193 0.9998
vn -0.5878 0.0188 -0.8088
vn 0.9498 0.0507 0.3086
vn -0.5852 0.0935 -0.8055
vn -0.0000 0.0312 0.9995
vn 0.5854 0.0891 -0.8058
vn -0.9495 0.0578 0.3085
vn 0.9511 0.0162 0.3085
vn 0.0962 0.4362 0.8947
vn 0.8743 0.4194 0.2445
vn -0.1147 -0.7395 -0.6633
vn -0.8149 0.3015 -0.4951
vn 0.7861 0.3285 -0.5236
vn -0.7383 0.3186 0.5945
vn 0.0038 -0.6049 0.7963
vn 0.5032 -0.7082 0.4952
vn -0.5729 -0.6562 0.4911
vn 0.3924 -0.8146 -0.4272
vn -0.0043 0.4280 -0.9038
vn -0.5447 -0.7859 -0.2926
vn 0.0875 0.4093 0.9082
vn 0.8070 0.4214 0.4138
vn -0.0351 -0.6535 -0.7561
vn -0.6837 0.4860 -0.5443
vn 0.7326 0.3860 -0.5606
vn -0.6534 0.4578 0.6029
vn 0.0052 -0.6200 0.7846
vn 0.6548 -0.6162 -0.4376
vn 0.0546 0.4025 0.9138
vn -0.7853 -0.5843 -0.2046
vn 0.7138 -0.6499 0.2611
vn -0.7346 -0.5318 0.4215
vn 0.7901 0.2503 -0.5595
vn -0.0006 0.3662 -0.9305
vn -0.7079 0.4532 0.5417
vn -0.1666 -0.5212 -0.8370
vn 0.8932 0.2986 0.3363
vn -0.7864 0.4839 -0.3841
vn -0.7433 -0.4930 -0.4522
vn -0.0708 -0.5446 0.8357
vn 0.4857 -0.7006 0.5227
vn -0.6609 -0.4804 0.5765
vn 0.4690 -0.6385 -0.6102
vn -0.0090 0.3145 -0.9492
vn 0.1185 0.2751 0.9541
vn 0.9347 0.0890 0.3442
vn 0.0013 -0.8094 0.5872
vn -0.7392 0.4373 -0.5122
vn 0.8474 0.1344 -0.5136
vn -0.6538 0.3088 0.6908
vn -0.6590 0.3912 0.6424
vn 0.0115 0.1749 0.9845
vn 0.7947 0.1780 -0.5802
vn -0.7118 0.4611 -0.5297
vn 0.8955 0.1725 0.4103
vn -0.0912 0.3294 -0.9398
vn -0.0356 -0.8322 -0.5533
vn -0.6413 -0.7652 0.0559
vn 0.6453 -0.7486 0.1525
vn -0.6243 -0.7498 0.2192
vn 0.6282 -0.7187 -0.2983
vn -0.0198 0.3055 -0.9520
s off
f 12/1/1 8/2/1 7/3/1 11/4/1
f 14/5/2 6/6/2 10/7/2 13/8/2
f 15/9/3 9/10/3 8/2/3 12/1/3
f 11/4/4 7/3/4 6/11/4 14/12/4
f 5/13/5 13/8/5 15/9/5 4/14/5
f 2/15/6 11/4/6 14/12/6 1/16/6
f 4/14/7 15/9/7 12/1/7 3/17/7
f 1/18/8 14/5/8 13/8/8 5/13/8
f 3/17/9 12/1/9 11/4/9 2/15/9
f 13/8/10 10/7/10 9/10/10 15/9/10
f 19/19/11 25/20/11 24/21/11 18/22/11
f 20/23/12 26/24/12 25/20/12 19/19/12
f 24/25/13 25/26/13 31/27/13 30/28/13
f 17/29/14 23/30/14 22/31/14 16/32/14
f 21/33/15 27/34/15 26/24/15 20/23/15
f 18/22/16 24/21/16 23/30/16 17/29/16
f 27/35/17 22/36/17 28/37/17 33/38/17
f 22/36/18 23/39/18 29/40/18 28/37/18
f 26/41/19 27/35/19 33/38/19 32/42/19
f 23/39/20 24/25/20 30/28/20 29/40/20
f 28/43/21 34/44/21 39/45/21 33/46/21
f 25/26/22 26/41/22 32/42/22 31/27/22
f 30/47/23 31/48/23 37/49/23 36/50/23
f 31/48/24 32/51/24 38/52/24 37/49/24
f 36/53/25 37/54/25 43/55/25 42/56/25
f 28/43/26 29/57/26 35/58/26 34/44/26
f 32/51/27 33/46/27 39/45/27 38/52/27
f 29/57/28 30/47/28 36/50/28 35/58/28
f 39/59/29 34/60/29 40/61/29 45/62/29
f 35/63/30 36/53/30 42/56/30 41/64/30
f 42/65/31 43/66/31 49/67/31 48/68/31
f 37/54/32 38/69/32 44/70/32 43/55/32
f 34/60/33 35/63/33 41/64/33 40/61/33
f 38/69/34 39/59/34 45/62/34 44/70/34
f 44/71/35 45/72/35 51/73/35 50/74/35
f 45/72/36 40/75/36 46/76/36 51/73/36
f 41/77/37 42/65/37 48/68/37 47/78/37
f 48/79/38 49/80/38 55/81/38 54/82/38
f 43/66/39 44/71/39 50/74/39 49/67/39
f 40/75/40 41/77/40 47/78/40 46/76/40
f 49/80/41 50/83/41 56/84/41 55/81/41
f 51/85/42 46/86/42 52/87/42 57/88/42
f 46/86/43 47/89/43 53/90/43 52/87/43
f 50/83/44 51/85/44 57/88/44 56/84/44
f 47/89/45 48/79/45 54/82/45 53/90/45
f 52/91/46 59/92/46 60/93/46 57/94/46
f 54/95/47 55/96/47 62/97/47 63/98/47
f 62/97/48 61/99/48 58/100/48
f 16/101/49 21/102/49 65/103/49
f 59/92/50 64/104/50 58/100/50
f 61/99/51 60/93/51 58/100/51
f 64/104/52 63/98/52 58/100/52
f 53/105/53 54/95/53 63/98/53 64/104/53
f 62/97/54 58/100/54 63/98/54
f 56/106/55 57/94/55 60/93/55 61/99/55
f 52/91/56 53/105/56 64/104/56 59/92/56
f 55/96/57 56/106/57 61/99/57 62/97/57
f 60/93/58 59/92/58 58/100/58
f 19/107/59 18/108/59 65/103/59
f 20/109/60 19/107/60 65/103/60
f 17/110/61 16/101/61 65/103/61
f 21/102/62 20/109/62 65/103/62
f 18/108/63 17/110/63 65/103/63
f 22/31/64 27/34/64 21/33/64 16/32/64
