# Blender v2.78 (sub 0) OBJ File: 'Low_Poly_Trees_Pack.blend'
# www.blender.org
g Pine_Tree_NoLeaves_crk_l_06
v 0.986305 6.275280 -0.008947
v 0.967424 6.296376 -0.007929
v 0.974297 6.284698 -0.033013
v 0.157811 5.864568 0.034282
v 0.128501 5.938639 0.035693
v 0.135840 5.900015 -0.033603
v 0.212571 2.944778 0.110273
v 0.149583 2.983756 0.139612
v 0.167343 2.910860 0.166412
v 0.546675 3.175277 0.605760
v 0.512369 3.194376 0.619656
v 0.524531 3.158779 0.636916
v -0.024448 4.058223 -0.119951
v 0.026163 4.091805 -0.171511
v -0.000343 4.017752 -0.184207
v -0.662024 4.433811 -0.670789
v -0.640510 4.443710 -0.686661
v -0.656643 4.422563 -0.696413
v -0.069768 0.000000 -0.344106
v -0.329252 0.000000 -0.024387
v -0.097469 0.000000 0.322780
v 0.318633 0.000000 0.208148
v 0.305002 0.000000 -0.193610
v 0.304439 3.556030 0.091258
v 0.178290 7.248100 0.115648
v 0.233233 7.322517 -0.139722
v 0.318610 3.598958 -0.236763
v -0.162839 3.576891 -0.107945
v -0.011247 6.370033 -0.061927
v 0.009374 7.256624 0.160456
v -0.031147 3.558677 0.181084
v 0.043176 7.299658 -0.241152
v 0.040340 3.485288 -0.365684
v 2.025972 5.954823 0.062649
v 2.069830 5.947394 0.003894
v 2.037887 6.012278 0.018061
v 2.500225 6.156228 0.355122
v 2.521357 6.152124 0.323170
v 2.508453 6.186760 0.333145
v 2.998076 5.003017 -0.140950
v 3.046913 5.057948 -0.050183
v 3.004648 5.010408 0.047769
v 2.929688 4.926097 0.017540
v 2.925627 4.921529 -0.099094
v 9.568310 -0.055941 -0.051717
v 9.548995 -0.026795 -0.034641
v 9.511826 -0.021673 -0.015429
v 9.491300 -0.034476 -0.021695
v 9.537661 -0.069758 -0.045168
v 4.926140 2.952709 -0.084225
v 6.961135 1.315374 -0.148108
v 6.920167 1.348498 -0.089688
v 4.901245 2.982818 -0.020804
v 4.950417 3.046058 0.000419
v 6.958114 1.361642 -0.083162
v 6.973740 1.435186 -0.116992
v 4.988259 3.078902 -0.047567
v 4.961076 3.009277 -0.105349
v 7.016281 1.330666 -0.164983
v 0.373596 7.660757 -0.048504
v 0.347776 7.458889 -0.241152
v 0.219468 7.392171 0.115648
v 0.338074 7.512745 0.160456
v 0.233236 7.322517 -0.139722
v -0.187517 8.281319 -0.037320
v -0.174539 8.201321 0.136212
v 0.206779 6.414307 0.110140
v 0.252514 6.481613 -0.161637
v -0.135550 6.168154 -0.065253
v 0.000223 6.421504 0.165115
v 0.042536 6.438246 -0.269276
vt 0.8113 0.9041
vt 0.8227 0.9045
vt 0.8227 0.9048
vt 0.8112 0.9051
vt 0.8113 0.9031
vt 0.8228 0.9041
vt 0.8112 0.9171
vt 0.8112 0.9168
vt 0.8115 0.9170
vt 0.8228 0.9052
vt 0.8113 0.9061
vt 0.8193 0.9101
vt 0.8113 0.9104
vt 0.8112 0.9098
vt 0.8192 0.9091
vt 0.8192 0.9121
vt 0.8112 0.9114
vt 0.8114 0.9109
vt 0.8193 0.9111
vt 0.8112 0.9159
vt 0.8115 0.9155
vt 0.8118 0.9159
vt 0.8112 0.9081
vt 0.8227 0.9078
vt 0.8228 0.9081
vt 0.8113 0.9091
vt 0.8113 0.9061
vt 0.8228 0.9071
vt 0.8227 0.9075
vt 0.8113 0.9071
vt 0.8115 0.9166
vt 0.8112 0.9168
vt 0.8112 0.9164
vt 0.7918 0.8891
vt 0.7886 0.9342
vt 0.7846 0.9329
vt 0.7865 0.8890
vt 0.7936 0.8235
vt 0.7986 0.7949
vt 0.8044 0.7994
vt 0.7763 0.8888
vt 0.7766 0.9336
vt 0.7722 0.9337
vt 0.7709 0.8888
vt 0.7765 0.9697
vt 0.7765 0.9803
vt 0.7743 0.9805
vt 0.7738 0.9699
vt 0.7807 0.9342
vt 0.7814 0.8889
vt 0.7831 0.9701
vt 0.7826 0.9810
vt 0.7799 0.9813
vt 0.7801 0.9706
vt 0.7970 0.8895
vt 0.7927 0.9343
vt 0.8018 0.7881
vt 0.8187 0.9130
vt 0.8113 0.9133
vt 0.8112 0.9128
vt 0.8186 0.9121
vt 0.8186 0.9149
vt 0.8112 0.9142
vt 0.8113 0.9137
vt 0.8187 0.9140
vt 0.8117 0.9160
vt 0.8115 0.9164
vt 0.8112 0.9160
vt 0.8059 0.9687
vt 0.8059 0.9238
vt 0.8073 0.9238
vt 0.8091 0.9694
vt 0.7970 0.9690
vt 0.8015 0.9237
vt 0.8030 0.9238
vt 0.8001 0.9702
vt 0.8033 0.9688
vt 0.8044 0.9238
vt 0.8088 0.9238
vt 0.8112 0.9693
vt 0.8285 0.9848
vt 0.8291 0.9841
vt 0.8617 0.9839
vt 0.8605 0.9845
vt 0.8284 0.9826
vt 0.8288 0.9818
vt 0.8607 0.9822
vt 0.8614 0.9828
vt 0.8295 0.9836
vt 0.8621 0.9833
vt 0.8289 0.9853
vt 0.8608 0.9850
vt 0.8043 0.8893
vt 0.8054 0.8889
vt 0.7975 0.9827
vt 0.7973 0.9816
vt 0.8070 0.8892
vt 0.8081 0.8894
vt 0.7970 0.9853
vt 0.7971 0.9843
vt 0.8063 0.8888
vt 0.7976 0.9836
vt 0.8034 0.8893
vt 0.7972 0.9808
vt 0.8114 0.9155
vt 0.8112 0.9152
vt 0.8120 0.9149
vt 0.8123 0.9151
vt 0.8120 0.9155
vt 0.7800 0.9804
vt 0.7800 0.9805
vt 0.7771 0.9822
vt 0.7799 0.9788
vt 0.7992 0.9808
vt 0.7970 0.9798
vt 0.8251 0.8337
vt 0.8251 0.7838
vt 0.8442 0.7904
vt 0.8345 0.8320
vt 0.8322 0.7764
vt 0.8443 0.7817
vt 0.7820 0.8265
vt 0.7814 0.8196
vt 0.7894 0.8303
vt 0.7898 0.9703
vt 0.7867 0.9669
vt 0.7914 0.7944
vn -0.3653 0.7975 -0.4801
vn 0.0517 0.0007 0.9987
vn 0.7382 0.6659 -0.1077
vn 0.3589 -0.7797 -0.5131
vn 0.5849 -0.8109 -0.0169
vn -0.8019 0.0213 0.5971
vn 0.2426 0.8071 -0.5383
vn 0.5512 0.5089 0.6612
vn -0.6305 -0.7440 0.2212
vn 0.5857 -0.0720 -0.8073
vn 0.0137 0.8336 0.5522
vn -0.6168 0.6649 -0.4214
vn -0.7786 0.0211 -0.6272
vn -0.9988 0.0112 0.0479
vn 0.2624 0.0331 0.9644
vn 0.2569 0.0025 0.9664
vn 0.3956 -0.0153 -0.9183
vn 0.4589 0.0311 -0.8879
vn -0.8669 0.0439 0.4965
vn -0.8485 0.5237 -0.0759
vn 1.0000 0.0001 0.0007
vn 0.9807 0.0248 0.1940
vn -0.5930 0.5677 0.5710
vn 0.4102 0.3854 -0.8266
vn 0.2247 -0.9334 0.2797
vn 0.8329 0.1575 0.5306
vn -0.6629 -0.7374 0.1298
vn 0.5898 0.6049 0.5349
vn -0.2872 -0.3419 -0.8947
vn -0.1543 -0.2080 0.9659
vn 0.5354 0.5509 -0.6402
vn -0.4679 -0.8568 0.2167
vn 0.2380 0.4737 0.8479
vn -0.1412 -0.3339 -0.9320
vn -0.1285 -0.1903 0.9733
vn 0.3250 0.5313 -0.7824
vn 0.5201 0.5045 -0.6892
vn 0.3890 0.5031 -0.7718
vn -0.1712 -0.1928 0.9662
vn -0.1308 -0.2033 0.9703
vn -0.2345 -0.2465 -0.9403
vn -0.2159 -0.2310 -0.9487
vn 0.5657 0.5507 0.6138
vn 0.3898 0.4303 0.8142
vn -0.7004 -0.7115 0.0560
vn -0.6254 -0.7776 0.0655
vn 0.2246 -0.4224 0.8781
vn 0.4206 -0.2347 0.8763
vn 0.9539 -0.2726 0.1258
vn 0.2523 -0.0721 0.9649
vn 0.0034 -1.0000 0.0000
vn 0.7097 0.5860 0.3911
vn 0.5708 0.5275 -0.6292
vn -0.8307 -0.5541 0.0542
vn -0.7801 -0.5883 -0.2128
vn -0.7484 0.6464 -0.1483
vn -0.3595 0.9310 -0.0638
vn 0.9942 0.0267 0.1042
vn -0.8904 0.0073 0.4552
vn 0.4277 0.0312 -0.9034
vn 0.2581 0.0025 0.9661
vn -0.7747 0.0200 -0.6320
vn -0.8502 0.5243 -0.0480
vn -0.9901 0.0316 -0.1366
s off
f 5/1/1 2/2/1 3/3/1 6/4/1
f 4/5/2 1/6/2 2/2/2 5/1/2
f 2/7/3 1/8/3 3/9/3
f 6/4/4 3/3/4 1/10/4 4/11/4
f 7/12/5 10/13/5 12/14/5 9/15/5
f 9/16/6 12/17/6 11/18/6 8/19/6
f 8/19/7 11/18/7 10/13/7 7/12/7
f 11/20/8 12/21/8 10/22/8
f 13/23/9 16/24/9 18/25/9 15/26/9
f 15/27/10 18/28/10 17/29/10 14/30/10
f 14/30/11 17/29/11 16/24/11 13/23/11
f 17/31/12 18/32/12 16/33/12
f 20/34/13 28/35/13 33/36/13 19/37/13
f 30/38/14 29/39/14 70/40/14
f 22/41/15 24/42/15 31/43/15 21/44/15
f 67/45/16 25/46/16 30/47/16 70/48/16
f 19/37/17 33/36/17 27/49/17 23/50/17
f 71/51/18 32/52/18 26/53/18 68/54/18
f 21/55/19 31/56/19 28/35/19 20/34/19
f 29/39/20 69/57/20 70/40/20
f 23/50/21 27/49/21 24/42/21 22/41/21
f 68/54/22 26/53/22 25/46/22 67/45/22
f 34/58/23 37/59/23 39/60/23 36/61/23
f 36/62/24 39/63/24 38/64/24 35/65/24
f 35/65/25 38/64/25 37/59/25 34/58/25
f 38/66/26 39/67/26 37/68/26
f 64/69/27 44/70/27 43/71/27 62/72/27
f 63/73/28 42/74/28 41/75/28 60/76/28
f 61/77/29 40/78/29 44/70/29 64/69/29
f 62/72/30 43/71/30 42/79/30 63/80/30
f 60/76/31 41/75/31 40/78/31 61/77/31
f 52/81/32 51/82/32 49/83/32 48/84/32
f 56/85/33 55/86/33 47/87/33 46/88/33
f 51/82/34 59/89/34 45/90/34 49/83/34
f 55/91/35 52/81/35 48/84/35 47/92/35
f 59/89/36 56/85/36 46/88/36 45/90/36
f 40/78/37 41/75/37 57/93/37 58/94/37
f 58/95/38 57/96/38 56/85/38 59/89/38
f 42/79/39 43/71/39 53/97/39 54/98/39
f 54/99/40 53/100/40 52/81/40 55/91/40
f 44/70/41 40/78/41 58/94/41 50/101/41
f 50/102/42 58/95/42 59/89/42 51/82/42
f 41/75/43 42/74/43 54/103/43 57/93/43
f 57/96/44 54/104/44 55/86/44 56/85/44
f 43/71/45 44/70/45 50/101/45 53/97/45
f 53/100/46 50/102/46 51/82/46 52/81/46
f 47/105/47 48/106/47 49/107/47 45/108/47
f 46/109/48 47/105/48 45/108/48
f 25/46/49 26/110/49 64/111/49 62/112/49
f 30/47/50 25/46/50 62/112/50
f 26/110/51 32/113/51 64/111/51
f 63/73/52 60/76/52 65/114/52 66/115/52
f 61/77/53 65/114/53 60/76/53
f 65/116/54 61/117/54 63/118/54
f 66/119/55 65/116/55 63/118/55
f 64/120/56 62/121/56 63/118/56 61/117/56
f 64/122/57 32/123/57 30/38/57 62/124/57
f 27/49/58 68/54/58 67/45/58 24/42/58
f 31/56/59 70/125/59 69/126/59 28/35/59
f 33/36/60 71/51/60 68/54/60 27/49/60
f 24/42/61 67/45/61 70/48/61 31/43/61
f 28/35/62 69/126/62 71/51/62 33/36/62
f 29/39/63 71/127/63 69/57/63
f 29/39/64 30/38/64 32/123/64 71/127/64
