# Blender v2.78 (sub 0) OBJ File: 'Low_Poly_Trees_Pack.blend'
# www.blender.org
g Pine_Tree_m_01
v 0.000000 0.000000 -0.327751
v -0.309382 0.000000 -0.102972
v -0.191209 0.000000 0.260729
v 0.191209 0.000000 0.260729
v 0.309382 0.000000 -0.102972
v -0.002147 3.339072 -0.174160
v -0.197983 3.340687 -0.032389
v -0.123036 3.341332 0.197499
v 0.119124 3.340154 0.197805
v 0.193840 3.338738 -0.031892
v -0.247674 0.774161 -0.057985
v -0.151965 0.774118 0.236575
v 0.253461 0.774189 -0.057985
v 0.002894 0.774207 -0.240033
v 0.157753 0.774134 0.236575
v -0.060118 0.949907 -2.037888
v -1.371870 1.583510 -1.362171
v -2.032266 0.962351 0.007130
v -1.368462 1.636521 1.357417
v -0.054839 1.030367 2.042654
v 1.263687 1.675802 1.350702
v 1.917265 1.020756 -0.002324
v 1.259949 1.621725 -1.368129
v -0.117553 3.271581 -1.135209
v -0.855396 3.286507 -0.829204
v -1.159744 3.303206 -0.089274
v -0.852415 3.312327 0.651136
v -0.113797 3.308569 0.958309
v 0.623543 3.293688 0.652311
v 0.928033 3.276382 -0.087615
v 0.621208 3.267215 -0.828032
v 0.026851 2.653835 -2.305200
v -1.496094 2.022844 -1.600812
v -2.020126 2.653388 0.016680
v -1.535661 2.153628 1.544002
v -0.029188 2.841576 2.052858
v 1.489944 2.310662 1.575254
v 2.012484 2.861935 0.058302
v 1.532838 2.168297 -1.795445
v -0.033024 5.552565 -0.196864
v -0.221566 5.554906 -0.118227
v -0.299827 5.558574 0.072164
v -0.221973 5.561564 0.262779
v -0.033609 5.562168 0.341954
v 0.154936 5.559905 0.263312
v 0.233213 5.556045 0.072924
v 0.155357 5.552979 -0.117685
v 0.074408 3.916367 -1.779999
v -1.190765 4.466126 -1.173208
v -1.831360 3.912623 0.101054
v -1.222377 4.390487 1.348442
v 0.032153 3.806975 2.003759
v 1.291724 4.324744 1.362760
v 1.936305 3.809726 0.122798
v 1.316725 4.394773 -1.158548
v -0.003197 6.808017 -0.215907
v -0.199188 6.807624 -0.134427
v -0.280662 6.810932 0.063043
v -0.199908 6.816051 0.260826
v -0.004226 6.820029 0.343063
v 0.191771 6.820501 0.261581
v 0.273266 6.817132 0.064114
v 0.192506 6.811937 -0.133667
v 0.006224 5.978686 -1.324309
v -1.008770 5.503000 -0.970976
v -1.348007 5.911118 0.041398
v -1.009742 5.434468 1.083145
v 0.004934 5.889129 1.413417
v 1.021477 5.469676 1.087850
v 1.359211 5.956323 0.047666
v 1.022463 5.535498 -0.966282
v 0.004567 9.244203 0.156722
v -0.429151 7.486973 -0.301620
v -0.037732 7.490503 -0.463912
v 0.386305 7.497048 -0.300001
v 0.548071 7.504634 0.094022
v 0.385377 7.509027 0.487421
v -0.038923 7.507143 0.649694
v -0.429915 7.498535 0.485834
v -0.591560 7.490267 0.091783
v -0.056044 2.675588 0.045981
vt 0.8058 0.9183
vt 0.8058 0.9769
vt 0.7933 0.9769
vt 0.7938 0.9182
vt 0.8429 0.9181
vt 0.8424 0.9774
vt 0.8302 0.9775
vt 0.8304 0.9179
vt 0.8180 0.9181
vt 0.8181 0.9772
vt 0.7810 0.9772
vt 0.7815 0.9179
vt 0.8307 0.8954
vt 0.8184 0.8959
vt 0.7934 0.8963
vt 0.7810 0.8956
vt 0.8060 0.8964
vt 0.8430 0.8959
vt 0.5818 0.3677
vt 0.5750 0.3355
vt 0.5888 0.3223
vt 0.6148 0.3385
vt 0.5890 0.3036
vt 0.6157 0.2935
vt 0.5833 0.2618
vt 0.5758 0.2901
vt 0.5564 0.2893
vt 0.5386 0.2618
vt 0.5081 0.2923
vt 0.5422 0.3022
vt 0.5417 0.3216
vt 0.5083 0.3341
vt 0.5378 0.3650
vt 0.5556 0.3351
vt 0.5307 0.2993
vt 0.5306 0.3244
vt 0.5073 0.3328
vt 0.5078 0.2919
vt 0.5736 0.2823
vt 0.5487 0.2818
vt 0.5369 0.2633
vt 0.5805 0.2624
vt 0.5730 0.3419
vt 0.5906 0.3249
vt 0.6146 0.3308
vt 0.5776 0.3633
vt 0.5485 0.3418
vt 0.5358 0.3623
vt 0.5911 0.3001
vt 0.6146 0.2895
vt 0.6163 0.2963
vt 0.6163 0.3356
vt 0.5746 0.3197
vt 0.5740 0.3087
vt 0.5399 0.2639
vt 0.5803 0.2635
vt 0.5660 0.3011
vt 0.5551 0.3011
vt 0.5115 0.3338
vt 0.5115 0.2926
vt 0.5477 0.3092
vt 0.5482 0.3201
vt 0.5849 0.3632
vt 0.5412 0.3629
vt 0.5563 0.3273
vt 0.5669 0.3276
vt 0.5448 0.3221
vt 0.5558 0.3331
vt 0.5408 0.3639
vt 0.5120 0.3353
vt 0.5558 0.2959
vt 0.5449 0.3066
vt 0.5117 0.2947
vt 0.5405 0.2654
vt 0.5820 0.3068
vt 0.5711 0.2959
vt 0.5817 0.2654
vt 0.6105 0.2947
vt 0.5822 0.3222
vt 0.6103 0.3354
vt 0.5713 0.3332
vt 0.5814 0.3640
vt 0.5825 0.2622
vt 0.6129 0.2922
vt 0.5696 0.3130
vt 0.5667 0.3099
vt 0.5100 0.2923
vt 0.5399 0.2625
vt 0.5625 0.3098
vt 0.5593 0.3129
vt 0.5392 0.3655
vt 0.5094 0.3345
vt 0.5594 0.3172
vt 0.5625 0.3202
vt 0.6129 0.3352
vt 0.5825 0.3660
vt 0.5666 0.3200
vt 0.5694 0.3170
vt 0.5670 0.3204
vt 0.5729 0.3143
vt 0.6121 0.3359
vt 0.5814 0.3657
vt 0.5525 0.3144
vt 0.5585 0.3204
vt 0.5390 0.3655
vt 0.5090 0.3356
vt 0.5587 0.3001
vt 0.5526 0.3060
vt 0.5085 0.2928
vt 0.5386 0.2620
vt 0.5728 0.3059
vt 0.6127 0.2928
vt 0.5670 0.3001
vt 0.5820 0.2620
vt 0.4419 0.3316
vt 0.4296 0.3309
vt 0.4377 0.3166
vt 0.4521 0.3229
vt 0.4443 0.2993
vt 0.4531 0.3098
vt 0.4207 0.3094
vt 0.4297 0.2996
vt 0.4218 0.3218
vt 0.3877 0.3344
vt 0.3882 0.2895
vt 0.4206 0.2601
vt 0.4625 0.2623
vt 0.4908 0.2922
vt 0.4908 0.3338
vt 0.4190 0.3652
vt 0.4617 0.3642
vt 0.6099 0.2937
vt 0.6098 0.3317
vt 0.5638 0.3142
vt 0.5824 0.3592
vt 0.5435 0.3600
vt 0.5161 0.3337
vt 0.5161 0.2957
vt 0.5436 0.2682
vt 0.5825 0.2674
vn -0.9508 0.0154 0.3094
vn 0.5875 0.0219 -0.8089
vn -0.0005 0.0152 0.9999
vn -0.5870 0.0195 -0.8093
vn 0.9498 0.0507 0.3086
vn -0.5852 0.0935 -0.8055
vn -0.0000 0.0312 0.9995
vn 0.5854 0.0891 -0.8058
vn -0.9495 0.0578 0.3085
vn 0.9509 0.0190 0.3091
vn -0.3120 0.3506 -0.8830
vn 0.2968 0.3719 -0.8795
vn 0.8691 0.4188 0.2633
vn -0.2898 0.4224 0.8588
vn -0.8886 0.3386 -0.3094
vn 0.8716 0.3972 -0.2874
vn 0.2791 0.4405 0.8533
vn -0.8845 0.3641 0.2918
vn 0.4134 -0.7619 -0.4987
vn 0.6458 -0.6474 0.4047
vn -0.4650 -0.8088 0.3601
vn -0.3509 -0.8309 -0.4318
vn 0.5998 -0.7128 -0.3636
vn 0.4420 -0.6980 0.5634
vn -0.3493 -0.8072 0.4758
vn -0.4113 -0.8417 -0.3499
vn 0.4100 0.5377 -0.7367
vn 0.7603 0.4912 0.4250
vn -0.4532 0.4674 0.7590
vn -0.7792 0.4634 -0.4221
vn 0.7717 0.5075 -0.3834
vn 0.4039 0.4838 0.7764
vn -0.7965 0.4592 0.3935
vn -0.5051 0.4915 -0.7094
vn -0.1044 -0.6970 -0.7094
vn 0.7166 -0.6884 -0.1121
vn 0.0655 -0.7047 0.7065
vn -0.1066 -0.7059 0.7002
vn -0.7014 -0.7060 -0.0984
vn 0.0820 -0.6960 -0.7134
vn 0.7172 -0.6906 0.0927
vn -0.7021 -0.7102 0.0519
vn 0.8521 0.4764 -0.2167
vn 0.2499 0.4747 0.8439
vn -0.8498 0.4637 0.2506
vn -0.2280 0.4652 -0.8553
vn 0.2558 0.4699 -0.8448
vn 0.8420 0.4762 0.2536
vn -0.2423 0.4722 0.8475
vn -0.8527 0.4607 -0.2461
vn -0.5813 -0.6717 -0.4592
vn 0.4540 -0.6532 -0.6060
vn 0.5941 -0.6757 0.4364
vn -0.5744 -0.6899 0.4405
vn -0.4339 -0.6649 -0.6080
vn 0.6036 -0.6558 -0.4535
vn 0.4694 -0.6845 0.5579
vn -0.4544 -0.6949 0.5574
vn -0.3655 0.3184 -0.8747
vn 0.3391 0.3066 -0.8894
vn 0.8920 0.2655 0.3659
vn -0.3780 0.2615 0.8881
vn -0.8774 0.3117 -0.3648
vn 0.8835 0.2893 -0.3683
vn 0.3451 0.2482 0.9052
vn -0.8879 0.2885 0.3582
vn -0.8345 0.3677 0.4105
vn 0.3941 0.3846 0.8347
vn 0.8091 0.4176 -0.4135
vn -0.8243 0.3917 -0.4088
vn -0.4140 0.3680 0.8326
vn 0.8181 0.3946 0.4183
vn 0.4202 0.4328 -0.7975
vn -0.4346 0.4161 -0.7987
vn 0.0683 -0.7685 0.6362
vn -0.6405 -0.7655 0.0612
vn -0.0244 -0.7715 -0.6357
vn 0.6551 -0.7551 -0.0266
vn -0.6427 -0.7656 -0.0276
vn 0.0440 -0.7710 -0.6353
vn 0.6534 -0.7550 0.0557
vn -0.0434 -0.7694 0.6373
s off
f 12/1/1 8/2/1 7/3/1 11/4/1
f 14/5/2 6/6/2 10/7/2 13/8/2
f 15/9/3 9/10/3 8/2/3 12/1/3
f 11/4/4 7/3/4 6/11/4 14/12/4
f 5/13/5 13/8/5 15/9/5 4/14/5
f 2/15/6 11/4/6 14/12/6 1/16/6
f 4/14/7 15/9/7 12/1/7 3/17/7
f 1/18/8 14/5/8 13/8/8 5/13/8
f 3/17/9 12/1/9 11/4/9 2/15/9
f 13/8/10 10/7/10 9/10/10 15/9/10
f 17/19/11 25/20/11 24/21/11 16/22/11
f 16/22/12 24/21/12 31/23/12 23/24/12
f 22/25/13 30/26/13 29/27/13 21/28/13
f 20/29/14 28/30/14 27/31/14 19/32/14
f 18/33/15 26/34/15 25/20/15 17/19/15
f 23/24/16 31/23/16 30/26/16 22/25/16
f 21/28/17 29/27/17 28/30/17 20/29/17
f 19/32/18 27/31/18 26/34/18 18/33/18
f 27/35/19 28/36/19 36/37/19 35/38/19
f 25/39/20 26/40/20 34/41/20 33/42/20
f 30/43/21 31/44/21 39/45/21 38/46/21
f 28/36/22 29/47/22 37/48/22 36/37/22
f 26/40/23 27/35/23 35/38/23 34/41/23
f 24/49/24 25/39/24 33/42/24 32/50/24
f 31/44/25 24/49/25 32/50/25 39/45/25
f 29/47/26 30/43/26 38/46/26 37/48/26
f 39/51/27 32/52/27 40/53/27 47/54/27
f 37/55/28 38/56/28 46/57/28 45/58/28
f 35/59/29 36/60/29 44/61/29 43/62/29
f 33/63/30 34/64/30 42/65/30 41/66/30
f 38/56/31 39/51/31 47/54/31 46/57/31
f 36/60/32 37/55/32 45/58/32 44/61/32
f 34/64/33 35/59/33 43/62/33 42/65/33
f 32/52/34 33/63/34 41/66/34 40/53/34
f 44/67/35 45/68/35 53/69/35 52/70/35
f 42/71/36 43/72/36 51/73/36 50/74/36
f 40/75/37 41/76/37 49/77/37 48/78/37
f 47/79/38 40/75/38 48/78/38 55/80/38
f 45/68/39 46/81/39 54/82/39 53/69/39
f 43/72/40 44/67/40 52/70/40 51/73/40
f 41/76/41 42/71/41 50/74/41 49/77/41
f 46/81/42 47/79/42 55/80/42 54/82/42
f 54/83/43 55/84/43 63/85/43 62/86/43
f 52/87/44 53/88/44 61/89/44 60/90/44
f 50/91/45 51/92/45 59/93/45 58/94/45
f 48/95/46 49/96/46 57/97/46 56/98/46
f 55/84/47 48/95/47 56/98/47 63/85/47
f 53/88/48 54/83/48 62/86/48 61/89/48
f 51/92/49 52/87/49 60/90/49 59/93/49
f 49/96/50 50/91/50 58/94/50 57/97/50
f 61/99/51 62/100/51 70/101/51 69/102/51
f 59/103/52 60/104/52 68/105/52 67/106/52
f 57/107/53 58/108/53 66/109/53 65/110/53
f 62/100/54 63/111/54 71/112/54 70/101/54
f 60/104/55 61/99/55 69/102/55 68/105/55
f 58/108/56 59/103/56 67/106/56 66/109/56
f 56/113/57 57/107/57 65/110/57 64/114/57
f 63/111/58 56/113/58 64/114/58 71/112/58
f 74/115/59 73/116/59 72/117/59
f 75/118/60 74/115/60 72/117/60
f 77/119/61 76/120/61 72/117/61
f 79/121/62 78/122/62 72/117/62
f 73/116/63 80/123/63 72/117/63
f 76/120/64 75/118/64 72/117/64
f 78/122/65 77/119/65 72/117/65
f 80/123/66 79/121/66 72/117/66
f 66/124/67 67/125/67 79/121/67 80/123/67
f 68/126/68 69/127/68 77/119/68 78/122/68
f 70/128/69 71/129/69 75/118/69 76/120/69
f 65/130/70 66/124/70 80/123/70 73/116/70
f 67/125/71 68/126/71 78/122/71 79/121/71
f 69/127/72 70/128/72 76/120/72 77/119/72
f 71/129/73 64/131/73 74/115/73 75/118/73
f 64/131/74 65/130/74 73/116/74 74/115/74
f 16/132/75 23/133/75 81/134/75
f 22/135/76 21/136/76 81/134/76
f 20/137/77 19/138/77 81/134/77
f 18/139/78 17/140/78 81/134/78
f 23/133/79 22/135/79 81/134/79
f 21/136/80 20/137/80 81/134/80
f 19/138/81 18/139/81 81/134/81
f 17/140/82 16/132/82 81/134/82
