# Blender v2.78 (sub 0) OBJ File: 'Low_Poly_Trees_Pack.blend'
# www.blender.org
g Pine_Tree_NoLeaves_l_02
v 0.466177 7.304509 0.657189
v 0.457611 7.324904 0.643998
v 0.480010 7.313710 0.637312
v 0.039871 6.987818 0.004350
v 0.028302 7.056941 -0.013932
v 0.084643 7.021028 -0.041895
v -0.053697 8.797942 -0.028469
v -0.009116 8.833703 -0.072962
v -0.014282 8.761580 -0.077154
v -0.451708 8.823485 -0.452727
v -0.426773 8.841643 -0.474686
v -0.432876 8.804866 -0.479765
v 0.208863 12.079720 0.290019
v 0.202421 12.095973 0.284029
v 0.220414 12.091867 0.282066
v 0.077781 11.931790 -0.007817
v 0.063792 11.969250 -0.019275
v 0.103885 11.959511 -0.024567
v -0.011253 4.372740 0.106552
v -0.077043 4.434394 0.022437
v -0.077043 4.311087 0.022437
v -0.412516 4.506170 0.379080
v -0.427838 4.526328 0.338131
v -0.448568 4.486013 0.354345
v -0.812164 4.674993 0.681060
v -0.821347 4.687074 0.656517
v -0.833771 4.662911 0.666235
v 0.057830 5.173169 0.100248
v 0.000568 5.208604 0.126920
v 0.016714 5.142334 0.151284
v 0.361561 5.382714 0.550691
v 0.330374 5.400076 0.563324
v 0.341430 5.367715 0.579014
v -0.051413 5.995215 -0.016613
v -0.005403 6.025744 -0.063485
v -0.029500 5.958424 -0.075026
v -0.631029 6.336658 -0.517374
v -0.611470 6.345658 -0.531803
v -0.626136 6.326434 -0.540669
v -0.063426 0.000000 -0.312824
v -0.299320 0.000000 -0.022170
v -0.088608 0.000000 0.293437
v 0.289666 0.000000 0.189225
v 0.277275 0.000000 -0.176009
v 0.002577 9.920107 -0.162995
v -0.093760 9.920107 -0.044028
v -0.010386 9.920107 0.084356
v 0.137479 9.920107 0.044736
v 0.145490 9.920107 -0.108135
v -0.009422 17.140430 -0.050501
v -0.019448 17.102552 -0.031366
v 0.003938 17.067612 -0.009836
v 0.029943 17.059954 -0.016859
v 0.024971 17.125051 -0.043163
v 0.213060 3.250479 0.215892
v 0.162082 6.589181 0.105134
v 0.201089 6.640608 -0.127020
v 0.225943 3.289505 -0.082310
v -0.211738 3.269444 0.034798
v -0.113494 6.531659 -0.044094
v 0.008521 6.596931 0.145869
v -0.092018 3.252886 0.297552
v 0.039251 6.636053 -0.219229
v -0.027029 3.186168 -0.199510
v 0.140645 12.408683 -0.082995
v 0.115392 14.808107 -0.079901
v 0.118258 14.746956 -0.012016
v 0.133905 12.365018 -0.011271
v 0.043506 12.359057 0.012730
v 0.077546 14.769762 -0.004432
v 0.001614 14.726548 -0.043743
v -0.012688 12.366361 -0.041538
v 0.066584 12.395705 -0.106884
v 0.059536 14.844192 -0.099510
vt 0.9793 0.9135
vt 0.9667 0.9132
vt 0.9666 0.9128
vt 0.9794 0.9124
vt 0.9793 0.9146
vt 0.9665 0.9135
vt 0.9665 0.9310
vt 0.9667 0.9306
vt 0.9669 0.9310
vt 0.9665 0.9124
vt 0.9793 0.9113
vt 0.9665 0.9169
vt 0.9754 0.9166
vt 0.9755 0.9172
vt 0.9667 0.9180
vt 0.9667 0.9147
vt 0.9755 0.9155
vt 0.9754 0.9160
vt 0.9666 0.9158
vt 0.9665 0.9285
vt 0.9668 0.9280
vt 0.9671 0.9285
vt 0.9720 0.9252
vt 0.9666 0.9248
vt 0.9665 0.9246
vt 0.9719 0.9246
vt 0.9719 0.9259
vt 0.9665 0.9251
vt 0.9665 0.9321
vt 0.9667 0.9319
vt 0.9668 0.9321
vt 0.9666 0.9243
vt 0.9720 0.9240
vt 0.9665 0.9027
vt 0.9743 0.9022
vt 0.9745 0.9029
vt 0.9665 0.9046
vt 0.9665 0.8990
vt 0.9745 0.9007
vt 0.9742 0.9014
vt 0.9668 0.9009
vt 0.9822 0.9021
vt 0.9823 0.9025
vt 0.9823 0.9012
vt 0.9822 0.9017
vt 0.9669 0.9300
vt 0.9665 0.9302
vt 0.9665 0.9298
vt 0.9755 0.9191
vt 0.9666 0.9194
vt 0.9665 0.9188
vt 0.9754 0.9180
vt 0.9754 0.9213
vt 0.9665 0.9205
vt 0.9667 0.9199
vt 0.9755 0.9202
vt 0.9665 0.9291
vt 0.9665 0.9286
vt 0.9670 0.9289
vt 0.9665 0.9068
vt 0.9793 0.9065
vt 0.9794 0.9069
vt 0.9666 0.9079
vt 0.9666 0.9046
vt 0.9794 0.9057
vt 0.9793 0.9061
vt 0.9666 0.9057
vt 0.9665 0.9306
vt 0.9667 0.9303
vt 0.9669 0.9306
vt 0.9501 0.8933
vt 0.9487 0.9441
vt 0.9464 0.9441
vt 0.9465 0.8924
vt 0.9599 0.8931
vt 0.9557 0.9445
vt 0.9534 0.9443
vt 0.9565 0.8918
vt 0.9530 0.8933
vt 0.9511 0.9442
vt 0.9441 0.9441
vt 0.9441 0.8925
vt 0.9620 0.9281
vt 0.9632 0.9292
vt 0.9638 0.9646
vt 0.9632 0.9632
vt 0.9654 0.9277
vt 0.9665 0.9296
vt 0.9658 0.9632
vt 0.9651 0.9640
vt 0.9639 0.9298
vt 0.9645 0.9650
vt 0.9599 0.9297
vt 0.9626 0.9634
vt 0.9383 0.8923
vt 0.9345 0.9424
vt 0.9300 0.9409
vt 0.9326 0.8919
vt 0.9308 0.9919
vt 0.9272 0.9933
vt 0.9215 0.8918
vt 0.9211 0.9417
vt 0.9163 0.9418
vt 0.9154 0.8919
vt 0.9208 0.9923
vt 0.9184 0.9925
vt 0.9257 0.9424
vt 0.9271 0.8918
vt 0.9244 0.9932
vt 0.9440 0.8929
vt 0.9389 0.9426
vt 0.9342 0.9931
vt 0.9507 0.9808
vt 0.9491 0.9811
vt 0.9637 0.8924
vt 0.9653 0.8919
vt 0.9468 0.9806
vt 0.9453 0.9805
vt 0.9600 0.8919
vt 0.9614 0.8919
vt 0.9479 0.9812
vt 0.9626 0.8926
vt 0.9519 0.9808
vt 0.9665 0.8918
vt 0.9665 0.9263
vt 0.9670 0.9259
vt 0.9677 0.9273
vt 0.9672 0.9280
vt 0.9665 0.9273
vn 0.2666 0.8191 -0.5079
vn -0.8381 0.0033 0.5456
vn 0.4905 0.6091 0.6233
vn 0.5901 -0.8073 0.0053
vn -0.3964 -0.8605 0.3199
vn 0.6928 -0.0103 -0.7210
vn -0.3305 0.8718 0.3617
vn -0.7280 0.2109 -0.6523
vn 0.1557 0.8841 -0.4407
vn -0.8653 -0.1768 0.4690
vn 0.1899 0.4049 0.8944
vn 0.7319 -0.6813 0.0161
vn 0.0911 -0.8351 0.5425
vn -0.6654 0.0103 -0.7464
vn 0.4577 0.8504 0.2594
vn 0.0758 -0.8242 0.5612
vn -0.6268 0.0089 -0.7792
vn 0.5140 0.8301 0.2163
vn -0.6596 0.5467 0.5159
vn 0.5849 -0.8109 -0.0169
vn -0.8019 0.0213 0.5971
vn 0.2426 0.8071 -0.5383
vn 0.5512 0.5089 0.6612
vn -0.6305 -0.7440 0.2212
vn 0.5857 -0.0720 -0.8073
vn 0.0137 0.8336 0.5522
vn -0.6168 0.6649 -0.4214
vn 0.9923 0.0128 0.1229
vn -0.8408 0.0051 0.5414
vn 0.4344 0.0164 -0.9006
vn 0.2580 0.0194 0.9659
vn -0.7637 0.0035 -0.6456
vn 0.9988 0.0388 -0.0311
vn -0.5216 -0.0118 0.8531
vn 0.3007 0.0281 -0.9533
vn 0.2181 0.0098 0.9759
vn -0.7352 -0.0053 -0.6778
vn -0.7776 0.0315 -0.6280
vn -0.7719 0.0096 -0.6357
vn 0.2625 -0.0013 0.9649
vn 0.2584 0.0360 0.9654
vn 0.3887 0.0303 -0.9209
vn 0.4530 -0.0112 -0.8915
vn -0.8682 0.0066 0.4962
vn -0.8832 0.0429 0.4670
vn 0.9998 0.0195 0.0019
vn 0.9949 0.0136 0.0997
vn -0.7260 0.0296 -0.6870
vn -0.6629 0.0018 -0.7487
vn 0.2574 0.0226 0.9660
vn 0.2345 0.0027 0.9721
vn 0.3405 0.0113 -0.9402
vn 0.3182 0.0042 -0.9480
vn -0.7936 0.0305 0.6076
vn -0.5796 0.0092 0.8148
vn 0.9978 0.0021 0.0659
vn 0.9994 0.0085 0.0341
vn 0.1665 0.4485 0.8781
vn -0.1041 0.4703 0.8763
s off
f 5/1/1 2/2/1 3/3/1 6/4/1
f 4/5/2 1/6/2 2/2/2 5/1/2
f 2/7/3 1/8/3 3/9/3
f 6/4/4 3/3/4 1/10/4 4/11/4
f 7/12/5 10/13/5 12/14/5 9/15/5
f 9/16/6 12/17/6 11/18/6 8/19/6
f 8/19/7 11/18/7 10/13/7 7/12/7
f 11/20/8 12/21/8 10/22/8
f 17/23/9 14/24/9 15/25/9 18/26/9
f 16/27/10 13/28/10 14/24/10 17/23/10
f 14/29/11 13/30/11 15/31/11
f 18/26/12 15/25/12 13/32/12 16/33/12
f 19/34/13 22/35/13 24/36/13 21/37/13
f 21/38/14 24/39/14 23/40/14 20/41/14
f 20/41/15 23/40/15 22/35/15 19/34/15
f 22/35/16 25/42/16 27/43/16 24/36/16
f 24/39/17 27/44/17 26/45/17 23/40/17
f 23/40/18 26/45/18 25/42/18 22/35/18
f 26/46/19 27/47/19 25/48/19
f 28/49/20 31/50/20 33/51/20 30/52/20
f 30/53/21 33/54/21 32/55/21 29/56/21
f 29/56/22 32/55/22 31/50/22 28/49/22
f 32/57/23 33/58/23 31/59/23
f 34/60/24 37/61/24 39/62/24 36/63/24
f 36/64/25 39/65/25 38/66/25 35/67/25
f 35/67/26 38/66/26 37/61/26 34/60/26
f 38/68/27 39/69/27 37/70/27
f 57/71/28 49/72/28 48/73/28 56/74/28
f 61/75/29 47/76/29 46/77/29 60/78/29
f 63/79/30 45/80/30 49/72/30 57/71/30
f 56/74/31 48/73/31 47/81/31 61/82/31
f 60/78/32 46/77/32 45/80/32 63/79/32
f 67/83/33 66/84/33 54/85/33 53/86/33
f 71/87/34 70/88/34 52/89/34 51/90/34
f 66/84/35 74/91/35 50/92/35 54/85/35
f 70/93/36 67/83/36 53/86/36 52/94/36
f 74/91/37 71/87/37 51/90/37 50/92/37
f 41/95/38 59/96/38 64/97/38 40/98/38
f 59/96/39 60/99/39 63/100/39 64/97/39
f 43/101/40 55/102/40 62/103/40 42/104/40
f 55/102/41 56/105/41 61/106/41 62/103/41
f 40/98/42 64/97/42 58/107/42 44/108/42
f 64/97/43 63/100/43 57/109/43 58/107/43
f 42/110/44 62/111/44 59/96/44 41/95/44
f 62/111/45 61/112/45 60/99/45 59/96/45
f 44/108/46 58/107/46 55/102/46 43/101/46
f 58/107/47 57/109/47 56/105/47 55/102/47
f 45/80/48 46/77/48 72/113/48 73/114/48
f 73/115/49 72/116/49 71/87/49 74/91/49
f 47/81/50 48/73/50 68/117/50 69/118/50
f 69/119/51 68/120/51 67/83/51 70/93/51
f 49/72/52 45/80/52 73/114/52 65/121/52
f 65/122/53 73/115/53 74/91/53 66/84/53
f 46/77/54 47/76/54 69/123/54 72/113/54
f 72/116/55 69/124/55 70/88/55 71/87/55
f 48/73/56 49/72/56 65/121/56 68/117/56
f 68/120/57 65/122/57 66/84/57 67/83/57
f 52/125/58 53/126/58 54/127/58 50/128/58
f 51/129/59 52/125/59 50/128/59
