# Blender v2.78 (sub 0) OBJ File: 'Low_Poly_Trees_Pack.blend'
# www.blender.org
g Pine_Tree_NoLeaves_l_04
v -0.436738 6.035220 -0.842097
v -0.427651 6.055509 -0.826344
v -0.452156 6.044279 -0.821328
v -0.039246 5.640220 -0.150273
v -0.025286 5.711458 -0.125748
v -0.087916 5.674311 -0.101897
v -0.021900 7.677091 0.022505
v -0.068002 7.713362 -0.017275
v -0.085039 7.648941 0.006871
v -0.290535 7.889258 0.478022
v -0.314022 7.907069 0.455572
v -0.324406 7.875662 0.471739
v -0.264801 0.000000 0.209536
v 0.122314 0.000000 0.293020
v 0.319261 0.000000 -0.056813
v 0.039924 0.000000 -0.363852
v -0.298749 0.000000 -0.177387
v -0.176411 10.494678 -0.035622
v -0.059133 10.494678 -0.010465
v 0.001035 10.494678 -0.114229
v -0.079059 10.494678 -0.203516
v -0.188726 10.494678 -0.154935
v -0.036965 18.109161 0.419175
v -0.027018 18.091719 0.419308
v -0.023047 18.075628 0.405219
v -0.031348 18.072104 0.396002
v -0.041114 18.102079 0.403522
v -0.054162 3.419994 -0.300827
v 0.021635 6.970825 -0.203235
v -0.216070 7.025231 -0.128947
v -0.341683 3.461281 -0.170286
v -0.021750 3.440058 0.186631
v 0.012706 6.909972 0.128183
v 0.133551 6.979023 -0.077842
v 0.168872 3.422541 -0.052059
v -0.225627 7.020411 0.067873
v -0.331209 3.351959 0.124479
v -0.145608 13.127392 -0.009994
v -0.179454 15.624047 0.150275
v -0.138954 15.609802 0.127537
v -0.074711 13.081197 -0.037957
v -0.008808 13.074891 0.035851
v -0.102227 15.613706 0.170551
v -0.122230 15.605046 0.208460
v -0.033120 13.082618 0.114839
v -0.132708 13.113662 0.071314
v -0.174138 15.632453 0.190391
vt 0.9741 0.9086
vt 0.9612 0.9083
vt 0.9611 0.9079
vt 0.9743 0.9075
vt 0.9741 0.9098
vt 0.9610 0.9086
vt 0.9610 0.9265
vt 0.9612 0.9262
vt 0.9614 0.9265
vt 0.9610 0.9075
vt 0.9741 0.9064
vt 0.9610 0.9121
vt 0.9701 0.9118
vt 0.9702 0.9124
vt 0.9612 0.9132
vt 0.9612 0.9098
vt 0.9702 0.9106
vt 0.9701 0.9112
vt 0.9610 0.9109
vt 0.9610 0.9240
vt 0.9613 0.9235
vt 0.9616 0.9240
vt 0.9442 0.8879
vt 0.9428 0.9400
vt 0.9404 0.9400
vt 0.9405 0.8870
vt 0.9542 0.8876
vt 0.9499 0.9404
vt 0.9476 0.9402
vt 0.9508 0.8864
vt 0.9471 0.8879
vt 0.9452 0.9401
vt 0.9380 0.9400
vt 0.9380 0.8870
vt 0.9564 0.9236
vt 0.9576 0.9247
vt 0.9582 0.9610
vt 0.9576 0.9596
vt 0.9598 0.9232
vt 0.9610 0.9252
vt 0.9603 0.9596
vt 0.9596 0.9604
vt 0.9583 0.9253
vt 0.9590 0.9614
vt 0.9542 0.9252
vt 0.9570 0.9598
vt 0.9321 0.8869
vt 0.9282 0.9383
vt 0.9236 0.9367
vt 0.9263 0.8865
vt 0.9244 0.9890
vt 0.9207 0.9905
vt 0.9148 0.8864
vt 0.9145 0.9375
vt 0.9095 0.9376
vt 0.9086 0.8864
vt 0.9142 0.9895
vt 0.9117 0.9896
vt 0.9191 0.9382
vt 0.9206 0.8864
vt 0.9178 0.9904
vt 0.9380 0.8875
vt 0.9327 0.9384
vt 0.9278 0.9902
vt 0.9448 0.9776
vt 0.9431 0.9780
vt 0.9582 0.8870
vt 0.9598 0.8865
vt 0.9407 0.9774
vt 0.9393 0.9774
vt 0.9543 0.8864
vt 0.9558 0.8865
vt 0.9419 0.9781
vt 0.9570 0.8872
vt 0.9460 0.9776
vt 0.9610 0.8864
vt 0.9610 0.9217
vt 0.9615 0.9213
vt 0.9622 0.9228
vt 0.9617 0.9235
vt 0.9610 0.9228
vn -0.2629 0.7975 0.5430
vn 0.8673 0.0007 -0.4978
vn -0.4300 0.6659 -0.6097
vn -0.6199 -0.7797 -0.0880
vn 0.2353 -0.8204 0.5211
vn -0.8775 0.0505 -0.4769
vn 0.6155 0.7881 -0.0034
vn -0.3525 0.5178 0.7795
vn -0.3344 -0.0070 -0.9424
vn 0.8592 0.0373 0.5103
vn -0.9999 0.0112 0.0089
vn 0.7448 0.0212 -0.6670
vn -0.2240 0.0327 0.9741
vn -0.4354 0.1160 -0.8927
vn 0.9020 -0.0701 0.4259
vn -0.9869 0.0397 0.1565
vn 0.7541 0.0384 -0.6556
vn -0.3268 -0.0682 0.9426
vn -0.2072 0.0211 0.9781
vn -0.2174 0.0200 0.9759
vn 0.7414 0.0331 -0.6703
vn 0.7450 0.0025 -0.6670
vn -0.9979 -0.0153 0.0626
vn -0.9994 0.0320 0.0093
vn 0.8350 0.0439 0.5486
vn 0.8187 0.0070 0.5742
vn -0.4517 0.0001 -0.8922
vn -0.3587 0.0284 -0.9330
vn -0.3067 -0.0383 0.9510
vn -0.3923 -0.0489 0.9185
vn 0.7452 0.0414 -0.6655
vn 0.7504 0.0623 -0.6580
vn -0.9921 0.0104 0.1254
vn -0.9888 -0.0230 0.1473
vn 0.9070 -0.0252 0.4203
vn 0.9349 0.0177 0.3545
vn -0.3769 0.0584 -0.9244
vn -0.3902 0.0520 -0.9193
vn 0.7079 0.4485 -0.5457
vn 0.8286 0.4702 -0.3037
s off
f 5/1/1 2/2/1 3/3/1 6/4/1
f 4/5/2 1/6/2 2/2/2 5/1/2
f 2/7/3 1/8/3 3/9/3
f 6/4/4 3/3/4 1/10/4 4/11/4
f 7/12/5 10/13/5 12/14/5 9/15/5
f 9/16/6 12/17/6 11/18/6 8/19/6
f 8/19/7 11/18/7 10/13/7 7/12/7
f 11/20/8 12/21/8 10/22/8
f 30/23/9 22/24/9 21/25/9 29/26/9
f 34/27/10 20/28/10 19/29/10 33/30/10
f 36/31/11 18/32/11 22/24/11 30/23/11
f 29/26/12 21/25/12 20/33/12 34/34/12
f 33/30/13 19/29/13 18/32/13 36/31/13
f 40/35/14 39/36/14 27/37/14 26/38/14
f 44/39/15 43/40/15 25/41/15 24/42/15
f 39/36/16 47/43/16 23/44/16 27/37/16
f 43/45/17 40/35/17 26/38/17 25/46/17
f 47/43/18 44/39/18 24/42/18 23/44/18
f 14/47/19 32/48/19 37/49/19 13/50/19
f 32/48/20 33/51/20 36/52/20 37/49/20
f 16/53/21 28/54/21 35/55/21 15/56/21
f 28/54/22 29/57/22 34/58/22 35/55/22
f 13/50/23 37/49/23 31/59/23 17/60/23
f 37/49/24 36/52/24 30/61/24 31/59/24
f 15/62/25 35/63/25 32/48/25 14/47/25
f 35/63/26 34/64/26 33/51/26 32/48/26
f 17/60/27 31/59/27 28/54/27 16/53/27
f 31/59/28 30/61/28 29/57/28 28/54/28
f 18/32/29 19/29/29 45/65/29 46/66/29
f 46/67/30 45/68/30 44/39/30 47/43/30
f 20/33/31 21/25/31 41/69/31 42/70/31
f 42/71/32 41/72/32 40/35/32 43/45/32
f 22/24/33 18/32/33 46/66/33 38/73/33
f 38/74/34 46/67/34 47/43/34 39/36/34
f 19/29/35 20/28/35 42/75/35 45/65/35
f 45/68/36 42/76/36 43/40/36 44/39/36
f 21/25/37 22/24/37 38/73/37 41/69/37
f 41/72/38 38/74/38 39/36/38 40/35/38
f 25/77/39 26/78/39 27/79/39 23/80/39
f 24/81/40 25/77/40 23/80/40
