# Blender v2.78 (sub 0) OBJ File: 'Low_Poly_Trees_Pack.blend'
# www.blender.org
g Pine_Tree_NoLeaves_crk_l_04
v -0.436738 6.035220 -0.842097
v -0.427651 6.055509 -0.826344
v -0.452156 6.044279 -0.821328
v -0.039246 5.640220 -0.150273
v -0.025286 5.711458 -0.125748
v -0.087916 5.674311 -0.101897
v -0.264801 0.000000 0.209536
v 0.122314 0.000000 0.293020
v 0.319261 0.000000 -0.056813
v 0.039924 0.000000 -0.363852
v -0.298749 0.000000 -0.177387
v -0.054162 3.419994 -0.300827
v 0.021635 6.970825 -0.203235
v -0.216070 7.025231 -0.128947
v -0.341683 3.461281 -0.170286
v -0.021750 3.440058 0.186631
v 0.012706 6.909972 0.128183
v 0.133551 6.979023 -0.077842
v 0.168872 3.422541 -0.052059
v -0.225627 7.020411 0.067873
v -0.331209 3.351959 0.124479
vt 0.8496 0.9134
vt 0.8363 0.9131
vt 0.8363 0.9126
vt 0.8497 0.9123
vt 0.8496 0.9146
vt 0.8362 0.9134
vt 0.8362 0.9318
vt 0.8364 0.9314
vt 0.8366 0.9318
vt 0.8362 0.9122
vt 0.8496 0.9111
vt 0.8119 0.8863
vt 0.8096 0.9368
vt 0.8050 0.9354
vt 0.8061 0.8863
vt 0.8076 0.9877
vt 0.8040 0.9891
vt 0.7947 0.8863
vt 0.7961 0.9364
vt 0.7912 0.9367
vt 0.7886 0.8864
vt 0.7973 0.9885
vt 0.7949 0.9888
vt 0.8007 0.9370
vt 0.8003 0.8863
vt 0.8010 0.9892
vt 0.8178 0.8866
vt 0.8141 0.9367
vt 0.8111 0.9889
vt 0.7974 0.8093
vt 0.8200 0.7993
vt 0.8331 0.8132
vt 0.7974 0.8257
vt 0.8194 0.8355
vn -0.2629 0.7975 0.5430
vn 0.8673 0.0007 -0.4978
vn -0.4300 0.6659 -0.6097
vn -0.6199 -0.7797 -0.0880
vn -0.2072 0.0211 0.9781
vn -0.2174 0.0200 0.9759
vn 0.7414 0.0331 -0.6703
vn 0.7450 0.0025 -0.6670
vn -0.9979 -0.0153 0.0626
vn -0.9994 0.0320 0.0093
vn 0.8350 0.0439 0.5486
vn 0.8187 0.0070 0.5742
vn -0.4517 0.0001 -0.8922
vn -0.3587 0.0284 -0.9330
vn 0.2334 0.9717 0.0351
vn 0.0645 0.9904 -0.1223
vn 0.2798 0.8488 0.4486
s off
f 5/1/1 2/2/1 3/3/1 6/4/1
f 4/5/2 1/6/2 2/2/2 5/1/2
f 2/7/3 1/8/3 3/9/3
f 6/4/4 3/3/4 1/10/4 4/11/4
f 8/12/5 16/13/5 21/14/5 7/15/5
f 16/13/6 17/16/6 20/17/6 21/14/6
f 10/18/7 12/19/7 19/20/7 9/21/7
f 12/19/8 13/22/8 18/23/8 19/20/8
f 7/15/9 21/14/9 15/24/9 11/25/9
f 21/14/10 20/17/10 14/26/10 15/24/10
f 9/27/11 19/28/11 16/13/11 8/12/11
f 19/28/12 18/29/12 17/16/12 16/13/12
f 11/25/13 15/24/13 12/19/13 10/18/13
f 15/24/14 14/26/14 13/22/14 12/19/14
f 13/30/15 14/31/15 20/32/15
f 18/33/16 13/30/16 20/32/16
f 17/34/17 18/33/17 20/32/17
