# Blender v2.78 (sub 0) OBJ File: 'Low_Poly_Trees_Pack.blend'
# www.blender.org
g Pine_Tree_m_11
v -0.449287 0.779935 -0.867186
v -1.045148 1.140790 -0.117720
v -0.705213 0.812062 0.872597
v 0.347039 0.823162 0.869891
v 1.059569 0.629904 -0.013420
v 0.796507 0.794138 -0.870025
v -0.253700 2.146001 -0.474551
v -0.579530 2.180089 -0.110170
v -0.377498 2.175022 0.372869
v 0.142595 2.126050 0.373082
v 0.532263 2.077770 -0.049941
v 0.361972 2.090063 -0.473684
v -0.380074 2.027313 -0.888743
v -0.959062 1.796357 -0.113108
v -0.631693 2.005773 0.823058
v 0.363533 1.900349 0.824035
v 1.027937 1.573098 0.016866
v 0.799029 1.905334 -0.975653
v 0.207933 3.527313 -0.080360
v 0.124322 3.549581 0.014826
v 0.176831 3.542012 0.140773
v 0.310355 3.511454 0.140528
v 0.410389 3.484456 0.029942
v 0.365807 3.491010 -0.080437
v -0.180817 2.635245 -0.649440
v -0.704569 2.875224 -0.029161
v -0.341950 2.587299 0.693916
v 0.451452 2.515981 0.696653
v 1.109550 2.684441 0.077764
v 0.656807 2.640720 -0.700485
v 0.506480 4.265533 -0.138350
v 0.420680 4.296506 -0.040044
v 0.475905 4.288644 0.090864
v 0.614124 4.248478 0.091429
v 0.716999 4.211391 -0.022816
v 0.669971 4.218040 -0.137697
v 0.216438 3.871067 -0.388687
v -0.300479 3.616300 -0.031620
v 0.097761 3.776887 0.410423
v 0.579190 3.658499 0.410072
v 1.016289 3.343729 0.005020
v 0.785869 3.730411 -0.388182
v 1.120072 5.446801 -0.090262
v 0.645059 4.660290 -0.224666
v 0.910539 4.572943 -0.221947
v 0.983276 4.560404 -0.041408
v 0.818845 4.626710 0.136494
v 0.594467 4.700526 0.134147
v 0.507740 4.715241 -0.071451
v -0.039570 1.773917 0.026349
v -0.000892 0.019135 -0.199678
v -0.190683 0.019125 -0.061788
v -0.118196 0.019026 0.161341
v 0.116328 0.019592 0.161248
v 0.188797 0.019551 -0.061761
v -0.010164 1.751672 -0.099599
v -0.119877 1.758301 -0.018489
v -0.077907 1.756481 0.112954
v 0.057655 1.747942 0.113081
v 0.099374 1.744169 -0.018182
v -0.172194 0.464755 -0.039641
v -0.106599 0.464929 0.162831
v 0.170970 0.464774 -0.039615
v -0.000466 0.464751 -0.164781
v 0.105340 0.465150 0.162703
vt 0.5249 0.2786
vt 0.5468 0.2927
vt 0.5367 0.3166
vt 0.5059 0.3241
vt 0.5777 0.2592
vt 0.5702 0.2875
vt 0.5270 0.3010
vt 0.5382 0.3277
vt 0.5228 0.3407
vt 0.5052 0.2964
vt 0.5396 0.3599
vt 0.5524 0.3324
vt 0.5735 0.3278
vt 0.5848 0.3460
vt 0.6101 0.2909
vt 0.5834 0.3010
vt 0.5850 0.3222
vt 0.5724 0.2905
vt 0.5836 0.2773
vt 0.6090 0.3281
vt 0.5472 0.2807
vt 0.5385 0.2619
vt 0.5675 0.3392
vt 0.5720 0.3606
vt 0.5873 0.3434
vt 0.5625 0.3224
vt 0.5684 0.3061
vt 0.6107 0.2937
vt 0.5089 0.3240
vt 0.5267 0.2801
vt 0.5481 0.3015
vt 0.5430 0.3163
vt 0.5748 0.2609
vt 0.5605 0.2985
vt 0.5404 0.3066
vt 0.5473 0.3233
vt 0.5251 0.3481
vt 0.5069 0.2981
vt 0.5429 0.3578
vt 0.5524 0.3243
vt 0.5766 0.3195
vt 0.5684 0.3000
vt 0.5854 0.2746
vt 0.6046 0.3327
vt 0.5528 0.2942
vt 0.5394 0.2634
vt 0.5070 0.3246
vt 0.5262 0.2793
vt 0.5558 0.3086
vt 0.5539 0.3140
vt 0.5657 0.3305
vt 0.5758 0.3612
vt 0.5769 0.2597
vt 0.6073 0.2896
vt 0.5640 0.3103
vt 0.5612 0.3072
vt 0.5846 0.3445
vt 0.5621 0.3163
vt 0.5408 0.3601
vt 0.5574 0.3174
vt 0.5486 0.3124
vt 0.5587 0.3167
vt 0.5651 0.3591
vt 0.5077 0.3353
vt 0.5673 0.3117
vt 0.6065 0.3332
vt 0.5673 0.3033
vt 0.5557 0.2984
vt 0.5429 0.2630
vt 0.6071 0.2902
vt 0.5483 0.3026
vt 0.5086 0.2870
vt 0.4361 0.3556
vt 0.4343 0.3274
vt 0.4509 0.3215
vt 0.4892 0.3324
vt 0.3949 0.2857
vt 0.4413 0.2687
vt 0.4368 0.3008
vt 0.4221 0.3071
vt 0.4518 0.3085
vt 0.4365 0.3154
vt 0.5838 0.2812
vt 0.6042 0.3290
vt 0.5583 0.3115
vt 0.4226 0.3215
vt 0.3939 0.3362
vt 0.4892 0.2911
vt 0.5306 0.3400
vt 0.5134 0.2995
vt 0.5768 0.3564
vt 0.5425 0.2669
vt 0.9371 0.9156
vt 0.9370 0.9811
vt 0.9231 0.9812
vt 0.9236 0.9155
vt 0.9785 0.9154
vt 0.9780 0.9818
vt 0.9644 0.9818
vt 0.9646 0.9152
vt 0.9507 0.9154
vt 0.9508 0.9815
vt 0.9093 0.9814
vt 0.9099 0.9152
vt 0.9649 0.8900
vt 0.9512 0.8906
vt 0.9232 0.8910
vt 0.9093 0.8902
vt 0.9372 0.8912
vt 0.9786 0.8905
vn 0.0099 0.3497 0.9368
vn 0.7537 0.3126 0.5781
vn -0.0925 -0.9107 -0.4026
vn -0.6807 0.2984 -0.6691
vn 0.9010 0.3495 -0.2568
vn -0.8462 0.3599 0.3928
vn -0.0807 -0.9540 0.2886
vn 0.5410 -0.7882 0.2933
vn -0.6016 -0.7984 -0.0246
vn 0.6068 -0.7868 -0.1130
vn 0.0003 0.4833 -0.8754
vn -0.5857 -0.7649 -0.2683
vn 0.0462 0.3883 0.9204
vn 0.7890 0.2565 0.5582
vn -0.0511 -0.4863 -0.8723
vn -0.7401 0.5073 -0.4415
vn 0.9387 0.3172 -0.1353
vn -0.8342 0.5136 0.2008
vn 0.0249 -0.5645 0.8251
vn 0.5803 -0.6382 -0.5059
vn 0.0353 0.3227 0.9458
vn -0.5567 -0.4869 -0.6730
vn 0.4751 -0.6154 0.6289
vn -0.7069 -0.5696 0.4194
vn 0.8557 0.1770 -0.4862
vn -0.0340 0.3240 -0.9455
vn -0.6794 0.5238 0.5138
vn -0.1184 -0.4641 -0.8778
vn 0.6610 0.2031 0.7224
vn -0.5855 0.4575 -0.6692
vn -0.7538 -0.2782 -0.5953
vn -0.1225 -0.4716 0.8733
vn 0.5928 -0.6613 0.4597
vn -0.9134 -0.3209 0.2503
vn 0.6473 -0.6875 -0.3291
vn 0.0532 0.1807 -0.9821
vn 0.0666 0.2545 0.9648
vn 0.7187 -0.0728 0.6915
vn 0.0093 -0.6706 0.7417
vn -0.5720 0.4614 -0.6782
vn 0.9114 -0.1615 -0.3784
vn -0.7153 0.6076 0.3452
vn -0.7289 0.5367 0.4250
vn 0.0695 0.2421 0.9678
vn 0.8807 -0.0117 -0.4735
vn -0.6300 0.4541 -0.6299
vn 0.7073 0.0365 0.7060
vn 0.0548 0.1359 -0.9892
vn 0.0051 -0.6625 -0.7490
vn -0.6675 -0.6273 -0.4012
vn 0.3532 -0.7018 0.6187
vn -0.7168 -0.6917 0.0875
vn 0.5251 -0.7373 -0.4250
vn -0.9513 0.0332 0.3066
vn 0.5925 0.0459 -0.8042
vn 0.0009 0.0386 0.9993
vn -0.5901 0.0367 -0.8065
vn 0.9509 0.0226 0.3087
vn -0.5871 0.0641 -0.8070
vn 0.0005 -0.0033 1.0000
vn 0.5876 0.0631 -0.8067
vn -0.9509 0.0239 0.3085
vn 0.9510 0.0476 0.3055
vn 0.0054 0.2846 -0.9586
s off
f 4/1/1 10/2/1 9/3/1 3/4/1
f 5/5/2 11/6/2 10/2/2 4/1/2
f 9/7/3 10/8/3 16/9/3 15/10/3
f 2/11/4 8/12/4 7/13/4 1/14/4
f 6/15/5 12/16/5 11/6/5 5/5/5
f 3/4/6 9/3/6 8/12/6 2/11/6
f 12/17/7 7/18/7 13/19/7 18/20/7
f 7/18/8 8/21/8 14/22/8 13/19/8
f 11/23/9 12/17/9 18/20/9 17/24/9
f 8/21/10 9/7/10 15/10/10 14/22/10
f 13/25/11 19/26/11 24/27/11 18/28/11
f 10/8/12 11/23/12 17/24/12 16/9/12
f 15/29/13 16/30/13 22/31/13 21/32/13
f 16/30/14 17/33/14 23/34/14 22/31/14
f 21/35/15 22/36/15 28/37/15 27/38/15
f 13/25/16 14/39/16 20/40/16 19/26/16
f 17/33/17 18/28/17 24/27/17 23/34/17
f 14/39/18 15/29/18 21/32/18 20/40/18
f 24/41/19 19/42/19 25/43/19 30/44/19
f 20/45/20 21/35/20 27/38/20 26/46/20
f 27/47/21 28/48/21 34/49/21 33/50/21
f 22/36/22 23/51/22 29/52/22 28/37/22
f 19/42/23 20/45/23 26/46/23 25/43/23
f 23/51/24 24/41/24 30/44/24 29/52/24
f 29/53/25 30/54/25 36/55/25 35/56/25
f 30/54/26 25/57/26 31/58/26 36/55/26
f 26/59/27 27/47/27 33/50/27 32/60/27
f 33/61/28 34/62/28 40/63/28 39/64/28
f 28/48/29 29/53/29 35/56/29 34/49/29
f 25/57/30 26/59/30 32/60/30 31/58/30
f 34/62/31 35/65/31 41/66/31 40/63/31
f 36/67/32 31/68/32 37/69/32 42/70/32
f 31/68/33 32/71/33 38/72/33 37/69/33
f 35/65/34 36/67/34 42/70/34 41/66/34
f 32/71/35 33/61/35 39/64/35 38/72/35
f 37/73/36 44/74/36 45/75/36 42/76/36
f 39/77/37 40/78/37 47/79/37 48/80/37
f 47/79/38 46/81/38 43/82/38
f 1/83/39 6/84/39 50/85/39
f 44/74/40 49/86/40 43/82/40
f 46/81/41 45/75/41 43/82/41
f 49/86/42 48/80/42 43/82/42
f 38/87/43 39/77/43 48/80/43 49/86/43
f 47/79/44 43/82/44 48/80/44
f 41/88/45 42/76/45 45/75/45 46/81/45
f 37/73/46 38/87/46 49/86/46 44/74/46
f 40/78/47 41/88/47 46/81/47 47/79/47
f 45/75/48 44/74/48 43/82/48
f 4/89/49 3/90/49 50/85/49
f 5/91/50 4/89/50 50/85/50
f 2/92/51 1/83/51 50/85/51
f 6/84/52 5/91/52 50/85/52
f 3/90/53 2/92/53 50/85/53
f 62/93/54 58/94/54 57/95/54 61/96/54
f 64/97/55 56/98/55 60/99/55 63/100/55
f 65/101/56 59/102/56 58/94/56 62/93/56
f 61/96/57 57/95/57 56/103/57 64/104/57
f 55/105/58 63/100/58 65/101/58 54/106/58
f 52/107/59 61/96/59 64/104/59 51/108/59
f 54/106/60 65/101/60 62/93/60 53/109/60
f 51/110/61 64/97/61 63/100/61 55/105/61
f 53/109/62 62/93/62 61/96/62 52/107/62
f 63/100/63 60/99/63 59/102/63 65/101/63
f 7/13/64 12/16/64 6/15/64 1/14/64
