# Blender v2.78 (sub 0) OBJ File: 'Low_Poly_Trees_Pack.blend'
# www.blender.org
g Pine_Tree_m_09
v 0.000000 0.000000 -0.185835
v -0.175420 0.000000 -0.058385
v -0.108415 0.000000 0.147833
v 0.108415 0.000000 0.147833
v 0.175420 0.000000 -0.058385
v -0.000858 2.016129 -0.109628
v -0.118884 2.017721 -0.023819
v -0.073489 2.019104 0.114555
v 0.071886 2.018568 0.114709
v 0.116658 2.017820 -0.023092
v -0.140435 0.438896 -0.032881
v -0.086164 0.438925 0.134138
v 0.143712 0.438965 -0.032877
v 0.001641 0.438975 -0.136098
v 0.089446 0.438934 0.134138
v -0.870052 0.445180 -0.782906
v -1.039646 0.863833 0.367833
v -0.376031 0.445180 1.012118
v 0.646597 0.863833 0.747597
v 1.076431 0.445180 -0.419301
v 0.130662 0.863833 -0.968743
v -0.298900 1.968979 -0.424307
v -0.500894 1.977721 -0.052004
v -0.289655 1.982313 0.309476
v 0.121004 1.976542 0.365392
v 0.333667 1.974559 -0.048199
v 0.100185 1.966865 -0.348419
v -0.572873 1.275628 -0.841657
v -0.961214 1.604002 0.161485
v -0.444162 1.237448 0.933326
v 0.538983 1.498364 0.818575
v 1.055125 1.230381 -0.120060
v 0.364319 1.508476 -0.951986
v -0.185228 3.445050 -0.178444
v -0.175279 3.432137 0.040027
v -0.086227 3.445032 0.272238
v 0.152435 3.433397 0.366067
v 0.136583 3.429755 0.040498
v 0.046531 3.429486 -0.071232
v -0.132441 2.439633 -0.764267
v -0.946671 2.039800 -0.235923
v -0.673020 2.437123 0.588313
v 0.135473 2.149630 0.986661
v 0.935374 2.549175 0.390440
v 0.729393 2.234292 -0.541071
v -0.166783 4.184016 -0.183773
v -0.163403 4.187713 0.034045
v -0.071496 4.190991 0.266667
v 0.169457 4.189152 0.361221
v 0.158656 4.192317 0.034687
v 0.065672 4.187420 -0.080540
v -0.278566 3.280580 -0.658507
v -0.608888 3.543917 -0.103562
v -0.511238 3.281344 0.518409
v 0.137431 3.453927 0.611006
v 0.787475 3.228235 0.149649
v 0.322615 3.457423 -0.400378
v 0.147218 5.643572 0.088861
v -0.129557 4.627937 -0.136119
v 0.121943 4.633352 -0.071746
v 0.286544 4.650098 0.066151
v 0.177576 4.634480 0.340859
v -0.088911 4.633839 0.289035
v -0.203473 4.629636 0.070484
v -0.032711 1.632528 0.024490
vt 0.8058 0.9183
vt 0.8058 0.9769
vt 0.7933 0.9769
vt 0.7938 0.9182
vt 0.8429 0.9181
vt 0.8424 0.9774
vt 0.8302 0.9775
vt 0.8304 0.9179
vt 0.8180 0.9181
vt 0.8181 0.9772
vt 0.7810 0.9772
vt 0.7815 0.9179
vt 0.8307 0.8954
vt 0.8184 0.8959
vt 0.7934 0.8963
vt 0.7810 0.8956
vt 0.8060 0.8964
vt 0.8430 0.8959
vt 0.5336 0.2869
vt 0.5531 0.2957
vt 0.5422 0.3174
vt 0.5144 0.3266
vt 0.5829 0.2614
vt 0.5753 0.2898
vt 0.5342 0.3033
vt 0.5451 0.3266
vt 0.5312 0.3374
vt 0.5126 0.2991
vt 0.5373 0.3647
vt 0.5552 0.3348
vt 0.5785 0.3301
vt 0.5901 0.3483
vt 0.6085 0.3082
vt 0.5875 0.3079
vt 0.5867 0.3160
vt 0.5776 0.2929
vt 0.5916 0.2758
vt 0.6108 0.3185
vt 0.5482 0.2814
vt 0.5365 0.2629
vt 0.5726 0.3416
vt 0.5772 0.3630
vt 0.5926 0.3457
vt 0.5684 0.3245
vt 0.5731 0.3109
vt 0.6096 0.3095
vt 0.5173 0.3264
vt 0.5350 0.2881
vt 0.5529 0.3052
vt 0.5471 0.3172
vt 0.5799 0.2631
vt 0.5656 0.3008
vt 0.5468 0.3090
vt 0.5536 0.3235
vt 0.5345 0.3504
vt 0.5159 0.3036
vt 0.5408 0.3626
vt 0.5558 0.3270
vt 0.5796 0.3166
vt 0.5736 0.3024
vt 0.5890 0.2764
vt 0.6080 0.3256
vt 0.5553 0.2955
vt 0.5400 0.2650
vt 0.5155 0.3270
vt 0.5345 0.2875
vt 0.5614 0.3114
vt 0.5575 0.3151
vt 0.5709 0.3329
vt 0.5810 0.3637
vt 0.5821 0.2618
vt 0.6064 0.3068
vt 0.5689 0.3137
vt 0.5663 0.3096
vt 0.5899 0.3467
vt 0.5670 0.3184
vt 0.5387 0.3652
vt 0.5620 0.3198
vt 0.5541 0.3142
vt 0.5623 0.3171
vt 0.5576 0.3512
vt 0.5179 0.3360
vt 0.5725 0.3140
vt 0.6118 0.3356
vt 0.5696 0.3044
vt 0.5619 0.3013
vt 0.5583 0.2691
vt 0.6005 0.2848
vt 0.5522 0.3056
vt 0.5080 0.2925
vt 0.4412 0.3615
vt 0.4393 0.3267
vt 0.4513 0.3214
vt 0.4796 0.3407
vt 0.4024 0.2784
vt 0.4440 0.2617
vt 0.4410 0.2965
vt 0.4279 0.3024
vt 0.4567 0.3033
vt 0.4414 0.3117
vt 0.5891 0.2836
vt 0.6039 0.3184
vt 0.5634 0.3139
vt 0.4257 0.3181
vt 0.3921 0.3336
vt 0.4940 0.2817
vt 0.5387 0.3369
vt 0.5216 0.3017
vt 0.5820 0.3589
vt 0.5432 0.2678
vn -0.9506 0.0113 0.3102
vn 0.5900 0.0148 -0.8073
vn -0.0005 0.0123 0.9999
vn -0.5878 0.0127 -0.8089
vn 0.9498 0.0507 0.3086
vn -0.5852 0.0935 -0.8055
vn -0.0000 0.0312 0.9995
vn 0.5854 0.0891 -0.8058
vn -0.9495 0.0578 0.3085
vn 0.9510 0.0144 0.3089
vn 0.0243 0.3822 0.9238
vn 0.8740 0.4206 0.2434
vn 0.0866 -0.6478 -0.7568
vn -0.8772 0.3618 -0.3156
vn 0.6217 0.4293 -0.6551
vn -0.5865 0.4291 0.6869
vn 0.1327 -0.6581 0.7411
vn 0.6991 -0.5648 0.4385
vn -0.6238 -0.7030 0.3414
vn 0.5006 -0.6780 -0.5382
vn -0.0682 0.3533 -0.9330
vn -0.6768 -0.7010 -0.2248
vn -0.0364 0.2592 0.9651
vn 0.9058 0.3066 0.2926
vn 0.2824 -0.4258 -0.8596
vn -0.8837 0.3073 -0.3531
vn 0.7674 0.3637 -0.5280
vn -0.7549 0.3245 0.5700
vn -0.3414 -0.4969 0.7978
vn 0.8646 -0.4910 -0.1062
vn -0.3433 0.2813 0.8961
vn -0.5425 -0.4990 -0.6758
vn 0.7243 -0.4150 0.5507
vn -0.7432 -0.5523 0.3777
vn 0.8640 0.3564 -0.3557
vn 0.3240 0.3126 -0.8929
vn -0.9236 0.3304 0.1942
vn 0.2565 -0.3485 -0.9015
vn 0.6488 0.3154 0.6925
vn -0.7204 0.2775 -0.6356
vn -0.7678 -0.3803 -0.5156
vn -0.2753 -0.4402 0.8547
vn 0.7504 -0.4586 0.4760
vn -0.7528 -0.4515 0.4790
vn 0.8105 -0.4859 -0.3272
vn 0.2770 0.3122 -0.9088
vn -0.1931 0.2237 0.9553
vn 0.9204 0.1206 0.3719
vn 0.4009 -0.6914 0.6010
vn -0.8929 0.3147 -0.3220
vn 0.6322 0.1062 -0.7675
vn -0.8509 0.2863 0.4405
vn -0.8944 0.3109 0.3214
vn -0.1862 0.2328 0.9545
vn 0.7510 0.2601 -0.6069
vn -0.7816 0.3297 -0.5296
vn 0.7099 0.2168 0.6701
vn 0.2423 0.1464 -0.9591
vn 0.0703 -0.6498 -0.7568
vn -0.7357 -0.6767 -0.0282
vn 0.6411 -0.6861 0.3441
vn -0.5657 -0.6946 0.4445
vn 0.2650 -0.6608 -0.7023
vn -0.1833 0.3762 -0.9082
s off
f 12/1/1 8/2/1 7/3/1 11/4/1
f 14/5/2 6/6/2 10/7/2 13/8/2
f 15/9/3 9/10/3 8/2/3 12/1/3
f 11/4/4 7/3/4 6/11/4 14/12/4
f 5/13/5 13/8/5 15/9/5 4/14/5
f 2/15/6 11/4/6 14/12/6 1/16/6
f 4/14/7 15/9/7 12/1/7 3/17/7
f 1/18/8 14/5/8 13/8/8 5/13/8
f 3/17/9 12/1/9 11/4/9 2/15/9
f 13/8/10 10/7/10 9/10/10 15/9/10
f 19/19/11 25/20/11 24/21/11 18/22/11
f 20/23/12 26/24/12 25/20/12 19/19/12
f 24/25/13 25/26/13 31/27/13 30/28/13
f 17/29/14 23/30/14 22/31/14 16/32/14
f 21/33/15 27/34/15 26/24/15 20/23/15
f 18/22/16 24/21/16 23/30/16 17/29/16
f 27/35/17 22/36/17 28/37/17 33/38/17
f 22/36/18 23/39/18 29/40/18 28/37/18
f 26/41/19 27/35/19 33/38/19 32/42/19
f 23/39/20 24/25/20 30/28/20 29/40/20
f 28/43/21 34/44/21 39/45/21 33/46/21
f 25/26/22 26/41/22 32/42/22 31/27/22
f 30/47/23 31/48/23 37/49/23 36/50/23
f 31/48/24 32/51/24 38/52/24 37/49/24
f 36/53/25 37/54/25 43/55/25 42/56/25
f 28/43/26 29/57/26 35/58/26 34/44/26
f 32/51/27 33/46/27 39/45/27 38/52/27
f 29/57/28 30/47/28 36/50/28 35/58/28
f 39/59/29 34/60/29 40/61/29 45/62/29
f 35/63/30 36/53/30 42/56/30 41/64/30
f 42/65/31 43/66/31 49/67/31 48/68/31
f 37/54/32 38/69/32 44/70/32 43/55/32
f 34/60/33 35/63/33 41/64/33 40/61/33
f 38/69/34 39/59/34 45/62/34 44/70/34
f 44/71/35 45/72/35 51/73/35 50/74/35
f 45/72/36 40/75/36 46/76/36 51/73/36
f 41/77/37 42/65/37 48/68/37 47/78/37
f 48/79/38 49/80/38 55/81/38 54/82/38
f 43/66/39 44/71/39 50/74/39 49/67/39
f 40/75/40 41/77/40 47/78/40 46/76/40
f 49/80/41 50/83/41 56/84/41 55/81/41
f 51/85/42 46/86/42 52/87/42 57/88/42
f 46/86/43 47/89/43 53/90/43 52/87/43
f 50/83/44 51/85/44 57/88/44 56/84/44
f 47/89/45 48/79/45 54/82/45 53/90/45
f 52/91/46 59/92/46 60/93/46 57/94/46
f 54/95/47 55/96/47 62/97/47 63/98/47
f 62/97/48 61/99/48 58/100/48
f 16/101/49 21/102/49 65/103/49
f 59/92/50 64/104/50 58/100/50
f 61/99/51 60/93/51 58/100/51
f 64/104/52 63/98/52 58/100/52
f 53/105/53 54/95/53 63/98/53 64/104/53
f 62/97/54 58/100/54 63/98/54
f 56/106/55 57/94/55 60/93/55 61/99/55
f 52/91/56 53/105/56 64/104/56 59/92/56
f 55/96/57 56/106/57 61/99/57 62/97/57
f 60/93/58 59/92/58 58/100/58
f 19/107/59 18/108/59 65/103/59
f 20/109/60 19/107/60 65/103/60
f 17/110/61 16/101/61 65/103/61
f 21/102/62 20/109/62 65/103/62
f 18/108/63 17/110/63 65/103/63
f 22/31/64 27/34/64 21/33/64 16/32/64
