# Blender v2.78 (sub 0) OBJ File: 'Low_Poly_Trees_Pack.blend'
# www.blender.org
g Pine_Tree_m_08
v 0.000000 0.000000 -0.185835
v -0.175420 0.000000 -0.058385
v -0.108415 0.000000 0.147833
v 0.108415 0.000000 0.147833
v 0.175420 0.000000 -0.058385
v -0.000858 1.877063 -0.109628
v -0.118884 1.878655 -0.023819
v -0.073489 1.880038 0.114555
v 0.071886 1.879501 0.114709
v 0.116658 1.878754 -0.023092
v -0.140435 0.438896 -0.032881
v -0.086164 0.438925 0.134138
v 0.143712 0.438965 -0.032877
v 0.001641 0.438975 -0.136098
v 0.089446 0.438934 0.134138
v -0.918920 0.752820 -0.848827
v -1.416901 0.242391 0.439913
v -0.374513 0.747640 1.129277
v 0.796695 0.277442 0.889355
v 1.226090 0.784982 -0.448137
v 0.186097 0.285853 -1.141894
v -0.419152 1.826779 -0.644858
v -0.733975 1.840404 -0.064598
v -0.404744 1.847561 0.498793
v 0.235298 1.838566 0.585943
v 0.566747 1.835476 -0.058668
v 0.202850 1.823484 -0.526581
v -0.803564 1.083873 -1.151436
v -1.336439 1.534464 0.225060
v -0.626948 1.031484 1.284168
v 0.722109 1.389509 1.126709
v 1.430350 1.021786 -0.161273
v 0.482437 1.403385 -1.302828
v -0.185228 3.305984 -0.178444
v -0.175279 3.293070 0.040027
v -0.086227 3.305965 0.272238
v 0.152435 3.294331 0.366067
v 0.136583 3.290688 0.040498
v 0.046531 3.290419 -0.071232
v -0.177750 2.352435 -1.077112
v -1.282943 1.809721 -0.359966
v -0.911503 2.349028 0.758810
v 0.185902 1.958799 1.299506
v 1.271646 2.501121 0.490227
v 0.992059 2.073714 -0.774157
v -0.166783 4.044949 -0.183773
v -0.163403 4.048646 0.034045
v -0.071496 4.051925 0.266667
v 0.169457 4.050086 0.361221
v 0.158656 4.053250 0.034687
v 0.065672 4.048354 -0.080540
v -0.317715 3.107953 -0.860440
v -0.753121 3.455064 -0.128952
v -0.624406 3.108959 0.690884
v 0.230622 3.336445 0.812938
v 1.087462 3.038955 0.204813
v 0.474719 3.341054 -0.520193
v 0.002589 5.549006 0.088861
v -0.207760 4.485968 -0.198602
v 0.109633 4.492802 -0.117364
v 0.317359 4.513935 0.056661
v 0.179841 4.494225 0.403342
v -0.156465 4.493416 0.337941
v -0.301041 4.488111 0.062130
v -0.032711 1.493461 0.024490
vt 0.8058 0.9183
vt 0.8058 0.9769
vt 0.7933 0.9769
vt 0.7938 0.9182
vt 0.8429 0.9181
vt 0.8424 0.9774
vt 0.8302 0.9775
vt 0.8304 0.9179
vt 0.8180 0.9181
vt 0.8181 0.9772
vt 0.7810 0.9772
vt 0.7815 0.9179
vt 0.8307 0.8954
vt 0.8184 0.8959
vt 0.7934 0.8963
vt 0.7810 0.8956
vt 0.8060 0.8964
vt 0.8430 0.8959
vt 0.9079 0.4124
vt 0.9275 0.4212
vt 0.9166 0.4429
vt 0.8887 0.4521
vt 0.9573 0.3868
vt 0.9498 0.4152
vt 0.9085 0.4288
vt 0.9195 0.4521
vt 0.9055 0.4630
vt 0.8868 0.4246
vt 0.9116 0.4904
vt 0.9296 0.4604
vt 0.9529 0.4557
vt 0.9646 0.4740
vt 0.9830 0.4337
vt 0.9620 0.4335
vt 0.9612 0.4415
vt 0.9520 0.4184
vt 0.9661 0.4012
vt 0.9854 0.4440
vt 0.9226 0.4068
vt 0.9108 0.3883
vt 0.9471 0.4673
vt 0.9516 0.4887
vt 0.9671 0.4713
vt 0.9429 0.4500
vt 0.9476 0.4365
vt 0.9842 0.4350
vt 0.8916 0.4520
vt 0.9093 0.4136
vt 0.9273 0.4307
vt 0.9215 0.4427
vt 0.9544 0.3885
vt 0.9400 0.4263
vt 0.9212 0.4345
vt 0.9280 0.4491
vt 0.9088 0.4760
vt 0.8902 0.4291
vt 0.9151 0.4883
vt 0.9302 0.4525
vt 0.9540 0.4421
vt 0.9480 0.4279
vt 0.9635 0.4018
vt 0.9826 0.4511
vt 0.9297 0.4210
vt 0.9144 0.3904
vt 0.8898 0.4526
vt 0.9088 0.4129
vt 0.9358 0.4370
vt 0.9319 0.4406
vt 0.9453 0.4585
vt 0.9555 0.4894
vt 0.9565 0.3872
vt 0.9809 0.4323
vt 0.9433 0.4393
vt 0.9407 0.4351
vt 0.9644 0.4724
vt 0.9414 0.4440
vt 0.9130 0.4909
vt 0.9364 0.4454
vt 0.9284 0.4397
vt 0.9367 0.4427
vt 0.9320 0.4769
vt 0.8922 0.4616
vt 0.9469 0.4395
vt 0.9863 0.4612
vt 0.9440 0.4299
vt 0.9363 0.4268
vt 0.9327 0.3945
vt 0.9751 0.4102
vt 0.9266 0.4311
vt 0.8822 0.4180
vt 0.9366 0.6183
vt 0.9346 0.5821
vt 0.9465 0.5766
vt 0.9745 0.5966
vt 0.8982 0.5319
vt 0.9393 0.5145
vt 0.9363 0.5507
vt 0.9234 0.5568
vt 0.9519 0.5577
vt 0.9368 0.5665
vt 0.9636 0.4090
vt 0.9785 0.4439
vt 0.9378 0.4394
vt 0.9212 0.5731
vt 0.8879 0.5893
vt 0.9888 0.5352
vt 0.9131 0.4625
vt 0.8959 0.4272
vt 0.9564 0.4846
vt 0.9175 0.3932
vn -0.9506 0.0124 0.3102
vn 0.5900 0.0162 -0.8072
vn -0.0005 0.0135 0.9999
vn -0.5878 0.0139 -0.8089
vn 0.9498 0.0507 0.3086
vn -0.5852 0.0935 -0.8055
vn -0.0000 0.0312 0.9995
vn 0.5854 0.0891 -0.8058
vn -0.9495 0.0578 0.3085
vn 0.9510 0.0158 0.3089
vn 0.1726 0.3601 0.9168
vn 0.8299 0.3743 0.4138
vn 0.0999 -0.7099 -0.6972
vn -0.8868 0.3599 -0.2900
vn 0.4837 0.4185 -0.7687
vn -0.6932 0.4155 0.5890
vn 0.1340 -0.7396 0.6596
vn 0.6142 -0.6656 0.4240
vn -0.5827 -0.7547 0.3016
vn 0.4039 -0.7700 -0.4939
vn -0.1202 0.4735 -0.8726
vn -0.6345 -0.7472 -0.1980
vn -0.0482 0.3897 0.9197
vn 0.8641 0.4224 0.2736
vn 0.2085 -0.5661 -0.7976
vn -0.8111 0.4391 -0.3864
vn 0.7440 0.4726 -0.4724
vn -0.6688 0.4564 0.5868
vn -0.3359 -0.6503 0.6813
vn 0.7836 -0.6211 -0.0132
vn -0.2979 0.3927 0.8701
vn -0.3815 -0.6424 -0.6646
vn 0.6840 -0.5587 0.4689
vn -0.6177 -0.6885 0.3799
vn 0.7946 0.4842 -0.3663
vn 0.3286 0.4430 -0.8341
vn -0.8871 0.4441 0.1258
vn 0.2667 -0.5112 -0.8170
vn 0.5362 0.4415 0.7195
vn -0.6990 0.3960 -0.5955
vn -0.6941 -0.5603 -0.4519
vn -0.2112 -0.5715 0.7930
vn 0.6352 -0.5844 0.5050
vn -0.7022 -0.6046 0.3760
vn 0.7237 -0.5970 -0.3462
vn 0.2496 0.3969 -0.8833
vn -0.2057 0.3120 0.9275
vn 0.8924 0.2599 0.3688
vn -0.1091 -0.7007 0.7050
vn -0.9065 0.2677 -0.3265
vn 0.6151 0.2107 -0.7598
vn -0.8626 0.2356 0.4476
vn -0.8751 0.3551 0.3287
vn -0.1853 0.2520 0.9498
vn 0.7402 0.3741 -0.5587
vn -0.7613 0.3666 -0.5347
vn 0.6978 0.3500 0.6249
vn 0.2382 0.2093 -0.9484
vn -0.4015 -0.6967 -0.5945
vn -0.5603 -0.6986 -0.4450
vn 0.6634 -0.7472 -0.0396
vn -0.1313 -0.7009 0.7011
vn 0.5782 -0.7479 -0.3261
vn -0.0143 0.3019 -0.9532
s off
f 12/1/1 8/2/1 7/3/1 11/4/1
f 14/5/2 6/6/2 10/7/2 13/8/2
f 15/9/3 9/10/3 8/2/3 12/1/3
f 11/4/4 7/3/4 6/11/4 14/12/4
f 5/13/5 13/8/5 15/9/5 4/14/5
f 2/15/6 11/4/6 14/12/6 1/16/6
f 4/14/7 15/9/7 12/1/7 3/17/7
f 1/18/8 14/5/8 13/8/8 5/13/8
f 3/17/9 12/1/9 11/4/9 2/15/9
f 13/8/10 10/7/10 9/10/10 15/9/10
f 19/19/11 25/20/11 24/21/11 18/22/11
f 20/23/12 26/24/12 25/20/12 19/19/12
f 24/25/13 25/26/13 31/27/13 30/28/13
f 17/29/14 23/30/14 22/31/14 16/32/14
f 21/33/15 27/34/15 26/24/15 20/23/15
f 18/22/16 24/21/16 23/30/16 17/29/16
f 27/35/17 22/36/17 28/37/17 33/38/17
f 22/36/18 23/39/18 29/40/18 28/37/18
f 26/41/19 27/35/19 33/38/19 32/42/19
f 23/39/20 24/25/20 30/28/20 29/40/20
f 28/43/21 34/44/21 39/45/21 33/46/21
f 25/26/22 26/41/22 32/42/22 31/27/22
f 30/47/23 31/48/23 37/49/23 36/50/23
f 31/48/24 32/51/24 38/52/24 37/49/24
f 36/53/25 37/54/25 43/55/25 42/56/25
f 28/43/26 29/57/26 35/58/26 34/44/26
f 32/51/27 33/46/27 39/45/27 38/52/27
f 29/57/28 30/47/28 36/50/28 35/58/28
f 39/59/29 34/60/29 40/61/29 45/62/29
f 35/63/30 36/53/30 42/56/30 41/64/30
f 42/65/31 43/66/31 49/67/31 48/68/31
f 37/54/32 38/69/32 44/70/32 43/55/32
f 34/60/33 35/63/33 41/64/33 40/61/33
f 38/69/34 39/59/34 45/62/34 44/70/34
f 44/71/35 45/72/35 51/73/35 50/74/35
f 45/72/36 40/75/36 46/76/36 51/73/36
f 41/77/37 42/65/37 48/68/37 47/78/37
f 48/79/38 49/80/38 55/81/38 54/82/38
f 43/66/39 44/71/39 50/74/39 49/67/39
f 40/75/40 41/77/40 47/78/40 46/76/40
f 49/80/41 50/83/41 56/84/41 55/81/41
f 51/85/42 46/86/42 52/87/42 57/88/42
f 46/86/43 47/89/43 53/90/43 52/87/43
f 50/83/44 51/85/44 57/88/44 56/84/44
f 47/89/45 48/79/45 54/82/45 53/90/45
f 52/91/46 59/92/46 60/93/46 57/94/46
f 54/95/47 55/96/47 62/97/47 63/98/47
f 62/97/48 61/99/48 58/100/48
f 16/101/49 21/102/49 65/103/49
f 59/92/50 64/104/50 58/100/50
f 61/99/51 60/93/51 58/100/51
f 64/104/52 63/98/52 58/100/52
f 53/105/53 54/95/53 63/98/53 64/104/53
f 62/97/54 58/100/54 63/98/54
f 56/106/55 57/94/55 60/93/55 61/99/55
f 52/91/56 53/105/56 64/104/56 59/92/56
f 55/96/57 56/106/57 61/99/57 62/97/57
f 60/93/58 59/92/58 58/100/58
f 19/107/59 18/108/59 65/103/59
f 20/109/60 19/107/60 65/103/60
f 17/110/61 16/101/61 65/103/61
f 21/102/62 20/109/62 65/103/62
f 18/108/63 17/110/63 65/103/63
f 22/31/64 27/34/64 21/33/64 16/32/64
