# Blender v2.78 (sub 0) OBJ File: 'Low_Poly_Trees_Pack.blend'
# www.blender.org
g Pine_Tree_NoLeaves_crk_l_03
v 0.212571 2.944778 0.110273
v 0.149583 2.983756 0.139612
v 0.167343 2.910860 0.166412
v 0.546675 3.175277 0.605760
v 0.512369 3.194376 0.619656
v 0.524531 3.158779 0.636916
v -0.069768 0.000000 -0.344106
v -0.329252 0.000000 -0.024387
v -0.097469 0.000000 0.322780
v 0.318633 0.000000 0.208148
v 0.305002 0.000000 -0.193610
v 0.304439 3.556030 0.091258
v 0.318610 3.598958 -0.236763
v -0.162839 3.576891 -0.107945
v -0.031147 3.558677 0.181084
v 0.040340 3.485288 -0.365684
vt 0.9763 0.9238
vt 0.9679 0.9241
vt 0.9678 0.9235
vt 0.9761 0.9228
vt 0.9761 0.9259
vt 0.9678 0.9252
vt 0.9679 0.9246
vt 0.9762 0.9249
vt 0.9678 0.9333
vt 0.9678 0.9328
vt 0.9682 0.9331
vt 0.9585 0.8916
vt 0.9543 0.9843
vt 0.9458 0.9819
vt 0.9478 0.8916
vt 0.9269 0.8916
vt 0.9294 0.9838
vt 0.9204 0.9840
vt 0.9158 0.8918
vt 0.9379 0.9849
vt 0.9374 0.8916
vt 0.9693 0.8921
vt 0.9626 0.9842
vt 0.7956 0.8262
vt 0.7956 0.7985
vt 0.8208 0.7907
vt 0.8384 0.8100
vt 0.8206 0.8305
vn 0.5849 -0.8109 -0.0169
vn -0.8019 0.0213 0.5971
vn 0.2426 0.8071 -0.5383
vn 0.5512 0.5089 0.6612
vn -0.7786 0.0211 -0.6272
vn 0.2624 0.0331 0.9644
vn 0.3956 -0.0153 -0.9183
vn -0.8669 0.0439 0.4965
vn 1.0000 0.0001 0.0007
vn 0.0430 0.9904 0.1315
vn -0.1580 0.8845 -0.4389
vn -0.0257 0.9969 0.0745
s off
f 1/1/1 4/2/1 6/3/1 3/4/1
f 3/5/2 6/6/2 5/7/2 2/8/2
f 2/8/3 5/7/3 4/2/3 1/1/3
f 5/9/4 6/10/4 4/11/4
f 8/12/5 14/13/5 16/14/5 7/15/5
f 10/16/6 12/17/6 15/18/6 9/19/6
f 7/15/7 16/14/7 13/20/7 11/21/7
f 9/22/8 15/23/8 14/13/8 8/12/8
f 11/21/9 13/20/9 12/17/9 10/16/9
f 15/24/10 12/25/10 13/26/10
f 16/27/11 14/28/11 13/26/11
f 14/28/12 15/24/12 13/26/12
