# Blender v2.78 (sub 0) OBJ File: 'Low_Poly_Trees_Pack.blend'
# www.blender.org
g Pine_Tree_s_10
v 0.034104 0.613236 0.011199
v -0.134837 0.248342 -0.264036
v -0.351064 0.338380 -0.011856
v -0.199624 0.226563 0.282118
v 0.123760 0.208898 0.283231
v 0.388750 0.286728 0.031616
v 0.205419 0.262509 -0.284789
v 0.121174 0.920543 -0.056247
v 0.085871 0.931904 -0.016280
v 0.108422 0.929497 0.036942
v 0.165154 0.915148 0.037171
v 0.207482 0.901546 -0.009276
v 0.188279 0.903577 -0.055982
v 0.008952 0.756132 -0.158024
v -0.197445 0.645248 -0.012856
v -0.037925 0.716174 0.166861
v 0.159372 0.674936 0.166719
v 0.341458 0.553273 0.002041
v 0.242322 0.707101 -0.157819
v 0.353641 1.409253 -0.036697
v 0.020248 0.007786 -0.059355
v -0.056316 0.007783 -0.021481
v -0.029698 0.007746 0.060455
v 0.061330 0.007954 0.030974
v 0.055768 0.618963 -0.024912
v 0.006348 0.627256 -0.005764
v 0.022653 0.624307 0.045925
v 0.080106 0.613973 0.016508
v -0.044140 0.197071 -0.011547
v -0.022103 0.194026 0.057121
v 0.020402 0.188944 -0.041227
v 0.053991 0.184071 0.027630
vt 0.5473 0.3233
vt 0.5251 0.3481
vt 0.5069 0.2981
vt 0.5684 0.3000
vt 0.5854 0.2746
vt 0.6046 0.3327
vt 0.5404 0.3066
vt 0.5394 0.2634
vt 0.5070 0.3246
vt 0.5262 0.2793
vt 0.5558 0.3086
vt 0.5539 0.3140
vt 0.5657 0.3305
vt 0.5758 0.3612
vt 0.5528 0.2942
vt 0.5766 0.3195
vt 0.5769 0.2597
vt 0.6073 0.2896
vt 0.5640 0.3103
vt 0.5612 0.3072
vt 0.5846 0.3445
vt 0.5621 0.3163
vt 0.5408 0.3601
vt 0.5574 0.3174
vt 0.5486 0.3124
vt 0.5587 0.3167
vt 0.5651 0.3591
vt 0.5077 0.3353
vt 0.5673 0.3117
vt 0.6065 0.3332
vt 0.5673 0.3033
vt 0.5557 0.2984
vt 0.5429 0.2630
vt 0.6071 0.2902
vt 0.5483 0.3026
vt 0.5086 0.2870
vt 0.4413 0.2687
vt 0.4892 0.2911
vt 0.4365 0.3154
vt 0.4361 0.3556
vt 0.4892 0.3324
vt 0.3949 0.2857
vt 0.3939 0.3362
vt 0.9371 0.9156
vt 0.9370 0.9695
vt 0.9232 0.9695
vt 0.9236 0.9155
vt 0.9507 0.9154
vt 0.9508 0.9697
vt 0.9094 0.9696
vt 0.9099 0.9152
vt 0.9785 0.9154
vt 0.9781 0.9699
vt 0.9232 0.8910
vt 0.9093 0.8902
vt 0.9512 0.8906
vt 0.9372 0.8912
vt 0.9786 0.8905
vn -0.0279 -0.5622 -0.8265
vn 0.0734 -0.6220 0.7796
vn 0.5154 -0.6784 -0.5236
vn 0.0239 0.3238 0.9458
vn -0.4775 -0.5609 -0.6763
vn 0.4358 -0.6618 0.6100
vn -0.6291 -0.6574 0.4148
vn 0.8490 0.2069 -0.4862
vn -0.0453 0.3226 -0.9455
vn -0.6974 0.4997 0.5138
vn -0.1021 -0.4680 -0.8778
vn 0.6534 0.2261 0.7224
vn -0.6012 0.4367 -0.6692
vn -0.7436 -0.3045 -0.5953
vn -0.1058 -0.4756 0.8733
vn 0.6156 -0.6401 0.4597
vn -0.9016 -0.3528 0.2503
vn 0.6710 -0.6644 -0.3291
vn 0.6792 0.0235 0.7336
vn 0.0354 0.1644 -0.9858
vn 0.0537 0.2534 0.9659
vn -0.6627 0.4596 -0.5912
vn 0.8330 -0.0368 -0.5520
vn -0.9458 0.1066 0.3066
vn 0.4024 -0.0094 0.9154
vn -0.3855 0.0621 -0.9206
vn 0.8815 -0.0602 -0.4684
vn -0.4265 0.0824 -0.9007
vn 0.3336 0.0171 0.9426
vn -0.9504 0.0446 0.3079
vn -0.7251 0.5365 0.4319
vn 0.9052 0.0357 -0.4235
s off
f 1/1/1 5/2/1 4/3/1
f 1/4/2 2/5/2 7/6/2
f 1/7/3 4/3/3 3/8/3
f 4/9/4 5/10/4 11/11/4 10/12/4
f 1/13/5 6/14/5 5/2/5
f 1/15/6 3/8/6 2/5/6
f 1/16/7 7/6/7 6/14/7
f 6/17/8 7/18/8 13/19/8 12/20/8
f 7/18/9 2/21/9 8/22/9 13/19/9
f 3/23/10 4/9/10 10/12/10 9/24/10
f 10/25/11 11/26/11 17/27/11 16/28/11
f 5/10/12 6/17/12 12/20/12 11/11/12
f 2/21/13 3/23/13 9/24/13 8/22/13
f 11/26/14 12/29/14 18/30/14 17/27/14
f 13/31/15 8/32/15 14/33/15 19/34/15
f 8/32/16 9/35/16 15/36/16 14/33/16
f 12/29/17 13/31/17 19/34/17 18/30/17
f 9/35/18 10/25/18 16/28/18 15/36/18
f 17/37/19 18/38/19 20/39/19
f 14/40/20 20/39/20 19/41/20
f 17/37/21 20/39/21 16/42/21
f 14/40/22 15/43/22 20/39/22
f 18/38/23 19/41/23 20/39/23
f 30/44/24 27/45/24 26/46/24 29/47/24
f 32/48/25 28/49/25 27/45/25 30/44/25
f 29/47/26 26/46/26 25/50/26 31/51/26
f 28/49/27 32/48/27 31/52/27 25/53/27
f 22/54/28 29/47/28 31/51/28 21/55/28
f 24/56/29 32/48/29 30/44/29 23/57/29
f 23/57/30 30/44/30 29/47/30 22/54/30
f 15/43/31 16/42/31 20/39/31
f 21/58/32 31/52/32 32/48/32 24/56/32
