# Blender v2.78 (sub 0) OBJ File: 'Low_Poly_Trees_Pack.blend'
# www.blender.org
g Pine_Tree_NoLeaves_l_03
v 0.986305 6.275280 -0.008947
v 0.967424 6.296376 -0.007929
v 0.974297 6.284698 -0.033013
v 0.157811 5.864568 0.034282
v 0.128501 5.938639 0.035693
v 0.135840 5.900015 -0.033603
v 0.052162 9.553205 0.062650
v 0.028574 9.590919 0.003894
v 0.001307 9.523935 0.018062
v -0.413468 9.773812 0.355122
v -0.424443 9.792332 0.323171
v -0.441754 9.759675 0.333145
v 0.212571 2.944778 0.110273
v 0.149583 2.983756 0.139612
v 0.167343 2.910860 0.166412
v 0.546675 3.175277 0.605760
v 0.512369 3.194376 0.619656
v 0.524531 3.158779 0.636916
v -0.024448 4.058223 -0.119951
v 0.026163 4.091805 -0.171511
v -0.000343 4.017752 -0.184207
v -0.662024 4.433811 -0.670789
v -0.640510 4.443710 -0.686661
v -0.656643 4.422563 -0.696413
v -0.069768 0.000000 -0.344106
v -0.329252 0.000000 -0.024387
v -0.097469 0.000000 0.322780
v 0.318633 0.000000 0.208148
v 0.305002 0.000000 -0.193610
v 0.116003 10.912118 -0.146837
v 0.037515 10.912118 -0.049914
v 0.105441 10.912118 0.054683
v 0.225909 10.912118 0.022404
v 0.232436 10.912118 -0.102142
v -0.006024 18.841623 -0.049648
v -0.013850 18.812054 -0.034712
v 0.004405 18.784781 -0.017906
v 0.024704 18.778803 -0.023387
v 0.020823 18.829618 -0.043920
v 0.304439 3.556030 0.091258
v 0.178290 7.248100 0.115648
v 0.221198 7.304669 -0.139722
v 0.318610 3.598958 -0.236763
v -0.162839 3.576891 -0.107945
v -0.124844 7.184825 -0.048504
v 0.009374 7.256624 0.160456
v -0.031147 3.558677 0.181084
v 0.043176 7.299658 -0.241152
v 0.040340 3.485288 -0.365684
v 0.154709 13.649552 -0.091295
v 0.150510 16.265018 -0.155608
v 0.153662 16.197752 -0.080934
v 0.147295 13.601521 -0.012398
v 0.047857 13.594964 0.014003
v 0.108879 16.222839 -0.072592
v 0.025353 16.175304 -0.115834
v -0.013957 13.602997 -0.045692
v 0.073242 13.635276 -0.117572
v 0.089068 16.304712 -0.177178
vt 0.8541 0.9097
vt 0.8417 0.9094
vt 0.8417 0.9090
vt 0.8542 0.9086
vt 0.8541 0.9108
vt 0.8416 0.9097
vt 0.8416 0.9267
vt 0.8418 0.9264
vt 0.8420 0.9267
vt 0.8416 0.9086
vt 0.8541 0.9076
vt 0.8416 0.9130
vt 0.8502 0.9127
vt 0.8504 0.9133
vt 0.8417 0.9140
vt 0.8417 0.9108
vt 0.8504 0.9116
vt 0.8502 0.9121
vt 0.8416 0.9119
vt 0.8416 0.9243
vt 0.8419 0.9239
vt 0.8422 0.9243
vt 0.8504 0.9151
vt 0.8417 0.9154
vt 0.8416 0.9148
vt 0.8502 0.9141
vt 0.8502 0.9173
vt 0.8416 0.9165
vt 0.8417 0.9160
vt 0.8503 0.9162
vt 0.8416 0.9249
vt 0.8416 0.9244
vt 0.8421 0.9247
vt 0.8416 0.9032
vt 0.8541 0.9029
vt 0.8542 0.9032
vt 0.8417 0.9043
vt 0.8417 0.9010
vt 0.8542 0.9021
vt 0.8540 0.9025
vt 0.8417 0.9021
vt 0.8416 0.9263
vt 0.8418 0.9260
vt 0.8420 0.9263
vt 0.8256 0.8900
vt 0.8243 0.9395
vt 0.8220 0.9395
vt 0.8221 0.8891
vt 0.8351 0.8898
vt 0.8311 0.9399
vt 0.8288 0.9397
vt 0.8319 0.8886
vt 0.8284 0.8900
vt 0.8265 0.9396
vt 0.8197 0.9395
vt 0.8197 0.8892
vt 0.8372 0.9239
vt 0.8384 0.9250
vt 0.8389 0.9595
vt 0.8383 0.9581
vt 0.8405 0.9235
vt 0.8416 0.9254
vt 0.8409 0.9581
vt 0.8402 0.9589
vt 0.8390 0.9256
vt 0.8397 0.9598
vt 0.8351 0.9255
vt 0.8377 0.9583
vt 0.8141 0.8890
vt 0.8104 0.9379
vt 0.8060 0.9364
vt 0.8086 0.8887
vt 0.8068 0.9861
vt 0.8033 0.9874
vt 0.7977 0.8886
vt 0.7974 0.9371
vt 0.7927 0.9372
vt 0.7918 0.8886
vt 0.7971 0.9865
vt 0.7947 0.9866
vt 0.8018 0.9378
vt 0.8031 0.8886
vt 0.8005 0.9874
vt 0.8197 0.8896
vt 0.8147 0.9380
vt 0.8101 0.9872
vt 0.8261 0.9753
vt 0.8246 0.9756
vt 0.8389 0.8891
vt 0.8404 0.8887
vt 0.8223 0.9750
vt 0.8209 0.9750
vt 0.8352 0.8886
vt 0.8366 0.8887
vt 0.8234 0.9757
vt 0.8377 0.8893
vt 0.8273 0.9752
vt 0.8416 0.8886
vt 0.8416 0.9221
vt 0.8421 0.9218
vt 0.8427 0.9231
vt 0.8422 0.9238
vt 0.8416 0.9231
vn -0.3653 0.7975 -0.4801
vn 0.0517 0.0007 0.9987
vn 0.7382 0.6659 -0.1077
vn 0.3589 -0.7797 -0.5131
vn -0.0303 -0.8204 0.5710
vn -0.5605 0.0505 -0.8266
vn 0.5483 0.7881 0.2797
vn -0.6711 0.5178 0.5306
vn 0.5849 -0.8109 -0.0169
vn -0.8019 0.0213 0.5971
vn 0.2426 0.8071 -0.5383
vn 0.5512 0.5089 0.6612
vn -0.6305 -0.7440 0.2212
vn 0.5857 -0.0720 -0.8073
vn 0.0137 0.8336 0.5522
vn -0.6168 0.6649 -0.4214
vn 0.9917 -0.0070 0.1280
vn -0.8438 0.0373 0.5354
vn 0.4443 0.0112 -0.8958
vn 0.2579 0.0212 0.9659
vn -0.7674 0.0327 -0.6403
vn 0.9987 0.0506 -0.0111
vn -0.5024 -0.0365 0.8639
vn 0.3261 0.0586 -0.9435
vn 0.2022 -0.0122 0.9793
vn -0.7377 0.0081 -0.6751
vn -0.7786 0.0211 -0.6272
vn -0.7720 0.0200 -0.6353
vn 0.2624 0.0331 0.9644
vn 0.2579 0.0025 0.9662
vn 0.3956 -0.0153 -0.9183
vn 0.4438 0.0320 -0.8956
vn -0.8669 0.0439 0.4965
vn -0.8824 0.0070 0.4704
vn 1.0000 0.0001 0.0007
vn 0.9944 0.0284 0.1021
vn -0.7129 -0.0081 -0.7012
vn -0.6546 -0.0118 -0.7559
vn 0.2572 0.0201 0.9661
vn 0.2372 0.0258 0.9711
vn 0.3366 0.0143 -0.9415
vn 0.3137 -0.0229 -0.9492
vn -0.7850 -0.0117 0.6194
vn -0.5841 0.0357 0.8109
vn 0.9967 0.0290 0.0752
vn 0.9996 0.0003 0.0280
vn 0.1665 0.4485 0.8781
vn -0.1042 0.4702 0.8764
s off
f 5/1/1 2/2/1 3/3/1 6/4/1
f 4/5/2 1/6/2 2/2/2 5/1/2
f 2/7/3 1/8/3 3/9/3
f 6/4/4 3/3/4 1/10/4 4/11/4
f 7/12/5 10/13/5 12/14/5 9/15/5
f 9/16/6 12/17/6 11/18/6 8/19/6
f 8/19/7 11/18/7 10/13/7 7/12/7
f 11/20/8 12/21/8 10/22/8
f 13/23/9 16/24/9 18/25/9 15/26/9
f 15/27/10 18/28/10 17/29/10 14/30/10
f 14/30/11 17/29/11 16/24/11 13/23/11
f 17/31/12 18/32/12 16/33/12
f 19/34/13 22/35/13 24/36/13 21/37/13
f 21/38/14 24/39/14 23/40/14 20/41/14
f 20/41/15 23/40/15 22/35/15 19/34/15
f 23/42/16 24/43/16 22/44/16
f 42/45/17 34/46/17 33/47/17 41/48/17
f 46/49/18 32/50/18 31/51/18 45/52/18
f 48/53/19 30/54/19 34/46/19 42/45/19
f 41/48/20 33/47/20 32/55/20 46/56/20
f 45/52/21 31/51/21 30/54/21 48/53/21
f 52/57/22 51/58/22 39/59/22 38/60/22
f 56/61/23 55/62/23 37/63/23 36/64/23
f 51/58/24 59/65/24 35/66/24 39/59/24
f 55/67/25 52/57/25 38/60/25 37/68/25
f 59/65/26 56/61/26 36/64/26 35/66/26
f 26/69/27 44/70/27 49/71/27 25/72/27
f 44/70/28 45/73/28 48/74/28 49/71/28
f 28/75/29 40/76/29 47/77/29 27/78/29
f 40/76/30 41/79/30 46/80/30 47/77/30
f 25/72/31 49/71/31 43/81/31 29/82/31
f 49/71/32 48/74/32 42/83/32 43/81/32
f 27/84/33 47/85/33 44/70/33 26/69/33
f 47/85/34 46/86/34 45/73/34 44/70/34
f 29/82/35 43/81/35 40/76/35 28/75/35
f 43/81/36 42/83/36 41/79/36 40/76/36
f 30/54/37 31/51/37 57/87/37 58/88/37
f 58/89/38 57/90/38 56/61/38 59/65/38
f 32/55/39 33/47/39 53/91/39 54/92/39
f 54/93/40 53/94/40 52/57/40 55/67/40
f 34/46/41 30/54/41 58/88/41 50/95/41
f 50/96/42 58/89/42 59/65/42 51/58/42
f 31/51/43 32/50/43 54/97/43 57/87/43
f 57/90/44 54/98/44 55/62/44 56/61/44
f 33/47/45 34/46/45 50/95/45 53/91/45
f 53/94/46 50/96/46 51/58/46 52/57/46
f 37/99/47 38/100/47 39/101/47 35/102/47
f 36/103/48 37/99/48 35/102/48
