# Blender v2.78 (sub 0) OBJ File: 'Low_Poly_Trees_Pack.blend'
# www.blender.org
g Pine_Tree_s_06
v -0.007538 -0.000000 -0.079212
v -0.072494 -0.000000 -0.011241
v 0.020751 -0.000000 0.065849
v 0.068725 -0.000000 -0.023804
v -0.007532 0.858725 -0.035458
v -0.039484 0.858904 0.008476
v 0.000387 0.858842 0.046765
v 0.035744 0.858686 -0.004030
v -0.054373 0.241422 0.002536
v 0.052409 0.241429 -0.010027
v -0.006635 0.241433 -0.052924
v 0.011012 0.241416 0.059384
v -0.004419 0.843295 0.020283
v -0.204049 0.386454 -0.357967
v -0.545307 0.198964 0.048918
v -0.251025 0.386454 0.423653
v 0.216002 0.198964 0.489658
v 0.538404 0.386454 0.050561
v 0.263907 0.243117 -0.390251
v -0.088941 1.233573 -0.083161
v -0.087270 1.234258 0.033429
v -0.037961 1.235908 0.158148
v 0.091183 1.236609 0.208793
v 0.085472 1.236192 0.033763
v 0.035567 1.234300 -0.027963
v -0.242991 0.716329 -0.323721
v -0.419314 0.873678 0.029884
v -0.260515 0.716329 0.385660
v 0.123466 0.873678 0.392201
v 0.450739 0.753406 0.039800
v 0.129627 0.873678 -0.252691
v 0.001678 1.993074 0.062643
vt 0.8429 0.9181
vt 0.8426 0.9521
vt 0.8303 0.9521
vt 0.8304 0.9179
vt 0.7938 0.9182
vt 0.7935 0.9519
vt 0.7812 0.9519
vt 0.7815 0.9179
vt 0.8307 0.8954
vt 0.8180 0.9181
vt 0.8184 0.8959
vt 0.7934 0.8963
vt 0.7810 0.8956
vt 0.8180 0.9520
vt 0.8430 0.8959
vt 0.5569 0.3231
vt 0.5385 0.3489
vt 0.5207 0.3040
vt 0.5761 0.3028
vt 0.5909 0.2778
vt 0.6091 0.3251
vt 0.5504 0.3092
vt 0.5439 0.2669
vt 0.5203 0.3265
vt 0.5386 0.2885
vt 0.5643 0.3115
vt 0.5607 0.3150
vt 0.5735 0.3321
vt 0.5832 0.3617
vt 0.5586 0.2962
vt 0.5818 0.3164
vt 0.5842 0.2639
vt 0.6076 0.3071
vt 0.5716 0.3137
vt 0.5691 0.3097
vt 0.5918 0.3454
vt 0.5698 0.3182
vt 0.5426 0.3631
vt 0.5650 0.3196
vt 0.5573 0.3141
vt 0.5652 0.3170
vt 0.5607 0.3497
vt 0.5226 0.3351
vt 0.5750 0.3140
vt 0.6127 0.3347
vt 0.5722 0.3048
vt 0.5648 0.3017
vt 0.5614 0.2709
vt 0.6020 0.2859
vt 0.5556 0.3059
vt 0.5131 0.2933
vt 0.4381 0.2668
vt 0.4830 0.2856
vt 0.4358 0.3138
vt 0.4356 0.3605
vt 0.4701 0.3409
vt 0.4009 0.2825
vt 0.3916 0.3343
vn 0.5876 0.0237 -0.8088
vn -0.7800 0.0207 -0.6254
vn 0.8711 0.0396 0.4895
vn -0.7358 0.0847 -0.6718
vn -0.6705 0.0063 0.7419
vn 0.5856 0.0856 -0.8060
vn 0.8426 0.0215 0.5380
vn -0.1363 -0.6133 -0.7780
vn -0.1288 -0.5984 0.7907
vn 0.7334 -0.6273 -0.2621
vn -0.0987 0.2810 0.9546
vn -0.4849 -0.6172 -0.6196
vn 0.7286 -0.5967 0.3362
vn -0.5559 -0.6241 0.5491
vn 0.7249 0.3765 -0.5768
vn 0.1160 0.3316 -0.9362
vn -0.8269 0.3590 0.4329
vn 0.2350 -0.4515 -0.8608
vn 0.7969 0.3243 0.5097
vn -0.8434 0.3166 -0.4341
vn -0.8003 -0.4619 -0.3823
vn -0.0771 -0.4628 0.8831
vn 0.7248 -0.5253 0.4458
vn -0.6744 -0.5066 0.5371
vn 0.6846 -0.5524 -0.4755
vn 0.7502 0.2605 0.6078
vn 0.0655 0.2775 -0.9585
vn -0.1259 0.2675 0.9553
vn -0.7876 0.3118 -0.5315
vn 0.7017 0.2664 -0.6608
vn -0.8181 0.2932 0.4948
vn -0.6451 -0.0004 0.7641
s off
f 11/1/1 5/2/1 8/3/1 10/4/1
f 9/5/2 6/6/2 5/7/2 11/8/2
f 4/9/3 10/4/3 12/10/3 3/11/3
f 2/12/4 9/5/4 11/8/4 1/13/4
f 12/10/5 7/14/5 6/6/5 9/5/5
f 1/15/6 11/1/6 10/4/6 4/9/6
f 10/4/7 8/3/7 7/14/7 12/10/7
f 13/16/8 17/17/8 16/18/8
f 13/19/9 14/20/9 19/21/9
f 13/22/10 16/18/10 15/23/10
f 16/24/11 17/25/11 23/26/11 22/27/11
f 13/28/12 18/29/12 17/17/12
f 13/30/13 15/23/13 14/20/13
f 13/31/14 19/21/14 18/29/14
f 18/32/15 19/33/15 25/34/15 24/35/15
f 19/33/16 14/36/16 20/37/16 25/34/16
f 15/38/17 16/24/17 22/27/17 21/39/17
f 22/40/18 23/41/18 29/42/18 28/43/18
f 17/25/19 18/32/19 24/35/19 23/26/19
f 14/36/20 15/38/20 21/39/20 20/37/20
f 23/41/21 24/44/21 30/45/21 29/42/21
f 25/46/22 20/47/22 26/48/22 31/49/22
f 20/47/23 21/50/23 27/51/23 26/48/23
f 24/44/24 25/46/24 31/49/24 30/45/24
f 21/50/25 22/40/25 28/43/25 27/51/25
f 29/52/26 30/53/26 32/54/26
f 26/55/27 32/54/27 31/56/27
f 29/52/28 32/54/28 28/57/28
f 26/55/29 27/58/29 32/54/29
f 30/53/30 31/56/30 32/54/30
f 27/58/31 28/57/31 32/54/31
f 12/10/32 9/5/32 2/12/32 3/11/32
