# Blender v2.78 (sub 0) OBJ File: 'Low_Poly_Trees_Pack.blend'
# www.blender.org
g Pine_Tree_NoLeaves_crk_l_09
v -0.069768 0.000000 -0.344106
v -0.329252 0.000000 -0.024387
v -0.097469 0.000000 0.322780
v 0.318633 0.000000 0.208148
v 0.305002 0.000000 -0.193610
v 0.311806 1.799479 -0.215187
v -0.064308 1.779339 0.251932
v -0.014714 1.742644 -0.354895
v 0.311536 1.778015 0.149703
v -0.246045 1.788445 -0.066166
v 5.760671 0.125930 3.440327
v 5.764985 0.124617 3.468295
v 5.760593 0.149862 3.455798
v 4.917129 0.088476 3.819788
v 4.955768 0.086025 3.889421
v 4.931324 0.155857 3.859863
v 7.320467 -0.000226 6.542661
v 7.355813 0.062258 6.559318
v 7.284885 0.064228 6.539410
v 7.133340 -0.010304 7.104712
v 7.152069 0.022718 7.111273
v 7.114241 0.023127 7.105399
v 3.407067 0.268076 2.816123
v 3.465693 0.319158 2.798767
v 3.391779 0.332893 2.772390
v 3.298829 0.813581 3.552126
v 3.320302 0.829313 3.541917
v 3.293828 0.839361 3.541060
v 8.793767 0.198655 7.055814
v 8.742919 0.101741 7.115618
v 8.784879 -0.002845 7.062181
v 8.861659 0.029431 6.969351
v 8.867154 0.153965 6.965416
v 14.851162 -0.004219 12.191195
v 14.811732 -0.024681 12.173100
v 14.798090 -0.047821 12.128622
v 14.809813 -0.039979 12.101234
v 14.862001 -0.012053 12.151147
v 3.225296 0.063943 2.241438
v 5.998556 -0.012321 4.680926
v 6.072274 0.242229 4.685924
v 3.271028 0.391329 2.260642
v 2.947119 0.262834 2.617638
v 5.759112 0.152703 4.876561
v 5.897489 -0.057245 4.816502
v 3.013454 -0.025911 2.501714
v 5.956557 0.343719 4.821254
v 3.008025 0.521834 2.404773
v 10.933453 0.104654 8.761988
v 12.952953 0.132212 10.425022
v 12.902155 0.058490 10.379249
v 10.890770 0.026440 8.736547
v 10.822329 0.000134 8.809013
v 12.893040 0.049797 10.429703
v 12.803776 0.093703 10.464495
v 10.789968 0.059710 8.862423
v 10.871017 0.131130 8.816137
v 12.944883 0.153222 10.497887
v 1.875680 0.395039 1.124146
v 1.616414 -0.071751 1.397927
v 1.626110 0.535532 1.341724
v 1.854956 0.030487 1.107485
v 1.511605 0.246188 1.547017
vt 0.9046 0.9430
vt 0.9046 0.9697
vt 0.8992 0.9693
vt 0.8986 0.9429
vt 0.9229 0.9433
vt 0.9208 0.9697
vt 0.9154 0.9696
vt 0.9167 0.9430
vt 0.9106 0.9430
vt 0.9099 0.9689
vt 0.8934 0.9694
vt 0.8922 0.9430
vt 0.8123 0.8118
vt 0.7962 0.8248
vt 0.7790 0.8119
vt 0.7843 0.7914
vt 0.8067 0.7914
vt 0.9680 0.9164
vt 0.9565 0.9160
vt 0.9565 0.9157
vt 0.9681 0.9154
vt 0.9680 0.9174
vt 0.9564 0.9164
vt 0.9564 0.9322
vt 0.9566 0.9319
vt 0.9568 0.9322
vt 0.9564 0.9153
vt 0.9680 0.9144
vt 0.9564 0.9194
vt 0.9645 0.9191
vt 0.9646 0.9197
vt 0.9565 0.9204
vt 0.9565 0.9174
vt 0.9646 0.9181
vt 0.9644 0.9186
vt 0.9564 0.9184
vt 0.9564 0.9300
vt 0.9567 0.9295
vt 0.9569 0.9300
vt 0.9564 0.9103
vt 0.9680 0.9100
vt 0.9681 0.9103
vt 0.9565 0.9113
vt 0.9565 0.9083
vt 0.9681 0.9093
vt 0.9680 0.9096
vt 0.9565 0.9093
vt 0.9564 0.9318
vt 0.9566 0.9315
vt 0.9568 0.9318
vt 0.9864 0.9325
vt 0.9329 0.9306
vt 0.9329 0.9288
vt 0.9874 0.9287
vt 0.9864 0.9429
vt 0.9325 0.9362
vt 0.9326 0.9343
vt 0.9879 0.9394
vt 0.9864 0.9355
vt 0.9328 0.9325
vt 0.9329 0.9269
vt 0.9873 0.9261
vt 0.9307 0.9716
vt 0.9298 0.9727
vt 0.8925 0.9733
vt 0.8939 0.9727
vt 0.9310 0.9749
vt 0.9303 0.9763
vt 0.8939 0.9753
vt 0.8932 0.9746
vt 0.9292 0.9736
vt 0.8922 0.9740
vt 0.9303 0.9709
vt 0.8937 0.9720
vt 0.9736 0.9206
vt 0.9470 0.9182
vt 0.9487 0.9134
vt 0.9745 0.9151
vt 0.8936 0.9139
vt 0.8923 0.9100
vt 0.9744 0.9043
vt 0.9480 0.9040
vt 0.9480 0.8988
vt 0.9745 0.8985
vt 0.8932 0.9030
vt 0.8930 0.9004
vt 0.9472 0.9088
vt 0.9738 0.9097
vt 0.8923 0.9069
vt 0.9732 0.9260
vt 0.9469 0.9229
vt 0.8922 0.9175
vt 0.8927 0.9317
vt 0.8923 0.9300
vt 0.9683 0.9737
vt 0.9688 0.9753
vt 0.8930 0.9276
vt 0.8931 0.9261
vt 0.9689 0.9697
vt 0.9688 0.9713
vt 0.8922 0.9287
vt 0.9680 0.9724
vt 0.8927 0.9330
vt 0.9689 0.9766
vt 0.9410 0.9442
vt 0.9406 0.9445
vt 0.9401 0.9434
vt 0.9405 0.9429
vt 0.9410 0.9434
vt 0.8124 0.8118
vt 0.8179 0.7914
vt 0.8404 0.7914
vt 0.8457 0.8119
vt 0.8285 0.8248
vn 0.9998 -0.0003 -0.0174
vn -0.8482 0.0443 0.5278
vn 0.3834 -0.0151 -0.9235
vn 0.2640 0.0331 0.9639
vn -0.7774 0.0211 -0.6287
vn -0.0366 0.9973 -0.0633
vn 0.0195 0.9981 0.0587
vn 0.3899 0.4688 0.7926
vn 0.0225 -0.9986 -0.0484
vn 0.9842 0.0984 -0.1472
vn -0.3693 0.5240 -0.7675
vn -0.8334 -0.4730 -0.2858
vn 0.0044 0.9973 0.0734
vn 0.8113 -0.5229 0.2614
vn -0.1537 -0.1080 0.9822
vn -0.9774 -0.2108 0.0134
vn 0.3247 0.8082 -0.4912
vn 0.6470 -0.5638 0.5133
vn 0.1271 0.4120 0.9023
vn 0.6224 -0.1279 -0.7722
vn -0.5123 -0.5359 0.6711
vn 0.3003 0.8955 -0.3284
vn 0.1695 -0.9661 -0.1945
vn -0.4547 0.6398 0.6196
vn 0.6709 0.0181 -0.7413
vn -0.3688 -0.8529 0.3695
vn 0.2535 0.9466 -0.1994
vn 0.1097 -0.9778 -0.1783
vn -0.4621 0.6660 0.5856
vn -0.4716 0.6251 0.6219
vn -0.4675 0.6349 0.6151
vn 0.1805 -0.9652 -0.1890
vn 0.1551 -0.9661 -0.2064
vn 0.2578 0.9123 -0.3182
vn 0.3160 0.8950 -0.3148
vn -0.5341 -0.4604 0.7090
vn -0.5596 -0.4705 0.6823
vn 0.6345 -0.0209 -0.7726
vn 0.6517 -0.1025 -0.7515
vn -0.4509 0.7013 0.5522
vn -0.4162 0.7560 0.5052
vn 0.1682 -0.9663 -0.1947
vn 0.1599 -0.9714 -0.1757
vn 0.2349 0.9412 -0.2427
vn 0.1916 0.9495 -0.2486
vn -0.5138 -0.6191 0.5938
vn -0.3518 -0.8114 0.4669
vn 0.6540 -0.0756 -0.7527
vn 0.6341 -0.0280 -0.7727
vn 0.4427 -0.8844 0.1480
vn 0.2880 -0.8829 0.3710
vn -0.7726 0.0583 -0.6322
vn -0.7058 -0.2024 -0.6789
s off
f 5/1/1 6/2/1 9/3/1 4/4/1
f 3/5/2 7/6/2 10/7/2 2/8/2
f 1/9/3 8/10/3 6/2/3 5/1/3
f 4/4/4 9/3/4 7/11/4 3/12/4
f 2/8/5 10/7/5 8/10/5 1/9/5
f 6/13/6 8/14/6 10/15/6 7/16/6
f 9/17/7 6/13/7 7/16/7
f 15/18/8 12/19/8 13/20/8 16/21/8
f 14/22/9 11/23/9 12/19/9 15/18/9
f 12/24/10 11/25/10 13/26/10
f 16/21/11 13/20/11 11/27/11 14/28/11
f 17/29/12 20/30/12 22/31/12 19/32/12
f 19/33/13 22/34/13 21/35/13 18/36/13
f 18/36/14 21/35/14 20/30/14 17/29/14
f 21/37/15 22/38/15 20/39/15
f 23/40/16 26/41/16 28/42/16 25/43/16
f 25/44/17 28/45/17 27/46/17 24/47/17
f 24/47/18 27/46/18 26/41/18 23/40/18
f 27/48/19 28/49/19 26/50/19
f 41/51/20 33/52/20 32/53/20 40/54/20
f 45/55/21 31/56/21 30/57/21 44/58/21
f 47/59/22 29/60/22 33/52/22 41/51/22
f 40/54/23 32/53/23 31/61/23 45/62/23
f 44/58/24 30/57/24 29/60/24 47/59/24
f 51/63/25 50/64/25 38/65/25 37/66/25
f 55/67/26 54/68/26 36/69/26 35/70/26
f 50/64/27 58/71/27 34/72/27 38/65/27
f 54/73/28 51/63/28 37/66/28 36/74/28
f 58/71/29 55/67/29 35/70/29 34/72/29
f 63/75/30 43/76/30 48/77/30 61/78/30
f 43/76/31 44/79/31 47/80/31 48/77/31
f 62/81/32 39/82/32 46/83/32 60/84/32
f 39/82/33 40/85/33 45/86/33 46/83/33
f 61/78/34 48/77/34 42/87/34 59/88/34
f 48/77/35 47/80/35 41/89/35 42/87/35
f 60/90/36 46/91/36 43/76/36 63/75/36
f 46/91/37 45/92/37 44/79/37 43/76/37
f 59/88/38 42/87/38 39/82/38 62/81/38
f 42/87/39 41/89/39 40/85/39 39/82/39
f 29/60/40 30/57/40 56/93/40 57/94/40
f 57/95/41 56/96/41 55/67/41 58/71/41
f 31/61/42 32/53/42 52/97/42 53/98/42
f 53/99/43 52/100/43 51/63/43 54/73/43
f 33/52/44 29/60/44 57/94/44 49/101/44
f 49/102/45 57/95/45 58/71/45 50/64/45
f 30/57/46 31/56/46 53/103/46 56/93/46
f 56/96/47 53/104/47 54/68/47 55/67/47
f 32/53/48 33/52/48 49/101/48 52/97/48
f 52/100/49 49/102/49 50/64/49 51/63/49
f 36/105/50 37/106/50 38/107/50 34/108/50
f 35/109/51 36/105/51 34/108/51
f 59/110/52 62/111/52 60/112/52 63/113/52
f 61/114/53 59/110/53 63/113/53
