# Blender v2.78 (sub 0) OBJ File: 'Low_Poly_Trees_Pack.blend'
# www.blender.org
g Pine_Tree_s_07
v -0.007328 0.000000 -0.067326
v -0.060001 0.000000 -0.003564
v 0.014240 0.000000 0.058341
v 0.063142 0.000000 -0.016126
v -0.007362 0.733985 -0.031254
v -0.030745 0.734329 0.011240
v -0.003940 0.734521 0.038663
v 0.033705 0.734359 -0.001161
v -0.045947 0.176315 0.006682
v 0.050404 0.176343 -0.005879
v -0.006669 0.176347 -0.047346
v 0.006619 0.176330 0.052840
v 0.002313 0.734588 0.001156
v -0.060485 0.291010 -0.328056
v -0.368312 0.192822 -0.065974
v -0.290634 0.289795 0.247801
v 0.053579 0.150629 0.417397
v 0.394134 0.344035 0.163557
v 0.306439 0.191611 -0.233030
v -0.076685 1.076333 -0.073826
v -0.075328 1.078022 0.013677
v -0.038406 1.079519 0.107127
v 0.058390 1.078679 0.145111
v 0.054051 1.080125 0.013935
v 0.016698 1.077888 -0.032355
v -0.137318 0.648358 -0.345659
v -0.312231 0.806902 -0.051803
v -0.260523 0.648817 0.277545
v 0.082962 0.752722 0.326577
v 0.427175 0.616843 0.082278
v 0.181021 0.754827 -0.208974
v -0.008644 1.763315 0.035697
vt 0.8429 0.9181
vt 0.8425 0.9583
vt 0.8303 0.9582
vt 0.8304 0.9179
vt 0.7938 0.9182
vt 0.7935 0.9580
vt 0.7812 0.9580
vt 0.7815 0.9179
vt 0.8307 0.8954
vt 0.8180 0.9181
vt 0.8184 0.8959
vt 0.7934 0.8963
vt 0.7810 0.8956
vt 0.8180 0.9581
vt 0.8430 0.8959
vt 0.9280 0.4491
vt 0.9088 0.4760
vt 0.8902 0.4291
vt 0.9480 0.4279
vt 0.9635 0.4018
vt 0.9826 0.4511
vt 0.9212 0.4345
vt 0.9144 0.3904
vt 0.8898 0.4526
vt 0.9088 0.4129
vt 0.9358 0.4370
vt 0.9319 0.4406
vt 0.9453 0.4585
vt 0.9555 0.4894
vt 0.9297 0.4210
vt 0.9540 0.4421
vt 0.9565 0.3872
vt 0.9809 0.4323
vt 0.9433 0.4393
vt 0.9407 0.4351
vt 0.9644 0.4724
vt 0.9414 0.4440
vt 0.9130 0.4909
vt 0.9364 0.4454
vt 0.9284 0.4397
vt 0.9367 0.4427
vt 0.9320 0.4769
vt 0.8922 0.4616
vt 0.9469 0.4395
vt 0.9863 0.4612
vt 0.9440 0.4299
vt 0.9363 0.4268
vt 0.9327 0.3945
vt 0.9751 0.4102
vt 0.9266 0.4311
vt 0.8822 0.4180
vt 0.9393 0.5145
vt 0.9888 0.5352
vt 0.9368 0.5665
vt 0.9366 0.6183
vt 0.9745 0.5966
vt 0.8982 0.5319
vt 0.8879 0.5893
vn 0.5889 0.0242 -0.8078
vn -0.8385 0.0210 -0.5444
vn 0.8202 0.0397 0.5708
vn -0.7854 0.0853 -0.6131
vn -0.6798 0.0091 0.7333
vn 0.5854 0.0891 -0.8058
vn 0.7707 0.0242 0.6368
vn 0.1716 -0.5618 -0.8093
vn -0.3441 -0.5277 0.7766
vn 0.8267 -0.5617 -0.0311
vn -0.3395 0.2676 0.9017
vn -0.2522 -0.5763 -0.7774
vn 0.6457 -0.5119 0.5666
vn -0.7272 -0.5714 0.3804
vn 0.8639 0.3469 -0.3651
vn 0.3296 0.3036 -0.8940
vn -0.9320 0.3102 0.1873
vn 0.2750 -0.4635 -0.8423
vn 0.6341 0.3076 0.7094
vn -0.7615 0.2460 -0.5997
vn -0.7202 -0.5113 -0.4689
vn -0.2195 -0.5223 0.8240
vn 0.6612 -0.5351 0.5258
vn -0.7332 -0.5552 0.3926
vn 0.7548 -0.5477 -0.3611
vn 0.6257 0.2676 0.7327
vn 0.2991 0.2777 -0.9129
vn -0.2112 0.2526 0.9442
vn -0.7447 0.2913 -0.6005
vn 0.7945 0.2801 -0.5388
vn -0.9237 0.2682 0.2737
vn -0.6486 0.0016 0.7611
s off
f 11/1/1 5/2/1 8/3/1 10/4/1
f 9/5/2 6/6/2 5/7/2 11/8/2
f 4/9/3 10/4/3 12/10/3 3/11/3
f 2/12/4 9/5/4 11/8/4 1/13/4
f 12/10/5 7/14/5 6/6/5 9/5/5
f 1/15/6 11/1/6 10/4/6 4/9/6
f 10/4/7 8/3/7 7/14/7 12/10/7
f 13/16/8 17/17/8 16/18/8
f 13/19/9 14/20/9 19/21/9
f 13/22/10 16/18/10 15/23/10
f 16/24/11 17/25/11 23/26/11 22/27/11
f 13/28/12 18/29/12 17/17/12
f 13/30/13 15/23/13 14/20/13
f 13/31/14 19/21/14 18/29/14
f 18/32/15 19/33/15 25/34/15 24/35/15
f 19/33/16 14/36/16 20/37/16 25/34/16
f 15/38/17 16/24/17 22/27/17 21/39/17
f 22/40/18 23/41/18 29/42/18 28/43/18
f 17/25/19 18/32/19 24/35/19 23/26/19
f 14/36/20 15/38/20 21/39/20 20/37/20
f 23/41/21 24/44/21 30/45/21 29/42/21
f 25/46/22 20/47/22 26/48/22 31/49/22
f 20/47/23 21/50/23 27/51/23 26/48/23
f 24/44/24 25/46/24 31/49/24 30/45/24
f 21/50/25 22/40/25 28/43/25 27/51/25
f 29/52/26 30/53/26 32/54/26
f 26/55/27 32/54/27 31/56/27
f 29/52/28 32/54/28 28/57/28
f 26/55/29 27/58/29 32/54/29
f 30/53/30 31/56/30 32/54/30
f 27/58/31 28/57/31 32/54/31
f 12/10/32 9/5/32 2/12/32 3/11/32
