# Blender v2.78 (sub 0) OBJ File: 'Low_Poly_Trees_Pack.blend'
# www.blender.org
g Pine_Log_08
v -1.034821 0.208364 -0.230678
v -1.012950 0.340617 -0.173181
v -1.051913 0.381744 -0.041151
v -1.054143 0.285280 0.099422
v -1.036152 0.184127 0.116488
v -1.025240 0.067700 0.058992
v -1.010729 0.026574 -0.063801
v -1.033900 0.084839 -0.179959
v 1.017770 0.201294 -0.167394
v 1.017770 0.320376 -0.118069
v 1.054912 0.369701 0.001013
v 1.054912 0.320376 0.120095
v 1.017770 0.201294 0.169420
v 1.017770 0.082212 0.120095
v 1.042819 0.032887 0.001013
v 1.021711 0.079379 -0.138529
v -0.248206 -0.006102 0.017297
v 0.878845 0.008074 0.004253
v 0.881715 0.044781 -0.122529
v -0.252376 0.036773 -0.121978
v -0.271666 0.215898 0.187442
v 0.879841 0.207025 0.197162
v 0.879764 0.067595 0.141905
v -0.247812 0.061876 0.148975
v -0.262886 0.381213 -0.014438
v 0.877806 0.399940 -0.001756
v 0.879030 0.344687 0.137656
v -0.276593 0.321839 0.136104
v -0.259201 0.171547 -0.191447
v 0.876810 0.200988 -0.194664
v 0.876887 0.340418 -0.139407
v -0.263312 0.313197 -0.146200
v -1.012020 0.360071 -0.190050
v -1.032239 0.210198 -0.256248
v -1.053179 0.407421 -0.039437
v -1.056864 0.302140 0.118714
v -1.038733 0.182293 0.142058
v -1.026170 0.048247 0.075861
v -1.009463 0.000897 -0.065515
v -1.031180 0.067979 -0.199252
v -0.805140 0.204350 -0.200965
v -0.816051 0.320776 -0.143469
v -0.830562 0.361903 -0.020676
v -0.840173 0.303638 0.095483
v -0.839253 0.180113 0.136963
v -0.828341 0.063686 0.079467
v -0.813830 0.022560 -0.043326
v -0.804219 0.080825 -0.159485
v 1.017770 0.339901 -0.137594
v 1.017770 0.201294 -0.195007
v 1.054912 0.397314 0.001013
v 1.054912 0.339901 0.139620
v 1.017770 0.201294 0.197033
v 1.017770 0.062687 0.139620
v 1.042819 0.005274 0.001013
v 1.021711 0.059853 -0.158054
v 0.885007 0.201294 -0.167394
v 0.885007 0.320376 -0.118069
v 0.885007 0.369701 0.001013
v 0.885007 0.320376 0.120095
v 0.885007 0.201294 0.169420
v 0.885007 0.082212 0.120095
v 0.885007 0.032887 0.001013
v 0.885007 0.082212 -0.118069
v -0.804627 0.057230 -0.171337
v -0.821104 0.049251 0.104159
v -0.782485 0.324741 0.121041
v -0.747576 0.331346 -0.162030
v -0.758611 -0.004173 -0.030215
v -0.829697 0.185791 0.164904
v -0.761515 0.386503 -0.023649
v -0.780115 0.195917 -0.223287
v 1.048450 0.037182 -0.120226
v 1.048450 0.056708 -0.100701
v -0.393295 0.212183 0.181262
v -0.397244 0.319701 0.133825
v -0.340104 0.319215 0.402631
v -0.318745 0.359412 0.387181
v -0.387638 0.325191 0.398681
v -0.353077 0.390231 0.373683
v -0.418621 0.262172 0.160491
v -0.395655 0.369081 0.380790
v -0.303031 0.250239 0.309194
v -0.387613 0.251369 0.304129
v -0.372307 0.337648 0.267912
v -0.294815 0.323308 0.275800
v -0.404284 0.298309 0.284798
vt 0.9773 0.9548
vt 0.9840 0.9551
vt 0.9838 0.9601
vt 0.9771 0.9603
vt 0.9784 0.9164
vt 0.9846 0.9165
vt 0.9841 0.9233
vt 0.9781 0.9229
vt 0.9776 0.9290
vt 0.9843 0.9295
vt 0.9840 0.9349
vt 0.9773 0.9351
vt 0.9773 0.9412
vt 0.9833 0.9409
vt 0.9833 0.9475
vt 0.9773 0.9475
vt 0.9834 0.9537
vt 0.9785 0.9099
vt 0.9856 0.9098
vt 0.8949 0.9466
vt 0.8951 0.9519
vt 0.8855 0.9530
vt 0.8853 0.9472
vt 0.9071 0.9726
vt 0.9103 0.9713
vt 0.9111 0.9763
vt 0.9092 0.9772
vt 0.9281 0.9345
vt 0.9279 0.9410
vt 0.9281 0.9223
vt 0.9278 0.9274
vt 0.9293 0.9090
vt 0.9293 0.9155
vt 0.9279 0.9475
vt 0.9054 0.9465
vt 0.9066 0.9403
vt 0.9282 0.9541
vt 0.9225 0.9272
vt 0.9063 0.9338
vt 0.9056 0.9270
vt 0.9229 0.9221
vt 0.9039 0.9206
vt 0.9044 0.9141
vt 0.9284 0.9603
vt 0.9067 0.9591
vt 0.9046 0.9527
vt 0.8941 0.9404
vt 0.8955 0.9403
vt 0.8955 0.9465
vt 0.8939 0.9342
vt 0.8944 0.9341
vt 0.8924 0.9270
vt 0.8938 0.9265
vt 0.8932 0.9246
vt 0.8935 0.9197
vt 0.8947 0.9200
vt 0.8938 0.9253
vt 0.8942 0.9134
vt 0.8954 0.9134
vt 0.8949 0.9073
vt 0.8959 0.9069
vt 0.8948 0.9574
vt 0.8958 0.9519
vt 0.8963 0.9578
vt 0.7799 0.8213
vt 0.7690 0.8101
vt 0.7693 0.7945
vt 0.7805 0.7837
vt 0.8850 0.9118
vt 0.8859 0.9058
vt 0.8833 0.9238
vt 0.8842 0.9178
vt 0.8852 0.9415
vt 0.8844 0.9357
vt 0.8862 0.9587
vt 0.8834 0.9300
vt 0.9849 0.9598
vt 0.9846 0.9555
vt 0.9914 0.9544
vt 0.9914 0.9597
vt 0.9849 0.9409
vt 0.9844 0.9474
vt 0.9846 0.9349
vt 0.9849 0.9295
vt 0.9857 0.9234
vt 0.9861 0.9166
vt 0.9864 0.9103
vt 0.9839 0.9532
vt 0.8229 0.8211
vt 0.8120 0.8102
vt 0.8120 0.7947
vt 0.8229 0.7838
vt 0.9925 0.9174
vt 0.9922 0.9235
vt 0.9924 0.9295
vt 0.9921 0.9356
vt 0.9913 0.9417
vt 0.9908 0.9478
vt 0.9904 0.9538
vt 0.9935 0.9117
vt 0.7955 0.8216
vt 0.7961 0.7840
vt 0.8067 0.8108
vt 0.8069 0.7952
vt 0.8493 0.8102
vt 0.8384 0.8211
vt 0.8384 0.7838
vt 0.8493 0.7947
vt 0.9068 0.9078
vt 0.9447 0.9652
vt 0.9422 0.9665
vt 0.9329 0.9663
vt 0.9329 0.9652
vt 0.9855 0.9531
vt 0.9854 0.9531
vt 0.9217 0.9244
vt 0.7979 0.8310
vt 0.8169 0.8310
vt 0.8228 0.8490
vt 0.9137 0.9709
vt 0.9173 0.9717
vt 0.9150 0.9766
vt 0.9131 0.9762
vt 0.9196 0.9728
vt 0.9169 0.9771
vt 0.9222 0.9678
vt 0.9242 0.9692
vt 0.9216 0.9738
vt 0.9187 0.9777
vt 0.9099 0.9660
vt 0.9148 0.9647
vt 0.9199 0.9661
vt 0.9050 0.9675
vt 0.7920 0.8490
vt 0.8074 0.8602
vn -0.0310 -0.9631 -0.2675
vn -0.0064 -0.3756 0.9268
vn 0.0144 0.9267 0.3755
vn 0.0051 0.3756 -0.9268
vn -0.1003 -0.3450 -0.9332
vn -0.0164 -0.9213 0.3885
vn 0.0076 0.3889 0.9213
vn 0.0147 0.9201 -0.3915
vn -0.0958 0.3474 0.9328
vn -0.0835 -0.8014 0.5923
vn -0.0146 0.9038 -0.4278
vn -0.0070 0.4140 0.9102
vn 0.0118 -0.9038 0.4278
vn 0.0592 0.3529 -0.9338
vn 0.0057 -0.4374 -0.8993
vn 0.0011 0.9215 0.3884
vn -0.0069 0.3366 -0.9416
vn -0.0444 -0.3297 0.9430
vn -0.0191 0.9301 0.3669
vn 0.0122 -0.9365 -0.3505
vn -0.0015 -0.3044 0.9526
vn 0.0077 -0.9580 -0.2866
vn -0.9886 0.1503 -0.0064
vn -0.9652 -0.0896 -0.2456
vn -0.9961 -0.0627 -0.0621
vn -0.9834 -0.1715 -0.0588
vn -0.9938 -0.0421 -0.1033
vn -0.9841 -0.1439 0.1046
vn -0.9937 -0.0484 -0.1012
vn 0.0517 0.9488 -0.3117
vn 0.0476 -0.2481 -0.9676
vn -0.1240 -0.9516 0.2811
vn -0.0263 0.8929 0.4494
vn 0.1015 0.4481 -0.8882
vn 0.0167 -0.8567 -0.5156
vn -0.1483 -0.4097 0.9001
vn 0.0582 0.9472 0.3153
vn 1.0000 0.0000 0.0000
vn 0.9663 -0.0985 -0.2378
vn 0.9663 -0.2378 0.0985
vn 0.9842 0.0677 0.1633
vn 0.9988 -0.0189 0.0457
vn 0.9996 0.0271 -0.0112
vn -0.0000 0.3827 -0.9239
vn -0.0000 -0.9239 -0.3827
vn 0.0000 -0.3827 0.9239
vn 0.0752 0.3088 0.9481
vn -0.0000 0.9239 -0.3827
vn -0.0000 -0.3827 -0.9239
vn 0.0000 -0.9239 0.3827
vn 0.0268 -0.9030 -0.4287
vn -0.1061 -0.4291 0.8970
vn -0.0180 0.8761 0.4818
vn 0.1397 0.3822 -0.9134
vn 0.0984 -0.3670 -0.9250
vn -0.0543 -0.9428 0.3290
vn -0.0641 0.2576 0.9641
vn 0.1089 0.9432 -0.3138
vn -0.0692 0.8017 -0.5937
vn 0.0908 -0.7042 0.7042
vn 0.1824 0.6952 -0.6952
vn 0.2575 -0.1366 0.9566
vn 0.0190 0.1167 -0.9930
vn 0.0322 0.9100 -0.4133
vn -0.0416 -0.2482 0.9678
vn -0.0234 0.9307 0.3650
vn 0.0519 -0.4081 -0.9115
vn -0.0259 -0.9117 0.4100
vn -0.0566 0.3585 0.9318
vn -0.0302 0.3726 0.9275
vn 0.4073 0.8486 -0.3377
vn -0.6567 0.6804 -0.3253
vn 0.9379 -0.1019 0.3316
vn -0.9277 -0.3294 0.1755
vn -0.0412 0.3503 0.9357
vn -0.9649 -0.1864 0.1850
vn 0.9820 0.0658 0.1772
vn -0.8699 0.4923 0.0292
vn 0.0650 0.9953 -0.0722
vn -0.0037 -0.9578 0.2875
s off
f 19/1/1 73/2/1 55/3/1 18/4/1
f 23/5/2 54/6/2 53/7/2 22/8/2
f 27/9/3 52/10/3 51/11/3 26/12/3
f 31/13/4 49/14/4 50/15/4 30/16/4
f 30/16/5 50/15/5 56/17/5 19/1/5
f 18/18/6 55/19/6 54/6/6 23/5/6
f 22/8/7 53/7/7 52/10/7 27/9/7
f 26/12/8 51/11/8 49/14/8 31/13/8
f 1/20/9 8/21/9 48/22/9 41/23/9
f 84/24/10 83/25/10 77/26/10 79/27/10
f 25/28/11 26/12/11 31/13/11 32/29/11
f 21/30/12 22/8/12 27/9/12 28/31/12
f 17/32/13 18/18/13 23/5/13 24/33/13
f 32/29/14 29/34/14 72/35/14 68/36/14
f 29/34/15 30/16/15 19/1/15 20/37/15
f 76/38/16 25/28/16 71/39/16 67/40/16
f 32/29/17 31/13/17 30/16/17 29/34/17
f 24/33/18 75/41/18 70/42/18 66/43/18
f 28/31/19 27/9/19 26/12/19 25/28/19
f 20/37/20 17/44/20 69/45/20 65/46/20
f 24/33/21 23/5/21 22/8/21 21/30/21
f 20/37/22 19/1/22 18/4/22 17/44/22
f 1/20/23 2/47/23 33/48/23 34/49/23
f 2/47/24 3/50/24 35/51/24 33/48/24
f 3/50/25 4/52/25 36/53/25 35/51/25
f 4/54/26 5/55/26 37/56/26 36/57/26
f 5/55/27 6/58/27 38/59/27 37/56/27
f 6/58/27 7/60/27 39/61/27 38/59/27
f 7/62/28 8/21/28 40/63/28 39/64/28
f 8/21/29 1/20/29 34/49/29 40/63/29
f 42/65/27 41/66/27 48/67/27 47/68/27
f 7/60/30 6/58/30 46/69/30 47/70/30
f 5/55/31 4/54/31 44/71/31 45/72/31
f 3/50/32 2/47/32 42/73/32 43/74/32
f 8/21/33 7/62/33 47/75/33 48/22/33
f 6/58/34 5/55/34 45/72/34 46/69/34
f 4/52/35 3/50/35 43/74/35 44/76/35
f 2/47/36 1/20/36 41/23/36 42/73/36
f 15/77/37 74/78/37 64/79/37 63/80/37
f 10/81/38 9/82/38 50/15/38 49/14/38
f 11/83/39 10/81/39 49/14/39 51/11/39
f 12/84/38 11/83/38 51/11/38 52/10/38
f 13/85/40 12/84/40 52/10/40 53/7/40
f 14/86/38 13/85/38 53/7/38 54/6/38
f 15/87/41 14/86/41 54/6/41 55/19/41
f 74/78/42 15/77/42 55/3/42 73/2/42
f 9/82/43 16/88/43 56/17/43 50/15/43
f 59/89/38 60/90/38 61/91/38 62/92/38
f 13/85/44 14/86/44 62/93/44 61/94/44
f 11/83/45 12/84/45 60/95/45 59/96/45
f 9/82/46 10/81/46 58/97/46 57/98/46
f 16/88/47 9/82/47 57/98/47 64/99/47
f 14/86/48 15/87/48 63/100/48 62/93/48
f 12/84/49 13/85/49 61/94/49 60/95/49
f 10/81/50 11/83/50 59/96/50 58/97/50
f 43/101/27 42/65/27 47/68/27 46/102/27
f 44/103/27 43/101/27 46/102/27 45/104/27
f 57/105/38 58/106/38 63/107/38 64/108/38
f 58/106/38 59/89/38 62/92/38 63/107/38
f 40/63/51 65/46/51 69/45/51 39/64/51
f 38/59/52 66/43/52 70/42/52 37/56/52
f 36/53/53 67/40/53 71/39/53 35/51/53
f 33/48/54 68/36/54 72/35/54 34/49/54
f 34/49/55 72/35/55 65/46/55 40/63/55
f 39/61/56 69/109/56 66/43/56 38/59/56
f 37/56/57 70/42/57 67/40/57 36/57/57
f 35/51/58 71/39/58 68/36/58 33/48/58
f 67/110/59 44/111/59 4/112/59 36/113/59
f 56/17/60 16/88/60 64/114/60
f 64/114/61 74/78/61 73/2/61
f 19/115/62 56/17/62 64/114/62
f 19/115/63 64/114/63 73/2/63
f 71/39/64 25/28/64 32/29/64 68/36/64
f 24/33/65 21/30/65 75/41/65
f 28/31/66 25/28/66 76/38/66
f 72/35/67 29/34/67 20/37/67 65/46/67
f 69/109/68 17/32/68 24/33/68 66/43/68
f 70/42/69 75/41/69 81/116/69
f 79/117/70 77/118/70 78/119/70
f 86/120/71 85/121/71 80/122/71 78/123/71
f 85/121/72 87/124/72 82/125/72 80/122/72
f 83/25/73 86/120/73 78/123/73 77/26/73
f 87/124/74 81/126/74 75/127/74 84/128/74
f 81/116/75 76/38/75 67/40/75 70/42/75
f 82/125/76 87/124/76 84/128/76 79/129/76
f 21/130/77 28/131/77 86/120/77 83/25/77
f 76/132/78 81/126/78 87/124/78 85/121/78
f 28/131/79 76/132/79 85/121/79 86/120/79
f 75/133/80 21/130/80 83/25/80 84/24/80
f 82/134/70 79/117/70 78/119/70 80/135/70
