# Blender v2.78 (sub 0) OBJ File: 'Low_Poly_Trees_Pack.blend'
# www.blender.org
g Pine_Log_03
v 3.518915 0.037668 -0.226038
v 3.524153 0.036811 0.092054
v 3.516011 0.345768 0.188850
v 3.505413 0.540977 -0.082918
v 3.507956 0.337948 -0.317891
v -3.563960 0.033179 0.138125
v -3.497537 0.033406 -0.108120
v -3.552773 0.397166 0.037442
v -3.547853 0.246642 0.244020
v -3.594157 0.248124 -0.162907
v 3.525813 -0.001355 0.120020
v 3.519649 -0.000347 -0.254261
v 3.516273 0.360656 0.233438
v 3.503851 0.589445 -0.085079
v 3.506844 0.350525 -0.361590
v -3.551698 -0.000346 0.162924
v -3.473254 -0.001157 -0.136740
v -3.548784 0.444328 0.036972
v -3.541156 0.258236 0.292037
v -3.586143 0.265919 -0.202586
vt 0.8029 0.8861
vt 0.8018 0.9905
vt 0.7974 0.9893
vt 0.7974 0.8861
vt 0.7866 0.8865
vt 0.7889 0.9905
vt 0.7843 0.9906
vt 0.7808 0.8866
vt 0.7933 0.9909
vt 0.7919 0.8863
vt 0.8085 0.8863
vt 0.8061 0.9904
vt 0.8029 0.8083
vt 0.8029 0.7903
vt 0.8199 0.7850
vt 0.8195 0.8111
vt 0.8310 0.7975
vt 0.7826 0.8519
vt 0.8075 0.8334
vt 0.8031 0.8519
vt 0.7763 0.8330
vt 0.7922 0.8217
vt 0.8292 0.9569
vt 0.8133 0.9683
vt 0.8105 0.9674
vt 0.8292 0.9540
vt 0.8196 0.9872
vt 0.8179 0.9895
vt 0.8401 0.9872
vt 0.8419 0.9895
vt 0.8445 0.9686
vt 0.8472 0.9677
vt 0.8352 0.9383
vt 0.8467 0.9247
vt 0.8503 0.9246
vt 0.8360 0.9412
vt 0.8186 0.9174
vt 0.8186 0.9355
vt 0.8159 0.9377
vt 0.8159 0.9154
vt 0.8356 0.9121
vt 0.8362 0.9091
vn -0.0000 -1.0000 -0.0003
vn -0.0067 0.8101 0.5862
vn -0.0172 -0.2731 -0.9618
vn 0.0093 -0.3640 0.9314
vn -0.0251 0.7781 -0.6276
vn -0.9861 0.1224 0.1127
vn -0.9934 0.0188 0.1131
vn -0.8631 -0.4479 -0.2332
vn 0.9994 0.0315 -0.0164
vn -0.8631 -0.4504 -0.2286
vn -0.9900 0.0995 0.0995
vn -0.8480 -0.4420 -0.2925
vn -0.9703 -0.0617 0.2340
vn -0.9798 0.1982 0.0278
s off
f 11/1/1 16/2/1 17/3/1 12/4/1
f 14/5/2 18/6/2 19/7/2 13/8/2
f 12/4/3 17/3/3 20/9/3 15/10/3
f 13/11/4 19/12/4 16/2/4 11/1/4
f 15/10/5 20/9/5 18/6/5 14/5/5
f 9/13/6 8/14/6 10/15/6
f 6/16/7 9/13/7 10/15/7
f 7/17/8 6/16/8 10/15/8
f 3/18/9 5/19/9 4/20/9
f 2/21/9 1/22/9 5/19/9 3/18/9
f 1/23/9 2/24/9 11/25/9 12/26/9
f 2/24/9 3/27/9 13/28/9 11/25/9
f 3/27/9 4/29/9 14/30/9 13/28/9
f 4/29/9 5/31/9 15/32/9 14/30/9
f 5/31/9 1/23/9 12/26/9 15/32/9
f 6/33/10 7/34/10 17/35/10 16/36/10
f 8/37/11 9/38/11 19/39/11 18/40/11
f 7/34/12 10/41/12 20/42/12 17/35/12
f 9/38/13 6/33/13 16/36/13 19/39/13
f 10/41/14 8/37/14 18/40/14 20/42/14
