# Blender v2.78 (sub 0) OBJ File: 'Low_Poly_Trees_Pack.blend'
# www.blender.org
g Pine_Log_07
v -1.195298 0.208364 -0.230678
v -1.208254 0.340617 -0.173181
v -1.225483 0.381744 -0.041151
v -1.236834 0.285280 0.099422
v -1.235801 0.184127 0.116488
v -1.222846 0.067700 0.058992
v -1.205616 0.026574 -0.063801
v -1.194206 0.084839 -0.179959
v 1.202892 0.201294 -0.167394
v 1.202892 0.320376 -0.118069
v 1.202892 0.369701 0.001013
v 1.245718 0.320376 0.130531
v 1.245718 0.201294 0.179856
v 1.202892 0.082212 0.120095
v 1.202892 0.032887 0.001013
v 1.207571 0.079379 -0.138529
v 0.016989 -0.007111 0.042168
v 1.037941 0.008074 0.004253
v 1.041350 0.044781 -0.122529
v 0.006261 0.027056 -0.098532
v 0.021128 0.211825 0.208204
v 0.927072 0.207553 0.198377
v 1.039032 0.067595 0.141905
v 0.023547 0.067873 0.170263
v -0.000522 0.378379 -0.009504
v 1.036708 0.399940 -0.001756
v 0.925124 0.344210 0.137406
v 0.011212 0.340361 0.135388
v -0.004698 0.159388 -0.175560
v 1.035525 0.200988 -0.194664
v 1.035616 0.340418 -0.139407
v -0.007097 0.303377 -0.137636
v -1.207150 0.360071 -0.190050
v -1.192233 0.210198 -0.256248
v -1.226987 0.407421 -0.039437
v -1.240064 0.302140 0.118714
v -1.238866 0.182293 0.142058
v -1.223950 0.048247 0.075861
v -1.204113 0.000897 -0.065515
v -1.190975 0.067979 -0.199252
v -0.961513 0.204350 -0.200965
v -0.974468 0.320776 -0.143469
v -0.991698 0.361903 -0.020676
v -1.003109 0.303638 0.095483
v -1.002016 0.180113 0.136963
v -0.989060 0.063686 0.079467
v -0.971831 0.022560 -0.043326
v -0.960420 0.080825 -0.159485
v 1.202892 0.339901 -0.137594
v 1.202892 0.201294 -0.195007
v 1.202892 0.397314 0.001013
v 1.245718 0.339901 0.150056
v 1.245718 0.201294 0.207469
v 1.202892 0.062687 0.139620
v 1.202892 0.005274 0.001013
v 1.207571 0.059853 -0.158054
v 1.045257 0.201294 -0.167394
v 1.045257 0.320376 -0.118069
v 1.045257 0.369701 0.001013
v 1.045257 0.320376 0.120095
v 1.045257 0.201294 0.169420
v 1.045257 0.082212 0.120095
v 1.045257 0.032887 0.001013
v 1.045257 0.082212 -0.118069
v -1.239417 0.361360 0.095868
v -1.236187 0.344500 0.076575
v -0.960904 0.057230 -0.171337
v -0.950391 0.049809 0.106139
v -0.992446 0.325378 0.119425
v -0.846164 0.329863 -0.160736
v -0.968113 -0.003976 -0.035064
v -0.987794 0.186496 0.162354
v -0.936583 0.386743 -0.024067
v -0.852213 0.192781 -0.219190
v 1.209578 0.037182 -0.120226
v 1.209578 0.056708 -0.100701
vt 0.8510 0.9626
vt 0.8564 0.9627
vt 0.8562 0.9675
vt 0.8509 0.9677
vt 0.8508 0.9277
vt 0.8563 0.9280
vt 0.8564 0.9335
vt 0.8470 0.9333
vt 0.8469 0.9389
vt 0.8564 0.9383
vt 0.8561 0.9441
vt 0.8507 0.9444
vt 0.8507 0.9502
vt 0.8562 0.9500
vt 0.8562 0.9559
vt 0.8508 0.9560
vt 0.8564 0.9615
vt 0.8510 0.9217
vt 0.8566 0.9219
vt 0.7749 0.9564
vt 0.7750 0.9620
vt 0.7665 0.9624
vt 0.7666 0.9568
vt 0.7832 0.9327
vt 0.8171 0.9336
vt 0.8167 0.9394
vt 0.7829 0.9384
vt 0.8162 0.9454
vt 0.8159 0.9514
vt 0.7833 0.9209
vt 0.8168 0.9218
vt 0.8171 0.9277
vt 0.7843 0.9268
vt 0.7870 0.9566
vt 0.8160 0.9574
vt 0.8165 0.9636
vt 0.7837 0.9625
vt 0.7872 0.9507
vt 0.7845 0.9446
vt 0.8170 0.9693
vt 0.7839 0.9685
vt 0.7747 0.9505
vt 0.7755 0.9504
vt 0.7759 0.9563
vt 0.7743 0.9449
vt 0.7751 0.9447
vt 0.7739 0.9399
vt 0.7746 0.9393
vt 0.7740 0.9367
vt 0.7740 0.9323
vt 0.7749 0.9325
vt 0.7746 0.9373
vt 0.7741 0.9266
vt 0.7751 0.9266
vt 0.7742 0.9210
vt 0.7752 0.9206
vt 0.7750 0.9675
vt 0.7760 0.9620
vt 0.7760 0.9679
vt 0.7799 0.8213
vt 0.7690 0.8101
vt 0.7693 0.7945
vt 0.7805 0.7837
vt 0.7655 0.9262
vt 0.7656 0.9206
vt 0.7655 0.9375
vt 0.7655 0.9319
vt 0.7665 0.9513
vt 0.7661 0.9457
vt 0.7666 0.9679
vt 0.7653 0.9402
vt 0.8572 0.9672
vt 0.8569 0.9632
vt 0.8622 0.9621
vt 0.8623 0.9671
vt 0.8573 0.9500
vt 0.8573 0.9558
vt 0.8575 0.9441
vt 0.8570 0.9383
vt 0.8570 0.9335
vt 0.8577 0.9280
vt 0.8576 0.9224
vt 0.8570 0.9611
vt 0.8229 0.8211
vt 0.8120 0.8102
vt 0.8120 0.7947
vt 0.8229 0.7838
vt 0.8634 0.9278
vt 0.8638 0.9333
vt 0.8638 0.9389
vt 0.8634 0.9445
vt 0.8632 0.9502
vt 0.8630 0.9558
vt 0.8630 0.9613
vt 0.8633 0.9222
vt 0.7955 0.8216
vt 0.7961 0.7840
vt 0.8067 0.8108
vt 0.8069 0.7952
vt 0.8493 0.8102
vt 0.8384 0.8211
vt 0.8384 0.7838
vt 0.8493 0.7947
vt 0.7702 0.9381
vt 0.7701 0.9381
vt 0.8584 0.9623
vt 0.8583 0.9623
vn -0.0308 -0.9630 -0.2677
vn -0.0224 -0.4121 0.9109
vn 0.0017 0.9307 0.3658
vn 0.0043 0.3756 -0.9268
vn -0.0846 -0.3455 -0.9346
vn -0.0150 -0.9208 0.3898
vn -0.0247 0.3948 0.9184
vn 0.0140 0.9208 -0.3898
vn -0.0942 0.3474 0.9330
vn -0.0361 0.3953 0.9178
vn -0.0238 0.8922 -0.4509
vn -0.0244 -0.9010 0.4330
vn 0.0039 0.4506 0.8927
vn 0.0425 -0.4348 -0.8995
vn 0.0212 -0.8923 0.4510
vn 0.0489 0.3234 -0.9450
vn -0.0053 -0.4595 -0.8882
vn -0.0083 0.9458 0.3247
vn -0.0213 0.3121 -0.9498
vn -0.0453 -0.3235 0.9451
vn -0.0139 0.9510 0.3090
vn 0.0089 -0.9454 -0.3257
vn 0.0182 -0.3089 0.9509
vn 0.0078 -0.9666 -0.2563
vn -0.9917 -0.0453 -0.1201
vn -0.9922 -0.0475 -0.1153
vn -0.9924 -0.0564 -0.1093
vn -0.9912 -0.0334 -0.1279
vn -0.9912 -0.0499 -0.1224
vn -0.9911 -0.0574 -0.1199
vn 0.0436 0.9492 -0.3118
vn 0.0419 -0.2516 -0.9669
vn -0.1119 -0.9500 0.2915
vn -0.0237 0.8945 0.4464
vn 0.0856 0.4488 -0.8895
vn -0.0872 -0.9193 -0.3837
vn -0.1354 -0.4274 0.8938
vn 0.0580 0.9471 0.3155
vn 1.0000 0.0000 0.0000
vn 0.9611 0.1056 -0.2550
vn 0.9582 -0.2643 -0.1095
vn 0.9983 -0.0225 0.0543
vn 0.9994 0.0322 -0.0133
vn 0.0265 0.4123 -0.9106
vn 0.0108 -0.9288 -0.3704
vn 0.0000 -0.3827 0.9239
vn 0.0634 0.3091 0.9489
vn -0.0000 0.9239 -0.3827
vn 0.0480 -0.3822 -0.9228
vn 0.0000 -0.9239 0.3827
vn 0.0233 -0.9037 -0.4276
vn -0.0823 -0.4238 0.9020
vn 0.0705 0.9249 0.3736
vn 0.1133 0.3988 -0.9100
vn 0.0861 -0.3808 -0.9206
vn -0.0462 -0.9406 0.3363
vn -0.0543 0.2466 0.9676
vn 0.0950 0.9469 -0.3071
vn -0.1746 -0.7194 0.6723
vn -0.0692 0.7501 -0.6577
vn 0.0269 0.8982 -0.4388
vn 0.0766 -0.7050 0.7050
vn 0.1814 0.6954 -0.6954
vn 0.2190 -0.1380 0.9659
vn 0.0189 0.1164 -0.9930
s off
f 19/1/1 75/2/1 55/3/1 18/4/1
f 23/5/2 54/6/2 53/7/2 22/8/2
f 27/9/3 52/10/3 51/11/3 26/12/3
f 31/13/4 49/14/4 50/15/4 30/16/4
f 30/16/5 50/15/5 56/17/5 19/1/5
f 18/18/6 55/19/6 54/6/6 23/5/6
f 22/8/7 53/7/7 52/10/7 27/9/7
f 26/12/8 51/11/8 49/14/8 31/13/8
f 1/20/9 8/21/9 48/22/9 41/23/9
f 72/24/10 21/25/10 28/26/10 69/27/10
f 25/28/11 26/12/11 31/13/11 32/29/11
f 71/30/12 17/31/12 24/32/12 68/33/12
f 21/25/13 22/8/13 27/9/13 28/26/13
f 74/34/14 29/35/14 20/36/14 67/37/14
f 17/31/15 18/18/15 23/5/15 24/32/15
f 32/29/16 29/35/16 74/34/16 70/38/16
f 29/35/17 30/16/17 19/1/17 20/36/17
f 28/26/18 25/28/18 73/39/18 69/27/18
f 32/29/19 31/13/19 30/16/19 29/35/19
f 24/32/20 21/25/20 72/24/20 68/33/20
f 28/26/21 27/9/21 26/12/21 25/28/21
f 20/36/22 17/40/22 71/41/22 67/37/22
f 24/32/23 23/5/23 22/8/23 21/25/23
f 20/36/24 19/1/24 18/4/24 17/40/24
f 1/20/25 2/42/25 33/43/25 34/44/25
f 2/42/26 3/45/26 35/46/26 33/43/26
f 3/45/27 66/47/27 65/48/27 35/46/27
f 4/49/28 5/50/28 37/51/28 36/52/28
f 5/50/29 6/53/29 38/54/29 37/51/29
f 6/53/29 7/55/29 39/56/29 38/54/29
f 7/57/29 8/21/29 40/58/29 39/59/29
f 8/21/30 1/20/30 34/44/30 40/58/30
f 42/60/29 41/61/29 48/62/29 47/63/29
f 7/55/31 6/53/31 46/64/31 47/65/31
f 5/50/32 4/49/32 44/66/32 45/67/32
f 3/45/33 2/42/33 42/68/33 43/69/33
f 8/21/34 7/57/34 47/70/34 48/22/34
f 6/53/35 5/50/35 45/67/35 46/64/35
f 66/47/36 3/45/36 43/69/36 44/71/36
f 2/42/37 1/20/37 41/23/37 42/68/37
f 15/72/38 76/73/38 64/74/38 63/75/38
f 10/76/39 9/77/39 50/15/39 49/14/39
f 11/78/39 10/76/39 49/14/39 51/11/39
f 12/79/40 11/78/40 51/11/40 52/10/40
f 13/80/39 12/79/39 52/10/39 53/7/39
f 14/81/41 13/80/41 53/7/41 54/6/41
f 15/82/39 14/81/39 54/6/39 55/19/39
f 76/73/42 15/72/42 55/3/42 75/2/42
f 9/77/43 16/83/43 56/17/43 50/15/43
f 59/84/39 60/85/39 61/86/39 62/87/39
f 13/80/44 14/81/44 62/88/44 61/89/44
f 11/78/45 12/79/45 60/90/45 59/91/45
f 9/77/46 10/76/46 58/92/46 57/93/46
f 16/83/47 9/77/47 57/93/47 64/94/47
f 14/81/48 15/82/48 63/95/48 62/88/48
f 12/79/49 13/80/49 61/89/49 60/90/49
f 10/76/50 11/78/50 59/91/50 58/92/50
f 43/96/29 42/60/29 47/63/29 46/97/29
f 44/98/29 43/96/29 46/97/29 45/99/29
f 57/100/39 58/101/39 63/102/39 64/103/39
f 58/101/39 59/84/39 62/87/39 63/102/39
f 40/58/51 67/37/51 71/41/51 39/59/51
f 38/54/52 68/33/52 72/24/52 37/51/52
f 65/48/53 69/27/53 73/39/53 35/46/53
f 33/43/54 70/38/54 74/34/54 34/44/54
f 34/44/55 74/34/55 67/37/55 40/58/55
f 39/56/56 71/30/56 68/33/56 38/54/56
f 37/51/57 72/24/57 69/27/57 36/52/57
f 35/46/58 73/39/58 70/38/58 33/43/58
f 66/47/59 44/104/59 69/105/59 65/48/59
f 69/105/60 44/104/60 4/49/60 36/52/60
f 73/39/61 25/28/61 32/29/61 70/38/61
f 56/17/62 16/83/62 64/106/62
f 64/106/63 76/73/63 75/2/63
f 19/107/64 56/17/64 64/106/64
f 19/107/65 64/106/65 75/2/65
