# Blender v2.78 (sub 0) OBJ File: 'Low_Poly_Trees_Pack.blend'
# www.blender.org
g Pine_Log_02
v 1.638502 -0.000347 -0.217546
v 1.644665 -0.001355 0.156736
v 1.635126 0.360656 0.270154
v 1.622705 0.589445 -0.048363
v 1.625697 0.350525 -0.324874
v -1.626166 -0.000346 0.199639
v -1.547722 -0.001157 -0.100024
v -1.623253 0.444328 0.073687
v -1.615624 0.258236 0.328753
v -1.660611 0.265919 -0.165870
vt 0.9471 0.8962
vt 0.9427 0.9842
vt 0.9348 0.9816
vt 0.9370 0.8957
vt 0.9173 0.8960
vt 0.9192 0.9836
vt 0.9107 0.9840
vt 0.9068 0.8965
vt 0.9273 0.9844
vt 0.9272 0.8957
vt 0.9573 0.8970
vt 0.9505 0.9844
vt 0.8002 0.8106
vt 0.8002 0.7883
vt 0.8205 0.7820
vt 0.8203 0.8140
vt 0.8346 0.7975
vt 0.7809 0.8543
vt 0.8102 0.8324
vt 0.8050 0.8543
vt 0.7735 0.8321
vt 0.7922 0.8188
vn -0.0000 -1.0000 -0.0003
vn -0.0146 0.8099 0.5863
vn -0.0374 -0.2767 -0.9602
vn 0.0202 -0.3640 0.9312
vn -0.0543 0.7782 -0.6257
vn -0.9922 0.0848 0.0916
vn -0.9959 -0.0046 0.0905
vn -0.8754 -0.4262 -0.2280
vn 0.9994 0.0315 -0.0164
s off
f 2/1/1 6/2/1 7/3/1 1/4/1
f 4/5/2 8/6/2 9/7/2 3/8/2
f 1/4/3 7/3/3 10/9/3 5/10/3
f 3/11/4 9/12/4 6/2/4 2/1/4
f 5/10/5 10/9/5 8/6/5 4/5/5
f 9/13/6 8/14/6 10/15/6
f 6/16/7 9/13/7 10/15/7
f 7/17/8 6/16/8 10/15/8
f 3/18/9 5/19/9 4/20/9
f 2/21/9 1/22/9 5/19/9 3/18/9
