# Blender v2.78 (sub 0) OBJ File: 'Low_Poly_Trees_Pack.blend'
# www.blender.org
g Pine_Log_06
v -0.819664 0.208364 -0.228783
v -0.828670 0.324790 -0.170734
v -0.840645 0.365917 -0.046871
v -0.848574 0.307652 0.070190
v -0.847812 0.184127 0.111940
v -0.838805 0.067700 0.053976
v -0.826832 0.026574 -0.070124
v -0.818901 0.084839 -0.186955
v 0.848388 0.201294 -0.167394
v 0.848388 0.320376 -0.118069
v 0.848388 0.369701 0.001013
v 0.848388 0.320376 0.120095
v 0.848388 0.201294 0.169420
v 0.848388 0.082212 0.120095
v 0.848388 0.032887 0.001013
v 0.848388 0.082212 -0.118069
v -0.405426 -0.010785 -0.057984
v 0.012243 -0.016364 0.043586
v 0.427365 0.015302 0.037239
v 0.429063 0.066462 -0.107488
v 0.034781 0.019020 -0.100814
v -0.400750 0.043174 -0.199453
v -0.413676 0.190180 0.140289
v -0.017009 0.207484 0.204046
v 0.421171 0.219229 0.227689
v 0.423413 0.078371 0.176059
v -0.009203 0.061702 0.169839
v -0.410625 0.050103 0.084108
v -0.410965 0.381196 -0.067364
v 0.015940 0.370970 -0.018247
v 0.425148 0.406986 0.016203
v 0.422597 0.355563 0.161390
v -0.006602 0.335585 0.126166
v -0.414650 0.327120 0.075966
v -0.400469 0.180325 -0.260418
v 0.045210 0.147128 -0.178779
v 0.428202 0.202095 -0.173782
v 0.427001 0.343272 -0.121912
v 0.037407 0.292911 -0.144584
v -0.404402 0.320556 -0.207011
v -0.827902 0.344244 -0.187541
v -0.817532 0.210198 -0.254368
v -0.841690 0.391594 -0.045085
v -0.850821 0.324512 0.089508
v -0.849944 0.182293 0.137460
v -0.839574 0.048247 0.070719
v -0.825787 0.000897 -0.071847
v -0.816655 0.067979 -0.206361
v -0.657208 0.204350 -0.226505
v -0.666213 0.320776 -0.168298
v -0.678185 0.361903 -0.044029
v -0.686111 0.303638 0.073470
v -0.685347 0.180113 0.115372
v -0.676342 0.063686 0.057166
v -0.664370 0.022560 -0.067057
v -0.656444 0.080825 -0.184556
v 0.848388 0.339901 -0.137594
v 0.848388 0.201294 -0.195007
v 0.848388 0.397314 0.001013
v 0.848388 0.339901 0.139620
v 0.848388 0.201294 0.197033
v 0.848388 0.062687 0.139620
v 0.848388 0.005274 0.001013
v 0.848388 0.062687 -0.137594
v 0.738750 0.201294 -0.167394
v 0.738750 0.320376 -0.118069
v 0.738750 0.369701 0.001013
v 0.738750 0.320376 0.120095
v 0.738750 0.201294 0.169420
v 0.738750 0.082212 0.120095
v 0.738750 0.032887 0.001013
v 0.738750 0.082212 -0.118069
v -0.922369 0.401951 -0.069579
v -0.911414 0.364330 -0.182764
v -0.905829 0.053112 -0.208055
v -0.913131 -0.000530 -0.100490
v -0.921539 0.381550 -0.070998
v -0.912025 0.348874 -0.169411
v -0.907625 0.066594 -0.192537
v -0.913967 0.020002 -0.099113
v 0.935764 0.337541 -0.155798
v 0.935764 0.215515 -0.206343
v 0.935764 0.388085 -0.033773
v 0.941774 0.201294 0.213612
v 0.941774 0.323022 0.163191
v 0.941774 0.079566 0.163191
v 0.935764 0.093490 -0.155799
v 0.935764 0.320351 -0.138609
v 0.935764 0.215515 -0.182033
v 0.935764 0.363776 -0.033773
v 0.941774 0.201294 0.189362
v 0.941774 0.305875 0.146043
v 0.941774 0.096714 0.146043
v 0.935764 0.110679 -0.138609
vt 0.9650 0.9295
vt 0.9859 0.9291
vt 0.9860 0.9353
vt 0.9652 0.9357
vt 0.9651 0.8930
vt 0.9862 0.8927
vt 0.9860 0.8989
vt 0.9652 0.8993
vt 0.9652 0.9054
vt 0.9859 0.9050
vt 0.9858 0.9110
vt 0.9651 0.9114
vt 0.9650 0.9174
vt 0.9858 0.9171
vt 0.9858 0.9231
vt 0.9649 0.9234
vt 0.9651 0.8867
vt 0.9865 0.8865
vt 0.9010 0.9232
vt 0.9011 0.9293
vt 0.8920 0.9299
vt 0.8919 0.9239
vt 0.9016 0.9114
vt 0.9226 0.9115
vt 0.9224 0.9178
vt 0.9018 0.9173
vt 0.9440 0.9127
vt 0.9435 0.9192
vt 0.9014 0.8996
vt 0.9231 0.8993
vt 0.9229 0.9054
vt 0.9014 0.9056
vt 0.9451 0.9001
vt 0.9447 0.9064
vt 0.9011 0.8872
vt 0.9224 0.8871
vt 0.9229 0.8932
vt 0.9013 0.8935
vt 0.9443 0.8877
vt 0.9449 0.8939
vt 0.9020 0.9232
vt 0.9225 0.9241
vt 0.9229 0.9304
vt 0.9022 0.9293
vt 0.9435 0.9255
vt 0.9440 0.9318
vt 0.9234 0.9366
vt 0.9023 0.9355
vt 0.9449 0.9380
vt 0.9008 0.9173
vt 0.9646 0.9710
vt 0.9646 0.9728
vt 0.9576 0.9725
vt 0.9576 0.9711
vt 0.9006 0.9115
vt 0.9005 0.9056
vt 0.9003 0.8996
vt 0.9002 0.8935
vt 0.9001 0.8876
vt 0.9358 0.9819
vt 0.9365 0.9802
vt 0.9422 0.9835
vt 0.9417 0.9848
vt 0.7799 0.8213
vt 0.7690 0.8101
vt 0.7693 0.7945
vt 0.7805 0.7837
vt 0.8910 0.8934
vt 0.8910 0.8874
vt 0.8914 0.9056
vt 0.8911 0.8995
vt 0.8918 0.9178
vt 0.8916 0.9117
vt 0.9013 0.9351
vt 0.8923 0.9358
vt 0.9871 0.9348
vt 0.9870 0.9291
vt 0.9931 0.9290
vt 0.9931 0.9348
vt 0.9413 0.9604
vt 0.9410 0.9505
vt 0.9479 0.9519
vt 0.9480 0.9604
vt 0.9572 0.9514
vt 0.9566 0.9604
vt 0.9494 0.9604
vt 0.9497 0.9526
vt 0.9870 0.9050
vt 0.9869 0.9110
vt 0.9534 0.9765
vt 0.9512 0.9773
vt 0.9479 0.9688
vt 0.9497 0.9682
vt 0.9410 0.9703
vt 0.9876 0.8870
vt 0.9874 0.8928
vt 0.9572 0.9694
vt 0.8229 0.8211
vt 0.8120 0.8102
vt 0.8120 0.7947
vt 0.8229 0.7838
vt 0.9871 0.8989
vt 0.9935 0.8931
vt 0.9933 0.8991
vt 0.9932 0.9051
vt 0.9931 0.9111
vt 0.9869 0.9231
vt 0.9869 0.9171
vt 0.9931 0.9171
vt 0.9931 0.9231
vt 0.9937 0.8872
vt 0.7955 0.8216
vt 0.7961 0.7840
vt 0.8067 0.8108
vt 0.8069 0.7952
vt 0.8493 0.8102
vt 0.8384 0.8211
vt 0.8384 0.7838
vt 0.8493 0.7947
vt 0.9493 0.9834
vt 0.9499 0.9847
vt 0.9591 0.9871
vt 0.9591 0.9799
vt 0.9604 0.9793
vt 0.9604 0.9876
vt 0.9408 0.9771
vt 0.9498 0.9769
vt 0.9631 0.9644
vt 0.9594 0.9595
vt 0.9648 0.9627
vt 0.9656 0.9619
vt 0.9508 0.9910
vt 0.9404 0.9912
vt 0.9522 0.9882
vt 0.9522 0.9792
vt 0.9560 0.9737
vt 0.9576 0.9730
vt 0.9672 0.9785
vt 0.9672 0.9889
vt 0.9324 0.9686
vt 0.9324 0.9608
vt 0.9339 0.9607
vt 0.9338 0.9687
vt 0.9318 0.9765
vt 0.9335 0.9772
vt 0.9319 0.9528
vt 0.9338 0.9520
vt 0.9512 0.9435
vt 0.9534 0.9442
vt 0.9255 0.9601
vt 0.9248 0.9509
vt 0.9403 0.9498
vt 0.9402 0.9598
vt 0.9255 0.9693
vt 0.9285 0.9438
vt 0.9309 0.9428
vt 0.9401 0.9697
vt 0.9248 0.9784
vt 0.9400 0.9797
vt 0.9311 0.9845
vt 0.9292 0.9837
vn -0.0436 -0.9328 -0.3577
vn 0.0589 -0.3625 0.9301
vn 0.0434 0.9327 0.3581
vn -0.0390 0.3634 -0.9308
vn -0.0579 -0.4107 -0.9100
vn 0.0063 -0.9172 0.3984
vn 0.0720 0.4090 0.9097
vn -0.0005 0.9161 -0.4010
vn -0.0057 0.3211 0.9470
vn 0.0199 0.9342 -0.3562
vn 0.0967 0.8867 -0.4522
vn -0.0609 0.8775 -0.4758
vn 0.0069 0.3732 0.9277
vn -0.1384 0.4721 0.8706
vn -0.0769 0.4799 0.8739
vn -0.0222 -0.9350 0.3540
vn -0.0964 -0.8877 0.4501
vn 0.0502 -0.8796 0.4731
vn -0.0229 -0.3633 -0.9314
vn 0.1485 -0.4635 -0.8735
vn 0.0614 -0.4807 -0.8747
vn -0.0022 0.4014 -0.9159
vn 0.1728 0.2949 -0.9398
vn -0.0048 0.2871 -0.9579
vn 0.0248 0.9160 0.4005
vn -0.0330 0.9552 0.2940
vn -0.0871 0.9563 0.2791
vn -0.0125 -0.4096 0.9122
vn -0.1648 -0.3030 0.9386
vn -0.0235 -0.2875 0.9575
vn -0.0299 -0.9148 -0.4027
vn 0.0359 -0.9548 -0.2950
vn 0.0890 -0.9562 -0.2788
vn -0.9957 -0.0344 -0.0854
vn -0.3096 -0.0762 0.9478
vn -0.9958 -0.0349 -0.0849
vn -0.9957 -0.0350 -0.0855
vn -0.9957 -0.0344 -0.0857
vn -0.9958 -0.0343 -0.0848
vn -0.1958 -0.6367 -0.7459
vn -0.9958 -0.0349 -0.0852
vn -0.9958 -0.0348 -0.0844
vn 0.0295 0.9497 -0.3117
vn 0.0116 -0.3206 -0.9471
vn -0.0285 -0.9496 0.3120
vn 0.0146 0.8949 0.4460
vn 0.0293 0.4480 -0.8935
vn -0.0137 -0.8951 -0.4456
vn -0.0240 -0.4480 0.8937
vn 0.0000 0.9239 0.3827
vn -0.1619 -0.3776 0.9117
vn 0.1936 0.3754 -0.9064
vn 1.0000 0.0000 0.0000
vn 0.2929 0.6761 -0.6761
vn -0.1619 0.3776 0.9117
vn 0.1936 -0.3754 -0.9064
vn -0.0000 0.3827 -0.9239
vn -0.0000 -0.9239 -0.3827
vn 0.0000 -0.3827 0.9239
vn 0.0000 0.3827 0.9239
vn -0.0000 0.9239 -0.3827
vn -0.0000 -0.3827 -0.9239
vn 0.0000 -0.9239 0.3827
vn -0.9958 -0.0344 -0.0849
vn -0.9958 -0.0348 -0.0850
vn -0.2623 -0.9231 0.2812
vn -0.2988 -0.0783 0.9511
vn 0.2080 0.9340 -0.2903
vn -0.2079 0.8809 0.4252
vn -0.1115 0.7438 -0.6591
vn 0.1563 -0.8881 -0.4323
vn 0.2929 -0.6761 -0.6761
vn 0.0921 0.3811 0.9200
vn -0.0575 -0.3821 -0.9224
vn 0.2121 -0.3740 0.9029
vn 0.3687 -0.6573 0.6573
vn -0.1792 0.3765 -0.9089
vn 0.0893 -0.9202 0.3812
vn -0.0547 0.9225 -0.3821
vn 0.3699 0.0000 0.9291
s off
f 20/1/1 64/2/1 63/3/1 19/4/1
f 26/5/2 62/6/2 61/7/2 25/8/2
f 32/9/3 60/10/3 59/11/3 31/12/3
f 38/13/4 57/14/4 58/15/4 37/16/4
f 37/16/5 58/15/5 64/2/5 20/1/5
f 19/17/6 63/18/6 62/6/6 26/5/6
f 25/8/7 61/7/7 60/10/7 32/9/7
f 31/12/8 59/11/8 57/14/8 38/13/8
f 1/19/9 8/20/9 56/21/9 49/22/9
f 43/23/10 29/24/10 40/25/10 41/26/10
f 29/24/11 30/27/11 39/28/11 40/25/11
f 30/27/12 31/12/12 38/13/12 39/28/12
f 45/29/13 23/30/13 34/31/13 44/32/13
f 23/30/14 24/33/14 33/34/14 34/31/14
f 24/33/15 25/8/15 32/9/15 33/34/15
f 47/35/16 17/36/16 28/37/16 46/38/16
f 17/36/17 18/39/17 27/40/17 28/37/17
f 18/39/18 19/17/18 26/5/18 27/40/18
f 42/41/19 35/42/19 22/43/19 48/44/19
f 35/42/20 36/45/20 21/46/20 22/43/20
f 36/45/21 37/16/21 20/1/21 21/46/21
f 41/26/22 40/25/22 35/42/22 42/41/22
f 40/25/23 39/28/23 36/45/23 35/42/23
f 39/28/24 38/13/24 37/16/24 36/45/24
f 44/32/25 34/31/25 29/24/25 43/23/25
f 34/31/26 33/34/26 30/27/26 29/24/26
f 33/34/27 32/9/27 31/12/27 30/27/27
f 46/38/28 28/37/28 23/30/28 45/29/28
f 28/37/29 27/40/29 24/33/29 23/30/29
f 27/40/30 26/5/30 25/8/30 24/33/30
f 48/44/31 22/43/31 17/47/31 47/48/31
f 22/43/32 21/46/32 18/49/32 17/47/32
f 21/46/33 20/1/33 19/4/33 18/49/33
f 1/19/34 2/50/34 41/26/34 42/41/34
f 47/51/35 7/52/35 80/53/35 76/54/35
f 3/55/36 4/56/36 44/32/36 43/23/36
f 4/56/37 5/57/37 45/29/37 44/32/37
f 5/57/38 6/58/38 46/38/38 45/29/38
f 6/58/39 7/59/39 47/35/39 46/38/39
f 41/60/40 2/61/40 78/62/40 74/63/40
f 8/20/41 1/19/41 42/41/41 48/44/41
f 50/64/42 49/65/42 56/66/42 55/67/42
f 7/59/43 6/58/43 54/68/43 55/69/43
f 5/57/44 4/56/44 52/70/44 53/71/44
f 3/55/45 2/50/45 50/72/45 51/73/45
f 8/20/46 7/74/46 55/75/46 56/21/46
f 6/58/47 5/57/47 53/71/47 54/68/47
f 4/56/48 3/55/48 51/73/48 52/70/48
f 2/50/49 1/19/49 49/22/49 50/72/49
f 15/76/50 16/77/50 72/78/50 71/79/50
f 61/80/51 62/81/51 86/82/51 84/83/51
f 14/84/52 13/85/52 91/86/52 93/87/52
f 12/88/53 11/89/53 59/11/53 60/10/53
f 12/90/54 60/91/54 85/92/54 92/93/54
f 60/94/55 61/80/55 84/83/55 85/92/55
f 15/95/53 14/96/53 62/6/53 63/18/53
f 16/77/53 15/76/53 63/3/53 64/2/53
f 13/85/56 12/97/56 92/93/56 91/86/56
f 67/98/53 68/99/53 69/100/53 70/101/53
f 13/102/57 14/96/57 70/103/57 69/104/57
f 11/89/58 12/88/58 68/105/58 67/106/58
f 9/107/59 10/108/59 66/109/59 65/110/59
f 16/77/60 9/107/60 65/110/60 72/78/60
f 14/96/61 15/95/61 71/111/61 70/103/61
f 12/88/62 13/102/62 69/104/62 68/105/62
f 10/108/63 11/89/63 67/106/63 66/109/63
f 51/112/42 50/64/42 55/67/42 54/113/42
f 52/114/42 51/112/42 54/113/42 53/115/42
f 65/116/53 66/117/53 71/118/53 72/119/53
f 66/117/53 67/98/53 70/101/53 71/118/53
f 78/62/64 77/120/64 73/121/64 74/63/64
f 80/122/65 79/123/65 75/124/65 76/125/65
f 2/126/66 3/127/66 77/120/66 78/62/66
f 3/128/67 43/129/67 73/130/67 77/131/67
f 43/132/68 41/133/68 74/63/68 73/121/68
f 7/134/69 8/135/69 79/123/69 80/122/69
f 8/136/70 48/137/70 75/124/70 79/123/70
f 48/138/71 47/139/71 76/125/71 75/124/71
f 88/140/53 89/141/53 82/142/53 81/143/53
f 90/144/53 88/140/53 81/143/53 83/145/53
f 91/86/53 92/93/53 85/92/53 84/83/53
f 93/87/53 91/86/53 84/83/53 86/82/53
f 89/141/53 94/146/53 87/147/53 82/142/53
f 62/148/72 14/149/72 93/87/72 86/82/72
f 9/150/73 16/151/73 94/146/73 89/141/73
f 64/152/74 58/153/74 82/142/74 87/147/74
f 10/154/75 9/150/75 89/141/75 88/140/75
f 16/155/76 64/156/76 87/147/76 94/146/76
f 58/153/77 57/157/77 81/143/77 82/142/77
f 11/158/78 10/154/78 88/140/78 90/144/78
f 57/157/79 59/159/79 83/145/79 81/143/79
f 59/160/80 11/161/80 90/144/80 83/145/80
