# Blender v2.78 (sub 0) OBJ File: 'Low_Poly_Trees_Pack.blend'
# www.blender.org
g Simple_Tree_crk_m_02
v -2.818456 1.053533 -0.243996
v -4.505029 0.711903 0.313369
v -3.579849 1.395054 0.035912
v -2.546701 0.520725 -0.127854
v -4.368917 0.257662 0.256812
v -2.621404 2.204734 1.069016
v -4.171286 2.090341 1.767497
v -2.264020 2.233422 1.686396
v -2.825930 1.968290 0.390613
v -4.326140 1.971104 1.089819
v -3.779640 2.077001 2.353567
v -1.687795 1.327043 2.358629
v -3.270208 0.953282 3.312429
v -2.154944 0.689729 2.733185
v -2.455464 1.613137 2.637079
v -1.069989 1.168262 1.557617
v -1.371686 1.771997 1.537282
v -1.834136 0.011892 1.086056
v -3.750944 -0.231719 2.023329
v -2.913458 -0.036655 0.655499
v -1.511617 0.274624 1.717238
v -3.410344 -0.220979 2.723266
v -1.447927 0.384404 0.305677
v -0.942009 1.543171 0.873544
v -1.360089 1.213996 -0.057234
v -1.281158 1.911048 0.787701
v -0.953579 0.871095 0.769592
v -1.672642 1.733347 0.002782
v -4.721372 0.657512 1.570590
v -4.019815 1.167383 2.846452
v -4.679164 1.451531 1.560455
v -4.434124 0.064004 1.559018
v -3.832963 0.234290 2.824045
v -4.403991 1.583808 0.542141
v -3.041023 0.134322 3.180294
v -4.077767 -0.070638 0.609419
v -3.407557 1.782131 2.846336
v 0.000000 0.000000 -0.300000
v -0.285317 0.000000 -0.092619
v -0.176336 0.000000 0.242726
v 0.176336 0.000000 0.242705
v 0.285317 0.000000 -0.092705
v 0.050218 0.675520 -0.267645
v -0.212436 0.653595 -0.074407
v -0.112111 0.661970 0.234696
v 0.212547 0.689071 0.232600
v 0.312872 0.697446 -0.077827
v -0.154954 1.206080 -0.024609
v 0.064566 1.374978 -0.222766
v -0.061025 1.218301 0.265788
v 0.242935 1.297298 0.262502
v 0.310474 1.406971 -0.045262
v -0.147649 1.645880 -0.225042
v -0.368147 1.236551 0.033386
v -0.254724 1.256099 0.303350
v -0.288809 1.524216 0.390489
v -0.098746 1.837789 0.006866
v -1.621010 1.190361 0.596079
v -1.551103 1.017101 0.644868
v -1.485291 1.028906 0.827002
v -1.514523 1.209462 0.890778
v -1.598402 1.309247 0.748060
v -0.879639 1.600632 0.410063
v -0.768157 1.456297 0.619318
v -0.754675 1.193330 0.542829
v -0.857826 1.175142 0.286303
v -0.935066 1.426874 0.204229
v 0.482185 1.680586 0.091040
v 0.239357 1.645880 -0.417296
v 0.487364 1.837789 -0.284298
vt 0.7167 0.2133
vt 0.7092 0.2346
vt 0.7009 0.2262
vt 0.7087 0.2137
vt 0.6886 0.2176
vt 0.6955 0.2077
vt 0.6958 0.2168
vt 0.6891 0.2307
vt 0.6826 0.2128
vt 0.6788 0.2260
vt 0.6716 0.2165
vt 0.7062 0.1683
vt 0.7169 0.1731
vt 0.6995 0.1875
vt 0.6971 0.1798
vt 0.6889 0.2426
vt 0.6938 0.1743
vt 0.7136 0.1528
vt 0.6666 0.1621
vt 0.6743 0.1445
vt 0.6816 0.1510
vt 0.6745 0.1624
vt 0.6869 0.1695
vt 0.6956 0.1666
vt 0.6939 0.1596
vt 0.6867 0.1604
vt 0.6932 0.1512
vt 0.6935 0.1397
vt 0.7023 0.1575
vt 0.7040 0.1451
vt 0.6740 0.2384
vt 0.6645 0.2036
vt 0.6813 0.1910
vt 0.6775 0.2030
vt 0.6650 0.2258
vt 0.6859 0.1779
vt 0.6767 0.1841
vt 0.6693 0.1758
vt 0.6769 0.1712
vt 0.6801 0.1647
vt 0.6871 0.1882
vt 0.7024 0.1979
vt 0.7090 0.2039
vt 0.7024 0.2125
vt 0.6945 0.1937
vt 0.6911 0.2046
vt 0.6868 0.2004
vt 0.2990 0.6427
vt 0.2997 0.6633
vt 0.2903 0.6632
vt 0.2881 0.6427
vt 0.3322 0.6445
vt 0.3280 0.6650
vt 0.3180 0.6633
vt 0.3211 0.6431
vt 0.3100 0.6427
vt 0.3090 0.6630
vt 0.2800 0.6640
vt 0.2771 0.6436
vt 0.3130 0.6795
vt 0.3080 0.6782
vt 0.3017 0.6780
vt 0.2940 0.6816
vt 0.3220 0.6828
vt 0.2838 0.6815
vt 0.2991 0.7056
vt 0.3067 0.7056
vt 0.3049 0.7302
vt 0.2988 0.7301
vt 0.2831 0.7050
vt 0.2916 0.7053
vt 0.2926 0.7300
vt 0.2865 0.7302
vt 0.3146 0.7060
vt 0.3110 0.7305
vt 0.3228 0.7068
vt 0.3171 0.7318
vt 0.3111 0.6843
vt 0.3216 0.6901
vt 0.2930 0.6884
vt 0.3000 0.6913
vt 0.3084 0.6852
vt 0.2832 0.6884
vt 0.3084 0.6822
vt 0.3095 0.6817
vt 0.3071 0.6814
vt 0.7179 0.9330
vt 0.7102 0.9494
vt 0.7051 0.9248
vt 0.6591 0.9222
vt 0.6726 0.9222
vt 0.6540 0.9361
vt 0.6863 0.9290
vt 0.6731 0.9543
vn -0.1351 0.9666 -0.2177
vn -0.3232 0.0539 -0.9448
vn -0.1013 0.4858 -0.8682
vn 0.2905 -0.4092 -0.8650
vn -0.0734 0.9968 0.0330
vn 0.1156 0.9424 -0.3138
vn 0.1066 0.8866 0.4500
vn 0.1814 0.9719 -0.1502
vn 0.2307 -0.9694 0.0842
vn 0.2699 0.5056 0.8195
vn 0.2629 0.7830 0.5638
vn 0.4836 0.1521 0.8620
vn 0.7588 -0.1901 0.6229
vn 0.8804 -0.3859 0.2756
vn 0.4596 0.6948 0.5533
vn 0.8497 0.2516 0.4633
vn 0.7112 0.5082 -0.4857
vn 0.0813 -0.9925 -0.0918
vn 0.1807 -0.9194 -0.3494
vn 0.9043 0.0500 -0.4239
vn -0.8264 -0.2677 0.4954
vn 0.6935 0.6887 0.2115
vn -0.4920 -0.1917 0.8492
vn -0.6023 -0.7152 0.3546
vn -0.7458 0.4508 0.4904
vn -0.4015 -0.5370 0.7419
vn -0.9733 0.1101 -0.2012
vn -0.3996 0.3981 0.8257
vn -0.9215 -0.3635 -0.1366
vn -0.7922 0.6057 0.0745
vn -0.8821 0.4346 -0.1819
vn -0.6594 -0.7381 -0.1428
vn -0.0331 -0.7450 -0.6663
vn -0.2377 0.7177 -0.6546
vn -0.4567 0.2749 -0.8461
vn 0.1059 0.1768 -0.9785
vn -0.1261 0.6366 -0.7608
vn 0.1411 -0.1416 -0.9798
vn -0.2481 0.8072 -0.5356
vn 0.4767 0.8522 0.2157
vn 0.4284 0.3314 0.8406
vn 0.6199 -0.5064 0.5994
vn 0.4580 -0.0152 0.8888
vn 0.7085 0.5546 0.4365
vn 0.7599 -0.2699 0.5914
vn 0.4544 0.7014 0.5491
vn 0.4012 -0.8515 0.3377
vn 0.0464 -0.8240 -0.5646
vn 0.0337 -0.9921 -0.1208
vn 0.6993 -0.7149 0.0048
vn 0.1102 -0.8335 -0.5414
vn 0.6882 -0.7238 -0.0503
vn 0.7951 -0.3118 -0.5202
vn 0.9860 -0.0419 0.1615
vn -0.8838 0.0529 0.4648
vn -0.5118 0.5098 0.6915
vn -0.2314 -0.1536 -0.9606
vn -0.3885 -0.9213 -0.0152
vn 0.0026 0.0132 0.9999
vn -0.5903 0.0852 -0.8027
vn 0.9505 -0.0448 0.3075
vn -0.9470 0.0963 0.3063
vn 0.5869 -0.0054 -0.8096
vn 0.5823 0.0397 -0.8120
vn 0.0176 -0.0535 0.9984
vn -0.6497 0.0943 -0.7544
vn 0.9661 -0.0327 0.2561
vn -0.9496 0.0707 0.3053
vn -0.0517 0.8069 0.5884
vn 0.2141 -0.9767 -0.0157
vn -0.5145 0.7153 -0.4728
vn 0.3998 -0.2412 0.8843
vn -0.3537 -0.3850 -0.8525
vn -0.3775 -0.3580 -0.8540
vn 0.4446 -0.2271 0.8664
vn -0.4745 0.7279 -0.4950
vn 0.1326 -0.9910 0.0165
vn 0.1210 0.7778 0.6168
vn 0.1032 -0.3086 0.9456
vn -0.1399 -0.9843 0.1076
vn -0.3788 -0.3786 -0.8445
vn -0.2854 0.7671 -0.5746
vn 0.1436 0.8240 0.5481
vn 0.6765 -0.6826 -0.2765
vn -0.3063 0.9160 0.2592
vn 0.0274 -0.9981 0.0551
vn 0.1353 -0.9774 -0.1622
vn 0.3930 0.9195 0.0027
vn 0.7523 0.5918 0.2895
s off
f 7/1/1 6/2/1 9/3/1 10/4/1
f 1/5/2 2/6/2 3/7/2
f 3/7/3 28/8/3 1/5/3
f 4/9/4 25/10/4 23/11/4
f 8/12/5 6/13/5 7/14/5 11/15/5
f 9/3/6 6/2/6 26/16/6 28/8/6
f 8/12/7 11/15/7 37/17/7
f 6/13/8 8/12/8 26/18/8
f 19/19/9 18/20/9 21/21/9 22/22/9
f 13/23/10 15/24/10 37/17/10
f 15/24/11 8/12/11 37/17/11
f 12/25/12 13/23/12 14/26/12
f 14/26/13 16/27/13 12/25/13
f 16/27/14 21/21/14 27/28/14
f 12/25/15 17/29/15 15/24/15
f 12/25/16 24/30/16 17/29/16
f 26/16/17 24/31/17 25/10/17 28/8/17
f 18/32/18 19/33/18 20/34/18
f 20/34/19 23/11/19 18/32/19
f 24/31/20 27/35/20 25/10/20
f 30/36/21 29/37/21 32/38/21 33/39/21
f 24/30/22 26/18/22 17/29/22
f 13/23/23 30/36/23 33/39/23 35/40/23
f 33/39/24 32/38/24 19/19/24 22/22/24
f 7/14/25 31/41/25 30/36/25 11/15/25
f 33/39/26 22/22/26 35/40/26
f 2/6/27 29/42/27 31/43/27 34/44/27
f 30/36/28 13/23/28 37/17/28
f 32/45/29 29/42/29 2/6/29 5/46/29
f 31/43/30 7/1/30 10/4/30
f 31/43/31 10/4/31 34/44/31
f 32/45/32 5/46/32 36/47/32
f 5/46/33 4/9/33 36/47/33
f 9/3/34 3/7/34 34/44/34
f 3/7/35 2/6/35 34/44/35
f 25/10/36 1/5/36 28/8/36
f 3/7/37 9/3/37 28/8/37
f 4/9/38 1/5/38 25/10/38
f 10/4/39 9/3/39 34/44/39
f 26/18/40 8/12/40 17/29/40
f 13/23/41 12/25/41 15/24/41
f 21/21/42 14/26/42 35/40/42
f 14/26/43 13/23/43 35/40/43
f 24/30/44 12/25/44 16/27/44
f 14/26/45 21/21/45 16/27/45
f 15/24/46 17/29/46 8/12/46
f 22/22/47 21/21/47 35/40/47
f 4/9/48 20/34/48 36/47/48
f 20/34/49 19/33/49 36/47/49
f 27/35/50 18/32/50 23/11/50
f 20/34/51 4/9/51 23/11/51
f 21/21/52 18/20/52 27/28/52
f 25/10/53 27/35/53 23/11/53
f 27/28/54 24/30/54 16/27/54
f 31/41/55 29/37/55 30/36/55
f 11/15/56 30/36/56 37/17/56
f 2/6/57 1/5/57 4/9/57 5/46/57
f 19/33/58 32/45/58 36/47/58
f 41/48/59 46/49/59 45/50/59 40/51/59
f 39/52/60 44/53/60 43/54/60 38/55/60
f 42/56/61 47/57/61 46/49/61 41/48/61
f 40/51/62 45/50/62 44/58/62 39/59/62
f 38/55/63 43/54/63 47/57/63 42/56/63
f 47/57/64 43/54/64 49/60/64 52/61/64
f 45/50/65 46/49/65 51/62/65 50/63/65
f 43/54/66 44/53/66 48/64/66 49/60/66
f 46/49/67 47/57/67 52/61/67 51/62/67
f 44/58/68 45/50/68 50/63/68 48/65/68
f 64/66/69 63/67/69 62/68/69 61/69/69
f 66/70/70 65/71/70 60/72/70 59/73/70
f 63/67/71 67/74/71 58/75/71 62/68/71
f 65/71/72 64/66/72 61/69/72 60/72/72
f 67/74/73 66/76/73 59/77/73 58/75/73
f 53/78/74 54/79/74 66/76/74 67/74/74
f 55/80/75 56/81/75 64/66/75 65/71/75
f 57/82/76 53/78/76 67/74/76 63/67/76
f 54/83/77 55/80/77 65/71/77 66/70/77
f 56/81/78 57/82/78 63/67/78 64/66/78
f 50/63/79 51/62/79 56/81/79 55/80/79
f 48/65/80 50/63/80 55/80/80 54/83/80
f 49/60/81 48/64/81 54/79/81 53/78/81
f 53/78/82 57/82/82 70/84/82 69/85/82
f 68/86/83 70/84/83 57/82/83 56/81/83
f 70/87/84 68/88/84 69/89/84
f 52/90/85 49/91/85 51/92/85
f 53/93/86 69/89/86 68/88/86
f 56/94/87 53/93/87 68/88/87
f 56/94/88 51/92/88 49/91/88
f 53/93/89 56/94/89 49/91/89
