# Blender v2.78 (sub 0) OBJ File: 'Low_Poly_Trees_Pack.blend'
# www.blender.org
g Simple_Tree_crk_s_01
v -0.791874 2.121013 -0.363575
v -0.903255 2.098885 -0.682181
v -0.668175 2.007566 -0.960048
v -0.574484 1.866869 -0.654268
v -0.397445 1.985805 -0.313243
v -0.436073 2.203826 -0.155237
v -0.277735 1.901108 -0.546832
v -0.743936 2.431703 -0.262479
v -0.266650 1.942837 -0.865780
v -0.427339 2.282853 -1.164856
v 0.012787 2.335285 -0.841405
v -0.214033 2.505738 -1.031967
v -0.028023 2.077712 -0.465614
v 0.059868 2.358539 -0.568984
v -0.149251 2.708313 -0.580788
v -0.361410 2.716812 -0.923029
v -0.584664 2.798940 -0.675641
v 0.021711 2.431918 -0.298261
v -0.100840 2.491133 -0.198945
v -0.508430 2.715153 -0.379188
v -0.839150 2.688843 -0.664227
v -0.997955 2.388503 -0.708628
v -0.245886 2.445751 -0.145875
v -0.187410 2.302634 -0.138106
v -0.653809 2.542595 -1.031617
v -0.853288 2.237990 -0.987087
v 0.007757 0.000000 -0.088775
v -0.085034 0.000000 -0.021968
v -0.051216 0.000000 0.091064
v 0.061457 0.000000 0.094042
v 0.098757 0.000000 -0.017152
v 0.074903 0.443402 0.080584
v 0.003446 0.446092 0.119443
v 0.018051 0.445065 0.199191
v 0.098844 0.441739 0.209391
v 0.133785 0.440712 0.135950
v 0.046062 0.935578 0.036445
v -0.029524 0.947941 0.061988
v -0.032191 0.944508 0.140585
v 0.044164 0.929526 0.162889
v 0.091662 0.924016 0.098259
v 0.178425 1.377744 -0.012241
v 0.118168 1.367854 -0.003819
v 0.097433 1.364080 0.061882
v 0.147084 1.371318 0.093896
v 0.196972 1.379478 0.047362
v 0.090192 2.001577 -0.074676
v 0.060435 1.970966 -0.078412
v 0.041477 1.962344 -0.048398
v 0.059513 1.987600 -0.026380
v 0.089568 2.011888 -0.042270
v -0.035436 2.451758 -0.118863
v -0.038650 2.421024 -0.135336
v -0.060097 2.423856 -0.101941
v -0.290249 2.378531 -0.431612
v -0.031371 2.448236 -0.085398
v -0.302300 2.350765 -0.417298
v -0.305206 2.358964 -0.404484
v -0.314529 2.373260 -0.416118
v -0.072149 2.455228 -0.135553
vt 0.7141 0.1894
vt 0.7113 0.1973
vt 0.7057 0.1914
vt 0.6971 0.1912
vt 0.7006 0.1834
vt 0.7118 0.1828
vt 0.7052 0.1765
vt 0.7188 0.1759
vt 0.7010 0.2019
vt 0.7162 0.2081
vt 0.6663 0.1619
vt 0.6807 0.1701
vt 0.6663 0.1751
vt 0.6602 0.1791
vt 0.6484 0.1739
vt 0.6686 0.1887
vt 0.6741 0.1778
vt 0.6756 0.1852
vt 0.6582 0.1929
vt 0.6564 0.1858
vt 0.6708 0.2014
vt 0.6773 0.1945
vt 0.6841 0.2005
vt 0.6727 0.2134
vt 0.7124 0.1632
vt 0.6961 0.1687
vt 0.6873 0.1936
vt 0.6861 0.1824
vt 0.7178 0.1957
vt 0.7284 0.2019
vt 0.7210 0.1879
vt 0.7305 0.1867
vt 0.6564 0.2027
vt 0.6448 0.1975
vt 0.4538 0.6326
vt 0.4490 0.6498
vt 0.4461 0.6496
vt 0.4495 0.6329
vt 0.4451 0.6333
vt 0.4433 0.6496
vt 0.4405 0.6494
vt 0.4409 0.6325
vt 0.4370 0.6312
vt 0.4374 0.6491
vt 0.4344 0.6490
vt 0.4327 0.6312
vt 0.4446 0.6676
vt 0.4415 0.6670
vt 0.4387 0.6672
vt 0.4362 0.6675
vt 0.4475 0.6684
vt 0.4334 0.6673
vt 0.4444 0.6857
vt 0.4422 0.6851
vt 0.4399 0.6842
vt 0.4376 0.6838
vt 0.4349 0.6844
vt 0.4327 0.6850
vt 0.4387 0.7091
vt 0.4374 0.7082
vt 0.4361 0.7074
vt 0.4348 0.7077
vt 0.4400 0.7090
vt 0.4336 0.7085
vt 0.4380 0.7267
vt 0.4368 0.7262
vt 0.4354 0.7255
vt 0.4339 0.7264
vt 0.4329 0.7271
vt 0.4373 0.7253
vt 0.4467 0.7368
vt 0.4459 0.7369
vt 0.4458 0.7374
vt 0.4451 0.7381
vt 0.6718 0.9763
vt 0.6729 0.9713
vt 0.6779 0.9749
vt 0.4370 0.7238
vt 0.4474 0.7359
vt 0.6779 0.9677
vn -0.5531 -0.8081 -0.2024
vn -0.0126 -0.9421 0.3351
vn -0.4570 -0.2107 0.8642
vn 0.0771 -0.6377 -0.7664
vn 0.5789 -0.3669 -0.7282
vn 0.9311 -0.3400 -0.1319
vn 0.1575 -0.9799 -0.1227
vn 0.6503 0.6538 -0.3869
vn 0.6139 0.7171 0.3300
vn 0.8457 0.4992 -0.1888
vn -0.3608 0.8691 0.3384
vn -0.5214 0.6573 0.5442
vn -0.2294 0.1431 0.9627
vn -0.0776 0.0224 0.9967
vn 0.2689 0.8515 0.4502
vn 0.4240 -0.6370 0.6438
vn -0.3492 0.7486 -0.5636
vn 0.0398 0.4833 -0.8745
vn -0.6951 -0.6042 -0.3896
vn -0.3258 -0.3641 -0.8725
vn -0.7092 0.4547 -0.5388
vn -0.9043 -0.2651 0.3346
vn -0.8675 -0.0277 0.4966
vn -0.5720 -0.7799 0.2541
vn -0.3398 -0.8192 0.4621
vn -0.2990 -0.5941 0.7467
vn -0.0523 -0.9132 -0.4042
vn 0.5969 -0.0963 -0.7965
vn 0.7887 -0.5437 -0.2870
vn 0.5935 -0.8005 -0.0841
vn 0.7351 0.5727 -0.3627
vn 0.2266 0.9670 -0.1165
vn 0.8584 0.5126 -0.0180
vn 0.1492 0.9609 0.2332
vn -0.8221 0.3708 0.4321
vn -0.2091 0.5158 0.8308
vn 0.0530 0.6828 0.7287
vn 0.1662 -0.5592 0.8122
vn 0.3943 -0.7806 0.4851
vn 0.6992 -0.3833 0.6035
vn 0.9541 -0.2265 0.1959
vn 0.6200 -0.0317 0.7840
vn 0.2912 0.1701 0.9414
vn -0.3092 0.8196 -0.4823
vn 0.0395 0.4799 -0.8764
vn -0.3933 0.1244 -0.9110
vn -0.7174 0.3849 -0.5807
vn -0.9002 -0.3212 -0.2941
vn 0.6356 0.1986 -0.7460
vn -0.0701 -0.2358 0.9693
vn -0.5001 0.3623 -0.7865
vn 0.9150 -0.1843 0.3590
vn -0.9646 0.1027 0.2428
vn 0.8541 0.1288 0.5039
vn -0.9946 -0.0742 0.0729
vn 0.7463 -0.0015 -0.6656
vn -0.1925 0.0836 0.9777
vn -0.4085 -0.1179 -0.9051
vn 0.8409 -0.2744 -0.4665
vn -0.3698 0.2531 0.8940
vn -0.2431 -0.0497 -0.9687
vn 0.7504 -0.0866 0.6553
vn -0.9472 0.2889 -0.1392
vn 0.5429 0.2210 0.8102
vn -0.9069 -0.1466 -0.3951
vn 0.9705 0.1262 -0.2056
vn -0.6424 0.0690 0.7633
vn -0.0017 -0.1112 -0.9938
vn 0.9625 0.2601 -0.0771
vn -0.7242 -0.0799 0.6849
vn 0.4893 0.0242 -0.8718
vn -0.0997 0.1071 0.9892
vn -0.8079 -0.2429 -0.5370
vn -0.7748 0.2234 0.5915
vn 0.7626 -0.1760 -0.6224
vn -0.0052 -0.9733 0.2296
vn -0.6903 0.7060 0.1582
vn -0.0241 0.9719 -0.2340
vn -0.2592 0.6579 0.7071
s off
f 2/1/1 3/2/1 4/3/1
f 4/3/2 7/4/2 5/5/2
f 1/6/3 6/7/3 8/8/3
f 9/9/4 3/2/4 10/10/4
f 9/11/5 10/12/5 11/13/5
f 11/13/6 14/14/6 13/15/6
f 9/9/7 7/4/7 4/3/7
f 15/16/8 12/17/8 16/18/8
f 15/16/9 19/19/9 18/20/9
f 15/16/10 14/14/10 11/13/10
f 20/21/11 17/22/11 21/23/11
f 20/21/12 21/23/12 8/24/12
f 8/8/13 6/7/13 23/25/13
f 23/25/14 6/7/14 24/26/14
f 20/21/15 19/19/15 15/16/15
f 24/26/16 5/5/16 13/27/16
f 21/23/17 17/22/17 16/18/17
f 25/28/18 12/17/18 10/12/18
f 26/29/19 3/2/19 2/1/19
f 10/10/20 3/2/20 26/29/20
f 25/30/21 22/31/21 21/32/21
f 2/1/22 1/6/22 22/31/22
f 1/6/23 8/8/23 22/31/23
f 1/6/24 2/1/24 4/3/24
f 1/6/25 4/3/25 5/5/25
f 1/6/26 5/5/26 6/7/26
f 9/9/27 4/3/27 3/2/27
f 11/13/28 10/12/28 12/17/28
f 9/11/29 11/13/29 13/15/29
f 9/9/30 13/27/30 7/4/30
f 15/16/31 11/13/31 12/17/31
f 15/16/32 16/18/32 17/22/32
f 15/16/33 18/20/33 14/14/33
f 20/21/34 15/16/34 17/22/34
f 8/8/35 21/32/35 22/31/35
f 20/21/36 8/24/36 23/33/36
f 20/21/37 23/33/37 19/19/37
f 24/26/38 6/7/38 5/5/38
f 13/27/39 5/5/39 7/4/39
f 24/34/40 13/15/40 18/20/40
f 18/20/41 13/15/41 14/14/41
f 24/34/42 18/20/42 19/19/42
f 24/34/43 19/19/43 23/33/43
f 25/28/44 21/23/44 16/18/44
f 25/28/45 16/18/45 12/17/45
f 25/30/46 10/10/46 26/29/46
f 25/30/47 26/29/47 22/31/47
f 26/29/48 2/1/48 22/31/48
f 27/35/49 32/36/49 36/37/49 31/38/49
f 30/39/50 35/40/50 34/41/50 29/42/50
f 28/43/51 33/44/51 32/45/51 27/46/51
f 31/38/52 36/37/52 35/40/52 30/39/52
f 29/42/53 34/41/53 33/44/53 28/43/53
f 35/40/54 36/37/54 41/47/54 40/48/54
f 33/44/55 34/41/55 39/49/55 38/50/55
f 36/37/56 32/36/56 37/51/56 41/47/56
f 34/41/57 35/40/57 40/48/57 39/49/57
f 32/45/58 33/44/58 38/50/58 37/52/58
f 41/47/59 37/51/59 42/53/59 46/54/59
f 39/49/60 40/48/60 45/55/60 44/56/60
f 37/52/61 38/50/61 43/57/61 42/58/61
f 40/48/62 41/47/62 46/54/62 45/55/62
f 38/50/63 39/49/63 44/56/63 43/57/63
f 45/55/64 46/54/64 51/59/64 50/60/64
f 43/57/65 44/56/65 49/61/65 48/62/65
f 46/54/66 42/53/66 47/63/66 51/59/66
f 44/56/67 45/55/67 50/60/67 49/61/67
f 42/58/68 43/57/68 48/62/68 47/64/68
f 51/59/69 47/63/69 52/65/69 56/66/69
f 49/61/70 50/60/70 54/67/70
f 47/64/71 48/62/71 53/68/71 52/69/71
f 50/60/72 51/59/72 56/66/72 54/67/72
f 48/62/73 49/61/73 54/67/73 53/68/73
f 54/67/74 60/70/74 59/71/74 58/72/74
f 52/69/75 53/68/75 57/73/75 55/74/75
f 53/68/76 54/67/76 58/72/76 57/73/76
f 56/75/77 52/76/77 54/77/77
f 60/70/78 52/78/78 55/79/78 59/71/78
f 52/76/79 60/80/79 54/77/79
