# Blender v2.78 (sub 0) OBJ File: 'Low_Poly_Trees_Pack.blend'
# www.blender.org
g Simple_Tree_NoLeaves_crk_m_01
v 0.000000 0.000000 -0.300000
v -0.285317 0.000000 -0.092619
v -0.176336 0.000000 0.242726
v 0.176336 0.000000 0.242705
v 0.285317 0.000000 -0.092705
v 0.050218 0.675520 -0.267645
v -0.212436 0.653595 -0.074407
v -0.112111 0.661970 0.234696
v 0.212547 0.689071 0.232600
v 0.312872 0.697446 -0.077827
v -0.181343 1.303533 -0.039940
v 0.064566 1.335526 -0.222766
v -0.087414 1.315753 0.250457
v 0.216546 1.355299 0.247171
v 0.310474 1.367519 -0.045262
v 0.064566 0.463998 1.338549
v -0.181343 0.280415 1.311234
v -0.087414 -0.009575 1.330865
v 0.216546 -0.005280 1.370314
v 0.310474 0.287369 1.375063
v -0.473482 0.298645 2.978970
v -0.617415 0.184277 2.919894
v -0.562437 0.000387 2.948272
v -0.384527 0.001104 3.024886
v -0.329549 0.185436 3.043859
v 0.051135 0.241805 2.290420
v -0.030052 -0.023055 2.272926
v -0.292777 -0.025891 2.194495
v -0.373964 0.237216 2.163516
v -0.161414 0.402684 2.222800
v -0.875224 0.195854 4.043690
v -0.951415 0.137275 4.021074
v -0.922312 0.043575 4.032677
v -0.828137 0.044234 4.062464
v -0.799035 0.138357 4.069271
v -0.968486 0.177174 4.510628
v -1.020792 0.136906 4.495103
v -1.000813 0.072596 4.503067
v -0.936159 0.073118 4.523516
v -0.916180 0.137751 4.528187
vt 0.4437 0.7176
vt 0.4642 0.7170
vt 0.4633 0.7267
vt 0.4434 0.7280
vt 0.4438 0.6862
vt 0.4632 0.6883
vt 0.4634 0.6979
vt 0.4434 0.6967
vt 0.4437 0.7072
vt 0.4643 0.7074
vt 0.4634 0.7364
vt 0.4439 0.7385
vt 0.4830 0.6987
vt 0.4840 0.7077
vt 0.4839 0.7168
vt 0.4828 0.7258
vt 0.4825 0.6895
vt 0.4826 0.7348
vt 0.6676 0.9560
vt 0.6436 0.9485
vt 0.6436 0.9232
vt 0.6824 0.9354
vt 0.6676 0.9152
vt 0.4167 0.6653
vt 0.4243 0.6647
vt 0.4234 0.6891
vt 0.4176 0.6893
vt 0.4008 0.6667
vt 0.4090 0.6661
vt 0.4117 0.6896
vt 0.4059 0.6902
vt 0.4320 0.6651
vt 0.4293 0.6892
vt 0.4398 0.6667
vt 0.4350 0.6901
vt 0.4344 0.6386
vt 0.4434 0.6409
vt 0.4067 0.6399
vt 0.4160 0.6383
vt 0.4253 0.6375
vt 0.3976 0.6407
vt 0.4251 0.7240
vt 0.4221 0.7239
vt 0.4190 0.7239
vt 0.4160 0.7241
vt 0.4281 0.7244
vt 0.4130 0.7244
vt 0.4175 0.7383
vt 0.4155 0.7385
vt 0.4235 0.7384
vt 0.4215 0.7384
vt 0.4195 0.7383
vt 0.4255 0.7385
vt 0.4467 0.6703
vt 0.4441 0.6684
vt 0.4461 0.6684
vt 0.4451 0.6715
vt 0.4434 0.6703
vt 0.6825 0.9354
vt 0.6973 0.9152
vt 0.7213 0.9232
vt 0.7213 0.9485
vt 0.6973 0.9560
vn 0.0026 0.0132 0.9999
vn -0.5903 0.0852 -0.8027
vn 0.9505 -0.0448 0.3075
vn -0.9470 0.0963 0.3063
vn 0.5869 -0.0054 -0.8096
vn 0.5821 0.0421 -0.8121
vn 0.0110 -0.0232 0.9997
vn -0.5979 0.0691 -0.7986
vn 0.9519 -0.0119 0.3063
vn -0.9512 0.0289 0.3072
vn -0.1290 0.9916 0.0000
vn 0.8611 -0.2947 0.4142
vn -0.8971 -0.3145 -0.3104
vn 0.5018 0.8053 0.3158
vn -0.0032 -0.9995 0.0321
vn -0.5847 0.8005 -0.1317
vn -0.5917 0.8006 -0.0944
vn 0.0158 -0.9998 -0.0153
vn 0.5518 0.8104 0.1969
vn -0.9228 -0.3128 -0.2249
vn 0.9218 -0.2994 0.2461
vn 0.5167 0.8113 0.2736
vn -0.0094 -0.9993 0.0371
vn -0.5787 0.8032 -0.1410
vn 0.8727 -0.2992 0.3857
vn -0.9043 -0.3153 -0.2877
vn -0.9409 -0.3093 -0.1379
vn 0.5643 0.8127 0.1452
vn -0.0115 -0.9981 0.0598
vn -0.5913 0.8018 -0.0860
vn 0.9236 -0.3026 0.2354
vn -0.3016 0.0243 0.9531
vn 0.1290 -0.0253 -0.9913
s off
f 4/1/1 9/2/1 8/3/1 3/4/1
f 2/5/2 7/6/2 6/7/2 1/8/2
f 5/9/3 10/10/3 9/2/3 4/1/3
f 3/4/4 8/3/4 7/11/4 2/12/4
f 1/8/5 6/7/5 10/10/5 5/9/5
f 10/10/6 6/7/6 12/13/6 15/14/6
f 8/3/7 9/2/7 14/15/7 13/16/7
f 6/7/8 7/6/8 11/17/8 12/13/8
f 9/2/9 10/10/9 15/14/9 14/15/9
f 7/11/10 8/3/10 13/16/10 11/18/10
f 11/19/11 13/20/11 14/21/11
f 12/22/11 11/19/11 14/21/11 15/23/11
f 27/24/12 26/25/12 25/26/12 24/27/12
f 29/28/13 28/29/13 23/30/13 22/31/13
f 26/25/14 30/32/14 21/33/14 25/26/14
f 28/29/15 27/24/15 24/27/15 23/30/15
f 30/32/16 29/34/16 22/35/16 21/33/16
f 16/36/17 17/37/17 29/34/17 30/32/17
f 18/38/18 19/39/18 27/24/18 28/29/18
f 20/40/19 16/36/19 30/32/19 26/25/19
f 17/41/20 18/38/20 28/29/20 29/28/20
f 19/39/21 20/40/21 26/25/21 27/24/21
f 25/26/22 21/33/22 31/42/22 35/43/22
f 23/30/23 24/27/23 34/44/23 33/45/23
f 21/33/24 22/35/24 32/46/24 31/42/24
f 24/27/25 25/26/25 35/43/25 34/44/25
f 22/31/26 23/30/26 33/45/26 32/47/26
f 32/47/27 33/45/27 38/48/27 37/49/27
f 35/43/28 31/42/28 36/50/28 40/51/28
f 33/45/29 34/44/29 39/52/29 38/48/29
f 31/42/30 32/46/30 37/53/30 36/50/30
f 34/44/31 35/43/31 40/51/31 39/52/31
f 36/54/32 39/55/32 40/56/32
f 37/57/32 38/58/32 39/55/32 36/54/32
f 16/59/33 20/60/33 19/61/33 18/62/33
f 17/63/33 16/59/33 18/62/33
