# Blender v2.78 (sub 0) OBJ File: 'Low_Poly_Trees_Pack.blend'
# www.blender.org
g Simple_Tree_NoLeaves_s_02
v 0.001097 0.000000 -0.094063
v -0.095368 0.000000 -0.026571
v -0.061292 0.000000 0.085776
v 0.056472 0.000000 0.087508
v 0.094854 0.000000 -0.023732
v 0.008813 0.443402 -0.048971
v -0.062644 0.446093 -0.010112
v -0.048039 0.445065 0.069636
v 0.032755 0.441739 0.079836
v 0.067696 0.440712 0.006395
v -0.030520 0.934773 0.036544
v -0.109787 0.934556 0.063064
v -0.109696 0.930426 0.141480
v -0.028823 0.909782 0.162943
v 0.019402 0.930822 0.097252
v -0.177272 1.520342 0.109416
v -0.226539 1.516092 0.114208
v -0.236698 1.514503 0.158533
v -0.192808 1.517842 0.181003
v -0.156351 1.521394 0.150142
v -0.278644 2.886576 -0.075770
v -0.293935 2.888356 -0.078007
v -0.301080 2.893064 -0.066073
v -0.290357 2.894257 -0.056575
v -0.276440 2.890245 -0.062422
v 0.272750 1.320998 0.693714
v 0.285976 1.308943 0.696579
v 0.295991 1.323501 0.686724
v 0.274766 1.341825 0.684415
v 0.107332 1.102219 0.291452
v 0.142728 1.063863 0.285935
v 0.125265 1.050058 0.306256
v 0.099304 1.060999 0.299256
v -0.061715 1.046490 0.166566
vt 0.3082 0.6449
vt 0.3056 0.6576
vt 0.3032 0.6574
vt 0.3048 0.6445
vt 0.3013 0.6444
vt 0.3009 0.6576
vt 0.2982 0.6578
vt 0.2980 0.6444
vt 0.2947 0.6445
vt 0.2958 0.6578
vt 0.2934 0.6577
vt 0.2913 0.6449
vt 0.3026 0.6716
vt 0.3004 0.6707
vt 0.2983 0.6723
vt 0.2962 0.6723
vt 0.3048 0.6718
vt 0.2938 0.6720
vt 0.3028 0.6888
vt 0.3015 0.6886
vt 0.3004 0.6755
vt 0.3002 0.6886
vt 0.2988 0.6888
vt 0.2976 0.6889
vt 0.2963 0.6890
vt 0.3314 0.6536
vt 0.3295 0.6549
vt 0.3224 0.6525
vt 0.3230 0.6518
vt 0.3015 0.7271
vt 0.3008 0.7272
vt 0.3001 0.7273
vt 0.2995 0.7272
vt 0.3022 0.7270
vt 0.2988 0.7271
vt 0.3082 0.6549
vt 0.3087 0.6550
vt 0.3087 0.6558
vt 0.3082 0.6554
vt 0.3226 0.6505
vt 0.3082 0.6504
vt 0.3082 0.6498
vt 0.3082 0.6562
vt 0.3083 0.6558
vt 0.3087 0.6558
vt 0.3088 0.6562
vt 0.3226 0.6490
vt 0.3082 0.6491
vt 0.3085 0.6565
vt 0.3223 0.6481
vt 0.3083 0.6485
vt 0.3082 0.6510
vt 0.3285 0.6444
vt 0.3297 0.6465
vt 0.3292 0.6509
vn 0.6345 0.0794 -0.7688
vn -0.0595 0.0261 0.9979
vn -0.5323 0.0825 -0.8425
vn 0.9286 0.0442 0.3684
vn -0.9681 0.0499 0.2456
vn 0.8580 0.0051 0.5136
vn -0.9884 -0.1235 0.0878
vn 0.7223 0.1843 -0.6665
vn -0.2151 -0.1837 0.9592
vn -0.3938 0.1130 -0.9122
vn 0.7918 0.2754 -0.5451
vn -0.3394 -0.1109 0.9341
vn -0.2380 0.0493 -0.9700
vn -0.3511 -0.4451 0.8238
vn -0.9759 -0.1989 -0.0893
vn 0.5808 0.1764 0.7947
vn -0.9534 -0.0894 -0.2883
vn 0.9188 0.0170 -0.3944
vn -0.5089 0.1132 0.8533
vn -0.0339 -0.1385 -0.9898
vn 0.2233 0.4042 0.8870
vn -0.9381 0.2246 0.2636
vn 0.1506 0.9464 -0.2858
vn 0.5531 0.5861 -0.5921
vn 0.1518 0.9464 -0.2852
vn 0.7689 -0.6302 0.1079
vn -0.5085 -0.6027 0.6150
vn 0.6029 -0.7850 0.1424
vn 0.7272 0.1679 0.6656
vn 0.3588 0.6133 -0.7037
vn -0.6370 0.1436 0.7573
s off
f 1/1/1 6/2/1 10/3/1 5/4/1
f 4/5/2 9/6/2 8/7/2 3/8/2
f 2/9/3 7/10/3 6/11/3 1/12/3
f 5/4/4 10/3/4 9/6/4 4/5/4
f 3/8/5 8/7/5 7/10/5 2/9/5
f 9/6/6 10/3/6 15/13/6 14/14/6
f 7/10/7 8/7/7 13/15/7 12/16/7
f 10/3/8 6/2/8 11/17/8 15/13/8
f 8/7/9 9/6/9 14/14/9 13/15/9
f 6/11/10 7/10/10 12/16/10 11/18/10
f 15/13/11 11/17/11 16/19/11 20/20/11
f 13/15/12 34/21/12 19/22/12 18/23/12
f 11/18/13 12/16/13 17/24/13 16/25/13
f 13/26/14 14/27/14 32/28/14 33/29/14
f 12/16/15 13/15/15 18/23/15 17/24/15
f 19/22/16 20/20/16 25/30/16 24/31/16
f 17/24/17 18/23/17 23/32/17 22/33/17
f 20/20/18 16/19/18 21/34/18 25/30/18
f 18/23/19 19/22/19 24/31/19 23/32/19
f 16/25/20 17/24/20 22/33/20 21/35/20
f 27/36/21 28/37/21 29/38/21 26/39/21
f 30/40/22 33/29/22 26/41/22 29/42/22
f 22/43/23 23/44/23 24/45/23 25/46/23
f 31/47/24 30/40/24 29/42/24 28/48/24
f 21/49/25 22/43/25 25/46/25
f 32/50/26 31/47/26 28/48/26 27/51/26
f 33/29/27 32/28/27 27/52/27 26/41/27
f 14/53/28 15/54/28 31/47/28 32/50/28
f 34/21/29 15/13/29 20/20/29 19/22/29
f 15/54/30 34/55/30 30/40/30 31/47/30
f 34/55/31 13/26/31 33/29/31 30/40/31
