# Blender v2.78 (sub 0) OBJ File: 'Low_Poly_Trees_Pack.blend'
# www.blender.org
g Simple_Tree_NoLeaves_m_02
v 0.000000 0.000000 -0.400000
v -0.380423 0.000000 -0.123607
v -0.235114 0.000000 0.323607
v 0.257204 0.000000 0.255620
v 0.358332 0.000000 -0.055620
v -0.315354 1.072057 -0.319893
v -0.608425 1.035962 -0.104696
v -0.496482 1.049749 0.243500
v 0.102142 1.368248 0.269431
v 0.199423 1.366940 -0.037931
v -0.558925 2.189124 -0.245337
v -0.776146 2.205012 -0.087096
v -0.693175 2.198944 0.168945
v -0.424676 2.179304 0.168945
v -0.341705 2.173235 -0.087096
v -0.657255 4.047032 -0.147831
v -0.772225 4.055442 -0.064077
v -0.728310 4.052230 0.071439
v -0.586199 4.041835 0.071439
v -0.537767 3.996609 -0.064596
v -1.234314 5.119176 -0.097204
v -1.290671 5.093225 -0.052126
v -1.269145 5.103137 0.020812
v -1.199483 5.135213 0.020812
v -1.177957 5.145125 -0.052126
v 0.009867 1.202775 -0.190608
v -0.148812 1.148849 0.239756
v 0.502251 2.353218 0.311396
v 0.519531 2.352890 0.166386
v 0.730721 2.247035 0.337403
v 0.770693 2.354388 0.196312
v 0.000000 0.000000 0.394806
v 0.271305 0.000000 -0.344965
v 0.653752 2.353474 0.108844
v 0.289923 0.626498 -0.179479
v 0.112500 0.567100 -0.282005
v -0.366814 0.493712 0.284642
v -0.495689 0.483798 -0.114408
v 0.179673 0.627153 0.311001
v 0.619192 2.354132 0.398865
v -0.158290 0.509752 -0.361035
v -0.074921 0.576908 0.348806
v 0.761653 2.687294 0.357597
v 0.764851 2.686704 0.123380
v 0.846924 2.671557 0.241670
v 0.628857 2.711801 0.166200
v 0.626881 2.712166 0.310955
v 0.764786 2.481457 0.340836
v 1.114093 2.581025 0.550568
v 1.117630 2.623229 0.464444
v 1.056470 2.636359 0.582323
v 1.062406 2.660468 0.512400
v 1.645219 2.636194 0.910195
v 1.677158 2.687651 0.842926
v 1.604083 2.696783 0.944991
v 1.629827 2.728771 0.888323
v 2.332969 2.573907 1.479182
v 2.355597 2.595509 1.459800
v 2.325992 2.597138 1.501506
v 2.342812 2.611564 1.483659
v -0.629699 4.190615 -0.061893
v 0.024186 4.357155 -0.302499
v 0.084639 4.365508 -0.191974
v 0.082873 4.325995 -0.254781
v -0.004973 4.417033 -0.240805
v 0.534550 4.998950 -0.580584
v 0.576607 5.003352 -0.498210
v 0.584889 4.988093 -0.549802
v 0.499460 5.018338 -0.527426
v 0.840396 6.067931 -0.727397
v 0.854992 6.069458 -0.698809
v 0.857866 6.064162 -0.716714
v 0.828219 6.074659 -0.708949
v -1.755978 6.907739 -0.050678
v -1.769070 6.908665 -0.041143
v -1.764069 6.908311 -0.025714
v -1.747887 6.907166 -0.025714
v -1.742887 6.906813 -0.041143
v 1.289159 4.567907 0.273154
v 1.290031 4.567655 0.207825
v 1.312395 4.561195 0.240819
v 1.252973 4.578359 0.219768
v 1.252434 4.578515 0.260144
v 1.472766 5.584258 0.257715
v 1.473239 5.584327 0.223263
v 1.485386 5.586109 0.240663
v 1.453113 5.581376 0.229562
v 1.452821 5.581333 0.250854
vt 0.3024 0.6451
vt 0.3017 0.6530
vt 0.2967 0.6530
vt 0.2966 0.6453
vt 0.2867 0.6539
vt 0.2806 0.6554
vt 0.2806 0.6509
vt 0.2849 0.6503
vt 0.2916 0.6527
vt 0.2909 0.6446
vt 0.2930 0.6688
vt 0.2891 0.6686
vt 0.3153 0.6366
vt 0.3170 0.6710
vt 0.3147 0.6697
vt 0.3107 0.6371
vt 0.2967 0.6692
vt 0.3004 0.6690
vt 0.2854 0.6697
vt 0.2931 0.6946
vt 0.2913 0.6956
vt 0.2995 0.6956
vt 0.2973 0.6958
vt 0.2953 0.6951
vt 0.3041 0.6686
vt 0.3015 0.6950
vt 0.3472 0.6366
vt 0.3491 0.6378
vt 0.3471 0.6478
vt 0.3461 0.6478
vt 0.2985 0.7140
vt 0.2974 0.7138
vt 0.2963 0.7137
vt 0.2952 0.7137
vt 0.2912 0.6947
vt 0.2934 0.6969
vt 0.2940 0.7138
vt 0.2929 0.7138
vt 0.3226 0.6551
vt 0.3271 0.6559
vt 0.3232 0.6708
vt 0.3211 0.6704
vt 0.3067 0.6538
vt 0.3067 0.6456
vt 0.3066 0.6375
vt 0.3106 0.6370
vt 0.3103 0.6459
vt 0.3250 0.6719
vt 0.3343 0.6480
vt 0.3404 0.6413
vt 0.3274 0.6716
vt 0.3194 0.6449
vt 0.3190 0.6706
vt 0.2869 0.6448
vt 0.2862 0.6366
vt 0.2901 0.6372
vt 0.3106 0.6563
vt 0.3032 0.6380
vt 0.2965 0.6384
vt 0.2840 0.6454
vt 0.2820 0.6366
vt 0.2831 0.6559
vt 0.3111 0.7267
vt 0.3109 0.7241
vt 0.3182 0.7232
vt 0.3187 0.7245
vt 0.3201 0.6757
vt 0.3181 0.6756
vt 0.3240 0.6769
vt 0.3221 0.6761
vt 0.3161 0.6754
vt 0.3126 0.7219
vt 0.3181 0.7221
vt 0.3107 0.7199
vt 0.3184 0.7211
vt 0.3112 0.7176
vt 0.3187 0.7199
vt 0.3277 0.7232
vt 0.3280 0.7244
vt 0.3275 0.7221
vt 0.3277 0.7211
vt 0.3279 0.7200
vt 0.3409 0.7215
vt 0.3409 0.7219
vt 0.3408 0.7210
vt 0.3409 0.7224
vt 0.3409 0.7229
vt 0.3410 0.6764
vt 0.3405 0.6763
vt 0.3405 0.6759
vt 0.3409 0.6759
vt 0.3444 0.6373
vt 0.3445 0.6474
vt 0.3422 0.6366
vt 0.3433 0.6475
vt 0.3405 0.6377
vt 0.3421 0.6478
vt 0.3467 0.6603
vt 0.3460 0.6602
vt 0.3448 0.6600
vt 0.3438 0.6602
vt 0.3430 0.6604
vt 0.3453 0.6758
vt 0.3451 0.6759
vt 0.3448 0.6759
vt 0.3458 0.6758
vt 0.3460 0.6758
vt 0.2945 0.7412
vt 0.2940 0.7411
vt 0.2959 0.7412
vt 0.2955 0.7413
vt 0.2950 0.7414
vt 0.2936 0.7411
vt 0.3405 0.6771
vt 0.3406 0.6770
vt 0.3408 0.6771
vt 0.3405 0.6773
vt 0.3408 0.6773
vt 0.3407 0.6774
vt 0.3408 0.6777
vt 0.3405 0.6777
vt 0.3405 0.6773
vt 0.3148 0.6725
vt 0.3257 0.6746
vt 0.3258 0.6777
vt 0.3161 0.7034
vt 0.3156 0.7033
vt 0.3145 0.7030
vt 0.3139 0.7029
vt 0.3150 0.7031
vt 0.3133 0.7028
vt 0.3121 0.7176
vt 0.3118 0.7174
vt 0.3110 0.7172
vt 0.3107 0.7172
vt 0.3116 0.7173
vt 0.3113 0.7172
vt 0.3406 0.6765
vt 0.3409 0.6765
vt 0.3409 0.6767
vt 0.3405 0.6767
vt 0.3407 0.6769
vn -0.9317 -0.1951 0.3064
vn -0.6109 0.7761 -0.1566
vn -0.5811 -0.1038 -0.8072
vn 0.4263 0.1969 -0.8829
vn 0.9478 -0.2005 0.2481
vn -0.5871 -0.0731 -0.8062
vn -0.9417 -0.1405 0.3056
vn 0.9474 0.0981 0.3047
vn -0.9513 -0.0018 0.3082
vn 0.5907 0.0734 -0.8035
vn 0.0038 0.0526 0.9986
vn -0.5882 0.0113 -0.8086
vn 0.5233 -0.7327 0.4351
vn -0.0046 0.0447 0.9990
vn -0.5613 -0.2682 -0.7830
vn 0.8329 0.4780 0.2790
vn -0.8575 -0.4296 0.2830
vn 0.9002 0.2768 0.3362
vn -0.9044 0.3593 -0.2303
vn -0.0025 0.0660 0.9978
vn -0.1242 0.1089 0.9863
vn 0.3237 0.0336 0.9456
vn 0.2314 -0.0945 0.9683
vn 0.6945 -0.0370 -0.7185
vn -0.1519 0.2135 -0.9650
vn 0.2215 0.1563 -0.9625
vn 0.2786 0.1651 -0.9461
vn -0.3611 0.0673 0.9301
vn -0.0422 0.1091 0.9931
vn -0.2528 0.0280 0.9671
vn -0.5817 -0.1212 -0.8043
vn -0.9262 -0.2248 0.3027
vn 0.8134 0.1259 -0.5680
vn 0.4682 0.2110 -0.8581
vn 0.7147 -0.6392 -0.2839
vn -0.3353 0.1261 -0.9336
vn -0.4418 0.2229 0.8690
vn 0.7069 -0.1397 -0.6934
vn -0.0691 0.7478 -0.6603
vn -0.9489 0.3092 -0.0638
vn -0.5920 0.7760 0.2173
vn -0.0251 -0.5172 0.8555
vn 0.3741 -0.8275 -0.4187
vn 0.2181 0.8521 -0.4757
vn -0.3139 0.8947 0.3179
vn -0.3589 -0.6755 0.6441
vn -0.2103 0.8792 0.4275
vn -0.5113 -0.6647 0.5448
vn 0.4182 0.8446 -0.3342
vn 0.3257 -0.8139 -0.4812
vn 0.7799 -0.2709 0.5642
vn -0.0261 0.6630 0.7481
vn -0.4084 0.5340 -0.7403
vn 0.5460 0.3262 -0.7717
vn 0.1713 -0.7146 -0.6783
vn 0.8205 -0.4960 0.2842
vn -0.7228 0.3094 -0.6179
vn 0.3185 -0.5777 -0.7516
vn -0.1735 0.5351 0.8268
vn -0.7995 0.1488 -0.5820
vn 0.4654 -0.2498 -0.8491
vn -0.2997 0.2514 0.9203
vn 0.9541 -0.2087 0.2149
vn 0.5651 0.1860 -0.8038
vn -0.0085 0.0235 0.9997
vn -0.5780 -0.1476 -0.8026
vn 0.9078 0.2891 0.3038
vn -0.9211 -0.2446 0.3030
vn 0.0705 0.9975 0.0000
vn 0.0706 0.9975 0.0000
vn 0.2818 0.9396 -0.1941
vn 0.9275 -0.2612 0.2675
vn 0.6176 -0.0545 0.7846
vn 0.7780 -0.1914 0.5984
vn -0.2769 0.1200 -0.9534
vn -0.3023 0.1271 0.9447
vn -0.9482 0.3174 -0.0138
vn 0.7937 -0.1958 -0.5759
vn 0.7955 -0.1345 0.5908
vn 0.8113 -0.1373 -0.5683
vn -0.3212 0.0727 0.9442
vn -0.9805 0.1958 -0.0136
vn -0.2949 0.0679 -0.9531
vn -0.1451 0.9894 -0.0000
s off
f 37/1/1 8/2/1 7/3/1 38/4/1
f 26/5/2 27/6/2 9/7/2 10/8/2
f 38/4/3 7/3/3 6/9/3 41/10/3
f 6/9/4 11/11/4 15/12/4 26/5/4
f 5/13/5 31/14/5 30/15/5 4/16/5
f 7/3/6 12/17/6 11/11/6 6/9/6
f 8/2/7 13/18/7 12/17/7 7/3/7
f 14/19/8 15/12/8 20/20/8 19/21/8
f 12/17/9 13/18/9 18/22/9 17/23/9
f 15/12/10 11/11/10 16/24/10 20/20/10
f 13/18/11 14/25/11 19/26/11 18/22/11
f 11/11/12 12/17/12 17/23/12 16/24/12
f 19/27/13 20/28/13 64/29/13 63/30/13
f 18/22/14 19/26/14 24/31/14 23/32/14
f 16/24/15 17/23/15 22/33/15 21/34/15
f 19/35/16 61/36/16 25/37/16 24/38/16
f 17/23/17 18/22/17 23/32/17 22/33/17
f 27/6/18 26/5/18 15/12/18 14/19/18
f 10/39/19 9/40/19 28/41/19 29/42/19
f 8/2/20 27/43/20 14/25/20 13/18/20
f 42/44/21 27/43/21 8/2/21 37/1/21
f 42/44/22 32/45/22 4/46/22 39/47/22
f 40/48/23 39/49/23 4/50/23 30/51/23
f 35/52/24 34/53/24 31/14/24 5/13/24
f 10/39/25 29/42/25 34/53/25 35/52/25
f 36/54/26 33/55/26 1/56/26 41/10/26
f 26/5/27 36/54/27 41/10/27 6/9/27
f 28/41/28 9/40/28 39/49/28 40/48/28
f 27/43/29 42/44/29 39/47/29 9/57/29
f 32/45/30 42/44/30 37/1/30 3/58/30
f 2/59/31 38/4/31 41/10/31 1/56/31
f 3/58/32 37/1/32 38/4/32 2/59/32
f 33/55/33 36/54/33 35/60/33 5/61/33
f 10/62/34 35/60/34 36/54/34 26/5/34
f 30/63/35 31/64/35 50/65/35 49/66/35
f 34/53/36 29/42/36 46/67/36 44/68/36
f 28/41/37 40/48/37 43/69/37 47/70/37
f 31/14/38 34/53/38 44/68/38 45/71/38
f 31/64/39 48/72/39 52/73/39 50/65/39
f 29/42/40 28/41/40 47/70/40 46/67/40
f 48/72/41 40/74/41 51/75/41 52/73/41
f 40/74/42 30/76/42 49/77/42 51/75/42
f 49/66/43 50/65/43 54/78/43 53/79/43
f 50/65/44 52/73/44 56/80/44 54/78/44
f 52/73/45 51/75/45 55/81/45 56/80/45
f 51/75/46 49/77/46 53/82/46 55/81/46
f 56/80/47 55/81/47 59/83/47 60/84/47
f 55/81/48 53/82/48 57/85/48 59/83/48
f 54/78/49 56/80/49 60/84/49 58/86/49
f 53/79/50 54/78/50 58/86/50 57/87/50
f 58/88/51 60/89/51 59/90/51 57/91/51
f 61/92/52 19/27/52 63/30/52 65/93/52
f 16/94/53 61/92/53 65/93/53 62/95/53
f 61/36/54 16/24/54 21/34/54 25/37/54
f 20/96/55 16/94/55 62/95/55 64/97/55
f 63/30/56 64/29/56 68/98/56 67/99/56
f 62/95/57 65/93/57 69/100/57 66/101/57
f 64/97/58 62/95/58 66/101/58 68/102/58
f 65/93/59 63/30/59 67/99/59 69/100/59
f 66/101/60 69/100/60 73/103/60 70/104/60
f 68/102/61 66/101/61 70/104/61 72/105/61
f 69/100/62 67/99/62 71/106/62 73/103/62
f 67/99/63 68/98/63 72/107/63 71/106/63
f 25/37/64 21/34/64 74/108/64 78/109/64
f 23/32/65 24/31/65 77/110/65 76/111/65
f 21/34/66 22/33/66 75/112/66 74/108/66
f 24/38/67 25/37/67 78/109/67 77/113/67
f 22/33/68 23/32/68 76/111/68 75/112/68
f 76/114/69 77/115/69 78/116/69
f 75/117/70 76/114/70 78/116/70 74/118/70
f 72/119/71 70/120/71 73/121/71 71/122/71
f 31/14/72 45/71/72 48/123/72
f 40/48/73 48/124/73 45/125/73 43/69/73
f 43/69/74 45/125/74 81/126/74 79/127/74
f 44/68/75 46/67/75 82/128/75 80/129/75
f 47/70/76 43/69/76 79/127/76 83/130/76
f 46/67/77 47/70/77 83/130/77 82/128/77
f 45/71/78 44/68/78 80/129/78 81/131/78
f 79/127/79 81/126/79 86/132/79 84/133/79
f 81/131/80 80/129/80 85/134/80 86/135/80
f 83/130/81 79/127/81 84/133/81 88/136/81
f 82/128/82 83/130/82 88/136/82 87/137/82
f 80/129/83 82/128/83 87/137/83 85/134/83
f 86/138/84 85/139/84 87/140/84
f 84/141/84 86/138/84 87/140/84 88/142/84
