# Blender v2.78 (sub 0) OBJ File: 'Low_Poly_Trees_Pack.blend'
# www.blender.org
g Simple_Tree_NoLeaves_s_03
v 0.000000 0.000000 -0.112000
v -0.112000 0.000000 0.000000
v 0.000000 0.000000 0.112000
v 0.112000 0.000000 -0.000000
v 0.057702 0.809950 0.043904
v -0.011404 0.809950 0.113009
v 0.057702 0.809950 0.182115
v 0.126807 0.809950 0.113009
v 0.057702 1.945874 0.072854
v 0.017546 1.945874 0.113009
v 0.057702 1.945874 0.153165
v 0.097857 1.945874 0.113009
v -0.083310 3.387324 0.100055
v -0.096088 3.385195 0.113010
v -0.083310 3.387324 0.125964
v -0.070531 3.389452 0.113010
vt 0.4307 0.6378
vt 0.4310 0.6600
vt 0.4284 0.6603
vt 0.4267 0.6386
vt 0.4387 0.6390
vt 0.4362 0.6604
vt 0.4337 0.6601
vt 0.4347 0.6381
vt 0.4258 0.6606
vt 0.4226 0.6393
vt 0.4300 0.6905
vt 0.4285 0.6906
vt 0.4330 0.6905
vt 0.4315 0.6905
vt 0.4345 0.6905
vt 0.4314 0.7288
vt 0.4307 0.7288
vt 0.4327 0.7287
vt 0.4321 0.7287
vt 0.4334 0.7287
vt 0.4387 0.6383
vt 0.4387 0.6378
vt 0.4392 0.6378
vt 0.4392 0.6383
vn 0.7045 0.0854 -0.7045
vn -0.7071 -0.0108 0.7071
vn 0.7027 -0.1109 0.7027
vn -0.6951 0.1833 -0.6951
vn 0.7070 0.0180 0.7070
vn -0.7070 0.0180 -0.7070
vn 0.7070 0.0180 -0.7070
vn -0.7070 0.0180 0.7070
vn 0.7042 0.0822 0.7052
vn -0.7061 -0.0557 -0.7060
vn 0.7042 0.0822 -0.7052
vn -0.7061 -0.0557 0.7060
vn -0.1643 0.9864 0.0000
s off
f 1/1/1 5/2/1 8/3/1 4/4/1
f 3/5/2 7/6/2 6/7/2 2/8/2
f 4/4/3 8/3/3 7/9/3 3/10/3
f 2/8/4 6/7/4 5/2/4 1/1/4
f 7/9/5 8/3/5 12/11/5 11/12/5
f 5/2/6 6/7/6 10/13/6 9/14/6
f 8/3/7 5/2/7 9/14/7 12/11/7
f 6/7/8 7/6/8 11/15/8 10/13/8
f 11/12/9 12/11/9 16/16/9 15/17/9
f 9/14/10 10/13/10 14/18/10 13/19/10
f 12/11/11 9/14/11 13/19/11 16/16/11
f 10/13/12 11/15/12 15/20/12 14/18/12
f 14/21/13 15/22/13 16/23/13 13/24/13
