# Blender v2.78 (sub 0) OBJ File: 'Low_Poly_Trees_Pack.blend'
# www.blender.org
g Simple_Tree_NoLeaves_crk_m_02
v 0.000000 0.000000 -0.300000
v -0.285317 0.000000 -0.092619
v -0.176336 0.000000 0.242726
v 0.176336 0.000000 0.242705
v 0.285317 0.000000 -0.092705
v 0.050218 0.675520 -0.267645
v -0.212436 0.653595 -0.074407
v -0.112111 0.661970 0.234696
v 0.212547 0.689071 0.232600
v 0.312872 0.697446 -0.077827
v -0.154954 1.206080 -0.024609
v 0.064566 1.374978 -0.222766
v -0.061025 1.218301 0.265788
v 0.242935 1.297298 0.262502
v 0.310474 1.406971 -0.045262
v -0.147649 1.645880 -0.225042
v -0.368147 1.236551 0.033386
v -0.254724 1.256099 0.303350
v -0.288809 1.524216 0.390489
v -0.098746 1.837789 0.006866
v -1.621010 1.190361 0.596079
v -1.551103 1.017101 0.644868
v -1.485291 1.028906 0.827002
v -1.514523 1.209462 0.890778
v -1.598402 1.309247 0.748060
v -0.879639 1.600632 0.410063
v -0.768157 1.456297 0.619318
v -0.754675 1.193330 0.542829
v -0.857826 1.175142 0.286303
v -0.935066 1.426874 0.204229
v -2.597487 0.904186 1.115874
v -2.568917 0.813968 1.144020
v -2.532643 0.820694 1.235673
v -2.538789 0.915068 1.264179
v -2.578870 0.966671 1.190131
v -3.019202 0.864934 1.334261
v -2.999567 0.802985 1.353631
v -2.974670 0.807607 1.416537
v -2.978919 0.872413 1.436046
v -3.006441 0.907843 1.385197
v 0.482185 1.680586 0.091040
v 0.239357 1.645880 -0.417296
v 0.487364 1.837789 -0.284298
vt 0.3055 0.6385
vt 0.3060 0.6531
vt 0.2993 0.6530
vt 0.2978 0.6386
vt 0.3289 0.6399
vt 0.3260 0.6543
vt 0.3189 0.6531
vt 0.3211 0.6389
vt 0.3133 0.6385
vt 0.3126 0.6529
vt 0.2921 0.6536
vt 0.2900 0.6392
vt 0.3154 0.6645
vt 0.3119 0.6636
vt 0.3074 0.6635
vt 0.3020 0.6660
vt 0.3217 0.6668
vt 0.2948 0.6660
vt 0.3056 0.6830
vt 0.3110 0.6830
vt 0.3096 0.7003
vt 0.3054 0.7002
vt 0.2943 0.6825
vt 0.3003 0.6827
vt 0.3010 0.7002
vt 0.2966 0.7003
vt 0.3165 0.6832
vt 0.3140 0.7005
vt 0.3223 0.6838
vt 0.3183 0.7014
vt 0.3141 0.6679
vt 0.3215 0.6720
vt 0.3013 0.6708
vt 0.3062 0.6729
vt 0.3121 0.6685
vt 0.2943 0.6708
vt 0.3096 0.7263
vt 0.3073 0.7261
vt 0.3050 0.7260
vt 0.3027 0.7260
vt 0.3118 0.7268
vt 0.3005 0.7261
vt 0.3033 0.7367
vt 0.3018 0.7367
vt 0.3078 0.7370
vt 0.3063 0.7369
vt 0.3048 0.7368
vt 0.3093 0.7371
vt 0.3300 0.7211
vt 0.3293 0.7231
vt 0.3289 0.7219
vt 0.3311 0.7219
vt 0.3307 0.7231
vt 0.3121 0.6664
vt 0.3129 0.6661
vt 0.3112 0.6659
vt 0.7179 0.9330
vt 0.7102 0.9494
vt 0.7051 0.9248
vt 0.6591 0.9222
vt 0.6726 0.9222
vt 0.6540 0.9361
vt 0.6863 0.9290
vt 0.6731 0.9543
vn 0.0026 0.0132 0.9999
vn -0.5903 0.0852 -0.8027
vn 0.9505 -0.0448 0.3075
vn -0.9470 0.0963 0.3063
vn 0.5869 -0.0054 -0.8096
vn 0.5823 0.0397 -0.8120
vn 0.0176 -0.0535 0.9984
vn -0.6497 0.0943 -0.7544
vn 0.9661 -0.0327 0.2561
vn -0.9496 0.0707 0.3053
vn -0.0517 0.8069 0.5884
vn 0.2141 -0.9767 -0.0157
vn -0.5145 0.7153 -0.4728
vn 0.3998 -0.2412 0.8843
vn -0.3537 -0.3850 -0.8525
vn -0.3775 -0.3580 -0.8540
vn 0.4446 -0.2271 0.8664
vn -0.4745 0.7279 -0.4950
vn 0.1326 -0.9910 0.0165
vn 0.1210 0.7778 0.6168
vn -0.4768 0.7262 -0.4953
vn 0.3941 -0.2465 0.8854
vn -0.3453 -0.3797 -0.8582
vn -0.0222 0.8136 0.5809
vn 0.1930 -0.9812 -0.0055
vn 0.0512 -0.9973 0.0530
vn -0.3545 0.7572 -0.5486
vn 0.3732 -0.2455 0.8947
vn -0.3958 -0.3856 -0.8335
vn 0.1221 0.8441 0.5221
vn -0.9116 -0.1721 0.3734
vn -0.9115 -0.1722 0.3734
vn 0.1032 -0.3086 0.9456
vn -0.1399 -0.9843 0.1076
vn -0.3788 -0.3786 -0.8445
vn -0.2854 0.7671 -0.5746
vn 0.1436 0.8240 0.5481
vn 0.6765 -0.6826 -0.2765
vn -0.3063 0.9160 0.2592
vn 0.0274 -0.9981 0.0551
vn 0.1353 -0.9774 -0.1622
vn 0.3930 0.9195 0.0027
vn 0.7523 0.5918 0.2895
s off
f 4/1/1 9/2/1 8/3/1 3/4/1
f 2/5/2 7/6/2 6/7/2 1/8/2
f 5/9/3 10/10/3 9/2/3 4/1/3
f 3/4/4 8/3/4 7/11/4 2/12/4
f 1/8/5 6/7/5 10/10/5 5/9/5
f 10/10/6 6/7/6 12/13/6 15/14/6
f 8/3/7 9/2/7 14/15/7 13/16/7
f 6/7/8 7/6/8 11/17/8 12/13/8
f 9/2/9 10/10/9 15/14/9 14/15/9
f 7/11/10 8/3/10 13/16/10 11/18/10
f 27/19/11 26/20/11 25/21/11 24/22/11
f 29/23/12 28/24/12 23/25/12 22/26/12
f 26/20/13 30/27/13 21/28/13 25/21/13
f 28/24/14 27/19/14 24/22/14 23/25/14
f 30/27/15 29/29/15 22/30/15 21/28/15
f 16/31/16 17/32/16 29/29/16 30/27/16
f 18/33/17 19/34/17 27/19/17 28/24/17
f 20/35/18 16/31/18 30/27/18 26/20/18
f 17/36/19 18/33/19 28/24/19 29/23/19
f 19/34/20 20/35/20 26/20/20 27/19/20
f 25/21/21 21/28/21 31/37/21 35/38/21
f 23/25/22 24/22/22 34/39/22 33/40/22
f 21/28/23 22/30/23 32/41/23 31/37/23
f 24/22/24 25/21/24 35/38/24 34/39/24
f 22/26/25 23/25/25 33/40/25 32/42/25
f 32/42/26 33/40/26 38/43/26 37/44/26
f 35/38/27 31/37/27 36/45/27 40/46/27
f 33/40/28 34/39/28 39/47/28 38/43/28
f 31/37/29 32/41/29 37/48/29 36/45/29
f 34/39/30 35/38/30 40/46/30 39/47/30
f 36/49/31 39/50/31 40/51/31
f 37/52/32 38/53/32 39/50/32 36/49/32
f 13/16/33 14/15/33 19/34/33 18/33/33
f 11/18/34 13/16/34 18/33/34 17/36/34
f 12/13/35 11/17/35 17/32/35 16/31/35
f 16/31/36 20/35/36 43/54/36 42/55/36
f 41/56/37 43/54/37 20/35/37 19/34/37
f 43/57/38 41/58/38 42/59/38
f 15/60/39 12/61/39 14/62/39
f 16/63/40 42/59/40 41/58/40
f 19/64/41 16/63/41 41/58/41
f 19/64/42 14/62/42 12/61/42
f 16/63/43 19/64/43 12/61/43
