# Blender v2.78 (sub 0) OBJ File: 'Low_Poly_Trees_Pack.blend'
# www.blender.org
g Palm_Tree_crk_l_02
v 2.218343 1.809510 4.337349
v 1.829091 1.646752 5.050718
v 1.232583 0.024051 5.466896
v 2.474142 1.374744 4.972413
v 2.009477 0.512205 5.558288
v 1.346399 0.852359 5.668594
v 1.687064 0.662278 5.707585
v 2.171663 1.531685 5.084793
v 1.546698 1.295441 5.458727
v 2.330095 0.879478 5.397718
v 1.971682 1.088412 5.538166
v -0.899839 0.829174 5.434030
v -0.551838 0.447366 5.971782
v 1.170699 -0.001698 5.478427
v -0.254609 0.982913 5.853109
v 0.792453 0.585008 5.838136
v 0.491575 -0.011421 5.947632
v 0.686251 0.280885 5.960582
v -0.376803 0.719343 5.975656
v -0.071120 0.197869 6.178744
v 0.262250 0.903939 5.986560
v 0.137886 0.538873 6.187083
v 2.327990 0.774999 3.088184
v 2.432851 0.978419 4.020072
v 1.150185 0.012370 5.476117
v 2.481080 0.144943 3.771982
v 1.864555 -0.285288 4.998008
v 1.809618 0.610965 5.227999
v 1.884721 0.154010 5.193821
v 2.518426 0.558395 3.949262
v 2.231241 0.864655 4.752602
v 2.286352 -0.154369 4.459347
v 2.335666 0.350418 4.673805
v -0.016554 1.247844 3.670814
v -0.092617 1.188595 4.578850
v 1.194585 0.002376 5.435186
v 0.741340 1.390679 4.272510
v 1.401601 0.884238 5.237135
v 0.462170 0.644711 5.554008
v 0.967348 0.761804 5.478563
v 0.347456 1.301095 4.484967
v 0.113721 0.994802 5.198190
v 1.153570 1.246912 4.822386
v 0.663863 1.142179 5.091532
v -1.579079 0.107778 4.109201
v -0.794916 0.015380 4.207240
v 1.269070 -0.047951 5.416940
v -0.896097 0.292805 4.903397
v 0.358117 0.259539 5.571950
v 0.432043 -0.103684 4.880487
v 0.385379 -0.063050 5.283564
v -0.847952 0.204545 4.578383
v -0.103529 -0.041704 4.452750
v -0.348913 0.250872 5.335890
v -0.223685 0.072670 4.941651
v 3.363047 0.632261 6.467498
v 2.698544 0.834446 6.025224
v 1.157334 -0.029479 5.506868
v 2.569322 0.510321 6.739181
v 1.459008 0.277318 6.220438
v 1.630997 0.522419 5.738165
v 1.429042 0.430166 6.014538
v 2.582450 0.715315 6.405106
v 2.074782 0.700605 5.843583
v 1.913287 0.428072 6.634849
v 1.912086 0.593321 6.299144
v 2.347591 0.016471 7.872814
v 1.580410 0.130985 7.551760
v 1.258675 -0.045650 5.493529
v 2.311905 0.351456 7.238984
v 1.842709 0.350959 5.995296
v 1.023191 0.121153 6.267667
v 1.461776 0.179844 6.168211
v 1.925872 0.294819 7.354867
v 1.179059 0.117621 6.941642
v 2.094963 0.434068 6.643201
v 1.621509 0.256924 6.715936
v -0.062219 0.003170 7.632929
v 0.535334 0.017287 7.320057
v 1.274451 0.007647 5.420947
v -0.142013 0.045824 6.868145
v 0.625223 0.278228 5.917967
v 1.256745 -0.050141 6.292496
v 0.967321 0.193615 6.104315
v 0.178502 0.091446 7.099348
v 0.991254 0.093660 6.831386
v 0.190488 0.161067 6.322743
v 0.578338 0.222202 6.579890
v 2.217769 1.808295 4.336861
v 1.828777 1.645629 5.049891
v 1.232621 0.024531 5.465549
v 2.473361 1.373836 4.971631
v 2.008980 0.512395 5.556961
v 1.346495 0.852161 5.667181
v 1.686905 0.662370 5.706166
v 2.171098 1.530650 5.083983
v 1.546531 1.294675 5.457531
v 2.329390 0.879059 5.396546
v 1.971236 1.087844 5.536932
v -0.899001 0.828504 5.433085
v -0.551157 0.446952 5.970594
v 1.169785 -0.001443 5.477358
v -0.254135 0.982150 5.851996
v 0.791644 0.584767 5.836983
v 0.491020 -0.011012 5.946380
v 0.685510 0.280998 5.959365
v -0.376222 0.718759 5.974487
v -0.071065 0.197874 6.177314
v 0.262044 0.903360 5.985269
v 0.137755 0.538616 6.185682
v 2.326594 0.774840 3.088452
v 2.431452 0.978156 4.019934
v 1.149633 0.012669 5.474832
v 2.479657 0.145084 3.771960
v 1.863627 -0.284798 4.997037
v 1.808740 0.610917 5.226872
v 1.883871 0.154252 5.192698
v 2.516999 0.558328 3.949200
v 2.230000 0.864503 4.751909
v 2.285074 -0.154025 4.458806
v 2.334393 0.350516 4.673162
v -0.016235 1.246451 3.670762
v -0.092323 1.187227 4.578553
v 1.194134 0.002318 5.433831
v 0.741509 1.389283 4.272248
v 1.401184 0.883439 5.236025
v 0.462144 0.644005 5.552764
v 0.967054 0.761223 5.477290
v 0.347695 1.299711 4.484697
v 0.113895 0.993595 5.197443
v 1.153500 1.245645 4.821726
v 0.663904 1.140959 5.090788
v -1.578916 0.109098 4.108674
v -0.794617 0.016683 4.206731
v 1.269149 -0.046687 5.416276
v -0.895761 0.294143 4.903020
v 0.358425 0.260611 5.571056
v 0.432276 -0.102282 4.880323
v 0.385620 -0.061765 5.282985
v -0.847691 0.205885 4.577958
v -0.103164 -0.040355 4.452448
v -0.348468 0.252098 5.335306
v -0.223277 0.073977 4.941239
v 3.362957 0.630967 6.466897
v 2.698678 0.833067 6.024869
v 1.158530 -0.030259 5.506935
v 2.569460 0.509089 6.738470
v 1.460034 0.276515 6.219849
v 1.631715 0.521186 5.738252
v 1.430081 0.429209 6.014318
v 2.582580 0.713996 6.404569
v 2.075203 0.699252 5.843396
v 1.913792 0.426914 6.634180
v 1.912616 0.592071 6.298694
v 2.347532 0.017709 7.873527
v 1.580090 0.132315 7.552177
v 1.258211 -0.044331 5.493228
v 2.311728 0.352811 7.239402
v 1.842120 0.352259 5.995214
v 1.022894 0.122543 6.267510
v 1.461323 0.181193 6.168070
v 1.925630 0.296157 7.355309
v 1.178687 0.118998 6.941737
v 2.094539 0.435429 6.643312
v 1.621100 0.258291 6.716022
v -0.062161 0.001756 7.632721
v 0.535213 0.015905 7.319710
v 1.273775 0.006388 5.420986
v -0.141726 0.044428 6.868029
v 0.625075 0.276806 5.917959
v 1.256030 -0.051373 6.292363
v 0.966820 0.192276 6.104264
v 0.178600 0.090036 7.099127
v 0.990882 0.092306 6.831114
v 0.190659 0.159652 6.322623
v 0.578244 0.220790 6.579686
v -0.267685 0.000000 -0.047200
v -0.127609 0.000000 0.239998
v 0.188818 0.000000 0.195527
v 0.244305 0.000000 -0.119156
v -0.037829 0.000000 -0.269169
v 1.049095 0.052066 5.184852
v 1.076517 -0.027110 5.163088
v 1.158991 -0.020776 5.137544
v 1.182540 0.062316 5.143520
v 1.114621 0.107334 5.172759
v 0.110522 1.639230 0.758306
v 0.655279 0.360668 3.348748
v 0.543182 0.434137 3.405478
v -0.064194 1.752810 0.852254
v -0.189522 1.425634 0.739218
v 0.467745 0.219821 3.349715
v 0.608657 0.228213 3.314285
v 0.033065 1.437024 0.688446
v 0.427280 0.347089 3.406076
v -0.249631 1.620801 0.840457
v 1.035052 0.050005 5.349311
v 1.090079 -0.108876 5.305637
v 1.255578 -0.096164 5.254379
v 1.302833 0.070574 5.266372
v 1.166541 0.160911 5.325043
v 1.225711 -0.022339 5.652856
v 1.243629 -0.074072 5.638635
v 1.297516 -0.069933 5.621946
v 1.312903 -0.015641 5.625853
v 1.268525 0.013773 5.644955
v 0.322884 0.914814 1.948880
v 0.179478 1.008338 2.024219
v 0.079095 0.737593 1.939820
v 0.260844 0.747483 1.896718
v 0.028808 0.898810 2.018620
v -0.285540 1.412608 0.456557
v -0.185071 1.422750 0.660899
v 0.041321 1.418876 0.629533
v 0.080770 1.406339 0.405805
v 0.022941 1.936382 0.315481
v -0.082256 0.746973 0.033393
v 0.096113 0.891790 0.468308
v -0.278907 0.887850 0.269420
v 0.141520 0.883910 0.210792
v -0.163725 0.894225 0.504542
v -0.216411 2.146087 0.242421
v -0.337211 1.917953 0.397633
vt 0.6829 0.0079
vt 0.6947 0.0353
vt 0.6829 0.0344
vt 0.6829 0.1070
vt 0.6716 0.0803
vt 0.6829 0.0795
vt 0.6829 0.0581
vt 0.6969 0.0592
vt 0.6689 0.0592
vt 0.6710 0.0353
vt 0.6942 0.0803
vt 0.6829 0.0079
vt 0.6947 0.0353
vt 0.6829 0.0344
vt 0.6829 0.1070
vt 0.6716 0.0803
vt 0.6829 0.0795
vt 0.6829 0.0581
vt 0.6969 0.0592
vt 0.6689 0.0592
vt 0.6710 0.0353
vt 0.6942 0.0803
vt 0.8176 0.0094
vt 0.8295 0.0369
vt 0.8176 0.0359
vt 0.8176 0.1086
vt 0.8063 0.0819
vt 0.8176 0.0810
vt 0.8176 0.0597
vt 0.8316 0.0608
vt 0.8036 0.0608
vt 0.8058 0.0369
vt 0.8289 0.0819
vt 0.8176 0.0094
vt 0.8295 0.0369
vt 0.8176 0.0359
vt 0.8176 0.1086
vt 0.8063 0.0819
vt 0.8176 0.0810
vt 0.8176 0.0597
vt 0.8316 0.0608
vt 0.8036 0.0608
vt 0.8058 0.0369
vt 0.8289 0.0819
vt 0.8176 0.0094
vt 0.8295 0.0369
vt 0.8176 0.0359
vt 0.8176 0.1086
vt 0.8063 0.0819
vt 0.8176 0.0810
vt 0.8176 0.0597
vt 0.8316 0.0608
vt 0.8036 0.0608
vt 0.8058 0.0369
vt 0.8289 0.0819
vt 0.8176 0.0094
vt 0.8295 0.0369
vt 0.8176 0.0359
vt 0.8176 0.1086
vt 0.8063 0.0819
vt 0.8176 0.0810
vt 0.8176 0.0597
vt 0.8316 0.0608
vt 0.8036 0.0608
vt 0.8058 0.0369
vt 0.8289 0.0819
vt 0.8176 0.0094
vt 0.8295 0.0369
vt 0.8176 0.0359
vt 0.8176 0.1086
vt 0.8063 0.0819
vt 0.8176 0.0810
vt 0.8176 0.0597
vt 0.8316 0.0608
vt 0.8036 0.0608
vt 0.8058 0.0369
vt 0.8289 0.0819
vt 0.8176 0.0094
vt 0.8295 0.0369
vt 0.8176 0.0359
vt 0.8176 0.1086
vt 0.8063 0.0819
vt 0.8176 0.0810
vt 0.8176 0.0597
vt 0.8316 0.0608
vt 0.8036 0.0608
vt 0.8058 0.0369
vt 0.8289 0.0819
vt 0.6829 0.0079
vt 0.6829 0.0344
vt 0.6947 0.0353
vt 0.6829 0.1070
vt 0.6829 0.0795
vt 0.6716 0.0803
vt 0.6829 0.0581
vt 0.6969 0.0592
vt 0.6689 0.0592
vt 0.6710 0.0353
vt 0.6942 0.0803
vt 0.6829 0.0079
vt 0.6829 0.0344
vt 0.6947 0.0353
vt 0.6829 0.1070
vt 0.6829 0.0795
vt 0.6716 0.0803
vt 0.6829 0.0581
vt 0.6969 0.0592
vt 0.6689 0.0592
vt 0.6710 0.0353
vt 0.6942 0.0803
vt 0.8176 0.0094
vt 0.8176 0.0359
vt 0.8295 0.0369
vt 0.8176 0.1086
vt 0.8176 0.0810
vt 0.8063 0.0819
vt 0.8176 0.0597
vt 0.8316 0.0608
vt 0.8036 0.0608
vt 0.8058 0.0369
vt 0.8289 0.0819
vt 0.8176 0.0094
vt 0.8176 0.0359
vt 0.8295 0.0369
vt 0.8176 0.1086
vt 0.8176 0.0810
vt 0.8063 0.0819
vt 0.8176 0.0597
vt 0.8316 0.0608
vt 0.8036 0.0608
vt 0.8058 0.0369
vt 0.8289 0.0819
vt 0.8176 0.0094
vt 0.8176 0.0359
vt 0.8295 0.0369
vt 0.8176 0.1086
vt 0.8176 0.0810
vt 0.8063 0.0819
vt 0.8176 0.0597
vt 0.8316 0.0608
vt 0.8036 0.0608
vt 0.8058 0.0369
vt 0.8289 0.0819
vt 0.8176 0.0094
vt 0.8176 0.0359
vt 0.8295 0.0369
vt 0.8176 0.1086
vt 0.8176 0.0810
vt 0.8063 0.0819
vt 0.8176 0.0597
vt 0.8316 0.0608
vt 0.8036 0.0608
vt 0.8058 0.0369
vt 0.8289 0.0819
vt 0.8176 0.0094
vt 0.8176 0.0359
vt 0.8295 0.0369
vt 0.8176 0.1086
vt 0.8176 0.0810
vt 0.8063 0.0819
vt 0.8176 0.0597
vt 0.8316 0.0608
vt 0.8036 0.0608
vt 0.8058 0.0369
vt 0.8289 0.0819
vt 0.8176 0.0094
vt 0.8176 0.0359
vt 0.8295 0.0369
vt 0.8176 0.1086
vt 0.8176 0.0810
vt 0.8063 0.0819
vt 0.8176 0.0597
vt 0.8316 0.0608
vt 0.8036 0.0608
vt 0.8058 0.0369
vt 0.8289 0.0819
vt 0.4311 0.9466
vt 0.4307 0.9764
vt 0.4293 0.9762
vt 0.4290 0.9465
vt 0.4374 0.9467
vt 0.4348 0.9766
vt 0.4334 0.9767
vt 0.4353 0.9465
vt 0.4332 0.9465
vt 0.4321 0.9765
vt 0.4395 0.9471
vt 0.4362 0.9765
vt 0.4658 0.9756
vt 0.4715 0.9814
vt 0.4685 0.9830
vt 0.4624 0.9775
vt 0.4369 0.9247
vt 0.4343 0.9244
vt 0.4701 0.9693
vt 0.4752 0.9758
vt 0.4736 0.9788
vt 0.4682 0.9727
vt 0.4421 0.9250
vt 0.4396 0.9249
vt 0.6853 0.9642
vt 0.6863 0.9580
vt 0.6944 0.9588
vt 0.6935 0.9642
vt 0.4316 0.9241
vt 0.6821 0.9608
vt 0.4288 0.9242
vt 0.4305 0.9787
vt 0.4283 0.9787
vt 0.4348 0.9788
vt 0.4334 0.9786
vt 0.4320 0.9786
vt 0.4369 0.9791
vt 0.4335 0.9826
vt 0.4328 0.9825
vt 0.4322 0.9824
vt 0.4315 0.9825
vt 0.4342 0.9830
vt 0.4308 0.9828
vt 0.4613 0.9570
vt 0.4621 0.9570
vt 0.4624 0.9578
vt 0.4617 0.9583
vt 0.4611 0.9578
vt 0.4317 0.9029
vt 0.4283 0.9031
vt 0.4422 0.9029
vt 0.4384 0.9032
vt 0.4349 0.9033
vt 0.4458 0.9041
vt 0.4422 0.9020
vt 0.4388 0.9021
vt 0.6974 0.9604
vt 0.6968 0.9637
vt 0.4284 0.8953
vt 0.4320 0.8922
vt 0.4482 0.9710
vt 0.4575 0.9783
vt 0.4573 0.9830
vt 0.4458 0.9750
vt 0.4591 0.9624
vt 0.4561 0.9659
vt 0.4521 0.9684
vt 0.4615 0.9583
vt 0.4348 0.8955
vt 0.6976 0.9548
vt 0.6941 0.9580
vt 0.6938 0.9526
vt 0.6861 0.9580
vt 0.6858 0.9526
vt 0.6821 0.9542
vt 0.6823 0.9575
vn 0.1874 -0.4606 0.8676
vn 0.2667 0.8978 0.3504
vn 0.4171 0.0590 0.9069
vn 0.0514 0.3752 0.9255
vn -0.2218 -0.2018 0.9540
vn 0.5278 0.7848 0.3247
vn 0.1759 0.6725 0.7189
vn 0.5297 0.4681 0.7073
vn 0.7144 0.0320 0.6990
vn -0.6215 0.3903 0.6793
vn 0.4393 0.2632 0.8589
vn 0.2921 -0.2175 0.9313
vn 0.5283 -0.3853 0.7566
vn -0.5436 0.5477 0.6360
vn -0.3147 0.1786 0.9322
vn -0.1589 0.4999 0.8514
vn 0.3949 -0.3891 0.8323
vn 0.9622 0.2225 -0.1568
vn 0.7798 -0.2969 0.5511
vn 0.7376 0.0581 0.6728
vn 0.3605 -0.0105 0.9327
vn 0.9766 0.0040 -0.2150
vn 0.9478 0.1475 0.2826
vn 0.9651 -0.1744 0.1954
vn 0.4648 0.0887 0.8810
vn -0.2388 0.9701 0.0433
vn 0.1494 0.7744 0.6149
vn -0.0485 0.6906 0.7216
vn 0.1503 -0.0115 0.9886
vn -0.2070 0.9779 0.0286
vn -0.1737 0.9242 0.3400
vn -0.0550 0.9569 0.2851
vn -0.0999 -0.6678 0.7376
vn -0.1585 -0.8887 0.4303
vn -0.3047 -0.7991 0.5182
vn -0.2473 -0.9614 0.1208
vn 0.0018 -0.9949 0.1005
vn -0.0370 -0.9658 0.2568
vn -0.2599 -0.9258 0.2744
vn -0.3137 -0.9125 0.2625
vn -0.9289 0.2197 0.2982
vn 0.0750 0.9447 0.3192
vn -0.5635 0.6978 0.4422
vn -0.3700 0.9265 0.0683
vn -0.6749 0.6895 -0.2630
vn 0.0486 0.8505 0.5238
vn -0.2296 0.9560 0.1825
vn -0.2067 0.8578 0.4705
vn 0.4619 -0.8737 0.1530
vn 0.0966 -0.8418 -0.5310
vn 0.3761 -0.9266 -0.0055
vn 0.2199 -0.9755 0.0019
vn 0.1859 -0.9474 0.2607
vn -0.0104 -0.8843 -0.4668
vn 0.2955 -0.9467 -0.1281
vn 0.2328 -0.9634 -0.1332
vn 0.3006 0.9459 -0.1223
vn 0.0806 0.9769 0.1980
vn -0.0184 0.9964 0.0830
vn 0.4104 0.9052 0.1109
vn 0.6180 0.7835 0.0645
vn -0.1931 0.9783 0.0747
vn 0.0866 0.9588 0.2705
vn -0.2050 0.9751 0.0843
vn -0.1874 0.4607 -0.8675
vn -0.2667 -0.8979 -0.3503
vn -0.4172 -0.0589 -0.9069
vn -0.0514 -0.3753 -0.9255
vn 0.2218 0.2019 -0.9540
vn -0.5278 -0.7848 -0.3246
vn -0.1758 -0.6726 -0.7188
vn -0.5298 -0.4680 -0.7073
vn -0.7144 -0.0320 -0.6990
vn 0.6215 -0.3903 -0.6793
vn -0.4394 -0.2632 -0.8588
vn -0.2922 0.2177 -0.9313
vn -0.5282 0.3855 -0.7566
vn 0.5436 -0.5477 -0.6360
vn 0.3148 -0.1786 -0.9322
vn 0.1590 -0.5000 -0.8513
vn -0.3948 0.3891 -0.8323
vn -0.9622 -0.2225 0.1569
vn -0.7798 0.2969 -0.5511
vn -0.7375 -0.0581 -0.6728
vn -0.3604 0.0105 -0.9327
vn -0.9766 -0.0040 0.2150
vn -0.9478 -0.1476 -0.2826
vn -0.9651 0.1745 -0.1953
vn -0.4647 -0.0886 -0.8810
vn 0.2388 -0.9701 -0.0433
vn -0.1494 -0.7744 -0.6148
vn 0.0486 -0.6906 -0.7216
vn -0.1505 0.0116 -0.9885
vn 0.2070 -0.9779 -0.0286
vn 0.1737 -0.9243 -0.3400
vn 0.0550 -0.9569 -0.2851
vn 0.0999 0.6677 -0.7377
vn 0.1585 0.8887 -0.4303
vn 0.3047 0.7991 -0.5182
vn 0.2473 0.9614 -0.1207
vn -0.0018 0.9950 -0.1003
vn 0.0369 0.9658 -0.2568
vn 0.2599 0.9258 -0.2744
vn 0.3137 0.9125 -0.2624
vn 0.9289 -0.2195 -0.2984
vn -0.0750 -0.9447 -0.3192
vn 0.5635 -0.6977 -0.4423
vn 0.3698 -0.9266 -0.0682
vn 0.6748 -0.6895 0.2632
vn -0.0486 -0.8504 -0.5238
vn 0.2296 -0.9560 -0.1824
vn 0.2067 -0.8578 -0.4706
vn -0.4619 0.8736 -0.1529
vn -0.0966 0.8418 0.5310
vn -0.3761 0.9266 0.0055
vn -0.2199 0.9755 -0.0019
vn -0.1859 0.9474 -0.2607
vn 0.0104 0.8843 0.4667
vn -0.2955 0.9467 0.1281
vn -0.2328 0.9634 0.1332
vn -0.3006 -0.9459 0.1223
vn -0.0806 -0.9769 -0.1980
vn 0.0185 -0.9964 -0.0830
vn -0.4105 -0.9051 -0.1109
vn -0.6181 -0.7835 -0.0645
vn 0.1932 -0.9783 -0.0747
vn -0.0866 -0.9588 -0.2705
vn 0.2051 -0.9751 -0.0842
vn 0.5430 0.8395 -0.0201
vn 0.0261 -0.9893 -0.1432
vn -0.5697 0.7552 0.3241
vn 0.9195 -0.2411 -0.3104
vn -0.8891 -0.3856 0.2464
vn -0.8827 -0.1667 0.4394
vn -0.9277 -0.3512 0.1268
vn 0.9839 0.0502 0.1714
vn 0.9181 -0.2421 -0.3139
vn -0.1256 0.3330 -0.9345
vn -0.5382 0.7186 0.4404
vn 0.1288 -0.2772 0.9522
vn -0.0288 -0.9409 -0.3376
vn -0.0694 0.8301 -0.5533
vn 0.5987 0.7832 0.1679
vn 0.3700 0.8297 -0.4180
vn -0.0850 -0.8678 -0.4897
vn -0.6490 0.7594 -0.0459
vn 0.7113 -0.1522 -0.6862
vn -0.9485 -0.3052 -0.0848
vn 0.0949 -0.9937 0.0601
vn -0.5082 0.7094 0.4883
vn 0.9598 -0.2655 -0.0906
vn -0.8167 -0.3978 0.4181
vn 0.5946 0.7855 0.1717
vn 0.3031 -0.1536 0.9405
vn 0.3030 -0.1536 0.9405
vn 0.6304 0.7080 0.3185
vn -0.0667 -0.8720 -0.4849
vn -0.5115 0.6733 0.5338
vn 0.9183 -0.2436 -0.3121
vn -0.9497 -0.3113 0.0339
vn 0.0449 -0.9868 0.1554
vn 0.8715 -0.4208 0.2518
vn -0.9610 -0.2729 -0.0446
vn 0.0096 0.9985 -0.0543
vn 0.5883 0.7311 0.3455
vn 0.4366 0.3593 -0.8248
vn 0.1321 -0.2768 0.9518
vn -0.6717 0.2423 -0.7001
vn 0.9837 0.0497 0.1728
vn -0.8853 -0.1653 0.4347
vn -0.5162 0.6575 0.5488
vn -0.1697 -0.4913 -0.8543
vn -0.0814 -0.8350 -0.5442
vn -0.1680 0.5860 -0.7927
s off
f 3/1/1 5/2/1 7/3/1
f 1/4/2 2/5/2 8/6/2
f 11/7/3 7/3/3 5/2/3 10/8/3
f 9/9/4 6/10/4 7/3/4 11/7/4
f 6/10/5 3/1/5 7/3/5
f 4/11/6 1/4/6 8/6/6
f 2/5/7 9/9/7 11/7/7 8/6/7
f 8/6/8 11/7/8 10/8/8 4/11/8
f 14/12/9 16/13/9 18/14/9
f 12/15/10 13/16/10 19/17/10
f 22/18/11 18/14/11 16/13/11 21/19/11
f 20/20/12 17/21/12 18/14/12 22/18/12
f 17/21/13 14/12/13 18/14/13
f 15/22/14 12/15/14 19/17/14
f 13/16/15 20/20/15 22/18/15 19/17/15
f 19/17/16 22/18/16 21/19/16 15/22/16
f 25/23/17 27/24/17 29/25/17
f 23/26/18 24/27/18 30/28/18
f 33/29/19 29/25/19 27/24/19 32/30/19
f 31/31/20 28/32/20 29/25/20 33/29/20
f 28/32/21 25/23/21 29/25/21
f 26/33/22 23/26/22 30/28/22
f 24/27/23 31/31/23 33/29/23 30/28/23
f 30/28/24 33/29/24 32/30/24 26/33/24
f 36/34/25 38/35/25 40/36/25
f 34/37/26 35/38/26 41/39/26
f 44/40/27 40/36/27 38/35/27 43/41/27
f 42/42/28 39/43/28 40/36/28 44/40/28
f 39/43/29 36/34/29 40/36/29
f 37/44/30 34/37/30 41/39/30
f 35/38/31 42/42/31 44/40/31 41/39/31
f 41/39/32 44/40/32 43/41/32 37/44/32
f 47/45/33 49/46/33 51/47/33
f 45/48/34 46/49/34 52/50/34
f 55/51/35 51/47/35 49/46/35 54/52/35
f 53/53/36 50/54/36 51/47/36 55/51/36
f 50/54/37 47/45/37 51/47/37
f 48/55/38 45/48/38 52/50/38
f 46/49/39 53/53/39 55/51/39 52/50/39
f 52/50/40 55/51/40 54/52/40 48/55/40
f 58/56/41 60/57/41 62/58/41
f 56/59/42 57/60/42 63/61/42
f 66/62/43 62/58/43 60/57/43 65/63/43
f 64/64/44 61/65/44 62/58/44 66/62/44
f 61/65/45 58/56/45 62/58/45
f 59/66/46 56/59/46 63/61/46
f 57/60/47 64/64/47 66/62/47 63/61/47
f 63/61/48 66/62/48 65/63/48 59/66/48
f 69/67/49 71/68/49 73/69/49
f 67/70/50 68/71/50 74/72/50
f 77/73/51 73/69/51 71/68/51 76/74/51
f 75/75/52 72/76/52 73/69/52 77/73/52
f 72/76/53 69/67/53 73/69/53
f 70/77/54 67/70/54 74/72/54
f 68/71/55 75/75/55 77/73/55 74/72/55
f 74/72/56 77/73/56 76/74/56 70/77/56
f 80/78/57 82/79/57 84/80/57
f 78/81/58 79/82/58 85/83/58
f 88/84/59 84/80/59 82/79/59 87/85/59
f 86/86/60 83/87/60 84/80/60 88/84/60
f 83/87/61 80/78/61 84/80/61
f 81/88/62 78/81/62 85/83/62
f 79/82/63 86/86/63 88/84/63 85/83/63
f 85/83/64 88/84/64 87/85/64 81/88/64
f 91/89/65 95/90/65 93/91/65
f 89/92/66 96/93/66 90/94/66
f 99/95/67 98/96/67 93/91/67 95/90/67
f 97/97/68 99/95/68 95/90/68 94/98/68
f 94/98/69 95/90/69 91/89/69
f 92/99/70 96/93/70 89/92/70
f 90/94/71 96/93/71 99/95/71 97/97/71
f 96/93/72 92/99/72 98/96/72 99/95/72
f 102/100/73 106/101/73 104/102/73
f 100/103/74 107/104/74 101/105/74
f 110/106/75 109/107/75 104/102/75 106/101/75
f 108/108/76 110/106/76 106/101/76 105/109/76
f 105/109/77 106/101/77 102/100/77
f 103/110/78 107/104/78 100/103/78
f 101/105/79 107/104/79 110/106/79 108/108/79
f 107/104/80 103/110/80 109/107/80 110/106/80
f 113/111/81 117/112/81 115/113/81
f 111/114/82 118/115/82 112/116/82
f 121/117/83 120/118/83 115/113/83 117/112/83
f 119/119/84 121/117/84 117/112/84 116/120/84
f 116/120/85 117/112/85 113/111/85
f 114/121/86 118/115/86 111/114/86
f 112/116/87 118/115/87 121/117/87 119/119/87
f 118/115/88 114/121/88 120/118/88 121/117/88
f 124/122/89 128/123/89 126/124/89
f 122/125/90 129/126/90 123/127/90
f 132/128/91 131/129/91 126/124/91 128/123/91
f 130/130/92 132/128/92 128/123/92 127/131/92
f 127/131/93 128/123/93 124/122/93
f 125/132/94 129/126/94 122/125/94
f 123/127/95 129/126/95 132/128/95 130/130/95
f 129/126/96 125/132/96 131/129/96 132/128/96
f 135/133/97 139/134/97 137/135/97
f 133/136/98 140/137/98 134/138/98
f 143/139/99 142/140/99 137/135/99 139/134/99
f 141/141/100 143/139/100 139/134/100 138/142/100
f 138/142/101 139/134/101 135/133/101
f 136/143/102 140/137/102 133/136/102
f 134/138/103 140/137/103 143/139/103 141/141/103
f 140/137/104 136/143/104 142/140/104 143/139/104
f 146/144/105 150/145/105 148/146/105
f 144/147/106 151/148/106 145/149/106
f 154/150/107 153/151/107 148/146/107 150/145/107
f 152/152/108 154/150/108 150/145/108 149/153/108
f 149/153/109 150/145/109 146/144/109
f 147/154/110 151/148/110 144/147/110
f 145/149/111 151/148/111 154/150/111 152/152/111
f 151/148/112 147/154/112 153/151/112 154/150/112
f 157/155/113 161/156/113 159/157/113
f 155/158/114 162/159/114 156/160/114
f 165/161/115 164/162/115 159/157/115 161/156/115
f 163/163/116 165/161/116 161/156/116 160/164/116
f 160/164/117 161/156/117 157/155/117
f 158/165/118 162/159/118 155/158/118
f 156/160/119 162/159/119 165/161/119 163/163/119
f 162/159/120 158/165/120 164/162/120 165/161/120
f 168/166/121 172/167/121 170/168/121
f 166/169/122 173/170/122 167/171/122
f 176/172/123 175/173/123 170/168/123 172/167/123
f 174/174/124 176/172/124 172/167/124 171/175/124
f 171/175/125 172/167/125 168/166/125
f 169/176/126 173/170/126 166/169/126
f 167/171/127 173/170/127 176/172/127 174/174/127
f 173/170/128 169/176/128 175/173/128 176/172/128
f 189/177/129 186/178/129 185/179/129 188/180/129
f 193/181/130 184/182/130 183/183/130 192/184/130
f 195/185/131 182/186/131 186/178/131 189/177/131
f 188/187/132 185/188/132 184/182/132 193/181/132
f 192/184/133 183/183/133 182/186/133 195/185/133
f 221/189/134 213/190/134 212/191/134 219/192/134
f 209/193/135 192/184/135 195/185/135 211/194/135
f 220/195/136 215/196/136 214/197/136 218/198/136
f 207/199/137 188/187/137 193/181/137 210/200/137
f 220/201/138 219/202/138 212/203/138 215/204/138
f 211/194/139 195/185/139 189/177/139 208/205/139
f 218/198/140 214/197/140 213/190/140 221/189/140
f 210/200/141 193/181/141 192/184/141 209/193/141
f 220/201/142 217/206/142 219/202/142
f 208/205/143 189/177/143 188/180/143 207/207/143
f 186/178/144 201/208/144 200/209/144 185/179/144
f 184/182/145 199/210/145 198/211/145 183/183/145
f 182/186/146 197/212/146 201/208/146 186/178/146
f 185/188/147 200/213/147 199/210/147 184/182/147
f 183/183/148 198/211/148 197/212/148 182/186/148
f 199/210/149 204/214/149 203/215/149 198/211/149
f 197/212/150 202/216/150 206/217/150 201/208/150
f 200/213/151 205/218/151 204/214/151 199/210/151
f 198/211/152 203/215/152 202/216/152 197/212/152
f 201/208/153 206/217/153 205/219/153 200/209/153
f 204/220/154 205/221/154 206/222/154 202/223/154
f 203/224/155 204/220/155 202/223/155
f 190/225/156 208/205/156 207/207/156 187/226/156
f 194/227/157 210/200/157 209/193/157 191/228/157
f 196/229/158 211/194/158 208/205/158 190/225/158
f 187/230/159 207/199/159 210/200/159 194/227/159
f 191/228/160 209/193/160 211/194/160 196/229/160
f 214/231/161 194/227/161 191/228/161 213/232/161
f 194/227/162 214/231/162 187/230/162
f 191/228/163 196/229/163 213/232/163
f 215/204/164 212/203/164 213/233/164 214/234/164
f 190/225/165 187/226/165 216/235/165 222/236/165
f 181/237/166 217/238/166 220/239/166 180/240/166
f 179/241/167 218/198/167 221/189/167 178/242/167
f 177/243/168 219/192/168 217/238/168 181/237/168
f 180/244/169 220/195/169 218/198/169 179/241/169
f 178/242/170 221/189/170 219/192/170 177/243/170
f 196/229/171 190/225/171 222/236/171 223/245/171
f 222/246/172 216/247/172 223/248/172
f 187/249/173 196/250/173 223/248/173 216/247/173
f 213/251/174 196/250/174 187/249/174 214/252/174
