# Blender v2.78 (sub 0) OBJ File: 'Low_Poly_Trees_Pack.blend'
# www.blender.org
g Palm_Tree_NoLeaves_crk_m_01
v 0.000000 0.000000 -0.232320
v -0.220949 0.000000 -0.071791
v -0.136554 0.000000 0.187951
v 0.136554 0.000000 0.187951
v 0.220949 0.000000 -0.071791
v 0.137702 1.903416 -0.172583
v -0.019384 1.912085 -0.057689
v 0.040617 1.908774 0.128214
v 0.234787 1.898058 0.128214
v 0.294789 1.894747 -0.057689
v 0.054667 0.165169 5.317873
v -0.018635 0.159456 5.326180
v -0.034888 0.088143 5.337370
v 0.028369 0.049784 5.335980
v 0.083717 0.097388 5.323929
v -0.069373 -0.031469 1.906889
v -0.064457 -0.002655 3.696285
v 0.028661 0.079816 3.697446
v 0.076840 0.097960 1.913282
v -0.193392 0.258065 1.894671
v -0.143462 0.181523 3.700830
v -0.170835 0.060204 3.698376
v -0.236386 0.067481 1.895387
v -0.020167 0.193644 3.700255
v 0.000193 0.276901 1.905730
v 0.100960 0.228087 5.435361
v -0.046134 0.216622 5.452030
v -0.078749 0.073521 5.474487
v 0.048187 -0.003454 5.471695
v 0.159253 0.092073 5.447515
v 0.094977 0.201355 5.746707
v 0.047082 0.197622 5.752135
v 0.036462 0.151027 5.759448
v 0.077793 0.125963 5.758540
v 0.113958 0.157067 5.750666
vt 0.4087 0.9264
vt 0.4078 0.9701
vt 0.4033 0.9702
vt 0.4025 0.9268
vt 0.4210 0.9277
vt 0.4166 0.9707
vt 0.4122 0.9703
vt 0.4149 0.9268
vt 0.3989 0.9704
vt 0.3963 0.9274
vt 0.3945 0.9707
vt 0.3901 0.9277
vt 0.4395 0.9087
vt 0.3989 0.9076
vt 0.3991 0.9057
vt 0.4396 0.9059
vt 0.4391 0.9171
vt 0.3984 0.9132
vt 0.3985 0.9113
vt 0.4393 0.9143
vt 0.4394 0.9115
vt 0.3988 0.9095
vt 0.4387 0.9199
vt 0.3985 0.9150
vt 0.4800 0.9176
vt 0.4800 0.9132
vt 0.4785 0.9263
vt 0.4795 0.9220
vt 0.4798 0.9089
vt 0.4799 0.9045
vt 0.3958 0.9073
vt 0.3956 0.9045
vt 0.3955 0.9131
vt 0.3958 0.9112
vt 0.3959 0.9094
vt 0.3950 0.9159
vt 0.3905 0.9114
vt 0.3908 0.9105
vt 0.3908 0.9096
vt 0.3906 0.9087
vt 0.3901 0.9122
vt 0.3903 0.9078
vt 0.4355 0.9633
vt 0.4362 0.9624
vt 0.4372 0.9627
vt 0.4372 0.9638
vt 0.4362 0.9642
vt 0.6759 0.9367
vt 0.6714 0.9367
vt 0.6701 0.9325
vt 0.6737 0.9299
vt 0.6773 0.9325
vt 0.6845 0.9342
vt 0.6787 0.9299
vt 0.6831 0.9299
vt 0.6809 0.9368
vt 0.6773 0.9342
vn -0.5865 0.0678 -0.8071
vn 0.0007 0.0313 0.9995
vn 0.5885 -0.0171 -0.8083
vn -0.9466 0.0975 0.3074
vn 0.9505 -0.0394 0.3083
vn 0.6584 -0.7526 -0.0137
vn -0.9716 0.2236 0.0772
vn 0.9187 0.3933 -0.0355
vn -0.5107 -0.8579 0.0567
vn -0.0894 0.9958 0.0210
vn -0.0986 0.9941 0.0449
vn -0.5097 -0.8602 0.0152
vn 0.9186 0.3942 0.0288
vn -0.9749 0.2197 0.0363
vn 0.6627 -0.7488 0.0103
vn 0.5572 -0.7421 -0.3725
vn -0.9436 0.1706 -0.2837
vn 0.8179 0.3070 -0.4867
vn -0.5061 -0.8255 -0.2499
vn -0.1186 0.8940 -0.4320
vn -0.9183 0.2566 0.3015
vn 0.9162 0.3973 0.0517
vn -0.4680 -0.7864 0.4031
vn -0.0680 0.9941 0.0841
vn 0.6621 -0.7064 0.2504
vn 0.1015 0.1316 0.9861
vn 0.0587 -0.0170 -0.9981
vn 0.0551 0.9985 0.0000
s off
f 2/1/1 7/2/1 6/3/1 1/4/1
f 4/5/2 9/6/2 8/7/2 3/8/2
f 1/4/3 6/3/3 10/9/3 5/10/3
f 3/8/4 8/7/4 7/2/4 2/1/4
f 5/10/5 10/9/5 9/11/5 4/12/5
f 18/13/6 15/14/6 14/15/6 17/16/6
f 22/17/7 13/18/7 12/19/7 21/20/7
f 24/21/8 11/22/8 15/14/8 18/13/8
f 17/23/9 14/24/9 13/18/9 22/17/9
f 21/20/10 12/19/10 11/22/10 24/21/10
f 20/25/11 21/20/11 24/21/11 25/26/11
f 16/27/12 17/23/12 22/17/12 23/28/12
f 25/26/13 24/21/13 18/13/13 19/29/13
f 23/28/14 22/17/14 21/20/14 20/25/14
f 19/29/15 18/13/15 17/16/15 16/30/15
f 15/14/16 30/31/16 29/32/16 14/15/16
f 13/18/17 28/33/17 27/34/17 12/19/17
f 11/22/18 26/35/18 30/31/18 15/14/18
f 14/24/19 29/36/19 28/33/19 13/18/19
f 12/19/20 27/34/20 26/35/20 11/22/20
f 28/33/21 33/37/21 32/38/21 27/34/21
f 26/35/22 31/39/22 35/40/22 30/31/22
f 29/36/23 34/41/23 33/37/23 28/33/23
f 27/34/24 32/38/24 31/39/24 26/35/24
f 30/31/25 35/40/25 34/42/25 29/32/25
f 33/43/26 34/44/26 35/45/26 31/46/26
f 32/47/26 33/43/26 31/46/26
f 19/48/27 16/49/27 23/50/27 20/51/27
f 25/52/27 19/48/27 20/51/27
f 10/53/28 8/54/28 9/55/28
f 6/56/28 7/57/28 8/54/28 10/53/28
