# Blender v2.78 (sub 0) OBJ File: 'Low_Poly_Trees_Pack.blend'
# www.blender.org
g Palm_Tree_crk_m_01
v 0.488663 0.574059 3.860921
v 0.470837 0.884308 4.443379
v 0.071091 0.157992 5.669802
v 0.825730 0.434916 4.411245
v 0.655142 0.266123 5.287087
v 0.296319 0.743954 5.345459
v 0.504893 0.520509 5.368898
v 0.685256 0.686757 4.456022
v 0.412064 0.872258 4.975624
v 0.837188 0.333934 4.937127
v 0.670825 0.637014 4.992250
v -1.196976 0.772668 4.482442
v -1.210757 0.635870 5.093086
v 0.045197 0.153791 5.693087
v -0.872634 1.027265 4.953368
v -0.230610 0.718968 5.533531
v -0.584576 0.309233 5.679796
v -0.402984 0.529657 5.661398
v -1.045522 0.851131 5.068769
v -1.003289 0.529649 5.500886
v -0.598254 0.998500 5.333518
v -0.805554 0.788521 5.474111
v 0.649030 0.026982 7.430007
v 0.900022 0.001979 6.868820
v 0.067829 0.154704 5.697403
v 0.261700 0.001523 7.139413
v -0.022032 0.045465 6.359227
v 0.646481 0.051036 6.075596
v 0.314921 0.145934 6.212868
v 0.592098 0.028723 7.003302
v 0.854856 -0.005592 6.431059
v 0.089027 0.007599 6.756722
v 0.483653 0.062096 6.595858
v 1.777832 0.119230 4.388698
v 1.463900 0.533040 4.805716
v 0.011556 0.154616 5.674026
v 1.557508 0.000584 4.951315
v 0.653622 -0.018924 5.644179
v 0.569028 0.582766 5.435815
v 0.623217 0.289894 5.694654
v 1.536615 0.246123 5.037213
v 1.053730 0.628744 5.198477
v 1.168926 -0.029172 5.415689
v 1.141774 0.286602 5.478396
v -0.524018 0.649877 3.562077
v -0.688080 0.935772 4.273407
v -0.006009 0.140111 5.671356
v 0.072735 0.837713 4.104746
v 0.374452 0.652806 5.144599
v -0.425064 0.739661 5.315771
v -0.003903 0.727379 5.290488
v -0.288746 0.930789 4.228377
v -0.611083 0.935861 4.848968
v 0.300293 0.818396 4.646928
v -0.131746 0.932166 4.797057
v -1.477749 0.453972 3.902503
v -1.385329 0.139044 4.332519
v 0.039250 0.163830 5.645572
v -1.383463 0.668089 4.625634
v -0.650885 0.550199 5.540775
v -0.644907 -0.003579 5.206185
v -0.633222 0.170335 5.476917
v -1.412185 0.301306 4.597633
v -1.071676 -0.030104 4.815383
v -1.071154 0.639183 5.139417
v -1.083048 0.204918 5.077693
v 0.488495 0.573921 3.861003
v 0.470680 0.884138 4.443404
v 0.070991 0.157942 5.669598
v 0.825530 0.434800 4.411273
v 0.654971 0.266067 5.286940
v 0.296202 0.743822 5.345307
v 0.504755 0.520421 5.368733
v 0.685076 0.686613 4.456050
v 0.411913 0.872093 4.975561
v 0.836987 0.333836 4.937066
v 0.670646 0.636882 4.992183
v -1.196806 0.772512 4.482419
v -1.210586 0.635731 5.093009
v 0.045168 0.153737 5.692864
v -0.872497 1.027089 4.953305
v -0.230631 0.718853 5.533331
v -0.584540 0.309185 5.679572
v -0.402983 0.529579 5.661180
v -1.045367 0.850973 5.068700
v -1.003173 0.529543 5.500714
v -0.598189 0.998336 5.333367
v -0.805467 0.788387 5.473942
v 0.649033 0.026750 7.430005
v 0.899993 0.001749 6.868819
v 0.067830 0.154472 5.697398
v 0.261719 0.001291 7.139400
v -0.021994 0.045239 6.359187
v 0.646424 0.050811 6.075595
v 0.314913 0.145702 6.212852
v 0.592093 0.028490 7.003296
v 0.854810 -0.005820 6.431052
v 0.089051 0.007370 6.756691
v 0.483641 0.061865 6.595839
v 1.777617 0.119175 4.388628
v 1.463722 0.532921 4.805626
v 0.011579 0.154548 5.673805
v 1.557306 0.000601 4.951201
v 0.653567 -0.018890 5.643956
v 0.568999 0.582611 5.435644
v 0.623185 0.289825 5.694434
v 1.536423 0.246069 5.037094
v 1.053617 0.628599 5.198335
v 1.168785 -0.029144 5.415506
v 1.141646 0.286538 5.478213
v -0.524024 0.649664 3.562169
v -0.688078 0.935543 4.273448
v -0.006062 0.139988 5.671166
v 0.072694 0.837490 4.104795
v 0.374368 0.652620 5.144487
v -0.425077 0.739469 5.315641
v -0.003956 0.727203 5.290346
v -0.288765 0.930562 4.228425
v -0.611090 0.935632 4.848928
v 0.300229 0.818174 4.646904
v -0.131782 0.931939 4.797019
v -1.477518 0.453987 3.902485
v -1.385115 0.139126 4.332482
v 0.039300 0.163945 5.645376
v -1.383247 0.668085 4.625549
v -0.650763 0.550232 5.540580
v -0.644817 -0.003406 5.206059
v -0.633127 0.170448 5.476737
v -1.411972 0.301359 4.597558
v -1.071520 -0.029964 4.815285
v -1.070976 0.639199 5.139268
v -1.082882 0.205006 5.077557
v 0.000000 0.000000 -0.232320
v -0.220949 0.000000 -0.071791
v -0.136554 0.000000 0.187951
v 0.136554 0.000000 0.187951
v 0.220949 0.000000 -0.071791
v 0.137702 1.903416 -0.172583
v -0.019384 1.912085 -0.057689
v 0.040617 1.908774 0.128214
v 0.234787 1.898058 0.128214
v 0.294789 1.894747 -0.057689
v 0.054667 0.165169 5.317873
v -0.018635 0.159456 5.326180
v -0.034888 0.088143 5.337370
v 0.028369 0.049784 5.335980
v 0.083717 0.097388 5.323929
v -0.069373 -0.031469 1.906889
v -0.064457 -0.002655 3.696285
v 0.028661 0.079816 3.697446
v 0.076840 0.097960 1.913282
v -0.193392 0.258065 1.894671
v -0.143462 0.181523 3.700830
v -0.170835 0.060204 3.698376
v -0.236386 0.067481 1.895387
v -0.020167 0.193644 3.700255
v 0.000193 0.276901 1.905730
v 0.100960 0.228087 5.435361
v -0.046134 0.216622 5.452030
v -0.078749 0.073521 5.474487
v 0.048187 -0.003454 5.471695
v 0.159253 0.092073 5.447515
v 0.094977 0.201355 5.746707
v 0.047082 0.197622 5.752135
v 0.036462 0.151027 5.759448
v 0.077793 0.125963 5.758540
v 0.113958 0.157067 5.750666
vt 0.6822 0.0122
vt 0.6934 0.0381
vt 0.6822 0.0372
vt 0.6822 0.1057
vt 0.6715 0.0805
vt 0.6822 0.0797
vt 0.6822 0.0596
vt 0.6954 0.0606
vt 0.6690 0.0606
vt 0.6710 0.0381
vt 0.6929 0.0805
vt 0.8163 0.0122
vt 0.8275 0.0381
vt 0.8163 0.0372
vt 0.8163 0.1057
vt 0.8056 0.0805
vt 0.8163 0.0797
vt 0.8163 0.0596
vt 0.8295 0.0606
vt 0.8031 0.0606
vt 0.8051 0.0381
vt 0.8270 0.0805
vt 0.6822 0.0122
vt 0.6934 0.0381
vt 0.6822 0.0372
vt 0.6822 0.1057
vt 0.6715 0.0805
vt 0.6822 0.0797
vt 0.6822 0.0596
vt 0.6954 0.0606
vt 0.6690 0.0606
vt 0.6710 0.0381
vt 0.6929 0.0805
vt 0.8163 0.0122
vt 0.8275 0.0381
vt 0.8163 0.0372
vt 0.8163 0.1057
vt 0.8056 0.0805
vt 0.8163 0.0797
vt 0.8163 0.0596
vt 0.8295 0.0606
vt 0.8031 0.0606
vt 0.8051 0.0381
vt 0.8270 0.0805
vt 0.8163 0.0122
vt 0.8275 0.0381
vt 0.8163 0.0372
vt 0.8163 0.1057
vt 0.8056 0.0805
vt 0.8163 0.0797
vt 0.8163 0.0596
vt 0.8295 0.0606
vt 0.8031 0.0606
vt 0.8051 0.0381
vt 0.8270 0.0805
vt 0.6822 0.0122
vt 0.6934 0.0381
vt 0.6822 0.0372
vt 0.6822 0.1057
vt 0.6715 0.0805
vt 0.6822 0.0797
vt 0.6822 0.0596
vt 0.6954 0.0606
vt 0.6690 0.0606
vt 0.6710 0.0381
vt 0.6929 0.0805
vt 0.6822 0.0372
vt 0.6934 0.0381
vt 0.6822 0.0122
vt 0.6822 0.0797
vt 0.6715 0.0805
vt 0.6822 0.1057
vt 0.6954 0.0606
vt 0.6822 0.0596
vt 0.6710 0.0381
vt 0.6690 0.0606
vt 0.6929 0.0805
vt 0.8163 0.0372
vt 0.8275 0.0381
vt 0.8163 0.0122
vt 0.8163 0.0797
vt 0.8056 0.0805
vt 0.8163 0.1057
vt 0.8295 0.0606
vt 0.8163 0.0596
vt 0.8051 0.0381
vt 0.8031 0.0606
vt 0.8270 0.0805
vt 0.6822 0.0372
vt 0.6934 0.0381
vt 0.6822 0.0122
vt 0.6822 0.0797
vt 0.6715 0.0805
vt 0.6822 0.1057
vt 0.6954 0.0606
vt 0.6822 0.0596
vt 0.6710 0.0381
vt 0.6690 0.0606
vt 0.6929 0.0805
vt 0.8163 0.0372
vt 0.8275 0.0381
vt 0.8163 0.0122
vt 0.8163 0.0797
vt 0.8056 0.0805
vt 0.8163 0.1057
vt 0.8295 0.0606
vt 0.8163 0.0596
vt 0.8051 0.0381
vt 0.8031 0.0606
vt 0.8270 0.0805
vt 0.8163 0.0372
vt 0.8275 0.0381
vt 0.8163 0.0122
vt 0.8163 0.0797
vt 0.8056 0.0805
vt 0.8163 0.1057
vt 0.8295 0.0606
vt 0.8163 0.0596
vt 0.8051 0.0381
vt 0.8031 0.0606
vt 0.8270 0.0805
vt 0.6822 0.0372
vt 0.6934 0.0381
vt 0.6822 0.0122
vt 0.6822 0.0797
vt 0.6715 0.0805
vt 0.6822 0.1057
vt 0.6954 0.0606
vt 0.6822 0.0596
vt 0.6710 0.0381
vt 0.6690 0.0606
vt 0.6929 0.0805
vt 0.4113 0.9265
vt 0.4103 0.9758
vt 0.4053 0.9759
vt 0.4043 0.9269
vt 0.4253 0.9279
vt 0.4203 0.9765
vt 0.4153 0.9761
vt 0.4183 0.9269
vt 0.4003 0.9762
vt 0.3973 0.9276
vt 0.3953 0.9765
vt 0.3903 0.9279
vt 0.4462 0.9064
vt 0.4003 0.9052
vt 0.4005 0.9031
vt 0.4463 0.9033
vt 0.4457 0.9159
vt 0.3998 0.9115
vt 0.3998 0.9094
vt 0.4460 0.9128
vt 0.4461 0.9096
vt 0.4002 0.9073
vt 0.4453 0.9191
vt 0.3998 0.9136
vt 0.4919 0.9165
vt 0.4919 0.9116
vt 0.4903 0.9264
vt 0.4913 0.9215
vt 0.4918 0.9067
vt 0.4918 0.9017
vt 0.3968 0.9049
vt 0.3966 0.9017
vt 0.3965 0.9115
vt 0.3968 0.9093
vt 0.3969 0.9072
vt 0.3959 0.9146
vt 0.3908 0.9095
vt 0.3911 0.9085
vt 0.3912 0.9074
vt 0.3910 0.9064
vt 0.3903 0.9104
vt 0.3906 0.9054
vt 0.4417 0.9681
vt 0.4424 0.9671
vt 0.4436 0.9675
vt 0.4436 0.9687
vt 0.4424 0.9691
vt 0.6876 0.9663
vt 0.6826 0.9663
vt 0.6811 0.9615
vt 0.6851 0.9586
vt 0.6892 0.9615
vt 0.6973 0.9634
vt 0.6908 0.9586
vt 0.6958 0.9586
vt 0.6933 0.9663
vt 0.6893 0.9634
vn 0.5410 0.0495 0.8396
vn 0.6474 0.6807 -0.3428
vn 0.8101 0.3434 0.4751
vn 0.6076 0.6579 0.4450
vn 0.2992 0.3715 0.8789
vn 0.7880 0.5027 -0.3555
vn 0.6693 0.7377 0.0885
vn 0.8783 0.4731 0.0696
vn 0.2509 0.3745 0.8926
vn -0.7810 0.6130 0.1197
vn -0.0162 0.5685 0.8225
vn -0.2477 0.2834 0.9265
vn -0.0004 0.0835 0.9965
vn -0.6847 0.7244 0.0799
vn -0.6684 0.5640 0.4849
vn -0.4964 0.7631 0.4138
vn -0.2321 0.9643 0.1277
vn 0.0835 0.9965 -0.0071
vn -0.1237 0.9728 0.1960
vn 0.2483 0.9670 0.0571
vn 0.2366 0.9668 -0.0969
vn -0.0762 0.9970 0.0142
vn 0.1398 0.9902 0.0048
vn -0.0800 0.9937 0.0781
vn 0.0023 -0.1611 0.9869
vn 0.8750 0.4183 0.2436
vn 0.3904 -0.1292 0.9115
vn 0.2875 0.6563 0.6976
vn -0.1660 0.6356 0.7539
vn 0.9334 -0.0451 0.3560
vn 0.6314 0.5799 0.5148
vn 0.7512 -0.1081 0.6512
vn 0.3957 0.4987 0.7712
vn -0.0312 0.9249 -0.3789
vn 0.3121 0.9090 0.2761
vn 0.0483 0.9272 0.3714
vn 0.0661 0.5428 0.8373
vn 0.0915 0.9056 -0.4141
vn 0.0095 0.9999 -0.0032
vn 0.2309 0.9709 -0.0643
vn -0.2412 -0.1718 0.9551
vn -0.9726 -0.2288 0.0415
vn -0.6814 -0.1163 0.7226
vn -0.4860 -0.6933 0.5322
vn -0.1433 -0.8299 0.5393
vn -0.9916 0.0694 0.1088
vn -0.7587 -0.5456 0.3560
vn -0.8411 -0.0179 0.5406
vn -0.5410 -0.0495 -0.8396
vn -0.6474 -0.6807 0.3428
vn -0.8102 -0.3434 -0.4751
vn -0.6076 -0.6579 -0.4450
vn -0.2992 -0.3715 -0.8789
vn -0.7880 -0.5027 0.3555
vn -0.6693 -0.7377 -0.0885
vn -0.8783 -0.4731 -0.0696
vn -0.2509 -0.3745 -0.8926
vn 0.7810 -0.6130 -0.1197
vn 0.0162 -0.5685 -0.8225
vn 0.2477 -0.2834 -0.9265
vn 0.0004 -0.0835 -0.9965
vn 0.6847 -0.7244 -0.0799
vn 0.6685 -0.5640 -0.4849
vn 0.4964 -0.7631 -0.4138
vn 0.2321 -0.9643 -0.1277
vn -0.0835 -0.9965 0.0071
vn 0.1237 -0.9728 -0.1960
vn -0.2483 -0.9670 -0.0571
vn -0.2366 -0.9668 0.0970
vn 0.0762 -0.9970 -0.0142
vn -0.1398 -0.9902 -0.0048
vn 0.0800 -0.9937 -0.0781
vn -0.0024 0.1611 -0.9869
vn -0.8750 -0.4183 -0.2436
vn -0.3904 0.1293 -0.9115
vn -0.2875 -0.6563 -0.6976
vn 0.1660 -0.6356 -0.7539
vn -0.9334 0.0452 -0.3560
vn -0.6314 -0.5799 -0.5148
vn -0.7512 0.1081 -0.6512
vn -0.3956 -0.4987 -0.7712
vn 0.0312 -0.9249 0.3789
vn -0.3121 -0.9090 -0.2761
vn -0.0483 -0.9272 -0.3714
vn -0.0661 -0.5428 -0.8373
vn -0.0915 -0.9056 0.4141
vn -0.0095 -0.9999 0.0032
vn -0.2309 -0.9709 0.0643
vn 0.2412 0.1718 -0.9552
vn 0.9726 0.2288 -0.0415
vn 0.6814 0.1163 -0.7226
vn 0.4859 0.6933 -0.5321
vn 0.1433 0.8299 -0.5392
vn 0.9916 -0.0694 -0.1087
vn 0.7587 0.5456 -0.3560
vn 0.8411 0.0179 -0.5406
vn -0.5865 0.0678 -0.8071
vn 0.0007 0.0313 0.9995
vn 0.5885 -0.0171 -0.8083
vn -0.9466 0.0975 0.3074
vn 0.9505 -0.0394 0.3083
vn 0.6584 -0.7526 -0.0137
vn -0.9716 0.2236 0.0772
vn 0.9187 0.3933 -0.0355
vn -0.5107 -0.8579 0.0567
vn -0.0894 0.9958 0.0210
vn -0.0986 0.9941 0.0449
vn -0.5097 -0.8602 0.0152
vn 0.9186 0.3942 0.0288
vn -0.9749 0.2197 0.0363
vn 0.6627 -0.7488 0.0103
vn 0.5572 -0.7421 -0.3725
vn -0.9436 0.1706 -0.2837
vn 0.8179 0.3070 -0.4867
vn -0.5061 -0.8255 -0.2499
vn -0.1186 0.8940 -0.4320
vn -0.9183 0.2566 0.3015
vn 0.9162 0.3973 0.0517
vn -0.4680 -0.7864 0.4031
vn -0.0680 0.9941 0.0841
vn 0.6621 -0.7064 0.2504
vn 0.1015 0.1316 0.9861
vn 0.0587 -0.0170 -0.9981
vn 0.0551 0.9985 0.0000
s off
f 3/1/1 5/2/1 7/3/1
f 1/4/2 2/5/2 8/6/2
f 11/7/3 7/3/3 5/2/3 10/8/3
f 9/9/4 6/10/4 7/3/4 11/7/4
f 6/10/5 3/1/5 7/3/5
f 4/11/6 1/4/6 8/6/6
f 2/5/7 9/9/7 11/7/7 8/6/7
f 8/6/8 11/7/8 10/8/8 4/11/8
f 14/12/9 16/13/9 18/14/9
f 12/15/10 13/16/10 19/17/10
f 22/18/11 18/14/11 16/13/11 21/19/11
f 20/20/12 17/21/12 18/14/12 22/18/12
f 17/21/13 14/12/13 18/14/13
f 15/22/14 12/15/14 19/17/14
f 13/16/15 20/20/15 22/18/15 19/17/15
f 19/17/16 22/18/16 21/19/16 15/22/16
f 25/23/17 27/24/17 29/25/17
f 23/26/18 24/27/18 30/28/18
f 33/29/19 29/25/19 27/24/19 32/30/19
f 31/31/20 28/32/20 29/25/20 33/29/20
f 28/32/21 25/23/21 29/25/21
f 26/33/22 23/26/22 30/28/22
f 24/27/23 31/31/23 33/29/23 30/28/23
f 30/28/24 33/29/24 32/30/24 26/33/24
f 36/34/25 38/35/25 40/36/25
f 34/37/26 35/38/26 41/39/26
f 44/40/27 40/36/27 38/35/27 43/41/27
f 42/42/28 39/43/28 40/36/28 44/40/28
f 39/43/29 36/34/29 40/36/29
f 37/44/30 34/37/30 41/39/30
f 35/38/31 42/42/31 44/40/31 41/39/31
f 41/39/32 44/40/32 43/41/32 37/44/32
f 47/45/33 49/46/33 51/47/33
f 45/48/34 46/49/34 52/50/34
f 55/51/35 51/47/35 49/46/35 54/52/35
f 53/53/36 50/54/36 51/47/36 55/51/36
f 50/54/37 47/45/37 51/47/37
f 48/55/38 45/48/38 52/50/38
f 46/49/39 53/53/39 55/51/39 52/50/39
f 52/50/40 55/51/40 54/52/40 48/55/40
f 58/56/41 60/57/41 62/58/41
f 56/59/42 57/60/42 63/61/42
f 66/62/43 62/58/43 60/57/43 65/63/43
f 64/64/44 61/65/44 62/58/44 66/62/44
f 61/65/45 58/56/45 62/58/45
f 59/66/46 56/59/46 63/61/46
f 57/60/47 64/64/47 66/62/47 63/61/47
f 63/61/48 66/62/48 65/63/48 59/66/48
f 73/67/49 71/68/49 69/69/49
f 74/70/50 68/71/50 67/72/50
f 76/73/51 71/68/51 73/67/51 77/74/51
f 77/74/52 73/67/52 72/75/52 75/76/52
f 73/67/53 69/69/53 72/75/53
f 74/70/54 67/72/54 70/77/54
f 74/70/55 77/74/55 75/76/55 68/71/55
f 70/77/56 76/73/56 77/74/56 74/70/56
f 84/78/57 82/79/57 80/80/57
f 85/81/58 79/82/58 78/83/58
f 87/84/59 82/79/59 84/78/59 88/85/59
f 88/85/60 84/78/60 83/86/60 86/87/60
f 84/78/61 80/80/61 83/86/61
f 85/81/62 78/83/62 81/88/62
f 85/81/63 88/85/63 86/87/63 79/82/63
f 81/88/64 87/84/64 88/85/64 85/81/64
f 95/89/65 93/90/65 91/91/65
f 96/92/66 90/93/66 89/94/66
f 98/95/67 93/90/67 95/89/67 99/96/67
f 99/96/68 95/89/68 94/97/68 97/98/68
f 95/89/69 91/91/69 94/97/69
f 96/92/70 89/94/70 92/99/70
f 96/92/71 99/96/71 97/98/71 90/93/71
f 92/99/72 98/95/72 99/96/72 96/92/72
f 106/100/73 104/101/73 102/102/73
f 107/103/74 101/104/74 100/105/74
f 109/106/75 104/101/75 106/100/75 110/107/75
f 110/107/76 106/100/76 105/108/76 108/109/76
f 106/100/77 102/102/77 105/108/77
f 107/103/78 100/105/78 103/110/78
f 107/103/79 110/107/79 108/109/79 101/104/79
f 103/110/80 109/106/80 110/107/80 107/103/80
f 117/111/81 115/112/81 113/113/81
f 118/114/82 112/115/82 111/116/82
f 120/117/83 115/112/83 117/111/83 121/118/83
f 121/118/84 117/111/84 116/119/84 119/120/84
f 117/111/85 113/113/85 116/119/85
f 118/114/86 111/116/86 114/121/86
f 118/114/87 121/118/87 119/120/87 112/115/87
f 114/121/88 120/117/88 121/118/88 118/114/88
f 128/122/89 126/123/89 124/124/89
f 129/125/90 123/126/90 122/127/90
f 131/128/91 126/123/91 128/122/91 132/129/91
f 132/129/92 128/122/92 127/130/92 130/131/92
f 128/122/93 124/124/93 127/130/93
f 129/125/94 122/127/94 125/132/94
f 129/125/95 132/129/95 130/131/95 123/126/95
f 125/132/96 131/128/96 132/129/96 129/125/96
f 134/133/97 139/134/97 138/135/97 133/136/97
f 136/137/98 141/138/98 140/139/98 135/140/98
f 133/136/99 138/135/99 142/141/99 137/142/99
f 135/140/100 140/139/100 139/134/100 134/133/100
f 137/142/101 142/141/101 141/143/101 136/144/101
f 150/145/102 147/146/102 146/147/102 149/148/102
f 154/149/103 145/150/103 144/151/103 153/152/103
f 156/153/104 143/154/104 147/146/104 150/145/104
f 149/155/105 146/156/105 145/150/105 154/149/105
f 153/152/106 144/151/106 143/154/106 156/153/106
f 152/157/107 153/152/107 156/153/107 157/158/107
f 148/159/108 149/155/108 154/149/108 155/160/108
f 157/158/109 156/153/109 150/145/109 151/161/109
f 155/160/110 154/149/110 153/152/110 152/157/110
f 151/161/111 150/145/111 149/148/111 148/162/111
f 147/146/112 162/163/112 161/164/112 146/147/112
f 145/150/113 160/165/113 159/166/113 144/151/113
f 143/154/114 158/167/114 162/163/114 147/146/114
f 146/156/115 161/168/115 160/165/115 145/150/115
f 144/151/116 159/166/116 158/167/116 143/154/116
f 160/165/117 165/169/117 164/170/117 159/166/117
f 158/167/118 163/171/118 167/172/118 162/163/118
f 161/168/119 166/173/119 165/169/119 160/165/119
f 159/166/120 164/170/120 163/171/120 158/167/120
f 162/163/121 167/172/121 166/174/121 161/164/121
f 165/175/122 166/176/122 167/177/122 163/178/122
f 164/179/122 165/175/122 163/178/122
f 151/180/123 148/181/123 155/182/123 152/183/123
f 157/184/123 151/180/123 152/183/123
f 142/185/124 140/186/124 141/187/124
f 138/188/124 139/189/124 140/186/124 142/185/124
