# Blender v2.78 (sub 0) OBJ File: 'Low_Poly_Trees_Pack.blend'
# www.blender.org
g Palm_Tree_Coconut_s_06
v -0.791824 2.636897 -0.599330
v -1.061660 2.976321 -0.325056
v -0.510232 3.613562 0.429943
v -0.585896 3.086317 -0.564090
v -0.437611 3.548130 -0.093785
v -0.935669 3.432980 0.156449
v -0.700344 3.532784 0.028218
v -0.838661 3.065797 -0.454187
v -1.059246 3.247220 -0.052415
v -0.489329 3.378984 -0.338753
v -0.792884 3.356182 -0.207597
v -1.374159 2.476148 0.597160
v -1.315967 2.917618 0.834519
v -0.518282 3.644458 0.462052
v -1.379980 2.927232 0.350889
v -0.938767 3.524153 0.268331
v -0.869397 3.502395 0.773937
v -0.918700 3.557580 0.523788
v -1.372312 2.954933 0.595474
v -1.131648 3.274390 0.860292
v -1.208328 3.285907 0.280954
v -1.200400 3.320769 0.574084
v 0.726566 2.856576 0.636194
v 0.599311 3.321069 0.444681
v -0.513596 3.630085 0.438861
v 0.425075 3.213350 0.921806
v -0.169382 3.626386 0.864195
v 0.009127 3.729240 0.361180
v -0.097225 3.721180 0.619037
v 0.510175 3.306549 0.694549
v 0.339146 3.594924 0.376232
v 0.130429 3.465889 0.947778
v 0.232265 3.579563 0.676132
v 0.402892 2.859136 -0.511174
v 0.074506 3.237317 -0.542096
v -0.524306 3.618046 0.455654
v 0.415649 3.257609 -0.205372
v -0.026411 3.666629 0.288509
v -0.380184 3.621864 -0.065172
v -0.211326 3.689667 0.113129
v 0.249305 3.286700 -0.381387
v -0.179798 3.481074 -0.359582
v 0.228856 3.505383 0.043778
v 0.029811 3.542257 -0.167464
v -0.791477 2.636727 -0.598714
v -1.061241 2.975996 -0.324560
v -0.510045 3.612861 0.429995
v -0.585620 3.085960 -0.563520
v -0.437446 3.547477 -0.093511
v -0.935314 3.432370 0.156625
v -0.700097 3.532126 0.028406
v -0.838311 3.065472 -0.453639
v -1.058842 3.246727 -0.052065
v -0.489099 3.378451 -0.338315
v -0.792564 3.355661 -0.207205
v -1.373438 2.476145 0.597064
v -1.315289 2.917437 0.834329
v -0.518136 3.643748 0.462004
v -1.379276 2.927047 0.350890
v -0.938399 3.523529 0.268390
v -0.869072 3.501775 0.773741
v -0.918390 3.556926 0.523723
v -1.371612 2.954761 0.595378
v -1.131103 3.273953 0.860088
v -1.207749 3.285469 0.280985
v -1.199836 3.320319 0.573995
v 0.725948 2.856316 0.635911
v 0.598753 3.320659 0.444459
v -0.513410 3.629385 0.438785
v 0.424564 3.212969 0.921457
v -0.169442 3.625721 0.863908
v 0.009001 3.728528 0.361107
v -0.097246 3.720472 0.618875
v 0.509632 3.306158 0.694263
v 0.338755 3.594336 0.376061
v 0.130095 3.465342 0.947434
v 0.231912 3.578981 0.675877
v 0.402439 2.858829 -0.510696
v 0.074198 3.236863 -0.541619
v -0.524182 3.617331 0.455617
v 0.415205 3.257146 -0.205030
v -0.026558 3.665918 0.288551
v -0.380140 3.621170 -0.064961
v -0.211341 3.688947 0.113221
v 0.248919 3.286248 -0.380968
v -0.179947 3.480462 -0.359218
v 0.228534 3.504766 0.043989
v 0.029579 3.541631 -0.167176
v -0.311142 3.510456 0.529091
v -0.367033 3.412571 0.483824
v -0.339537 3.523052 0.435400
v -0.349049 3.611643 0.494864
v -0.382425 3.555911 0.580038
v -0.393539 3.432879 0.573214
v -0.439483 3.453261 0.421619
v -0.428368 3.576293 0.428443
v -0.454874 3.596601 0.517833
v -0.482371 3.486120 0.566256
v -0.472859 3.397529 0.506793
v -0.510765 3.498716 0.472566
v 0.129627 0.000000 0.098700
v 0.133952 0.000000 -0.093941
v -0.047924 0.000000 -0.157585
v -0.164655 0.000000 -0.004277
v -0.054923 0.000000 0.154116
v -0.458926 3.439593 0.470813
v -0.458761 3.445714 0.422282
v -0.503772 3.436157 0.405688
v -0.531757 3.424132 0.443963
v -0.504040 3.426255 0.484213
v -0.205461 1.254786 0.129923
v -0.383611 2.370931 0.360727
v -0.336566 2.368494 0.428131
v -0.131710 1.252598 0.235934
v -0.005888 1.264059 0.070687
v -0.256860 2.381252 0.323451
v -0.334350 2.378816 0.296031
v -0.127698 1.261870 0.027795
v -0.258229 2.374873 0.405093
v -0.008368 1.258328 0.199324
v -0.452265 3.525439 0.506668
v -0.451933 3.537719 0.409282
v -0.542257 3.518544 0.375983
v -0.598412 3.494412 0.452790
v -0.542794 3.498673 0.533557
v -0.542915 3.711033 0.501148
v -0.542807 3.715031 0.469438
v -0.572217 3.708788 0.458596
v -0.590502 3.700931 0.483605
v -0.572392 3.702318 0.509903
v -0.589427 3.377961 0.556536
v -0.700962 3.425683 0.550459
v -0.614075 3.404969 0.464853
v -0.510863 3.422142 0.487813
v -0.533966 3.453468 0.587610
v -0.651452 3.455657 0.626326
v -0.691331 3.499357 0.477978
v -0.573844 3.497169 0.439262
v -0.524334 3.527142 0.515129
v -0.611222 3.547856 0.600735
v -0.714433 3.530684 0.577776
v -0.635869 3.574864 0.509052
v -0.387974 3.410875 0.267518
v -0.515527 3.434365 0.322609
v -0.448474 3.463324 0.202684
v -0.336225 3.495026 0.196948
v -0.333906 3.485659 0.313329
v -0.444720 3.448168 0.390991
v -0.542611 3.533033 0.286087
v -0.431797 3.570524 0.208425
v -0.360991 3.584327 0.276807
v -0.428043 3.555368 0.396731
v -0.540292 3.523666 0.402468
v -0.488543 3.607817 0.331898
v -0.329654 2.759758 1.692241
v -0.219441 3.141528 1.514820
v -0.515797 3.620336 0.427645
v -0.670796 2.994663 1.444942
v -0.793639 3.490082 0.856637
v -0.314218 3.621080 0.929053
v -0.565690 3.600189 0.894029
v -0.458065 3.103235 1.494497
v -0.233379 3.444577 1.259153
v -0.774055 3.268649 1.175446
v -0.519895 3.400522 1.235562
v -0.329513 2.759544 1.691561
v -0.219334 3.141182 1.514190
v -0.515602 3.619636 0.427635
v -0.670507 2.994375 1.444340
v -0.793297 3.489482 0.856409
v -0.314119 3.620405 0.928802
v -0.565469 3.599525 0.893835
v -0.457868 3.102926 1.493869
v -0.233261 3.444037 1.258681
v -0.773721 3.268186 1.174996
v -0.519668 3.400007 1.235101
vt 0.8193 0.1381
vt 0.8311 0.1656
vt 0.8193 0.1646
vt 0.8193 0.2373
vt 0.8080 0.2105
vt 0.8193 0.2097
vt 0.8193 0.1884
vt 0.8333 0.1895
vt 0.8053 0.1895
vt 0.8075 0.1656
vt 0.8306 0.2105
vt 0.9509 0.1381
vt 0.9628 0.1656
vt 0.9509 0.1646
vt 0.9509 0.2373
vt 0.9396 0.2105
vt 0.9509 0.2097
vt 0.9509 0.1884
vt 0.9649 0.1895
vt 0.9369 0.1895
vt 0.9391 0.1656
vt 0.9622 0.2105
vt 0.9509 0.1381
vt 0.9628 0.1656
vt 0.9509 0.1646
vt 0.9509 0.2373
vt 0.9396 0.2105
vt 0.9509 0.2097
vt 0.9509 0.1884
vt 0.9649 0.1895
vt 0.9369 0.1895
vt 0.9391 0.1656
vt 0.9622 0.2105
vt 0.9509 0.1381
vt 0.9628 0.1656
vt 0.9509 0.1646
vt 0.9509 0.2373
vt 0.9396 0.2105
vt 0.9509 0.2097
vt 0.9509 0.1884
vt 0.9649 0.1895
vt 0.9369 0.1895
vt 0.9391 0.1656
vt 0.9622 0.2105
vt 0.8193 0.1646
vt 0.8311 0.1656
vt 0.8193 0.1381
vt 0.8193 0.2097
vt 0.8080 0.2105
vt 0.8193 0.2373
vt 0.8333 0.1895
vt 0.8193 0.1884
vt 0.8075 0.1656
vt 0.8053 0.1895
vt 0.8306 0.2105
vt 0.9509 0.1646
vt 0.9628 0.1656
vt 0.9509 0.1381
vt 0.9509 0.2097
vt 0.9396 0.2105
vt 0.9509 0.2373
vt 0.9649 0.1895
vt 0.9509 0.1884
vt 0.9391 0.1656
vt 0.9369 0.1895
vt 0.9622 0.2105
vt 0.9509 0.1646
vt 0.9628 0.1656
vt 0.9509 0.1381
vt 0.9509 0.2097
vt 0.9396 0.2105
vt 0.9509 0.2373
vt 0.9649 0.1895
vt 0.9509 0.1884
vt 0.9391 0.1656
vt 0.9369 0.1895
vt 0.9622 0.2105
vt 0.9509 0.1646
vt 0.9628 0.1656
vt 0.9509 0.1381
vt 0.9509 0.2097
vt 0.9396 0.2105
vt 0.9509 0.2373
vt 0.9649 0.1895
vt 0.9509 0.1884
vt 0.9391 0.1656
vt 0.9369 0.1895
vt 0.9622 0.2105
vt 0.9078 0.0834
vt 0.8997 0.0940
vt 0.8956 0.0784
vt 0.9159 0.0940
vt 0.9078 0.0733
vt 0.9201 0.0784
vt 0.8985 0.0329
vt 0.9181 0.0329
vt 0.9083 0.0434
vt 0.8857 0.0476
vt 0.9005 0.0476
vt 0.8997 0.0628
vt 0.9159 0.0628
vt 0.9310 0.0476
vt 0.9162 0.0476
vt 0.8985 0.0622
vt 0.9181 0.0622
vt 0.9083 0.0518
vt 0.4446 0.9515
vt 0.4453 0.9829
vt 0.4440 0.9827
vt 0.4424 0.9516
vt 0.4508 0.9515
vt 0.4494 0.9830
vt 0.4481 0.9832
vt 0.4487 0.9514
vt 0.4466 0.9515
vt 0.4467 0.9831
vt 0.4529 0.9517
vt 0.4508 0.9828
vt 0.4508 0.8881
vt 0.4497 0.9208
vt 0.4464 0.9209
vt 0.4461 0.8883
vt 0.4601 0.8892
vt 0.4563 0.9215
vt 0.4530 0.9210
vt 0.4555 0.8884
vt 0.4431 0.9211
vt 0.4414 0.8887
vt 0.4397 0.9213
vt 0.4368 0.8889
vt 0.4450 0.9852
vt 0.4429 0.9851
vt 0.4497 0.9852
vt 0.4482 0.9852
vt 0.4467 0.9852
vt 0.4519 0.9852
vt 0.4492 0.9892
vt 0.4480 0.9891
vt 0.4468 0.9890
vt 0.4456 0.9892
vt 0.4503 0.9895
vt 0.4444 0.9895
vt 0.4201 0.9626
vt 0.4248 0.9591
vt 0.4296 0.9626
vt 0.4278 0.9682
vt 0.4219 0.9682
vt 0.9078 0.0834
vt 0.8997 0.0940
vt 0.8956 0.0784
vt 0.9159 0.0940
vt 0.9078 0.0733
vt 0.9201 0.0784
vt 0.8985 0.0329
vt 0.9181 0.0329
vt 0.9083 0.0434
vt 0.8857 0.0476
vt 0.9005 0.0476
vt 0.8997 0.0628
vt 0.9159 0.0628
vt 0.9310 0.0476
vt 0.9162 0.0476
vt 0.8985 0.0622
vt 0.9181 0.0622
vt 0.9083 0.0518
vt 0.9698 0.0834
vt 0.9617 0.0940
vt 0.9576 0.0784
vt 0.9779 0.0940
vt 0.9698 0.0733
vt 0.9821 0.0784
vt 0.9605 0.0329
vt 0.9801 0.0329
vt 0.9703 0.0434
vt 0.9477 0.0476
vt 0.9625 0.0476
vt 0.9617 0.0628
vt 0.9779 0.0628
vt 0.9930 0.0476
vt 0.9782 0.0476
vt 0.9605 0.0622
vt 0.9801 0.0622
vt 0.9703 0.0518
vt 0.9509 0.1381
vt 0.9628 0.1656
vt 0.9509 0.1646
vt 0.9509 0.2373
vt 0.9396 0.2105
vt 0.9509 0.2097
vt 0.9509 0.1884
vt 0.9649 0.1895
vt 0.9369 0.1895
vt 0.9391 0.1656
vt 0.9622 0.2105
vt 0.9509 0.1646
vt 0.9628 0.1656
vt 0.9509 0.1381
vt 0.9509 0.2097
vt 0.9396 0.2105
vt 0.9509 0.2373
vt 0.9649 0.1895
vt 0.9509 0.1884
vt 0.9391 0.1656
vt 0.9369 0.1895
vt 0.9622 0.2105
vn -0.1223 0.9826 -0.1397
vn -0.5521 0.2125 -0.8062
vn -0.2802 0.8172 -0.5036
vn -0.5268 0.7661 -0.3682
vn -0.3906 0.9206 -0.0003
vn -0.4029 0.2536 -0.8794
vn -0.5718 0.5830 -0.5772
vn -0.3470 0.6398 -0.6858
vn -0.2268 0.9678 -0.1088
vn -0.9732 0.0046 0.2301
vn -0.6556 0.7527 -0.0602
vn -0.5843 0.7641 0.2733
vn -0.1695 0.9548 0.2441
vn -0.9995 0.0040 0.0309
vn -0.8635 0.4240 0.2732
vn -0.9044 0.4259 -0.0233
vn -0.3128 0.9132 0.2611
vn 0.8665 0.3738 0.3308
vn 0.3056 0.8429 0.4429
vn 0.3633 0.9147 0.1773
vn -0.1932 0.9799 -0.0490
vn 0.8267 0.3394 0.4488
vn 0.6633 0.6962 0.2743
vn 0.5938 0.6399 0.4878
vn -0.0389 0.9846 0.1703
vn 0.5485 0.4170 -0.7247
vn 0.3501 0.9138 -0.2061
vn 0.0781 0.9140 -0.3981
vn -0.3011 0.9505 -0.0763
vn 0.6917 0.4256 -0.5834
vn 0.3125 0.7546 -0.5770
vn 0.5283 0.7651 -0.3681
vn 0.1223 -0.9826 0.1397
vn 0.5521 -0.2125 0.8062
vn 0.2802 -0.8172 0.5037
vn 0.5268 -0.7661 0.3682
vn 0.3906 -0.9206 0.0002
vn 0.4030 -0.2535 0.8794
vn 0.5718 -0.5830 0.5772
vn 0.3469 -0.6398 0.6858
vn 0.2267 -0.9679 0.1088
vn 0.9732 -0.0045 -0.2301
vn 0.6556 -0.7527 0.0603
vn 0.5843 -0.7641 -0.2734
vn 0.1695 -0.9548 -0.2441
vn 0.9995 -0.0039 -0.0309
vn 0.8635 -0.4240 -0.2732
vn 0.9045 -0.4259 0.0234
vn 0.3128 -0.9133 -0.2610
vn -0.8665 -0.3738 -0.3308
vn -0.3057 -0.8428 -0.4430
vn -0.3633 -0.9146 -0.1773
vn 0.1933 -0.9799 0.0490
vn -0.8267 -0.3393 -0.4487
vn -0.6633 -0.6962 -0.2743
vn -0.5938 -0.6399 -0.4878
vn 0.0389 -0.9846 -0.1704
vn -0.5485 -0.4170 0.7247
vn -0.3502 -0.9137 0.2061
vn -0.0781 -0.9140 0.3981
vn 0.3011 -0.9505 0.0763
vn -0.6918 -0.4255 0.5834
vn -0.3125 -0.7546 0.5770
vn -0.5283 -0.7651 0.3681
vn 0.8796 -0.3568 -0.3146
vn 0.7346 -0.5813 0.3499
vn 0.9320 0.2657 -0.2467
vn 0.6911 0.4502 0.5654
vn 0.5380 -0.0951 0.8376
vn 0.1929 -0.9429 0.2714
vn 0.4227 -0.4500 -0.7867
vn 0.3838 0.5427 -0.7471
vn -0.0001 0.8368 0.5475
vn -0.1051 -0.0456 0.9934
vn 0.0001 -0.8368 -0.5475
vn 0.1051 0.0456 -0.9934
vn -0.1929 0.9429 -0.2714
vn -0.4227 0.4500 0.7867
vn -0.3838 -0.5427 0.7471
vn -0.6911 -0.4502 -0.5654
vn -0.5380 0.0951 -0.8376
vn -0.7346 0.5813 -0.3499
vn -0.8796 0.3568 0.3146
vn -0.9320 -0.2657 0.2467
vn -0.8112 -0.1584 0.5629
vn 0.3215 0.1482 -0.9352
vn 0.2839 -0.0058 0.9588
vn -0.7924 -0.0638 -0.6067
vn 0.9826 0.1835 0.0292
vn 0.9940 0.1071 0.0230
vn 0.9766 0.2128 0.0301
vn -0.7955 0.0387 -0.6047
vn -0.7955 -0.0017 -0.6059
vn 0.2868 -0.0450 0.9569
vn 0.2880 -0.1109 0.9512
vn 0.3259 0.1575 -0.9322
vn 0.3141 0.2762 -0.9084
vn -0.8188 -0.0873 0.5675
vn -0.7993 -0.2414 0.5503
vn -0.6157 -0.6414 0.4578
vn 0.3708 -0.1569 -0.9154
vn 0.3652 -0.3828 0.8486
vn -0.6132 -0.5053 -0.6071
vn 0.9972 -0.0749 -0.0060
vn 0.2348 0.4181 -0.8776
vn 0.2416 0.1465 0.9592
vn -0.8188 0.1153 -0.5624
vn 0.8963 0.4395 0.0585
vn -0.8211 -0.0533 0.5683
vn -0.2484 0.9611 0.1204
vn -0.2484 0.9612 0.1203
vn -0.3803 -0.9099 -0.1658
vn -0.3568 -0.7656 0.5353
vn 0.2260 -0.9163 -0.3307
vn 0.6758 -0.6440 0.3586
vn 0.2578 -0.5236 0.8120
vn -0.7614 -0.2530 0.5968
vn -0.6733 -0.4719 -0.5692
vn 0.2594 -0.3617 -0.8955
vn 0.9764 0.0724 0.2033
vn 0.3126 0.1249 0.9416
vn -0.9764 -0.0724 -0.2033
vn -0.3126 -0.1249 -0.9416
vn 0.7614 0.2530 -0.5968
vn 0.6733 0.4719 0.5692
vn -0.2594 0.3617 0.8955
vn -0.6758 0.6440 -0.3586
vn -0.2578 0.5236 -0.8120
vn 0.3568 0.7656 -0.5353
vn 0.3803 0.9099 0.1658
vn -0.2260 0.9163 0.3307
vn -0.3272 -0.8604 -0.3907
vn -0.0645 -0.9631 0.2612
vn 0.1588 -0.6899 -0.7063
vn 0.8264 -0.5598 -0.0615
vn 0.5580 -0.6878 0.4642
vn -0.4504 -0.6613 0.5998
vn -0.7557 -0.3995 -0.5190
vn -0.0690 0.0640 -0.9956
vn 0.9641 0.2654 0.0022
vn 0.5990 -0.1354 0.7892
vn -0.9641 -0.2654 -0.0022
vn -0.5990 0.1354 -0.7892
vn 0.4504 0.6613 -0.5998
vn 0.7557 0.3995 0.5190
vn 0.0690 -0.0640 0.9956
vn -0.8264 0.5598 0.0615
vn -0.5580 0.6878 -0.4642
vn 0.0645 0.9631 -0.2612
vn 0.3272 0.8604 0.3907
vn -0.1588 0.6899 0.7063
vn -0.4339 0.9009 -0.0075
vn -0.1474 0.4515 0.8800
vn -0.4663 0.7242 0.5080
vn -0.1575 0.8486 0.5050
vn -0.0874 0.9956 0.0337
vn -0.3788 0.3513 0.8562
vn -0.1623 0.6303 0.7592
vn -0.4445 0.5357 0.7180
vn 0.4339 -0.9009 0.0076
vn 0.1474 -0.4515 -0.8800
vn 0.4663 -0.7242 -0.5080
vn 0.1574 -0.8486 -0.5050
vn 0.0874 -0.9956 -0.0336
vn 0.3788 -0.3513 -0.8562
vn 0.1623 -0.6303 -0.7592
vn 0.4446 -0.5357 -0.7179
s off
f 3/1/1 5/2/1 7/3/1
f 1/4/2 2/5/2 8/6/2
f 11/7/3 7/3/3 5/2/3 10/8/3
f 9/9/4 6/10/4 7/3/4 11/7/4
f 6/10/5 3/1/5 7/3/5
f 4/11/6 1/4/6 8/6/6
f 2/5/7 9/9/7 11/7/7 8/6/7
f 8/6/8 11/7/8 10/8/8 4/11/8
f 14/12/9 16/13/9 18/14/9
f 12/15/10 13/16/10 19/17/10
f 22/18/11 18/14/11 16/13/11 21/19/11
f 20/20/12 17/21/12 18/14/12 22/18/12
f 17/21/13 14/12/13 18/14/13
f 15/22/14 12/15/14 19/17/14
f 13/16/15 20/20/15 22/18/15 19/17/15
f 19/17/16 22/18/16 21/19/16 15/22/16
f 25/23/17 27/24/17 29/25/17
f 23/26/18 24/27/18 30/28/18
f 33/29/19 29/25/19 27/24/19 32/30/19
f 31/31/20 28/32/20 29/25/20 33/29/20
f 28/32/21 25/23/21 29/25/21
f 26/33/22 23/26/22 30/28/22
f 24/27/23 31/31/23 33/29/23 30/28/23
f 30/28/24 33/29/24 32/30/24 26/33/24
f 36/34/25 38/35/25 40/36/25
f 34/37/26 35/38/26 41/39/26
f 44/40/27 40/36/27 38/35/27 43/41/27
f 42/42/28 39/43/28 40/36/28 44/40/28
f 39/43/29 36/34/29 40/36/29
f 37/44/30 34/37/30 41/39/30
f 35/38/31 42/42/31 44/40/31 41/39/31
f 41/39/32 44/40/32 43/41/32 37/44/32
f 51/45/33 49/46/33 47/47/33
f 52/48/34 46/49/34 45/50/34
f 54/51/35 49/46/35 51/45/35 55/52/35
f 55/52/36 51/45/36 50/53/36 53/54/36
f 51/45/37 47/47/37 50/53/37
f 52/48/38 45/50/38 48/55/38
f 52/48/39 55/52/39 53/54/39 46/49/39
f 48/55/40 54/51/40 55/52/40 52/48/40
f 62/56/41 60/57/41 58/58/41
f 63/59/42 57/60/42 56/61/42
f 65/62/43 60/57/43 62/56/43 66/63/43
f 66/63/44 62/56/44 61/64/44 64/65/44
f 62/56/45 58/58/45 61/64/45
f 63/59/46 56/61/46 59/66/46
f 63/59/47 66/63/47 64/65/47 57/60/47
f 59/66/48 65/62/48 66/63/48 63/59/48
f 73/67/49 71/68/49 69/69/49
f 74/70/50 68/71/50 67/72/50
f 76/73/51 71/68/51 73/67/51 77/74/51
f 77/74/52 73/67/52 72/75/52 75/76/52
f 73/67/53 69/69/53 72/75/53
f 74/70/54 67/72/54 70/77/54
f 74/70/55 77/74/55 75/76/55 68/71/55
f 70/77/56 76/73/56 77/74/56 74/70/56
f 84/78/57 82/79/57 80/80/57
f 85/81/58 79/82/58 78/83/58
f 87/84/59 82/79/59 84/78/59 88/85/59
f 88/85/60 84/78/60 83/86/60 86/87/60
f 84/78/61 80/80/61 83/86/61
f 85/81/62 78/83/62 81/88/62
f 85/81/63 88/85/63 86/87/63 79/82/63
f 81/88/64 87/84/64 88/85/64 85/81/64
f 89/89/65 90/90/65 91/91/65
f 90/90/66 89/89/66 94/92/66
f 89/89/67 91/91/67 92/93/67
f 89/89/68 92/93/68 93/94/68
f 89/89/69 93/94/69 94/92/69
f 90/95/70 94/96/70 99/97/70
f 91/98/71 90/95/71 95/99/71
f 92/93/72 91/91/72 96/100/72
f 93/94/73 92/93/73 97/101/73
f 94/96/74 93/102/74 98/103/74
f 90/95/75 99/97/75 95/99/75
f 91/98/76 95/99/76 96/104/76
f 92/93/77 96/100/77 97/101/77
f 93/102/78 97/105/78 98/103/78
f 94/96/79 98/103/79 99/97/79
f 95/99/80 99/97/80 100/106/80
f 96/104/81 95/99/81 100/106/81
f 97/105/82 96/104/82 100/106/82
f 98/103/83 97/105/83 100/106/83
f 99/97/84 98/103/84 100/106/84
f 113/107/85 110/108/85 109/109/85 112/110/85
f 117/111/86 108/112/86 107/113/86 116/114/86
f 119/115/87 106/116/87 110/108/87 113/107/87
f 112/117/88 109/118/88 108/112/88 117/111/88
f 116/114/89 107/113/89 106/116/89 119/115/89
f 102/119/90 115/120/90 120/121/90 101/122/90
f 115/120/91 116/114/91 119/115/91 120/121/91
f 104/123/92 111/124/92 118/125/92 103/126/92
f 111/124/93 112/117/93 117/111/93 118/125/93
f 101/122/94 120/121/94 114/127/94 105/128/94
f 120/121/95 119/115/95 113/107/95 114/127/95
f 103/126/96 118/125/96 115/120/96 102/119/96
f 118/125/97 117/111/97 116/114/97 115/120/97
f 105/128/98 114/127/98 111/129/98 104/130/98
f 114/127/99 113/107/99 112/110/99 111/129/99
f 110/108/100 125/131/100 124/132/100 109/109/100
f 108/112/101 123/133/101 122/134/101 107/113/101
f 106/116/102 121/135/102 125/131/102 110/108/102
f 109/118/103 124/136/103 123/133/103 108/112/103
f 107/113/104 122/134/104 121/135/104 106/116/104
f 123/133/105 128/137/105 127/138/105 122/134/105
f 121/135/106 126/139/106 130/140/106 125/131/106
f 124/136/107 129/141/107 128/137/107 123/133/107
f 122/134/108 127/138/108 126/139/108 121/135/108
f 125/131/109 130/140/109 129/142/109 124/132/109
f 128/143/110 129/144/110 130/145/110 126/146/110
f 127/147/111 128/143/111 126/146/111
f 131/148/112 132/149/112 133/150/112
f 132/149/113 131/148/113 136/151/113
f 131/148/114 133/150/114 134/152/114
f 131/148/115 134/152/115 135/153/115
f 131/148/116 135/153/116 136/151/116
f 132/154/117 136/155/117 141/156/117
f 133/157/118 132/154/118 137/158/118
f 134/152/119 133/150/119 138/159/119
f 135/153/120 134/152/120 139/160/120
f 136/155/121 135/161/121 140/162/121
f 132/154/122 141/156/122 137/158/122
f 133/157/123 137/158/123 138/163/123
f 134/152/124 138/159/124 139/160/124
f 135/161/125 139/164/125 140/162/125
f 136/155/126 140/162/126 141/156/126
f 137/158/127 141/156/127 142/165/127
f 138/163/128 137/158/128 142/165/128
f 139/164/129 138/163/129 142/165/129
f 140/162/130 139/164/130 142/165/130
f 141/156/131 140/162/131 142/165/131
f 143/166/132 144/167/132 145/168/132
f 144/167/133 143/166/133 148/169/133
f 143/166/134 145/168/134 146/170/134
f 143/166/135 146/170/135 147/171/135
f 143/166/136 147/171/136 148/169/136
f 144/172/137 148/173/137 153/174/137
f 145/175/138 144/172/138 149/176/138
f 146/170/139 145/168/139 150/177/139
f 147/171/140 146/170/140 151/178/140
f 148/173/141 147/179/141 152/180/141
f 144/172/142 153/174/142 149/176/142
f 145/175/143 149/176/143 150/181/143
f 146/170/144 150/177/144 151/178/144
f 147/179/145 151/182/145 152/180/145
f 148/173/146 152/180/146 153/174/146
f 149/176/147 153/174/147 154/183/147
f 150/181/148 149/176/148 154/183/148
f 151/182/149 150/181/149 154/183/149
f 152/180/150 151/182/150 154/183/150
f 153/174/151 152/180/151 154/183/151
f 157/184/152 159/185/152 161/186/152
f 155/187/153 156/188/153 162/189/153
f 165/190/154 161/186/154 159/185/154 164/191/154
f 163/192/155 160/193/155 161/186/155 165/190/155
f 160/193/156 157/184/156 161/186/156
f 158/194/157 155/187/157 162/189/157
f 156/188/158 163/192/158 165/190/158 162/189/158
f 162/189/159 165/190/159 164/191/159 158/194/159
f 172/195/160 170/196/160 168/197/160
f 173/198/161 167/199/161 166/200/161
f 175/201/162 170/196/162 172/195/162 176/202/162
f 176/202/163 172/195/163 171/203/163 174/204/163
f 172/195/164 168/197/164 171/203/164
f 173/198/165 166/200/165 169/205/165
f 173/198/166 176/202/166 174/204/166 167/199/166
f 169/205/167 175/201/167 176/202/167 173/198/167
