# Blender v2.78 (sub 0) OBJ File: 'Low_Poly_Trees_Pack.blend'
# www.blender.org
g Palm_Tree_crk_m_04
v 3.295028 -0.048872 0.812776
v 3.615164 0.368409 0.556887
v 4.595708 0.231059 -0.735996
v 3.313063 0.159760 0.264812
v 3.983499 0.279241 -0.531647
v 4.299756 0.497666 -0.225885
v 4.137299 0.437892 -0.409605
v 3.452584 0.309271 0.390496
v 3.921173 0.534947 0.195974
v 3.559285 0.285008 -0.153902
v 3.725822 0.466440 -0.004398
v 3.667439 -0.021852 1.088573
v 4.138141 0.170701 0.791027
v 4.556462 0.227319 -0.712432
v 3.591676 0.142830 0.512572
v 4.013564 0.341407 -0.366971
v 4.585635 0.370583 -0.075469
v 4.304015 0.409432 -0.235235
v 3.864285 0.204893 0.648207
v 4.383000 0.358343 0.425654
v 3.728391 0.324957 0.092094
v 4.054917 0.401788 0.254384
v 4.501571 -0.023419 1.212510
v 4.875874 0.006658 0.783816
v 4.581572 0.201680 -0.700231
v 4.653821 0.358425 0.819137
v 4.661562 0.466111 -0.158916
v 4.893794 0.069382 -0.195891
v 4.820323 0.294717 -0.198949
v 4.804754 0.193250 0.791957
v 4.983862 0.034537 0.328698
v 4.718127 0.488506 0.371008
v 4.900996 0.291899 0.337957
v 5.891200 0.020773 0.843741
v 5.831625 0.006005 0.226955
v 4.572016 0.210341 -0.727765
v 5.733789 0.435340 0.408987
v 5.032509 0.528858 -0.369586
v 5.186389 0.019948 -0.534198
v 5.128457 0.298730 -0.514484
v 5.832861 0.214279 0.279859
v 5.602532 -0.018320 -0.213616
v 5.462423 0.564014 0.004439
v 5.582422 0.300342 -0.152211
v 5.533781 -0.032064 -2.555236
v 5.102898 0.160820 -2.240562
v 4.560867 0.223055 -0.672247
v 5.563890 0.069547 -1.958013
v 5.119725 0.211652 -1.030720
v 4.637133 0.307201 -1.326508
v 4.883696 0.316764 -1.168685
v 5.343381 0.165076 -2.099465
v 4.856304 0.257892 -1.841218
v 5.427422 0.104882 -1.508932
v 5.144894 0.265568 -1.672209
v 2.572620 0.007043 -0.494741
v 2.966501 0.371739 -0.692332
v 4.578716 0.197312 -0.689873
v 3.012127 -0.033174 -0.877144
v 4.041493 -0.026697 -0.951694
v 3.993728 0.496334 -0.756258
v 4.037763 0.271937 -0.922766
v 2.996979 0.155793 -0.849976
v 3.431708 0.514707 -0.789647
v 3.486364 -0.015119 -1.019321
v 3.468614 0.257198 -0.980776
v 3.295177 -0.049006 0.812718
v 3.615272 0.368236 0.556843
v 4.595713 0.230887 -0.735879
v 3.313216 0.159618 0.264811
v 3.983566 0.279084 -0.531527
v 4.299761 0.497466 -0.225824
v 4.137331 0.437710 -0.409508
v 3.452716 0.309111 0.390473
v 3.921231 0.534746 0.195987
v 3.559400 0.284846 -0.153835
v 3.725909 0.466255 -0.004355
v 3.667487 -0.022041 1.088497
v 4.138162 0.170511 0.790941
v 4.556439 0.227122 -0.712369
v 3.591748 0.142643 0.512512
v 4.013593 0.341204 -0.366930
v 4.585601 0.370377 -0.075459
v 4.304008 0.409226 -0.235201
v 3.864332 0.204703 0.648133
v 4.383000 0.358141 0.425603
v 3.728449 0.324757 0.092072
v 4.054945 0.401584 0.254349
v 4.501432 -0.023493 1.212372
v 4.875696 0.006598 0.783724
v 4.581414 0.201579 -0.700137
v 4.653677 0.358310 0.819038
v 4.661419 0.465967 -0.158867
v 4.893602 0.069320 -0.195834
v 4.820152 0.294612 -0.198887
v 4.804592 0.193161 0.791860
v 4.983664 0.034472 0.328686
v 4.717972 0.488366 0.370988
v 4.900815 0.291794 0.337943
v 5.890996 0.020725 0.843745
v 5.831428 0.005987 0.227022
v 4.571957 0.210263 -0.727580
v 5.733611 0.435238 0.409023
v 5.032428 0.528733 -0.369440
v 5.186282 0.019913 -0.534021
v 5.128368 0.298648 -0.514313
v 5.832667 0.214218 0.279908
v 5.602376 -0.018354 -0.213482
v 5.462288 0.563892 0.004541
v 5.582271 0.300262 -0.152090
v 5.533712 -0.032254 -2.555183
v 5.102871 0.160619 -2.240510
v 4.560855 0.222852 -0.672293
v 5.563794 0.069362 -1.958003
v 5.119654 0.211459 -1.030759
v 4.637139 0.306992 -1.326506
v 4.883666 0.316558 -1.168709
v 5.343318 0.164880 -2.099431
v 4.856292 0.257686 -1.841189
v 5.427333 0.104693 -1.508945
v 5.144842 0.265366 -1.672201
v 2.572760 0.006991 -0.494594
v 2.966604 0.371641 -0.692178
v 4.578630 0.197240 -0.689697
v 3.012224 -0.033193 -0.876959
v 4.041443 -0.026720 -0.951492
v 3.993687 0.496207 -0.756097
v 4.037710 0.271859 -0.922580
v 2.997081 0.155734 -0.849803
v 3.431737 0.514586 -0.789479
v 3.486381 -0.015144 -1.019114
v 3.468637 0.257122 -0.980583
v 0.000000 0.000000 -0.209088
v -0.198855 0.000000 -0.064612
v -0.122899 0.000000 0.169156
v 0.122899 0.000000 0.169156
v 0.198855 0.000000 -0.064612
v 4.412878 0.106146 -0.482422
v 4.367192 0.148885 -0.505241
v 4.386078 0.210362 -0.487965
v 4.443438 0.205618 -0.454468
v 4.460001 0.141209 -0.451042
v 0.212886 0.531638 0.115392
v 3.486266 0.163632 0.156691
v 3.503160 0.056346 0.172855
v 0.265032 0.517294 -0.051920
v -0.008012 0.592403 -0.051920
v 3.404660 0.074062 0.028362
v 3.425391 0.174581 0.067390
v 0.044135 0.578058 0.115392
v 3.452725 0.000989 0.093544
v 0.128510 0.554848 -0.155325
v 4.473780 0.070385 -0.585085
v 4.381426 0.155801 -0.630166
v 4.418415 0.279180 -0.594577
v 4.533628 0.270016 -0.527500
v 4.567844 0.140974 -0.521633
v 4.614853 0.165058 -0.809277
v 4.584781 0.192870 -0.823955
v 4.596827 0.233044 -0.812367
v 4.634340 0.230060 -0.790526
v 4.645481 0.188042 -0.788617
v 0.442223 0.891037 0.090812
v 0.468390 0.855421 -0.046118
v 0.331375 1.041912 -0.046118
v 0.357543 1.006296 0.090812
v 0.399883 0.948667 -0.130745
v 1.111866 1.129915 0.115404
v 1.007541 1.259276 -0.006335
v 1.136494 1.099376 -0.006335
v 1.032168 1.228738 0.115404
v 1.072017 1.179326 -0.081573
v 4.118469 0.157602 -0.039661
v 4.022949 0.082404 -0.116962
v 4.139092 0.071009 -0.032892
v 4.046689 0.164644 -0.091618
v 4.080057 0.024534 -0.080667
v 2.360476 1.367462 0.082124
v 2.250579 1.476481 -0.032019
v 2.647782 0.080742 0.167044
v 2.583827 0.210696 0.040502
v 2.605666 0.020839 0.073409
v 2.386420 1.341726 -0.032019
v 2.634284 0.198080 0.146706
v 2.276522 1.450745 0.082124
v 2.566140 0.101156 -0.004797
v 2.318499 1.409104 -0.102563
vt 0.6882 0.0166
vt 0.6998 0.0436
vt 0.6882 0.0426
vt 0.6882 0.1140
vt 0.6771 0.0878
vt 0.6882 0.0869
vt 0.6882 0.0660
vt 0.7019 0.0671
vt 0.6744 0.0671
vt 0.6765 0.0436
vt 0.6993 0.0878
vt 0.8132 0.0166
vt 0.8248 0.0436
vt 0.8132 0.0426
vt 0.8132 0.1140
vt 0.8021 0.0878
vt 0.8132 0.0869
vt 0.8132 0.0660
vt 0.8269 0.0671
vt 0.7994 0.0671
vt 0.8015 0.0436
vt 0.8243 0.0878
vt 0.6882 0.0166
vt 0.6998 0.0436
vt 0.6882 0.0426
vt 0.6882 0.1140
vt 0.6771 0.0878
vt 0.6882 0.0869
vt 0.6882 0.0660
vt 0.7019 0.0671
vt 0.6744 0.0671
vt 0.6765 0.0436
vt 0.6993 0.0878
vt 0.8132 0.0166
vt 0.8248 0.0436
vt 0.8132 0.0426
vt 0.8132 0.1140
vt 0.8021 0.0878
vt 0.8132 0.0869
vt 0.8132 0.0660
vt 0.8269 0.0671
vt 0.7994 0.0671
vt 0.8015 0.0436
vt 0.8243 0.0878
vt 0.6882 0.0166
vt 0.6998 0.0436
vt 0.6882 0.0426
vt 0.6882 0.1140
vt 0.6771 0.0878
vt 0.6882 0.0869
vt 0.6882 0.0660
vt 0.7019 0.0671
vt 0.6744 0.0671
vt 0.6765 0.0436
vt 0.6993 0.0878
vt 0.8132 0.0166
vt 0.8248 0.0436
vt 0.8132 0.0426
vt 0.8132 0.1140
vt 0.8021 0.0878
vt 0.8132 0.0869
vt 0.8132 0.0660
vt 0.8269 0.0671
vt 0.7994 0.0671
vt 0.8015 0.0436
vt 0.8243 0.0878
vt 0.6882 0.0426
vt 0.6998 0.0436
vt 0.6882 0.0166
vt 0.6882 0.0869
vt 0.6771 0.0878
vt 0.6882 0.1140
vt 0.7019 0.0671
vt 0.6882 0.0660
vt 0.6765 0.0436
vt 0.6744 0.0671
vt 0.6993 0.0878
vt 0.8132 0.0426
vt 0.8248 0.0436
vt 0.8132 0.0166
vt 0.8132 0.0869
vt 0.8021 0.0878
vt 0.8132 0.1140
vt 0.8269 0.0671
vt 0.8132 0.0660
vt 0.8015 0.0436
vt 0.7994 0.0671
vt 0.8243 0.0878
vt 0.6882 0.0426
vt 0.6998 0.0436
vt 0.6882 0.0166
vt 0.6882 0.0869
vt 0.6771 0.0878
vt 0.6882 0.1140
vt 0.7019 0.0671
vt 0.6882 0.0660
vt 0.6765 0.0436
vt 0.6744 0.0671
vt 0.6993 0.0878
vt 0.8132 0.0426
vt 0.8248 0.0436
vt 0.8132 0.0166
vt 0.8132 0.0869
vt 0.8021 0.0878
vt 0.8132 0.1140
vt 0.8269 0.0671
vt 0.8132 0.0660
vt 0.8015 0.0436
vt 0.7994 0.0671
vt 0.8243 0.0878
vt 0.6882 0.0426
vt 0.6998 0.0436
vt 0.6882 0.0166
vt 0.6882 0.0869
vt 0.6771 0.0878
vt 0.6882 0.1140
vt 0.7019 0.0671
vt 0.6882 0.0660
vt 0.6765 0.0436
vt 0.6744 0.0671
vt 0.6993 0.0878
vt 0.8132 0.0426
vt 0.8248 0.0436
vt 0.8132 0.0166
vt 0.8132 0.0869
vt 0.8021 0.0878
vt 0.8132 0.1140
vt 0.8269 0.0671
vt 0.8132 0.0660
vt 0.8015 0.0436
vt 0.7994 0.0671
vt 0.8243 0.0878
vt 0.4172 0.9402
vt 0.4170 0.9573
vt 0.4148 0.9571
vt 0.4144 0.9400
vt 0.4256 0.9392
vt 0.4240 0.9575
vt 0.4217 0.9573
vt 0.4227 0.9386
vt 0.4199 0.9394
vt 0.4193 0.9575
vt 0.4281 0.9405
vt 0.4263 0.9576
vt 0.4559 0.8897
vt 0.4537 0.9100
vt 0.4481 0.9105
vt 0.4471 0.8911
vt 0.4239 0.8897
vt 0.4234 0.9168
vt 0.4202 0.9181
vt 0.4205 0.8910
vt 0.4720 0.8965
vt 0.4644 0.9137
vt 0.4592 0.9112
vt 0.4646 0.8918
vt 0.4307 0.8920
vt 0.4297 0.9191
vt 0.4268 0.9174
vt 0.4275 0.8902
vt 0.4423 0.9116
vt 0.4390 0.8936
vt 0.4170 0.9194
vt 0.4170 0.8923
vt 0.4363 0.9126
vt 0.4307 0.8949
vt 0.4135 0.9189
vt 0.4132 0.8917
vt 0.4166 0.9609
vt 0.4132 0.9610
vt 0.4239 0.9613
vt 0.4215 0.9609
vt 0.4191 0.9608
vt 0.4273 0.9620
vt 0.4215 0.9674
vt 0.4204 0.9671
vt 0.4193 0.9670
vt 0.4182 0.9672
vt 0.4226 0.9680
vt 0.4171 0.9676
vt 0.4111 0.9025
vt 0.4119 0.9014
vt 0.4132 0.9018
vt 0.4132 0.9032
vt 0.4119 0.9036
vt 0.4439 0.9253
vt 0.4394 0.9260
vt 0.4561 0.9264
vt 0.4522 0.9258
vt 0.4482 0.9254
vt 0.4601 0.9269
vt 0.4438 0.9478
vt 0.4401 0.9474
vt 0.4547 0.9462
vt 0.4509 0.9455
vt 0.4473 0.9466
vt 0.4580 0.9480
vt 0.4428 0.9860
vt 0.4395 0.9852
vt 0.4527 0.9838
vt 0.4491 0.9830
vt 0.4460 0.9845
vt 0.4555 0.9860
vt 0.6906 0.9411
vt 0.6906 0.9374
vt 0.6942 0.9363
vt 0.6942 0.9422
vt 0.6964 0.9392
vt 0.6903 0.9341
vt 0.6915 0.9305
vt 0.6952 0.9305
vt 0.6933 0.9362
vt 0.6964 0.9341
vn -0.1754 0.7014 -0.6908
vn -0.6210 0.6967 0.3592
vn -0.4161 0.7736 -0.4780
vn -0.1309 0.9706 -0.2022
vn 0.1222 0.9070 -0.4031
vn -0.7932 0.5773 0.1937
vn -0.4057 0.9106 0.0790
vn -0.6542 0.7390 -0.1612
vn -0.0456 0.9250 -0.3771
vn -0.1052 0.9025 0.4177
vn -0.1904 0.9782 -0.0824
vn 0.0988 0.9930 0.0650
vn 0.2564 0.9404 -0.2233
vn -0.3511 0.8870 0.2998
vn -0.0947 0.9089 0.4061
vn -0.3460 0.8961 0.2780
vn 0.6160 0.6681 -0.4174
vn 0.7214 0.2467 0.6471
vn 0.7183 0.6877 -0.1050
vn 0.9414 0.3067 -0.1405
vn 0.8487 0.2706 -0.4544
vn 0.6037 0.4425 0.6632
vn 0.9180 0.3086 0.2492
vn 0.7273 0.6232 0.2874
vn 0.2088 0.5819 -0.7860
vn 0.9952 0.0186 -0.0966
vn 0.4971 0.6001 -0.6267
vn 0.6116 0.1844 -0.7694
vn 0.3357 0.1357 -0.9321
vn 0.9201 0.3898 0.0386
vn 0.8725 0.1332 -0.4700
vn 0.7667 0.5458 -0.3381
vn 0.2235 0.9209 0.3192
vn 0.1760 0.9282 -0.3279
vn 0.4112 0.9069 0.0924
vn 0.0217 0.9959 -0.0881
vn -0.1113 0.9872 0.1140
vn 0.4818 0.8595 -0.1705
vn 0.0874 0.9785 -0.1868
vn 0.4397 0.8977 0.0289
vn 0.4045 0.0932 -0.9098
vn -0.6689 0.3744 -0.6422
vn 0.1099 0.1207 -0.9866
vn 0.0662 0.6018 -0.7959
vn 0.3852 0.5975 -0.7033
vn -0.6524 0.0564 -0.7558
vn -0.3285 0.5294 -0.7822
vn -0.2888 0.1148 -0.9505
vn 0.1754 -0.7014 0.6908
vn 0.6210 -0.6967 -0.3592
vn 0.4161 -0.7736 0.4780
vn 0.1308 -0.9706 0.2022
vn -0.1222 -0.9070 0.4031
vn 0.7932 -0.5773 -0.1937
vn 0.4057 -0.9106 -0.0791
vn 0.6542 -0.7390 0.1612
vn 0.0456 -0.9250 0.3771
vn 0.1051 -0.9025 -0.4177
vn 0.1904 -0.9782 0.0824
vn -0.0988 -0.9930 -0.0650
vn -0.2564 -0.9404 0.2233
vn 0.3511 -0.8870 -0.2998
vn 0.0947 -0.9089 -0.4061
vn 0.3460 -0.8961 -0.2780
vn -0.6160 -0.6681 0.4174
vn -0.7213 -0.2467 -0.6471
vn -0.7183 -0.6877 0.1050
vn -0.9414 -0.3067 0.1405
vn -0.8487 -0.2705 0.4544
vn -0.6037 -0.4425 -0.6632
vn -0.9180 -0.3086 -0.2492
vn -0.7273 -0.6232 -0.2874
vn -0.2088 -0.5819 0.7860
vn -0.9952 -0.0186 0.0966
vn -0.4971 -0.6001 0.6267
vn -0.6116 -0.1843 0.7694
vn -0.3357 -0.1357 0.9321
vn -0.9201 -0.3898 -0.0386
vn -0.8725 -0.1332 0.4700
vn -0.7667 -0.5458 0.3381
vn -0.2235 -0.9209 -0.3192
vn -0.1760 -0.9282 0.3280
vn -0.4112 -0.9069 -0.0924
vn -0.0217 -0.9959 0.0881
vn 0.1113 -0.9872 -0.1140
vn -0.4818 -0.8595 0.1705
vn -0.0874 -0.9785 0.1868
vn -0.4397 -0.8977 -0.0289
vn -0.4045 -0.0932 0.9098
vn 0.6689 -0.3744 0.6422
vn -0.1099 -0.1207 0.9866
vn -0.0662 -0.6018 0.7959
vn -0.3852 -0.5975 0.7033
vn 0.6524 -0.0563 0.7558
vn 0.3286 -0.5294 0.7821
vn 0.2888 -0.1148 0.9505
vn 0.7537 0.2272 0.6167
vn -0.7225 0.3847 -0.5745
vn 0.4812 -0.8467 0.2269
vn 0.0095 0.9924 0.1225
vn -0.4333 -0.7427 -0.5106
vn -0.5670 0.2041 -0.7980
vn 0.0042 -0.6816 -0.7317
vn 0.0105 0.0940 0.9955
vn 0.0393 0.9945 0.0975
vn 0.5893 -0.0571 -0.8059
vn -0.0300 -0.8243 0.5654
vn -0.9090 0.2885 0.3007
vn 0.0470 0.3647 -0.9299
vn 0.9434 -0.1285 0.3059
vn -0.0036 0.1599 0.9871
vn 0.5383 0.1808 0.8231
vn -0.9462 0.3113 -0.0885
vn 0.3050 -0.8287 0.4692
vn -0.2135 0.8488 0.4838
vn -0.6442 -0.7558 -0.1169
vn -0.6727 0.3841 -0.6324
vn 0.5877 -0.8086 0.0283
vn 0.1354 0.9859 -0.0979
vn -0.3997 -0.7269 -0.5585
vn 0.9150 0.2568 0.3113
vn 0.5065 0.0954 -0.8569
vn 0.5065 0.0953 -0.8570
vn 0.8163 -0.4985 0.2920
vn -0.7646 0.5749 0.2912
vn 0.5279 -0.3095 -0.7909
vn 0.0276 0.0433 0.9987
vn -0.4830 0.3782 -0.7897
vn 0.3122 -0.9039 0.2925
vn -0.3086 0.9052 0.2921
vn 0.2471 -0.5480 -0.7992
vn -0.0289 -0.0222 0.9993
vn -0.1498 0.6060 -0.7812
vn -0.1649 -0.6835 -0.7111
vn 0.0384 0.9951 0.0907
vn 0.1804 -0.8376 0.5157
vn -0.2209 0.3714 -0.9018
vn 0.2969 0.1686 0.9399
vn 0.1879 -0.9455 0.2659
vn -0.1618 0.9515 0.2617
vn 0.1085 -0.6482 -0.7537
vn 0.0229 0.0206 0.9995
vn -0.1286 0.6368 -0.7603
vn -0.9042 -0.0302 0.4260
vn 0.7043 0.7099 0.0000
s off
f 3/1/1 5/2/1 7/3/1
f 1/4/2 2/5/2 8/6/2
f 11/7/3 7/3/3 5/2/3 10/8/3
f 9/9/4 6/10/4 7/3/4 11/7/4
f 6/10/5 3/1/5 7/3/5
f 4/11/6 1/4/6 8/6/6
f 2/5/7 9/9/7 11/7/7 8/6/7
f 8/6/8 11/7/8 10/8/8 4/11/8
f 14/12/9 16/13/9 18/14/9
f 12/15/10 13/16/10 19/17/10
f 22/18/11 18/14/11 16/13/11 21/19/11
f 20/20/12 17/21/12 18/14/12 22/18/12
f 17/21/13 14/12/13 18/14/13
f 15/22/14 12/15/14 19/17/14
f 13/16/15 20/20/15 22/18/15 19/17/15
f 19/17/16 22/18/16 21/19/16 15/22/16
f 25/23/17 27/24/17 29/25/17
f 23/26/18 24/27/18 30/28/18
f 33/29/19 29/25/19 27/24/19 32/30/19
f 31/31/20 28/32/20 29/25/20 33/29/20
f 28/32/21 25/23/21 29/25/21
f 26/33/22 23/26/22 30/28/22
f 24/27/23 31/31/23 33/29/23 30/28/23
f 30/28/24 33/29/24 32/30/24 26/33/24
f 36/34/25 38/35/25 40/36/25
f 34/37/26 35/38/26 41/39/26
f 44/40/27 40/36/27 38/35/27 43/41/27
f 42/42/28 39/43/28 40/36/28 44/40/28
f 39/43/29 36/34/29 40/36/29
f 37/44/30 34/37/30 41/39/30
f 35/38/31 42/42/31 44/40/31 41/39/31
f 41/39/32 44/40/32 43/41/32 37/44/32
f 47/45/33 49/46/33 51/47/33
f 45/48/34 46/49/34 52/50/34
f 55/51/35 51/47/35 49/46/35 54/52/35
f 53/53/36 50/54/36 51/47/36 55/51/36
f 50/54/37 47/45/37 51/47/37
f 48/55/38 45/48/38 52/50/38
f 46/49/39 53/53/39 55/51/39 52/50/39
f 52/50/40 55/51/40 54/52/40 48/55/40
f 58/56/41 60/57/41 62/58/41
f 56/59/42 57/60/42 63/61/42
f 66/62/43 62/58/43 60/57/43 65/63/43
f 64/64/44 61/65/44 62/58/44 66/62/44
f 61/65/45 58/56/45 62/58/45
f 59/66/46 56/59/46 63/61/46
f 57/60/47 64/64/47 66/62/47 63/61/47
f 63/61/48 66/62/48 65/63/48 59/66/48
f 73/67/49 71/68/49 69/69/49
f 74/70/50 68/71/50 67/72/50
f 76/73/51 71/68/51 73/67/51 77/74/51
f 77/74/52 73/67/52 72/75/52 75/76/52
f 73/67/53 69/69/53 72/75/53
f 74/70/54 67/72/54 70/77/54
f 74/70/55 77/74/55 75/76/55 68/71/55
f 70/77/56 76/73/56 77/74/56 74/70/56
f 84/78/57 82/79/57 80/80/57
f 85/81/58 79/82/58 78/83/58
f 87/84/59 82/79/59 84/78/59 88/85/59
f 88/85/60 84/78/60 83/86/60 86/87/60
f 84/78/61 80/80/61 83/86/61
f 85/81/62 78/83/62 81/88/62
f 85/81/63 88/85/63 86/87/63 79/82/63
f 81/88/64 87/84/64 88/85/64 85/81/64
f 95/89/65 93/90/65 91/91/65
f 96/92/66 90/93/66 89/94/66
f 98/95/67 93/90/67 95/89/67 99/96/67
f 99/96/68 95/89/68 94/97/68 97/98/68
f 95/89/69 91/91/69 94/97/69
f 96/92/70 89/94/70 92/99/70
f 96/92/71 99/96/71 97/98/71 90/93/71
f 92/99/72 98/95/72 99/96/72 96/92/72
f 106/100/73 104/101/73 102/102/73
f 107/103/74 101/104/74 100/105/74
f 109/106/75 104/101/75 106/100/75 110/107/75
f 110/107/76 106/100/76 105/108/76 108/109/76
f 106/100/77 102/102/77 105/108/77
f 107/103/78 100/105/78 103/110/78
f 107/103/79 110/107/79 108/109/79 101/104/79
f 103/110/80 109/106/80 110/107/80 107/103/80
f 117/111/81 115/112/81 113/113/81
f 118/114/82 112/115/82 111/116/82
f 120/117/83 115/112/83 117/111/83 121/118/83
f 121/118/84 117/111/84 116/119/84 119/120/84
f 117/111/85 113/113/85 116/119/85
f 118/114/86 111/116/86 114/121/86
f 118/114/87 121/118/87 119/120/87 112/115/87
f 114/121/88 120/117/88 121/118/88 118/114/88
f 128/122/89 126/123/89 124/124/89
f 129/125/90 123/126/90 122/127/90
f 131/128/91 126/123/91 128/122/91 132/129/91
f 132/129/92 128/122/92 127/130/92 130/131/92
f 128/122/93 124/124/93 127/130/93
f 129/125/94 122/127/94 125/132/94
f 129/125/95 132/129/95 130/131/95 123/126/95
f 125/132/96 131/128/96 132/129/96 129/125/96
f 175/133/97 142/134/97 141/135/97 173/136/97
f 176/137/98 140/138/98 139/139/98 174/140/98
f 177/141/99 138/142/99 142/134/99 175/133/99
f 173/143/100 141/144/100 140/138/100 176/137/100
f 174/140/101 139/139/101 138/142/101 177/141/101
f 134/145/102 147/146/102 152/147/102 133/148/102
f 186/149/103 148/150/103 151/151/103 182/152/103
f 136/153/104 143/154/104 150/155/104 135/156/104
f 184/157/105 144/158/105 149/159/105 181/160/105
f 133/148/106 152/147/106 146/161/106 137/162/106
f 182/152/107 151/151/107 145/163/107 180/164/107
f 135/156/108 150/155/108 147/146/108 134/145/108
f 181/160/109 149/159/109 148/150/109 186/149/109
f 137/162/110 146/161/110 143/165/110 136/166/110
f 180/164/111 145/163/111 144/167/111 184/168/111
f 142/134/112 157/169/112 156/170/112 141/135/112
f 140/138/113 155/171/113 154/172/113 139/139/113
f 138/142/114 153/173/114 157/169/114 142/134/114
f 141/144/115 156/174/115 155/171/115 140/138/115
f 139/139/116 154/172/116 153/173/116 138/142/116
f 155/171/117 160/175/117 159/176/117 154/172/117
f 153/173/118 158/177/118 162/178/118 157/169/118
f 156/174/119 161/179/119 160/175/119 155/171/119
f 154/172/120 159/176/120 158/177/120 153/173/120
f 157/169/121 162/178/121 161/180/121 156/170/121
f 160/181/122 161/182/122 162/183/122 158/184/122
f 159/185/123 160/181/123 158/184/123
f 146/161/124 164/186/124 163/187/124 143/165/124
f 150/155/125 166/188/125 165/189/125 147/146/125
f 152/147/126 167/190/126 164/186/126 146/161/126
f 143/154/127 163/191/127 166/188/127 150/155/127
f 147/146/128 165/189/128 167/190/128 152/147/128
f 164/186/129 170/192/129 168/193/129 163/187/129
f 166/188/130 171/194/130 169/195/130 165/189/130
f 167/190/131 172/196/131 170/192/131 164/186/131
f 163/191/132 168/197/132 171/194/132 166/188/132
f 165/189/133 169/195/133 172/196/133 167/190/133
f 148/150/134 174/140/134 177/141/134 151/151/134
f 144/158/135 173/143/135 176/137/135 149/159/135
f 151/151/136 177/141/136 175/133/136 145/163/136
f 149/159/137 176/137/137 174/140/137 148/150/137
f 145/163/138 175/133/138 173/136/138 144/167/138
f 170/192/139 183/198/139 178/199/139 168/193/139
f 171/194/140 185/200/140 179/201/140 169/195/140
f 172/196/141 187/202/141 183/198/141 170/192/141
f 168/197/142 178/203/142 185/200/142 171/194/142
f 169/195/143 179/201/143 187/202/143 172/196/143
f 184/204/144 181/205/144 186/206/144
f 180/207/144 184/204/144 186/206/144 182/208/144
f 187/209/145 179/210/145 185/211/145
f 183/212/145 187/209/145 185/211/145 178/213/145
