# Blender v2.78 (sub 0) OBJ File: 'Low_Poly_Trees_Pack.blend'
# www.blender.org
g Palm_Tree_crk_l_03
v 6.444002 -0.000396 1.542436
v 5.566291 0.234590 1.834839
v 3.579710 0.149858 1.212738
v 5.623898 0.377236 1.120623
v 4.480235 0.297192 1.167530
v 4.140130 0.220669 1.841252
v 4.336681 0.371857 1.520169
v 5.601465 0.335604 1.467208
v 4.847536 0.457649 1.944762
v 4.936282 0.451021 1.118216
v 4.940287 0.482013 1.525792
v 3.220261 1.036872 3.253503
v 3.670383 0.462800 3.098936
v 3.639657 0.042204 1.300507
v 3.852132 0.974975 2.792534
v 4.039253 0.505531 1.792785
v 3.826769 -0.060105 2.097990
v 4.004704 0.189828 1.926579
v 3.826786 0.698730 2.942414
v 3.920266 0.112033 2.710745
v 4.109512 0.805165 2.349691
v 4.116014 0.407680 2.525508
v 4.194540 0.003346 -1.024497
v 4.498293 0.208528 -0.395505
v 3.639395 0.181460 1.233553
v 3.690060 0.228566 -0.544391
v 3.362926 0.356064 0.385240
v 4.200935 0.365380 0.521249
v 3.795464 0.142986 0.449191
v 4.106962 0.020969 -0.501714
v 4.451761 0.350747 0.096277
v 3.556396 0.367566 -0.060356
v 4.021071 0.142253 -0.019945
v 1.459098 0.367454 2.241004
v 2.298667 0.659567 2.449860
v 3.691362 0.100322 1.255063
v 2.024642 0.843889 1.600681
v 3.214288 0.865938 1.040603
v 3.351134 0.613480 2.019301
v 3.365760 0.773895 1.520642
v 2.213107 0.788796 2.012694
v 2.960804 0.757100 2.324268
v 2.624665 0.989474 1.266399
v 2.860795 0.928979 1.780018
v 1.582393 0.879351 3.425337
v 1.890964 0.682892 2.718761
v 3.601405 0.010245 1.185999
v 2.566632 0.715401 3.056772
v 3.549487 0.334175 2.102944
v 2.838768 0.222492 1.790017
v 3.191489 0.127924 1.971523
v 2.266049 0.738723 2.899142
v 2.311165 0.478360 2.150300
v 3.109266 0.475527 2.687680
v 2.741287 0.430746 2.431849
v 5.468324 0.068384 -0.395500
v 4.899022 0.444164 0.030143
v 3.650445 0.007853 1.322023
v 5.394253 -0.000056 0.464774
v 4.479726 0.025474 1.286342
v 4.195145 0.396427 0.959786
v 4.342937 0.239725 1.247139
v 5.157675 0.266652 0.301378
v 4.476461 0.467785 0.554113
v 5.034452 0.016258 1.014211
v 4.788224 0.263872 0.883071
v 6.132778 -0.862667 1.014829
v 5.638435 -0.577496 1.623571
v 3.666015 -0.012644 1.221790
v 5.690358 -0.263752 0.888518
v 4.428009 0.127300 0.842135
v 4.327314 -0.096989 1.709780
v 4.401837 -0.049646 1.264213
v 5.635977 -0.347953 1.261971
v 4.967969 -0.344830 1.791515
v 5.107203 0.005879 0.853359
v 4.957064 -0.158140 1.309768
v 5.346776 0.035863 3.038845
v 5.193543 0.083739 2.396507
v 3.546644 0.054216 1.201727
v 4.585441 0.023244 2.923257
v 3.843219 0.186164 1.999457
v 4.387722 0.010894 1.434024
v 4.115197 0.181897 1.708037
v 4.885494 0.073921 2.690703
v 4.830447 0.103716 1.854674
v 4.133726 0.027854 2.491018
v 4.474532 0.134121 2.204922
v 6.444496 0.000911 1.542740
v 5.566721 0.235914 1.835169
v 3.579317 0.151233 1.212714
v 5.624251 0.378618 1.120721
v 4.479926 0.298555 1.167226
v 4.139680 0.222004 1.841500
v 4.336308 0.373237 1.520150
v 5.601868 0.336958 1.467426
v 4.847486 0.459059 1.944991
v 4.936227 0.452445 1.118102
v 4.940291 0.483441 1.525860
v 3.219468 1.036485 3.252378
v 3.669417 0.462751 3.097883
v 3.638511 0.042896 1.301012
v 3.851041 0.974594 2.791692
v 4.037892 0.505776 1.793148
v 3.825634 -0.059242 2.098098
v 4.003434 0.190420 1.926867
v 3.825743 0.698524 2.941457
v 3.919032 0.112519 2.710209
v 4.108107 0.805083 2.349432
v 4.114653 0.407928 2.525150
v 4.194583 0.004775 -1.024538
v 4.497765 0.209814 -0.395836
v 3.639400 0.182888 1.233484
v 3.690699 0.229840 -0.544508
v 3.363532 0.357345 0.385427
v 4.200329 0.366644 0.520968
v 3.795505 0.144415 0.449169
v 4.107008 0.022387 -0.501892
v 4.451221 0.352017 0.095906
v 3.557014 0.368853 -0.060267
v 4.021066 0.143666 -0.020166
v 1.459654 0.366215 2.240555
v 2.298987 0.658251 2.449400
v 3.690079 0.099692 1.255088
v 2.024994 0.842543 1.600348
v 3.213511 0.864740 1.040672
v 3.350251 0.612401 2.018982
v 3.364783 0.772854 1.520555
v 2.213453 0.787468 2.012291
v 2.960598 0.755747 2.323855
v 2.624571 0.988057 1.266232
v 2.860590 0.927593 1.779733
v 1.582450 0.880748 3.425038
v 1.891075 0.684254 2.718340
v 3.601294 0.011646 1.185731
v 2.566884 0.716748 3.056362
v 3.549181 0.335452 2.102378
v 2.839195 0.223836 1.789778
v 3.191514 0.129299 1.971132
v 2.266234 0.740096 2.898786
v 2.311495 0.479689 2.149888
v 3.109332 0.476830 2.687093
v 2.741520 0.432069 2.431359
v 5.467421 0.067279 -0.395588
v 4.898373 0.442905 0.029950
v 3.650622 0.006966 1.320916
v 5.393348 -0.001099 0.464404
v 4.479290 0.024777 1.285172
v 4.195035 0.395144 0.959162
v 4.342760 0.238772 1.246087
v 5.156889 0.265490 0.301102
v 4.476021 0.466487 0.553704
v 5.033709 0.015262 1.013503
v 4.787633 0.262729 0.882446
v 6.133857 -0.861832 1.015257
v 5.639183 -0.576420 1.624143
v 3.666064 -0.011260 1.222148
v 5.691126 -0.262630 0.888962
v 4.428153 0.128611 0.842688
v 4.327554 -0.095607 1.710062
v 4.402012 -0.048289 1.264630
v 5.636748 -0.346861 1.262479
v 4.968392 -0.343553 1.792001
v 5.107557 0.007164 0.853879
v 4.957436 -0.156852 1.310266
v 5.346776 0.034441 3.038692
v 5.193471 0.082312 2.396443
v 3.546607 0.052840 1.202115
v 4.585561 0.021839 2.923020
v 3.843265 0.184739 1.999349
v 4.387508 0.009534 1.434411
v 4.115118 0.180483 1.708238
v 4.885517 0.072500 2.690544
v 4.830298 0.102298 1.854783
v 4.133791 0.026449 2.490761
v 4.474492 0.132694 2.204833
v 0.000000 0.000000 -0.290456
v -0.276240 0.000000 -0.089756
v -0.170726 0.000000 0.234984
v 0.170726 0.000000 0.234984
v 0.276240 0.000000 -0.089756
v 0.575782 1.469862 0.160298
v 0.650798 1.465723 -0.072125
v 0.258006 1.487399 -0.072125
v 0.333022 1.483259 0.160298
v 0.454402 1.476561 -0.215771
v 0.715880 2.601589 0.133384
v 0.423251 2.471621 -0.066476
v 0.780092 2.603274 -0.065771
v 0.488662 2.472661 0.136370
v 0.594499 2.474342 -0.191842
v 3.451793 0.353821 1.246807
v 3.403837 0.311646 1.313733
v 3.350950 0.246714 1.274432
v 3.366219 0.248760 1.183216
v 3.428544 0.314956 1.166143
v 1.700159 1.604265 0.773916
v 1.818825 1.701194 0.747272
v 1.760887 1.715715 0.990025
v 1.664352 1.613239 0.923945
v 1.856357 1.770074 0.880835
v 3.618495 0.299999 1.267484
v 3.522262 0.215366 1.401784
v 3.416134 0.085069 1.322919
v 3.446775 0.089175 1.139878
v 3.571840 0.222009 1.105617
v 3.835338 -0.024085 1.292847
v 3.804005 -0.051642 1.336576
v 3.769449 -0.094068 1.310898
v 3.779425 -0.092731 1.251297
v 3.820148 -0.049479 1.240141
v 0.883518 2.807616 -0.142897
v 0.725080 2.647992 0.112922
v 0.913331 2.917677 0.020364
v 2.470925 0.912245 1.080988
v 2.523626 0.996191 1.254660
v 2.564515 0.990675 1.059419
v 2.445655 0.915654 1.201654
v 2.597086 1.042557 1.166755
v 0.793869 2.609835 -0.069521
v 0.772215 2.869357 0.152302
vt 0.6829 0.0079
vt 0.6947 0.0353
vt 0.6829 0.0344
vt 0.6829 0.1070
vt 0.6716 0.0803
vt 0.6829 0.0795
vt 0.6829 0.0581
vt 0.6969 0.0592
vt 0.6689 0.0592
vt 0.6710 0.0353
vt 0.6942 0.0803
vt 0.6829 0.0079
vt 0.6947 0.0353
vt 0.6829 0.0344
vt 0.6829 0.1070
vt 0.6716 0.0803
vt 0.6829 0.0795
vt 0.6829 0.0581
vt 0.6969 0.0592
vt 0.6689 0.0592
vt 0.6710 0.0353
vt 0.6942 0.0803
vt 0.8176 0.0094
vt 0.8295 0.0369
vt 0.8176 0.0359
vt 0.8176 0.1086
vt 0.8063 0.0819
vt 0.8176 0.0810
vt 0.8176 0.0597
vt 0.8316 0.0608
vt 0.8036 0.0608
vt 0.8058 0.0369
vt 0.8289 0.0819
vt 0.8176 0.0094
vt 0.8295 0.0369
vt 0.8176 0.0359
vt 0.8176 0.1086
vt 0.8063 0.0819
vt 0.8176 0.0810
vt 0.8176 0.0597
vt 0.8316 0.0608
vt 0.8036 0.0608
vt 0.8058 0.0369
vt 0.8289 0.0819
vt 0.8176 0.0094
vt 0.8295 0.0369
vt 0.8176 0.0359
vt 0.8176 0.1086
vt 0.8063 0.0819
vt 0.8176 0.0810
vt 0.8176 0.0597
vt 0.8316 0.0608
vt 0.8036 0.0608
vt 0.8058 0.0369
vt 0.8289 0.0819
vt 0.8176 0.0094
vt 0.8295 0.0369
vt 0.8176 0.0359
vt 0.8176 0.1086
vt 0.8063 0.0819
vt 0.8176 0.0810
vt 0.8176 0.0597
vt 0.8316 0.0608
vt 0.8036 0.0608
vt 0.8058 0.0369
vt 0.8289 0.0819
vt 0.8176 0.0094
vt 0.8295 0.0369
vt 0.8176 0.0359
vt 0.8176 0.1086
vt 0.8063 0.0819
vt 0.8176 0.0810
vt 0.8176 0.0597
vt 0.8316 0.0608
vt 0.8036 0.0608
vt 0.8058 0.0369
vt 0.8289 0.0819
vt 0.8176 0.0094
vt 0.8295 0.0369
vt 0.8176 0.0359
vt 0.8176 0.1086
vt 0.8063 0.0819
vt 0.8176 0.0810
vt 0.8176 0.0597
vt 0.8316 0.0608
vt 0.8036 0.0608
vt 0.8058 0.0369
vt 0.8289 0.0819
vt 0.6829 0.0079
vt 0.6829 0.0344
vt 0.6947 0.0353
vt 0.6829 0.1070
vt 0.6829 0.0795
vt 0.6716 0.0803
vt 0.6829 0.0581
vt 0.6969 0.0592
vt 0.6689 0.0592
vt 0.6710 0.0353
vt 0.6942 0.0803
vt 0.6829 0.0079
vt 0.6829 0.0344
vt 0.6947 0.0353
vt 0.6829 0.1070
vt 0.6829 0.0795
vt 0.6716 0.0803
vt 0.6829 0.0581
vt 0.6969 0.0592
vt 0.6689 0.0592
vt 0.6710 0.0353
vt 0.6942 0.0803
vt 0.8176 0.0094
vt 0.8176 0.0359
vt 0.8295 0.0369
vt 0.8176 0.1086
vt 0.8176 0.0810
vt 0.8063 0.0819
vt 0.8176 0.0597
vt 0.8316 0.0608
vt 0.8036 0.0608
vt 0.8058 0.0369
vt 0.8289 0.0819
vt 0.8176 0.0094
vt 0.8176 0.0359
vt 0.8295 0.0369
vt 0.8176 0.1086
vt 0.8176 0.0810
vt 0.8063 0.0819
vt 0.8176 0.0597
vt 0.8316 0.0608
vt 0.8036 0.0608
vt 0.8058 0.0369
vt 0.8289 0.0819
vt 0.8176 0.0094
vt 0.8176 0.0359
vt 0.8295 0.0369
vt 0.8176 0.1086
vt 0.8176 0.0810
vt 0.8063 0.0819
vt 0.8176 0.0597
vt 0.8316 0.0608
vt 0.8036 0.0608
vt 0.8058 0.0369
vt 0.8289 0.0819
vt 0.8176 0.0094
vt 0.8176 0.0359
vt 0.8295 0.0369
vt 0.8176 0.1086
vt 0.8176 0.0810
vt 0.8063 0.0819
vt 0.8176 0.0597
vt 0.8316 0.0608
vt 0.8036 0.0608
vt 0.8058 0.0369
vt 0.8289 0.0819
vt 0.8176 0.0094
vt 0.8176 0.0359
vt 0.8295 0.0369
vt 0.8176 0.1086
vt 0.8176 0.0810
vt 0.8063 0.0819
vt 0.8176 0.0597
vt 0.8316 0.0608
vt 0.8036 0.0608
vt 0.8058 0.0369
vt 0.8289 0.0819
vt 0.8176 0.0094
vt 0.8176 0.0359
vt 0.8295 0.0369
vt 0.8176 0.1086
vt 0.8176 0.0810
vt 0.8063 0.0819
vt 0.8176 0.0597
vt 0.8316 0.0608
vt 0.8036 0.0608
vt 0.8058 0.0369
vt 0.8289 0.0819
vt 0.5657 0.8993
vt 0.5648 0.9291
vt 0.5602 0.9297
vt 0.5597 0.9008
vt 0.5775 0.9026
vt 0.5738 0.9307
vt 0.5694 0.9296
vt 0.5718 0.9002
vt 0.5557 0.9305
vt 0.5537 0.9025
vt 0.5512 0.9306
vt 0.5474 0.9026
vt 0.5568 0.9515
vt 0.5528 0.9515
vt 0.5682 0.9483
vt 0.5644 0.9479
vt 0.5606 0.9485
vt 0.5718 0.9515
vt 0.5909 0.9311
vt 0.5904 0.9083
vt 0.5923 0.9086
vt 0.5932 0.9313
vt 0.5839 0.9314
vt 0.5847 0.9084
vt 0.5866 0.9081
vt 0.5862 0.9311
vt 0.5885 0.9309
vt 0.5885 0.9082
vt 0.5816 0.9313
vt 0.5827 0.9085
vt 0.5852 0.9830
vt 0.5859 0.9507
vt 0.5887 0.9511
vt 0.5889 0.9834
vt 0.5775 0.9812
vt 0.5802 0.9514
vt 0.5830 0.9510
vt 0.5812 0.9810
vt 0.5915 0.9516
vt 0.5924 0.9838
vt 0.5944 0.9515
vt 0.5959 0.9816
vt 0.5906 0.9052
vt 0.5936 0.9050
vt 0.5845 0.9052
vt 0.5865 0.9054
vt 0.5885 0.9053
vt 0.5815 0.9049
vt 0.5860 0.8998
vt 0.5870 0.9000
vt 0.5880 0.9000
vt 0.5890 0.8998
vt 0.5851 0.8993
vt 0.5899 0.8993
vt 0.5970 0.9127
vt 0.5977 0.9136
vt 0.5970 0.9145
vt 0.5959 0.9142
vt 0.5959 0.9130
vt 0.6861 0.9390
vt 0.6831 0.9368
vt 0.6891 0.9368
vt 0.6842 0.9327
vt 0.6879 0.9327
vt 0.6831 0.9398
vt 0.6835 0.9390
vt 0.6872 0.9396
vt 0.6870 0.9398
vt 0.6904 0.9302
vt 0.6862 0.9326
vt 0.6844 0.9265
vt 0.6893 0.9265
vt 0.6831 0.9302
vn 0.1686 -0.9481 0.2694
vn -0.3341 -0.9002 -0.2793
vn 0.2448 -0.9532 0.1774
vn 0.2636 -0.9566 -0.1239
vn 0.3535 -0.9110 -0.2126
vn -0.3567 -0.9245 -0.1341
vn -0.2758 -0.9412 -0.1949
vn -0.1618 -0.9867 -0.0179
vn 0.8569 -0.2778 -0.4342
vn 0.5314 0.1947 0.8244
vn 0.9893 -0.0891 -0.1155
vn 0.8352 -0.5488 0.0355
vn 0.6995 -0.6695 -0.2500
vn 0.5744 0.3490 0.7405
vn 0.7784 -0.1194 0.6164
vn 0.8716 0.1934 0.4505
vn -0.4364 -0.8987 -0.0428
vn 0.4081 -0.9076 0.0990
vn -0.4115 -0.8894 -0.1990
vn 0.4042 -0.8851 0.2306
vn 0.4581 -0.8787 0.1343
vn -0.4417 -0.8961 -0.0438
vn 0.3510 -0.8907 0.2888
vn -0.4470 -0.8840 0.1366
vn 0.8568 0.4842 -0.1775
vn -0.3824 0.8631 0.3300
vn 0.2649 0.9632 0.0445
vn 0.4399 0.8655 0.2397
vn 0.9120 0.3819 0.1496
vn -0.3956 0.8690 0.2972
vn -0.0879 0.9475 0.3073
vn -0.1387 0.9729 0.1851
vn 0.3786 -0.8657 0.3273
vn 0.0120 -0.9620 0.2727
vn 0.0732 -0.8939 0.4423
vn -0.3140 -0.9160 0.2495
vn -0.2626 -0.9649 0.0075
vn -0.1278 -0.9870 0.0977
vn -0.1708 -0.9338 0.3144
vn -0.1941 -0.9121 0.3612
vn 0.0378 0.2031 0.9784
vn 0.5571 0.8303 0.0121
vn 0.4227 0.6008 0.6785
vn 0.2470 0.9053 0.3455
vn -0.2113 0.8084 0.5495
vn 0.7066 0.6980 0.1164
vn 0.3550 0.9043 0.2373
vn 0.5695 0.7398 0.3583
vn -0.0240 -0.9214 -0.3878
vn -0.7524 -0.5584 -0.3494
vn -0.1520 -0.9107 -0.3840
vn -0.2514 -0.9342 -0.2530
vn -0.0434 -0.9927 -0.1127
vn -0.7538 -0.6089 -0.2471
vn -0.3316 -0.8481 -0.4133
vn -0.3243 -0.8814 -0.3435
vn -0.1139 0.9861 -0.1208
vn 0.0319 0.9973 0.0667
vn 0.0182 0.9811 0.1926
vn 0.1418 0.9749 -0.1718
vn 0.1582 0.9006 -0.4047
vn -0.0409 0.9859 0.1620
vn 0.0615 0.9976 0.0315
vn -0.1046 0.9803 0.1675
vn -0.1687 0.9482 -0.2693
vn 0.3341 0.9002 0.2793
vn -0.2447 0.9532 -0.1773
vn -0.2636 0.9567 0.1239
vn -0.3535 0.9110 0.2125
vn 0.3567 0.9245 0.1341
vn 0.2757 0.9413 0.1949
vn 0.1618 0.9867 0.0179
vn -0.8569 0.2777 0.4342
vn -0.5314 -0.1947 -0.8245
vn -0.9893 0.0890 0.1156
vn -0.8351 0.5490 -0.0354
vn -0.6994 0.6696 0.2500
vn -0.5743 -0.3491 -0.7405
vn -0.7783 0.1194 -0.6165
vn -0.8715 -0.1935 -0.4505
vn 0.4366 0.8986 0.0428
vn -0.4084 0.9074 -0.0990
vn 0.4118 0.8893 0.1990
vn -0.4045 0.8850 -0.2307
vn -0.4584 0.8785 -0.1343
vn 0.4420 0.8960 0.0439
vn -0.3512 0.8906 -0.2889
vn 0.4472 0.8839 -0.1365
vn -0.8569 -0.4840 0.1774
vn 0.3824 -0.8631 -0.3300
vn -0.2648 -0.9633 -0.0445
vn -0.4399 -0.8654 -0.2398
vn -0.9121 -0.3818 -0.1495
vn 0.3956 -0.8690 -0.2972
vn 0.0879 -0.9475 -0.3074
vn 0.1388 -0.9729 -0.1851
vn -0.3788 0.8656 -0.3273
vn -0.0120 0.9620 -0.2727
vn -0.0732 0.8939 -0.4423
vn 0.3141 0.9160 -0.2495
vn 0.2627 0.9648 -0.0075
vn 0.1278 0.9870 -0.0977
vn 0.1708 0.9338 -0.3144
vn 0.1941 0.9121 -0.3612
vn -0.0378 -0.2029 -0.9785
vn -0.5571 -0.8303 -0.0121
vn -0.4227 -0.6007 -0.6786
vn -0.2470 -0.9054 -0.3453
vn 0.2113 -0.8084 -0.5494
vn -0.7066 -0.6980 -0.1164
vn -0.3550 -0.9043 -0.2372
vn -0.5695 -0.7398 -0.3583
vn 0.0240 0.9214 0.3878
vn 0.7523 0.5585 0.3494
vn 0.1520 0.9107 0.3840
vn 0.2514 0.9342 0.2530
vn 0.0434 0.9927 0.1127
vn 0.7537 0.6090 0.2471
vn 0.3316 0.8481 0.4133
vn 0.3243 0.8813 0.3436
vn 0.1139 -0.9861 0.1208
vn -0.0319 -0.9973 -0.0667
vn -0.0182 -0.9811 -0.1927
vn -0.1418 -0.9749 0.1719
vn -0.1582 -0.9006 0.4048
vn 0.0409 -0.9859 -0.1620
vn -0.0615 -0.9976 -0.0315
vn 0.1046 -0.9803 -0.1675
vn -0.5718 0.2154 -0.7916
vn 0.0012 0.0502 0.9987
vn 0.5811 -0.1386 -0.8020
vn -0.9005 0.3203 0.2942
vn 0.9231 -0.2393 0.3009
vn 0.9458 -0.1095 0.3057
vn -0.9398 0.1556 0.3043
vn 0.5885 -0.0628 -0.8060
vn 0.0005 0.0239 0.9997
vn -0.5859 0.1023 -0.8039
vn -0.0454 -0.2119 -0.9762
vn -0.2983 -0.3055 0.9043
vn 0.5747 0.6571 -0.4878
vn -0.5847 -0.8042 -0.1067
vn 0.4230 0.6029 0.6765
vn 0.3161 0.7207 0.6170
vn -0.6885 -0.7161 -0.1151
vn 0.8313 0.3721 -0.4129
vn -0.6313 0.0277 0.7750
vn 0.2576 -0.4688 -0.8449
vn -0.3427 0.0812 -0.9359
vn -0.5966 0.0002 0.8026
vn 0.3226 0.8130 -0.4847
vn -0.8980 -0.4100 -0.1595
vn 0.1736 0.7723 0.6111
vn -0.1736 -0.4026 0.8988
vn 0.7593 0.4731 -0.4468
vn -0.4527 -0.8865 -0.0957
vn 0.5759 0.4393 0.6895
vn 0.1189 -0.3514 -0.9286
vn 0.7376 -0.6665 0.1085
vn 0.3823 0.6479 0.6588
vn -0.6398 -0.7607 -0.1096
vn 0.7038 0.5315 -0.4713
vn -0.4463 -0.1486 0.8824
vn 0.0682 -0.3403 -0.9378
vn -0.5930 0.7137 -0.3728
vn -0.8852 0.2574 -0.3876
vn -0.9095 0.2392 -0.3399
vn -0.4904 0.8580 -0.1527
vn -0.0159 0.9999 0.0000
s off
f 3/1/1 5/2/1 7/3/1
f 1/4/2 2/5/2 8/6/2
f 11/7/3 7/3/3 5/2/3 10/8/3
f 9/9/4 6/10/4 7/3/4 11/7/4
f 6/10/5 3/1/5 7/3/5
f 4/11/6 1/4/6 8/6/6
f 2/5/7 9/9/7 11/7/7 8/6/7
f 8/6/8 11/7/8 10/8/8 4/11/8
f 14/12/9 16/13/9 18/14/9
f 12/15/10 13/16/10 19/17/10
f 22/18/11 18/14/11 16/13/11 21/19/11
f 20/20/12 17/21/12 18/14/12 22/18/12
f 17/21/13 14/12/13 18/14/13
f 15/22/14 12/15/14 19/17/14
f 13/16/15 20/20/15 22/18/15 19/17/15
f 19/17/16 22/18/16 21/19/16 15/22/16
f 25/23/17 27/24/17 29/25/17
f 23/26/18 24/27/18 30/28/18
f 33/29/19 29/25/19 27/24/19 32/30/19
f 31/31/20 28/32/20 29/25/20 33/29/20
f 28/32/21 25/23/21 29/25/21
f 26/33/22 23/26/22 30/28/22
f 24/27/23 31/31/23 33/29/23 30/28/23
f 30/28/24 33/29/24 32/30/24 26/33/24
f 36/34/25 38/35/25 40/36/25
f 34/37/26 35/38/26 41/39/26
f 44/40/27 40/36/27 38/35/27 43/41/27
f 42/42/28 39/43/28 40/36/28 44/40/28
f 39/43/29 36/34/29 40/36/29
f 37/44/30 34/37/30 41/39/30
f 35/38/31 42/42/31 44/40/31 41/39/31
f 41/39/32 44/40/32 43/41/32 37/44/32
f 47/45/33 49/46/33 51/47/33
f 45/48/34 46/49/34 52/50/34
f 55/51/35 51/47/35 49/46/35 54/52/35
f 53/53/36 50/54/36 51/47/36 55/51/36
f 50/54/37 47/45/37 51/47/37
f 48/55/38 45/48/38 52/50/38
f 46/49/39 53/53/39 55/51/39 52/50/39
f 52/50/40 55/51/40 54/52/40 48/55/40
f 58/56/41 60/57/41 62/58/41
f 56/59/42 57/60/42 63/61/42
f 66/62/43 62/58/43 60/57/43 65/63/43
f 64/64/44 61/65/44 62/58/44 66/62/44
f 61/65/45 58/56/45 62/58/45
f 59/66/46 56/59/46 63/61/46
f 57/60/47 64/64/47 66/62/47 63/61/47
f 63/61/48 66/62/48 65/63/48 59/66/48
f 69/67/49 71/68/49 73/69/49
f 67/70/50 68/71/50 74/72/50
f 77/73/51 73/69/51 71/68/51 76/74/51
f 75/75/52 72/76/52 73/69/52 77/73/52
f 72/76/53 69/67/53 73/69/53
f 70/77/54 67/70/54 74/72/54
f 68/71/55 75/75/55 77/73/55 74/72/55
f 74/72/56 77/73/56 76/74/56 70/77/56
f 80/78/57 82/79/57 84/80/57
f 78/81/58 79/82/58 85/83/58
f 88/84/59 84/80/59 82/79/59 87/85/59
f 86/86/60 83/87/60 84/80/60 88/84/60
f 83/87/61 80/78/61 84/80/61
f 81/88/62 78/81/62 85/83/62
f 79/82/63 86/86/63 88/84/63 85/83/63
f 85/83/64 88/84/64 87/85/64 81/88/64
f 91/89/65 95/90/65 93/91/65
f 89/92/66 96/93/66 90/94/66
f 99/95/67 98/96/67 93/91/67 95/90/67
f 97/97/68 99/95/68 95/90/68 94/98/68
f 94/98/69 95/90/69 91/89/69
f 92/99/70 96/93/70 89/92/70
f 90/94/71 96/93/71 99/95/71 97/97/71
f 96/93/72 92/99/72 98/96/72 99/95/72
f 102/100/73 106/101/73 104/102/73
f 100/103/74 107/104/74 101/105/74
f 110/106/75 109/107/75 104/102/75 106/101/75
f 108/108/76 110/106/76 106/101/76 105/109/76
f 105/109/77 106/101/77 102/100/77
f 103/110/78 107/104/78 100/103/78
f 101/105/79 107/104/79 110/106/79 108/108/79
f 107/104/80 103/110/80 109/107/80 110/106/80
f 113/111/81 117/112/81 115/113/81
f 111/114/82 118/115/82 112/116/82
f 121/117/83 120/118/83 115/113/83 117/112/83
f 119/119/84 121/117/84 117/112/84 116/120/84
f 116/120/85 117/112/85 113/111/85
f 114/121/86 118/115/86 111/114/86
f 112/116/87 118/115/87 121/117/87 119/119/87
f 118/115/88 114/121/88 120/118/88 121/117/88
f 124/122/89 128/123/89 126/124/89
f 122/125/90 129/126/90 123/127/90
f 132/128/91 131/129/91 126/124/91 128/123/91
f 130/130/92 132/128/92 128/123/92 127/131/92
f 127/131/93 128/123/93 124/122/93
f 125/132/94 129/126/94 122/125/94
f 123/127/95 129/126/95 132/128/95 130/130/95
f 129/126/96 125/132/96 131/129/96 132/128/96
f 135/133/97 139/134/97 137/135/97
f 133/136/98 140/137/98 134/138/98
f 143/139/99 142/140/99 137/135/99 139/134/99
f 141/141/100 143/139/100 139/134/100 138/142/100
f 138/142/101 139/134/101 135/133/101
f 136/143/102 140/137/102 133/136/102
f 134/138/103 140/137/103 143/139/103 141/141/103
f 140/137/104 136/143/104 142/140/104 143/139/104
f 146/144/105 150/145/105 148/146/105
f 144/147/106 151/148/106 145/149/106
f 154/150/107 153/151/107 148/146/107 150/145/107
f 152/152/108 154/150/108 150/145/108 149/153/108
f 149/153/109 150/145/109 146/144/109
f 147/154/110 151/148/110 144/147/110
f 145/149/111 151/148/111 154/150/111 152/152/111
f 151/148/112 147/154/112 153/151/112 154/150/112
f 157/155/113 161/156/113 159/157/113
f 155/158/114 162/159/114 156/160/114
f 165/161/115 164/162/115 159/157/115 161/156/115
f 163/163/116 165/161/116 161/156/116 160/164/116
f 160/164/117 161/156/117 157/155/117
f 158/165/118 162/159/118 155/158/118
f 156/160/119 162/159/119 165/161/119 163/163/119
f 162/159/120 158/165/120 164/162/120 165/161/120
f 168/166/121 172/167/121 170/168/121
f 166/169/122 173/170/122 167/171/122
f 176/172/123 175/173/123 170/168/123 172/167/123
f 174/174/124 176/172/124 172/167/124 171/175/124
f 171/175/125 172/167/125 168/166/125
f 169/176/126 173/170/126 166/169/126
f 167/171/127 173/170/127 176/172/127 174/174/127
f 173/170/128 169/176/128 175/173/128 176/172/128
f 178/177/129 184/178/129 186/179/129 177/180/129
f 180/181/130 182/182/130 185/183/130 179/184/130
f 177/180/131 186/179/131 183/185/131 181/186/131
f 179/184/132 185/183/132 184/178/132 178/177/132
f 181/186/133 183/185/133 182/187/133 180/188/133
f 183/185/134 189/189/134 187/190/134 182/187/134
f 185/183/135 190/191/135 188/192/135 184/178/135
f 186/179/136 191/193/136 189/189/136 183/185/136
f 182/182/137 187/194/137 190/191/137 185/183/137
f 184/178/138 188/192/138 191/193/138 186/179/138
f 217/195/139 196/196/139 195/197/139 215/198/139
f 218/199/140 194/200/140 193/201/140 216/202/140
f 219/203/141 192/204/141 196/196/141 217/195/141
f 215/205/142 195/206/142 194/200/142 218/199/142
f 216/202/143 193/201/143 192/204/143 219/203/143
f 221/207/144 199/208/144 201/209/144 214/210/144
f 220/211/145 197/212/145 200/213/145 213/214/145
f 214/210/146 201/209/146 198/215/146 212/216/146
f 213/214/147 200/213/147 199/208/147 221/207/147
f 212/216/148 198/215/148 197/217/148 220/218/148
f 196/196/149 206/219/149 205/220/149 195/197/149
f 194/200/150 204/221/150 203/222/150 193/201/150
f 192/204/151 202/223/151 206/219/151 196/196/151
f 195/206/152 205/224/152 204/221/152 194/200/152
f 193/201/153 203/222/153 202/223/153 192/204/153
f 204/221/154 209/225/154 208/226/154 203/222/154
f 202/223/155 207/227/155 211/228/155 206/219/155
f 205/224/156 210/229/156 209/225/156 204/221/156
f 203/222/157 208/226/157 207/227/157 202/223/157
f 206/219/158 211/228/158 210/230/158 205/220/158
f 209/231/159 210/232/159 211/233/159 207/234/159
f 208/235/159 209/231/159 207/234/159
f 199/208/160 216/202/160 219/203/160 201/209/160
f 197/212/161 215/205/161 218/199/161 200/213/161
f 201/209/162 219/203/162 217/195/162 198/215/162
f 200/213/163 218/199/163 216/202/163 199/208/163
f 198/215/164 217/195/164 215/198/164 197/217/164
f 214/236/165 212/237/165 221/238/165
f 212/237/166 220/239/166 213/240/166 221/238/166
f 187/241/167 213/242/167 220/243/167 189/244/167
f 189/245/168 191/246/168 190/247/168 187/248/168
f 190/247/169 191/246/169 188/249/169
