# Blender v2.78 (sub 0) OBJ File: 'Low_Poly_Trees_Pack.blend'
# www.blender.org
g Palm_Tree_NoLeaves_crk_m_02
v -0.205911 0.000000 -0.036308
v -0.098161 0.000000 0.184614
v 0.145245 0.000000 0.150405
v 0.187927 0.000000 -0.091658
v -0.029099 0.000000 -0.207053
v 0.806996 0.040051 3.988347
v 0.828090 -0.020854 3.971606
v 0.891531 -0.015981 3.951957
v 0.909646 0.047936 3.956554
v 0.857401 0.082565 3.979045
v 0.085017 1.260946 0.583312
v 0.504061 0.277437 2.575960
v 0.417832 0.333951 2.619598
v -0.049380 1.348316 0.655580
v -0.145786 1.096642 0.568629
v 0.359804 0.169093 2.576704
v 0.468197 0.175549 2.549449
v 0.025434 1.105403 0.529574
v 0.328677 0.266991 2.620058
v -0.192024 1.246770 0.646506
v 0.796194 0.038465 4.114854
v 0.838523 -0.083751 4.081259
v 0.965829 -0.073972 4.041830
v 1.002179 0.054288 4.051055
v 0.897339 0.123778 4.096187
v 0.942855 -0.017184 4.348351
v 0.956637 -0.056978 4.337411
v 0.998089 -0.053795 4.324574
v 1.009926 -0.012032 4.327579
v 0.975788 0.010595 4.342273
v 0.248372 0.703703 1.499138
v 0.138060 0.775645 1.557092
v 0.060843 0.567379 1.492169
v 0.200649 0.574987 1.459014
v 0.022160 0.691392 1.552784
v -0.219646 1.086621 0.351197
v -0.142363 1.094423 0.508383
v 0.031785 1.091443 0.484256
v 0.062131 1.081799 0.312158
v 0.017647 1.489524 0.242678
v -0.063274 0.574595 0.025687
v 0.073933 0.685992 0.360237
v -0.214544 0.682962 0.207246
v 0.108862 0.679931 0.162148
v -0.125943 0.687865 0.388109
v -0.166470 1.650836 0.186477
v -0.259393 1.475348 0.305872
vt 0.5532 0.9487
vt 0.5527 0.9816
vt 0.5512 0.9814
vt 0.5508 0.9487
vt 0.5601 0.9488
vt 0.5573 0.9818
vt 0.5557 0.9819
vt 0.5578 0.9486
vt 0.5555 0.9486
vt 0.5542 0.9817
vt 0.5624 0.9492
vt 0.5588 0.9818
vt 0.5914 0.9807
vt 0.5977 0.9871
vt 0.5945 0.9888
vt 0.5877 0.9829
vt 0.5596 0.9246
vt 0.5567 0.9242
vt 0.5962 0.9738
vt 0.6018 0.9810
vt 0.6001 0.9842
vt 0.5941 0.9775
vt 0.5653 0.9249
vt 0.5625 0.9248
vt 0.6939 0.9307
vt 0.6951 0.9239
vt 0.7040 0.9248
vt 0.7030 0.9307
vt 0.5537 0.9239
vt 0.6905 0.9269
vt 0.5506 0.9240
vt 0.5525 0.9841
vt 0.5501 0.9842
vt 0.5573 0.9843
vt 0.5557 0.9841
vt 0.5542 0.9840
vt 0.5596 0.9846
vt 0.5559 0.9885
vt 0.5551 0.9883
vt 0.5543 0.9882
vt 0.5536 0.9884
vt 0.5566 0.9888
vt 0.5528 0.9887
vt 0.5865 0.9602
vt 0.5874 0.9602
vt 0.5877 0.9611
vt 0.5870 0.9617
vt 0.5862 0.9611
vt 0.5538 0.9006
vt 0.5501 0.9008
vt 0.5654 0.9006
vt 0.5613 0.9009
vt 0.5574 0.9010
vt 0.5694 0.9019
vt 0.5654 0.8995
vt 0.5617 0.8997
vt 0.7073 0.9265
vt 0.7067 0.9301
vt 0.5502 0.8921
vt 0.5541 0.8887
vt 0.5720 0.9757
vt 0.5823 0.9837
vt 0.5820 0.9888
vt 0.5694 0.9801
vt 0.5841 0.9661
vt 0.5807 0.9700
vt 0.5763 0.9727
vt 0.5867 0.9617
vt 0.5573 0.8924
vt 0.7076 0.9203
vt 0.7036 0.9239
vt 0.7033 0.9179
vt 0.6949 0.9239
vt 0.6946 0.9179
vt 0.6905 0.9196
vt 0.6906 0.9233
vn 0.5430 0.8395 -0.0201
vn 0.0261 -0.9893 -0.1432
vn -0.5697 0.7552 0.3241
vn 0.9195 -0.2411 -0.3104
vn -0.8891 -0.3856 0.2464
vn -0.8827 -0.1667 0.4394
vn -0.9277 -0.3512 0.1268
vn 0.9839 0.0502 0.1714
vn 0.9181 -0.2421 -0.3139
vn -0.1256 0.3330 -0.9345
vn -0.5382 0.7186 0.4404
vn 0.1288 -0.2772 0.9522
vn -0.0288 -0.9409 -0.3376
vn -0.0694 0.8301 -0.5533
vn 0.5987 0.7832 0.1679
vn 0.3700 0.8297 -0.4180
vn -0.0850 -0.8678 -0.4897
vn -0.6490 0.7594 -0.0459
vn 0.7113 -0.1522 -0.6862
vn -0.9485 -0.3052 -0.0848
vn 0.0949 -0.9937 0.0601
vn -0.5082 0.7094 0.4883
vn 0.9598 -0.2655 -0.0906
vn -0.8167 -0.3978 0.4181
vn 0.5946 0.7855 0.1717
vn 0.3031 -0.1536 0.9405
vn 0.6304 0.7080 0.3185
vn -0.0667 -0.8720 -0.4849
vn -0.5115 0.6733 0.5338
vn 0.9183 -0.2436 -0.3121
vn -0.9497 -0.3113 0.0339
vn 0.0449 -0.9868 0.1554
vn 0.8715 -0.4208 0.2518
vn -0.9610 -0.2729 -0.0446
vn 0.0096 0.9985 -0.0543
vn 0.5883 0.7311 0.3455
vn 0.4366 0.3593 -0.8248
vn 0.1321 -0.2768 0.9518
vn -0.6717 0.2423 -0.7001
vn 0.9837 0.0497 0.1728
vn -0.8853 -0.1653 0.4347
vn -0.5162 0.6575 0.5488
vn -0.1697 -0.4913 -0.8543
vn -0.0814 -0.8350 -0.5442
vn -0.1680 0.5860 -0.7927
s off
f 13/1/1 10/2/1 9/3/1 12/4/1
f 17/5/2 8/6/2 7/7/2 16/8/2
f 19/9/3 6/10/3 10/2/3 13/1/3
f 12/11/4 9/12/4 8/6/4 17/5/4
f 16/8/5 7/7/5 6/10/5 19/9/5
f 45/13/6 37/14/6 36/15/6 43/16/6
f 33/17/7 16/8/7 19/9/7 35/18/7
f 44/19/8 39/20/8 38/21/8 42/22/8
f 31/23/9 12/11/9 17/5/9 34/24/9
f 44/25/10 43/26/10 36/27/10 39/28/10
f 35/18/11 19/9/11 13/1/11 32/29/11
f 42/22/12 38/21/12 37/14/12 45/13/12
f 34/24/13 17/5/13 16/8/13 33/17/13
f 44/25/14 41/30/14 43/26/14
f 32/29/15 13/1/15 12/4/15 31/31/15
f 10/2/16 25/32/16 24/33/16 9/3/16
f 8/6/17 23/34/17 22/35/17 7/7/17
f 6/10/18 21/36/18 25/32/18 10/2/18
f 9/12/19 24/37/19 23/34/19 8/6/19
f 7/7/20 22/35/20 21/36/20 6/10/20
f 23/34/21 28/38/21 27/39/21 22/35/21
f 21/36/22 26/40/22 30/41/22 25/32/22
f 24/37/23 29/42/23 28/38/23 23/34/23
f 22/35/24 27/39/24 26/40/24 21/36/24
f 25/32/25 30/41/25 29/43/25 24/33/25
f 28/44/26 29/45/26 30/46/26 26/47/26
f 27/48/26 28/44/26 26/47/26
f 14/49/27 32/29/27 31/31/27 11/50/27
f 18/51/28 34/24/28 33/17/28 15/52/28
f 20/53/29 35/18/29 32/29/29 14/49/29
f 11/54/30 31/23/30 34/24/30 18/51/30
f 15/52/31 33/17/31 35/18/31 20/53/31
f 38/55/32 18/51/32 15/52/32 37/56/32
f 18/51/33 38/55/33 11/54/33
f 15/52/34 20/53/34 37/56/34
f 39/28/35 36/27/35 37/57/35 38/58/35
f 14/49/36 11/50/36 40/59/36 46/60/36
f 5/61/37 41/62/37 44/63/37 4/64/37
f 3/65/38 42/22/38 45/13/38 2/66/38
f 1/67/39 43/16/39 41/62/39 5/61/39
f 4/68/40 44/19/40 42/22/40 3/65/40
f 2/66/41 45/13/41 43/16/41 1/67/41
f 20/53/42 14/49/42 46/60/42 47/69/42
f 46/70/43 40/71/43 47/72/43
f 11/73/44 20/74/44 47/72/44 40/71/44
f 37/75/45 20/74/45 11/73/45 38/76/45
