# Blender v2.78 (sub 0) OBJ File: 'Low_Poly_Trees_Pack.blend'
# www.blender.org
g Palm_Tree_crk_l_04
v 4.253616 1.853813 -0.751893
v 5.056283 1.780422 -0.944875
v 5.907905 0.219565 -0.919309
v 4.594418 1.505574 -1.400233
v 5.415762 0.721301 -1.516192
v 5.907193 1.067680 -1.062250
v 5.727102 0.886730 -1.359788
v 4.864500 1.673257 -1.233825
v 5.578381 1.481886 -1.033902
v 5.050498 1.067525 -1.617087
v 5.373857 1.289928 -1.422626
v 7.226718 0.997632 0.769441
v 7.429281 0.690206 0.120968
v 5.959882 0.195027 -0.882953
v 7.095443 1.208491 0.025203
v 6.425019 0.819925 -0.783773
v 6.759972 0.240059 -0.684744
v 6.613904 0.533105 -0.812406
v 7.291357 0.961783 0.012126
v 7.286239 0.472822 -0.397158
v 6.858430 1.151130 -0.456176
v 7.122833 0.813689 -0.528099
v 3.347107 0.669270 -0.105555
v 3.950783 0.990699 -0.778648
v 5.970519 0.208528 -0.864823
v 3.809928 0.132777 -0.726811
v 5.168191 -0.142230 -1.111304
v 5.294393 0.775594 -1.140546
v 5.260446 0.318598 -1.215506
v 3.879355 0.565738 -0.834002
v 4.638646 0.969775 -1.120105
v 4.476466 -0.077882 -1.060469
v 4.557287 0.450499 -1.192812
v 5.293643 1.194681 1.306844
v 6.023485 1.251171 0.760981
v 5.911558 0.193733 -0.871996
v 5.224086 1.418880 0.357244
v 5.547410 1.044680 -0.816794
v 6.428045 0.840374 -0.344508
v 6.026022 0.950736 -0.662006
v 5.651421 1.354129 0.503877
v 6.363683 1.139547 0.181742
v 5.371492 1.349581 -0.325717
v 5.905899 1.276306 -0.146103
v 6.759587 0.107969 2.083686
v 6.320010 0.034815 1.424535
v 5.853104 0.142060 -0.920231
v 6.878843 0.397998 1.067266
v 6.545261 0.459855 -0.313321
v 6.015761 0.011968 0.053484
v 6.342256 0.103331 -0.173130
v 6.613611 0.269369 1.237114
v 6.048305 0.014790 0.740922
v 6.840308 0.415754 0.369829
v 6.480636 0.189677 0.519457
v 3.970381 0.541489 -2.303217
v 4.862355 0.642935 -2.505608
v 5.957438 0.207587 -0.944363
v 4.596719 0.021974 -2.086878
v 5.713291 0.024950 -1.620688
v 5.882712 0.654972 -1.642145
v 5.858669 0.237209 -1.642296
v 4.769517 0.281439 -2.324828
v 5.533895 0.775009 -2.171003
v 5.223806 0.003646 -1.983117
v 5.430712 0.297832 -2.086322
v 7.232327 -0.000375 -3.136405
v 7.220670 0.275414 -2.419203
v 5.916647 0.154033 -0.962638
v 6.524822 0.475739 -2.856538
v 5.865435 0.615852 -1.693573
v 6.632537 0.416425 -1.280789
v 6.262185 0.465292 -1.537977
v 6.834534 0.360248 -2.585590
v 7.019977 0.482791 -1.833510
v 6.166666 0.764082 -2.302777
v 6.545669 0.587207 -2.009774
v 8.401542 0.006459 -1.463426
v 7.755896 -0.004058 -1.685815
v 5.878053 0.234154 -0.928991
v 7.891642 0.008652 -0.882541
v 6.716297 0.380003 -0.795509
v 6.510168 0.075260 -1.510744
v 6.606855 0.309004 -1.172202
v 7.848907 0.059085 -1.274835
v 7.081224 0.005647 -1.684777
v 7.265299 0.051014 -0.752820
v 7.198160 0.120500 -1.212117
v 4.253746 1.852541 -0.751252
v 5.055978 1.779201 -0.944198
v 5.906837 0.219870 -0.918409
v 4.594438 1.504568 -1.399217
v 5.415089 0.721316 -1.514929
v 5.906098 1.067304 -1.061410
v 5.726148 0.886639 -1.358727
v 4.864367 1.672123 -1.232964
v 5.577673 1.480972 -1.033060
v 5.050135 1.066954 -1.615827
v 5.373288 1.289204 -1.421532
v 7.225522 0.996853 0.769375
v 7.427985 0.689650 0.121203
v 5.959673 0.195137 -0.881543
v 7.094370 1.207596 0.025511
v 6.424722 0.819531 -0.782431
v 6.759375 0.240300 -0.683468
v 6.613482 0.533055 -0.811040
v 7.290156 0.961059 0.012408
v 7.285141 0.472645 -0.396259
v 6.857661 1.150390 -0.455225
v 7.121903 0.813254 -0.527103
v 3.348247 0.669136 -0.104703
v 3.951632 0.990410 -0.777535
v 5.969903 0.208657 -0.863539
v 3.810843 0.132903 -0.725720
v 5.168043 -0.141876 -1.109927
v 5.294143 0.775396 -1.139152
v 5.260155 0.318688 -1.214110
v 3.880262 0.565653 -0.832900
v 4.638970 0.969526 -1.118735
v 4.476882 -0.077621 -1.059126
v 4.557647 0.450504 -1.191428
v 5.293519 1.193296 1.306514
v 6.023192 1.249779 0.760834
v 5.910857 0.193500 -0.870773
v 5.223906 1.417464 0.357164
v 5.546936 1.043742 -0.815824
v 6.427203 0.839515 -0.343735
v 6.025324 0.949994 -0.661001
v 5.651186 1.352724 0.503751
v 6.363122 1.138256 0.181995
v 5.371162 1.348240 -0.325345
v 5.905429 1.275000 -0.145754
v 6.758969 0.109211 2.084029
v 6.319316 0.036044 1.424764
v 5.852445 0.143229 -0.919739
v 6.878220 0.399280 1.067383
v 6.544296 0.460807 -0.312866
v 6.015358 0.013339 0.053544
v 6.341549 0.104534 -0.172814
v 6.613001 0.270646 1.237320
v 6.047717 0.016092 0.740970
v 6.839468 0.416899 0.369991
v 6.479942 0.190924 0.519542
v 3.970646 0.542202 -2.302006
v 4.862089 0.643501 -2.504322
v 5.956079 0.207978 -0.944154
v 4.596735 0.022844 -2.085744
v 5.712330 0.025768 -1.620017
v 5.881464 0.655160 -1.641474
v 5.857460 0.237705 -1.641715
v 4.769411 0.282173 -2.323605
v 5.533039 0.775392 -2.169924
v 5.223324 0.004493 -1.982071
v 5.429971 0.298429 -2.085255
v 7.232914 0.000869 -3.136795
v 7.221118 0.276714 -2.419594
v 5.916612 0.155299 -0.961974
v 6.525510 0.476972 -2.856760
v 5.865669 0.617133 -1.692982
v 6.632498 0.417791 -1.280365
v 6.262271 0.466617 -1.537445
v 6.835113 0.361519 -2.585897
v 7.020257 0.484193 -1.833543
v 6.167177 0.765411 -2.302645
v 6.546038 0.588584 -2.009667
v 8.401425 0.005035 -1.463368
v 7.755836 -0.005461 -1.685543
v 5.878346 0.232837 -0.928517
v 7.891484 0.007242 -0.882714
v 6.716004 0.378613 -0.795347
v 6.510205 0.073991 -1.510087
v 6.606816 0.307644 -1.171763
v 7.848788 0.057660 -1.274804
v 7.081102 0.004299 -1.684318
v 7.264944 0.049629 -0.752859
v 7.197905 0.119109 -1.211902
v 0.000000 0.000000 -0.271814
v -0.258511 0.000000 -0.083995
v -0.159769 0.000000 0.219903
v 0.159769 0.000000 0.219902
v 0.258511 0.000000 -0.083995
v 5.736741 0.137990 -0.627148
v 5.677350 0.193551 -0.656813
v 5.701901 0.273471 -0.634354
v 5.776470 0.267303 -0.590808
v 5.798001 0.183571 -0.586355
v 0.276751 0.691129 0.150010
v 4.532146 0.212721 0.203699
v 4.554108 0.073249 0.224712
v 0.344542 0.672482 -0.067496
v -0.010415 0.770124 -0.067496
v 4.426059 0.096281 0.036871
v 4.453009 0.226956 0.087607
v 0.057376 0.751476 0.150010
v 4.488543 0.001285 0.121607
v 0.167064 0.721303 -0.201922
v 5.815914 0.091500 -0.760610
v 5.695855 0.202541 -0.819216
v 5.743939 0.362934 -0.772950
v 5.893717 0.351021 -0.685750
v 5.938198 0.183266 -0.678123
v 5.999309 0.214575 -1.052060
v 5.960216 0.250731 -1.071141
v 5.975875 0.302957 -1.056077
v 6.024642 0.299078 -1.027684
v 6.039126 0.244455 -1.025202
v 0.574890 1.158349 0.118056
v 0.608908 1.112047 -0.059953
v 0.430788 1.354486 -0.059953
v 0.464806 1.308185 0.118056
v 0.519848 1.233267 -0.169968
v 1.445425 1.468889 0.150025
v 1.309803 1.637059 -0.008235
v 1.477442 1.429189 -0.008235
v 1.341819 1.597360 0.150025
v 1.393622 1.533124 -0.106045
v 5.354010 0.204883 -0.051559
v 5.229834 0.107125 -0.152050
v 5.380820 0.092312 -0.042760
v 5.260696 0.214038 -0.119104
v 5.304075 0.031894 -0.104867
v 3.068619 1.777701 0.106761
v 2.925753 1.919426 -0.041625
v 3.442117 0.104964 0.217157
v 3.358975 0.273905 0.052653
v 3.387367 0.027091 0.095432
v 3.102345 1.744244 -0.041625
v 3.424569 0.257504 0.190718
v 2.959479 1.885969 0.106761
v 3.335982 0.131503 -0.006237
v 3.014049 1.831835 -0.133332
vt 0.6829 0.0079
vt 0.6947 0.0353
vt 0.6829 0.0344
vt 0.6829 0.1070
vt 0.6716 0.0803
vt 0.6829 0.0795
vt 0.6829 0.0581
vt 0.6969 0.0592
vt 0.6689 0.0592
vt 0.6710 0.0353
vt 0.6942 0.0803
vt 0.6829 0.0079
vt 0.6947 0.0353
vt 0.6829 0.0344
vt 0.6829 0.1070
vt 0.6716 0.0803
vt 0.6829 0.0795
vt 0.6829 0.0581
vt 0.6969 0.0592
vt 0.6689 0.0592
vt 0.6710 0.0353
vt 0.6942 0.0803
vt 0.8176 0.0094
vt 0.8295 0.0369
vt 0.8176 0.0359
vt 0.8176 0.1086
vt 0.8063 0.0819
vt 0.8176 0.0810
vt 0.8176 0.0597
vt 0.8316 0.0608
vt 0.8036 0.0608
vt 0.8058 0.0369
vt 0.8289 0.0819
vt 0.8176 0.0094
vt 0.8295 0.0369
vt 0.8176 0.0359
vt 0.8176 0.1086
vt 0.8063 0.0819
vt 0.8176 0.0810
vt 0.8176 0.0597
vt 0.8316 0.0608
vt 0.8036 0.0608
vt 0.8058 0.0369
vt 0.8289 0.0819
vt 0.8176 0.0094
vt 0.8295 0.0369
vt 0.8176 0.0359
vt 0.8176 0.1086
vt 0.8063 0.0819
vt 0.8176 0.0810
vt 0.8176 0.0597
vt 0.8316 0.0608
vt 0.8036 0.0608
vt 0.8058 0.0369
vt 0.8289 0.0819
vt 0.8176 0.0094
vt 0.8295 0.0369
vt 0.8176 0.0359
vt 0.8176 0.1086
vt 0.8063 0.0819
vt 0.8176 0.0810
vt 0.8176 0.0597
vt 0.8316 0.0608
vt 0.8036 0.0608
vt 0.8058 0.0369
vt 0.8289 0.0819
vt 0.8176 0.0094
vt 0.8295 0.0369
vt 0.8176 0.0359
vt 0.8176 0.1086
vt 0.8063 0.0819
vt 0.8176 0.0810
vt 0.8176 0.0597
vt 0.8316 0.0608
vt 0.8036 0.0608
vt 0.8058 0.0369
vt 0.8289 0.0819
vt 0.8176 0.0094
vt 0.8295 0.0369
vt 0.8176 0.0359
vt 0.8176 0.1086
vt 0.8063 0.0819
vt 0.8176 0.0810
vt 0.8176 0.0597
vt 0.8316 0.0608
vt 0.8036 0.0608
vt 0.8058 0.0369
vt 0.8289 0.0819
vt 0.6829 0.0079
vt 0.6829 0.0344
vt 0.6947 0.0353
vt 0.6829 0.1070
vt 0.6829 0.0795
vt 0.6716 0.0803
vt 0.6829 0.0581
vt 0.6969 0.0592
vt 0.6689 0.0592
vt 0.6710 0.0353
vt 0.6942 0.0803
vt 0.6829 0.0079
vt 0.6829 0.0344
vt 0.6947 0.0353
vt 0.6829 0.1070
vt 0.6829 0.0795
vt 0.6716 0.0803
vt 0.6829 0.0581
vt 0.6969 0.0592
vt 0.6689 0.0592
vt 0.6710 0.0353
vt 0.6942 0.0803
vt 0.8176 0.0094
vt 0.8176 0.0359
vt 0.8295 0.0369
vt 0.8176 0.1086
vt 0.8176 0.0810
vt 0.8063 0.0819
vt 0.8176 0.0597
vt 0.8316 0.0608
vt 0.8036 0.0608
vt 0.8058 0.0369
vt 0.8289 0.0819
vt 0.8176 0.0094
vt 0.8176 0.0359
vt 0.8295 0.0369
vt 0.8176 0.1086
vt 0.8176 0.0810
vt 0.8063 0.0819
vt 0.8176 0.0597
vt 0.8316 0.0608
vt 0.8036 0.0608
vt 0.8058 0.0369
vt 0.8289 0.0819
vt 0.8176 0.0094
vt 0.8176 0.0359
vt 0.8295 0.0369
vt 0.8176 0.1086
vt 0.8176 0.0810
vt 0.8063 0.0819
vt 0.8176 0.0597
vt 0.8316 0.0608
vt 0.8036 0.0608
vt 0.8058 0.0369
vt 0.8289 0.0819
vt 0.8176 0.0094
vt 0.8176 0.0359
vt 0.8295 0.0369
vt 0.8176 0.1086
vt 0.8176 0.0810
vt 0.8063 0.0819
vt 0.8176 0.0597
vt 0.8316 0.0608
vt 0.8036 0.0608
vt 0.8058 0.0369
vt 0.8289 0.0819
vt 0.8176 0.0094
vt 0.8176 0.0359
vt 0.8295 0.0369
vt 0.8176 0.1086
vt 0.8176 0.0810
vt 0.8063 0.0819
vt 0.8176 0.0597
vt 0.8316 0.0608
vt 0.8036 0.0608
vt 0.8058 0.0369
vt 0.8289 0.0819
vt 0.8176 0.0094
vt 0.8176 0.0359
vt 0.8295 0.0369
vt 0.8176 0.1086
vt 0.8176 0.0810
vt 0.8063 0.0819
vt 0.8176 0.0597
vt 0.8316 0.0608
vt 0.8036 0.0608
vt 0.8058 0.0369
vt 0.8289 0.0819
vt 0.4172 0.9402
vt 0.4170 0.9573
vt 0.4148 0.9571
vt 0.4144 0.9400
vt 0.4256 0.9392
vt 0.4240 0.9575
vt 0.4217 0.9573
vt 0.4227 0.9386
vt 0.4199 0.9394
vt 0.4193 0.9575
vt 0.4281 0.9405
vt 0.4263 0.9576
vt 0.4559 0.8897
vt 0.4537 0.9100
vt 0.4481 0.9105
vt 0.4471 0.8911
vt 0.4239 0.8897
vt 0.4234 0.9168
vt 0.4202 0.9181
vt 0.4205 0.8910
vt 0.4720 0.8965
vt 0.4644 0.9137
vt 0.4592 0.9112
vt 0.4646 0.8918
vt 0.4307 0.8920
vt 0.4297 0.9191
vt 0.4268 0.9174
vt 0.4275 0.8902
vt 0.4423 0.9116
vt 0.4390 0.8936
vt 0.4170 0.9194
vt 0.4170 0.8923
vt 0.4363 0.9126
vt 0.4307 0.8949
vt 0.4135 0.9189
vt 0.4132 0.8917
vt 0.4166 0.9609
vt 0.4132 0.9610
vt 0.4239 0.9613
vt 0.4215 0.9609
vt 0.4191 0.9608
vt 0.4273 0.9620
vt 0.4215 0.9674
vt 0.4204 0.9671
vt 0.4193 0.9670
vt 0.4182 0.9672
vt 0.4226 0.9680
vt 0.4171 0.9676
vt 0.4111 0.9025
vt 0.4119 0.9014
vt 0.4132 0.9018
vt 0.4132 0.9032
vt 0.4119 0.9036
vt 0.4439 0.9253
vt 0.4394 0.9260
vt 0.4561 0.9264
vt 0.4522 0.9258
vt 0.4482 0.9254
vt 0.4601 0.9269
vt 0.4438 0.9478
vt 0.4401 0.9474
vt 0.4547 0.9462
vt 0.4509 0.9455
vt 0.4473 0.9466
vt 0.4580 0.9480
vt 0.4428 0.9860
vt 0.4395 0.9852
vt 0.4527 0.9838
vt 0.4491 0.9830
vt 0.4460 0.9845
vt 0.4555 0.9860
vt 0.6906 0.9411
vt 0.6906 0.9374
vt 0.6942 0.9363
vt 0.6942 0.9422
vt 0.6964 0.9392
vt 0.6903 0.9341
vt 0.6915 0.9305
vt 0.6952 0.9305
vt 0.6933 0.9362
vt 0.6964 0.9341
vn 0.5612 -0.3447 -0.7525
vn 0.0018 0.9372 -0.3488
vn 0.3909 0.1774 -0.9032
vn 0.6189 0.4906 -0.6134
vn 0.8736 -0.0802 -0.4800
vn -0.1804 0.8238 -0.5373
vn 0.3560 0.7601 -0.5437
vn 0.1310 0.5585 -0.8191
vn 0.0416 0.1263 -0.9911
vn 0.8816 0.4690 0.0530
vn 0.3220 0.3739 -0.8698
vn 0.5170 -0.0947 -0.8508
vn 0.2456 -0.2816 -0.9275
vn 0.7835 0.6202 0.0375
vn 0.8848 0.2936 -0.3619
vn 0.6923 0.6032 -0.3961
vn 0.3907 -0.2767 -0.8779
vn -0.7755 0.2080 -0.5962
vn -0.0820 -0.2182 -0.9725
vn 0.0044 0.1490 -0.9888
vn 0.4539 0.1113 -0.8841
vn -0.8084 -0.0160 -0.5884
vn -0.4329 0.1896 -0.8813
vn -0.4801 -0.1407 -0.8659
vn 0.3373 0.2039 -0.9191
vn 0.1030 0.9659 0.2377
vn 0.2872 0.8476 -0.4462
vn 0.5055 0.7766 -0.3761
vn 0.6350 0.1159 -0.7638
vn 0.0703 0.9720 0.2243
vn 0.2842 0.9587 -0.0103
vn 0.1617 0.9850 -0.0600
vn 0.6742 -0.5690 -0.4709
vn 0.5049 -0.8277 -0.2449
vn 0.6592 -0.7288 -0.1853
vn 0.3408 -0.9400 0.0185
vn 0.1633 -0.9739 -0.1574
vn 0.3024 -0.9254 -0.2286
vn 0.4599 -0.8852 -0.0698
vn 0.4855 -0.8740 -0.0206
vn 0.8104 -0.5692 -0.1388
vn -0.1574 -0.4091 -0.8988
vn 0.5438 -0.5372 -0.6448
vn 0.7551 -0.1672 -0.6339
vn 0.9882 -0.0568 -0.1423
vn -0.2103 -0.5810 -0.7863
vn 0.4021 -0.3604 -0.8417
vn 0.2025 -0.6106 -0.7656
vn -0.1142 -0.8435 -0.5249
vn -0.3370 -0.8806 0.3331
vn -0.1949 -0.9216 -0.3357
vn -0.0635 -0.9733 -0.2205
vn 0.1557 -0.9049 -0.3961
vn -0.4913 -0.8477 0.2002
vn -0.2935 -0.9294 0.2238
vn -0.4735 -0.8717 0.1264
vn -0.1478 0.9788 -0.1416
vn 0.0392 0.9863 -0.1604
vn 0.4118 0.9070 -0.0886
vn 0.1227 0.8997 -0.4189
vn -0.2520 0.8285 -0.5001
vn 0.1321 0.9849 0.1122
vn 0.0425 0.9774 -0.2070
vn 0.0992 0.9870 0.1262
vn -0.5611 0.3448 0.7525
vn -0.0018 -0.9372 0.3487
vn -0.3908 -0.1773 0.9032
vn -0.6189 -0.4907 0.6133
vn -0.8736 0.0802 0.4800
vn 0.1805 -0.8239 0.5373
vn -0.3560 -0.7601 0.5436
vn -0.1309 -0.5584 0.8191
vn -0.0416 -0.1264 0.9911
vn -0.8816 -0.4690 -0.0531
vn -0.3219 -0.3740 0.8698
vn -0.5169 0.0949 0.8508
vn -0.2456 0.2818 0.9275
vn -0.7835 -0.6202 -0.0376
vn -0.8848 -0.2936 0.3618
vn -0.6923 -0.6033 0.3960
vn -0.3907 0.2767 0.8779
vn 0.7755 -0.2080 0.5961
vn 0.0820 0.2183 0.9724
vn -0.0044 -0.1491 0.9888
vn -0.4539 -0.1113 0.8841
vn 0.8084 0.0160 0.5884
vn 0.4329 -0.1896 0.8813
vn 0.4801 0.1408 0.8659
vn -0.3374 -0.2038 0.9190
vn -0.1030 -0.9659 -0.2377
vn -0.2871 -0.8477 0.4462
vn -0.5055 -0.7766 0.3760
vn -0.6349 -0.1158 0.7639
vn -0.0703 -0.9720 -0.2244
vn -0.2842 -0.9587 0.0102
vn -0.1617 -0.9850 0.0599
vn -0.6742 0.5688 0.4710
vn -0.5049 0.8277 0.2449
vn -0.6592 0.7288 0.1853
vn -0.3407 0.9400 -0.0186
vn -0.1631 0.9740 0.1573
vn -0.3024 0.9254 0.2286
vn -0.4599 0.8852 0.0698
vn -0.4855 0.8740 0.0206
vn -0.8104 0.5692 0.1388
vn 0.1575 0.4091 0.8988
vn -0.5437 0.5372 0.6448
vn -0.7551 0.1671 0.6339
vn -0.9882 0.0567 0.1421
vn 0.2104 0.5810 0.7862
vn -0.4021 0.3604 0.8417
vn -0.2024 0.6107 0.7656
vn 0.1142 0.8435 0.5249
vn 0.3370 0.8806 -0.3331
vn 0.1949 0.9216 0.3356
vn 0.0635 0.9733 0.2204
vn -0.1557 0.9049 0.3961
vn 0.4913 0.8477 -0.2002
vn 0.2935 0.9294 -0.2238
vn 0.4735 0.8717 -0.1263
vn 0.1478 -0.9788 0.1417
vn -0.0392 -0.9863 0.1604
vn -0.4119 -0.9069 0.0885
vn -0.1226 -0.8997 0.4190
vn 0.2521 -0.8284 0.5002
vn -0.1321 -0.9849 -0.1123
vn -0.0425 -0.9774 0.2070
vn -0.0993 -0.9870 -0.1262
vn 0.7537 0.2272 0.6167
vn -0.7225 0.3847 -0.5745
vn 0.4812 -0.8467 0.2269
vn 0.0095 0.9924 0.1225
vn -0.4333 -0.7427 -0.5106
vn -0.5670 0.2041 -0.7980
vn 0.0042 -0.6816 -0.7317
vn 0.0105 0.0940 0.9955
vn 0.0393 0.9945 0.0975
vn 0.5893 -0.0571 -0.8059
vn -0.0300 -0.8243 0.5654
vn -0.9090 0.2885 0.3007
vn 0.0470 0.3647 -0.9299
vn 0.9434 -0.1285 0.3059
vn -0.0036 0.1599 0.9871
vn 0.5383 0.1808 0.8231
vn -0.9462 0.3113 -0.0885
vn 0.3050 -0.8287 0.4692
vn -0.2135 0.8488 0.4838
vn -0.6442 -0.7558 -0.1169
vn -0.6727 0.3841 -0.6324
vn 0.5877 -0.8086 0.0283
vn 0.1354 0.9859 -0.0979
vn -0.3997 -0.7269 -0.5585
vn 0.9150 0.2568 0.3113
vn 0.5065 0.0954 -0.8569
vn 0.5065 0.0953 -0.8570
vn 0.8163 -0.4985 0.2920
vn -0.7646 0.5749 0.2912
vn 0.5279 -0.3095 -0.7909
vn 0.0276 0.0433 0.9987
vn -0.4830 0.3782 -0.7897
vn 0.3122 -0.9039 0.2925
vn -0.3087 0.9052 0.2921
vn 0.2471 -0.5480 -0.7992
vn -0.0289 -0.0222 0.9993
vn -0.1498 0.6060 -0.7812
vn -0.1649 -0.6835 -0.7111
vn 0.0384 0.9951 0.0907
vn 0.1804 -0.8376 0.5157
vn -0.2209 0.3714 -0.9018
vn 0.2969 0.1686 0.9399
vn 0.1879 -0.9455 0.2659
vn -0.1618 0.9515 0.2617
vn 0.1085 -0.6482 -0.7537
vn 0.0229 0.0206 0.9995
vn -0.1286 0.6368 -0.7603
vn -0.9042 -0.0302 0.4260
vn 0.7043 0.7099 0.0000
s off
f 3/1/1 5/2/1 7/3/1
f 1/4/2 2/5/2 8/6/2
f 11/7/3 7/3/3 5/2/3 10/8/3
f 9/9/4 6/10/4 7/3/4 11/7/4
f 6/10/5 3/1/5 7/3/5
f 4/11/6 1/4/6 8/6/6
f 2/5/7 9/9/7 11/7/7 8/6/7
f 8/6/8 11/7/8 10/8/8 4/11/8
f 14/12/9 16/13/9 18/14/9
f 12/15/10 13/16/10 19/17/10
f 22/18/11 18/14/11 16/13/11 21/19/11
f 20/20/12 17/21/12 18/14/12 22/18/12
f 17/21/13 14/12/13 18/14/13
f 15/22/14 12/15/14 19/17/14
f 13/16/15 20/20/15 22/18/15 19/17/15
f 19/17/16 22/18/16 21/19/16 15/22/16
f 25/23/17 27/24/17 29/25/17
f 23/26/18 24/27/18 30/28/18
f 33/29/19 29/25/19 27/24/19 32/30/19
f 31/31/20 28/32/20 29/25/20 33/29/20
f 28/32/21 25/23/21 29/25/21
f 26/33/22 23/26/22 30/28/22
f 24/27/23 31/31/23 33/29/23 30/28/23
f 30/28/24 33/29/24 32/30/24 26/33/24
f 36/34/25 38/35/25 40/36/25
f 34/37/26 35/38/26 41/39/26
f 44/40/27 40/36/27 38/35/27 43/41/27
f 42/42/28 39/43/28 40/36/28 44/40/28
f 39/43/29 36/34/29 40/36/29
f 37/44/30 34/37/30 41/39/30
f 35/38/31 42/42/31 44/40/31 41/39/31
f 41/39/32 44/40/32 43/41/32 37/44/32
f 47/45/33 49/46/33 51/47/33
f 45/48/34 46/49/34 52/50/34
f 55/51/35 51/47/35 49/46/35 54/52/35
f 53/53/36 50/54/36 51/47/36 55/51/36
f 50/54/37 47/45/37 51/47/37
f 48/55/38 45/48/38 52/50/38
f 46/49/39 53/53/39 55/51/39 52/50/39
f 52/50/40 55/51/40 54/52/40 48/55/40
f 58/56/41 60/57/41 62/58/41
f 56/59/42 57/60/42 63/61/42
f 66/62/43 62/58/43 60/57/43 65/63/43
f 64/64/44 61/65/44 62/58/44 66/62/44
f 61/65/45 58/56/45 62/58/45
f 59/66/46 56/59/46 63/61/46
f 57/60/47 64/64/47 66/62/47 63/61/47
f 63/61/48 66/62/48 65/63/48 59/66/48
f 69/67/49 71/68/49 73/69/49
f 67/70/50 68/71/50 74/72/50
f 77/73/51 73/69/51 71/68/51 76/74/51
f 75/75/52 72/76/52 73/69/52 77/73/52
f 72/76/53 69/67/53 73/69/53
f 70/77/54 67/70/54 74/72/54
f 68/71/55 75/75/55 77/73/55 74/72/55
f 74/72/56 77/73/56 76/74/56 70/77/56
f 80/78/57 82/79/57 84/80/57
f 78/81/58 79/82/58 85/83/58
f 88/84/59 84/80/59 82/79/59 87/85/59
f 86/86/60 83/87/60 84/80/60 88/84/60
f 83/87/61 80/78/61 84/80/61
f 81/88/62 78/81/62 85/83/62
f 79/82/63 86/86/63 88/84/63 85/83/63
f 85/83/64 88/84/64 87/85/64 81/88/64
f 91/89/65 95/90/65 93/91/65
f 89/92/66 96/93/66 90/94/66
f 99/95/67 98/96/67 93/91/67 95/90/67
f 97/97/68 99/95/68 95/90/68 94/98/68
f 94/98/69 95/90/69 91/89/69
f 92/99/70 96/93/70 89/92/70
f 90/94/71 96/93/71 99/95/71 97/97/71
f 96/93/72 92/99/72 98/96/72 99/95/72
f 102/100/73 106/101/73 104/102/73
f 100/103/74 107/104/74 101/105/74
f 110/106/75 109/107/75 104/102/75 106/101/75
f 108/108/76 110/106/76 106/101/76 105/109/76
f 105/109/77 106/101/77 102/100/77
f 103/110/78 107/104/78 100/103/78
f 101/105/79 107/104/79 110/106/79 108/108/79
f 107/104/80 103/110/80 109/107/80 110/106/80
f 113/111/81 117/112/81 115/113/81
f 111/114/82 118/115/82 112/116/82
f 121/117/83 120/118/83 115/113/83 117/112/83
f 119/119/84 121/117/84 117/112/84 116/120/84
f 116/120/85 117/112/85 113/111/85
f 114/121/86 118/115/86 111/114/86
f 112/116/87 118/115/87 121/117/87 119/119/87
f 118/115/88 114/121/88 120/118/88 121/117/88
f 124/122/89 128/123/89 126/124/89
f 122/125/90 129/126/90 123/127/90
f 132/128/91 131/129/91 126/124/91 128/123/91
f 130/130/92 132/128/92 128/123/92 127/131/92
f 127/131/93 128/123/93 124/122/93
f 125/132/94 129/126/94 122/125/94
f 123/127/95 129/126/95 132/128/95 130/130/95
f 129/126/96 125/132/96 131/129/96 132/128/96
f 135/133/97 139/134/97 137/135/97
f 133/136/98 140/137/98 134/138/98
f 143/139/99 142/140/99 137/135/99 139/134/99
f 141/141/100 143/139/100 139/134/100 138/142/100
f 138/142/101 139/134/101 135/133/101
f 136/143/102 140/137/102 133/136/102
f 134/138/103 140/137/103 143/139/103 141/141/103
f 140/137/104 136/143/104 142/140/104 143/139/104
f 146/144/105 150/145/105 148/146/105
f 144/147/106 151/148/106 145/149/106
f 154/150/107 153/151/107 148/146/107 150/145/107
f 152/152/108 154/150/108 150/145/108 149/153/108
f 149/153/109 150/145/109 146/144/109
f 147/154/110 151/148/110 144/147/110
f 145/149/111 151/148/111 154/150/111 152/152/111
f 151/148/112 147/154/112 153/151/112 154/150/112
f 157/155/113 161/156/113 159/157/113
f 155/158/114 162/159/114 156/160/114
f 165/161/115 164/162/115 159/157/115 161/156/115
f 163/163/116 165/161/116 161/156/116 160/164/116
f 160/164/117 161/156/117 157/155/117
f 158/165/118 162/159/118 155/158/118
f 156/160/119 162/159/119 165/161/119 163/163/119
f 162/159/120 158/165/120 164/162/120 165/161/120
f 168/166/121 172/167/121 170/168/121
f 166/169/122 173/170/122 167/171/122
f 176/172/123 175/173/123 170/168/123 172/167/123
f 174/174/124 176/172/124 172/167/124 171/175/124
f 171/175/125 172/167/125 168/166/125
f 169/176/126 173/170/126 166/169/126
f 167/171/127 173/170/127 176/172/127 174/174/127
f 173/170/128 169/176/128 175/173/128 176/172/128
f 219/177/129 186/178/129 185/179/129 217/180/129
f 220/181/130 184/182/130 183/183/130 218/184/130
f 221/185/131 182/186/131 186/178/131 219/177/131
f 217/187/132 185/188/132 184/182/132 220/181/132
f 218/184/133 183/183/133 182/186/133 221/185/133
f 178/189/134 191/190/134 196/191/134 177/192/134
f 230/193/135 192/194/135 195/195/135 226/196/135
f 180/197/136 187/198/136 194/199/136 179/200/136
f 228/201/137 188/202/137 193/203/137 225/204/137
f 177/192/138 196/191/138 190/205/138 181/206/138
f 226/196/139 195/195/139 189/207/139 224/208/139
f 179/200/140 194/199/140 191/190/140 178/189/140
f 225/204/141 193/203/141 192/194/141 230/193/141
f 181/206/142 190/205/142 187/209/142 180/210/142
f 224/208/143 189/207/143 188/211/143 228/212/143
f 186/178/144 201/213/144 200/214/144 185/179/144
f 184/182/145 199/215/145 198/216/145 183/183/145
f 182/186/146 197/217/146 201/213/146 186/178/146
f 185/188/147 200/218/147 199/215/147 184/182/147
f 183/183/148 198/216/148 197/217/148 182/186/148
f 199/215/149 204/219/149 203/220/149 198/216/149
f 197/217/150 202/221/150 206/222/150 201/213/150
f 200/218/151 205/223/151 204/219/151 199/215/151
f 198/216/152 203/220/152 202/221/152 197/217/152
f 201/213/153 206/222/153 205/224/153 200/214/153
f 204/225/154 205/226/154 206/227/154 202/228/154
f 203/229/155 204/225/155 202/228/155
f 190/205/156 208/230/156 207/231/156 187/209/156
f 194/199/157 210/232/157 209/233/157 191/190/157
f 196/191/158 211/234/158 208/230/158 190/205/158
f 187/198/159 207/235/159 210/232/159 194/199/159
f 191/190/160 209/233/160 211/234/160 196/191/160
f 208/230/161 214/236/161 212/237/161 207/231/161
f 210/232/162 215/238/162 213/239/162 209/233/162
f 211/234/163 216/240/163 214/236/163 208/230/163
f 207/235/164 212/241/164 215/238/164 210/232/164
f 209/233/165 213/239/165 216/240/165 211/234/165
f 192/194/166 218/184/166 221/185/166 195/195/166
f 188/202/167 217/187/167 220/181/167 193/203/167
f 195/195/168 221/185/168 219/177/168 189/207/168
f 193/203/169 220/181/169 218/184/169 192/194/169
f 189/207/170 219/177/170 217/180/170 188/211/170
f 214/236/171 227/242/171 222/243/171 212/237/171
f 215/238/172 229/244/172 223/245/172 213/239/172
f 216/240/173 231/246/173 227/242/173 214/236/173
f 212/241/174 222/247/174 229/244/174 215/238/174
f 213/239/175 223/245/175 231/246/175 216/240/175
f 228/248/176 225/249/176 230/250/176
f 224/251/176 228/248/176 230/250/176 226/252/176
f 231/253/177 223/254/177 229/255/177
f 227/256/177 231/253/177 229/255/177 222/257/177
