# Blender v2.78 (sub 0) OBJ File: 'Low_Poly_Trees_Pack.blend'
# www.blender.org
g Palm_Tree_s_05
v 2.001657 1.516548 -0.849271
v 2.046448 1.922114 -0.596522
v 3.116192 2.279543 -0.011070
v 2.360080 1.863410 -0.938376
v 2.942127 2.228348 -0.506229
v 2.613797 2.289803 -0.148357
v 2.784084 2.303690 -0.334534
v 2.202707 1.930745 -0.779109
v 2.268191 2.166205 -0.391707
v 2.643892 2.095884 -0.801213
v 2.455346 2.178507 -0.611030
v 4.273383 1.187129 -0.125699
v 4.151031 1.623238 -0.367748
v 3.085346 2.316238 -0.016727
v 4.183145 1.619184 0.130814
v 3.558935 2.175137 0.200106
v 3.525316 2.179381 -0.321816
v 3.554030 2.222466 -0.062374
v 4.185174 1.657665 -0.120531
v 3.908150 1.942669 -0.395782
v 3.946620 1.937812 0.201444
v 3.949984 1.985792 -0.099749
v 3.558481 1.418325 1.169499
v 3.753486 1.778756 0.900725
v 3.102723 2.325744 -0.014703
v 3.316879 1.841442 1.116794
v 3.064910 2.284897 0.505147
v 3.521976 2.219275 0.278954
v 3.300976 2.295702 0.394620
v 3.544936 1.846309 1.017963
v 3.709519 2.040699 0.625411
v 3.186509 2.115789 0.884239
v 3.460201 2.123490 0.766324
v 3.307578 1.224184 -1.270215
v 3.115232 1.666852 -1.176988
v 3.114977 2.258204 -0.007586
v 3.532289 1.626982 -1.070576
v 3.436939 2.132399 -0.407691
v 3.000339 2.174137 -0.519089
v 3.226240 2.198946 -0.470363
v 3.332074 1.684362 -1.137614
v 3.044255 1.969863 -0.923598
v 3.543847 1.922103 -0.796129
v 3.304440 1.992771 -0.877147
v 1.848256 1.646827 0.715133
v 2.159859 2.018506 0.785710
v 3.137046 2.315914 -0.014067
v 1.957408 2.017331 0.412881
v 2.619806 2.333844 0.026313
v 2.831743 2.335073 0.416611
v 2.728993 2.380571 0.220183
v 2.054326 2.057859 0.602248
v 2.465959 2.238857 0.661618
v 2.223444 2.237448 0.215008
v 2.339319 2.288060 0.442001
v 2.001764 1.516478 -0.849162
v 2.046548 1.922007 -0.596442
v 3.116171 2.279377 -0.011061
v 2.360151 1.863308 -0.938263
v 2.942111 2.228191 -0.506175
v 2.613822 2.289638 -0.148347
v 2.784084 2.303526 -0.334505
v 2.202795 1.930642 -0.779011
v 2.268255 2.166057 -0.391661
v 2.643919 2.095744 -0.801126
v 2.455391 2.178360 -0.610963
v 4.273219 1.187098 -0.125689
v 4.150883 1.623168 -0.367717
v 3.085313 2.316074 -0.016726
v 4.182994 1.619113 0.130802
v 3.558868 2.174986 0.200081
v 3.525253 2.179229 -0.321784
v 3.553970 2.222310 -0.062372
v 4.185022 1.657596 -0.120522
v 3.908040 1.942547 -0.395749
v 3.946506 1.937690 0.201423
v 3.949872 1.985668 -0.099742
v 3.558405 1.418273 1.169359
v 3.753396 1.778670 0.900615
v 3.102700 2.325579 -0.014704
v 3.316826 1.841350 1.116665
v 3.064897 2.284736 0.505104
v 3.521913 2.219121 0.278935
v 3.300940 2.295541 0.394594
v 3.544863 1.846222 1.017840
v 3.709438 2.040568 0.625345
v 3.186474 2.115652 0.884150
v 3.460143 2.123353 0.766247
v 3.307534 1.224141 -1.270059
v 3.115212 1.666770 -1.176843
v 3.114957 2.258039 -0.007570
v 3.532222 1.626904 -1.070444
v 3.436880 2.132247 -0.407651
v 3.000345 2.173979 -0.519033
v 3.226214 2.198786 -0.470320
v 3.332030 1.684283 -1.137473
v 3.044248 1.969732 -0.923495
v 3.543780 1.921978 -0.796040
v 3.304403 1.992640 -0.877050
v 1.848384 1.646744 0.715064
v 2.159953 2.018391 0.785631
v 3.137026 2.315748 -0.014056
v 1.957525 2.017216 0.412846
v 2.619832 2.333680 0.026337
v 2.831737 2.334910 0.416577
v 2.728998 2.380403 0.220181
v 2.054433 2.057745 0.602190
v 2.466002 2.238706 0.661559
v 2.223516 2.237298 0.215004
v 2.339376 2.287906 0.441970
v 0.000000 0.000000 -0.167270
v -0.159084 0.000000 -0.051689
v -0.098319 0.000000 0.135325
v 0.098319 0.000000 0.135325
v 0.159084 0.000000 -0.051689
v 3.060737 2.041239 -0.056963
v 3.018366 2.049128 -0.025650
v 3.034550 2.046115 0.025017
v 3.086924 2.036362 0.025017
v 3.103109 2.033349 -0.025650
v 0.170309 0.425310 0.092314
v 2.533083 1.316560 0.051691
v 2.554825 1.300796 -0.031946
v 0.212026 0.413835 -0.041536
v -0.006409 0.473922 -0.041536
v 2.440983 1.383333 -0.031946
v 2.462724 1.367570 0.051691
v 0.035308 0.462447 0.092314
v 2.497904 1.342064 -0.083637
v 0.102808 0.443879 -0.124260
v 3.081080 2.131804 -0.098228
v 2.996054 2.147638 -0.035391
v 3.028532 2.141590 0.066282
v 3.133630 2.122020 0.066281
v 3.166106 2.115971 -0.035391
v 3.123051 2.345820 -0.042756
v 3.095366 2.350975 -0.022296
v 3.105941 2.349006 0.010810
v 3.140162 2.342633 0.010810
v 3.150737 2.340665 -0.022296
v 0.353778 0.712830 0.072650
v 0.374712 0.684337 -0.036894
v 0.265100 0.833530 -0.036894
v 0.286034 0.805037 0.072650
v 0.319906 0.758933 -0.104596
v 0.889493 0.903932 0.092323
v 0.806032 1.007421 -0.005068
v 0.909195 0.879501 -0.005068
v 0.825735 0.982991 0.092323
v 0.857614 0.943461 -0.065259
v 2.955599 1.635641 0.039002
v 2.866192 1.661557 -0.028951
v 2.976705 1.629522 -0.028951
v 2.887298 1.655439 0.039002
v 2.921448 1.645540 -0.070948
v 1.888381 1.093970 0.065699
v 1.800464 1.181185 -0.025615
v 1.909136 1.073381 -0.025615
v 1.821218 1.160596 0.065699
v 1.854800 1.127283 -0.082051
vt 0.6928 0.1449
vt 0.7035 0.1698
vt 0.6928 0.1689
vt 0.6928 0.2347
vt 0.6826 0.2105
vt 0.6928 0.2097
vt 0.6928 0.1904
vt 0.7055 0.1914
vt 0.6802 0.1914
vt 0.6821 0.1698
vt 0.7031 0.2105
vt 0.8120 0.1449
vt 0.8227 0.1698
vt 0.8120 0.1689
vt 0.8120 0.2347
vt 0.8017 0.2105
vt 0.8120 0.2097
vt 0.8120 0.1904
vt 0.8246 0.1914
vt 0.7993 0.1914
vt 0.8013 0.1698
vt 0.8222 0.2105
vt 0.9392 0.1449
vt 0.9499 0.1698
vt 0.9392 0.1689
vt 0.9392 0.2347
vt 0.9289 0.2105
vt 0.9392 0.2097
vt 0.9392 0.1904
vt 0.9518 0.1914
vt 0.9265 0.1914
vt 0.9285 0.1698
vt 0.9494 0.2105
vt 0.6928 0.1449
vt 0.7035 0.1698
vt 0.6928 0.1689
vt 0.6928 0.2347
vt 0.6826 0.2105
vt 0.6928 0.2097
vt 0.6928 0.1904
vt 0.7055 0.1914
vt 0.6802 0.1914
vt 0.6821 0.1698
vt 0.7031 0.2105
vt 0.8120 0.1449
vt 0.8227 0.1698
vt 0.8120 0.1689
vt 0.8120 0.2347
vt 0.8017 0.2105
vt 0.8120 0.2097
vt 0.8120 0.1904
vt 0.8246 0.1914
vt 0.7993 0.1914
vt 0.8013 0.1698
vt 0.8222 0.2105
vt 0.6928 0.1689
vt 0.7035 0.1698
vt 0.6928 0.1449
vt 0.6928 0.2097
vt 0.6826 0.2105
vt 0.6928 0.2347
vt 0.7055 0.1914
vt 0.6928 0.1904
vt 0.6821 0.1698
vt 0.6802 0.1914
vt 0.7031 0.2105
vt 0.8120 0.1689
vt 0.8227 0.1698
vt 0.8120 0.1449
vt 0.8120 0.2097
vt 0.8017 0.2105
vt 0.8120 0.2347
vt 0.8246 0.1914
vt 0.8120 0.1904
vt 0.8013 0.1698
vt 0.7993 0.1914
vt 0.8222 0.2105
vt 0.9392 0.1689
vt 0.9499 0.1698
vt 0.9392 0.1449
vt 0.9392 0.2097
vt 0.9289 0.2105
vt 0.9392 0.2347
vt 0.9518 0.1914
vt 0.9392 0.1904
vt 0.9285 0.1698
vt 0.9265 0.1914
vt 0.9494 0.2105
vt 0.6928 0.1689
vt 0.7035 0.1698
vt 0.6928 0.1449
vt 0.6928 0.2097
vt 0.6826 0.2105
vt 0.6928 0.2347
vt 0.7055 0.1914
vt 0.6928 0.1904
vt 0.6821 0.1698
vt 0.6802 0.1914
vt 0.7031 0.2105
vt 0.8120 0.1689
vt 0.8227 0.1698
vt 0.8120 0.1449
vt 0.8120 0.2097
vt 0.8017 0.2105
vt 0.8120 0.2347
vt 0.8246 0.1914
vt 0.8120 0.1904
vt 0.8013 0.1698
vt 0.7993 0.1914
vt 0.8222 0.2105
vt 0.4427 0.9635
vt 0.4431 0.9775
vt 0.4419 0.9774
vt 0.4412 0.9635
vt 0.4474 0.9636
vt 0.4467 0.9777
vt 0.4455 0.9778
vt 0.4458 0.9636
vt 0.4443 0.9636
vt 0.4443 0.9777
vt 0.4489 0.9636
vt 0.4479 0.9775
vt 0.4480 0.8929
vt 0.4470 0.9221
vt 0.4440 0.9222
vt 0.4438 0.8931
vt 0.4462 0.9460
vt 0.4461 0.9494
vt 0.4442 0.9495
vt 0.4442 0.9460
vt 0.4563 0.8939
vt 0.4529 0.9227
vt 0.4499 0.9223
vt 0.4522 0.8932
vt 0.4502 0.9463
vt 0.4498 0.9497
vt 0.4480 0.9495
vt 0.4482 0.9461
vt 0.4410 0.9224
vt 0.4396 0.8934
vt 0.4424 0.9495
vt 0.4422 0.9461
vt 0.4381 0.9225
vt 0.4354 0.8936
vt 0.4405 0.9496
vt 0.4402 0.9462
vt 0.4428 0.9796
vt 0.4409 0.9795
vt 0.4470 0.9796
vt 0.4456 0.9796
vt 0.4443 0.9796
vt 0.4489 0.9796
vt 0.4465 0.9832
vt 0.4454 0.9830
vt 0.4444 0.9830
vt 0.4433 0.9832
vt 0.4475 0.9834
vt 0.4423 0.9834
vt 0.4563 0.8936
vt 0.4573 0.8929
vt 0.4583 0.8936
vt 0.4579 0.8948
vt 0.4567 0.8948
vt 0.4417 0.9359
vt 0.4393 0.9361
vt 0.4490 0.9359
vt 0.4465 0.9358
vt 0.4441 0.9358
vt 0.4513 0.9362
vt 0.4421 0.9427
vt 0.4399 0.9428
vt 0.4485 0.9427
vt 0.4463 0.9426
vt 0.4442 0.9426
vt 0.4506 0.9430
vn 0.2505 0.9500 -0.1863
vn -0.6944 0.4343 -0.5738
vn -0.0064 0.9142 -0.4052
vn -0.2392 0.9595 -0.1489
vn 0.0000 0.9972 0.0744
vn -0.5637 0.3964 -0.7246
vn -0.4997 0.7751 -0.3866
vn -0.3036 0.7291 -0.6134
vn 0.2092 0.9630 0.1697
vn 0.9700 0.1836 -0.1595
vn 0.5171 0.8442 0.1413
vn 0.4891 0.8503 -0.1941
vn 0.1761 0.9677 -0.1802
vn 0.9823 0.1838 0.0361
vn 0.7903 0.5813 -0.1935
vn 0.8106 0.5773 0.0983
vn -0.0093 0.9969 0.0777
vn 0.5391 0.2962 0.7884
vn 0.1319 0.9201 0.3689
vn 0.4207 0.8786 0.2260
vn 0.2923 0.9536 -0.0716
vn 0.3709 0.3204 0.8717
vn 0.5224 0.6565 0.5441
vn 0.2714 0.6926 0.6683
vn 0.3133 0.9485 -0.0461
vn 0.1514 0.2662 -0.9519
vn 0.3753 0.8541 -0.3600
vn 0.0008 0.8924 -0.4513
vn -0.0771 0.9864 -0.1448
vn 0.3692 0.2391 -0.8981
vn 0.0811 0.6489 -0.7565
vn 0.4067 0.6120 -0.6783
vn 0.0147 0.9701 -0.2421
vn -0.7041 0.4933 0.5108
vn -0.2709 0.9595 -0.0771
vn -0.0783 0.9619 0.2621
vn 0.2173 0.9698 0.1109
vn -0.8128 0.4928 0.3105
vn -0.4156 0.8084 0.4170
vn -0.5802 0.8056 0.1202
vn -0.2505 -0.9500 0.1863
vn 0.6944 -0.4343 0.5738
vn 0.0064 -0.9142 0.4052
vn 0.2392 -0.9595 0.1489
vn -0.0000 -0.9972 -0.0744
vn 0.5637 -0.3964 0.7246
vn 0.4997 -0.7751 0.3866
vn 0.3036 -0.7291 0.6134
vn -0.2092 -0.9630 -0.1697
vn -0.9700 -0.1836 0.1595
vn -0.5171 -0.8442 -0.1413
vn -0.4891 -0.8503 0.1941
vn -0.1761 -0.9677 0.1802
vn -0.9823 -0.1837 -0.0361
vn -0.7903 -0.5813 0.1935
vn -0.8106 -0.5773 -0.0983
vn 0.0093 -0.9969 -0.0777
vn -0.5391 -0.2962 -0.7884
vn -0.1319 -0.9201 -0.3689
vn -0.4207 -0.8786 -0.2260
vn -0.2923 -0.9536 0.0716
vn -0.3709 -0.3204 -0.8717
vn -0.5224 -0.6565 -0.5441
vn -0.2714 -0.6926 -0.6683
vn -0.3133 -0.9485 0.0461
vn -0.1514 -0.2662 0.9519
vn -0.3753 -0.8541 0.3600
vn -0.0008 -0.8924 0.4513
vn 0.0771 -0.9864 0.1448
vn -0.3692 -0.2391 0.8981
vn -0.0811 -0.6489 0.7565
vn -0.4067 -0.6120 0.6783
vn -0.0147 -0.9701 0.2421
vn 0.7041 -0.4933 -0.5108
vn 0.2709 -0.9595 0.0771
vn 0.0783 -0.9619 -0.2621
vn -0.2174 -0.9698 -0.1109
vn 0.8128 -0.4928 -0.3105
vn 0.4156 -0.8084 -0.4170
vn 0.5802 -0.8055 -0.1202
vn 0.9074 -0.2866 0.3073
vn -0.8873 0.3456 0.3055
vn 0.5647 -0.1702 -0.8075
vn 0.0080 0.0325 0.9994
vn -0.5500 0.2224 -0.8050
vn -0.5670 0.2041 -0.7980
vn -0.2059 0.6197 -0.7573
vn 0.0105 0.0940 0.9955
vn 0.0157 0.0183 0.9997
vn 0.5893 -0.0571 -0.8059
vn 0.2075 -0.6185 -0.7579
vn -0.9090 0.2885 0.3007
vn -0.2897 0.9207 0.2617
vn 0.9434 -0.1285 0.3059
vn 0.3211 -0.9087 0.2668
vn 0.7787 -0.5605 0.2821
vn -0.9394 -0.1842 0.2891
vn 0.4746 -0.4510 -0.7559
vn -0.0744 -0.3996 0.9137
vn -0.6060 -0.2130 -0.7664
vn -0.8646 0.4030 0.3001
vn 0.6025 0.0874 -0.7933
vn 0.0451 0.2423 0.9691
vn -0.5275 0.3086 -0.7915
vn 0.9523 0.0476 0.3014
vn 0.1831 0.9831 0.0000
vn 0.1830 0.9831 -0.0000
vn 0.8163 -0.4985 0.2920
vn -0.7646 0.5749 0.2912
vn 0.5279 -0.3095 -0.7909
vn 0.0276 0.0433 0.9987
vn -0.4830 0.3782 -0.7897
vn 0.3122 -0.9039 0.2925
vn -0.3087 0.9052 0.2921
vn 0.2471 -0.5480 -0.7992
vn -0.0289 -0.0222 0.9993
vn -0.1498 0.6060 -0.7812
vn -0.3578 0.5425 -0.7601
vn 0.0125 0.0244 0.9996
vn 0.3893 -0.5014 -0.7727
vn -0.5323 0.8036 0.2664
vn 0.5871 -0.7611 0.2758
vn 0.1879 -0.9455 0.2659
vn -0.1618 0.9515 0.2617
vn 0.1085 -0.6482 -0.7537
vn 0.0229 0.0206 0.9995
vn -0.1286 0.6368 -0.7603
s off
f 3/1/1 5/2/1 7/3/1
f 1/4/2 2/5/2 8/6/2
f 11/7/3 7/3/3 5/2/3 10/8/3
f 9/9/4 6/10/4 7/3/4 11/7/4
f 6/10/5 3/1/5 7/3/5
f 4/11/6 1/4/6 8/6/6
f 2/5/7 9/9/7 11/7/7 8/6/7
f 8/6/8 11/7/8 10/8/8 4/11/8
f 14/12/9 16/13/9 18/14/9
f 12/15/10 13/16/10 19/17/10
f 22/18/11 18/14/11 16/13/11 21/19/11
f 20/20/12 17/21/12 18/14/12 22/18/12
f 17/21/13 14/12/13 18/14/13
f 15/22/14 12/15/14 19/17/14
f 13/16/15 20/20/15 22/18/15 19/17/15
f 19/17/16 22/18/16 21/19/16 15/22/16
f 25/23/17 27/24/17 29/25/17
f 23/26/18 24/27/18 30/28/18
f 33/29/19 29/25/19 27/24/19 32/30/19
f 31/31/20 28/32/20 29/25/20 33/29/20
f 28/32/21 25/23/21 29/25/21
f 26/33/22 23/26/22 30/28/22
f 24/27/23 31/31/23 33/29/23 30/28/23
f 30/28/24 33/29/24 32/30/24 26/33/24
f 36/34/25 38/35/25 40/36/25
f 34/37/26 35/38/26 41/39/26
f 44/40/27 40/36/27 38/35/27 43/41/27
f 42/42/28 39/43/28 40/36/28 44/40/28
f 39/43/29 36/34/29 40/36/29
f 37/44/30 34/37/30 41/39/30
f 35/38/31 42/42/31 44/40/31 41/39/31
f 41/39/32 44/40/32 43/41/32 37/44/32
f 47/45/33 49/46/33 51/47/33
f 45/48/34 46/49/34 52/50/34
f 55/51/35 51/47/35 49/46/35 54/52/35
f 53/53/36 50/54/36 51/47/36 55/51/36
f 50/54/37 47/45/37 51/47/37
f 48/55/38 45/48/38 52/50/38
f 46/49/39 53/53/39 55/51/39 52/50/39
f 52/50/40 55/51/40 54/52/40 48/55/40
f 62/56/41 60/57/41 58/58/41
f 63/59/42 57/60/42 56/61/42
f 65/62/43 60/57/43 62/56/43 66/63/43
f 66/63/44 62/56/44 61/64/44 64/65/44
f 62/56/45 58/58/45 61/64/45
f 63/59/46 56/61/46 59/66/46
f 63/59/47 66/63/47 64/65/47 57/60/47
f 59/66/48 65/62/48 66/63/48 63/59/48
f 73/67/49 71/68/49 69/69/49
f 74/70/50 68/71/50 67/72/50
f 76/73/51 71/68/51 73/67/51 77/74/51
f 77/74/52 73/67/52 72/75/52 75/76/52
f 73/67/53 69/69/53 72/75/53
f 74/70/54 67/72/54 70/77/54
f 74/70/55 77/74/55 75/76/55 68/71/55
f 70/77/56 76/73/56 77/74/56 74/70/56
f 84/78/57 82/79/57 80/80/57
f 85/81/58 79/82/58 78/83/58
f 87/84/59 82/79/59 84/78/59 88/85/59
f 88/85/60 84/78/60 83/86/60 86/87/60
f 84/78/61 80/80/61 83/86/61
f 85/81/62 78/83/62 81/88/62
f 85/81/63 88/85/63 86/87/63 79/82/63
f 81/88/64 87/84/64 88/85/64 85/81/64
f 95/89/65 93/90/65 91/91/65
f 96/92/66 90/93/66 89/94/66
f 98/95/67 93/90/67 95/89/67 99/96/67
f 99/96/68 95/89/68 94/97/68 97/98/68
f 95/89/69 91/91/69 94/97/69
f 96/92/70 89/94/70 92/99/70
f 96/92/71 99/96/71 97/98/71 90/93/71
f 92/99/72 98/95/72 99/96/72 96/92/72
f 106/100/73 104/101/73 102/102/73
f 107/103/74 101/104/74 100/105/74
f 109/106/75 104/101/75 106/100/75 110/107/75
f 110/107/76 106/100/76 105/108/76 108/109/76
f 106/100/77 102/102/77 105/108/77
f 107/103/78 100/105/78 103/110/78
f 107/103/79 110/107/79 108/109/79 101/104/79
f 103/110/80 109/106/80 110/107/80 107/103/80
f 153/111/81 120/112/81 119/113/81 151/114/81
f 154/115/82 118/116/82 117/117/82 152/118/82
f 155/119/83 116/120/83 120/112/83 153/111/83
f 151/121/84 119/122/84 118/116/84 154/115/84
f 152/118/85 117/117/85 116/120/85 155/119/85
f 112/123/86 125/124/86 130/125/86 111/126/86
f 157/127/87 126/128/87 129/129/87 160/130/87
f 114/131/88 121/132/88 128/133/88 113/134/88
f 156/135/89 122/136/89 127/137/89 159/138/89
f 111/126/90 130/125/90 124/139/90 115/140/90
f 160/130/91 129/129/91 123/141/91 158/142/91
f 113/134/92 128/133/92 125/124/92 112/123/92
f 159/138/93 127/137/93 126/128/93 157/127/93
f 115/140/94 124/139/94 121/143/94 114/144/94
f 158/142/95 123/141/95 122/145/95 156/146/95
f 120/112/96 135/147/96 134/148/96 119/113/96
f 118/116/97 133/149/97 132/150/97 117/117/97
f 116/120/98 131/151/98 135/147/98 120/112/98
f 119/122/99 134/152/99 133/149/99 118/116/99
f 117/117/100 132/150/100 131/151/100 116/120/100
f 133/149/101 138/153/101 137/154/101 132/150/101
f 131/151/102 136/155/102 140/156/102 135/147/102
f 134/152/103 139/157/103 138/153/103 133/149/103
f 132/150/104 137/154/104 136/155/104 131/151/104
f 135/147/105 140/156/105 139/158/105 134/148/105
f 138/159/106 139/160/106 140/161/106 136/162/106
f 137/163/107 138/159/107 136/162/107
f 124/139/108 142/164/108 141/165/108 121/143/108
f 128/133/109 144/166/109 143/167/109 125/124/109
f 130/125/110 145/168/110 142/164/110 124/139/110
f 121/132/111 141/169/111 144/166/111 128/133/111
f 125/124/112 143/167/112 145/168/112 130/125/112
f 142/164/113 148/170/113 146/171/113 141/165/113
f 144/166/114 149/172/114 147/173/114 143/167/114
f 145/168/115 150/174/115 148/170/115 142/164/115
f 141/169/116 146/175/116 149/172/116 144/166/116
f 143/167/117 147/173/117 150/174/117 145/168/117
f 126/128/118 152/118/118 155/119/118 129/129/118
f 122/136/119 151/121/119 154/115/119 127/137/119
f 129/129/120 155/119/120 153/111/120 123/141/120
f 127/137/121 154/115/121 152/118/121 126/128/121
f 123/141/122 153/111/122 151/114/122 122/145/122
f 148/170/123 158/142/123 156/146/123 146/171/123
f 149/172/124 159/138/124 157/127/124 147/173/124
f 150/174/125 160/130/125 158/142/125 148/170/125
f 146/175/126 156/135/126 159/138/126 149/172/126
f 147/173/127 157/127/127 160/130/127 150/174/127
