# Blender v2.78 (sub 0) OBJ File: 'Low_Poly_Trees_Pack.blend'
# www.blender.org
g Palm_Tree_m_05
v 2.585650 1.892814 -0.976651
v 2.672415 2.364533 -0.717148
v 3.889824 2.780263 -0.014935
v 2.948813 2.296254 -1.028965
v 3.629019 2.720718 -0.532360
v 3.339669 2.792197 -0.205933
v 3.489650 2.808349 -0.375806
v 2.808199 2.374572 -0.884870
v 2.937855 2.648438 -0.487449
v 3.268953 2.566647 -0.860972
v 3.100387 2.662747 -0.688972
v 2.523947 2.409363 1.445296
v 2.978072 2.792912 1.327799
v 3.895353 2.852834 -0.016406
v 2.632643 2.818017 1.011324
v 3.327905 3.011316 0.251488
v 3.689521 2.985034 0.582791
v 3.521905 3.054218 0.407187
v 2.810042 2.856119 1.168467
v 3.332419 2.977518 1.024495
v 2.918629 3.007592 0.645391
v 3.131378 3.055851 0.833575
v 3.634926 1.607959 1.550251
v 4.014096 2.058499 1.381369
v 3.882487 2.742234 -0.016406
v 3.406431 2.136855 1.342077
v 3.516369 2.691175 0.522526
v 4.152506 2.609147 0.563659
v 3.840982 2.704681 0.550585
v 3.715061 2.142939 1.377784
v 4.138739 2.385927 1.055917
v 3.410820 2.479790 1.008850
v 3.780775 2.489416 1.052452
v 4.934176 1.572296 0.998948
v 4.991278 2.058070 0.708277
v 3.893625 2.837981 -0.016406
v 4.706198 2.091777 1.042449
v 4.151268 2.714047 0.519882
v 4.449707 2.678762 0.170052
v 4.312214 2.749802 0.349585
v 4.865812 2.118370 0.885547
v 4.811639 2.416746 0.461383
v 4.470141 2.457123 0.861686
v 4.662225 2.491223 0.674260
v 5.582402 1.730715 -0.399777
v 5.318974 2.262590 -0.582453
v 3.894948 2.849348 -0.016406
v 5.407850 2.215019 -0.052450
v 4.529995 2.755911 0.156171
v 4.436955 2.805709 -0.398667
v 4.488842 2.838841 -0.116939
v 5.378147 2.287489 -0.315553
v 4.951086 2.604738 -0.544393
v 5.057551 2.547754 0.090496
v 5.022729 2.637079 -0.224576
v 4.835742 1.449708 -1.294952
v 4.589085 2.003044 -1.283766
v 3.882487 2.742234 -0.016406
v 4.937531 1.953206 -0.973589
v 4.442775 2.584977 -0.299654
v 4.078001 2.637150 -0.624364
v 4.272121 2.668161 -0.466017
v 4.779890 2.024931 -1.139785
v 4.365793 2.381807 -1.042283
v 4.783196 2.322107 -0.670725
v 4.595215 2.410443 -0.870383
v 3.779599 1.857803 -1.768139
v 3.567928 2.410940 -1.523929
v 3.892320 2.826757 -0.016406
v 4.112596 2.347578 -1.523929
v 4.187186 2.877588 -0.609218
v 3.616997 2.943920 -0.609218
v 3.908737 2.967875 -0.598873
v 3.846139 2.429784 -1.525236
v 3.552415 2.747138 -1.180648
v 4.204871 2.671237 -1.180648
v 3.885988 2.772321 -1.182282
v 2.058281 1.978012 0.019634
v 2.358418 2.442611 0.283099
v 3.908983 2.814372 -0.012217
v 2.358535 2.441142 -0.247212
v 3.316770 2.836783 -0.276524
v 3.316646 2.838320 0.278637
v 3.321007 2.895192 0.001573
v 2.351983 2.491803 0.018615
v 2.768677 2.718049 0.329464
v 2.768819 2.716289 -0.305795
v 2.760634 2.779554 0.012674
v 2.585782 1.892727 -0.976514
v 2.672544 2.364401 -0.717052
v 3.889793 2.780057 -0.014917
v 2.948897 2.296133 -1.028816
v 3.628989 2.720527 -0.532281
v 3.339701 2.791990 -0.205924
v 3.489646 2.808144 -0.375765
v 2.808307 2.374443 -0.884746
v 2.937938 2.648254 -0.487395
v 3.268978 2.566477 -0.860853
v 3.100440 2.662564 -0.688886
v 2.524048 2.409224 1.445176
v 2.978120 2.792745 1.327682
v 3.895298 2.852637 -0.016362
v 2.632741 2.817847 1.011255
v 3.327913 3.011112 0.251534
v 3.689458 2.984835 0.582773
v 3.521872 3.054013 0.407206
v 2.810116 2.855947 1.168373
v 3.332407 2.977321 1.024427
v 2.918682 3.007390 0.645383
v 3.131397 3.055646 0.833538
v 3.634930 1.607894 1.550053
v 4.014067 2.058391 1.381192
v 3.882461 2.742027 -0.016422
v 3.406454 2.136740 1.341904
v 3.516382 2.690974 0.522471
v 4.152450 2.608955 0.563599
v 3.840960 2.704479 0.550535
v 3.715059 2.142831 1.377605
v 4.138693 2.385764 1.055795
v 3.410838 2.479618 1.008732
v 3.780760 2.489245 1.052332
v 4.934019 1.572249 0.998818
v 4.991111 2.057981 0.708189
v 3.893590 2.837775 -0.016416
v 4.706075 2.091683 1.042308
v 4.151235 2.713853 0.519810
v 4.449613 2.678575 0.170053
v 4.312154 2.749605 0.349553
v 4.865665 2.118277 0.885431
v 4.811502 2.416595 0.461339
v 4.470061 2.456965 0.861575
v 4.662116 2.491063 0.674182
v 5.582209 1.730640 -0.399751
v 5.318811 2.262469 -0.582405
v 3.894941 2.849140 -0.016424
v 5.407677 2.214904 -0.052463
v 4.529942 2.755715 0.156120
v 4.436914 2.805506 -0.398636
v 4.488801 2.838636 -0.116951
v 5.377975 2.287371 -0.315535
v 4.950982 2.604562 -0.544352
v 5.057434 2.547584 0.090461
v 5.022618 2.636901 -0.224573
v 4.835604 1.449655 -1.294805
v 4.588982 2.002943 -1.283614
v 3.882453 2.742028 -0.016402
v 4.937377 1.953112 -0.973484
v 4.442681 2.584790 -0.299651
v 4.077978 2.636953 -0.624298
v 4.272066 2.667962 -0.465986
v 4.779760 2.024832 -1.139655
v 4.365729 2.381644 -1.042170
v 4.783066 2.321953 -0.670670
v 4.595117 2.410279 -0.870299
v 3.779590 1.857722 -1.767947
v 3.567937 2.410820 -1.523758
v 3.892297 2.826555 -0.016456
v 4.112559 2.347462 -1.523758
v 4.187122 2.877390 -0.609196
v 3.617013 2.943712 -0.609196
v 3.908712 2.967667 -0.598865
v 3.846125 2.429665 -1.525064
v 3.552428 2.746962 -1.180537
v 4.204817 2.671067 -1.180537
v 3.885967 2.772143 -1.182173
v 2.058463 1.977909 0.019635
v 2.358567 2.442468 0.283069
v 3.908955 2.814164 -0.012216
v 2.358684 2.440999 -0.247181
v 3.316784 2.836579 -0.276482
v 3.316660 2.838116 0.278596
v 3.321013 2.894983 0.001573
v 2.352135 2.491659 0.018615
v 2.768759 2.717861 0.329426
v 2.768901 2.716101 -0.305755
v 2.760716 2.779361 0.012674
v 0.000000 0.000000 -0.209088
v -0.198855 0.000000 -0.064612
v -0.122899 0.000000 0.169156
v 0.122899 0.000000 0.169156
v 0.198855 0.000000 -0.064612
v 3.825922 2.551548 -0.071204
v 3.772958 2.561410 -0.032062
v 3.793187 2.557644 0.031272
v 3.858655 2.545453 0.031272
v 3.878886 2.541686 -0.032062
v 0.212886 0.531638 0.115392
v 3.166354 1.645699 0.064614
v 3.193531 1.625995 -0.039933
v 0.265032 0.517294 -0.051920
v -0.008012 0.592403 -0.051920
v 3.051229 1.729166 -0.039933
v 3.078406 1.709462 0.064614
v 0.044135 0.578058 0.115392
v 3.122380 1.677580 -0.104547
v 0.128510 0.554848 -0.155325
v 3.851351 2.664756 -0.122784
v 3.745068 2.684547 -0.044238
v 3.785664 2.676988 0.082852
v 3.917037 2.652525 0.082852
v 3.957633 2.644964 -0.044238
v 3.903814 2.932275 -0.053445
v 3.869208 2.938718 -0.027869
v 3.882427 2.936257 0.013512
v 3.925202 2.928292 0.013512
v 3.938421 2.925831 -0.027869
v 0.442223 0.891037 0.090812
v 0.468390 0.855421 -0.046118
v 0.331375 1.041912 -0.046118
v 0.357543 1.006296 0.090812
v 0.399883 0.948667 -0.130745
v 1.111866 1.129915 0.115404
v 1.007541 1.259276 -0.006335
v 1.136494 1.099376 -0.006335
v 1.032168 1.228738 0.115404
v 1.072017 1.179326 -0.081573
v 3.694499 2.044551 0.048752
v 3.582740 2.076946 -0.036188
v 3.720881 2.036903 -0.036188
v 3.609122 2.069299 0.048752
v 3.651811 2.056924 -0.088685
v 2.360476 1.367462 0.082124
v 2.250579 1.476481 -0.032019
v 2.386420 1.341726 -0.032019
v 2.276522 1.450745 0.082124
v 2.318499 1.409104 -0.102563
vt 0.6966 0.1383
vt 0.7081 0.1651
vt 0.6966 0.1642
vt 0.6966 0.2351
vt 0.6855 0.2090
vt 0.6966 0.2082
vt 0.6966 0.1874
vt 0.7102 0.1884
vt 0.6829 0.1884
vt 0.6850 0.1651
vt 0.7076 0.2090
vt 0.6966 0.1383
vt 0.7081 0.1651
vt 0.6966 0.1642
vt 0.6966 0.2351
vt 0.6855 0.2090
vt 0.6966 0.2082
vt 0.6966 0.1874
vt 0.7102 0.1884
vt 0.6829 0.1884
vt 0.6850 0.1651
vt 0.7076 0.2090
vt 0.8238 0.1383
vt 0.8353 0.1651
vt 0.8238 0.1642
vt 0.8238 0.2351
vt 0.8127 0.2090
vt 0.8238 0.2082
vt 0.8238 0.1874
vt 0.8374 0.1884
vt 0.8101 0.1884
vt 0.8122 0.1651
vt 0.8348 0.2090
vt 0.6966 0.1383
vt 0.7081 0.1651
vt 0.6966 0.1642
vt 0.6966 0.2351
vt 0.6855 0.2090
vt 0.6966 0.2082
vt 0.6966 0.1874
vt 0.7102 0.1884
vt 0.6829 0.1884
vt 0.6850 0.1651
vt 0.7076 0.2090
vt 0.6966 0.1383
vt 0.7081 0.1651
vt 0.6966 0.1642
vt 0.6966 0.2351
vt 0.6855 0.2090
vt 0.6966 0.2082
vt 0.6966 0.1874
vt 0.7102 0.1884
vt 0.6829 0.1884
vt 0.6850 0.1651
vt 0.7076 0.2090
vt 0.6966 0.1383
vt 0.7081 0.1651
vt 0.6966 0.1642
vt 0.6966 0.2351
vt 0.6855 0.2090
vt 0.6966 0.2082
vt 0.6966 0.1874
vt 0.7102 0.1884
vt 0.6829 0.1884
vt 0.6850 0.1651
vt 0.7076 0.2090
vt 0.8238 0.1383
vt 0.8353 0.1651
vt 0.8238 0.1642
vt 0.8238 0.2351
vt 0.8127 0.2090
vt 0.8238 0.2082
vt 0.8238 0.1874
vt 0.8374 0.1884
vt 0.8101 0.1884
vt 0.8122 0.1651
vt 0.8348 0.2090
vt 0.8238 0.1383
vt 0.8353 0.1651
vt 0.8238 0.1642
vt 0.8238 0.2351
vt 0.8127 0.2090
vt 0.8238 0.2082
vt 0.8238 0.1874
vt 0.8374 0.1884
vt 0.8101 0.1884
vt 0.8122 0.1651
vt 0.8348 0.2090
vt 0.6966 0.1642
vt 0.7081 0.1651
vt 0.6966 0.1383
vt 0.6966 0.2082
vt 0.6855 0.2090
vt 0.6966 0.2351
vt 0.7102 0.1884
vt 0.6966 0.1874
vt 0.6850 0.1651
vt 0.6829 0.1884
vt 0.7076 0.2090
vt 0.6966 0.1642
vt 0.7081 0.1651
vt 0.6966 0.1383
vt 0.6966 0.2082
vt 0.6855 0.2090
vt 0.6966 0.2351
vt 0.7102 0.1884
vt 0.6966 0.1874
vt 0.6850 0.1651
vt 0.6829 0.1884
vt 0.7076 0.2090
vt 0.8238 0.1642
vt 0.8353 0.1651
vt 0.8238 0.1383
vt 0.8238 0.2082
vt 0.8127 0.2090
vt 0.8238 0.2351
vt 0.8374 0.1884
vt 0.8238 0.1874
vt 0.8122 0.1651
vt 0.8101 0.1884
vt 0.8348 0.2090
vt 0.6966 0.1642
vt 0.7081 0.1651
vt 0.6966 0.1383
vt 0.6966 0.2082
vt 0.6855 0.2090
vt 0.6966 0.2351
vt 0.7102 0.1884
vt 0.6966 0.1874
vt 0.6850 0.1651
vt 0.6829 0.1884
vt 0.7076 0.2090
vt 0.6966 0.1642
vt 0.7081 0.1651
vt 0.6966 0.1383
vt 0.6966 0.2082
vt 0.6855 0.2090
vt 0.6966 0.2351
vt 0.7102 0.1884
vt 0.6966 0.1874
vt 0.6850 0.1651
vt 0.6829 0.1884
vt 0.7076 0.2090
vt 0.6966 0.1642
vt 0.7081 0.1651
vt 0.6966 0.1383
vt 0.6966 0.2082
vt 0.6855 0.2090
vt 0.6966 0.2351
vt 0.7102 0.1884
vt 0.6966 0.1874
vt 0.6850 0.1651
vt 0.6829 0.1884
vt 0.7076 0.2090
vt 0.8238 0.1642
vt 0.8353 0.1651
vt 0.8238 0.1383
vt 0.8238 0.2082
vt 0.8127 0.2090
vt 0.8238 0.2351
vt 0.8374 0.1884
vt 0.8238 0.1874
vt 0.8122 0.1651
vt 0.8101 0.1884
vt 0.8348 0.2090
vt 0.8238 0.1642
vt 0.8353 0.1651
vt 0.8238 0.1383
vt 0.8238 0.2082
vt 0.8127 0.2090
vt 0.8238 0.2351
vt 0.8374 0.1884
vt 0.8238 0.1874
vt 0.8122 0.1651
vt 0.8101 0.1884
vt 0.8348 0.2090
vt 0.5573 0.9660
vt 0.5577 0.9793
vt 0.5565 0.9791
vt 0.5559 0.9659
vt 0.5617 0.9660
vt 0.5611 0.9794
vt 0.5600 0.9795
vt 0.5603 0.9660
vt 0.5588 0.9660
vt 0.5588 0.9794
vt 0.5632 0.9660
vt 0.5623 0.9792
vt 0.5623 0.8988
vt 0.5614 0.9266
vt 0.5585 0.9267
vt 0.5583 0.8990
vt 0.5607 0.9493
vt 0.5605 0.9526
vt 0.5588 0.9526
vt 0.5587 0.9493
vt 0.5702 0.8998
vt 0.5670 0.9272
vt 0.5642 0.9268
vt 0.5663 0.8991
vt 0.5644 0.9496
vt 0.5641 0.9528
vt 0.5623 0.9526
vt 0.5626 0.9494
vt 0.5557 0.9268
vt 0.5544 0.8994
vt 0.5570 0.9527
vt 0.5569 0.9494
vt 0.5529 0.9270
vt 0.5504 0.8995
vt 0.5552 0.9527
vt 0.5549 0.9495
vt 0.5574 0.9812
vt 0.5556 0.9811
vt 0.5614 0.9812
vt 0.5601 0.9812
vt 0.5588 0.9812
vt 0.5632 0.9812
vt 0.5609 0.9846
vt 0.5599 0.9845
vt 0.5589 0.9845
vt 0.5579 0.9846
vt 0.5619 0.9849
vt 0.5569 0.9849
vt 0.5702 0.8995
vt 0.5712 0.8988
vt 0.5721 0.8995
vt 0.5718 0.9006
vt 0.5706 0.9006
vt 0.5564 0.9397
vt 0.5540 0.9399
vt 0.5633 0.9397
vt 0.5610 0.9396
vt 0.5587 0.9396
vt 0.5655 0.9400
vt 0.5567 0.9462
vt 0.5546 0.9463
vt 0.5628 0.9462
vt 0.5608 0.9461
vt 0.5587 0.9461
vt 0.5648 0.9464
vn 0.2939 0.9214 -0.2542
vn -0.7127 0.4342 -0.5510
vn 0.0389 0.8872 -0.4597
vn -0.2510 0.9588 -0.1326
vn -0.0086 0.9962 0.0871
vn -0.5427 0.3922 -0.7427
vn -0.5158 0.7748 -0.3656
vn -0.2632 0.7124 -0.6506
vn 0.0871 0.9273 -0.3641
vn -0.3792 0.6506 0.6580
vn -0.1222 0.9856 -0.1167
vn 0.2039 0.9619 0.1821
vn 0.4274 0.9026 -0.0523
vn -0.5704 0.6645 0.4828
vn -0.0835 0.8903 0.4477
vn -0.3676 0.9109 0.1875
vn -0.0469 0.9969 0.0626
vn 0.0722 0.2962 0.9524
vn -0.0704 0.9201 0.3854
vn 0.2511 0.8786 0.4062
vn 0.2889 0.9536 0.0843
vn -0.1151 0.3204 0.9403
vn 0.1799 0.6565 0.7325
vn -0.0995 0.6926 0.7144
vn 0.0145 0.9757 0.2185
vn 0.8303 0.2111 0.5158
vn 0.2532 0.8715 0.4200
vn 0.5398 0.8376 0.0840
vn 0.3135 0.9404 -0.1320
vn 0.6622 0.2309 0.7128
vn 0.7423 0.5890 0.3195
vn 0.4926 0.6185 0.6122
vn 0.0645 0.9575 0.2810
vn 0.9008 0.3658 -0.2338
vn 0.3821 0.8990 0.2139
vn 0.3183 0.9332 -0.1669
vn -0.0021 0.9932 -0.1164
vn 0.9382 0.3458 -0.0107
vn 0.6543 0.7246 -0.2166
vn 0.7099 0.6948 0.1152
vn 0.3286 0.9354 0.1307
vn 0.5610 0.2659 -0.7839
vn 0.5239 0.8436 -0.1180
vn 0.1949 0.8906 -0.4109
vn -0.0146 0.9845 -0.1749
vn 0.7539 0.2384 -0.6122
vn 0.4065 0.6477 -0.6444
vn 0.6931 0.6067 -0.3893
vn 0.3078 0.9227 0.2322
vn -0.0310 0.3937 -0.9187
vn 0.2853 0.9048 -0.3161
vn -0.0699 0.9461 -0.3161
vn -0.0878 0.9687 0.2322
vn 0.1205 0.3761 -0.9187
vn -0.0545 0.7109 -0.7012
vn 0.2163 0.6794 -0.7012
vn 0.1285 0.9701 -0.2057
vn -0.8625 0.4933 0.1127
vn -0.2012 0.9595 -0.1970
vn -0.1939 0.9619 0.1929
vn 0.1380 0.9698 0.2012
vn -0.8625 0.4928 -0.1152
vn -0.5642 0.8084 0.1680
vn -0.5672 0.8056 -0.1714
vn -0.2939 -0.9214 0.2542
vn 0.7127 -0.4342 0.5510
vn -0.0389 -0.8872 0.4597
vn 0.2511 -0.9588 0.1326
vn 0.0086 -0.9962 -0.0871
vn 0.5427 -0.3922 0.7428
vn 0.5158 -0.7748 0.3656
vn 0.2632 -0.7124 0.6506
vn -0.0871 -0.9273 0.3641
vn 0.3792 -0.6506 -0.6580
vn 0.1223 -0.9856 0.1167
vn -0.2039 -0.9619 -0.1821
vn -0.4274 -0.9026 0.0523
vn 0.5704 -0.6645 -0.4828
vn 0.0835 -0.8903 -0.4478
vn 0.3676 -0.9109 -0.1875
vn 0.0469 -0.9969 -0.0626
vn -0.0722 -0.2962 -0.9524
vn 0.0704 -0.9201 -0.3854
vn -0.2512 -0.8786 -0.4062
vn -0.2889 -0.9536 -0.0843
vn 0.1151 -0.3204 -0.9403
vn -0.1799 -0.6565 -0.7325
vn 0.0995 -0.6926 -0.7144
vn -0.0145 -0.9757 -0.2185
vn -0.8303 -0.2111 -0.5158
vn -0.2531 -0.8715 -0.4200
vn -0.5398 -0.8376 -0.0840
vn -0.3135 -0.9404 0.1320
vn -0.6622 -0.2309 -0.7128
vn -0.7423 -0.5890 -0.3195
vn -0.4926 -0.6185 -0.6122
vn -0.0645 -0.9575 -0.2810
vn -0.9008 -0.3658 0.2338
vn -0.3821 -0.8990 -0.2139
vn -0.3182 -0.9332 0.1669
vn 0.0021 -0.9932 0.1164
vn -0.9382 -0.3458 0.0107
vn -0.6543 -0.7246 0.2166
vn -0.7099 -0.6948 -0.1152
vn -0.3286 -0.9354 -0.1307
vn -0.5610 -0.2659 0.7839
vn -0.5239 -0.8436 0.1180
vn -0.1949 -0.8906 0.4109
vn 0.0146 -0.9845 0.1749
vn -0.7539 -0.2383 0.6122
vn -0.4065 -0.6477 0.6444
vn -0.6931 -0.6067 0.3893
vn -0.3078 -0.9227 -0.2322
vn 0.0310 -0.3937 0.9187
vn -0.2853 -0.9048 0.3161
vn 0.0700 -0.9461 0.3161
vn 0.0878 -0.9687 -0.2322
vn -0.1205 -0.3761 0.9187
vn 0.0545 -0.7109 0.7012
vn -0.2163 -0.6794 0.7012
vn -0.1285 -0.9701 0.2057
vn 0.8625 -0.4933 -0.1127
vn 0.2012 -0.9595 0.1970
vn 0.1939 -0.9619 -0.1929
vn -0.1380 -0.9698 -0.2012
vn 0.8625 -0.4928 0.1152
vn 0.5642 -0.8084 -0.1680
vn 0.5672 -0.8055 0.1714
vn 0.9074 -0.2866 0.3073
vn -0.8873 0.3456 0.3055
vn 0.5647 -0.1702 -0.8075
vn 0.0080 0.0325 0.9994
vn -0.5500 0.2224 -0.8050
vn -0.5670 0.2041 -0.7980
vn -0.2059 0.6197 -0.7573
vn 0.0105 0.0940 0.9955
vn 0.0157 0.0183 0.9997
vn 0.5893 -0.0571 -0.8059
vn 0.2075 -0.6185 -0.7579
vn -0.9090 0.2885 0.3007
vn -0.2897 0.9207 0.2617
vn 0.9434 -0.1285 0.3059
vn 0.3211 -0.9087 0.2668
vn 0.7787 -0.5605 0.2821
vn -0.9394 -0.1842 0.2891
vn 0.4746 -0.4510 -0.7559
vn -0.0744 -0.3996 0.9137
vn -0.6060 -0.2130 -0.7664
vn -0.8646 0.4030 0.3001
vn 0.6025 0.0874 -0.7933
vn 0.0451 0.2423 0.9691
vn -0.5275 0.3086 -0.7915
vn 0.9523 0.0476 0.3014
vn 0.1831 0.9831 0.0000
vn 0.1830 0.9831 0.0000
vn 0.8163 -0.4985 0.2920
vn -0.7646 0.5749 0.2912
vn 0.5279 -0.3095 -0.7909
vn 0.0276 0.0433 0.9987
vn -0.4830 0.3782 -0.7897
vn 0.3122 -0.9039 0.2925
vn -0.3086 0.9052 0.2921
vn 0.2471 -0.5480 -0.7992
vn -0.0289 -0.0222 0.9993
vn -0.1498 0.6060 -0.7812
vn -0.3578 0.5425 -0.7601
vn 0.0125 0.0244 0.9996
vn 0.3893 -0.5014 -0.7727
vn -0.5323 0.8036 0.2664
vn 0.5871 -0.7611 0.2758
vn 0.1879 -0.9455 0.2659
vn -0.1618 0.9515 0.2617
vn 0.1085 -0.6482 -0.7537
vn 0.0229 0.0206 0.9995
vn -0.1286 0.6368 -0.7603
s off
f 3/1/1 5/2/1 7/3/1
f 1/4/2 2/5/2 8/6/2
f 11/7/3 7/3/3 5/2/3 10/8/3
f 9/9/4 6/10/4 7/3/4 11/7/4
f 6/10/5 3/1/5 7/3/5
f 4/11/6 1/4/6 8/6/6
f 2/5/7 9/9/7 11/7/7 8/6/7
f 8/6/8 11/7/8 10/8/8 4/11/8
f 14/12/9 16/13/9 18/14/9
f 12/15/10 13/16/10 19/17/10
f 22/18/11 18/14/11 16/13/11 21/19/11
f 20/20/12 17/21/12 18/14/12 22/18/12
f 17/21/13 14/12/13 18/14/13
f 15/22/14 12/15/14 19/17/14
f 13/16/15 20/20/15 22/18/15 19/17/15
f 19/17/16 22/18/16 21/19/16 15/22/16
f 25/23/17 27/24/17 29/25/17
f 23/26/18 24/27/18 30/28/18
f 33/29/19 29/25/19 27/24/19 32/30/19
f 31/31/20 28/32/20 29/25/20 33/29/20
f 28/32/21 25/23/21 29/25/21
f 26/33/22 23/26/22 30/28/22
f 24/27/23 31/31/23 33/29/23 30/28/23
f 30/28/24 33/29/24 32/30/24 26/33/24
f 36/34/25 38/35/25 40/36/25
f 34/37/26 35/38/26 41/39/26
f 44/40/27 40/36/27 38/35/27 43/41/27
f 42/42/28 39/43/28 40/36/28 44/40/28
f 39/43/29 36/34/29 40/36/29
f 37/44/30 34/37/30 41/39/30
f 35/38/31 42/42/31 44/40/31 41/39/31
f 41/39/32 44/40/32 43/41/32 37/44/32
f 47/45/33 49/46/33 51/47/33
f 45/48/34 46/49/34 52/50/34
f 55/51/35 51/47/35 49/46/35 54/52/35
f 53/53/36 50/54/36 51/47/36 55/51/36
f 50/54/37 47/45/37 51/47/37
f 48/55/38 45/48/38 52/50/38
f 46/49/39 53/53/39 55/51/39 52/50/39
f 52/50/40 55/51/40 54/52/40 48/55/40
f 58/56/41 60/57/41 62/58/41
f 56/59/42 57/60/42 63/61/42
f 66/62/43 62/58/43 60/57/43 65/63/43
f 64/64/44 61/65/44 62/58/44 66/62/44
f 61/65/45 58/56/45 62/58/45
f 59/66/46 56/59/46 63/61/46
f 57/60/47 64/64/47 66/62/47 63/61/47
f 63/61/48 66/62/48 65/63/48 59/66/48
f 69/67/49 71/68/49 73/69/49
f 67/70/50 68/71/50 74/72/50
f 77/73/51 73/69/51 71/68/51 76/74/51
f 75/75/52 72/76/52 73/69/52 77/73/52
f 72/76/53 69/67/53 73/69/53
f 70/77/54 67/70/54 74/72/54
f 68/71/55 75/75/55 77/73/55 74/72/55
f 74/72/56 77/73/56 76/74/56 70/77/56
f 80/78/57 82/79/57 84/80/57
f 78/81/58 79/82/58 85/83/58
f 88/84/59 84/80/59 82/79/59 87/85/59
f 86/86/60 83/87/60 84/80/60 88/84/60
f 83/87/61 80/78/61 84/80/61
f 81/88/62 78/81/62 85/83/62
f 79/82/63 86/86/63 88/84/63 85/83/63
f 85/83/64 88/84/64 87/85/64 81/88/64
f 95/89/65 93/90/65 91/91/65
f 96/92/66 90/93/66 89/94/66
f 98/95/67 93/90/67 95/89/67 99/96/67
f 99/96/68 95/89/68 94/97/68 97/98/68
f 95/89/69 91/91/69 94/97/69
f 96/92/70 89/94/70 92/99/70
f 96/92/71 99/96/71 97/98/71 90/93/71
f 92/99/72 98/95/72 99/96/72 96/92/72
f 106/100/73 104/101/73 102/102/73
f 107/103/74 101/104/74 100/105/74
f 109/106/75 104/101/75 106/100/75 110/107/75
f 110/107/76 106/100/76 105/108/76 108/109/76
f 106/100/77 102/102/77 105/108/77
f 107/103/78 100/105/78 103/110/78
f 107/103/79 110/107/79 108/109/79 101/104/79
f 103/110/80 109/106/80 110/107/80 107/103/80
f 117/111/81 115/112/81 113/113/81
f 118/114/82 112/115/82 111/116/82
f 120/117/83 115/112/83 117/111/83 121/118/83
f 121/118/84 117/111/84 116/119/84 119/120/84
f 117/111/85 113/113/85 116/119/85
f 118/114/86 111/116/86 114/121/86
f 118/114/87 121/118/87 119/120/87 112/115/87
f 114/121/88 120/117/88 121/118/88 118/114/88
f 128/122/89 126/123/89 124/124/89
f 129/125/90 123/126/90 122/127/90
f 131/128/91 126/123/91 128/122/91 132/129/91
f 132/129/92 128/122/92 127/130/92 130/131/92
f 128/122/93 124/124/93 127/130/93
f 129/125/94 122/127/94 125/132/94
f 129/125/95 132/129/95 130/131/95 123/126/95
f 125/132/96 131/128/96 132/129/96 129/125/96
f 139/133/97 137/134/97 135/135/97
f 140/136/98 134/137/98 133/138/98
f 142/139/99 137/134/99 139/133/99 143/140/99
f 143/140/100 139/133/100 138/141/100 141/142/100
f 139/133/101 135/135/101 138/141/101
f 140/136/102 133/138/102 136/143/102
f 140/136/103 143/140/103 141/142/103 134/137/103
f 136/143/104 142/139/104 143/140/104 140/136/104
f 150/144/105 148/145/105 146/146/105
f 151/147/106 145/148/106 144/149/106
f 153/150/107 148/145/107 150/144/107 154/151/107
f 154/151/108 150/144/108 149/152/108 152/153/108
f 150/144/109 146/146/109 149/152/109
f 151/147/110 144/149/110 147/154/110
f 151/147/111 154/151/111 152/153/111 145/148/111
f 147/154/112 153/150/112 154/151/112 151/147/112
f 161/155/113 159/156/113 157/157/113
f 162/158/114 156/159/114 155/160/114
f 164/161/115 159/156/115 161/155/115 165/162/115
f 165/162/116 161/155/116 160/163/116 163/164/116
f 161/155/117 157/157/117 160/163/117
f 162/158/118 155/160/118 158/165/118
f 162/158/119 165/162/119 163/164/119 156/159/119
f 158/165/120 164/161/120 165/162/120 162/158/120
f 172/166/121 170/167/121 168/168/121
f 173/169/122 167/170/122 166/171/122
f 175/172/123 170/167/123 172/166/123 176/173/123
f 176/173/124 172/166/124 171/174/124 174/175/124
f 172/166/125 168/168/125 171/174/125
f 173/169/126 166/171/126 169/176/126
f 173/169/127 176/173/127 174/175/127 167/170/127
f 169/176/128 175/172/128 176/173/128 173/169/128
f 219/177/129 186/178/129 185/179/129 217/180/129
f 220/181/130 184/182/130 183/183/130 218/184/130
f 221/185/131 182/186/131 186/178/131 219/177/131
f 217/187/132 185/188/132 184/182/132 220/181/132
f 218/184/133 183/183/133 182/186/133 221/185/133
f 178/189/134 191/190/134 196/191/134 177/192/134
f 223/193/135 192/194/135 195/195/135 226/196/135
f 180/197/136 187/198/136 194/199/136 179/200/136
f 222/201/137 188/202/137 193/203/137 225/204/137
f 177/192/138 196/191/138 190/205/138 181/206/138
f 226/196/139 195/195/139 189/207/139 224/208/139
f 179/200/140 194/199/140 191/190/140 178/189/140
f 225/204/141 193/203/141 192/194/141 223/193/141
f 181/206/142 190/205/142 187/209/142 180/210/142
f 224/208/143 189/207/143 188/211/143 222/212/143
f 186/178/144 201/213/144 200/214/144 185/179/144
f 184/182/145 199/215/145 198/216/145 183/183/145
f 182/186/146 197/217/146 201/213/146 186/178/146
f 185/188/147 200/218/147 199/215/147 184/182/147
f 183/183/148 198/216/148 197/217/148 182/186/148
f 199/215/149 204/219/149 203/220/149 198/216/149
f 197/217/150 202/221/150 206/222/150 201/213/150
f 200/218/151 205/223/151 204/219/151 199/215/151
f 198/216/152 203/220/152 202/221/152 197/217/152
f 201/213/153 206/222/153 205/224/153 200/214/153
f 204/225/154 205/226/154 206/227/154 202/228/154
f 203/229/155 204/225/155 202/228/155
f 190/205/156 208/230/156 207/231/156 187/209/156
f 194/199/157 210/232/157 209/233/157 191/190/157
f 196/191/158 211/234/158 208/230/158 190/205/158
f 187/198/159 207/235/159 210/232/159 194/199/159
f 191/190/160 209/233/160 211/234/160 196/191/160
f 208/230/161 214/236/161 212/237/161 207/231/161
f 210/232/162 215/238/162 213/239/162 209/233/162
f 211/234/163 216/240/163 214/236/163 208/230/163
f 207/235/164 212/241/164 215/238/164 210/232/164
f 209/233/165 213/239/165 216/240/165 211/234/165
f 192/194/166 218/184/166 221/185/166 195/195/166
f 188/202/167 217/187/167 220/181/167 193/203/167
f 195/195/168 221/185/168 219/177/168 189/207/168
f 193/203/169 220/181/169 218/184/169 192/194/169
f 189/207/170 219/177/170 217/180/170 188/211/170
f 214/236/171 224/208/171 222/212/171 212/237/171
f 215/238/172 225/204/172 223/193/172 213/239/172
f 216/240/173 226/196/173 224/208/173 214/236/173
f 212/241/174 222/201/174 225/204/174 215/238/174
f 213/239/175 223/193/175 226/196/175 216/240/175
