# Blender v2.78 (sub 0) OBJ File: 'Low_Poly_Trees_Pack.blend'
# www.blender.org
g Palm_Tree_crk_m_03
v 4.243127 0.196541 -0.444527
v 4.064873 0.273581 0.174974
v 2.831033 0.036371 0.964589
v 3.742420 -0.001728 -0.108243
v 3.291461 -0.013134 0.470121
v 3.443523 0.322629 0.896014
v 3.390240 0.097138 0.713701
v 3.929502 0.102690 0.073042
v 3.824793 0.354130 0.615047
v 3.509167 -0.014102 0.166326
v 3.690639 0.116100 0.418288
v 3.850601 0.058039 2.729210
v 3.474424 0.004614 2.371421
v 2.811389 0.046611 1.007554
v 3.848708 0.030543 2.051043
v 3.379345 0.096921 1.261013
v 2.987522 -0.003793 1.596403
v 3.192402 0.016522 1.414566
v 3.675671 0.018975 2.206324
v 3.234152 0.012681 2.008541
v 3.700507 0.035471 1.617146
v 3.475953 0.015364 1.810520
v 2.170208 1.124167 -0.694327
v 2.802864 0.849030 -0.443519
v 2.813829 0.062362 1.019112
v 2.244132 0.412511 -0.477239
v 2.556157 -0.139496 0.405036
v 3.130337 0.331027 0.438497
v 2.884946 0.042082 0.420874
v 2.557390 0.586326 -0.479934
v 3.092544 0.547599 -0.033753
v 2.423240 0.024694 -0.074147
v 2.800242 0.230611 -0.078383
v 1.283645 1.544006 0.899454
v 1.921322 1.447204 1.289952
v 2.849130 0.079399 0.987245
v 1.980452 1.409536 0.537845
v 2.797836 0.740409 0.546708
v 2.723361 0.769458 1.333419
v 2.828887 0.750735 0.941882
v 2.008099 1.445126 0.913312
v 2.393878 1.166395 1.388517
v 2.464710 1.121273 0.487572
v 2.500784 1.164771 0.937313
v 2.070410 0.098413 3.350190
v 1.911510 0.014847 2.624388
v 2.794068 0.090374 1.006697
v 2.555009 0.133217 2.781090
v 2.979145 0.121054 1.750712
v 2.294384 0.034643 1.590148
v 2.656169 0.037029 1.662444
v 2.247617 0.069929 2.716482
v 2.022753 -0.002030 2.056302
v 2.793597 0.108095 2.244015
v 2.426115 0.061112 2.167332
v 4.242556 0.197411 -0.444716
v 4.064224 0.274318 0.174582
v 2.830697 0.037214 0.964045
v 3.742039 -0.000757 -0.108423
v 3.291146 -0.012168 0.469827
v 3.443044 0.323318 0.895369
v 3.389834 0.097974 0.713195
v 3.928975 0.103563 0.072759
v 3.824221 0.354844 0.614516
v 3.508832 -0.013133 0.166068
v 3.690163 0.116954 0.417884
v 3.850492 0.059090 2.729167
v 3.474357 0.005670 2.371410
v 2.811279 0.047647 1.007734
v 3.848634 0.031599 2.051049
v 3.379195 0.097946 1.261227
v 2.987487 -0.002736 1.596447
v 3.192304 0.017566 1.414708
v 3.675597 0.020030 2.206314
v 3.234118 0.013738 2.008556
v 3.700419 0.036519 1.617256
v 3.475893 0.016419 1.810575
v 2.169969 1.124395 -0.693322
v 2.802375 0.849363 -0.442642
v 2.813168 0.063181 1.019006
v 2.243863 0.413015 -0.476349
v 2.555656 -0.138591 0.405261
v 3.129544 0.331698 0.438691
v 2.884283 0.042894 0.421019
v 2.557017 0.586735 -0.479032
v 3.091852 0.548151 -0.033172
v 2.422823 0.025455 -0.073542
v 2.799674 0.231281 -0.077793
v 1.283501 1.542959 0.899493
v 1.920966 1.446211 1.289874
v 2.848078 0.079360 0.987145
v 1.980077 1.408554 0.537967
v 2.796886 0.739956 0.546812
v 2.722434 0.769004 1.333190
v 2.827893 0.750378 0.941814
v 2.007743 1.444130 0.913334
v 2.393215 1.165586 1.388365
v 2.464031 1.120471 0.487691
v 2.500091 1.163972 0.937292
v 2.070241 0.099453 3.350096
v 1.911361 0.015891 2.624315
v 2.793924 0.091420 1.006752
v 2.554842 0.134257 2.780996
v 2.978927 0.122089 1.750673
v 2.294322 0.035699 1.590158
v 2.656025 0.038077 1.662442
v 2.247457 0.070971 2.716397
v 2.022634 -0.000980 2.056255
v 2.793432 0.109136 2.243927
v 2.425977 0.062159 2.167266
v 0.000000 0.000000 -0.223428
v -0.212493 0.000000 -0.069043
v -0.131328 0.000000 0.180757
v 0.131328 0.000000 0.180757
v 0.212493 0.000000 -0.069043
v 0.442909 1.130663 0.123306
v 0.500614 1.127479 -0.055481
v 0.198466 1.144153 -0.055481
v 0.256171 1.140969 0.123306
v 0.349540 1.135816 -0.165977
v 0.550677 2.001222 0.102603
v 0.325578 1.901247 -0.051136
v 0.600071 2.002519 -0.050593
v 0.375894 1.902047 0.104900
v 0.457307 1.903340 -0.147571
v 2.655225 0.272170 0.959082
v 2.618336 0.239728 1.010564
v 2.577653 0.189780 0.980332
v 2.589399 0.191354 0.910166
v 2.637341 0.242274 0.897033
v 1.307814 1.234050 0.595320
v 1.399096 1.308611 0.574825
v 1.354528 1.319780 0.761557
v 1.280270 1.240953 0.710727
v 1.427967 1.361595 0.677565
v 2.783457 0.230768 0.974988
v 2.709432 0.165666 1.078295
v 2.627795 0.065438 1.017630
v 2.651366 0.068596 0.876829
v 2.747569 0.170776 0.850474
v 2.950260 -0.018527 0.994497
v 2.926157 -0.039725 1.028135
v 2.899576 -0.072360 1.008383
v 2.907250 -0.071331 0.962536
v 2.938576 -0.038061 0.953955
v 0.679629 2.159705 -0.109921
v 0.557753 2.036917 0.086863
v 0.702562 2.244367 0.015664
v 1.900712 0.701727 0.831529
v 1.941251 0.766301 0.965123
v 1.972704 0.762058 0.814938
v 1.881273 0.704349 0.924349
v 1.997759 0.801967 0.897504
v 0.610668 2.007565 -0.053478
v 0.594011 2.207198 0.117156
vt 0.6910 0.0121
vt 0.7031 0.0401
vt 0.6910 0.0391
vt 0.6910 0.1130
vt 0.6795 0.0858
vt 0.6910 0.0850
vt 0.6910 0.0632
vt 0.7052 0.0644
vt 0.6768 0.0644
vt 0.6790 0.0401
vt 0.7025 0.0858
vt 0.8202 0.0084
vt 0.8323 0.0364
vt 0.8202 0.0354
vt 0.8202 0.1093
vt 0.8087 0.0821
vt 0.8202 0.0813
vt 0.8202 0.0596
vt 0.8344 0.0607
vt 0.8060 0.0607
vt 0.8082 0.0364
vt 0.8317 0.0821
vt 0.8202 0.0084
vt 0.8323 0.0364
vt 0.8202 0.0354
vt 0.8202 0.1093
vt 0.8087 0.0821
vt 0.8202 0.0813
vt 0.8202 0.0596
vt 0.8344 0.0607
vt 0.8060 0.0607
vt 0.8082 0.0364
vt 0.8317 0.0821
vt 0.8202 0.0084
vt 0.8323 0.0364
vt 0.8202 0.0354
vt 0.8202 0.1093
vt 0.8087 0.0821
vt 0.8202 0.0813
vt 0.8202 0.0596
vt 0.8344 0.0607
vt 0.8060 0.0607
vt 0.8082 0.0364
vt 0.8317 0.0821
vt 0.6910 0.0121
vt 0.7031 0.0401
vt 0.6910 0.0391
vt 0.6910 0.1130
vt 0.6795 0.0858
vt 0.6910 0.0850
vt 0.6910 0.0632
vt 0.7052 0.0644
vt 0.6768 0.0644
vt 0.6790 0.0401
vt 0.7025 0.0858
vt 0.6910 0.0391
vt 0.7031 0.0401
vt 0.6910 0.0121
vt 0.6910 0.0850
vt 0.6795 0.0858
vt 0.6910 0.1130
vt 0.7052 0.0644
vt 0.6910 0.0632
vt 0.6790 0.0401
vt 0.6768 0.0644
vt 0.7025 0.0858
vt 0.8202 0.0354
vt 0.8323 0.0364
vt 0.8202 0.0084
vt 0.8202 0.0813
vt 0.8087 0.0821
vt 0.8202 0.1093
vt 0.8344 0.0607
vt 0.8202 0.0596
vt 0.8082 0.0364
vt 0.8060 0.0607
vt 0.8317 0.0821
vt 0.8202 0.0354
vt 0.8323 0.0364
vt 0.8202 0.0084
vt 0.8202 0.0813
vt 0.8087 0.0821
vt 0.8202 0.1093
vt 0.8344 0.0607
vt 0.8202 0.0596
vt 0.8082 0.0364
vt 0.8060 0.0607
vt 0.8317 0.0821
vt 0.8202 0.0354
vt 0.8323 0.0364
vt 0.8202 0.0084
vt 0.8202 0.0813
vt 0.8087 0.0821
vt 0.8202 0.1093
vt 0.8344 0.0607
vt 0.8202 0.0596
vt 0.8082 0.0364
vt 0.8060 0.0607
vt 0.8317 0.0821
vt 0.6910 0.0391
vt 0.7031 0.0401
vt 0.6910 0.0121
vt 0.6910 0.0850
vt 0.6795 0.0858
vt 0.6910 0.1130
vt 0.7052 0.0644
vt 0.6910 0.0632
vt 0.6790 0.0401
vt 0.6768 0.0644
vt 0.7025 0.0858
vt 0.5657 0.8993
vt 0.5648 0.9291
vt 0.5602 0.9297
vt 0.5597 0.9008
vt 0.5775 0.9026
vt 0.5738 0.9307
vt 0.5694 0.9296
vt 0.5718 0.9002
vt 0.5557 0.9305
vt 0.5537 0.9025
vt 0.5512 0.9306
vt 0.5474 0.9026
vt 0.5568 0.9515
vt 0.5528 0.9515
vt 0.5682 0.9483
vt 0.5644 0.9479
vt 0.5606 0.9485
vt 0.5718 0.9515
vt 0.5909 0.9311
vt 0.5904 0.9083
vt 0.5923 0.9086
vt 0.5932 0.9313
vt 0.5839 0.9314
vt 0.5847 0.9084
vt 0.5866 0.9081
vt 0.5862 0.9311
vt 0.5885 0.9309
vt 0.5885 0.9082
vt 0.5816 0.9313
vt 0.5827 0.9085
vt 0.5852 0.9830
vt 0.5859 0.9507
vt 0.5887 0.9511
vt 0.5889 0.9834
vt 0.5775 0.9812
vt 0.5802 0.9514
vt 0.5830 0.9510
vt 0.5812 0.9810
vt 0.5915 0.9516
vt 0.5924 0.9838
vt 0.5944 0.9515
vt 0.5959 0.9816
vt 0.5906 0.9052
vt 0.5936 0.9050
vt 0.5845 0.9052
vt 0.5865 0.9054
vt 0.5885 0.9053
vt 0.5815 0.9049
vt 0.5860 0.8998
vt 0.5870 0.9000
vt 0.5880 0.9000
vt 0.5890 0.8998
vt 0.5851 0.8993
vt 0.5899 0.8993
vt 0.5970 0.9127
vt 0.5977 0.9136
vt 0.5970 0.9145
vt 0.5959 0.9142
vt 0.5959 0.9130
vt 0.6861 0.9390
vt 0.6831 0.9368
vt 0.6891 0.9368
vt 0.6842 0.9327
vt 0.6879 0.9327
vt 0.6831 0.9398
vt 0.6835 0.9390
vt 0.6872 0.9396
vt 0.6870 0.9398
vt 0.6904 0.9302
vt 0.6862 0.9326
vt 0.6844 0.9265
vt 0.6893 0.9265
vt 0.6831 0.9302
vn 0.2419 -0.9170 0.3171
vn 0.6655 -0.6928 0.2777
vn 0.3277 -0.9094 0.2560
vn 0.5140 -0.6579 0.5503
vn 0.3726 -0.6351 0.6766
vn 0.4180 -0.9040 0.0894
vn 0.5741 -0.6948 0.4332
vn 0.3085 -0.9214 0.2365
vn 0.1976 -0.9465 -0.2550
vn 0.1034 -0.9938 0.0396
vn 0.1018 -0.9813 -0.1635
vn 0.0434 -0.9990 -0.0095
vn 0.0182 -0.9957 -0.0907
vn 0.1024 -0.9939 0.0400
vn 0.0228 -0.9996 -0.0191
vn 0.0571 -0.9980 -0.0255
vn 0.4784 -0.8739 0.0865
vn 0.3051 -0.1549 -0.9396
vn 0.4481 -0.8046 -0.3897
vn 0.7199 -0.6037 -0.3425
vn 0.7541 -0.6472 0.1116
vn 0.1444 -0.2750 -0.9506
vn 0.5623 -0.4222 -0.7110
vn 0.3248 -0.6036 -0.7281
vn 0.9966 0.0247 -0.0790
vn 0.1347 0.9906 0.0256
vn 0.7688 0.6314 -0.1013
vn 0.7696 0.6129 0.1792
vn 0.9651 0.0465 0.2579
vn 0.1365 0.9852 -0.1034
vn 0.4890 0.8653 0.1105
vn 0.4969 0.8594 -0.1207
vn 0.2579 -0.9659 -0.0243
vn 0.1389 -0.9868 0.0832
vn 0.1672 -0.9826 0.0806
vn 0.0787 -0.9965 0.0277
vn 0.0219 -0.9968 -0.0765
vn 0.1816 -0.9788 0.0948
vn 0.1416 -0.9881 0.0595
vn 0.1431 -0.9860 0.0858
vn -0.2419 0.9171 -0.3170
vn -0.6656 0.6928 -0.2777
vn -0.3276 0.9095 -0.2559
vn -0.5141 0.6579 -0.5504
vn -0.3726 0.6350 -0.6767
vn -0.4180 0.9041 -0.0893
vn -0.5741 0.6948 -0.4333
vn -0.3084 0.9214 -0.2365
vn -0.1977 0.9465 0.2550
vn -0.1034 0.9938 -0.0396
vn -0.1018 0.9813 0.1635
vn -0.0433 0.9990 0.0095
vn -0.0182 0.9957 0.0907
vn -0.1024 0.9939 -0.0400
vn -0.0228 0.9996 0.0191
vn -0.0571 0.9980 0.0255
vn -0.4784 0.8738 -0.0865
vn -0.3051 0.1549 0.9396
vn -0.4481 0.8046 0.3897
vn -0.7200 0.6036 0.3425
vn -0.7541 0.6472 -0.1116
vn -0.1444 0.2749 0.9506
vn -0.5623 0.4222 0.7110
vn -0.3247 0.6037 0.7281
vn -0.9966 -0.0246 0.0789
vn -0.1347 -0.9906 -0.0256
vn -0.7688 -0.6314 0.1014
vn -0.7696 -0.6129 -0.1792
vn -0.9651 -0.0464 -0.2578
vn -0.1364 -0.9852 0.1034
vn -0.4890 -0.8653 -0.1106
vn -0.4969 -0.8594 0.1208
vn -0.2579 0.9659 0.0243
vn -0.1389 0.9868 -0.0832
vn -0.1672 0.9826 -0.0806
vn -0.0787 0.9965 -0.0277
vn -0.0218 0.9968 0.0765
vn -0.1816 0.9788 -0.0948
vn -0.1416 0.9881 -0.0595
vn -0.1431 0.9860 -0.0858
vn -0.5718 0.2154 -0.7916
vn 0.0012 0.0502 0.9987
vn 0.5811 -0.1386 -0.8020
vn -0.9005 0.3203 0.2942
vn 0.9231 -0.2393 0.3009
vn 0.9458 -0.1095 0.3057
vn -0.9398 0.1556 0.3043
vn 0.5885 -0.0628 -0.8060
vn 0.0005 0.0239 0.9997
vn -0.5859 0.1023 -0.8039
vn -0.0454 -0.2119 -0.9762
vn -0.2983 -0.3054 0.9043
vn 0.5747 0.6571 -0.4878
vn -0.5847 -0.8042 -0.1067
vn 0.4230 0.6029 0.6765
vn 0.3161 0.7207 0.6170
vn -0.6885 -0.7161 -0.1151
vn 0.8313 0.3721 -0.4129
vn -0.6313 0.0277 0.7750
vn 0.2576 -0.4688 -0.8449
vn -0.3427 0.0812 -0.9359
vn -0.5966 0.0002 0.8026
vn 0.3226 0.8130 -0.4847
vn -0.8980 -0.4100 -0.1595
vn 0.1736 0.7723 0.6111
vn -0.1736 -0.4026 0.8988
vn 0.7593 0.4731 -0.4468
vn -0.4527 -0.8865 -0.0957
vn 0.5759 0.4393 0.6895
vn 0.1189 -0.3514 -0.9286
vn 0.7376 -0.6665 0.1085
vn 0.3823 0.6479 0.6588
vn -0.6398 -0.7607 -0.1096
vn 0.7038 0.5315 -0.4713
vn -0.4463 -0.1486 0.8824
vn 0.0682 -0.3403 -0.9378
vn -0.5930 0.7137 -0.3728
vn -0.8852 0.2574 -0.3876
vn -0.9095 0.2392 -0.3399
vn -0.4904 0.8580 -0.1527
vn -0.0159 0.9999 0.0000
s off
f 3/1/1 5/2/1 7/3/1
f 1/4/2 2/5/2 8/6/2
f 11/7/3 7/3/3 5/2/3 10/8/3
f 9/9/4 6/10/4 7/3/4 11/7/4
f 6/10/5 3/1/5 7/3/5
f 4/11/6 1/4/6 8/6/6
f 2/5/7 9/9/7 11/7/7 8/6/7
f 8/6/8 11/7/8 10/8/8 4/11/8
f 14/12/9 16/13/9 18/14/9
f 12/15/10 13/16/10 19/17/10
f 22/18/11 18/14/11 16/13/11 21/19/11
f 20/20/12 17/21/12 18/14/12 22/18/12
f 17/21/13 14/12/13 18/14/13
f 15/22/14 12/15/14 19/17/14
f 13/16/15 20/20/15 22/18/15 19/17/15
f 19/17/16 22/18/16 21/19/16 15/22/16
f 25/23/17 27/24/17 29/25/17
f 23/26/18 24/27/18 30/28/18
f 33/29/19 29/25/19 27/24/19 32/30/19
f 31/31/20 28/32/20 29/25/20 33/29/20
f 28/32/21 25/23/21 29/25/21
f 26/33/22 23/26/22 30/28/22
f 24/27/23 31/31/23 33/29/23 30/28/23
f 30/28/24 33/29/24 32/30/24 26/33/24
f 36/34/25 38/35/25 40/36/25
f 34/37/26 35/38/26 41/39/26
f 44/40/27 40/36/27 38/35/27 43/41/27
f 42/42/28 39/43/28 40/36/28 44/40/28
f 39/43/29 36/34/29 40/36/29
f 37/44/30 34/37/30 41/39/30
f 35/38/31 42/42/31 44/40/31 41/39/31
f 41/39/32 44/40/32 43/41/32 37/44/32
f 47/45/33 49/46/33 51/47/33
f 45/48/34 46/49/34 52/50/34
f 55/51/35 51/47/35 49/46/35 54/52/35
f 53/53/36 50/54/36 51/47/36 55/51/36
f 50/54/37 47/45/37 51/47/37
f 48/55/38 45/48/38 52/50/38
f 46/49/39 53/53/39 55/51/39 52/50/39
f 52/50/40 55/51/40 54/52/40 48/55/40
f 62/56/41 60/57/41 58/58/41
f 63/59/42 57/60/42 56/61/42
f 65/62/43 60/57/43 62/56/43 66/63/43
f 66/63/44 62/56/44 61/64/44 64/65/44
f 62/56/45 58/58/45 61/64/45
f 63/59/46 56/61/46 59/66/46
f 63/59/47 66/63/47 64/65/47 57/60/47
f 59/66/48 65/62/48 66/63/48 63/59/48
f 73/67/49 71/68/49 69/69/49
f 74/70/50 68/71/50 67/72/50
f 76/73/51 71/68/51 73/67/51 77/74/51
f 77/74/52 73/67/52 72/75/52 75/76/52
f 73/67/53 69/69/53 72/75/53
f 74/70/54 67/72/54 70/77/54
f 74/70/55 77/74/55 75/76/55 68/71/55
f 70/77/56 76/73/56 77/74/56 74/70/56
f 84/78/57 82/79/57 80/80/57
f 85/81/58 79/82/58 78/83/58
f 87/84/59 82/79/59 84/78/59 88/85/59
f 88/85/60 84/78/60 83/86/60 86/87/60
f 84/78/61 80/80/61 83/86/61
f 85/81/62 78/83/62 81/88/62
f 85/81/63 88/85/63 86/87/63 79/82/63
f 81/88/64 87/84/64 88/85/64 85/81/64
f 95/89/65 93/90/65 91/91/65
f 96/92/66 90/93/66 89/94/66
f 98/95/67 93/90/67 95/89/67 99/96/67
f 99/96/68 95/89/68 94/97/68 97/98/68
f 95/89/69 91/91/69 94/97/69
f 96/92/70 89/94/70 92/99/70
f 96/92/71 99/96/71 97/98/71 90/93/71
f 92/99/72 98/95/72 99/96/72 96/92/72
f 106/100/73 104/101/73 102/102/73
f 107/103/74 101/104/74 100/105/74
f 109/106/75 104/101/75 106/100/75 110/107/75
f 110/107/76 106/100/76 105/108/76 108/109/76
f 106/100/77 102/102/77 105/108/77
f 107/103/78 100/105/78 103/110/78
f 107/103/79 110/107/79 108/109/79 101/104/79
f 103/110/80 109/106/80 110/107/80 107/103/80
f 112/111/81 118/112/81 120/113/81 111/114/81
f 114/115/82 116/116/82 119/117/82 113/118/82
f 111/114/83 120/113/83 117/119/83 115/120/83
f 113/118/84 119/117/84 118/112/84 112/111/84
f 115/120/85 117/119/85 116/121/85 114/122/85
f 117/119/86 123/123/86 121/124/86 116/121/86
f 119/117/87 124/125/87 122/126/87 118/112/87
f 120/113/88 125/127/88 123/123/88 117/119/88
f 116/116/89 121/128/89 124/125/89 119/117/89
f 118/112/90 122/126/90 125/127/90 120/113/90
f 151/129/91 130/130/91 129/131/91 149/132/91
f 152/133/92 128/134/92 127/135/92 150/136/92
f 153/137/93 126/138/93 130/130/93 151/129/93
f 149/139/94 129/140/94 128/134/94 152/133/94
f 150/136/95 127/135/95 126/138/95 153/137/95
f 155/141/96 133/142/96 135/143/96 148/144/96
f 154/145/97 131/146/97 134/147/97 147/148/97
f 148/144/98 135/143/98 132/149/98 146/150/98
f 147/148/99 134/147/99 133/142/99 155/141/99
f 146/150/100 132/149/100 131/151/100 154/152/100
f 130/130/101 140/153/101 139/154/101 129/131/101
f 128/134/102 138/155/102 137/156/102 127/135/102
f 126/138/103 136/157/103 140/153/103 130/130/103
f 129/140/104 139/158/104 138/155/104 128/134/104
f 127/135/105 137/156/105 136/157/105 126/138/105
f 138/155/106 143/159/106 142/160/106 137/156/106
f 136/157/107 141/161/107 145/162/107 140/153/107
f 139/158/108 144/163/108 143/159/108 138/155/108
f 137/156/109 142/160/109 141/161/109 136/157/109
f 140/153/110 145/162/110 144/164/110 139/154/110
f 143/165/111 144/166/111 145/167/111 141/168/111
f 142/169/111 143/165/111 141/168/111
f 133/142/112 150/136/112 153/137/112 135/143/112
f 131/146/113 149/139/113 152/133/113 134/147/113
f 135/143/114 153/137/114 151/129/114 132/149/114
f 134/147/115 152/133/115 150/136/115 133/142/115
f 132/149/116 151/129/116 149/132/116 131/151/116
f 148/170/117 146/171/117 155/172/117
f 146/171/118 154/173/118 147/174/118 155/172/118
f 121/175/119 147/176/119 154/177/119 123/178/119
f 123/179/120 125/180/120 124/181/120 121/182/120
f 124/181/121 125/180/121 122/183/121
