# Blender v2.78 (sub 0) OBJ File: 'Low_Poly_Trees_Pack.blend'
# www.blender.org
g Palm_Tree_NoLeaves_crk_m_03
v 0.000000 0.000000 -0.223428
v -0.212493 0.000000 -0.069043
v -0.131328 0.000000 0.180757
v 0.131328 0.000000 0.180757
v 0.212493 0.000000 -0.069043
v 0.442909 1.130663 0.123306
v 0.500614 1.127479 -0.055481
v 0.198466 1.144153 -0.055481
v 0.256171 1.140969 0.123306
v 0.349540 1.135816 -0.165977
v 0.550677 2.001222 0.102603
v 0.325578 1.901247 -0.051136
v 0.600071 2.002519 -0.050593
v 0.375894 1.902047 0.104900
v 0.457307 1.903340 -0.147571
v 2.655225 0.272170 0.959082
v 2.618336 0.239728 1.010564
v 2.577653 0.189780 0.980332
v 2.589399 0.191354 0.910166
v 2.637341 0.242274 0.897033
v 1.307814 1.234050 0.595320
v 1.399096 1.308611 0.574825
v 1.354528 1.319780 0.761557
v 1.280270 1.240953 0.710727
v 1.427967 1.361595 0.677565
v 2.783457 0.230768 0.974988
v 2.709432 0.165666 1.078295
v 2.627795 0.065438 1.017630
v 2.651366 0.068596 0.876829
v 2.747569 0.170776 0.850474
v 2.950260 -0.018527 0.994497
v 2.926157 -0.039725 1.028135
v 2.899576 -0.072360 1.008383
v 2.907250 -0.071331 0.962536
v 2.938576 -0.038061 0.953955
v 0.679629 2.159705 -0.109921
v 0.557753 2.036917 0.086863
v 0.702562 2.244367 0.015664
v 1.900712 0.701727 0.831529
v 1.941251 0.766301 0.965123
v 1.972704 0.762058 0.814938
v 1.881273 0.704349 0.924349
v 1.997759 0.801967 0.897504
v 0.610668 2.007565 -0.053478
v 0.594011 2.207198 0.117156
vt 0.4381 0.8827
vt 0.4369 0.9209
vt 0.4310 0.9217
vt 0.4305 0.8845
vt 0.4532 0.8869
vt 0.4486 0.9229
vt 0.4429 0.9215
vt 0.4459 0.8838
vt 0.4253 0.9227
vt 0.4227 0.8868
vt 0.4195 0.9228
vt 0.4146 0.8868
vt 0.4267 0.9496
vt 0.4216 0.9497
vt 0.4414 0.9455
vt 0.4365 0.9451
vt 0.4315 0.9457
vt 0.4460 0.9497
vt 0.4704 0.9234
vt 0.4698 0.8942
vt 0.4723 0.8946
vt 0.4735 0.9237
vt 0.4615 0.9238
vt 0.4625 0.8943
vt 0.4650 0.8940
vt 0.4645 0.9235
vt 0.4675 0.9233
vt 0.4674 0.8941
vt 0.4585 0.9237
vt 0.4600 0.8945
vt 0.4632 0.9901
vt 0.4640 0.9487
vt 0.4676 0.9491
vt 0.4679 0.9906
vt 0.4533 0.9878
vt 0.4568 0.9495
vt 0.4604 0.9490
vt 0.4580 0.9875
vt 0.4712 0.9498
vt 0.4725 0.9911
vt 0.4750 0.9497
vt 0.4769 0.9883
vt 0.4701 0.8902
vt 0.4740 0.8899
vt 0.4622 0.8902
vt 0.4648 0.8905
vt 0.4674 0.8904
vt 0.4584 0.8899
vt 0.4642 0.8832
vt 0.4655 0.8835
vt 0.4668 0.8835
vt 0.4680 0.8832
vt 0.4630 0.8827
vt 0.4692 0.8827
vt 0.4783 0.8998
vt 0.4792 0.9010
vt 0.4783 0.9022
vt 0.4770 0.9017
vt 0.4770 0.9003
vt 0.6730 0.9553
vt 0.6691 0.9524
vt 0.6768 0.9524
vt 0.6706 0.9472
vt 0.6753 0.9472
vt 0.6691 0.9564
vt 0.6697 0.9553
vt 0.6744 0.9561
vt 0.6741 0.9564
vt 0.6785 0.9440
vt 0.6732 0.9471
vt 0.6708 0.9392
vt 0.6771 0.9392
vt 0.6691 0.9440
vn -0.5718 0.2154 -0.7916
vn 0.0012 0.0502 0.9987
vn 0.5811 -0.1386 -0.8020
vn -0.9005 0.3203 0.2942
vn 0.9231 -0.2393 0.3009
vn 0.9458 -0.1095 0.3057
vn -0.9398 0.1556 0.3043
vn 0.5885 -0.0628 -0.8060
vn 0.0005 0.0239 0.9997
vn -0.5859 0.1023 -0.8039
vn -0.0454 -0.2119 -0.9762
vn -0.2983 -0.3054 0.9043
vn 0.5747 0.6571 -0.4878
vn -0.5847 -0.8042 -0.1067
vn 0.4230 0.6029 0.6765
vn 0.3161 0.7207 0.6170
vn -0.6885 -0.7161 -0.1151
vn 0.8313 0.3721 -0.4129
vn -0.6313 0.0277 0.7750
vn 0.2576 -0.4688 -0.8449
vn -0.3427 0.0812 -0.9359
vn -0.5966 0.0002 0.8026
vn 0.3226 0.8130 -0.4847
vn -0.8980 -0.4100 -0.1595
vn 0.1736 0.7723 0.6111
vn -0.1736 -0.4026 0.8988
vn 0.7593 0.4731 -0.4468
vn -0.4527 -0.8865 -0.0957
vn 0.5759 0.4393 0.6895
vn 0.1189 -0.3514 -0.9286
vn 0.7376 -0.6665 0.1085
vn 0.3823 0.6479 0.6588
vn -0.6398 -0.7607 -0.1096
vn 0.7038 0.5315 -0.4713
vn -0.4463 -0.1486 0.8824
vn 0.0682 -0.3403 -0.9378
vn -0.5930 0.7137 -0.3728
vn -0.8852 0.2574 -0.3876
vn -0.9095 0.2392 -0.3399
vn -0.4904 0.8580 -0.1527
vn -0.0159 0.9999 0.0000
s off
f 2/1/1 8/2/1 10/3/1 1/4/1
f 4/5/2 6/6/2 9/7/2 3/8/2
f 1/4/3 10/3/3 7/9/3 5/10/3
f 3/8/4 9/7/4 8/2/4 2/1/4
f 5/10/5 7/9/5 6/11/5 4/12/5
f 7/9/6 13/13/6 11/14/6 6/11/6
f 9/7/7 14/15/7 12/16/7 8/2/7
f 10/3/8 15/17/8 13/13/8 7/9/8
f 6/6/9 11/18/9 14/15/9 9/7/9
f 8/2/10 12/16/10 15/17/10 10/3/10
f 41/19/11 20/20/11 19/21/11 39/22/11
f 42/23/12 18/24/12 17/25/12 40/26/12
f 43/27/13 16/28/13 20/20/13 41/19/13
f 39/29/14 19/30/14 18/24/14 42/23/14
f 40/26/15 17/25/15 16/28/15 43/27/15
f 45/31/16 23/32/16 25/33/16 38/34/16
f 44/35/17 21/36/17 24/37/17 37/38/17
f 38/34/18 25/33/18 22/39/18 36/40/18
f 37/38/19 24/37/19 23/32/19 45/31/19
f 36/40/20 22/39/20 21/41/20 44/42/20
f 20/20/21 30/43/21 29/44/21 19/21/21
f 18/24/22 28/45/22 27/46/22 17/25/22
f 16/28/23 26/47/23 30/43/23 20/20/23
f 19/30/24 29/48/24 28/45/24 18/24/24
f 17/25/25 27/46/25 26/47/25 16/28/25
f 28/45/26 33/49/26 32/50/26 27/46/26
f 26/47/27 31/51/27 35/52/27 30/43/27
f 29/48/28 34/53/28 33/49/28 28/45/28
f 27/46/29 32/50/29 31/51/29 26/47/29
f 30/43/30 35/52/30 34/54/30 29/44/30
f 33/55/31 34/56/31 35/57/31 31/58/31
f 32/59/31 33/55/31 31/58/31
f 23/32/32 40/26/32 43/27/32 25/33/32
f 21/36/33 39/29/33 42/23/33 24/37/33
f 25/33/34 43/27/34 41/19/34 22/39/34
f 24/37/35 42/23/35 40/26/35 23/32/35
f 22/39/36 41/19/36 39/22/36 21/41/36
f 38/60/37 36/61/37 45/62/37
f 36/61/38 44/63/38 37/64/38 45/62/38
f 11/65/39 37/66/39 44/67/39 13/68/39
f 13/69/40 15/70/40 14/71/40 11/72/40
f 14/71/41 15/70/41 12/73/41
