# Blender v2.78 (sub 0) OBJ File: 'Low_Poly_Trees_Pack.blend'
# www.blender.org
g Palm_Tree_crk_l_01
v 1.331226 1.853813 6.246070
v 0.772150 1.780422 6.853483
v 0.050671 0.219565 7.306673
v 1.409381 1.505574 6.974343
v 0.791887 0.721301 7.528196
v 0.130892 1.067680 7.424982
v 0.446202 0.886730 7.571750
v 1.092387 1.673257 6.986606
v 0.388165 1.481885 7.218266
v 1.151430 1.067524 7.408505
v 0.774564 1.289928 7.427149
v -1.985317 0.997632 6.638918
v -1.792286 0.690206 7.290292
v -0.012747 0.195027 7.305435
v -1.461698 1.208491 7.183846
v -0.454276 0.819924 7.482188
v -0.787607 0.240059 7.586544
v -0.595186 0.533105 7.611191
v -1.617112 0.961783 7.303845
v -1.384858 0.472822 7.640888
v -0.996703 1.151130 7.451576
v -1.176211 0.813689 7.658599
v 1.723984 0.669270 5.204316
v 1.597622 0.990699 6.099587
v -0.031680 0.208528 7.296305
v 1.685719 0.132777 5.978072
v 0.771929 -0.142230 7.054038
v 0.683414 0.775594 7.148626
v 0.753364 0.318598 7.191967
v 1.687776 0.565738 6.105765
v 1.216598 0.969775 6.766347
v 1.318059 -0.077882 6.626475
v 1.324667 0.450499 6.781405
v -0.679353 1.194681 5.115750
v -0.981368 1.251171 5.975647
v 0.021280 0.193733 7.269417
v -0.092586 1.418880 5.865605
v 0.292938 1.044680 7.020714
v -0.701494 0.840374 7.119082
v -0.190758 0.950736 7.158792
v -0.529156 1.354129 5.981892
v -0.941207 1.139547 6.646198
v 0.165463 1.349581 6.514894
v -0.378400 1.276306 6.663438
v -2.329522 0.107969 5.287261
v -1.597271 0.034815 5.589780
v 0.096695 0.142060 7.276909
v -1.862333 0.397998 6.197791
v -0.816210 0.459855 7.158482
v -0.580821 0.011968 6.558892
v -0.725719 0.103331 6.928968
v -1.736687 0.269369 5.908985
v -0.990805 0.014790 6.006132
v -1.441803 0.415754 6.755517
v -1.226466 0.189677 6.430892
v 2.430651 0.541489 7.376598
v 1.802651 0.642935 8.041575
v 0.023492 0.207587 7.355072
v 1.789985 0.021974 7.545856
v 0.603013 0.024950 7.780724
v 0.474269 0.654972 7.892924
v 0.494320 0.237209 7.879654
v 1.779041 0.281439 7.839726
v 1.058563 0.775009 8.137799
v 1.211412 0.003646 7.809024
v 1.097079 0.297832 8.009995
v 0.185891 -0.000375 9.885687
v -0.203967 0.275414 9.283587
v 0.067549 0.154033 7.347525
v 0.617535 0.475739 9.259133
v 0.517268 0.615852 7.926006
v -0.349733 0.416425 8.010543
v 0.101103 0.465292 8.017813
v 0.209393 0.360248 9.206656
v -0.363577 0.482791 8.685390
v 0.606481 0.764082 8.599736
v 0.128510 0.587207 8.567543
v -1.717076 0.006459 9.147691
v -1.057005 -0.004058 8.972701
v 0.080856 0.234154 7.298083
v -1.617224 0.008652 8.381235
v -0.689631 0.380003 7.654199
v -0.120008 0.075260 8.133343
v -0.388897 0.309004 7.906060
v -1.363195 0.059085 8.683213
v -0.497297 0.005648 8.595994
v -1.169337 0.051014 7.924585
v -0.857715 0.120500 8.268610
v 1.330762 1.852541 6.245610
v 0.772026 1.779200 6.852751
v 0.051056 0.219870 7.305330
v 1.408799 1.504568 6.973511
v 0.791742 0.721316 7.526773
v 0.131334 1.067304 7.423675
v 0.446404 0.886639 7.570337
v 1.092017 1.672123 6.985817
v 0.388283 1.480972 7.217173
v 1.151030 1.066954 7.407256
v 0.774426 1.289204 7.425924
v -1.984286 0.996853 6.638305
v -1.791341 0.689650 7.289375
v -0.013359 0.195137 7.304148
v -1.460979 1.207596 7.182992
v -0.454776 0.819531 7.480908
v -0.787821 0.240300 7.585151
v -0.595597 0.533055 7.609822
v -1.616272 0.961059 7.302943
v -1.384448 0.472645 7.639530
v -0.996594 1.150390 7.450358
v -1.175994 0.813254 7.657254
v 1.722563 0.669136 5.204243
v 1.596296 0.990410 6.099135
v -0.031885 0.208657 7.294895
v 1.684351 0.132903 5.977675
v 0.771286 -0.141876 7.052811
v 0.682845 0.775396 7.147329
v 0.752828 0.318688 7.190644
v 1.686409 0.565653 6.105356
v 1.215566 0.969526 6.765390
v 1.316966 -0.077621 6.625591
v 1.323597 0.450504 6.780456
v -0.679065 1.193296 5.115956
v -0.981043 1.249779 5.975607
v 0.021180 0.193500 7.268009
v -0.092392 1.417464 5.865572
v 0.292792 1.043742 7.019644
v -0.701226 0.839515 7.117971
v -0.190739 0.949994 7.157570
v -0.528892 1.352724 5.981866
v -0.940881 1.138256 6.645677
v 0.165529 1.348240 6.514401
v -0.378204 1.275000 6.662887
v -2.329200 0.109211 5.286632
v -1.596822 0.036044 5.589204
v 0.096968 0.143229 7.276133
v -1.861880 0.399280 6.197347
v -0.815662 0.460806 7.157566
v -0.580521 0.013339 6.558617
v -0.725309 0.104534 6.928312
v -1.736296 0.270646 5.908474
v -0.990343 0.016092 6.005764
v -1.441195 0.416899 6.754915
v -1.225936 0.190924 6.430435
v 2.429757 0.542202 7.375739
v 1.802155 0.643501 8.040359
v 0.024505 0.207978 7.354141
v 1.789340 0.022844 7.544923
v 0.603437 0.025768 7.779631
v 0.474932 0.655160 7.891671
v 0.495001 0.237705 7.878499
v 1.778448 0.282173 7.838652
v 1.058673 0.775392 8.136426
v 1.211229 0.004493 7.807887
v 1.097099 0.298429 8.008696
v 0.185620 0.000869 9.886338
v -0.204122 0.276714 9.284162
v 0.067208 0.155299 7.346954
v 0.617088 0.476972 9.259702
v 0.516744 0.617133 7.925646
v -0.349937 0.417791 8.010170
v 0.100734 0.466617 8.017419
v 0.209084 0.361519 9.207234
v -0.363791 0.484193 8.685573
v 0.605984 0.765411 8.599912
v 0.128144 0.588584 8.567659
v -1.717012 0.005035 9.147578
v -1.057108 -0.005461 8.972443
v 0.080348 0.232837 7.297853
v -1.616996 0.007242 8.381291
v -0.689479 0.378613 7.653902
v -0.120405 0.073991 8.132818
v -0.389109 0.307644 7.905673
v -1.363114 0.057660 8.683122
v -0.497451 0.004299 8.595545
v -1.169020 0.049629 7.924420
v -0.857624 0.119109 8.268290
v 0.000000 0.000000 -0.302016
v -0.287234 0.000000 -0.093328
v -0.177521 0.000000 0.244336
v 0.177521 0.000000 0.244336
v 0.287234 0.000000 -0.093328
v 0.179013 2.474441 -0.224358
v -0.025200 2.485710 -0.074995
v 0.052803 2.481406 0.166678
v 0.305223 2.467476 0.166678
v 0.383225 2.463171 -0.074995
v 0.071068 0.214720 6.913234
v -0.024225 0.207292 6.924034
v -0.045354 0.114586 6.938581
v 0.036880 0.064719 6.936775
v 0.108832 0.126605 6.921109
v -0.090185 -0.040910 2.478956
v -0.083794 -0.003451 4.805171
v 0.037259 0.103760 4.806680
v 0.099892 0.127348 2.487267
v -0.251409 0.335484 2.463073
v -0.186501 0.235980 4.811079
v -0.222085 0.078265 4.807889
v -0.307301 0.087726 2.464004
v -0.026217 0.251737 4.810332
v 0.000250 0.359972 2.477449
v 0.131247 0.296514 7.065970
v -0.059974 0.281608 7.087638
v -0.102374 0.095578 7.116833
v 0.062643 -0.004491 7.113204
v 0.207029 0.119695 7.081769
v 0.123470 0.261762 7.470720
v 0.061206 0.256908 7.477776
v 0.047400 0.196335 7.487282
v 0.101131 0.163752 7.486102
v 0.148145 0.204188 7.475865
vt 0.6829 0.0079
vt 0.6947 0.0353
vt 0.6829 0.0344
vt 0.6829 0.1070
vt 0.6716 0.0803
vt 0.6829 0.0795
vt 0.6829 0.0581
vt 0.6969 0.0592
vt 0.6689 0.0592
vt 0.6710 0.0353
vt 0.6942 0.0803
vt 0.6829 0.0079
vt 0.6947 0.0353
vt 0.6829 0.0344
vt 0.6829 0.1070
vt 0.6716 0.0803
vt 0.6829 0.0795
vt 0.6829 0.0581
vt 0.6969 0.0592
vt 0.6689 0.0592
vt 0.6710 0.0353
vt 0.6942 0.0803
vt 0.8176 0.0094
vt 0.8295 0.0369
vt 0.8176 0.0359
vt 0.8176 0.1086
vt 0.8063 0.0819
vt 0.8176 0.0810
vt 0.8176 0.0597
vt 0.8316 0.0608
vt 0.8036 0.0608
vt 0.8058 0.0369
vt 0.8289 0.0819
vt 0.8176 0.0094
vt 0.8295 0.0369
vt 0.8176 0.0359
vt 0.8176 0.1086
vt 0.8063 0.0819
vt 0.8176 0.0810
vt 0.8176 0.0597
vt 0.8316 0.0608
vt 0.8036 0.0608
vt 0.8058 0.0369
vt 0.8289 0.0819
vt 0.8176 0.0094
vt 0.8295 0.0369
vt 0.8176 0.0359
vt 0.8176 0.1086
vt 0.8063 0.0819
vt 0.8176 0.0810
vt 0.8176 0.0597
vt 0.8316 0.0608
vt 0.8036 0.0608
vt 0.8058 0.0369
vt 0.8289 0.0819
vt 0.8176 0.0094
vt 0.8295 0.0369
vt 0.8176 0.0359
vt 0.8176 0.1086
vt 0.8063 0.0819
vt 0.8176 0.0810
vt 0.8176 0.0597
vt 0.8316 0.0608
vt 0.8036 0.0608
vt 0.8058 0.0369
vt 0.8289 0.0819
vt 0.8176 0.0094
vt 0.8295 0.0369
vt 0.8176 0.0359
vt 0.8176 0.1086
vt 0.8063 0.0819
vt 0.8176 0.0810
vt 0.8176 0.0597
vt 0.8316 0.0608
vt 0.8036 0.0608
vt 0.8058 0.0369
vt 0.8289 0.0819
vt 0.8176 0.0094
vt 0.8295 0.0369
vt 0.8176 0.0359
vt 0.8176 0.1086
vt 0.8063 0.0819
vt 0.8176 0.0810
vt 0.8176 0.0597
vt 0.8316 0.0608
vt 0.8036 0.0608
vt 0.8058 0.0369
vt 0.8289 0.0819
vt 0.6829 0.0079
vt 0.6829 0.0344
vt 0.6947 0.0353
vt 0.6829 0.1070
vt 0.6829 0.0795
vt 0.6716 0.0803
vt 0.6829 0.0581
vt 0.6969 0.0592
vt 0.6689 0.0592
vt 0.6710 0.0353
vt 0.6942 0.0803
vt 0.6829 0.0079
vt 0.6829 0.0344
vt 0.6947 0.0353
vt 0.6829 0.1070
vt 0.6829 0.0795
vt 0.6716 0.0803
vt 0.6829 0.0581
vt 0.6969 0.0592
vt 0.6689 0.0592
vt 0.6710 0.0353
vt 0.6942 0.0803
vt 0.8176 0.0094
vt 0.8176 0.0359
vt 0.8295 0.0369
vt 0.8176 0.1086
vt 0.8176 0.0810
vt 0.8063 0.0819
vt 0.8176 0.0597
vt 0.8316 0.0608
vt 0.8036 0.0608
vt 0.8058 0.0369
vt 0.8289 0.0819
vt 0.8176 0.0094
vt 0.8176 0.0359
vt 0.8295 0.0369
vt 0.8176 0.1086
vt 0.8176 0.0810
vt 0.8063 0.0819
vt 0.8176 0.0597
vt 0.8316 0.0608
vt 0.8036 0.0608
vt 0.8058 0.0369
vt 0.8289 0.0819
vt 0.8176 0.0094
vt 0.8176 0.0359
vt 0.8295 0.0369
vt 0.8176 0.1086
vt 0.8176 0.0810
vt 0.8063 0.0819
vt 0.8176 0.0597
vt 0.8316 0.0608
vt 0.8036 0.0608
vt 0.8058 0.0369
vt 0.8289 0.0819
vt 0.8176 0.0094
vt 0.8176 0.0359
vt 0.8295 0.0369
vt 0.8176 0.1086
vt 0.8176 0.0810
vt 0.8063 0.0819
vt 0.8176 0.0597
vt 0.8316 0.0608
vt 0.8036 0.0608
vt 0.8058 0.0369
vt 0.8289 0.0819
vt 0.8176 0.0094
vt 0.8176 0.0359
vt 0.8295 0.0369
vt 0.8176 0.1086
vt 0.8176 0.0810
vt 0.8063 0.0819
vt 0.8176 0.0597
vt 0.8316 0.0608
vt 0.8036 0.0608
vt 0.8058 0.0369
vt 0.8289 0.0819
vt 0.8176 0.0094
vt 0.8176 0.0359
vt 0.8295 0.0369
vt 0.8176 0.1086
vt 0.8176 0.0810
vt 0.8063 0.0819
vt 0.8176 0.0597
vt 0.8316 0.0608
vt 0.8036 0.0608
vt 0.8058 0.0369
vt 0.8289 0.0819
vt 0.4113 0.9265
vt 0.4103 0.9758
vt 0.4053 0.9759
vt 0.4043 0.9269
vt 0.4253 0.9279
vt 0.4203 0.9765
vt 0.4153 0.9761
vt 0.4183 0.9269
vt 0.4003 0.9762
vt 0.3973 0.9276
vt 0.3953 0.9765
vt 0.3903 0.9279
vt 0.4462 0.9064
vt 0.4003 0.9052
vt 0.4005 0.9031
vt 0.4463 0.9033
vt 0.4457 0.9159
vt 0.3998 0.9115
vt 0.3998 0.9094
vt 0.4460 0.9128
vt 0.4461 0.9096
vt 0.4002 0.9073
vt 0.4453 0.9191
vt 0.3998 0.9136
vt 0.4919 0.9165
vt 0.4919 0.9116
vt 0.4903 0.9264
vt 0.4913 0.9215
vt 0.4918 0.9067
vt 0.4918 0.9017
vt 0.3968 0.9049
vt 0.3966 0.9017
vt 0.3965 0.9115
vt 0.3968 0.9093
vt 0.3969 0.9072
vt 0.3959 0.9146
vt 0.3908 0.9095
vt 0.3911 0.9085
vt 0.3912 0.9074
vt 0.3910 0.9064
vt 0.3903 0.9104
vt 0.3906 0.9054
vt 0.4417 0.9681
vt 0.4424 0.9671
vt 0.4436 0.9675
vt 0.4436 0.9687
vt 0.4424 0.9691
vt 0.6876 0.9663
vt 0.6826 0.9663
vt 0.6811 0.9615
vt 0.6851 0.9586
vt 0.6892 0.9615
vt 0.6973 0.9634
vt 0.6908 0.9586
vt 0.6958 0.9586
vt 0.6933 0.9663
vt 0.6893 0.9634
vn -0.0468 -0.3447 0.9375
vn 0.1928 0.9372 0.2907
vn 0.1785 0.1774 0.9678
vn -0.1723 0.4906 0.8542
vn -0.4581 -0.0802 0.8853
vn 0.4492 0.8238 0.3457
vn 0.0072 0.7600 0.6498
vn 0.3475 0.5585 0.7532
vn 0.5176 0.1263 0.8463
vn -0.7617 0.4690 0.4471
vn 0.2171 0.3739 0.9017
vn 0.0446 -0.0947 0.9945
vn 0.3127 -0.2816 0.9071
vn -0.6716 0.6202 0.4053
vn -0.5332 0.2936 0.7934
vn -0.3543 0.6032 0.7146
vn 0.1646 -0.2767 0.9467
vn 0.9761 0.2080 0.0631
vn 0.6098 -0.2182 0.7619
vn 0.5472 0.1490 0.8236
vn 0.1156 0.1113 0.9870
vn 0.9991 -0.0160 0.0383
vn 0.8505 0.1896 0.4907
vn 0.8810 -0.1407 0.4516
vn 0.2319 0.2039 0.9511
vn -0.2180 0.9659 -0.1400
vn 0.0101 0.8476 0.5306
vn -0.2103 0.7766 0.5939
vn -0.1019 0.1159 0.9880
vn -0.1834 0.9720 -0.1471
vn -0.2303 0.9587 0.1668
vn -0.1009 0.9850 0.1399
vn -0.2975 -0.5690 0.7666
vn -0.2829 -0.8277 0.4846
vn -0.4442 -0.7288 0.5211
vn -0.2933 -0.9400 0.1744
vn -0.0479 -0.9739 0.2217
vn -0.1238 -0.9254 0.3583
vn -0.3431 -0.8852 0.3142
vn -0.3918 -0.8740 0.2876
vn -0.5957 -0.5692 0.5668
vn 0.6314 -0.4091 0.6587
vn -0.0924 -0.5372 0.8384
vn -0.2739 -0.1672 0.9471
vn -0.7414 -0.0568 0.6686
vn 0.6127 -0.5810 0.5358
vn 0.1350 -0.3604 0.9230
vn 0.2583 -0.6106 0.7486
vn 0.3873 -0.8435 0.3723
vn 0.0943 -0.8806 -0.4644
vn 0.3488 -0.9216 0.1702
vn 0.1755 -0.9733 0.1477
vn 0.0914 -0.9049 0.4156
vn 0.2964 -0.8477 -0.4399
vn 0.1191 -0.9294 -0.3494
vn 0.3228 -0.8717 -0.3688
vn 0.2016 0.9788 0.0352
vn 0.0568 0.9863 0.1550
vn -0.2926 0.9070 0.3030
vn 0.1315 0.8997 0.4162
vn 0.4878 0.8285 0.2749
vn -0.1722 0.9849 -0.0196
vn 0.0800 0.9774 0.1956
vn -0.1527 0.9870 -0.0495
vn 0.0468 0.3448 -0.9375
vn -0.1928 -0.9372 -0.2906
vn -0.1786 -0.1773 -0.9678
vn 0.1723 -0.4907 -0.8541
vn 0.4581 0.0802 -0.8853
vn -0.4492 -0.8239 -0.3457
vn -0.0072 -0.7601 -0.6498
vn -0.3476 -0.5584 -0.7532
vn -0.5176 -0.1264 -0.8462
vn 0.7617 -0.4690 -0.4470
vn -0.2172 -0.3740 -0.9016
vn -0.0447 0.0949 -0.9945
vn -0.3127 0.2818 -0.9071
vn 0.6716 -0.6202 -0.4053
vn 0.5333 -0.2936 -0.7934
vn 0.3543 -0.6033 -0.7145
vn -0.1646 0.2767 -0.9467
vn -0.9761 -0.2080 -0.0630
vn -0.6098 0.2183 -0.7619
vn -0.5472 -0.1491 -0.8236
vn -0.1155 -0.1113 -0.9870
vn -0.9991 0.0160 -0.0382
vn -0.8505 -0.1896 -0.4907
vn -0.8810 0.1408 -0.4516
vn -0.2318 -0.2038 -0.9512
vn 0.2180 -0.9659 0.1400
vn -0.0101 -0.8477 -0.5305
vn 0.2103 -0.7766 -0.5938
vn 0.1017 -0.1158 -0.9881
vn 0.1834 -0.9720 0.1472
vn 0.2303 -0.9587 -0.1668
vn 0.1009 -0.9850 -0.1398
vn 0.2976 0.5688 -0.7667
vn 0.2829 0.8277 -0.4846
vn 0.4442 0.7288 -0.5211
vn 0.2933 0.9400 -0.1744
vn 0.0479 0.9740 -0.2215
vn 0.1238 0.9254 -0.3583
vn 0.3431 0.8852 -0.3142
vn 0.3917 0.8740 -0.2876
vn 0.5957 0.5692 -0.5668
vn -0.6315 0.4091 -0.6587
vn 0.0923 0.5372 -0.8384
vn 0.2740 0.1671 -0.9471
vn 0.7415 0.0567 -0.6685
vn -0.6127 0.5810 -0.5357
vn -0.1349 0.3604 -0.9230
vn -0.2584 0.6107 -0.7485
vn -0.3873 0.8435 -0.3723
vn -0.0943 0.8806 0.4644
vn -0.3488 0.9216 -0.1702
vn -0.1755 0.9733 -0.1477
vn -0.0914 0.9049 -0.4156
vn -0.2964 0.8477 0.4399
vn -0.1191 0.9294 0.3493
vn -0.3229 0.8717 0.3687
vn -0.2017 -0.9788 -0.0353
vn -0.0568 -0.9863 -0.1551
vn 0.2928 -0.9069 -0.3029
vn -0.1316 -0.8997 -0.4163
vn -0.4880 -0.8284 -0.2749
vn 0.1722 -0.9849 0.0196
vn -0.0800 -0.9774 -0.1956
vn 0.1528 -0.9870 0.0495
vn -0.5865 0.0678 -0.8071
vn 0.0007 0.0313 0.9995
vn 0.5885 -0.0171 -0.8083
vn -0.9466 0.0975 0.3074
vn 0.9505 -0.0394 0.3083
vn 0.6584 -0.7526 -0.0137
vn -0.9716 0.2236 0.0772
vn 0.9187 0.3933 -0.0355
vn -0.5107 -0.8579 0.0567
vn -0.0894 0.9958 0.0210
vn -0.0986 0.9941 0.0449
vn -0.5097 -0.8602 0.0152
vn 0.9186 0.3942 0.0288
vn -0.9749 0.2197 0.0363
vn 0.6627 -0.7488 0.0103
vn 0.5572 -0.7421 -0.3725
vn -0.9436 0.1706 -0.2837
vn 0.8179 0.3070 -0.4867
vn -0.5061 -0.8255 -0.2499
vn -0.1186 0.8940 -0.4320
vn -0.9183 0.2566 0.3015
vn 0.9162 0.3973 0.0517
vn -0.4680 -0.7864 0.4031
vn -0.0680 0.9941 0.0841
vn 0.6621 -0.7064 0.2504
vn 0.1015 0.1316 0.9861
vn 0.0587 -0.0170 -0.9981
vn 0.0551 0.9985 0.0000
s off
f 3/1/1 5/2/1 7/3/1
f 1/4/2 2/5/2 8/6/2
f 11/7/3 7/3/3 5/2/3 10/8/3
f 9/9/4 6/10/4 7/3/4 11/7/4
f 6/10/5 3/1/5 7/3/5
f 4/11/6 1/4/6 8/6/6
f 2/5/7 9/9/7 11/7/7 8/6/7
f 8/6/8 11/7/8 10/8/8 4/11/8
f 14/12/9 16/13/9 18/14/9
f 12/15/10 13/16/10 19/17/10
f 22/18/11 18/14/11 16/13/11 21/19/11
f 20/20/12 17/21/12 18/14/12 22/18/12
f 17/21/13 14/12/13 18/14/13
f 15/22/14 12/15/14 19/17/14
f 13/16/15 20/20/15 22/18/15 19/17/15
f 19/17/16 22/18/16 21/19/16 15/22/16
f 25/23/17 27/24/17 29/25/17
f 23/26/18 24/27/18 30/28/18
f 33/29/19 29/25/19 27/24/19 32/30/19
f 31/31/20 28/32/20 29/25/20 33/29/20
f 28/32/21 25/23/21 29/25/21
f 26/33/22 23/26/22 30/28/22
f 24/27/23 31/31/23 33/29/23 30/28/23
f 30/28/24 33/29/24 32/30/24 26/33/24
f 36/34/25 38/35/25 40/36/25
f 34/37/26 35/38/26 41/39/26
f 44/40/27 40/36/27 38/35/27 43/41/27
f 42/42/28 39/43/28 40/36/28 44/40/28
f 39/43/29 36/34/29 40/36/29
f 37/44/30 34/37/30 41/39/30
f 35/38/31 42/42/31 44/40/31 41/39/31
f 41/39/32 44/40/32 43/41/32 37/44/32
f 47/45/33 49/46/33 51/47/33
f 45/48/34 46/49/34 52/50/34
f 55/51/35 51/47/35 49/46/35 54/52/35
f 53/53/36 50/54/36 51/47/36 55/51/36
f 50/54/37 47/45/37 51/47/37
f 48/55/38 45/48/38 52/50/38
f 46/49/39 53/53/39 55/51/39 52/50/39
f 52/50/40 55/51/40 54/52/40 48/55/40
f 58/56/41 60/57/41 62/58/41
f 56/59/42 57/60/42 63/61/42
f 66/62/43 62/58/43 60/57/43 65/63/43
f 64/64/44 61/65/44 62/58/44 66/62/44
f 61/65/45 58/56/45 62/58/45
f 59/66/46 56/59/46 63/61/46
f 57/60/47 64/64/47 66/62/47 63/61/47
f 63/61/48 66/62/48 65/63/48 59/66/48
f 69/67/49 71/68/49 73/69/49
f 67/70/50 68/71/50 74/72/50
f 77/73/51 73/69/51 71/68/51 76/74/51
f 75/75/52 72/76/52 73/69/52 77/73/52
f 72/76/53 69/67/53 73/69/53
f 70/77/54 67/70/54 74/72/54
f 68/71/55 75/75/55 77/73/55 74/72/55
f 74/72/56 77/73/56 76/74/56 70/77/56
f 80/78/57 82/79/57 84/80/57
f 78/81/58 79/82/58 85/83/58
f 88/84/59 84/80/59 82/79/59 87/85/59
f 86/86/60 83/87/60 84/80/60 88/84/60
f 83/87/61 80/78/61 84/80/61
f 81/88/62 78/81/62 85/83/62
f 79/82/63 86/86/63 88/84/63 85/83/63
f 85/83/64 88/84/64 87/85/64 81/88/64
f 91/89/65 95/90/65 93/91/65
f 89/92/66 96/93/66 90/94/66
f 99/95/67 98/96/67 93/91/67 95/90/67
f 97/97/68 99/95/68 95/90/68 94/98/68
f 94/98/69 95/90/69 91/89/69
f 92/99/70 96/93/70 89/92/70
f 90/94/71 96/93/71 99/95/71 97/97/71
f 96/93/72 92/99/72 98/96/72 99/95/72
f 102/100/73 106/101/73 104/102/73
f 100/103/74 107/104/74 101/105/74
f 110/106/75 109/107/75 104/102/75 106/101/75
f 108/108/76 110/106/76 106/101/76 105/109/76
f 105/109/77 106/101/77 102/100/77
f 103/110/78 107/104/78 100/103/78
f 101/105/79 107/104/79 110/106/79 108/108/79
f 107/104/80 103/110/80 109/107/80 110/106/80
f 113/111/81 117/112/81 115/113/81
f 111/114/82 118/115/82 112/116/82
f 121/117/83 120/118/83 115/113/83 117/112/83
f 119/119/84 121/117/84 117/112/84 116/120/84
f 116/120/85 117/112/85 113/111/85
f 114/121/86 118/115/86 111/114/86
f 112/116/87 118/115/87 121/117/87 119/119/87
f 118/115/88 114/121/88 120/118/88 121/117/88
f 124/122/89 128/123/89 126/124/89
f 122/125/90 129/126/90 123/127/90
f 132/128/91 131/129/91 126/124/91 128/123/91
f 130/130/92 132/128/92 128/123/92 127/131/92
f 127/131/93 128/123/93 124/122/93
f 125/132/94 129/126/94 122/125/94
f 123/127/95 129/126/95 132/128/95 130/130/95
f 129/126/96 125/132/96 131/129/96 132/128/96
f 135/133/97 139/134/97 137/135/97
f 133/136/98 140/137/98 134/138/98
f 143/139/99 142/140/99 137/135/99 139/134/99
f 141/141/100 143/139/100 139/134/100 138/142/100
f 138/142/101 139/134/101 135/133/101
f 136/143/102 140/137/102 133/136/102
f 134/138/103 140/137/103 143/139/103 141/141/103
f 140/137/104 136/143/104 142/140/104 143/139/104
f 146/144/105 150/145/105 148/146/105
f 144/147/106 151/148/106 145/149/106
f 154/150/107 153/151/107 148/146/107 150/145/107
f 152/152/108 154/150/108 150/145/108 149/153/108
f 149/153/109 150/145/109 146/144/109
f 147/154/110 151/148/110 144/147/110
f 145/149/111 151/148/111 154/150/111 152/152/111
f 151/148/112 147/154/112 153/151/112 154/150/112
f 157/155/113 161/156/113 159/157/113
f 155/158/114 162/159/114 156/160/114
f 165/161/115 164/162/115 159/157/115 161/156/115
f 163/163/116 165/161/116 161/156/116 160/164/116
f 160/164/117 161/156/117 157/155/117
f 158/165/118 162/159/118 155/158/118
f 156/160/119 162/159/119 165/161/119 163/163/119
f 162/159/120 158/165/120 164/162/120 165/161/120
f 168/166/121 172/167/121 170/168/121
f 166/169/122 173/170/122 167/171/122
f 176/172/123 175/173/123 170/168/123 172/167/123
f 174/174/124 176/172/124 172/167/124 171/175/124
f 171/175/125 172/167/125 168/166/125
f 169/176/126 173/170/126 166/169/126
f 167/171/127 173/170/127 176/172/127 174/174/127
f 173/170/128 169/176/128 175/173/128 176/172/128
f 178/177/129 183/178/129 182/179/129 177/180/129
f 180/181/130 185/182/130 184/183/130 179/184/130
f 177/180/131 182/179/131 186/185/131 181/186/131
f 179/184/132 184/183/132 183/178/132 178/177/132
f 181/186/133 186/185/133 185/187/133 180/188/133
f 194/189/134 191/190/134 190/191/134 193/192/134
f 198/193/135 189/194/135 188/195/135 197/196/135
f 200/197/136 187/198/136 191/190/136 194/189/136
f 193/199/137 190/200/137 189/194/137 198/193/137
f 197/196/138 188/195/138 187/198/138 200/197/138
f 196/201/139 197/196/139 200/197/139 201/202/139
f 192/203/140 193/199/140 198/193/140 199/204/140
f 201/202/141 200/197/141 194/189/141 195/205/141
f 199/204/142 198/193/142 197/196/142 196/201/142
f 195/205/143 194/189/143 193/192/143 192/206/143
f 191/190/144 206/207/144 205/208/144 190/191/144
f 189/194/145 204/209/145 203/210/145 188/195/145
f 187/198/146 202/211/146 206/207/146 191/190/146
f 190/200/147 205/212/147 204/209/147 189/194/147
f 188/195/148 203/210/148 202/211/148 187/198/148
f 204/209/149 209/213/149 208/214/149 203/210/149
f 202/211/150 207/215/150 211/216/150 206/207/150
f 205/212/151 210/217/151 209/213/151 204/209/151
f 203/210/152 208/214/152 207/215/152 202/211/152
f 206/207/153 211/216/153 210/218/153 205/208/153
f 209/219/154 210/220/154 211/221/154 207/222/154
f 208/223/154 209/219/154 207/222/154
f 195/224/155 192/225/155 199/226/155 196/227/155
f 201/228/155 195/224/155 196/227/155
f 186/229/156 184/230/156 185/231/156
f 182/232/156 183/233/156 184/230/156 186/229/156
