# Blender v2.78 (sub 0) OBJ File: 'Low_Poly_Trees_Pack.blend'
# www.blender.org
g Palm_Tree_NoLeaves_crk_m_04
v 0.000000 0.000000 -0.209088
v -0.198855 0.000000 -0.064612
v -0.122899 0.000000 0.169156
v 0.122899 0.000000 0.169156
v 0.198855 0.000000 -0.064612
v 4.412878 0.106146 -0.482422
v 4.367192 0.148885 -0.505241
v 4.386078 0.210362 -0.487965
v 4.443438 0.205618 -0.454468
v 4.460001 0.141209 -0.451042
v 0.212886 0.531638 0.115392
v 3.486266 0.163632 0.156691
v 3.503160 0.056346 0.172855
v 0.265032 0.517294 -0.051920
v -0.008012 0.592403 -0.051920
v 3.404660 0.074062 0.028362
v 3.425391 0.174581 0.067390
v 0.044135 0.578058 0.115392
v 3.452725 0.000989 0.093544
v 0.128510 0.554848 -0.155325
v 4.473780 0.070385 -0.585085
v 4.381426 0.155801 -0.630166
v 4.418415 0.279180 -0.594577
v 4.533628 0.270016 -0.527500
v 4.567844 0.140974 -0.521633
v 4.614853 0.165058 -0.809277
v 4.584781 0.192870 -0.823955
v 4.596827 0.233044 -0.812367
v 4.634340 0.230060 -0.790526
v 4.645481 0.188042 -0.788617
v 0.442223 0.891037 0.090812
v 0.468390 0.855421 -0.046118
v 0.331375 1.041912 -0.046118
v 0.357543 1.006296 0.090812
v 0.399883 0.948667 -0.130745
v 1.111866 1.129915 0.115404
v 1.007541 1.259276 -0.006335
v 1.136494 1.099376 -0.006335
v 1.032168 1.228738 0.115404
v 1.072017 1.179326 -0.081573
v 4.118469 0.157602 -0.039661
v 4.022949 0.082404 -0.116962
v 4.139092 0.071009 -0.032892
v 4.046689 0.164644 -0.091618
v 4.080057 0.024534 -0.080667
v 2.360476 1.367462 0.082124
v 2.250579 1.476481 -0.032019
v 2.647782 0.080742 0.167044
v 2.583827 0.210696 0.040502
v 2.605666 0.020839 0.073409
v 2.386420 1.341726 -0.032019
v 2.634284 0.198080 0.146706
v 2.276522 1.450745 0.082124
v 2.566140 0.101156 -0.004797
v 2.318499 1.409104 -0.102563
vt 0.4196 0.9420
vt 0.4193 0.9606
vt 0.4170 0.9604
vt 0.4165 0.9418
vt 0.4287 0.9409
vt 0.4269 0.9608
vt 0.4244 0.9606
vt 0.4255 0.9403
vt 0.4225 0.9411
vt 0.4219 0.9608
vt 0.4313 0.9423
vt 0.4294 0.9609
vt 0.4616 0.8871
vt 0.4593 0.9092
vt 0.4531 0.9097
vt 0.4520 0.8886
vt 0.4268 0.8871
vt 0.4263 0.9166
vt 0.4228 0.9180
vt 0.4232 0.8885
vt 0.4791 0.8945
vt 0.4708 0.9132
vt 0.4652 0.9105
vt 0.4710 0.8894
vt 0.4342 0.8896
vt 0.4331 0.9191
vt 0.4300 0.9172
vt 0.4307 0.8877
vt 0.4468 0.9109
vt 0.4432 0.8913
vt 0.4193 0.9194
vt 0.4193 0.8899
vt 0.4403 0.9120
vt 0.4342 0.8928
vt 0.4156 0.9189
vt 0.4152 0.8893
vt 0.4189 0.9645
vt 0.4152 0.9647
vt 0.4268 0.9650
vt 0.4242 0.9645
vt 0.4216 0.9644
vt 0.4305 0.9657
vt 0.4242 0.9716
vt 0.4230 0.9713
vt 0.4218 0.9712
vt 0.4206 0.9714
vt 0.4254 0.9722
vt 0.4194 0.9718
vt 0.4129 0.9010
vt 0.4138 0.8998
vt 0.4152 0.9003
vt 0.4152 0.9018
vt 0.4138 0.9022
vt 0.4486 0.9259
vt 0.4437 0.9266
vt 0.4618 0.9270
vt 0.4576 0.9263
vt 0.4533 0.9260
vt 0.4662 0.9275
vt 0.4484 0.9503
vt 0.4444 0.9498
vt 0.4603 0.9486
vt 0.4562 0.9478
vt 0.4522 0.9490
vt 0.4639 0.9505
vt 0.4474 0.9918
vt 0.4437 0.9909
vt 0.4581 0.9894
vt 0.4542 0.9886
vt 0.4508 0.9902
vt 0.4612 0.9918
vt 0.6865 0.9495
vt 0.6865 0.9455
vt 0.6903 0.9442
vt 0.6903 0.9507
vt 0.6927 0.9475
vt 0.6862 0.9418
vt 0.6874 0.9380
vt 0.6915 0.9380
vt 0.6894 0.9442
vt 0.6927 0.9418
vn 0.7537 0.2272 0.6167
vn -0.7225 0.3847 -0.5745
vn 0.4812 -0.8467 0.2269
vn 0.0095 0.9924 0.1225
vn -0.4333 -0.7427 -0.5106
vn -0.5670 0.2041 -0.7980
vn 0.0042 -0.6816 -0.7317
vn 0.0105 0.0940 0.9955
vn 0.0393 0.9945 0.0975
vn 0.5893 -0.0571 -0.8059
vn -0.0300 -0.8243 0.5654
vn -0.9090 0.2885 0.3007
vn 0.0470 0.3647 -0.9299
vn 0.9434 -0.1285 0.3059
vn -0.0036 0.1599 0.9871
vn 0.5383 0.1808 0.8231
vn -0.9462 0.3113 -0.0885
vn 0.3050 -0.8287 0.4692
vn -0.2135 0.8488 0.4838
vn -0.6442 -0.7558 -0.1169
vn -0.6727 0.3841 -0.6324
vn 0.5877 -0.8086 0.0283
vn 0.1354 0.9859 -0.0979
vn -0.3997 -0.7269 -0.5585
vn 0.9150 0.2568 0.3113
vn 0.5065 0.0954 -0.8569
vn 0.5065 0.0953 -0.8570
vn 0.8163 -0.4985 0.2920
vn -0.7646 0.5749 0.2912
vn 0.5279 -0.3095 -0.7909
vn 0.0276 0.0433 0.9987
vn -0.4830 0.3782 -0.7897
vn 0.3122 -0.9039 0.2925
vn -0.3086 0.9052 0.2921
vn 0.2471 -0.5480 -0.7992
vn -0.0289 -0.0222 0.9993
vn -0.1498 0.6060 -0.7812
vn -0.1649 -0.6835 -0.7111
vn 0.0384 0.9951 0.0907
vn 0.1804 -0.8376 0.5157
vn -0.2209 0.3714 -0.9018
vn 0.2969 0.1686 0.9399
vn 0.1879 -0.9455 0.2659
vn -0.1618 0.9515 0.2617
vn 0.1085 -0.6482 -0.7537
vn 0.0229 0.0206 0.9995
vn -0.1286 0.6368 -0.7603
vn -0.9042 -0.0302 0.4260
vn 0.7043 0.7099 0.0000
s off
f 43/1/1 10/2/1 9/3/1 41/4/1
f 44/5/2 8/6/2 7/7/2 42/8/2
f 45/9/3 6/10/3 10/2/3 43/1/3
f 41/11/4 9/12/4 8/6/4 44/5/4
f 42/8/5 7/7/5 6/10/5 45/9/5
f 2/13/6 15/14/6 20/15/6 1/16/6
f 54/17/7 16/18/7 19/19/7 50/20/7
f 4/21/8 11/22/8 18/23/8 3/24/8
f 52/25/9 12/26/9 17/27/9 49/28/9
f 1/16/10 20/15/10 14/29/10 5/30/10
f 50/20/11 19/19/11 13/31/11 48/32/11
f 3/24/12 18/23/12 15/14/12 2/13/12
f 49/28/13 17/27/13 16/18/13 54/17/13
f 5/30/14 14/29/14 11/33/14 4/34/14
f 48/32/15 13/31/15 12/35/15 52/36/15
f 10/2/16 25/37/16 24/38/16 9/3/16
f 8/6/17 23/39/17 22/40/17 7/7/17
f 6/10/18 21/41/18 25/37/18 10/2/18
f 9/12/19 24/42/19 23/39/19 8/6/19
f 7/7/20 22/40/20 21/41/20 6/10/20
f 23/39/21 28/43/21 27/44/21 22/40/21
f 21/41/22 26/45/22 30/46/22 25/37/22
f 24/42/23 29/47/23 28/43/23 23/39/23
f 22/40/24 27/44/24 26/45/24 21/41/24
f 25/37/25 30/46/25 29/48/25 24/38/25
f 28/49/26 29/50/26 30/51/26 26/52/26
f 27/53/27 28/49/27 26/52/27
f 14/29/28 32/54/28 31/55/28 11/33/28
f 18/23/29 34/56/29 33/57/29 15/14/29
f 20/15/30 35/58/30 32/54/30 14/29/30
f 11/22/31 31/59/31 34/56/31 18/23/31
f 15/14/32 33/57/32 35/58/32 20/15/32
f 32/54/33 38/60/33 36/61/33 31/55/33
f 34/56/34 39/62/34 37/63/34 33/57/34
f 35/58/35 40/64/35 38/60/35 32/54/35
f 31/59/36 36/65/36 39/62/36 34/56/36
f 33/57/37 37/63/37 40/64/37 35/58/37
f 16/18/38 42/8/38 45/9/38 19/19/38
f 12/26/39 41/11/39 44/5/39 17/27/39
f 19/19/40 45/9/40 43/1/40 13/31/40
f 17/27/41 44/5/41 42/8/41 16/18/41
f 13/31/42 43/1/42 41/4/42 12/35/42
f 38/60/43 51/66/43 46/67/43 36/61/43
f 39/62/44 53/68/44 47/69/44 37/63/44
f 40/64/45 55/70/45 51/66/45 38/60/45
f 36/65/46 46/71/46 53/68/46 39/62/46
f 37/63/47 47/69/47 55/70/47 40/64/47
f 52/72/48 49/73/48 54/74/48
f 48/75/48 52/72/48 54/74/48 50/76/48
f 55/77/49 47/78/49 53/79/49
f 51/80/49 55/77/49 53/79/49 46/81/49
