# Blender v2.78 (sub 0) OBJ File: 'Low_Poly_Trees_Pack.blend'
# www.blender.org
g Palm_Tree_m_04
v 1.824905 4.456377 1.259166
v 1.863761 4.898209 0.813232
v 0.599213 5.362010 0.026435
v 1.553487 4.994787 1.250700
v 0.871859 5.501791 0.611925
v 1.229373 5.400268 0.179102
v 1.050476 5.506273 0.378671
v 1.726102 4.993607 1.031180
v 1.667520 5.265386 0.516709
v 1.258425 5.381556 1.011978
v 1.472523 5.384699 0.754193
v 1.766591 4.483716 -1.157252
v 1.380516 4.987574 -1.170676
v 0.612592 5.340413 -0.024946
v 1.779712 5.001680 -0.790308
v 1.237808 5.446239 -0.269272
v 0.815361 5.458344 -0.662729
v 1.018631 5.510596 -0.455667
v 1.587736 5.045150 -0.990365
v 1.064694 5.316114 -0.930549
v 1.542890 5.333011 -0.474908
v 1.313316 5.387693 -0.715065
v -0.833217 5.013611 -1.056482
v -0.683117 5.460650 -0.682320
v 0.561793 5.343953 -0.016374
v -0.363778 5.389678 -1.080405
v 0.345305 5.527937 -0.571918
v 0.011003 5.602234 -0.155180
v 0.200835 5.614186 -0.354108
v -0.510557 5.471156 -0.879222
v -0.389263 5.681827 -0.420037
v -0.006729 5.596809 -0.896902
v -0.181890 5.696788 -0.655795
v -0.607809 4.900209 1.236595
v -0.225365 5.362018 1.183305
v 0.632097 5.338500 0.014492
v -0.577894 5.323388 0.809518
v 0.046210 5.568471 0.171963
v 0.415258 5.608912 0.563265
v 0.242145 5.639939 0.351556
v -0.398658 5.389802 0.988741
v 0.068534 5.613866 0.950371
v -0.353760 5.567591 0.502614
v -0.138901 5.649581 0.716909
v 0.308037 3.717449 1.384975
v 0.818059 4.242177 1.237832
v 0.524286 5.288473 0.001622
v 0.039909 4.378054 1.277584
v 0.112201 5.118880 0.635762
v 0.926813 4.976638 0.594149
v 0.534059 5.108078 0.633443
v 0.441441 4.358237 1.284340
v 0.970190 4.674191 0.917126
v 0.038047 4.836957 0.964744
v 0.519684 4.815703 0.974212
v 1.795866 3.635907 -0.184567
v 1.807805 4.329225 -0.425455
v 0.549713 5.339177 -0.031168
v 1.712125 4.223665 0.269938
v 1.064736 5.090978 0.365543
v 1.161263 5.184726 -0.365271
v 1.134783 5.200960 0.012951
v 1.795366 4.321981 -0.064359
v 1.561091 4.859822 -0.442261
v 1.446476 4.733373 0.390748
v 1.548018 4.853497 -0.009014
v 0.139216 3.778237 -1.458229
v -0.054979 4.500058 -1.359462
v 0.533452 5.313318 -0.011979
v 0.684527 4.347048 -1.342140
v 0.923129 5.137754 -0.683520
v 0.146373 5.285734 -0.691131
v 0.552175 5.277844 -0.683955
v 0.330816 4.478241 -1.368297
v -0.009757 4.982747 -1.082252
v 0.876094 4.799457 -1.061502
v 0.453214 4.959437 -1.093738
v -1.324683 4.091901 -0.057102
v -1.090269 4.698036 0.275417
v 0.562499 5.297256 -0.010464
v -1.012864 4.646884 -0.416329
v -0.078587 5.287753 -0.431975
v -0.162427 5.306837 0.293592
v -0.114628 5.364172 -0.069423
v -1.066696 4.728745 -0.075274
v -0.669502 5.084743 0.356166
v -0.576779 5.023468 -0.472474
v -0.642045 5.124435 -0.064175
v 1.824727 4.456298 1.259056
v 1.863581 4.898097 0.813161
v 0.599231 5.361797 0.026500
v 1.553342 4.994661 1.250584
v 0.871855 5.501568 0.611917
v 1.229315 5.400060 0.179160
v 1.050454 5.506053 0.378705
v 1.725937 4.993489 1.031086
v 1.667385 5.265208 0.516693
v 1.258340 5.381362 1.011907
v 1.472417 5.384507 0.754153
v 1.766452 4.483627 -1.157102
v 1.380422 4.987440 -1.170524
v 0.612630 5.340198 -0.024994
v 1.779570 5.001544 -0.790201
v 1.237764 5.446021 -0.269292
v 0.815378 5.458127 -0.662684
v 1.018629 5.510373 -0.455666
v 1.587616 5.045016 -0.990234
v 1.064648 5.315925 -0.930439
v 1.542788 5.332819 -0.474855
v 1.313242 5.387498 -0.714985
v -0.833092 5.013475 -1.056358
v -0.683005 5.460477 -0.682232
v 0.561691 5.343760 -0.016421
v -0.363697 5.389512 -1.080278
v 0.345210 5.527736 -0.571902
v 0.010961 5.602022 -0.155232
v 0.200759 5.613977 -0.354132
v -0.510460 5.470985 -0.879114
v -0.389225 5.681608 -0.420018
v -0.006739 5.596601 -0.896823
v -0.181880 5.696569 -0.655749
v -0.607667 4.900086 1.236474
v -0.225260 5.361858 1.183188
v 0.632025 5.338308 0.014580
v -0.577755 5.323232 0.809437
v 0.046216 5.568262 0.172040
v 0.415204 5.608696 0.563278
v 0.242112 5.639725 0.351609
v -0.398536 5.389644 0.988642
v 0.068567 5.613654 0.950309
v -0.353675 5.567384 0.502607
v -0.138845 5.649367 0.716878
v 0.308021 3.717417 1.384754
v 0.818008 4.242096 1.237630
v 0.524246 5.288262 0.001562
v 0.039909 4.377964 1.277379
v 0.112196 5.118691 0.635645
v 0.926742 4.976459 0.594036
v 0.534020 5.107884 0.633339
v 0.441416 4.358156 1.284133
v 0.970126 4.674054 0.916962
v 0.038044 4.836809 0.964577
v 0.519649 4.815558 0.974046
v 1.795645 3.635912 -0.184596
v 1.807589 4.329170 -0.425463
v 0.549664 5.338962 -0.031203
v 1.711916 4.223620 0.269872
v 1.064631 5.090797 0.365464
v 1.161150 5.184533 -0.365272
v 1.134685 5.200764 0.012911
v 1.795151 4.321935 -0.064396
v 1.560912 4.859688 -0.442268
v 1.446306 4.733251 0.390670
v 1.547843 4.853365 -0.009056
v 0.139206 3.778212 -1.458007
v -0.054978 4.499982 -1.359252
v 0.533411 5.313099 -0.011968
v 0.684486 4.346980 -1.341931
v 0.923055 5.137568 -0.683421
v 0.146368 5.285533 -0.691033
v 0.552132 5.277639 -0.683877
v 0.330797 4.478171 -1.368086
v -0.009760 4.982604 -1.082080
v 0.876035 4.799327 -1.061330
v 0.453182 4.959297 -1.093568
v -1.324477 4.091819 -0.057073
v -1.090089 4.697904 0.275417
v 0.562477 5.297034 -0.010460
v -1.012691 4.646756 -0.416270
v -0.078539 5.287541 -0.431921
v -0.162375 5.306621 0.293568
v -0.114593 5.363951 -0.069411
v -1.066515 4.728616 -0.075245
v -0.669378 5.084558 0.356155
v -0.576658 5.023290 -0.472414
v -0.641922 5.124250 -0.064151
v 0.000000 0.000000 -0.223428
v -0.212493 0.000000 -0.069043
v -0.131328 0.000000 0.180757
v 0.131328 0.000000 0.180757
v 0.212493 0.000000 -0.069043
v 0.525352 5.074286 -0.076087
v 0.469348 5.087619 -0.034260
v 0.490740 5.082527 0.033417
v 0.559965 5.066045 0.033417
v 0.581357 5.060953 -0.034260
v 0.442909 1.130663 0.123306
v 0.304717 3.425268 0.070775
v 0.341127 3.420462 -0.043080
v 0.500614 1.127479 -0.055481
v 0.198466 1.144153 -0.055481
v 0.150479 3.445627 -0.043080
v 0.186889 3.440821 0.070775
v 0.256171 1.140969 0.123306
v 0.245803 3.433045 -0.113446
v 0.349540 1.135816 -0.165977
v 0.558492 5.193762 -0.131205
v 0.446109 5.220517 -0.047272
v 0.489036 5.210298 0.088535
v 0.627948 5.177226 0.088534
v 0.670875 5.167005 -0.047272
v 0.628665 5.476494 -0.057110
v 0.592072 5.485206 -0.029780
v 0.606049 5.481879 0.014439
v 0.651280 5.471110 0.014439
v 0.665258 5.467783 -0.029780
v 0.579629 2.235103 0.097041
v 0.626790 2.237604 -0.049280
v 0.379852 2.224512 -0.049280
v 0.427013 2.227012 0.097041
v 0.503321 2.231058 -0.139712
v 0.343538 4.245276 0.052096
v 0.221195 4.266593 -0.038670
v 0.372419 4.240244 -0.038670
v 0.250076 4.261561 0.052096
v 0.296807 4.253418 -0.094767
vt 0.9428 0.1411
vt 0.9528 0.1642
vt 0.9428 0.1634
vt 0.9428 0.2247
vt 0.9333 0.2022
vt 0.9428 0.2015
vt 0.9428 0.1835
vt 0.9546 0.1844
vt 0.9310 0.1844
vt 0.9328 0.1642
vt 0.9523 0.2022
vt 0.8150 0.1411
vt 0.8250 0.1642
vt 0.8150 0.1634
vt 0.8150 0.2247
vt 0.8054 0.2022
vt 0.8150 0.2015
vt 0.8150 0.1835
vt 0.8268 0.1844
vt 0.8032 0.1844
vt 0.8050 0.1642
vt 0.8245 0.2022
vt 0.9428 0.1411
vt 0.9528 0.1642
vt 0.9428 0.1634
vt 0.9428 0.2247
vt 0.9333 0.2022
vt 0.9428 0.2015
vt 0.9428 0.1835
vt 0.9546 0.1844
vt 0.9310 0.1844
vt 0.9328 0.1642
vt 0.9523 0.2022
vt 0.8150 0.1411
vt 0.8250 0.1642
vt 0.8150 0.1634
vt 0.8150 0.2247
vt 0.8054 0.2022
vt 0.8150 0.2015
vt 0.8150 0.1835
vt 0.8268 0.1844
vt 0.8032 0.1844
vt 0.8050 0.1642
vt 0.8245 0.2022
vt 0.6953 0.1411
vt 0.7053 0.1642
vt 0.6953 0.1634
vt 0.6953 0.2247
vt 0.6858 0.2022
vt 0.6953 0.2015
vt 0.6953 0.1835
vt 0.7071 0.1844
vt 0.6835 0.1844
vt 0.6853 0.1642
vt 0.7048 0.2022
vt 0.8150 0.1411
vt 0.8250 0.1642
vt 0.8150 0.1634
vt 0.8150 0.2247
vt 0.8054 0.2022
vt 0.8150 0.2015
vt 0.8150 0.1835
vt 0.8268 0.1844
vt 0.8032 0.1844
vt 0.8050 0.1642
vt 0.8245 0.2022
vt 0.6953 0.1411
vt 0.7053 0.1642
vt 0.6953 0.1634
vt 0.6953 0.2247
vt 0.6858 0.2022
vt 0.6953 0.2015
vt 0.6953 0.1835
vt 0.7071 0.1844
vt 0.6835 0.1844
vt 0.6853 0.1642
vt 0.7048 0.2022
vt 0.6953 0.1411
vt 0.7053 0.1642
vt 0.6953 0.1634
vt 0.6953 0.2247
vt 0.6858 0.2022
vt 0.6953 0.2015
vt 0.6953 0.1835
vt 0.7071 0.1844
vt 0.6835 0.1844
vt 0.6853 0.1642
vt 0.7048 0.2022
vt 0.9428 0.1634
vt 0.9528 0.1642
vt 0.9428 0.1411
vt 0.9428 0.2015
vt 0.9333 0.2022
vt 0.9428 0.2247
vt 0.9546 0.1844
vt 0.9428 0.1835
vt 0.9328 0.1642
vt 0.9310 0.1844
vt 0.9523 0.2022
vt 0.8150 0.1634
vt 0.8250 0.1642
vt 0.8150 0.1411
vt 0.8150 0.2015
vt 0.8054 0.2022
vt 0.8150 0.2247
vt 0.8268 0.1844
vt 0.8150 0.1835
vt 0.8050 0.1642
vt 0.8032 0.1844
vt 0.8245 0.2022
vt 0.9428 0.1634
vt 0.9528 0.1642
vt 0.9428 0.1411
vt 0.9428 0.2015
vt 0.9333 0.2022
vt 0.9428 0.2247
vt 0.9546 0.1844
vt 0.9428 0.1835
vt 0.9328 0.1642
vt 0.9310 0.1844
vt 0.9523 0.2022
vt 0.8150 0.1634
vt 0.8250 0.1642
vt 0.8150 0.1411
vt 0.8150 0.2015
vt 0.8054 0.2022
vt 0.8150 0.2247
vt 0.8268 0.1844
vt 0.8150 0.1835
vt 0.8050 0.1642
vt 0.8032 0.1844
vt 0.8245 0.2022
vt 0.6953 0.1634
vt 0.7053 0.1642
vt 0.6953 0.1411
vt 0.6953 0.2015
vt 0.6858 0.2022
vt 0.6953 0.2247
vt 0.7071 0.1844
vt 0.6953 0.1835
vt 0.6853 0.1642
vt 0.6835 0.1844
vt 0.7048 0.2022
vt 0.8150 0.1634
vt 0.8250 0.1642
vt 0.8150 0.1411
vt 0.8150 0.2015
vt 0.8054 0.2022
vt 0.8150 0.2247
vt 0.8268 0.1844
vt 0.8150 0.1835
vt 0.8050 0.1642
vt 0.8032 0.1844
vt 0.8245 0.2022
vt 0.6953 0.1634
vt 0.7053 0.1642
vt 0.6953 0.1411
vt 0.6953 0.2015
vt 0.6858 0.2022
vt 0.6953 0.2247
vt 0.7071 0.1844
vt 0.6953 0.1835
vt 0.6853 0.1642
vt 0.6835 0.1844
vt 0.7048 0.2022
vt 0.6953 0.1634
vt 0.7053 0.1642
vt 0.6953 0.1411
vt 0.6953 0.2015
vt 0.6858 0.2022
vt 0.6953 0.2247
vt 0.7071 0.1844
vt 0.6953 0.1835
vt 0.6853 0.1642
vt 0.6835 0.1844
vt 0.7048 0.2022
vt 0.5683 0.9643
vt 0.5687 0.9792
vt 0.5674 0.9791
vt 0.5666 0.9642
vt 0.5733 0.9643
vt 0.5726 0.9794
vt 0.5713 0.9795
vt 0.5716 0.9644
vt 0.5700 0.9643
vt 0.5700 0.9794
vt 0.5749 0.9643
vt 0.5739 0.9791
vt 0.5739 0.8888
vt 0.5728 0.9200
vt 0.5697 0.9201
vt 0.5694 0.8891
vt 0.5724 0.9346
vt 0.5719 0.9492
vt 0.5699 0.9493
vt 0.5698 0.9347
vt 0.5828 0.8899
vt 0.5791 0.9207
vt 0.5760 0.9203
vt 0.5784 0.8892
vt 0.5775 0.9351
vt 0.5759 0.9495
vt 0.5739 0.9493
vt 0.5750 0.9348
vt 0.5665 0.9203
vt 0.5650 0.8894
vt 0.5679 0.9493
vt 0.5672 0.9348
vt 0.5633 0.9205
vt 0.5605 0.8896
vt 0.5659 0.9494
vt 0.5646 0.9350
vt 0.5684 0.9815
vt 0.5664 0.9813
vt 0.5729 0.9815
vt 0.5714 0.9814
vt 0.5699 0.9815
vt 0.5749 0.9814
vt 0.5723 0.9853
vt 0.5712 0.9851
vt 0.5701 0.9851
vt 0.5690 0.9853
vt 0.5734 0.9855
vt 0.5678 0.9855
vt 0.5195 0.9423
vt 0.5243 0.9388
vt 0.5290 0.9423
vt 0.5272 0.9479
vt 0.5213 0.9479
vn -0.2031 0.9695 -0.1369
vn 0.8571 0.3267 0.3984
vn 0.1572 0.9775 0.1409
vn 0.3869 0.9116 -0.1389
vn 0.0503 0.9000 -0.4330
vn 0.7292 0.3766 0.5714
vn 0.7405 0.6254 0.2461
vn 0.5575 0.6946 0.4546
vn -0.0220 0.9367 0.3493
vn 0.5390 0.3931 -0.7449
vn 0.3177 0.9456 -0.0704
vn 0.0923 0.9246 -0.3697
vn -0.3180 0.9452 0.0737
vn 0.7034 0.3989 -0.5883
vn 0.3127 0.7361 -0.6003
vn 0.5571 0.7447 -0.3674
vn 0.5675 0.8218 0.0510
vn -0.6060 0.6203 -0.4980
vn 0.3235 0.9337 -0.1536
vn 0.0962 0.9842 0.1488
vn 0.3207 0.8766 0.3587
vn -0.5115 0.5993 -0.6159
vn -0.3944 0.8703 -0.2951
vn -0.2254 0.8327 -0.5057
vn 0.1829 0.8285 -0.5293
vn -0.5824 0.5512 0.5974
vn -0.1681 0.9651 -0.2007
vn 0.0923 0.9933 0.0700
vn 0.4522 0.8579 -0.2440
vn -0.6868 0.5398 0.4868
vn -0.3584 0.8229 0.4409
vn -0.5450 0.8024 0.2431
vn 0.0261 0.9614 0.2741
vn 0.1583 0.1209 0.9800
vn 0.0217 0.7575 0.6524
vn 0.3036 0.7161 0.6285
vn 0.3297 0.9091 0.2545
vn -0.0089 0.1569 0.9876
vn 0.2620 0.5122 0.8179
vn 0.0109 0.5616 0.8274
vn 0.1938 0.9249 0.3270
vn 0.9994 -0.0053 0.0343
vn 0.6194 0.7000 0.3554
vn 0.6387 0.7692 0.0217
vn 0.2317 0.9725 -0.0255
vn 0.9723 -0.0397 0.2304
vn 0.9066 0.4204 0.0363
vn 0.8679 0.3719 0.3292
vn 0.3531 0.9348 -0.0395
vn -0.0153 0.1315 -0.9912
vn 0.2937 0.7068 -0.6436
vn 0.0252 0.7859 -0.6178
vn 0.0203 0.9984 -0.0521
vn 0.1092 0.0972 -0.9893
vn 0.0056 0.4961 -0.8683
vn 0.2300 0.4391 -0.8685
vn 0.1132 0.9744 -0.1941
vn -0.9267 0.3746 -0.0295
vn -0.4193 0.8711 -0.2556
vn -0.4025 0.9124 0.0744
vn 0.0826 0.9826 0.1661
vn -0.9044 0.3599 -0.2291
vn -0.6803 0.7326 0.0219
vn -0.6498 0.7082 -0.2761
vn 0.2031 -0.9695 0.1369
vn -0.8571 -0.3267 -0.3984
vn -0.1572 -0.9775 -0.1409
vn -0.3869 -0.9116 0.1389
vn -0.0503 -0.9000 0.4330
vn -0.7292 -0.3766 -0.5714
vn -0.7405 -0.6254 -0.2460
vn -0.5575 -0.6946 -0.4546
vn 0.0220 -0.9367 -0.3494
vn -0.5390 -0.3931 0.7450
vn -0.3177 -0.9456 0.0704
vn -0.0923 -0.9245 0.3697
vn 0.3180 -0.9452 -0.0737
vn -0.7034 -0.3989 0.5883
vn -0.3127 -0.7361 0.6003
vn -0.5571 -0.7447 0.3674
vn -0.5675 -0.8218 -0.0510
vn 0.6060 -0.6203 0.4980
vn -0.3235 -0.9337 0.1536
vn -0.0962 -0.9842 -0.1488
vn -0.3207 -0.8766 -0.3587
vn 0.5115 -0.5993 0.6159
vn 0.3944 -0.8703 0.2951
vn 0.2254 -0.8327 0.5057
vn -0.1829 -0.8285 0.5293
vn 0.5824 -0.5512 -0.5975
vn 0.1681 -0.9651 0.2008
vn -0.0923 -0.9933 -0.0700
vn -0.4522 -0.8579 0.2440
vn 0.6868 -0.5398 -0.4868
vn 0.3584 -0.8229 -0.4409
vn 0.5450 -0.8024 -0.2431
vn -0.0261 -0.9614 -0.2741
vn -0.1583 -0.1209 -0.9800
vn -0.0217 -0.7575 -0.6524
vn -0.3036 -0.7161 -0.6285
vn -0.3297 -0.9091 -0.2545
vn 0.0089 -0.1569 -0.9876
vn -0.2620 -0.5122 -0.8179
vn -0.0109 -0.5616 -0.8274
vn -0.1938 -0.9249 -0.3270
vn -0.9994 0.0053 -0.0343
vn -0.6194 -0.7000 -0.3554
vn -0.6387 -0.7692 -0.0217
vn -0.2316 -0.9725 0.0255
vn -0.9723 0.0397 -0.2304
vn -0.9066 -0.4204 -0.0363
vn -0.8679 -0.3719 -0.3292
vn -0.3530 -0.9348 0.0395
vn 0.0153 -0.1315 0.9912
vn -0.2937 -0.7068 0.6436
vn -0.0251 -0.7859 0.6178
vn -0.0203 -0.9984 0.0521
vn -0.1092 -0.0972 0.9893
vn -0.0056 -0.4961 0.8683
vn -0.2300 -0.4391 0.8685
vn -0.1132 -0.9744 0.1941
vn 0.9267 -0.3746 0.0295
vn 0.4193 -0.8711 0.2556
vn 0.4025 -0.9124 -0.0744
vn -0.0827 -0.9826 -0.1661
vn 0.9044 -0.3598 0.2291
vn 0.6803 -0.7326 -0.0219
vn 0.6498 -0.7082 0.2761
vn 0.9218 -0.2362 0.3076
vn -0.9115 0.2740 0.3067
vn 0.5725 -0.1412 -0.8077
vn 0.0043 0.0215 0.9998
vn -0.5647 0.1753 -0.8065
vn -0.5718 0.2154 -0.7916
vn -0.5907 -0.1080 -0.7997
vn 0.0012 0.0502 0.9987
vn 0.0006 0.0220 0.9998
vn 0.5811 -0.1386 -0.8020
vn 0.5885 0.1449 -0.7954
vn -0.9005 0.3203 0.2942
vn -0.9373 -0.1783 0.2995
vn 0.9231 -0.2393 0.3009
vn 0.9289 0.2219 0.2964
vn 0.7499 -0.5984 0.2821
vn -0.9474 -0.1374 0.2891
vn 0.4517 -0.4740 -0.7559
vn -0.0941 -0.3954 0.9137
vn -0.6159 -0.1827 -0.7664
vn -0.8436 0.4453 0.3001
vn 0.6061 0.0575 -0.7933
vn 0.0571 0.2398 0.9691
vn -0.5115 0.3344 -0.7915
vn 0.9535 0.0003 0.3014
vn 0.2316 0.9728 -0.0000
vn 0.9459 -0.1095 0.3053
vn -0.9400 0.1556 0.3035
vn 0.5892 -0.0629 -0.8056
vn 0.0002 0.0240 0.9997
vn -0.5871 0.1024 -0.8030
vn -0.5885 0.0550 -0.8066
vn 0.0034 0.0226 0.9997
vn 0.5929 -0.0184 -0.8051
vn -0.9485 0.0800 0.3065
vn 0.9515 -0.0380 0.3054
s off
f 3/1/1 5/2/1 7/3/1
f 1/4/2 2/5/2 8/6/2
f 11/7/3 7/3/3 5/2/3 10/8/3
f 9/9/4 6/10/4 7/3/4 11/7/4
f 6/10/5 3/1/5 7/3/5
f 4/11/6 1/4/6 8/6/6
f 2/5/7 9/9/7 11/7/7 8/6/7
f 8/6/8 11/7/8 10/8/8 4/11/8
f 14/12/9 16/13/9 18/14/9
f 12/15/10 13/16/10 19/17/10
f 22/18/11 18/14/11 16/13/11 21/19/11
f 20/20/12 17/21/12 18/14/12 22/18/12
f 17/21/13 14/12/13 18/14/13
f 15/22/14 12/15/14 19/17/14
f 13/16/15 20/20/15 22/18/15 19/17/15
f 19/17/16 22/18/16 21/19/16 15/22/16
f 25/23/17 27/24/17 29/25/17
f 23/26/18 24/27/18 30/28/18
f 33/29/19 29/25/19 27/24/19 32/30/19
f 31/31/20 28/32/20 29/25/20 33/29/20
f 28/32/21 25/23/21 29/25/21
f 26/33/22 23/26/22 30/28/22
f 24/27/23 31/31/23 33/29/23 30/28/23
f 30/28/24 33/29/24 32/30/24 26/33/24
f 36/34/25 38/35/25 40/36/25
f 34/37/26 35/38/26 41/39/26
f 44/40/27 40/36/27 38/35/27 43/41/27
f 42/42/28 39/43/28 40/36/28 44/40/28
f 39/43/29 36/34/29 40/36/29
f 37/44/30 34/37/30 41/39/30
f 35/38/31 42/42/31 44/40/31 41/39/31
f 41/39/32 44/40/32 43/41/32 37/44/32
f 47/45/33 49/46/33 51/47/33
f 45/48/34 46/49/34 52/50/34
f 55/51/35 51/47/35 49/46/35 54/52/35
f 53/53/36 50/54/36 51/47/36 55/51/36
f 50/54/37 47/45/37 51/47/37
f 48/55/38 45/48/38 52/50/38
f 46/49/39 53/53/39 55/51/39 52/50/39
f 52/50/40 55/51/40 54/52/40 48/55/40
f 58/56/41 60/57/41 62/58/41
f 56/59/42 57/60/42 63/61/42
f 66/62/43 62/58/43 60/57/43 65/63/43
f 64/64/44 61/65/44 62/58/44 66/62/44
f 61/65/45 58/56/45 62/58/45
f 59/66/46 56/59/46 63/61/46
f 57/60/47 64/64/47 66/62/47 63/61/47
f 63/61/48 66/62/48 65/63/48 59/66/48
f 69/67/49 71/68/49 73/69/49
f 67/70/50 68/71/50 74/72/50
f 77/73/51 73/69/51 71/68/51 76/74/51
f 75/75/52 72/76/52 73/69/52 77/73/52
f 72/76/53 69/67/53 73/69/53
f 70/77/54 67/70/54 74/72/54
f 68/71/55 75/75/55 77/73/55 74/72/55
f 74/72/56 77/73/56 76/74/56 70/77/56
f 80/78/57 82/79/57 84/80/57
f 78/81/58 79/82/58 85/83/58
f 88/84/59 84/80/59 82/79/59 87/85/59
f 86/86/60 83/87/60 84/80/60 88/84/60
f 83/87/61 80/78/61 84/80/61
f 81/88/62 78/81/62 85/83/62
f 79/82/63 86/86/63 88/84/63 85/83/63
f 85/83/64 88/84/64 87/85/64 81/88/64
f 95/89/65 93/90/65 91/91/65
f 96/92/66 90/93/66 89/94/66
f 98/95/67 93/90/67 95/89/67 99/96/67
f 99/96/68 95/89/68 94/97/68 97/98/68
f 95/89/69 91/91/69 94/97/69
f 96/92/70 89/94/70 92/99/70
f 96/92/71 99/96/71 97/98/71 90/93/71
f 92/99/72 98/95/72 99/96/72 96/92/72
f 106/100/73 104/101/73 102/102/73
f 107/103/74 101/104/74 100/105/74
f 109/106/75 104/101/75 106/100/75 110/107/75
f 110/107/76 106/100/76 105/108/76 108/109/76
f 106/100/77 102/102/77 105/108/77
f 107/103/78 100/105/78 103/110/78
f 107/103/79 110/107/79 108/109/79 101/104/79
f 103/110/80 109/106/80 110/107/80 107/103/80
f 117/111/81 115/112/81 113/113/81
f 118/114/82 112/115/82 111/116/82
f 120/117/83 115/112/83 117/111/83 121/118/83
f 121/118/84 117/111/84 116/119/84 119/120/84
f 117/111/85 113/113/85 116/119/85
f 118/114/86 111/116/86 114/121/86
f 118/114/87 121/118/87 119/120/87 112/115/87
f 114/121/88 120/117/88 121/118/88 118/114/88
f 128/122/89 126/123/89 124/124/89
f 129/125/90 123/126/90 122/127/90
f 131/128/91 126/123/91 128/122/91 132/129/91
f 132/129/92 128/122/92 127/130/92 130/131/92
f 128/122/93 124/124/93 127/130/93
f 129/125/94 122/127/94 125/132/94
f 129/125/95 132/129/95 130/131/95 123/126/95
f 125/132/96 131/128/96 132/129/96 129/125/96
f 139/133/97 137/134/97 135/135/97
f 140/136/98 134/137/98 133/138/98
f 142/139/99 137/134/99 139/133/99 143/140/99
f 143/140/100 139/133/100 138/141/100 141/142/100
f 139/133/101 135/135/101 138/141/101
f 140/136/102 133/138/102 136/143/102
f 140/136/103 143/140/103 141/142/103 134/137/103
f 136/143/104 142/139/104 143/140/104 140/136/104
f 150/144/105 148/145/105 146/146/105
f 151/147/106 145/148/106 144/149/106
f 153/150/107 148/145/107 150/144/107 154/151/107
f 154/151/108 150/144/108 149/152/108 152/153/108
f 150/144/109 146/146/109 149/152/109
f 151/147/110 144/149/110 147/154/110
f 151/147/111 154/151/111 152/153/111 145/148/111
f 147/154/112 153/150/112 154/151/112 151/147/112
f 161/155/113 159/156/113 157/157/113
f 162/158/114 156/159/114 155/160/114
f 164/161/115 159/156/115 161/155/115 165/162/115
f 165/162/116 161/155/116 160/163/116 163/164/116
f 161/155/117 157/157/117 160/163/117
f 162/158/118 155/160/118 158/165/118
f 162/158/119 165/162/119 163/164/119 156/159/119
f 158/165/120 164/161/120 165/162/120 162/158/120
f 172/166/121 170/167/121 168/168/121
f 173/169/122 167/170/122 166/171/122
f 175/172/123 170/167/123 172/166/123 176/173/123
f 176/173/124 172/166/124 171/174/124 174/175/124
f 172/166/125 168/168/125 171/174/125
f 173/169/126 166/171/126 169/176/126
f 173/169/127 176/173/127 174/175/127 167/170/127
f 169/176/128 175/172/128 176/173/128 173/169/128
f 214/177/129 186/178/129 185/179/129 212/180/129
f 215/181/130 184/182/130 183/183/130 213/184/130
f 216/185/131 182/186/131 186/178/131 214/177/131
f 212/187/132 185/188/132 184/182/132 215/181/132
f 213/184/133 183/183/133 182/186/133 216/185/133
f 178/189/134 191/190/134 196/191/134 177/192/134
f 209/193/135 192/194/135 195/195/135 211/196/135
f 180/197/136 187/198/136 194/199/136 179/200/136
f 207/201/137 188/202/137 193/203/137 210/204/137
f 177/192/138 196/191/138 190/205/138 181/206/138
f 211/196/139 195/195/139 189/207/139 208/208/139
f 179/200/140 194/199/140 191/190/140 178/189/140
f 210/204/141 193/203/141 192/194/141 209/193/141
f 181/206/142 190/205/142 187/209/142 180/210/142
f 208/208/143 189/207/143 188/211/143 207/212/143
f 186/178/144 201/213/144 200/214/144 185/179/144
f 184/182/145 199/215/145 198/216/145 183/183/145
f 182/186/146 197/217/146 201/213/146 186/178/146
f 185/188/147 200/218/147 199/215/147 184/182/147
f 183/183/148 198/216/148 197/217/148 182/186/148
f 199/215/149 204/219/149 203/220/149 198/216/149
f 197/217/150 202/221/150 206/222/150 201/213/150
f 200/218/151 205/223/151 204/219/151 199/215/151
f 198/216/152 203/220/152 202/221/152 197/217/152
f 201/213/153 206/222/153 205/224/153 200/214/153
f 204/225/154 205/226/154 206/227/154 202/228/154
f 203/229/154 204/225/154 202/228/154
f 190/205/155 208/208/155 207/212/155 187/209/155
f 194/199/156 210/204/156 209/193/156 191/190/156
f 196/191/157 211/196/157 208/208/157 190/205/157
f 187/198/158 207/201/158 210/204/158 194/199/158
f 191/190/159 209/193/159 211/196/159 196/191/159
f 192/194/160 213/184/160 216/185/160 195/195/160
f 188/202/161 212/187/161 215/181/161 193/203/161
f 195/195/162 216/185/162 214/177/162 189/207/162
f 193/203/163 215/181/163 213/184/163 192/194/163
f 189/207/164 214/177/164 212/180/164 188/211/164
