# Blender v2.78 (sub 0) OBJ File: 'Low_Poly_Trees_Pack.blend'
# www.blender.org
g Palm_Tree_s_04
v -0.281776 3.493247 0.932146
v -0.059654 3.954970 0.984969
v 0.523777 4.336157 -0.014261
v -0.420123 3.904176 0.628651
v -0.023827 4.351421 0.136673
v 0.353533 4.404596 0.509687
v 0.160493 4.423613 0.318483
v -0.249449 3.968514 0.808413
v 0.105478 4.261281 0.836997
v -0.326326 4.200434 0.410166
v -0.122370 4.279515 0.625585
v 0.783187 3.016765 1.096022
v 1.095063 3.436548 0.807806
v 0.441434 4.273584 0.029308
v 0.552938 3.545249 1.115445
v 0.374329 4.137910 0.630592
v 0.941858 4.024116 0.308539
v 0.675132 4.129269 0.477563
v 0.842463 3.529395 0.976198
v 1.088763 3.782159 0.523909
v 0.439353 3.912371 0.892427
v 0.787128 3.895369 0.726377
v 1.381370 2.951532 -0.379368
v 1.343539 3.506185 -0.568570
v 0.444660 4.314147 -0.016754
v 1.405261 3.421738 -0.010417
v 0.921742 4.115588 0.190309
v 0.853752 4.190586 -0.395487
v 0.907151 4.203574 -0.096906
v 1.404482 3.500391 -0.286020
v 1.148866 3.930663 -0.533376
v 1.222802 3.829504 0.135234
v 1.223423 3.925604 -0.194730
v 0.239974 3.065395 -1.209026
v 0.077136 3.642852 -1.146878
v 0.431294 4.293460 -0.025170
v 0.663962 3.520444 -1.070561
v 0.798078 4.153008 -0.526440
v 0.180798 4.271393 -0.598180
v 0.503014 4.265081 -0.558155
v 0.384791 3.625399 -1.121281
v 0.089669 4.029004 -0.922528
v 0.792625 3.882371 -0.831109
v 0.458942 4.010356 -0.892514
v -1.023864 3.316326 -0.335525
v -0.887575 3.801235 -0.039962
v 0.454196 4.280611 -0.025588
v -0.726517 3.760313 -0.573012
v 0.010827 4.273008 -0.450050
v -0.160192 4.288275 0.108679
v -0.070023 4.334143 -0.170017
v -0.818252 3.825801 -0.312469
v -0.568212 4.110600 0.084492
v -0.375281 4.061581 -0.554047
v -0.485748 4.142354 -0.242252
v -0.281651 3.493207 0.932025
v -0.059548 3.954892 0.984849
v 0.523766 4.335982 -0.014226
v -0.419992 3.904101 0.628555
v -0.023776 4.351251 0.136689
v 0.353541 4.404419 0.509661
v 0.160515 4.423435 0.318487
v -0.249330 3.968439 0.808303
v 0.105546 4.261139 0.836912
v -0.326222 4.200297 0.410117
v -0.122286 4.279372 0.625520
v 0.783096 3.016740 1.095870
v 1.094954 3.436482 0.807680
v 0.441384 4.273415 0.029279
v 0.552864 3.545176 1.115299
v 0.374283 4.137758 0.630511
v 0.941766 4.023973 0.308484
v 0.675067 4.129113 0.477503
v 0.842371 3.529331 0.976059
v 1.088659 3.782049 0.523814
v 0.439290 3.912253 0.892309
v 0.787044 3.895252 0.726271
v 1.381192 2.951536 -0.379348
v 1.343370 3.506142 -0.568534
v 0.444616 4.313975 -0.016771
v 1.405086 3.421702 -0.010427
v 0.921645 4.115444 0.190268
v 0.853664 4.190432 -0.395466
v 0.907067 4.203416 -0.096918
v 1.404308 3.500353 -0.286006
v 1.148726 3.930556 -0.533346
v 1.222655 3.829406 0.135206
v 1.223279 3.925498 -0.194729
v 0.239948 3.065375 -1.208851
v 0.077119 3.642791 -1.146711
v 0.431260 4.293284 -0.025165
v 0.663911 3.520390 -1.070399
v 0.798011 4.152860 -0.526367
v 0.180786 4.271232 -0.598103
v 0.502974 4.264917 -0.558097
v 0.384757 3.625343 -1.121115
v 0.089652 4.028889 -0.922391
v 0.792563 3.882267 -0.830977
v 0.458903 4.010243 -0.892381
v -1.023707 3.316261 -0.335472
v -0.887434 3.801129 -0.039936
v 0.454178 4.280433 -0.025588
v -0.726389 3.760210 -0.572941
v 0.010857 4.272839 -0.450001
v -0.160147 4.288103 0.108667
v -0.069998 4.333966 -0.170002
v -0.818114 3.825699 -0.312420
v -0.568112 4.110452 0.084502
v -0.375195 4.061438 -0.553982
v -0.485656 4.142206 -0.242215
v 0.000000 0.000000 -0.178742
v -0.169994 0.000000 -0.055234
v -0.105062 0.000000 0.144606
v 0.105062 0.000000 0.144606
v 0.169994 0.000000 -0.055234
v 0.420282 4.059428 -0.060870
v 0.375478 4.070095 -0.027408
v 0.392592 4.066021 0.026733
v 0.447972 4.052836 0.026733
v 0.465085 4.048762 -0.027408
v 0.354327 0.904531 0.098645
v 0.243773 2.740214 0.056620
v 0.272902 2.736370 -0.034464
v 0.400491 0.901983 -0.044385
v 0.158773 0.915322 -0.044385
v 0.120383 2.756502 -0.034464
v 0.149511 2.752657 0.056620
v 0.204937 0.912775 0.098645
v 0.196642 2.746436 -0.090757
v 0.279632 0.908653 -0.132782
v 0.446794 4.155009 -0.104964
v 0.356888 4.176414 -0.037818
v 0.391229 4.168238 0.070828
v 0.502359 4.141780 0.070828
v 0.536700 4.133604 -0.037818
v 0.502932 4.381196 -0.045688
v 0.473657 4.388165 -0.023824
v 0.484839 4.385503 0.011552
v 0.521024 4.376888 0.011552
v 0.532206 4.374226 -0.023824
v 0.463703 1.788083 0.077633
v 0.501432 1.790083 -0.039424
v 0.303882 1.779609 -0.039424
v 0.341611 1.781609 0.077633
v 0.402657 1.784846 -0.111769
v 0.274830 3.396221 0.041677
v 0.176956 3.413274 -0.030936
v 0.297935 3.392196 -0.030936
v 0.200061 3.409249 0.041677
v 0.237446 3.402735 -0.075813
vt 0.6961 0.1343
vt 0.7082 0.1623
vt 0.6961 0.1613
vt 0.6961 0.2356
vt 0.6845 0.2083
vt 0.6961 0.2074
vt 0.6961 0.1856
vt 0.7104 0.1867
vt 0.6818 0.1867
vt 0.6840 0.1623
vt 0.7077 0.2083
vt 0.8104 0.1343
vt 0.8225 0.1623
vt 0.8104 0.1613
vt 0.8104 0.2356
vt 0.7989 0.2083
vt 0.8104 0.2074
vt 0.8104 0.1856
vt 0.8247 0.1867
vt 0.7961 0.1867
vt 0.7983 0.1623
vt 0.8220 0.2083
vt 0.9441 0.1343
vt 0.9562 0.1623
vt 0.9441 0.1613
vt 0.9441 0.2356
vt 0.9325 0.2083
vt 0.9441 0.2074
vt 0.9441 0.1856
vt 0.9583 0.1867
vt 0.9298 0.1867
vt 0.9320 0.1623
vt 0.9556 0.2083
vt 0.8104 0.1343
vt 0.8225 0.1623
vt 0.8104 0.1613
vt 0.8104 0.2356
vt 0.7989 0.2083
vt 0.8104 0.2074
vt 0.8104 0.1856
vt 0.8247 0.1867
vt 0.7961 0.1867
vt 0.7983 0.1623
vt 0.8220 0.2083
vt 0.9441 0.1343
vt 0.9562 0.1623
vt 0.9441 0.1613
vt 0.9441 0.2356
vt 0.9325 0.2083
vt 0.9441 0.2074
vt 0.9441 0.1856
vt 0.9583 0.1867
vt 0.9298 0.1867
vt 0.9320 0.1623
vt 0.9556 0.2083
vt 0.6961 0.1613
vt 0.7082 0.1623
vt 0.6961 0.1343
vt 0.6961 0.2074
vt 0.6845 0.2083
vt 0.6961 0.2356
vt 0.7104 0.1867
vt 0.6961 0.1856
vt 0.6840 0.1623
vt 0.6818 0.1867
vt 0.7077 0.2083
vt 0.8104 0.1613
vt 0.8225 0.1623
vt 0.8104 0.1343
vt 0.8104 0.2074
vt 0.7989 0.2083
vt 0.8104 0.2356
vt 0.8247 0.1867
vt 0.8104 0.1856
vt 0.7983 0.1623
vt 0.7961 0.1867
vt 0.8220 0.2083
vt 0.9441 0.1613
vt 0.9562 0.1623
vt 0.9441 0.1343
vt 0.9441 0.2074
vt 0.9325 0.2083
vt 0.9441 0.2356
vt 0.9583 0.1867
vt 0.9441 0.1856
vt 0.9320 0.1623
vt 0.9298 0.1867
vt 0.9556 0.2083
vt 0.8104 0.1613
vt 0.8225 0.1623
vt 0.8104 0.1343
vt 0.8104 0.2074
vt 0.7989 0.2083
vt 0.8104 0.2356
vt 0.8247 0.1867
vt 0.8104 0.1856
vt 0.7983 0.1623
vt 0.7961 0.1867
vt 0.8220 0.2083
vt 0.9441 0.1613
vt 0.9562 0.1623
vt 0.9441 0.1343
vt 0.9441 0.2074
vt 0.9325 0.2083
vt 0.9441 0.2356
vt 0.9583 0.1867
vt 0.9441 0.1856
vt 0.9320 0.1623
vt 0.9298 0.1867
vt 0.9556 0.2083
vt 0.5634 0.9637
vt 0.5638 0.9781
vt 0.5625 0.9779
vt 0.5618 0.9637
vt 0.5681 0.9638
vt 0.5675 0.9782
vt 0.5663 0.9783
vt 0.5666 0.9638
vt 0.5650 0.9638
vt 0.5650 0.9782
vt 0.5697 0.9638
vt 0.5687 0.9780
vt 0.5687 0.8915
vt 0.5677 0.9214
vt 0.5647 0.9215
vt 0.5645 0.8917
vt 0.5673 0.9353
vt 0.5669 0.9493
vt 0.5649 0.9493
vt 0.5648 0.9354
vt 0.5773 0.8925
vt 0.5738 0.9220
vt 0.5708 0.9216
vt 0.5730 0.8918
vt 0.5722 0.9358
vt 0.5707 0.9496
vt 0.5688 0.9494
vt 0.5698 0.9355
vt 0.5617 0.9216
vt 0.5602 0.8921
vt 0.5630 0.9494
vt 0.5624 0.9355
vt 0.5586 0.9218
vt 0.5559 0.8923
vt 0.5611 0.9495
vt 0.5599 0.9357
vt 0.5635 0.9802
vt 0.5615 0.9801
vt 0.5678 0.9802
vt 0.5663 0.9802
vt 0.5650 0.9802
vt 0.5697 0.9801
vt 0.5672 0.9838
vt 0.5662 0.9837
vt 0.5651 0.9837
vt 0.5640 0.9838
vt 0.5683 0.9841
vt 0.5629 0.9841
vt 0.5287 0.9383
vt 0.5335 0.9348
vt 0.5383 0.9383
vt 0.5364 0.9439
vt 0.5305 0.9439
vn -0.0604 0.9472 -0.3149
vn -0.6536 0.2320 0.7204
vn -0.4081 0.9115 0.0518
vn -0.1808 0.9439 0.2763
vn 0.1694 0.9828 -0.0733
vn -0.7455 0.2150 0.6309
vn -0.5295 0.5816 0.6176
vn -0.6949 0.5550 0.4573
vn 0.1463 0.9614 0.2332
vn 0.5810 0.1209 0.8049
vn 0.3120 0.7575 0.5734
vn 0.5533 0.7161 0.4255
vn 0.4088 0.9091 0.0796
vn 0.4350 0.1569 0.8866
vn 0.6010 0.5122 0.6135
vn 0.3809 0.5616 0.7346
vn 0.2679 0.9249 0.2697
vn 0.9775 -0.0053 -0.2109
vn 0.6875 0.7000 0.1932
vn 0.6246 0.7692 -0.1350
vn 0.2184 0.9725 -0.0814
vn 0.9991 -0.0397 -0.0141
vn 0.8880 0.4204 -0.1863
vn 0.9221 0.3719 0.1071
vn 0.3553 0.9348 -0.0020
vn 0.0896 0.1315 -0.9873
vn 0.3600 0.7068 -0.6090
vn 0.0903 0.7859 -0.6117
vn 0.0257 0.9984 -0.0497
vn 0.2132 0.0972 -0.9722
vn 0.0973 0.4961 -0.8628
vn 0.3205 0.4391 -0.8393
vn 0.1465 0.9744 -0.1704
vn -0.9061 0.3746 -0.1967
vn -0.3661 0.8711 -0.3272
vn -0.4093 0.9124 0.0003
vn 0.0512 0.9826 0.1783
vn -0.8480 0.3599 -0.3890
vn -0.6731 0.7326 -0.1016
vn -0.5891 0.7082 -0.3891
vn 0.0604 -0.9472 0.3149
vn 0.6536 -0.2320 -0.7204
vn 0.4081 -0.9115 -0.0518
vn 0.1808 -0.9439 -0.2763
vn -0.1694 -0.9828 0.0733
vn 0.7455 -0.2149 -0.6309
vn 0.5295 -0.5816 -0.6176
vn 0.6949 -0.5550 -0.4573
vn -0.1463 -0.9614 -0.2332
vn -0.5810 -0.1209 -0.8049
vn -0.3120 -0.7575 -0.5734
vn -0.5533 -0.7161 -0.4255
vn -0.4088 -0.9091 -0.0795
vn -0.4350 -0.1569 -0.8866
vn -0.6010 -0.5122 -0.6135
vn -0.3808 -0.5616 -0.7346
vn -0.2679 -0.9249 -0.2697
vn -0.9775 0.0053 0.2109
vn -0.6875 -0.7000 -0.1932
vn -0.6246 -0.7692 0.1350
vn -0.2184 -0.9725 0.0814
vn -0.9991 0.0397 0.0141
vn -0.8880 -0.4204 0.1864
vn -0.9221 -0.3719 -0.1071
vn -0.3552 -0.9348 0.0020
vn -0.0896 -0.1315 0.9873
vn -0.3601 -0.7068 0.6090
vn -0.0903 -0.7859 0.6117
vn -0.0257 -0.9984 0.0497
vn -0.2132 -0.0972 0.9722
vn -0.0973 -0.4961 0.8628
vn -0.3205 -0.4391 0.8393
vn -0.1465 -0.9744 0.1704
vn 0.9061 -0.3746 0.1967
vn 0.3661 -0.8711 0.3273
vn 0.4093 -0.9124 -0.0003
vn -0.0512 -0.9826 -0.1783
vn 0.8480 -0.3598 0.3890
vn 0.6731 -0.7326 0.1016
vn 0.5891 -0.7082 0.3891
vn 0.9218 -0.2362 0.3076
vn -0.9115 0.2740 0.3067
vn 0.5725 -0.1412 -0.8077
vn 0.0043 0.0215 0.9998
vn -0.5647 0.1753 -0.8065
vn -0.5718 0.2154 -0.7916
vn -0.5907 -0.1080 -0.7997
vn 0.0012 0.0502 0.9987
vn 0.0006 0.0220 0.9998
vn 0.5811 -0.1386 -0.8020
vn 0.5885 0.1449 -0.7954
vn -0.9005 0.3203 0.2942
vn -0.9373 -0.1783 0.2995
vn 0.9231 -0.2393 0.3009
vn 0.9289 0.2219 0.2964
vn 0.7499 -0.5984 0.2821
vn -0.9474 -0.1374 0.2891
vn 0.4517 -0.4740 -0.7559
vn -0.0941 -0.3954 0.9137
vn -0.6159 -0.1827 -0.7664
vn -0.8436 0.4453 0.3001
vn 0.6061 0.0575 -0.7933
vn 0.0571 0.2398 0.9691
vn -0.5115 0.3344 -0.7915
vn 0.9535 0.0003 0.3014
vn 0.2316 0.9728 0.0000
vn 0.9459 -0.1095 0.3053
vn -0.9400 0.1556 0.3035
vn 0.5892 -0.0629 -0.8056
vn 0.0002 0.0240 0.9997
vn -0.5871 0.1024 -0.8030
vn -0.5885 0.0550 -0.8066
vn 0.0034 0.0226 0.9997
vn 0.5929 -0.0184 -0.8051
vn -0.9485 0.0800 0.3065
vn 0.9515 -0.0380 0.3054
s off
f 3/1/1 5/2/1 7/3/1
f 1/4/2 2/5/2 8/6/2
f 11/7/3 7/3/3 5/2/3 10/8/3
f 9/9/4 6/10/4 7/3/4 11/7/4
f 6/10/5 3/1/5 7/3/5
f 4/11/6 1/4/6 8/6/6
f 2/5/7 9/9/7 11/7/7 8/6/7
f 8/6/8 11/7/8 10/8/8 4/11/8
f 14/12/9 16/13/9 18/14/9
f 12/15/10 13/16/10 19/17/10
f 22/18/11 18/14/11 16/13/11 21/19/11
f 20/20/12 17/21/12 18/14/12 22/18/12
f 17/21/13 14/12/13 18/14/13
f 15/22/14 12/15/14 19/17/14
f 13/16/15 20/20/15 22/18/15 19/17/15
f 19/17/16 22/18/16 21/19/16 15/22/16
f 25/23/17 27/24/17 29/25/17
f 23/26/18 24/27/18 30/28/18
f 33/29/19 29/25/19 27/24/19 32/30/19
f 31/31/20 28/32/20 29/25/20 33/29/20
f 28/32/21 25/23/21 29/25/21
f 26/33/22 23/26/22 30/28/22
f 24/27/23 31/31/23 33/29/23 30/28/23
f 30/28/24 33/29/24 32/30/24 26/33/24
f 36/34/25 38/35/25 40/36/25
f 34/37/26 35/38/26 41/39/26
f 44/40/27 40/36/27 38/35/27 43/41/27
f 42/42/28 39/43/28 40/36/28 44/40/28
f 39/43/29 36/34/29 40/36/29
f 37/44/30 34/37/30 41/39/30
f 35/38/31 42/42/31 44/40/31 41/39/31
f 41/39/32 44/40/32 43/41/32 37/44/32
f 47/45/33 49/46/33 51/47/33
f 45/48/34 46/49/34 52/50/34
f 55/51/35 51/47/35 49/46/35 54/52/35
f 53/53/36 50/54/36 51/47/36 55/51/36
f 50/54/37 47/45/37 51/47/37
f 48/55/38 45/48/38 52/50/38
f 46/49/39 53/53/39 55/51/39 52/50/39
f 52/50/40 55/51/40 54/52/40 48/55/40
f 62/56/41 60/57/41 58/58/41
f 63/59/42 57/60/42 56/61/42
f 65/62/43 60/57/43 62/56/43 66/63/43
f 66/63/44 62/56/44 61/64/44 64/65/44
f 62/56/45 58/58/45 61/64/45
f 63/59/46 56/61/46 59/66/46
f 63/59/47 66/63/47 64/65/47 57/60/47
f 59/66/48 65/62/48 66/63/48 63/59/48
f 73/67/49 71/68/49 69/69/49
f 74/70/50 68/71/50 67/72/50
f 76/73/51 71/68/51 73/67/51 77/74/51
f 77/74/52 73/67/52 72/75/52 75/76/52
f 73/67/53 69/69/53 72/75/53
f 74/70/54 67/72/54 70/77/54
f 74/70/55 77/74/55 75/76/55 68/71/55
f 70/77/56 76/73/56 77/74/56 74/70/56
f 84/78/57 82/79/57 80/80/57
f 85/81/58 79/82/58 78/83/58
f 87/84/59 82/79/59 84/78/59 88/85/59
f 88/85/60 84/78/60 83/86/60 86/87/60
f 84/78/61 80/80/61 83/86/61
f 85/81/62 78/83/62 81/88/62
f 85/81/63 88/85/63 86/87/63 79/82/63
f 81/88/64 87/84/64 88/85/64 85/81/64
f 95/89/65 93/90/65 91/91/65
f 96/92/66 90/93/66 89/94/66
f 98/95/67 93/90/67 95/89/67 99/96/67
f 99/96/68 95/89/68 94/97/68 97/98/68
f 95/89/69 91/91/69 94/97/69
f 96/92/70 89/94/70 92/99/70
f 96/92/71 99/96/71 97/98/71 90/93/71
f 92/99/72 98/95/72 99/96/72 96/92/72
f 106/100/73 104/101/73 102/102/73
f 107/103/74 101/104/74 100/105/74
f 109/106/75 104/101/75 106/100/75 110/107/75
f 110/107/76 106/100/76 105/108/76 108/109/76
f 106/100/77 102/102/77 105/108/77
f 107/103/78 100/105/78 103/110/78
f 107/103/79 110/107/79 108/109/79 101/104/79
f 103/110/80 109/106/80 110/107/80 107/103/80
f 148/111/81 120/112/81 119/113/81 146/114/81
f 149/115/82 118/116/82 117/117/82 147/118/82
f 150/119/83 116/120/83 120/112/83 148/111/83
f 146/121/84 119/122/84 118/116/84 149/115/84
f 147/118/85 117/117/85 116/120/85 150/119/85
f 112/123/86 125/124/86 130/125/86 111/126/86
f 143/127/87 126/128/87 129/129/87 145/130/87
f 114/131/88 121/132/88 128/133/88 113/134/88
f 141/135/89 122/136/89 127/137/89 144/138/89
f 111/126/90 130/125/90 124/139/90 115/140/90
f 145/130/91 129/129/91 123/141/91 142/142/91
f 113/134/92 128/133/92 125/124/92 112/123/92
f 144/138/93 127/137/93 126/128/93 143/127/93
f 115/140/94 124/139/94 121/143/94 114/144/94
f 142/142/95 123/141/95 122/145/95 141/146/95
f 120/112/96 135/147/96 134/148/96 119/113/96
f 118/116/97 133/149/97 132/150/97 117/117/97
f 116/120/98 131/151/98 135/147/98 120/112/98
f 119/122/99 134/152/99 133/149/99 118/116/99
f 117/117/100 132/150/100 131/151/100 116/120/100
f 133/149/101 138/153/101 137/154/101 132/150/101
f 131/151/102 136/155/102 140/156/102 135/147/102
f 134/152/103 139/157/103 138/153/103 133/149/103
f 132/150/104 137/154/104 136/155/104 131/151/104
f 135/147/105 140/156/105 139/158/105 134/148/105
f 138/159/106 139/160/106 140/161/106 136/162/106
f 137/163/106 138/159/106 136/162/106
f 124/139/107 142/142/107 141/146/107 121/143/107
f 128/133/108 144/138/108 143/127/108 125/124/108
f 130/125/109 145/130/109 142/142/109 124/139/109
f 121/132/110 141/135/110 144/138/110 128/133/110
f 125/124/111 143/127/111 145/130/111 130/125/111
f 126/128/112 147/118/112 150/119/112 129/129/112
f 122/136/113 146/121/113 149/115/113 127/137/113
f 129/129/114 150/119/114 148/111/114 123/141/114
f 127/137/115 149/115/115 147/118/115 126/128/115
f 123/141/116 148/111/116 146/114/116 122/145/116
