# Blender v2.78 (sub 0) OBJ File: 'Low_Poly_Trees_Pack.blend'
# www.blender.org
g Birch_Log_04
v 0.835755 0.019099 -0.096702
v 0.838431 0.018661 0.065802
v 0.834272 0.176494 0.115251
v 0.828858 0.276217 -0.023584
v 0.830157 0.172496 -0.143625
v -0.836051 0.016823 0.089301
v -0.802116 0.016935 -0.036530
v -0.830369 0.202826 0.037841
v -0.827849 0.125899 0.143415
v -0.851474 0.126675 -0.064524
v 0.839273 -0.000692 0.079982
v 0.836128 -0.000177 -0.111014
v 0.834405 0.184043 0.137860
v 0.828066 0.300794 -0.024680
v 0.829593 0.178873 -0.165783
v -0.829833 -0.000177 0.101876
v -0.789803 -0.000591 -0.051042
v -0.828346 0.226741 0.037603
v -0.824453 0.131778 0.167763
v -0.847410 0.135698 -0.084644
vt 0.1696 0.3576
vt 0.1571 0.6059
vt 0.1348 0.5985
vt 0.1412 0.3563
vt 0.0855 0.3570
vt 0.0908 0.6041
vt 0.0669 0.6054
vt 0.0557 0.3584
vt 0.1136 0.6064
vt 0.1133 0.3562
vt 0.1984 0.3599
vt 0.1791 0.6064
vt 0.3160 0.9260
vt 0.3160 0.9079
vt 0.3330 0.9026
vt 0.3326 0.9288
vt 0.3442 0.9152
vt 0.2957 0.9696
vt 0.3207 0.9510
vt 0.3162 0.9696
vt 0.2894 0.9507
vt 0.3053 0.9393
vt 0.1502 0.9234
vt 0.1180 0.9094
vt 0.1168 0.9044
vt 0.1547 0.9208
vt 0.0946 0.9366
vt 0.0895 0.9362
vt 0.1137 0.9683
vt 0.1118 0.9733
vt 0.1465 0.9580
vt 0.1503 0.9611
vt 0.1917 0.9557
vt 0.2235 0.9610
vt 0.2269 0.9664
vt 0.1881 0.9597
vt 0.2085 0.9107
vt 0.1807 0.9275
vt 0.1747 0.9255
vt 0.2091 0.9048
vt 0.2325 0.9321
vt 0.2376 0.9302
vn -0.0000 -1.0000 -0.0003
vn -0.0146 0.8099 0.5863
vn -0.0374 -0.2767 -0.9602
vn 0.0202 -0.3640 0.9312
vn -0.0543 0.7782 -0.6257
vn -0.9861 0.1221 0.1125
vn -0.9934 0.0187 0.1129
vn -0.8632 -0.4477 -0.2332
vn 0.9994 0.0315 -0.0164
vn -0.8631 -0.4504 -0.2285
vn -0.9900 0.0995 0.0995
vn -0.8480 -0.4419 -0.2925
vn -0.9703 -0.0618 0.2340
vn -0.9798 0.1982 0.0277
s off
f 11/1/1 16/2/1 17/3/1 12/4/1
f 14/5/2 18/6/2 19/7/2 13/8/2
f 12/4/3 17/3/3 20/9/3 15/10/3
f 13/11/4 19/12/4 16/2/4 11/1/4
f 15/10/5 20/9/5 18/6/5 14/5/5
f 9/13/6 8/14/6 10/15/6
f 6/16/7 9/13/7 10/15/7
f 7/17/8 6/16/8 10/15/8
f 3/18/9 5/19/9 4/20/9
f 2/21/9 1/22/9 5/19/9 3/18/9
f 1/23/9 2/24/9 11/25/9 12/26/9
f 2/24/9 3/27/9 13/28/9 11/25/9
f 3/27/9 4/29/9 14/30/9 13/28/9
f 4/29/9 5/31/9 15/32/9 14/30/9
f 5/31/9 1/23/9 12/26/9 15/32/9
f 6/33/10 7/34/10 17/35/10 16/36/10
f 8/37/11 9/38/11 19/39/11 18/40/11
f 7/34/12 10/41/12 20/42/12 17/35/12
f 9/38/13 6/33/13 16/36/13 19/39/13
f 10/41/14 8/37/14 18/40/14 20/42/14
