# Blender v2.78 (sub 0) OBJ File: 'Low_Poly_Trees_Pack.blend'
# www.blender.org
g Birch_Log_08
v -0.838205 0.168775 -0.186849
v -0.820490 0.275900 -0.140277
v -0.852050 0.309213 -0.033332
v -0.853856 0.231077 0.080531
v -0.839283 0.149143 0.094356
v -0.830445 0.054837 0.047783
v -0.818691 0.021525 -0.051679
v -0.837460 0.068719 -0.145767
v 0.824394 0.163048 -0.135589
v 0.824394 0.259504 -0.095636
v 0.854478 0.299458 0.000821
v 0.854478 0.259504 0.097277
v 0.824394 0.163048 0.137230
v 0.824394 0.066592 0.097277
v 0.844684 0.026639 0.000821
v 0.827586 0.064297 -0.112208
v -0.201047 -0.004942 0.014011
v 0.711864 0.006540 0.003445
v 0.714190 0.036273 -0.099249
v -0.204425 0.029786 -0.098802
v -0.220049 0.174878 0.151828
v 0.712671 0.167690 0.159701
v 0.712609 0.054752 0.114943
v -0.200728 0.050120 0.120670
v -0.212938 0.308782 -0.011695
v 0.711023 0.323951 -0.001422
v 0.712014 0.279196 0.111501
v -0.224040 0.260690 0.110244
v -0.209953 0.138953 -0.155072
v 0.710216 0.162801 -0.157678
v 0.710278 0.275739 -0.112920
v -0.213283 0.253689 -0.118422
v -0.819737 0.291657 -0.153941
v -0.836114 0.170260 -0.207561
v -0.853075 0.330011 -0.031944
v -0.856060 0.244733 0.096159
v -0.841374 0.147657 0.115067
v -0.831198 0.039080 0.061447
v -0.817665 0.000726 -0.053067
v -0.835256 0.055063 -0.161394
v -0.652163 0.165524 -0.162782
v -0.661002 0.259829 -0.116210
v -0.672756 0.293141 -0.016748
v -0.680540 0.245947 0.077341
v -0.679795 0.145891 0.110940
v -0.670956 0.051586 0.064368
v -0.659202 0.018274 -0.035094
v -0.651418 0.065468 -0.129183
v 0.824394 0.275320 -0.111451
v 0.824394 0.163048 -0.157956
v 0.854478 0.321825 0.000821
v 0.854478 0.275320 0.113092
v 0.824394 0.163048 0.159597
v 0.824394 0.050776 0.113092
v 0.844684 0.004272 0.000821
v 0.827586 0.048481 -0.128024
v 0.716856 0.163048 -0.135589
v 0.716856 0.259504 -0.095636
v 0.716856 0.299458 0.000821
v 0.716856 0.259504 0.097277
v 0.716856 0.163048 0.137230
v 0.716856 0.066592 0.097277
v 0.716856 0.026639 0.000821
v 0.716856 0.066592 -0.095636
v -0.651748 0.046356 -0.138783
v -0.665094 0.039893 0.084369
v -0.633813 0.263040 0.098043
v -0.605537 0.268391 -0.131244
v -0.614475 -0.003380 -0.024474
v -0.672055 0.150491 0.133572
v -0.616827 0.313067 -0.019155
v -0.631893 0.158693 -0.180863
v 0.849245 0.030118 -0.097383
v 0.849245 0.045933 -0.081567
v -0.318569 0.171868 0.146822
v -0.321768 0.258958 0.108398
v -0.275485 0.258564 0.326131
v -0.258183 0.291124 0.313617
v -0.313987 0.263404 0.322932
v -0.285993 0.316087 0.302683
v -0.339083 0.212359 0.129998
v -0.320481 0.298956 0.308440
v -0.245455 0.202694 0.250447
v -0.313966 0.203609 0.246345
v -0.301568 0.273495 0.217008
v -0.238800 0.261880 0.223398
v -0.327470 0.241630 0.230687
vt 0.1841 0.2905
vt 0.1843 0.2671
vt 0.2019 0.2672
vt 0.2035 0.2906
vt 0.0487 0.2909
vt 0.0482 0.2689
vt 0.0724 0.2700
vt 0.0714 0.2913
vt 0.0932 0.2925
vt 0.0941 0.2688
vt 0.1131 0.2693
vt 0.1145 0.2928
vt 0.1360 0.2921
vt 0.1344 0.2709
vt 0.1575 0.2704
vt 0.1583 0.2916
vt 0.1796 0.2693
vt 0.0257 0.2914
vt 0.0245 0.2664
vt 0.1639 0.5816
vt 0.1826 0.5805
vt 0.1874 0.6141
vt 0.1672 0.6156
vt 0.1654 0.9346
vt 0.1764 0.9305
vt 0.1790 0.9472
vt 0.1727 0.9502
vt 0.1177 0.4661
vt 0.1406 0.4663
vt 0.0749 0.4672
vt 0.0928 0.4680
vt 0.0280 0.4648
vt 0.0507 0.4640
vt 0.1635 0.4654
vt 0.1626 0.5449
vt 0.1403 0.5411
vt 0.1867 0.4637
vt 0.0926 0.4865
vt 0.1177 0.5430
vt 0.0937 0.5460
vt 0.0746 0.4858
vt 0.0713 0.5528
vt 0.0485 0.5519
vt 0.2087 0.4622
vt 0.2066 0.5390
vt 0.1845 0.5471
vt 0.1423 0.5853
vt 0.1418 0.5801
vt 0.1635 0.5795
vt 0.1203 0.5867
vt 0.1201 0.5849
vt 0.0951 0.5925
vt 0.0931 0.5877
vt 0.0867 0.5902
vt 0.0694 0.5897
vt 0.0702 0.5852
vt 0.0891 0.5878
vt 0.0470 0.5876
vt 0.0471 0.5836
vt 0.0254 0.5859
vt 0.0240 0.5825
vt 0.2019 0.5810
vt 0.1826 0.5780
vt 0.2031 0.5757
vt 0.2910 0.9370
vt 0.2801 0.9258
vt 0.2804 0.9102
vt 0.2916 0.8993
vt 0.0424 0.6203
vt 0.0213 0.6180
vt 0.0847 0.6250
vt 0.0636 0.6224
vt 0.1470 0.6165
vt 0.1268 0.6198
vt 0.2073 0.6111
vt 0.1066 0.6241
vt 0.2007 0.2634
vt 0.1855 0.2648
vt 0.1810 0.2411
vt 0.1997 0.2405
vt 0.1344 0.2655
vt 0.1571 0.2663
vt 0.1130 0.2670
vt 0.0941 0.2666
vt 0.0725 0.2645
vt 0.0487 0.2639
vt 0.0264 0.2635
vt 0.1777 0.2675
vt 0.3340 0.9367
vt 0.3231 0.9258
vt 0.3231 0.9104
vt 0.3340 0.8995
vt 0.0508 0.2411
vt 0.0720 0.2416
vt 0.0932 0.2402
vt 0.1149 0.2406
vt 0.1363 0.2428
vt 0.1579 0.2440
vt 0.1792 0.2448
vt 0.0303 0.2382
vt 0.3065 0.9372
vt 0.3072 0.8996
vt 0.3177 0.9264
vt 0.3180 0.9108
vt 0.3603 0.9258
vt 0.3494 0.9367
vt 0.3494 0.8995
vt 0.3603 0.9104
vt 0.0258 0.5438
vt 0.1453 0.9057
vt 0.1487 0.9148
vt 0.1449 0.9459
vt 0.1411 0.9457
vt 0.1771 0.2620
vt 0.1773 0.2625
vt 0.0829 0.4898
vt 0.3090 0.9466
vt 0.3280 0.9466
vt 0.3339 0.9647
vt 0.1879 0.9290
vt 0.2002 0.9318
vt 0.1924 0.9483
vt 0.1857 0.9470
vt 0.2079 0.9352
vt 0.1987 0.9499
vt 0.2167 0.9185
vt 0.2234 0.9233
vt 0.2146 0.9388
vt 0.2049 0.9520
vt 0.1748 0.9123
vt 0.1917 0.9080
vt 0.2091 0.9127
vt 0.1581 0.9174
vt 0.3031 0.9647
vt 0.3185 0.9759
vn -0.0310 -0.9631 -0.2675
vn -0.0064 -0.3756 0.9268
vn 0.0144 0.9267 0.3755
vn 0.0051 0.3756 -0.9268
vn -0.1003 -0.3450 -0.9332
vn -0.0164 -0.9213 0.3885
vn 0.0076 0.3889 0.9213
vn 0.0147 0.9201 -0.3915
vn -0.0958 0.3474 0.9328
vn -0.0835 -0.8014 0.5923
vn -0.0146 0.9038 -0.4278
vn -0.0070 0.4140 0.9102
vn 0.0118 -0.9038 0.4278
vn 0.0592 0.3529 -0.9338
vn 0.0057 -0.4374 -0.8993
vn 0.0011 0.9215 0.3884
vn -0.0069 0.3366 -0.9416
vn -0.0444 -0.3297 0.9430
vn -0.0191 0.9301 0.3669
vn 0.0122 -0.9365 -0.3505
vn -0.0015 -0.3044 0.9526
vn 0.0077 -0.9580 -0.2866
vn -0.9886 0.1503 -0.0064
vn -0.9652 -0.0897 -0.2456
vn -0.9961 -0.0627 -0.0621
vn -0.9834 -0.1715 -0.0588
vn -0.9938 -0.0421 -0.1033
vn -0.9841 -0.1439 0.1046
vn -0.9937 -0.0484 -0.1012
vn 0.0517 0.9488 -0.3117
vn 0.0476 -0.2481 -0.9676
vn -0.1240 -0.9516 0.2811
vn -0.0263 0.8929 0.4494
vn 0.1015 0.4481 -0.8882
vn 0.0167 -0.8567 -0.5156
vn -0.1483 -0.4097 0.9001
vn 0.0582 0.9472 0.3153
vn 1.0000 0.0000 0.0000
vn 0.9663 -0.0985 -0.2378
vn 0.9663 -0.2378 0.0985
vn 0.9842 0.0677 0.1633
vn 0.9988 -0.0189 0.0457
vn 0.9996 0.0271 -0.0112
vn -0.0000 0.3827 -0.9239
vn -0.0000 -0.9239 -0.3827
vn 0.0000 -0.3827 0.9239
vn 0.0752 0.3088 0.9481
vn -0.0000 0.9239 -0.3827
vn -0.0000 -0.3827 -0.9239
vn 0.0000 -0.9239 0.3827
vn 0.0268 -0.9030 -0.4287
vn -0.1061 -0.4291 0.8970
vn -0.0180 0.8761 0.4818
vn 0.1397 0.3822 -0.9134
vn 0.0984 -0.3670 -0.9250
vn -0.0543 -0.9428 0.3290
vn -0.0641 0.2576 0.9641
vn 0.1089 0.9432 -0.3138
vn -0.0692 0.8017 -0.5937
vn 0.0908 -0.7042 0.7042
vn 0.1824 0.6952 -0.6952
vn 0.2575 -0.1366 0.9566
vn 0.0190 0.1167 -0.9930
vn 0.0322 0.9100 -0.4133
vn -0.0416 -0.2482 0.9678
vn -0.0234 0.9307 0.3650
vn 0.0519 -0.4081 -0.9115
vn -0.0259 -0.9117 0.4100
vn -0.0566 0.3585 0.9318
vn -0.0302 0.3726 0.9275
vn 0.4073 0.8486 -0.3377
vn -0.6567 0.6804 -0.3253
vn 0.9379 -0.1019 0.3316
vn -0.9277 -0.3294 0.1755
vn -0.0412 0.3503 0.9357
vn -0.9649 -0.1864 0.1850
vn 0.9820 0.0658 0.1772
vn -0.8699 0.4923 0.0292
vn 0.0650 0.9953 -0.0722
vn -0.0037 -0.9578 0.2875
s off
f 19/1/1 73/2/1 55/3/1 18/4/1
f 23/5/2 54/6/2 53/7/2 22/8/2
f 27/9/3 52/10/3 51/11/3 26/12/3
f 31/13/4 49/14/4 50/15/4 30/16/4
f 30/16/5 50/15/5 56/17/5 19/1/5
f 18/18/6 55/19/6 54/6/6 23/5/6
f 22/8/7 53/7/7 52/10/7 27/9/7
f 26/12/8 51/11/8 49/14/8 31/13/8
f 1/20/9 8/21/9 48/22/9 41/23/9
f 84/24/10 83/25/10 77/26/10 79/27/10
f 25/28/11 26/12/11 31/13/11 32/29/11
f 21/30/12 22/8/12 27/9/12 28/31/12
f 17/32/13 18/18/13 23/5/13 24/33/13
f 32/29/14 29/34/14 72/35/14 68/36/14
f 29/34/15 30/16/15 19/1/15 20/37/15
f 76/38/16 25/28/16 71/39/16 67/40/16
f 32/29/17 31/13/17 30/16/17 29/34/17
f 24/33/18 75/41/18 70/42/18 66/43/18
f 28/31/19 27/9/19 26/12/19 25/28/19
f 20/37/20 17/44/20 69/45/20 65/46/20
f 24/33/21 23/5/21 22/8/21 21/30/21
f 20/37/22 19/1/22 18/4/22 17/44/22
f 1/20/23 2/47/23 33/48/23 34/49/23
f 2/47/24 3/50/24 35/51/24 33/48/24
f 3/50/25 4/52/25 36/53/25 35/51/25
f 4/54/26 5/55/26 37/56/26 36/57/26
f 5/55/27 6/58/27 38/59/27 37/56/27
f 6/58/27 7/60/27 39/61/27 38/59/27
f 7/62/28 8/21/28 40/63/28 39/64/28
f 8/21/29 1/20/29 34/49/29 40/63/29
f 42/65/27 41/66/27 48/67/27 47/68/27
f 7/60/30 6/58/30 46/69/30 47/70/30
f 5/55/31 4/54/31 44/71/31 45/72/31
f 3/50/32 2/47/32 42/73/32 43/74/32
f 8/21/33 7/62/33 47/75/33 48/22/33
f 6/58/34 5/55/34 45/72/34 46/69/34
f 4/52/35 3/50/35 43/74/35 44/76/35
f 2/47/36 1/20/36 41/23/36 42/73/36
f 15/77/37 74/78/37 64/79/37 63/80/37
f 10/81/38 9/82/38 50/15/38 49/14/38
f 11/83/39 10/81/39 49/14/39 51/11/39
f 12/84/38 11/83/38 51/11/38 52/10/38
f 13/85/40 12/84/40 52/10/40 53/7/40
f 14/86/38 13/85/38 53/7/38 54/6/38
f 15/87/41 14/86/41 54/6/41 55/19/41
f 74/78/42 15/77/42 55/3/42 73/2/42
f 9/82/43 16/88/43 56/17/43 50/15/43
f 59/89/38 60/90/38 61/91/38 62/92/38
f 13/85/44 14/86/44 62/93/44 61/94/44
f 11/83/45 12/84/45 60/95/45 59/96/45
f 9/82/46 10/81/46 58/97/46 57/98/46
f 16/88/47 9/82/47 57/98/47 64/99/47
f 14/86/48 15/87/48 63/100/48 62/93/48
f 12/84/49 13/85/49 61/94/49 60/95/49
f 10/81/50 11/83/50 59/96/50 58/97/50
f 43/101/27 42/65/27 47/68/27 46/102/27
f 44/103/27 43/101/27 46/102/27 45/104/27
f 57/105/38 58/106/38 63/107/38 64/108/38
f 58/106/38 59/89/38 62/92/38 63/107/38
f 40/63/51 65/46/51 69/45/51 39/64/51
f 38/59/52 66/43/52 70/42/52 37/56/52
f 36/53/53 67/40/53 71/39/53 35/51/53
f 33/48/54 68/36/54 72/35/54 34/49/54
f 34/49/55 72/35/55 65/46/55 40/63/55
f 39/61/56 69/109/56 66/43/56 38/59/56
f 37/56/57 70/42/57 67/40/57 36/57/57
f 35/51/58 71/39/58 68/36/58 33/48/58
f 67/110/59 44/111/59 4/112/59 36/113/59
f 56/17/60 16/88/60 64/114/60
f 64/114/61 74/78/61 73/2/61
f 19/115/62 56/17/62 64/114/62
f 19/115/63 64/114/63 73/2/63
f 71/39/64 25/28/64 32/29/64 68/36/64
f 24/33/65 21/30/65 75/41/65
f 28/31/66 25/28/66 76/38/66
f 72/35/67 29/34/67 20/37/67 65/46/67
f 69/109/68 17/32/68 24/33/68 66/43/68
f 70/42/69 75/41/69 81/116/69
f 79/117/70 77/118/70 78/119/70
f 86/120/71 85/121/71 80/122/71 78/123/71
f 85/121/72 87/124/72 82/125/72 80/122/72
f 83/25/73 86/120/73 78/123/73 77/26/73
f 87/124/74 81/126/74 75/127/74 84/128/74
f 81/116/75 76/38/75 67/40/75 70/42/75
f 82/125/76 87/124/76 84/128/76 79/129/76
f 21/130/77 28/131/77 86/120/77 83/25/77
f 76/132/78 81/126/78 87/124/78 85/121/78
f 28/131/79 76/132/79 85/121/79 86/120/79
f 75/133/80 21/130/80 83/25/80 84/24/80
f 82/134/70 79/117/70 78/119/70 80/135/70
