# Blender v2.78 (sub 0) OBJ File: 'Low_Poly_Trees_Pack.blend'
# www.blender.org
g Birch_Log_07
v -0.968191 0.168775 -0.186849
v -0.978685 0.275900 -0.140277
v -0.992642 0.309213 -0.033332
v -1.001835 0.231077 0.080531
v -1.000999 0.149143 0.094356
v -0.990505 0.054837 0.047783
v -0.976549 0.021525 -0.051679
v -0.967306 0.068719 -0.145767
v 0.974343 0.163048 -0.135589
v 0.974343 0.259504 -0.095636
v 0.974343 0.299458 0.000821
v 1.009032 0.259504 0.105730
v 1.009032 0.163048 0.145683
v 0.974343 0.066592 0.097277
v 0.974343 0.026639 0.000821
v 0.978133 0.064297 -0.112208
v 0.013761 -0.005760 0.034156
v 0.840732 0.006540 0.003445
v 0.843493 0.036273 -0.099249
v 0.005071 0.021915 -0.079811
v 0.017114 0.171578 0.168645
v 0.750928 0.168118 0.160686
v 0.841616 0.054752 0.114943
v 0.019073 0.054977 0.137913
v -0.000423 0.306487 -0.007698
v 0.839734 0.323951 -0.001422
v 0.749350 0.278810 0.111299
v 0.009081 0.275692 0.109665
v -0.003806 0.129104 -0.142203
v 0.838775 0.162801 -0.157678
v 0.838849 0.275739 -0.112920
v -0.005749 0.245736 -0.111485
v -0.977791 0.291657 -0.153941
v -0.965709 0.170260 -0.207561
v -0.993859 0.330011 -0.031944
v -1.004452 0.244733 0.096159
v -1.003482 0.147657 0.115067
v -0.991400 0.039080 0.061447
v -0.975332 0.000726 -0.053067
v -0.964690 0.055063 -0.161394
v -0.778825 0.165524 -0.162782
v -0.789319 0.259829 -0.116210
v -0.803275 0.293141 -0.016748
v -0.812518 0.245947 0.077341
v -0.811633 0.145891 0.110940
v -0.801139 0.051586 0.064368
v -0.787183 0.018274 -0.035094
v -0.777940 0.065468 -0.129183
v 0.974343 0.275320 -0.111451
v 0.974343 0.163048 -0.157956
v 0.974343 0.321825 0.000821
v 1.009032 0.275320 0.121545
v 1.009032 0.163048 0.168050
v 0.974343 0.050776 0.113092
v 0.974343 0.004272 0.000821
v 0.978133 0.048481 -0.128024
v 0.846659 0.163048 -0.135589
v 0.846659 0.259504 -0.095636
v 0.846659 0.299458 0.000821
v 0.846659 0.259504 0.097277
v 0.846659 0.163048 0.137230
v 0.846659 0.066592 0.097277
v 0.846659 0.026639 0.000821
v 0.846659 0.066592 -0.095636
v -1.003928 0.292702 0.077653
v -1.001312 0.279045 0.062026
v -0.778332 0.046356 -0.138783
v -0.769817 0.040345 0.085973
v -0.803881 0.263556 0.096734
v -0.685393 0.267189 -0.130196
v -0.784172 -0.003221 -0.028402
v -0.800113 0.151062 0.131507
v -0.758633 0.313262 -0.019494
v -0.690293 0.156153 -0.177544
v 0.979758 0.030118 -0.097383
v 0.979758 0.045933 -0.081567
vt 0.1666 0.3712
vt 0.1669 0.3546
vt 0.1815 0.3551
vt 0.1823 0.3715
vt 0.0591 0.3719
vt 0.0600 0.3550
vt 0.0769 0.3544
vt 0.0764 0.3836
vt 0.0938 0.3837
vt 0.0918 0.3544
vt 0.1096 0.3554
vt 0.1107 0.3722
vt 0.1283 0.3720
vt 0.1279 0.3551
vt 0.1458 0.3551
vt 0.1461 0.3718
vt 0.1632 0.3545
vt 0.0408 0.3712
vt 0.0413 0.3539
vt 0.1474 0.6051
vt 0.1648 0.6050
vt 0.1659 0.6310
vt 0.1488 0.6308
vt 0.0745 0.5797
vt 0.0773 0.4756
vt 0.0953 0.4767
vt 0.0921 0.5807
vt 0.1137 0.4782
vt 0.1321 0.4791
vt 0.0381 0.5795
vt 0.0411 0.4764
vt 0.0593 0.4754
vt 0.0565 0.5762
vt 0.1482 0.5680
vt 0.1506 0.4788
vt 0.1695 0.4774
vt 0.1663 0.5782
vt 0.1299 0.5674
vt 0.1113 0.5758
vt 0.1872 0.4757
vt 0.1846 0.5776
vt 0.1292 0.6057
vt 0.1290 0.6033
vt 0.1472 0.6023
vt 0.1121 0.6071
vt 0.1116 0.6046
vt 0.0966 0.6083
vt 0.0949 0.6062
vt 0.0870 0.6079
vt 0.0735 0.6080
vt 0.0739 0.6052
vt 0.0887 0.6061
vt 0.0559 0.6077
vt 0.0558 0.6046
vt 0.0385 0.6075
vt 0.0373 0.6044
vt 0.1817 0.6049
vt 0.1648 0.6018
vt 0.1829 0.6019
vt 0.2889 0.9532
vt 0.2781 0.9420
vt 0.2783 0.9264
vt 0.2896 0.9156
vt 0.0546 0.6343
vt 0.0373 0.6338
vt 0.0894 0.6341
vt 0.0720 0.6342
vt 0.1317 0.6310
vt 0.1146 0.6322
vt 0.1829 0.6307
vt 0.0977 0.6347
vt 0.1806 0.3520
vt 0.1683 0.3529
vt 0.1651 0.3366
vt 0.1802 0.3364
vt 0.1278 0.3518
vt 0.1455 0.3519
vt 0.1096 0.3512
vt 0.0918 0.3527
vt 0.0770 0.3526
vt 0.0601 0.3507
vt 0.0428 0.3508
vt 0.1619 0.3526
vt 0.3320 0.9529
vt 0.3211 0.9420
vt 0.3211 0.9266
vt 0.3320 0.9157
vt 0.0593 0.3329
vt 0.0763 0.3319
vt 0.0937 0.3319
vt 0.1108 0.3331
vt 0.1283 0.3338
vt 0.1456 0.3341
vt 0.1627 0.3344
vt 0.0424 0.3333
vt 0.3045 0.9535
vt 0.3051 0.9158
vt 0.3157 0.9426
vt 0.3160 0.9270
vt 0.3583 0.9420
vt 0.3474 0.9529
vt 0.3474 0.9157
vt 0.3583 0.9266
vt 0.0912 0.6198
vt 0.0911 0.6199
vt 0.1655 0.3483
vt 0.1655 0.3488
vn -0.0308 -0.9630 -0.2677
vn -0.0224 -0.4121 0.9109
vn 0.0017 0.9307 0.3658
vn 0.0043 0.3756 -0.9268
vn -0.0846 -0.3455 -0.9346
vn -0.0150 -0.9208 0.3898
vn -0.0247 0.3948 0.9184
vn 0.0140 0.9208 -0.3898
vn -0.0942 0.3474 0.9330
vn -0.0361 0.3953 0.9178
vn -0.0238 0.8922 -0.4509
vn -0.0244 -0.9010 0.4330
vn 0.0039 0.4506 0.8927
vn 0.0425 -0.4348 -0.8995
vn 0.0212 -0.8923 0.4510
vn 0.0489 0.3234 -0.9450
vn -0.0053 -0.4595 -0.8882
vn -0.0083 0.9458 0.3247
vn -0.0213 0.3121 -0.9498
vn -0.0453 -0.3235 0.9451
vn -0.0139 0.9510 0.3090
vn 0.0089 -0.9454 -0.3257
vn 0.0182 -0.3089 0.9509
vn 0.0078 -0.9666 -0.2563
vn -0.9917 -0.0453 -0.1201
vn -0.9922 -0.0475 -0.1153
vn -0.9924 -0.0564 -0.1093
vn -0.9912 -0.0334 -0.1279
vn -0.9912 -0.0499 -0.1224
vn -0.9911 -0.0574 -0.1199
vn 0.0436 0.9492 -0.3118
vn 0.0419 -0.2516 -0.9669
vn -0.1119 -0.9500 0.2915
vn -0.0237 0.8945 0.4464
vn 0.0856 0.4488 -0.8895
vn -0.0872 -0.9193 -0.3837
vn -0.1354 -0.4274 0.8938
vn 0.0580 0.9471 0.3155
vn 1.0000 0.0000 0.0000
vn 0.9611 0.1056 -0.2550
vn 0.9582 -0.2643 -0.1095
vn 0.9983 -0.0225 0.0543
vn 0.9994 0.0322 -0.0133
vn 0.0265 0.4123 -0.9106
vn 0.0108 -0.9288 -0.3704
vn 0.0000 -0.3827 0.9239
vn 0.0634 0.3091 0.9489
vn -0.0000 0.9239 -0.3827
vn 0.0480 -0.3822 -0.9228
vn 0.0000 -0.9239 0.3827
vn 0.0233 -0.9037 -0.4276
vn -0.0823 -0.4238 0.9020
vn 0.0705 0.9249 0.3736
vn 0.1133 0.3988 -0.9100
vn 0.0861 -0.3808 -0.9206
vn -0.0462 -0.9406 0.3363
vn -0.0543 0.2466 0.9676
vn 0.0950 0.9469 -0.3071
vn -0.1746 -0.7194 0.6723
vn -0.0692 0.7501 -0.6577
vn 0.0269 0.8982 -0.4388
vn 0.0766 -0.7050 0.7050
vn 0.1814 0.6954 -0.6954
vn 0.2190 -0.1380 0.9659
vn 0.0189 0.1164 -0.9930
s off
f 19/1/1 75/2/1 55/3/1 18/4/1
f 23/5/2 54/6/2 53/7/2 22/8/2
f 27/9/3 52/10/3 51/11/3 26/12/3
f 31/13/4 49/14/4 50/15/4 30/16/4
f 30/16/5 50/15/5 56/17/5 19/1/5
f 18/18/6 55/19/6 54/6/6 23/5/6
f 22/8/7 53/7/7 52/10/7 27/9/7
f 26/12/8 51/11/8 49/14/8 31/13/8
f 1/20/9 8/21/9 48/22/9 41/23/9
f 72/24/10 21/25/10 28/26/10 69/27/10
f 25/28/11 26/12/11 31/13/11 32/29/11
f 71/30/12 17/31/12 24/32/12 68/33/12
f 21/25/13 22/8/13 27/9/13 28/26/13
f 74/34/14 29/35/14 20/36/14 67/37/14
f 17/31/15 18/18/15 23/5/15 24/32/15
f 32/29/16 29/35/16 74/34/16 70/38/16
f 29/35/17 30/16/17 19/1/17 20/36/17
f 28/26/18 25/28/18 73/39/18 69/27/18
f 32/29/19 31/13/19 30/16/19 29/35/19
f 24/32/20 21/25/20 72/24/20 68/33/20
f 28/26/21 27/9/21 26/12/21 25/28/21
f 20/36/22 17/40/22 71/41/22 67/37/22
f 24/32/23 23/5/23 22/8/23 21/25/23
f 20/36/24 19/1/24 18/4/24 17/40/24
f 1/20/25 2/42/25 33/43/25 34/44/25
f 2/42/26 3/45/26 35/46/26 33/43/26
f 3/45/27 66/47/27 65/48/27 35/46/27
f 4/49/28 5/50/28 37/51/28 36/52/28
f 5/50/29 6/53/29 38/54/29 37/51/29
f 6/53/29 7/55/29 39/56/29 38/54/29
f 7/57/29 8/21/29 40/58/29 39/59/29
f 8/21/30 1/20/30 34/44/30 40/58/30
f 42/60/29 41/61/29 48/62/29 47/63/29
f 7/55/31 6/53/31 46/64/31 47/65/31
f 5/50/32 4/49/32 44/66/32 45/67/32
f 3/45/33 2/42/33 42/68/33 43/69/33
f 8/21/34 7/57/34 47/70/34 48/22/34
f 6/53/35 5/50/35 45/67/35 46/64/35
f 66/47/36 3/45/36 43/69/36 44/71/36
f 2/42/37 1/20/37 41/23/37 42/68/37
f 15/72/38 76/73/38 64/74/38 63/75/38
f 10/76/39 9/77/39 50/15/39 49/14/39
f 11/78/39 10/76/39 49/14/39 51/11/39
f 12/79/40 11/78/40 51/11/40 52/10/40
f 13/80/39 12/79/39 52/10/39 53/7/39
f 14/81/41 13/80/41 53/7/41 54/6/41
f 15/82/39 14/81/39 54/6/39 55/19/39
f 76/73/42 15/72/42 55/3/42 75/2/42
f 9/77/43 16/83/43 56/17/43 50/15/43
f 59/84/39 60/85/39 61/86/39 62/87/39
f 13/80/44 14/81/44 62/88/44 61/89/44
f 11/78/45 12/79/45 60/90/45 59/91/45
f 9/77/46 10/76/46 58/92/46 57/93/46
f 16/83/47 9/77/47 57/93/47 64/94/47
f 14/81/48 15/82/48 63/95/48 62/88/48
f 12/79/49 13/80/49 61/89/49 60/90/49
f 10/76/50 11/78/50 59/91/50 58/92/50
f 43/96/29 42/60/29 47/63/29 46/97/29
f 44/98/29 43/96/29 46/97/29 45/99/29
f 57/100/39 58/101/39 63/102/39 64/103/39
f 58/101/39 59/84/39 62/87/39 63/102/39
f 40/58/51 67/37/51 71/41/51 39/59/51
f 38/54/52 68/33/52 72/24/52 37/51/52
f 65/48/53 69/27/53 73/39/53 35/46/53
f 33/43/54 70/38/54 74/34/54 34/44/54
f 34/44/55 74/34/55 67/37/55 40/58/55
f 39/56/56 71/30/56 68/33/56 38/54/56
f 37/51/57 72/24/57 69/27/57 36/52/57
f 35/46/58 73/39/58 70/38/58 33/43/58
f 66/47/59 44/104/59 69/105/59 65/48/59
f 69/105/60 44/104/60 4/49/60 36/52/60
f 73/39/61 25/28/61 32/29/61 70/38/61
f 56/17/62 16/83/62 64/106/62
f 64/106/63 76/73/63 75/2/63
f 19/107/64 56/17/64 64/106/64
f 19/107/65 64/106/65 75/2/65
