# Blender v2.78 (sub 0) OBJ File: 'Low_Poly_Trees_Pack.blend'
# www.blender.org
g Birch_Log_06
v -0.663928 0.168775 -0.185314
v -0.671223 0.263080 -0.138295
v -0.680923 0.296393 -0.037966
v -0.687345 0.249198 0.056854
v -0.686728 0.149143 0.090671
v -0.679432 0.054837 0.043721
v -0.669734 0.021525 -0.056801
v -0.663310 0.068719 -0.151433
v 0.687194 0.163048 -0.135589
v 0.687194 0.259504 -0.095636
v 0.687194 0.299458 0.000821
v 0.687194 0.259504 0.097277
v 0.687194 0.163048 0.137230
v 0.687194 0.066592 0.097277
v 0.687194 0.026639 0.000821
v 0.687194 0.066592 -0.095636
v -0.328395 -0.008736 -0.046967
v 0.009917 -0.013255 0.035305
v 0.346166 0.012395 0.030163
v 0.347541 0.053835 -0.087065
v 0.028173 0.015406 -0.081660
v -0.324608 0.034971 -0.161557
v -0.335077 0.154046 0.113634
v -0.013777 0.168062 0.165278
v 0.341148 0.177576 0.184428
v 0.342965 0.063481 0.142608
v -0.007454 0.049978 0.137569
v -0.332606 0.040583 0.068127
v -0.332882 0.308768 -0.054565
v 0.012911 0.300486 -0.014780
v 0.344370 0.329658 0.013125
v 0.342304 0.288006 0.130726
v -0.005347 0.271824 0.102194
v -0.335866 0.264967 0.061532
v -0.324380 0.146063 -0.210938
v 0.036620 0.119174 -0.144811
v 0.346844 0.163697 -0.140764
v 0.345871 0.278050 -0.098749
v 0.030300 0.237258 -0.117113
v -0.327566 0.259650 -0.167679
v -0.670600 0.278837 -0.151908
v -0.662201 0.170260 -0.206038
v -0.681769 0.317191 -0.036519
v -0.689165 0.262854 0.072502
v -0.688455 0.147657 0.111342
v -0.680055 0.039080 0.057282
v -0.668887 0.000726 -0.058196
v -0.661491 0.055063 -0.167153
v -0.532339 0.165524 -0.183469
v -0.539633 0.259829 -0.136321
v -0.549330 0.293141 -0.035664
v -0.555750 0.245947 0.059511
v -0.555131 0.145891 0.093452
v -0.547837 0.051586 0.046304
v -0.538140 0.018274 -0.054316
v -0.531720 0.065468 -0.149491
v 0.687194 0.275320 -0.111451
v 0.687194 0.163048 -0.157956
v 0.687194 0.321825 0.000821
v 0.687194 0.275320 0.113092
v 0.687194 0.163048 0.159597
v 0.687194 0.050776 0.113092
v 0.687194 0.004272 0.000821
v 0.687194 0.050777 -0.111451
v 0.598387 0.163048 -0.135589
v 0.598387 0.259504 -0.095636
v 0.598387 0.299458 0.000821
v 0.598387 0.259504 0.097277
v 0.598387 0.163048 0.137230
v 0.598387 0.066592 0.097277
v 0.598387 0.026639 0.000821
v 0.598387 0.066592 -0.095636
v -0.747119 0.325580 -0.056359
v -0.738245 0.295107 -0.148039
v -0.733722 0.043021 -0.168525
v -0.739636 -0.000430 -0.081397
v -0.746447 0.309055 -0.057508
v -0.738740 0.282588 -0.137223
v -0.735177 0.053941 -0.155955
v -0.740314 0.016202 -0.080281
v 0.757969 0.273408 -0.126197
v 0.757969 0.174567 -0.167138
v 0.757969 0.314349 -0.027356
v 0.762837 0.163048 0.173026
v 0.762837 0.261648 0.132185
v 0.762837 0.064448 0.132185
v 0.757969 0.075727 -0.126197
v 0.757969 0.259484 -0.112273
v 0.757969 0.174567 -0.147447
v 0.757969 0.294658 -0.027356
v 0.762837 0.163048 0.153383
v 0.762837 0.247758 0.118295
v 0.762837 0.078338 0.118295
v 0.757969 0.089650 -0.112273
vt 0.1815 0.3970
vt 0.1802 0.3295
vt 0.2000 0.3292
vt 0.2013 0.3965
vt 0.0638 0.3966
vt 0.0630 0.3285
vt 0.0827 0.3292
vt 0.0839 0.3965
vt 0.1037 0.3965
vt 0.1023 0.3298
vt 0.1219 0.3300
vt 0.1231 0.3967
vt 0.1424 0.3970
vt 0.1414 0.3300
vt 0.1608 0.3299
vt 0.1618 0.3972
vt 0.0434 0.3967
vt 0.0427 0.3277
vt 0.1613 0.6034
vt 0.1806 0.6029
vt 0.1827 0.6322
vt 0.1633 0.6327
vt 0.1232 0.6014
vt 0.1235 0.5336
vt 0.1436 0.5343
vt 0.1421 0.6008
vt 0.1274 0.4646
vt 0.1481 0.4663
vt 0.0850 0.6021
vt 0.0841 0.5320
vt 0.1037 0.5325
vt 0.1043 0.6019
vt 0.0868 0.4610
vt 0.1070 0.4623
vt 0.0450 0.6030
vt 0.0447 0.5344
vt 0.0645 0.5326
vt 0.0652 0.6023
vt 0.0467 0.4638
vt 0.0668 0.4616
vt 0.1612 0.6000
vt 0.1640 0.5340
vt 0.1843 0.5327
vt 0.1807 0.5993
vt 0.1687 0.4664
vt 0.1889 0.4646
vt 0.2043 0.5311
vt 0.2007 0.5990
vt 0.2087 0.4618
vt 0.1422 0.6039
vt 0.2235 0.9302
vt 0.2235 0.9335
vt 0.2105 0.9329
vt 0.2105 0.9303
vt 0.1233 0.6044
vt 0.1044 0.6050
vt 0.0851 0.6054
vt 0.0655 0.6059
vt 0.0463 0.6063
vt 0.1697 0.9505
vt 0.1710 0.9474
vt 0.1816 0.9536
vt 0.1806 0.9560
vt 0.2840 0.9542
vt 0.2732 0.9430
vt 0.2734 0.9275
vt 0.2846 0.9166
vt 0.0651 0.6356
vt 0.0457 0.6356
vt 0.1043 0.6343
vt 0.0846 0.6350
vt 0.1438 0.6331
vt 0.1240 0.6336
vt 0.1996 0.6022
vt 0.2018 0.6313
vt 0.1986 0.3257
vt 0.1800 0.3260
vt 0.1797 0.3065
vt 0.1985 0.3064
vt 0.1799 0.9103
vt 0.1793 0.8918
vt 0.1924 0.8945
vt 0.1925 0.9103
vt 0.2096 0.8935
vt 0.2087 0.9103
vt 0.1950 0.9103
vt 0.1957 0.8957
vt 0.1023 0.3262
vt 0.1219 0.3264
vt 0.2026 0.9404
vt 0.1985 0.9419
vt 0.1923 0.9261
vt 0.1957 0.9249
vt 0.1793 0.9288
vt 0.0443 0.3241
vt 0.0632 0.3249
vt 0.2096 0.9272
vt 0.3271 0.9540
vt 0.3162 0.9431
vt 0.3162 0.9277
vt 0.3271 0.9167
vt 0.0828 0.3257
vt 0.0640 0.3051
vt 0.0833 0.3057
vt 0.1027 0.3061
vt 0.1221 0.3064
vt 0.1608 0.3263
vt 0.1414 0.3265
vt 0.1414 0.3065
vt 0.1607 0.3066
vt 0.0450 0.3045
vt 0.2996 0.9545
vt 0.3002 0.9169
vt 0.3108 0.9437
vt 0.3111 0.9281
vt 0.3534 0.9431
vt 0.3425 0.9540
vt 0.3425 0.9167
vt 0.3534 0.9277
vt 0.1950 0.9533
vt 0.1960 0.9557
vt 0.2132 0.9602
vt 0.2132 0.9468
vt 0.2156 0.9457
vt 0.2156 0.9612
vt 0.1791 0.9415
vt 0.1959 0.9412
vt 0.2208 0.9178
vt 0.2139 0.9086
vt 0.2240 0.9146
vt 0.2253 0.9131
vt 0.1976 0.9677
vt 0.1782 0.9680
vt 0.2003 0.9623
vt 0.2003 0.9455
vt 0.2074 0.9352
vt 0.2105 0.9339
vt 0.2284 0.9442
vt 0.2284 0.9636
vt 0.1633 0.9257
vt 0.1634 0.9110
vt 0.1660 0.9109
vt 0.1659 0.9259
vt 0.1623 0.9405
vt 0.1653 0.9418
vt 0.1623 0.8961
vt 0.1658 0.8947
vt 0.1985 0.8786
vt 0.2026 0.8801
vt 0.1504 0.9098
vt 0.1490 0.8926
vt 0.1781 0.8904
vt 0.1778 0.9093
vt 0.1504 0.9270
vt 0.1561 0.8792
vt 0.1605 0.8773
vt 0.1776 0.9277
vt 0.1490 0.9440
vt 0.1774 0.9465
vt 0.1608 0.9554
vt 0.1573 0.9539
vn -0.0436 -0.9328 -0.3577
vn 0.0589 -0.3625 0.9301
vn 0.0434 0.9327 0.3581
vn -0.0390 0.3634 -0.9308
vn -0.0579 -0.4107 -0.9100
vn 0.0063 -0.9172 0.3984
vn 0.0720 0.4090 0.9097
vn -0.0005 0.9161 -0.4010
vn -0.0057 0.3211 0.9470
vn 0.0199 0.9342 -0.3562
vn 0.0967 0.8867 -0.4522
vn -0.0609 0.8775 -0.4758
vn 0.0069 0.3732 0.9277
vn -0.1384 0.4721 0.8706
vn -0.0769 0.4799 0.8739
vn -0.0222 -0.9350 0.3540
vn -0.0964 -0.8877 0.4501
vn 0.0502 -0.8796 0.4731
vn -0.0229 -0.3633 -0.9314
vn 0.1485 -0.4635 -0.8735
vn 0.0614 -0.4807 -0.8747
vn -0.0022 0.4014 -0.9159
vn 0.1728 0.2949 -0.9398
vn -0.0048 0.2871 -0.9579
vn 0.0248 0.9160 0.4005
vn -0.0330 0.9552 0.2940
vn -0.0871 0.9563 0.2791
vn -0.0125 -0.4096 0.9122
vn -0.1648 -0.3030 0.9386
vn -0.0235 -0.2875 0.9575
vn -0.0299 -0.9148 -0.4027
vn 0.0359 -0.9548 -0.2950
vn 0.0890 -0.9562 -0.2788
vn -0.9957 -0.0344 -0.0854
vn -0.3096 -0.0762 0.9478
vn -0.9958 -0.0349 -0.0849
vn -0.9957 -0.0350 -0.0855
vn -0.9957 -0.0344 -0.0857
vn -0.9958 -0.0343 -0.0848
vn -0.1958 -0.6367 -0.7459
vn -0.9958 -0.0349 -0.0852
vn -0.9958 -0.0348 -0.0844
vn 0.0295 0.9497 -0.3117
vn 0.0116 -0.3206 -0.9471
vn -0.0285 -0.9496 0.3120
vn 0.0146 0.8949 0.4460
vn 0.0293 0.4480 -0.8935
vn -0.0137 -0.8951 -0.4456
vn -0.0240 -0.4480 0.8937
vn 0.0000 0.9239 0.3827
vn -0.1619 -0.3776 0.9117
vn 0.1936 0.3754 -0.9064
vn 1.0000 0.0000 0.0000
vn 0.2929 0.6761 -0.6761
vn -0.1619 0.3776 0.9117
vn 0.1936 -0.3754 -0.9064
vn -0.0000 0.3827 -0.9239
vn -0.0000 -0.9239 -0.3827
vn 0.0000 -0.3827 0.9239
vn 0.0000 0.3827 0.9239
vn -0.0000 0.9239 -0.3827
vn -0.0000 -0.3827 -0.9239
vn 0.0000 -0.9239 0.3827
vn -0.9958 -0.0344 -0.0849
vn -0.9958 -0.0348 -0.0850
vn -0.2623 -0.9231 0.2812
vn -0.2988 -0.0783 0.9511
vn 0.2080 0.9340 -0.2903
vn -0.2079 0.8809 0.4252
vn -0.1115 0.7438 -0.6591
vn 0.1563 -0.8881 -0.4323
vn 0.2929 -0.6761 -0.6761
vn 0.0921 0.3811 0.9200
vn -0.0575 -0.3821 -0.9224
vn 0.2121 -0.3740 0.9029
vn 0.3687 -0.6573 0.6573
vn -0.1792 0.3765 -0.9089
vn 0.0893 -0.9202 0.3812
vn -0.0547 0.9225 -0.3821
vn 0.3699 -0.0000 0.9291
s off
f 20/1/1 64/2/1 63/3/1 19/4/1
f 26/5/2 62/6/2 61/7/2 25/8/2
f 32/9/3 60/10/3 59/11/3 31/12/3
f 38/13/4 57/14/4 58/15/4 37/16/4
f 37/16/5 58/15/5 64/2/5 20/1/5
f 19/17/6 63/18/6 62/6/6 26/5/6
f 25/8/7 61/7/7 60/10/7 32/9/7
f 31/12/8 59/11/8 57/14/8 38/13/8
f 1/19/9 8/20/9 56/21/9 49/22/9
f 43/23/10 29/24/10 40/25/10 41/26/10
f 29/24/11 30/27/11 39/28/11 40/25/11
f 30/27/12 31/12/12 38/13/12 39/28/12
f 45/29/13 23/30/13 34/31/13 44/32/13
f 23/30/14 24/33/14 33/34/14 34/31/14
f 24/33/15 25/8/15 32/9/15 33/34/15
f 47/35/16 17/36/16 28/37/16 46/38/16
f 17/36/17 18/39/17 27/40/17 28/37/17
f 18/39/18 19/17/18 26/5/18 27/40/18
f 42/41/19 35/42/19 22/43/19 48/44/19
f 35/42/20 36/45/20 21/46/20 22/43/20
f 36/45/21 37/16/21 20/1/21 21/46/21
f 41/26/22 40/25/22 35/42/22 42/41/22
f 40/25/23 39/28/23 36/45/23 35/42/23
f 39/28/24 38/13/24 37/16/24 36/45/24
f 44/32/25 34/31/25 29/24/25 43/23/25
f 34/31/26 33/34/26 30/27/26 29/24/26
f 33/34/27 32/9/27 31/12/27 30/27/27
f 46/38/28 28/37/28 23/30/28 45/29/28
f 28/37/29 27/40/29 24/33/29 23/30/29
f 27/40/30 26/5/30 25/8/30 24/33/30
f 48/44/31 22/43/31 17/47/31 47/48/31
f 22/43/32 21/46/32 18/49/32 17/47/32
f 21/46/33 20/1/33 19/4/33 18/49/33
f 1/19/34 2/50/34 41/26/34 42/41/34
f 47/51/35 7/52/35 80/53/35 76/54/35
f 3/55/36 4/56/36 44/32/36 43/23/36
f 4/56/37 5/57/37 45/29/37 44/32/37
f 5/57/38 6/58/38 46/38/38 45/29/38
f 6/58/39 7/59/39 47/35/39 46/38/39
f 41/60/40 2/61/40 78/62/40 74/63/40
f 8/20/41 1/19/41 42/41/41 48/44/41
f 50/64/42 49/65/42 56/66/42 55/67/42
f 7/59/43 6/58/43 54/68/43 55/69/43
f 5/57/44 4/56/44 52/70/44 53/71/44
f 3/55/45 2/50/45 50/72/45 51/73/45
f 8/20/46 7/74/46 55/75/46 56/21/46
f 6/58/47 5/57/47 53/71/47 54/68/47
f 4/56/48 3/55/48 51/73/48 52/70/48
f 2/50/49 1/19/49 49/22/49 50/72/49
f 15/76/50 16/77/50 72/78/50 71/79/50
f 61/80/51 62/81/51 86/82/51 84/83/51
f 14/84/52 13/85/52 91/86/52 93/87/52
f 12/88/53 11/89/53 59/11/53 60/10/53
f 12/90/54 60/91/54 85/92/54 92/93/54
f 60/94/55 61/80/55 84/83/55 85/92/55
f 15/95/53 14/96/53 62/6/53 63/18/53
f 16/77/53 15/76/53 63/3/53 64/2/53
f 13/85/56 12/97/56 92/93/56 91/86/56
f 67/98/53 68/99/53 69/100/53 70/101/53
f 13/102/57 14/96/57 70/103/57 69/104/57
f 11/89/58 12/88/58 68/105/58 67/106/58
f 9/107/59 10/108/59 66/109/59 65/110/59
f 16/77/60 9/107/60 65/110/60 72/78/60
f 14/96/61 15/95/61 71/111/61 70/103/61
f 12/88/62 13/102/62 69/104/62 68/105/62
f 10/108/63 11/89/63 67/106/63 66/109/63
f 51/112/42 50/64/42 55/67/42 54/113/42
f 52/114/42 51/112/42 54/113/42 53/115/42
f 65/116/53 66/117/53 71/118/53 72/119/53
f 66/117/53 67/98/53 70/101/53 71/118/53
f 78/62/64 77/120/64 73/121/64 74/63/64
f 80/122/65 79/123/65 75/124/65 76/125/65
f 2/126/66 3/127/66 77/120/66 78/62/66
f 3/128/67 43/129/67 73/130/67 77/131/67
f 43/132/68 41/133/68 74/63/68 73/121/68
f 7/134/69 8/135/69 79/123/69 80/122/69
f 8/136/70 48/137/70 75/124/70 79/123/70
f 48/138/71 47/139/71 76/125/71 75/124/71
f 88/140/53 89/141/53 82/142/53 81/143/53
f 90/144/53 88/140/53 81/143/53 83/145/53
f 91/86/53 92/93/53 85/92/53 84/83/53
f 93/87/53 91/86/53 84/83/53 86/82/53
f 89/141/53 94/146/53 87/147/53 82/142/53
f 62/148/72 14/149/72 93/87/72 86/82/72
f 9/150/73 16/151/73 94/146/73 89/141/73
f 64/152/74 58/153/74 82/142/74 87/147/74
f 10/154/75 9/150/75 89/141/75 88/140/75
f 16/155/76 64/156/76 87/147/76 94/146/76
f 58/153/77 57/157/77 81/143/77 82/142/77
f 11/158/78 10/154/78 88/140/78 90/144/78
f 57/157/79 59/159/79 83/145/79 81/143/79
f 59/160/80 11/161/80 90/144/80 83/145/80
