# Blender v2.78 (sub 0) OBJ File: 'Low_Poly_Trees_Pack.blend'
# www.blender.org
g Birch_Log_03
v 1.795703 0.019222 -0.115347
v 1.798376 0.018785 0.046975
v 1.794221 0.176445 0.096370
v 1.788813 0.276061 -0.042313
v 1.790111 0.172455 -0.162220
v -1.818690 0.016931 0.070485
v -1.784794 0.017047 -0.055173
v -1.812981 0.202674 0.019107
v -1.810470 0.125861 0.124523
v -1.834099 0.126618 -0.083132
v 1.799223 -0.000692 0.061246
v 1.796078 -0.000177 -0.129750
v 1.794355 0.184043 0.119124
v 1.788016 0.300794 -0.043416
v 1.789543 0.178873 -0.184519
v -1.812432 -0.000177 0.083140
v -1.772402 -0.000591 -0.069778
v -1.810945 0.226741 0.018867
v -1.807052 0.131778 0.149027
v -1.830009 0.135698 -0.103380
vt 0.1100 0.5218
vt 0.1066 0.8498
vt 0.0928 0.8459
vt 0.0927 0.5218
vt 0.0587 0.5229
vt 0.0661 0.8497
vt 0.0515 0.8501
vt 0.0406 0.5232
vt 0.0800 0.8511
vt 0.0757 0.5224
vt 0.1276 0.5225
vt 0.1200 0.8495
vt 0.3198 0.9182
vt 0.3198 0.9002
vt 0.3368 0.8949
vt 0.3364 0.9211
vt 0.3480 0.9075
vt 0.2995 0.9618
vt 0.3245 0.9433
vt 0.3200 0.9618
vt 0.2932 0.9429
vt 0.3091 0.9316
vt 0.1095 0.9390
vt 0.0776 0.9033
vt 0.0791 0.8963
vt 0.1165 0.9384
vt 0.0333 0.9234
vt 0.0271 0.9199
vt 0.0386 0.9735
vt 0.0334 0.9786
vt 0.0850 0.9795
vt 0.0880 0.9857
vt 0.1565 0.9487
vt 0.1927 0.9733
vt 0.1937 0.9821
vt 0.1497 0.9515
vt 0.2030 0.9028
vt 0.1590 0.9075
vt 0.1528 0.9016
vt 0.2071 0.8957
vt 0.2204 0.9430
vt 0.2278 0.9435
vn -0.0000 -1.0000 -0.0003
vn -0.0067 0.8101 0.5862
vn -0.0172 -0.2731 -0.9618
vn 0.0093 -0.3640 0.9314
vn -0.0251 0.7781 -0.6276
vn -0.9861 0.1224 0.1127
vn -0.9934 0.0188 0.1131
vn -0.8631 -0.4479 -0.2332
vn 0.9994 0.0315 -0.0164
vn -0.8631 -0.4504 -0.2286
vn -0.9900 0.0995 0.0995
vn -0.8480 -0.4420 -0.2925
vn -0.9703 -0.0617 0.2340
vn -0.9798 0.1982 0.0278
s off
f 11/1/1 16/2/1 17/3/1 12/4/1
f 14/5/2 18/6/2 19/7/2 13/8/2
f 12/4/3 17/3/3 20/9/3 15/10/3
f 13/11/4 19/12/4 16/2/4 11/1/4
f 15/10/5 20/9/5 18/6/5 14/5/5
f 9/13/6 8/14/6 10/15/6
f 6/16/7 9/13/7 10/15/7
f 7/17/8 6/16/8 10/15/8
f 3/18/9 5/19/9 4/20/9
f 2/21/9 1/22/9 5/19/9 3/18/9
f 1/23/9 2/24/9 11/25/9 12/26/9
f 2/24/9 3/27/9 13/28/9 11/25/9
f 3/27/9 4/29/9 14/30/9 13/28/9
f 4/29/9 5/31/9 15/32/9 14/30/9
f 5/31/9 1/23/9 12/26/9 15/32/9
f 6/33/10 7/34/10 17/35/10 16/36/10
f 8/37/11 9/38/11 19/39/11 18/40/11
f 7/34/12 10/41/12 20/42/12 17/35/12
f 9/38/13 6/33/13 16/36/13 19/39/13
f 10/41/14 8/37/14 18/40/14 20/42/14
