# Blender v2.78 (sub 0) OBJ File: 'Low_Poly_Trees_Pack.blend'
# www.blender.org
g Acacia_Firewood_03
v -0.267845 -0.000003 -0.061083
v -0.263881 0.077611 -0.085993
v -0.268650 0.125584 0.009767
v -0.260475 0.077619 0.070766
v -0.263824 0.000002 0.045776
v 0.281157 -0.000003 -0.040641
v 0.281157 0.077611 -0.065865
v 0.281157 0.125584 0.000155
v 0.281157 0.077619 0.066182
v 0.281157 0.000002 0.040968
v -0.269011 -0.000001 0.007072
v -0.166217 0.000002 0.040968
v -0.166217 -0.000003 -0.040641
v -0.166217 0.125584 0.000155
v -0.166217 0.077619 0.066182
v -0.166217 0.077611 -0.065865
v -0.166217 -0.000001 -0.000617
v 0.281157 -0.000000 0.001329
v -0.273898 0.125584 -0.023045
v -0.273470 -0.000001 -0.025730
vt 0.4900 0.8377
vt 0.4110 0.8448
vt 0.4104 0.8378
vt 0.4900 0.7943
vt 0.4107 0.8086
vt 0.4106 0.7941
vt 0.4900 0.8232
vt 0.4099 0.8232
vt 0.4901 0.7798
vt 0.4108 0.7797
vt 0.4900 0.8088
vt 0.8577 0.6639
vt 0.8403 0.6851
vt 0.8403 0.6501
vt 0.7914 0.7073
vt 0.8187 0.7005
vt 0.7984 0.7290
vt 0.8212 0.7290
vt 0.8282 0.7073
vt 0.7809 0.6852
vt 0.7635 0.6631
vt 0.7809 0.6502
vt 0.3919 0.8101
vt 0.3923 0.8237
vt 0.3938 0.7939
vt 0.3935 0.7795
vt 0.3925 0.8376
vt 0.3926 0.8076
vt 0.3925 0.8435
vt 0.8096 0.6851
vt 0.3937 0.8530
vt 0.3928 0.8461
vt 0.4900 0.8451
vt 0.4110 0.8521
vt 0.8503 0.6853
vt 0.8098 0.6940
vt 0.7700 0.6849
vt 0.8096 0.6501
vt 0.4901 0.8522
vn 0.0000 -1.0000 0.0001
vn 0.0000 0.8091 0.5877
vn 0.0000 -0.3091 -0.9510
vn 0.0000 -0.3090 0.9511
vn 0.0000 0.8090 -0.5878
vn -0.9876 -0.0000 -0.1571
vn 1.0000 -0.0000 0.0000
vn -0.9911 0.0000 0.1328
vn 0.1215 0.7987 -0.5894
vn 0.0468 -0.3080 0.9502
vn 0.1920 -0.3088 -0.9316
vn 0.0299 0.7877 0.6154
vn -0.2279 -0.0216 0.9734
vn -0.0746 0.0216 -0.9970
vn 0.1257 0.8026 -0.5832
vn 0.0462 -0.3086 0.9501
vn 0.1879 -0.3036 -0.9341
vn 0.0551 0.8078 0.5868
vn -0.2106 -0.0060 0.9775
vn -0.0934 0.0061 -0.9956
s off
f 6/1/1 17/2/1 13/3/1
f 9/4/2 14/5/2 15/6/2
f 7/7/3 13/3/3 16/8/3
f 10/9/4 15/6/4 12/10/4
f 8/11/5 16/8/5 14/5/5
f 2/12/6 20/13/6 19/14/6
f 9/15/7 18/16/7 8/17/7
f 7/18/7 18/16/7 6/19/7
f 11/20/8 4/21/8 3/22/8
f 19/23/9 16/8/9 2/24/9
f 12/10/10 4/25/10 5/26/10
f 16/8/11 1/27/11 2/24/11
f 15/6/12 3/28/12 4/25/12
f 13/3/1 20/29/1 1/27/1
f 17/30/13 19/14/13 20/13/13
f 17/2/1 5/31/1 11/32/1
f 18/33/1 12/34/1 17/2/1
f 3/22/14 17/30/14 11/20/14
f 6/1/1 18/33/1 17/2/1
f 9/4/2 8/11/2 14/5/2
f 7/7/3 6/1/3 13/3/3
f 10/9/4 9/4/4 15/6/4
f 8/11/5 7/7/5 16/8/5
f 2/12/6 1/35/6 20/13/6
f 9/15/7 10/36/7 18/16/7
f 7/18/7 8/17/7 18/16/7
f 11/20/8 5/37/8 4/21/8
f 19/23/15 14/5/15 16/8/15
f 12/10/16 15/6/16 4/25/16
f 16/8/17 13/3/17 1/27/17
f 15/6/18 14/5/18 3/28/18
f 13/3/1 17/2/1 20/29/1
f 17/30/19 14/38/19 19/14/19
f 17/2/1 12/34/1 5/31/1
f 18/33/1 10/39/1 12/34/1
f 3/22/20 14/38/20 17/30/20
