# Blender v2.78 (sub 0) OBJ File: 'Low_Poly_Trees_Pack.blend'
# www.blender.org
g Acacia_Firewood_04
v -0.253538 -0.000003 -0.051877
v -0.249574 0.077611 -0.076787
v -0.271138 0.125584 0.012755
v -0.262964 0.077619 0.073755
v -0.266313 0.000002 0.048764
v 0.306081 -0.000003 -0.048685
v 0.303519 0.077611 -0.073778
v 0.299436 0.125584 0.009674
v 0.290530 0.077619 0.075098
v 0.293931 0.000002 0.050114
v 0.001157 0.000002 0.040968
v 0.001157 -0.000003 -0.040641
v -0.148982 0.125584 0.000155
v -0.148982 0.077619 0.066182
v -0.148982 0.077611 -0.065865
v 0.001157 -0.000001 -0.000617
v 0.309490 -0.000000 -0.015297
v -0.259590 0.125584 -0.013839
v -0.259163 -0.000001 -0.016524
v 0.170546 -0.000003 -0.040641
v 0.108916 -0.000003 -0.040641
v 0.182238 0.077611 -0.065865
v 0.116881 0.077611 -0.065865
v 0.190182 -0.000523 -0.142865
v 0.146165 -0.000523 -0.153400
v 0.202844 0.027405 -0.158881
v 0.156164 0.027405 -0.170053
v 0.189094 0.125584 0.000155
v 0.185943 0.077619 0.066182
v 0.176134 -0.000000 0.000599
v 0.181604 0.000002 0.040968
v 0.309371 0.125584 -0.016465
v 0.299278 -0.000000 0.010837
vt 0.5798 0.8406
vt 0.5895 0.8467
vt 0.5640 0.8464
vt 0.5913 0.8043
vt 0.5418 0.8165
vt 0.5415 0.8045
vt 0.5810 0.8285
vt 0.5639 0.8405
vt 0.5415 0.8286
vt 0.5638 0.7924
vt 0.5915 0.8163
vt 0.7798 0.6878
vt 0.7912 0.6735
vt 0.7915 0.6968
vt 0.7804 0.6613
vt 0.7910 0.6458
vt 0.7935 0.6689
vt 0.8478 0.6612
vt 0.8385 0.6458
vt 0.8447 0.6464
vt 0.8086 0.7189
vt 0.8326 0.7225
vt 0.8190 0.7290
vt 0.5257 0.8174
vt 0.5265 0.8289
vt 0.5244 0.7925
vt 0.5246 0.8044
vt 0.5263 0.8407
vt 0.5239 0.8157
vt 0.5258 0.8459
vt 0.8122 0.6964
vt 0.5893 0.7863
vt 0.5638 0.7863
vt 0.8395 0.6726
vt 0.8004 0.7034
vt 0.7942 0.7107
vt 0.7942 0.7023
vt 0.5634 0.7813
vt 0.5613 0.7652
vt 0.5664 0.7657
vt 0.5908 0.8285
vt 0.6090 0.8406
vt 0.5889 0.8406
vt 0.5733 0.7669
vt 0.5723 0.7849
vt 0.5915 0.7788
vt 0.5782 0.7681
vt 0.5843 0.7652
vt 0.5844 0.7845
vt 0.6069 0.7921
vt 0.6067 0.8040
vt 0.6092 0.8455
vt 0.6089 0.8286
vt 0.6076 0.8158
vt 0.5904 0.7922
vt 0.6072 0.7864
vt 0.8139 0.6667
vt 0.8362 0.6689
vt 0.7846 0.6734
vt 0.7837 0.6465
vt 0.8004 0.7123
vt 0.5519 0.7774
vt 0.6094 0.8176
vt 0.8137 0.6433
vn -0.0000 -1.0000 0.0001
vn 0.0000 0.8091 0.5877
vn 0.0000 -0.3091 -0.9510
vn 0.0000 -0.3090 0.9511
vn 0.0000 0.8090 -0.5878
vn -0.9876 -0.0000 -0.1571
vn 0.9909 -0.0000 0.1349
vn 0.9948 -0.0000 -0.1016
vn -0.9911 -0.0000 0.1328
vn 0.0650 0.7986 -0.5983
vn 0.0631 -0.3083 0.9492
vn 0.1027 -0.3087 -0.9456
vn 0.0408 0.7881 0.6142
vn -0.1255 -0.0216 0.9919
vn -0.1776 -0.2065 -0.9622
vn 0.1940 -0.5527 -0.8105
vn 0.9171 -0.2286 0.3265
vn -0.0565 -0.3009 -0.9520
vn 0.0000 0.9009 -0.4341
vn -0.0012 -1.0000 0.0049
vn -0.9495 -0.0045 -0.3136
vn -0.0808 -0.3086 0.9478
vn -0.0382 0.8103 -0.5848
vn -0.0506 0.8087 0.5860
vn 0.1369 0.0093 0.9905
vn 0.0859 -0.0093 -0.9963
vn 0.0742 0.8067 -0.5862
vn 0.0281 -0.2592 0.9654
vn 0.0429 -0.2328 -0.9716
vn 0.0605 0.8076 0.5867
vn -0.0608 -0.0788 0.9950
vn -0.0986 -0.2778 -0.9556
vn 0.9783 -0.0862 0.1884
vn -0.0619 -0.3089 -0.9491
vn 0.1085 0.8847 -0.4534
vn 0.0000 -1.0000 0.0046
vn -0.9156 0.0947 -0.3909
vn -0.0773 -0.3041 0.9495
vn -0.0876 0.7683 -0.6341
vn -0.0499 0.8092 0.5854
vn 0.1184 -0.0087 0.9929
vn 0.0828 -0.0121 -0.9965
s off
f 21/1/1 30/2/1 16/3/1
f 29/4/2 13/5/2 14/6/2
f 23/7/3 12/8/3 15/9/3
f 11/10/4 29/4/4 14/6/4
f 28/11/5 23/7/5 13/5/5
f 2/12/6 19/13/6 18/14/6
f 9/15/7 33/16/7 8/17/7
f 7/18/8 17/19/8 6/20/8
f 3/21/9 5/22/9 4/23/9
f 18/24/10 15/9/10 2/25/10
f 5/26/11 14/6/11 4/27/11
f 15/9/12 1/28/12 2/25/12
f 14/6/13 3/29/13 4/27/13
f 1/28/1 16/3/1 19/30/1
f 19/13/14 13/31/14 18/14/14
f 30/32/1 11/10/1 16/33/1
f 5/22/15 13/31/15 16/34/15
f 27/35/16 24/36/16 25/37/16
f 22/38/17 24/39/17 26/40/17
f 22/41/18 6/42/18 20/43/18
f 22/38/19 27/44/19 23/45/19
f 20/46/20 25/47/20 24/48/20
f 23/45/21 25/47/21 21/49/21
f 29/4/22 10/50/22 9/51/22
f 30/2/1 6/42/1 17/52/1
f 28/11/23 7/53/23 22/41/23
f 28/11/24 9/51/24 8/54/24
f 31/55/1 33/56/1 10/50/1
f 28/57/25 17/19/25 32/58/25
f 33/16/26 28/57/26 8/17/26
f 16/3/1 12/8/1 21/1/1
f 21/1/1 20/43/1 30/2/1
f 29/4/2 28/11/2 13/5/2
f 23/7/3 21/1/3 12/8/3
f 11/10/4 31/55/4 29/4/4
f 15/9/5 13/5/5 23/7/5
f 28/11/5 22/41/5 23/7/5
f 2/12/6 1/59/6 19/13/6
f 9/15/7 10/60/7 33/16/7
f 7/18/8 32/58/8 17/19/8
f 18/24/27 13/5/27 15/9/27
f 5/26/28 11/10/28 14/6/28
f 15/9/29 12/8/29 1/28/29
f 14/6/30 13/5/30 3/29/30
f 1/28/1 12/8/1 16/3/1
f 19/13/31 16/34/31 13/31/31
f 5/26/1 16/33/1 11/10/1
f 30/32/1 31/55/1 11/10/1
f 5/22/32 3/21/32 13/31/32
f 27/35/16 26/61/16 24/36/16
f 22/38/33 20/62/33 24/39/33
f 22/41/34 7/53/34 6/42/34
f 22/38/35 26/40/35 27/44/35
f 20/46/36 21/49/36 25/47/36
f 23/45/37 27/44/37 25/47/37
f 29/4/38 31/55/38 10/50/38
f 30/2/1 20/43/1 6/42/1
f 28/11/39 32/63/39 7/53/39
f 28/11/40 29/4/40 9/51/40
f 31/55/1 30/32/1 33/56/1
f 28/57/41 30/64/41 17/19/41
f 33/16/42 30/64/42 28/57/42
