# Blender v2.78 (sub 0) OBJ File: 'Low_Poly_Trees_Pack.blend'
# www.blender.org
g Acacia_Firewood_02
v -0.255579 -0.000003 -0.040641
v -0.235251 0.077611 -0.065865
v -0.252363 0.125584 0.000155
v -0.278843 0.077619 0.066182
v -0.278843 0.000002 0.040968
v 0.270857 -0.000003 -0.040641
v 0.254019 0.077611 -0.065865
v 0.226906 0.125584 0.000155
v 0.225447 0.077619 0.066182
v 0.245866 0.000002 0.040968
v -0.002368 -0.000003 -0.040641
v -0.074883 -0.000003 -0.040641
v -0.010056 0.077611 -0.065865
v -0.086791 0.077611 -0.065865
v -0.020496 0.004725 -0.116733
v -0.060856 0.004725 -0.116733
v -0.025650 0.040929 -0.133271
v -0.061366 0.040929 -0.133271
vt 0.5672 0.8237
vt 0.6055 0.8362
vt 0.5246 0.8362
vt 0.6023 0.7859
vt 0.5286 0.7985
vt 0.5246 0.7859
vt 0.5313 0.8111
vt 0.5560 0.8237
vt 0.5281 0.8237
vt 0.5246 0.7733
vt 0.6025 0.7985
vt 0.5660 0.8111
vt 0.8093 0.6502
vt 0.8245 0.6917
vt 0.8014 0.6759
vt 0.8473 0.6759
vt 0.8376 0.6502
vt 0.8018 0.6799
vt 0.7871 0.7214
vt 0.7790 0.6957
vt 0.8155 0.7214
vt 0.8251 0.6956
vt 0.7910 0.6804
vt 0.7794 0.6672
vt 0.7927 0.6672
vt 0.5544 0.8529
vt 0.5654 0.8439
vt 0.5657 0.8564
vt 0.6067 0.8111
vt 0.6093 0.8237
vt 0.5780 0.8534
vt 0.5761 0.8391
vt 0.5862 0.8457
vt 0.5715 0.8434
vt 0.5549 0.8391
vt 0.5602 0.8423
vt 0.5542 0.8111
vt 0.6055 0.7733
vt 0.7779 0.6789
vt 0.5444 0.8451
vn 0.0000 -1.0000 0.0001
vn 0.0000 0.8091 0.5877
vn 0.0000 -0.3091 -0.9510
vn 0.0000 -0.3090 0.9511
vn 0.0000 0.8090 -0.5878
vn -0.9579 0.0887 -0.2731
vn -0.9313 0.1339 -0.3387
vn 0.9656 0.1999 0.1666
vn 0.9440 0.2676 0.1932
vn 0.0000 -0.4155 -0.9096
vn 0.0000 0.8784 -0.4780
vn 0.0000 -0.9981 -0.0620
vn -0.9593 -0.2089 -0.1898
vn 0.9704 0.0285 -0.2400
vn -0.9485 0.1196 -0.2935
vn 0.9299 0.2329 0.2847
vn -0.9492 -0.1417 -0.2809
vn 0.9729 0.0215 -0.2304
s off
f 11/1/1 10/2/1 5/3/1
f 9/4/2 3/5/2 4/6/2
f 2/7/3 12/8/3 1/9/3
f 5/10/4 9/4/4 4/6/4
f 8/11/5 13/12/5 3/5/5
f 4/13/6 1/14/6 5/15/6
f 2/16/7 1/14/7 3/17/7
f 10/18/8 8/19/8 9/20/8
f 7/21/9 8/19/9 6/22/9
f 16/23/10 17/24/10 15/25/10
f 13/26/11 18/27/11 14/28/11
f 11/1/3 7/29/3 6/30/3
f 12/31/12 15/32/12 11/33/12
f 14/28/13 16/34/13 12/31/13
f 13/26/14 15/35/14 17/36/14
f 5/3/1 1/9/1 12/8/1
f 11/1/1 6/30/1 10/2/1
f 5/3/1 12/8/1 11/1/1
f 9/4/2 8/11/2 3/5/2
f 2/7/3 14/37/3 12/8/3
f 5/10/4 10/38/4 9/4/4
f 2/7/5 3/5/5 14/37/5
f 8/11/5 7/29/5 13/12/5
f 14/37/5 3/5/5 13/12/5
f 4/13/15 3/17/15 1/14/15
f 10/18/16 6/22/16 8/19/16
f 16/23/10 18/39/10 17/24/10
f 13/26/11 17/36/11 18/27/11
f 11/1/3 13/12/3 7/29/3
f 12/31/12 16/34/12 15/32/12
f 14/28/17 18/27/17 16/34/17
f 13/26/18 11/40/18 15/35/18
