# Blender v2.78 (sub 0) OBJ File: 'Low_Poly_Trees_Pack.blend'
# www.blender.org
g Oak_Log_04
v 0.775366 0.025563 -0.129433
v 0.777873 0.024977 0.088074
v 0.773976 0.236231 0.154259
v 0.768903 0.369708 -0.031567
v 0.770120 0.230880 -0.192238
v -0.790997 0.022516 0.119527
v -0.759202 0.022667 -0.048894
v -0.785673 0.271477 0.050649
v -0.783313 0.168512 0.191956
v -0.805448 0.169551 -0.086364
v 0.778661 -0.000926 0.107054
v 0.775715 -0.000237 -0.148588
v 0.774101 0.246336 0.184521
v 0.768161 0.402603 -0.033033
v 0.769592 0.239416 -0.221896
v -0.785171 -0.000237 0.136358
v -0.747666 -0.000790 -0.068319
v -0.783778 0.303486 0.050330
v -0.780131 0.176381 0.224545
v -0.801640 0.181628 -0.113293
vt 0.9255 0.6442
vt 0.9228 0.6975
vt 0.9180 0.6959
vt 0.9194 0.6439
vt 0.9074 0.6440
vt 0.9086 0.6971
vt 0.9034 0.6974
vt 0.9010 0.6443
vt 0.9135 0.6976
vt 0.9134 0.6438
vt 0.9317 0.6446
vt 0.9275 0.6976
vt 0.8028 0.6729
vt 0.8029 0.6548
vt 0.8199 0.6495
vt 0.8195 0.6757
vt 0.8311 0.6621
vt 0.7825 0.7165
vt 0.8076 0.6979
vt 0.8031 0.7165
vt 0.7763 0.6976
vt 0.7922 0.6862
vt 0.9578 0.6902
vt 0.9419 0.7016
vt 0.9391 0.7007
vt 0.9578 0.6873
vt 0.9481 0.7205
vt 0.9464 0.7228
vt 0.9687 0.7205
vt 0.9705 0.7228
vt 0.9731 0.7019
vt 0.9757 0.7010
vt 0.9698 0.6736
vt 0.9814 0.6600
vt 0.9850 0.6600
vt 0.9707 0.6765
vt 0.9532 0.6527
vt 0.9532 0.6708
vt 0.9505 0.6731
vt 0.9505 0.6508
vt 0.9703 0.6474
vt 0.9708 0.6445
vn -0.0001 -1.0000 -0.0003
vn -0.0208 0.8098 0.5863
vn -0.0534 -0.2765 -0.9595
vn 0.0288 -0.3639 0.9310
vn -0.0774 0.7770 -0.6247
vn -0.9931 0.0861 0.0793
vn -0.9968 0.0131 0.0793
vn -0.9255 -0.3360 -0.1750
vn 0.9997 0.0220 -0.0115
vn -0.9254 -0.3381 -0.1715
vn -0.9951 0.0700 0.0700
vn -0.9162 -0.3342 -0.2212
vn -0.9851 -0.0439 0.1663
vn -0.9899 0.1402 0.0196
s off
f 11/1/1 16/2/1 17/3/1 12/4/1
f 14/5/2 18/6/2 19/7/2 13/8/2
f 12/4/3 17/3/3 20/9/3 15/10/3
f 13/11/4 19/12/4 16/2/4 11/1/4
f 15/10/5 20/9/5 18/6/5 14/5/5
f 9/13/6 8/14/6 10/15/6
f 6/16/7 9/13/7 10/15/7
f 7/17/8 6/16/8 10/15/8
f 3/18/9 5/19/9 4/20/9
f 2/21/9 1/22/9 5/19/9 3/18/9
f 1/23/9 2/24/9 11/25/9 12/26/9
f 2/24/9 3/27/9 13/28/9 11/25/9
f 3/27/9 4/29/9 14/30/9 13/28/9
f 4/29/9 5/31/9 15/32/9 14/30/9
f 5/31/9 1/23/9 12/26/9 15/32/9
f 6/33/10 7/34/10 17/35/10 16/36/10
f 8/37/11 9/38/11 19/39/11 18/40/11
f 7/34/12 10/41/12 20/42/12 17/35/12
f 9/38/13 6/33/13 16/36/13 19/39/13
f 10/41/14 8/37/14 18/40/14 20/42/14
