# Blender v2.78 (sub 0) OBJ File: 'Low_Poly_Trees_Pack.blend'
# www.blender.org
g Oak_Log_08
v -1.448749 0.291710 -0.322949
v -1.418130 0.476864 -0.242454
v -1.472678 0.534441 -0.057611
v -1.475801 0.399392 0.139190
v -1.450612 0.257777 0.163084
v -1.435336 0.094780 0.082589
v -1.415021 0.037203 -0.089321
v -1.447461 0.118774 -0.251943
v 1.412284 0.216684 -0.197293
v 1.412284 0.355243 -0.139900
v 1.455500 0.412635 -0.001342
v 1.455500 0.355243 0.137217
v 1.412284 0.216684 0.194610
v 1.412284 0.078125 0.137217
v 1.441430 0.020733 -0.001342
v 1.416869 0.074828 -0.163707
v -0.343737 -0.008544 0.024129
v 1.250636 -0.008140 0.002429
v 1.253976 0.034572 -0.145090
v -0.350164 0.051379 -0.170480
v -0.378454 0.301962 0.262118
v 1.251795 0.223352 0.226890
v 1.251706 0.061117 0.162595
v -0.343219 0.086415 0.208076
v -0.365408 0.532892 -0.020205
v 1.249428 0.447820 -0.004563
v 1.250852 0.383530 0.157650
v -0.385618 0.450193 0.190355
v -0.359901 0.239754 -0.267585
v 1.248269 0.216328 -0.229024
v 1.248358 0.378563 -0.164729
v -0.365978 0.437810 -0.204387
v -1.416829 0.504099 -0.266070
v -1.445135 0.294277 -0.358747
v -1.474451 0.570389 -0.055212
v -1.479609 0.422996 0.166200
v -1.454226 0.255210 0.198882
v -1.436638 0.067546 0.106205
v -1.413248 0.001255 -0.091720
v -1.443652 0.095171 -0.278953
v -1.127195 0.286090 -0.281351
v -1.142472 0.449087 -0.200856
v -1.162787 0.506664 -0.028947
v -1.176242 0.425093 0.133676
v -1.174954 0.252158 0.191748
v -1.159677 0.089161 0.111253
v -1.139362 0.031584 -0.060656
v -1.125907 0.113155 -0.223278
v 1.412284 0.377962 -0.162619
v 1.412284 0.216684 -0.229423
v 1.455500 0.444765 -0.001342
v 1.455500 0.377962 0.159936
v 1.412284 0.216684 0.226739
v 1.412284 0.055406 0.159936
v 1.441430 -0.011397 -0.001342
v 1.416869 0.052109 -0.186426
v 1.257806 0.216684 -0.197293
v 1.257806 0.355243 -0.139900
v 1.257806 0.412635 -0.001342
v 1.257806 0.355243 0.137217
v 1.257806 0.216684 0.194610
v 1.257806 0.078125 0.137217
v 1.257806 0.020733 -0.001342
v 1.257806 0.078125 -0.139900
v -1.126478 0.080122 -0.239872
v -1.149545 0.068952 0.145822
v -1.095479 0.454637 0.169457
v -1.046607 0.463885 -0.226841
v -1.062055 -0.005842 -0.042301
v -1.161576 0.260107 0.230866
v -1.066121 0.541104 -0.033108
v -1.092161 0.274284 -0.312602
v 1.447982 0.025730 -0.142410
v 1.447982 0.048449 -0.119692
v -0.550613 0.297056 0.253766
v -0.556141 0.447581 0.187355
v -0.476146 0.446901 0.563683
v -0.446243 0.503177 0.542054
v -0.542693 0.455267 0.558153
v -0.494308 0.546323 0.523156
v -0.586069 0.367040 0.224688
v -0.553917 0.516713 0.533106
v -0.424032 0.350324 0.432818
v -0.542658 0.351917 0.425781
v -0.521229 0.472708 0.375076
v -0.412352 0.452575 0.386032
v -0.565998 0.417633 0.398718
vt 0.9727 0.6947
vt 0.9787 0.6949
vt 0.9786 0.6995
vt 0.9726 0.6997
vt 0.9737 0.6599
vt 0.9794 0.6600
vt 0.9789 0.6662
vt 0.9734 0.6658
vt 0.9730 0.6713
vt 0.9790 0.6718
vt 0.9788 0.6766
vt 0.9727 0.6768
vt 0.9727 0.6823
vt 0.9782 0.6821
vt 0.9781 0.6880
vt 0.9727 0.6881
vt 0.9782 0.6937
vt 0.9738 0.6540
vt 0.9802 0.6539
vt 0.8982 0.6872
vt 0.8984 0.6921
vt 0.8897 0.6930
vt 0.8895 0.6878
vt 0.9092 0.7107
vt 0.9121 0.7096
vt 0.9128 0.7141
vt 0.9112 0.7149
vt 0.9282 0.6763
vt 0.9280 0.6822
vt 0.9282 0.6653
vt 0.9279 0.6699
vt 0.9293 0.6533
vt 0.9293 0.6591
vt 0.9280 0.6880
vt 0.9076 0.6872
vt 0.9088 0.6815
vt 0.9283 0.6940
vt 0.9232 0.6697
vt 0.9085 0.6757
vt 0.9079 0.6695
vt 0.9235 0.6651
vt 0.9063 0.6637
vt 0.9067 0.6579
vt 0.9285 0.6997
vt 0.9088 0.6985
vt 0.9069 0.6928
vt 0.8974 0.6817
vt 0.8988 0.6816
vt 0.8988 0.6872
vt 0.8972 0.6760
vt 0.8977 0.6760
vt 0.8960 0.6695
vt 0.8972 0.6690
vt 0.8966 0.6674
vt 0.8969 0.6629
vt 0.8980 0.6632
vt 0.8972 0.6680
vt 0.8976 0.6572
vt 0.8986 0.6572
vt 0.8982 0.6517
vt 0.8991 0.6513
vt 0.8981 0.6970
vt 0.8990 0.6921
vt 0.8994 0.6973
vt 0.6688 0.9399
vt 0.6579 0.9287
vt 0.6582 0.9132
vt 0.6694 0.9023
vt 0.8892 0.6558
vt 0.8900 0.6504
vt 0.8877 0.6666
vt 0.8885 0.6612
vt 0.8894 0.6826
vt 0.8887 0.6774
vt 0.8903 0.6982
vt 0.8877 0.6722
vt 0.9796 0.6992
vt 0.9793 0.6953
vt 0.9855 0.6943
vt 0.9855 0.6991
vt 0.9796 0.6821
vt 0.9792 0.6879
vt 0.9793 0.6766
vt 0.9796 0.6718
vt 0.9803 0.6663
vt 0.9806 0.6601
vt 0.9809 0.6544
vt 0.9787 0.6932
vt 0.7118 0.9397
vt 0.7009 0.9288
vt 0.7009 0.9133
vt 0.7118 0.9024
vt 0.9865 0.6609
vt 0.9862 0.6663
vt 0.9864 0.6717
vt 0.9861 0.6773
vt 0.9854 0.6828
vt 0.9849 0.6883
vt 0.9845 0.6938
vt 0.9874 0.6556
vt 0.6844 0.9402
vt 0.6850 0.9026
vt 0.6956 0.9294
vt 0.6958 0.9138
vt 0.7382 0.9288
vt 0.7273 0.9397
vt 0.7273 0.9024
vt 0.7382 0.9133
vt 0.9090 0.6521
vt 0.9432 0.7041
vt 0.9409 0.7053
vt 0.9326 0.7051
vt 0.9325 0.7041
vt 0.9801 0.6931
vt 0.9800 0.6932
vt 0.9224 0.6672
vt 0.6868 0.9496
vt 0.7058 0.9496
vt 0.7117 0.9677
vt 0.9152 0.7093
vt 0.9185 0.7100
vt 0.9164 0.7144
vt 0.9146 0.7140
vt 0.9205 0.7109
vt 0.9181 0.7148
vt 0.9228 0.7064
vt 0.9246 0.7077
vt 0.9223 0.7119
vt 0.9197 0.7154
vt 0.9117 0.7048
vt 0.9162 0.7037
vt 0.9208 0.7049
vt 0.9073 0.7061
vt 0.6809 0.9677
vt 0.6963 0.9788
vn -0.0310 -0.9631 -0.2675
vn -0.0064 -0.3756 0.9268
vn 0.0144 0.9267 0.3755
vn 0.0051 0.3756 -0.9268
vn -0.1003 -0.3450 -0.9332
vn -0.0164 -0.9213 0.3885
vn 0.0076 0.3889 0.9213
vn 0.0147 0.9201 -0.3915
vn -0.0958 0.3474 0.9328
vn -0.0833 -0.8015 0.5922
vn 0.0477 0.9014 -0.4304
vn 0.0374 0.4163 0.9084
vn 0.0020 -0.9025 0.4307
vn 0.0597 0.3527 -0.9338
vn 0.0124 -0.4389 -0.8984
vn 0.0017 0.9220 0.3871
vn 0.0314 0.3339 -0.9421
vn -0.0439 -0.3307 0.9427
vn 0.0453 0.9286 0.3684
vn 0.0122 -0.9365 -0.3506
vn 0.0143 -0.2977 0.9546
vn -0.0046 -0.9578 -0.2873
vn -0.9886 0.1503 -0.0064
vn -0.9652 -0.0897 -0.2456
vn -0.9961 -0.0627 -0.0621
vn -0.9834 -0.1715 -0.0588
vn -0.9938 -0.0421 -0.1033
vn -0.9841 -0.1439 0.1046
vn -0.9937 -0.0484 -0.1012
vn 0.0517 0.9488 -0.3117
vn 0.0476 -0.2481 -0.9676
vn -0.1240 -0.9516 0.2811
vn -0.0263 0.8929 0.4494
vn 0.1015 0.4481 -0.8882
vn 0.0167 -0.8567 -0.5156
vn -0.1483 -0.4097 0.9001
vn 0.0582 0.9472 0.3153
vn 1.0000 -0.0000 0.0000
vn 0.9663 -0.0985 -0.2378
vn 0.9663 -0.2378 0.0985
vn 0.9842 0.0677 0.1633
vn 0.9988 -0.0189 0.0457
vn 0.9996 0.0271 -0.0112
vn -0.0000 0.3827 -0.9239
vn -0.0000 -0.9239 -0.3827
vn 0.0000 -0.3827 0.9239
vn 0.0752 0.3088 0.9481
vn -0.0000 0.9239 -0.3827
vn -0.0000 -0.3827 -0.9239
vn 0.0000 -0.9239 0.3827
vn 0.0268 -0.9030 -0.4287
vn -0.1061 -0.4291 0.8970
vn -0.0180 0.8761 0.4818
vn 0.1397 0.3822 -0.9134
vn 0.0984 -0.3670 -0.9250
vn -0.0543 -0.9428 0.3290
vn -0.0641 0.2576 0.9641
vn 0.1089 0.9432 -0.3138
vn -0.0692 0.8017 -0.5937
vn 0.0908 -0.7042 0.7042
vn 0.1824 0.6952 -0.6952
vn 0.2575 -0.1366 0.9566
vn 0.0190 0.1167 -0.9930
vn 0.0332 0.9100 -0.4132
vn -0.0398 -0.2491 0.9677
vn -0.0207 0.9313 0.3638
vn 0.0520 -0.4080 -0.9115
vn -0.0258 -0.9117 0.4099
vn -0.0566 0.3585 0.9318
vn -0.0302 0.3726 0.9275
vn 0.4065 0.8490 -0.3375
vn -0.6567 0.6804 -0.3253
vn 0.9373 -0.1020 0.3333
vn -0.9277 -0.3294 0.1755
vn -0.0412 0.3503 0.9357
vn -0.9649 -0.1864 0.1850
vn 0.9805 0.0694 0.1839
vn -0.8699 0.4923 0.0292
vn 0.0660 0.9952 -0.0728
vn -0.0043 -0.9576 0.2880
s off
f 19/1/1 73/2/1 55/3/1 18/4/1
f 23/5/2 54/6/2 53/7/2 22/8/2
f 27/9/3 52/10/3 51/11/3 26/12/3
f 31/13/4 49/14/4 50/15/4 30/16/4
f 30/16/5 50/15/5 56/17/5 19/1/5
f 18/18/6 55/19/6 54/6/6 23/5/6
f 22/8/7 53/7/7 52/10/7 27/9/7
f 26/12/8 51/11/8 49/14/8 31/13/8
f 1/20/9 8/21/9 48/22/9 41/23/9
f 84/24/10 83/25/10 77/26/10 79/27/10
f 25/28/11 26/12/11 31/13/11 32/29/11
f 21/30/12 22/8/12 27/9/12 28/31/12
f 17/32/13 18/18/13 23/5/13 24/33/13
f 32/29/14 29/34/14 72/35/14 68/36/14
f 29/34/15 30/16/15 19/1/15 20/37/15
f 76/38/16 25/28/16 71/39/16 67/40/16
f 32/29/17 31/13/17 30/16/17 29/34/17
f 24/33/18 75/41/18 70/42/18 66/43/18
f 28/31/19 27/9/19 26/12/19 25/28/19
f 20/37/20 17/44/20 69/45/20 65/46/20
f 24/33/21 23/5/21 22/8/21 21/30/21
f 20/37/22 19/1/22 18/4/22 17/44/22
f 1/20/23 2/47/23 33/48/23 34/49/23
f 2/47/24 3/50/24 35/51/24 33/48/24
f 3/50/25 4/52/25 36/53/25 35/51/25
f 4/54/26 5/55/26 37/56/26 36/57/26
f 5/55/27 6/58/27 38/59/27 37/56/27
f 6/58/27 7/60/27 39/61/27 38/59/27
f 7/62/28 8/21/28 40/63/28 39/64/28
f 8/21/29 1/20/29 34/49/29 40/63/29
f 42/65/27 41/66/27 48/67/27 47/68/27
f 7/60/30 6/58/30 46/69/30 47/70/30
f 5/55/31 4/54/31 44/71/31 45/72/31
f 3/50/32 2/47/32 42/73/32 43/74/32
f 8/21/33 7/62/33 47/75/33 48/22/33
f 6/58/34 5/55/34 45/72/34 46/69/34
f 4/52/35 3/50/35 43/74/35 44/76/35
f 2/47/36 1/20/36 41/23/36 42/73/36
f 15/77/37 74/78/37 64/79/37 63/80/37
f 10/81/38 9/82/38 50/15/38 49/14/38
f 11/83/39 10/81/39 49/14/39 51/11/39
f 12/84/38 11/83/38 51/11/38 52/10/38
f 13/85/40 12/84/40 52/10/40 53/7/40
f 14/86/38 13/85/38 53/7/38 54/6/38
f 15/87/41 14/86/41 54/6/41 55/19/41
f 74/78/42 15/77/42 55/3/42 73/2/42
f 9/82/43 16/88/43 56/17/43 50/15/43
f 59/89/38 60/90/38 61/91/38 62/92/38
f 13/85/44 14/86/44 62/93/44 61/94/44
f 11/83/45 12/84/45 60/95/45 59/96/45
f 9/82/46 10/81/46 58/97/46 57/98/46
f 16/88/47 9/82/47 57/98/47 64/99/47
f 14/86/48 15/87/48 63/100/48 62/93/48
f 12/84/49 13/85/49 61/94/49 60/95/49
f 10/81/50 11/83/50 59/96/50 58/97/50
f 43/101/27 42/65/27 47/68/27 46/102/27
f 44/103/27 43/101/27 46/102/27 45/104/27
f 57/105/38 58/106/38 63/107/38 64/108/38
f 58/106/38 59/89/38 62/92/38 63/107/38
f 40/63/51 65/46/51 69/45/51 39/64/51
f 38/59/52 66/43/52 70/42/52 37/56/52
f 36/53/53 67/40/53 71/39/53 35/51/53
f 33/48/54 68/36/54 72/35/54 34/49/54
f 34/49/55 72/35/55 65/46/55 40/63/55
f 39/61/56 69/109/56 66/43/56 38/59/56
f 37/56/57 70/42/57 67/40/57 36/57/57
f 35/51/58 71/39/58 68/36/58 33/48/58
f 67/110/59 44/111/59 4/112/59 36/113/59
f 56/17/60 16/88/60 64/114/60
f 64/114/61 74/78/61 73/2/61
f 19/115/62 56/17/62 64/114/62
f 19/115/63 64/114/63 73/2/63
f 71/39/64 25/28/64 32/29/64 68/36/64
f 24/33/65 21/30/65 75/41/65
f 28/31/66 25/28/66 76/38/66
f 72/35/67 29/34/67 20/37/67 65/46/67
f 69/109/68 17/32/68 24/33/68 66/43/68
f 70/42/69 75/41/69 81/116/69
f 79/117/70 77/118/70 78/119/70
f 86/120/71 85/121/71 80/122/71 78/123/71
f 85/121/72 87/124/72 82/125/72 80/122/72
f 83/25/73 86/120/73 78/123/73 77/26/73
f 87/124/74 81/126/74 75/127/74 84/128/74
f 81/116/75 76/38/75 67/40/75 70/42/75
f 82/125/76 87/124/76 84/128/76 79/129/76
f 21/130/77 28/131/77 86/120/77 83/25/77
f 76/132/78 81/126/78 87/124/78 85/121/78
f 28/131/79 76/132/79 85/121/79 86/120/79
f 75/133/80 21/130/80 83/25/80 84/24/80
f 82/134/70 79/117/70 78/119/70 80/135/70
