# Blender v2.78 (sub 0) OBJ File: 'Low_Poly_Trees_Pack.blend'
# www.blender.org
g Acacia_Tree_NoLeaves_m_01
v 0.000000 0.000000 -0.160000
v -0.152169 0.000000 -0.049443
v -0.094046 0.000000 0.129443
v 0.094046 0.000000 0.129443
v 0.152169 0.000000 -0.049443
v -0.135371 1.281832 -0.153448
v -0.279505 1.263615 -0.047896
v -0.224450 1.270573 0.122891
v -0.046291 1.293090 0.122891
v 0.008763 1.300048 -0.047896
v -0.214337 2.714508 -0.140639
v -0.345493 2.727652 -0.044872
v -0.295396 2.722631 0.110082
v -0.133279 2.706384 0.110082
v -0.083182 2.701364 -0.044872
v -0.125970 4.305117 -0.126275
v -0.240733 4.326338 -0.041481
v -0.196898 4.318233 0.095718
v -0.055043 4.292001 0.095718
v -0.011207 4.283895 -0.041481
v 0.201176 6.809480 -0.112219
v 0.090332 6.750300 -0.038266
v 0.139230 6.820934 0.081663
v 0.263122 6.798024 0.081663
v 0.291965 6.715227 -0.038263
v 0.285783 7.317121 -0.092505
v 0.205935 7.331886 -0.033509
v 0.796987 8.540465 -0.406269
v 0.335132 7.307995 0.061949
v 0.365631 7.302355 -0.033509
v 0.318473 6.926847 -0.036926
v 1.008652 6.888936 -0.093623
v 1.012714 6.877065 0.063067
v 1.029711 6.810901 -0.033854
v 0.984655 6.974045 -0.032773
v 1.737533 7.046108 -0.087522
v 1.742751 7.035782 0.056966
v 1.766679 6.977510 -0.032407
v 1.704806 7.120794 -0.031411
v 2.231668 7.509929 -0.072130
v 2.239167 7.504768 0.041574
v 2.277680 7.473557 -0.028758
v 2.180885 7.549156 -0.027974
v 2.512042 8.192901 -0.030355
v 2.514449 8.192708 -0.000201
v 2.527432 8.190640 -0.018853
v 2.495178 8.195183 -0.018645
v 0.128099 6.958330 -0.036959
v -0.564196 6.930020 -0.099566
v -0.608007 6.856899 -0.035265
v -0.570261 6.922081 0.069010
v -0.521038 7.022115 -0.034129
v -1.783205 7.351193 -0.099566
v -1.847910 7.295702 -0.035265
v -1.791471 7.345582 0.069010
v -1.713113 7.424890 -0.034129
v -2.663880 8.188819 -0.078814
v -2.720500 8.158440 -0.030344
v -2.670874 8.186026 0.048258
v -2.600347 8.231729 -0.029488
v -3.001097 9.061917 -0.040823
v -3.026801 9.059322 -0.021335
v -3.004125 9.061954 0.010267
v -2.970901 9.068108 -0.020991
v 0.216181 7.220961 0.066057
v -0.176002 7.556733 0.381198
v -0.109467 7.585956 0.406881
v -0.096310 7.527991 0.462969
v -0.174326 7.487918 0.449541
v -0.407717 8.039679 0.752723
v -0.332103 8.054589 0.751857
v -0.318463 8.031624 0.829093
v -0.404223 8.017776 0.847154
v -0.439192 8.877783 1.130205
v -0.416632 8.878559 1.129037
v -0.412959 8.876228 1.152606
v -0.438251 8.877274 1.158632
v 0.567106 7.665671 -0.284868
v 0.527320 7.701147 -0.246140
v 0.591694 7.643745 -0.183476
v 0.606891 7.630195 -0.246140
v 0.774974 8.541865 -0.390243
v 0.810592 8.539600 -0.364313
v 0.819000 8.539066 -0.390243
vt 0.5457 0.7603
vt 0.5501 0.7608
vt 0.5492 0.7911
vt 0.5450 0.7912
vt 0.5370 0.7608
vt 0.5414 0.7604
vt 0.5408 0.7910
vt 0.5366 0.7908
vt 0.5281 0.7605
vt 0.5325 0.7609
vt 0.5323 0.7907
vt 0.5281 0.7908
vt 0.5478 0.8252
vt 0.5440 0.8248
vt 0.5401 0.8248
vt 0.5362 0.8251
vt 0.5323 0.8252
vt 0.5285 0.8249
vt 0.5323 0.8632
vt 0.5288 0.8629
vt 0.5427 0.8627
vt 0.5393 0.8627
vt 0.5358 0.8631
vt 0.5461 0.8631
vt 0.5559 0.7605
vt 0.5593 0.7605
vt 0.5586 0.8211
vt 0.5556 0.8192
vt 0.5663 0.7604
vt 0.5697 0.7606
vt 0.5676 0.8212
vt 0.5647 0.8192
vt 0.5628 0.7603
vt 0.5616 0.8210
vt 0.5524 0.7603
vt 0.5525 0.8210
vt 0.5609 0.8318
vt 0.5591 0.8296
vt 0.5753 0.7621
vt 0.5780 0.7645
vt 0.5781 0.7816
vt 0.5756 0.7810
vt 0.5641 0.8243
vt 0.5629 0.8327
vt 0.5716 0.7645
vt 0.5727 0.7806
vt 0.5888 0.7624
vt 0.5928 0.7602
vt 0.5945 0.7786
vt 0.5911 0.7786
vt 0.5995 0.7584
vt 0.6026 0.7615
vt 0.6023 0.7779
vt 0.5998 0.7782
vt 0.5672 0.8217
vt 0.5653 0.8329
vt 0.5964 0.7605
vt 0.5974 0.7785
vt 0.6028 0.7957
vt 0.6006 0.7956
vt 0.5984 0.7957
vt 0.5959 0.7960
vt 0.5929 0.7966
vt 0.5981 0.8112
vt 0.5958 0.8117
vt 0.6015 0.8108
vt 0.6000 0.8108
vt 0.6033 0.8108
vt 0.6031 0.8277
vt 0.6027 0.8278
vt 0.6022 0.8280
vt 0.6017 0.8280
vt 0.6010 0.8280
vt 0.5815 0.7636
vt 0.5811 0.7812
vt 0.5560 0.8246
vt 0.5577 0.8319
vt 0.5560 0.8328
vt 0.5528 0.8226
vt 0.5859 0.7645
vt 0.5848 0.7807
vt 0.5806 0.8116
vt 0.5777 0.8120
vt 0.5753 0.8113
vt 0.5726 0.8108
vt 0.5841 0.8112
vt 0.5745 0.8386
vt 0.5724 0.8386
vt 0.5764 0.8389
vt 0.5814 0.8393
vt 0.5787 0.8390
vt 0.5767 0.8612
vt 0.5756 0.8612
vt 0.5746 0.8612
vt 0.5739 0.8610
vt 0.5730 0.8609
vt 0.5993 0.8379
vt 0.5993 0.8371
vt 0.6002 0.8370
vt 0.6002 0.8381
vt 0.6029 0.8365
vt 0.6029 0.8369
vt 0.6024 0.8370
vt 0.6024 0.8364
vt 0.5897 0.8463
vt 0.5915 0.8464
vt 0.5933 0.8614
vt 0.5895 0.8606
vt 0.5859 0.8601
vt 0.5875 0.8461
vt 0.5836 0.8457
vt 0.5855 0.8461
vt 0.5825 0.8607
vt 0.5910 0.8312
vt 0.5928 0.8314
vt 0.5866 0.8305
vt 0.5888 0.8304
vt 0.5847 0.8306
vt 0.5901 0.8091
vt 0.5908 0.8091
vt 0.5895 0.8092
vt 0.5915 0.8094
vt 0.5920 0.8094
vt 0.6015 0.8406
vt 0.6009 0.8406
vt 0.6009 0.8400
vt 0.6015 0.8401
vt 0.5637 0.8443
vt 0.5623 0.8436
vt 0.5609 0.8432
vt 0.5583 0.8443
vt 0.5567 0.8443
vt 0.5599 0.8664
vt 0.5589 0.8663
vt 0.5606 0.8666
vt 0.5612 0.8666
vt 0.5583 0.8665
vt 0.5964 0.8354
vt 0.5957 0.8354
vt 0.5955 0.8348
vt 0.5966 0.8348
vn 0.5854 0.0657 -0.8081
vn -0.0003 0.0051 1.0000
vn -0.5860 -0.0579 -0.8083
vn 0.9456 0.1041 0.3081
vn -0.9465 -0.0957 0.3082
vn 0.5893 0.0400 -0.8069
vn -0.0002 0.0089 1.0000
vn -0.5898 -0.0251 -0.8072
vn 0.9497 0.0614 0.3069
vn -0.9507 -0.0436 0.3071
vn -0.5877 0.0401 -0.8081
vn 0.9505 -0.0440 0.3076
vn -0.9494 0.0615 0.3080
vn 0.5893 -0.0253 -0.8075
vn 0.0013 0.0090 1.0000
vn -0.9425 0.1283 0.3087
vn 0.5841 -0.0718 -0.8085
vn 0.0010 0.0055 1.0000
vn -0.5826 0.0806 -0.8087
vn 0.9439 -0.1181 0.3085
vn 0.0070 0.0376 0.9993
vn -0.1095 -0.6541 -0.7484
vn 0.9434 -0.1213 0.3086
vn 0.0569 0.5087 -0.8591
vn -0.0543 0.6910 0.7208
vn -0.0362 0.5691 -0.8215
vn 0.5850 -0.0661 -0.8083
vn 0.1007 -0.8100 0.5777
vn 0.0777 -0.5793 -0.8114
vn -0.1133 0.5603 -0.8205
vn 0.1791 -0.7995 0.5734
vn -0.1406 0.6787 0.7209
vn 0.1328 -0.5827 -0.8018
vn -0.4709 0.5198 0.7128
vn 0.4300 -0.4346 -0.7913
vn -0.3843 0.4351 -0.8143
vn 0.5769 -0.5954 0.5592
vn -0.5142 0.2615 -0.8169
vn 0.7820 -0.2796 0.5571
vn -0.6324 0.2969 0.7155
vn 0.5840 -0.1920 -0.7887
vn -0.1257 -0.8263 0.5491
vn -0.5741 0.1271 -0.8088
vn -0.9316 0.1913 0.3090
vn 0.0765 0.6740 0.7348
vn -0.2747 -0.7840 0.5566
vn 0.1812 0.5301 -0.8283
vn -0.2090 -0.5976 -0.7740
vn 0.2264 0.6614 0.7151
vn 0.3654 0.4058 -0.8378
vn -0.4307 -0.4321 -0.7924
vn 0.4631 0.5037 0.7293
vn -0.5714 -0.5824 0.5781
vn 0.6294 0.2713 0.7282
vn -0.7703 -0.2678 0.5788
vn 0.4975 0.2288 -0.8367
vn -0.5790 -0.1890 -0.7931
vn -0.1552 0.9878 -0.0099
vn 0.1394 0.9902 -0.0048
vn 0.2066 0.9042 -0.3737
vn -0.7613 -0.4689 -0.4478
vn 0.6947 0.5754 0.4317
vn 0.3463 -0.5902 0.7292
vn -0.0416 0.5882 -0.8076
vn 0.1965 -0.5257 0.8277
vn 0.9213 0.3857 0.0489
vn -0.9374 -0.3161 -0.1464
vn 0.2360 -0.3236 0.9163
vn 0.9789 0.1589 -0.1283
vn -0.9984 -0.0495 0.0270
vn -0.0839 0.4071 -0.9095
vn 0.0136 0.9985 0.0533
vn 0.2986 -0.6494 -0.6994
vn 0.8509 -0.4324 0.2984
vn -0.6130 0.0708 -0.7869
vn -0.2775 0.6730 0.6857
vn -0.5310 0.2915 0.7956
vn 0.9441 -0.1752 0.2794
vn 0.5516 -0.2549 -0.7942
vn -0.6416 0.0602 -0.7647
vn 0.0634 0.9980 0.0000
s off
f 5/1/1 1/2/1 6/3/1 10/4/1
f 3/5/2 4/6/2 9/7/2 8/8/2
f 1/9/3 2/10/3 7/11/3 6/12/3
f 4/6/4 5/1/4 10/4/4 9/7/4
f 2/10/5 3/5/5 8/8/5 7/11/5
f 10/4/6 6/3/6 11/13/6 15/14/6
f 8/8/7 9/7/7 14/15/7 13/16/7
f 6/12/8 7/11/8 12/17/8 11/18/8
f 9/7/9 10/4/9 15/14/9 14/15/9
f 7/11/10 8/8/10 13/16/10 12/17/10
f 11/18/11 12/17/11 17/19/11 16/20/11
f 14/15/12 15/14/12 20/21/12 19/22/12
f 12/17/13 13/16/13 18/23/13 17/19/13
f 15/14/14 11/13/14 16/24/14 20/21/14
f 13/16/15 14/15/15 19/22/15 18/23/15
f 17/25/16 18/26/16 23/27/16 22/28/16
f 20/29/17 16/30/17 21/31/17 25/32/17
f 18/26/18 19/33/18 24/34/18 23/27/18
f 16/35/19 17/25/19 22/28/19 21/36/19
f 19/33/20 20/29/20 25/32/20 24/34/20
f 23/27/21 24/34/21 29/37/21 65/38/21
f 21/39/22 22/40/22 50/41/22 49/42/22
f 24/34/23 31/43/23 30/44/23 29/37/23
f 48/45/24 21/39/24 49/42/24 52/46/24
f 31/47/25 24/48/25 33/49/25 35/50/25
f 21/51/26 31/52/26 35/53/26 32/54/26
f 31/43/27 21/55/27 26/56/27 30/44/27
f 24/48/28 25/57/28 34/58/28 33/49/28
f 25/57/29 21/51/29 32/54/29 34/58/29
f 32/54/30 35/53/30 39/59/30 36/60/30
f 33/49/31 34/58/31 38/61/31 37/62/31
f 35/50/32 33/49/32 37/62/32 39/63/32
f 34/58/33 32/54/33 36/60/33 38/61/33
f 39/63/34 37/62/34 41/64/34 43/65/34
f 38/61/35 36/60/35 40/66/35 42/67/35
f 36/60/36 39/59/36 43/68/36 40/66/36
f 37/62/37 38/61/37 42/67/37 41/64/37
f 40/66/38 43/68/38 47/69/38 44/70/38
f 41/64/39 42/67/39 46/71/39 45/72/39
f 43/65/40 41/64/40 45/72/40 47/73/40
f 42/67/41 40/66/41 44/70/41 46/71/41
f 22/40/42 23/74/42 51/75/42 50/41/42
f 48/76/43 27/77/43 26/78/43 21/79/43
f 48/76/44 23/27/44 65/38/44 27/77/44
f 23/74/45 48/80/45 52/81/45 51/75/45
f 50/41/46 51/75/46 55/82/46 54/83/46
f 52/46/47 49/42/47 53/84/47 56/85/47
f 49/42/48 50/41/48 54/83/48 53/84/48
f 51/75/49 52/81/49 56/86/49 55/82/49
f 56/85/50 53/84/50 57/87/50 60/88/50
f 53/84/51 54/83/51 58/89/51 57/87/51
f 55/82/52 56/86/52 60/90/52 59/91/52
f 54/83/53 55/82/53 59/91/53 58/89/53
f 59/91/54 60/90/54 64/92/54 63/93/54
f 58/89/55 59/91/55 63/93/55 62/94/55
f 60/88/56 57/87/56 61/95/56 64/96/56
f 57/87/57 58/89/57 62/94/57 61/95/57
f 61/97/58 62/98/58 63/99/58 64/100/58
f 46/101/59 44/102/59 47/103/59 45/104/59
f 66/105/60 67/106/60 29/107/60 27/108/60
f 27/108/61 65/109/61 69/110/61 66/105/61
f 67/111/62 68/112/62 29/113/62
f 65/109/63 29/113/63 68/112/63 69/110/63
f 67/106/64 66/105/64 70/114/64 71/115/64
f 69/110/65 68/112/65 72/116/65 73/117/65
f 68/112/66 67/111/66 71/118/66 72/116/66
f 66/105/67 69/110/67 73/117/67 70/114/67
f 73/117/68 72/116/68 76/119/68 77/120/68
f 72/116/69 71/118/69 75/121/69 76/119/69
f 70/114/70 73/117/70 77/120/70 74/122/70
f 71/115/71 70/114/71 74/122/71 75/123/71
f 75/124/72 74/125/72 77/126/72 76/127/72
f 30/44/73 26/56/73 78/128/73 81/129/73
f 29/37/74 30/44/74 81/129/74 80/130/74
f 26/78/75 27/77/75 79/131/75 78/132/75
f 80/130/76 79/131/76 27/77/76 29/37/76
f 79/131/77 80/130/77 83/133/77 82/134/77
f 80/130/78 81/129/78 84/135/78 83/133/78
f 81/129/79 78/128/79 28/136/79 84/135/79
f 78/132/80 79/131/80 82/134/80 28/137/80
f 84/138/81 28/139/81 82/140/81 83/141/81
