# Blender v2.78 (sub 0) OBJ File: 'Low_Poly_Trees_Pack.blend'
# www.blender.org
g Acacia_Tree_NoLeaves_m_04
v 0.000000 0.000000 -0.160000
v -0.152169 0.000000 -0.049443
v -0.094046 0.000000 0.129443
v 0.094046 0.000000 0.129443
v 0.152169 0.000000 -0.049443
v -0.111415 1.281832 -0.072256
v -0.255548 1.263615 0.033296
v -0.200494 1.270573 0.204084
v -0.022335 1.293090 0.204084
v 0.032719 1.300048 0.033296
v -0.060002 2.714508 -0.140639
v -0.191157 2.727652 -0.044872
v -0.141061 2.722631 0.110082
v 0.021056 2.706384 0.110082
v 0.071153 2.701364 -0.044872
v 0.007178 4.305117 -0.173582
v -0.107585 4.326338 -0.088788
v -0.063750 4.318233 0.048411
v 0.078105 4.292001 0.048411
v 0.121941 4.283895 -0.088788
v -0.058311 6.833582 -0.112219
v -0.165375 6.767810 -0.038266
v -0.120836 6.841271 0.081663
v 0.004213 6.825893 0.081663
v 0.038009 6.744991 -0.038263
v -0.004549 7.345410 -0.092505
v -0.085143 7.355321 -0.033509
v 0.431762 8.597423 -0.399715
v 0.045261 7.339284 0.061949
v 0.076045 7.335498 -0.033509
v 0.051676 6.957827 -0.036926
v 0.635728 6.977185 -0.055241
v 0.639265 6.968586 0.060882
v 0.654803 6.920403 -0.010946
v 0.614164 7.039069 -0.010145
v 1.098985 7.477959 -0.069426
v 1.130364 7.466403 0.041745
v 1.162177 7.453784 -0.038863
v 1.047894 7.496543 -0.011729
v 1.272909 8.522088 -0.085881
v 1.274803 8.520947 -0.058271
v 1.284596 8.513947 -0.075349
v 1.260025 8.530851 -0.075159
v -0.140253 6.977743 -0.036959
v -0.648488 6.909344 -0.145219
v -0.679868 6.848967 -0.093891
v -0.652938 6.902725 -0.010653
v -0.618545 6.984807 -0.092984
v -1.277063 7.559285 -0.241107
v -1.323229 7.543764 -0.203468
v -1.286159 7.569786 -0.144751
v -1.227740 7.593394 -0.205547
v -1.458788 8.664789 -0.390537
v -1.470525 8.657546 -0.380133
v -1.460250 8.664100 -0.363261
v -1.445732 8.674807 -0.379950
v -0.068210 7.245218 0.066057
v -0.479975 7.556667 0.381198
v -0.415328 7.589858 0.406881
v -0.398691 7.532795 0.462969
v -0.474142 7.488080 0.449541
v -0.740463 8.024720 0.752723
v -0.665889 8.044175 0.751857
v -0.650885 8.022077 0.829093
v -0.735651 8.003070 0.847154
v -0.822547 8.859389 1.130205
v -0.800076 8.861527 1.129037
v -0.796269 8.859423 1.152606
v -0.821578 8.858937 1.158632
v 0.255188 7.710330 -0.284869
v 0.213330 7.743335 -0.246140
v 0.281056 7.689931 -0.183476
v 0.297045 7.677325 -0.246140
v 0.416596 8.597467 -0.388696
v 0.441136 8.597394 -0.370866
v 0.446929 8.597377 -0.388696
vt 0.4288 0.7628
vt 0.4330 0.7630
vt 0.4320 0.7924
vt 0.4279 0.7926
vt 0.4203 0.7633
vt 0.4246 0.7630
vt 0.4239 0.7924
vt 0.4199 0.7919
vt 0.4117 0.7627
vt 0.4159 0.7631
vt 0.4159 0.7918
vt 0.4118 0.7921
vt 0.4305 0.8254
vt 0.4269 0.8249
vt 0.4232 0.8247
vt 0.4195 0.8249
vt 0.4157 0.8251
vt 0.4120 0.8250
vt 0.4157 0.8616
vt 0.4124 0.8613
vt 0.4255 0.8610
vt 0.4223 0.8610
vt 0.4190 0.8614
vt 0.4288 0.8616
vt 0.4381 0.7636
vt 0.4414 0.7635
vt 0.4408 0.8218
vt 0.4379 0.8200
vt 0.4480 0.7627
vt 0.4513 0.7633
vt 0.4493 0.8216
vt 0.4466 0.8195
vt 0.4447 0.7629
vt 0.4437 0.8214
vt 0.4348 0.7630
vt 0.4348 0.8214
vt 0.4441 0.8317
vt 0.4421 0.8298
vt 0.4576 0.7627
vt 0.4604 0.7648
vt 0.4601 0.7766
vt 0.4581 0.7766
vt 0.4464 0.8242
vt 0.4460 0.8324
vt 0.4538 0.7652
vt 0.4561 0.7766
vt 0.4685 0.8501
vt 0.4643 0.8519
vt 0.4648 0.8367
vt 0.4671 0.8364
vt 0.4574 0.8526
vt 0.4553 0.8487
vt 0.4593 0.8357
vt 0.4610 0.8363
vt 0.4492 0.8215
vt 0.4483 0.8324
vt 0.4607 0.8514
vt 0.4627 0.8368
vt 0.4604 0.8212
vt 0.4621 0.8212
vt 0.4636 0.8211
vt 0.4655 0.8213
vt 0.4677 0.8215
vt 0.4645 0.7983
vt 0.4650 0.7981
vt 0.4637 0.7982
vt 0.4640 0.7984
vt 0.4633 0.7981
vt 0.4551 0.8336
vt 0.4547 0.8336
vt 0.4547 0.8331
vt 0.4552 0.8331
vt 0.4532 0.8334
vt 0.4536 0.8335
vt 0.4537 0.8339
vt 0.4531 0.8339
vt 0.4639 0.7639
vt 0.4622 0.7765
vt 0.4387 0.8253
vt 0.4410 0.8321
vt 0.4394 0.8332
vt 0.4354 0.8237
vt 0.4680 0.7659
vt 0.4648 0.7773
vt 0.4600 0.7963
vt 0.4583 0.7961
vt 0.4570 0.7960
vt 0.4555 0.7960
vt 0.4618 0.7967
vt 0.4543 0.8214
vt 0.4538 0.8215
vt 0.4548 0.8213
vt 0.4557 0.8218
vt 0.4552 0.8214
vt 0.4725 0.7973
vt 0.4707 0.7973
vt 0.4680 0.7831
vt 0.4718 0.7835
vt 0.4752 0.7838
vt 0.4746 0.7973
vt 0.4784 0.7975
vt 0.4765 0.7972
vt 0.4785 0.7831
vt 0.4722 0.8118
vt 0.4704 0.8118
vt 0.4764 0.8122
vt 0.4743 0.8124
vt 0.4782 0.8120
vt 0.4744 0.8329
vt 0.4737 0.8330
vt 0.4749 0.8329
vt 0.4731 0.8328
vt 0.4726 0.8328
vt 0.4523 0.8355
vt 0.4518 0.8355
vt 0.4518 0.8348
vt 0.4524 0.8349
vt 0.4479 0.8434
vt 0.4465 0.8429
vt 0.4451 0.8426
vt 0.4428 0.8439
vt 0.4413 0.8441
vt 0.4463 0.8648
vt 0.4456 0.8649
vt 0.4467 0.8649
vt 0.4472 0.8649
vt 0.4453 0.8650
vt 0.4547 0.8355
vt 0.4543 0.8355
vt 0.4541 0.8350
vt 0.4548 0.8350
vn 0.5818 0.1053 -0.8065
vn 0.0036 -0.0578 0.9983
vn -0.5894 0.0044 -0.8078
vn 0.9488 0.0676 0.3085
vn -0.9463 -0.0975 0.3082
vn 0.5899 -0.0603 -0.8052
vn -0.0012 0.0655 0.9979
vn -0.5900 -0.0173 -0.8072
vn 0.9516 -0.0089 0.3071
vn -0.9501 0.0584 0.3064
vn -0.5910 0.0085 -0.8066
vn 0.9515 -0.0222 0.3069
vn -0.9496 0.0580 0.3079
vn 0.5876 -0.0414 -0.8081
vn 0.0054 0.0385 0.9992
vn -0.9432 -0.0274 0.3311
vn 0.6126 0.0361 -0.7896
vn -0.0021 -0.0132 0.9999
vn -0.5825 0.0039 -0.8128
vn 0.9594 0.0256 0.2808
vn 0.0047 0.0380 0.9993
vn -0.0384 -0.6826 -0.7298
vn 0.9490 -0.0640 0.3086
vn 0.1108 0.5185 -0.8479
vn -0.1318 0.6854 0.7161
vn -0.0445 0.5574 -0.8291
vn 0.5879 -0.0306 -0.8083
vn 0.1974 -0.7889 0.5819
vn 0.1821 -0.5294 -0.8286
vn -0.5094 0.4650 -0.7241
vn 0.6528 -0.6117 0.4468
vn -0.4556 0.4576 0.7635
vn 0.3794 -0.3902 -0.8389
vn -0.5359 0.1564 0.8297
vn 0.4506 -0.0858 -0.8886
vn -0.7054 0.1041 -0.7012
vn 0.9099 -0.0887 0.4053
vn -0.5713 0.8207 -0.0099
vn 0.5667 0.8239 -0.0048
vn -0.1894 -0.8008 0.5681
vn -0.5808 0.0922 -0.8088
vn -0.9415 0.1346 0.3090
vn -0.0616 0.6778 0.7326
vn -0.6462 -0.5030 0.5740
vn 0.4665 0.3224 -0.8236
vn -0.3995 -0.4957 -0.7711
vn 0.4389 0.5629 0.7003
vn 0.5989 -0.0091 -0.8008
vn -0.5772 -0.2018 -0.7913
vn 0.6486 0.2469 0.7199
vn -0.8421 -0.0262 0.5387
vn 0.1516 0.9151 -0.3737
vn -0.7316 -0.5140 -0.4479
vn 0.6586 0.6163 0.4317
vn 0.3814 -0.5682 0.7292
vn -0.0771 0.5846 -0.8076
vn 0.2279 -0.5129 0.8277
vn 0.8963 0.4407 0.0489
vn -0.9166 -0.3722 -0.1464
vn 0.2552 -0.3088 0.9163
vn 0.9675 0.2178 -0.1283
vn -0.9936 -0.1098 0.0270
vn -0.1084 0.4013 -0.9095
vn -0.0467 0.9975 0.0533
vn 0.3373 -0.6302 -0.6994
vn 0.8755 -0.3801 0.2984
vn -0.6162 0.0336 -0.7869
vn -0.3177 0.6550 0.6857
vn -0.5440 0.2615 0.7973
vn 0.9546 -0.1121 0.2759
vn 0.5679 -0.2157 -0.7943
vn -0.6476 0.0287 -0.7614
vn 0.0030 1.0000 -0.0000
s off
f 5/1/1 1/2/1 6/3/1 10/4/1
f 3/5/2 4/6/2 9/7/2 8/8/2
f 1/9/3 2/10/3 7/11/3 6/12/3
f 4/6/4 5/1/4 10/4/4 9/7/4
f 2/10/5 3/5/5 8/8/5 7/11/5
f 10/4/6 6/3/6 11/13/6 15/14/6
f 8/8/7 9/7/7 14/15/7 13/16/7
f 6/12/8 7/11/8 12/17/8 11/18/8
f 9/7/9 10/4/9 15/14/9 14/15/9
f 7/11/10 8/8/10 13/16/10 12/17/10
f 11/18/11 12/17/11 17/19/11 16/20/11
f 14/15/12 15/14/12 20/21/12 19/22/12
f 12/17/13 13/16/13 18/23/13 17/19/13
f 15/14/14 11/13/14 16/24/14 20/21/14
f 13/16/15 14/15/15 19/22/15 18/23/15
f 17/25/16 18/26/16 23/27/16 22/28/16
f 20/29/17 16/30/17 21/31/17 25/32/17
f 18/26/18 19/33/18 24/34/18 23/27/18
f 16/35/19 17/25/19 22/28/19 21/36/19
f 19/33/20 20/29/20 25/32/20 24/34/20
f 23/27/21 24/34/21 29/37/21 57/38/21
f 21/39/22 22/40/22 46/41/22 45/42/22
f 24/34/23 31/43/23 30/44/23 29/37/23
f 44/45/24 21/39/24 45/42/24 48/46/24
f 31/47/25 24/48/25 33/49/25 35/50/25
f 21/51/26 31/52/26 35/53/26 32/54/26
f 31/43/27 21/55/27 26/56/27 30/44/27
f 24/48/28 25/57/28 34/58/28 33/49/28
f 25/57/29 21/51/29 32/54/29 34/58/29
f 32/54/30 35/53/30 39/59/30 36/60/30
f 33/49/31 34/58/31 38/61/31 37/62/31
f 35/50/32 33/49/32 37/62/32 39/63/32
f 34/58/33 32/54/33 36/60/33 38/61/33
f 39/63/34 37/62/34 41/64/34 43/65/34
f 38/61/35 36/60/35 40/66/35 42/67/35
f 36/60/36 39/59/36 43/68/36 40/66/36
f 37/62/37 38/61/37 42/67/37 41/64/37
f 53/69/38 54/70/38 55/71/38 56/72/38
f 42/73/39 40/74/39 43/75/39 41/76/39
f 22/40/40 23/77/40 47/78/40 46/41/40
f 44/79/41 27/80/41 26/81/41 21/82/41
f 44/79/42 23/27/42 57/38/42 27/80/42
f 23/77/43 44/83/43 48/84/43 47/78/43
f 46/41/44 47/78/44 51/85/44 50/86/44
f 48/46/45 45/42/45 49/87/45 52/88/45
f 45/42/46 46/41/46 50/86/46 49/87/46
f 47/78/47 48/84/47 52/89/47 51/85/47
f 52/88/48 49/87/48 53/90/48 56/91/48
f 49/87/49 50/86/49 54/92/49 53/90/49
f 51/85/50 52/89/50 56/93/50 55/94/50
f 50/86/51 51/85/51 55/94/51 54/92/51
f 58/95/52 59/96/52 29/97/52 27/98/52
f 27/98/53 57/99/53 61/100/53 58/95/53
f 59/101/54 60/102/54 29/103/54
f 57/99/55 29/103/55 60/102/55 61/100/55
f 59/96/56 58/95/56 62/104/56 63/105/56
f 61/100/57 60/102/57 64/106/57 65/107/57
f 60/102/58 59/101/58 63/108/58 64/106/58
f 58/95/59 61/100/59 65/107/59 62/104/59
f 65/107/60 64/106/60 68/109/60 69/110/60
f 64/106/61 63/108/61 67/111/61 68/109/61
f 62/104/62 65/107/62 69/110/62 66/112/62
f 63/105/63 62/104/63 66/112/63 67/113/63
f 67/114/64 66/115/64 69/116/64 68/117/64
f 30/44/65 26/56/65 70/118/65 73/119/65
f 29/37/66 30/44/66 73/119/66 72/120/66
f 26/81/67 27/80/67 71/121/67 70/122/67
f 72/120/68 71/121/68 27/80/68 29/37/68
f 71/121/69 72/120/69 75/123/69 74/124/69
f 72/120/70 73/119/70 76/125/70 75/123/70
f 73/119/71 70/118/71 28/126/71 76/125/71
f 70/122/72 71/121/72 74/124/72 28/127/72
f 76/128/73 28/129/73 74/130/73 75/131/73
