# Blender v2.78 (sub 0) OBJ File: 'Low_Poly_Trees_Pack.blend'
# www.blender.org
g Acacia_Tree_NoLeaves_m_05
v -0.072000 0.000000 -0.124708
v -0.140853 0.000000 0.029939
v -0.015052 0.000000 0.143211
v 0.131551 0.000000 0.058570
v 0.096355 0.000000 -0.107013
v -0.119354 1.153648 -0.006181
v -0.184197 1.137254 0.140949
v -0.064432 1.143516 0.249290
v 0.074429 1.163781 0.169118
v 0.040485 1.170043 0.011228
v -0.110055 2.443057 -0.082616
v -0.169185 2.454887 0.051047
v -0.060409 2.450368 0.149278
v 0.065948 2.435746 0.076325
v 0.035265 2.431228 -0.066993
v -0.072517 3.874605 -0.138524
v -0.123809 3.893705 -0.020790
v -0.027903 3.886410 0.066420
v 0.082662 3.862801 0.002585
v 0.055089 3.855506 -0.124077
v -0.095948 6.150225 -0.061226
v -0.146117 6.091030 0.044594
v -0.057434 6.157145 0.118026
v 0.040032 6.143304 0.061754
v 0.012407 6.070492 -0.046927
v 0.023661 6.262045 -0.052035
v 0.470643 6.279467 -0.329133
v 0.525655 6.271728 -0.240216
v 0.505443 6.228363 -0.303193
v 0.474128 6.335163 -0.284281
v 0.825333 6.730164 -0.548656
v 0.899817 6.719763 -0.476127
v 0.888339 6.708406 -0.553271
v 0.811475 6.746889 -0.480695
v 0.953488 7.669880 -0.639747
v 0.967389 7.668854 -0.619079
v 0.967336 7.662553 -0.636797
v 0.948271 7.677767 -0.625591
v -0.125948 6.279969 0.034307
v -0.570795 6.218410 0.178633
v -0.572156 6.164071 0.232760
v -0.513708 6.212453 0.285519
v -0.523951 6.286327 0.205871
v -1.103871 6.803357 0.386754
v -1.122916 6.789388 0.436865
v -1.067600 6.812808 0.465949
v -1.049425 6.834055 0.392275
v -1.312755 7.798311 0.352061
v -1.317221 7.791791 0.365452
v -1.301620 7.797690 0.373979
v -1.297814 7.807327 0.354438
v -0.175097 6.531721 -0.478420
v -0.241783 6.469378 -0.483544
v -0.258510 6.541715 -0.430281
v 0.375291 7.745713 0.895804
v 0.395495 7.742224 0.884890
v 0.399611 7.732388 0.904254
v 0.386411 7.734933 0.911276
v 0.272593 6.772686 0.797807
v 0.319254 6.763688 0.772985
v 0.304705 6.798460 0.704534
v 0.233280 6.810791 0.743115
v 0.068584 6.403795 0.406290
v 0.156939 6.393209 0.355298
v 0.166607 6.323085 0.422499
v 0.109046 6.331259 0.455732
v -0.313829 7.022573 -0.670405
v -0.366813 7.000975 -0.682480
v -0.361384 7.028428 -0.631175
v -0.426478 7.709454 -0.710752
v -0.444315 7.702182 -0.714817
v -0.442488 7.711424 -0.697545
vt 0.5466 0.7606
vt 0.5511 0.7608
vt 0.5501 0.7917
vt 0.5457 0.7919
vt 0.5377 0.7611
vt 0.5422 0.7608
vt 0.5415 0.7917
vt 0.5373 0.7912
vt 0.5286 0.7605
vt 0.5331 0.7609
vt 0.5331 0.7910
vt 0.5288 0.7914
vt 0.5485 0.8263
vt 0.5446 0.8259
vt 0.5408 0.8257
vt 0.5368 0.8258
vt 0.5329 0.8260
vt 0.5290 0.8260
vt 0.5329 0.8644
vt 0.5294 0.8641
vt 0.5432 0.8638
vt 0.5398 0.8638
vt 0.5364 0.8642
vt 0.5466 0.8644
vt 0.5555 0.7619
vt 0.5590 0.7618
vt 0.5584 0.8221
vt 0.5553 0.8203
vt 0.5658 0.7609
vt 0.5692 0.7616
vt 0.5671 0.8220
vt 0.5643 0.8198
vt 0.5624 0.7611
vt 0.5613 0.8217
vt 0.5522 0.7613
vt 0.5522 0.8218
vt 0.5520 0.8578
vt 0.5528 0.8541
vt 0.5669 0.8562
vt 0.5667 0.8590
vt 0.5728 0.7614
vt 0.5758 0.7636
vt 0.5755 0.7759
vt 0.5734 0.7760
vt 0.5689 0.7640
vt 0.5713 0.7760
vt 0.6055 0.8285
vt 0.6073 0.8330
vt 0.5913 0.8318
vt 0.5911 0.8294
vt 0.6077 0.8403
vt 0.6035 0.8422
vt 0.5901 0.8375
vt 0.5907 0.8358
vt 0.6065 0.8367
vt 0.5913 0.8340
vt 0.5749 0.8357
vt 0.5749 0.8339
vt 0.5749 0.8323
vt 0.5752 0.8304
vt 0.5755 0.8281
vt 0.5510 0.8304
vt 0.5508 0.8299
vt 0.5509 0.8313
vt 0.5511 0.8309
vt 0.5507 0.8317
vt 0.5544 0.8377
vt 0.5539 0.8378
vt 0.5539 0.8373
vt 0.5545 0.8373
vt 0.5524 0.8381
vt 0.5528 0.8382
vt 0.5529 0.8386
vt 0.5523 0.8386
vt 0.5795 0.7626
vt 0.5778 0.7759
vt 0.5839 0.7648
vt 0.5804 0.7767
vt 0.5754 0.7967
vt 0.5736 0.7965
vt 0.5722 0.7964
vt 0.5706 0.7963
vt 0.5773 0.7971
vt 0.5694 0.8231
vt 0.5689 0.8232
vt 0.5699 0.8229
vt 0.5709 0.8234
vt 0.5704 0.8231
vt 0.5942 0.8472
vt 0.5934 0.8498
vt 0.5779 0.8467
vt 0.5786 0.8445
vt 0.6057 0.8486
vt 0.6045 0.8522
vt 0.5515 0.8416
vt 0.5517 0.8410
vt 0.5789 0.8424
vt 0.5519 0.8405
vt 0.5776 0.8488
vt 0.5516 0.8421
vt 0.5529 0.8353
vt 0.5523 0.8353
vt 0.5524 0.8347
vt 0.5528 0.8347
vt 0.5926 0.8522
vt 0.5942 0.8447
vt 0.5923 0.8539
vt 0.5774 0.8503
vt 0.5515 0.8426
vt 0.6024 0.8551
vt 0.6020 0.8579
vt 0.6045 0.8452
vt 0.5519 0.8614
vt 0.5658 0.8614
vt 0.5533 0.8499
vt 0.5667 0.8538
vt 0.5826 0.8564
vt 0.5826 0.8580
vt 0.5827 0.8596
vt 0.5822 0.8611
vt 0.6011 0.8592
vt 0.6012 0.8597
vt 0.6012 0.8603
vt 0.6010 0.8607
vt 0.5548 0.8353
vt 0.5543 0.8355
vt 0.5543 0.8350
vn 0.1006 0.1053 -0.9893
vn 0.5022 -0.0578 0.8628
vn -0.9144 0.0044 -0.4049
vn 0.9759 0.0676 -0.2073
vn -0.6654 -0.0975 0.7401
vn 0.1083 -0.0603 -0.9923
vn 0.4979 0.0655 0.8648
vn -0.9146 -0.0173 -0.4041
vn 0.9777 -0.0089 -0.2098
vn -0.6697 0.0584 0.7404
vn -0.9152 0.0085 -0.4030
vn 0.9775 -0.0222 -0.2099
vn -0.6684 0.0580 0.7415
vn 0.1048 -0.0414 -0.9936
vn 0.5043 0.0385 0.8627
vn -0.6513 -0.0274 0.7584
vn 0.1357 0.0361 -0.9901
vn 0.4982 -0.0132 0.8670
vn -0.9109 0.0039 -0.4127
vn 0.9713 0.0256 -0.2365
vn 0.3285 0.8599 0.3907
vn -0.3982 -0.6826 -0.6128
vn -0.3280 0.5185 -0.7897
vn 0.2440 0.6854 0.6861
vn -0.4530 0.5574 -0.6958
vn 0.4619 -0.7889 0.4052
vn -0.2566 -0.5294 -0.8086
vn -0.8032 0.4650 -0.3723
vn 0.7888 -0.6117 0.0605
vn -0.0128 0.4576 0.8890
vn -0.0909 -0.3902 -0.9162
vn -0.0493 0.1564 0.9865
vn -0.0540 -0.0858 -0.9948
vn -0.9614 0.1041 -0.2545
vn 0.9906 -0.0887 -0.1039
vn -0.4997 0.8207 0.2771
vn 0.4884 0.8239 -0.2875
vn 0.1200 -0.8009 0.5867
vn 0.3130 0.6778 0.6653
vn -0.2726 -0.5030 0.8202
vn -0.0078 0.3224 -0.9466
vn -0.7316 -0.4957 -0.4681
vn 0.7303 0.5629 0.3870
vn 0.1182 -0.0091 -0.9929
vn -0.8955 -0.2018 -0.3967
vn 0.9217 0.2469 0.2992
vn -0.4599 -0.0262 0.8876
vn -0.2819 0.6801 -0.6768
vn -0.0531 0.9555 -0.2903
vn -0.4365 0.2092 -0.8750
vn 0.9716 -0.0492 -0.2315
vn -0.8034 0.0249 0.5949
vn 0.3493 0.8654 0.3594
vn -0.8393 -0.1026 0.5340
vn 0.9568 -0.1211 -0.2644
vn 0.2836 -0.6530 0.7022
vn 0.4402 -0.1563 0.8842
vn 0.1096 -0.9044 0.4123
vn 0.9540 -0.1281 -0.2709
vn -0.8573 -0.1407 0.4952
vn -0.9495 -0.2962 0.1041
vn 0.5642 -0.5532 -0.6129
vn 0.3175 -0.2661 -0.9102
vn -0.9790 -0.1896 0.0752
vn 0.5373 0.4255 0.7282
vn 0.2297 -0.0195 -0.9731
vn -0.9822 -0.1013 0.1581
vn 0.6401 0.1492 0.7537
vn -0.2529 0.8639 -0.4355
s off
f 5/1/1 1/2/1 6/3/1 10/4/1
f 3/5/2 4/6/2 9/7/2 8/8/2
f 1/9/3 2/10/3 7/11/3 6/12/3
f 4/6/4 5/1/4 10/4/4 9/7/4
f 2/10/5 3/5/5 8/8/5 7/11/5
f 10/4/6 6/3/6 11/13/6 15/14/6
f 8/8/7 9/7/7 14/15/7 13/16/7
f 6/12/8 7/11/8 12/17/8 11/18/8
f 9/7/9 10/4/9 15/14/9 14/15/9
f 7/11/10 8/8/10 13/16/10 12/17/10
f 11/18/11 12/17/11 17/19/11 16/20/11
f 14/15/12 15/14/12 20/21/12 19/22/12
f 12/17/13 13/16/13 18/23/13 17/19/13
f 15/14/14 11/13/14 16/24/14 20/21/14
f 13/16/15 14/15/15 19/22/15 18/23/15
f 17/25/16 18/26/16 23/27/16 22/28/16
f 20/29/17 16/30/17 21/31/17 25/32/17
f 18/26/18 19/33/18 24/34/18 23/27/18
f 16/35/19 17/25/19 22/28/19 21/36/19
f 19/33/20 20/29/20 25/32/20 24/34/20
f 39/37/21 26/38/21 52/39/21 54/40/21
f 21/41/22 22/42/22 41/43/22 40/44/22
f 39/45/23 21/41/23 40/44/23 43/46/23
f 26/47/24 24/48/24 28/49/24 30/50/24
f 21/51/25 26/52/25 30/53/25 27/54/25
f 24/48/26 25/55/26 29/56/26 28/49/26
f 25/55/27 21/51/27 27/54/27 29/56/27
f 27/54/28 30/53/28 34/57/28 31/58/28
f 28/49/29 29/56/29 33/59/29 32/60/29
f 30/50/30 28/49/30 32/60/30 34/61/30
f 29/56/31 27/54/31 31/58/31 33/59/31
f 34/61/32 32/60/32 36/62/32 38/63/32
f 33/59/33 31/58/33 35/64/33 37/65/33
f 31/58/34 34/57/34 38/66/34 35/64/34
f 32/60/35 33/59/35 37/65/35 36/62/35
f 48/67/36 49/68/36 50/69/36 51/70/36
f 37/71/37 35/72/37 38/73/37 36/74/37
f 22/42/38 23/75/38 42/76/38 41/43/38
f 23/75/39 39/77/39 43/78/39 42/76/39
f 41/43/40 42/76/40 46/79/40 45/80/40
f 43/46/41 40/44/41 44/81/41 47/82/41
f 40/44/42 41/43/42 45/80/42 44/81/42
f 42/76/43 43/78/43 47/83/43 46/79/43
f 47/82/44 44/81/44 48/84/44 51/85/44
f 44/81/45 45/80/45 49/86/45 48/84/45
f 46/79/46 47/83/46 51/87/46 50/88/46
f 45/80/47 46/79/47 50/88/47 49/86/47
f 64/89/48 63/90/48 62/91/48 61/92/48
f 64/89/49 26/93/49 39/94/49 63/90/49
f 55/95/50 56/96/50 61/92/50 62/91/50
f 60/97/51 61/92/51 56/96/51 57/98/51
f 62/91/52 59/99/52 58/100/52 55/95/52
f 56/101/53 55/102/53 58/103/53 57/104/53
f 63/90/54 66/105/54 59/99/54 62/91/54
f 65/106/55 64/89/55 61/92/55 60/97/55
f 66/105/56 65/107/56 60/108/56 59/99/56
f 59/99/57 60/108/57 57/109/57 58/100/57
f 23/110/58 24/111/58 65/107/58 66/105/58
f 24/112/59 26/93/59 64/89/59 65/106/59
f 39/94/60 23/110/60 66/105/60 63/90/60
f 21/113/61 39/37/61 54/40/61 53/114/61
f 26/38/62 21/115/62 53/116/62 52/39/62
f 52/39/63 53/116/63 68/117/63 67/118/63
f 53/114/64 54/40/64 69/119/64 68/120/64
f 54/40/65 52/39/65 67/118/65 69/119/65
f 67/118/66 68/117/66 71/121/66 70/122/66
f 68/120/67 69/119/67 72/123/67 71/124/67
f 69/119/68 67/118/68 70/122/68 72/123/68
f 70/125/69 71/126/69 72/127/69
