# Blender v2.78 (sub 0) OBJ File: 'Low_Poly_Trees_Pack.blend'
# www.blender.org
g Acacia_Tree_NoLeaves_l_02
v 0.000000 0.000000 -0.442589
v -0.343895 0.000000 -0.276977
v -0.428830 0.000000 0.095147
v -0.190847 0.000000 0.393568
v 0.190847 0.000000 0.393568
v 0.428830 0.000000 0.095147
v 0.343895 0.000000 -0.276977
v 0.137577 1.847078 -0.323293
v -0.119256 1.847078 -0.199608
v -0.182688 1.847078 0.078308
v -0.004954 1.847078 0.301179
v 0.280109 1.847078 0.301179
v 0.457843 1.847078 0.078308
v 0.394410 1.847078 -0.199608
v 0.480553 0.741891 -0.218980
v 0.189312 0.741891 -0.359234
v 0.350939 0.741891 0.348898
v 0.552484 0.741891 0.096169
v -0.173860 0.741891 0.096169
v 0.027685 0.741891 0.348899
v -0.101929 0.741891 -0.218980
v 0.027032 2.806722 -0.243438
v -0.286001 2.769194 -0.254561
v -0.355097 2.760910 0.050334
v -0.161496 2.784121 0.294841
v 0.115746 2.817358 0.148026
v -0.239918 3.520003 -0.101794
v -0.526671 3.526739 -0.142603
v -0.614122 3.542984 0.076566
v -0.404243 3.528163 0.246275
v -0.192629 3.396761 0.109688
v -0.866920 5.589694 -0.288435
v -1.031101 5.563917 -0.312775
v -1.091196 5.565666 -0.184227
v -0.965067 5.595692 -0.088062
v -0.859254 5.593428 -0.161181
v -0.270020 3.817701 0.130103
v 0.334360 4.127333 0.263887
v 0.277312 4.069028 0.555328
v 0.398826 4.040621 0.389553
v 0.206429 4.178307 0.408886
v 0.717072 5.015661 0.526154
v 0.596884 4.988223 0.776010
v 0.754907 4.978190 0.668959
v 0.553282 5.037949 0.607522
v 1.244587 6.003386 1.041607
v 1.119853 5.967021 1.218058
v 1.253497 5.954110 1.150656
v 1.101206 6.006896 1.078315
v 1.835035 6.808938 2.219837
v 1.829547 6.762209 2.322504
v 1.929920 6.752513 2.271882
v 1.850942 7.494944 3.003025
v 1.914623 7.487868 2.966754
v 1.848867 7.523159 2.939292
v 0.304874 2.506889 0.278631
v 0.161504 2.514689 -0.335029
v 0.533417 2.599033 -0.180045
v 0.678747 2.523088 0.204391
v 0.844504 2.427454 0.061648
v 0.796547 2.455123 -0.180928
v 0.520926 2.598336 0.101886
v 1.385593 3.228562 -0.149308
v 1.562768 3.197113 0.160991
v 1.657693 3.077354 0.047002
v 1.630229 3.112003 -0.146709
v 1.467737 3.299403 0.079135
v 2.645586 4.161072 -0.181709
v 2.731139 4.061939 0.125285
v 2.826064 3.942180 0.011296
v 2.798601 3.976829 -0.182415
v 2.636108 4.164229 0.043429
v 3.666870 5.749594 -0.073173
v 3.718025 5.682124 0.125331
v 3.774383 5.600959 0.051625
v 3.758077 5.624442 -0.073630
v 3.660883 5.752019 0.072402
v 4.026394 7.490552 -0.148553
v 4.045693 7.359401 0.053241
v 4.154511 7.359261 -0.023755
v 4.134943 7.380105 -0.149010
v 4.020117 7.492075 -0.002978
v 5.110387 8.710054 -0.065177
v 5.156497 8.664883 0.086156
v 5.190950 8.626416 -0.022705
v 5.105602 8.711215 0.045805
v 5.762923 9.715629 -0.069398
v 5.810102 9.707169 -0.025399
v 5.738369 9.716547 0.004607
v 6.178936 10.798843 -0.024840
v 6.203948 10.806747 -0.004894
v 6.176913 10.795783 0.003180
v -0.972596 7.457736 -0.332030
v -1.108990 7.460940 -0.351441
v -1.155934 7.427867 -0.244334
v -1.025342 7.459975 -0.195767
v -0.686420 8.382091 -0.265025
v -0.733122 8.392491 -0.296792
v -0.748641 8.399998 -0.254713
v -0.714163 9.904279 -0.261944
v -0.725009 9.910059 -0.275685
v -0.731275 9.912400 -0.260943
v 1.956890 8.462368 3.165810
v 1.987818 8.458829 3.149892
v 1.954742 8.476582 3.136078
v 1.177104 6.107141 1.178738
v 0.977342 6.897686 1.525259
v 0.937344 6.889102 1.638897
v 0.873867 6.834959 1.547944
v 0.886073 8.531777 1.431581
v 0.859960 8.530399 1.437885
v 0.882710 8.537777 1.455232
v 1.682041 3.374562 -0.146003
v 1.134366 3.860450 -0.903039
v 1.271677 3.844548 -0.994846
v 1.179729 3.951952 -0.800708
v 1.352924 3.957630 -0.907685
v 0.659134 5.200007 -1.629478
v 0.792260 5.185759 -1.727510
v 0.716383 5.265788 -1.514162
v 0.887427 5.271361 -1.624550
v 0.593089 6.999347 -2.184713
v 0.661485 7.038134 -2.270161
v 0.630914 7.062060 -2.126979
v 0.732931 7.044083 -2.198350
v 1.270334 8.284575 -2.300084
v 1.375809 8.247736 -2.310732
v 1.322434 8.278509 -2.234395
v 1.572678 10.038318 -2.421978
v 1.608946 10.037045 -2.427593
v 1.587001 10.042507 -2.396256
v 0.623007 7.155134 -2.212323
v 0.092693 7.288026 -2.313164
v 0.159193 7.312894 -2.393378
v 0.186806 7.369454 -2.316931
v 4.189443 7.524591 0.051539
v 3.841167 7.803577 0.918596
v 3.954480 7.820744 0.963404
v 3.884959 7.943104 0.903160
v 2.945213 8.620484 1.634859
v 3.002628 8.659203 1.679181
v 2.996428 8.684025 1.580148
v 2.340397 9.606935 1.986369
v 2.364987 9.617958 2.001580
v 2.355185 9.626314 1.967353
v -0.164257 7.949586 -2.402279
v -0.118603 7.945826 -2.475792
v -0.072415 7.984999 -2.423414
v -0.131886 9.350649 -2.795570
v -0.105940 9.345147 -2.837028
v -0.079931 9.358801 -2.801689
v -1.117271 7.552873 -0.246321
v -1.432703 7.793630 0.590830
v -1.320538 7.788428 0.635449
v -1.370932 7.885349 0.589739
v -2.134841 8.864354 1.358990
v -2.095439 8.859058 1.375256
v -2.110094 8.894902 1.358740
vt 0.4493 0.8309
vt 0.4461 0.8161
vt 0.4504 0.8153
vt 0.4543 0.8293
vt 0.4590 0.8278
vt 0.4547 0.8141
vt 0.4589 0.8126
vt 0.4637 0.8262
vt 0.4326 0.8330
vt 0.4321 0.8172
vt 0.4367 0.8165
vt 0.4382 0.8329
vt 0.4438 0.8323
vt 0.4415 0.8161
vt 0.4273 0.8326
vt 0.4276 0.8180
vt 0.4392 0.8443
vt 0.4452 0.8434
vt 0.4272 0.8423
vt 0.4332 0.8437
vt 0.4564 0.8389
vt 0.4624 0.8367
vt 0.4508 0.8413
vt 0.4685 0.8348
vt 0.4367 0.8065
vt 0.4402 0.8064
vt 0.4330 0.8072
vt 0.4448 0.8123
vt 0.4286 0.8139
vt 0.4291 0.8078
vt 0.4322 0.7965
vt 0.4360 0.7978
vt 0.4439 0.8069
vt 0.4393 0.7961
vt 0.4433 0.7960
vt 0.4293 0.7980
vt 0.4463 0.7964
vt 0.4489 0.8058
vt 0.4520 0.8108
vt 0.4673 0.8534
vt 0.4289 0.8517
vt 0.4290 0.8499
vt 0.4698 0.8498
vt 0.4273 0.7839
vt 0.4263 0.7808
vt 0.4350 0.7802
vt 0.4353 0.7823
vt 0.4664 0.8425
vt 0.4698 0.8456
vt 0.4291 0.8478
vt 0.4291 0.8461
vt 0.4698 0.8575
vt 0.4289 0.8538
vt 0.4290 0.8555
vt 0.4661 0.8602
vt 0.4514 0.7798
vt 0.4519 0.7817
vt 0.4294 0.7778
vt 0.4262 0.7749
vt 0.4352 0.7746
vt 0.4351 0.7773
vt 0.4511 0.7776
vt 0.4271 0.7715
vt 0.4353 0.7718
vt 0.4515 0.7754
vt 0.4519 0.7729
vt 0.4671 0.7740
vt 0.4668 0.7759
vt 0.4664 0.7777
vt 0.4796 0.8071
vt 0.4808 0.8062
vt 0.4832 0.8284
vt 0.4819 0.8291
vt 0.4826 0.8075
vt 0.4670 0.7795
vt 0.4671 0.7810
vt 0.4845 0.8521
vt 0.4834 0.8521
vt 0.4109 0.7540
vt 0.4124 0.7550
vt 0.4107 0.7712
vt 0.4844 0.8065
vt 0.4864 0.8067
vt 0.4861 0.8289
vt 0.4846 0.8288
vt 0.4854 0.8521
vt 0.4855 0.8662
vt 0.4851 0.8663
vt 0.4869 0.7873
vt 0.4886 0.7911
vt 0.4781 0.7888
vt 0.4790 0.7860
vt 0.4860 0.7943
vt 0.4856 0.7983
vt 0.4762 0.7958
vt 0.4769 0.7921
vt 0.4868 0.8024
vt 0.4761 0.7998
vt 0.4834 0.8048
vt 0.4871 0.7790
vt 0.4786 0.7822
vt 0.4624 0.7875
vt 0.4628 0.7855
vt 0.4626 0.7960
vt 0.4618 0.7926
vt 0.4643 0.7824
vt 0.4619 0.7900
vt 0.4210 0.8565
vt 0.4178 0.8543
vt 0.4192 0.8410
vt 0.4213 0.8411
vt 0.4437 0.7926
vt 0.4437 0.7902
vt 0.4439 0.7880
vt 0.4442 0.7860
vt 0.4598 0.7956
vt 0.4440 0.7955
vt 0.4217 0.7869
vt 0.4216 0.7852
vt 0.4440 0.7832
vt 0.4218 0.7882
vt 0.4219 0.7913
vt 0.4219 0.7897
vt 0.4215 0.7932
vt 0.4036 0.8592
vt 0.4016 0.8594
vt 0.4016 0.8340
vt 0.4036 0.8344
vt 0.4068 0.8594
vt 0.4052 0.8593
vt 0.4053 0.8344
vt 0.4069 0.8353
vt 0.4102 0.8594
vt 0.4082 0.8596
vt 0.4083 0.8341
vt 0.4102 0.8340
vt 0.4046 0.8093
vt 0.4068 0.8324
vt 0.4062 0.8092
vt 0.4071 0.8092
vt 0.4029 0.8090
vt 0.4758 0.8396
vt 0.4743 0.8404
vt 0.4693 0.8283
vt 0.4709 0.8270
vt 0.4085 0.8091
vt 0.4048 0.7849
vt 0.4056 0.7849
vt 0.4066 0.7850
vt 0.4075 0.7849
vt 0.4063 0.7719
vt 0.4066 0.7719
vt 0.4059 0.7718
vt 0.4055 0.7719
vt 0.4892 0.7685
vt 0.4891 0.7702
vt 0.4660 0.7688
vt 0.4660 0.7673
vt 0.4884 0.7742
vt 0.4881 0.7763
vt 0.4655 0.7728
vt 0.4660 0.7714
vt 0.4887 0.7724
vt 0.4657 0.7702
vt 0.4881 0.7779
vt 0.4395 0.7692
vt 0.4395 0.7683
vt 0.4630 0.7711
vt 0.4397 0.7670
vt 0.4396 0.7678
vt 0.4301 0.7670
vt 0.4302 0.7667
vt 0.4301 0.7672
vt 0.4301 0.7674
vt 0.4788 0.8444
vt 0.4788 0.8446
vt 0.4786 0.8445
vt 0.4847 0.8662
vt 0.4779 0.8443
vt 0.4775 0.8445
vt 0.4774 0.8440
vt 0.4864 0.8520
vt 0.4860 0.8661
vt 0.4123 0.7716
vt 0.4139 0.7716
vt 0.4103 0.7942
vt 0.4099 0.7941
vt 0.4144 0.7542
vt 0.4158 0.7554
vt 0.4095 0.7941
vt 0.4094 0.7549
vt 0.4091 0.7712
vt 0.4770 0.8438
vt 0.4773 0.8440
vt 0.4770 0.8442
vt 0.4092 0.7941
vt 0.4173 0.8410
vt 0.4175 0.8208
vt 0.4194 0.8206
vt 0.4242 0.8545
vt 0.4234 0.8410
vt 0.4598 0.7828
vt 0.4261 0.8411
vt 0.4236 0.8206
vt 0.4262 0.8209
vt 0.4148 0.8560
vt 0.4282 0.8561
vt 0.4255 0.7964
vt 0.4270 0.7965
vt 0.4215 0.8207
vt 0.4243 0.7961
vt 0.4127 0.7971
vt 0.4115 0.7969
vt 0.4140 0.7899
vt 0.4154 0.7906
vt 0.4105 0.8205
vt 0.4121 0.8209
vt 0.4130 0.8384
vt 0.4117 0.8385
vt 0.4229 0.7967
vt 0.4144 0.8384
vt 0.4132 0.8615
vt 0.4127 0.8615
vt 0.4155 0.8386
vt 0.4136 0.8616
vt 0.4134 0.8203
vt 0.4150 0.8215
vt 0.4778 0.8437
vt 0.4775 0.8438
vt 0.4775 0.8433
vt 0.4122 0.8615
vt 0.4165 0.7912
vt 0.4186 0.7831
vt 0.4197 0.7835
vt 0.4107 0.7955
vt 0.4162 0.8205
vt 0.4140 0.7979
vt 0.4157 0.7975
vt 0.4176 0.7915
vt 0.4775 0.8384
vt 0.4679 0.8291
vt 0.4605 0.8111
vt 0.4614 0.8108
vt 0.4798 0.8390
vt 0.4729 0.8268
vt 0.4736 0.8419
vt 0.4625 0.8104
vt 0.4555 0.7975
vt 0.4558 0.7973
vt 0.4635 0.8096
vt 0.4770 0.8436
vt 0.4773 0.8433
vt 0.4773 0.8438
vt 0.4562 0.7971
vt 0.4551 0.7976
vt 0.4270 0.7658
vt 0.4276 0.7660
vt 0.4264 0.7654
vt 0.4177 0.7823
vt 0.4207 0.7837
vt 0.4788 0.8441
vt 0.4782 0.8443
vt 0.4783 0.8436
vt 0.4282 0.7662
vt 0.4783 0.8445
vt 0.4786 0.8448
vt 0.4783 0.8449
vt 0.3989 0.7923
vt 0.4006 0.7931
vt 0.3996 0.8197
vt 0.3990 0.8192
vt 0.3992 0.7770
vt 0.4018 0.7774
vt 0.3947 0.7773
vt 0.3968 0.7767
vt 0.3969 0.7926
vt 0.3950 0.7931
vt 0.4777 0.8453
vt 0.4775 0.8449
vt 0.4780 0.8449
vt 0.3983 0.8195
vt 0.3976 0.8197
vn 0.4334 0.0495 -0.8999
vn 0.7795 0.0768 0.6216
vn -0.7818 0.0038 0.6235
vn -0.4339 0.0090 -0.9009
vn 0.9718 0.0796 -0.2218
vn 0.0000 0.0431 0.9991
vn -0.9749 -0.0114 -0.2225
vn -0.9243 0.3180 -0.2110
vn 0.0000 0.0601 0.9982
vn 0.9624 -0.1601 -0.2197
vn -0.4245 0.2073 -0.8814
vn -0.7552 0.2587 0.6023
vn 0.7752 -0.1301 0.6182
vn 0.4339 -0.0095 -0.9009
vn -0.9574 -0.1868 -0.2204
vn -0.7737 -0.1260 0.6209
vn -0.4339 -0.0003 -0.9010
vn 0.1177 0.1405 0.9831
vn -0.6967 -0.2191 0.6831
vn 0.0747 0.1944 -0.9781
vn 0.5229 0.2708 0.8082
vn -0.9224 -0.2750 -0.2713
vn 0.9024 0.4118 -0.1267
vn 0.8682 0.4533 -0.2018
vn -0.8947 -0.2552 -0.3665
vn 0.7438 -0.4282 -0.5132
vn 0.9450 0.2773 -0.1737
vn -0.6187 -0.0429 0.7844
vn 0.3868 0.2598 0.8848
vn 0.8719 -0.2236 -0.4357
vn -0.6648 0.4816 0.5710
vn -0.4934 0.4084 -0.7680
vn -0.1912 0.6793 -0.7086
vn 0.3019 -0.6643 0.6838
vn 0.3952 -0.5531 0.7334
vn -0.8902 0.3566 0.2834
vn -0.8735 0.2256 0.4314
vn 0.6094 -0.4053 0.6815
vn 0.8564 0.0591 -0.5130
vn 0.0595 0.8099 -0.5835
vn -0.2606 0.5449 -0.7970
vn 0.9018 -0.3287 -0.2806
vn 0.6015 0.5582 -0.5715
vn 0.7650 -0.1359 0.6295
vn 0.1708 -0.8484 0.5011
vn -0.9995 0.0308 -0.0066
vn -0.9918 0.0931 0.0871
vn 0.1827 0.1969 0.9632
vn -0.1860 -0.0165 -0.9824
vn 0.8159 -0.5412 -0.2034
vn 0.0000 0.0342 0.9994
vn 0.2255 -0.0163 -0.9741
vn 0.6402 -0.3379 0.6899
vn 0.3903 -0.0302 -0.9202
vn -0.2844 0.9574 0.0506
vn -0.3030 0.4440 0.8432
vn 0.0175 0.0275 -0.9995
vn -0.5943 0.8037 -0.0293
vn 0.3925 -0.4684 0.7915
vn 0.6087 -0.7639 -0.2143
vn -0.3857 -0.7697 -0.5087
vn 0.5757 -0.7869 -0.2224
vn -0.2863 0.4223 0.8601
vn -0.0306 -0.0038 -0.9995
vn 0.3714 -0.4686 0.8016
vn -0.8390 0.5423 -0.0432
vn -0.4467 0.2724 0.8522
vn 0.8518 -0.4822 -0.2048
vn 0.0452 0.0394 -0.9982
vn -0.0443 -0.0337 -0.9984
vn 0.6433 -0.1000 0.7590
vn -0.9788 0.2002 -0.0439
vn 0.9608 -0.2145 -0.1755
vn -0.6231 0.1583 0.7660
vn 0.7551 -0.6174 -0.2207
vn -0.3640 0.2853 0.8866
vn 0.1613 -0.0562 -0.9853
vn -0.9807 0.0142 -0.1952
vn -0.7455 0.6653 -0.0391
vn 0.4105 -0.2531 -0.8760
vn -0.8359 0.5311 -0.1385
vn -0.0390 0.0987 0.9944
vn -0.9040 0.3618 -0.2279
vn 0.3580 -0.1448 0.9224
vn 0.6462 -0.2179 -0.7314
vn 0.9832 0.0750 0.1665
vn -0.4951 0.0225 0.8685
vn 0.1451 -0.0145 -0.9893
vn 0.5682 0.0658 0.8202
vn -0.9073 -0.0454 -0.4181
vn -0.1744 0.1127 0.9782
vn 0.8879 -0.3002 0.3486
vn -0.9087 0.2761 -0.3130
vn 0.6220 0.0102 -0.7829
vn -0.9331 0.0096 -0.3594
vn 0.1417 0.0015 0.9899
vn 0.4303 0.9018 0.0398
vn 0.2668 -0.0321 -0.9632
vn 0.4423 0.1339 -0.8868
vn 0.3018 0.8684 0.3933
vn 0.4565 -0.1970 0.8676
vn -0.1867 -0.0659 -0.9802
vn -0.8585 0.4602 0.2262
vn -0.3032 0.3933 -0.8680
vn 0.9510 0.0678 0.3016
vn -0.8671 -0.3718 0.3317
vn 0.9264 0.0720 0.3697
vn -0.1132 0.9591 -0.2594
vn -0.7920 0.0373 0.6094
vn -0.8847 -0.0622 0.4620
vn 0.8429 -0.1799 -0.5071
vn -0.6064 0.7752 -0.1774
vn 0.4351 0.5443 0.7173
vn -0.9388 0.0407 0.3419
vn 0.2692 0.8154 0.5125
vn 0.5382 0.2983 0.7883
vn 0.7521 -0.1392 -0.6441
vn -0.5220 -0.5436 -0.6573
vn 0.7683 -0.0737 -0.6359
vn -0.3413 -0.0392 0.9391
vn 0.6165 -0.2728 0.7386
vn -0.9013 0.0990 0.4217
vn -0.6341 -0.2538 -0.7304
vn -0.1265 -0.0477 -0.9908
vn -0.7948 0.1750 0.5811
vn -0.3103 0.1290 -0.9419
vn 0.6627 -0.4123 -0.6252
vn 0.0090 0.9861 -0.1656
vn 0.8069 -0.0670 0.5869
vn -0.7234 -0.3756 -0.5793
vn 0.1585 0.6746 0.7210
vn -0.6943 0.4434 0.5669
vn -0.3020 -0.7814 -0.5461
vn 0.4596 0.5613 -0.6883
vn 0.5351 -0.3254 0.7796
vn -0.0271 0.8933 -0.4487
vn 0.6217 -0.5260 0.5804
vn -0.1192 -0.7223 0.6812
vn 0.9707 0.1054 0.2159
vn 0.1338 -0.8785 0.4587
vn -0.6551 -0.1388 -0.7426
vn -0.6093 0.0112 -0.7929
vn 0.7309 0.6381 0.2422
vn -0.5529 0.7591 0.3437
vn 0.8354 0.5485 0.0362
vn -0.3057 -0.4801 0.8222
vn -0.8466 -0.1257 -0.5171
vn 0.1012 0.2657 0.9587
vn 0.7583 0.2341 -0.6084
vn 0.0296 0.1630 0.9862
vn -0.1778 0.9548 -0.2380
vn 0.8064 -0.1538 -0.5711
vn 0.7917 -0.4525 0.4105
vn 0.3015 -0.6525 0.6952
vn -0.3552 0.9317 0.0761
vn 0.1447 -0.0460 -0.9884
vn 0.8513 0.4966 0.1696
vn -0.8482 0.3650 -0.3837
vn 0.7947 0.6066 0.0212
vn -0.8259 0.3768 -0.4195
vn -0.0402 -0.9272 0.3725
vn -0.3344 0.2782 0.9004
vn -0.4490 0.3085 -0.8386
vn -0.3129 -0.6816 0.6614
s off
f 16/1/1 8/2/1 14/3/1 15/4/1
f 18/5/2 13/6/2 12/7/2 17/8/2
f 20/9/3 11/10/3 10/11/3 19/12/3
f 21/13/4 9/14/4 8/2/4 16/1/4
f 15/4/5 14/3/5 13/6/5 18/5/5
f 17/15/6 12/16/6 11/10/6 20/9/6
f 19/12/7 10/11/7 9/14/7 21/13/7
f 3/17/8 19/12/8 21/13/8 2/18/8
f 5/19/9 17/15/9 20/9/9 4/20/9
f 7/21/10 15/4/10 18/5/10 6/22/10
f 2/18/11 21/13/11 16/1/11 1/23/11
f 4/20/12 20/9/12 19/12/12 3/17/12
f 6/22/13 18/5/13 17/8/13 5/24/13
f 1/23/14 16/1/14 15/4/14 7/21/14
f 9/14/15 10/11/15 24/25/15 23/26/15
f 10/11/16 11/10/16 25/27/16 24/25/16
f 8/2/17 9/14/17 57/28/17
f 11/10/18 56/29/18 26/30/18 25/27/18
f 24/25/19 25/27/19 30/31/19 29/32/19
f 22/33/20 23/26/20 28/34/20 27/35/20
f 25/27/21 26/30/21 31/36/21 30/31/21
f 23/26/22 24/25/22 29/32/22 28/34/22
f 27/35/23 31/37/23 26/38/23 22/33/23
f 22/33/24 26/38/24 56/39/24 57/28/24
f 29/40/25 34/41/25 33/42/25 28/43/25
f 31/44/26 27/45/26 38/46/26 40/47/26
f 37/48/27 27/49/27 32/50/27 36/51/27
f 30/52/28 35/53/28 34/41/28 29/40/28
f 36/54/29 35/53/29 30/52/29 37/55/29
f 40/47/30 38/46/30 42/56/30 44/57/30
f 37/58/31 30/59/31 39/60/31 41/61/31
f 38/46/32 41/61/32 45/62/32 42/56/32
f 27/45/33 37/58/33 41/61/33 38/46/33
f 30/59/34 31/63/34 40/64/34 39/60/34
f 43/65/35 44/66/35 48/67/35 47/68/35
f 45/62/36 43/65/36 47/68/36 49/69/36
f 41/61/37 39/60/37 43/65/37 45/62/37
f 39/60/38 40/64/38 44/66/38 43/65/38
f 48/70/39 46/71/39 50/72/39 52/73/39
f 46/71/40 106/74/40 50/72/40
f 42/56/41 45/62/41 49/69/41 46/75/41
f 44/57/42 42/56/42 46/75/42 48/76/42
f 55/77/43 54/78/43 52/73/43 50/72/43
f 47/79/44 106/80/44 108/81/44
f 47/82/45 48/83/45 52/84/45 51/85/45
f 53/86/46 55/77/46 50/72/46 51/85/46
f 55/77/47 53/86/47 103/87/47 105/88/47
f 56/89/48 12/90/48 59/91/48 62/92/48
f 57/28/49 9/14/49 23/26/49 22/33/49
f 13/93/50 14/94/50 61/95/50 60/96/50
f 56/29/51 11/10/51 12/16/51
f 14/94/52 8/97/52 58/98/52 61/95/52
f 12/90/53 13/93/53 60/96/53 59/91/53
f 8/97/54 57/99/54 58/98/54
f 57/100/55 56/89/55 62/92/55 58/101/55
f 62/92/56 59/91/56 64/102/56 67/103/56
f 61/95/57 58/98/57 63/104/57 66/105/57
f 58/101/58 62/92/58 67/103/58 63/106/58
f 59/91/59 60/96/59 65/107/59 64/102/59
f 60/96/60 61/95/60 66/105/60 65/107/60
f 66/108/61 63/109/61 114/110/61 115/111/61
f 65/107/62 66/105/62 71/112/62 70/113/62
f 67/103/63 64/102/63 69/114/63 72/115/63
f 66/105/64 113/116/64 68/117/64 71/112/64
f 64/102/65 65/107/65 70/113/65 69/114/65
f 72/115/66 77/118/66 73/119/66 68/120/66
f 69/114/67 74/121/67 77/118/67 72/115/67
f 71/112/68 76/122/68 75/123/68 70/113/68
f 68/117/69 73/124/69 76/122/69 71/112/69
f 76/125/70 73/126/70 78/127/70 81/128/70
f 74/129/71 75/130/71 80/131/71 79/132/71
f 73/133/72 77/134/72 82/135/72 78/136/72
f 75/130/73 76/125/73 81/128/73 80/131/73
f 77/134/74 74/129/74 79/132/74 82/135/74
f 80/131/75 81/128/75 85/137/75
f 82/135/76 136/138/76 84/139/76 86/140/76
f 81/128/77 78/127/77 83/141/77 85/137/77
f 82/142/78 79/143/78 137/144/78 139/145/78
f 78/136/79 82/135/79 86/140/79 83/146/79
f 83/141/80 87/147/80 88/148/80 85/137/80
f 86/140/81 89/149/81 87/150/81 83/146/81
f 84/139/82 88/148/82 89/149/82 86/140/82
f 87/150/83 89/149/83 92/151/83 90/152/83
f 89/149/84 88/148/84 91/153/84 92/151/84
f 88/148/85 87/147/85 90/154/85 91/153/85
f 36/155/86 32/156/86 93/157/86 96/158/86
f 34/159/87 35/160/87 96/161/87 95/162/87
f 32/156/88 33/163/88 94/164/88 93/157/88
f 35/160/89 36/165/89 96/161/89
f 33/163/90 34/159/90 95/162/90 94/164/90
f 96/161/91 97/166/91 99/167/91 152/168/91
f 93/157/92 97/169/92 96/158/92
f 95/162/93 152/168/93 94/164/93
f 97/169/94 98/170/94 101/171/94 100/172/94
f 98/170/95 99/167/95 102/173/95 101/171/95
f 99/167/96 97/166/96 100/174/96 102/173/96
f 101/175/97 102/176/97 100/177/97
f 94/164/98 98/170/98 97/169/98 93/157/98
f 105/88/99 104/178/99 54/78/99 55/77/99
f 105/179/100 103/180/100 104/181/100
f 53/86/101 54/182/101 104/183/101 103/87/101
f 107/184/102 109/185/102 111/186/102 110/187/102
f 106/74/103 47/82/103 51/85/103 50/72/103
f 46/188/104 49/189/104 109/185/104 107/184/104
f 108/81/105 107/184/105 110/187/105 112/190/105
f 49/191/106 47/79/106 108/81/106 109/192/106
f 106/80/107 46/188/107 107/184/107 108/81/107
f 112/193/108 110/194/108 111/195/108
f 111/196/109 109/192/109 108/81/109 112/190/109
f 114/110/110 116/197/110 120/198/110 118/199/110
f 113/200/111 66/108/111 115/111/111 117/201/111
f 113/202/112 67/103/112 72/115/112 68/120/112
f 116/203/113 117/201/113 121/204/113 120/205/113
f 63/109/114 67/206/114 116/197/114 114/110/114
f 67/207/115 113/200/115 117/201/115 116/203/115
f 120/205/116 121/204/116 125/208/116 124/209/116
f 121/204/117 119/210/117 123/211/117 125/208/117
f 115/111/118 114/110/118 118/199/118 119/210/118
f 117/201/119 115/111/119 119/210/119 121/204/119
f 122/212/120 124/213/120 135/214/120 133/215/120
f 124/216/121 125/217/121 127/218/121 128/219/121
f 118/199/122 120/198/122 124/213/122 122/212/122
f 119/210/123 118/199/123 122/220/123 123/211/123
f 127/218/124 126/221/124 129/222/124 130/223/124
f 126/221/125 128/224/125 131/225/125 129/222/125
f 123/226/126 132/227/126 126/221/126 127/218/126
f 125/217/127 123/226/127 127/218/127
f 129/228/128 131/229/128 130/230/128
f 128/219/129 127/218/129 130/223/129 131/231/129
f 134/232/130 133/215/130 146/233/130 147/234/130
f 124/213/131 132/235/131 135/214/131
f 132/227/132 124/236/132 128/224/132 126/221/132
f 123/237/133 122/212/133 133/215/133 134/232/133
f 132/238/134 123/237/134 134/232/134 135/239/134
f 70/113/135 75/123/135 74/121/135 69/114/135
f 136/240/136 82/142/136 139/145/136
f 136/138/137 80/131/137 85/137/137 84/139/137
f 137/144/138 138/241/138 141/242/138 140/243/138
f 80/244/139 136/240/139 139/145/139 138/245/139
f 79/143/140 80/246/140 138/241/140 137/144/140
f 142/247/141 140/243/141 143/248/141 145/249/141
f 139/145/142 137/144/142 140/243/142 142/247/142
f 138/245/143 139/145/143 142/247/143 141/250/143
f 143/251/144 144/252/144 145/253/144
f 141/250/145 142/247/145 145/249/145 144/254/145
f 140/243/146 141/242/146 144/255/146 143/248/146
f 147/234/147 146/233/147 149/256/147 150/257/147
f 151/258/148 149/256/148 146/233/148 148/259/148
f 135/239/149 134/232/149 147/234/149 148/260/149
f 133/215/150 135/214/150 148/259/150 146/233/150
f 151/261/151 150/262/151 149/263/151
f 148/260/152 147/234/152 150/257/152 151/264/152
f 85/137/153 88/148/153 84/139/153
f 51/85/154 52/84/154 54/182/154 53/86/154
f 91/265/155 90/266/155 92/267/155
f 28/43/156 33/42/156 32/50/156 27/49/156
f 154/268/157 155/269/157 158/270/157 157/271/157
f 94/164/158 152/168/158 99/167/158 98/170/158
f 96/272/159 152/273/159 155/269/159 154/268/159
f 152/274/160 95/275/160 153/276/160 155/277/160
f 95/275/161 96/272/161 154/268/161 153/276/161
f 158/278/162 156/279/162 157/280/162
f 155/277/163 153/276/163 156/281/163 158/282/163
f 153/276/164 154/268/164 157/271/164 156/281/164
