# Blender v2.78 (sub 0) OBJ File: 'Low_Poly_Trees_Pack.blend'
# www.blender.org
g Acacia_Tree_m_03
v -2.819847 6.333747 -0.402479
v -2.714181 6.503534 0.118650
v -2.650849 6.938513 -0.485544
v -2.038316 7.163617 -0.920040
v -2.516708 6.501968 -0.843663
v -1.758082 6.622419 -1.263036
v -2.493750 5.988407 -0.447713
v -1.369252 5.876635 -0.698230
v -1.517733 6.078367 0.203844
v -1.360775 6.131668 -1.268077
v -1.932098 6.360682 0.716900
v -2.111172 6.815770 0.578643
v -0.076957 7.200256 -1.627104
v -1.044729 7.557853 -1.251649
v -0.039421 7.697117 -1.168745
v -0.860074 6.969715 -1.615895
v 0.967947 7.098569 -1.370728
v 1.639808 7.571313 -0.709966
v 1.841224 6.839247 -0.905818
v 0.442722 6.447181 -1.554945
v 0.865765 6.179740 -1.189156
v -0.049085 6.103799 -1.356406
v 1.955739 6.280974 -0.647059
v -0.552150 6.399522 -1.605297
v 2.667886 6.866824 -0.082770
v 1.263952 7.659737 -0.220682
v 2.488675 6.809553 0.336977
v 0.808274 7.636453 0.454773
v 1.753794 6.900291 0.773510
v 2.340343 6.263000 0.094113
v 1.343954 6.030231 0.245613
v 1.783794 5.984542 -0.240547
v 1.091368 6.549684 0.897584
v 2.388732 6.791988 -0.497070
v -0.391779 7.410418 1.084032
v -0.740658 7.743935 0.445197
v -1.319575 7.251942 0.904208
v -2.007436 7.377639 0.022907
v -0.448662 6.996335 1.120023
v -0.744867 6.469918 0.989800
v 0.151323 6.337646 0.998601
v 1.013125 7.038926 1.045625
v -0.330151 6.222049 0.694371
v -0.332877 5.995115 0.041297
v -0.156660 5.983047 -0.841415
v 1.030780 6.014734 -0.447975
v -0.203705 7.962585 0.040094
v -0.186692 7.999730 -0.414755
v -0.171431 7.880890 -0.829708
v -1.514929 7.679440 -0.699304
v 0.000000 0.000000 -0.142560
v -0.135583 0.000000 -0.044053
v -0.083795 0.000000 0.115333
v 0.083795 0.000000 0.115333
v 0.135583 0.000000 -0.044053
v -0.000633 1.202103 -0.136723
v -0.129056 1.185872 -0.042675
v -0.080003 1.192072 0.109496
v 0.078737 1.212134 0.109496
v 0.127790 1.218334 -0.042675
v -0.011692 2.540862 -0.165459
v -0.127291 2.553194 -0.080974
v -0.083136 2.548483 0.055726
v 0.059753 2.533240 0.055726
v 0.103908 2.528530 -0.080974
v 0.119756 3.932810 -0.236875
v 0.017502 3.951718 -0.161324
v 0.056560 3.944496 -0.039080
v 0.182952 3.921123 -0.039080
v 0.222010 3.913901 -0.161324
v 0.018250 5.537812 -0.303825
v -0.067221 5.466440 -0.236916
v -0.035911 5.536884 -0.130452
v 0.076322 5.538959 -0.131724
v 0.115042 5.471746 -0.238980
v 0.018122 5.810323 -0.267847
v -0.053616 5.809019 -0.214465
v 0.304662 7.132823 -0.718241
v 0.064384 5.811235 -0.130744
v 0.091051 5.811692 -0.216104
v 0.100493 5.661216 -0.237745
v 1.301580 5.990120 -0.297176
v 1.311325 5.983912 -0.167448
v 1.352658 5.946190 -0.248201
v 1.246347 6.037624 -0.246161
v 1.831203 6.524920 -0.288677
v 1.839724 6.521862 -0.188604
v 1.877793 6.501731 -0.250981
v 1.780864 6.549771 -0.249224
v 1.961380 7.277551 -0.268008
v 1.966398 7.277546 -0.213138
v 1.989867 7.275436 -0.247377
v 1.930691 7.279547 -0.246331
v -0.071303 5.654781 -0.235825
v -1.169996 5.581799 -0.263024
v -1.189296 5.525549 -0.217761
v -1.171708 5.575580 -0.145000
v -1.152771 5.651028 -0.217458
v -1.822064 5.917917 -0.237323
v -1.857606 5.898286 -0.206037
v -1.825586 5.916153 -0.156349
v -1.781481 5.945608 -0.206384
v -2.109878 6.581651 -0.199861
v -2.138344 6.562640 -0.167568
v -2.159009 6.551109 -0.199637
v -2.136070 6.563780 -0.219829
v -0.023905 5.714064 -0.126022
v -0.344269 6.072874 0.175624
v -0.295621 6.085029 0.197932
v -0.286719 6.065843 0.217725
v -0.326155 6.033096 0.215841
v 0.300525 6.464414 -0.568215
v 0.259865 6.488318 -0.533261
v 0.326918 6.449711 -0.478159
v 0.341967 6.440555 -0.534160
v 0.285359 7.130132 -0.703741
v 0.317116 7.134516 -0.680998
v 0.324290 7.135533 -0.704185
v -0.113053 5.829712 -0.473483
v -0.170857 5.835657 -0.446656
v -0.144237 5.785875 -0.478490
v -0.182809 5.787472 -0.452941
v -0.297780 6.165050 -0.788477
v -0.334588 6.167161 -0.767279
v -0.323454 6.143664 -0.801608
v -0.348227 6.141534 -0.783495
vt 0.3390 0.5632
vt 0.3445 0.5600
vt 0.3455 0.5684
vt 0.3431 0.5742
vt 0.3373 0.5690
vt 0.3343 0.5728
vt 0.3329 0.5616
vt 0.3269 0.5616
vt 0.3307 0.5551
vt 0.3277 0.5684
vt 0.3394 0.5527
vt 0.3479 0.5555
vt 0.3292 0.5871
vt 0.3415 0.5807
vt 0.3434 0.5904
vt 0.3321 0.5782
vt 0.2905 0.5350
vt 0.3041 0.5409
vt 0.2900 0.5445
vt 0.2994 0.5531
vt 0.2902 0.5506
vt 0.2762 0.5426
vt 0.2752 0.5515
vt 0.2654 0.5475
vt 0.2837 0.5545
vt 0.3242 0.5733
vt 0.3151 0.5799
vt 0.3155 0.5690
vt 0.2929 0.5607
vt 0.3046 0.5605
vt 0.2932 0.5662
vt 0.3030 0.5719
vt 0.2933 0.5710
vt 0.2855 0.5641
vt 0.2793 0.5684
vt 0.2803 0.5615
vt 0.2879 0.5752
vt 0.2914 0.5553
vt 0.2966 0.5834
vt 0.3101 0.5814
vt 0.2978 0.5933
vt 0.3539 0.5504
vt 0.3533 0.5667
vt 0.2877 0.5862
vt 0.2717 0.5870
vt 0.2781 0.5783
vt 0.3495 0.5387
vt 0.3353 0.5428
vt 0.2946 0.5758
vt 0.3263 0.5416
vt 0.3191 0.5503
vt 0.3151 0.5606
vt 0.2619 0.5562
vt 0.2747 0.5614
vt 0.2619 0.5680
vt 0.2677 0.5771
vt 0.3124 0.5695
vt 0.3130 0.5582
vt 0.3096 0.5479
vt 0.3495 0.5755
vt 0.3522 0.5886
vt 0.3615 0.5825
vt 0.3661 0.5732
vt 0.3633 0.5629
vt 0.5483 0.7620
vt 0.5525 0.7621
vt 0.5519 0.7920
vt 0.5480 0.7923
vt 0.5399 0.7620
vt 0.5441 0.7620
vt 0.5440 0.7921
vt 0.5401 0.7916
vt 0.5316 0.7621
vt 0.5358 0.7620
vt 0.5361 0.7915
vt 0.5321 0.7920
vt 0.5509 0.8252
vt 0.5474 0.8249
vt 0.5438 0.8247
vt 0.5403 0.8250
vt 0.5367 0.8252
vt 0.5332 0.8252
vt 0.5372 0.8599
vt 0.5340 0.8598
vt 0.5468 0.8594
vt 0.5437 0.8593
vt 0.5405 0.8596
vt 0.5499 0.8598
vt 0.5602 0.7634
vt 0.5641 0.7629
vt 0.5636 0.8124
vt 0.5600 0.8105
vt 0.5721 0.7620
vt 0.5759 0.7631
vt 0.5731 0.8130
vt 0.5698 0.8105
vt 0.5681 0.7620
vt 0.5661 0.8124
vt 0.5563 0.7627
vt 0.5566 0.8126
vt 0.5650 0.8157
vt 0.5643 0.8145
vt 0.5926 0.7731
vt 0.5950 0.7753
vt 0.5942 0.8029
vt 0.5925 0.8027
vt 0.5670 0.8144
vt 0.5660 0.8163
vt 0.5892 0.7756
vt 0.5904 0.8027
vt 0.5860 0.8342
vt 0.5820 0.8358
vt 0.5833 0.8027
vt 0.5860 0.8034
vt 0.5756 0.8367
vt 0.5731 0.8334
vt 0.5770 0.8030
vt 0.5791 0.8026
vt 0.5690 0.8136
vt 0.5671 0.8168
vt 0.5787 0.8352
vt 0.5810 0.8023
vt 0.5784 0.7852
vt 0.5800 0.7852
vt 0.5815 0.7853
vt 0.5834 0.7853
vt 0.5855 0.7852
vt 0.5823 0.7663
vt 0.5835 0.7663
vt 0.5803 0.7663
vt 0.5812 0.7663
vt 0.5794 0.7664
vt 0.5984 0.7747
vt 0.5964 0.8029
vt 0.5632 0.8146
vt 0.5631 0.8152
vt 0.5632 0.8152
vt 0.6023 0.7760
vt 0.5990 0.8032
vt 0.5946 0.8207
vt 0.5931 0.8207
vt 0.5919 0.8204
vt 0.5905 0.8201
vt 0.5964 0.8207
vt 0.5920 0.8379
vt 0.5910 0.8377
vt 0.5902 0.8377
vt 0.5892 0.8377
vt 0.5931 0.8382
vt 0.5598 0.8515
vt 0.5599 0.8501
vt 0.5735 0.8477
vt 0.5735 0.8513
vt 0.5735 0.8546
vt 0.5598 0.8530
vt 0.5595 0.8549
vt 0.5597 0.8542
vt 0.5730 0.8578
vt 0.5844 0.8494
vt 0.5832 0.8500
vt 0.5832 0.8485
vt 0.5845 0.8487
vt 0.5805 0.8447
vt 0.5804 0.8455
vt 0.5795 0.8457
vt 0.5795 0.8445
vt 0.5884 0.8510
vt 0.5882 0.8519
vt 0.5873 0.8520
vt 0.5872 0.8510
vt 0.5636 0.8263
vt 0.5630 0.8256
vt 0.5622 0.8252
vt 0.5629 0.8152
vt 0.5635 0.8152
vt 0.5608 0.8254
vt 0.5600 0.8251
vt 0.5581 0.8368
vt 0.5575 0.8366
vt 0.5584 0.8371
vt 0.5588 0.8373
vt 0.5570 0.8366
vt 0.5871 0.8467
vt 0.5865 0.8467
vt 0.5863 0.8461
vt 0.5873 0.8461
vt 0.5627 0.8142
vt 0.5631 0.8151
vt 0.5631 0.8151
vt 0.5637 0.8151
vt 0.5631 0.8152
vt 0.5630 0.8151
vt 0.5630 0.8151
vt 0.5630 0.8151
vt 0.5630 0.8151
vt 0.5792 0.8508
vt 0.5791 0.8519
vt 0.5783 0.8515
vt 0.5783 0.8507
vn -0.9544 0.2807 0.1021
vn -0.6241 0.3719 -0.6871
vn -0.4984 0.2651 -0.8254
vn -0.0502 -0.9764 0.2101
vn -0.4377 -0.5612 -0.7025
vn -0.1792 -0.8970 -0.4041
vn -0.4251 -0.8317 0.3572
vn -0.6073 0.0024 0.7945
vn -0.1634 -0.9141 0.3710
vn -0.0336 0.6790 -0.7333
vn -0.4243 0.3767 -0.8234
vn 0.2403 0.6483 -0.7224
vn 0.5191 0.3513 -0.7792
vn 0.1863 -0.6780 -0.7111
vn 0.4953 -0.1578 -0.8543
vn 0.4368 -0.4065 -0.8024
vn -0.0076 -0.0227 -0.9997
vn -0.2823 -0.2190 -0.9340
vn 0.0688 -0.5713 -0.8178
vn 0.4664 0.8610 0.2027
vn 0.4454 0.8417 0.3050
vn 0.4049 0.7478 0.5261
vn 0.2615 -0.9099 0.3221
vn 0.4030 -0.4607 0.7908
vn 0.2645 -0.7017 0.6616
vn 0.7510 -0.5151 -0.4130
vn 0.5656 -0.2485 -0.7864
vn 0.5690 -0.7602 -0.3137
vn 0.0596 0.8979 0.4362
vn -0.2431 0.7991 0.5499
vn -0.5659 0.6302 0.5316
vn -0.0417 -0.2177 0.9751
vn -0.2493 -0.0321 0.9679
vn -0.2118 -0.1207 0.9698
vn -0.0524 -0.2969 0.9535
vn 0.2967 -0.2328 0.9262
vn 0.1224 -0.0710 0.9899
vn -0.0715 -0.8971 0.4359
vn 0.0911 -0.9953 0.0318
vn -0.0365 -0.9712 -0.2353
vn 0.1047 -0.9655 -0.2383
vn 0.1189 -0.8255 -0.5517
vn -0.0202 -0.9444 0.3282
vn 0.2321 -0.7149 0.6595
vn 0.2305 0.9547 0.1884
vn 0.1794 0.9475 -0.2647
vn 0.1799 0.8925 -0.4137
vn -0.5524 0.7315 -0.3997
vn -0.1720 0.9211 -0.3492
vn -0.3084 0.9490 0.0660
vn -0.7041 0.6092 0.3648
vn -0.6610 0.5858 0.4689
vn -0.8411 0.1643 -0.5153
vn -0.6135 -0.4992 -0.6119
vn -0.4165 -0.3285 -0.8477
vn -0.6003 -0.6312 0.4912
vn -0.1550 0.4845 -0.8609
vn -0.4475 0.3018 -0.8418
vn 0.2447 0.6535 -0.7163
vn 0.2446 0.0762 -0.9666
vn 0.3660 -0.3285 -0.8707
vn 0.0533 -0.0588 -0.9969
vn -0.3230 -0.1917 -0.9268
vn -0.0626 -0.7029 -0.7085
vn 0.6742 0.4991 -0.5444
vn 0.5787 0.3556 -0.7340
vn 0.4360 0.8400 0.3231
vn 0.8690 -0.3778 0.3195
vn 0.4019 -0.4842 0.7772
vn 0.7503 -0.5248 -0.4021
vn 0.2092 0.7229 0.6585
vn 0.3549 0.7161 0.6011
vn -0.3773 0.8290 0.4127
vn -0.2076 0.1130 0.9717
vn -0.4271 0.1048 0.8981
vn 0.1607 0.0635 0.9850
vn -0.0213 -0.9444 0.3282
vn -0.1294 -0.8415 0.5245
vn -0.0614 -0.8054 0.5895
vn -0.0395 -0.9765 0.2119
vn 0.0319 -0.9125 -0.4079
vn 0.0208 -0.9996 0.0178
vn 0.1178 -0.9720 -0.2033
vn 0.2156 -0.9419 -0.2577
vn 0.0193 -0.9997 0.0136
vn -0.0083 -0.9303 0.3666
vn -0.0527 -0.9975 0.0461
vn 0.2162 0.9724 0.0875
vn 0.0554 0.8461 0.5301
vn 0.2283 0.9736 -0.0006
vn -0.1687 0.9459 -0.2771
vn -0.0785 0.8633 -0.4985
vn -0.4600 0.7003 -0.5458
vn -0.2712 0.9398 0.2078
vn -0.3077 0.9459 0.1027
vn -0.5495 0.8351 -0.0258
vn 0.5891 0.0045 -0.8081
vn -0.0003 0.0049 1.0000
vn -0.5894 0.0039 -0.8078
vn 0.9514 0.0056 0.3080
vn -0.9514 0.0047 0.3079
vn 0.5905 -0.0126 -0.8069
vn -0.0006 0.0401 0.9992
vn -0.5901 -0.0220 -0.8070
vn 0.9513 0.0262 0.3071
vn -0.9517 0.0099 0.3070
vn -0.5906 0.0146 -0.8068
vn 0.9493 -0.0631 0.3080
vn -0.9441 0.1155 0.3087
vn 0.5803 -0.0963 -0.8087
vn 0.0096 0.0670 0.9977
vn -0.9521 -0.0380 0.3034
vn 0.5766 0.0006 -0.8170
vn 0.0105 0.0579 0.9983
vn -0.5901 -0.0720 -0.8041
vn 0.9517 0.0799 0.2966
vn 0.0358 -0.0120 0.9993
vn -0.0484 -0.6367 -0.7696
vn 0.9603 0.0338 0.2767
vn -0.0131 0.5169 -0.8559
vn -0.2220 0.6810 0.6978
vn -0.1968 0.5751 -0.7940
vn 0.5337 0.1260 -0.8363
vn 0.2979 -0.7739 0.5588
vn 0.2042 -0.5578 -0.8044
vn -0.4080 0.4189 -0.8112
vn 0.6014 -0.5671 0.5628
vn -0.4794 0.5018 0.7200
vn 0.4300 -0.4118 -0.8034
vn -0.6756 0.1363 0.7245
vn 0.5942 -0.0816 -0.8002
vn -0.5720 0.1209 -0.8113
vn 0.8244 -0.1211 0.5529
vn -0.0346 -0.8250 0.5640
vn -0.8967 -0.3789 0.2289
vn -0.9270 0.0535 0.3713
vn 0.0119 0.6775 0.7355
vn -0.3924 -0.7277 0.5625
vn 0.2298 0.5149 -0.8259
vn -0.3172 -0.5501 -0.7725
vn 0.3143 0.6351 0.7056
vn -0.7289 -0.3424 0.5928
vn -0.5583 -0.2500 -0.7911
vn 0.4719 0.2523 -0.8448
vn 0.6151 0.3102 0.7248
vn 0.2139 0.8652 -0.4535
vn -0.8163 -0.5233 -0.2445
vn 0.7293 0.6252 0.2780
vn 0.4521 -0.4273 0.7830
vn -0.4622 0.5196 0.7186
vn 0.0692 0.9976 -0.0062
vn -0.5280 0.8493 -0.0045
vn 0.4389 -0.5316 -0.7244
vn 0.9305 -0.2255 0.2885
vn -0.6259 -0.0805 -0.7758
vn -0.4293 0.5499 0.7165
vn -0.5511 0.2321 0.8015
vn 0.9613 0.0896 0.2606
vn 0.5686 -0.1826 -0.8021
vn -0.6615 -0.1640 -0.7318
vn -0.1374 0.9905 0.0009
vn -0.5031 0.1129 -0.8568
vn 0.0743 0.9953 0.0625
vn -0.8744 0.1553 0.4597
vn 0.7137 -0.4984 -0.4922
vn 0.6134 -0.3360 -0.7148
vn -0.3909 -0.7180 -0.5759
vn -0.8289 0.1209 0.5462
vn 0.3554 0.7355 0.5768
vn -0.3852 0.6985 -0.6031
s off
f 1/1/1 2/2/1 3/3/1
f 3/3/2 4/4/2 5/5/2
f 5/5/3 4/4/3 6/6/3
f 7/7/4 8/8/4 9/9/4
f 5/5/5 10/10/5 7/7/5
f 7/7/6 10/10/6 8/8/6
f 1/1/7 11/11/7 2/2/7
f 2/2/8 11/11/8 12/12/8
f 7/7/9 9/9/9 11/11/9
f 13/13/10 14/14/10 15/15/10
f 16/16/11 4/4/11 14/14/11
f 13/17/12 15/18/12 17/19/12
f 17/19/13 18/20/13 19/21/13
f 20/22/14 21/23/14 22/24/14
f 17/19/15 23/25/15 20/22/15
f 20/22/16 23/25/16 21/23/16
f 13/13/17 24/26/17 16/16/17
f 16/16/18 10/10/18 6/6/18
f 20/27/19 22/28/19 24/26/19
f 25/29/20 18/20/20 26/30/20
f 25/29/21 26/30/21 27/31/21
f 27/31/22 28/32/22 29/33/22
f 30/34/23 31/35/23 32/36/23
f 27/31/24 33/37/24 30/34/24
f 30/34/25 33/37/25 31/35/25
f 25/29/26 23/25/26 34/38/26
f 34/38/27 23/25/27 19/21/27
f 30/34/28 32/36/28 23/25/28
f 35/39/29 28/32/29 36/40/29
f 35/39/30 36/40/30 37/41/30
f 37/42/31 38/43/31 12/12/31
f 39/44/32 40/45/32 41/46/32
f 37/42/33 11/11/33 39/47/33
f 39/47/34 11/11/34 40/48/34
f 35/39/35 33/37/35 42/49/35
f 42/49/36 33/37/36 29/33/36
f 39/44/37 41/46/37 33/37/37
f 43/50/38 11/11/38 9/9/38
f 44/51/39 8/8/39 45/52/39
f 45/52/40 10/10/40 22/28/40
f 45/53/41 21/23/41 46/54/41
f 46/54/42 23/25/42 32/36/42
f 44/55/43 31/35/43 43/56/43
f 31/35/44 33/37/44 41/46/44
f 47/57/45 28/32/45 26/30/45
f 48/58/46 18/20/46 49/59/46
f 49/59/47 18/20/47 15/18/47
f 50/60/48 4/4/48 3/3/48
f 49/61/49 14/14/49 50/60/49
f 48/62/50 38/43/50 47/63/50
f 3/3/51 2/2/51 38/43/51
f 2/2/52 12/12/52 38/43/52
f 1/1/53 3/3/53 5/5/53
f 1/1/54 5/5/54 7/7/54
f 5/5/55 6/6/55 10/10/55
f 1/1/56 7/7/56 11/11/56
f 13/13/57 16/16/57 14/14/57
f 16/16/58 6/6/58 4/4/58
f 17/19/59 15/18/59 18/20/59
f 13/17/60 17/19/60 20/22/60
f 17/19/61 19/21/61 23/25/61
f 13/13/62 20/27/62 24/26/62
f 16/16/63 24/26/63 10/10/63
f 24/26/64 22/28/64 10/10/64
f 25/29/65 34/38/65 18/20/65
f 34/38/66 19/21/66 18/20/66
f 27/31/67 26/30/67 28/32/67
f 25/29/68 27/31/68 30/34/68
f 27/31/69 29/33/69 33/37/69
f 25/29/70 30/34/70 23/25/70
f 35/39/71 42/49/71 28/32/71
f 42/49/72 29/33/72 28/32/72
f 37/42/73 36/64/73 38/43/73
f 35/39/74 37/41/74 39/44/74
f 37/42/75 12/12/75 11/11/75
f 35/39/76 39/44/76 33/37/76
f 44/51/77 43/50/77 9/9/77
f 43/56/78 41/46/78 40/45/78
f 43/50/79 40/48/79 11/11/79
f 44/51/80 9/9/80 8/8/80
f 45/52/81 8/8/81 10/10/81
f 44/55/82 45/53/82 46/54/82
f 45/53/83 22/24/83 21/23/83
f 46/54/84 21/23/84 23/25/84
f 44/55/85 46/54/85 31/35/85
f 43/56/86 31/35/86 41/46/86
f 46/54/87 32/36/87 31/35/87
f 48/58/88 47/57/88 26/30/88
f 47/57/89 36/40/89 28/32/89
f 48/58/90 26/30/90 18/20/90
f 48/62/91 49/61/91 50/60/91
f 49/61/92 15/15/92 14/14/92
f 50/60/93 14/14/93 4/4/93
f 48/62/94 50/60/94 38/43/94
f 47/63/95 38/43/95 36/64/95
f 50/60/96 3/3/96 38/43/96
f 55/65/97 51/66/97 56/67/97 60/68/97
f 53/69/98 54/70/98 59/71/98 58/72/98
f 51/73/99 52/74/99 57/75/99 56/76/99
f 54/70/100 55/65/100 60/68/100 59/71/100
f 52/74/101 53/69/101 58/72/101 57/75/101
f 60/68/102 56/67/102 61/77/102 65/78/102
f 58/72/103 59/71/103 64/79/103 63/80/103
f 56/76/104 57/75/104 62/81/104 61/82/104
f 59/71/105 60/68/105 65/78/105 64/79/105
f 57/75/106 58/72/106 63/80/106 62/81/106
f 61/82/107 62/81/107 67/83/107 66/84/107
f 64/79/108 65/78/108 70/85/108 69/86/108
f 62/81/109 63/80/109 68/87/109 67/83/109
f 65/78/110 61/77/110 66/88/110 70/85/110
f 63/80/111 64/79/111 69/86/111 68/87/111
f 67/89/112 68/90/112 73/91/112 72/92/112
f 70/93/113 66/94/113 71/95/113 75/96/113
f 68/90/114 69/97/114 74/98/114 73/91/114
f 66/99/115 67/89/115 72/92/115 71/100/115
f 69/97/116 70/93/116 75/96/116 74/98/116
f 73/91/117 74/98/117 79/101/117 107/102/117
f 71/103/118 72/104/118 96/105/118 95/106/118
f 74/98/119 81/107/119 80/108/119 79/101/119
f 94/109/120 71/103/120 95/106/120 98/110/120
f 81/111/121 74/112/121 83/113/121 85/114/121
f 71/115/122 81/116/122 85/117/122 82/118/122
f 81/107/123 71/119/123 76/120/123 80/108/123
f 74/112/124 75/121/124 84/122/124 83/113/124
f 75/121/125 71/115/125 82/118/125 84/122/125
f 82/118/126 85/117/126 89/123/126 86/124/126
f 83/113/127 84/122/127 88/125/127 87/126/127
f 85/114/128 83/113/128 87/126/128 89/127/128
f 84/122/129 82/118/129 86/124/129 88/125/129
f 89/127/130 87/126/130 91/128/130 93/129/130
f 88/125/131 86/124/131 90/130/131 92/131/131
f 86/124/132 89/123/132 93/132/132 90/130/132
f 87/126/133 88/125/133 92/131/133 91/128/133
f 72/104/134 73/133/134 97/134/134 96/105/134
f 94/135/135 107/102/135 122/136/135 121/137/135
f 94/135/136 73/91/136 107/102/136
f 73/133/137 94/138/137 98/139/137 97/134/137
f 96/105/138 97/134/138 101/140/138 100/141/138
f 98/110/139 95/106/139 99/142/139 102/143/139
f 95/106/140 96/105/140 100/141/140 99/142/140
f 97/134/141 98/139/141 102/144/141 101/140/141
f 100/141/142 101/140/142 104/145/142 105/146/142
f 99/142/143 100/141/143 105/146/143 106/147/143
f 102/143/144 99/142/144 106/147/144 103/148/144
f 101/140/145 102/144/145 103/149/145 104/145/145
f 108/150/146 109/151/146 79/152/146 77/153/146
f 77/153/147 107/154/147 111/155/147 108/150/147
f 109/156/148 110/157/148 79/158/148
f 107/154/149 79/158/149 110/157/149 111/155/149
f 109/159/150 108/160/150 111/161/150 110/162/150
f 92/163/151 90/164/151 93/165/151 91/166/151
f 103/167/152 106/168/152 105/169/152 104/170/152
f 80/108/153 76/120/153 112/171/153 115/172/153
f 79/101/154 80/108/154 115/172/154 114/173/154
f 76/174/155 77/175/155 113/176/155 112/177/155
f 114/173/156 113/176/156 77/175/156 79/101/156
f 113/176/157 114/173/157 117/178/157 116/179/157
f 114/173/158 115/172/158 118/180/158 117/178/158
f 115/172/159 112/171/159 78/181/159 118/180/159
f 112/177/160 113/176/160 116/179/160 78/182/160
f 118/183/161 78/184/161 116/185/161 117/186/161
f 71/187/162 94/135/162 76/174/162
f 77/175/163 76/174/163 119/188/163 120/189/163
f 107/102/164 77/190/164 120/191/164 122/136/164
f 76/174/165 94/135/165 121/137/165 119/188/165
f 119/188/166 121/137/166 125/192/166 123/193/166
f 121/137/167 122/136/167 126/194/167 125/192/167
f 122/136/168 120/191/168 124/195/168 126/194/168
f 120/189/169 119/188/169 123/193/169 124/195/169
f 124/196/170 123/197/170 125/198/170 126/199/170
