# Blender v2.78 (sub 0) OBJ File: 'Low_Poly_Trees_Pack.blend'
# www.blender.org
g Acacia_Tree_NoLeaves_crk_l_03
v -3.029600 0.159625 0.116439
v -2.965641 -0.015975 0.137248
v -2.964910 0.039881 0.317530
v -4.148646 0.269571 0.512751
v -4.191807 0.144611 0.571435
v -4.096554 0.160037 0.697313
v -4.055467 0.268863 0.651384
v -5.876190 0.394388 0.713744
v -5.882749 0.281700 0.750829
v -5.828814 0.307906 0.871736
v -5.851642 0.408670 0.847346
v -7.659244 -0.001557 0.707469
v -7.632799 -0.021183 0.824551
v -7.628448 0.079447 0.794173
v -8.951700 0.235429 0.899715
v -8.915365 0.208663 0.988003
v -8.891891 0.280726 0.956248
v -9.977788 0.630505 1.427372
v -9.964357 0.617813 1.465038
v -9.954150 0.649458 1.451291
v -5.990969 0.280149 0.869280
v -6.148811 -0.035499 2.275035
v -6.127215 0.076561 2.265475
v -6.263747 0.026449 2.234181
v -6.913960 0.179327 3.471285
v -6.906551 0.222330 3.468764
v -6.965917 0.200936 3.457405
v -3.038751 0.198488 0.311595
v 0.434982 0.000000 -0.328693
v -0.165354 0.000000 -0.382724
v -0.402255 0.000000 0.171532
v 0.051668 0.000000 0.568112
v 0.569109 0.000000 0.258956
v 0.284258 0.781876 -0.225397
v 0.383493 0.781876 0.209384
v -0.335182 0.781876 0.144702
v 0.000658 0.781876 0.438117
v -0.159908 0.781876 -0.265372
v -0.074468 1.733575 -0.278549
v -0.532107 1.807451 -0.346168
v -0.654113 1.811240 0.048565
v -0.408965 1.885997 0.312521
v -0.115707 1.953843 0.059825
v -1.415014 3.857695 -0.130481
v -1.727338 3.709709 -0.179652
v -1.777306 3.561991 0.085216
v -1.596321 3.777520 0.288913
v -1.345716 3.786848 0.136139
v -2.219109 5.317610 -0.176771
v -2.387679 5.091515 -0.210321
v -2.535811 5.196009 -0.021503
v -2.372095 5.303778 0.121100
v -2.215661 5.339223 0.013481
v -1.948711 3.905545 0.087226
v -2.368986 4.142652 0.169614
v -3.075683 6.715849 -0.303979
v -3.233308 6.639488 -0.329631
v -3.294436 6.622814 -0.194155
v -3.176479 6.691785 -0.092808
v -3.069099 6.721966 -0.169867
v -1.532490 4.102340 0.129259
v -1.228974 4.469446 0.168597
v -1.255081 4.387539 0.475745
v -1.127220 4.418329 0.301036
v -1.373563 4.456864 0.321411
v -1.250717 5.717104 0.554512
v -1.350886 5.634361 0.817833
v -1.197351 5.699740 0.705013
v -1.415483 5.660535 0.640265
v -1.221735 6.896863 1.097745
v -1.321958 6.803562 1.283706
v -1.190014 6.854686 1.212671
v -1.358395 6.832275 1.136432
v -0.907180 8.110700 2.393814
v -0.890221 8.064105 2.502014
v -0.791125 8.102503 2.448663
v -0.838926 9.616865 3.529376
v -0.775797 9.641918 3.491854
v -0.854161 9.642338 3.462148
v -3.841038 8.237443 -0.361019
v -3.930979 8.194828 -0.375179
v -3.962466 8.179326 -0.297833
v -3.876147 8.221615 -0.261615
v -4.121702 9.384293 -0.309602
v -4.183550 9.390349 -0.350061
v -4.204774 9.392159 -0.295347
v -4.276618 10.590775 -0.149889
v -4.296465 10.591242 -0.172086
v -4.307208 10.590076 -0.148272
v -2.550528 5.402068 -0.228801
v -2.593523 5.434327 -0.619739
v -2.718297 5.321416 -0.609649
v -2.805550 5.386484 -0.500855
v -2.682988 5.527551 -0.502257
v -3.354826 6.268150 -1.561849
v -3.467551 6.147180 -1.533390
v -3.553380 6.200770 -1.429886
v -3.403008 6.307227 -1.398605
v -4.219326 7.565502 -2.182905
v -4.323207 7.543625 -2.070985
v -4.205778 7.626757 -2.046557
v -4.754448 8.884534 -2.185213
v -4.814829 8.861847 -2.110731
v -4.726466 8.899091 -2.091349
v -5.292790 9.951831 -2.568749
v -5.325593 9.953646 -2.540528
v -5.289999 9.980981 -2.536007
v -3.568995 6.303145 -1.626400
v -4.045914 6.108746 -1.821585
v -4.069181 6.097294 -1.729118
v -4.048176 6.203474 -1.749676
v -5.061494 6.493219 -2.125757
v -5.080347 6.475873 -2.066838
v -5.051088 6.545885 -2.073824
v -5.875035 7.458945 -2.082769
v -5.881234 7.450703 -2.053184
v -5.850758 7.469333 -2.050623
v -1.223135 10.635474 3.821867
v -1.192443 10.647540 3.805434
v -1.231859 10.647752 3.790491
v -1.334401 6.962598 1.242267
v -2.488311 7.454485 0.776170
v -2.511740 7.424399 0.897611
v -2.558284 7.348513 0.802772
v -3.552824 8.886228 0.831048
v -3.576620 8.873332 0.839475
v -3.556287 8.889592 0.856554
v -0.324670 2.201488 -0.269459
v 0.060906 2.479539 -0.666445
v -0.185561 2.425987 -0.752899
v 0.001446 2.548949 -0.459988
v -0.225793 2.622599 -0.577926
v 0.131178 4.798281 -1.252768
v -0.039957 4.732732 -1.323951
v 0.088177 4.793299 -1.092010
v -0.093767 4.824722 -1.159069
v 0.258689 6.678104 -2.025455
v 0.115267 6.761625 -2.107090
v 0.244984 6.823825 -1.944535
v 0.124566 6.891139 -2.019221
v 0.677845 8.626144 -2.982220
v 0.609078 8.663667 -2.976234
v 0.666640 8.661189 -2.917722
v 0.763988 9.938183 -3.336005
v 0.737424 9.928733 -3.330825
v 0.756221 9.932182 -3.305103
v 0.287424 6.869353 -2.112496
v 1.142802 6.884249 -1.913857
v 1.117300 6.977239 -1.866339
v 1.117975 7.001446 -1.978894
v 1.958304 7.475224 -1.627258
v 1.896175 7.506752 -1.578844
v 1.859510 7.500247 -1.661730
v 2.102119 8.281922 -1.679182
v 2.082168 8.301646 -1.663318
v 2.065169 8.293519 -1.692240
v -2.352016 3.857976 0.189823
v -2.385679 3.982209 0.052738
v -2.324077 4.018686 0.284764
vt 0.5107 0.7717
vt 0.5129 0.7723
vt 0.5132 0.7882
vt 0.5114 0.7890
vt 0.5148 0.7735
vt 0.5147 0.7878
vt 0.5166 0.7886
vt 0.5184 0.7891
vt 0.5174 0.8111
vt 0.5159 0.8110
vt 0.5141 0.8109
vt 0.5174 0.7726
vt 0.5194 0.7718
vt 0.5462 0.8543
vt 0.5457 0.8530
vt 0.5646 0.8536
vt 0.5214 0.8343
vt 0.5128 0.8105
vt 0.5111 0.8110
vt 0.5170 0.8352
vt 0.5185 0.8346
vt 0.5224 0.8515
vt 0.5212 0.8520
vt 0.5199 0.8342
vt 0.5236 0.8511
vt 0.5117 0.8123
vt 0.5136 0.8132
vt 0.5143 0.8110
vt 0.5249 0.8513
vt 0.5270 0.8667
vt 0.5264 0.8667
vt 0.5962 0.8339
vt 0.5962 0.8344
vt 0.5957 0.8341
vt 0.5259 0.8668
vt 0.5255 0.8670
vt 0.5647 0.8587
vt 0.5648 0.8568
vt 0.5823 0.8561
vt 0.5822 0.8568
vt 0.5458 0.8592
vt 0.5467 0.8569
vt 0.5447 0.8556
vt 0.5648 0.8551
vt 0.5956 0.8349
vt 0.5963 0.8346
vt 0.5963 0.8352
vt 0.5822 0.8547
vt 0.5821 0.8554
vt 0.5795 0.8257
vt 0.5945 0.8208
vt 0.5994 0.8298
vt 0.5810 0.8365
vt 0.5566 0.8274
vt 0.5582 0.8016
vt 0.5625 0.8010
vt 0.5621 0.8279
vt 0.5679 0.8278
vt 0.5663 0.8003
vt 0.5700 0.8002
vt 0.5737 0.8271
vt 0.5749 0.8050
vt 0.5785 0.7997
vt 0.5690 0.8396
vt 0.5752 0.8387
vt 0.5565 0.8376
vt 0.5627 0.8390
vt 0.5617 0.7899
vt 0.5656 0.7907
vt 0.5351 0.8626
vt 0.5288 0.8620
vt 0.5321 0.8519
vt 0.5355 0.8514
vt 0.5586 0.7914
vt 0.5690 0.7895
vt 0.5732 0.7894
vt 0.5763 0.7898
vt 0.5738 0.7991
vt 0.5154 0.7670
vt 0.5177 0.7630
vt 0.5174 0.7726
vt 0.5148 0.7735
vt 0.6008 0.8410
vt 0.6008 0.8454
vt 0.5811 0.8455
vt 0.5795 0.8422
vt 0.5566 0.7767
vt 0.5556 0.7736
vt 0.5646 0.7729
vt 0.5649 0.7752
vt 0.6008 0.8534
vt 0.5970 0.8562
vt 0.5790 0.8538
vt 0.5789 0.8514
vt 0.5974 0.8491
vt 0.5792 0.8483
vt 0.5089 0.7638
vt 0.5129 0.7624
vt 0.5129 0.7723
vt 0.5107 0.7717
vt 0.5209 0.7640
vt 0.5194 0.7718
vt 0.5765 0.8455
vt 0.5583 0.8455
vt 0.5585 0.8433
vt 0.5583 0.8513
vt 0.5582 0.8496
vt 0.5300 0.7666
vt 0.5316 0.7702
vt 0.5312 0.7746
vt 0.5287 0.7744
vt 0.5793 0.8398
vt 0.5585 0.8415
vt 0.5583 0.8474
vt 0.5817 0.7725
vt 0.5822 0.7745
vt 0.5972 0.8378
vt 0.5588 0.7705
vt 0.5555 0.7674
vt 0.5648 0.7671
vt 0.5646 0.7699
vt 0.5814 0.7702
vt 0.5564 0.7639
vt 0.5649 0.7642
vt 0.5818 0.7679
vt 0.5822 0.7654
vt 0.5980 0.7665
vt 0.5977 0.7684
vt 0.5972 0.7703
vt 0.6015 0.8009
vt 0.6028 0.8000
vt 0.6053 0.8231
vt 0.6039 0.8238
vt 0.6046 0.8013
vt 0.5979 0.7722
vt 0.5980 0.7738
vt 0.6066 0.8477
vt 0.6055 0.8478
vt 0.5483 0.7651
vt 0.5499 0.7659
vt 0.5510 0.7829
vt 0.6065 0.8003
vt 0.6086 0.8005
vt 0.6083 0.8236
vt 0.6067 0.8235
vt 0.6076 0.8478
vt 0.6077 0.8624
vt 0.6073 0.8625
vt 0.6196 0.7830
vt 0.6195 0.7848
vt 0.5955 0.7833
vt 0.5955 0.7818
vt 0.6189 0.7890
vt 0.6186 0.7911
vt 0.5950 0.7875
vt 0.5951 0.7860
vt 0.6192 0.7871
vt 0.5953 0.7847
vt 0.6186 0.7928
vt 0.5680 0.7838
vt 0.5679 0.7829
vt 0.5682 0.7815
vt 0.5681 0.7823
vt 0.5582 0.7814
vt 0.5582 0.7812
vt 0.5581 0.7816
vt 0.5582 0.7819
vt 0.5970 0.8346
vt 0.5970 0.8348
vt 0.5968 0.8347
vt 0.5243 0.7743
vt 0.5266 0.7743
vt 0.5267 0.7929
vt 0.5246 0.7934
vt 0.5227 0.7664
vt 0.5265 0.7667
vt 0.5220 0.7747
vt 0.5225 0.7931
vt 0.5205 0.7705
vt 0.5898 0.7937
vt 0.5929 0.7943
vt 0.5931 0.8011
vt 0.5918 0.8015
vt 0.5285 0.7932
vt 0.5308 0.7931
vt 0.5294 0.8133
vt 0.5276 0.8130
vt 0.5240 0.8132
vt 0.5258 0.8129
vt 0.5257 0.8315
vt 0.5244 0.8313
vt 0.5267 0.7953
vt 0.5270 0.8314
vt 0.5283 0.8314
vt 0.5270 0.8489
vt 0.5264 0.8488
vt 0.5958 0.8334
vt 0.5963 0.8331
vt 0.5963 0.8337
vt 0.5259 0.8487
vt 0.5254 0.8489
vt 0.5878 0.7941
vt 0.5907 0.8021
vt 0.5972 0.8138
vt 0.5963 0.8139
vt 0.5855 0.7935
vt 0.5860 0.7966
vt 0.5893 0.8026
vt 0.5949 0.8147
vt 0.5956 0.8142
vt 0.6017 0.8291
vt 0.6011 0.8292
vt 0.5968 0.8338
vt 0.5971 0.8337
vt 0.5971 0.8342
vt 0.6021 0.8289
vt 0.6025 0.8287
vt 0.6068 0.8624
vt 0.5961 0.8345
vt 0.5957 0.8347
vt 0.5956 0.8342
vt 0.6086 0.8477
vt 0.6082 0.8624
vt 0.5527 0.7830
vt 0.5543 0.7827
vt 0.5544 0.8065
vt 0.5540 0.8065
vt 0.5519 0.7647
vt 0.5535 0.7657
vt 0.5536 0.8066
vt 0.5469 0.7663
vt 0.5494 0.7831
vt 0.5952 0.8340
vt 0.5955 0.8341
vt 0.5952 0.8344
vt 0.5532 0.8066
vt 0.5419 0.8502
vt 0.5385 0.8517
vt 0.5389 0.8204
vt 0.5415 0.8199
vt 0.5402 0.8625
vt 0.5293 0.8499
vt 0.5315 0.8196
vt 0.5341 0.8202
vt 0.5430 0.8573
vt 0.5266 0.8564
vt 0.5367 0.8196
vt 0.5371 0.7916
vt 0.5389 0.7902
vt 0.5408 0.7891
vt 0.5487 0.8026
vt 0.5504 0.8039
vt 0.5461 0.8314
vt 0.5465 0.8014
vt 0.5465 0.8043
vt 0.5350 0.7903
vt 0.5333 0.7890
vt 0.5430 0.8313
vt 0.5441 0.8311
vt 0.5439 0.8495
vt 0.5434 0.8496
vt 0.5430 0.8035
vt 0.5449 0.8026
vt 0.5451 0.8311
vt 0.5949 0.8352
vt 0.5949 0.8345
vt 0.5954 0.8349
vt 0.5442 0.8497
vt 0.5446 0.8496
vt 0.5553 0.8495
vt 0.5530 0.8501
vt 0.5522 0.8374
vt 0.5538 0.8375
vt 0.5520 0.8243
vt 0.5530 0.8247
vt 0.5504 0.8505
vt 0.5473 0.8495
vt 0.5488 0.8375
vt 0.5506 0.8377
vt 0.5522 0.8155
vt 0.5525 0.8156
vt 0.5499 0.8247
vt 0.5512 0.8243
vt 0.5967 0.8332
vt 0.5971 0.8327
vt 0.5975 0.8332
vt 0.5514 0.8156
vt 0.5518 0.8157
vn -0.0339 -0.9710 0.2367
vn 0.3273 0.2184 0.9193
vn -0.1299 -0.3471 -0.9288
vn 0.0659 0.9948 -0.0781
vn 0.0411 0.9915 -0.1237
vn -0.3489 -0.2621 -0.8998
vn 0.9313 0.2701 0.2442
vn 0.0734 -0.3156 -0.9460
vn 0.1240 0.3059 0.9440
vn -0.0605 -0.9776 0.2015
vn -0.1973 -0.9675 -0.1582
vn 0.1719 0.3089 0.9354
vn 0.1692 -0.9851 -0.0298
vn -0.1812 0.9184 -0.3517
vn -0.0132 0.7880 -0.6156
vn 0.0335 0.7390 -0.6728
vn -0.7881 0.4408 0.4296
vn 0.4737 0.2203 0.8527
vn -0.4093 -0.9043 -0.1216
vn -0.2725 0.9182 -0.2876
vn -0.5439 0.8363 0.0689
vn -0.0768 0.2675 0.9605
vn 0.8519 -0.5194 0.0671
vn -0.3310 -0.9121 -0.2420
vn -0.2199 0.0948 0.9709
vn 0.8278 -0.1120 0.5497
vn -0.4167 -0.9027 -0.1075
vn 0.9527 0.2124 -0.2174
vn 0.5313 0.3076 0.7894
vn -0.8872 -0.3265 -0.3262
vn 0.9192 0.3551 -0.1701
vn -0.6735 -0.1549 0.7228
vn -0.9176 0.0653 -0.3922
vn 0.5051 0.1735 0.8454
vn 0.0887 0.1472 -0.9851
vn -0.6557 0.0820 0.7505
vn 0.1165 -0.0242 -0.9929
vn -0.5662 -0.3619 0.7406
vn 0.1651 -0.5392 -0.8258
vn 0.5323 0.3345 0.7777
vn -0.8082 -0.4952 -0.3188
vn 0.8268 0.5553 -0.0893
vn 0.1831 0.7673 -0.6146
vn 0.1364 0.0435 -0.9897
vn 0.8956 -0.1330 -0.4245
vn 0.4621 0.3285 0.8237
vn -0.8223 -0.4047 -0.4000
vn -0.5503 -0.1863 0.8139
vn -0.1660 -0.5549 0.8152
vn -0.4713 -0.7215 -0.5073
vn 0.3877 0.8939 0.2248
vn 0.1570 0.0062 -0.9876
vn 0.4610 0.3901 0.7971
vn -0.6319 0.5340 0.5617
vn 0.8532 0.5168 -0.0706
vn -0.5648 -0.2038 0.7997
vn 0.8809 0.1700 -0.4418
vn 0.8756 0.4792 -0.0616
vn -0.8463 0.2551 0.4676
vn -0.6260 0.2004 -0.7536
vn -0.5524 0.5260 -0.6467
vn 0.6089 -0.4580 0.6476
vn 0.6015 -0.3166 0.7334
vn -0.9555 -0.0814 0.2834
vn -0.8828 -0.1679 0.4387
vn 0.7311 -0.1485 0.6659
vn 0.7555 0.3505 -0.5536
vn -0.3420 0.7259 -0.5968
vn -0.4776 0.3698 -0.7970
vn 0.9533 0.1115 -0.2806
vn 0.3593 0.5233 -0.7727
vn -0.1875 0.2339 0.9540
vn 0.5351 -0.6747 0.5084
vn -0.9859 -0.0700 0.1522
vn -0.9242 -0.3730 0.0818
vn 0.8774 0.4629 0.1264
vn -0.4972 -0.1448 0.8555
vn 0.1424 0.0347 -0.9892
vn 0.4933 0.3151 0.8108
vn -0.8249 -0.3820 -0.4167
vn -0.1272 -0.0071 0.9919
vn 0.9116 0.2072 0.3550
vn -0.9066 -0.1819 -0.3807
vn 0.6079 0.1762 -0.7742
vn -0.9258 -0.0321 -0.3766
vn 0.1305 -0.1117 0.9851
vn -0.0207 0.9990 0.0395
vn 0.3823 -0.5147 -0.7674
vn -0.7843 -0.4663 -0.4092
vn 0.5810 -0.4561 -0.6741
vn 0.7208 0.6926 0.0270
vn -0.5795 -0.8150 0.0060
vn 0.3930 0.9190 0.0326
vn -0.4028 0.6650 0.6289
vn -0.3522 0.2311 0.9069
vn -0.4777 0.4345 0.7636
vn -0.6596 -0.7414 -0.1233
vn 0.8912 0.3580 -0.2787
vn 0.8566 0.5108 -0.0721
vn 0.2325 -0.2895 -0.9285
vn -0.2969 0.2265 0.9277
vn -0.1854 -0.0404 0.9818
vn -0.6867 -0.2781 -0.6716
vn -0.4532 0.6846 -0.5709
vn -0.5783 -0.5183 -0.6300
vn 0.8859 0.3276 -0.3284
vn 0.0107 -0.9764 0.2159
vn -0.6942 -0.5765 -0.4309
vn -0.2345 0.2151 0.9480
vn 0.4021 -0.5474 -0.7340
vn 0.2059 0.3943 -0.8956
vn 0.5808 0.5180 -0.6280
vn 0.4242 0.5687 -0.7047
vn -0.2701 -0.9293 -0.2519
vn -0.5251 0.8419 0.1245
vn -0.7186 -0.5869 -0.3731
vn 0.0456 0.0191 0.9988
vn 0.3264 0.4020 -0.8555
vn -0.1450 0.9071 0.3952
vn 0.5136 -0.0532 0.8564
vn -0.2116 -0.1190 -0.9701
vn -0.9578 0.0665 0.2796
vn 0.0587 -0.4182 -0.9065
vn 0.7839 0.5696 0.2470
vn -0.4843 -0.8126 0.3243
vn 0.3691 0.9271 0.0646
vn -0.5173 0.8365 -0.1806
vn -0.5945 -0.4092 0.6922
vn 0.5641 -0.4678 0.6804
vn -0.3406 0.2630 0.9027
vn 0.0901 0.1425 -0.9857
vn 0.9777 -0.0454 0.2049
vn -0.9653 -0.0072 -0.2610
vn -0.2643 0.6425 0.7193
vn -0.9400 0.3184 -0.1226
vn 0.9758 0.0195 0.2176
vn -0.2825 0.3919 0.8756
vn 0.9642 0.0369 0.2626
vn 0.4020 -0.2399 -0.8837
vn -0.9707 0.1786 -0.1606
vn 0.2429 -0.4318 -0.8686
vn 0.3899 -0.3648 -0.8455
vn -0.9824 0.0149 -0.1861
vn -0.7185 0.2515 0.6485
vn -0.3791 0.5085 0.7731
vn 0.9699 -0.1068 0.2190
vn -0.3153 0.9433 0.1039
vn 0.9802 -0.0099 0.1979
vn -0.1840 -0.2463 -0.9516
vn -0.1870 0.9597 0.2098
vn 0.0875 -0.4448 -0.8914
vn -0.5994 0.7798 0.1810
vn 0.2109 -0.4344 -0.8757
vn 0.0018 -0.4736 0.8807
vn -0.8858 0.2469 0.3929
vn 0.4698 -0.1942 -0.8611
vn 0.0996 -0.5623 0.8209
vn 0.4101 0.7864 -0.4620
vn 0.3007 -0.1145 -0.9468
vn 0.5945 -0.0541 0.8023
vn 0.3148 0.1025 -0.9436
s off
f 2/1/1 3/2/1 6/3/1 5/4/1
f 3/2/2 28/5/2 7/6/2 6/3/2
f 4/7/3 5/8/3 9/9/3 8/10/3
f 7/6/4 4/7/4 8/10/4 11/11/4
f 28/5/5 1/12/5 4/7/5 7/6/5
f 1/12/6 2/13/6 5/8/6 4/7/6
f 10/14/7 11/15/7 23/16/7
f 8/10/8 9/9/8 12/17/8
f 6/3/9 7/6/9 11/11/9 10/18/9
f 5/4/10 6/3/10 10/18/10 9/19/10
f 12/20/11 13/21/11 16/22/11 15/23/11
f 13/21/12 14/24/12 17/25/12 16/22/12
f 9/26/13 21/27/13 13/21/13 12/20/13
f 11/28/14 8/10/14 12/17/14 14/24/14
f 17/25/15 15/29/15 18/30/15 20/31/15
f 14/24/16 12/17/16 15/29/16 17/25/16
f 18/32/17 19/33/17 20/34/17
f 16/22/18 17/25/18 20/31/18 19/35/18
f 15/23/19 16/22/19 19/35/19 18/36/19
f 23/37/20 24/38/20 27/39/20 26/40/20
f 11/41/21 21/42/21 24/38/21 23/37/21
f 21/27/22 11/28/22 14/24/22 13/21/22
f 9/43/23 10/14/23 23/16/23 22/44/23
f 21/42/24 9/43/24 22/44/24 24/38/24
f 27/45/25 25/46/25 26/47/25
f 22/44/26 23/16/26 26/48/26 25/49/26
f 24/38/27 22/44/27 25/49/27 27/39/27
f 34/50/28 35/51/28 33/52/28 29/53/28
f 35/54/29 43/55/29 42/56/29 37/57/29
f 36/58/30 41/59/30 40/60/30 38/61/30
f 39/62/31 43/63/31 35/51/31 34/50/31
f 37/57/32 42/56/32 41/59/32 36/58/32
f 31/64/33 36/58/33 38/61/33 30/65/33
f 33/66/34 35/54/34 37/57/34 32/67/34
f 30/65/35 38/61/35 34/50/35 29/53/35
f 32/67/36 37/57/36 36/58/36 31/64/36
f 38/61/37 40/60/37 39/62/37 34/50/37
f 41/59/38 42/56/38 47/68/38 46/69/38
f 39/70/39 40/71/39 130/72/39 129/73/39
f 42/56/40 43/55/40 48/74/40 47/68/40
f 40/60/41 41/59/41 46/69/41 45/75/41
f 44/76/42 48/77/42 43/63/42 128/78/42
f 54/79/43 45/80/43 158/81/43 55/82/43
f 44/83/44 45/84/44 50/85/44 49/86/44
f 48/87/45 44/88/45 62/89/45 64/90/45
f 47/91/46 61/92/46 53/93/46 52/94/46
f 45/84/47 54/95/47 51/96/47 50/85/47
f 54/95/48 47/91/48 52/94/48 51/96/48
f 46/97/49 47/98/49 159/99/49 157/100/49
f 45/80/50 46/101/50 157/102/50 158/81/50
f 47/98/51 54/79/51 55/82/51 159/99/51
f 49/86/52 90/103/52 57/104/52 56/105/52
f 52/94/53 53/93/53 60/106/53 59/107/53
f 51/108/54 90/109/54 94/110/54 93/111/54
f 53/112/55 49/86/55 56/105/55 60/113/55
f 51/96/56 52/94/56 59/107/56 58/114/56
f 64/90/57 62/89/57 66/115/57 68/116/57
f 61/117/58 44/83/58 49/86/58 53/112/58
f 61/118/59 47/119/59 63/120/59 65/121/59
f 62/89/60 65/121/60 69/122/60 66/115/60
f 44/88/61 61/118/61 65/121/61 62/89/61
f 47/119/62 48/123/62 64/124/62 63/120/62
f 67/125/63 68/126/63 72/127/63 71/128/63
f 69/122/64 67/125/64 71/128/64 73/129/64
f 65/121/65 63/120/65 67/125/65 69/122/65
f 63/120/66 64/124/66 68/126/66 67/125/66
f 72/130/67 70/131/67 74/132/67 76/133/67
f 70/131/68 121/134/68 74/132/68
f 66/115/69 69/122/69 73/129/69 70/135/69
f 68/116/70 66/115/70 70/135/70 72/136/70
f 79/137/71 78/138/71 76/133/71 74/132/71
f 71/139/72 121/140/72 123/141/72
f 71/142/73 72/143/73 76/144/73 75/145/73
f 77/146/74 79/137/74 74/132/74 75/145/74
f 79/137/75 77/146/75 118/147/75 120/148/75
f 60/149/76 56/150/76 80/151/76 83/152/76
f 58/153/77 59/154/77 83/155/77 82/156/77
f 56/150/78 57/157/78 81/158/78 80/151/78
f 59/154/79 60/159/79 83/155/79
f 57/157/80 58/153/80 82/156/80 81/158/80
f 83/155/81 84/160/81 86/161/81 82/156/81
f 80/151/82 84/162/82 83/152/82
f 82/156/83 86/161/83 85/163/83 81/158/83
f 84/162/84 85/163/84 88/164/84 87/165/84
f 85/163/85 86/161/85 89/166/85 88/164/85
f 86/161/86 84/160/86 87/167/86 89/166/86
f 88/168/87 89/169/87 87/170/87
f 91/171/88 92/172/88 96/173/88 95/174/88
f 90/103/89 51/96/89 58/114/89 57/104/89
f 49/175/90 50/176/90 92/172/90 91/171/90
f 94/177/91 91/171/91 95/174/91 98/178/91
f 50/176/92 51/108/92 93/111/92 92/172/92
f 90/179/93 49/175/93 91/171/93 94/177/93
f 97/180/94 108/181/94 111/182/94 110/183/94
f 97/184/95 98/185/95 101/186/95 100/187/95
f 93/111/96 94/110/96 98/185/96 97/184/96
f 92/172/97 93/111/97 97/184/97 96/173/97
f 101/188/98 99/189/98 102/190/98 104/191/98
f 98/178/99 95/174/99 99/189/99 101/188/99
f 95/174/100 108/192/100 99/189/100
f 103/193/101 104/194/101 107/195/101 106/196/101
f 100/187/102 101/186/102 104/194/102 103/193/102
f 99/189/103 100/187/103 103/193/103 102/190/103
f 105/197/104 106/198/104 107/199/104
f 102/190/105 103/193/105 106/196/105 105/200/105
f 104/191/106 102/190/106 105/200/106 107/201/106
f 96/202/107 97/180/107 110/183/107 109/203/107
f 108/192/108 97/184/108 100/187/108 99/189/108
f 110/183/109 111/182/109 114/204/109 113/205/109
f 95/206/110 96/202/110 109/203/110
f 108/207/111 95/206/111 109/203/111 111/208/111
f 114/209/112 112/210/112 115/211/112 117/212/112
f 111/208/113 109/203/113 112/210/113 114/209/113
f 109/203/114 110/183/114 113/205/114 112/210/114
f 115/213/115 116/214/115 117/215/115
f 112/210/116 113/205/116 116/216/116 115/211/116
f 113/205/117 114/204/117 117/217/117 116/216/117
f 120/148/118 119/218/118 78/138/118 79/137/118
f 120/219/119 118/220/119 119/221/119
f 77/146/120 78/222/120 119/223/120 118/147/120
f 122/224/121 124/225/121 126/226/121 125/227/121
f 121/134/122 71/142/122 75/145/122 74/132/122
f 70/228/123 73/229/123 124/225/123 122/224/123
f 123/141/124 122/224/124 125/227/124 127/230/124
f 73/231/125 71/139/125 123/141/125 124/232/125
f 121/140/126 70/228/126 122/224/126 123/141/126
f 127/233/127 125/234/127 126/235/127
f 126/236/128 124/232/128 123/141/128 127/230/128
f 75/145/129 76/144/129 78/222/129 77/146/129
f 132/237/130 131/238/130 135/239/130 136/240/130
f 128/78/131 40/60/131 45/75/131 44/76/131
f 43/241/132 39/70/132 129/73/132 131/238/132
f 130/72/133 132/242/133 136/243/133 134/244/133
f 128/245/134 43/241/134 131/238/134 132/237/134
f 40/71/135 128/246/135 132/242/135 130/72/135
f 135/239/136 133/247/136 137/248/136 139/249/136
f 136/240/137 135/239/137 139/249/137 140/250/137
f 131/238/138 129/73/138 133/247/138 135/239/138
f 129/73/139 130/72/139 134/244/139 133/247/139
f 138/251/140 140/252/140 142/253/140
f 137/254/141 138/251/141 147/255/141
f 133/247/142 134/244/142 138/256/142 137/248/142
f 134/244/143 136/243/143 140/257/143 138/256/143
f 142/258/144 143/259/144 146/260/144 145/261/144
f 140/262/145 139/263/145 143/259/145 142/258/145
f 139/263/146 147/255/146 141/264/146 143/259/146
f 145/265/147 146/266/147 144/267/147
f 143/259/148 141/264/148 144/268/148 146/260/148
f 141/264/149 142/253/149 145/269/149 144/268/149
f 147/270/150 139/271/150 149/272/150 150/273/150
f 147/255/151 138/251/151 142/253/151 141/264/151
f 150/273/152 149/272/152 152/274/152 153/275/152
f 137/276/153 147/277/153 150/278/153 148/279/153
f 139/271/154 137/276/154 148/279/154 149/272/154
f 153/275/155 152/274/155 155/280/155 156/281/155
f 148/279/156 150/278/156 153/282/156 151/283/156
f 149/272/157 148/279/157 151/283/157 152/274/157
f 156/284/158 155/285/158 154/286/158
f 151/283/159 153/282/159 156/287/159 154/288/159
f 152/274/160 151/283/160 154/288/160 155/280/160
f 81/158/161 85/163/161 84/162/161 80/151/161
