# Blender v2.78 (sub 0) OBJ File: 'Low_Poly_Trees_Pack.blend'
# www.blender.org
g Acacia_Tree_NoLeaves_s_01
v -0.000000 0.000001 -0.221486
v -0.207582 0.000001 -0.070669
v -0.128293 0.000001 0.173359
v 0.128293 0.000001 0.173359
v 0.207582 0.000001 -0.070669
v -0.027509 2.811417 -0.126351
v -0.170975 2.806111 -0.029827
v -0.109616 2.811417 0.126351
v -0.002186 2.811417 0.126351
v 0.105344 2.811417 -0.029827
v -0.305115 3.285785 -0.080661
v -0.368470 3.229401 -0.019042
v -0.344271 3.250937 0.080662
v -0.265958 3.320632 0.080662
v -0.101672 2.624712 0.115339
v -0.148637 2.624712 -0.029203
v 0.097273 2.624712 -0.029203
v 0.050308 2.624712 0.115339
v -0.025682 2.624712 -0.118535
v -0.255767 3.329701 -0.016537
v -0.858518 3.823765 -0.054860
v -0.931027 3.799124 -0.000156
v -0.903859 3.808370 0.089638
v -0.814873 3.838737 0.091031
v -0.802762 3.842819 0.003903
v -1.036168 4.528874 0.143441
v -1.086585 4.511017 0.161509
v -1.087478 4.517109 0.218470
v -1.037832 4.538732 0.235604
v -1.015503 4.542118 0.187765
v -1.255071 5.032526 0.136333
v -1.302776 5.003852 0.149258
v -1.315073 5.013869 0.204152
v -1.274968 5.048734 0.225155
v -1.234829 5.023381 0.185754
v -1.723080 5.319092 -0.073068
v -1.757500 5.288804 -0.077008
v -1.768702 5.298326 -0.030946
v -1.733473 5.327928 -0.030330
v -1.291935 5.071492 0.157378
v -0.840802 5.239075 0.210950
v -0.857778 5.252903 0.286730
v -0.823532 5.231273 0.253114
v -0.872254 5.272320 0.228904
v -0.619623 5.644249 0.259492
v -0.626644 5.650369 0.284484
v -0.613573 5.644543 0.273902
v -0.632543 5.653502 0.264366
v -1.965190 5.878468 -0.160649
v -1.983452 5.875066 -0.162295
v -1.986291 5.875969 -0.145183
v -1.969601 5.879287 -0.141507
v -0.076610 3.118228 0.007025
v 0.003413 3.283378 -0.083878
v 0.023601 3.276686 0.083878
v 0.121167 3.253646 -0.018785
v -0.063426 3.294538 0.000000
v 0.181364 3.896923 -0.074474
v 0.195048 3.890963 0.074474
v 0.256646 3.861404 -0.018879
v 0.127293 3.920469 0.005806
v 0.518779 4.523030 -0.037077
v 0.492389 4.491757 0.047345
v 0.535206 4.454612 -0.014519
v 0.458109 4.509377 0.005004
v 0.862397 4.751085 0.022137
v 0.858961 4.742049 0.103399
v 0.891685 4.703681 0.052943
v 0.847198 4.766155 0.061472
v 1.284562 4.947582 0.286675
v 1.269905 4.941899 0.351460
v 1.312859 4.917772 0.320495
v 1.262554 4.957058 0.313962
v 1.611978 5.326586 0.635587
v 1.605154 5.325104 0.666250
v 1.626196 5.318812 0.657276
v 1.597208 5.329058 0.647976
v 0.173613 0.422909 -0.046457
v -0.068729 0.422909 0.129615
v 0.023837 0.422909 -0.155276
v -0.125939 0.422909 -0.046457
v 0.116404 0.422909 0.129615
v -0.102059 1.523810 -0.056922
v 0.105024 1.523810 0.093533
v 0.153910 1.523810 -0.056922
v -0.053174 1.523810 0.093533
v 0.025925 1.523810 -0.149908
v 0.452329 4.441410 -0.047919
v 0.462579 4.891394 -0.366066
v 0.463266 4.854965 -0.395385
v 0.406118 4.867241 -0.352224
v 0.405373 4.836553 -0.402931
v 0.422453 5.486533 -0.459341
v 0.423257 5.484069 -0.472892
v 0.405467 5.486892 -0.458708
v 0.403249 5.483692 -0.476085
vt 0.5366 0.8567
vt 0.5364 0.8633
vt 0.5298 0.8632
vt 0.5312 0.8566
vt 0.5260 0.8569
vt 0.5261 0.8634
vt 0.5204 0.8631
vt 0.5207 0.8569
vt 0.5420 0.8569
vt 0.5419 0.8634
vt 0.5473 0.8570
vt 0.5479 0.8632
vt 0.5664 0.7662
vt 0.5694 0.7640
vt 0.5722 0.7836
vt 0.5687 0.7835
vt 0.5612 0.7681
vt 0.5649 0.7837
vt 0.5826 0.7651
vt 0.5873 0.7687
vt 0.5823 0.7841
vt 0.5786 0.7838
vt 0.5479 0.8185
vt 0.5424 0.8182
vt 0.5315 0.8180
vt 0.5259 0.8182
vt 0.5370 0.8180
vt 0.5204 0.8184
vt 0.5682 0.8121
vt 0.5649 0.8120
vt 0.5714 0.8113
vt 0.5808 0.8123
vt 0.5777 0.8113
vt 0.5755 0.7837
vt 0.5748 0.8109
vt 0.5692 0.8378
vt 0.5672 0.8373
vt 0.5726 0.8377
vt 0.5710 0.8381
vt 0.5762 0.8376
vt 0.5742 0.8373
vt 0.5558 0.7756
vt 0.5573 0.7756
vt 0.5582 0.7895
vt 0.5564 0.7898
vt 0.5601 0.7753
vt 0.5616 0.7754
vt 0.5616 0.7898
vt 0.5598 0.7895
vt 0.5587 0.7754
vt 0.5589 0.7890
vt 0.5543 0.7755
vt 0.5545 0.7897
vt 0.5582 0.7894
vt 0.5586 0.7874
vt 0.5587 0.7874
vt 0.5547 0.8144
vt 0.5518 0.8143
vt 0.5582 0.7894
vt 0.5591 0.7905
vt 0.5603 0.8146
vt 0.5574 0.8146
vt 0.5630 0.8144
vt 0.5588 0.7822
vt 0.5589 0.7822
vt 0.5583 0.7893
vt 0.5582 0.7893
vt 0.5588 0.7874
vt 0.5588 0.7874
vt 0.5589 0.7822
vt 0.5589 0.7821
vt 0.5650 0.8467
vt 0.5656 0.8474
vt 0.5672 0.8469
vt 0.5672 0.8470
vt 0.5660 0.8444
vt 0.5660 0.8449
vt 0.5654 0.8449
vt 0.5654 0.8442
vt 0.5585 0.7874
vt 0.5588 0.7821
vt 0.5583 0.8633
vt 0.5568 0.8634
vt 0.5555 0.8638
vt 0.5597 0.8637
vt 0.5541 0.8638
vt 0.5900 0.8370
vt 0.5846 0.8476
vt 0.5859 0.8311
vt 0.5901 0.8309
vt 0.5751 0.7742
vt 0.5862 0.8089
vt 0.5897 0.8088
vt 0.5779 0.8464
vt 0.5808 0.8309
vt 0.5959 0.8475
vt 0.5938 0.8308
vt 0.6016 0.8462
vt 0.5987 0.8307
vt 0.5967 0.8088
vt 0.5932 0.8088
vt 0.5917 0.7875
vt 0.5942 0.7855
vt 0.5821 0.8089
vt 0.5991 0.7802
vt 0.6011 0.7784
vt 0.6005 0.7945
vt 0.5989 0.7943
vt 0.5894 0.7852
vt 0.5844 0.7855
vt 0.5874 0.7852
vt 0.6029 0.7793
vt 0.6055 0.7796
vt 0.6047 0.7947
vt 0.6021 0.7949
vt 0.5967 0.7794
vt 0.5968 0.7947
vt 0.6024 0.8143
vt 0.6010 0.8137
vt 0.5997 0.8136
vt 0.5980 0.8146
vt 0.6043 0.8143
vt 0.6023 0.8348
vt 0.6017 0.8348
vt 0.6037 0.8352
vt 0.6029 0.8352
vt 0.6009 0.8354
vt 0.5389 0.7636
vt 0.5378 0.7785
vt 0.5311 0.7785
vt 0.5303 0.7635
vt 0.5218 0.7639
vt 0.5244 0.7788
vt 0.5180 0.7798
vt 0.5132 0.7658
vt 0.5474 0.7641
vt 0.5446 0.7791
vt 0.5560 0.7660
vt 0.5511 0.7801
vt 0.6077 0.8215
vt 0.6098 0.8225
vt 0.6072 0.8450
vt 0.6066 0.8449
vt 0.6059 0.8037
vt 0.6084 0.8042
vt 0.6057 0.8212
vt 0.6104 0.8052
vt 0.6116 0.8028
vt 0.6113 0.8218
vt 0.6135 0.8217
vt 0.6084 0.8452
vt 0.6076 0.8450
vt 0.6147 0.8037
vt 0.5683 0.8494
vt 0.5676 0.8495
vt 0.5683 0.8489
vt 0.5677 0.8489
vt 0.6060 0.8449
vt 0.5695 0.8440
vt 0.5695 0.8449
vt 0.5688 0.8449
vt 0.5687 0.8442
vt 0.5705 0.8467
vt 0.5705 0.8461
vt 0.5711 0.8461
vt 0.5711 0.8468
vn 0.8857 0.0927 0.4550
vn -0.9368 -0.0866 0.3390
vn 0.5876 -0.0281 -0.8087
vn 0.0000 -0.0589 0.9983
vn -0.5705 -0.0562 -0.8194
vn -0.0301 0.0802 0.9963
vn -0.8500 -0.4125 0.3275
vn -0.5443 -0.2375 -0.8045
vn -0.5878 -0.0045 -0.8090
vn 0.0000 -0.0198 0.9998
vn 0.5870 0.0505 -0.8080
vn -0.9500 -0.0480 0.3087
vn 0.9503 0.0411 0.3088
vn -0.6740 -0.6782 0.2929
vn 0.0015 -0.0164 0.9999
vn -0.4394 -0.4104 -0.7991
vn 0.6811 0.7198 0.1338
vn 0.4846 0.5377 -0.6900
vn -0.9438 -0.2656 0.1967
vn 0.9391 0.2331 0.2525
vn -0.0537 -0.2052 0.9773
vn -0.5301 0.0895 -0.8432
vn 0.6909 0.3623 -0.6257
vn -0.3204 -0.1248 0.9390
vn -0.2443 -0.1253 -0.9616
vn 0.8446 0.3722 -0.3848
vn -0.9109 -0.4098 -0.0484
vn 0.7963 0.3727 0.4764
vn -0.4510 0.8059 0.3835
vn -0.5438 -0.8385 0.0357
vn 0.4741 0.8766 0.0822
vn -0.3923 0.1544 0.9068
vn 0.1828 -0.3921 -0.9016
vn -0.8086 0.4741 0.3485
vn 0.4679 -0.8148 -0.3424
vn 0.5949 0.7366 -0.3217
vn 0.8265 -0.4020 -0.3940
vn 0.2364 -0.6896 0.6846
vn -0.0545 0.4341 -0.8992
vn 0.5078 0.8302 -0.2301
vn 0.4194 0.9076 0.0184
vn 0.5444 -0.3140 0.7779
vn -0.2474 0.2452 -0.9374
vn 0.8980 0.4135 0.1503
vn -0.1631 0.1297 0.9780
vn 0.1580 -0.0839 -0.9839
vn -0.9166 -0.3737 -0.1421
vn -0.6978 0.0971 0.7096
vn 0.7158 0.4879 0.4995
vn 0.5701 0.4028 -0.7160
vn -0.6578 0.1942 0.7277
vn 0.7831 -0.0144 0.6218
vn -0.8206 0.0867 -0.5649
vn 0.5436 0.0213 -0.8391
vn 0.4592 -0.1983 -0.8659
vn 0.4965 -0.1209 -0.8596
vn -0.7588 0.2332 -0.6082
vn 0.7393 -0.1806 0.6487
vn -0.4492 0.7819 -0.4322
vn -0.7360 0.4032 -0.5438
vn 0.7109 -0.3311 0.6205
vn -0.6153 0.3415 0.7105
vn 0.3401 -0.6585 0.6714
vn -0.5090 0.6278 0.5889
vn 0.3494 -0.2748 -0.8958
vn -0.5931 0.6559 0.4670
vn 0.5926 -0.2091 -0.7779
vn -0.1565 0.8952 -0.4172
vn 0.0109 -0.7883 0.6152
vn -0.3273 0.7772 -0.5374
vn 0.1174 -0.6903 0.7139
vn -0.8296 0.4175 0.3706
vn 0.7680 -0.0713 -0.6365
vn 0.9494 0.0586 0.3085
vn -0.9382 0.1637 0.3048
vn 0.5852 0.0931 -0.8055
vn 0.0000 0.1029 0.9947
vn -0.5804 0.1578 -0.7989
vn 0.9509 0.0200 0.3090
vn -0.9508 0.0236 0.3089
vn 0.5878 0.0028 -0.8090
vn 0.0000 0.0328 0.9995
vn -0.5878 0.0051 -0.8090
vn 0.1389 0.1652 0.9764
vn -0.9944 -0.0376 0.0984
vn 0.9869 0.1613 -0.0035
vn 0.1618 -0.1104 -0.9806
vn 0.1173 0.6912 0.7130
vn 0.3446 -0.6092 -0.7142
vn 0.0099 0.9839 -0.1782
vn 0.0140 0.9830 -0.1829
vn -0.9991 0.0037 0.0416
vn 0.9978 0.0623 -0.0218
vn 0.2989 0.9477 0.1123
vn -0.1761 0.9810 -0.0818
s off
f 17/1/1 10/2/1 9/3/1 18/4/1
f 15/5/2 8/6/2 7/7/2 16/8/2
f 19/9/3 6/10/3 10/2/3 17/1/3
f 18/4/4 9/3/4 8/6/4 15/5/4
f 16/11/5 7/12/5 6/10/5 19/9/5
f 8/13/6 9/14/6 14/15/6 13/16/6
f 7/17/7 8/13/7 13/16/7 12/18/7
f 6/19/8 7/20/8 12/21/8 11/22/8
f 83/23/9 16/11/9 19/9/9 87/24/9
f 84/25/10 18/4/10 15/5/10 86/26/10
f 87/24/11 19/9/11 17/1/11 85/27/11
f 86/26/12 15/5/12 16/8/12 83/28/12
f 85/27/13 17/1/13 18/4/13 84/25/13
f 12/18/14 13/16/14 23/29/14 22/30/14
f 13/16/15 14/15/15 24/31/15 23/29/15
f 11/22/16 12/21/16 22/32/16 21/33/16
f 14/15/17 20/34/17 25/35/17 24/31/17
f 20/34/18 11/22/18 21/33/18 25/35/18
f 22/30/19 23/29/19 28/36/19 27/37/19
f 24/31/20 25/35/20 30/38/20 29/39/20
f 23/29/21 24/31/21 29/39/21 28/36/21
f 21/33/22 22/32/22 27/40/22 26/41/22
f 25/35/23 21/33/23 26/41/23 30/38/23
f 28/42/24 29/43/24 34/44/24 33/45/24
f 26/46/25 27/47/25 32/48/25 31/49/25
f 30/50/26 26/46/26 31/49/26 35/51/26
f 27/52/27 28/42/27 33/45/27 32/53/27
f 29/43/28 30/50/28 35/51/28 34/44/28
f 40/54/29 34/44/29 42/55/29 44/56/29
f 32/53/30 33/45/30 38/57/30 37/58/30
f 34/59/31 40/60/31 36/61/31 39/62/31
f 33/45/32 34/59/32 39/62/32 38/57/32
f 31/49/33 32/48/33 37/63/33 36/61/33
f 44/56/34 42/55/34 46/64/34 48/65/34
f 35/66/35 31/67/35 41/68/35 43/69/35
f 40/60/36 31/49/36 36/61/36
f 43/69/37 41/68/37 45/70/37 47/71/37
f 34/72/38 35/73/38 43/74/38 42/75/38
f 31/67/39 40/54/39 44/56/39 41/68/39
f 47/76/40 45/77/40 48/78/40
f 48/78/41 46/79/41 47/76/41
f 42/55/42 43/80/42 47/81/42 46/64/42
f 41/68/43 44/56/43 48/65/43 45/70/43
f 39/62/44 36/61/44 49/82/44 52/83/44
f 38/57/45 39/62/45 52/83/45 51/84/45
f 36/61/46 37/63/46 50/85/46 49/82/46
f 37/58/47 38/57/47 51/84/47 50/86/47
f 53/87/48 9/88/48 55/89/48 57/90/48
f 9/14/49 53/91/49 20/34/49 14/15/49
f 6/19/50 11/22/50 20/34/50 53/91/50
f 57/90/51 55/89/51 59/92/51 61/93/51
f 9/88/52 10/94/52 56/95/52 55/89/52
f 6/96/53 53/87/53 57/90/53 54/97/53
f 10/98/54 6/96/54 54/97/54 56/99/54
f 60/100/55 58/101/55 88/102/55 64/103/55
f 56/99/56 54/97/56 58/101/56 60/100/56
f 54/97/57 57/90/57 61/93/57 58/101/57
f 55/89/58 56/95/58 60/104/58 59/92/58
f 62/105/59 65/106/59 69/107/59 66/108/59
f 58/101/60 61/93/60 65/109/60 88/102/60
f 59/92/61 60/104/61 64/110/61 63/111/61
f 61/93/62 59/92/62 63/111/62 65/109/62
f 63/112/63 64/113/63 68/114/63 67/115/63
f 65/106/64 63/112/64 67/115/64 69/107/64
f 64/116/65 62/105/65 66/108/65 68/117/65
f 69/107/66 67/115/66 71/118/66 73/119/66
f 68/117/67 66/108/67 70/120/67 72/121/67
f 66/108/68 69/107/68 73/119/68 70/120/68
f 67/115/69 68/114/69 72/122/69 71/118/69
f 70/120/70 73/119/70 77/123/70 74/124/70
f 71/118/71 72/122/71 76/125/71 75/126/71
f 73/119/72 71/118/72 75/126/72 77/123/72
f 72/121/73 70/120/73 74/124/73 76/127/73
f 5/128/74 78/129/74 82/130/74 4/131/74
f 3/132/75 79/133/75 81/134/75 2/135/75
f 1/136/76 80/137/76 78/129/76 5/128/76
f 4/131/77 82/130/77 79/133/77 3/132/77
f 2/138/78 81/139/78 80/137/78 1/136/78
f 78/129/79 85/27/79 84/25/79 82/130/79
f 79/133/80 86/26/80 83/28/80 81/134/80
f 80/137/81 87/24/81 85/27/81 78/129/81
f 82/130/82 84/25/82 86/26/82 79/133/82
f 81/139/83 83/23/83 87/24/83 80/137/83
f 91/140/84 89/141/84 93/142/84 95/143/84
f 88/144/85 65/145/85 91/140/85 92/146/85
f 62/147/86 64/148/86 90/149/86 89/141/86
f 90/149/87 92/150/87 96/151/87 94/152/87
f 65/145/88 62/147/88 89/141/88 91/140/88
f 64/148/89 88/153/89 92/150/89 90/149/89
f 94/154/90 96/155/90 93/156/90
f 96/155/91 95/157/91 93/156/91
f 92/146/92 91/140/92 95/143/92 96/158/92
f 89/141/93 90/149/93 94/152/93 93/142/93
f 76/159/94 74/160/94 77/161/94 75/162/94
f 50/163/95 51/164/95 52/165/95 49/166/95
