# Blender v2.78 (sub 0) OBJ File: 'Low_Poly_Trees_Pack.blend'
# www.blender.org
g Acacia_Tree_NoLeaves_l_05
v 0.329292 0.000000 -0.213692
v -0.099199 0.000000 -0.252256
v -0.268287 0.000000 0.143345
v 0.055701 0.000000 0.426405
v 0.425025 0.000000 0.205744
v 0.233885 0.734472 -0.172010
v 0.314462 0.734472 0.181017
v -0.269080 0.734472 0.128497
v 0.003612 0.734472 0.366741
v -0.126763 0.734472 -0.204469
v 0.106338 2.344416 -0.229786
v -0.208145 2.341513 -0.271825
v -0.297784 2.372641 0.035027
v -0.098555 2.371207 0.240218
v 0.138446 2.354654 0.079233
v 0.123969 3.720399 -0.100860
v -0.158919 3.746845 -0.141283
v -0.247104 3.772363 0.076107
v -0.037845 3.739803 0.243919
v 0.143228 3.641236 0.118325
v 0.189639 5.279161 -0.158462
v -0.038859 5.184048 -0.187906
v -0.103839 5.329265 -0.022197
v 0.067989 5.337255 0.102952
v 0.201923 5.293927 0.008505
v 0.813695 6.639031 -0.210203
v 0.669991 6.721552 -0.223993
v 0.628495 6.750673 -0.092965
v 0.747570 6.689701 -0.005541
v 0.825827 6.628203 -0.084991
v 0.143582 3.942641 0.112669
v 0.592650 4.115147 0.158375
v 0.532288 4.061501 0.446902
v 0.650335 4.025064 0.282785
v 0.469822 4.174313 0.301924
v 1.460447 5.024026 0.520893
v 1.339858 5.005219 0.768250
v 1.495229 4.984410 0.662270
v 1.300227 5.057335 0.601447
v 1.973966 5.966723 1.031192
v 1.848271 5.939412 1.205878
v 1.979366 5.917443 1.139150
v 1.832606 5.980078 1.067533
v 2.598557 6.902170 2.248684
v 2.589914 6.856399 2.350324
v 2.688373 6.839900 2.300208
v 2.683531 8.035674 2.837679
v 2.713022 8.033190 2.821811
v 2.682272 8.046282 2.807723
v 1.668684 7.713466 -0.190736
v 1.600369 7.796828 -0.192478
v 1.578654 7.813911 -0.105697
v 1.646431 7.730988 -0.079993
v 2.510264 8.530535 -0.277564
v 2.443212 8.523206 -0.286008
v 2.425550 8.541096 -0.226769
v 2.515512 8.514507 -0.229443
v 2.750276 9.265433 -0.077520
v 2.706007 9.292389 -0.100896
v 2.695018 9.292789 -0.057241
v 2.998173 9.917006 0.071201
v 2.988317 9.927918 0.060390
v 2.983604 9.927961 0.075709
v 2.489381 8.584994 -0.271783
v 2.305634 8.851051 -0.674134
v 2.261634 8.869824 -0.634352
v 2.341146 8.883058 -0.628387
v 2.263799 9.718664 -0.917637
v 2.237196 9.719780 -0.899131
v 2.268107 9.724782 -0.897360
v -0.022638 5.491364 -0.204124
v -0.046945 5.548851 -0.582166
v -0.201874 5.517474 -0.572688
v -0.241156 5.611871 -0.470490
v -0.074511 5.667055 -0.471807
v -0.262093 6.587437 -1.467159
v -0.411154 6.543771 -1.440425
v -0.454789 6.628214 -1.343197
v -0.282276 6.642106 -1.313812
v -0.089664 7.957568 -2.050561
v -0.184067 7.989707 -1.945427
v -0.049348 8.000554 -1.922480
v -0.128865 9.351493 -2.413014
v -0.154492 9.368687 -2.386504
v -0.112633 9.373701 -2.382257
v -0.418313 6.718398 -1.527797
v -0.896771 6.790048 -1.711148
v -0.921057 6.791955 -1.624287
v -0.853177 6.867652 -1.643599
v -1.532780 7.587585 -1.996878
v -1.556326 7.582613 -1.941532
v -1.499121 7.625137 -1.948094
v -1.726879 8.757767 -1.956497
v -1.735838 8.754081 -1.928705
v -1.702287 8.754517 -1.926300
v 1.914477 6.073845 1.166951
v 1.982036 7.360971 0.911129
v 1.950648 7.350918 1.026066
v 1.867826 7.328810 0.938991
v 2.121140 9.029186 1.006957
v 2.096630 9.034595 1.015852
v 2.121578 9.033005 1.031037
vt 0.5752 0.8309
vt 0.5896 0.8262
vt 0.5944 0.8348
vt 0.5767 0.8413
vt 0.5532 0.8326
vt 0.5551 0.8078
vt 0.5590 0.8072
vt 0.5585 0.8330
vt 0.5641 0.8329
vt 0.5626 0.8065
vt 0.5662 0.8064
vt 0.5697 0.8323
vt 0.5699 0.8069
vt 0.5749 0.8058
vt 0.5652 0.8443
vt 0.5711 0.8434
vt 0.5532 0.8423
vt 0.5592 0.8437
vt 0.5581 0.7965
vt 0.5619 0.7976
vt 0.5652 0.7961
vt 0.5692 0.7960
vt 0.5552 0.7980
vt 0.5722 0.7964
vt 0.5957 0.8456
vt 0.5957 0.8498
vt 0.5768 0.8499
vt 0.5753 0.8468
vt 0.5532 0.7839
vt 0.5523 0.7808
vt 0.5609 0.7802
vt 0.5612 0.7823
vt 0.5957 0.8575
vt 0.5921 0.8602
vt 0.5748 0.8579
vt 0.5747 0.8556
vt 0.5932 0.8534
vt 0.5749 0.8526
vt 0.5724 0.8499
vt 0.5549 0.8499
vt 0.5551 0.8478
vt 0.5549 0.8555
vt 0.5548 0.8538
vt 0.5277 0.7741
vt 0.5292 0.7776
vt 0.5289 0.7819
vt 0.5265 0.7816
vt 0.5751 0.8444
vt 0.5551 0.8461
vt 0.5549 0.8517
vt 0.5774 0.7798
vt 0.5779 0.7817
vt 0.5923 0.8425
vt 0.5554 0.7778
vt 0.5522 0.7749
vt 0.5611 0.7746
vt 0.5610 0.7773
vt 0.5771 0.7776
vt 0.5531 0.7715
vt 0.5613 0.7718
vt 0.5775 0.7754
vt 0.5779 0.7729
vt 0.5931 0.7740
vt 0.5927 0.7759
vt 0.5923 0.7777
vt 0.6055 0.8071
vt 0.6067 0.8062
vt 0.6092 0.8284
vt 0.6078 0.8291
vt 0.6085 0.8075
vt 0.5929 0.7795
vt 0.5931 0.7810
vt 0.6104 0.8521
vt 0.6094 0.8521
vt 0.5368 0.7540
vt 0.5383 0.7550
vt 0.5367 0.7712
vt 0.6103 0.8065
vt 0.6123 0.8067
vt 0.6120 0.8289
vt 0.6105 0.8288
vt 0.6113 0.8521
vt 0.6151 0.7685
vt 0.6150 0.7702
vt 0.5920 0.7688
vt 0.5920 0.7673
vt 0.6144 0.7742
vt 0.6141 0.7763
vt 0.5915 0.7728
vt 0.5915 0.7714
vt 0.6147 0.7724
vt 0.5917 0.7702
vt 0.6141 0.7779
vt 0.5763 0.7695
vt 0.5767 0.7689
vt 0.5765 0.7680
vt 0.5765 0.7673
vt 0.5762 0.7707
vt 0.5657 0.7670
vt 0.5655 0.7692
vt 0.5655 0.7683
vt 0.5758 0.7684
vt 0.5656 0.7678
vt 0.5393 0.8188
vt 0.5383 0.8186
vt 0.5379 0.8117
vt 0.5561 0.7670
vt 0.5561 0.7667
vt 0.5560 0.7672
vt 0.5561 0.7674
vt 0.6047 0.8444
vt 0.6047 0.8446
vt 0.6045 0.8445
vt 0.5375 0.8190
vt 0.5364 0.8185
vt 0.5361 0.8119
vt 0.5371 0.8117
vt 0.5361 0.8004
vt 0.5365 0.8005
vt 0.5399 0.8181
vt 0.5387 0.8117
vt 0.6043 0.8435
vt 0.6043 0.8431
vt 0.6045 0.8434
vt 0.5369 0.8004
vt 0.5372 0.8004
vt 0.5223 0.7815
vt 0.5245 0.7815
vt 0.5245 0.7994
vt 0.5226 0.7999
vt 0.5207 0.7739
vt 0.5243 0.7743
vt 0.5201 0.7819
vt 0.5205 0.7996
vt 0.5186 0.7779
vt 0.5938 0.8002
vt 0.5967 0.8008
vt 0.5970 0.8073
vt 0.5957 0.8076
vt 0.5263 0.7997
vt 0.5285 0.7996
vt 0.5271 0.8190
vt 0.5254 0.8187
vt 0.5243 0.8531
vt 0.5238 0.8530
vt 0.5237 0.8186
vt 0.5219 0.8189
vt 0.5245 0.8017
vt 0.5233 0.8532
vt 0.6036 0.8433
vt 0.6040 0.8430
vt 0.6040 0.8436
vt 0.5919 0.8005
vt 0.5947 0.8082
vt 0.6010 0.8194
vt 0.6001 0.8195
vt 0.5896 0.7999
vt 0.5902 0.8029
vt 0.5933 0.8087
vt 0.5987 0.8203
vt 0.5994 0.8198
vt 0.6052 0.8342
vt 0.6047 0.8343
vt 0.6045 0.8436
vt 0.6049 0.8436
vt 0.6049 0.8440
vt 0.6056 0.8340
vt 0.6060 0.8338
vt 0.6046 0.8421
vt 0.6050 0.8427
vt 0.6042 0.8427
vt 0.5383 0.7716
vt 0.5399 0.7716
vt 0.5362 0.7942
vt 0.5359 0.7941
vt 0.5404 0.7542
vt 0.5417 0.7554
vt 0.5355 0.7941
vt 0.5354 0.7549
vt 0.5351 0.7712
vt 0.6029 0.8438
vt 0.6032 0.8440
vt 0.6030 0.8442
vt 0.5351 0.7941
vt 0.6123 0.8520
vt 0.5249 0.8532
vn 0.9656 0.1379 -0.2204
vn 0.5341 0.1044 0.8390
vn -0.9398 -0.0486 -0.3383
vn 0.9821 0.0840 -0.1685
vn -0.6846 0.0216 0.7286
vn -0.9195 -0.0089 -0.3930
vn 0.5100 0.1055 0.8537
vn 0.0894 0.0680 -0.9937
vn -0.6579 0.0145 0.7530
vn 0.1098 -0.0315 -0.9935
vn -0.6735 0.0151 0.7390
vn 0.1396 0.0886 -0.9862
vn 0.5601 -0.0272 0.8280
vn -0.9439 0.0536 -0.3259
vn 0.9953 -0.0023 -0.0971
vn 0.1409 -0.0431 -0.9891
vn 0.6687 -0.5967 -0.4436
vn 0.5693 0.0366 0.8213
vn -0.9170 0.0616 -0.3941
vn -0.6016 0.1075 0.7915
vn 0.1006 -0.0786 -0.9918
vn 0.5559 -0.2092 0.8045
vn -0.2631 0.7795 0.5685
vn 0.9037 -0.4224 -0.0698
vn -0.5214 0.3166 0.7924
vn 0.7315 -0.4770 -0.4873
vn 0.9974 -0.0456 -0.0552
vn -0.6033 0.6417 0.4735
vn -0.3629 0.6056 -0.7082
vn -0.2171 0.7352 -0.6421
vn 0.2698 -0.7356 0.6214
vn 0.3654 -0.5588 0.7445
vn -0.8898 0.3661 0.2725
vn -0.7245 0.4823 0.4924
vn 0.4716 -0.6349 0.6120
vn 0.8649 0.0212 -0.5015
vn 0.0172 0.7886 -0.6147
vn -0.2271 0.5485 -0.8047
vn 0.9021 -0.3396 -0.2664
vn 0.5976 0.3135 -0.7380
vn 0.3587 0.0923 0.9289
vn 0.1475 -0.8163 0.5585
vn -0.9962 0.0848 -0.0195
vn 0.7912 -0.6095 0.0512
vn -0.3079 0.3079 0.9002
vn 0.0556 -0.0225 -0.9982
vn 0.4989 -0.3748 0.7815
vn -0.7056 0.6234 -0.3370
vn -0.6381 0.6919 -0.3378
vn 0.6869 -0.7223 0.0803
vn -0.0119 0.1893 0.9818
vn 0.0059 -0.1224 -0.9925
vn 0.9475 -0.2579 -0.1892
vn 0.0678 -0.2304 0.9707
vn 0.3877 0.1125 -0.9149
vn 0.1635 -0.7243 -0.6698
vn 0.5276 -0.0127 -0.8494
vn -0.8655 0.4430 -0.2338
vn 0.1802 -0.2814 0.9425
vn 0.6270 0.7553 0.1908
vn -0.1172 0.7438 0.6580
vn -0.7908 0.3761 -0.4828
vn -0.1149 0.2929 0.9492
vn 0.9238 0.0682 -0.3768
vn -0.7454 -0.6246 -0.2329
vn -0.1399 0.9558 -0.2586
vn 0.8741 -0.0847 -0.4783
vn -0.6573 -0.2371 -0.7153
vn 0.0660 -0.6378 -0.7674
vn -0.8736 0.4645 -0.1451
vn 0.2667 -0.7047 -0.6575
vn 0.9734 0.2276 0.0270
vn -0.9087 -0.4170 0.0193
vn 0.8121 0.5824 0.0363
vn -0.0070 0.7775 0.6289
vn -0.1851 0.4281 0.8846
vn -0.1889 0.6175 0.7636
vn -0.9456 -0.3009 -0.1233
vn -0.7597 -0.1834 -0.6239
vn 0.9879 -0.1543 -0.0171
vn 0.0259 -0.3944 -0.9186
vn 0.9478 -0.0581 -0.3136
vn -0.0403 0.8201 -0.5709
vn -0.4892 -0.8450 0.2159
vn -0.9134 0.0351 -0.4056
vn -0.0919 0.3047 0.9480
vn 0.0664 -0.6759 -0.7340
vn 0.3783 0.2339 -0.8957
vn 0.7638 0.1489 -0.6280
vn 0.6550 0.2725 -0.7047
vn -0.7066 -0.6612 -0.2519
vn -0.0218 0.9920 0.1245
vn -0.9175 -0.1379 -0.3731
vn 0.0490 -0.0069 0.9988
vn 0.2463 0.9168 0.3144
vn -0.2695 0.0785 -0.9598
vn -0.8573 0.4867 0.1675
vn -0.2370 -0.0840 -0.9679
vn 0.9725 -0.0964 0.2122
vn -0.9098 0.0906 0.4050
vn 0.9421 0.0171 0.3349
vn 0.1580 0.9748 -0.1575
vn -0.6933 0.0645 0.7177
vn 0.3794 -0.3780 0.8445
vn -0.1716 0.3046 0.9369
s off
f 6/1/1 7/2/1 5/3/1 1/4/1
f 7/5/2 15/6/2 14/7/2 9/8/2
f 8/9/3 13/10/3 12/11/3 10/12/3
f 11/13/4 15/14/4 7/2/4 6/1/4
f 9/8/5 14/7/5 13/10/5 8/9/5
f 3/15/6 8/9/6 10/12/6 2/16/6
f 5/17/7 7/5/7 9/8/7 4/18/7
f 2/16/8 10/12/8 6/1/8 1/4/8
f 4/18/9 9/8/9 8/9/9 3/15/9
f 10/12/10 12/11/10 11/13/10 6/1/10
f 13/10/11 14/7/11 19/19/11 18/20/11
f 11/13/12 12/11/12 17/21/12 16/22/12
f 14/7/13 15/6/13 20/23/13 19/19/13
f 12/11/14 13/10/14 18/20/14 17/21/14
f 16/22/15 20/24/15 15/14/15 11/13/15
f 16/25/16 17/26/16 22/27/16 21/28/16
f 20/29/17 16/30/17 32/31/17 34/32/17
f 19/33/18 31/34/18 25/35/18 24/36/18
f 17/26/19 18/37/19 23/38/19 22/27/19
f 18/37/20 19/33/20 24/36/20 23/38/20
f 21/28/21 71/39/21 27/40/21 26/41/21
f 24/36/22 25/35/22 30/42/22 29/43/22
f 23/44/23 71/45/23 75/46/23 74/47/23
f 25/48/24 21/28/24 26/41/24 30/49/24
f 23/38/25 24/36/25 29/43/25 28/50/25
f 34/32/26 32/31/26 36/51/26 38/52/26
f 31/53/27 16/25/27 21/28/27 25/48/27
f 31/54/28 19/55/28 33/56/28 35/57/28
f 32/31/29 35/57/29 39/58/29 36/51/29
f 16/30/30 31/54/30 35/57/30 32/31/30
f 19/55/31 20/59/31 34/60/31 33/56/31
f 37/61/32 38/62/32 42/63/32 41/64/32
f 39/58/33 37/61/33 41/64/33 43/65/33
f 35/57/34 33/56/34 37/61/34 39/58/34
f 33/56/35 34/60/35 38/62/35 37/61/35
f 42/66/36 40/67/36 44/68/36 46/69/36
f 40/67/37 96/70/37 44/68/37
f 36/51/38 39/58/38 43/65/38 40/71/38
f 38/52/39 36/51/39 40/71/39 42/72/39
f 49/73/40 48/74/40 46/69/40 44/68/40
f 41/75/41 96/76/41 98/77/41
f 41/78/42 42/79/42 46/80/42 45/81/42
f 47/82/43 49/73/43 44/68/43 45/81/43
f 30/83/44 26/84/44 50/85/44 53/86/44
f 28/87/45 29/88/45 53/89/45 52/90/45
f 26/84/46 27/91/46 51/92/46 50/85/46
f 29/88/47 30/93/47 53/89/47
f 27/91/48 28/87/48 52/90/48 51/92/48
f 51/92/49 52/90/49 56/94/49 55/95/49
f 53/86/50 50/85/50 54/96/50 57/97/50
f 52/90/51 53/89/51 57/98/51 56/94/51
f 50/85/52 51/92/52 55/95/52 54/96/52
f 57/97/53 54/96/53 58/99/53
f 56/94/54 57/98/54 58/100/54 60/101/54
f 54/96/55 64/102/55 59/103/55 58/99/55
f 54/104/56 55/105/56 65/106/56
f 58/99/57 59/103/57 62/107/57 61/108/57
f 59/103/58 60/101/58 63/109/58 62/107/58
f 60/101/59 58/100/59 61/110/59 63/109/59
f 62/111/60 63/112/60 61/113/60
f 56/114/61 64/115/61 67/116/61 66/117/61
f 64/102/62 56/94/62 60/101/62 59/103/62
f 66/117/63 67/116/63 70/118/63 69/119/63
f 64/120/64 54/104/64 65/106/64 67/121/64
f 55/105/65 56/114/65 66/117/65 65/106/65
f 68/122/66 69/123/66 70/124/66
f 67/121/67 65/106/67 68/125/67 70/126/67
f 65/106/68 66/117/68 69/119/68 68/125/68
f 72/127/69 73/128/69 77/129/69 76/130/69
f 71/39/70 23/38/70 28/50/70 27/40/70
f 21/131/71 22/132/71 73/128/71 72/127/71
f 75/133/72 72/127/72 76/130/72 79/134/72
f 22/132/73 23/44/73 74/47/73 73/128/73
f 71/135/74 21/131/74 72/127/74 75/133/74
f 78/136/75 86/137/75 89/138/75 88/139/75
f 78/140/76 79/141/76 82/142/76 81/143/76
f 74/47/77 75/46/77 79/141/77 78/140/77
f 73/128/78 74/47/78 78/140/78 77/129/78
f 81/143/79 84/144/79 83/145/79 80/146/79
f 79/134/80 76/130/80 80/146/80 82/147/80
f 76/130/81 86/148/81 80/146/81
f 80/146/82 83/145/82 85/149/82 82/147/82
f 83/150/83 84/151/83 85/152/83
f 77/153/84 78/136/84 88/139/84 87/154/84
f 86/148/85 78/140/85 81/143/85 80/146/85
f 88/139/86 89/138/86 92/155/86 91/156/86
f 76/157/87 77/153/87 87/154/87
f 86/158/88 76/157/88 87/154/88 89/159/88
f 92/160/89 90/161/89 93/162/89 95/163/89
f 89/159/90 87/154/90 90/161/90 92/160/90
f 87/154/91 88/139/91 91/156/91 90/161/91
f 93/164/92 94/165/92 95/166/92
f 90/161/93 91/156/93 94/167/93 93/162/93
f 91/156/94 92/155/94 95/168/94 94/167/94
f 47/169/95 48/170/95 49/171/95
f 97/172/96 99/173/96 101/174/96 100/175/96
f 96/70/97 41/78/97 45/81/97 44/68/97
f 40/176/98 43/177/98 99/173/98 97/172/98
f 98/77/99 97/172/99 100/175/99 102/178/99
f 43/179/100 41/75/100 98/77/100 99/180/100
f 96/76/101 40/176/101 97/172/101 98/77/101
f 102/181/102 100/182/102 101/183/102
f 101/184/103 99/180/103 98/77/103 102/178/103
f 45/81/104 46/80/104 48/185/104 47/82/104
f 81/143/105 82/142/105 85/186/105 84/144/105
