# Blender v2.78 (sub 0) OBJ File: 'Low_Poly_Trees_Pack.blend'
# www.blender.org
g Acacia_Tree_crk_m_01
v -3.963864 0.967390 -2.622245
v -2.628453 1.293887 -4.845431
v -5.326550 1.654372 -2.758597
v -5.916145 0.185062 -0.574740
v -4.937546 -0.125233 -2.242938
v -2.405906 0.423285 -4.485118
v -4.937704 1.309238 -4.685494
v -6.768983 0.576508 -2.033036
v -6.458838 -0.336919 -1.719053
v -4.571297 -0.236452 -4.246288
v -2.965143 0.301268 -5.767064
v -5.985478 0.019891 -4.263699
v -4.669508 1.429561 -2.556331
v -3.050143 1.263414 -3.802163
v -3.978755 1.709476 -3.876256
v -2.033748 0.741663 -4.894164
v -2.880070 0.755476 -3.554186
v -5.061688 0.733765 -1.384088
v -5.746283 0.993774 -1.315059
v -4.306937 0.412632 -2.110186
v -5.439126 0.079971 -1.032769
v -3.496037 0.118382 -3.344200
v -2.414072 0.783681 -5.662522
v -2.263979 0.178485 -5.437899
v -5.112073 1.596629 -3.793258
v -3.542764 1.425142 -4.809075
v -6.574472 0.357196 -0.878545
v -6.231770 1.169743 -2.300885
v -5.857658 -0.096825 -1.728068
v -6.386518 -0.302860 -0.738191
v -3.270827 0.023124 -4.471035
v -4.727155 -0.144140 -3.297086
v -3.790282 0.938679 -5.205658
v -6.012222 0.963940 -3.567449
v -6.834817 -0.123927 -1.528842
v -5.847641 -0.210001 -2.994977
v -3.599221 -0.005800 -5.240660
v -5.540044 0.649909 -4.661809
v -4.536201 0.155473 -5.301944
v -6.588624 0.254528 -3.168108
v -6.511188 -0.214679 -2.924787
v -5.411606 -0.235370 -4.437076
v -0.206570 2.692735 -0.037956
v -0.332590 2.766892 0.033915
v -0.367794 2.900846 -0.051892
v -0.263531 2.909476 -0.176795
v -0.163890 2.780856 -0.168182
v -1.266075 1.860012 -0.887706
v -1.383524 1.920582 -0.829844
v -1.412452 2.041131 -0.903614
v -1.312882 2.055065 -1.007066
v -1.222416 1.943127 -0.997235
v -2.893304 0.693981 -2.426476
v -2.944826 0.787548 -2.327236
v -3.015740 0.856664 -2.436585
v -2.928382 0.868025 -2.526659
v -2.804226 0.804943 -2.474935
v -3.278800 0.489945 -2.799689
v -3.351632 0.541028 -2.753210
v -3.851274 -0.012803 -3.824604
v -3.284219 0.639090 -2.863727
v -3.237136 0.550551 -2.867991
v -2.940098 0.701162 -2.602435
v -2.494229 0.670728 -3.132786
v -2.547105 0.812681 -3.174769
v -2.450920 0.761327 -3.128170
v -2.593253 0.681364 -3.172829
v -2.190440 0.598085 -3.809871
v -2.238796 0.728677 -3.850099
v -2.147315 0.679963 -3.815255
v -2.285132 0.609775 -3.836222
v -2.317570 0.416447 -4.502115
v -2.339303 0.525741 -4.526487
v -2.274433 0.469232 -4.528080
v -2.388778 0.445595 -4.489982
v -2.697359 0.220445 -5.110320
v -2.703794 0.249050 -5.117764
v -2.689818 0.232061 -5.123828
v -2.711894 0.230793 -5.099911
v -3.071674 0.685522 -2.462162
v -3.423189 0.645193 -1.863158
v -3.422424 0.737292 -1.809139
v -3.489497 0.795519 -1.902184
v -3.490526 0.656349 -1.962994
v -4.490077 0.472274 -1.122065
v -4.501148 0.551034 -1.050828
v -4.534997 0.633653 -1.143428
v -4.524303 0.510449 -1.231598
v -5.650181 0.175891 -0.859273
v -5.671904 0.231568 -0.805365
v -5.685593 0.297075 -0.875531
v -5.660040 0.208745 -0.943737
v -6.530628 -0.023788 -1.064103
v -6.548506 -0.004505 -1.045244
v -6.545889 0.024562 -1.071093
v -6.523347 -0.007011 -1.095868
v -3.286046 0.671045 -2.719795
v -3.854594 0.861072 -2.639128
v -3.845874 0.875960 -2.714247
v -3.808198 0.947744 -2.703928
v -3.818327 0.947956 -2.615780
v -4.460111 1.057011 -2.780244
v -4.428074 1.051384 -2.850119
v -4.422846 1.131899 -2.863111
v -4.466070 1.153461 -2.788683
v -5.227738 1.144061 -3.279319
v -5.215092 1.142704 -3.298005
v -5.217404 1.165766 -3.304107
v -5.234313 1.171133 -3.285071
v -3.336888 0.195459 -3.183795
v -3.397446 0.220678 -3.177629
v -3.332567 0.298505 -3.210785
v -3.296792 0.243559 -3.204287
v -3.869218 0.001915 -3.810296
v -3.853881 0.027191 -3.843039
v -3.841795 0.002818 -3.844840
v -0.131064 0.000000 -0.091772
v -0.127782 0.000000 0.096290
v 0.052091 0.000000 0.151283
v 0.159976 0.000000 -0.002792
v 0.046779 0.000000 -0.153009
v -0.203343 1.281832 0.022875
v -0.199552 1.263615 0.201485
v -0.028073 1.270573 0.254346
v 0.074115 1.293090 0.108407
v -0.034208 1.300048 -0.034650
v -0.234923 2.727652 0.257273
v -0.238144 2.714508 0.094908
v -0.079258 2.722631 0.305114
v -0.084469 2.701364 0.042401
v 0.117383 3.131607 0.430628
v 0.195692 3.357566 0.444898
v 0.178126 3.267451 0.212587
v -0.062955 2.139608 0.003773
v -0.216819 1.940177 0.045250
v -0.057402 2.142089 0.276217
v 0.047846 1.941744 0.126720
v -0.213313 1.937641 0.215737
vt 0.3465 0.5383
vt 0.3418 0.5476
vt 0.3346 0.5383
vt 0.3383 0.5553
vt 0.3462 0.5562
vt 0.2833 0.5383
vt 0.2977 0.5383
vt 0.2891 0.5483
vt 0.2787 0.5494
vt 0.2690 0.5397
vt 0.3402 0.5627
vt 0.3237 0.5432
vt 0.3319 0.5498
vt 0.3211 0.5548
vt 0.2920 0.5556
vt 0.2985 0.5513
vt 0.2971 0.5598
vt 0.2778 0.5585
vt 0.2852 0.5563
vt 0.2832 0.5640
vt 0.3546 0.5584
vt 0.3648 0.5553
vt 0.3598 0.5678
vt 0.3315 0.5598
vt 0.3091 0.5470
vt 0.3188 0.5575
vt 0.3057 0.5581
vt 0.2902 0.5617
vt 0.2742 0.5669
vt 0.3488 0.5650
vt 0.3238 0.5664
vt 0.3337 0.5694
vt 0.3257 0.5781
vt 0.3016 0.5650
vt 0.3097 0.5677
vt 0.3009 0.5726
vt 0.2887 0.5679
vt 0.2951 0.5669
vt 0.2920 0.5743
vt 0.2731 0.5789
vt 0.2829 0.5727
vt 0.2859 0.5855
vt 0.3424 0.5703
vt 0.3501 0.5750
vt 0.3390 0.5800
vt 0.2999 0.5938
vt 0.2978 0.5814
vt 0.3504 0.5871
vt 0.3597 0.5797
vt 0.3104 0.5814
vt 0.3210 0.5717
vt 0.2612 0.5710
vt 0.2665 0.5557
vt 0.3537 0.5477
vt 0.5284 0.7948
vt 0.5286 0.7924
vt 0.5517 0.7929
vt 0.5514 0.7949
vt 0.5286 0.7878
vt 0.5286 0.7854
vt 0.5516 0.7866
vt 0.5516 0.7887
vt 0.5286 0.7901
vt 0.5517 0.7908
vt 0.5288 0.7831
vt 0.5518 0.7845
vt 0.5881 0.7919
vt 0.5869 0.7936
vt 0.5882 0.7864
vt 0.5870 0.7882
vt 0.5881 0.7900
vt 0.5879 0.7955
vt 0.5950 0.7906
vt 0.5936 0.7917
vt 0.5765 0.8371
vt 0.5750 0.8387
vt 0.5647 0.8387
vt 0.5651 0.8372
vt 0.5899 0.7883
vt 0.5957 0.7894
vt 0.5750 0.8348
vt 0.5653 0.8355
vt 0.5345 0.8038
vt 0.5333 0.8014
vt 0.5444 0.8010
vt 0.5443 0.8030
vt 0.5324 0.7973
vt 0.5344 0.7955
vt 0.5442 0.7962
vt 0.5443 0.7978
vt 0.5883 0.7864
vt 0.5959 0.7879
vt 0.5336 0.7992
vt 0.5445 0.7992
vt 0.5550 0.7965
vt 0.5548 0.7978
vt 0.5548 0.7991
vt 0.5550 0.8007
vt 0.5552 0.8025
vt 0.5649 0.7997
vt 0.5652 0.8011
vt 0.5648 0.7975
vt 0.5647 0.7985
vt 0.5648 0.7964
vt 0.5754 0.7971
vt 0.5754 0.7974
vt 0.5755 0.7977
vt 0.5755 0.7980
vt 0.5755 0.7984
vt 0.5755 0.8408
vt 0.5649 0.8405
vt 0.5900 0.7937
vt 0.5951 0.7926
vt 0.5956 0.7937
vt 0.5885 0.7955
vt 0.5750 0.8435
vt 0.5652 0.8428
vt 0.5464 0.8399
vt 0.5461 0.8382
vt 0.5465 0.8367
vt 0.5468 0.8350
vt 0.5465 0.8421
vt 0.5297 0.8361
vt 0.5297 0.8348
vt 0.5295 0.8372
vt 0.5292 0.8403
vt 0.5294 0.8386
vt 0.5160 0.8374
vt 0.5160 0.8368
vt 0.5160 0.8362
vt 0.5162 0.8357
vt 0.5162 0.8351
vt 0.5325 0.8149
vt 0.5324 0.8144
vt 0.5330 0.8144
vt 0.5330 0.8150
vt 0.5344 0.8144
vt 0.5344 0.8147
vt 0.5341 0.8147
vt 0.5341 0.8144
vt 0.5414 0.8077
vt 0.5414 0.8088
vt 0.5324 0.8105
vt 0.5327 0.8081
vt 0.5329 0.8059
vt 0.5415 0.8063
vt 0.5416 0.8040
vt 0.5414 0.8051
vt 0.5324 0.8039
vt 0.5506 0.8079
vt 0.5506 0.8090
vt 0.5508 0.8052
vt 0.5510 0.8065
vt 0.5507 0.8040
vt 0.5640 0.8065
vt 0.5640 0.8069
vt 0.5639 0.8061
vt 0.5639 0.8073
vt 0.5639 0.8076
vt 0.5341 0.8144
vt 0.5341 0.8147
vt 0.5337 0.8147
vt 0.5337 0.8144
vt 0.6031 0.7891
vt 0.6026 0.7899
vt 0.6024 0.7909
vt 0.6029 0.7926
vt 0.6028 0.7936
vt 0.6159 0.7920
vt 0.6157 0.7926
vt 0.6159 0.7916
vt 0.6159 0.7912
vt 0.6158 0.7930
vt 0.5335 0.8147
vt 0.5331 0.8147
vt 0.5330 0.8144
vt 0.5336 0.8144
vt 0.5292 0.7955
vt 0.5324 0.7959
vt 0.5315 0.8184
vt 0.5286 0.8182
vt 0.5226 0.7958
vt 0.5259 0.7955
vt 0.5255 0.8179
vt 0.5226 0.8178
vt 0.5160 0.7958
vt 0.5193 0.7960
vt 0.5198 0.8179
vt 0.5169 0.8183
vt 0.5261 0.8294
vt 0.5290 0.8283
vt 0.5232 0.8348
vt 0.5240 0.8326
vt 0.5191 0.8283
vt 0.5210 0.8276
vt 0.5223 0.8315
vt 0.5230 0.8289
vt 0.5230 0.8316
vt 0.5229 0.8325
vt 0.5264 0.7955
vt 0.5268 0.7825
vt 0.5160 0.7901
vt 0.5187 0.7878
vt 0.5185 0.7925
vt 0.7662 0.6752
vt 0.7786 0.6670
vt 0.7794 0.6834
vt 0.8221 0.6672
vt 0.8221 0.6835
vt 0.5249 0.8266
vt 0.8563 0.6809
vt 0.8544 0.7158
vt 0.8381 0.7173
vt 0.8395 0.6813
vt 0.8484 0.6670
vt 0.8317 0.6804
vt 0.8563 0.7316
vt 0.8418 0.7267
vt 0.8380 0.6670
vn 0.4927 0.6738 0.5506
vn 0.6641 0.6897 0.2886
vn 0.4898 0.6679 0.5603
vn 0.7202 0.1744 0.6715
vn 0.6591 0.2479 0.7101
vn 0.6412 0.7151 -0.2783
vn -0.1044 0.9916 -0.0770
vn -0.1502 0.6845 0.7133
vn 0.0814 -0.9765 0.1993
vn 0.4167 -0.8950 0.1589
vn 0.1027 0.8556 -0.5073
vn -0.5263 0.8359 -0.1557
vn -0.4003 0.0801 0.9129
vn -0.0234 -0.9996 0.0132
vn 0.4064 -0.8685 0.2837
vn -0.3258 0.2650 -0.9075
vn -0.8161 0.5088 -0.2740
vn -0.5163 -0.8540 -0.0642
vn -0.0049 -0.9999 0.0161
vn -0.0997 -0.8025 -0.5882
vn -0.4548 -0.5431 -0.7058
vn -0.1145 -0.8566 -0.5031
vn 0.0413 -0.9814 -0.1873
vn -0.4648 -0.8230 -0.3267
vn 0.0092 -0.9998 0.0204
vn -0.0036 -0.9949 -0.1007
vn -0.8514 -0.3452 -0.3948
vn -0.9441 -0.2605 -0.2019
vn -0.9882 -0.0167 -0.1523
vn -0.8214 0.2598 -0.5078
vn -0.7986 0.3917 -0.4570
vn -0.6650 0.5911 -0.4565
vn -0.5721 -0.1092 -0.8129
vn -0.3318 0.4199 -0.8447
vn -0.2946 0.3879 -0.8734
vn 0.0562 -0.8904 -0.4517
vn 0.1338 -0.9908 -0.0199
vn 0.1883 -0.9811 -0.0435
vn 0.0880 -0.9899 0.1107
vn 0.0824 -0.9926 0.0893
vn 0.3706 -0.9248 0.0855
vn -0.4667 -0.8820 0.0650
vn -0.8742 -0.1508 0.4615
vn -0.9497 0.2368 0.2050
vn -0.7708 0.5941 -0.2301
vn -0.5975 0.7686 -0.2285
vn -0.5959 0.7231 -0.3494
vn -0.1205 0.6634 -0.7385
vn -0.1640 0.6721 -0.7221
vn -0.2343 0.4539 -0.8597
vn 0.2156 -0.9679 0.1295
vn 0.2115 -0.9695 0.1242
vn 0.2104 -0.9758 0.0595
vn 0.3709 -0.9286 0.0049
vn 0.3769 -0.9262 0.0086
vn 0.4521 -0.6429 0.6183
vn -0.6606 0.7093 0.2460
vn -0.4399 0.8213 0.3632
vn -0.3185 0.8936 0.3163
vn -0.1068 0.9401 -0.3237
vn -0.1178 0.9332 -0.3395
vn 0.1291 0.9638 -0.2334
vn 0.3782 -0.2382 -0.8945
vn 0.8959 0.0588 -0.4403
vn 0.7775 -0.5714 0.2626
vn 0.6908 -0.4939 0.5281
vn 0.6802 -0.4732 0.5598
vn 0.4999 -0.7089 0.4975
vn 0.5608 -0.7461 0.3589
vn 0.6909 -0.0105 0.7228
vn 0.6913 -0.0109 0.7225
vn 0.3047 0.6075 0.7335
vn 0.3427 0.7531 0.5616
vn 0.1623 0.8785 0.4492
vn 0.8090 -0.2854 0.5139
vn 0.7453 0.4770 0.4658
vn 0.6182 0.5022 0.6047
vn 0.2204 0.9244 0.3114
vn 0.3765 0.8464 0.3766
vn 0.4123 0.8904 0.1927
vn -0.0133 -0.7059 0.7081
vn 0.4419 0.2840 -0.8509
vn -0.7212 0.2283 0.6540
vn 0.7069 -0.6707 -0.2245
vn -0.4406 0.8425 -0.3100
vn -0.7517 0.2084 0.6257
vn 0.7028 -0.6716 -0.2346
vn -0.3949 0.8792 -0.2666
vn -0.0793 -0.7529 0.6534
vn 0.5025 0.3360 -0.7966
vn -0.3755 0.8998 -0.2223
vn 0.7065 -0.3256 0.6284
vn 0.5359 0.3192 -0.7816
vn 0.0197 -0.9983 -0.0556
vn -0.8155 0.2832 -0.5048
vn -0.0919 -0.9956 -0.0201
vn 0.6064 -0.7628 -0.2244
vn 0.3993 0.9034 0.1567
vn 0.7863 -0.4173 0.4557
vn -0.1303 -0.9904 0.0471
vn 0.4385 0.8944 0.0884
vn -0.8562 0.2894 -0.4279
vn 0.8164 -0.4073 0.4095
vn -0.8992 0.4372 0.0173
vn 0.8419 -0.5397 -0.0016
vn -0.2520 -0.9260 0.2811
vn 0.5749 0.7536 -0.3186
vn -0.2751 -0.8517 0.4460
vn 0.5125 0.6125 -0.6018
vn -0.7871 0.5786 0.2138
vn 0.6986 -0.6821 -0.2160
vn 0.2926 0.8866 0.3583
vn -0.1166 -0.8266 0.5505
vn -0.7605 0.1850 0.6224
vn -0.7340 0.3038 -0.6074
vn 0.2263 0.8313 0.5077
vn -0.0097 -0.9743 -0.2248
vn 0.5574 -0.4688 0.6853
vn -0.5741 0.3882 -0.7209
vn 0.1502 -0.9169 -0.3698
vn 0.3188 -0.6030 0.7313
vn -0.3363 0.5219 -0.7839
vn -0.0558 0.7303 0.6809
vn -0.0128 0.6095 -0.7926
vn -0.3581 0.6442 0.6758
vn 0.2874 -0.8785 -0.3815
vn -0.0078 -0.6986 0.7154
vn -0.8524 -0.3279 -0.4074
vn -0.6866 -0.3239 -0.6509
vn -0.4839 -0.6453 -0.5911
vn 0.0452 -0.2727 0.9610
vn -0.1618 0.2231 -0.9613
vn 0.4636 0.8806 -0.0982
vn -0.2666 -0.9542 -0.1359
vn 0.3017 0.9530 -0.0286
vn 0.2165 -0.0781 -0.9732
vn -0.2539 -0.0366 0.9665
vn 0.1443 0.9717 -0.1871
vn 0.4722 -0.1726 -0.8644
vn -0.5414 0.0415 0.8397
vn -0.1235 -0.9922 0.0159
vn -0.7805 -0.2715 -0.5631
vn 0.8595 -0.4526 0.2374
vn 0.7445 0.4219 -0.5174
vn -0.1987 -0.7677 0.6093
vn -0.8621 0.4320 -0.2649
vn -0.6738 0.6912 0.2612
vn 0.6446 0.3487 -0.6803
vn 0.6531 -0.6971 -0.2957
vn -0.2870 -0.8190 0.4969
vn -0.7374 -0.3218 -0.5938
vn -0.3262 0.0657 -0.9430
vn 0.8190 0.0051 0.5738
vn -0.9982 -0.0579 0.0164
vn 0.7948 0.1041 -0.5979
vn -0.2904 -0.0957 0.9521
vn -0.3206 0.0522 -0.9458
vn -0.9994 -0.0287 0.0211
vn -0.2943 -0.0584 0.9539
vn -0.2185 -0.8814 -0.4188
vn -0.2415 -0.8551 0.4588
vn 0.3502 -0.8250 -0.4435
vn -0.5221 -0.8492 0.0791
vn -0.4282 0.8530 -0.2985
vn -0.7382 0.2155 0.6392
vn 0.9422 -0.3301 0.0568
vn 0.7209 -0.6603 -0.2106
vn -0.3092 -0.0308 0.9505
vn 0.7902 0.0525 -0.6105
vn -0.9996 -0.0210 0.0196
vn 0.8226 0.0151 0.5685
vn -0.3112 0.0298 -0.9499
vn 0.9990 0.0392 -0.0218
vn 0.8781 0.4779 -0.0223
vn 0.6334 0.5285 0.5652
vn 0.2571 0.9628 -0.0830
vn -0.0247 0.9827 0.1834
vn 0.2379 0.9349 0.2632
s off
f 1/1/1 14/2/1 13/3/1
f 2/4/2 14/2/2 16/5/2
f 1/6/3 13/7/3 18/8/3
f 1/6/4 18/8/4 20/9/4
f 1/6/5 20/9/5 17/10/5
f 2/4/6 16/5/6 23/11/6
f 3/12/7 15/13/7 25/14/7
f 4/15/8 19/16/8 27/17/8
f 5/18/9 21/19/9 29/20/9
f 6/21/10 22/22/10 31/23/10
f 2/4/11 23/11/11 26/24/11
f 3/25/12 25/26/12 28/27/12
f 4/15/13 27/17/13 30/28/13
f 5/18/14 29/20/14 32/29/14
f 6/21/15 31/23/15 24/30/15
f 7/31/16 33/32/16 38/33/16
f 8/34/17 34/35/17 40/36/17
f 9/37/18 35/38/18 41/39/18
f 10/40/19 36/41/19 42/42/19
f 11/43/20 37/44/20 39/45/20
f 39/46/21 42/42/21 12/47/21
f 39/45/22 37/44/22 42/48/22
f 37/44/23 10/49/23 42/48/23
f 42/42/24 41/39/24 12/47/24
f 42/42/25 36/41/25 41/39/25
f 36/41/26 9/37/26 41/39/26
f 41/39/27 40/36/27 12/47/27
f 41/39/28 35/38/28 40/36/28
f 35/38/29 8/34/29 40/36/29
f 40/36/30 38/50/30 12/47/30
f 40/36/31 34/35/31 38/50/31
f 34/35/32 7/51/32 38/50/32
f 38/50/33 39/46/33 12/47/33
f 38/33/34 33/32/34 39/45/34
f 33/32/35 11/43/35 39/45/35
f 24/30/36 37/44/36 11/43/36
f 24/30/37 31/23/37 37/44/37
f 31/23/38 10/49/38 37/44/38
f 32/29/39 36/41/39 10/40/39
f 32/29/40 29/20/40 36/41/40
f 29/20/41 9/37/41 36/41/41
f 30/28/42 35/38/42 9/37/42
f 30/28/43 27/17/43 35/38/43
f 27/17/44 8/34/44 35/38/44
f 28/27/45 34/35/45 8/34/45
f 28/27/46 25/26/46 34/35/46
f 25/26/47 7/51/47 34/35/47
f 26/24/48 33/32/48 7/31/48
f 26/24/49 23/11/49 33/32/49
f 23/11/50 11/43/50 33/32/50
f 31/52/51 32/29/51 10/40/51
f 31/52/52 22/53/52 32/29/52
f 22/53/53 5/18/53 32/29/53
f 29/20/54 30/28/54 9/37/54
f 29/20/55 21/19/55 30/28/55
f 21/19/56 4/15/56 30/28/56
f 27/17/57 28/27/57 8/34/57
f 27/17/58 19/16/58 28/27/58
f 19/16/59 3/25/59 28/27/59
f 25/14/60 26/24/60 7/31/60
f 25/14/61 15/13/61 26/24/61
f 15/13/62 2/4/62 26/24/62
f 23/11/63 24/30/63 11/43/63
f 23/11/64 16/5/64 24/30/64
f 16/5/65 6/21/65 24/30/65
f 17/54/66 22/22/66 6/21/66
f 17/10/67 20/9/67 22/53/67
f 20/9/68 5/18/68 22/53/68
f 20/9/69 21/19/69 5/18/69
f 20/9/70 18/8/70 21/19/70
f 18/8/71 4/15/71 21/19/71
f 18/8/72 19/16/72 4/15/72
f 18/8/73 13/7/73 19/16/73
f 13/7/74 3/25/74 19/16/74
f 16/5/75 17/54/75 6/21/75
f 16/5/76 14/2/76 17/54/76
f 14/2/77 1/1/77 17/54/77
f 13/3/78 15/13/78 3/12/78
f 13/3/79 14/2/79 15/13/79
f 14/2/80 2/4/80 15/13/80
f 43/55/81 44/56/81 49/57/81 48/58/81
f 46/59/82 47/60/82 52/61/82 51/62/82
f 44/56/83 45/63/83 50/64/83 49/57/83
f 47/60/84 43/65/84 48/66/84 52/61/84
f 45/63/85 46/59/85 51/62/85 50/64/85
f 49/57/86 50/64/86 55/67/86 54/68/86
f 52/61/87 48/66/87 53/69/87 57/70/87
f 50/64/88 51/62/88 56/71/88 55/67/88
f 48/58/89 49/57/89 54/68/89 53/72/89
f 51/62/90 52/61/90 57/70/90 56/71/90
f 55/67/91 56/71/91 61/73/91 97/74/91
f 53/75/92 54/76/92 82/77/92 81/78/92
f 56/71/93 63/79/93 62/80/93 61/73/93
f 80/81/94 53/75/94 81/78/94 84/82/94
f 63/83/95 56/84/95 65/85/95 67/86/95
f 53/87/96 63/88/96 67/89/96 64/90/96
f 63/79/97 53/91/97 58/92/97 62/80/97
f 56/84/98 57/93/98 66/94/98 65/85/98
f 57/93/99 53/87/99 64/90/99 66/94/99
f 64/90/100 67/89/100 71/95/100 68/96/100
f 65/85/101 66/94/101 70/97/101 69/98/101
f 67/86/102 65/85/102 69/98/102 71/99/102
f 66/94/103 64/90/103 68/96/103 70/97/103
f 71/99/104 69/98/104 73/100/104 75/101/104
f 70/97/105 68/96/105 72/102/105 74/103/105
f 68/96/106 71/95/106 75/104/106 72/102/106
f 69/98/107 70/97/107 74/103/107 73/100/107
f 72/102/108 75/104/108 79/105/108 76/106/108
f 73/100/109 74/103/109 78/107/109 77/108/109
f 75/101/110 73/100/110 77/108/110 79/109/110
f 74/103/111 72/102/111 76/106/111 78/107/111
f 54/76/112 55/110/112 83/111/112 82/77/112
f 80/112/113 59/113/113 58/114/113 53/115/113
f 80/112/114 55/67/114 97/74/114 59/113/114
f 55/110/115 80/116/115 84/117/115 83/111/115
f 82/77/116 83/111/116 87/118/116 86/119/116
f 84/82/117 81/78/117 85/120/117 88/121/117
f 81/78/118 82/77/118 86/119/118 85/120/118
f 83/111/119 84/117/119 88/122/119 87/118/119
f 88/121/120 85/120/120 89/123/120 92/124/120
f 85/120/121 86/119/121 90/125/121 89/123/121
f 87/118/122 88/122/122 92/126/122 91/127/122
f 86/119/123 87/118/123 91/127/123 90/125/123
f 91/127/124 92/126/124 96/128/124 95/129/124
f 90/125/125 91/127/125 95/129/125 94/130/125
f 92/124/126 89/123/126 93/131/126 96/132/126
f 89/123/127 90/125/127 94/130/127 93/131/127
f 93/133/128 94/134/128 95/135/128 96/136/128
f 78/137/129 76/138/129 79/139/129 77/140/129
f 98/141/130 99/142/130 61/143/130 59/144/130
f 59/144/131 97/145/131 101/146/131 98/141/131
f 99/147/132 100/148/132 61/149/132
f 97/145/133 61/149/133 100/148/133 101/146/133
f 99/142/134 98/141/134 102/150/134 103/151/134
f 101/146/135 100/148/135 104/152/135 105/153/135
f 100/148/136 99/147/136 103/154/136 104/152/136
f 98/141/137 101/146/137 105/153/137 102/150/137
f 105/153/138 104/152/138 108/155/138 109/156/138
f 104/152/139 103/154/139 107/157/139 108/155/139
f 102/150/140 105/153/140 109/156/140 106/158/140
f 103/151/141 102/150/141 106/158/141 107/159/141
f 107/160/142 106/161/142 109/162/142 108/163/142
f 62/80/143 58/92/143 110/164/143 113/165/143
f 61/73/144 62/80/144 113/165/144 112/166/144
f 58/114/145 59/113/145 111/167/145 110/168/145
f 112/166/146 111/167/146 59/113/146 61/73/146
f 111/167/147 112/166/147 115/169/147 114/170/147
f 112/166/148 113/165/148 116/171/148 115/169/148
f 113/165/149 110/164/149 60/172/149 116/171/149
f 110/168/150 111/167/150 114/170/150 60/173/150
f 116/174/151 60/175/151 114/176/151 115/177/151
f 121/178/152 117/179/152 122/180/152 126/181/152
f 119/182/153 120/183/153 125/184/153 124/185/153
f 117/186/154 118/187/154 123/188/154 122/189/154
f 120/183/155 121/178/155 126/181/155 125/184/155
f 118/187/156 119/182/156 124/185/156 123/188/156
f 134/190/157 135/191/157 128/192/157 130/193/157
f 135/194/158 138/195/158 127/196/158 128/192/158
f 138/195/159 136/197/159 129/198/159 127/196/159
f 130/193/160 128/192/160 44/199/160
f 43/55/161 130/200/161 44/56/161
f 47/60/162 130/201/162 43/65/162
f 128/192/163 127/196/163 44/199/163
f 46/59/164 45/63/164 132/202/164 133/203/164
f 45/63/165 44/56/165 131/204/165 132/202/165
f 132/205/166 131/206/166 133/207/166
f 133/207/167 131/206/167 44/208/167 46/209/167
f 123/188/168 124/185/168 136/197/168 138/195/168
f 125/184/169 126/181/169 134/190/169 137/210/169
f 122/189/170 123/188/170 138/195/170 135/194/170
f 124/185/171 125/184/171 137/210/171 136/197/171
f 126/181/172 122/180/172 135/191/172 134/190/172
f 134/211/173 130/212/173 129/213/173 136/214/173
f 137/215/174 134/211/174 136/214/174
f 47/216/175 46/209/175 44/208/175
f 129/213/176 130/212/176 44/217/176
f 127/218/177 129/213/177 44/217/177
f 130/219/178 47/216/178 44/208/178
