# Blender v2.78 (sub 0) OBJ File: 'Low_Poly_Trees_Pack.blend'
# www.blender.org
g Acacia_Tree_NoLeaves_m_03
v 0.000000 0.000000 -0.142560
v -0.135583 0.000000 -0.044053
v -0.083795 0.000000 0.115333
v 0.083795 0.000000 0.115333
v 0.135583 0.000000 -0.044053
v -0.000633 1.202103 -0.136723
v -0.129056 1.185872 -0.042675
v -0.080003 1.192072 0.109496
v 0.078737 1.212134 0.109496
v 0.127790 1.218334 -0.042675
v -0.011692 2.540862 -0.165459
v -0.127291 2.553194 -0.080974
v -0.083136 2.548483 0.055726
v 0.059753 2.533240 0.055726
v 0.103908 2.528530 -0.080974
v 0.119756 3.932810 -0.236875
v 0.017502 3.951718 -0.161324
v 0.056560 3.944496 -0.039080
v 0.182952 3.921123 -0.039080
v 0.222010 3.913901 -0.161324
v 0.018250 5.537812 -0.303825
v -0.067221 5.466440 -0.236916
v -0.035911 5.536884 -0.130452
v 0.076322 5.538959 -0.131724
v 0.115042 5.471746 -0.238980
v 0.018122 5.810323 -0.267847
v -0.053616 5.809019 -0.214465
v 0.304662 7.132823 -0.718241
v 0.064384 5.811235 -0.130744
v 0.091051 5.811692 -0.216104
v 0.100493 5.661216 -0.237745
v 1.301580 5.990120 -0.297176
v 1.311325 5.983912 -0.167448
v 1.352658 5.946190 -0.248201
v 1.246347 6.037624 -0.246161
v 1.831203 6.524920 -0.288677
v 1.839724 6.521862 -0.188604
v 1.877793 6.501731 -0.250981
v 1.780864 6.549771 -0.249224
v 1.961380 7.277551 -0.268008
v 1.966398 7.277546 -0.213138
v 1.989867 7.275436 -0.247377
v 1.930691 7.279547 -0.246331
v -0.071303 5.654781 -0.235825
v -1.169996 5.581799 -0.263024
v -1.189296 5.525549 -0.217761
v -1.171708 5.575580 -0.145000
v -1.152771 5.651028 -0.217458
v -1.822064 5.917917 -0.237323
v -1.857606 5.898286 -0.206037
v -1.825586 5.916153 -0.156349
v -1.781481 5.945608 -0.206384
v -2.109878 6.581651 -0.199861
v -2.138344 6.562640 -0.167568
v -2.159009 6.551109 -0.199637
v -2.136070 6.563780 -0.219829
v -0.023905 5.714064 -0.126022
v -0.344269 6.072874 0.175624
v -0.295621 6.085029 0.197932
v -0.286719 6.065843 0.217725
v -0.326155 6.033096 0.215841
v 0.300525 6.464414 -0.568215
v 0.259865 6.488318 -0.533261
v 0.326918 6.449711 -0.478159
v 0.341967 6.440555 -0.534160
v 0.285359 7.130132 -0.703741
v 0.317116 7.134516 -0.680998
v 0.324290 7.135533 -0.704185
v -0.113053 5.829712 -0.473483
v -0.170857 5.835657 -0.446656
v -0.144237 5.785875 -0.478490
v -0.182809 5.787472 -0.452941
v -0.297780 6.165050 -0.788477
v -0.334588 6.167161 -0.767279
v -0.323454 6.143664 -0.801608
v -0.348227 6.141534 -0.783495
vt 0.5483 0.7620
vt 0.5525 0.7621
vt 0.5519 0.7920
vt 0.5480 0.7923
vt 0.5399 0.7620
vt 0.5441 0.7620
vt 0.5440 0.7921
vt 0.5401 0.7916
vt 0.5316 0.7621
vt 0.5358 0.7620
vt 0.5361 0.7915
vt 0.5321 0.7920
vt 0.5509 0.8252
vt 0.5474 0.8249
vt 0.5438 0.8247
vt 0.5403 0.8250
vt 0.5367 0.8252
vt 0.5332 0.8252
vt 0.5372 0.8599
vt 0.5340 0.8598
vt 0.5468 0.8594
vt 0.5437 0.8593
vt 0.5405 0.8596
vt 0.5499 0.8598
vt 0.5602 0.7634
vt 0.5641 0.7629
vt 0.5636 0.8124
vt 0.5600 0.8105
vt 0.5721 0.7620
vt 0.5759 0.7631
vt 0.5731 0.8130
vt 0.5698 0.8105
vt 0.5681 0.7620
vt 0.5661 0.8124
vt 0.5563 0.7627
vt 0.5566 0.8126
vt 0.5650 0.8157
vt 0.5643 0.8145
vt 0.5926 0.7731
vt 0.5950 0.7753
vt 0.5942 0.8029
vt 0.5925 0.8027
vt 0.5670 0.8144
vt 0.5660 0.8163
vt 0.5892 0.7756
vt 0.5904 0.8027
vt 0.5860 0.8342
vt 0.5820 0.8358
vt 0.5833 0.8027
vt 0.5860 0.8034
vt 0.5756 0.8367
vt 0.5731 0.8334
vt 0.5770 0.8030
vt 0.5791 0.8026
vt 0.5690 0.8136
vt 0.5671 0.8168
vt 0.5787 0.8352
vt 0.5810 0.8023
vt 0.5784 0.7852
vt 0.5800 0.7852
vt 0.5815 0.7853
vt 0.5834 0.7853
vt 0.5855 0.7852
vt 0.5823 0.7663
vt 0.5835 0.7663
vt 0.5803 0.7663
vt 0.5812 0.7663
vt 0.5794 0.7664
vt 0.5984 0.7747
vt 0.5964 0.8029
vt 0.5632 0.8146
vt 0.5631 0.8152
vt 0.5632 0.8152
vt 0.6023 0.7760
vt 0.5990 0.8032
vt 0.5946 0.8207
vt 0.5931 0.8207
vt 0.5919 0.8204
vt 0.5905 0.8201
vt 0.5964 0.8207
vt 0.5920 0.8379
vt 0.5910 0.8377
vt 0.5902 0.8377
vt 0.5892 0.8377
vt 0.5931 0.8382
vt 0.5598 0.8515
vt 0.5599 0.8501
vt 0.5735 0.8477
vt 0.5735 0.8513
vt 0.5735 0.8546
vt 0.5598 0.8530
vt 0.5595 0.8549
vt 0.5597 0.8542
vt 0.5730 0.8578
vt 0.5844 0.8494
vt 0.5832 0.8500
vt 0.5832 0.8485
vt 0.5845 0.8487
vt 0.5805 0.8447
vt 0.5804 0.8455
vt 0.5795 0.8457
vt 0.5795 0.8445
vt 0.5884 0.8510
vt 0.5882 0.8519
vt 0.5873 0.8520
vt 0.5872 0.8510
vt 0.5636 0.8263
vt 0.5630 0.8256
vt 0.5622 0.8252
vt 0.5629 0.8152
vt 0.5635 0.8152
vt 0.5608 0.8254
vt 0.5600 0.8251
vt 0.5581 0.8368
vt 0.5575 0.8366
vt 0.5584 0.8371
vt 0.5588 0.8373
vt 0.5570 0.8366
vt 0.5871 0.8467
vt 0.5865 0.8467
vt 0.5863 0.8461
vt 0.5873 0.8461
vt 0.5627 0.8142
vt 0.5631 0.8151
vt 0.5631 0.8151
vt 0.5637 0.8151
vt 0.5631 0.8152
vt 0.5630 0.8151
vt 0.5630 0.8151
vt 0.5630 0.8151
vt 0.5630 0.8151
vt 0.5792 0.8508
vt 0.5791 0.8519
vt 0.5783 0.8515
vt 0.5783 0.8507
vn 0.5891 0.0045 -0.8081
vn -0.0003 0.0049 1.0000
vn -0.5894 0.0039 -0.8078
vn 0.9514 0.0056 0.3080
vn -0.9514 0.0047 0.3079
vn 0.5905 -0.0126 -0.8069
vn -0.0006 0.0401 0.9992
vn -0.5901 -0.0220 -0.8070
vn 0.9513 0.0262 0.3071
vn -0.9517 0.0099 0.3070
vn -0.5906 0.0146 -0.8068
vn 0.9493 -0.0631 0.3080
vn -0.9441 0.1155 0.3087
vn 0.5803 -0.0963 -0.8087
vn 0.0096 0.0670 0.9977
vn -0.9521 -0.0380 0.3034
vn 0.5766 0.0006 -0.8170
vn 0.0105 0.0579 0.9983
vn -0.5901 -0.0720 -0.8041
vn 0.9517 0.0799 0.2966
vn 0.0358 -0.0120 0.9993
vn -0.0484 -0.6367 -0.7696
vn 0.9603 0.0338 0.2767
vn -0.0131 0.5169 -0.8559
vn -0.2220 0.6810 0.6978
vn -0.1968 0.5751 -0.7940
vn 0.5337 0.1260 -0.8363
vn 0.2979 -0.7739 0.5588
vn 0.2042 -0.5578 -0.8044
vn -0.4080 0.4189 -0.8112
vn 0.6014 -0.5671 0.5628
vn -0.4794 0.5018 0.7200
vn 0.4300 -0.4118 -0.8034
vn -0.6756 0.1363 0.7245
vn 0.5942 -0.0816 -0.8002
vn -0.5720 0.1209 -0.8113
vn 0.8244 -0.1211 0.5529
vn -0.0346 -0.8250 0.5640
vn -0.8967 -0.3789 0.2289
vn -0.9270 0.0535 0.3713
vn 0.0119 0.6775 0.7355
vn -0.3924 -0.7277 0.5625
vn 0.2298 0.5149 -0.8259
vn -0.3172 -0.5501 -0.7725
vn 0.3143 0.6351 0.7056
vn -0.7289 -0.3424 0.5928
vn -0.5583 -0.2500 -0.7911
vn 0.4719 0.2523 -0.8448
vn 0.6151 0.3102 0.7248
vn 0.2139 0.8652 -0.4535
vn -0.8163 -0.5233 -0.2445
vn 0.7293 0.6252 0.2780
vn 0.4521 -0.4273 0.7830
vn -0.4622 0.5196 0.7186
vn 0.0692 0.9976 -0.0062
vn -0.5280 0.8493 -0.0045
vn 0.4389 -0.5316 -0.7244
vn 0.9305 -0.2255 0.2885
vn -0.6259 -0.0805 -0.7758
vn -0.4293 0.5499 0.7165
vn -0.5511 0.2321 0.8015
vn 0.9613 0.0896 0.2606
vn 0.5686 -0.1826 -0.8021
vn -0.6615 -0.1640 -0.7318
vn -0.1374 0.9905 0.0009
vn -0.5031 0.1129 -0.8568
vn 0.0743 0.9953 0.0625
vn -0.8744 0.1553 0.4597
vn 0.7137 -0.4984 -0.4922
vn 0.6134 -0.3360 -0.7148
vn -0.3909 -0.7180 -0.5759
vn -0.8289 0.1209 0.5462
vn 0.3554 0.7355 0.5768
vn -0.3852 0.6985 -0.6031
s off
f 5/1/1 1/2/1 6/3/1 10/4/1
f 3/5/2 4/6/2 9/7/2 8/8/2
f 1/9/3 2/10/3 7/11/3 6/12/3
f 4/6/4 5/1/4 10/4/4 9/7/4
f 2/10/5 3/5/5 8/8/5 7/11/5
f 10/4/6 6/3/6 11/13/6 15/14/6
f 8/8/7 9/7/7 14/15/7 13/16/7
f 6/12/8 7/11/8 12/17/8 11/18/8
f 9/7/9 10/4/9 15/14/9 14/15/9
f 7/11/10 8/8/10 13/16/10 12/17/10
f 11/18/11 12/17/11 17/19/11 16/20/11
f 14/15/12 15/14/12 20/21/12 19/22/12
f 12/17/13 13/16/13 18/23/13 17/19/13
f 15/14/14 11/13/14 16/24/14 20/21/14
f 13/16/15 14/15/15 19/22/15 18/23/15
f 17/25/16 18/26/16 23/27/16 22/28/16
f 20/29/17 16/30/17 21/31/17 25/32/17
f 18/26/18 19/33/18 24/34/18 23/27/18
f 16/35/19 17/25/19 22/28/19 21/36/19
f 19/33/20 20/29/20 25/32/20 24/34/20
f 23/27/21 24/34/21 29/37/21 57/38/21
f 21/39/22 22/40/22 46/41/22 45/42/22
f 24/34/23 31/43/23 30/44/23 29/37/23
f 44/45/24 21/39/24 45/42/24 48/46/24
f 31/47/25 24/48/25 33/49/25 35/50/25
f 21/51/26 31/52/26 35/53/26 32/54/26
f 31/43/27 21/55/27 26/56/27 30/44/27
f 24/48/28 25/57/28 34/58/28 33/49/28
f 25/57/29 21/51/29 32/54/29 34/58/29
f 32/54/30 35/53/30 39/59/30 36/60/30
f 33/49/31 34/58/31 38/61/31 37/62/31
f 35/50/32 33/49/32 37/62/32 39/63/32
f 34/58/33 32/54/33 36/60/33 38/61/33
f 39/63/34 37/62/34 41/64/34 43/65/34
f 38/61/35 36/60/35 40/66/35 42/67/35
f 36/60/36 39/59/36 43/68/36 40/66/36
f 37/62/37 38/61/37 42/67/37 41/64/37
f 22/40/38 23/69/38 47/70/38 46/41/38
f 44/71/39 57/38/39 72/72/39 71/73/39
f 44/71/40 23/27/40 57/38/40
f 23/69/41 44/74/41 48/75/41 47/70/41
f 46/41/42 47/70/42 51/76/42 50/77/42
f 48/46/43 45/42/43 49/78/43 52/79/43
f 45/42/44 46/41/44 50/77/44 49/78/44
f 47/70/45 48/75/45 52/80/45 51/76/45
f 50/77/46 51/76/46 54/81/46 55/82/46
f 49/78/47 50/77/47 55/82/47 56/83/47
f 52/79/48 49/78/48 56/83/48 53/84/48
f 51/76/49 52/80/49 53/85/49 54/81/49
f 58/86/50 59/87/50 29/88/50 27/89/50
f 27/89/51 57/90/51 61/91/51 58/86/51
f 59/92/52 60/93/52 29/94/52
f 57/90/53 29/94/53 60/93/53 61/91/53
f 59/95/54 58/96/54 61/97/54 60/98/54
f 42/99/55 40/100/55 43/101/55 41/102/55
f 53/103/56 56/104/56 55/105/56 54/106/56
f 30/44/57 26/56/57 62/107/57 65/108/57
f 29/37/58 30/44/58 65/108/58 64/109/58
f 26/110/59 27/111/59 63/112/59 62/113/59
f 64/109/60 63/112/60 27/111/60 29/37/60
f 63/112/61 64/109/61 67/114/61 66/115/61
f 64/109/62 65/108/62 68/116/62 67/114/62
f 65/108/63 62/107/63 28/117/63 68/116/63
f 62/113/64 63/112/64 66/115/64 28/118/64
f 68/119/65 28/120/65 66/121/65 67/122/65
f 21/123/66 44/71/66 26/110/66
f 27/111/67 26/110/67 69/124/67 70/125/67
f 57/38/68 27/126/68 70/127/68 72/72/68
f 26/110/69 44/71/69 71/73/69 69/124/69
f 69/124/70 71/73/70 75/128/70 73/129/70
f 71/73/71 72/72/71 76/130/71 75/128/71
f 72/72/72 70/127/72 74/131/72 76/130/72
f 70/125/73 69/124/73 73/129/73 74/131/73
f 74/132/74 73/133/74 75/134/74 76/135/74
