# Blender v2.78 (sub 0) OBJ File: 'Low_Poly_Trees_Pack.blend'
# www.blender.org
g Acacia_Tree_NoLeaves_crk_m_01
v -0.206570 2.692735 -0.037956
v -0.332590 2.766892 0.033915
v -0.367794 2.900846 -0.051892
v -0.263531 2.909476 -0.176795
v -0.163890 2.780856 -0.168182
v -1.266075 1.860012 -0.887706
v -1.383524 1.920582 -0.829844
v -1.412452 2.041131 -0.903614
v -1.312882 2.055065 -1.007066
v -1.222416 1.943127 -0.997235
v -2.893304 0.693981 -2.426476
v -2.944826 0.787548 -2.327236
v -3.015740 0.856664 -2.436585
v -2.928382 0.868025 -2.526659
v -2.804226 0.804943 -2.474935
v -3.278800 0.489945 -2.799689
v -3.351632 0.541028 -2.753210
v -3.851274 -0.012803 -3.824604
v -3.284219 0.639090 -2.863727
v -3.237136 0.550551 -2.867991
v -2.940098 0.701162 -2.602435
v -2.494229 0.670728 -3.132786
v -2.547105 0.812681 -3.174769
v -2.450920 0.761327 -3.128170
v -2.593253 0.681364 -3.172829
v -2.190440 0.598085 -3.809871
v -2.238796 0.728677 -3.850099
v -2.147315 0.679963 -3.815255
v -2.285132 0.609775 -3.836222
v -2.317570 0.416447 -4.502115
v -2.339303 0.525741 -4.526487
v -2.274433 0.469232 -4.528080
v -2.388778 0.445595 -4.489982
v -2.697359 0.220445 -5.110320
v -2.703794 0.249050 -5.117764
v -2.689818 0.232061 -5.123828
v -2.711894 0.230793 -5.099911
v -3.071674 0.685522 -2.462162
v -3.423189 0.645193 -1.863158
v -3.422424 0.737292 -1.809139
v -3.489497 0.795519 -1.902184
v -3.490526 0.656349 -1.962994
v -4.490077 0.472274 -1.122065
v -4.501148 0.551034 -1.050828
v -4.534997 0.633653 -1.143428
v -4.524303 0.510449 -1.231598
v -5.650181 0.175891 -0.859273
v -5.671904 0.231568 -0.805365
v -5.685593 0.297075 -0.875531
v -5.660040 0.208745 -0.943737
v -6.530628 -0.023788 -1.064103
v -6.548506 -0.004505 -1.045244
v -6.545889 0.024562 -1.071093
v -6.523347 -0.007011 -1.095868
v -3.286046 0.671045 -2.719795
v -3.854594 0.861072 -2.639128
v -3.845874 0.875960 -2.714247
v -3.808198 0.947744 -2.703928
v -3.818327 0.947956 -2.615780
v -4.460111 1.057011 -2.780244
v -4.428074 1.051384 -2.850119
v -4.422846 1.131899 -2.863111
v -4.466070 1.153461 -2.788683
v -5.227738 1.144061 -3.279319
v -5.215092 1.142704 -3.298005
v -5.217404 1.165766 -3.304107
v -5.234313 1.171133 -3.285071
v -3.336888 0.195459 -3.183795
v -3.397446 0.220678 -3.177629
v -3.332567 0.298505 -3.210785
v -3.296792 0.243559 -3.204287
v -3.869218 0.001915 -3.810296
v -3.853881 0.027191 -3.843039
v -3.841795 0.002818 -3.844840
v -0.131064 0.000000 -0.091772
v -0.127782 0.000000 0.096290
v 0.052091 0.000000 0.151283
v 0.159976 0.000000 -0.002792
v 0.046779 0.000000 -0.153009
v -0.203343 1.281832 0.022875
v -0.199552 1.263615 0.201485
v -0.028073 1.270573 0.254346
v 0.074115 1.293090 0.108407
v -0.034208 1.300048 -0.034650
v -0.234923 2.727652 0.257273
v -0.238144 2.714508 0.094908
v -0.079258 2.722631 0.305114
v -0.084469 2.701364 0.042401
v 0.117383 3.131607 0.430628
v 0.195692 3.357566 0.444898
v 0.178126 3.267451 0.212587
v -0.062955 2.139608 0.003773
v -0.216819 1.940177 0.045250
v -0.057402 2.142089 0.276217
v 0.047846 1.941744 0.126720
v -0.213313 1.937641 0.215737
vt 0.5257 0.7942
vt 0.5258 0.7917
vt 0.5502 0.7922
vt 0.5500 0.7943
vt 0.5258 0.7868
vt 0.5258 0.7843
vt 0.5501 0.7855
vt 0.5502 0.7877
vt 0.5258 0.7892
vt 0.5503 0.7899
vt 0.5261 0.7819
vt 0.5504 0.7833
vt 0.5888 0.7911
vt 0.5876 0.7930
vt 0.5889 0.7854
vt 0.5876 0.7873
vt 0.5888 0.7892
vt 0.5886 0.7949
vt 0.5962 0.7897
vt 0.5947 0.7909
vt 0.5766 0.8390
vt 0.5750 0.8407
vt 0.5640 0.8407
vt 0.5644 0.8391
vt 0.5907 0.7874
vt 0.5968 0.7885
vt 0.5750 0.8366
vt 0.5647 0.8373
vt 0.5320 0.8038
vt 0.5308 0.8012
vt 0.5425 0.8007
vt 0.5424 0.8029
vt 0.5299 0.7969
vt 0.5320 0.7950
vt 0.5424 0.7957
vt 0.5425 0.7974
vt 0.5890 0.7854
vt 0.5971 0.7869
vt 0.5311 0.7989
vt 0.5426 0.7989
vt 0.5537 0.7960
vt 0.5536 0.7974
vt 0.5535 0.7988
vt 0.5538 0.8004
vt 0.5540 0.8024
vt 0.5642 0.7994
vt 0.5646 0.8009
vt 0.5641 0.7971
vt 0.5641 0.7982
vt 0.5642 0.7959
vt 0.5753 0.7967
vt 0.5754 0.7970
vt 0.5755 0.7973
vt 0.5755 0.7976
vt 0.5755 0.7980
vt 0.5755 0.8430
vt 0.5643 0.8427
vt 0.5908 0.7930
vt 0.5962 0.7918
vt 0.5968 0.7930
vt 0.5893 0.7949
vt 0.5749 0.8458
vt 0.5646 0.8450
vt 0.5446 0.8420
vt 0.5444 0.8401
vt 0.5448 0.8386
vt 0.5451 0.8368
vt 0.5448 0.8443
vt 0.5269 0.8379
vt 0.5270 0.8366
vt 0.5268 0.8392
vt 0.5265 0.8424
vt 0.5267 0.8406
vt 0.5125 0.8394
vt 0.5125 0.8386
vt 0.5125 0.8380
vt 0.5127 0.8375
vt 0.5127 0.8369
vt 0.5299 0.8155
vt 0.5299 0.8150
vt 0.5305 0.8149
vt 0.5305 0.8156
vt 0.5320 0.8150
vt 0.5320 0.8153
vt 0.5316 0.8153
vt 0.5316 0.8149
vt 0.5394 0.8079
vt 0.5394 0.8090
vt 0.5299 0.8108
vt 0.5302 0.8083
vt 0.5304 0.8060
vt 0.5394 0.8064
vt 0.5396 0.8039
vt 0.5394 0.8051
vt 0.5299 0.8038
vt 0.5491 0.8080
vt 0.5491 0.8092
vt 0.5494 0.8052
vt 0.5495 0.8066
vt 0.5492 0.8040
vt 0.5633 0.8066
vt 0.5633 0.8070
vt 0.5632 0.8062
vt 0.5632 0.8074
vt 0.5632 0.8078
vt 0.5316 0.8150
vt 0.5316 0.8153
vt 0.5312 0.8153
vt 0.5313 0.8149
vt 0.6047 0.7881
vt 0.6042 0.7891
vt 0.6040 0.7901
vt 0.6045 0.7919
vt 0.6044 0.7929
vt 0.6182 0.7913
vt 0.6181 0.7919
vt 0.6183 0.7909
vt 0.6183 0.7904
vt 0.6181 0.7923
vt 0.5310 0.8153
vt 0.5306 0.8153
vt 0.5305 0.8149
vt 0.5312 0.8149
vt 0.5264 0.7950
vt 0.5298 0.7954
vt 0.5288 0.8192
vt 0.5258 0.8190
vt 0.5195 0.7953
vt 0.5229 0.7950
vt 0.5226 0.8187
vt 0.5195 0.8185
vt 0.5125 0.7953
vt 0.5160 0.7955
vt 0.5165 0.8187
vt 0.5134 0.8191
vt 0.5232 0.8308
vt 0.5263 0.8297
vt 0.5201 0.8366
vt 0.5210 0.8342
vt 0.5157 0.8297
vt 0.5178 0.8290
vt 0.5191 0.8331
vt 0.5199 0.8304
vt 0.5199 0.8332
vt 0.5198 0.8342
vt 0.5235 0.7949
vt 0.5239 0.7812
vt 0.5125 0.7893
vt 0.5154 0.7868
vt 0.5152 0.7917
vt 0.3901 0.9205
vt 0.4025 0.9123
vt 0.4033 0.9287
vt 0.4460 0.9125
vt 0.4460 0.9288
vt 0.5219 0.8279
vt 0.4802 0.9262
vt 0.4783 0.9611
vt 0.4620 0.9626
vt 0.4634 0.9266
vt 0.4723 0.9123
vt 0.4556 0.9257
vt 0.4802 0.9769
vt 0.4657 0.9720
vt 0.4619 0.9123
vn -0.0133 -0.7059 0.7081
vn 0.4419 0.2840 -0.8509
vn -0.7212 0.2283 0.6540
vn 0.7069 -0.6707 -0.2245
vn -0.4406 0.8425 -0.3100
vn -0.7517 0.2084 0.6257
vn 0.7028 -0.6716 -0.2346
vn -0.3949 0.8792 -0.2666
vn -0.0793 -0.7529 0.6534
vn 0.5025 0.3360 -0.7966
vn -0.3755 0.8998 -0.2223
vn 0.7065 -0.3256 0.6284
vn 0.5359 0.3192 -0.7816
vn 0.0197 -0.9983 -0.0556
vn -0.8155 0.2832 -0.5048
vn -0.0919 -0.9956 -0.0201
vn 0.6064 -0.7628 -0.2244
vn 0.3993 0.9034 0.1567
vn 0.7863 -0.4173 0.4557
vn -0.1303 -0.9904 0.0471
vn 0.4385 0.8944 0.0884
vn -0.8562 0.2894 -0.4279
vn 0.8164 -0.4073 0.4095
vn -0.8992 0.4372 0.0173
vn 0.8419 -0.5397 -0.0016
vn -0.2520 -0.9260 0.2811
vn 0.5749 0.7536 -0.3186
vn -0.2751 -0.8517 0.4460
vn 0.5125 0.6125 -0.6018
vn -0.7871 0.5786 0.2138
vn 0.6986 -0.6821 -0.2160
vn 0.2926 0.8866 0.3583
vn -0.1166 -0.8266 0.5505
vn -0.7605 0.1850 0.6224
vn -0.7340 0.3038 -0.6074
vn 0.2263 0.8313 0.5077
vn -0.0097 -0.9743 -0.2248
vn 0.5574 -0.4688 0.6853
vn -0.5741 0.3882 -0.7209
vn 0.1502 -0.9169 -0.3698
vn 0.3188 -0.6030 0.7313
vn -0.3363 0.5219 -0.7839
vn -0.0558 0.7303 0.6809
vn -0.0128 0.6095 -0.7926
vn -0.3581 0.6442 0.6758
vn 0.2874 -0.8785 -0.3815
vn -0.0078 -0.6986 0.7154
vn -0.8524 -0.3279 -0.4074
vn -0.6866 -0.3239 -0.6509
vn -0.4839 -0.6453 -0.5911
vn 0.0452 -0.2727 0.9610
vn -0.1618 0.2231 -0.9613
vn 0.4636 0.8806 -0.0982
vn -0.2666 -0.9542 -0.1359
vn 0.3017 0.9530 -0.0286
vn 0.2165 -0.0781 -0.9732
vn -0.2539 -0.0366 0.9665
vn 0.1443 0.9717 -0.1871
vn 0.4722 -0.1726 -0.8644
vn -0.5414 0.0415 0.8397
vn -0.1235 -0.9922 0.0159
vn -0.7805 -0.2715 -0.5631
vn 0.8595 -0.4526 0.2374
vn 0.7445 0.4219 -0.5174
vn -0.1987 -0.7677 0.6093
vn -0.8621 0.4320 -0.2649
vn -0.6738 0.6912 0.2612
vn 0.6446 0.3487 -0.6803
vn 0.6531 -0.6971 -0.2957
vn -0.2870 -0.8190 0.4969
vn -0.7374 -0.3218 -0.5938
vn -0.3262 0.0657 -0.9430
vn 0.8190 0.0051 0.5738
vn -0.9982 -0.0579 0.0164
vn 0.7948 0.1041 -0.5979
vn -0.2904 -0.0957 0.9521
vn -0.3206 0.0522 -0.9458
vn -0.9994 -0.0287 0.0211
vn -0.2943 -0.0584 0.9539
vn -0.2185 -0.8814 -0.4188
vn -0.2415 -0.8551 0.4588
vn 0.3502 -0.8250 -0.4435
vn -0.5221 -0.8492 0.0791
vn -0.4282 0.8530 -0.2985
vn -0.7382 0.2155 0.6392
vn 0.9422 -0.3301 0.0568
vn 0.7209 -0.6603 -0.2106
vn -0.3092 -0.0308 0.9505
vn 0.7902 0.0525 -0.6105
vn -0.9996 -0.0210 0.0196
vn 0.8226 0.0151 0.5685
vn -0.3112 0.0298 -0.9499
vn 0.9990 0.0392 -0.0218
vn 0.8781 0.4779 -0.0223
vn 0.6334 0.5285 0.5652
vn 0.2571 0.9628 -0.0830
vn -0.0247 0.9827 0.1834
vn 0.2379 0.9349 0.2632
s off
f 1/1/1 2/2/1 7/3/1 6/4/1
f 4/5/2 5/6/2 10/7/2 9/8/2
f 2/2/3 3/9/3 8/10/3 7/3/3
f 5/6/4 1/11/4 6/12/4 10/7/4
f 3/9/5 4/5/5 9/8/5 8/10/5
f 7/3/6 8/10/6 13/13/6 12/14/6
f 10/7/7 6/12/7 11/15/7 15/16/7
f 8/10/8 9/8/8 14/17/8 13/13/8
f 6/4/9 7/3/9 12/14/9 11/18/9
f 9/8/10 10/7/10 15/16/10 14/17/10
f 13/13/11 14/17/11 19/19/11 55/20/11
f 11/21/12 12/22/12 40/23/12 39/24/12
f 14/17/13 21/25/13 20/26/13 19/19/13
f 38/27/14 11/21/14 39/24/14 42/28/14
f 21/29/15 14/30/15 23/31/15 25/32/15
f 11/33/16 21/34/16 25/35/16 22/36/16
f 21/25/17 11/37/17 16/38/17 20/26/17
f 14/30/18 15/39/18 24/40/18 23/31/18
f 15/39/19 11/33/19 22/36/19 24/40/19
f 22/36/20 25/35/20 29/41/20 26/42/20
f 23/31/21 24/40/21 28/43/21 27/44/21
f 25/32/22 23/31/22 27/44/22 29/45/22
f 24/40/23 22/36/23 26/42/23 28/43/23
f 29/45/24 27/44/24 31/46/24 33/47/24
f 28/43/25 26/42/25 30/48/25 32/49/25
f 26/42/26 29/41/26 33/50/26 30/48/26
f 27/44/27 28/43/27 32/49/27 31/46/27
f 30/48/28 33/50/28 37/51/28 34/52/28
f 31/46/29 32/49/29 36/53/29 35/54/29
f 33/47/30 31/46/30 35/54/30 37/55/30
f 32/49/31 30/48/31 34/52/31 36/53/31
f 12/22/32 13/56/32 41/57/32 40/23/32
f 38/58/33 17/59/33 16/60/33 11/61/33
f 38/58/34 13/13/34 55/20/34 17/59/34
f 13/56/35 38/62/35 42/63/35 41/57/35
f 40/23/36 41/57/36 45/64/36 44/65/36
f 42/28/37 39/24/37 43/66/37 46/67/37
f 39/24/38 40/23/38 44/65/38 43/66/38
f 41/57/39 42/63/39 46/68/39 45/64/39
f 46/67/40 43/66/40 47/69/40 50/70/40
f 43/66/41 44/65/41 48/71/41 47/69/41
f 45/64/42 46/68/42 50/72/42 49/73/42
f 44/65/43 45/64/43 49/73/43 48/71/43
f 49/73/44 50/72/44 54/74/44 53/75/44
f 48/71/45 49/73/45 53/75/45 52/76/45
f 50/70/46 47/69/46 51/77/46 54/78/46
f 47/69/47 48/71/47 52/76/47 51/77/47
f 51/79/48 52/80/48 53/81/48 54/82/48
f 36/83/49 34/84/49 37/85/49 35/86/49
f 56/87/50 57/88/50 19/89/50 17/90/50
f 17/90/51 55/91/51 59/92/51 56/87/51
f 57/93/52 58/94/52 19/95/52
f 55/91/53 19/95/53 58/94/53 59/92/53
f 57/88/54 56/87/54 60/96/54 61/97/54
f 59/92/55 58/94/55 62/98/55 63/99/55
f 58/94/56 57/93/56 61/100/56 62/98/56
f 56/87/57 59/92/57 63/99/57 60/96/57
f 63/99/58 62/98/58 66/101/58 67/102/58
f 62/98/59 61/100/59 65/103/59 66/101/59
f 60/96/60 63/99/60 67/102/60 64/104/60
f 61/97/61 60/96/61 64/104/61 65/105/61
f 65/106/62 64/107/62 67/108/62 66/109/62
f 20/26/63 16/38/63 68/110/63 71/111/63
f 19/19/64 20/26/64 71/111/64 70/112/64
f 16/60/65 17/59/65 69/113/65 68/114/65
f 70/112/66 69/113/66 17/59/66 19/19/66
f 69/113/67 70/112/67 73/115/67 72/116/67
f 70/112/68 71/111/68 74/117/68 73/115/68
f 71/111/69 68/110/69 18/118/69 74/117/69
f 68/114/70 69/113/70 72/116/70 18/119/70
f 74/120/71 18/121/71 72/122/71 73/123/71
f 79/124/72 75/125/72 80/126/72 84/127/72
f 77/128/73 78/129/73 83/130/73 82/131/73
f 75/132/74 76/133/74 81/134/74 80/135/74
f 78/129/75 79/124/75 84/127/75 83/130/75
f 76/133/76 77/128/76 82/131/76 81/134/76
f 92/136/77 93/137/77 86/138/77 88/139/77
f 93/140/78 96/141/78 85/142/78 86/138/78
f 96/141/79 94/143/79 87/144/79 85/142/79
f 88/139/80 86/138/80 2/145/80
f 1/1/81 88/146/81 2/2/81
f 5/6/82 88/147/82 1/11/82
f 86/138/83 85/142/83 2/145/83
f 4/5/84 3/9/84 90/148/84 91/149/84
f 3/9/85 2/2/85 89/150/85 90/148/85
f 90/151/86 89/152/86 91/153/86
f 91/153/87 89/152/87 2/154/87 4/155/87
f 81/134/88 82/131/88 94/143/88 96/141/88
f 83/130/89 84/127/89 92/136/89 95/156/89
f 80/135/90 81/134/90 96/141/90 93/140/90
f 82/131/91 83/130/91 95/156/91 94/143/91
f 84/127/92 80/126/92 93/137/92 92/136/92
f 92/157/93 88/158/93 87/159/93 94/160/93
f 95/161/94 92/157/94 94/160/94
f 5/162/95 4/155/95 2/154/95
f 87/159/96 88/158/96 2/163/96
f 85/164/97 87/159/97 2/163/97
f 88/165/98 5/162/98 2/154/98
