# Blender v2.78 (sub 0) OBJ File: 'Low_Poly_Trees_Pack.blend'
# www.blender.org
g Acacia_Tree_NoLeaves_crk_s_02
v -0.511068 0.220599 -0.473386
v -0.432824 0.079763 -0.547559
v -0.485722 -0.028774 -0.463517
v -0.582630 0.021646 -0.394275
v -0.882371 0.220996 -0.792705
v -0.838006 0.128997 -0.824017
v -0.893138 0.048974 -0.779641
v -0.971575 0.091515 -0.720903
v -0.951666 0.187880 -0.738825
v -1.321880 0.265176 -1.312183
v -1.308016 0.201108 -1.351424
v -1.340444 0.143014 -1.313614
v -1.374470 0.170653 -1.251120
v -1.357509 0.239405 -1.260902
v -1.945920 0.056778 -1.649403
v -1.929362 0.024116 -1.683715
v -1.949741 -0.021219 -1.672626
v -1.978865 -0.016634 -1.631643
v -1.971647 0.029306 -1.624671
v -2.335614 0.114336 -1.937985
v -2.309742 0.083127 -1.968812
v -2.331467 0.039468 -1.969018
v -2.370913 0.044121 -1.938418
v -2.344105 0.079214 -1.908253
v -2.619683 0.371059 -2.467974
v -2.619453 0.330349 -2.478435
v -2.652050 0.350018 -2.452093
v -2.368994 0.097949 -1.972339
v -2.666774 0.252346 -1.647585
v -2.675245 0.204952 -1.625888
v -2.652497 0.232453 -1.599721
v -3.254024 0.502657 -1.550635
v -3.260938 0.489079 -1.545824
v -3.254863 0.497291 -1.535799
v -3.271080 0.398874 -3.014454
v -3.272908 0.382817 -3.020477
v -3.279462 0.386320 -3.006896
v -0.855741 0.181225 -0.559990
v 0.136418 0.000001 -0.141953
v -0.089515 0.000001 -0.173147
v -0.188999 0.000001 0.032089
v -0.024551 0.000001 0.190125
v 0.176568 0.000001 0.082562
v 0.030945 2.926071 0.045767
v -0.214852 2.333078 0.011300
v -0.155926 2.333078 -0.110265
v 0.001680 2.333078 0.041196
v -0.117447 2.333078 0.104908
v -0.022101 2.333078 -0.091788
v -0.096826 3.265148 -0.042683
v 0.076884 3.494690 0.008569
v -0.011268 3.491480 0.122747
v 0.102638 3.462786 0.110525
v -0.012664 3.513527 0.023804
v 0.265716 3.859777 0.189494
v 0.172464 3.864424 0.269134
v 0.259713 3.826256 0.268301
v 0.196105 3.895171 0.199033
v 0.444611 4.185789 0.447905
v 0.362563 4.171130 0.445173
v 0.420796 4.124581 0.447362
v 0.390331 4.195794 0.410376
v 0.495060 4.224865 0.928608
v 0.446805 4.234859 0.929874
v 0.468017 4.187982 0.955219
v 0.406514 4.616746 1.340237
v 0.379098 4.622777 1.338517
v 0.386804 4.602958 1.360747
v 0.139884 0.375919 0.077157
v -0.123882 0.375919 0.040740
v 0.110915 0.375919 -0.084836
v -0.052101 0.375919 -0.107343
v -0.005228 0.375919 0.154767
v -0.017241 1.354498 -0.099343
v 0.022812 1.354498 0.124632
v 0.146812 1.354498 0.058314
v -0.078578 1.354498 0.027195
v 0.122058 1.354498 -0.080110
v 0.422749 4.140159 0.368624
v 0.636557 4.462104 0.108377
v 0.658983 4.428999 0.097008
v 0.605841 4.445988 0.064469
v 0.645867 4.417474 0.045470
v 0.794466 4.925627 -0.171164
v 0.824504 4.914164 -0.177876
v 0.776282 4.907842 -0.202641
v 0.811578 4.889449 -0.217236
v 0.507525 5.064884 1.399393
v 0.486970 5.070346 1.401856
v 0.499188 5.068215 1.421721
v 0.562029 5.282200 -0.396972
v 0.576928 5.261540 -0.418385
v 0.547410 5.261663 -0.420945
v 0.810249 4.964262 -0.211274
v 0.991562 5.396775 -0.049533
v 1.031725 5.382478 -0.055389
v 1.020402 5.411344 -0.091217
v 1.040125 5.900852 -0.065236
v 1.059355 5.900026 -0.067536
v 1.048744 5.896601 -0.087052
v 0.580765 5.634597 -0.416428
v 0.587171 5.630532 -0.423786
v 0.577267 5.633509 -0.425762
v -0.147630 2.840436 -0.122351
v 0.005264 2.926952 -0.097922
v -0.204633 2.846123 0.013147
v -0.134068 2.931728 0.079633
vt 0.4424 0.7598
vt 0.4464 0.7600
vt 0.4504 0.7764
vt 0.4470 0.7764
vt 0.4384 0.7616
vt 0.4434 0.7770
vt 0.4607 0.7600
vt 0.4667 0.7606
vt 0.4611 0.7768
vt 0.4571 0.7767
vt 0.4486 0.8020
vt 0.4459 0.8020
vt 0.4514 0.8012
vt 0.4589 0.8017
vt 0.4563 0.8008
vt 0.4538 0.7766
vt 0.4540 0.8007
vt 0.4498 0.8286
vt 0.4482 0.8279
vt 0.4530 0.8279
vt 0.4516 0.8286
vt 0.4562 0.8279
vt 0.4545 0.8274
vt 0.4313 0.7627
vt 0.4330 0.7627
vt 0.4340 0.7791
vt 0.4322 0.7790
vt 0.4362 0.7625
vt 0.4379 0.7627
vt 0.4374 0.7789
vt 0.4355 0.7790
vt 0.4346 0.7626
vt 0.4347 0.7785
vt 0.4296 0.7625
vt 0.4303 0.7790
vt 0.4340 0.7790
vt 0.4344 0.7785
vt 0.4344 0.7785
vt 0.4319 0.8053
vt 0.4294 0.8054
vt 0.4340 0.7790
vt 0.4348 0.7799
vt 0.4371 0.8050
vt 0.4346 0.8055
vt 0.4344 0.7784
vt 0.4344 0.7784
vt 0.4340 0.7790
vt 0.4340 0.7790
vt 0.4344 0.7785
vt 0.4344 0.7784
vt 0.4621 0.8433
vt 0.4615 0.8433
vt 0.4618 0.8429
vt 0.4386 0.8661
vt 0.4373 0.8662
vt 0.4362 0.8665
vt 0.4349 0.8662
vt 0.4530 0.7696
vt 0.4610 0.8475
vt 0.4606 0.8480
vt 0.4604 0.8475
vt 0.8144 0.7020
vt 0.8094 0.6848
vt 0.8319 0.6880
vt 0.8255 0.6526
vt 0.8292 0.7007
vt 0.4076 0.8457
vt 0.4074 0.8595
vt 0.4015 0.8595
vt 0.4028 0.8457
vt 0.3981 0.8459
vt 0.3982 0.8575
vt 0.3931 0.8574
vt 0.3934 0.8459
vt 0.4124 0.8458
vt 0.4124 0.8595
vt 0.4171 0.8459
vt 0.4176 0.8574
vt 0.4175 0.8116
vt 0.4127 0.8113
vt 0.4029 0.8112
vt 0.3979 0.8114
vt 0.4078 0.8112
vt 0.3930 0.8116
vt 0.4764 0.7806
vt 0.4838 0.7702
vt 0.4801 0.7903
vt 0.4765 0.7900
vt 0.4793 0.8057
vt 0.4765 0.8059
vt 0.4895 0.7723
vt 0.4842 0.7911
vt 0.4686 0.7702
vt 0.4734 0.7904
vt 0.4638 0.7724
vt 0.4696 0.7912
vt 0.4709 0.8063
vt 0.4738 0.8059
vt 0.4747 0.8186
vt 0.4721 0.8197
vt 0.4826 0.8061
vt 0.4420 0.8509
vt 0.4425 0.8334
vt 0.4432 0.8517
vt 0.4769 0.8202
vt 0.4813 0.8196
vt 0.4787 0.8197
vt 0.4447 0.8504
vt 0.4442 0.8336
vt 0.4460 0.8332
vt 0.4469 0.8506
vt 0.4423 0.8110
vt 0.4433 0.8111
vt 0.4405 0.8332
vt 0.4413 0.8113
vt 0.4444 0.8112
vt 0.4093 0.7626
vt 0.4084 0.7760
vt 0.4024 0.7759
vt 0.4016 0.7625
vt 0.3940 0.7630
vt 0.3964 0.7763
vt 0.3907 0.7772
vt 0.3863 0.7647
vt 0.4169 0.7631
vt 0.4144 0.7764
vt 0.4246 0.7647
vt 0.4202 0.7773
vt 0.4225 0.8041
vt 0.4244 0.8040
vt 0.4233 0.8241
vt 0.4220 0.8243
vt 0.4205 0.7880
vt 0.4230 0.7876
vt 0.4207 0.8043
vt 0.4251 0.7874
vt 0.4268 0.7858
vt 0.4258 0.8037
vt 0.4276 0.8044
vt 0.4261 0.8241
vt 0.4244 0.8242
vt 0.4284 0.7881
vt 0.4264 0.8424
vt 0.4253 0.8422
vt 0.4250 0.8228
vt 0.4268 0.8230
vt 0.4250 0.8252
vt 0.4205 0.8239
vt 0.4418 0.7938
vt 0.4425 0.7938
vt 0.4570 0.8447
vt 0.4565 0.8454
vt 0.4562 0.8447
vt 0.4410 0.7937
vt 0.4433 0.7936
vt 0.4274 0.8416
vt 0.4278 0.8554
vt 0.4275 0.8556
vt 0.4243 0.8421
vt 0.4619 0.8102
vt 0.4636 0.8096
vt 0.4650 0.8282
vt 0.4641 0.8282
vt 0.4619 0.7927
vt 0.4635 0.7916
vt 0.4646 0.7916
vt 0.4666 0.7928
vt 0.4665 0.8101
vt 0.4651 0.8093
vt 0.4641 0.8492
vt 0.4633 0.8492
vt 0.4636 0.8486
vt 0.4665 0.8280
vt 0.4657 0.8282
vt 0.4587 0.8426
vt 0.4585 0.8429
vt 0.4583 0.8426
vt 0.4272 0.8556
vt 0.4267 0.8555
vt 0.4399 0.8507
vt 0.8026 0.6454
vt 0.8168 0.6497
vt 0.8168 0.6627
vt 0.8032 0.6960
vt 0.7941 0.6611
vn -0.3367 -0.9188 0.2061
vn 0.3734 -0.6588 -0.6532
vn 0.5247 0.5649 -0.6369
vn 0.5176 -0.6554 -0.5500
vn -0.3893 -0.9065 0.1635
vn 0.6816 0.4971 -0.5370
vn -0.7473 0.2688 0.6077
vn -0.2404 0.9293 0.2805
vn 0.5173 -0.5671 -0.6409
vn -0.5483 0.1358 0.8252
vn 0.0684 -0.9399 0.3345
vn 0.2057 0.6325 -0.7467
vn -0.4355 0.8638 0.2535
vn -0.1459 -0.9892 -0.0121
vn 0.4547 0.7658 -0.4547
vn -0.3514 0.7165 0.6026
vn 0.5339 -0.3469 -0.7711
vn -0.6171 -0.0986 0.7807
vn -0.7625 -0.2497 -0.5969
vn 0.8157 -0.1368 -0.5621
vn -0.4800 0.6276 0.6130
vn -0.4717 -0.8503 -0.2336
vn 0.7347 0.6751 -0.0668
vn -0.2829 -0.3215 -0.9037
vn 0.6627 0.6334 0.3996
vn -0.7504 0.3400 0.5669
vn 0.4131 0.8720 0.2627
vn 0.2427 -0.7480 0.6177
vn -0.0008 0.9029 -0.4299
vn -0.8651 0.4854 0.1266
vn -0.1928 -0.6173 0.7627
vn -0.3754 0.7917 0.4820
vn -0.2843 -0.9236 0.2573
vn 0.6350 0.1989 -0.7465
vn -0.7182 -0.2425 0.6522
vn -0.1837 0.9652 0.1860
vn -0.8369 0.2732 -0.4744
vn 0.7104 0.0242 0.7034
vn -0.2658 0.4372 0.8592
vn 0.6450 0.2459 0.7236
vn 0.3250 0.0130 0.9456
vn -0.9114 0.0124 -0.4113
vn 0.9833 -0.0471 -0.1759
vn -0.6929 0.0112 0.7210
vn 0.1543 -0.0213 -0.9878
vn 0.1368 0.0083 -0.9906
vn -0.6904 -0.0845 0.7184
vn 0.9745 0.1415 -0.1743
vn -0.8921 -0.1313 -0.4324
vn 0.4699 0.0851 0.8786
vn -0.9560 0.2183 0.1958
vn -0.8911 0.4532 0.0243
vn 0.1471 -0.1226 0.9815
vn 0.0196 0.2037 -0.9788
vn 0.9720 -0.0927 -0.2159
vn 0.8953 -0.4360 -0.0907
vn 0.9168 -0.3327 -0.2206
vn 0.0052 0.4282 -0.9037
vn -0.0585 -0.3579 0.9319
vn -0.6540 0.7564 0.0142
vn 0.0531 0.5347 -0.8434
vn -0.2340 -0.3875 0.8917
vn -0.8128 0.5748 -0.0947
vn 0.8829 -0.4680 -0.0387
vn 0.2243 0.9694 -0.0997
vn 0.1587 0.7305 -0.6642
vn -0.9406 -0.3115 0.1351
vn 0.8207 -0.3121 0.4786
vn 0.4708 0.0586 0.8803
vn -0.8877 0.1637 -0.4303
vn 0.9801 0.0931 -0.1753
vn -0.6892 0.1029 0.7172
vn 0.1351 0.1578 -0.9782
vn 0.4716 0.0136 0.8817
vn -0.8993 0.0356 -0.4359
vn 0.9843 -0.0104 -0.1760
vn -0.6923 0.0420 0.7204
vn 0.1368 0.0032 -0.9906
vn -0.8194 0.4778 0.3166
vn -0.7487 -0.1849 -0.6366
vn 0.8730 -0.0738 0.4822
vn 0.9181 -0.3803 -0.1114
vn -0.4233 0.8224 0.3801
vn 0.7313 -0.6769 -0.0837
vn -0.7991 -0.1560 0.5806
vn 0.9408 0.0435 -0.3363
vn -0.5267 -0.2681 -0.8067
vn 0.5228 0.2902 0.8016
vn 0.0162 0.1318 -0.9911
vn 0.2508 0.9667 -0.0505
vn -0.8638 0.1426 0.4832
vn 0.8359 -0.2589 0.4840
vn 0.7989 -0.0114 0.6014
vn -0.3105 -0.6164 -0.7237
vn 0.5393 0.6970 0.4726
vn -0.8640 0.0613 -0.4997
vn -0.8772 0.4397 -0.1925
vn 0.7097 0.0685 -0.7012
vn 0.8052 -0.2214 -0.5501
vn 0.0692 -0.2787 0.9579
vn 0.0203 0.9828 -0.1835
vn 0.9195 -0.0544 -0.3894
vn 0.1402 0.0165 0.9900
vn 0.3216 0.9191 -0.2277
vn -0.8956 0.0748 0.4386
vn 0.1127 -0.0198 -0.9934
vn -0.7749 -0.6058 0.1802
vn -0.6158 0.7327 -0.2898
vn -0.7811 -0.1363 -0.6093
vn -0.4181 0.8380 -0.3507
s off
f 3/1/1 4/2/1 8/3/1 7/4/1
f 2/5/2 3/1/2 7/4/2 6/6/2
f 1/7/3 2/8/3 6/9/3 5/10/3
f 6/6/4 7/4/4 12/11/4 11/12/4
f 7/4/5 8/3/5 13/13/5 12/11/5
f 5/10/6 6/9/6 11/14/6 10/15/6
f 8/3/7 9/16/7 14/17/7 13/13/7
f 9/16/8 5/10/8 10/15/8 14/17/8
f 11/12/9 12/11/9 17/18/9 16/19/9
f 13/13/10 14/17/10 19/20/10 18/21/10
f 12/11/11 13/13/11 18/21/11 17/18/11
f 10/15/12 11/14/12 16/22/12 15/23/12
f 14/17/13 10/15/13 15/23/13 19/20/13
f 17/24/14 18/25/14 23/26/14 22/27/14
f 15/28/15 16/29/15 21/30/15 20/31/15
f 19/32/16 15/28/16 20/31/16 24/33/16
f 16/34/17 17/24/17 22/27/17 21/35/17
f 18/25/18 19/32/18 24/33/18 23/26/18
f 28/36/19 23/26/19 30/37/19 29/38/19
f 21/35/20 22/27/20 26/39/20 25/40/20
f 23/41/21 28/42/21 25/43/21 27/44/21
f 22/27/22 23/41/22 27/44/22 26/39/22
f 20/31/23 21/30/23 25/43/23
f 29/38/24 30/37/24 33/45/24 32/46/24
f 24/47/25 20/48/25 29/38/25 31/49/25
f 28/42/26 20/31/26 25/43/26
f 31/49/27 29/38/27 32/46/27 34/50/27
f 23/26/28 24/33/28 31/49/28 30/37/28
f 20/48/29 28/36/29 29/38/29
f 32/51/30 33/52/30 34/53/30
f 30/37/31 31/49/31 34/50/31 33/45/31
f 27/44/32 25/43/32 35/54/32 37/55/32
f 26/39/33 27/44/33 37/55/33 36/56/33
f 25/40/34 26/39/34 36/56/34 35/57/34
f 4/2/35 38/58/35 9/16/35 8/3/35
f 1/7/36 5/10/36 9/16/36 38/58/36
f 35/59/37 36/60/37 37/61/37
f 2/62/38 1/63/38 4/64/38
f 38/65/39 4/64/39 1/63/39
f 3/66/40 2/62/40 4/64/40
f 47/67/41 44/68/41 107/69/41 48/70/41
f 45/71/42 106/72/42 104/73/42 46/74/42
f 49/75/43 105/76/43 44/68/43 47/67/43
f 48/70/44 107/69/44 106/72/44 45/71/44
f 46/77/45 104/78/45 105/76/45 49/75/45
f 74/79/46 46/77/46 49/75/46 78/80/46
f 75/81/47 48/70/47 45/71/47 77/82/47
f 78/80/48 49/75/48 47/67/48 76/83/48
f 77/82/49 45/71/49 46/74/49 74/84/49
f 76/83/50 47/67/50 48/70/50 75/81/50
f 50/85/51 107/86/51 52/87/51 54/88/51
f 54/88/52 52/87/52 56/89/52 58/90/52
f 107/86/53 44/91/53 53/92/53 52/87/53
f 105/93/54 50/85/54 54/88/54 51/94/54
f 44/95/55 105/93/55 51/94/55 53/96/55
f 57/97/56 55/98/56 79/99/56 61/100/56
f 53/96/57 51/94/57 55/98/57 57/97/57
f 51/94/58 54/88/58 58/90/58 55/98/58
f 52/87/59 53/92/59 57/101/59 56/89/59
f 60/102/60 64/103/60 62/104/60
f 55/98/61 58/90/61 62/105/61 79/99/61
f 56/89/62 57/101/62 61/106/62 60/107/62
f 58/90/63 56/89/63 60/107/63 62/105/63
f 59/108/64 63/109/64 65/110/64 61/111/64
f 62/104/65 64/103/65 63/109/65 59/108/65
f 63/109/66 64/103/66 67/112/66 66/113/66
f 64/103/67 65/114/67 68/115/67 67/112/67
f 65/110/68 63/109/68 66/113/68 68/116/68
f 43/117/69 69/118/69 73/119/69 42/120/69
f 41/121/70 70/122/70 72/123/70 40/124/70
f 39/125/71 71/126/71 69/118/71 43/117/71
f 42/120/72 73/119/72 70/122/72 41/121/72
f 40/127/73 72/128/73 71/126/73 39/125/73
f 69/118/74 76/83/74 75/81/74 73/119/74
f 70/122/75 77/82/75 74/84/75 72/123/75
f 71/126/76 78/80/76 76/83/76 69/118/76
f 73/119/77 75/81/77 77/82/77 70/122/77
f 72/128/78 74/79/78 78/80/78 71/126/78
f 82/129/79 80/130/79 84/131/79 86/132/79
f 79/133/80 62/134/80 82/129/80 83/135/80
f 59/136/81 61/137/81 81/138/81 80/130/81
f 81/138/82 83/139/82 87/140/82 85/141/82
f 62/134/83 59/136/83 80/130/83 82/129/83
f 61/137/84 79/142/84 83/139/84 81/138/84
f 86/132/85 84/131/85 91/143/85 93/144/85
f 85/145/86 87/146/86 94/147/86
f 83/135/87 82/129/87 86/132/87 87/148/87
f 80/130/88 81/138/88 85/141/88 84/131/88
f 66/113/89 67/112/89 89/149/89 88/150/89
f 90/151/90 88/152/90 89/153/90
f 67/112/91 68/115/91 90/154/91 89/149/91
f 68/116/92 66/113/92 88/150/92 90/155/92
f 91/143/93 92/156/93 102/157/93 101/158/93
f 87/148/94 86/132/94 93/144/94 92/159/94
f 84/131/95 94/147/95 92/156/95 91/143/95
f 97/160/96 95/161/96 98/162/96 100/163/96
f 94/164/97 84/165/97 95/161/97 97/160/97
f 94/147/98 87/146/98 92/156/98
f 85/166/99 94/167/99 97/168/99 96/169/99
f 84/165/100 85/166/100 96/169/100 95/161/100
f 100/170/101 98/171/101 99/172/101
f 96/169/102 97/168/102 100/173/102 99/174/102
f 95/161/103 96/169/103 99/174/103 98/162/103
f 102/175/104 103/176/104 101/177/104
f 93/144/105 91/143/105 101/158/105 103/178/105
f 92/159/106 93/144/106 103/178/106 102/179/106
f 61/180/107 65/114/107 64/103/107 60/102/107
f 104/181/108 106/182/108 107/183/108
f 107/183/109 50/184/109 105/185/109
f 105/185/110 104/181/110 107/183/110
