# Blender v2.78 (sub 0) OBJ File: 'Low_Poly_Trees_Pack.blend'
# www.blender.org
g Acacia_Tree_NoLeaves_l_03
v 0.434982 0.000000 -0.328693
v -0.165354 0.000000 -0.382724
v -0.402255 0.000000 0.171532
v 0.051668 0.000000 0.568112
v 0.569109 0.000000 0.258956
v 0.284258 0.781876 -0.225397
v 0.383493 0.781876 0.209384
v -0.335182 0.781876 0.144702
v 0.000658 0.781876 0.438117
v -0.159908 0.781876 -0.265372
v -0.074468 1.733575 -0.278549
v -0.532107 1.807451 -0.346168
v -0.654113 1.811240 0.048565
v -0.408965 1.885997 0.312521
v -0.115707 1.953843 0.059825
v -1.415014 3.857695 -0.130481
v -1.727338 3.709709 -0.179652
v -1.777306 3.561991 0.085216
v -1.596321 3.777520 0.288913
v -1.345716 3.786848 0.136139
v -2.219109 5.317610 -0.176771
v -2.387679 5.091515 -0.210321
v -2.535811 5.196009 -0.021503
v -2.372095 5.303778 0.121100
v -2.215661 5.339223 0.013481
v -1.948711 3.905545 0.087226
v -2.307121 3.923113 0.051970
v -2.352016 3.857976 0.189823
v -2.269273 3.978026 0.285306
v -2.227170 4.039111 0.169626
v -3.380938 4.730908 0.062465
v -3.439620 4.689200 0.187918
v -3.331466 4.766068 0.274811
v -3.276434 4.805181 0.169538
v -5.030087 5.295152 0.038036
v -5.052881 5.240515 0.141195
v -4.982868 5.331622 0.213684
v -4.989495 5.392451 0.126081
v -6.864727 5.309286 0.245032
v -6.831952 5.364665 0.347848
v -6.810087 5.421635 0.252699
v -8.064140 5.838295 0.156294
v -8.024033 5.866529 0.240513
v -7.987444 5.900751 0.162398
v -8.915731 6.709263 0.169553
v -8.899056 6.720477 0.202921
v -8.883134 6.735370 0.168927
v -3.075683 6.715849 -0.303979
v -3.233308 6.639488 -0.329631
v -3.294436 6.622814 -0.194155
v -3.176479 6.691785 -0.092808
v -3.069099 6.721966 -0.169867
v -1.532490 4.102340 0.129259
v -1.228974 4.469446 0.168597
v -1.255081 4.387539 0.475745
v -1.127220 4.418329 0.301036
v -1.373563 4.456864 0.321411
v -1.250717 5.717104 0.554512
v -1.350886 5.634361 0.817833
v -1.197351 5.699740 0.705013
v -1.415483 5.660535 0.640265
v -1.221735 6.896863 1.097745
v -1.321958 6.803562 1.283706
v -1.190014 6.854686 1.212671
v -1.358395 6.832275 1.136432
v -0.907180 8.110700 2.393814
v -0.890221 8.064105 2.502014
v -0.791125 8.102503 2.448663
v -0.838926 9.616865 3.529376
v -0.775797 9.641918 3.491854
v -0.854161 9.642338 3.462148
v -3.841038 8.237443 -0.361019
v -3.930979 8.194828 -0.375179
v -3.962466 8.179326 -0.297833
v -3.876147 8.221615 -0.261615
v -4.121702 9.384293 -0.309602
v -4.183550 9.390349 -0.350061
v -4.204774 9.392159 -0.295347
v -4.276618 10.590775 -0.149889
v -4.296465 10.591242 -0.172086
v -4.307208 10.590076 -0.148272
v -2.550528 5.402068 -0.228801
v -2.593523 5.434327 -0.619739
v -2.718297 5.321416 -0.609649
v -2.805550 5.386484 -0.500855
v -2.682988 5.527551 -0.502257
v -3.354826 6.268150 -1.561849
v -3.467551 6.147180 -1.533390
v -3.553380 6.200770 -1.429886
v -3.403008 6.307227 -1.398605
v -4.219326 7.565502 -2.182905
v -4.323207 7.543625 -2.070985
v -4.205778 7.626757 -2.046557
v -4.754448 8.884534 -2.185213
v -4.814829 8.861847 -2.110731
v -4.726466 8.899091 -2.091349
v -5.292790 9.951831 -2.568749
v -5.325593 9.953646 -2.540528
v -5.289999 9.980981 -2.536007
v -3.568995 6.303145 -1.626400
v -4.045914 6.108746 -1.821585
v -4.069181 6.097294 -1.729118
v -4.048176 6.203474 -1.749676
v -5.061494 6.493219 -2.125757
v -5.080347 6.475873 -2.066838
v -5.051088 6.545885 -2.073824
v -5.875035 7.458945 -2.082769
v -5.881234 7.450703 -2.053184
v -5.850758 7.469333 -2.050623
v -1.223135 10.635474 3.821867
v -1.192443 10.647540 3.805434
v -1.231859 10.647752 3.790491
v -1.334401 6.962598 1.242267
v -2.488311 7.454485 0.776170
v -2.511740 7.424399 0.897611
v -2.558284 7.348513 0.802772
v -3.552824 8.886228 0.831048
v -3.576620 8.873332 0.839475
v -3.556287 8.889592 0.856554
v -5.146209 5.342971 0.221625
v -5.206465 6.115612 1.438081
v -5.162841 6.190302 1.350490
v -5.306707 6.159215 1.351669
v -5.758643 7.237922 2.060284
v -5.740026 7.269798 2.022903
v -5.801424 7.256531 2.023407
v -0.324670 2.201488 -0.269459
v 0.060906 2.479539 -0.666445
v -0.185561 2.425987 -0.752899
v 0.001446 2.548949 -0.459988
v -0.225793 2.622599 -0.577926
v 0.131178 4.798281 -1.252768
v -0.039957 4.732732 -1.323951
v 0.088177 4.793299 -1.092010
v -0.093767 4.824722 -1.159069
v 0.258689 6.678104 -2.025455
v 0.115267 6.761625 -2.107090
v 0.244984 6.823825 -1.944535
v 0.124566 6.891139 -2.019221
v 0.677845 8.626144 -2.982220
v 0.609078 8.663667 -2.976234
v 0.666640 8.661189 -2.917722
v 0.763988 9.938183 -3.336005
v 0.737424 9.928733 -3.330825
v 0.756221 9.932182 -3.305103
v 0.287424 6.869353 -2.112496
v 1.142802 6.884249 -1.913857
v 1.117300 6.977239 -1.866339
v 1.117975 7.001446 -1.978894
v 1.958304 7.475224 -1.627258
v 1.896175 7.506752 -1.578844
v 1.859510 7.500247 -1.661730
v 2.102119 8.281922 -1.679182
v 2.082168 8.301646 -1.663318
v 2.065169 8.293519 -1.692240
vt 0.5795 0.8257
vt 0.5945 0.8208
vt 0.5994 0.8298
vt 0.5810 0.8365
vt 0.5566 0.8274
vt 0.5582 0.8016
vt 0.5625 0.8010
vt 0.5621 0.8279
vt 0.5679 0.8278
vt 0.5663 0.8003
vt 0.5700 0.8002
vt 0.5737 0.8271
vt 0.5749 0.8050
vt 0.5785 0.7997
vt 0.5690 0.8396
vt 0.5752 0.8387
vt 0.5565 0.8376
vt 0.5627 0.8390
vt 0.5617 0.7899
vt 0.5656 0.7907
vt 0.5351 0.8626
vt 0.5288 0.8620
vt 0.5321 0.8519
vt 0.5355 0.8514
vt 0.5586 0.7914
vt 0.5690 0.7895
vt 0.5732 0.7894
vt 0.5763 0.7898
vt 0.5738 0.7991
vt 0.5154 0.7670
vt 0.5177 0.7630
vt 0.5174 0.7713
vt 0.5148 0.7712
vt 0.6008 0.8410
vt 0.6008 0.8454
vt 0.5811 0.8455
vt 0.5795 0.8422
vt 0.5566 0.7767
vt 0.5556 0.7736
vt 0.5646 0.7729
vt 0.5649 0.7752
vt 0.6008 0.8534
vt 0.5970 0.8562
vt 0.5790 0.8538
vt 0.5789 0.8514
vt 0.5974 0.8491
vt 0.5792 0.8483
vt 0.5107 0.7717
vt 0.5129 0.7714
vt 0.5132 0.7882
vt 0.5114 0.7890
vt 0.5089 0.7638
vt 0.5129 0.7624
vt 0.5147 0.7878
vt 0.5209 0.7640
vt 0.5194 0.7718
vt 0.5166 0.7886
vt 0.5184 0.7891
vt 0.5174 0.8111
vt 0.5159 0.8110
vt 0.5141 0.8109
vt 0.5462 0.8543
vt 0.5457 0.8530
vt 0.5646 0.8536
vt 0.5214 0.8343
vt 0.5128 0.8105
vt 0.5111 0.8110
vt 0.5170 0.8352
vt 0.5185 0.8346
vt 0.5224 0.8515
vt 0.5212 0.8520
vt 0.5199 0.8342
vt 0.5236 0.8511
vt 0.5117 0.8123
vt 0.5136 0.8132
vt 0.5143 0.8110
vt 0.5249 0.8513
vt 0.5270 0.8667
vt 0.5264 0.8667
vt 0.5962 0.8339
vt 0.5962 0.8344
vt 0.5957 0.8341
vt 0.5259 0.8668
vt 0.5255 0.8670
vt 0.5765 0.8455
vt 0.5583 0.8455
vt 0.5585 0.8433
vt 0.5583 0.8513
vt 0.5582 0.8496
vt 0.5300 0.7666
vt 0.5316 0.7702
vt 0.5312 0.7746
vt 0.5287 0.7744
vt 0.5793 0.8398
vt 0.5585 0.8415
vt 0.5583 0.8474
vt 0.5817 0.7725
vt 0.5822 0.7745
vt 0.5972 0.8378
vt 0.5588 0.7705
vt 0.5555 0.7674
vt 0.5648 0.7671
vt 0.5646 0.7699
vt 0.5814 0.7702
vt 0.5564 0.7639
vt 0.5649 0.7642
vt 0.5818 0.7679
vt 0.5822 0.7654
vt 0.5980 0.7665
vt 0.5977 0.7684
vt 0.5972 0.7703
vt 0.6015 0.8009
vt 0.6028 0.8000
vt 0.6053 0.8231
vt 0.6039 0.8238
vt 0.6046 0.8013
vt 0.5979 0.7722
vt 0.5980 0.7738
vt 0.6066 0.8477
vt 0.6055 0.8478
vt 0.5483 0.7651
vt 0.5499 0.7659
vt 0.5510 0.7829
vt 0.6065 0.8003
vt 0.6086 0.8005
vt 0.6083 0.8236
vt 0.6067 0.8235
vt 0.6076 0.8478
vt 0.6077 0.8624
vt 0.6073 0.8625
vt 0.6196 0.7830
vt 0.6195 0.7848
vt 0.5955 0.7833
vt 0.5955 0.7818
vt 0.6189 0.7890
vt 0.6186 0.7911
vt 0.5950 0.7875
vt 0.5951 0.7860
vt 0.6192 0.7871
vt 0.5953 0.7847
vt 0.6186 0.7928
vt 0.5680 0.7838
vt 0.5679 0.7829
vt 0.5682 0.7815
vt 0.5681 0.7823
vt 0.5582 0.7814
vt 0.5582 0.7812
vt 0.5581 0.7816
vt 0.5582 0.7819
vt 0.5970 0.8346
vt 0.5970 0.8348
vt 0.5968 0.8347
vt 0.5243 0.7743
vt 0.5266 0.7743
vt 0.5267 0.7929
vt 0.5246 0.7934
vt 0.5227 0.7664
vt 0.5265 0.7667
vt 0.5220 0.7747
vt 0.5225 0.7931
vt 0.5205 0.7705
vt 0.5898 0.7937
vt 0.5929 0.7943
vt 0.5931 0.8011
vt 0.5918 0.8015
vt 0.5285 0.7932
vt 0.5308 0.7931
vt 0.5294 0.8133
vt 0.5276 0.8130
vt 0.5240 0.8132
vt 0.5258 0.8129
vt 0.5257 0.8315
vt 0.5244 0.8313
vt 0.5267 0.7953
vt 0.5270 0.8314
vt 0.5283 0.8314
vt 0.5270 0.8489
vt 0.5264 0.8488
vt 0.5958 0.8334
vt 0.5963 0.8331
vt 0.5963 0.8337
vt 0.5259 0.8487
vt 0.5254 0.8489
vt 0.5878 0.7941
vt 0.5907 0.8021
vt 0.5972 0.8138
vt 0.5963 0.8139
vt 0.5855 0.7935
vt 0.5860 0.7966
vt 0.5893 0.8026
vt 0.5949 0.8147
vt 0.5956 0.8142
vt 0.6017 0.8291
vt 0.6011 0.8292
vt 0.5968 0.8338
vt 0.5971 0.8337
vt 0.5971 0.8342
vt 0.6021 0.8289
vt 0.6025 0.8287
vt 0.6068 0.8624
vt 0.5961 0.8345
vt 0.5957 0.8347
vt 0.5956 0.8342
vt 0.6086 0.8477
vt 0.6082 0.8624
vt 0.5527 0.7830
vt 0.5543 0.7827
vt 0.5544 0.8065
vt 0.5540 0.8065
vt 0.5519 0.7647
vt 0.5535 0.7657
vt 0.5536 0.8066
vt 0.5469 0.7663
vt 0.5494 0.7831
vt 0.5952 0.8340
vt 0.5955 0.8341
vt 0.5952 0.8344
vt 0.5532 0.8066
vt 0.5647 0.8587
vt 0.5648 0.8568
vt 0.5823 0.8561
vt 0.5822 0.8568
vt 0.5458 0.8592
vt 0.5467 0.8569
vt 0.5447 0.8556
vt 0.5648 0.8551
vt 0.5956 0.8349
vt 0.5963 0.8346
vt 0.5963 0.8352
vt 0.5822 0.8547
vt 0.5821 0.8554
vt 0.5419 0.8502
vt 0.5385 0.8517
vt 0.5389 0.8204
vt 0.5415 0.8199
vt 0.5402 0.8625
vt 0.5293 0.8499
vt 0.5315 0.8196
vt 0.5341 0.8202
vt 0.5430 0.8573
vt 0.5266 0.8564
vt 0.5367 0.8196
vt 0.5371 0.7916
vt 0.5389 0.7902
vt 0.5408 0.7891
vt 0.5487 0.8026
vt 0.5504 0.8039
vt 0.5461 0.8314
vt 0.5465 0.8014
vt 0.5465 0.8043
vt 0.5350 0.7903
vt 0.5333 0.7890
vt 0.5430 0.8313
vt 0.5441 0.8311
vt 0.5439 0.8495
vt 0.5434 0.8496
vt 0.5430 0.8035
vt 0.5449 0.8026
vt 0.5451 0.8311
vt 0.5949 0.8352
vt 0.5949 0.8345
vt 0.5954 0.8349
vt 0.5442 0.8497
vt 0.5446 0.8496
vt 0.5553 0.8495
vt 0.5530 0.8501
vt 0.5522 0.8374
vt 0.5538 0.8375
vt 0.5520 0.8243
vt 0.5530 0.8247
vt 0.5504 0.8505
vt 0.5473 0.8495
vt 0.5488 0.8375
vt 0.5506 0.8377
vt 0.5522 0.8155
vt 0.5525 0.8156
vt 0.5499 0.8247
vt 0.5512 0.8243
vt 0.5967 0.8332
vt 0.5971 0.8327
vt 0.5975 0.8332
vt 0.5514 0.8156
vt 0.5518 0.8157
vn 0.9527 0.2124 -0.2174
vn 0.5313 0.3076 0.7894
vn -0.8872 -0.3265 -0.3262
vn 0.9192 0.3551 -0.1701
vn -0.6735 -0.1549 0.7228
vn -0.9176 0.0653 -0.3922
vn 0.5051 0.1735 0.8454
vn 0.0887 0.1472 -0.9851
vn -0.6557 0.0820 0.7505
vn 0.1165 -0.0242 -0.9929
vn -0.5662 -0.3619 0.7406
vn 0.1651 -0.5392 -0.8258
vn 0.5323 0.3345 0.7777
vn -0.8082 -0.4952 -0.3188
vn 0.8268 0.5553 -0.0893
vn 0.0982 0.7903 -0.6048
vn 0.1364 0.0435 -0.9897
vn 0.8956 -0.1330 -0.4245
vn 0.4621 0.3285 0.8237
vn -0.8223 -0.4047 -0.4000
vn -0.3378 -0.4421 0.8309
vn -0.5503 -0.1863 0.8139
vn -0.1663 -0.5802 0.7973
vn 0.5008 0.6840 0.5304
vn -0.4673 -0.7314 -0.4967
vn 0.3394 0.9160 0.2140
vn -0.2791 -0.8453 -0.4557
vn 0.2332 0.6377 -0.7342
vn 0.3849 0.5242 -0.7597
vn -0.5282 -0.6939 -0.4894
vn 0.9866 0.1592 0.0359
vn -0.0606 -0.8765 -0.4776
vn 0.2678 0.8264 0.4954
vn -0.2130 -0.5441 0.8115
vn -0.3776 -0.7816 0.4965
vn 0.2892 0.8034 0.5204
vn 0.0237 -0.7536 0.6569
vn -0.0763 0.4426 -0.8935
vn 0.0222 0.0344 -0.9992
vn 0.0822 0.0168 -0.9965
vn -0.6238 0.7800 0.0496
vn 0.5763 0.6143 0.5390
vn -0.6151 -0.6086 0.5012
vn 0.1570 0.0062 -0.9876
vn 0.4610 0.3901 0.7971
vn -0.6319 0.5340 0.5617
vn 0.8532 0.5168 -0.0706
vn -0.5648 -0.2038 0.7997
vn 0.8809 0.1700 -0.4418
vn 0.8756 0.4792 -0.0616
vn -0.8463 0.2551 0.4676
vn -0.6260 0.2004 -0.7536
vn -0.5524 0.5260 -0.6467
vn 0.6089 -0.4580 0.6476
vn 0.6015 -0.3166 0.7334
vn -0.9555 -0.0814 0.2834
vn -0.8828 -0.1679 0.4387
vn 0.7311 -0.1485 0.6659
vn 0.7555 0.3505 -0.5536
vn -0.3420 0.7259 -0.5968
vn -0.4776 0.3698 -0.7970
vn 0.9533 0.1115 -0.2806
vn 0.3593 0.5233 -0.7727
vn -0.1875 0.2339 0.9540
vn 0.5351 -0.6747 0.5084
vn -0.9859 -0.0700 0.1522
vn -0.9242 -0.3730 0.0818
vn 0.8774 0.4629 0.1264
vn -0.4972 -0.1448 0.8555
vn 0.1424 0.0347 -0.9892
vn 0.4933 0.3151 0.8108
vn -0.8249 -0.3820 -0.4167
vn -0.1272 -0.0071 0.9919
vn 0.9116 0.2072 0.3550
vn -0.9066 -0.1819 -0.3807
vn 0.6079 0.1762 -0.7742
vn -0.9258 -0.0321 -0.3766
vn 0.1305 -0.1117 0.9851
vn -0.0207 0.9990 0.0395
vn 0.3823 -0.5147 -0.7674
vn -0.7843 -0.4663 -0.4092
vn 0.5810 -0.4561 -0.6741
vn 0.7208 0.6926 0.0270
vn -0.5795 -0.8150 0.0060
vn 0.3930 0.9190 0.0326
vn -0.4028 0.6650 0.6289
vn -0.3522 0.2311 0.9069
vn -0.4777 0.4345 0.7636
vn -0.6596 -0.7414 -0.1233
vn 0.8912 0.3580 -0.2787
vn 0.8566 0.5108 -0.0721
vn 0.2325 -0.2895 -0.9285
vn -0.2969 0.2265 0.9277
vn -0.1854 -0.0404 0.9818
vn -0.6867 -0.2781 -0.6716
vn -0.4532 0.6846 -0.5709
vn -0.5783 -0.5183 -0.6300
vn 0.8859 0.3276 -0.3284
vn 0.0107 -0.9764 0.2159
vn -0.6942 -0.5765 -0.4309
vn -0.2345 0.2151 0.9480
vn 0.4021 -0.5474 -0.7340
vn 0.2059 0.3943 -0.8956
vn 0.5808 0.5180 -0.6280
vn 0.4242 0.5687 -0.7047
vn -0.2701 -0.9293 -0.2519
vn -0.5251 0.8419 0.1245
vn -0.7186 -0.5869 -0.3731
vn 0.0456 0.0191 0.9988
vn 0.3264 0.4020 -0.8555
vn -0.1450 0.9071 0.3952
vn 0.5136 -0.0532 0.8564
vn -0.2116 -0.1190 -0.9701
vn -0.9578 0.0665 0.2796
vn 0.0587 -0.4182 -0.9065
vn 0.7839 0.5696 0.2470
vn -0.4843 -0.8126 0.3243
vn 0.3691 0.9271 0.0646
vn -0.5173 0.8365 -0.1806
vn -0.5945 -0.4092 0.6922
vn 0.5641 -0.4678 0.6804
vn -0.1113 0.4819 -0.8691
vn -0.3778 0.7378 -0.5594
vn 0.0500 0.8514 0.5221
vn 0.7572 -0.4785 0.4446
vn -0.5530 -0.7154 0.4270
vn -0.1658 0.7896 0.5908
vn 0.8423 0.1235 0.5248
vn -0.6602 -0.5856 0.4704
vn -0.3406 0.2630 0.9027
vn 0.0901 0.1425 -0.9857
vn 0.9777 -0.0454 0.2049
vn -0.9653 -0.0072 -0.2610
vn -0.2643 0.6425 0.7193
vn -0.9400 0.3184 -0.1226
vn 0.9758 0.0195 0.2176
vn -0.2825 0.3919 0.8756
vn 0.9642 0.0369 0.2626
vn 0.4020 -0.2399 -0.8837
vn -0.9707 0.1786 -0.1606
vn 0.2429 -0.4318 -0.8686
vn 0.3899 -0.3648 -0.8455
vn -0.9824 0.0149 -0.1861
vn -0.7185 0.2515 0.6485
vn -0.3791 0.5085 0.7731
vn 0.9699 -0.1068 0.2190
vn -0.3153 0.9433 0.1039
vn 0.9802 -0.0099 0.1979
vn -0.1840 -0.2463 -0.9516
vn -0.1870 0.9597 0.2098
vn 0.0875 -0.4448 -0.8914
vn -0.5994 0.7798 0.1810
vn 0.2109 -0.4344 -0.8757
vn 0.0018 -0.4736 0.8807
vn -0.8858 0.2469 0.3929
vn 0.4698 -0.1942 -0.8611
vn 0.0996 -0.5623 0.8209
vn 0.4101 0.7864 -0.4620
vn 0.3007 -0.1145 -0.9468
vn 0.5945 -0.0541 0.8023
vn 0.3148 0.1025 -0.9436
s off
f 6/1/1 7/2/1 5/3/1 1/4/1
f 7/5/2 15/6/2 14/7/2 9/8/2
f 8/9/3 13/10/3 12/11/3 10/12/3
f 11/13/4 15/14/4 7/2/4 6/1/4
f 9/8/5 14/7/5 13/10/5 8/9/5
f 3/15/6 8/9/6 10/12/6 2/16/6
f 5/17/7 7/5/7 9/8/7 4/18/7
f 2/16/8 10/12/8 6/1/8 1/4/8
f 4/18/9 9/8/9 8/9/9 3/15/9
f 10/12/10 12/11/10 11/13/10 6/1/10
f 13/10/11 14/7/11 19/19/11 18/20/11
f 11/21/12 12/22/12 129/23/12 128/24/12
f 14/7/13 15/6/13 20/25/13 19/19/13
f 12/11/14 13/10/14 18/20/14 17/26/14
f 16/27/15 20/28/15 15/14/15 127/29/15
f 26/30/16 17/31/16 27/32/16 30/33/16
f 16/34/17 17/35/17 22/36/17 21/37/17
f 20/38/18 16/39/18 54/40/18 56/41/18
f 19/42/19 53/43/19 25/44/19 24/45/19
f 17/35/20 26/46/20 23/47/20 22/36/20
f 28/48/21 29/49/21 33/50/21 32/51/21
f 26/46/22 19/42/22 24/45/22 23/47/22
f 18/52/23 19/53/23 29/49/23 28/48/23
f 29/49/24 30/33/24 34/54/24 33/50/24
f 17/31/25 18/55/25 28/56/25 27/32/25
f 19/53/26 26/30/26 30/33/26 29/49/26
f 31/57/27 32/58/27 36/59/27 35/60/27
f 34/54/28 31/57/28 35/60/28 38/61/28
f 30/33/29 27/32/29 31/57/29 34/54/29
f 27/32/30 28/56/30 32/58/30 31/57/30
f 37/62/31 38/63/31 122/64/31
f 35/60/32 36/59/32 39/65/32
f 33/50/33 34/54/33 38/61/33 37/66/33
f 32/51/34 33/50/34 37/66/34 36/67/34
f 39/68/35 40/69/35 43/70/35 42/71/35
f 40/69/36 41/72/36 44/73/36 43/70/36
f 36/74/37 120/75/37 40/69/37 39/68/37
f 38/76/38 35/60/38 39/65/38 41/72/38
f 44/73/39 42/77/39 45/78/39 47/79/39
f 41/72/40 39/65/40 42/77/40 44/73/40
f 45/80/41 46/81/41 47/82/41
f 43/70/42 44/73/42 47/79/42 46/83/42
f 42/71/43 43/70/43 46/83/43 45/84/43
f 21/37/44 82/85/44 49/86/44 48/87/44
f 24/45/45 25/44/45 52/88/45 51/89/45
f 23/90/46 82/91/46 86/92/46 85/93/46
f 25/94/47 21/37/47 48/87/47 52/95/47
f 23/47/48 24/45/48 51/89/48 50/96/48
f 56/41/49 54/40/49 58/97/49 60/98/49
f 53/99/50 16/34/50 21/37/50 25/94/50
f 53/100/51 19/101/51 55/102/51 57/103/51
f 54/40/52 57/103/52 61/104/52 58/97/52
f 16/39/53 53/100/53 57/103/53 54/40/53
f 19/101/54 20/105/54 56/106/54 55/102/54
f 59/107/55 60/108/55 64/109/55 63/110/55
f 61/104/56 59/107/56 63/110/56 65/111/56
f 57/103/57 55/102/57 59/107/57 61/104/57
f 55/102/58 56/106/58 60/108/58 59/107/58
f 64/112/59 62/113/59 66/114/59 68/115/59
f 62/113/60 113/116/60 66/114/60
f 58/97/61 61/104/61 65/111/61 62/117/61
f 60/98/62 58/97/62 62/117/62 64/118/62
f 71/119/63 70/120/63 68/115/63 66/114/63
f 63/121/64 113/122/64 115/123/64
f 63/124/65 64/125/65 68/126/65 67/127/65
f 69/128/66 71/119/66 66/114/66 67/127/66
f 71/119/67 69/128/67 110/129/67 112/130/67
f 52/131/68 48/132/68 72/133/68 75/134/68
f 50/135/69 51/136/69 75/137/69 74/138/69
f 48/132/70 49/139/70 73/140/70 72/133/70
f 51/136/71 52/141/71 75/137/71
f 49/139/72 50/135/72 74/138/72 73/140/72
f 75/137/73 76/142/73 78/143/73 74/138/73
f 72/133/74 76/144/74 75/134/74
f 74/138/75 78/143/75 77/145/75 73/140/75
f 76/144/76 77/145/76 80/146/76 79/147/76
f 77/145/77 78/143/77 81/148/77 80/146/77
f 78/143/78 76/142/78 79/149/78 81/148/78
f 80/150/79 81/151/79 79/152/79
f 83/153/80 84/154/80 88/155/80 87/156/80
f 82/85/81 23/47/81 50/96/81 49/86/81
f 21/157/82 22/158/82 84/154/82 83/153/82
f 86/159/83 83/153/83 87/156/83 90/160/83
f 22/158/84 23/90/84 85/93/84 84/154/84
f 82/161/85 21/157/85 83/153/85 86/159/85
f 89/162/86 100/163/86 103/164/86 102/165/86
f 89/166/87 90/167/87 93/168/87 92/169/87
f 85/93/88 86/92/88 90/167/88 89/166/88
f 84/154/89 85/93/89 89/166/89 88/155/89
f 93/170/90 91/171/90 94/172/90 96/173/90
f 90/160/91 87/156/91 91/171/91 93/170/91
f 87/156/92 100/174/92 91/171/92
f 95/175/93 96/176/93 99/177/93 98/178/93
f 92/169/94 93/168/94 96/176/94 95/175/94
f 91/171/95 92/169/95 95/175/95 94/172/95
f 97/179/96 98/180/96 99/181/96
f 94/172/97 95/175/97 98/178/97 97/182/97
f 96/173/98 94/172/98 97/182/98 99/183/98
f 88/184/99 89/162/99 102/165/99 101/185/99
f 100/174/100 89/166/100 92/169/100 91/171/100
f 102/165/101 103/164/101 106/186/101 105/187/101
f 87/188/102 88/184/102 101/185/102
f 100/189/103 87/188/103 101/185/103 103/190/103
f 106/191/104 104/192/104 107/193/104 109/194/104
f 103/190/105 101/185/105 104/192/105 106/191/105
f 101/185/106 102/165/106 105/187/106 104/192/106
f 107/195/107 108/196/107 109/197/107
f 104/192/108 105/187/108 108/198/108 107/193/108
f 105/187/109 106/186/109 109/199/109 108/198/109
f 112/130/110 111/200/110 70/120/110 71/119/110
f 112/201/111 110/202/111 111/203/111
f 69/128/112 70/204/112 111/205/112 110/129/112
f 114/206/113 116/207/113 118/208/113 117/209/113
f 113/116/114 63/124/114 67/127/114 66/114/114
f 62/210/115 65/211/115 116/207/115 114/206/115
f 115/123/116 114/206/116 117/209/116 119/212/116
f 65/213/117 63/121/117 115/123/117 116/214/117
f 113/122/118 62/210/118 114/206/118 115/123/118
f 119/215/119 117/216/119 118/217/119
f 118/218/120 116/214/120 115/123/120 119/212/120
f 67/127/121 68/126/121 70/204/121 69/128/121
f 122/219/122 123/220/122 126/221/122 125/222/122
f 38/223/123 120/224/123 123/220/123 122/219/123
f 120/75/124 38/76/124 41/72/124 40/69/124
f 36/225/125 37/62/125 122/64/125 121/226/125
f 120/224/126 36/225/126 121/226/126 123/220/126
f 126/227/127 124/228/127 125/229/127
f 121/226/128 122/64/128 125/230/128 124/231/128
f 123/220/129 121/226/129 124/231/129 126/221/129
f 131/232/130 130/233/130 134/234/130 135/235/130
f 127/29/131 12/11/131 17/26/131 16/27/131
f 15/236/132 11/21/132 128/24/132 130/233/132
f 129/23/133 131/237/133 135/238/133 133/239/133
f 127/240/134 15/236/134 130/233/134 131/232/134
f 12/22/135 127/241/135 131/237/135 129/23/135
f 134/234/136 132/242/136 136/243/136 138/244/136
f 135/235/137 134/234/137 138/244/137 139/245/137
f 130/233/138 128/24/138 132/242/138 134/234/138
f 128/24/139 129/23/139 133/239/139 132/242/139
f 137/246/140 139/247/140 141/248/140
f 136/249/141 137/246/141 146/250/141
f 132/242/142 133/239/142 137/251/142 136/243/142
f 133/239/143 135/238/143 139/252/143 137/251/143
f 141/253/144 142/254/144 145/255/144 144/256/144
f 139/257/145 138/258/145 142/254/145 141/253/145
f 138/258/146 146/250/146 140/259/146 142/254/146
f 144/260/147 145/261/147 143/262/147
f 142/254/148 140/259/148 143/263/148 145/255/148
f 140/259/149 141/248/149 144/264/149 143/263/149
f 146/265/150 138/266/150 148/267/150 149/268/150
f 146/250/151 137/246/151 141/248/151 140/259/151
f 149/268/152 148/267/152 151/269/152 152/270/152
f 136/271/153 146/272/153 149/273/153 147/274/153
f 138/266/154 136/271/154 147/274/154 148/267/154
f 152/270/155 151/269/155 154/275/155 155/276/155
f 147/274/156 149/273/156 152/277/156 150/278/156
f 148/267/157 147/274/157 150/278/157 151/269/157
f 155/279/158 154/280/158 153/281/158
f 150/278/159 152/277/159 155/282/159 153/283/159
f 151/269/160 150/278/160 153/283/160 154/275/160
f 73/140/161 77/145/161 76/144/161 72/133/161
