# Blender v2.78 (sub 0) OBJ File: 'Low_Poly_Trees_Pack.blend'
# www.blender.org
g Acacia_Tree_m_05
v -0.241321 6.519943 -0.002738
v -1.914435 6.845000 -0.122005
v -0.144572 6.942532 -1.295827
v 1.645995 6.667307 -0.807494
v 0.825296 6.902659 0.822161
v -1.305775 6.844883 1.322443
v -0.918361 7.958992 -0.706195
v 1.061278 7.871284 -1.084293
v 1.359832 7.717908 0.289115
v -0.074619 8.040826 1.373486
v -1.483558 7.910253 0.615702
v 0.093846 8.594024 -0.043295
v -0.213022 6.574358 -0.846775
v -1.265332 6.497003 -0.079950
v -1.115979 6.863402 -0.839497
v -1.922683 6.734392 0.666420
v -0.869417 6.601248 0.821147
v 0.878076 6.578569 -0.462693
v 0.885436 6.673381 -1.293822
v 0.367295 6.600623 0.503683
v 1.459640 6.674559 0.111941
v -0.253214 6.817397 1.290679
v -1.877628 7.387451 0.279141
v -1.657777 7.377292 1.191291
v -0.613270 7.440824 -1.112454
v -1.627526 7.305171 -0.507798
v 1.626952 7.225617 -1.209294
v 0.531339 7.429062 -1.303265
v 1.348189 7.315844 0.724697
v 1.855404 7.191000 -0.335979
v -0.727486 7.417318 1.652740
v 0.401655 7.511148 1.306517
v -1.412235 7.911493 -0.099057
v 0.032738 7.942369 -0.884211
v 1.548813 7.859782 -0.595964
v 0.755299 7.918834 0.593258
v -0.946809 8.061760 1.245739
v -0.463214 8.403077 -0.399828
v -0.869605 8.446333 0.401820
v 0.652208 8.302644 -0.588470
v 0.896313 8.266047 0.066640
v 0.025552 8.525538 0.745499
v -0.072000 0.000000 -0.124708
v -0.140853 0.000000 0.029939
v -0.015052 0.000000 0.143211
v 0.131551 0.000000 0.058570
v 0.096355 0.000000 -0.107013
v -0.119354 1.153648 -0.006181
v -0.184197 1.137254 0.140949
v -0.064432 1.143516 0.249290
v 0.074429 1.163781 0.169118
v 0.040485 1.170043 0.011228
v -0.110055 2.443057 -0.082616
v -0.169185 2.454887 0.051047
v -0.060409 2.450368 0.149278
v 0.065948 2.435746 0.076325
v 0.035265 2.431228 -0.066993
v -0.072517 3.874605 -0.138524
v -0.123809 3.893705 -0.020790
v -0.027903 3.886410 0.066420
v 0.082662 3.862801 0.002585
v 0.055089 3.855506 -0.124077
v -0.095948 6.150225 -0.061226
v -0.146117 6.091030 0.044594
v -0.057434 6.157145 0.118026
v 0.040032 6.143304 0.061754
v 0.012407 6.070492 -0.046927
v 0.023661 6.262045 -0.052035
v 0.470643 6.279467 -0.329133
v 0.525655 6.271728 -0.240216
v 0.505443 6.228363 -0.303193
v 0.474128 6.335163 -0.284281
v 0.825333 6.730164 -0.548656
v 0.899817 6.719763 -0.476127
v 0.888339 6.708406 -0.553271
v 0.811475 6.746889 -0.480695
v 0.959121 7.669764 -0.630303
v -0.125948 6.279969 0.034307
v -0.570795 6.218410 0.178633
v -0.572156 6.164071 0.232760
v -0.513708 6.212453 0.285519
v -0.523951 6.286327 0.205871
v -1.103871 6.803357 0.386754
v -1.122916 6.789388 0.436865
v -1.067600 6.812808 0.465949
v -1.049425 6.834055 0.392275
v -1.307352 7.798780 0.361482
v -0.175097 6.531721 -0.478420
v -0.241783 6.469378 -0.483544
v -0.258510 6.541715 -0.430281
v 0.389202 7.738814 0.899056
v 0.272593 6.772686 0.797807
v 0.319254 6.763688 0.772985
v 0.304705 6.798460 0.704534
v 0.233280 6.810791 0.743115
v 0.068584 6.403795 0.406290
v 0.156939 6.393209 0.355298
v 0.166607 6.323085 0.422499
v 0.109046 6.331259 0.455732
v -0.313829 7.022573 -0.670405
v -0.366813 7.000975 -0.682480
v -0.361384 7.028428 -0.631175
v -0.437760 7.707686 -0.707705
vt 0.3473 0.5365
vt 0.3424 0.5462
vt 0.3349 0.5365
vt 0.3388 0.5541
vt 0.3469 0.5551
vt 0.2818 0.5365
vt 0.2967 0.5365
vt 0.2879 0.5469
vt 0.2770 0.5481
vt 0.2670 0.5380
vt 0.3407 0.5618
vt 0.3237 0.5417
vt 0.3321 0.5485
vt 0.3209 0.5537
vt 0.2908 0.5545
vt 0.2975 0.5501
vt 0.2961 0.5589
vt 0.2761 0.5575
vt 0.2838 0.5552
vt 0.2817 0.5631
vt 0.3557 0.5574
vt 0.3663 0.5542
vt 0.3611 0.5671
vt 0.3318 0.5588
vt 0.3086 0.5455
vt 0.3186 0.5565
vt 0.3050 0.5570
vt 0.2890 0.5608
vt 0.2724 0.5662
vt 0.3496 0.5643
vt 0.3237 0.5657
vt 0.3341 0.5688
vt 0.3257 0.5778
vt 0.3008 0.5642
vt 0.3092 0.5670
vt 0.3001 0.5721
vt 0.2874 0.5672
vt 0.2940 0.5661
vt 0.2908 0.5739
vt 0.2713 0.5787
vt 0.2814 0.5722
vt 0.2845 0.5855
vt 0.3430 0.5697
vt 0.3510 0.5746
vt 0.3395 0.5798
vt 0.2990 0.5941
vt 0.2969 0.5812
vt 0.3513 0.5872
vt 0.3610 0.5794
vt 0.3099 0.5812
vt 0.3209 0.5712
vt 0.2589 0.5704
vt 0.2644 0.5545
vt 0.3547 0.5463
vt 0.5506 0.7631
vt 0.5533 0.7633
vt 0.5528 0.7817
vt 0.5502 0.7819
vt 0.5453 0.7635
vt 0.5480 0.7633
vt 0.5476 0.7817
vt 0.5451 0.7815
vt 0.5399 0.7631
vt 0.5426 0.7634
vt 0.5426 0.7814
vt 0.5401 0.7816
vt 0.5519 0.8025
vt 0.5496 0.8022
vt 0.5473 0.8021
vt 0.5450 0.8022
vt 0.5426 0.8023
vt 0.5403 0.8023
vt 0.5427 0.8253
vt 0.5406 0.8250
vt 0.5489 0.8248
vt 0.5468 0.8249
vt 0.5448 0.8252
vt 0.5509 0.8252
vt 0.5444 0.8616
vt 0.5426 0.8605
vt 0.5497 0.8615
vt 0.5480 0.8602
vt 0.5462 0.8614
vt 0.5407 0.8614
vt 0.5805 0.7631
vt 0.5827 0.7635
vt 0.5817 0.7720
vt 0.5800 0.7719
vt 0.5557 0.7631
vt 0.5574 0.7644
vt 0.5572 0.7718
vt 0.5560 0.7719
vt 0.5533 0.7647
vt 0.5547 0.7719
vt 0.5623 0.7647
vt 0.5649 0.7635
vt 0.5646 0.7731
vt 0.5632 0.7733
vt 0.5693 0.7631
vt 0.5706 0.7655
vt 0.5681 0.7737
vt 0.5670 0.7734
vt 0.5672 0.7639
vt 0.5659 0.7731
vt 0.5674 0.7828
vt 0.5663 0.7829
vt 0.5653 0.7829
vt 0.5642 0.7828
vt 0.5628 0.7827
vt 0.5645 0.7974
vt 0.5651 0.7972
vt 0.5653 0.7973
vt 0.5648 0.7973
vt 0.5597 0.7639
vt 0.5586 0.7718
vt 0.5623 0.7651
vt 0.5602 0.7723
vt 0.5572 0.7843
vt 0.5561 0.7842
vt 0.5553 0.7841
vt 0.5544 0.7841
vt 0.5583 0.7845
vt 0.5533 0.8001
vt 0.5536 0.8001
vt 0.5542 0.8001
vt 0.5539 0.8000
vt 0.5724 0.7700
vt 0.5741 0.7703
vt 0.5732 0.7798
vt 0.5718 0.7795
vt 0.5726 0.7631
vt 0.5748 0.7636
vt 0.5715 0.7957
vt 0.5706 0.7794
vt 0.5711 0.7957
vt 0.5745 0.7798
vt 0.5718 0.7958
vt 0.5755 0.7707
vt 0.5709 0.7702
vt 0.5766 0.7707
vt 0.5753 0.7798
vt 0.5721 0.7957
vt 0.5767 0.7646
vt 0.5783 0.7647
vt 0.5706 0.7640
vt 0.5783 0.7631
vt 0.5786 0.7714
vt 0.5852 0.7637
vt 0.5832 0.7718
vt 0.5819 0.7814
vt 0.5810 0.7814
vt 0.5800 0.7815
vt 0.5791 0.7813
vt 0.5803 0.7926
vt 0.5797 0.7925
vt 0.5799 0.7926
vn 0.0271 -0.9976 -0.0634
vn -0.4622 -0.8775 -0.1279
vn 0.0262 -0.9976 -0.0634
vn 0.0785 -0.9948 0.0642
vn 0.0306 -0.9921 0.1213
vn -0.9977 0.0683 -0.0009
vn -0.4202 -0.0621 -0.9053
vn 0.4612 -0.5079 -0.7276
vn 0.5407 -0.5301 0.6532
vn 0.0127 -0.5093 0.8605
vn -0.9010 0.2958 -0.3173
vn -0.1589 0.2059 -0.9656
vn 0.9548 -0.1515 -0.2558
vn 0.4351 -0.3555 0.8272
vn -0.4408 -0.0710 0.8948
vn -0.5165 0.7773 -0.3593
vn -0.0854 0.7157 -0.6931
vn 0.6846 0.6826 0.2556
vn 0.5998 0.5843 0.5467
vn -0.5668 0.7680 0.2981
vn -0.1167 0.9903 0.0759
vn -0.2275 0.8938 0.3865
vn -0.0692 0.7950 0.6026
vn 0.3628 0.9251 0.1117
vn 0.6000 0.5846 0.5461
vn 0.5020 0.6541 0.5657
vn 0.3876 0.9171 -0.0932
vn 0.4392 0.8911 -0.1139
vn 0.4060 0.8285 -0.3858
vn -0.0004 0.8818 -0.4717
vn -0.0593 0.6923 -0.7192
vn -0.1289 0.6493 -0.7496
vn -0.2236 0.9606 -0.1652
vn -0.5123 0.8036 -0.3031
vn -0.6692 0.7402 -0.0655
vn -0.6514 0.6448 0.3999
vn -0.4247 0.3757 0.8237
vn -0.1135 0.5026 0.8570
vn 0.6330 0.4938 0.5961
vn 0.4991 0.6222 0.6031
vn 0.5063 0.6269 0.5922
vn 0.8371 0.4834 0.2562
vn 0.9158 0.3318 -0.2264
vn 0.5698 0.6065 -0.5545
vn -0.1219 0.5539 -0.8236
vn -0.1322 0.5466 -0.8269
vn -0.1434 0.5570 -0.8181
vn -0.6603 0.5667 -0.4928
vn -0.8108 0.4966 -0.3096
vn -0.7721 0.6309 -0.0760
vn 0.2805 0.1321 0.9507
vn 0.3022 -0.3059 0.9028
vn 0.3927 -0.3897 0.8330
vn 0.8542 0.3705 0.3648
vn 0.8551 -0.2728 0.4410
vn 0.8491 -0.4980 0.1760
vn 0.1371 0.3027 -0.9432
vn 0.0910 0.0302 -0.9954
vn -0.0015 -0.0132 -0.9999
vn -0.5164 0.3190 -0.7947
vn -0.5160 0.0448 -0.8554
vn -0.6514 -0.2060 -0.7302
vn -0.8408 0.4997 0.2082
vn -0.9514 0.2030 0.2316
vn -0.6758 -0.2787 0.6824
vn -0.0106 -0.9030 0.4296
vn 0.0829 -0.9421 0.3249
vn 0.2596 -0.8590 0.4413
vn 0.2284 -0.8489 0.4766
vn 0.0930 -0.9931 0.0718
vn 0.1298 -0.9909 0.0341
vn 0.0640 -0.9916 -0.1126
vn 0.0436 -0.9927 -0.1129
vn -0.1932 -0.7441 -0.6395
vn -0.1641 -0.9358 0.3120
vn -0.1491 -0.9727 0.1780
vn 0.0141 -0.9940 0.1088
vn -0.2396 -0.7325 -0.6371
vn -0.2739 -0.8441 -0.4610
vn -0.3959 -0.7942 -0.4610
vn 0.1006 0.1053 -0.9893
vn 0.5022 -0.0578 0.8628
vn -0.9144 0.0044 -0.4049
vn 0.9759 0.0676 -0.2073
vn -0.6654 -0.0975 0.7401
vn 0.1083 -0.0603 -0.9923
vn 0.4979 0.0655 0.8648
vn -0.9146 -0.0173 -0.4041
vn 0.9777 -0.0089 -0.2098
vn -0.6697 0.0584 0.7404
vn -0.9152 0.0085 -0.4030
vn 0.9775 -0.0222 -0.2099
vn -0.6684 0.0580 0.7415
vn 0.1048 -0.0414 -0.9936
vn 0.5043 0.0385 0.8627
vn -0.6513 -0.0274 0.7584
vn 0.1357 0.0361 -0.9901
vn 0.4982 -0.0132 0.8670
vn -0.9109 0.0039 -0.4127
vn 0.9713 0.0256 -0.2365
vn 0.3285 0.8599 0.3907
vn -0.3982 -0.6826 -0.6128
vn -0.3280 0.5185 -0.7897
vn 0.2440 0.6854 0.6861
vn -0.4530 0.5574 -0.6958
vn 0.4619 -0.7889 0.4052
vn -0.2566 -0.5294 -0.8086
vn -0.8032 0.4650 -0.3723
vn 0.7888 -0.6117 0.0605
vn -0.0128 0.4576 0.8890
vn -0.0909 -0.3902 -0.9162
vn -0.0018 0.1603 0.9871
vn -0.0977 -0.0723 -0.9926
vn -0.9669 0.1180 -0.2262
vn 0.9874 -0.0835 -0.1346
vn 0.1200 -0.8009 0.5867
vn 0.3130 0.6778 0.6653
vn -0.2726 -0.5030 0.8202
vn -0.0078 0.3224 -0.9466
vn -0.7316 -0.4957 -0.4681
vn 0.7303 0.5629 0.3870
vn 0.1032 -0.0042 -0.9947
vn -0.8979 -0.1936 -0.3952
vn 0.9190 0.2553 0.3003
vn -0.4594 -0.0176 0.8880
vn -0.2819 0.6801 -0.6768
vn -0.0531 0.9555 -0.2903
vn -0.4340 0.2197 -0.8737
vn 0.9730 -0.0404 -0.2273
vn -0.8002 0.0338 0.5988
vn -0.8393 -0.1026 0.5340
vn 0.9568 -0.1211 -0.2644
vn 0.2836 -0.6530 0.7022
vn 0.4425 -0.1461 0.8848
vn 0.1096 -0.9044 0.4123
vn 0.9540 -0.1281 -0.2709
vn -0.8573 -0.1407 0.4952
vn -0.9495 -0.2962 0.1041
vn 0.5642 -0.5532 -0.6129
vn 0.3175 -0.2661 -0.9102
vn -0.9790 -0.1896 0.0752
vn 0.5373 0.4255 0.7282
vn 0.2268 -0.0120 -0.9739
vn -0.9837 -0.0933 0.1540
vn 0.6399 0.1567 0.7523
s off
f 1/1/1 14/2/1 13/3/1
f 2/4/2 14/2/2 16/5/2
f 1/6/3 13/7/3 18/8/3
f 1/6/4 18/8/4 20/9/4
f 1/6/5 20/9/5 17/10/5
f 2/4/6 16/5/6 23/11/6
f 3/12/7 15/13/7 25/14/7
f 4/15/8 19/16/8 27/17/8
f 5/18/9 21/19/9 29/20/9
f 6/21/10 22/22/10 31/23/10
f 2/4/11 23/11/11 26/24/11
f 3/25/12 25/26/12 28/27/12
f 4/15/13 27/17/13 30/28/13
f 5/18/14 29/20/14 32/29/14
f 6/21/15 31/23/15 24/30/15
f 7/31/16 33/32/16 38/33/16
f 8/34/17 34/35/17 40/36/17
f 9/37/18 35/38/18 41/39/18
f 10/40/19 36/41/19 42/42/19
f 11/43/20 37/44/20 39/45/20
f 39/46/21 42/42/21 12/47/21
f 39/45/22 37/44/22 42/48/22
f 37/44/23 10/49/23 42/48/23
f 42/42/24 41/39/24 12/47/24
f 42/42/25 36/41/25 41/39/25
f 36/41/26 9/37/26 41/39/26
f 41/39/27 40/36/27 12/47/27
f 41/39/28 35/38/28 40/36/28
f 35/38/29 8/34/29 40/36/29
f 40/36/30 38/50/30 12/47/30
f 40/36/31 34/35/31 38/50/31
f 34/35/32 7/51/32 38/50/32
f 38/50/33 39/46/33 12/47/33
f 38/33/34 33/32/34 39/45/34
f 33/32/35 11/43/35 39/45/35
f 24/30/36 37/44/36 11/43/36
f 24/30/37 31/23/37 37/44/37
f 31/23/38 10/49/38 37/44/38
f 32/29/39 36/41/39 10/40/39
f 32/29/40 29/20/40 36/41/40
f 29/20/41 9/37/41 36/41/41
f 30/28/42 35/38/42 9/37/42
f 30/28/43 27/17/43 35/38/43
f 27/17/44 8/34/44 35/38/44
f 28/27/45 34/35/45 8/34/45
f 28/27/46 25/26/46 34/35/46
f 25/26/47 7/51/47 34/35/47
f 26/24/48 33/32/48 7/31/48
f 26/24/49 23/11/49 33/32/49
f 23/11/50 11/43/50 33/32/50
f 31/52/51 32/29/51 10/40/51
f 31/52/52 22/53/52 32/29/52
f 22/53/53 5/18/53 32/29/53
f 29/20/54 30/28/54 9/37/54
f 29/20/55 21/19/55 30/28/55
f 21/19/56 4/15/56 30/28/56
f 27/17/57 28/27/57 8/34/57
f 27/17/58 19/16/58 28/27/58
f 19/16/59 3/25/59 28/27/59
f 25/14/60 26/24/60 7/31/60
f 25/14/61 15/13/61 26/24/61
f 15/13/62 2/4/62 26/24/62
f 23/11/63 24/30/63 11/43/63
f 23/11/64 16/5/64 24/30/64
f 16/5/65 6/21/65 24/30/65
f 17/54/66 22/22/66 6/21/66
f 17/10/67 20/9/67 22/53/67
f 20/9/68 5/18/68 22/53/68
f 20/9/69 21/19/69 5/18/69
f 20/9/70 18/8/70 21/19/70
f 18/8/71 4/15/71 21/19/71
f 18/8/72 19/16/72 4/15/72
f 18/8/73 13/7/73 19/16/73
f 13/7/74 3/25/74 19/16/74
f 16/5/75 17/54/75 6/21/75
f 16/5/76 14/2/76 17/54/76
f 14/2/77 1/1/77 17/54/77
f 13/3/78 15/13/78 3/12/78
f 13/3/79 14/2/79 15/13/79
f 14/2/80 2/4/80 15/13/80
f 47/55/81 43/56/81 48/57/81 52/58/81
f 45/59/82 46/60/82 51/61/82 50/62/82
f 43/63/83 44/64/83 49/65/83 48/66/83
f 46/60/84 47/55/84 52/58/84 51/61/84
f 44/64/85 45/59/85 50/62/85 49/65/85
f 52/58/86 48/57/86 53/67/86 57/68/86
f 50/62/87 51/61/87 56/69/87 55/70/87
f 48/66/88 49/65/88 54/71/88 53/72/88
f 51/61/89 52/58/89 57/68/89 56/69/89
f 49/65/90 50/62/90 55/70/90 54/71/90
f 53/72/91 54/71/91 59/73/91 58/74/91
f 56/69/92 57/68/92 62/75/92 61/76/92
f 54/71/93 55/70/93 60/77/93 59/73/93
f 57/68/94 53/67/94 58/78/94 62/75/94
f 55/70/95 56/69/95 61/76/95 60/77/95
f 59/73/96 60/77/96 65/79/96 64/80/96
f 62/75/97 58/78/97 63/81/97 67/82/97
f 60/77/98 61/76/98 66/83/98 65/79/98
f 58/74/99 59/73/99 64/80/99 63/84/99
f 61/76/100 62/75/100 67/82/100 66/83/100
f 78/85/101 68/86/101 88/87/101 90/88/101
f 63/89/102 64/90/102 80/91/102 79/92/102
f 78/93/103 63/89/103 79/92/103 82/94/103
f 68/95/104 66/96/104 70/97/104 72/98/104
f 63/99/105 68/100/105 72/101/105 69/102/105
f 66/96/106 67/103/106 71/104/106 70/97/106
f 67/103/107 63/99/107 69/102/107 71/104/107
f 69/102/108 72/101/108 76/105/108 73/106/108
f 70/97/109 71/104/109 75/107/109 74/108/109
f 72/98/110 70/97/110 74/108/110 76/109/110
f 71/104/111 69/102/111 73/106/111 75/107/111
f 76/109/112 74/108/112 77/110/112
f 75/107/113 73/106/113 77/111/113
f 73/106/114 76/105/114 77/112/114
f 74/108/115 75/107/115 77/113/115
f 64/90/116 65/114/116 81/115/116 80/91/116
f 65/114/117 78/116/117 82/117/117 81/115/117
f 80/91/118 81/115/118 85/118/118 84/119/118
f 82/94/119 79/92/119 83/120/119 86/121/119
f 79/92/120 80/91/120 84/119/120 83/120/120
f 81/115/121 82/117/121 86/122/121 85/118/121
f 86/121/122 83/120/122 87/123/122
f 83/120/123 84/119/123 87/124/123
f 85/118/124 86/122/124 87/125/124
f 84/119/125 85/118/125 87/126/125
f 97/127/126 96/128/126 95/129/126 94/130/126
f 97/127/127 68/131/127 78/132/127 96/128/127
f 91/133/128 94/130/128 95/129/128
f 93/134/129 94/130/129 91/135/129
f 95/129/130 92/136/130 91/137/130
f 96/128/131 99/138/131 92/136/131 95/129/131
f 98/139/132 97/127/132 94/130/132 93/134/132
f 99/138/133 98/140/133 93/141/133 92/136/133
f 92/136/134 93/141/134 91/142/134
f 65/143/135 66/144/135 98/140/135 99/138/135
f 66/145/136 68/131/136 97/127/136 98/139/136
f 78/132/137 65/143/137 99/138/137 96/128/137
f 63/146/138 78/85/138 90/88/138 89/147/138
f 68/86/139 63/148/139 89/149/139 88/87/139
f 88/87/140 89/149/140 101/150/140 100/151/140
f 89/147/141 90/88/141 102/152/141 101/153/141
f 90/88/142 88/87/142 100/151/142 102/152/142
f 100/151/143 101/150/143 103/154/143
f 101/153/144 102/152/144 103/155/144
f 102/152/145 100/151/145 103/156/145
