# Blender v2.78 (sub 0) OBJ File: 'Low_Poly_Trees_Pack.blend'
# www.blender.org
g Acacia_Log_03
v 1.689079 0.018080 -0.108498
v 1.691594 0.017669 0.044186
v 1.687686 0.165969 0.090648
v 1.682598 0.259669 -0.039801
v 1.683819 0.162215 -0.152588
v -1.710701 0.015926 0.066300
v -1.678818 0.016035 -0.051897
v -1.705331 0.190640 0.017972
v -1.702970 0.118388 0.117129
v -1.725196 0.119100 -0.078195
v 1.692390 -0.000650 0.057610
v 1.689432 -0.000167 -0.122045
v 1.687811 0.173115 0.112050
v 1.681849 0.282934 -0.040838
v 1.683285 0.168252 -0.173563
v -1.704815 -0.000166 0.078203
v -1.667162 -0.000555 -0.065635
v -1.703417 0.213278 0.017746
v -1.699755 0.123954 0.140178
v -1.721349 0.127641 -0.097241
v -0.019032 0.147947 -0.205432
v -0.005972 0.148534 0.056084
v 0.011135 -0.000361 -0.163870
v -0.010784 0.248106 -0.081576
v -0.006212 -0.000408 -0.002124
vt 0.5579 0.8144
vt 0.5574 0.8627
vt 0.5533 0.8616
vt 0.5533 0.8138
vt 0.5444 0.8145
vt 0.5455 0.8627
vt 0.5412 0.8628
vt 0.5396 0.8146
vt 0.5496 0.8631
vt 0.5489 0.8146
vt 0.5625 0.8144
vt 0.5614 0.8626
vt 0.8029 0.6690
vt 0.8029 0.6510
vt 0.8199 0.6457
vt 0.8195 0.6718
vt 0.8310 0.6582
vt 0.7826 0.7126
vt 0.8075 0.6941
vt 0.8031 0.7126
vt 0.7763 0.6937
vt 0.7922 0.6824
vt 0.5828 0.8316
vt 0.5681 0.8422
vt 0.5655 0.8413
vt 0.5829 0.8289
vt 0.5739 0.8596
vt 0.5723 0.8618
vt 0.5929 0.8596
vt 0.5946 0.8618
vt 0.5970 0.8425
vt 0.5995 0.8416
vt 0.5884 0.8143
vt 0.5991 0.8017
vt 0.6024 0.8017
vt 0.5891 0.8170
vt 0.5730 0.7950
vt 0.5730 0.8117
vt 0.5705 0.8138
vt 0.5705 0.7932
vt 0.5888 0.7901
vt 0.5893 0.7873
vt 0.5483 0.7662
vt 0.5433 0.7663
vt 0.5636 0.7662
vt 0.5584 0.7660
vt 0.5533 0.7660
vt 0.5379 0.7664
vn 0.0000 -1.0000 0.0011
vn 0.0176 0.8093 0.5872
vn -0.0570 -0.2716 -0.9607
vn 0.0472 -0.4032 0.9139
vn -0.0501 0.7910 -0.6098
vn -0.9861 0.1224 0.1127
vn -0.9934 0.0189 0.1131
vn -0.8631 -0.4479 -0.2332
vn 0.9994 0.0315 -0.0164
vn -0.8631 -0.4504 -0.2286
vn -0.9900 0.0995 0.0995
vn -0.8480 -0.4420 -0.2925
vn -0.9703 -0.0617 0.2340
vn -0.9798 0.1982 0.0278
vn 0.0013 0.7667 -0.6420
vn -0.0298 -0.3298 0.9436
vn 0.0226 -0.2795 -0.9599
vn -0.0309 0.8103 0.5851
vn 0.0000 -1.0000 -0.0016
s off
f 25/1/1 16/2/1 17/3/1 23/4/1
f 24/5/2 18/6/2 19/7/2 22/8/2
f 23/4/3 17/3/3 20/9/3 21/10/3
f 22/11/4 19/12/4 16/2/4 25/1/4
f 21/10/5 20/9/5 18/6/5 24/5/5
f 9/13/6 8/14/6 10/15/6
f 6/16/7 9/13/7 10/15/7
f 7/17/8 6/16/8 10/15/8
f 3/18/9 5/19/9 4/20/9
f 2/21/9 1/22/9 5/19/9 3/18/9
f 1/23/9 2/24/9 11/25/9 12/26/9
f 2/24/9 3/27/9 13/28/9 11/25/9
f 3/27/9 4/29/9 14/30/9 13/28/9
f 4/29/9 5/31/9 15/32/9 14/30/9
f 5/31/9 1/23/9 12/26/9 15/32/9
f 6/33/10 7/34/10 17/35/10 16/36/10
f 8/37/11 9/38/11 19/39/11 18/40/11
f 7/34/12 10/41/12 20/42/12 17/35/12
f 9/38/13 6/33/13 16/36/13 19/39/13
f 10/41/14 8/37/14 18/40/14 20/42/14
f 15/43/15 21/10/15 24/5/15 14/44/15
f 13/45/16 22/11/16 25/1/16 11/46/16
f 12/47/17 23/4/17 21/10/17 15/43/17
f 14/44/18 24/5/18 22/8/18 13/48/18
f 11/46/19 25/1/19 23/4/19 12/47/19
