# Blender v2.78 (sub 0) OBJ File: 'Low_Poly_Trees_Pack.blend'
# www.blender.org
g Acacia_Log_05
v -1.082336 0.208364 -0.221440
v -1.094116 0.324790 -0.163944
v -1.109782 0.365917 -0.041151
v -1.120158 0.307652 0.075008
v -1.119164 0.184127 0.116488
v -1.107384 0.067700 0.058992
v -1.091718 0.026574 -0.063801
v -1.081343 0.084839 -0.179959
v 1.098226 0.201294 -0.167394
v 1.098226 0.320376 -0.118069
v 1.098226 0.369701 0.001013
v 1.098226 0.320376 0.120095
v 1.098226 0.201294 0.169420
v 1.098226 0.082212 0.120095
v 1.098226 0.032887 0.001013
v 1.098226 0.082212 -0.118069
v -0.543304 -0.011526 0.012115
v 0.018135 -0.013366 0.063078
v 0.548556 0.015534 0.012889
v 0.543715 0.065032 -0.128667
v -0.001693 0.010474 -0.083900
v -0.545101 0.040576 -0.128087
v -0.546634 0.191211 0.200300
v 0.031309 0.222568 0.208108
v 0.552498 0.222297 0.197506
v 0.552194 0.080675 0.147994
v 0.031805 0.074486 0.184032
v -0.543996 0.050807 0.148002
v -0.551094 0.380338 -0.002188
v -0.002893 0.367975 -0.025774
v 0.544448 0.406937 -0.009135
v 0.549289 0.357439 0.132421
v 0.016936 0.344135 0.121204
v -0.549518 0.327767 0.138224
v -0.548178 0.176924 -0.190627
v -0.016066 0.132041 -0.170804
v 0.540506 0.200174 -0.193752
v 0.540810 0.341795 -0.144240
v -0.016563 0.280123 -0.146727
v -0.550595 0.317796 -0.138539
v -1.093112 0.344244 -0.180812
v -1.079550 0.210198 -0.247010
v -1.111149 0.391594 -0.039437
v -1.123095 0.324512 0.094300
v -1.121951 0.182293 0.142058
v -1.108388 0.048247 0.075861
v -1.090351 0.000897 -0.065515
v -1.078406 0.067979 -0.199252
v -0.869766 0.204350 -0.200965
v -0.881546 0.320776 -0.143469
v -0.897212 0.361903 -0.020676
v -0.907588 0.303638 0.095483
v -0.906594 0.180113 0.136963
v -0.894814 0.063686 0.079467
v -0.879148 0.022560 -0.043326
v -0.868773 0.080825 -0.159485
v 1.098226 0.339901 -0.137594
v 1.098226 0.201294 -0.195007
v 1.098226 0.397314 0.001013
v 1.098226 0.339901 0.139620
v 1.098226 0.201294 0.197033
v 1.098226 0.062687 0.139620
v 1.098226 0.005274 0.001013
v 1.098226 0.062687 -0.137594
v 0.954896 0.201294 -0.167394
v 0.954896 0.320376 -0.118069
v 0.954896 0.369701 0.001013
v 0.954896 0.320376 0.120095
v 0.954896 0.201294 0.169420
v 0.954896 0.082212 0.120095
v 0.954896 0.032887 0.001013
v 0.954896 0.082212 -0.118069
vt 0.5877 0.8285
vt 0.6067 0.8282
vt 0.6068 0.8338
vt 0.5879 0.8341
vt 0.5878 0.7955
vt 0.6070 0.7952
vt 0.6068 0.8008
vt 0.5879 0.8011
vt 0.5879 0.8067
vt 0.6066 0.8063
vt 0.6065 0.8118
vt 0.5878 0.8121
vt 0.5877 0.8176
vt 0.6065 0.8173
vt 0.6066 0.8227
vt 0.5877 0.8230
vt 0.5878 0.7897
vt 0.6072 0.7895
vt 0.5297 0.8229
vt 0.5299 0.8283
vt 0.5216 0.8289
vt 0.5215 0.8234
vt 0.5303 0.8122
vt 0.5493 0.8122
vt 0.5491 0.8179
vt 0.5304 0.8175
vt 0.5687 0.8133
vt 0.5682 0.8191
vt 0.5301 0.8014
vt 0.5498 0.8012
vt 0.5496 0.8067
vt 0.5301 0.8068
vt 0.5697 0.8019
vt 0.5694 0.8076
vt 0.5298 0.7902
vt 0.5491 0.7901
vt 0.5496 0.7957
vt 0.5300 0.7959
vt 0.5689 0.7907
vt 0.5696 0.7963
vt 0.5307 0.8228
vt 0.5492 0.8236
vt 0.5496 0.8293
vt 0.5309 0.8283
vt 0.5682 0.8249
vt 0.5687 0.8306
vt 0.5500 0.8349
vt 0.5310 0.8339
vt 0.5695 0.8362
vt 0.5296 0.8175
vt 0.5294 0.8122
vt 0.5293 0.8069
vt 0.5291 0.8014
vt 0.5290 0.7959
vt 0.5289 0.7905
vt 0.5300 0.8336
vt 0.7799 0.7006
vt 0.7690 0.6894
vt 0.7693 0.6738
vt 0.7805 0.6630
vt 0.5207 0.7958
vt 0.5207 0.7904
vt 0.5210 0.8068
vt 0.5208 0.8013
vt 0.5214 0.8179
vt 0.5212 0.8124
vt 0.5219 0.8343
vt 0.6078 0.8334
vt 0.6077 0.8281
vt 0.6132 0.8280
vt 0.6132 0.8333
vt 0.6075 0.8173
vt 0.6076 0.8227
vt 0.6076 0.8118
vt 0.6076 0.8063
vt 0.6078 0.8008
vt 0.6080 0.7953
vt 0.6082 0.7900
vt 0.8229 0.7004
vt 0.8120 0.6895
vt 0.8120 0.6740
vt 0.8229 0.6631
vt 0.6135 0.7955
vt 0.6134 0.8009
vt 0.6133 0.8064
vt 0.6132 0.8118
vt 0.6131 0.8173
vt 0.6131 0.8227
vt 0.6137 0.7902
vt 0.7955 0.7009
vt 0.7961 0.6633
vt 0.8067 0.6901
vt 0.8069 0.6745
vt 0.8493 0.6895
vt 0.8384 0.7004
vt 0.8384 0.6631
vt 0.8493 0.6740
vn -0.0174 -0.9342 -0.3562
vn -0.0052 -0.3565 0.9343
vn 0.0174 0.9342 0.3562
vn 0.0048 0.3565 -0.9343
vn -0.0088 -0.4085 -0.9127
vn -0.0160 -0.9125 0.4088
vn 0.0088 0.4085 0.9127
vn 0.0156 0.9125 -0.4088
vn -0.0850 0.3166 0.9448
vn 0.0580 0.9296 -0.3640
vn 0.0250 0.8625 -0.5054
vn -0.0694 0.8584 -0.5082
vn -0.0863 0.3641 0.9273
vn -0.0138 0.4991 0.8664
vn -0.0068 0.5091 0.8607
vn -0.0573 -0.9297 0.3639
vn -0.0221 -0.8626 0.5055
vn 0.0704 -0.8584 0.5081
vn 0.0902 -0.3655 -0.9265
vn 0.0166 -0.5004 -0.8656
vn 0.0038 -0.5093 -0.8606
vn 0.1059 0.3982 -0.9112
vn 0.0303 0.2551 -0.9665
vn -0.0464 0.2459 -0.9682
vn -0.0221 0.9166 0.3992
vn 0.0059 0.9665 0.2565
vn -0.0533 0.9667 0.2503
vn -0.1002 -0.3994 0.9113
vn -0.0245 -0.2561 0.9663
vn 0.0448 -0.2459 0.9683
vn 0.0210 -0.9171 -0.3982
vn -0.0060 -0.9669 -0.2552
vn 0.0529 -0.9667 -0.2502
vn -0.9927 -0.0454 -0.1114
vn 0.0479 0.9490 -0.3117
vn 0.0850 -0.3166 -0.9448
vn -0.0479 -0.9490 0.3117
vn -0.0261 0.8945 0.4463
vn 0.0941 0.4485 -0.8888
vn 0.0261 -0.8945 -0.4463
vn -0.0941 -0.4485 0.8888
vn 0.0000 0.9239 0.3827
vn 1.0000 0.0000 0.0000
vn -0.0000 0.3827 -0.9239
vn -0.0000 -0.9239 -0.3827
vn 0.0000 -0.3827 0.9239
vn 0.0000 0.3827 0.9239
vn -0.0000 0.9239 -0.3827
vn -0.0000 -0.3827 -0.9239
vn 0.0000 -0.9239 0.3827
s off
f 20/1/1 64/2/1 63/3/1 19/4/1
f 26/5/2 62/6/2 61/7/2 25/8/2
f 32/9/3 60/10/3 59/11/3 31/12/3
f 38/13/4 57/14/4 58/15/4 37/16/4
f 37/16/5 58/15/5 64/2/5 20/1/5
f 19/17/6 63/18/6 62/6/6 26/5/6
f 25/8/7 61/7/7 60/10/7 32/9/7
f 31/12/8 59/11/8 57/14/8 38/13/8
f 1/19/9 8/20/9 56/21/9 49/22/9
f 43/23/10 29/24/10 40/25/10 41/26/10
f 29/24/11 30/27/11 39/28/11 40/25/11
f 30/27/12 31/12/12 38/13/12 39/28/12
f 45/29/13 23/30/13 34/31/13 44/32/13
f 23/30/14 24/33/14 33/34/14 34/31/14
f 24/33/15 25/8/15 32/9/15 33/34/15
f 47/35/16 17/36/16 28/37/16 46/38/16
f 17/36/17 18/39/17 27/40/17 28/37/17
f 18/39/18 19/17/18 26/5/18 27/40/18
f 42/41/19 35/42/19 22/43/19 48/44/19
f 35/42/20 36/45/20 21/46/20 22/43/20
f 36/45/21 37/16/21 20/1/21 21/46/21
f 41/26/22 40/25/22 35/42/22 42/41/22
f 40/25/23 39/28/23 36/45/23 35/42/23
f 39/28/24 38/13/24 37/16/24 36/45/24
f 44/32/25 34/31/25 29/24/25 43/23/25
f 34/31/26 33/34/26 30/27/26 29/24/26
f 33/34/27 32/9/27 31/12/27 30/27/27
f 46/38/28 28/37/28 23/30/28 45/29/28
f 28/37/29 27/40/29 24/33/29 23/30/29
f 27/40/30 26/5/30 25/8/30 24/33/30
f 48/44/31 22/43/31 17/47/31 47/48/31
f 22/43/32 21/46/32 18/49/32 17/47/32
f 21/46/33 20/1/33 19/4/33 18/49/33
f 1/19/34 2/50/34 41/26/34 42/41/34
f 2/50/34 3/51/34 43/23/34 41/26/34
f 3/51/34 4/52/34 44/32/34 43/23/34
f 4/52/34 5/53/34 45/29/34 44/32/34
f 5/53/34 6/54/34 46/38/34 45/29/34
f 6/54/34 7/55/34 47/35/34 46/38/34
f 7/56/34 8/20/34 48/44/34 47/48/34
f 8/20/34 1/19/34 42/41/34 48/44/34
f 50/57/34 49/58/34 56/59/34 55/60/34
f 7/55/35 6/54/35 54/61/35 55/62/35
f 5/53/36 4/52/36 52/63/36 53/64/36
f 3/51/37 2/50/37 50/65/37 51/66/37
f 8/20/38 7/56/38 55/67/38 56/21/38
f 6/54/39 5/53/39 53/64/39 54/61/39
f 4/52/40 3/51/40 51/66/40 52/63/40
f 2/50/41 1/19/41 49/22/41 50/65/41
f 15/68/42 16/69/42 72/70/42 71/71/42
f 10/72/43 9/73/43 58/15/43 57/14/43
f 11/74/43 10/72/43 57/14/43 59/11/43
f 12/75/43 11/74/43 59/11/43 60/10/43
f 13/76/43 12/75/43 60/10/43 61/7/43
f 14/77/43 13/76/43 61/7/43 62/6/43
f 15/78/43 14/77/43 62/6/43 63/18/43
f 16/69/43 15/68/43 63/3/43 64/2/43
f 9/73/43 16/69/43 64/2/43 58/15/43
f 67/79/43 68/80/43 69/81/43 70/82/43
f 13/76/44 14/77/44 70/83/44 69/84/44
f 11/74/45 12/75/45 68/85/45 67/86/45
f 9/73/46 10/72/46 66/87/46 65/88/46
f 16/69/47 9/73/47 65/88/47 72/70/47
f 14/77/48 15/78/48 71/89/48 70/83/48
f 12/75/49 13/76/49 69/84/49 68/85/49
f 10/72/50 11/74/50 67/86/50 66/87/50
f 51/90/34 50/57/34 55/60/34 54/91/34
f 52/92/34 51/90/34 54/91/34 53/93/34
f 65/94/43 66/95/43 71/96/43 72/97/43
f 66/95/43 67/79/43 70/82/43 71/96/43
