# Blender v2.78 (sub 0) OBJ File: 'Low_Poly_Trees_Pack.blend'
# www.blender.org
g Acacia_Log_01
v 1.689432 -0.000167 -0.122045
v 1.692390 -0.000650 0.057610
v 1.687811 0.173115 0.112050
v 1.681849 0.282934 -0.040838
v 1.683285 0.168252 -0.173563
v -1.704815 -0.000166 0.078203
v -1.667162 -0.000555 -0.065635
v -1.703417 0.213278 0.017746
v -1.699755 0.123954 0.140178
v -1.721349 0.127641 -0.097241
v -0.019032 0.147947 -0.195272
v -0.005972 0.148534 0.066245
v 0.011135 -0.000361 -0.153710
v -0.010784 0.248106 -0.071415
v -0.006212 -0.000408 0.008037
vt 0.5730 0.8118
vt 0.5724 0.8614
vt 0.5683 0.8602
vt 0.5682 0.8112
vt 0.5591 0.8119
vt 0.5602 0.8614
vt 0.5558 0.8615
vt 0.5541 0.8120
vt 0.5644 0.8618
vt 0.5637 0.8121
vt 0.5776 0.8118
vt 0.5765 0.8613
vt 0.8042 0.6747
vt 0.8042 0.6524
vt 0.8245 0.6461
vt 0.8244 0.6781
vt 0.8387 0.6616
vt 0.7849 0.7183
vt 0.8142 0.6965
vt 0.8090 0.7183
vt 0.7776 0.6962
vt 0.7963 0.6829
vt 0.5631 0.7624
vt 0.5580 0.7625
vt 0.5788 0.7624
vt 0.5735 0.7622
vt 0.5682 0.7622
vt 0.5525 0.7626
vn 0.0000 -1.0000 0.0011
vn 0.0141 0.8093 0.5873
vn -0.0513 -0.2701 -0.9615
vn 0.0417 -0.4032 0.9142
vn -0.0465 0.7909 -0.6102
vn -0.9922 0.0848 0.0916
vn -0.9959 -0.0046 0.0905
vn -0.8754 -0.4262 -0.2280
vn 0.9994 0.0315 -0.0164
vn -0.0026 0.7667 -0.6419
vn -0.0242 -0.3298 0.9438
vn 0.0169 -0.2801 -0.9598
vn -0.0274 0.8105 0.5851
vn 0.0000 -1.0000 -0.0016
s off
f 15/1/1 6/2/1 7/3/1 13/4/1
f 14/5/2 8/6/2 9/7/2 12/8/2
f 13/4/3 7/3/3 10/9/3 11/10/3
f 12/11/4 9/12/4 6/2/4 15/1/4
f 11/10/5 10/9/5 8/6/5 14/5/5
f 9/13/6 8/14/6 10/15/6
f 6/16/7 9/13/7 10/15/7
f 7/17/8 6/16/8 10/15/8
f 3/18/9 5/19/9 4/20/9
f 2/21/9 1/22/9 5/19/9 3/18/9
f 5/23/10 11/10/10 14/5/10 4/24/10
f 3/25/11 12/11/11 15/1/11 2/26/11
f 1/27/12 13/4/12 11/10/12 5/23/12
f 4/24/13 14/5/13 12/8/13 3/28/13
f 2/26/14 15/1/14 13/4/14 1/27/14
