# Blender v2.78 (sub 0) OBJ File: 'Low_Poly_Trees_Pack.blend'
# www.blender.org
g Birch_Firewood_01
v -0.278843 -0.000003 -0.040641
v -0.278843 0.077611 -0.065865
v -0.278843 0.125584 0.000155
v -0.278843 0.077619 0.066182
v -0.278843 0.000002 0.040968
v 0.281157 -0.000003 -0.040641
v 0.281157 0.077611 -0.065865
v 0.281157 0.125584 0.000155
v 0.281157 0.077619 0.066182
v 0.281157 0.000002 0.040968
vt 0.1652 0.3485
vt 0.1945 0.6128
vt 0.1652 0.6128
vt 0.0774 0.3485
vt 0.1067 0.6128
vt 0.0774 0.6128
vt 0.1360 0.3485
vt 0.1360 0.6128
vt 0.0482 0.3485
vt 0.0482 0.6128
vt 0.1067 0.3485
vt 0.3410 0.9108
vt 0.3184 0.9420
vt 0.3184 0.9182
vt 0.3550 0.9301
vt 0.3410 0.9493
vt 0.2784 0.9182
vt 0.3010 0.9493
vt 0.2784 0.9420
vt 0.3150 0.9301
vt 0.3010 0.9108
vt 0.1945 0.3485
vn 0.0000 -1.0000 0.0001
vn 0.0000 0.8091 0.5877
vn 0.0000 -0.3091 -0.9510
vn 0.0000 -0.3090 0.9511
vn 0.0000 0.8090 -0.5878
vn -1.0000 0.0000 0.0000
vn 1.0000 -0.0000 0.0000
s off
f 6/1/1 5/2/1 1/3/1
f 9/4/2 3/5/2 4/6/2
f 7/7/3 1/3/3 2/8/3
f 10/9/4 4/6/4 5/10/4
f 8/11/5 2/8/5 3/5/5
f 3/12/6 5/13/6 4/14/6
f 2/15/6 1/16/6 3/12/6
f 10/17/7 8/18/7 9/19/7
f 7/20/7 8/18/7 6/21/7
f 6/1/1 10/22/1 5/2/1
f 9/4/2 8/11/2 3/5/2
f 7/7/3 6/1/3 1/3/3
f 10/9/4 9/4/4 4/6/4
f 8/11/5 7/7/5 2/8/5
f 3/12/6 1/16/6 5/13/6
f 10/17/7 6/21/7 8/18/7
