# Blender v2.78 (sub 0) OBJ File: 'Low_Poly_Trees_Pack.blend'
# www.blender.org
g Birch_Firewood_03
v -0.272822 -0.000003 -0.067304
v -0.268858 0.077611 -0.092215
v -0.271138 0.125584 0.035897
v -0.262964 0.077619 0.096896
v -0.266313 0.000002 0.071906
v 0.281157 -0.000003 -0.040641
v 0.281157 0.077611 -0.065865
v 0.281157 0.125584 0.000155
v 0.281157 0.077619 0.066182
v 0.281157 0.000002 0.040968
v -0.271499 -0.000001 0.033202
v 0.001157 0.000002 0.040968
v 0.001157 -0.000003 -0.040641
v 0.001157 0.125584 0.000155
v 0.001157 0.077619 0.066182
v 0.001157 0.077611 -0.065865
v 0.001157 -0.000001 -0.000617
v 0.281157 -0.000000 0.001329
v -0.278875 0.125584 -0.029267
v -0.278448 -0.000001 -0.031952
vt 0.1810 0.3606
vt 0.1988 0.4777
vt 0.1820 0.4786
vt 0.0782 0.3611
vt 0.1126 0.4785
vt 0.0781 0.4798
vt 0.1467 0.3609
vt 0.1472 0.4795
vt 0.0440 0.3610
vt 0.0435 0.4789
vt 0.1124 0.3610
vt 0.2693 0.9546
vt 0.2774 0.9447
vt 0.2774 0.9610
vt 0.2910 0.9072
vt 0.3225 0.8993
vt 0.2991 0.9321
vt 0.3253 0.9321
vt 0.3334 0.9072
vt 0.3494 0.9447
vt 0.3575 0.9550
vt 0.3494 0.9610
vt 0.1155 0.5971
vt 0.1491 0.5948
vt 0.0423 0.5919
vt 0.0764 0.5921
vt 0.1834 0.5950
vt 0.1090 0.5932
vt 0.1984 0.5957
vt 0.3138 0.9610
vt 0.0260 0.5921
vt 0.0275 0.3609
vt 0.0260 0.4778
vt 0.3138 0.9447
vt 0.1986 0.3604
vt 0.2728 0.9446
vt 0.3122 0.8918
vt 0.3545 0.9448
vn 0.0000 -1.0000 0.0001
vn 0.0000 0.8091 0.5877
vn 0.0000 -0.3091 -0.9510
vn 0.0000 -0.3090 0.9511
vn 0.0000 0.8090 -0.5878
vn -0.9876 0.0000 -0.1571
vn 1.0000 -0.0000 0.0000
vn -0.9911 -0.0000 0.1328
vn 0.0585 0.7985 -0.5992
vn 0.1099 -0.3089 0.9447
vn 0.0924 -0.3086 -0.9467
vn 0.0710 0.7887 0.6107
vn -0.1045 -0.0216 0.9943
vn -0.1231 0.0061 -0.9924
vn 0.0616 0.8074 -0.5867
vn 0.1093 -0.3071 0.9454
vn 0.0922 -0.3078 -0.9470
vn 0.0769 0.8067 0.5860
vn -0.1114 -0.0061 0.9938
vn -0.1301 0.0216 -0.9913
s off
f 6/1/1 17/2/1 13/3/1
f 9/4/2 14/5/2 15/6/2
f 7/7/3 13/3/3 16/8/3
f 10/9/4 15/6/4 12/10/4
f 8/11/5 16/8/5 14/5/5
f 2/12/6 20/13/6 19/14/6
f 9/15/7 18/16/7 8/17/7
f 7/18/7 18/16/7 6/19/7
f 11/20/8 4/21/8 3/22/8
f 19/23/9 16/8/9 2/24/9
f 5/25/10 15/6/10 4/26/10
f 16/8/11 1/27/11 2/24/11
f 15/6/12 3/28/12 4/26/12
f 13/3/1 20/29/1 1/27/1
f 20/13/13 14/30/13 19/14/13
f 11/31/1 12/10/1 5/25/1
f 18/32/1 12/10/1 17/33/1
f 11/20/14 14/30/14 17/34/14
f 6/1/1 18/35/1 17/2/1
f 9/4/2 8/11/2 14/5/2
f 7/7/3 6/1/3 13/3/3
f 10/9/4 9/4/4 15/6/4
f 8/11/5 7/7/5 16/8/5
f 2/12/6 1/36/6 20/13/6
f 9/15/7 10/37/7 18/16/7
f 7/18/7 8/17/7 18/16/7
f 11/20/8 5/38/8 4/21/8
f 19/23/15 14/5/15 16/8/15
f 5/25/16 12/10/16 15/6/16
f 16/8/17 13/3/17 1/27/17
f 15/6/18 14/5/18 3/28/18
f 13/3/1 17/2/1 20/29/1
f 20/13/19 17/34/19 14/30/19
f 11/31/1 17/33/1 12/10/1
f 18/32/1 10/9/1 12/10/1
f 11/20/20 3/22/20 14/30/20
