# Blender v2.78 (sub 0) OBJ File: ''
# www.blender.org
g BG_Plane
v 0.000000 0.000000 0.000000
v 0.000000 0.000000 -150.000000
v -150.000000 150.000000 0.000000
v -150.000000 150.000000 -150.000000
v 0.000000 0.000000 0.000000
v 0.000000 0.000000 -150.000000
v -150.000000 150.000000 -150.000000
v -150.000000 150.000000 0.000000
v 0.000000 0.000000 0.000000
v 0.000000 0.000000 -150.000000
v 0.000000 0.000000 0.000000
v 0.000000 0.000000 -150.000000
v -150.000000 150.000000 -150.000000
v -150.000000 150.000000 0.000000
v -150.000000 150.000000 0.000000
v -150.000000 150.000000 -150.000000
v -150.000000 49.931831 -150.000000
v -100.068169 0.000000 -150.000000
v -149.572830 43.414421 -150.000000
v -148.298615 37.008522 -150.000000
v -146.199173 30.823746 -150.000000
v -143.310410 24.965916 -150.000000
v -139.681747 19.535257 -150.000000
v -135.375305 14.624696 -150.000000
v -130.464752 10.318249 -150.000000
v -125.034088 6.689596 -150.000000
v -119.176254 3.800836 -150.000000
v -112.991478 1.701388 -150.000000
v -106.585579 0.427175 -150.000000
v -100.068169 0.000000 0.000000
v -150.000000 49.931831 0.000000
v -106.585579 0.427175 0.000000
v -112.991478 1.701388 0.000000
v -119.176254 3.800836 0.000000
v -125.034088 6.689596 0.000000
v -130.464752 10.318249 0.000000
v -135.375305 14.624696 0.000000
v -139.681747 19.535257 0.000000
v -143.310410 24.965916 0.000000
v -146.199173 30.823746 0.000000
v -148.298615 37.008522 0.000000
v -149.572830 43.414421 0.000000
v -150.000000 150.000000 0.000000
v -150.000000 150.000000 0.000000
v -150.000000 150.000000 0.000000
v -150.000000 150.000000 -150.000000
v -150.000000 150.000000 -150.000000
v -150.000000 150.000000 -150.000000
v 0.000000 0.000000 0.000000
v 0.000000 0.000000 0.000000
v 0.000000 0.000000 0.000000
v 0.000000 0.000000 -150.000000
v 0.000000 0.000000 -150.000000
v 0.000000 0.000000 -150.000000
vn 0.0000 0.0000 1.0000
vn 0.9995 0.0327 0.0000
vn 1.0000 0.0000 0.0000
vn 0.0327 0.9995 0.0000
vn 0.0000 1.0000 0.0000
vn 0.9914 0.1305 0.0000
vn 0.9659 0.2588 0.0000
vn 0.9239 0.3827 0.0000
vn 0.8660 0.5000 0.0000
vn 0.7933 0.6088 0.0000
vn 0.7071 0.7071 0.0000
vn 0.6088 0.7933 0.0000
vn 0.5000 0.8660 0.0000
vn 0.3827 0.9239 0.0000
vn 0.2588 0.9659 0.0000
vn 0.1305 0.9914 0.0000
s 1
f 53//1 52//1 2//1 10//1
f 46//1 13//1 4//1 48//1
f 31//2 17//2 47//3 44//3
f 14//1 43//1 45//1 3//1
f 15//1 16//1 7//1 8//1
f 9//1 1//1 49//1 50//1
f 51//1 5//1 6//1 54//1
f 30//4 11//5 12//5 18//4
f 17//2 31//2 42//6 19//6
f 19//6 42//6 41//7 20//7
f 20//7 41//7 40//8 21//8
f 21//8 40//8 39//9 22//9
f 22//9 39//9 38//10 23//10
f 23//10 38//10 37//11 24//11
f 24//11 37//11 36//12 25//12
f 25//12 36//12 35//13 26//13
f 26//13 35//13 34//14 27//14
f 27//14 34//14 33//15 28//15
f 28//15 33//15 32//16 29//16
f 29//16 32//16 30//4 18//4
