# Blender v2.78 (sub 0) OBJ File: 'Low_Poly_Trees_Pack.blend'
# www.blender.org
g Oak_Tree_m_02
v -1.972335 5.390359 -2.022581
v -2.560761 6.049774 -1.333922
v -1.382276 6.990298 -1.655115
v -0.485166 7.438862 -2.011982
v -1.012838 6.002457 -2.504995
v -0.357915 5.969624 -2.681202
v -1.495919 4.556419 -2.093538
v -0.704609 3.255270 -1.440512
v -1.419816 2.825885 -1.095134
v -0.258484 4.361876 -1.974404
v -2.614408 4.109263 -0.866100
v -2.568781 6.028038 -0.496258
v 1.135882 6.599421 -1.790906
v 0.312053 7.682224 -1.908746
v 1.168475 8.178831 -1.225528
v 0.432980 6.117576 -2.523374
v 1.801648 6.600103 -0.966858
v 1.779312 8.289691 0.133433
v 2.047310 6.544439 -0.263040
v 1.608264 4.539294 -1.311150
v 1.428135 3.625828 -0.459254
v 0.757789 3.424858 -1.119523
v 1.994356 4.375150 0.304862
v 0.635599 4.628531 -2.069157
v 1.623753 6.791999 1.121054
v 0.924321 8.509046 0.812571
v 0.746487 6.552743 1.592931
v -0.657583 7.871210 1.148519
v -0.293925 6.365214 1.953898
v 1.092965 4.349895 1.709161
v 0.256670 2.955913 1.315544
v 1.087018 3.131507 0.873699
v -0.718458 4.616528 2.128602
v 2.177143 6.823819 0.473092
v -1.908347 6.565295 1.049698
v -1.555096 7.906384 0.690843
v -2.362230 6.280563 0.302633
v -1.712630 7.775032 -0.664406
v -2.310903 4.450858 0.775978
v -2.303077 3.383562 0.134830
v -1.488006 3.441603 1.307350
v -1.023595 6.554830 1.400525
v -1.158101 2.595387 0.210107
v -0.469572 2.733407 -0.319098
v 0.158243 2.725976 -0.710744
v 0.717226 2.804007 0.427269
v -0.772954 8.660889 0.575248
v 0.105802 8.903289 -0.145852
v 0.596134 8.356812 -0.745524
v -0.351696 8.066726 -1.079329
v -1.799611 2.839446 -0.665691
v 0.229295 0.000000 0.145297
v -0.167548 0.000000 0.169517
v -0.313214 0.000000 -0.200418
v -0.006397 0.000000 -0.453271
v 0.328892 0.000000 -0.239607
v 0.243453 0.394283 -0.200342
v -0.008609 0.408443 -0.351766
v -0.230547 0.415832 -0.158494
v -0.115650 0.406239 0.112378
v 0.177298 0.392921 0.086514
v 0.112745 1.183165 0.004981
v -0.075799 1.191075 0.055117
v -0.181650 1.196225 -0.108820
v -0.058526 1.191496 -0.260276
v 0.123421 1.183425 -0.189943
v 0.041007 2.084763 -0.049167
v -0.114782 2.089063 -0.052493
v -0.162199 1.992371 -0.192242
v -0.032163 2.072925 -0.290256
v 0.092069 2.074789 -0.196113
v 0.118441 3.167226 -0.032374
v 0.007489 3.237957 -0.021075
v -0.046832 3.250075 -0.139799
v 0.038496 3.204381 -0.228254
v 0.145553 3.164023 -0.164198
v -0.140919 2.223111 -0.194029
v -0.500214 2.142645 -0.255297
v -0.516352 2.090785 -0.335143
v -0.457689 2.132305 -0.400261
v -0.445813 2.209449 -0.319012
v -1.030457 2.492302 -0.462375
v -1.047888 2.467144 -0.510599
v -1.009680 2.485532 -0.549232
v -0.991357 2.525761 -0.499368
v -1.475502 3.277634 -0.769146
v -1.474757 3.268019 -0.778751
v -1.469878 3.274841 -0.789545
v -1.472651 3.287436 -0.780278
vt 0.7144 0.5580
vt 0.7201 0.5547
vt 0.7212 0.5635
vt 0.7186 0.5697
vt 0.7126 0.5641
vt 0.7094 0.5682
vt 0.7079 0.5564
vt 0.7016 0.5564
vt 0.7056 0.5496
vt 0.7025 0.5635
vt 0.7148 0.5470
vt 0.7237 0.5500
vt 0.7040 0.5832
vt 0.7170 0.5765
vt 0.7190 0.5866
vt 0.7071 0.5738
vt 0.6643 0.5324
vt 0.6785 0.5385
vt 0.6637 0.5423
vt 0.6736 0.5514
vt 0.6639 0.5488
vt 0.6492 0.5403
vt 0.6482 0.5496
vt 0.6379 0.5455
vt 0.6571 0.5528
vt 0.6988 0.5686
vt 0.6892 0.5757
vt 0.6897 0.5641
vt 0.6668 0.5593
vt 0.6754 0.5601
vt 0.6671 0.5651
vt 0.6774 0.5712
vt 0.6672 0.5701
vt 0.6590 0.5629
vt 0.6524 0.5675
vt 0.6535 0.5602
vt 0.6600 0.5732
vt 0.6652 0.5537
vt 0.6707 0.5832
vt 0.6849 0.5812
vt 0.6720 0.5936
vt 0.7301 0.5446
vt 0.7293 0.5618
vt 0.6557 0.5879
vt 0.6445 0.5870
vt 0.6512 0.5778
vt 0.7191 0.5324
vt 0.7105 0.5366
vt 0.6686 0.5752
vt 0.7081 0.5414
vt 0.6934 0.5445
vt 0.6892 0.5553
vt 0.6342 0.5547
vt 0.6477 0.5601
vt 0.6342 0.5670
vt 0.6403 0.5766
vt 0.6873 0.5686
vt 0.6879 0.5567
vt 0.6844 0.5458
vt 0.7254 0.5710
vt 0.7282 0.5848
vt 0.7380 0.5784
vt 0.7428 0.5686
vt 0.7399 0.5578
vt 0.7010 0.5354
vt 0.9266 0.6683
vt 0.9210 0.6692
vt 0.9181 0.6479
vt 0.9257 0.6464
vt 0.9110 0.6503
vt 0.9065 0.6424
vt 0.9157 0.6392
vt 0.9379 0.6702
vt 0.9324 0.6688
vt 0.9335 0.6466
vt 0.9409 0.6485
vt 0.9478 0.6514
vt 0.9438 0.6398
vt 0.9522 0.6438
vt 0.9250 0.6377
vt 0.9346 0.6377
vt 0.9436 0.6717
vt 0.9258 0.6919
vt 0.9217 0.6919
vt 0.9154 0.6704
vt 0.9382 0.6909
vt 0.9339 0.6921
vt 0.9299 0.6919
vt 0.9251 0.7202
vt 0.9220 0.7217
vt 0.9176 0.6902
vt 0.9284 0.7203
vt 0.9603 0.7306
vt 0.9631 0.7349
vt 0.9500 0.7338
vt 0.9501 0.7306
vt 0.9374 0.6961
vt 0.9347 0.7225
vt 0.9316 0.7212
vt 0.9609 0.7387
vt 0.9492 0.7363
vt 0.9179 0.6952
vt 0.9187 0.7217
vt 0.9628 0.7265
vt 0.9499 0.7275
vt 0.9610 0.7225
vt 0.9493 0.7248
vt 0.9300 0.7322
vt 0.9304 0.7305
vt 0.9294 0.7337
vt 0.9301 0.7289
vt 0.9295 0.7275
vt 0.9066 0.7306
vt 0.9065 0.7301
vt 0.9065 0.7310
vt 0.9066 0.7297
vt 0.9066 0.7293
vn -0.5050 0.3658 -0.7818
vn -0.5134 0.4412 -0.7360
vn -0.2212 0.3883 -0.8946
vn -0.1142 -0.5002 -0.8583
vn 0.0468 -0.2878 -0.9565
vn 0.0172 -0.4401 -0.8978
vn -0.8076 -0.1170 -0.5780
vn -0.9996 0.0255 -0.0089
vn -0.5874 -0.4237 -0.6896
vn 0.4916 0.2845 -0.8230
vn 0.0087 0.3662 -0.9305
vn 0.7613 0.2045 -0.6153
vn 0.9277 0.2122 -0.3070
vn 0.6527 -0.5816 -0.4856
vn 0.9701 -0.0514 -0.2370
vn 0.8780 -0.4074 -0.2512
vn 0.7494 -0.0978 -0.6548
vn 0.2486 -0.3769 -0.8923
vn 0.5017 -0.5038 -0.7031
vn 0.6332 0.3792 0.6747
vn 0.3826 0.3121 0.8696
vn 0.2023 0.4994 0.8424
vn 0.4874 -0.4954 0.7190
vn 0.2370 0.0883 0.9675
vn 0.1607 -0.3563 0.9204
vn 0.7590 -0.1008 0.6433
vn 0.9867 -0.0633 -0.1500
vn 0.7918 -0.3481 0.5020
vn -0.4174 0.3359 0.8444
vn -0.8571 0.3313 0.3945
vn -0.8909 0.4452 0.0896
vn -0.7657 -0.3353 0.5489
vn -0.9839 0.0185 0.1780
vn -0.9696 -0.1312 0.2065
vn -0.3510 0.2804 0.8934
vn -0.5541 0.2149 0.8042
vn -0.6359 -0.1168 0.7629
vn -0.6532 -0.5078 -0.5617
vn -0.2401 -0.8984 -0.3678
vn 0.1349 -0.5840 -0.8005
vn 0.5925 -0.7695 -0.2383
vn 0.7588 -0.6297 -0.1665
vn 0.2216 -0.9745 0.0342
vn -0.1437 -0.5020 0.8529
vn -0.0616 0.5804 0.8120
vn 0.3730 0.8171 -0.4396
vn 0.1713 0.9727 -0.1564
vn -0.5338 0.7349 -0.4183
vn -0.0970 0.8711 -0.4815
vn -0.4526 0.8513 -0.2653
vn -0.5879 0.5271 -0.6136
vn -0.8979 0.4403 0.0028
vn -0.5981 0.3823 -0.7044
vn -0.3745 -0.1359 -0.9172
vn -0.2566 -0.4022 -0.8788
vn -0.6444 -0.3086 -0.6996
vn 0.5563 0.3407 -0.7579
vn 0.1015 0.4196 -0.9020
vn 0.8668 0.2801 -0.4125
vn 0.7774 0.0320 -0.6281
vn 0.9356 -0.1106 -0.3353
vn 0.6116 -0.0437 -0.7900
vn -0.0138 -0.2935 -0.9559
vn 0.0987 -0.6102 -0.7861
vn 0.7080 0.3361 0.6211
vn 0.9488 0.2010 -0.2436
vn 0.0497 0.3661 0.9292
vn 0.4455 0.1169 0.8876
vn 0.3252 0.0155 0.9455
vn 0.8408 -0.0530 0.5387
vn -0.3522 0.2695 0.8963
vn -0.5262 0.2987 0.7962
vn -0.8998 0.4317 0.0628
vn -0.8669 0.1019 0.4879
vn -0.9657 -0.0268 0.2582
vn -0.6487 0.0250 0.7606
vn 0.0550 -0.9813 -0.1843
vn -0.5355 -0.7389 0.4089
vn -0.8225 -0.5504 -0.1432
vn 0.2878 -0.8438 -0.4530
vn 0.3452 -0.5171 -0.7832
vn 0.0236 -0.9981 0.0568
vn 0.5844 -0.7201 -0.3741
vn 0.7769 -0.6283 0.0405
vn -0.0358 -0.9880 0.1504
vn -0.2261 -0.8031 0.5513
vn 0.3629 -0.8688 0.3368
vn 0.0339 0.9341 0.3553
vn -0.3754 0.5080 0.7753
vn 0.3264 0.9391 0.1076
vn 0.0086 0.7426 -0.6697
vn -0.1268 0.8712 -0.4743
vn -0.1838 0.8274 -0.5307
vn -0.3299 0.7776 -0.5352
vn -0.6934 0.7205 0.0108
vn -0.3435 0.6770 -0.6508
vn -0.5651 -0.8028 0.1902
vn -0.1867 -0.9732 -0.1344
vn 0.1591 0.0891 0.9832
vn -0.9141 0.1566 0.3740
vn 0.4567 0.1066 -0.8832
vn -0.6312 0.1924 -0.7514
vn 0.9562 0.1728 0.2363
vn 0.5205 0.2023 -0.8295
vn -0.7042 0.0634 -0.7071
vn 0.1375 0.0971 0.9857
vn 0.9801 0.1216 0.1567
vn -0.8897 0.0526 0.4535
vn -0.6971 -0.0294 -0.7164
vn 0.4729 -0.0166 -0.8810
vn 0.0232 -0.0237 0.9995
vn -0.8968 0.0394 0.4407
vn 0.9825 0.0624 0.1756
vn 0.9601 -0.0640 0.2723
vn 0.2670 0.6612 -0.7011
vn -0.6375 0.0899 -0.7652
vn 0.5649 0.0033 -0.8251
vn 0.0744 0.1432 0.9869
vn 0.0239 -0.8135 -0.5811
vn -0.9387 0.0801 0.3352
vn -0.2698 0.7065 0.6542
vn -0.4175 -0.6920 0.5889
vn 0.5336 0.5653 -0.6290
vn -0.2737 -0.6999 -0.6597
vn -0.6016 -0.6050 0.5215
vn 0.1254 0.6424 0.7560
vn 0.8051 0.3212 -0.4986
vn -0.5059 -0.5057 -0.6989
vn 0.3632 0.5130 0.7778
vn -0.8476 -0.3098 0.4308
s off
f 1/1/1 2/2/1 3/3/1
f 3/3/2 4/4/2 5/5/2
f 5/5/3 4/4/3 6/6/3
f 7/7/4 8/8/4 9/9/4
f 5/5/5 10/10/5 7/7/5
f 7/7/6 10/10/6 8/8/6
f 1/1/7 11/11/7 2/2/7
f 2/2/8 11/11/8 12/12/8
f 7/7/9 9/9/9 11/11/9
f 13/13/10 14/14/10 15/15/10
f 16/16/11 4/4/11 14/14/11
f 13/17/12 15/18/12 17/19/12
f 17/19/13 18/20/13 19/21/13
f 20/22/14 21/23/14 22/24/14
f 17/19/15 23/25/15 20/22/15
f 20/22/16 23/25/16 21/23/16
f 13/13/17 24/26/17 16/16/17
f 16/16/18 10/10/18 6/6/18
f 20/27/19 22/28/19 24/26/19
f 25/29/20 18/20/20 26/30/20
f 25/29/21 26/30/21 27/31/21
f 27/31/22 28/32/22 29/33/22
f 30/34/23 31/35/23 32/36/23
f 27/31/24 33/37/24 30/34/24
f 30/34/25 33/37/25 31/35/25
f 25/29/26 23/25/26 34/38/26
f 34/38/27 23/25/27 19/21/27
f 30/34/28 32/36/28 23/25/28
f 35/39/29 28/32/29 36/40/29
f 35/39/30 36/40/30 37/41/30
f 37/42/31 38/43/31 12/12/31
f 39/44/32 40/45/32 41/46/32
f 37/42/33 11/11/33 39/47/33
f 39/47/34 11/11/34 40/48/34
f 35/39/35 33/37/35 42/49/35
f 42/49/36 33/37/36 29/33/36
f 39/44/37 41/46/37 33/37/37
f 51/50/38 11/11/38 9/9/38
f 44/51/39 8/8/39 45/52/39
f 45/52/40 10/10/40 22/28/40
f 45/53/41 21/23/41 46/54/41
f 46/54/42 23/25/42 32/36/42
f 44/55/43 31/35/43 43/56/43
f 31/35/44 33/37/44 41/46/44
f 47/57/45 28/32/45 26/30/45
f 48/58/46 18/20/46 49/59/46
f 49/59/47 18/20/47 15/18/47
f 50/60/48 4/4/48 3/3/48
f 49/61/49 14/14/49 50/60/49
f 48/62/50 38/43/50 47/63/50
f 3/3/51 2/2/51 38/43/51
f 2/2/52 12/12/52 38/43/52
f 1/1/53 3/3/53 5/5/53
f 1/1/54 5/5/54 7/7/54
f 5/5/55 6/6/55 10/10/55
f 1/1/56 7/7/56 11/11/56
f 13/13/57 16/16/57 14/14/57
f 16/16/58 6/6/58 4/4/58
f 17/19/59 15/18/59 18/20/59
f 13/17/60 17/19/60 20/22/60
f 17/19/61 19/21/61 23/25/61
f 13/13/62 20/27/62 24/26/62
f 16/16/63 24/26/63 10/10/63
f 24/26/64 22/28/64 10/10/64
f 25/29/65 34/38/65 18/20/65
f 34/38/66 19/21/66 18/20/66
f 27/31/67 26/30/67 28/32/67
f 25/29/68 27/31/68 30/34/68
f 27/31/69 29/33/69 33/37/69
f 25/29/70 30/34/70 23/25/70
f 35/39/71 42/49/71 28/32/71
f 42/49/72 29/33/72 28/32/72
f 37/42/73 36/64/73 38/43/73
f 35/39/74 37/41/74 39/44/74
f 37/42/75 12/12/75 11/11/75
f 35/39/76 39/44/76 33/37/76
f 44/51/77 43/65/77 9/9/77
f 43/56/78 41/46/78 40/45/78
f 40/48/79 11/11/79 51/50/79
f 44/51/80 9/9/80 8/8/80
f 45/52/81 8/8/81 10/10/81
f 44/55/82 45/53/82 46/54/82
f 45/53/83 22/24/83 21/23/83
f 46/54/84 21/23/84 23/25/84
f 44/55/85 46/54/85 31/35/85
f 43/56/86 31/35/86 41/46/86
f 46/54/87 32/36/87 31/35/87
f 48/58/88 47/57/88 26/30/88
f 47/57/89 36/40/89 28/32/89
f 48/58/90 26/30/90 18/20/90
f 48/62/91 49/61/91 50/60/91
f 49/61/92 15/15/92 14/14/92
f 50/60/93 14/14/93 4/4/93
f 48/62/94 50/60/94 38/43/94
f 47/63/95 38/43/95 36/64/95
f 50/60/96 3/3/96 38/43/96
f 43/65/97 40/48/97 51/50/97
f 43/65/98 51/50/98 9/9/98
f 62/66/99 63/67/99 60/68/99 61/69/99
f 60/68/100 59/70/100 54/71/100 53/72/100
f 65/73/101 66/74/101 57/75/101 58/76/101
f 59/77/102 58/76/102 55/78/102 54/79/102
f 57/75/103 61/69/103 52/80/103 56/81/103
f 58/76/104 57/75/104 56/81/104 55/78/104
f 64/82/105 65/73/105 58/76/105 59/77/105
f 63/67/106 62/66/106 67/83/106 68/84/106
f 66/74/107 62/66/107 61/69/107 57/75/107
f 63/67/108 64/85/108 59/70/108 60/68/108
f 65/73/109 64/82/109 69/86/109 70/87/109
f 66/74/110 65/73/110 70/87/110 71/88/110
f 68/84/111 67/83/111 72/89/111 73/90/111
f 64/85/112 63/67/112 68/84/112 69/91/112
f 71/88/113 67/83/113 62/66/113 66/74/113
f 67/83/114 71/88/114 76/92/114 72/89/114
f 77/93/115 70/94/115 80/95/115 81/96/115
f 70/87/116 77/97/116 74/98/116 75/99/116
f 71/88/117 70/87/117 75/99/117 76/92/117
f 61/69/118 60/68/118 53/72/118 52/80/118
f 70/94/119 69/100/119 79/101/119 80/95/119
f 77/102/120 68/84/120 73/90/120 74/103/120
f 68/104/121 77/93/121 81/96/121 78/105/121
f 69/106/122 68/104/122 78/105/122 79/107/122
f 81/96/123 80/95/123 84/108/123 85/109/123
f 80/95/124 79/101/124 83/110/124 84/108/124
f 79/107/125 78/105/125 82/111/125 83/112/125
f 78/105/126 81/96/126 85/109/126 82/111/126
f 85/109/127 84/108/127 88/113/127 89/114/127
f 84/108/128 83/110/128 87/115/128 88/113/128
f 82/111/129 85/109/129 89/114/129 86/116/129
f 83/112/130 82/111/130 86/116/130 87/117/130
