# Blender v2.78 (sub 0) OBJ File: 'Low_Poly_Trees_Pack.blend'
# www.blender.org
g Oak_Tree_m_05
v 0.277903 0.000000 0.096412
v -0.030808 0.000000 0.247076
v -0.217629 0.000000 0.038694
v -0.219787 0.000000 -0.136585
v -0.035125 0.000000 -0.355495
v 0.274378 0.000000 -0.189898
v 0.209000 0.372961 -0.196911
v -0.003051 0.401750 -0.310366
v -0.129569 0.389715 -0.160384
v -0.128090 0.396010 -0.040295
v -0.000093 0.414344 0.102475
v 0.211415 0.383243 -0.000751
v 0.292191 0.993007 0.022396
v 0.138437 1.032309 0.068776
v 0.042520 1.028662 -0.006959
v 0.040943 1.024129 -0.096105
v 0.135280 1.023240 -0.177194
v 0.289613 0.985602 -0.123220
v 0.197582 1.751099 -0.063182
v 0.080621 1.749091 0.000923
v -0.033116 1.739532 -0.068111
v -0.029893 1.731980 -0.201249
v 0.087067 1.733989 -0.265354
v 0.200805 1.743548 -0.196320
v -0.119584 2.766305 -0.041048
v -0.202831 2.753566 -0.000641
v -0.283701 2.732610 -0.048925
v -0.281718 2.724254 -0.145033
v -0.206576 2.733980 -0.200274
v -0.110058 2.759545 -0.147977
v -0.045679 3.667617 -0.433390
v -0.090352 3.725058 -0.392432
v -0.182012 3.679502 -0.388309
v -0.184945 3.729441 -0.501754
v -0.140272 3.672000 -0.542712
v -0.070638 3.641088 -0.508530
v 0.318297 3.997977 -1.311595
v 0.305013 4.043964 -1.301316
v 0.265482 4.063384 -1.322694
v 0.245875 4.013823 -1.359489
v 0.292049 3.971411 -1.343251
v -0.102585 3.795595 -0.518336
v -0.257335 4.264631 -0.095046
v -0.328637 4.246030 -0.080458
v -0.332660 4.262989 -0.169691
v -0.266363 4.295295 -0.196329
v -0.065408 4.804274 -0.139151
v -0.110350 4.814877 -0.122093
v -0.122297 4.801927 -0.179007
v -0.079446 4.796938 -0.206923
v 0.999954 6.695581 0.137983
v 1.373982 5.652002 0.495382
v 1.914498 6.087049 -1.335157
v 1.412931 6.973798 -0.728893
v -0.208014 6.885592 0.362739
v 0.535253 7.307067 -1.119578
v 0.358805 5.839113 0.840857
v 0.757444 4.678625 0.343022
v 1.413076 6.907030 -1.396090
v 1.489973 5.493501 -2.520859
v 0.820924 6.330226 -2.817337
v 0.855589 4.628094 -3.111580
v -0.277339 7.028340 -1.845882
v -0.711318 6.895707 -0.749029
v -0.908563 6.270133 -2.351978
v -0.310292 4.387411 -2.671834
v 0.785795 4.055566 -2.774503
v 0.799339 3.889220 -1.557997
v -0.331251 3.749146 -1.617951
v -1.347484 5.140048 -1.952880
v -1.621302 5.588090 -0.991340
v -1.517575 6.084065 -1.384512
v -1.115785 4.128705 -0.872615
v 0.040477 5.348641 -3.215031
v 0.727018 3.964942 -0.316253
v 1.884045 4.835362 -0.445511
v -0.314269 4.830288 0.455039
v -0.477458 5.827490 0.861613
v -1.153029 5.137904 -0.106898
v -0.955829 6.111807 0.072732
v 1.893921 4.413707 -1.978290
vt 0.9082 0.7804
vt 0.9014 0.7812
vt 0.8978 0.7679
vt 0.9060 0.7653
vt 0.8976 0.7824
vt 0.8927 0.7703
vt 0.9171 0.7792
vt 0.9167 0.7653
vt 0.9279 0.8016
vt 0.9224 0.8002
vt 0.9244 0.7791
vt 0.9324 0.7805
vt 0.9386 0.7817
vt 0.9355 0.7681
vt 0.9441 0.7705
vt 0.9251 0.7665
vt 0.9320 0.8020
vt 0.9128 0.8019
vt 0.9089 0.8024
vt 0.9178 0.8004
vt 0.9060 0.8029
vt 0.9312 0.8254
vt 0.9271 0.8248
vt 0.9231 0.8243
vt 0.9190 0.8245
vt 0.9149 0.8253
vt 0.9107 0.8261
vt 0.9063 0.8264
vt 0.9169 0.8587
vt 0.9139 0.8589
vt 0.9233 0.8577
vt 0.9198 0.8581
vt 0.9109 0.8589
vt 0.9299 0.8582
vt 0.9270 0.8577
vt 0.9502 0.7656
vt 0.9529 0.7667
vt 0.9527 0.7993
vt 0.9503 0.7994
vt 0.9471 0.7653
vt 0.9475 0.7977
vt 0.9441 0.7661
vt 0.9446 0.8004
vt 0.9560 0.7679
vt 0.9554 0.8003
vt 0.9591 0.7676
vt 0.9617 0.7667
vt 0.9609 0.8014
vt 0.9583 0.8014
vt 0.9565 0.8331
vt 0.9551 0.8332
vt 0.9585 0.8335
vt 0.9536 0.8337
vt 0.9683 0.7660
vt 0.9717 0.7653
vt 0.9705 0.7859
vt 0.9680 0.7869
vt 0.9456 0.8016
vt 0.9485 0.8034
vt 0.9520 0.8341
vt 0.9499 0.8340
vt 0.9618 0.7654
vt 0.9648 0.7659
vt 0.9641 0.7864
vt 0.9618 0.7856
vt 0.9756 0.7660
vt 0.9734 0.7865
vt 0.9671 0.8059
vt 0.9656 0.8058
vt 0.9636 0.8062
vt 0.9621 0.8062
vt 0.9689 0.8069
vt 0.5846 0.5573
vt 0.5933 0.5547
vt 0.5915 0.5716
vt 0.5841 0.5663
vt 0.5726 0.5678
vt 0.5781 0.5504
vt 0.5880 0.5470
vt 0.6011 0.5464
vt 0.5802 0.5743
vt 0.5924 0.5866
vt 0.5375 0.5324
vt 0.5519 0.5387
vt 0.5370 0.5434
vt 0.5303 0.5528
vt 0.5221 0.5429
vt 0.5624 0.5757
vt 0.5625 0.5567
vt 0.5401 0.5612
vt 0.5468 0.5514
vt 0.5486 0.5601
vt 0.5579 0.5693
vt 0.5404 0.5701
vt 0.5322 0.5629
vt 0.5257 0.5675
vt 0.5246 0.5601
vt 0.5332 0.5732
vt 0.5384 0.5537
vt 0.5289 0.5879
vt 0.5177 0.5870
vt 0.5244 0.5778
vt 0.5923 0.5324
vt 0.5837 0.5366
vt 0.5517 0.5821
vt 0.5725 0.5374
vt 0.5079 0.5533
vt 0.5611 0.5567
vt 0.6109 0.5782
vt 0.6025 0.5618
vt 0.6160 0.5686
vt 0.6131 0.5578
vt 0.5452 0.5936
vt 0.5121 0.5745
vn -0.7217 0.2816 0.6323
vn -0.9746 0.2239 0.0072
vn 0.4346 0.2791 0.8563
vn 0.4258 0.0756 -0.9017
vn -0.7596 0.1345 -0.6364
vn 0.9854 0.1697 -0.0157
vn 0.4735 0.0636 -0.8785
vn -0.7015 0.2758 -0.6572
vn -0.6966 0.1724 0.6965
vn 0.3688 -0.0579 0.9277
vn 0.9914 -0.1303 -0.0077
vn -0.9656 0.2599 0.0007
vn -0.5587 -0.1578 -0.8142
vn 0.4109 -0.0615 -0.9096
vn 0.3903 0.1351 0.9107
vn -0.5690 0.0211 0.8221
vn -0.9947 -0.1029 -0.0018
vn 0.9928 0.1197 -0.0041
vn -0.4950 -0.1399 0.8575
vn 0.9552 0.2942 0.0332
vn -0.9695 -0.2451 -0.0050
vn -0.5215 -0.0911 -0.8484
vn 0.4670 0.1886 -0.8639
vn 0.4518 0.1254 0.8832
vn 0.5817 0.2642 0.7693
vn -0.3609 0.3671 0.8573
vn -0.9935 0.1104 0.0264
vn 0.9935 -0.0916 -0.0675
vn -0.6610 -0.2043 -0.7220
vn 0.4240 -0.3477 -0.8362
vn 0.6987 -0.7152 0.0206
vn -0.8184 -0.2777 -0.5031
vn -0.3129 -0.8217 -0.4763
vn 0.8539 0.2532 0.4548
vn -0.4743 0.3643 -0.8014
vn -0.7325 0.6682 -0.1301
vn 0.2603 -0.4056 0.8762
vn 0.9583 0.2833 0.0365
vn 0.2891 0.8588 0.4229
vn -0.9712 -0.2343 -0.0440
vn -0.4736 0.1643 -0.8653
vn 0.9225 -0.3447 -0.1734
vn 0.2641 -0.0231 0.9642
vn -0.9251 0.3631 0.1110
vn 0.8387 0.4195 0.3473
vn 0.1777 0.9092 0.3765
vn 0.2104 0.9075 0.3635
vn 0.3607 0.4153 0.8351
vn 0.2558 -0.3056 0.9172
vn 0.2341 0.5061 0.8301
vn 0.7607 0.4290 -0.4871
vn 0.7571 0.4315 -0.4906
vn -0.2165 0.6602 -0.7192
vn 0.3889 0.9167 -0.0917
vn -0.3161 0.9487 -0.0104
vn -0.2233 -0.4742 -0.8516
vn 0.1323 -0.8490 -0.5116
vn -0.9631 -0.0117 -0.2688
vn -0.7035 -0.5878 -0.3995
vn -0.9362 -0.3333 -0.1113
vn -0.7277 -0.1164 -0.6759
vn -0.2385 0.5216 -0.8192
vn -0.8494 0.1514 -0.5056
vn -0.6070 -0.3832 0.6962
vn 0.0425 -0.3815 0.9234
vn 0.0282 -0.3734 0.9272
vn -0.1047 -0.9930 0.0545
vn 0.0782 -0.8527 0.5166
vn -0.6014 -0.4969 0.6256
vn -0.7368 0.5851 0.3389
vn -0.6349 0.7559 -0.1598
vn -0.8995 -0.2846 0.3314
vn 0.7290 -0.0695 -0.6810
vn 0.9076 0.1408 -0.3955
vn 0.4917 -0.8388 0.2339
vn 0.9240 0.2063 0.3219
vn 0.5515 -0.4584 0.6969
vn 0.8672 0.1706 0.4679
vn 0.8537 0.5182 -0.0517
vn 0.5538 0.1528 -0.8185
vn 0.1786 0.8835 -0.4330
vn 0.2023 0.8171 -0.5399
vn -0.2478 -0.4065 -0.8794
vn 0.2700 0.1694 -0.9478
vn -0.2983 -0.9461 -0.1261
vn -0.6749 -0.6252 -0.3920
vn -0.5944 -0.0525 -0.8025
vn 0.5154 -0.5932 0.6184
vn -0.0191 -0.6780 0.7348
vn -0.2402 -0.7908 0.5629
vn -0.8413 0.0715 0.5359
vn 0.0166 0.4229 0.9060
vn -0.2747 0.9523 0.1330
vn -0.7830 0.5496 0.2914
vn -0.6448 0.7158 -0.2682
vn -0.8456 0.4288 0.3178
vn -0.8627 0.0827 0.4989
vn 0.3877 -0.9127 -0.1291
vn 0.6119 -0.4554 -0.6467
vn 0.6050 -0.7918 0.0835
vn 0.9998 -0.0165 0.0110
vn -0.6849 0.4460 0.5761
s off
f 11/1/1 10/2/1 3/3/1 2/4/1
f 10/2/2 9/5/2 4/6/2 3/3/2
f 12/7/3 11/1/3 2/4/3 1/8/3
f 17/9/4 18/10/4 7/11/4 8/12/4
f 9/13/5 8/12/5 5/14/5 4/15/5
f 7/11/6 12/7/6 1/8/6 6/16/6
f 8/12/7 7/11/7 6/16/7 5/14/7
f 16/17/8 17/9/8 8/12/8 9/13/8
f 14/18/9 15/19/9 10/2/9 11/1/9
f 13/20/10 14/18/10 11/1/10 12/7/10
f 18/10/11 13/20/11 12/7/11 7/11/11
f 15/19/12 16/21/12 9/5/12 10/2/12
f 17/9/13 16/17/13 22/22/13 23/23/13
f 18/10/14 17/9/14 23/23/14 24/24/14
f 14/18/15 13/20/15 19/25/15 20/26/15
f 15/19/16 14/18/16 20/26/16 21/27/16
f 16/21/17 15/19/17 21/27/17 22/28/17
f 24/24/18 19/25/18 13/20/18 18/10/18
f 21/27/19 20/26/19 26/29/19 27/30/19
f 19/25/20 24/24/20 30/31/20 25/32/20
f 22/28/21 21/27/21 27/30/21 28/33/21
f 23/23/22 22/22/22 28/34/22 29/35/22
f 24/24/23 23/23/23 29/35/23 30/31/23
f 20/26/24 19/25/24 25/32/24 26/29/24
f 26/36/25 25/37/25 31/38/25 32/39/25
f 27/40/26 26/36/26 32/39/26 33/41/26
f 28/42/27 27/40/27 33/41/27 34/43/27
f 25/37/28 30/44/28 36/45/28 31/38/28
f 29/46/29 28/47/29 34/48/29 35/49/29
f 30/44/30 29/46/30 35/49/30 36/45/30
f 31/38/31 36/45/31 41/50/31 37/51/31
f 35/49/32 34/48/32 40/52/32
f 36/45/33 35/49/33 40/52/33 41/50/33
f 32/39/34 31/38/34 37/51/34 38/53/34
f 42/54/35 34/55/35 45/56/35 46/57/35
f 34/58/36 42/59/36 39/60/36 40/61/36
f 33/62/37 32/63/37 43/64/37 44/65/37
f 32/63/38 42/54/38 46/57/38 43/64/38
f 42/59/39 32/39/39 38/53/39 39/60/39
f 34/55/40 33/66/40 44/67/40 45/56/40
f 46/57/41 45/56/41 49/68/41 50/69/41
f 43/64/42 46/57/42 50/69/42 47/70/42
f 44/65/43 43/64/43 47/70/43 48/71/43
f 45/56/44 44/67/44 48/72/44 49/68/44
f 51/73/45 52/74/45 53/75/45
f 54/76/46 56/77/46 51/73/46
f 51/73/47 56/77/47 55/78/47
f 51/73/48 57/79/48 52/74/48
f 52/74/49 57/79/49 58/80/49
f 51/73/50 55/78/50 57/79/50
f 59/81/51 53/75/51 60/82/51
f 59/83/52 60/84/52 61/85/52
f 61/85/53 65/86/53 63/87/53
f 59/81/54 56/77/54 54/76/54
f 63/88/55 64/89/55 56/77/55
f 66/90/56 62/91/56 67/92/56
f 66/90/57 68/93/57 69/94/57
f 70/95/58 71/96/58 72/97/58
f 66/90/59 73/98/59 70/95/59
f 70/95/60 73/98/60 71/96/60
f 66/90/61 65/86/61 74/99/61
f 74/99/62 65/86/62 61/85/62
f 70/95/63 72/97/63 65/86/63
f 77/100/64 78/101/64 79/102/64
f 58/80/65 57/79/65 77/103/65
f 77/103/66 57/79/66 78/104/66
f 75/105/67 73/98/67 68/93/67
f 68/93/68 73/98/68 69/94/68
f 77/100/69 79/102/69 73/98/69
f 80/106/70 55/78/70 64/89/70
f 64/107/71 63/87/71 72/97/71
f 71/96/72 73/98/72 79/102/72
f 81/108/73 62/91/73 60/84/73
f 60/82/74 53/75/74 81/109/74
f 81/109/75 76/110/75 68/111/75
f 53/75/76 52/74/76 76/110/76
f 52/74/77 58/80/77 76/110/77
f 51/73/78 53/75/78 54/76/78
f 59/81/79 54/76/79 53/75/79
f 61/85/80 60/84/80 62/91/80
f 59/83/81 61/85/81 63/87/81
f 59/81/82 63/88/82 56/77/82
f 66/90/83 74/99/83 62/91/83
f 74/99/84 61/85/84 62/91/84
f 66/90/85 67/92/85 68/93/85
f 66/90/86 69/94/86 73/98/86
f 66/90/87 70/95/87 65/86/87
f 58/80/88 75/112/88 76/110/88
f 75/105/89 58/113/89 77/100/89
f 75/105/90 77/100/90 73/98/90
f 80/114/91 79/102/91 78/101/91
f 78/104/92 57/79/92 55/78/92
f 64/89/93 55/78/93 56/77/93
f 80/114/94 64/107/94 72/97/94
f 72/97/95 63/87/95 65/86/95
f 80/114/96 72/97/96 71/96/96
f 80/114/97 71/96/97 79/102/97
f 81/108/98 68/93/98 67/92/98
f 81/108/99 67/92/99 62/91/99
f 68/111/100 76/110/100 75/112/100
f 81/109/101 53/75/101 76/110/101
f 80/106/102 78/104/102 55/78/102
