# Blender v2.78 (sub 0) OBJ File: 'Low_Poly_Trees_Pack.blend'
# www.blender.org
g Oak_Tree_NoLeaves_crk_l_03
v -0.396962 -0.010686 0.283879
v -0.100948 -0.010686 0.565723
v 0.424350 -0.010686 0.279496
v 0.431596 -0.010686 -0.104764
v -0.309087 0.719203 0.282918
v -0.000094 0.719203 0.430698
v 0.240369 0.719203 0.322431
v 0.231121 0.740085 0.001521
v -0.078278 0.283612 0.366140
v 0.271660 0.283612 0.195812
v 0.334946 0.283612 -0.068293
v -0.333552 0.283612 0.241146
v 0.003321 -0.010686 0.640586
v 0.412568 -0.010686 0.491632
v -0.014775 0.283612 0.440394
v 0.285936 0.283612 0.330944
v 0.153039 1.841343 0.510272
v -0.015326 1.850471 0.595599
v -0.227244 1.918109 0.455264
v -0.529697 -0.000986 -0.305545
v -0.145619 -0.000986 -0.496807
v -0.031347 0.804190 -0.228477
v -0.104530 0.324850 -0.380723
v -0.409749 0.337087 -0.216983
v -0.287827 0.850725 -0.082984
v 0.031193 1.986525 0.065230
v 0.192666 1.895674 0.243328
v 0.393611 1.972774 0.530302
v 0.473798 2.150870 0.697329
v 1.192701 1.121877 1.886682
v 0.981177 1.079517 2.022022
v 0.848708 1.315031 2.133462
v 1.151859 1.408054 2.239753
v 1.326634 1.314637 1.985295
v 3.133668 0.489409 2.646743
v 3.036397 0.436726 2.701935
v 3.018939 0.467025 2.835381
v 3.116867 0.545951 2.860262
v 3.156854 0.622437 2.716227
v 1.182001 1.109893 2.333999
v 0.205528 1.149548 3.084499
v 0.187492 1.243054 3.088743
v 0.272925 1.279278 3.170474
v 0.319099 1.162052 3.167930
v 0.111684 0.714726 4.186827
v 0.087167 0.746660 4.198675
v 0.123929 0.779753 4.221418
v 0.163405 0.744853 4.204052
v 0.576508 0.337341 4.810322
v 0.546057 0.358500 4.817382
v 0.566957 0.401911 4.826126
v 0.610645 0.381680 4.813006
v 3.621090 0.019043 3.940390
v 3.576613 -0.019355 3.992949
v 3.510002 0.026365 4.027757
v 3.516601 0.099282 3.991365
v 3.595189 0.092768 3.930126
v 4.436122 -0.025456 5.259890
v 4.410888 -0.017969 5.276133
v 4.415773 0.003331 5.269724
v 4.438777 0.001657 5.254184
v 3.220139 0.528918 2.792749
v 4.531218 1.276649 2.710088
v 4.519720 1.297759 2.837044
v 4.503574 1.313108 2.763998
v 4.533858 1.251224 2.803799
v 5.668806 0.954369 3.054575
v 5.648779 0.968357 3.108510
v 5.660567 0.971387 3.076449
v 5.665033 0.943189 3.098637
v 0.175909 1.837554 0.545802
v 0.024145 1.838270 0.651963
v 0.040180 2.024323 0.837178
v 0.299554 2.179811 0.905237
v 0.220662 2.121058 0.278339
v 0.202486 2.383488 0.302066
v 0.126604 2.328095 0.653274
v 0.196704 1.280273 0.416352
v -0.007710 1.284837 0.513148
v 0.211893 1.317880 0.122425
v -0.250885 1.571791 0.405480
v -0.251643 1.444446 0.043372
v 0.013127 1.644994 -0.019611
vt 0.9498 0.6585
vt 0.9477 0.6542
vt 0.9519 0.6520
vt 0.9542 0.6566
vt 0.9295 0.6407
vt 0.9282 0.6467
vt 0.9243 0.6458
vt 0.9262 0.6408
vt 0.9467 0.6533
vt 0.9427 0.6580
vt 0.9399 0.6543
vt 0.9444 0.6501
vt 0.9508 0.6510
vt 0.9474 0.6476
vt 0.9300 0.6369
vt 0.9254 0.6367
vt 0.9446 0.6606
vt 0.9252 0.6535
vt 0.9267 0.6583
vt 0.9246 0.6619
vt 0.9221 0.6600
vt 0.9501 0.6603
vt 0.9542 0.6590
vt 0.9191 0.6587
vt 0.9218 0.6523
vt 0.9371 0.6626
vt 0.9320 0.6672
vt 0.9295 0.6653
vt 0.9324 0.6623
vt 0.9324 0.6488
vt 0.9353 0.6516
vt 0.9308 0.6580
vt 0.9398 0.6457
vt 0.9360 0.6432
vt 0.9381 0.6394
vt 0.9426 0.6419
vt 0.9391 0.6645
vt 0.9337 0.6687
vt 0.9632 0.6420
vt 0.9651 0.6638
vt 0.9611 0.6645
vt 0.9601 0.6418
vt 0.9544 0.6405
vt 0.9574 0.6408
vt 0.9575 0.6637
vt 0.9543 0.6632
vt 0.9667 0.6404
vt 0.9683 0.6612
vt 0.9698 0.6390
vt 0.9717 0.6619
vt 0.9721 0.6390
vt 0.9663 0.6931
vt 0.9644 0.6917
vt 0.9683 0.6656
vt 0.9679 0.6923
vt 0.9078 0.6378
vt 0.9117 0.6367
vt 0.9117 0.6533
vt 0.9101 0.6534
vt 0.9628 0.6919
vt 0.9613 0.6920
vt 0.9156 0.6385
vt 0.9190 0.6371
vt 0.9145 0.6533
vt 0.9133 0.6530
vt 0.9718 0.6624
vt 0.9696 0.6912
vt 0.9030 0.6375
vt 0.9083 0.6534
vt 0.9113 0.6682
vt 0.9106 0.6681
vt 0.9131 0.6680
vt 0.9126 0.6679
vt 0.9119 0.6680
vt 0.9121 0.6787
vt 0.9117 0.6789
vt 0.9128 0.6787
vt 0.9111 0.6789
vt 0.9132 0.6789
vt 0.9393 0.6752
vt 0.9394 0.6757
vt 0.9387 0.6759
vt 0.9387 0.6752
vt 0.9686 0.7135
vt 0.9675 0.7133
vt 0.9643 0.7130
vt 0.9634 0.7136
vt 0.9643 0.6934
vt 0.9653 0.7125
vt 0.9524 0.6699
vt 0.9542 0.6687
vt 0.9530 0.6888
vt 0.9518 0.6889
vt 0.9666 0.7127
vt 0.9661 0.7326
vt 0.9658 0.7326
vt 0.9665 0.7327
vt 0.9669 0.7327
vt 0.9654 0.7327
vt 0.9375 0.6756
vt 0.9376 0.6752
vt 0.9379 0.6752
vt 0.9379 0.6756
vt 0.9493 0.6697
vt 0.9512 0.6688
vt 0.9510 0.6889
vt 0.9501 0.6886
vt 0.9477 0.6687
vt 0.9492 0.6889
vt 0.9523 0.7052
vt 0.9520 0.7050
vt 0.9516 0.7051
vt 0.9512 0.7052
vt 0.9528 0.7051
vt 0.9383 0.6752
vt 0.9386 0.6755
vt 0.9383 0.6757
vt 0.9379 0.6752
vt 0.9698 0.6382
vt 0.9721 0.6385
vt 0.9543 0.6400
vt 0.9600 0.6383
vt 0.9626 0.6380
vt 0.9576 0.6367
vt 0.8297 0.6582
vt 0.8196 0.6514
vt 0.8408 0.6568
vt 0.8201 0.6938
vt 0.8388 0.6797
vt 0.8446 0.6969
vt 0.8258 0.7111
vt 0.8546 0.7077
vt 0.8388 0.7215
vt 0.8057 0.7067
vt 0.8066 0.6797
vt 0.8200 0.6919
vt 0.7870 0.7050
vt 0.7878 0.6797
vt 0.8546 0.7178
vt 0.7729 0.7051
vt 0.7679 0.6963
vt 0.7744 0.6831
vn 0.2854 0.5510 0.7842
vn 0.9871 0.1284 0.0958
vn -0.4345 -0.0585 0.8988
vn -0.5478 0.3857 0.7423
vn 0.9133 0.3949 0.0994
vn 0.3730 0.0326 0.9272
vn 0.7465 0.1462 -0.6491
vn 0.9045 0.4265 -0.0065
vn 0.9893 0.1015 -0.1045
vn -0.5911 0.4563 0.6651
vn -0.7594 0.0401 0.6494
vn 0.9941 0.0355 0.1030
vn -0.5410 -0.1114 0.8336
vn -0.4190 0.2289 -0.8786
vn -0.9972 0.0698 -0.0277
vn -0.4223 0.3590 -0.8323
vn -0.4293 0.3270 -0.8419
vn -0.9863 0.1343 0.0959
vn -0.9441 0.2590 0.2039
vn 0.6177 0.2007 -0.7604
vn 0.5605 0.2448 -0.7912
vn 0.4322 -0.1202 0.8937
vn 0.5219 0.8353 0.1729
vn 0.1468 -0.8221 -0.5501
vn -0.4678 0.6106 0.6390
vn 0.8241 -0.0735 -0.5617
vn -0.8388 -0.4487 0.3084
vn -0.2398 -0.9105 -0.3367
vn 0.3323 0.9328 0.1395
vn -0.1986 0.2117 0.9569
vn 0.6782 0.2750 0.6814
vn -0.0739 -0.8394 -0.5384
vn 0.4291 0.2421 -0.8702
vn -0.8032 -0.1662 -0.5721
vn -0.2637 0.9579 -0.1134
vn -0.3758 -0.8849 0.2753
vn 0.0264 -0.9959 0.0870
vn 0.4042 -0.8649 -0.2975
vn -0.9347 -0.2908 -0.2045
vn 0.8443 0.4343 0.3140
vn -0.6356 0.7264 0.2615
vn 0.5710 0.8171 0.0800
vn -0.6980 0.2499 0.6711
vn 0.5589 -0.4599 -0.6900
vn -0.6829 -0.7281 0.0591
vn 0.1427 -0.2153 0.9661
vn -0.6642 -0.7475 0.0059
vn 0.2490 -0.8760 -0.4130
vn 0.9315 -0.0706 -0.3568
vn 0.4851 -0.8648 -0.1295
vn -0.7091 0.5239 0.4719
vn 0.0892 0.9959 0.0118
vn -0.7552 0.3452 0.5572
vn -0.3791 -0.8917 0.2474
vn 0.4121 -0.8658 -0.2838
vn 0.8443 0.1117 -0.5240
vn 0.5619 0.1174 0.8189
vn -0.4443 0.8416 0.3072
vn 0.2998 0.9192 0.2553
vn -0.2710 0.5619 -0.7816
vn 0.3213 -0.5859 0.7440
vn -0.3486 -0.5871 0.7306
vn 0.3609 0.8339 -0.4176
vn -0.1920 -0.9481 -0.2535
vn 0.2409 0.9577 0.1575
vn 0.8437 0.4081 0.3488
vn 0.9516 0.2685 0.1496
vn -0.0949 -0.9896 -0.1078
vn 0.4669 -0.7959 -0.3854
vn -0.7900 -0.3971 0.4672
vn 0.4193 0.8784 0.2291
vn 0.8478 0.1057 -0.5197
vn -0.9747 -0.0478 -0.2181
vn -0.7633 -0.6272 0.1548
vn -0.3491 0.7716 -0.5317
vn 0.4144 -0.1223 0.9018
vn -0.6216 0.7394 -0.2587
vn -0.8439 0.1519 -0.5145
vn -0.4640 -0.1105 0.8789
vn 0.9985 0.0524 0.0146
vn 0.6951 0.1510 -0.7029
vn -0.2265 0.8145 -0.5341
vn 0.1551 0.9535 0.2582
vn 0.2715 0.9344 0.2305
s off
f 16/1/1 15/2/1 13/3/1 14/4/1
f 11/5/2 8/6/2 7/7/2 10/8/2
f 9/9/3 6/10/3 5/11/3 12/12/3
f 2/13/4 9/9/4 12/12/4 1/14/4
f 4/15/5 11/5/5 10/8/5 3/16/5
f 7/17/6 6/10/6 15/2/6 16/1/6
f 80/18/7 83/19/7 26/20/7 27/21/7
f 10/22/8 16/1/8 14/4/8 3/23/8
f 7/17/9 16/1/9 10/22/9
f 15/2/10 9/9/10 2/13/10 13/3/10
f 9/9/11 15/2/11 6/10/11
f 80/18/12 27/21/12 17/24/12 78/25/12
f 79/26/13 18/27/13 19/28/13 81/29/13
f 83/19/14 22/30/14 25/31/14 82/32/14
f 82/32/15 25/31/15 5/11/15 81/29/15
f 24/33/16 23/34/16 21/35/16 20/36/16
f 25/31/17 22/30/17 23/34/17 24/33/17
f 5/11/18 25/31/18 24/33/18 12/12/18
f 12/12/19 24/33/19 20/36/19 1/14/19
f 11/5/20 23/34/20 22/30/20 8/6/20
f 4/15/21 21/35/21 23/34/21 11/5/21
f 78/37/22 17/38/22 18/27/22 79/26/22
f 74/39/23 33/40/23 34/41/23 29/42/23
f 71/43/24 28/44/24 30/45/24 31/46/24
f 74/39/25 73/47/25 32/48/25 33/40/25
f 28/44/26 29/42/26 34/41/26 30/45/26
f 73/47/27 72/49/27 31/50/27 32/48/27
f 72/49/28 71/51/28 31/50/28
f 34/41/29 33/40/29 38/52/29 39/53/29
f 33/40/30 40/54/30 37/55/30 38/52/30
f 40/56/31 33/57/31 43/58/31 44/59/31
f 31/46/32 30/45/32 35/60/32 36/61/32
f 30/45/33 34/41/33 39/53/33 35/60/33
f 32/62/34 31/63/34 41/64/34 42/65/34
f 33/57/35 32/62/35 42/65/35 43/58/35
f 40/54/36 31/66/36 36/67/36 37/55/36
f 31/68/37 40/56/37 44/59/37 41/69/37
f 41/69/38 44/59/38 48/70/38 45/71/38
f 42/65/39 41/64/39 45/72/39 46/73/39
f 44/59/40 43/58/40 47/74/40 48/70/40
f 43/58/41 42/65/41 46/73/41 47/74/41
f 48/70/42 47/74/42 51/75/42 52/76/42
f 47/74/43 46/73/43 50/77/43 51/75/43
f 45/71/44 48/70/44 52/76/44 49/78/44
f 46/73/45 45/72/45 49/79/45 50/77/45
f 50/80/46 49/81/46 52/82/46 51/83/46
f 37/55/47 36/67/47 54/84/47 55/85/47
f 36/61/48 35/60/48 53/86/48 54/87/48
f 35/60/49 62/88/49 57/89/49 53/86/49
f 62/90/50 35/91/50 63/92/50 66/93/50
f 38/52/51 37/55/51 55/85/51 56/94/51
f 57/89/52 56/94/52 60/95/52 61/96/52
f 56/94/53 55/85/53 59/97/53 60/95/53
f 55/85/54 54/84/54 58/98/54 59/97/54
f 54/87/55 53/86/55 58/99/55
f 53/86/56 57/89/56 61/96/56 58/99/56
f 61/100/57 60/101/57 59/102/57 58/103/57
f 39/104/58 38/105/58 64/106/58 65/107/58
f 62/88/59 38/52/59 56/94/59 57/89/59
f 35/108/60 39/104/60 65/107/60 63/109/60
f 38/105/61 62/90/61 66/93/61 64/106/61
f 64/106/62 66/93/62 70/110/62 68/111/62
f 63/109/63 65/107/63 69/112/63 67/113/63
f 66/93/64 63/92/64 67/114/64 70/110/64
f 65/107/65 64/106/65 68/111/65 69/112/65
f 69/115/66 68/116/66 70/117/66
f 67/118/67 69/115/67 70/117/67
f 18/119/68 17/120/68 71/51/68 72/49/68
f 71/43/69 17/121/69 28/44/69
f 72/49/70 73/47/70 18/119/70
f 74/39/71 29/42/71 76/122/71 77/123/71
f 29/42/72 28/44/72 75/124/72 76/122/72
f 76/125/73 75/126/73 77/127/73
f 77/128/74 75/129/74 28/130/74 74/131/74
f 17/132/75 73/133/75 74/131/75 28/130/75
f 7/17/76 78/37/76 79/26/76 6/10/76
f 81/134/77 83/135/77 82/136/77
f 81/134/78 19/137/78 26/138/78 83/135/78
f 6/10/79 79/26/79 81/29/79 5/11/79
f 8/6/80 80/18/80 78/25/80 7/7/80
f 8/6/81 22/30/81 83/19/81 80/18/81
f 18/139/82 73/133/82 17/132/82
f 26/138/83 19/137/83 18/140/83 17/141/83
f 27/142/84 26/138/84 17/141/84
