# Blender v2.78 (sub 0) OBJ File: 'Low_Poly_Trees_Pack.blend'
# www.blender.org
g Oak_Tree_crk_m_01
v 1.041325 0.158277 4.630597
v 1.633596 0.124689 4.922944
v 2.142898 0.702622 4.956856
v 1.880732 1.271658 4.551946
v 1.091636 1.025286 4.388475
v 0.907967 -0.000348 3.747450
v 0.944340 0.711360 3.897698
v 1.609111 -0.254602 4.450285
v 2.390450 0.077628 4.637881
v 1.274064 1.456554 3.806013
v 2.275214 1.638233 3.789485
v 2.237499 1.568168 2.854920
v 3.091825 1.523734 3.232940
v 1.158059 1.173496 2.980025
v 1.190236 0.534911 2.562280
v 2.386814 1.043214 2.037302
v 3.320538 1.269006 2.527977
v 3.563257 1.132857 3.475197
v 3.855080 0.613465 2.663574
v 3.296051 0.985277 4.414582
v 3.920870 0.132402 3.070617
v 3.236466 0.276983 1.964996
v 2.752699 -0.246560 1.978604
v 2.493276 0.222907 1.753966
v 3.427062 -0.199578 2.726790
v 3.398025 0.082104 3.938249
v 3.119234 0.591388 4.629639
v 2.660142 -0.195345 3.779082
v 2.548540 -0.235604 2.912803
v 1.782202 -0.294287 2.742611
v -0.247440 5.681535 -2.573959
v -0.978109 6.196886 -2.685861
v -0.914505 7.183564 -2.427344
v -0.018530 6.882105 -1.685008
v 0.285632 6.049235 -1.991773
v -0.132699 4.742853 -2.008803
v -0.864198 4.833601 -2.213489
v 0.442112 5.491990 -1.482614
v -1.278149 5.461013 -2.562995
v 0.493995 6.048777 -1.338105
v -0.074251 6.935020 -0.654766
v 0.051266 6.214567 -0.135811
v -0.759031 7.033797 0.008128
v 0.243242 5.117464 -0.575259
v -0.580754 5.393117 0.548108
v -1.836368 6.447165 0.523659
v -1.573818 7.241884 -0.211968
v -1.568112 7.545722 -1.262219
v -2.507962 6.344921 -0.660303
v -1.873713 5.371898 0.453741
v -1.813778 4.772851 0.030509
v -1.237757 4.798409 0.375883
v -2.422659 5.544809 -0.463660
v -0.913273 6.414586 0.534864
v -2.377218 6.404260 -1.783892
v -1.845184 7.214951 -1.849343
v -2.313975 5.585720 -1.743321
v -2.045866 5.033030 -1.224135
v -1.623368 4.479730 -1.301550
v -0.490071 4.163280 -1.063057
v -0.940254 7.507585 -1.057732
v -2.015153 6.841812 -0.503109
v 0.821513 -0.024841 0.620045
v 0.896969 0.151170 0.622395
v 0.937113 0.056651 0.545360
v 0.817833 0.091868 0.679457
v 1.267668 0.094606 1.806610
v 1.307825 0.252793 1.822098
v 1.377690 0.174346 1.789846
v 1.230347 0.195485 1.838348
v 1.031681 -0.029728 2.851534
v 1.042739 0.053452 2.859222
v 1.078615 0.014735 2.879324
v 1.008044 0.021843 2.841320
v 1.149320 0.097362 3.627170
v 1.155397 0.136679 3.630958
v 1.172853 0.118083 3.637320
v 1.138181 0.121922 3.624676
v 1.341289 0.154920 1.922449
v 1.956392 -0.011950 1.890208
v 1.936227 0.118343 1.892408
v 1.983545 0.072580 1.879413
v 1.924981 0.049638 1.971723
v 2.473272 0.446328 2.163639
v 2.462039 0.472164 2.175796
v 2.487447 0.469790 2.152959
v 2.450204 0.444552 2.184896
v 0.348878 0.000000 0.131865
v -0.044114 0.000000 0.323662
v -0.281939 0.000000 0.058390
v -0.284686 0.000000 -0.164742
v -0.049610 0.000000 -0.443415
v 0.344390 0.000000 -0.232610
v 0.282786 0.255924 -0.198536
v -0.033492 0.298864 -0.367757
v -0.222196 0.280914 -0.144055
v -0.219991 0.290303 0.035060
v -0.029080 0.317647 0.248004
v 0.286388 0.271260 0.094041
v 0.211725 1.109699 0.068887
v -0.052187 1.148505 0.146845
v -0.211898 1.125629 0.019545
v -0.213742 1.117775 -0.130298
v -0.055878 1.132791 -0.266598
v 0.208711 1.096869 -0.175875
v -0.236313 2.090954 -0.069787
v -0.356933 2.044638 0.001019
v -0.471353 1.991705 -0.075231
v -0.465153 1.985087 -0.222289
v -0.344532 2.031403 -0.293095
v -0.230112 2.084337 -0.216844
v -0.693883 2.743670 -0.037455
v -0.796880 2.727908 0.012538
v -0.896937 2.701981 -0.047201
v -0.894484 2.691642 -0.166111
v -0.801514 2.703676 -0.234458
v -0.651912 2.635709 -0.179765
v -0.936658 4.102955 -0.478699
v -1.001512 4.150434 -0.433459
v -1.085070 4.074276 -0.428905
v -1.103315 4.126433 -0.554210
v -1.038461 4.078953 -0.599450
v -0.955133 4.067215 -0.561694
v -0.712282 2.834902 -0.159742
v -0.650134 4.564128 -1.448716
v -0.678176 4.608950 -1.437363
v -0.726048 4.617601 -1.460976
v -0.731859 4.559019 -1.501617
v -0.669965 4.527957 -1.483681
v -1.035875 4.221652 -0.572526
v -1.342346 4.672972 -0.104982
v -1.412447 4.631613 -0.088869
v -1.421857 4.648407 -0.187431
v -1.361225 4.702808 -0.216854
v -1.301972 5.304319 -0.153699
v -1.352921 5.301966 -0.134857
v -1.361688 5.284590 -0.197722
v -1.314660 5.292274 -0.228556
v -1.488470 6.413997 0.129145
v -1.504936 6.400602 0.130870
v -1.508010 6.409263 0.106788
v -1.494398 6.426255 0.102289
v -0.437947 5.353207 -1.922847
v -0.451273 5.361187 -1.912827
v -0.460493 5.353662 -1.928623
v -0.447085 5.346600 -1.938404
v -0.156444 3.071484 -0.092549
v -0.110843 2.951933 -0.082161
v -0.190034 2.956309 0.056734
v -0.208805 3.076772 0.008771
vt 0.7123 0.5575
vt 0.7201 0.5547
vt 0.7280 0.5621
vt 0.7201 0.5700
vt 0.7108 0.5664
vt 0.7025 0.5635
vt 0.7020 0.5558
vt 0.7148 0.5470
vt 0.7271 0.5471
vt 0.7069 0.5745
vt 0.7184 0.5842
vt 0.6643 0.5324
vt 0.6785 0.5384
vt 0.6638 0.5438
vt 0.6571 0.5528
vt 0.6492 0.5403
vt 0.6349 0.5540
vt 0.6658 0.5559
vt 0.6736 0.5514
vt 0.6754 0.5601
vt 0.6671 0.5651
vt 0.6869 0.5664
vt 0.6672 0.5701
vt 0.6590 0.5629
vt 0.6524 0.5675
vt 0.6530 0.5602
vt 0.6600 0.5732
vt 0.6697 0.5795
vt 0.6849 0.5812
vt 0.6720 0.5936
vt 0.7191 0.5324
vt 0.7105 0.5366
vt 0.6557 0.5879
vt 0.6512 0.5779
vt 0.6993 0.5374
vt 0.6892 0.5558
vt 0.6944 0.5718
vt 0.7399 0.5578
vt 0.6389 0.5745
vt 0.7419 0.5705
vt 0.5873 0.5574
vt 0.5957 0.5543
vt 0.6037 0.5619
vt 0.5943 0.5718
vt 0.5857 0.5669
vt 0.5769 0.5564
vt 0.5808 0.5496
vt 0.5755 0.5666
vt 0.5900 0.5470
vt 0.5821 0.5746
vt 0.5940 0.5866
vt 0.5395 0.5324
vt 0.5537 0.5383
vt 0.5390 0.5427
vt 0.5323 0.5528
vt 0.5217 0.5419
vt 0.5421 0.5607
vt 0.5488 0.5514
vt 0.5506 0.5601
vt 0.5492 0.5673
vt 0.5614 0.5689
vt 0.5431 0.5728
vt 0.5343 0.5629
vt 0.5277 0.5675
vt 0.5283 0.5602
vt 0.5352 0.5732
vt 0.5405 0.5537
vt 0.5462 0.5853
vt 0.5601 0.5812
vt 0.6053 0.5446
vt 0.5944 0.5324
vt 0.5857 0.5366
vt 0.5309 0.5879
vt 0.5252 0.5795
vt 0.5762 0.5354
vt 0.5651 0.5536
vt 0.5646 0.5724
vt 0.5094 0.5567
vt 0.5155 0.5766
vt 0.5631 0.5567
vt 0.6133 0.5784
vt 0.6180 0.5686
vt 0.6151 0.5578
vt 0.9637 0.8508
vt 0.9624 0.8533
vt 0.9333 0.8444
vt 0.9340 0.8422
vt 0.9660 0.8487
vt 0.9350 0.8398
vt 0.9631 0.8564
vt 0.9336 0.8473
vt 0.9625 0.8602
vt 0.9320 0.8502
vt 0.9074 0.8473
vt 0.9076 0.8460
vt 0.9312 0.8506
vt 0.9067 0.8488
vt 0.9071 0.8449
vt 0.9408 0.8309
vt 0.9392 0.8278
vt 0.9555 0.8287
vt 0.9556 0.8312
vt 0.8873 0.8462
vt 0.8871 0.8457
vt 0.9066 0.8436
vt 0.8869 0.8451
vt 0.8873 0.8470
vt 0.8869 0.8477
vt 0.9510 0.7926
vt 0.9505 0.7926
vt 0.9503 0.7920
vt 0.9511 0.7920
vt 0.9411 0.8349
vt 0.9395 0.8333
vt 0.9559 0.8341
vt 0.9571 0.8354
vt 0.9387 0.8374
vt 0.9562 0.8374
vt 0.9313 0.8402
vt 0.9732 0.8298
vt 0.9736 0.8306
vt 0.9727 0.8294
vt 0.9733 0.8312
vt 0.9729 0.8287
vt 0.9515 0.7919
vt 0.9507 0.7920
vt 0.9503 0.7913
vt 0.9511 0.7913
vt 0.8282 0.6986
vt 0.8137 0.7005
vt 0.8137 0.6824
vt 0.8282 0.6857
vt 0.9018 0.7752
vt 0.8946 0.7770
vt 0.8918 0.7700
vt 0.8999 0.7672
vt 0.8904 0.7786
vt 0.8869 0.7724
vt 0.9111 0.7728
vt 0.9106 0.7655
vt 0.9230 0.7961
vt 0.9171 0.7931
vt 0.9189 0.7727
vt 0.9282 0.7755
vt 0.9352 0.7781
vt 0.9307 0.7681
vt 0.9387 0.7720
vt 0.9197 0.7658
vt 0.9280 0.7976
vt 0.9059 0.7956
vt 0.9012 0.7970
vt 0.9116 0.7930
vt 0.8977 0.7979
vt 0.9229 0.8191
vt 0.9194 0.8185
vt 0.9161 0.8181
vt 0.9125 0.8183
vt 0.9090 0.8188
vt 0.9054 0.8193
vt 0.9017 0.8198
vt 0.9104 0.8388
vt 0.9077 0.8397
vt 0.9162 0.8346
vt 0.9128 0.8376
vt 0.9049 0.8397
vt 0.9213 0.8393
vt 0.9188 0.8381
vt 0.9774 0.7723
vt 0.9801 0.7727
vt 0.9788 0.8088
vt 0.9768 0.8089
vt 0.9745 0.7724
vt 0.9745 0.8074
vt 0.9717 0.7729
vt 0.9719 0.8094
vt 0.9821 0.7757
vt 0.9810 0.8096
vt 0.9855 0.7739
vt 0.9880 0.7737
vt 0.9855 0.8106
vt 0.9834 0.8104
vt 0.9558 0.7693
vt 0.9595 0.7693
vt 0.9598 0.7829
vt 0.9566 0.7836
vt 0.9536 0.7655
vt 0.9539 0.7841
vt 0.9640 0.7685
vt 0.9635 0.7841
vt 0.9503 0.7682
vt 0.9507 0.7837
vt 0.9820 0.8367
vt 0.9808 0.8368
vt 0.9836 0.8371
vt 0.9795 0.8373
vt 0.9442 0.7661
vt 0.9470 0.7655
vt 0.9460 0.7827
vt 0.9439 0.7835
vt 0.9729 0.8107
vt 0.9753 0.8123
vt 0.9782 0.8376
vt 0.9765 0.8375
vt 0.9387 0.7657
vt 0.9413 0.7661
vt 0.9406 0.7831
vt 0.9388 0.7824
vt 0.9502 0.7661
vt 0.9484 0.7832
vt 0.9432 0.7993
vt 0.9419 0.7992
vt 0.9403 0.7995
vt 0.9390 0.7995
vt 0.9446 0.8001
vt 0.9399 0.8278
vt 0.9392 0.8276
vt 0.9387 0.8273
vt 0.9405 0.8274
vt 0.9411 0.8274
vt 0.9503 0.7933
vt 0.9503 0.7927
vt 0.9508 0.7928
vt 0.9508 0.7935
vt 0.9815 0.8601
vt 0.9810 0.8601
vt 0.9819 0.8601
vt 0.9806 0.8601
vt 0.9802 0.8601
vt 0.9503 0.7940
vt 0.9504 0.7936
vt 0.9509 0.7936
vt 0.9508 0.7940
vt 0.8300 0.6821
vt 0.8170 0.6822
vt 0.8137 0.6677
vt 0.8319 0.6677
vn -0.4070 0.3082 0.8599
vn -0.3138 0.4503 0.8359
vn -0.9693 0.1167 0.2163
vn -0.9891 0.0198 0.1458
vn -0.3372 -0.7256 0.5998
vn 0.1817 -0.7715 0.6097
vn -0.5247 -0.8206 0.2266
vn -0.1609 0.9194 0.3588
vn -0.1792 0.9816 -0.0664
vn -0.3421 0.7611 -0.5511
vn -0.5124 0.4519 -0.7303
vn -0.9137 0.4061 0.0145
vn 0.6551 0.7532 -0.0596
vn 0.7813 0.6140 -0.1120
vn 0.9208 0.3176 0.2265
vn 0.2810 -0.2835 -0.9169
vn 0.7669 -0.4400 -0.4672
vn 0.6197 -0.5862 -0.5218
vn 0.0737 0.8453 -0.5292
vn 0.2332 0.3444 -0.9094
vn 0.8769 -0.1430 0.4590
vn 0.4474 -0.6244 0.6403
vn 0.2866 -0.8834 0.3708
vn 0.0792 -0.9962 0.0361
vn 0.4383 -0.8731 0.2135
vn 0.0494 -0.9980 0.0400
vn -0.3306 -0.9437 -0.0116
vn -0.6889 -0.5849 -0.4282
vn 0.0455 -0.9987 0.0217
vn 0.3521 0.8732 0.3370
vn 0.3148 -0.3296 0.8901
vn -0.3931 0.2684 0.8794
vn -0.3506 0.8018 0.4839
vn 0.0861 0.9932 -0.0779
vn -0.3580 0.8976 -0.2573
vn -0.9149 0.4036 -0.0098
vn -0.9789 0.0751 -0.1902
vn 0.1747 0.9428 -0.2840
vn 0.9541 0.0899 0.2855
vn 0.6106 0.3511 -0.7098
vn 0.6905 -0.4099 -0.5960
vn 0.3301 0.4446 -0.8327
vn 0.8485 -0.1687 0.5015
vn 0.2605 -0.3551 0.8978
vn 0.2576 -0.8946 0.3652
vn 0.3006 -0.9273 0.2228
vn 0.0696 -0.9971 0.0302
vn -0.9772 0.0905 -0.1919
vn -0.5357 -0.5261 -0.6605
vn -0.4719 0.2325 -0.8504
vn -0.4857 -0.5809 -0.6532
vn 0.0703 -0.9972 0.0271
vn 0.5255 0.8048 0.2759
vn 0.2178 0.8308 0.5121
vn 0.2000 0.6276 0.7524
vn 0.3335 0.3320 0.8823
vn 0.2998 0.2237 -0.9274
vn 0.6531 0.4601 -0.6015
vn 0.1776 -0.4916 -0.8525
vn 0.7895 -0.2782 -0.5471
vn 0.8037 -0.2317 -0.5481
vn 0.0270 -0.1753 -0.9841
vn 0.0850 -0.4415 -0.8932
vn 0.8482 0.5294 0.0187
vn 0.8916 0.3564 0.2792
vn 0.7896 -0.1041 0.6047
vn 0.9527 -0.0100 -0.3037
vn -0.0227 0.6832 0.7299
vn -0.7264 0.6617 0.1858
vn -0.4102 -0.5533 0.7250
vn -0.8584 -0.0035 0.5130
vn -0.8236 -0.3800 0.4212
vn -0.0118 0.0091 0.9999
vn 0.5870 0.2013 0.7842
vn -0.0678 -0.2077 0.9758
vn -0.8303 0.5514 0.0812
vn -0.4983 0.2497 -0.8303
vn -0.6246 -0.0867 -0.7761
vn -0.4865 -0.7118 -0.5065
vn -0.9834 -0.1347 -0.1215
vn -0.8607 -0.5012 -0.0891
vn -0.4480 -0.6421 -0.6221
vn 0.8071 -0.5868 -0.0653
vn 0.4991 -0.6666 0.5536
vn -0.2972 -0.9405 0.1645
vn -0.7911 -0.6114 0.0195
vn 0.4210 0.8533 0.3077
vn 0.1322 0.9652 -0.2258
vn 0.5824 0.3311 -0.7424
vn 0.8658 0.4177 -0.2757
vn 0.6306 0.5230 0.5735
vn 0.9393 0.0273 0.3421
vn 0.9782 -0.1326 0.1597
vn 0.0135 0.6459 0.7633
vn 0.5717 0.4443 0.6897
vn -0.7248 0.6629 0.1878
vn -0.8705 0.0280 0.4914
vn -0.0716 -0.0622 0.9955
vn -0.8008 0.5958 -0.0617
vn -0.5025 0.2633 -0.8235
vn -0.5323 0.0762 -0.8431
vn -0.9929 -0.0810 -0.0869
vn -0.1471 -0.8747 -0.4618
vn -0.7001 -0.4580 -0.5478
vn 0.0368 -0.8582 -0.5120
vn 0.8097 -0.5845 -0.0523
vn 0.4891 -0.6935 0.5289
vn -0.1564 -0.9310 0.3297
vn -0.7932 -0.6086 0.0205
vn -0.0321 0.9602 0.2776
vn 0.1296 0.9141 0.3843
vn 0.5556 0.8314 -0.0127
vn 0.4553 0.8683 -0.1969
vn -0.2178 0.8907 -0.3990
vn -0.7175 0.5992 0.3552
vn -0.7452 0.5686 0.3483
vn -0.5553 0.8226 0.1223
vn 0.7056 0.6404 -0.3033
vn -0.8816 -0.3138 0.3526
vn 0.5453 -0.8299 -0.1179
vn -0.9104 -0.3285 -0.2515
vn 0.6199 -0.7830 0.0509
vn -0.6211 0.7837 -0.0051
vn -0.1928 -0.8159 0.5452
vn -0.6705 0.7417 0.0173
vn 0.7601 0.6247 -0.1790
vn -0.9035 -0.3795 0.1989
vn 0.6737 -0.7388 0.0179
vn -0.3460 -0.0368 0.9375
vn 0.2047 0.4997 -0.8417
vn 0.0910 -0.2382 -0.9669
vn 0.7196 0.6275 0.2973
vn 0.0792 0.7359 0.6725
vn -0.0008 0.5963 -0.8027
vn -0.6482 0.5934 0.4772
vn 0.6644 -0.3820 -0.6424
vn 0.3219 -0.7341 0.5979
vn 0.6715 -0.0558 0.7389
vn -0.6732 0.2976 -0.6770
vn -0.7354 0.1986 0.6479
vn -0.9771 0.2129 0.0071
vn 0.4401 0.2040 0.8745
vn 0.4170 0.0909 -0.9043
vn -0.7516 0.2060 -0.6266
vn 0.9733 0.2290 -0.0173
vn 0.4712 0.2082 -0.8571
vn -0.7217 0.0415 -0.6910
vn -0.6990 0.0437 0.7138
vn 0.3817 0.0919 0.9197
vn 0.9960 0.0882 -0.0169
vn -0.9999 0.0099 0.0118
vn -0.5499 -0.2222 -0.8052
vn 0.3957 0.1201 -0.9105
vn 0.3424 0.2735 0.8989
vn -0.5809 -0.0753 0.8104
vn -0.9592 -0.2827 -0.0003
vn 0.9121 0.4097 -0.0129
vn -0.4328 -0.2930 0.8525
vn 0.8007 0.5906 -0.1005
vn -0.8561 -0.5169 0.0051
vn -0.4829 -0.2403 -0.8420
vn 0.4293 0.3726 -0.8227
vn 0.4074 0.2448 0.8799
vn 0.5121 0.3347 0.7911
vn -0.3872 0.2114 0.8974
vn -0.9908 -0.1286 0.0421
vn 0.9806 0.1386 -0.1387
vn -0.6009 -0.2945 -0.7431
vn -0.4274 0.5198 0.7397
vn -0.2682 0.7877 -0.5547
vn 0.5999 -0.1222 -0.7907
vn 0.3288 -0.8197 0.4691
vn 0.2428 -0.0827 -0.9665
vn 0.8680 -0.4961 0.0206
vn -0.7108 -0.4915 -0.5031
vn -0.0755 -0.8760 -0.4763
vn 0.7517 0.4777 0.4548
vn -0.5561 0.2203 -0.8014
vn -0.8877 0.4417 -0.1301
vn 0.3616 -0.3187 0.8762
vn 0.8439 0.5353 0.0365
vn 0.0425 0.9052 0.4229
vn -0.8697 -0.4917 -0.0440
vn -0.5005 0.0281 -0.8653
vn 0.9817 -0.0785 -0.1734
vn 0.2603 0.0502 0.9642
vn -0.9892 0.0954 0.1110
vn 0.9628 0.2052 -0.1758
vn 0.3254 -0.1807 0.9282
vn -0.5434 0.1537 -0.8253
vn -0.9742 -0.1691 0.1496
vn -0.6131 0.6868 0.3904
vn 0.9066 -0.3664 -0.2096
vn -0.1292 -0.4448 -0.8863
vn 0.6705 0.2413 0.7016
vn -0.4553 0.5792 0.6762
vn -0.9559 0.2253 -0.1881
vn 0.1388 0.8698 -0.4734
vn 0.8332 0.3311 0.4429
s off
f 1/1/1 2/2/1 3/3/1
f 3/3/2 4/4/2 5/5/2
f 5/5/3 7/6/3 1/1/3
f 1/1/4 7/6/4 6/7/4
f 1/1/5 8/8/5 2/2/5
f 2/2/6 8/8/6 9/9/6
f 1/1/7 6/7/7 8/8/7
f 10/10/8 4/4/8 11/11/8
f 10/12/9 11/13/9 12/14/9
f 12/14/10 16/15/10 14/16/10
f 14/16/11 16/15/11 15/17/11
f 10/10/12 7/6/12 5/5/12
f 17/18/13 13/19/13 18/20/13
f 17/18/14 18/20/14 19/21/14
f 19/21/15 20/22/15 21/23/15
f 22/24/16 23/25/16 24/26/16
f 19/21/17 25/27/17 22/24/17
f 22/24/18 25/27/18 23/25/18
f 17/18/19 16/15/19 12/14/19
f 22/24/20 24/26/20 16/15/20
f 26/28/21 20/22/21 27/29/21
f 26/28/22 27/29/22 9/30/22
f 9/9/23 8/8/23 28/31/23
f 28/31/24 8/8/24 29/32/24
f 26/28/25 25/27/25 21/23/25
f 28/33/26 29/34/26 25/27/26
f 30/35/27 8/8/27 6/7/27
f 30/35/28 6/7/28 15/36/28
f 23/25/29 25/27/29 29/34/29
f 20/22/30 13/19/30 11/13/30
f 2/2/31 9/9/31 3/3/31
f 1/1/32 3/3/32 5/5/32
f 10/10/33 5/5/33 4/4/33
f 12/14/34 11/13/34 13/19/34
f 10/12/35 12/14/35 14/16/35
f 10/10/36 14/37/36 7/6/36
f 14/37/37 15/36/37 7/6/37
f 17/18/38 12/14/38 13/19/38
f 19/21/39 18/20/39 20/22/39
f 17/18/40 19/21/40 22/24/40
f 19/21/41 21/23/41 25/27/41
f 17/18/42 22/24/42 16/15/42
f 26/28/43 21/23/43 20/22/43
f 9/9/44 27/38/44 3/3/44
f 26/28/45 9/30/45 28/33/45
f 26/28/46 28/33/46 25/27/46
f 30/35/47 29/32/47 8/8/47
f 15/36/48 6/7/48 7/6/48
f 30/39/49 15/17/49 24/26/49
f 24/26/50 15/17/50 16/15/50
f 30/39/51 24/26/51 23/25/51
f 30/39/52 23/25/52 29/34/52
f 20/22/53 18/20/53 13/19/53
f 20/40/54 11/11/54 4/4/54
f 20/40/55 4/4/55 3/3/55
f 20/40/56 3/3/56 27/38/56
f 31/41/57 32/42/57 33/43/57
f 33/43/58 34/44/58 35/45/58
f 31/41/59 36/46/59 37/47/59
f 35/45/60 38/48/60 31/41/60
f 31/41/61 38/48/61 36/46/61
f 31/41/62 39/49/62 32/42/62
f 31/41/63 37/47/63 39/49/63
f 40/50/64 34/44/64 41/51/64
f 40/52/65 41/53/65 42/54/65
f 42/54/66 45/55/66 44/56/66
f 40/50/67 38/48/67 35/45/67
f 46/57/68 43/58/68 47/59/68
f 62/60/69 48/61/69 49/62/69
f 50/63/70 51/64/70 52/65/70
f 46/57/71 53/66/71 50/63/71
f 50/63/72 53/66/72 51/64/72
f 46/57/73 45/55/73 54/67/73
f 54/67/74 45/55/74 42/54/74
f 50/63/75 52/65/75 45/55/75
f 55/68/76 48/61/76 56/69/76
f 55/70/77 33/43/77 32/42/77
f 55/70/78 39/49/78 57/71/78
f 57/71/79 39/49/79 58/72/79
f 55/68/80 53/66/80 49/62/80
f 57/73/81 58/74/81 53/66/81
f 59/75/82 39/49/82 37/47/82
f 60/76/83 38/48/83 44/77/83
f 60/78/84 44/56/84 52/65/84
f 60/78/85 51/64/85 59/79/85
f 51/64/86 53/66/86 58/74/86
f 61/80/87 43/58/87 41/53/87
f 61/81/88 33/43/88 48/82/88
f 31/41/89 33/43/89 35/45/89
f 40/50/90 35/45/90 34/44/90
f 42/54/91 41/53/91 43/58/91
f 40/52/92 42/54/92 44/56/92
f 40/50/93 44/77/93 38/48/93
f 46/57/94 54/67/94 43/58/94
f 54/67/95 42/54/95 43/58/95
f 47/59/96 48/61/96 62/60/96
f 46/57/97 49/62/97 53/66/97
f 46/57/98 50/63/98 45/55/98
f 55/68/99 49/62/99 48/61/99
f 55/70/100 56/83/100 33/43/100
f 55/70/101 32/42/101 39/49/101
f 55/68/102 57/73/102 53/66/102
f 60/76/103 59/75/103 37/47/103
f 59/75/104 58/72/104 39/49/104
f 60/76/105 37/47/105 36/46/105
f 60/76/106 36/46/106 38/48/106
f 52/65/107 44/56/107 45/55/107
f 60/78/108 52/65/108 51/64/108
f 59/79/109 51/64/109 58/74/109
f 61/80/110 48/61/110 47/59/110
f 61/80/111 47/59/111 43/58/111
f 61/81/112 41/51/112 34/44/112
f 61/81/113 34/44/113 33/43/113
f 48/82/114 33/43/114 56/83/114
f 46/57/115 62/60/115 49/62/115
f 46/57/116 47/59/116 62/60/116
f 64/84/117 66/85/117 70/86/117 68/87/117
f 65/88/118 64/84/118 68/87/118 69/89/118
f 66/85/119 63/90/119 67/91/119 70/86/119
f 63/90/120 65/92/120 69/93/120 67/91/120
f 70/86/121 67/91/121 71/94/121 74/95/121
f 67/91/122 79/96/122 73/97/122 71/94/122
f 68/87/123 70/86/123 74/95/123 72/98/123
f 79/99/124 67/100/124 80/101/124 83/102/124
f 72/98/125 74/95/125 78/103/125 76/104/125
f 73/105/126 72/98/126 76/104/126 77/106/126
f 74/95/127 71/94/127 75/107/127 78/103/127
f 71/94/128 73/97/128 77/108/128 75/107/128
f 76/109/129 78/110/129 75/111/129 77/112/129
f 69/113/130 68/114/130 81/115/130 82/116/130
f 67/117/131 69/113/131 82/116/131 80/118/131
f 79/119/132 68/87/132 72/98/132 73/105/132
f 68/114/133 79/99/133 83/102/133 81/115/133
f 82/116/134 81/115/134 85/120/134 86/121/134
f 81/115/135 83/102/135 87/122/135 85/120/135
f 80/118/136 82/116/136 86/121/136 84/123/136
f 83/102/137 80/101/137 84/124/137 87/122/137
f 86/125/138 85/126/138 87/127/138 84/128/138
f 64/129/139 65/130/139 63/131/139 66/132/139
f 98/133/140 97/134/140 90/135/140 89/136/140
f 97/134/141 96/137/141 91/138/141 90/135/141
f 99/139/142 98/133/142 89/136/142 88/140/142
f 104/141/143 105/142/143 94/143/143 95/144/143
f 96/145/144 95/144/144 92/146/144 91/147/144
f 94/143/145 99/139/145 88/140/145 93/148/145
f 95/144/146 94/143/146 93/148/146 92/146/146
f 103/149/147 104/141/147 95/144/147 96/145/147
f 101/150/148 102/151/148 97/134/148 98/133/148
f 100/152/149 101/150/149 98/133/149 99/139/149
f 105/142/150 100/152/150 99/139/150 94/143/150
f 102/151/151 103/153/151 96/137/151 97/134/151
f 104/141/152 103/149/152 109/154/152 110/155/152
f 105/142/153 104/141/153 110/155/153 111/156/153
f 101/150/154 100/152/154 106/157/154 107/158/154
f 102/151/155 101/150/155 107/158/155 108/159/155
f 103/153/156 102/151/156 108/159/156 109/160/156
f 111/156/157 106/157/157 100/152/157 105/142/157
f 108/159/158 107/158/158 113/161/158 114/162/158
f 106/157/159 111/156/159 117/163/159 112/164/159
f 109/160/160 108/159/160 114/162/160 115/165/160
f 110/155/161 109/154/161 115/166/161 116/167/161
f 111/156/162 110/155/162 116/167/162 117/163/162
f 107/158/163 106/157/163 112/164/163 113/161/163
f 113/168/164 112/169/164 118/170/164 119/171/164
f 114/172/165 113/168/165 119/171/165 120/173/165
f 115/174/166 114/172/166 120/173/166 121/175/166
f 112/169/167 124/176/167 123/177/167 118/170/167
f 116/178/168 115/179/168 121/180/168 122/181/168
f 124/182/169 112/183/169 149/184/169 150/185/169
f 116/186/170 124/182/170 150/185/170 147/187/170
f 124/176/171 116/178/171 122/181/171 123/177/171
f 112/183/172 117/188/172 148/189/172 149/184/172
f 117/190/173 116/186/173 147/187/173 148/191/173
f 118/170/174 123/177/174 129/192/174 125/193/174
f 122/181/175 121/180/175 128/194/175
f 123/177/176 122/181/176 128/194/176 129/192/176
f 119/171/177 118/170/177 125/193/177 126/195/177
f 130/196/178 121/197/178 133/198/178 134/199/178
f 121/200/179 130/201/179 127/202/179 128/203/179
f 120/204/180 119/205/180 131/206/180 132/207/180
f 119/205/181 130/196/181 134/199/181 131/206/181
f 130/201/182 119/171/182 126/195/182 127/202/182
f 121/197/183 120/208/183 132/209/183 133/198/183
f 134/199/184 133/198/184 137/210/184 138/211/184
f 131/206/185 134/199/185 138/211/185 135/212/185
f 132/207/186 131/206/186 135/212/186 136/213/186
f 133/198/187 132/209/187 136/214/187 137/210/187
f 135/212/188 138/211/188 142/215/188 139/216/188
f 136/213/189 135/212/189 139/216/189 140/217/189
f 138/211/190 137/210/190 141/218/190 142/215/190
f 137/210/191 136/214/191 140/219/191 141/218/191
f 141/220/192 140/221/192 139/222/192 142/223/192
f 125/193/193 129/192/193 146/224/193 143/225/193
f 129/192/194 128/194/194 145/226/194 146/224/194
f 126/195/195 125/193/195 143/225/195 144/227/195
f 127/202/196 126/195/196 144/227/196 145/228/196
f 128/203/197 127/202/197 145/228/197
f 144/229/198 143/230/198 146/231/198 145/232/198
f 147/233/199 150/234/199 149/235/199 148/236/199
