# Blender v2.78 (sub 0) OBJ File: 'Low_Poly_Trees_Pack.blend'
# www.blender.org
g Oak_Tree_NoLeaves_crk_m_03
v 0.348878 0.000000 0.131865
v -0.044114 0.000000 0.323662
v -0.281939 0.000000 0.058390
v -0.284686 0.000000 -0.164742
v -0.049610 0.000000 -0.443415
v 0.344390 0.000000 -0.232610
v 0.282786 0.255924 -0.198536
v -0.033492 0.298864 -0.367757
v -0.222196 0.280914 -0.144055
v -0.219991 0.290303 0.035060
v -0.029080 0.317647 0.248004
v 0.286388 0.271260 0.094041
v 0.211725 1.109699 0.068887
v -0.052187 1.148505 0.146845
v -0.211898 1.125629 0.019545
v -0.213742 1.117775 -0.130298
v -0.055878 1.132791 -0.266598
v 0.208711 1.096869 -0.175875
v -0.471353 1.991705 -0.075231
v -0.465153 1.985087 -0.222289
v -0.344532 2.031403 -0.293095
v -0.230112 2.084337 -0.216844
v -0.356933 2.044638 0.001019
v -0.236313 2.090954 -0.069787
v -1.742242 0.237529 1.455768
v -1.785778 0.113446 1.389315
v -1.873408 0.120052 1.271056
v -1.917504 0.250741 1.219249
v -1.873968 0.374825 1.285702
v -1.786337 0.368219 1.403962
v -2.427592 0.061139 1.824054
v -2.481015 -0.033147 1.783901
v -2.565893 -0.031270 1.699968
v -2.600900 0.072659 1.652789
v -2.559791 0.177814 1.679472
v -2.389033 0.193922 1.703426
v -3.487667 0.475475 2.721751
v -3.546623 0.410182 2.749462
v -3.569426 0.358411 2.651470
v -3.655587 0.464724 2.646154
v -3.596631 0.530017 2.618442
v -3.512672 0.535393 2.656241
v -2.533365 0.168891 1.852640
v -2.116967 0.240883 2.247321
v -2.204819 0.399464 2.309077
v -2.102982 0.399368 2.230916
v -2.211950 0.286646 2.325094
v -1.978963 0.187310 3.511974
v -2.076092 0.305346 3.571213
v -1.969777 0.319297 3.547179
v -2.081871 0.210052 3.550307
v -2.069740 0.052219 4.382834
v -2.119848 0.114160 4.410276
v -2.069618 0.101681 4.432890
v -2.121088 0.077494 4.375961
v -2.155936 -0.005937 5.162570
v -2.179027 0.023804 5.175964
v -2.154386 0.019170 5.183862
v -2.180560 0.005292 5.161521
v -3.854617 1.507848 2.909535
v -3.895818 1.489365 2.939285
v -3.945742 1.488157 2.918540
v -3.933864 1.514674 2.853171
v -3.863340 1.525124 2.859041
v -3.660162 0.522879 2.748855
v -4.337767 0.016782 3.543946
v -4.331948 -0.034995 3.479374
v -4.365503 0.048403 3.434612
v -4.389072 0.108691 3.492155
v -4.877059 0.145546 3.852466
v -4.895956 0.104627 3.822054
v -4.894138 0.153525 3.778049
v -4.883485 0.203621 3.802508
v -5.890559 -0.072319 4.373543
v -5.886284 -0.083073 4.355665
v -5.898820 -0.062579 4.346322
v -5.907973 -0.050378 4.362496
v -4.274985 2.106581 3.507264
v -4.285906 2.092344 3.511700
v -4.294688 2.100960 3.496215
v -4.284101 2.115125 3.492667
v -1.983895 0.232654 3.654788
v -1.462991 0.578070 3.783568
v -1.576345 0.641634 3.805887
v -1.510418 0.652243 3.799320
v -1.534094 0.562796 3.861897
v -1.500174 1.117862 4.292673
v -1.527775 1.121009 4.305703
v -1.508774 1.145988 4.292000
v -1.514418 1.092618 4.304797
v -3.994478 -0.034995 3.096426
v -4.045681 0.048403 3.073890
v -3.967863 0.016782 3.155545
v -4.037981 0.108691 3.135594
vt 0.9061 0.6501
vt 0.8986 0.6517
vt 0.8960 0.6444
vt 0.9045 0.6418
vt 0.8941 0.6532
vt 0.8907 0.6466
vt 0.9158 0.6480
vt 0.9156 0.6405
vt 0.9273 0.6725
vt 0.9214 0.6693
vt 0.9239 0.6483
vt 0.9333 0.6516
vt 0.9405 0.6545
vt 0.9363 0.6440
vt 0.9443 0.6483
vt 0.9250 0.6412
vt 0.9323 0.6742
vt 0.9097 0.6715
vt 0.9047 0.6728
vt 0.9157 0.6691
vt 0.9009 0.6737
vt 0.9267 0.6965
vt 0.9230 0.6961
vt 0.9194 0.6957
vt 0.9156 0.6955
vt 0.9119 0.6955
vt 0.9082 0.6958
vt 0.9045 0.6965
vt 0.9118 0.7003
vt 0.9124 0.7041
vt 0.8916 0.7048
vt 0.8907 0.7019
vt 0.9132 0.7077
vt 0.9136 0.7115
vt 0.8958 0.7111
vt 0.8928 0.7075
vt 0.9119 0.6966
vt 0.8909 0.6988
vt 0.9129 0.7152
vt 0.9117 0.7188
vt 0.8907 0.7162
vt 0.8921 0.7136
vt 0.9504 0.6405
vt 0.9531 0.6409
vt 0.9518 0.6785
vt 0.9497 0.6786
vt 0.9473 0.6406
vt 0.9473 0.6770
vt 0.9444 0.6412
vt 0.9446 0.6792
vt 0.9552 0.6441
vt 0.9541 0.6793
vt 0.9587 0.6422
vt 0.9613 0.6420
vt 0.9588 0.6804
vt 0.9566 0.6802
vt 0.9717 0.6429
vt 0.9753 0.6428
vt 0.9757 0.6567
vt 0.9724 0.6581
vt 0.9697 0.6391
vt 0.9693 0.6581
vt 0.9795 0.6419
vt 0.9798 0.6571
vt 0.9663 0.6416
vt 0.9662 0.6569
vt 0.9729 0.6921
vt 0.9706 0.6924
vt 0.9677 0.6921
vt 0.9755 0.6913
vt 0.9790 0.6921
vt 0.9743 0.7125
vt 0.9730 0.7124
vt 0.9770 0.6947
vt 0.9756 0.7136
vt 0.9720 0.7131
vt 0.9249 0.7344
vt 0.9266 0.7376
vt 0.9096 0.7367
vt 0.9095 0.7341
vt 0.9731 0.7314
vt 0.9727 0.7317
vt 0.9708 0.7137
vt 0.9721 0.7319
vt 0.9738 0.7314
vt 0.9744 0.7319
vt 0.9433 0.6987
vt 0.9433 0.6981
vt 0.9440 0.6979
vt 0.9440 0.6987
vt 0.9551 0.7075
vt 0.9538 0.7077
vt 0.9567 0.7079
vt 0.9525 0.7081
vt 0.9200 0.7151
vt 0.9171 0.7157
vt 0.9178 0.6975
vt 0.9200 0.6977
vt 0.9456 0.6805
vt 0.9482 0.6821
vt 0.9511 0.7085
vt 0.9494 0.7084
vt 0.9270 0.7151
vt 0.9241 0.7150
vt 0.9229 0.6970
vt 0.9250 0.6966
vt 0.9136 0.7151
vt 0.9154 0.6966
vt 0.9359 0.7235
vt 0.9374 0.7251
vt 0.9215 0.7248
vt 0.9214 0.7234
vt 0.9367 0.7206
vt 0.9209 0.7216
vt 0.9378 0.7188
vt 0.9208 0.7203
vt 0.9378 0.7276
vt 0.9208 0.7264
vt 0.8907 0.7242
vt 0.8908 0.7234
vt 0.8911 0.7228
vt 0.8911 0.7247
vt 0.8912 0.7254
vt 0.9435 0.6988
vt 0.9442 0.6988
vt 0.9441 0.6993
vt 0.9433 0.6993
vt 0.9546 0.7319
vt 0.9541 0.7319
vt 0.9550 0.7318
vt 0.9537 0.7318
vt 0.9532 0.7319
vt 0.9433 0.6994
vt 0.9438 0.6995
vt 0.9437 0.7000
vt 0.9433 0.6999
vt 0.9246 0.7302
vt 0.9262 0.7319
vt 0.9091 0.7311
vt 0.9079 0.7297
vt 0.9270 0.7276
vt 0.9089 0.7276
vt 0.9681 0.6947
vt 0.8912 0.7355
vt 0.8907 0.7347
vt 0.8917 0.7359
vt 0.8910 0.7340
vt 0.8915 0.7367
vt 0.9434 0.6979
vt 0.9433 0.6970
vt 0.9440 0.6966
vt 0.9440 0.6974
vt 0.8446 0.6933
vt 0.8446 0.7093
vt 0.8308 0.7173
vt 0.8169 0.7093
vt 0.8308 0.6853
vt 0.8169 0.6933
vt 0.8088 0.7130
vt 0.7928 0.6853
vt 0.8088 0.6853
vt 0.8167 0.6992
vt 0.7928 0.7130
vt 0.7848 0.6992
vt 0.8047 0.6692
vt 0.8156 0.6692
vt 0.8139 0.6780
vt 0.8012 0.6779
vt 0.8354 0.6674
vt 0.8267 0.6709
vt 0.8267 0.6582
vt 0.8355 0.6565
vn -0.7354 0.1986 0.6479
vn -0.9771 0.2129 0.0071
vn 0.4401 0.2040 0.8745
vn 0.4170 0.0909 -0.9043
vn -0.7516 0.2060 -0.6266
vn 0.9733 0.2290 -0.0173
vn 0.4712 0.2082 -0.8571
vn -0.7217 0.0415 -0.6910
vn -0.6990 0.0437 0.7138
vn 0.3817 0.0919 0.9197
vn 0.9960 0.0882 -0.0169
vn -0.9999 0.0099 0.0118
vn -0.5499 -0.2222 -0.8052
vn 0.3957 0.1201 -0.9105
vn 0.3424 0.2735 0.8989
vn -0.5809 -0.0753 0.8104
vn -0.9592 -0.2827 -0.0003
vn 0.9121 0.4097 -0.0129
vn 0.1237 -0.9814 -0.1467
vn 0.2715 0.5310 0.8027
vn -0.3871 -0.4661 -0.7955
vn -0.5462 0.4805 -0.6862
vn -0.1577 0.9622 0.2222
vn 0.4990 -0.5489 0.6706
vn 0.5009 -0.4121 0.7611
vn -0.0907 -0.9454 0.3130
vn -0.6823 -0.5212 -0.5126
vn 0.6347 0.6018 0.4847
vn -0.5736 0.3322 -0.7488
vn -0.3402 -0.7940 0.5038
vn -0.8192 0.4406 0.3671
vn 0.2460 0.9627 -0.1125
vn 0.8523 -0.3405 -0.3970
vn -0.1132 0.9508 -0.2883
vn -0.9925 0.0590 0.1073
vn -0.0317 0.9970 0.0706
vn -0.3341 -0.9425 -0.0133
vn 0.9915 -0.0721 -0.1079
vn -0.3245 -0.9302 -0.1716
vn 0.9885 -0.1243 0.0858
vn -0.9970 0.0683 -0.0364
vn 0.4820 -0.8307 0.2787
vn -0.9922 0.1070 -0.0647
vn 0.1713 0.9769 0.1276
vn -0.4206 -0.9001 -0.1141
vn 0.9881 -0.1174 0.0996
vn -0.3236 -0.5859 0.7430
vn 0.9386 0.3419 -0.0454
vn -0.4692 0.0495 -0.8817
vn 0.2332 0.2871 -0.9291
vn 0.4909 0.0107 0.8712
vn -0.8306 0.4591 -0.3150
vn -0.9642 -0.2613 -0.0452
vn 0.7589 -0.6273 0.1747
vn 0.3828 0.4260 0.8197
vn -0.2931 -0.2531 0.9220
vn -0.4283 -0.4271 -0.7963
vn -0.3850 0.5209 -0.7619
vn 0.5001 0.6097 0.6150
vn 0.2195 -0.7132 0.6658
vn -0.5276 -0.5570 -0.6415
vn 0.2434 0.6329 0.7350
vn 0.4459 -0.6753 0.5875
vn -0.5087 0.4789 -0.7154
vn -0.2841 -0.6116 -0.7384
vn -0.8273 -0.5595 0.0509
vn 0.8182 0.5750 0.0038
vn -0.1812 0.6655 -0.7241
vn 0.6405 -0.2686 0.7195
vn -0.4156 -0.7455 0.5210
vn -0.9237 -0.2660 -0.2758
vn -0.5193 0.5718 0.6351
vn -0.2173 0.7584 -0.6145
vn 0.2850 0.2795 -0.9169
vn 0.3818 0.9001 0.2099
vn -0.5472 0.2502 0.7987
vn -0.4241 0.6573 -0.6230
vn -0.8908 -0.2766 0.3606
vn 0.7455 0.4769 -0.4656
vn 0.7436 -0.4377 0.5055
vn 0.4364 0.1659 0.8843
vn 0.8039 0.0359 -0.5937
vn -0.3872 0.9202 -0.0577
vn -0.7391 -0.3761 0.5588
vn 0.9182 0.3761 -0.1242
s off
f 11/1/1 10/2/1 3/3/1 2/4/1
f 10/2/2 9/5/2 4/6/2 3/3/2
f 12/7/3 11/1/3 2/4/3 1/8/3
f 17/9/4 18/10/4 7/11/4 8/12/4
f 9/13/5 8/12/5 5/14/5 4/15/5
f 7/11/6 12/7/6 1/8/6 6/16/6
f 8/12/7 7/11/7 6/16/7 5/14/7
f 16/17/8 17/9/8 8/12/8 9/13/8
f 14/18/9 15/19/9 10/2/9 11/1/9
f 13/20/10 14/18/10 11/1/10 12/7/10
f 18/10/11 13/20/11 12/7/11 7/11/11
f 15/19/12 16/21/12 9/5/12 10/2/12
f 17/9/13 16/17/13 20/22/13 21/23/13
f 18/10/14 17/9/14 21/23/14 22/24/14
f 14/18/15 13/20/15 24/25/15 23/26/15
f 15/19/16 14/18/16 23/26/16 19/27/16
f 16/21/17 15/19/17 19/27/17 20/28/17
f 22/24/18 24/25/18 13/20/18 18/10/18
f 27/29/19 26/30/19 32/31/19 33/32/19
f 25/33/20 30/34/20 36/35/20 31/36/20
f 28/37/21 27/29/21 33/32/21 34/38/21
f 29/39/22 28/40/22 34/41/22 35/42/22
f 30/34/23 29/39/23 35/42/23 36/35/23
f 26/30/24 25/33/24 31/36/24 32/31/24
f 32/43/25 31/44/25 37/45/25 38/46/25
f 33/47/26 32/43/26 38/46/26 39/48/26
f 34/49/27 33/47/27 39/48/27 40/50/27
f 31/44/28 43/51/28 42/52/28 37/45/28
f 35/53/29 34/54/29 40/55/29 41/56/29
f 43/57/30 31/58/30 44/59/30 47/60/30
f 35/61/31 43/57/31 47/60/31 45/62/31
f 43/51/32 35/53/32 41/56/32 42/52/32
f 31/58/33 36/63/33 46/64/33 44/59/33
f 36/65/34 35/61/34 45/62/34 46/66/34
f 45/62/35 47/60/35 51/67/35 49/68/35
f 46/66/36 45/62/36 49/68/36 50/69/36
f 47/60/37 44/59/37 48/70/37 51/67/37
f 44/59/38 46/64/38 50/71/38 48/70/38
f 51/67/39 48/70/39 52/72/39 55/73/39
f 48/70/40 82/74/40 54/75/40 52/72/40
f 49/68/41 51/67/41 55/73/41 53/76/41
f 82/77/42 48/78/42 83/79/42 86/80/42
f 53/76/43 55/73/43 59/81/43 57/82/43
f 54/83/44 53/76/44 57/82/44 58/84/44
f 55/73/45 52/72/45 56/85/45 59/81/45
f 52/72/46 54/75/46 58/86/46 56/85/46
f 57/87/47 59/88/47 56/89/47 58/90/47
f 37/45/48 42/52/48 64/91/48 60/92/48
f 41/56/49 40/55/49 63/93/49
f 42/52/50 41/56/50 63/93/50 64/91/50
f 38/46/51 37/45/51 60/92/51 61/94/51
f 65/95/52 40/96/52 92/97/52 94/98/52
f 40/99/53 65/100/53 62/101/53 63/102/53
f 39/103/54 38/104/54 93/105/54 91/106/54
f 38/104/55 65/95/55 94/98/55 93/105/55
f 65/100/56 38/46/56 61/94/56 62/101/56
f 40/96/57 39/107/57 91/108/57 92/97/57
f 69/109/58 68/110/58 72/111/58 73/112/58
f 66/113/59 69/109/59 73/112/59 70/114/59
f 67/115/60 66/113/60 70/114/60 71/116/60
f 68/110/61 67/117/61 71/118/61 72/111/61
f 70/114/62 73/112/62 77/119/62 74/120/62
f 71/116/63 70/114/63 74/120/63 75/121/63
f 73/112/64 72/111/64 76/122/64 77/119/64
f 72/111/65 71/118/65 75/123/65 76/122/65
f 76/124/66 75/125/66 74/126/66 77/127/66
f 60/92/67 64/91/67 81/128/67 78/129/67
f 64/91/68 63/93/68 80/130/68 81/128/68
f 61/94/69 60/92/69 78/129/69 79/131/69
f 62/101/70 61/94/70 79/131/70 80/132/70
f 63/102/71 62/101/71 80/132/71
f 79/133/72 78/134/72 81/135/72 80/136/72
f 50/137/73 49/138/73 84/139/73 85/140/73
f 48/141/74 50/137/74 85/140/74 83/142/74
f 82/143/75 49/68/75 53/76/75 54/83/75
f 49/138/76 82/77/76 86/80/76 84/139/76
f 85/140/77 84/139/77 88/144/77 89/145/77
f 84/139/78 86/80/78 90/146/78 88/144/78
f 83/142/79 85/140/79 89/145/79 87/147/79
f 86/80/80 83/79/80 87/148/80 90/146/80
f 89/149/81 88/150/81 90/151/81 87/152/81
f 28/153/82 29/154/82 30/155/82 25/156/82
f 27/157/82 28/153/82 25/156/82 26/158/82
f 20/159/83 24/160/83 22/161/83 21/162/83
f 19/163/83 23/164/83 24/160/83 20/159/83
f 92/165/84 91/166/84 93/167/84 94/168/84
f 68/169/85 69/170/85 66/171/85 67/172/85
