# Blender v2.78 (sub 0) OBJ File: 'Low_Poly_Trees_Pack.blend'
# www.blender.org
g Oak_Tree_m_01
v -2.250850 5.938334 -2.159391
v -2.751321 6.549389 -1.360847
v -1.563277 7.543836 -1.681699
v -0.609227 7.753062 -1.932387
v -1.133813 6.396125 -2.496069
v -0.399310 6.237476 -2.633225
v -1.689579 5.049415 -2.236485
v -1.027631 4.013073 -2.047089
v -2.049485 4.232768 -1.168446
v -0.327977 4.972297 -2.339110
v -3.014512 5.179784 -0.810344
v -2.808124 6.599865 -0.537067
v 1.272849 6.635403 -1.700186
v 0.243579 7.788161 -1.768201
v 1.093445 8.060684 -1.092774
v 0.487927 6.286859 -2.464448
v 1.998791 6.580550 -0.904340
v 1.672550 8.109722 0.298640
v 2.253971 6.532603 -0.100806
v 1.735291 4.839623 -1.328046
v 1.648025 4.210616 -0.520251
v 0.938015 4.080729 -1.393222
v 2.522457 4.883922 0.498065
v 0.734422 5.005226 -2.157962
v 1.827314 6.798604 1.753916
v 0.808927 8.419755 1.040226
v 0.898114 6.675907 2.431725
v -0.667519 8.199675 1.027744
v -0.387097 6.606180 2.653464
v 1.264502 4.778515 2.225444
v 0.440432 3.646235 1.945019
v 1.646206 3.826794 1.322074
v -0.723543 5.081129 2.525662
v 2.347255 6.770524 0.816114
v -2.046394 7.055743 1.007604
v -1.678424 8.433638 0.364586
v -2.565302 6.840257 0.231916
v -1.911261 8.354779 -0.843748
v -2.271487 5.387188 0.950473
v -2.106786 4.729770 0.360457
v -1.437338 4.347285 1.465796
v -1.135940 6.924351 1.733383
v -1.440549 3.639091 0.491548
v -0.592067 3.566614 -0.330244
v 0.289296 3.408882 -1.002011
v 1.095082 3.489717 0.638457
v -0.907016 9.034114 0.333771
v -0.119069 9.001701 -0.175397
v 0.458264 8.405159 -0.666093
v -0.525835 8.412059 -1.097576
v -0.190012 2.956308 0.056734
v 0.348878 0.000000 0.131865
v -0.044114 0.000000 0.323662
v -0.281939 0.000000 0.058390
v -0.284686 0.000000 -0.164742
v -0.049610 0.000000 -0.443415
v 0.344390 0.000000 -0.232610
v 0.282786 0.255924 -0.198536
v -0.033492 0.298864 -0.367757
v -0.222196 0.280914 -0.144055
v -0.219991 0.290303 0.035060
v -0.029080 0.317647 0.248004
v 0.286388 0.271260 0.094041
v 0.211725 1.109699 0.068887
v -0.052187 1.148505 0.146845
v -0.211898 1.125629 0.019545
v -0.213742 1.117775 -0.130298
v -0.055878 1.132791 -0.266598
v 0.208711 1.096869 -0.175875
v -0.236313 2.090954 -0.069787
v -0.356933 2.044638 0.001019
v -0.471353 1.991705 -0.075231
v -0.465153 1.985087 -0.222289
v -0.344532 2.031403 -0.293095
v -0.230112 2.084337 -0.216844
v -0.693883 2.743670 -0.037455
v -0.796880 2.727908 0.012538
v -0.896937 2.701981 -0.047201
v -0.894484 2.691642 -0.166111
v -0.801514 2.703676 -0.234458
v -0.651912 2.635709 -0.179765
v -0.936658 4.102955 -0.478699
v -1.001512 4.150434 -0.433459
v -1.085070 4.074276 -0.428905
v -1.103315 4.126433 -0.554210
v -1.038461 4.078953 -0.599450
v -0.955133 4.067215 -0.561694
v -0.712282 2.834902 -0.159742
v -0.190034 2.956309 0.056734
v -0.156444 3.071484 -0.092549
v -0.110843 2.951933 -0.082161
v -0.208805 3.076772 0.008771
v 0.424692 3.944829 0.572682
v 0.430789 4.058461 0.454672
v 0.509362 3.983704 0.472362
v 0.372221 4.033750 0.528904
vt 0.5916 0.5580
vt 0.5974 0.5547
vt 0.5984 0.5635
vt 0.5959 0.5697
vt 0.5898 0.5641
vt 0.5866 0.5682
vt 0.5852 0.5564
vt 0.5789 0.5564
vt 0.5829 0.5496
vt 0.5798 0.5635
vt 0.5920 0.5470
vt 0.6010 0.5500
vt 0.5813 0.5832
vt 0.5942 0.5765
vt 0.5962 0.5866
vt 0.5844 0.5738
vt 0.5416 0.5324
vt 0.5558 0.5385
vt 0.5410 0.5423
vt 0.5509 0.5514
vt 0.5412 0.5488
vt 0.5265 0.5403
vt 0.5254 0.5496
vt 0.5152 0.5455
vt 0.5343 0.5528
vt 0.5760 0.5686
vt 0.5665 0.5757
vt 0.5669 0.5641
vt 0.5441 0.5593
vt 0.5527 0.5601
vt 0.5443 0.5651
vt 0.5546 0.5712
vt 0.5444 0.5701
vt 0.5363 0.5629
vt 0.5297 0.5675
vt 0.5308 0.5602
vt 0.5372 0.5732
vt 0.5425 0.5537
vt 0.5480 0.5832
vt 0.5622 0.5812
vt 0.5492 0.5936
vt 0.6073 0.5446
vt 0.6066 0.5618
vt 0.5330 0.5879
vt 0.5218 0.5870
vt 0.5284 0.5778
vt 0.5964 0.5324
vt 0.5877 0.5366
vt 0.5459 0.5752
vt 0.5783 0.5354
vt 0.5707 0.5445
vt 0.5665 0.5553
vt 0.5114 0.5547
vt 0.5249 0.5601
vt 0.5114 0.5670
vt 0.5175 0.5766
vt 0.5645 0.5686
vt 0.5652 0.5567
vt 0.5616 0.5458
vt 0.6027 0.5710
vt 0.6055 0.5848
vt 0.6153 0.5784
vt 0.6201 0.5686
vt 0.6171 0.5578
vt 0.9043 0.7770
vt 0.8971 0.7788
vt 0.8942 0.7718
vt 0.9024 0.7689
vt 0.8928 0.7804
vt 0.8892 0.7742
vt 0.9137 0.7745
vt 0.9132 0.7672
vt 0.9258 0.7982
vt 0.9199 0.7951
vt 0.9217 0.7745
vt 0.9310 0.7774
vt 0.9381 0.7799
vt 0.9336 0.7698
vt 0.9417 0.7738
vt 0.9224 0.7675
vt 0.9308 0.7997
vt 0.9085 0.7977
vt 0.9037 0.7990
vt 0.9142 0.7951
vt 0.9002 0.8000
vt 0.9257 0.8215
vt 0.9222 0.8208
vt 0.9188 0.8205
vt 0.9152 0.8206
vt 0.9116 0.8211
vt 0.9080 0.8217
vt 0.9043 0.8222
vt 0.9130 0.8414
vt 0.9103 0.8423
vt 0.9190 0.8372
vt 0.9155 0.8401
vt 0.9075 0.8423
vt 0.9241 0.8419
vt 0.9215 0.8406
vt 0.9644 0.7672
vt 0.9671 0.7676
vt 0.9658 0.8042
vt 0.9637 0.8043
vt 0.9614 0.7673
vt 0.9614 0.8028
vt 0.9585 0.7679
vt 0.9587 0.8049
vt 0.9691 0.7707
vt 0.9680 0.8050
vt 0.9725 0.7689
vt 0.9751 0.7687
vt 0.9726 0.8060
vt 0.9704 0.8059
vt 0.9509 0.7710
vt 0.9544 0.7714
vt 0.9533 0.7848
vt 0.9500 0.7858
vt 0.9494 0.7672
vt 0.9470 0.7854
vt 0.9585 0.7710
vt 0.9572 0.7856
vt 0.9459 0.7693
vt 0.9441 0.7840
vt 0.9467 0.8188
vt 0.9445 0.8186
vt 0.9417 0.8181
vt 0.9494 0.8180
vt 0.9527 0.8191
vn -0.5625 0.4477 -0.6951
vn -0.3191 0.4661 -0.8252
vn -0.0814 0.4090 -0.9089
vn -0.6222 -0.5065 -0.5969
vn -0.0830 -0.1555 -0.9843
vn -0.0862 -0.2321 -0.9689
vn -0.8599 -0.0393 -0.5089
vn -0.9844 0.1580 -0.0776
vn -0.6700 -0.4634 -0.5801
vn 0.4916 0.3931 -0.7771
vn 0.1528 0.4361 -0.8868
vn 0.7035 0.3517 -0.6175
vn 0.8837 0.3910 -0.2573
vn 0.6415 -0.6373 -0.4269
vn 0.9178 -0.0429 -0.3946
vn 0.7850 -0.5270 -0.3256
vn 0.7049 -0.0339 -0.7085
vn 0.1940 -0.2117 -0.9579
vn 0.5127 -0.4774 -0.7136
vn 0.6314 0.6083 0.4809
vn 0.4306 0.5763 0.6946
vn 0.0802 0.7187 0.6907
vn 0.4537 -0.5110 0.7301
vn 0.1368 -0.0809 0.9873
vn 0.0967 -0.3050 0.9474
vn 0.8746 -0.0005 0.4849
vn 0.9851 0.1133 -0.1296
vn 0.7952 -0.2181 0.5658
vn -0.4040 0.4732 0.7828
vn -0.8058 0.4132 0.4243
vn -0.8737 0.4691 0.1292
vn -0.8101 -0.4908 0.3208
vn -0.9216 0.0056 0.3882
vn -0.7559 -0.5319 0.3816
vn -0.5924 0.2026 0.7798
vn -0.7516 0.1113 0.6502
vn -0.7145 -0.2492 0.6537
vn -0.7001 -0.7140 0.0015
vn -0.2970 -0.9398 -0.1690
vn 0.1566 -0.6055 -0.7803
vn 0.5541 -0.7992 -0.2328
vn 0.6756 -0.7113 -0.1940
vn -0.0357 -0.9981 0.0511
vn -0.4013 -0.6041 0.6885
vn -0.0989 0.6194 0.7789
vn 0.4908 0.7853 -0.3773
vn 0.3691 0.9106 -0.1857
vn -0.3159 0.7598 -0.5682
vn 0.2290 0.8297 -0.5091
vn -0.1951 0.9123 -0.3600
vn -0.5691 0.4600 -0.6815
vn -0.8931 0.4410 -0.0886
vn -0.4149 0.4181 -0.8081
vn -0.2578 -0.0792 -0.9630
vn -0.2269 -0.2326 -0.9457
vn -0.6934 -0.3850 -0.6090
vn 0.5265 0.4267 -0.7353
vn 0.1453 0.4318 -0.8902
vn 0.8167 0.4542 -0.3559
vn 0.7396 0.0514 -0.6711
vn 0.9529 0.0463 -0.2998
vn 0.6388 0.0051 -0.7694
vn 0.1707 -0.1980 -0.9652
vn 0.1515 -0.6100 -0.7778
vn 0.7478 0.5308 0.3987
vn 0.9043 0.3818 -0.1911
vn -0.0987 0.6176 0.7803
vn 0.5869 0.0254 0.8092
vn 0.1751 -0.1205 0.9771
vn 0.8077 -0.0890 0.5828
vn -0.4690 0.5532 0.6885
vn -0.5442 0.5503 0.6332
vn -0.8703 0.4730 0.1368
vn -0.8394 0.0949 0.5352
vn -0.9575 0.0862 0.2754
vn -0.7045 0.0709 0.7061
vn -0.2959 -0.9287 -0.2236
vn -0.8208 -0.4608 0.3377
vn -0.7867 -0.4270 0.4458
vn -0.3346 -0.9292 -0.1568
vn 0.3782 -0.5109 -0.7720
vn -0.1018 -0.9899 0.0988
vn 0.5649 -0.7481 -0.3481
vn 0.6880 -0.7162 -0.1173
vn -0.0882 -0.9933 0.0748
vn -0.4119 -0.7364 0.5367
vn 0.2662 -0.9322 0.2451
vn 0.2194 0.9346 0.2800
vn -0.3784 0.5253 0.7622
vn 0.4191 0.9011 0.1114
vn 0.2684 0.7535 -0.6002
vn 0.1257 0.8550 -0.5031
vn 0.0879 0.7776 -0.6226
vn -0.1261 0.8601 -0.4943
vn -0.6113 0.7887 0.0663
vn -0.1598 0.6754 -0.7200
vn -0.7354 0.1986 0.6479
vn -0.9771 0.2129 0.0071
vn 0.4401 0.2040 0.8745
vn 0.4170 0.0909 -0.9043
vn -0.7516 0.2060 -0.6266
vn 0.9733 0.2290 -0.0173
vn 0.4712 0.2082 -0.8571
vn -0.7217 0.0415 -0.6910
vn -0.6990 0.0437 0.7138
vn 0.3817 0.0919 0.9197
vn 0.9960 0.0882 -0.0169
vn -0.9999 0.0099 0.0118
vn -0.5499 -0.2222 -0.8052
vn 0.3957 0.1201 -0.9105
vn 0.3424 0.2735 0.8989
vn -0.5809 -0.0753 0.8104
vn -0.9592 -0.2827 -0.0003
vn 0.9121 0.4097 -0.0129
vn -0.4328 -0.2930 0.8525
vn 0.8007 0.5906 -0.1005
vn -0.8561 -0.5169 0.0051
vn -0.4829 -0.2403 -0.8420
vn 0.4293 0.3726 -0.8227
vn 0.4074 0.2448 0.8799
vn 0.5121 0.3347 0.7911
vn -0.3872 0.2114 0.8974
vn -0.9908 -0.1286 0.0421
vn 0.9806 0.1386 -0.1387
vn -0.6009 -0.2945 -0.7431
vn -0.4274 0.5198 0.7397
vn -0.2682 0.7877 -0.5547
vn 0.5999 -0.1222 -0.7907
vn 0.3288 -0.8197 0.4691
vn 0.2428 -0.0827 -0.9665
vn -0.6929 0.6192 -0.3693
vn 0.4791 0.1821 -0.8587
vn -0.7114 0.0646 0.6998
vn 0.6857 -0.6206 0.3802
s off
f 1/1/1 2/2/1 3/3/1
f 3/3/2 4/4/2 5/5/2
f 5/5/3 4/4/3 6/6/3
f 7/7/4 8/8/4 9/9/4
f 5/5/5 10/10/5 7/7/5
f 7/7/6 10/10/6 8/8/6
f 1/1/7 11/11/7 2/2/7
f 2/2/8 11/11/8 12/12/8
f 7/7/9 9/9/9 11/11/9
f 13/13/10 14/14/10 15/15/10
f 16/16/11 4/4/11 14/14/11
f 13/17/12 15/18/12 17/19/12
f 17/19/13 18/20/13 19/21/13
f 20/22/14 21/23/14 22/24/14
f 17/19/15 23/25/15 20/22/15
f 20/22/16 23/25/16 21/23/16
f 13/13/17 24/26/17 16/16/17
f 16/16/18 10/10/18 6/6/18
f 20/27/19 22/28/19 24/26/19
f 25/29/20 18/20/20 26/30/20
f 25/29/21 26/30/21 27/31/21
f 27/31/22 28/32/22 29/33/22
f 30/34/23 31/35/23 32/36/23
f 27/31/24 33/37/24 30/34/24
f 30/34/25 33/37/25 31/35/25
f 25/29/26 23/25/26 34/38/26
f 34/38/27 23/25/27 19/21/27
f 30/34/28 32/36/28 23/25/28
f 35/39/29 28/32/29 36/40/29
f 35/39/30 36/40/30 37/41/30
f 37/42/31 38/43/31 12/12/31
f 39/44/32 40/45/32 41/46/32
f 37/42/33 11/11/33 39/47/33
f 39/47/34 11/11/34 40/48/34
f 35/39/35 33/37/35 42/49/35
f 42/49/36 33/37/36 29/33/36
f 39/44/37 41/46/37 33/37/37
f 43/50/38 11/11/38 9/9/38
f 44/51/39 8/8/39 45/52/39
f 45/52/40 10/10/40 22/28/40
f 45/53/41 21/23/41 46/54/41
f 46/54/42 23/25/42 32/36/42
f 44/55/43 31/35/43 43/56/43
f 31/35/44 33/37/44 41/46/44
f 47/57/45 28/32/45 26/30/45
f 48/58/46 18/20/46 49/59/46
f 49/59/47 18/20/47 15/18/47
f 50/60/48 4/4/48 3/3/48
f 49/61/49 14/14/49 50/60/49
f 48/62/50 38/43/50 47/63/50
f 3/3/51 2/2/51 38/43/51
f 2/2/52 12/12/52 38/43/52
f 1/1/53 3/3/53 5/5/53
f 1/1/54 5/5/54 7/7/54
f 5/5/55 6/6/55 10/10/55
f 1/1/56 7/7/56 11/11/56
f 13/13/57 16/16/57 14/14/57
f 16/16/58 6/6/58 4/4/58
f 17/19/59 15/18/59 18/20/59
f 13/17/60 17/19/60 20/22/60
f 17/19/61 19/21/61 23/25/61
f 13/13/62 20/27/62 24/26/62
f 16/16/63 24/26/63 10/10/63
f 24/26/64 22/28/64 10/10/64
f 25/29/65 34/38/65 18/20/65
f 34/38/66 19/21/66 18/20/66
f 27/31/67 26/30/67 28/32/67
f 25/29/68 27/31/68 30/34/68
f 27/31/69 29/33/69 33/37/69
f 25/29/70 30/34/70 23/25/70
f 35/39/71 42/49/71 28/32/71
f 42/49/72 29/33/72 28/32/72
f 37/42/73 36/64/73 38/43/73
f 35/39/74 37/41/74 39/44/74
f 37/42/75 12/12/75 11/11/75
f 35/39/76 39/44/76 33/37/76
f 44/51/77 43/50/77 9/9/77
f 43/56/78 41/46/78 40/45/78
f 43/50/79 40/48/79 11/11/79
f 44/51/80 9/9/80 8/8/80
f 45/52/81 8/8/81 10/10/81
f 44/55/82 45/53/82 46/54/82
f 45/53/83 22/24/83 21/23/83
f 46/54/84 21/23/84 23/25/84
f 44/55/85 46/54/85 31/35/85
f 43/56/86 31/35/86 41/46/86
f 46/54/87 32/36/87 31/35/87
f 48/58/88 47/57/88 26/30/88
f 47/57/89 36/40/89 28/32/89
f 48/58/90 26/30/90 18/20/90
f 48/62/91 49/61/91 50/60/91
f 49/61/92 15/15/92 14/14/92
f 50/60/93 14/14/93 4/4/93
f 48/62/94 50/60/94 38/43/94
f 47/63/95 38/43/95 36/64/95
f 50/60/96 3/3/96 38/43/96
f 62/65/97 61/66/97 54/67/97 53/68/97
f 61/66/98 60/69/98 55/70/98 54/67/98
f 63/71/99 62/65/99 53/68/99 52/72/99
f 68/73/100 69/74/100 58/75/100 59/76/100
f 60/77/101 59/76/101 56/78/101 55/79/101
f 58/75/102 63/71/102 52/72/102 57/80/102
f 59/76/103 58/75/103 57/80/103 56/78/103
f 67/81/104 68/73/104 59/76/104 60/77/104
f 65/82/105 66/83/105 61/66/105 62/65/105
f 64/84/106 65/82/106 62/65/106 63/71/106
f 69/74/107 64/84/107 63/71/107 58/75/107
f 66/83/108 67/85/108 60/69/108 61/66/108
f 68/73/109 67/81/109 73/86/109 74/87/109
f 69/74/110 68/73/110 74/87/110 75/88/110
f 65/82/111 64/84/111 70/89/111 71/90/111
f 66/83/112 65/82/112 71/90/112 72/91/112
f 67/85/113 66/83/113 72/91/113 73/92/113
f 75/88/114 70/89/114 64/84/114 69/74/114
f 72/91/115 71/90/115 77/93/115 78/94/115
f 70/89/116 75/88/116 81/95/116 76/96/116
f 73/92/117 72/91/117 78/94/117 79/97/117
f 74/87/118 73/86/118 79/98/118 80/99/118
f 75/88/119 74/87/119 80/99/119 81/95/119
f 71/90/120 70/89/120 76/96/120 77/93/120
f 77/100/121 76/101/121 82/102/121 83/103/121
f 78/104/122 77/100/122 83/103/122 84/105/122
f 79/106/123 78/104/123 84/105/123 85/107/123
f 76/101/124 88/108/124 87/109/124 82/102/124
f 80/110/125 79/111/125 85/112/125 86/113/125
f 88/114/126 76/115/126 89/116/126 92/117/126
f 80/118/127 88/114/127 92/117/127 90/119/127
f 88/108/128 80/110/128 86/113/128 87/109/128
f 76/115/129 81/120/129 91/121/129 89/116/129
f 81/122/130 80/118/130 90/119/130 91/123/130
f 90/119/131 92/117/131 96/124/131 94/125/131
f 91/123/132 90/119/132 94/125/132 95/126/132
f 92/117/133 89/116/133 93/127/133 96/124/133
f 89/116/134 91/121/134 95/128/134 93/127/134
