# Blender v2.78 (sub 0) OBJ File: 'Low_Poly_Trees_Pack.blend'
# www.blender.org
g Oak_Tree_crk_l_04
v -1.172227 1.088696 6.413770
v -0.893386 1.770293 6.265230
v -1.477297 1.967869 5.459474
v -1.641991 1.094913 5.387250
v -0.855299 0.529958 6.250740
v -0.492635 0.227114 5.651148
v -0.297158 0.476878 6.748429
v -0.350257 1.330774 7.190655
v -0.059825 2.337684 6.898675
v -0.673684 0.925432 3.062355
v -1.358243 1.599660 3.842340
v -1.329165 0.250381 4.198471
v -0.050787 1.785869 3.036458
v 0.772913 0.617739 3.037315
v -0.245021 -0.178115 4.465842
v 1.182901 1.876785 3.339665
v 0.774706 2.833649 3.525359
v 1.922028 2.133385 4.456505
v 0.754872 3.336087 4.729943
v 1.547641 2.889929 5.138574
v 2.136123 0.805519 4.388535
v 2.287084 0.537762 5.283210
v 1.865424 -0.123671 4.938652
v 2.099418 1.625151 5.651080
v 1.050335 3.004903 6.295266
v 0.216236 3.550441 5.878604
v -1.169520 2.945501 5.878103
v 1.309866 1.634520 7.053355
v 1.879293 1.064832 6.573277
v 1.159244 0.434730 6.467762
v 0.589473 -0.098730 5.599245
v -0.145777 3.571725 4.725352
v -0.261149 2.950698 3.817418
v -1.215649 2.417566 4.003990
v 6.895022 -0.036586 4.773689
v 6.163022 0.234748 5.401235
v 5.177977 -0.455970 5.270813
v 5.901717 -0.534362 4.265939
v 7.082205 0.378512 3.754170
v 6.623149 0.663739 2.829634
v 7.858918 0.824537 3.962861
v 7.347544 0.836004 5.456849
v 6.250529 1.100119 6.264149
v 3.699526 0.091103 2.542386
v 3.838444 -0.142660 3.934090
v 5.378793 -0.441759 2.585366
v 2.802425 0.586103 3.683907
v 3.738235 1.236214 2.043046
v 5.918354 0.551827 1.741674
v 3.123458 1.052677 2.886305
v 2.560825 1.036205 4.757114
v 3.414386 2.177634 4.094490
v 3.261437 1.111246 5.982491
v 4.105658 2.094360 4.976439
v 4.559510 3.132079 2.329565
v 5.803540 3.125273 2.697979
v 6.125770 2.852013 1.695132
v 5.350315 3.216091 4.458313
v 5.211357 2.186740 6.186134
v 4.300342 0.753294 6.388070
v 5.021196 -0.001977 6.342118
v 6.701009 2.576985 5.501399
v 6.618303 3.088832 4.502294
v 7.326002 2.231744 3.533063
v 6.857605 1.572355 2.245664
v 3.424644 0.657115 6.187282
v 2.899650 0.535069 5.176171
v 3.452471 -0.069832 4.892170
v -0.396962 -0.010686 0.283879
v -0.100948 -0.010686 0.565723
v 0.424350 -0.010686 0.279496
v 0.431596 -0.010686 -0.104764
v -0.309087 0.719203 0.282918
v -0.000094 0.719203 0.430698
v 0.240369 0.719203 0.322431
v 0.231121 0.740085 0.001521
v -0.078278 0.283612 0.366140
v 0.271660 0.283612 0.195812
v 0.334946 0.283612 -0.068293
v -0.333552 0.283612 0.241146
v 0.003321 -0.010686 0.640586
v 0.412568 -0.010686 0.491632
v -0.014775 0.283612 0.440394
v 0.285936 0.283612 0.330944
v 0.152772 1.844337 0.509536
v -0.015059 1.847478 0.596334
v -0.227244 1.918109 0.455264
v -0.529697 -0.000986 -0.305545
v -0.145619 -0.000986 -0.496807
v -0.031347 0.804190 -0.228477
v -0.104530 0.324850 -0.380723
v -0.409749 0.337087 -0.216983
v -0.287827 0.850725 -0.082984
v 0.031193 1.986525 0.065230
v 0.192666 1.895674 0.243328
v 0.381214 1.997162 0.512583
v 0.447021 2.197140 0.659975
v 1.261874 1.356346 1.932488
v 1.055908 1.309719 2.074818
v 0.904446 1.542953 2.164789
v 1.199250 1.671599 2.256400
v 1.379403 1.568664 2.009476
v 3.256371 0.970408 2.718678
v 3.164474 0.915349 2.780377
v 3.145533 0.957134 2.910476
v 3.236457 1.046209 2.925867
v 3.268509 1.111164 2.774378
v 1.255853 1.387924 2.378938
v 0.285688 1.418326 3.138002
v 0.259658 1.509909 3.133348
v 0.342289 1.561222 3.209702
v 0.398418 1.448693 3.217909
v 0.238724 1.088578 4.279082
v 0.211631 1.119320 4.288143
v 0.245571 1.157523 4.306918
v 0.287780 1.124570 4.292408
v 0.739484 0.815967 4.928813
v 0.707374 0.835046 4.934266
v 0.724505 0.880735 4.938360
v 0.769674 0.863106 4.926567
v 3.793089 0.674021 4.043982
v 3.752529 0.637370 4.100786
v 3.682492 0.680464 4.132039
v 3.682458 0.749707 4.088562
v 3.760819 0.743884 4.026964
v 4.619511 0.830371 5.347794
v 4.593854 0.837251 5.363638
v 4.596826 0.858149 5.355091
v 4.619761 0.856911 5.339410
v 3.340269 1.031442 2.858648
v 4.580971 1.876466 2.681295
v 4.568711 1.909007 2.805740
v 4.550709 1.915599 2.731817
v 4.586558 1.860781 2.776992
v 5.744928 1.688242 3.036848
v 5.724201 1.705750 3.089474
v 5.735424 1.706581 3.057079
v 5.742493 1.681208 3.081850
v 0.176169 1.846058 0.544883
v 0.025773 1.844342 0.652961
v 0.027129 2.048537 0.818733
v 0.272605 2.231581 0.866898
v 0.194051 2.104412 0.250185
v 0.153413 2.365388 0.248343
v 0.085442 2.338831 0.604500
v 0.196704 1.280273 0.416352
v -0.007710 1.284837 0.513148
v 0.211893 1.317880 0.122425
v -0.250885 1.571791 0.405480
v -0.251643 1.444446 0.043372
v 0.013127 1.644994 -0.019611
vt 0.7144 0.5580
vt 0.7201 0.5547
vt 0.7204 0.5653
vt 0.7052 0.5573
vt 0.6960 0.5604
vt 0.7056 0.5496
vt 0.7113 0.5657
vt 0.7148 0.5470
vt 0.7258 0.5482
vt 0.7011 0.5704
vt 0.7171 0.5769
vt 0.6601 0.5425
vt 0.6709 0.5496
vt 0.6574 0.5526
vt 0.6386 0.5459
vt 0.7020 0.5804
vt 0.6904 0.5643
vt 0.6662 0.5593
vt 0.6729 0.5616
vt 0.6646 0.5679
vt 0.6743 0.5722
vt 0.6683 0.5743
vt 0.6590 0.5629
vt 0.6524 0.5675
vt 0.6490 0.5601
vt 0.6600 0.5732
vt 0.6707 0.5832
vt 0.6777 0.5828
vt 0.6720 0.5936
vt 0.7191 0.5324
vt 0.7105 0.5366
vt 0.6557 0.5879
vt 0.6513 0.5776
vt 0.7004 0.5361
vt 0.6892 0.5553
vt 0.6342 0.5547
vt 0.6873 0.5686
vt 0.6879 0.5567
vt 0.6844 0.5458
vt 0.6785 0.5385
vt 0.7380 0.5784
vt 0.7293 0.5618
vt 0.7428 0.5686
vt 0.7377 0.5546
vt 0.6398 0.5758
vt 0.7254 0.5706
vt 0.7144 0.5580
vt 0.7201 0.5547
vt 0.7204 0.5653
vt 0.7052 0.5573
vt 0.6960 0.5604
vt 0.7056 0.5496
vt 0.7113 0.5657
vt 0.7148 0.5470
vt 0.7258 0.5482
vt 0.7011 0.5704
vt 0.7171 0.5769
vt 0.6601 0.5425
vt 0.6736 0.5514
vt 0.6574 0.5526
vt 0.6386 0.5459
vt 0.7020 0.5804
vt 0.6904 0.5643
vt 0.6654 0.5544
vt 0.6754 0.5601
vt 0.6671 0.5651
vt 0.6774 0.5712
vt 0.6674 0.5711
vt 0.6590 0.5629
vt 0.6524 0.5675
vt 0.6490 0.5601
vt 0.6600 0.5732
vt 0.6707 0.5832
vt 0.6849 0.5812
vt 0.6720 0.5936
vt 0.7191 0.5324
vt 0.7105 0.5366
vt 0.6557 0.5879
vt 0.6513 0.5776
vt 0.7004 0.5361
vt 0.6892 0.5553
vt 0.6342 0.5547
vt 0.6873 0.5686
vt 0.6879 0.5567
vt 0.6844 0.5458
vt 0.6785 0.5385
vt 0.7380 0.5784
vt 0.7293 0.5618
vt 0.7428 0.5686
vt 0.7399 0.5578
vt 0.6398 0.5758
vt 0.7254 0.5706
vt 0.9498 0.6585
vt 0.9477 0.6542
vt 0.9519 0.6520
vt 0.9542 0.6566
vt 0.9295 0.6407
vt 0.9282 0.6467
vt 0.9243 0.6458
vt 0.9262 0.6408
vt 0.9467 0.6533
vt 0.9427 0.6580
vt 0.9399 0.6543
vt 0.9444 0.6501
vt 0.9508 0.6510
vt 0.9474 0.6476
vt 0.9300 0.6369
vt 0.9254 0.6367
vt 0.9446 0.6606
vt 0.9252 0.6535
vt 0.9267 0.6583
vt 0.9246 0.6619
vt 0.9221 0.6600
vt 0.9501 0.6603
vt 0.9542 0.6590
vt 0.9191 0.6587
vt 0.9218 0.6523
vt 0.9371 0.6626
vt 0.9320 0.6672
vt 0.9295 0.6653
vt 0.9324 0.6623
vt 0.9324 0.6488
vt 0.9353 0.6516
vt 0.9308 0.6580
vt 0.9398 0.6457
vt 0.9360 0.6432
vt 0.9381 0.6394
vt 0.9426 0.6419
vt 0.9391 0.6645
vt 0.9337 0.6687
vt 0.9632 0.6420
vt 0.9651 0.6638
vt 0.9611 0.6645
vt 0.9601 0.6418
vt 0.9544 0.6405
vt 0.9574 0.6408
vt 0.9575 0.6637
vt 0.9543 0.6632
vt 0.9667 0.6404
vt 0.9683 0.6612
vt 0.9698 0.6390
vt 0.9717 0.6619
vt 0.9721 0.6390
vt 0.9663 0.6931
vt 0.9644 0.6917
vt 0.9683 0.6656
vt 0.9679 0.6923
vt 0.9078 0.6378
vt 0.9117 0.6367
vt 0.9117 0.6533
vt 0.9101 0.6534
vt 0.9628 0.6919
vt 0.9613 0.6920
vt 0.9156 0.6385
vt 0.9190 0.6371
vt 0.9145 0.6533
vt 0.9133 0.6530
vt 0.9718 0.6624
vt 0.9696 0.6912
vt 0.9030 0.6375
vt 0.9083 0.6534
vt 0.9113 0.6682
vt 0.9106 0.6681
vt 0.9131 0.6680
vt 0.9126 0.6679
vt 0.9119 0.6680
vt 0.9121 0.6787
vt 0.9117 0.6789
vt 0.9128 0.6787
vt 0.9111 0.6789
vt 0.9132 0.6789
vt 0.9393 0.6752
vt 0.9394 0.6757
vt 0.9387 0.6759
vt 0.9387 0.6752
vt 0.9686 0.7135
vt 0.9675 0.7133
vt 0.9643 0.7130
vt 0.9634 0.7136
vt 0.9643 0.6934
vt 0.9653 0.7125
vt 0.9524 0.6699
vt 0.9542 0.6687
vt 0.9530 0.6888
vt 0.9518 0.6889
vt 0.9666 0.7127
vt 0.9661 0.7326
vt 0.9658 0.7326
vt 0.9665 0.7327
vt 0.9669 0.7327
vt 0.9654 0.7327
vt 0.9375 0.6756
vt 0.9376 0.6752
vt 0.9379 0.6752
vt 0.9379 0.6756
vt 0.9493 0.6697
vt 0.9512 0.6688
vt 0.9510 0.6889
vt 0.9501 0.6886
vt 0.9477 0.6687
vt 0.9492 0.6889
vt 0.9523 0.7052
vt 0.9520 0.7050
vt 0.9516 0.7051
vt 0.9512 0.7052
vt 0.9528 0.7051
vt 0.9383 0.6752
vt 0.9386 0.6755
vt 0.9383 0.6757
vt 0.9379 0.6752
vt 0.9698 0.6382
vt 0.9721 0.6385
vt 0.9543 0.6400
vt 0.9600 0.6383
vt 0.9626 0.6380
vt 0.9576 0.6367
vt 0.8297 0.6582
vt 0.8196 0.6514
vt 0.8408 0.6568
vt 0.8201 0.6938
vt 0.8388 0.6797
vt 0.8446 0.6969
vt 0.8258 0.7111
vt 0.8546 0.7077
vt 0.8388 0.7215
vt 0.8057 0.7067
vt 0.8066 0.6797
vt 0.8200 0.6919
vt 0.7870 0.7050
vt 0.7878 0.6797
vt 0.8546 0.7178
vt 0.7729 0.7051
vt 0.7679 0.6963
vt 0.7744 0.6831
vn -0.6871 0.4116 0.5988
vn -0.3221 -0.9091 0.2643
vn -0.6071 -0.7939 0.0337
vn -0.6871 0.4116 0.5987
vn -0.7093 0.3773 0.5955
vn -0.6341 -0.3863 0.6699
vn -0.9972 -0.0385 -0.0646
vn -0.0205 -0.0152 -0.9997
vn -0.1799 -0.7992 -0.5735
vn -0.1740 -0.7992 -0.5753
vn -0.6149 -0.7102 0.3427
vn 0.2107 0.2721 -0.9389
vn 0.7125 0.4139 -0.5666
vn 0.6002 0.6787 -0.4233
vn 0.8695 -0.4134 -0.2704
vn 0.9837 0.1625 -0.0769
vn 0.9737 0.2031 -0.1035
vn 0.6357 -0.5219 -0.5688
vn 0.5161 0.8525 0.0829
vn 0.0338 0.6388 0.7686
vn 0.0301 0.2704 0.9623
vn 0.1661 -0.5331 0.8296
vn 0.8213 0.4820 0.3052
vn 0.7926 0.4185 0.4435
vn 0.1568 -0.4465 0.8809
vn -0.2027 -0.7695 0.6056
vn -0.2668 -0.9276 0.2614
vn 0.0121 -0.9981 0.0610
vn 0.9591 0.0731 0.2733
vn 0.2368 0.8981 -0.3707
vn -0.4092 0.4560 -0.7903
vn -0.5335 0.2525 -0.8072
vn -0.7300 0.6038 -0.3203
vn -0.8093 0.0033 0.5873
vn -0.6438 0.0987 0.7588
vn -0.9006 0.1357 0.4130
vn -0.7681 -0.5373 0.3483
vn -0.5148 -0.4960 0.6992
vn -0.8080 -0.1666 -0.5651
vn -0.9024 0.2018 -0.3808
vn -0.5264 0.3578 -0.7713
vn -0.4049 -0.8878 0.2189
vn 0.2247 0.1577 -0.9616
vn 0.6559 0.7005 -0.2814
vn 0.8061 0.1591 -0.5700
vn 0.9096 0.4134 0.0408
vn 0.7069 -0.0610 -0.7047
vn 0.4467 0.8887 0.1037
vn -0.2858 0.6541 0.7003
vn 0.1611 0.5009 0.8504
vn 0.8001 0.3992 0.4478
vn 0.2037 -0.3836 0.9008
vn 0.0141 -0.9755 0.2195
vn 0.1978 -0.8878 0.4156
vn 0.1170 -0.9007 -0.4184
vn 0.5860 -0.6355 0.5027
vn 0.5461 -0.7009 0.4589
vn -0.0638 0.8275 -0.5579
vn 0.2529 0.9655 -0.0616
vn -0.1751 0.5262 -0.8321
vn -0.9744 0.1927 -0.1156
vn -0.5082 0.8322 -0.2219
vn -0.3961 0.9073 0.1411
vn -0.9428 0.3262 -0.0687
vn 0.3539 -0.6345 0.6872
vn 0.5304 -0.6994 -0.4791
vn 0.4158 -0.7902 -0.4502
vn 0.3146 -0.6809 0.6614
vn 0.3172 -0.6855 0.6553
vn 0.4579 -0.8739 0.1634
vn -0.2080 -0.9779 -0.0207
vn -0.8109 -0.2107 -0.5459
vn -0.2429 -0.3808 -0.8922
vn -0.1652 -0.5847 -0.7942
vn 0.6702 -0.6998 -0.2471
vn -0.9446 0.1668 -0.2826
vn -0.8394 0.4836 -0.2482
vn -0.4345 0.7988 0.4160
vn 0.0762 0.9680 -0.2393
vn -0.4889 0.8597 0.1477
vn 0.0193 0.9987 -0.0466
vn -0.3183 0.2750 -0.9072
vn -0.2581 0.2937 0.9204
vn 0.0431 0.1125 0.9927
vn 0.6117 0.2076 0.7633
vn 0.9337 0.3442 0.0990
vn -0.5109 0.7560 0.4093
vn 0.0737 0.8900 0.4499
vn 0.8616 0.4154 0.2917
vn 0.9256 -0.3425 -0.1613
vn 0.7582 -0.4796 -0.4418
vn 0.5254 -0.0645 -0.8484
vn 0.1007 0.9946 -0.0254
vn -0.8627 -0.0853 0.4985
vn -0.7322 -0.6806 0.0244
vn -0.5428 -0.8252 -0.1560
vn -0.3885 -0.8690 0.3066
vn 0.4901 -0.7745 0.3999
vn 0.5773 -0.6051 0.5483
vn 0.3057 -0.9066 0.2909
vn 0.5288 -0.8156 -0.2350
vn 0.8935 -0.4487 -0.0187
vn -0.2969 -0.9461 -0.1293
vn -0.1280 -0.9917 -0.0148
vn -0.5600 -0.8244 -0.0826
vn 0.6584 -0.6619 -0.3584
vn -0.6153 -0.5470 -0.5676
vn -0.6530 0.6809 0.3317
vn -0.8251 0.4987 -0.2657
vn -0.4862 0.7481 0.4517
vn -0.7775 0.4090 -0.4778
vn -0.4774 0.7944 0.3757
vn 0.0634 -0.0002 0.9980
vn 0.3102 0.3598 0.8799
vn 0.0106 0.8587 0.5124
vn 0.8716 0.4014 0.2815
vn 0.6735 0.0295 -0.7386
vn 0.8435 0.2871 -0.4539
vn -0.1392 -0.0075 -0.9902
vn 0.5297 0.8461 -0.0604
vn 0.5885 0.7688 -0.2502
vn -0.8619 -0.1894 0.4704
vn -0.2451 0.3240 0.9138
vn -0.8417 -0.5387 0.0364
vn -0.2157 -0.9764 -0.0127
vn -0.4748 -0.6903 0.5460
vn -0.1917 -0.2409 0.9514
vn -0.2759 -0.8988 0.3405
vn 0.2854 0.5510 0.7842
vn 0.9871 0.1284 0.0958
vn -0.4345 -0.0585 0.8988
vn -0.5478 0.3857 0.7423
vn 0.9133 0.3949 0.0994
vn 0.3730 0.0326 0.9272
vn 0.7465 0.1462 -0.6491
vn 0.9045 0.4265 -0.0065
vn 0.9893 0.1015 -0.1045
vn -0.5911 0.4563 0.6651
vn -0.7594 0.0401 0.6494
vn 0.9940 0.0356 0.1034
vn -0.5427 -0.1120 0.8324
vn -0.4190 0.2289 -0.8786
vn -0.9972 0.0698 -0.0277
vn -0.4223 0.3590 -0.8323
vn -0.4293 0.3270 -0.8419
vn -0.9863 0.1343 0.0959
vn -0.9441 0.2590 0.2039
vn 0.6177 0.2007 -0.7604
vn 0.5605 0.2448 -0.7912
vn 0.4372 -0.1196 0.8914
vn 0.4489 0.8898 0.0814
vn 0.2130 -0.8571 -0.4691
vn -0.5137 0.6288 0.5837
vn 0.8228 -0.0582 -0.5653
vn -0.7943 -0.4858 0.3648
vn -0.1628 -0.9566 -0.2417
vn 0.2514 0.9670 0.0417
vn -0.2084 0.2879 0.9347
vn 0.6573 0.3982 0.6398
vn -0.0052 -0.8919 -0.4522
vn 0.3995 0.1903 -0.8968
vn -0.7903 -0.2901 -0.5396
vn -0.3466 0.9159 -0.2025
vn -0.2956 -0.8820 0.3669
vn 0.1132 -0.9764 0.1838
vn 0.4752 -0.8525 -0.2178
vn -0.9076 -0.3884 -0.1594
vn 0.8060 0.5337 0.2558
vn -0.6940 0.6918 0.1994
vn 0.4987 0.8667 -0.0100
vn -0.7116 0.2547 0.6548
vn 0.5911 -0.4767 -0.6507
vn -0.6168 -0.7743 0.1416
vn 0.1686 -0.1055 0.9800
vn -0.5969 -0.7972 0.0902
vn 0.3205 -0.8882 -0.3291
vn 0.9312 -0.0258 -0.3635
vn 0.5571 -0.8288 -0.0520
vn -0.7480 0.5057 0.4299
vn 0.0027 0.9962 -0.0874
vn -0.7778 0.3330 0.5331
vn -0.2984 -0.8918 0.3400
vn 0.4833 -0.8513 -0.2042
vn 0.8273 0.1308 -0.5464
vn 0.5561 0.2456 0.7940
vn -0.5130 0.8269 0.2305
vn 0.2211 0.9622 0.1589
vn -0.3249 0.4564 -0.8283
vn 0.3768 -0.4796 0.7925
vn -0.2906 -0.5394 0.7904
vn 0.2839 0.8161 -0.5033
vn -0.1112 -0.9815 -0.1560
vn 0.1584 0.9856 0.0587
vn 0.8080 0.5112 0.2930
vn 0.9260 0.3622 0.1067
vn -0.0097 -0.9999 -0.0086
vn 0.5309 -0.7874 -0.3131
vn -0.7488 -0.4147 0.5170
vn 0.3435 0.9294 0.1349
vn 0.8312 0.1256 -0.5416
vn -0.9687 -0.1522 -0.1962
vn -0.7049 -0.6716 0.2283
vn -0.4189 0.6824 -0.5990
vn 0.4144 -0.1223 0.9018
vn -0.6216 0.7394 -0.2587
vn -0.8439 0.1519 -0.5145
vn -0.4640 -0.1105 0.8789
vn 0.9985 0.0524 0.0146
vn 0.6951 0.1510 -0.7029
vn -0.3005 0.7352 -0.6076
vn 0.1476 0.9536 0.2625
vn 0.2804 0.9338 0.2221
s off
f 1/1/1 2/2/1 3/3/1
f 5/4/2 6/5/2 7/6/2
f 4/7/3 6/5/3 5/4/3
f 1/1/4 8/8/4 2/2/4
f 2/2/5 8/8/5 9/9/5
f 5/4/6 7/6/6 8/8/6
f 12/10/7 3/3/7 11/11/7
f 10/12/8 13/13/8 14/14/8
f 10/12/9 14/14/9 15/15/9
f 10/16/10 15/17/10 12/10/10
f 12/10/11 6/5/11 4/7/11
f 16/18/12 13/13/12 17/19/12
f 16/18/13 17/19/13 18/20/13
f 18/20/14 19/21/14 20/22/14
f 21/23/15 22/24/15 23/25/15
f 18/20/16 24/26/16 21/23/16
f 21/23/17 24/26/17 22/24/17
f 21/23/18 23/25/18 14/14/18
f 25/27/19 19/21/19 26/28/19
f 25/27/20 26/28/20 9/29/20
f 9/9/21 8/8/21 28/30/21
f 28/30/22 8/8/22 29/31/22
f 25/27/23 24/26/23 20/22/23
f 28/32/24 29/33/24 24/26/24
f 30/34/25 8/8/25 7/6/25
f 30/34/26 6/5/26 31/35/26
f 31/35/27 6/5/27 15/17/27
f 31/36/28 15/15/28 23/25/28
f 22/24/29 24/26/29 29/33/29
f 32/37/30 19/21/30 17/19/30
f 33/38/31 13/13/31 34/39/31
f 34/39/32 13/13/32 11/40/32
f 33/41/33 27/42/33 32/43/33
f 3/3/34 2/2/34 27/42/34
f 2/2/35 9/9/35 27/42/35
f 1/1/36 3/3/36 4/7/36
f 1/1/37 4/7/37 5/4/37
f 1/1/38 5/4/38 8/8/38
f 10/16/39 12/10/39 11/11/39
f 12/10/40 4/7/40 3/3/40
f 10/12/41 11/40/41 13/13/41
f 12/10/42 15/17/42 6/5/42
f 16/18/43 14/14/43 13/13/43
f 18/20/44 17/19/44 19/21/44
f 16/18/45 18/20/45 21/23/45
f 18/20/46 20/22/46 24/26/46
f 16/18/47 21/23/47 14/14/47
f 25/27/48 20/22/48 19/21/48
f 9/9/49 26/44/49 27/42/49
f 25/27/50 9/29/50 28/32/50
f 25/27/51 28/32/51 24/26/51
f 30/34/52 29/31/52 8/8/52
f 30/34/53 7/6/53 6/5/53
f 30/45/54 31/36/54 23/25/54
f 23/25/55 15/15/55 14/14/55
f 30/45/56 23/25/56 22/24/56
f 30/45/57 22/24/57 29/33/57
f 33/38/58 32/37/58 17/19/58
f 32/37/59 26/28/59 19/21/59
f 33/38/60 17/19/60 13/13/60
f 34/46/61 11/11/61 3/3/61
f 33/41/62 34/46/62 27/42/62
f 32/43/63 27/42/63 26/44/63
f 34/46/64 3/3/64 27/42/64
f 35/47/65 36/48/65 37/49/65
f 39/50/66 40/51/66 41/52/66
f 38/53/67 40/51/67 39/50/67
f 35/47/68 42/54/68 36/48/68
f 36/48/69 42/54/69 43/55/69
f 39/50/70 41/52/70 42/54/70
f 46/56/71 37/49/71 45/57/71
f 44/58/72 47/59/72 48/60/72
f 44/58/73 48/60/73 49/61/73
f 44/62/74 49/63/74 46/56/74
f 46/56/75 40/51/75 38/53/75
f 50/64/76 47/59/76 51/65/76
f 50/64/77 51/65/77 52/66/77
f 52/66/78 53/67/78 54/68/78
f 55/69/79 56/70/79 57/71/79
f 52/66/80 58/72/80 55/69/80
f 55/69/81 58/72/81 56/70/81
f 55/69/82 57/71/82 48/60/82
f 59/73/83 53/67/83 60/74/83
f 59/73/84 60/74/84 43/75/84
f 43/55/85 42/54/85 62/76/85
f 62/76/86 42/54/86 63/77/86
f 59/73/87 58/72/87 54/68/87
f 62/78/88 63/79/88 58/72/88
f 64/80/89 42/54/89 41/52/89
f 64/80/90 40/51/90 65/81/90
f 65/81/91 40/51/91 49/63/91
f 65/82/92 49/61/92 57/71/92
f 56/70/93 58/72/93 63/79/93
f 66/83/94 53/67/94 51/65/94
f 67/84/95 47/59/95 68/85/95
f 68/85/96 47/59/96 45/86/96
f 67/87/97 61/88/97 66/89/97
f 37/49/98 36/48/98 61/88/98
f 36/48/99 43/55/99 61/88/99
f 35/47/100 37/49/100 38/53/100
f 35/47/101 38/53/101 39/50/101
f 35/47/102 39/50/102 42/54/102
f 44/62/103 46/56/103 45/57/103
f 46/56/104 38/53/104 37/49/104
f 44/58/105 45/86/105 47/59/105
f 46/56/106 49/63/106 40/51/106
f 50/64/107 48/60/107 47/59/107
f 52/66/108 51/65/108 53/67/108
f 50/64/109 52/66/109 55/69/109
f 52/66/110 54/68/110 58/72/110
f 50/64/111 55/69/111 48/60/111
f 59/73/112 54/68/112 53/67/112
f 43/55/113 60/90/113 61/88/113
f 59/73/114 43/75/114 62/78/114
f 59/73/115 62/78/115 58/72/115
f 64/80/116 63/77/116 42/54/116
f 64/80/117 41/52/117 40/51/117
f 64/91/118 65/82/118 57/71/118
f 57/71/119 49/61/119 48/60/119
f 64/91/120 57/71/120 56/70/120
f 64/91/121 56/70/121 63/79/121
f 67/84/122 66/83/122 51/65/122
f 66/83/123 60/74/123 53/67/123
f 67/84/124 51/65/124 47/59/124
f 68/92/125 45/57/125 37/49/125
f 67/87/126 68/92/126 61/88/126
f 66/89/127 61/88/127 60/90/127
f 68/92/128 37/49/128 61/88/128
f 84/93/129 83/94/129 81/95/129 82/96/129
f 79/97/130 76/98/130 75/99/130 78/100/130
f 77/101/131 74/102/131 73/103/131 80/104/131
f 70/105/132 77/101/132 80/104/132 69/106/132
f 72/107/133 79/97/133 78/100/133 71/108/133
f 75/109/134 74/102/134 83/94/134 84/93/134
f 148/110/135 151/111/135 94/112/135 95/113/135
f 78/114/136 84/93/136 82/96/136 71/115/136
f 75/109/137 84/93/137 78/114/137
f 83/94/138 77/101/138 70/105/138 81/95/138
f 77/101/139 83/94/139 74/102/139
f 148/110/140 95/113/140 85/116/140 146/117/140
f 147/118/141 86/119/141 87/120/141 149/121/141
f 151/111/142 90/122/142 93/123/142 150/124/142
f 150/124/143 93/123/143 73/103/143 149/121/143
f 92/125/144 91/126/144 89/127/144 88/128/144
f 93/123/145 90/122/145 91/126/145 92/125/145
f 73/103/146 93/123/146 92/125/146 80/104/146
f 80/104/147 92/125/147 88/128/147 69/106/147
f 79/97/148 91/126/148 90/122/148 76/98/148
f 72/107/149 89/127/149 91/126/149 79/97/149
f 146/129/150 85/130/150 86/119/150 147/118/150
f 142/131/151 101/132/151 102/133/151 97/134/151
f 139/135/152 96/136/152 98/137/152 99/138/152
f 142/131/153 141/139/153 100/140/153 101/132/153
f 96/136/154 97/134/154 102/133/154 98/137/154
f 141/139/155 140/141/155 99/142/155 100/140/155
f 140/141/156 139/143/156 99/142/156
f 102/133/157 101/132/157 106/144/157 107/145/157
f 101/132/158 108/146/158 105/147/158 106/144/158
f 108/148/159 101/149/159 111/150/159 112/151/159
f 99/138/160 98/137/160 103/152/160 104/153/160
f 98/137/161 102/133/161 107/145/161 103/152/161
f 100/154/162 99/155/162 109/156/162 110/157/162
f 101/149/163 100/154/163 110/157/163 111/150/163
f 108/146/164 99/158/164 104/159/164 105/147/164
f 99/160/165 108/148/165 112/151/165 109/161/165
f 109/161/166 112/151/166 116/162/166 113/163/166
f 110/157/167 109/156/167 113/164/167 114/165/167
f 112/151/168 111/150/168 115/166/168 116/162/168
f 111/150/169 110/157/169 114/165/169 115/166/169
f 116/162/170 115/166/170 119/167/170 120/168/170
f 115/166/171 114/165/171 118/169/171 119/167/171
f 113/163/172 116/162/172 120/168/172 117/170/172
f 114/165/173 113/164/173 117/171/173 118/169/173
f 118/172/174 117/173/174 120/174/174 119/175/174
f 105/147/175 104/159/175 122/176/175 123/177/175
f 104/153/176 103/152/176 121/178/176 122/179/176
f 103/152/177 130/180/177 125/181/177 121/178/177
f 130/182/178 103/183/178 131/184/178 134/185/178
f 106/144/179 105/147/179 123/177/179 124/186/179
f 125/181/180 124/186/180 128/187/180 129/188/180
f 124/186/181 123/177/181 127/189/181 128/187/181
f 123/177/182 122/176/182 126/190/182 127/189/182
f 122/179/183 121/178/183 126/191/183
f 121/178/184 125/181/184 129/188/184 126/191/184
f 129/192/185 128/193/185 127/194/185 126/195/185
f 107/196/186 106/197/186 132/198/186 133/199/186
f 130/180/187 106/144/187 124/186/187 125/181/187
f 103/200/188 107/196/188 133/199/188 131/201/188
f 106/197/189 130/182/189 134/185/189 132/198/189
f 132/198/190 134/185/190 138/202/190 136/203/190
f 131/201/191 133/199/191 137/204/191 135/205/191
f 134/185/192 131/184/192 135/206/192 138/202/192
f 133/199/193 132/198/193 136/203/193 137/204/193
f 137/207/194 136/208/194 138/209/194
f 135/210/195 137/207/195 138/209/195
f 86/211/196 85/212/196 139/143/196 140/141/196
f 139/135/197 85/213/197 96/136/197
f 140/141/198 141/139/198 86/211/198
f 142/131/199 97/134/199 144/214/199 145/215/199
f 97/134/200 96/136/200 143/216/200 144/214/200
f 144/217/201 143/218/201 145/219/201
f 145/220/202 143/221/202 96/222/202 142/223/202
f 85/224/203 141/225/203 142/223/203 96/222/203
f 75/109/204 146/129/204 147/118/204 74/102/204
f 149/226/205 151/227/205 150/228/205
f 149/226/206 87/229/206 94/230/206 151/227/206
f 74/102/207 147/118/207 149/121/207 73/103/207
f 76/98/208 148/110/208 146/117/208 75/99/208
f 76/98/209 90/122/209 151/111/209 148/110/209
f 86/231/210 141/225/210 85/224/210
f 94/230/211 87/229/211 86/232/211 85/233/211
f 95/234/212 94/230/212 85/233/212
