# Blender v2.78 (sub 0) OBJ File: 'Low_Poly_Trees_Pack.blend'
# www.blender.org
g Oak_Tree_m_10
v -0.564856 6.586495 0.928792
v 0.166990 6.812567 0.746196
v -0.564044 7.322606 0.089121
v -0.823001 6.748626 0.577866
v -0.741237 5.673998 1.183903
v -1.207146 6.337771 0.718367
v 0.057504 5.951021 0.972966
v 0.570446 6.093025 0.236628
v -1.121587 6.694529 -0.067534
v -0.708140 6.814102 -0.619438
v -1.205230 6.457603 -0.425371
v -0.523733 6.248202 -1.297802
v -1.291487 5.625966 0.316182
v -1.055459 5.232237 0.762709
v -1.163394 4.973729 -0.201645
v -0.411268 5.062710 -1.015721
v -0.097530 6.240837 -1.283133
v 0.349138 6.037824 -0.936951
v 0.138972 5.108208 -0.807796
v -0.532701 4.493885 -0.480034
v -0.434046 4.369148 0.112704
v -0.790795 4.398098 0.163632
v 0.290450 4.464401 -0.436758
v -1.003934 5.703025 -1.046588
v 0.699259 5.977425 -0.374266
v 0.318413 7.127016 -0.034897
v 0.423103 5.233373 0.375988
v 0.003970 5.247560 0.958410
v 0.047858 4.611068 0.316284
v -0.409807 4.847382 0.828162
v -0.017413 6.940632 -0.830665
v 0.068553 5.556298 -1.212694
v 1.072128 5.614014 -1.853684
v 1.021721 5.375289 -1.093661
v 1.365287 4.770904 -1.586796
v 1.348083 5.412552 -2.142165
v 0.542466 5.805467 -2.104798
v 0.989804 5.402676 -2.551536
v 0.571732 5.612598 -1.260467
v 0.547735 4.984210 -0.703439
v 1.288457 4.920230 -2.406322
v 1.174116 4.133071 -1.951628
v 1.016081 4.377545 -2.548837
v 0.753156 3.589147 -1.812140
v 0.564543 5.066899 -2.707580
v 0.320687 5.426729 -2.443983
v 0.149395 4.624506 -2.584349
v 0.005998 3.840333 -1.807088
v 0.709692 3.523018 -1.308306
v 0.511638 3.909454 -0.891270
v -0.070948 4.002089 -1.132202
v -0.339461 4.376509 -1.964293
v -0.390623 4.935586 -1.885998
v -0.218893 4.950710 -2.250951
v -0.397132 4.381723 -1.054292
v 0.499995 3.896712 -2.357562
v 0.437128 4.443742 -0.565947
v 1.152850 4.667814 -0.891458
v 0.052821 5.144966 -0.875064
v 0.168342 5.658139 -1.359157
v -0.268597 5.078727 -1.321041
v 0.028787 5.467655 -1.826338
v 1.154536 3.890618 -1.144534
v 0.237873 3.683614 -1.245764
v 0.277903 0.000000 0.096412
v -0.030808 0.000000 0.247076
v -0.217629 0.000000 0.038694
v -0.219787 0.000000 -0.136585
v -0.035125 0.000000 -0.355495
v 0.274378 0.000000 -0.189898
v 0.209000 0.372961 -0.196911
v -0.003051 0.401750 -0.310366
v -0.129569 0.389715 -0.160384
v -0.128090 0.396010 -0.040295
v -0.000093 0.414344 0.102475
v 0.211415 0.383243 -0.000751
v 0.292191 0.993007 0.022396
v 0.138437 1.032309 0.068776
v 0.042520 1.028662 -0.006959
v 0.040943 1.024129 -0.096105
v 0.135280 1.023240 -0.177194
v 0.289613 0.985602 -0.123220
v 0.197582 1.751099 -0.063182
v 0.080621 1.749091 0.000923
v -0.033116 1.739532 -0.068111
v -0.029893 1.731980 -0.201249
v 0.087067 1.733989 -0.265354
v 0.200805 1.743548 -0.196320
v -0.119584 2.766305 -0.041048
v -0.202831 2.753566 -0.000641
v -0.283701 2.732610 -0.048925
v -0.281718 2.724254 -0.145033
v -0.206576 2.733980 -0.200274
v -0.110058 2.759545 -0.147977
v -0.045679 3.667617 -0.433390
v -0.090352 3.725058 -0.392432
v -0.182012 3.679502 -0.388309
v -0.184945 3.729441 -0.501754
v -0.140272 3.672000 -0.542712
v -0.070638 3.641088 -0.508530
v 0.318297 3.997977 -1.311595
v 0.305013 4.043964 -1.301316
v 0.265482 4.063384 -1.322694
v 0.245875 4.013823 -1.359489
v 0.292049 3.971411 -1.343251
v -0.102585 3.795595 -0.518336
v -0.257335 4.264631 -0.095046
v -0.328637 4.246030 -0.080458
v -0.332660 4.262989 -0.169691
v -0.266363 4.295295 -0.196329
v -0.065408 4.804274 -0.139151
v -0.110350 4.814877 -0.122093
v -0.122297 4.801927 -0.179007
v -0.079446 4.796938 -0.206923
vt 0.7114 0.5573
vt 0.7201 0.5547
vt 0.7183 0.5716
vt 0.7109 0.5663
vt 0.6994 0.5678
vt 0.7049 0.5504
vt 0.7148 0.5470
vt 0.7279 0.5464
vt 0.7010 0.5850
vt 0.7192 0.5866
vt 0.6640 0.5387
vt 0.6787 0.5387
vt 0.6638 0.5434
vt 0.6571 0.5528
vt 0.6489 0.5429
vt 0.6892 0.5757
vt 0.6893 0.5567
vt 0.6647 0.5620
vt 0.6736 0.5514
vt 0.6777 0.5595
vt 0.6759 0.5652
vt 0.6847 0.5693
vt 0.6650 0.5711
vt 0.6590 0.5629
vt 0.6524 0.5675
vt 0.6514 0.5601
vt 0.6600 0.5732
vt 0.6652 0.5537
vt 0.6557 0.5879
vt 0.6445 0.5870
vt 0.6512 0.5778
vt 0.7191 0.5324
vt 0.7105 0.5366
vt 0.6785 0.5821
vt 0.6993 0.5374
vt 0.6347 0.5533
vt 0.6879 0.5567
vt 0.7377 0.5782
vt 0.7293 0.5618
vt 0.7428 0.5686
vt 0.7399 0.5578
vt 0.6720 0.5936
vt 0.6389 0.5745
vt 0.7114 0.5573
vt 0.7201 0.5547
vt 0.7206 0.5695
vt 0.7109 0.5663
vt 0.6994 0.5678
vt 0.7049 0.5504
vt 0.7148 0.5470
vt 0.7279 0.5464
vt 0.7041 0.5805
vt 0.7192 0.5866
vt 0.6641 0.5360
vt 0.6787 0.5387
vt 0.6638 0.5434
vt 0.6571 0.5528
vt 0.6489 0.5429
vt 0.6892 0.5757
vt 0.6893 0.5567
vt 0.6647 0.5620
vt 0.6736 0.5514
vt 0.6777 0.5595
vt 0.6759 0.5652
vt 0.6847 0.5693
vt 0.6650 0.5711
vt 0.6590 0.5629
vt 0.6524 0.5675
vt 0.6514 0.5601
vt 0.6600 0.5732
vt 0.6652 0.5537
vt 0.6557 0.5879
vt 0.6445 0.5870
vt 0.6512 0.5778
vt 0.7191 0.5324
vt 0.7105 0.5366
vt 0.6785 0.5821
vt 0.6993 0.5374
vt 0.6347 0.5533
vt 0.6879 0.5567
vt 0.7377 0.5782
vt 0.7293 0.5618
vt 0.7428 0.5686
vt 0.7399 0.5578
vt 0.6720 0.5936
vt 0.6389 0.5745
vt 0.9082 0.7804
vt 0.9014 0.7812
vt 0.8978 0.7679
vt 0.9060 0.7653
vt 0.8976 0.7824
vt 0.8927 0.7703
vt 0.9171 0.7792
vt 0.9167 0.7653
vt 0.9279 0.8016
vt 0.9224 0.8002
vt 0.9244 0.7791
vt 0.9324 0.7805
vt 0.9386 0.7817
vt 0.9355 0.7681
vt 0.9441 0.7705
vt 0.9251 0.7665
vt 0.9320 0.8020
vt 0.9128 0.8019
vt 0.9089 0.8024
vt 0.9178 0.8004
vt 0.9060 0.8029
vt 0.9312 0.8254
vt 0.9271 0.8248
vt 0.9231 0.8243
vt 0.9190 0.8245
vt 0.9149 0.8253
vt 0.9107 0.8261
vt 0.9063 0.8264
vt 0.9169 0.8587
vt 0.9139 0.8589
vt 0.9233 0.8577
vt 0.9198 0.8581
vt 0.9109 0.8589
vt 0.9299 0.8582
vt 0.9270 0.8577
vt 0.9502 0.7656
vt 0.9529 0.7667
vt 0.9527 0.7993
vt 0.9503 0.7994
vt 0.9471 0.7653
vt 0.9475 0.7977
vt 0.9441 0.7661
vt 0.9446 0.8004
vt 0.9560 0.7679
vt 0.9554 0.8003
vt 0.9591 0.7676
vt 0.9617 0.7667
vt 0.9609 0.8014
vt 0.9583 0.8014
vt 0.9565 0.8331
vt 0.9551 0.8332
vt 0.9585 0.8335
vt 0.9536 0.8337
vt 0.9683 0.7660
vt 0.9717 0.7653
vt 0.9705 0.7859
vt 0.9680 0.7869
vt 0.9456 0.8016
vt 0.9485 0.8034
vt 0.9520 0.8341
vt 0.9499 0.8340
vt 0.9618 0.7654
vt 0.9648 0.7659
vt 0.9641 0.7864
vt 0.9618 0.7856
vt 0.9756 0.7660
vt 0.9734 0.7865
vt 0.9671 0.8059
vt 0.9656 0.8058
vt 0.9636 0.8062
vt 0.9621 0.8062
vt 0.9689 0.8069
vn -0.0677 0.7503 0.6577
vn -0.4514 0.6360 0.6259
vn -0.4041 0.3179 0.8577
vn 0.1678 0.2309 0.9584
vn 0.8152 0.0483 0.5772
vn 0.1714 0.2344 0.9569
vn -0.6568 0.6695 -0.3469
vn -0.6315 0.7063 -0.3200
vn -0.9831 -0.0541 -0.1750
vn -0.6639 0.7055 0.2480
vn -0.9155 -0.1101 0.3869
vn 0.0295 -0.2287 -0.9730
vn 0.8643 -0.2556 -0.4332
vn -0.1061 -0.9765 -0.1878
vn 0.0136 -0.6871 -0.7265
vn -0.0245 -0.9791 -0.2020
vn -0.5761 -0.5618 -0.5937
vn -0.9694 -0.0631 -0.2374
vn -0.6604 -0.6576 -0.3626
vn 0.7079 -0.4768 0.5210
vn 0.8240 -0.0497 0.5644
vn 0.8086 -0.0736 0.5837
vn 0.8221 -0.2001 -0.5330
vn 0.6664 -0.2483 -0.7030
vn 0.7862 -0.5078 0.3522
vn -0.3713 -0.4887 0.7895
vn -0.9109 -0.3887 0.1388
vn 0.3325 -0.8999 0.2824
vn -0.3254 0.6807 -0.6563
vn -0.3041 0.8022 -0.5139
vn 0.8158 0.3823 -0.4338
vn 0.2517 0.8799 0.4030
vn 0.9072 0.2989 0.2962
vn -0.3899 0.6926 0.6068
vn -0.7497 0.5913 0.2973
vn -0.6076 0.5208 -0.5996
vn -0.9762 0.1916 0.1013
vn -0.9890 0.1417 -0.0434
vn -0.2159 -0.2454 -0.9451
vn -0.7038 0.3301 -0.6290
vn 0.6317 0.0738 -0.7717
vn 0.3524 -0.4037 -0.8443
vn -0.6270 -0.4589 -0.6295
vn 0.9509 0.2710 0.1492
vn 0.9652 -0.1285 0.2278
vn 0.9603 -0.2633 0.0924
vn 0.4070 -0.6347 0.6569
vn 0.2682 -0.0403 0.9625
vn -0.7581 -0.0781 0.6474
vn -0.4322 -0.6125 0.6619
vn -0.8772 -0.3921 0.2769
vn 0.0118 -0.8315 0.5554
vn 0.1828 -0.8202 0.5421
vn 0.6680 0.3486 -0.6575
vn 0.0383 0.5395 -0.8411
vn 0.7974 0.3981 -0.4535
vn 0.1678 0.9418 -0.2914
vn 0.0677 -0.3714 0.9260
vn 0.3246 -0.6055 -0.7266
vn -0.2340 -0.1555 -0.9597
vn 0.9107 0.3729 0.1775
vn 0.3285 0.8925 -0.3090
vn 0.4489 0.8392 -0.3071
vn 0.3549 0.8849 0.3015
vn 0.0709 0.6601 0.7478
vn 0.2438 0.9473 0.2079
vn 0.9678 -0.2157 -0.1300
vn 0.8663 -0.3382 -0.3677
vn -0.0294 -0.2425 -0.9697
vn 0.7244 0.2557 -0.6402
vn -0.1153 0.5350 -0.8370
vn -0.3160 -0.9368 -0.1502
vn -0.3826 -0.6164 0.6882
vn -0.9042 -0.0230 -0.4264
vn -0.8329 -0.5512 -0.0496
vn -0.9946 -0.0823 -0.0626
vn -0.6232 -0.4901 -0.6094
vn -0.0524 -0.3200 -0.9460
vn -0.7398 -0.1697 -0.6511
vn -0.7083 0.5622 0.4270
vn -0.0434 0.6636 0.7468
vn -0.0961 0.6944 0.7132
vn -0.4038 -0.5162 0.7553
vn -0.3977 -0.4996 0.7695
vn -0.7857 0.3421 0.5154
vn -0.6394 0.6858 -0.3476
vn -0.5150 0.2514 -0.8195
vn -0.9609 0.2339 0.1483
vn 0.7575 -0.6301 -0.1709
vn 0.9646 -0.2581 -0.0541
vn 0.3434 -0.2901 0.8933
vn 0.9121 0.2597 0.3172
vn 0.4300 0.3209 0.8439
vn 0.7843 0.4179 0.4585
vn 0.9924 -0.0640 -0.1047
vn 0.6584 -0.6193 -0.4277
vn 0.3916 0.0448 -0.9191
vn 0.3759 -0.0459 -0.9255
vn -0.2996 -0.8838 -0.3593
vn 0.4252 -0.6896 -0.5862
vn -0.1770 -0.7624 0.6224
vn -0.7491 -0.6585 0.0724
vn -0.5433 -0.5388 -0.6438
vn 0.3674 0.1580 0.9166
vn -0.2305 0.2839 0.9307
vn -0.5082 0.0987 0.8556
vn -0.7986 0.6018 -0.0068
vn 0.0560 0.9738 0.2205
vn -0.0900 0.6932 -0.7151
vn -0.6859 0.6291 -0.3658
vn -0.5149 0.2552 -0.8184
vn -0.7272 0.6088 -0.3170
vn -0.7860 0.6181 0.0132
vn 0.2649 -0.6413 0.7201
vn 0.6460 -0.7620 -0.0443
vn 0.4806 -0.4062 0.7772
vn 0.9562 -0.0888 0.2790
vn -0.5969 0.7894 -0.1435
vn -0.6986 -0.7097 0.0905
vn -0.3343 -0.9344 -0.1228
vn -0.7217 0.2816 0.6323
vn -0.9746 0.2239 0.0072
vn 0.4346 0.2791 0.8563
vn 0.4258 0.0756 -0.9017
vn -0.7596 0.1345 -0.6364
vn 0.9854 0.1697 -0.0157
vn 0.4735 0.0636 -0.8785
vn -0.7015 0.2758 -0.6572
vn -0.6966 0.1724 0.6965
vn 0.3688 -0.0579 0.9277
vn 0.9914 -0.1303 -0.0077
vn -0.9656 0.2599 0.0007
vn -0.5587 -0.1578 -0.8142
vn 0.4109 -0.0615 -0.9096
vn 0.3903 0.1351 0.9107
vn -0.5690 0.0211 0.8221
vn -0.9947 -0.1029 -0.0018
vn 0.9928 0.1197 -0.0041
vn -0.4950 -0.1399 0.8575
vn 0.9552 0.2942 0.0332
vn -0.9695 -0.2451 -0.0050
vn -0.5215 -0.0911 -0.8484
vn 0.4670 0.1886 -0.8639
vn 0.4518 0.1254 0.8832
vn 0.5817 0.2642 0.7693
vn -0.3609 0.3671 0.8573
vn -0.9935 0.1104 0.0264
vn 0.9935 -0.0916 -0.0675
vn -0.6610 -0.2043 -0.7220
vn 0.4240 -0.3477 -0.8362
vn 0.6987 -0.7152 0.0206
vn -0.8184 -0.2777 -0.5031
vn -0.3129 -0.8217 -0.4763
vn 0.8539 0.2532 0.4548
vn -0.4743 0.3643 -0.8014
vn -0.7325 0.6682 -0.1301
vn 0.2603 -0.4056 0.8762
vn 0.9583 0.2833 0.0365
vn 0.2891 0.8588 0.4229
vn -0.9712 -0.2343 -0.0440
vn -0.4736 0.1643 -0.8653
vn 0.9225 -0.3447 -0.1734
vn 0.2641 -0.0231 0.9642
vn -0.9251 0.3631 0.1110
s off
f 1/1/1 2/2/1 3/3/1
f 4/4/2 6/5/2 1/1/2
f 1/1/3 6/5/3 5/6/3
f 1/1/4 7/7/4 2/2/4
f 2/2/5 7/7/5 8/8/5
f 1/1/6 5/6/6 7/7/6
f 9/9/7 3/3/7 10/10/7
f 9/11/8 10/12/8 11/13/8
f 11/13/9 15/14/9 13/15/9
f 9/9/10 6/5/10 4/4/10
f 13/16/11 14/17/11 6/5/11
f 16/18/12 12/19/12 17/20/12
f 32/21/13 18/22/13 19/23/13
f 20/24/14 21/25/14 22/26/14
f 16/18/15 23/27/15 20/24/15
f 20/24/16 23/27/16 21/25/16
f 16/18/17 15/14/17 24/28/17
f 24/28/18 15/14/18 11/13/18
f 20/24/19 22/26/19 15/14/19
f 27/29/20 28/30/20 29/31/20
f 8/8/21 7/7/21 27/32/21
f 27/32/22 7/7/22 28/33/22
f 25/34/23 23/27/23 18/22/23
f 18/22/24 23/27/24 19/23/24
f 27/29/25 29/31/25 23/27/25
f 30/35/26 5/6/26 14/17/26
f 14/36/27 13/15/27 22/26/27
f 21/25/28 23/27/28 29/31/28
f 31/37/29 12/19/29 10/12/29
f 10/10/30 3/3/30 31/38/30
f 31/38/31 26/39/31 18/40/31
f 3/3/32 2/2/32 26/39/32
f 2/2/33 8/8/33 26/39/33
f 1/1/34 3/3/34 4/4/34
f 9/9/35 4/4/35 3/3/35
f 11/13/36 10/12/36 12/19/36
f 9/11/37 11/13/37 13/15/37
f 9/9/38 13/16/38 6/5/38
f 16/18/39 24/28/39 12/19/39
f 24/28/40 11/13/40 12/19/40
f 17/20/41 18/22/41 32/21/41
f 16/18/42 19/23/42 23/27/42
f 16/18/43 20/24/43 15/14/43
f 8/8/44 25/41/44 26/39/44
f 25/34/45 8/42/45 27/29/45
f 25/34/46 27/29/46 23/27/46
f 30/43/47 29/31/47 28/30/47
f 28/33/48 7/7/48 5/6/48
f 14/17/49 5/6/49 6/5/49
f 30/43/50 14/36/50 22/26/50
f 22/26/51 13/15/51 15/14/51
f 30/43/52 22/26/52 21/25/52
f 30/43/53 21/25/53 29/31/53
f 31/37/54 18/22/54 17/20/54
f 31/37/55 17/20/55 12/19/55
f 18/40/56 26/39/56 25/41/56
f 31/38/57 3/3/57 26/39/57
f 30/35/58 28/33/58 5/6/58
f 16/18/59 32/21/59 19/23/59
f 16/18/60 17/20/60 32/21/60
f 33/44/61 34/45/61 35/46/61
f 36/47/62 38/48/62 33/44/62
f 33/44/63 38/48/63 37/49/63
f 33/44/64 39/50/64 34/45/64
f 34/45/65 39/50/65 40/51/65
f 33/44/66 37/49/66 39/50/66
f 41/52/67 35/46/67 42/53/67
f 41/54/68 42/55/68 43/56/68
f 43/56/69 47/57/69 45/58/69
f 41/52/70 38/48/70 36/47/70
f 45/59/71 46/60/71 38/48/71
f 48/61/72 44/62/72 49/63/72
f 64/64/73 50/65/73 51/66/73
f 52/67/74 53/68/74 54/69/74
f 48/61/75 55/70/75 52/67/75
f 52/67/76 55/70/76 53/68/76
f 48/61/77 47/57/77 56/71/77
f 56/71/78 47/57/78 43/56/78
f 52/67/79 54/69/79 47/57/79
f 59/72/80 60/73/80 61/74/80
f 40/51/81 39/50/81 59/75/81
f 59/75/82 39/50/82 60/76/82
f 57/77/83 55/70/83 50/65/83
f 50/65/84 55/70/84 51/66/84
f 59/72/85 61/74/85 55/70/85
f 62/78/86 37/49/86 46/60/86
f 46/79/87 45/58/87 54/69/87
f 53/68/88 55/70/88 61/74/88
f 63/80/89 44/62/89 42/55/89
f 42/53/90 35/46/90 63/81/90
f 63/81/91 58/82/91 50/83/91
f 35/46/92 34/45/92 58/82/92
f 34/45/93 40/51/93 58/82/93
f 33/44/94 35/46/94 36/47/94
f 41/52/95 36/47/95 35/46/95
f 43/56/96 42/55/96 44/62/96
f 41/54/97 43/56/97 45/58/97
f 41/52/98 45/59/98 38/48/98
f 48/61/99 56/71/99 44/62/99
f 56/71/100 43/56/100 44/62/100
f 49/63/101 50/65/101 64/64/101
f 48/61/102 51/66/102 55/70/102
f 48/61/103 52/67/103 47/57/103
f 40/51/104 57/84/104 58/82/104
f 57/77/105 40/85/105 59/72/105
f 57/77/106 59/72/106 55/70/106
f 62/86/107 61/74/107 60/73/107
f 60/76/108 39/50/108 37/49/108
f 46/60/109 37/49/109 38/48/109
f 62/86/110 46/79/110 54/69/110
f 54/69/111 45/58/111 47/57/111
f 62/86/112 54/69/112 53/68/112
f 62/86/113 53/68/113 61/74/113
f 63/80/114 50/65/114 49/63/114
f 63/80/115 49/63/115 44/62/115
f 50/83/116 58/82/116 57/84/116
f 63/81/117 35/46/117 58/82/117
f 62/78/118 60/76/118 37/49/118
f 48/61/119 64/64/119 51/66/119
f 48/61/120 49/63/120 64/64/120
f 75/87/121 74/88/121 67/89/121 66/90/121
f 74/88/122 73/91/122 68/92/122 67/89/122
f 76/93/123 75/87/123 66/90/123 65/94/123
f 81/95/124 82/96/124 71/97/124 72/98/124
f 73/99/125 72/98/125 69/100/125 68/101/125
f 71/97/126 76/93/126 65/94/126 70/102/126
f 72/98/127 71/97/127 70/102/127 69/100/127
f 80/103/128 81/95/128 72/98/128 73/99/128
f 78/104/129 79/105/129 74/88/129 75/87/129
f 77/106/130 78/104/130 75/87/130 76/93/130
f 82/96/131 77/106/131 76/93/131 71/97/131
f 79/105/132 80/107/132 73/91/132 74/88/132
f 81/95/133 80/103/133 86/108/133 87/109/133
f 82/96/134 81/95/134 87/109/134 88/110/134
f 78/104/135 77/106/135 83/111/135 84/112/135
f 79/105/136 78/104/136 84/112/136 85/113/136
f 80/107/137 79/105/137 85/113/137 86/114/137
f 88/110/138 83/111/138 77/106/138 82/96/138
f 85/113/139 84/112/139 90/115/139 91/116/139
f 83/111/140 88/110/140 94/117/140 89/118/140
f 86/114/141 85/113/141 91/116/141 92/119/141
f 87/109/142 86/108/142 92/120/142 93/121/142
f 88/110/143 87/109/143 93/121/143 94/117/143
f 84/112/144 83/111/144 89/118/144 90/115/144
f 90/122/145 89/123/145 95/124/145 96/125/145
f 91/126/146 90/122/146 96/125/146 97/127/146
f 92/128/147 91/126/147 97/127/147 98/129/147
f 89/123/148 94/130/148 100/131/148 95/124/148
f 93/132/149 92/133/149 98/134/149 99/135/149
f 94/130/150 93/132/150 99/135/150 100/131/150
f 95/124/151 100/131/151 105/136/151 101/137/151
f 99/135/152 98/134/152 104/138/152
f 100/131/153 99/135/153 104/138/153 105/136/153
f 96/125/154 95/124/154 101/137/154 102/139/154
f 106/140/155 98/141/155 109/142/155 110/143/155
f 98/144/156 106/145/156 103/146/156 104/147/156
f 97/148/157 96/149/157 107/150/157 108/151/157
f 96/149/158 106/140/158 110/143/158 107/150/158
f 106/145/159 96/125/159 102/139/159 103/146/159
f 98/141/160 97/152/160 108/153/160 109/142/160
f 110/143/161 109/142/161 113/154/161 114/155/161
f 107/150/162 110/143/162 114/155/162 111/156/162
f 108/151/163 107/150/163 111/156/163 112/157/163
f 109/142/164 108/153/164 112/158/164 113/154/164
