# Blender v2.78 (sub 0) OBJ File: 'Low_Poly_Trees_Pack.blend'
# www.blender.org
g Oak_Tree_m_07
v -2.234194 4.314964 -0.362590
v -2.453384 3.557582 -0.238970
v -1.654223 3.776722 0.101226
v -1.779104 4.361375 -0.079357
v -2.194746 4.292046 -1.135607
v -1.484449 4.574571 -0.636539
v -2.627020 3.709341 -0.839331
v -2.319226 2.942020 -0.510760
v -0.970217 3.813615 -0.395229
v -1.140196 3.565237 0.031058
v -1.386201 4.358150 -0.177376
v -0.753295 2.914004 -0.368894
v -0.689775 3.045012 -0.855564
v -1.041420 4.174976 -0.946053
v -1.340017 4.239394 -1.235641
v -0.871229 3.463801 -1.387711
v -0.897669 2.639987 -0.989623
v -0.959131 2.533320 -0.373031
v -1.550910 2.384164 -0.182818
v -1.399503 2.312584 -1.034167
v -1.076331 2.837986 -1.609842
v -1.378848 3.295820 -1.842720
v -1.664785 2.497517 -1.483340
v -1.928063 2.470562 -0.398343
v -1.958574 3.006864 -0.000125
v -2.365669 3.042721 -1.436520
v -2.506580 3.671945 -1.407616
v -1.692056 4.135489 -1.406895
v -1.298263 2.877426 -0.005612
v 1.478233 5.795056 1.635407
v 1.464826 5.179368 2.079618
v 1.990646 4.924734 0.909873
v 1.792661 5.622009 1.141625
v 0.478159 5.965690 1.591777
v 1.171658 5.719248 0.669810
v 0.771188 5.550185 2.179702
v 1.020144 4.522282 2.090329
v 1.688741 5.452989 0.601909
v 1.764421 4.193364 0.261550
v 1.169847 4.484157 0.001556
v 1.325001 3.518273 0.028292
v 0.596252 5.345115 0.165084
v 0.159390 5.705914 0.852410
v 0.141470 4.646456 0.063485
v 0.490343 3.497057 0.313035
v 1.209611 3.209674 0.450919
v 1.334980 3.354806 1.313506
v 0.288505 3.458272 1.141332
v -0.287741 4.094870 0.546016
v -0.496580 4.764930 0.968655
v -0.383577 4.961358 0.655715
v -0.240826 3.956271 1.405732
v 0.767857 3.795244 -0.096214
v 1.052674 3.760407 1.795738
v 1.671174 4.286269 1.653001
v 0.274318 4.723768 2.103123
v 0.190009 5.567586 2.055949
v -0.245578 4.742872 1.771904
v -0.089288 5.461151 1.502382
v 1.698463 3.587870 0.809926
v 0.216615 8.168316 -0.198143
v 0.588524 7.421255 0.598783
v 1.103321 6.918541 -0.477031
v 0.823534 7.867565 -0.513926
v -0.377731 8.069253 -0.478636
v 0.082562 7.960355 -0.829560
v -0.177652 7.967810 0.713193
v 0.125606 6.628388 0.903988
v 0.820862 7.392217 -1.220284
v 1.109721 6.453797 -0.937547
v 0.929695 5.628208 -1.261173
v 0.281002 5.905083 -1.660448
v 0.469692 4.650774 -1.336279
v -0.348159 7.076235 -1.713000
v -0.831741 7.751752 -0.976383
v -0.829586 6.110350 -1.622795
v 0.193465 7.717558 -1.303768
v -0.425333 4.688379 -0.968933
v 0.353031 4.378492 -0.720589
v 0.477767 4.851850 0.293936
v -0.643016 4.901604 0.064517
v -1.279027 5.528795 -0.856337
v -1.517323 6.540254 -0.536455
v -1.401622 6.701713 -0.982450
v -1.223348 5.626226 0.244855
v -0.136856 4.958159 -1.567971
v 0.169253 5.536376 0.771443
v 0.830333 6.196364 0.429779
v -0.682968 6.876015 0.866347
v -0.797944 7.892774 0.581088
v -1.244383 6.778618 0.457685
v -1.095370 7.597598 -0.095979
v 0.871768 5.000153 -0.398490
v -0.593277 8.117953 0.048760
v 0.765184 7.762427 -0.036134
v 0.229295 0.000000 0.145297
v -0.167548 0.000000 0.169517
v -0.313214 0.000000 -0.200418
v -0.006397 0.000000 -0.453271
v 0.328892 0.000000 -0.239607
v 0.243453 0.394283 -0.200342
v -0.008609 0.408443 -0.351766
v -0.230547 0.415832 -0.158494
v -0.115650 0.406239 0.112378
v 0.177298 0.392921 0.086514
v 0.112745 1.183165 0.004981
v -0.075799 1.191075 0.055117
v -0.181650 1.196225 -0.108820
v -0.058526 1.191496 -0.260276
v 0.123421 1.183425 -0.189943
v 0.041007 2.084763 -0.049167
v -0.114782 2.089063 -0.052493
v -0.162199 1.992371 -0.192242
v -0.032163 2.072925 -0.290256
v 0.092069 2.074789 -0.196113
v 0.118441 3.167226 -0.032374
v 0.007489 3.237957 -0.021075
v -0.046832 3.250075 -0.139799
v 0.038496 3.204381 -0.228254
v 0.145553 3.164023 -0.164198
v 0.133051 4.381027 -0.019770
v 0.077212 4.378618 0.000289
v 0.041028 4.393756 -0.044296
v 0.073642 4.358026 -0.099347
v 0.131378 4.397653 -0.076753
v 0.287208 5.971863 0.077205
v 0.268508 5.978034 0.067346
v 0.278351 5.979846 0.052824
v 0.294959 5.975561 0.056927
v -0.140919 2.223111 -0.194029
v -0.500214 2.142645 -0.255297
v -0.516352 2.090785 -0.335143
v -0.457689 2.132305 -0.400261
v -0.445813 2.209449 -0.319012
v -1.030457 2.492302 -0.462375
v -1.047888 2.467144 -0.510599
v -1.009680 2.485532 -0.549232
v -0.991357 2.525761 -0.499368
v -1.475502 3.277634 -0.769146
v -1.474757 3.268019 -0.778751
v -1.469878 3.274841 -0.789545
v -1.472651 3.287436 -0.780278
v 0.113423 3.326643 -0.027004
v 0.376204 3.265057 0.527267
v 0.340055 3.316230 0.519911
v 0.428398 3.276986 0.489902
v 0.399841 3.355852 0.497158
v 0.838724 3.717713 0.949434
v 0.791791 3.739573 0.924383
v 0.882654 3.730190 0.911251
v 0.830892 3.781025 0.886180
v 0.084792 4.488637 -0.087441
v -0.025344 4.586754 -0.433021
v -0.000140 4.559662 -0.450257
v 0.033546 4.586806 -0.444647
v 0.014339 4.637994 -0.419720
v 0.046208 5.233619 -0.848404
v 0.052851 5.228327 -0.855701
v 0.062473 5.231182 -0.849186
v 0.057901 5.240294 -0.836235
vt 0.7103 0.5570
vt 0.7201 0.5547
vt 0.7189 0.5690
vt 0.7106 0.5666
vt 0.6998 0.5673
vt 0.7040 0.5521
vt 0.7148 0.5470
vt 0.7281 0.5463
vt 0.7071 0.5738
vt 0.7180 0.5819
vt 0.6640 0.5373
vt 0.6736 0.5514
vt 0.6652 0.5537
vt 0.6571 0.5528
vt 0.6492 0.5403
vt 0.6397 0.5462
vt 0.7040 0.5832
vt 0.6892 0.5757
vt 0.6897 0.5641
vt 0.6669 0.5615
vt 0.6754 0.5601
vt 0.6850 0.5692
vt 0.6672 0.5701
vt 0.6600 0.5732
vt 0.6590 0.5629
vt 0.6520 0.5630
vt 0.7191 0.5324
vt 0.7087 0.5364
vt 0.6793 0.5819
vt 0.6893 0.5551
vt 0.6342 0.5549
vt 0.6437 0.5850
vt 0.6532 0.5824
vt 0.6870 0.5541
vt 0.6785 0.5385
vt 0.7352 0.5778
vt 0.7293 0.5618
vt 0.7428 0.5686
vt 0.7399 0.5578
vt 0.6720 0.5936
vt 0.7114 0.5573
vt 0.7201 0.5547
vt 0.7183 0.5716
vt 0.7109 0.5663
vt 0.6994 0.5678
vt 0.7049 0.5504
vt 0.7148 0.5470
vt 0.7279 0.5464
vt 0.7069 0.5743
vt 0.7192 0.5866
vt 0.6643 0.5324
vt 0.6787 0.5387
vt 0.6638 0.5434
vt 0.6571 0.5528
vt 0.6489 0.5429
vt 0.6892 0.5757
vt 0.6893 0.5567
vt 0.6669 0.5612
vt 0.6736 0.5514
vt 0.6754 0.5601
vt 0.6847 0.5693
vt 0.6672 0.5701
vt 0.6590 0.5629
vt 0.6524 0.5675
vt 0.6514 0.5601
vt 0.6600 0.5732
vt 0.6652 0.5537
vt 0.6557 0.5879
vt 0.6445 0.5870
vt 0.6512 0.5778
vt 0.7191 0.5324
vt 0.7105 0.5366
vt 0.6785 0.5821
vt 0.6993 0.5374
vt 0.6347 0.5533
vt 0.6879 0.5567
vt 0.7377 0.5782
vt 0.7293 0.5618
vt 0.7428 0.5686
vt 0.7399 0.5578
vt 0.6720 0.5936
vt 0.6389 0.5745
vt 0.5943 0.5547
vt 0.5932 0.5688
vt 0.5887 0.5624
vt 0.5851 0.5571
vt 0.5759 0.5564
vt 0.5802 0.5485
vt 0.5850 0.5664
vt 0.5767 0.5635
vt 0.5890 0.5470
vt 0.6021 0.5464
vt 0.5812 0.5743
vt 0.5912 0.5765
vt 0.5933 0.5866
vt 0.5385 0.5324
vt 0.5529 0.5386
vt 0.5380 0.5434
vt 0.5313 0.5528
vt 0.5232 0.5427
vt 0.5634 0.5757
vt 0.5635 0.5569
vt 0.5730 0.5686
vt 0.5411 0.5611
vt 0.5478 0.5514
vt 0.5496 0.5601
vt 0.5587 0.5693
vt 0.5414 0.5701
vt 0.5332 0.5629
vt 0.5267 0.5675
vt 0.5255 0.5601
vt 0.5342 0.5732
vt 0.5395 0.5537
vt 0.5299 0.5879
vt 0.5188 0.5870
vt 0.5254 0.5778
vt 0.5934 0.5324
vt 0.5847 0.5366
vt 0.5524 0.5821
vt 0.5733 0.5377
vt 0.5090 0.5530
vt 0.5621 0.5567
vt 0.6120 0.5782
vt 0.6036 0.5618
vt 0.6170 0.5686
vt 0.6141 0.5578
vt 0.5462 0.5936
vt 0.5129 0.5741
vt 0.9266 0.6683
vt 0.9210 0.6692
vt 0.9181 0.6479
vt 0.9257 0.6464
vt 0.9110 0.6503
vt 0.9065 0.6424
vt 0.9157 0.6392
vt 0.9379 0.6702
vt 0.9324 0.6688
vt 0.9335 0.6466
vt 0.9409 0.6485
vt 0.9478 0.6514
vt 0.9438 0.6398
vt 0.9522 0.6438
vt 0.9250 0.6377
vt 0.9346 0.6377
vt 0.9436 0.6717
vt 0.9258 0.6919
vt 0.9217 0.6919
vt 0.9154 0.6704
vt 0.9382 0.6909
vt 0.9339 0.6921
vt 0.9299 0.6919
vt 0.9251 0.7202
vt 0.9220 0.7217
vt 0.9176 0.6902
vt 0.9555 0.6402
vt 0.9585 0.6421
vt 0.9599 0.6690
vt 0.9584 0.6691
vt 0.9284 0.7203
vt 0.9603 0.7306
vt 0.9631 0.7349
vt 0.9500 0.7338
vt 0.9501 0.7306
vt 0.9374 0.6961
vt 0.9347 0.7225
vt 0.9316 0.7212
vt 0.9522 0.6407
vt 0.9570 0.6695
vt 0.9757 0.6400
vt 0.9786 0.6410
vt 0.9754 0.6554
vt 0.9738 0.6553
vt 0.9645 0.6387
vt 0.9672 0.6404
vt 0.9645 0.6694
vt 0.9629 0.6695
vt 0.9614 0.6377
vt 0.9614 0.6693
vt 0.9645 0.6694
vt 0.9629 0.6695
vt 0.9610 0.7065
vt 0.9603 0.7067
vt 0.9629 0.6715
vt 0.9629 0.6715
vt 0.9617 0.7066
vt 0.9609 0.7387
vt 0.9492 0.7363
vt 0.9179 0.6952
vt 0.9187 0.7217
vt 0.9628 0.7265
vt 0.9499 0.7275
vt 0.9610 0.7225
vt 0.9493 0.7248
vt 0.9300 0.7322
vt 0.9304 0.7305
vt 0.9294 0.7337
vt 0.9301 0.7289
vt 0.9295 0.7275
vt 0.9066 0.7306
vt 0.9065 0.7301
vt 0.9065 0.7310
vt 0.9066 0.7297
vt 0.9066 0.7293
vt 0.9673 0.6404
vt 0.9689 0.6377
vt 0.9698 0.6551
vt 0.9681 0.6551
vt 0.9726 0.6410
vt 0.9719 0.6560
vt 0.9741 0.6748
vt 0.9725 0.6744
vt 0.9708 0.6751
vt 0.9689 0.6745
vt 0.9673 0.6743
vt 0.9624 0.7067
vt 0.9630 0.7066
vt 0.9614 0.6693
vt 0.9629 0.6715
vt 0.9645 0.6694
vt 0.9629 0.6695
vt 0.9614 0.6693
vn -0.4385 0.2670 0.8582
vn -0.2411 0.9421 0.2330
vn -0.3416 0.9388 -0.0453
vn -0.8887 0.3120 0.3359
vn -0.9362 -0.2911 0.1972
vn -0.8158 0.5754 -0.0587
vn 0.2559 0.3193 0.9125
vn 0.9536 0.2354 0.1878
vn 0.9750 0.2214 0.0192
vn 0.6543 0.5057 -0.5622
vn 0.8095 0.5786 0.0995
vn 0.1084 0.9080 0.4048
vn 0.4942 0.8040 -0.3307
vn 0.8796 -0.4757 0.0054
vn 0.5288 -0.8328 0.1641
vn 0.4002 -0.8333 -0.3813
vn 0.0519 -0.4253 -0.9036
vn 0.8304 -0.2638 -0.4908
vn 0.6571 0.0516 -0.7521
vn -0.9290 -0.3699 0.0064
vn -0.9599 -0.2062 -0.1899
vn -0.1850 -0.9803 -0.0692
vn -0.5420 -0.8400 -0.0258
vn -0.0179 0.8707 -0.4915
vn 0.2461 0.5172 -0.8197
vn -0.2179 0.3843 -0.8971
vn -0.2956 -0.3021 -0.9063
vn 0.5544 -0.1708 0.8145
vn -0.0535 -0.3132 0.9482
vn -0.4001 0.0376 0.9157
vn -0.7218 -0.4051 0.5612
vn -0.5334 0.1435 0.8336
vn 0.7650 0.3750 0.5235
vn 0.2309 0.3318 0.9146
vn 0.8553 0.2200 0.4692
vn 0.9321 0.3605 -0.0341
vn 0.7454 0.5975 0.2956
vn 0.8905 -0.4550 -0.0063
vn 0.1967 -0.9692 -0.1481
vn 0.4862 -0.6687 -0.5625
vn 0.9263 -0.1876 -0.3267
vn -0.7014 -0.4502 0.5526
vn -0.7655 -0.6426 -0.0315
vn -0.6122 -0.7727 -0.1678
vn -0.2847 0.5015 -0.8170
vn -0.8333 0.5113 -0.2103
vn 0.0029 0.8684 -0.4958
vn 0.5083 0.4511 -0.7336
vn -0.3714 -0.0406 -0.9276
vn 0.3757 -0.4777 0.7941
vn 0.5427 -0.3020 0.7838
vn 0.1038 -0.0767 0.9916
vn -0.5087 -0.5317 0.6771
vn -0.0161 -0.1242 0.9921
vn 0.9044 0.2365 0.3551
vn 0.2705 0.9493 -0.1604
vn 0.1723 0.9762 -0.1313
vn 0.3928 0.5324 0.7498
vn 0.1115 -0.0593 0.9920
vn 0.1197 0.8379 0.5325
vn 0.8426 0.1871 -0.5051
vn 0.4893 0.2548 -0.8341
vn -0.0333 0.1650 -0.9857
vn 0.3941 0.8527 -0.3429
vn -0.1038 0.8520 -0.5132
vn -0.1894 -0.7677 -0.6122
vn -0.0871 -0.9939 -0.0678
vn -0.9274 -0.0557 -0.3699
vn -0.6237 -0.7763 -0.0911
vn -0.9540 -0.2997 0.0037
vn -0.6418 -0.3436 -0.6856
vn -0.0342 0.1599 -0.9865
vn -0.7479 0.0013 -0.6638
vn -0.5375 -0.0066 0.8433
vn -0.0068 -0.0882 0.9961
vn -0.2072 0.0340 0.9777
vn -0.2785 -0.8091 0.5175
vn -0.1871 -0.6083 0.7713
vn -0.5096 -0.3656 0.7788
vn -0.6665 0.7451 0.0256
vn -0.5358 0.5581 -0.6335
vn -0.9460 -0.1415 0.2917
vn 0.8337 -0.4179 -0.3611
vn 0.9728 -0.2045 -0.1088
vn 0.8137 -0.4345 0.3862
vn 0.9133 0.0166 0.4069
vn 0.4566 -0.2954 0.8392
vn 0.8523 0.0697 0.5183
vn 0.8946 0.3474 -0.2811
vn 0.4174 0.0419 -0.9077
vn 0.3123 0.3739 -0.8733
vn 0.2313 0.6367 -0.7356
vn -0.2084 -0.7178 -0.6643
vn 0.2222 0.0087 -0.9750
vn -0.3970 -0.8939 0.2081
vn -0.7232 -0.6588 -0.2071
vn -0.4914 -0.3246 -0.8082
vn 0.4525 -0.3047 0.8381
vn -0.0820 -0.3625 0.9284
vn -0.3181 -0.5117 0.7981
vn -0.8670 0.3291 0.3742
vn -0.1060 0.7864 0.6086
vn -0.0675 0.9501 -0.3047
vn -0.7956 0.6008 -0.0781
vn -0.5346 0.4518 -0.7142
vn -0.8643 0.5029 0.0036
vn -0.9061 0.3066 0.2916
vn 0.5877 -0.8075 0.0505
vn 0.7076 -0.6486 -0.2804
vn 0.5480 -0.4539 0.7026
vn 0.9503 -0.2239 0.2162
vn -0.6685 0.7165 0.1995
vn 0.9174 0.1829 0.3535
vn -0.1017 0.9859 -0.1326
vn 0.2623 0.8986 -0.3517
vn -0.0119 0.9505 -0.3105
vn 0.5704 0.7151 0.4041
vn 0.2811 0.1974 0.9392
vn 0.0055 0.9761 0.2171
vn 0.7951 0.0630 -0.6031
vn 0.9496 0.2272 -0.2161
vn 0.5397 0.0528 -0.8402
vn -0.0467 -0.0698 -0.9965
vn 0.3236 0.7844 -0.5291
vn -0.2124 0.6468 -0.7325
vn -0.2128 -0.8781 -0.4286
vn -0.0813 -0.9794 0.1849
vn -0.9472 -0.1305 -0.2930
vn -0.6915 -0.7156 0.0983
vn -0.9657 -0.2499 0.0709
vn -0.7075 -0.4512 -0.5439
vn -0.0478 -0.0762 -0.9959
vn -0.8010 -0.1461 -0.5806
vn -0.5988 0.1529 0.7862
vn -0.0031 0.1403 0.9901
vn -0.2298 0.2387 0.9435
vn -0.3090 -0.6339 0.7090
vn -0.2014 -0.3854 0.9005
vn -0.5626 -0.1601 0.8111
vn -0.5571 0.8302 -0.0214
vn -0.6145 0.3376 -0.7130
vn -0.9577 -0.0691 0.2795
vn 0.8870 -0.3997 -0.2314
vn 0.9800 -0.1863 -0.0698
vn 0.8607 -0.2693 0.4321
vn 0.9166 0.1287 0.3785
vn 0.5562 -0.0049 0.8310
vn 0.9420 0.2846 0.1777
vn 0.9444 0.2712 -0.1861
vn 0.4694 -0.1541 -0.8694
vn 0.3503 0.1467 -0.9251
vn 0.2900 0.3286 -0.8988
vn 0.4697 0.8255 -0.3128
vn -0.1226 0.8715 -0.4749
vn -0.2369 -0.8380 -0.4915
vn 0.2566 -0.2055 -0.9444
vn -0.4484 -0.7876 0.4226
vn -0.7845 -0.6190 -0.0375
vn -0.5554 -0.4725 -0.6842
vn 0.5212 -0.0823 0.8495
vn -0.0838 -0.1234 0.9888
vn -0.3549 -0.2887 0.8892
vn -0.9075 0.3357 0.2523
vn -0.1812 0.9288 0.3232
vn -0.6342 0.7020 -0.3240
vn -0.1304 0.8855 -0.4459
vn -0.8647 0.4703 -0.1766
vn -0.6087 0.2326 -0.7585
vn -0.9113 0.4016 -0.0910
vn -0.9368 0.2963 0.1862
vn 0.6809 -0.6922 0.2392
vn 0.7913 -0.6004 -0.1156
vn 0.9852 -0.1137 0.1284
vn 0.6232 -0.2387 0.7448
vn 0.9725 -0.1089 0.2060
vn -0.7217 0.6921 0.0153
vn 0.5294 0.8127 0.2435
vn 0.4048 0.7538 0.5177
vn 0.1591 0.0891 0.9832
vn -0.9141 0.1566 0.3740
vn 0.4567 0.1066 -0.8832
vn -0.6312 0.1924 -0.7514
vn 0.9562 0.1728 0.2363
vn 0.5205 0.2023 -0.8295
vn -0.7042 0.0634 -0.7071
vn 0.1375 0.0971 0.9857
vn 0.9801 0.1216 0.1567
vn -0.8897 0.0526 0.4535
vn -0.6971 -0.0294 -0.7164
vn 0.4729 -0.0166 -0.8810
vn 0.0232 -0.0237 0.9995
vn -0.8968 0.0394 0.4407
vn 0.9825 0.0624 0.1756
vn 0.1694 -0.0197 0.9853
vn 0.9601 -0.0640 0.2723
vn 0.2670 0.6612 -0.7011
vn -0.6375 0.0899 -0.7652
vn 0.5649 0.0033 -0.8251
vn -0.8716 0.0351 0.4889
vn -0.5725 -0.7044 0.4197
vn -0.7384 0.1046 -0.6662
vn 0.4643 0.0759 -0.8824
vn 0.0744 0.1432 0.9869
vn -0.8078 -0.5698 -0.1509
vn -0.6929 0.0527 0.7191
vn 0.3401 -0.0900 0.9361
vn -0.7632 0.5154 0.3896
vn 0.9933 -0.1033 0.0510
vn 0.0239 -0.8135 -0.5811
vn -0.9387 0.0801 0.3352
vn -0.2698 0.7065 0.6542
vn -0.4175 -0.6920 0.5889
vn 0.5336 0.5653 -0.6290
vn -0.2737 -0.6999 -0.6597
vn -0.6016 -0.6050 0.5215
vn 0.1254 0.6424 0.7560
vn 0.8051 0.3212 -0.4986
vn -0.5059 -0.5057 -0.6989
vn 0.3632 0.5130 0.7778
vn -0.8476 -0.3098 0.4308
vn 0.2388 -0.9691 0.0619
vn 0.9868 -0.0090 0.1616
vn 0.7796 0.4540 -0.4314
vn -0.5655 0.7861 0.2493
vn -0.5223 -0.2298 0.8212
vn -0.6579 0.7499 -0.0699
vn 0.4778 -0.8069 0.3473
vn 0.5327 0.2176 -0.8178
vn 0.2989 0.0503 -0.9530
vn -0.8410 0.1575 -0.5176
vn 0.9069 0.4211 -0.0144
vn 0.6082 -0.6274 -0.4863
vn -0.7366 0.4206 0.5296
vn 0.5246 -0.4705 -0.7096
vn 0.9310 0.1615 0.3274
vn -0.7532 -0.2954 -0.5878
s off
f 1/1/1 2/2/1 3/3/1
f 4/4/2 6/5/2 1/1/2
f 1/1/3 6/5/3 5/6/3
f 1/1/4 7/7/4 2/2/4
f 2/2/5 7/7/5 8/8/5
f 1/1/6 5/6/6 7/7/6
f 11/9/7 3/3/7 10/10/7
f 9/11/8 12/12/8 13/13/8
f 9/11/9 16/14/9 14/15/9
f 14/15/10 16/14/10 15/16/10
f 9/17/11 6/5/11 11/9/11
f 11/9/12 6/5/12 4/4/12
f 14/18/13 15/19/13 6/5/13
f 17/20/14 12/12/14 18/21/14
f 17/20/15 19/22/15 20/23/15
f 17/20/16 23/24/16 21/25/16
f 21/25/17 23/24/17 22/26/17
f 17/20/18 16/14/18 13/13/18
f 21/25/19 22/26/19 16/14/19
f 8/8/20 7/7/20 26/27/20
f 26/27/21 7/7/21 27/28/21
f 24/29/22 23/24/22 19/22/22
f 19/22/23 23/24/23 20/23/23
f 28/30/24 6/5/24 15/19/24
f 28/31/25 15/16/25 22/26/25
f 28/31/26 22/26/26 27/32/26
f 22/26/27 23/24/27 26/33/27
f 29/34/28 12/12/28 10/35/28
f 29/36/29 25/37/29 19/38/29
f 3/3/30 2/2/30 25/37/30
f 2/2/31 8/8/31 25/37/31
f 1/1/32 3/3/32 4/4/32
f 9/17/33 11/9/33 10/10/33
f 11/9/34 4/4/34 3/3/34
f 9/11/35 10/35/35 12/12/35
f 9/11/36 13/13/36 16/14/36
f 9/17/37 14/18/37 6/5/37
f 17/20/38 13/13/38 12/12/38
f 17/20/39 18/21/39 19/22/39
f 17/20/40 20/23/40 23/24/40
f 17/20/41 21/25/41 16/14/41
f 8/8/42 24/39/42 25/37/42
f 24/29/43 8/40/43 26/33/43
f 24/29/44 26/33/44 23/24/44
f 28/30/45 27/28/45 5/6/45
f 27/28/46 7/7/46 5/6/46
f 28/30/47 5/6/47 6/5/47
f 22/26/48 15/16/48 16/14/48
f 27/32/49 22/26/49 26/33/49
f 29/34/50 19/22/50 18/21/50
f 29/34/51 18/21/51 12/12/51
f 29/36/52 10/10/52 3/3/52
f 19/38/53 25/37/53 24/39/53
f 29/36/54 3/3/54 25/37/54
f 30/41/55 31/42/55 32/43/55
f 33/44/56 35/45/56 30/41/56
f 30/41/57 35/45/57 34/46/57
f 30/41/58 36/47/58 31/42/58
f 31/42/59 36/47/59 37/48/59
f 30/41/60 34/46/60 36/47/60
f 38/49/61 32/43/61 39/50/61
f 38/51/62 39/52/62 40/53/62
f 40/53/63 44/54/63 42/55/63
f 38/49/64 35/45/64 33/44/64
f 42/56/65 43/57/65 35/45/65
f 45/58/66 41/59/66 46/60/66
f 45/58/67 47/61/67 48/62/67
f 49/63/68 50/64/68 51/65/68
f 45/58/69 52/66/69 49/63/69
f 49/63/70 52/66/70 50/64/70
f 45/58/71 44/54/71 53/67/71
f 53/67/72 44/54/72 40/53/72
f 49/63/73 51/65/73 44/54/73
f 56/68/74 57/69/74 58/70/74
f 37/48/75 36/47/75 56/71/75
f 56/71/76 36/47/76 57/72/76
f 54/73/77 52/66/77 47/61/77
f 47/61/78 52/66/78 48/62/78
f 56/68/79 58/70/79 52/66/79
f 59/74/80 34/46/80 43/57/80
f 43/75/81 42/55/81 51/65/81
f 50/64/82 52/66/82 58/70/82
f 60/76/83 41/59/83 39/52/83
f 39/50/84 32/43/84 60/77/84
f 60/77/85 55/78/85 47/79/85
f 32/43/86 31/42/86 55/78/86
f 31/42/87 37/48/87 55/78/87
f 30/41/88 32/43/88 33/44/88
f 38/49/89 33/44/89 32/43/89
f 40/53/90 39/52/90 41/59/90
f 38/51/91 40/53/91 42/55/91
f 38/49/92 42/56/92 35/45/92
f 45/58/93 53/67/93 41/59/93
f 53/67/94 40/53/94 41/59/94
f 45/58/95 46/60/95 47/61/95
f 45/58/96 48/62/96 52/66/96
f 45/58/97 49/63/97 44/54/97
f 37/48/98 54/80/98 55/78/98
f 54/73/99 37/81/99 56/68/99
f 54/73/100 56/68/100 52/66/100
f 59/82/101 58/70/101 57/69/101
f 57/72/102 36/47/102 34/46/102
f 43/57/103 34/46/103 35/45/103
f 59/82/104 43/75/104 51/65/104
f 51/65/105 42/55/105 44/54/105
f 59/82/106 51/65/106 50/64/106
f 59/82/107 50/64/107 58/70/107
f 60/76/108 47/61/108 46/60/108
f 60/76/109 46/60/109 41/59/109
f 47/79/110 55/78/110 54/80/110
f 60/77/111 32/43/111 55/78/111
f 59/74/112 57/72/112 34/46/112
f 62/83/113 63/84/113 95/85/113
f 61/86/114 65/87/114 94/88/114
f 64/89/115 66/90/115 61/86/115
f 61/86/116 66/90/116 65/87/116
f 61/86/117 67/91/117 62/83/117
f 62/83/118 67/91/118 68/92/118
f 61/86/119 94/88/119 67/91/119
f 69/93/120 70/94/120 71/95/120
f 69/93/121 63/84/121 70/94/121
f 69/96/122 71/97/122 72/98/122
f 72/98/123 76/99/123 74/100/123
f 69/93/124 66/90/124 64/89/124
f 74/101/125 75/102/125 77/103/125
f 78/104/126 73/105/126 79/106/126
f 78/104/127 80/107/127 81/108/127
f 82/109/128 83/110/128 84/111/128
f 78/104/129 85/112/129 82/109/129
f 82/109/130 85/112/130 83/110/130
f 78/104/131 76/99/131 86/113/131
f 86/113/132 76/99/132 72/98/132
f 82/109/133 84/111/133 76/99/133
f 89/114/134 90/115/134 91/116/134
f 68/92/135 67/91/135 89/117/135
f 89/117/136 67/91/136 90/118/136
f 87/119/137 85/112/137 80/107/137
f 80/107/138 85/112/138 81/108/138
f 89/114/139 91/116/139 85/112/139
f 92/120/140 65/87/140 75/102/140
f 75/121/141 74/100/141 84/111/141
f 83/110/142 85/112/142 91/116/142
f 93/122/143 73/105/143 71/97/143
f 71/95/144 70/94/144 93/123/144
f 93/123/145 88/124/145 80/125/145
f 63/84/146 62/83/146 88/124/146
f 62/83/147 68/92/147 88/124/147
f 95/85/148 63/84/148 64/89/148
f 69/93/149 64/89/149 63/84/149
f 72/98/150 71/97/150 73/105/150
f 69/96/151 72/98/151 74/100/151
f 69/93/152 74/101/152 77/103/152
f 69/93/153 77/103/153 66/90/153
f 77/103/154 75/102/154 66/90/154
f 78/104/155 86/113/155 73/105/155
f 86/113/156 72/98/156 73/105/156
f 78/104/157 79/106/157 80/107/157
f 78/104/158 81/108/158 85/112/158
f 78/104/159 82/109/159 76/99/159
f 68/92/160 87/126/160 88/124/160
f 87/119/161 68/127/161 89/114/161
f 87/119/162 89/114/162 85/112/162
f 92/128/163 91/116/163 90/115/163
f 90/118/164 67/91/164 94/88/164
f 92/120/165 94/88/165 65/87/165
f 75/102/166 65/87/166 66/90/166
f 92/128/167 75/121/167 84/111/167
f 84/111/168 74/100/168 76/99/168
f 92/128/169 84/111/169 83/110/169
f 92/128/170 83/110/170 91/116/170
f 93/122/171 80/107/171 79/106/171
f 93/122/172 79/106/172 73/105/172
f 93/123/173 70/94/173 63/84/173
f 80/125/174 88/124/174 87/126/174
f 93/123/175 63/84/175 88/124/175
f 92/120/176 90/118/176 94/88/176
f 61/86/177 95/85/177 64/89/177
f 61/86/178 62/83/178 95/85/178
f 106/129/179 107/130/179 104/131/179 105/132/179
f 104/131/180 103/133/180 98/134/180 97/135/180
f 109/136/181 110/137/181 101/138/181 102/139/181
f 103/140/182 102/139/182 99/141/182 98/142/182
f 101/138/183 105/132/183 96/143/183 100/144/183
f 102/139/184 101/138/184 100/144/184 99/141/184
f 108/145/185 109/136/185 102/139/185 103/140/185
f 107/130/186 106/129/186 111/146/186 112/147/186
f 110/137/187 106/129/187 105/132/187 101/138/187
f 107/130/188 108/148/188 103/133/188 104/131/188
f 109/136/189 108/145/189 113/149/189 114/150/189
f 110/137/190 109/136/190 114/150/190 115/151/190
f 112/147/191 111/146/191 116/152/191 117/153/191
f 108/148/192 107/130/192 112/147/192 113/154/192
f 115/151/193 111/146/193 106/129/193 110/137/193
f 117/155/194 143/156/194 121/157/194 122/158/194
f 111/146/195 115/151/195 120/159/195 116/152/195
f 130/160/196 114/161/196 133/162/196 134/163/196
f 114/150/197 130/164/197 118/165/197 119/166/197
f 115/151/198 114/150/198 119/166/198 120/159/198
f 118/167/199 117/155/199 122/158/199 123/168/199
f 117/169/200 116/170/200 144/171/200 145/172/200
f 119/173/201 118/174/201 123/175/201 124/176/201
f 120/177/202 119/173/202 124/176/202 125/178/202
f 105/132/203 104/131/203 97/135/203 96/143/203
f 124/176/204 123/175/204 153/179/204 154/180/204
f 123/168/205 122/158/205 126/181/205 127/182/205
f 122/158/206 121/157/206 126/181/206
f 123/175/207 152/183/207 156/184/207 153/179/207
f 121/157/208 125/178/208 129/185/208 126/181/208
f 114/161/209 113/186/209 132/187/209 133/162/209
f 130/188/210 112/147/210 117/153/210 118/189/210
f 112/190/211 130/160/211 134/163/211 131/191/211
f 113/192/212 112/190/212 131/191/212 132/193/212
f 134/163/213 133/162/213 137/194/213 138/195/213
f 133/162/214 132/187/214 136/196/214 137/194/214
f 132/193/215 131/191/215 135/197/215 136/198/215
f 131/191/216 134/163/216 138/195/216 135/197/216
f 138/195/217 137/194/217 141/199/217 142/200/217
f 137/194/218 136/196/218 140/201/218 141/199/218
f 135/197/219 138/195/219 142/200/219 139/202/219
f 136/198/220 135/197/220 139/202/220 140/203/220
f 116/204/221 120/205/221 146/206/221 144/207/221
f 143/156/222 120/177/222 125/178/222 121/157/222
f 120/205/223 143/208/223 147/209/223 146/206/223
f 143/208/224 117/169/224 145/172/224 147/209/224
f 145/172/225 144/171/225 148/210/225 149/211/225
f 147/209/226 145/172/226 149/211/226 151/212/226
f 144/207/227 146/206/227 150/213/227 148/214/227
f 146/206/228 147/209/228 151/212/228 150/213/228
f 129/185/229 125/178/229 152/183/229 128/215/229
f 152/183/230 123/175/230 127/216/230 128/215/230
f 152/183/231 125/178/231 155/217/231 156/184/231
f 125/178/232 124/176/232 154/180/232 155/217/232
f 153/179/233 156/184/233 160/218/233 157/219/233
f 155/217/234 154/180/234 158/220/234 159/221/234
f 156/184/235 155/217/235 159/221/235 160/218/235
f 154/180/236 153/179/236 157/219/236 158/220/236
