# Blender v2.78 (sub 0) OBJ File: 'Low_Poly_Trees_Pack.blend'
# www.blender.org
g Oak_Tree_NoLeaves_m_03
v 0.229295 0.000000 0.145297
v -0.167548 0.000000 0.169517
v -0.313214 0.000000 -0.200418
v -0.006397 0.000000 -0.453271
v 0.328892 0.000000 -0.239607
v 0.243453 0.394283 -0.200342
v -0.008609 0.408443 -0.351766
v -0.230547 0.415832 -0.158494
v -0.115650 0.406239 0.112378
v 0.177298 0.392921 0.086514
v 0.138474 1.181980 0.024488
v -0.084266 1.191326 0.083718
v -0.209315 1.197409 -0.109952
v -0.063860 1.191823 -0.288877
v 0.151085 1.182288 -0.205788
v -0.066781 2.084763 -0.049167
v -0.222570 2.089063 -0.052493
v -0.269987 1.992371 -0.192242
v -0.139951 2.072925 -0.290256
v -0.015719 2.074789 -0.196113
v 0.010653 3.167226 -0.032374
v -0.100299 3.237957 -0.021075
v -0.154620 3.250075 -0.139799
v -0.069292 3.204381 -0.228254
v 0.037765 3.164023 -0.164198
v -0.028351 4.381027 0.040998
v -0.086547 4.378618 0.052564
v -0.115726 4.393756 0.003110
v -0.075564 4.405519 -0.039020
v -0.021564 4.397653 -0.015604
v 0.109738 5.971863 0.098993
v 0.092705 5.978034 0.086472
v 0.104591 5.979846 0.073569
v 0.120408 5.975561 0.080087
v -0.248707 2.223111 -0.194029
v -0.652991 2.242973 -0.231822
v -0.670547 2.186555 -0.318685
v -0.606730 2.231725 -0.389526
v -0.593810 2.315648 -0.301137
v -1.257751 2.693158 -0.457098
v -1.276714 2.665790 -0.509560
v -1.235149 2.685793 -0.551588
v -1.215216 2.729558 -0.497342
v -1.504584 3.617305 -0.790828
v -1.503773 3.606845 -0.801277
v -1.498466 3.614267 -0.813019
v -1.501483 3.627967 -0.802938
v 0.005635 3.326643 -0.027004
v 0.223859 3.309614 0.527267
v 0.187709 3.360787 0.519911
v 0.276053 3.321543 0.489902
v 0.247496 3.400409 0.497158
v 0.567706 3.803763 0.952496
v 0.516229 3.827739 0.925020
v 0.615888 3.817447 0.910616
v 0.559115 3.873204 0.883119
v 0.710439 4.616107 1.120172
v 0.698298 4.617349 1.113188
v 0.720614 4.617539 1.109865
v 0.706181 4.625210 1.100642
vt 0.9257 0.7974
vt 0.9204 0.7982
vt 0.9176 0.7779
vt 0.9249 0.7765
vt 0.9109 0.7802
vt 0.9066 0.7726
vt 0.9153 0.7696
vt 0.9365 0.7991
vt 0.9312 0.7978
vt 0.9322 0.7767
vt 0.9393 0.7785
vt 0.9458 0.7812
vt 0.9421 0.7701
vt 0.9500 0.7740
vt 0.9242 0.7681
vt 0.9333 0.7681
vt 0.9418 0.8005
vt 0.9249 0.8198
vt 0.9211 0.8198
vt 0.9151 0.7993
vt 0.9367 0.8188
vt 0.9326 0.8200
vt 0.9288 0.8198
vt 0.9243 0.8468
vt 0.9213 0.8481
vt 0.9171 0.8182
vt 0.9532 0.7706
vt 0.9561 0.7723
vt 0.9574 0.7980
vt 0.9560 0.7981
vt 0.9274 0.8468
vt 0.9578 0.8566
vt 0.9604 0.8607
vt 0.9480 0.8596
vt 0.9481 0.8566
vt 0.9360 0.8238
vt 0.9334 0.8489
vt 0.9305 0.8476
vt 0.9501 0.7711
vt 0.9546 0.7985
vt 0.9724 0.7704
vt 0.9752 0.7713
vt 0.9721 0.7851
vt 0.9706 0.7849
vt 0.9617 0.7691
vt 0.9644 0.7708
vt 0.9617 0.7983
vt 0.9603 0.7985
vt 0.9588 0.7681
vt 0.9588 0.7983
vt 0.9603 0.8338
vt 0.9597 0.8339
vt 0.9584 0.8337
vt 0.9577 0.8339
vt 0.9591 0.8338
vt 0.9651 0.8232
vt 0.9651 0.8239
vt 0.9645 0.8239
vt 0.9644 0.8233
vt 0.9583 0.8644
vt 0.9472 0.8621
vt 0.9174 0.8229
vt 0.9181 0.8482
vt 0.9601 0.8527
vt 0.9479 0.8536
vt 0.9584 0.8489
vt 0.9473 0.8511
vt 0.9289 0.8582
vt 0.9293 0.8566
vt 0.9283 0.8596
vt 0.9291 0.8550
vt 0.9284 0.8537
vt 0.9066 0.8566
vt 0.9066 0.8562
vt 0.9066 0.8570
vt 0.9067 0.8558
vt 0.9066 0.8554
vt 0.9644 0.8244
vt 0.9648 0.8244
vt 0.9648 0.8248
vt 0.9644 0.8247
vt 0.9644 0.7707
vt 0.9659 0.7681
vt 0.9668 0.7847
vt 0.9652 0.7848
vt 0.9695 0.7714
vt 0.9688 0.7856
vt 0.9709 0.8035
vt 0.9694 0.8031
vt 0.9678 0.8038
vt 0.9660 0.8032
vt 0.9644 0.8030
vt 0.9653 0.8230
vt 0.9649 0.8230
vt 0.9657 0.8231
vt 0.9664 0.8232
vt 0.9661 0.8230
vt 0.9648 0.8240
vt 0.9648 0.8243
vt 0.9644 0.8243
vt 0.9645 0.8239
vn 0.1650 0.0575 0.9846
vn -0.9141 0.1566 0.3740
vn 0.4505 0.0748 -0.8896
vn -0.6312 0.1924 -0.7514
vn 0.9562 0.1728 0.2363
vn 0.5205 0.2023 -0.8295
vn -0.7107 0.0346 -0.7027
vn 0.1496 0.1426 0.9784
vn 0.9847 0.0883 0.1503
vn -0.8879 0.0240 0.4594
vn -0.6933 -0.0923 -0.7147
vn 0.4633 0.0676 -0.8836
vn 0.0232 -0.0237 0.9995
vn -0.8825 -0.0433 0.4683
vn 0.9658 0.2058 0.1577
vn 0.1400 -0.0625 0.9882
vn 0.9601 -0.0640 0.2723
vn 0.3706 0.6639 -0.6495
vn -0.6375 0.0899 -0.7652
vn 0.5649 0.0033 -0.8251
vn -0.8968 -0.0212 0.4418
vn -0.5697 -0.7013 0.4284
vn -0.7024 0.1094 -0.7034
vn 0.5033 0.1320 -0.8539
vn 0.0744 0.1432 0.9869
vn -0.7362 0.1318 -0.6638
vn -0.7868 0.0752 0.6126
vn 0.1968 -0.0528 0.9790
vn 0.3969 0.0201 -0.9176
vn 0.9752 -0.0959 0.1997
vn 0.1470 0.9518 0.2691
vn -0.1192 -0.7260 -0.6773
vn -0.9387 0.0801 0.3352
vn -0.0300 0.7161 0.6974
vn -0.4870 -0.6526 0.5805
vn 0.5594 0.5494 -0.6207
vn -0.3114 -0.6676 -0.6762
vn -0.6261 -0.5848 0.5158
vn 0.1691 0.6155 0.7698
vn 0.9118 0.1565 -0.3796
vn -0.6000 -0.3676 -0.7105
vn 0.4709 0.4115 0.7804
vn -0.9317 -0.1220 0.3422
vn -0.9578 0.0822 -0.2753
vn 0.3328 -0.9368 0.1077
vn 0.9834 0.0231 0.1801
vn 0.7949 0.4459 -0.4115
vn -0.5896 0.7943 0.1467
vn -0.5556 -0.2859 0.7808
vn -0.7029 0.6729 -0.2306
vn 0.5272 -0.7323 0.4310
vn 0.5818 0.2525 -0.7731
vn 0.6802 -0.2603 0.6852
vn 0.5457 0.1336 -0.8273
vn -0.5016 -0.0894 0.8605
vn -0.8265 0.3016 -0.4753
vn 0.0536 0.9095 0.4122
s off
f 11/1/1 12/2/1 9/3/1 10/4/1
f 9/3/2 8/5/2 3/6/2 2/7/2
f 14/8/3 15/9/3 6/10/3 7/11/3
f 8/12/4 7/11/4 4/13/4 3/14/4
f 6/10/5 10/4/5 1/15/5 5/16/5
f 7/11/6 6/10/6 5/16/6 4/13/6
f 13/17/7 14/8/7 7/11/7 8/12/7
f 12/2/8 11/1/8 16/18/8 17/19/8
f 15/9/9 11/1/9 10/4/9 6/10/9
f 12/2/10 13/20/10 8/5/10 9/3/10
f 14/8/11 13/17/11 18/21/11 19/22/11
f 15/9/12 14/8/12 19/22/12 20/23/12
f 17/19/13 16/18/13 21/24/13 22/25/13
f 13/20/14 12/2/14 17/19/14 18/26/14
f 20/23/15 16/18/15 11/1/15 15/9/15
f 22/27/16 48/28/16 26/29/16 27/30/16
f 16/18/17 20/23/17 25/31/17 21/24/17
f 35/32/18 19/33/18 38/34/18 39/35/18
f 19/22/19 35/36/19 23/37/19 24/38/19
f 20/23/20 19/22/20 24/38/20 25/31/20
f 23/39/21 22/27/21 27/30/21 28/40/21
f 22/41/22 21/42/22 49/43/22 50/44/22
f 24/45/23 23/46/23 28/47/23 29/48/23
f 25/49/24 24/45/24 29/48/24 30/50/24
f 10/4/25 9/3/25 2/7/25 1/15/25
f 29/48/26 28/47/26 32/51/26 33/52/26
f 28/40/27 27/30/27 31/53/27 32/54/27
f 27/30/28 26/29/28 31/53/28
f 30/50/29 29/48/29 33/52/29 34/55/29
f 26/29/30 30/50/30 34/55/30 31/53/30
f 31/56/31 34/57/31 33/58/31 32/59/31
f 19/33/32 18/60/32 37/61/32 38/34/32
f 35/62/33 17/19/33 22/25/33 23/63/33
f 17/64/34 35/32/34 39/35/34 36/65/34
f 18/66/35 17/64/35 36/65/35 37/67/35
f 39/35/36 38/34/36 42/68/36 43/69/36
f 38/34/37 37/61/37 41/70/37 42/68/37
f 37/67/38 36/65/38 40/71/38 41/72/38
f 36/65/39 39/35/39 43/69/39 40/71/39
f 43/69/40 42/68/40 46/73/40 47/74/40
f 42/68/41 41/70/41 45/75/41 46/73/41
f 40/71/42 43/69/42 47/74/42 44/76/42
f 41/72/43 40/71/43 44/76/43 45/77/43
f 44/78/44 47/79/44 46/80/44 45/81/44
f 21/82/45 25/83/45 51/84/45 49/85/45
f 48/28/46 25/49/46 30/50/46 26/29/46
f 25/83/47 48/86/47 52/87/47 51/84/47
f 48/86/48 22/41/48 50/44/48 52/87/48
f 50/44/49 49/43/49 53/88/49 54/89/49
f 52/87/50 50/44/50 54/89/50 56/90/50
f 49/85/51 51/84/51 55/91/51 53/92/51
f 51/84/52 52/87/52 56/90/52 55/91/52
f 53/92/53 55/91/53 59/93/53 57/94/53
f 55/91/54 56/90/54 60/95/54 59/93/54
f 54/89/55 53/88/55 57/96/55 58/97/55
f 56/90/56 54/89/56 58/97/56 60/95/56
f 57/98/57 59/99/57 60/100/57 58/101/57
