# Blender v2.78 (sub 0) OBJ File: 'Low_Poly_Trees_Pack.blend'
# www.blender.org
g Oak_Tree_NoLeaves_m_05
v 0.277903 0.000000 0.096412
v -0.030808 0.000000 0.247076
v -0.217629 0.000000 0.038694
v -0.219787 0.000000 -0.136585
v -0.035125 0.000000 -0.355495
v 0.274378 0.000000 -0.189898
v 0.209000 0.372961 -0.196911
v -0.003051 0.401750 -0.310366
v -0.129569 0.389715 -0.160384
v -0.128090 0.396010 -0.040295
v -0.000093 0.414344 0.102475
v 0.211415 0.383243 -0.000751
v 0.292191 0.993007 0.022396
v 0.138437 1.032309 0.068776
v 0.042520 1.028662 -0.006959
v 0.040943 1.024129 -0.096105
v 0.135280 1.023240 -0.177194
v 0.289613 0.985602 -0.123220
v 0.197582 1.751099 -0.063182
v 0.080621 1.749091 0.000923
v -0.033116 1.739532 -0.068111
v -0.029893 1.731980 -0.201249
v 0.087067 1.733989 -0.265354
v 0.200805 1.743548 -0.196320
v -0.119584 2.766305 -0.041048
v -0.202831 2.753566 -0.000641
v -0.283701 2.732610 -0.048925
v -0.281718 2.724254 -0.145033
v -0.206576 2.733980 -0.200274
v -0.110058 2.759545 -0.147977
v -0.045679 3.667617 -0.433390
v -0.090352 3.725058 -0.392432
v -0.182012 3.679502 -0.388309
v -0.184945 3.729441 -0.501754
v -0.140272 3.672000 -0.542712
v -0.070638 3.641088 -0.508530
v 0.318297 3.997977 -1.311595
v 0.305013 4.043964 -1.301316
v 0.265482 4.063384 -1.322694
v 0.245875 4.013823 -1.359489
v 0.292049 3.971411 -1.343251
v -0.102585 3.795595 -0.518336
v -0.257335 4.264631 -0.095046
v -0.328637 4.246030 -0.080458
v -0.332660 4.262989 -0.169691
v -0.266363 4.295295 -0.196329
v -0.065408 4.804274 -0.139151
v -0.110350 4.814877 -0.122093
v -0.122297 4.801927 -0.179007
v -0.079446 4.796938 -0.206923
v 0.047777 5.816703 0.116921
v 0.030115 5.809130 0.118483
v 0.029590 5.817433 0.096680
v 0.045660 5.828847 0.092607
v 0.698977 4.632282 -1.740849
v 0.689357 4.642540 -1.731778
v 0.679461 4.638277 -1.746078
v 0.689381 4.628798 -1.754934
vt 0.9082 0.7804
vt 0.9014 0.7812
vt 0.8978 0.7679
vt 0.9060 0.7653
vt 0.8976 0.7824
vt 0.8927 0.7703
vt 0.9171 0.7792
vt 0.9167 0.7653
vt 0.9279 0.8016
vt 0.9224 0.8002
vt 0.9244 0.7791
vt 0.9324 0.7805
vt 0.9386 0.7817
vt 0.9355 0.7681
vt 0.9441 0.7705
vt 0.9251 0.7665
vt 0.9320 0.8020
vt 0.9128 0.8019
vt 0.9089 0.8024
vt 0.9178 0.8004
vt 0.9060 0.8029
vt 0.9312 0.8254
vt 0.9271 0.8248
vt 0.9231 0.8243
vt 0.9190 0.8245
vt 0.9149 0.8253
vt 0.9107 0.8261
vt 0.9063 0.8264
vt 0.9169 0.8587
vt 0.9139 0.8589
vt 0.9233 0.8577
vt 0.9198 0.8581
vt 0.9109 0.8589
vt 0.9299 0.8582
vt 0.9270 0.8577
vt 0.9502 0.7656
vt 0.9529 0.7667
vt 0.9527 0.7993
vt 0.9503 0.7994
vt 0.9471 0.7653
vt 0.9475 0.7977
vt 0.9441 0.7661
vt 0.9446 0.8004
vt 0.9560 0.7679
vt 0.9554 0.8003
vt 0.9591 0.7676
vt 0.9617 0.7667
vt 0.9609 0.8014
vt 0.9583 0.8014
vt 0.9565 0.8331
vt 0.9551 0.8332
vt 0.9585 0.8335
vt 0.9536 0.8337
vt 0.9683 0.7660
vt 0.9717 0.7653
vt 0.9705 0.7859
vt 0.9680 0.7869
vt 0.9456 0.8016
vt 0.9485 0.8034
vt 0.9520 0.8341
vt 0.9499 0.8340
vt 0.9618 0.7654
vt 0.9648 0.7659
vt 0.9641 0.7864
vt 0.9618 0.7856
vt 0.9756 0.7660
vt 0.9734 0.7865
vt 0.9671 0.8059
vt 0.9656 0.8058
vt 0.9636 0.8062
vt 0.9621 0.8062
vt 0.9689 0.8069
vt 0.9632 0.8402
vt 0.9623 0.8400
vt 0.9618 0.8397
vt 0.9639 0.8398
vt 0.9646 0.8398
vt 0.9618 0.8410
vt 0.9618 0.8403
vt 0.9624 0.8404
vt 0.9624 0.8413
vt 0.9560 0.8615
vt 0.9554 0.8615
vt 0.9565 0.8614
vt 0.9549 0.8614
vt 0.9543 0.8615
vt 0.9624 0.8408
vt 0.9625 0.8403
vt 0.9631 0.8403
vt 0.9630 0.8408
vn -0.7217 0.2816 0.6323
vn -0.9746 0.2239 0.0072
vn 0.4346 0.2791 0.8563
vn 0.4258 0.0756 -0.9017
vn -0.7596 0.1345 -0.6364
vn 0.9854 0.1697 -0.0157
vn 0.4735 0.0636 -0.8785
vn -0.7015 0.2758 -0.6572
vn -0.6966 0.1724 0.6965
vn 0.3688 -0.0579 0.9277
vn 0.9914 -0.1303 -0.0077
vn -0.9656 0.2599 0.0007
vn -0.5587 -0.1578 -0.8142
vn 0.4109 -0.0615 -0.9096
vn 0.3903 0.1351 0.9107
vn -0.5690 0.0211 0.8221
vn -0.9947 -0.1029 -0.0018
vn 0.9928 0.1197 -0.0041
vn -0.4950 -0.1399 0.8575
vn 0.9552 0.2942 0.0332
vn -0.9695 -0.2451 -0.0050
vn -0.5215 -0.0911 -0.8484
vn 0.4670 0.1886 -0.8639
vn 0.4518 0.1254 0.8832
vn 0.5817 0.2642 0.7693
vn -0.3609 0.3671 0.8573
vn -0.9935 0.1104 0.0264
vn 0.9935 -0.0916 -0.0675
vn -0.6610 -0.2043 -0.7220
vn 0.4240 -0.3477 -0.8362
vn 0.6987 -0.7152 0.0206
vn -0.8184 -0.2777 -0.5031
vn -0.3129 -0.8217 -0.4763
vn 0.8539 0.2532 0.4548
vn -0.4743 0.3643 -0.8014
vn -0.7325 0.6682 -0.1301
vn 0.2603 -0.4056 0.8762
vn 0.9583 0.2833 0.0365
vn 0.2891 0.8588 0.4229
vn -0.9712 -0.2343 -0.0440
vn -0.4736 0.1643 -0.8653
vn 0.9225 -0.3447 -0.1734
vn 0.2641 -0.0231 0.9642
vn -0.9251 0.3631 0.1110
vn 0.9822 -0.0667 -0.1758
vn 0.2633 -0.2630 0.9282
vn -0.4804 0.2969 -0.8253
vn -0.9832 0.1046 0.1496
vn -0.4012 0.8286 0.3904
vn 0.7713 -0.6010 -0.2096
vn -0.2463 -0.3923 -0.8863
vn 0.7109 0.0481 0.7016
vn -0.2790 0.6818 0.6762
vn -0.8575 0.4789 -0.1881
vn 0.3721 0.7984 -0.4734
s off
f 11/1/1 10/2/1 3/3/1 2/4/1
f 10/2/2 9/5/2 4/6/2 3/3/2
f 12/7/3 11/1/3 2/4/3 1/8/3
f 17/9/4 18/10/4 7/11/4 8/12/4
f 9/13/5 8/12/5 5/14/5 4/15/5
f 7/11/6 12/7/6 1/8/6 6/16/6
f 8/12/7 7/11/7 6/16/7 5/14/7
f 16/17/8 17/9/8 8/12/8 9/13/8
f 14/18/9 15/19/9 10/2/9 11/1/9
f 13/20/10 14/18/10 11/1/10 12/7/10
f 18/10/11 13/20/11 12/7/11 7/11/11
f 15/19/12 16/21/12 9/5/12 10/2/12
f 17/9/13 16/17/13 22/22/13 23/23/13
f 18/10/14 17/9/14 23/23/14 24/24/14
f 14/18/15 13/20/15 19/25/15 20/26/15
f 15/19/16 14/18/16 20/26/16 21/27/16
f 16/21/17 15/19/17 21/27/17 22/28/17
f 24/24/18 19/25/18 13/20/18 18/10/18
f 21/27/19 20/26/19 26/29/19 27/30/19
f 19/25/20 24/24/20 30/31/20 25/32/20
f 22/28/21 21/27/21 27/30/21 28/33/21
f 23/23/22 22/22/22 28/34/22 29/35/22
f 24/24/23 23/23/23 29/35/23 30/31/23
f 20/26/24 19/25/24 25/32/24 26/29/24
f 26/36/25 25/37/25 31/38/25 32/39/25
f 27/40/26 26/36/26 32/39/26 33/41/26
f 28/42/27 27/40/27 33/41/27 34/43/27
f 25/37/28 30/44/28 36/45/28 31/38/28
f 29/46/29 28/47/29 34/48/29 35/49/29
f 30/44/30 29/46/30 35/49/30 36/45/30
f 31/38/31 36/45/31 41/50/31 37/51/31
f 35/49/32 34/48/32 40/52/32
f 36/45/33 35/49/33 40/52/33 41/50/33
f 32/39/34 31/38/34 37/51/34 38/53/34
f 42/54/35 34/55/35 45/56/35 46/57/35
f 34/58/36 42/59/36 39/60/36 40/61/36
f 33/62/37 32/63/37 43/64/37 44/65/37
f 32/63/38 42/54/38 46/57/38 43/64/38
f 42/59/39 32/39/39 38/53/39 39/60/39
f 34/55/40 33/66/40 44/67/40 45/56/40
f 46/57/41 45/56/41 49/68/41 50/69/41
f 43/64/42 46/57/42 50/69/42 47/70/42
f 44/65/43 43/64/43 47/70/43 48/71/43
f 45/56/44 44/67/44 48/72/44 49/68/44
f 47/70/45 50/69/45 54/73/45 51/74/45
f 48/71/46 47/70/46 51/74/46 52/75/46
f 50/69/47 49/68/47 53/76/47 54/73/47
f 49/68/48 48/72/48 52/77/48 53/76/48
f 53/78/49 52/79/49 51/80/49 54/81/49
f 37/51/50 41/50/50 58/82/50 55/83/50
f 41/50/51 40/52/51 57/84/51 58/82/51
f 38/53/52 37/51/52 55/83/52 56/85/52
f 39/60/53 38/53/53 56/85/53 57/86/53
f 40/61/54 39/60/54 57/86/54
f 56/87/55 55/88/55 58/89/55 57/90/55
