# Blender v2.78 (sub 0) OBJ File: 'Low_Poly_Trees_Pack.blend'
# www.blender.org
g Oak_Tree_crk_m_02
v -3.425725 0.656337 0.045760
v -3.224270 0.094803 -0.084889
v -2.578436 0.515453 0.289341
v -3.001278 0.813628 0.312686
v -3.545738 0.934240 -0.653121
v -2.972618 1.253811 -0.115437
v -3.568406 0.254100 -0.568918
v -2.877603 -0.040186 -0.526700
v -2.124129 0.996493 -0.145182
v -2.062029 0.662440 0.164524
v -2.688800 1.031394 0.225378
v -1.506227 0.531639 -0.417111
v -1.612346 0.796943 -0.823458
v -2.472727 1.360872 -0.522552
v -2.816300 1.353837 -0.763211
v -2.075772 1.171771 -1.167250
v -1.613951 0.416350 -1.084882
v -1.497743 0.170829 -0.557370
v -1.899204 -0.129905 -0.435499
v -1.880528 -0.025308 -1.197553
v -1.976563 0.660716 -1.566175
v -2.510169 0.928945 -1.642587
v -2.267436 0.058173 -1.497157
v -2.308337 -0.112015 -0.603931
v -2.500611 0.067658 -0.048553
v -3.120585 0.100365 -1.252562
v -3.557034 0.478519 -1.067038
v -3.099754 1.175831 -0.953661
v -1.879517 0.227726 -0.094874
v -0.891121 0.004893 -0.591522
v -0.894868 -0.020289 -0.684673
v -0.878170 0.063516 -0.730539
v -0.890198 0.106034 -0.626899
v -1.556731 0.144439 -0.656108
v -1.568825 0.130918 -0.710475
v -1.552290 0.163744 -0.739755
v -1.546549 0.190082 -0.678379
v -2.370910 0.574182 -0.671148
v -2.367666 0.571415 -0.682792
v -2.368854 0.578019 -0.690218
v -2.375289 0.581436 -0.677954
v 1.478233 5.795056 1.635407
v 1.464826 5.179368 2.079618
v 1.990646 4.924734 0.909873
v 1.792661 5.622009 1.141625
v 0.478159 5.965690 1.591777
v 1.171658 5.719248 0.669810
v 0.771188 5.550185 2.179702
v 1.020144 4.522282 2.090329
v 1.688741 5.452989 0.601909
v 1.764421 4.193364 0.261550
v 1.169847 4.484157 0.001556
v 1.325001 3.518273 0.028292
v 0.596252 5.345115 0.165084
v 0.159390 5.705914 0.852410
v 0.141470 4.646456 0.063485
v 0.490343 3.497057 0.313035
v 1.209611 3.209674 0.450919
v 1.334980 3.354806 1.313506
v 0.288505 3.458272 1.141332
v -0.287741 4.094870 0.546016
v -0.496580 4.764930 0.968655
v -0.383577 4.961358 0.655715
v -0.240826 3.956271 1.405732
v 0.767857 3.795244 -0.096214
v 1.052674 3.760407 1.795738
v 1.671174 4.286269 1.653001
v 0.274318 4.723768 2.103123
v 0.190009 5.567586 2.055949
v -0.245578 4.742872 1.771904
v -0.089288 5.461151 1.502382
v 1.698463 3.587870 0.809926
v 0.216615 8.168316 -0.198143
v 0.588524 7.421255 0.598783
v 1.103321 6.918541 -0.477031
v 0.823534 7.867565 -0.513926
v -0.377731 8.069253 -0.478636
v 0.082562 7.960355 -0.829560
v -0.177652 7.967810 0.713193
v 0.125606 6.628388 0.903988
v 0.820862 7.392217 -1.220284
v 1.109721 6.453797 -0.937547
v 0.929695 5.628208 -1.261173
v 0.281002 5.905083 -1.660448
v 0.469692 4.650774 -1.336279
v -0.348159 7.076235 -1.713000
v -0.831741 7.751752 -0.976383
v -0.829586 6.110350 -1.622795
v 0.193465 7.717558 -1.303768
v -0.425333 4.688379 -0.968933
v 0.353031 4.378492 -0.720589
v 0.477767 4.851850 0.293936
v -0.643016 4.901604 0.064517
v -1.279027 5.528795 -0.856337
v -1.517323 6.540254 -0.536455
v -1.401622 6.701713 -0.982450
v -1.223348 5.626226 0.244855
v -0.136856 4.958159 -1.567971
v 0.169253 5.536376 0.771443
v 0.830333 6.196364 0.429779
v -0.682968 6.876015 0.866347
v -0.797944 7.892774 0.581088
v -1.244383 6.778618 0.457685
v -1.095370 7.597598 -0.095979
v 0.871768 5.000153 -0.398490
v -0.593277 8.117953 0.048760
v 0.765184 7.762427 -0.036134
v 0.229295 0.000000 0.145297
v -0.167548 0.000000 0.169517
v -0.313214 0.000000 -0.200418
v -0.006397 0.000000 -0.453271
v 0.328892 0.000000 -0.239607
v 0.243453 0.394283 -0.200342
v -0.008609 0.408443 -0.351766
v -0.230547 0.415832 -0.158494
v -0.115650 0.406239 0.112378
v 0.177298 0.392921 0.086514
v 0.112745 1.183165 0.004981
v -0.075799 1.191075 0.055117
v -0.181650 1.196225 -0.108820
v -0.058526 1.191496 -0.260276
v 0.123421 1.183425 -0.189943
v 0.041007 2.084763 -0.049167
v -0.114782 2.089063 -0.052493
v -0.162199 1.992371 -0.192242
v -0.032163 2.072925 -0.290256
v 0.092069 2.074789 -0.196113
v 0.118441 3.167226 -0.032374
v 0.007489 3.237957 -0.021075
v -0.046832 3.250075 -0.139799
v 0.038496 3.204381 -0.228254
v 0.145553 3.164023 -0.164198
v 0.133051 4.381027 -0.019770
v 0.077212 4.378618 0.000289
v 0.041028 4.393756 -0.044296
v 0.073642 4.358026 -0.099347
v 0.131378 4.397653 -0.076753
v 0.287208 5.971863 0.077205
v 0.268508 5.978034 0.067346
v 0.278351 5.979846 0.052824
v 0.294959 5.975561 0.056927
v -0.140919 2.223111 -0.194029
v 0.113423 3.326643 -0.027004
v 0.376204 3.265057 0.527267
v 0.340055 3.316230 0.519911
v 0.428398 3.276986 0.489902
v 0.399841 3.355852 0.497158
v 0.838724 3.717713 0.949434
v 0.791791 3.739573 0.924383
v 0.882654 3.730190 0.911251
v 0.830892 3.781025 0.886180
v 0.084792 4.488637 -0.087441
v -0.025344 4.586754 -0.433021
v -0.000140 4.559662 -0.450257
v 0.033546 4.586806 -0.444647
v 0.014339 4.637994 -0.419720
v 0.046208 5.233619 -0.848404
v 0.052851 5.228327 -0.855701
v 0.062473 5.231182 -0.849186
v 0.057901 5.240294 -0.836235
v -0.500214 2.142645 -0.255297
v -0.516352 2.090785 -0.335143
v -0.457689 2.132305 -0.400261
v -0.445813 2.209449 -0.319012
vt 0.7103 0.5570
vt 0.7201 0.5547
vt 0.7189 0.5690
vt 0.7106 0.5666
vt 0.6998 0.5673
vt 0.7040 0.5521
vt 0.7148 0.5470
vt 0.7281 0.5463
vt 0.7071 0.5738
vt 0.7180 0.5819
vt 0.6640 0.5373
vt 0.6736 0.5514
vt 0.6652 0.5537
vt 0.6571 0.5528
vt 0.6492 0.5403
vt 0.6397 0.5462
vt 0.7040 0.5832
vt 0.6892 0.5757
vt 0.6897 0.5641
vt 0.6669 0.5615
vt 0.6754 0.5601
vt 0.6850 0.5692
vt 0.6672 0.5701
vt 0.6600 0.5732
vt 0.6590 0.5629
vt 0.6520 0.5630
vt 0.7191 0.5324
vt 0.7087 0.5364
vt 0.6793 0.5819
vt 0.6893 0.5551
vt 0.6342 0.5549
vt 0.6437 0.5850
vt 0.6532 0.5824
vt 0.6870 0.5541
vt 0.6785 0.5385
vt 0.7352 0.5778
vt 0.7293 0.5618
vt 0.7428 0.5686
vt 0.7399 0.5578
vt 0.6720 0.5936
vt 0.9501 0.7306
vt 0.9500 0.7338
vt 0.9300 0.7322
vt 0.9304 0.7305
vt 0.9492 0.7363
vt 0.9294 0.7337
vt 0.9493 0.7248
vt 0.9499 0.7275
vt 0.9301 0.7289
vt 0.9295 0.7275
vt 0.9066 0.7306
vt 0.9065 0.7301
vt 0.9065 0.7310
vt 0.9066 0.7297
vt 0.9066 0.7293
vt 0.8228 0.6819
vt 0.8395 0.6831
vt 0.8423 0.6997
vt 0.8228 0.7005
vt 0.7114 0.5573
vt 0.7201 0.5547
vt 0.7183 0.5716
vt 0.7109 0.5663
vt 0.6994 0.5678
vt 0.7049 0.5504
vt 0.7148 0.5470
vt 0.7279 0.5464
vt 0.7069 0.5743
vt 0.7192 0.5866
vt 0.6643 0.5324
vt 0.6787 0.5387
vt 0.6638 0.5434
vt 0.6571 0.5528
vt 0.6489 0.5429
vt 0.6892 0.5757
vt 0.6893 0.5567
vt 0.6669 0.5612
vt 0.6736 0.5514
vt 0.6754 0.5601
vt 0.6847 0.5693
vt 0.6672 0.5701
vt 0.6590 0.5629
vt 0.6524 0.5675
vt 0.6514 0.5601
vt 0.6600 0.5732
vt 0.6652 0.5537
vt 0.6557 0.5879
vt 0.6445 0.5870
vt 0.6512 0.5778
vt 0.7191 0.5324
vt 0.7105 0.5366
vt 0.6785 0.5821
vt 0.6993 0.5374
vt 0.6347 0.5533
vt 0.6879 0.5567
vt 0.7377 0.5782
vt 0.7293 0.5618
vt 0.7428 0.5686
vt 0.7399 0.5578
vt 0.6720 0.5936
vt 0.6389 0.5745
vt 0.5943 0.5547
vt 0.5932 0.5688
vt 0.5887 0.5624
vt 0.5851 0.5571
vt 0.5759 0.5564
vt 0.5802 0.5485
vt 0.5850 0.5664
vt 0.5767 0.5635
vt 0.5890 0.5470
vt 0.6021 0.5464
vt 0.5812 0.5743
vt 0.5912 0.5765
vt 0.5933 0.5866
vt 0.5385 0.5324
vt 0.5529 0.5386
vt 0.5380 0.5434
vt 0.5313 0.5528
vt 0.5232 0.5427
vt 0.5634 0.5757
vt 0.5635 0.5569
vt 0.5730 0.5686
vt 0.5411 0.5611
vt 0.5478 0.5514
vt 0.5496 0.5601
vt 0.5587 0.5693
vt 0.5414 0.5701
vt 0.5332 0.5629
vt 0.5267 0.5675
vt 0.5255 0.5601
vt 0.5342 0.5732
vt 0.5395 0.5537
vt 0.5299 0.5879
vt 0.5188 0.5870
vt 0.5254 0.5778
vt 0.5934 0.5324
vt 0.5847 0.5366
vt 0.5524 0.5821
vt 0.5733 0.5377
vt 0.5090 0.5530
vt 0.5621 0.5567
vt 0.6120 0.5782
vt 0.6036 0.5618
vt 0.6170 0.5686
vt 0.6141 0.5578
vt 0.5462 0.5936
vt 0.5129 0.5741
vt 0.9266 0.6683
vt 0.9210 0.6692
vt 0.9181 0.6479
vt 0.9257 0.6464
vt 0.9110 0.6503
vt 0.9065 0.6424
vt 0.9157 0.6392
vt 0.9379 0.6702
vt 0.9324 0.6688
vt 0.9335 0.6466
vt 0.9409 0.6485
vt 0.9478 0.6514
vt 0.9438 0.6398
vt 0.9522 0.6438
vt 0.9250 0.6377
vt 0.9346 0.6377
vt 0.9436 0.6717
vt 0.9258 0.6919
vt 0.9217 0.6919
vt 0.9154 0.6704
vt 0.9382 0.6909
vt 0.9339 0.6921
vt 0.9299 0.6919
vt 0.9251 0.7202
vt 0.9220 0.7217
vt 0.9176 0.6902
vt 0.9555 0.6402
vt 0.9585 0.6421
vt 0.9599 0.6690
vt 0.9584 0.6691
vt 0.9284 0.7203
vt 0.9603 0.7306
vt 0.9631 0.7349
vt 0.9500 0.7338
vt 0.9501 0.7306
vt 0.9374 0.6961
vt 0.9347 0.7225
vt 0.9316 0.7212
vt 0.9522 0.6407
vt 0.9570 0.6695
vt 0.9757 0.6400
vt 0.9786 0.6410
vt 0.9754 0.6554
vt 0.9738 0.6553
vt 0.9645 0.6387
vt 0.9672 0.6404
vt 0.9645 0.6694
vt 0.9629 0.6695
vt 0.9614 0.6377
vt 0.9614 0.6693
vt 0.9645 0.6694
vt 0.9629 0.6695
vt 0.9610 0.7065
vt 0.9603 0.7067
vt 0.9629 0.6715
vt 0.9629 0.6715
vt 0.9617 0.7066
vt 0.9609 0.7387
vt 0.9492 0.7363
vt 0.9179 0.6952
vt 0.9187 0.7217
vt 0.9628 0.7265
vt 0.9499 0.7275
vt 0.9610 0.7225
vt 0.9493 0.7248
vt 0.9673 0.6404
vt 0.9689 0.6377
vt 0.9698 0.6551
vt 0.9681 0.6551
vt 0.9726 0.6410
vt 0.9719 0.6560
vt 0.9741 0.6748
vt 0.9725 0.6744
vt 0.9708 0.6751
vt 0.9689 0.6745
vt 0.9673 0.6743
vt 0.9624 0.7067
vt 0.9630 0.7066
vt 0.9614 0.6693
vt 0.9629 0.6715
vt 0.9645 0.6694
vt 0.9629 0.6695
vt 0.9614 0.6693
vt 0.7967 0.6827
vt 0.8152 0.6819
vt 0.8152 0.7015
vt 0.7985 0.6993
vn -0.3105 -0.3197 0.8952
vn -0.5752 0.5893 0.5674
vn -0.6911 0.6230 0.3664
vn -0.8057 -0.3923 0.4437
vn -0.3905 -0.9203 -0.0252
vn -0.9800 0.0563 0.1907
vn 0.1885 0.1604 0.9689
vn 0.6533 0.7006 0.2868
vn 0.6248 0.7641 0.1606
vn 0.1254 0.9702 -0.2074
vn 0.2833 0.8939 0.3475
vn -0.2831 0.6781 0.6783
vn -0.1085 0.9861 0.1261
vn 0.9806 0.0906 -0.1738
vn 0.8606 -0.5070 -0.0485
vn 0.6339 -0.3830 -0.6720
vn 0.0680 -0.1459 -0.9870
vn 0.7301 0.3848 -0.5647
vn 0.4043 0.6103 -0.6813
vn -0.3890 -0.9200 -0.0479
vn -0.6944 -0.6500 -0.3087
vn 0.0335 -0.9821 -0.1856
vn -0.1058 -0.9848 -0.1378
vn -0.5328 0.8462 0.0021
vn -0.2090 0.8500 -0.4835
vn -0.5722 0.4830 -0.6628
vn -0.2786 -0.2333 -0.9316
vn 0.7037 -0.1222 0.6999
vn 0.2269 -0.6782 0.6990
vn -0.0625 -0.6081 0.7914
vn -0.0491 -0.9653 0.2564
vn -0.3149 -0.5093 0.8009
vn 0.4436 0.6523 0.6146
vn 0.1636 0.1558 0.9741
vn 0.6512 0.5775 0.4924
vn 0.5422 0.8235 0.1669
vn 0.2625 0.8039 0.5337
vn 0.9769 0.1181 -0.1780
vn 0.4404 -0.7730 -0.4568
vn 0.5850 -0.1497 -0.7971
vn 0.8075 0.4523 -0.3787
vn -0.0826 -0.9562 0.2808
vn -0.1428 -0.9795 -0.1419
vn -0.1030 -0.9762 -0.1907
vn -0.6530 0.5180 -0.5525
vn -0.9994 0.0323 -0.0083
vn -0.4808 0.8768 -0.0086
vn -0.0197 0.8975 -0.4405
vn -0.4515 -0.0854 -0.8882
vn 0.5980 -0.5698 0.5637
vn 0.7364 -0.2300 0.6362
vn 0.3187 -0.3835 0.8668
vn -0.1478 -0.9548 0.2577
vn 0.2055 -0.5665 0.7980
vn 0.1439 0.9152 -0.3764
vn -0.0758 -0.5247 -0.8479
vn -0.2216 -0.9371 0.2697
vn -0.0196 0.3668 0.9301
vn 0.4054 0.8489 -0.3392
vn -0.3365 -0.5681 -0.7510
vn 0.2180 0.4516 0.8652
vn -0.4555 -0.8482 0.2704
vn 0.9957 -0.0664 0.0647
vn 0.9044 0.2365 0.3551
vn 0.2705 0.9493 -0.1604
vn 0.1723 0.9762 -0.1313
vn 0.3928 0.5324 0.7498
vn 0.1115 -0.0593 0.9920
vn 0.1197 0.8379 0.5325
vn 0.8426 0.1871 -0.5051
vn 0.4893 0.2548 -0.8341
vn -0.0333 0.1650 -0.9857
vn 0.3941 0.8527 -0.3429
vn -0.1038 0.8520 -0.5132
vn -0.1894 -0.7677 -0.6122
vn -0.0871 -0.9939 -0.0678
vn -0.9274 -0.0557 -0.3699
vn -0.6237 -0.7763 -0.0911
vn -0.9540 -0.2997 0.0037
vn -0.6418 -0.3436 -0.6856
vn -0.0342 0.1599 -0.9865
vn -0.7479 0.0013 -0.6638
vn -0.5375 -0.0066 0.8433
vn -0.0068 -0.0882 0.9961
vn -0.2072 0.0340 0.9777
vn -0.2785 -0.8091 0.5175
vn -0.1871 -0.6083 0.7713
vn -0.5096 -0.3656 0.7788
vn -0.6665 0.7451 0.0256
vn -0.5358 0.5581 -0.6335
vn -0.9460 -0.1415 0.2917
vn 0.8337 -0.4179 -0.3611
vn 0.9728 -0.2045 -0.1088
vn 0.8137 -0.4345 0.3862
vn 0.9133 0.0166 0.4069
vn 0.4566 -0.2954 0.8392
vn 0.8523 0.0697 0.5183
vn 0.8946 0.3474 -0.2811
vn 0.4174 0.0419 -0.9077
vn 0.3123 0.3739 -0.8733
vn 0.2313 0.6367 -0.7356
vn -0.2084 -0.7178 -0.6643
vn 0.2222 0.0087 -0.9750
vn -0.3970 -0.8939 0.2081
vn -0.7232 -0.6588 -0.2071
vn -0.4914 -0.3246 -0.8082
vn 0.4525 -0.3047 0.8381
vn -0.0820 -0.3625 0.9284
vn -0.3181 -0.5117 0.7981
vn -0.8670 0.3291 0.3742
vn -0.1060 0.7864 0.6086
vn -0.0675 0.9501 -0.3047
vn -0.7956 0.6008 -0.0781
vn -0.5346 0.4518 -0.7142
vn -0.8643 0.5029 0.0036
vn -0.9061 0.3066 0.2916
vn 0.5877 -0.8075 0.0505
vn 0.7076 -0.6486 -0.2804
vn 0.5480 -0.4539 0.7026
vn 0.9503 -0.2239 0.2162
vn -0.6685 0.7165 0.1995
vn 0.9174 0.1829 0.3535
vn -0.1017 0.9859 -0.1326
vn 0.2623 0.8986 -0.3517
vn -0.0119 0.9505 -0.3105
vn 0.5704 0.7151 0.4041
vn 0.2811 0.1974 0.9392
vn 0.0055 0.9761 0.2171
vn 0.7951 0.0630 -0.6031
vn 0.9496 0.2272 -0.2161
vn 0.5397 0.0528 -0.8402
vn -0.0467 -0.0698 -0.9965
vn 0.3236 0.7844 -0.5291
vn -0.2124 0.6468 -0.7325
vn -0.2128 -0.8781 -0.4286
vn -0.0813 -0.9794 0.1849
vn -0.9472 -0.1305 -0.2930
vn -0.6915 -0.7156 0.0983
vn -0.9657 -0.2499 0.0709
vn -0.7075 -0.4512 -0.5439
vn -0.0478 -0.0762 -0.9959
vn -0.8010 -0.1461 -0.5806
vn -0.5988 0.1529 0.7862
vn -0.0031 0.1403 0.9901
vn -0.2298 0.2387 0.9435
vn -0.3090 -0.6339 0.7090
vn -0.2014 -0.3854 0.9005
vn -0.5626 -0.1601 0.8111
vn -0.5571 0.8302 -0.0214
vn -0.6145 0.3376 -0.7130
vn -0.9577 -0.0691 0.2795
vn 0.8870 -0.3997 -0.2314
vn 0.9800 -0.1863 -0.0698
vn 0.8607 -0.2693 0.4321
vn 0.9166 0.1287 0.3785
vn 0.5562 -0.0049 0.8310
vn 0.9420 0.2846 0.1777
vn 0.9444 0.2712 -0.1861
vn 0.4694 -0.1541 -0.8694
vn 0.3503 0.1467 -0.9251
vn 0.2900 0.3286 -0.8988
vn 0.4697 0.8255 -0.3128
vn -0.1226 0.8715 -0.4749
vn -0.2369 -0.8380 -0.4915
vn 0.2566 -0.2055 -0.9444
vn -0.4484 -0.7876 0.4226
vn -0.7845 -0.6190 -0.0375
vn -0.5554 -0.4725 -0.6842
vn 0.5212 -0.0823 0.8495
vn -0.0838 -0.1234 0.9888
vn -0.3549 -0.2887 0.8892
vn -0.9075 0.3357 0.2523
vn -0.1812 0.9288 0.3232
vn -0.6342 0.7020 -0.3240
vn -0.1304 0.8855 -0.4459
vn -0.8647 0.4703 -0.1766
vn -0.6087 0.2326 -0.7585
vn -0.9113 0.4016 -0.0910
vn -0.9368 0.2963 0.1862
vn 0.6809 -0.6922 0.2392
vn 0.7913 -0.6004 -0.1156
vn 0.9852 -0.1137 0.1284
vn 0.6232 -0.2387 0.7448
vn 0.9725 -0.1089 0.2060
vn -0.7217 0.6921 0.0153
vn 0.5294 0.8127 0.2435
vn 0.4048 0.7538 0.5177
vn 0.1591 0.0891 0.9832
vn -0.9141 0.1566 0.3740
vn 0.4567 0.1066 -0.8832
vn -0.6312 0.1924 -0.7514
vn 0.9562 0.1728 0.2363
vn 0.5205 0.2023 -0.8295
vn -0.7042 0.0634 -0.7071
vn 0.1375 0.0971 0.9857
vn 0.9801 0.1216 0.1567
vn -0.8897 0.0526 0.4535
vn -0.6971 -0.0294 -0.7164
vn 0.4729 -0.0166 -0.8810
vn 0.0232 -0.0237 0.9995
vn -0.8968 0.0394 0.4407
vn 0.9825 0.0624 0.1756
vn 0.1694 -0.0197 0.9853
vn 0.9601 -0.0640 0.2723
vn 0.2670 0.6612 -0.7011
vn -0.6375 0.0899 -0.7652
vn 0.5649 0.0033 -0.8251
vn -0.8716 0.0351 0.4889
vn -0.5725 -0.7044 0.4197
vn -0.7384 0.1046 -0.6662
vn 0.4643 0.0759 -0.8824
vn 0.0744 0.1432 0.9869
vn -0.8078 -0.5698 -0.1509
vn -0.6929 0.0527 0.7191
vn 0.3401 -0.0900 0.9361
vn -0.7632 0.5154 0.3896
vn 0.9933 -0.1033 0.0510
vn 0.0239 -0.8135 -0.5811
vn -0.9387 0.0801 0.3352
vn -0.2698 0.7065 0.6542
vn -0.4175 -0.6920 0.5889
vn 0.2388 -0.9691 0.0619
vn 0.9868 -0.0090 0.1616
vn 0.7796 0.4540 -0.4314
vn -0.5655 0.7861 0.2493
vn -0.5223 -0.2298 0.8212
vn -0.6579 0.7499 -0.0699
vn 0.4778 -0.8069 0.3473
vn 0.5327 0.2176 -0.8178
vn 0.2989 0.0503 -0.9530
vn -0.8410 0.1575 -0.5176
vn 0.9069 0.4211 -0.0144
vn 0.6082 -0.6274 -0.4863
vn -0.7366 0.4206 0.5296
vn 0.5246 -0.4705 -0.7096
vn 0.9310 0.1615 0.3274
vn -0.7532 -0.2954 -0.5878
vn -0.8097 0.5186 -0.2745
s off
f 1/1/1 2/2/1 3/3/1
f 4/4/2 6/5/2 1/1/2
f 1/1/3 6/5/3 5/6/3
f 1/1/4 7/7/4 2/2/4
f 2/2/5 7/7/5 8/8/5
f 1/1/6 5/6/6 7/7/6
f 11/9/7 3/3/7 10/10/7
f 9/11/8 12/12/8 13/13/8
f 9/11/9 16/14/9 14/15/9
f 14/15/10 16/14/10 15/16/10
f 9/17/11 6/5/11 11/9/11
f 11/9/12 6/5/12 4/4/12
f 14/18/13 15/19/13 6/5/13
f 17/20/14 12/12/14 18/21/14
f 17/20/15 19/22/15 20/23/15
f 17/20/16 23/24/16 21/25/16
f 21/25/17 23/24/17 22/26/17
f 17/20/18 16/14/18 13/13/18
f 21/25/19 22/26/19 16/14/19
f 8/8/20 7/7/20 26/27/20
f 26/27/21 7/7/21 27/28/21
f 24/29/22 23/24/22 19/22/22
f 19/22/23 23/24/23 20/23/23
f 28/30/24 6/5/24 15/19/24
f 28/31/25 15/16/25 22/26/25
f 28/31/26 22/26/26 27/32/26
f 22/26/27 23/24/27 26/33/27
f 29/34/28 12/12/28 10/35/28
f 29/36/29 25/37/29 19/38/29
f 3/3/30 2/2/30 25/37/30
f 2/2/31 8/8/31 25/37/31
f 1/1/32 3/3/32 4/4/32
f 9/17/33 11/9/33 10/10/33
f 11/9/34 4/4/34 3/3/34
f 9/11/35 10/35/35 12/12/35
f 9/11/36 13/13/36 16/14/36
f 9/17/37 14/18/37 6/5/37
f 17/20/38 13/13/38 12/12/38
f 17/20/39 18/21/39 19/22/39
f 17/20/40 20/23/40 23/24/40
f 17/20/41 21/25/41 16/14/41
f 8/8/42 24/39/42 25/37/42
f 24/29/43 8/40/43 26/33/43
f 24/29/44 26/33/44 23/24/44
f 28/30/45 27/28/45 5/6/45
f 27/28/46 7/7/46 5/6/46
f 28/30/47 5/6/47 6/5/47
f 22/26/48 15/16/48 16/14/48
f 27/32/49 22/26/49 26/33/49
f 29/34/50 19/22/50 18/21/50
f 29/34/51 18/21/51 12/12/51
f 29/36/52 10/10/52 3/3/52
f 19/38/53 25/37/53 24/39/53
f 29/36/54 3/3/54 25/37/54
f 33/41/55 32/42/55 36/43/55 37/44/55
f 32/42/56 31/45/56 35/46/56 36/43/56
f 31/47/57 30/48/57 34/49/57 35/50/57
f 30/48/58 33/41/58 37/44/58 34/49/58
f 37/44/59 36/43/59 40/51/59 41/52/59
f 36/43/60 35/46/60 39/53/60 40/51/60
f 34/49/61 37/44/61 41/52/61 38/54/61
f 35/50/62 34/49/62 38/54/62 39/55/62
f 30/56/63 31/57/63 32/58/63 33/59/63
f 42/60/64 43/61/64 44/62/64
f 45/63/65 47/64/65 42/60/65
f 42/60/66 47/64/66 46/65/66
f 42/60/67 48/66/67 43/61/67
f 43/61/68 48/66/68 49/67/68
f 42/60/69 46/65/69 48/66/69
f 50/68/70 44/62/70 51/69/70
f 50/70/71 51/71/71 52/72/71
f 52/72/72 56/73/72 54/74/72
f 50/68/73 47/64/73 45/63/73
f 54/75/74 55/76/74 47/64/74
f 57/77/75 53/78/75 58/79/75
f 57/77/76 59/80/76 60/81/76
f 61/82/77 62/83/77 63/84/77
f 57/77/78 64/85/78 61/82/78
f 61/82/79 64/85/79 62/83/79
f 57/77/80 56/73/80 65/86/80
f 65/86/81 56/73/81 52/72/81
f 61/82/82 63/84/82 56/73/82
f 68/87/83 69/88/83 70/89/83
f 49/67/84 48/66/84 68/90/84
f 68/90/85 48/66/85 69/91/85
f 66/92/86 64/85/86 59/80/86
f 59/80/87 64/85/87 60/81/87
f 68/87/88 70/89/88 64/85/88
f 71/93/89 46/65/89 55/76/89
f 55/94/90 54/74/90 63/84/90
f 62/83/91 64/85/91 70/89/91
f 72/95/92 53/78/92 51/71/92
f 51/69/93 44/62/93 72/96/93
f 72/96/94 67/97/94 59/98/94
f 44/62/95 43/61/95 67/97/95
f 43/61/96 49/67/96 67/97/96
f 42/60/97 44/62/97 45/63/97
f 50/68/98 45/63/98 44/62/98
f 52/72/99 51/71/99 53/78/99
f 50/70/100 52/72/100 54/74/100
f 50/68/101 54/75/101 47/64/101
f 57/77/102 65/86/102 53/78/102
f 65/86/103 52/72/103 53/78/103
f 57/77/104 58/79/104 59/80/104
f 57/77/105 60/81/105 64/85/105
f 57/77/106 61/82/106 56/73/106
f 49/67/107 66/99/107 67/97/107
f 66/92/108 49/100/108 68/87/108
f 66/92/109 68/87/109 64/85/109
f 71/101/110 70/89/110 69/88/110
f 69/91/111 48/66/111 46/65/111
f 55/76/112 46/65/112 47/64/112
f 71/101/113 55/94/113 63/84/113
f 63/84/114 54/74/114 56/73/114
f 71/101/115 63/84/115 62/83/115
f 71/101/116 62/83/116 70/89/116
f 72/95/117 59/80/117 58/79/117
f 72/95/118 58/79/118 53/78/118
f 59/98/119 67/97/119 66/99/119
f 72/96/120 44/62/120 67/97/120
f 71/93/121 69/91/121 46/65/121
f 74/102/122 75/103/122 107/104/122
f 73/105/123 77/106/123 106/107/123
f 76/108/124 78/109/124 73/105/124
f 73/105/125 78/109/125 77/106/125
f 73/105/126 79/110/126 74/102/126
f 74/102/127 79/110/127 80/111/127
f 73/105/128 106/107/128 79/110/128
f 81/112/129 82/113/129 83/114/129
f 81/112/130 75/103/130 82/113/130
f 81/115/131 83/116/131 84/117/131
f 84/117/132 88/118/132 86/119/132
f 81/112/133 78/109/133 76/108/133
f 86/120/134 87/121/134 89/122/134
f 90/123/135 85/124/135 91/125/135
f 90/123/136 92/126/136 93/127/136
f 94/128/137 95/129/137 96/130/137
f 90/123/138 97/131/138 94/128/138
f 94/128/139 97/131/139 95/129/139
f 90/123/140 88/118/140 98/132/140
f 98/132/141 88/118/141 84/117/141
f 94/128/142 96/130/142 88/118/142
f 101/133/143 102/134/143 103/135/143
f 80/111/144 79/110/144 101/136/144
f 101/136/145 79/110/145 102/137/145
f 99/138/146 97/131/146 92/126/146
f 92/126/147 97/131/147 93/127/147
f 101/133/148 103/135/148 97/131/148
f 104/139/149 77/106/149 87/121/149
f 87/140/150 86/119/150 96/130/150
f 95/129/151 97/131/151 103/135/151
f 105/141/152 85/124/152 83/116/152
f 83/114/153 82/113/153 105/142/153
f 105/142/154 100/143/154 92/144/154
f 75/103/155 74/102/155 100/143/155
f 74/102/156 80/111/156 100/143/156
f 107/104/157 75/103/157 76/108/157
f 81/112/158 76/108/158 75/103/158
f 84/117/159 83/116/159 85/124/159
f 81/115/160 84/117/160 86/119/160
f 81/112/161 86/120/161 89/122/161
f 81/112/162 89/122/162 78/109/162
f 89/122/163 87/121/163 78/109/163
f 90/123/164 98/132/164 85/124/164
f 98/132/165 84/117/165 85/124/165
f 90/123/166 91/125/166 92/126/166
f 90/123/167 93/127/167 97/131/167
f 90/123/168 94/128/168 88/118/168
f 80/111/169 99/145/169 100/143/169
f 99/138/170 80/146/170 101/133/170
f 99/138/171 101/133/171 97/131/171
f 104/147/172 103/135/172 102/134/172
f 102/137/173 79/110/173 106/107/173
f 104/139/174 106/107/174 77/106/174
f 87/121/175 77/106/175 78/109/175
f 104/147/176 87/140/176 96/130/176
f 96/130/177 86/119/177 88/118/177
f 104/147/178 96/130/178 95/129/178
f 104/147/179 95/129/179 103/135/179
f 105/141/180 92/126/180 91/125/180
f 105/141/181 91/125/181 85/124/181
f 105/142/182 82/113/182 75/103/182
f 92/144/183 100/143/183 99/145/183
f 105/142/184 75/103/184 100/143/184
f 104/139/185 102/137/185 106/107/185
f 73/105/186 107/104/186 76/108/186
f 73/105/187 74/102/187 107/104/187
f 118/148/188 119/149/188 116/150/188 117/151/188
f 116/150/189 115/152/189 110/153/189 109/154/189
f 121/155/190 122/156/190 113/157/190 114/158/190
f 115/159/191 114/158/191 111/160/191 110/161/191
f 113/157/192 117/151/192 108/162/192 112/163/192
f 114/158/193 113/157/193 112/163/193 111/160/193
f 120/164/194 121/155/194 114/158/194 115/159/194
f 119/149/195 118/148/195 123/165/195 124/166/195
f 122/156/196 118/148/196 117/151/196 113/157/196
f 119/149/197 120/167/197 115/152/197 116/150/197
f 121/155/198 120/164/198 125/168/198 126/169/198
f 122/156/199 121/155/199 126/169/199 127/170/199
f 124/166/200 123/165/200 128/171/200 129/172/200
f 120/167/201 119/149/201 124/166/201 125/173/201
f 127/170/202 123/165/202 118/148/202 122/156/202
f 129/174/203 143/175/203 133/176/203 134/177/203
f 123/165/204 127/170/204 132/178/204 128/171/204
f 142/179/205 126/180/205 163/181/205 164/182/205
f 126/169/206 142/183/206 130/184/206 131/185/206
f 127/170/207 126/169/207 131/185/207 132/178/207
f 130/186/208 129/174/208 134/177/208 135/187/208
f 129/188/209 128/189/209 144/190/209 145/191/209
f 131/192/210 130/193/210 135/194/210 136/195/210
f 132/196/211 131/192/211 136/195/211 137/197/211
f 117/151/212 116/150/212 109/154/212 108/162/212
f 136/195/213 135/194/213 153/198/213 154/199/213
f 135/187/214 134/177/214 138/200/214 139/201/214
f 134/177/215 133/176/215 138/200/215
f 135/194/216 152/202/216 156/203/216 153/198/216
f 133/176/217 137/197/217 141/204/217 138/200/217
f 126/180/218 125/205/218 162/206/218 163/181/218
f 142/207/219 124/166/219 129/172/219 130/208/219
f 124/209/220 142/179/220 164/182/220 161/210/220
f 125/211/221 124/209/221 161/210/221 162/212/221
f 128/213/222 132/214/222 146/215/222 144/216/222
f 143/175/223 132/196/223 137/197/223 133/176/223
f 132/214/224 143/217/224 147/218/224 146/215/224
f 143/217/225 129/188/225 145/191/225 147/218/225
f 145/191/226 144/190/226 148/219/226 149/220/226
f 147/218/227 145/191/227 149/220/227 151/221/227
f 144/216/228 146/215/228 150/222/228 148/223/228
f 146/215/229 147/218/229 151/221/229 150/222/229
f 141/204/230 137/197/230 152/202/230 140/224/230
f 152/202/231 135/194/231 139/225/231 140/224/231
f 152/202/232 137/197/232 155/226/232 156/203/232
f 137/197/233 136/195/233 154/199/233 155/226/233
f 153/198/234 156/203/234 160/227/234 157/228/234
f 155/226/235 154/199/235 158/229/235 159/230/235
f 156/203/236 155/226/236 159/230/236 160/227/236
f 154/199/237 153/198/237 157/228/237 158/229/237
f 161/231/238 164/232/238 163/233/238 162/234/238
