# Blender v2.78 (sub 0) OBJ File: 'Low_Poly_Trees_Pack.blend'
# www.blender.org
g Oak_Tree_NoLeaves_m_01
v 0.348878 0.000000 0.131865
v -0.044114 0.000000 0.323662
v -0.281939 0.000000 0.058390
v -0.284686 0.000000 -0.164742
v -0.049610 0.000000 -0.443415
v 0.344390 0.000000 -0.232610
v 0.282786 0.255924 -0.198536
v -0.033492 0.298864 -0.367757
v -0.222196 0.280914 -0.144055
v -0.219991 0.290303 0.035060
v -0.029080 0.317647 0.248004
v 0.286388 0.271260 0.094041
v 0.211725 1.109699 0.068887
v -0.052187 1.148505 0.146845
v -0.211898 1.125629 0.019545
v -0.213742 1.117775 -0.130298
v -0.055878 1.132791 -0.266598
v 0.208711 1.096869 -0.175875
v -0.236313 2.090954 -0.069787
v -0.356933 2.044638 0.001019
v -0.471353 1.991705 -0.075231
v -0.465153 1.985087 -0.222289
v -0.344532 2.031403 -0.293095
v -0.230112 2.084337 -0.216844
v -0.693883 2.743670 -0.037455
v -0.796880 2.727908 0.012538
v -0.896937 2.701981 -0.047201
v -0.894484 2.691642 -0.166111
v -0.801514 2.703676 -0.234458
v -0.651912 2.635709 -0.179765
v -0.936658 4.102955 -0.478699
v -1.001512 4.150434 -0.433459
v -1.085070 4.074276 -0.428905
v -1.103315 4.126433 -0.554210
v -1.038461 4.078953 -0.599450
v -0.955133 4.067215 -0.561694
v -0.712282 2.834902 -0.159742
v -0.190034 2.956309 0.056734
v -0.156444 3.071484 -0.092549
v -0.110843 2.951933 -0.082161
v -0.208805 3.076772 0.008771
v 0.424692 3.944829 0.572682
v 0.430789 4.058461 0.454672
v 0.509362 3.983704 0.472362
v 0.372221 4.033750 0.528904
v 0.414488 4.664946 1.375391
v 0.407975 4.724299 1.315934
v 0.454580 4.715025 1.346464
v 0.378532 4.690113 1.338021
v 0.638700 5.341750 1.726485
v 0.636463 5.369927 1.698234
v 0.658470 5.362949 1.710804
v 0.622116 5.355553 1.710116
v -0.650134 4.564128 -1.448716
v -0.678176 4.608950 -1.437363
v -0.726048 4.617601 -1.460976
v -0.731859 4.559019 -1.501617
v -0.669965 4.527957 -1.483681
v -1.035875 4.221652 -0.572526
v -1.342346 4.672972 -0.104982
v -1.412447 4.631613 -0.088869
v -1.421857 4.648407 -0.187431
v -1.361225 4.702808 -0.216854
v -1.301972 5.304319 -0.153699
v -1.352921 5.301966 -0.134857
v -1.361688 5.284590 -0.197722
v -1.314660 5.292274 -0.228556
v -1.488470 6.413997 0.129145
v -1.504936 6.400602 0.130870
v -1.508010 6.409263 0.106788
v -1.494398 6.426255 0.102289
v -0.437947 5.353207 -1.922847
v -0.451273 5.361187 -1.912827
v -0.460493 5.353662 -1.928623
v -0.447085 5.346600 -1.938404
v 0.502695 4.072715 0.578751
v 1.123365 3.943827 0.505312
v 1.075471 4.029071 0.416841
v 1.128643 3.989955 0.428870
v 1.094261 4.045712 0.519348
v 1.565999 4.450185 0.189678
v 1.551683 4.476040 0.181428
v 1.572441 4.457130 0.161826
v 1.548120 4.465230 0.210682
vt 0.9043 0.7770
vt 0.8971 0.7788
vt 0.8942 0.7718
vt 0.9024 0.7689
vt 0.8928 0.7804
vt 0.8892 0.7742
vt 0.9137 0.7745
vt 0.9132 0.7672
vt 0.9258 0.7982
vt 0.9199 0.7951
vt 0.9217 0.7745
vt 0.9310 0.7774
vt 0.9381 0.7799
vt 0.9336 0.7698
vt 0.9417 0.7738
vt 0.9224 0.7675
vt 0.9308 0.7997
vt 0.9085 0.7977
vt 0.9037 0.7990
vt 0.9142 0.7951
vt 0.9002 0.8000
vt 0.9257 0.8215
vt 0.9222 0.8208
vt 0.9188 0.8205
vt 0.9152 0.8206
vt 0.9116 0.8211
vt 0.9080 0.8217
vt 0.9043 0.8222
vt 0.9130 0.8414
vt 0.9103 0.8423
vt 0.9190 0.8372
vt 0.9155 0.8401
vt 0.9075 0.8423
vt 0.9241 0.8419
vt 0.9215 0.8406
vt 0.9644 0.7672
vt 0.9671 0.7676
vt 0.9658 0.8042
vt 0.9637 0.8043
vt 0.9614 0.7673
vt 0.9614 0.8028
vt 0.9585 0.7679
vt 0.9587 0.8049
vt 0.9691 0.7707
vt 0.9680 0.8050
vt 0.9725 0.7689
vt 0.9751 0.7687
vt 0.9726 0.8060
vt 0.9704 0.8059
vt 0.9509 0.7710
vt 0.9544 0.7714
vt 0.9533 0.7848
vt 0.9500 0.7858
vt 0.9494 0.7672
vt 0.9470 0.7854
vt 0.9585 0.7710
vt 0.9572 0.7856
vt 0.9459 0.7693
vt 0.9441 0.7840
vt 0.9467 0.8188
vt 0.9445 0.8186
vt 0.9417 0.8181
vt 0.9494 0.8180
vt 0.9527 0.8191
vt 0.9543 0.8427
vt 0.9530 0.8428
vt 0.9529 0.8197
vt 0.9559 0.8431
vt 0.9520 0.8434
vt 0.8913 0.8455
vt 0.8897 0.8423
vt 0.9062 0.8432
vt 0.9063 0.8457
vt 0.9570 0.8619
vt 0.9566 0.8622
vt 0.9509 0.8442
vt 0.9560 0.8625
vt 0.9577 0.8618
vt 0.9585 0.8620
vt 0.9259 0.8431
vt 0.9259 0.8425
vt 0.9266 0.8423
vt 0.9266 0.8432
vt 0.9690 0.8325
vt 0.9677 0.8326
vt 0.9706 0.8328
vt 0.9665 0.8330
vt 0.9806 0.7678
vt 0.9835 0.7672
vt 0.9824 0.7846
vt 0.9803 0.7854
vt 0.9598 0.8062
vt 0.9622 0.8077
vt 0.9651 0.8334
vt 0.9634 0.8333
vt 0.9751 0.7673
vt 0.9777 0.7678
vt 0.9770 0.7850
vt 0.9751 0.7843
vt 0.9868 0.7678
vt 0.9849 0.7851
vt 0.9796 0.8014
vt 0.9784 0.8013
vt 0.9767 0.8016
vt 0.9754 0.8016
vt 0.9811 0.8022
vt 0.9763 0.8302
vt 0.9756 0.8300
vt 0.9751 0.8298
vt 0.9769 0.8299
vt 0.9775 0.8299
vt 0.9266 0.8430
vt 0.9266 0.8423
vt 0.9271 0.8424
vt 0.9271 0.8432
vt 0.9685 0.8561
vt 0.9680 0.8561
vt 0.9689 0.8561
vt 0.9676 0.8561
vt 0.9671 0.8561
vt 0.9272 0.8428
vt 0.9273 0.8423
vt 0.9278 0.8423
vt 0.9276 0.8428
vt 0.8916 0.8495
vt 0.8900 0.8479
vt 0.9066 0.8487
vt 0.9078 0.8500
vt 0.8892 0.8520
vt 0.9069 0.8520
vt 0.9430 0.8215
vt 0.9241 0.8444
vt 0.9246 0.8451
vt 0.9236 0.8440
vt 0.9243 0.8458
vt 0.9238 0.8433
vt 0.9259 0.8429
vt 0.9250 0.8430
vt 0.9246 0.8423
vt 0.9254 0.8423
vn -0.7354 0.1986 0.6479
vn -0.9771 0.2129 0.0071
vn 0.4401 0.2040 0.8745
vn 0.4170 0.0909 -0.9043
vn -0.7516 0.2060 -0.6266
vn 0.9733 0.2290 -0.0173
vn 0.4712 0.2082 -0.8571
vn -0.7217 0.0415 -0.6910
vn -0.6990 0.0437 0.7138
vn 0.3817 0.0919 0.9197
vn 0.9960 0.0882 -0.0169
vn -0.9999 0.0099 0.0118
vn -0.5499 -0.2222 -0.8052
vn 0.3957 0.1201 -0.9105
vn 0.3424 0.2735 0.8989
vn -0.5809 -0.0753 0.8104
vn -0.9592 -0.2827 -0.0003
vn 0.9121 0.4097 -0.0129
vn -0.4328 -0.2930 0.8525
vn 0.8007 0.5906 -0.1005
vn -0.8561 -0.5169 0.0051
vn -0.4829 -0.2403 -0.8420
vn 0.4293 0.3726 -0.8227
vn 0.4074 0.2448 0.8799
vn 0.5121 0.3347 0.7911
vn -0.3872 0.2114 0.8974
vn -0.9908 -0.1286 0.0421
vn 0.9806 0.1386 -0.1387
vn -0.6009 -0.2945 -0.7431
vn -0.4274 0.5198 0.7397
vn -0.2682 0.7877 -0.5547
vn 0.5999 -0.1222 -0.7907
vn 0.3288 -0.8197 0.4691
vn 0.2428 -0.0827 -0.9665
vn -0.6929 0.6192 -0.3693
vn 0.4791 0.1821 -0.8587
vn -0.7114 0.0646 0.6998
vn 0.6857 -0.6206 0.3802
vn -0.8446 -0.4082 0.3465
vn 0.7772 -0.4607 0.4286
vn -0.7703 0.4963 -0.4004
vn 0.0949 -0.1068 0.9897
vn -0.8043 0.4862 -0.3417
vn 0.5572 0.2675 -0.7861
vn -0.7455 -0.0955 0.6596
vn 0.8130 -0.4573 0.3603
vn -0.1544 0.6934 0.7038
vn 0.8680 -0.4961 0.0206
vn -0.7108 -0.4915 -0.5031
vn -0.0755 -0.8760 -0.4763
vn 0.7517 0.4777 0.4548
vn -0.5561 0.2203 -0.8014
vn -0.8877 0.4417 -0.1301
vn 0.3616 -0.3187 0.8762
vn 0.8439 0.5353 0.0365
vn 0.0425 0.9052 0.4229
vn -0.8697 -0.4917 -0.0440
vn -0.5005 0.0281 -0.8653
vn 0.9817 -0.0785 -0.1734
vn 0.2603 0.0502 0.9642
vn -0.9892 0.0954 0.1110
vn 0.9628 0.2052 -0.1758
vn 0.3254 -0.1807 0.9282
vn -0.5434 0.1537 -0.8253
vn -0.9742 -0.1691 0.1496
vn -0.6131 0.6868 0.3904
vn 0.9066 -0.3664 -0.2096
vn -0.1292 -0.4448 -0.8863
vn 0.6705 0.2413 0.7016
vn -0.4553 0.5792 0.6762
vn -0.9559 0.2253 -0.1881
vn 0.1388 0.8698 -0.4734
vn -0.0667 -0.3235 -0.9439
vn -0.0341 -0.8938 -0.4472
vn 0.6036 0.6343 -0.4831
vn 0.0334 0.9884 -0.1482
vn -0.2780 -0.2325 -0.9320
vn -0.6670 0.7437 0.0442
vn 0.6058 -0.7346 -0.3057
vn 0.5794 -0.0114 0.8150
vn 0.7889 0.5339 0.3042
s off
f 11/1/1 10/2/1 3/3/1 2/4/1
f 10/2/2 9/5/2 4/6/2 3/3/2
f 12/7/3 11/1/3 2/4/3 1/8/3
f 17/9/4 18/10/4 7/11/4 8/12/4
f 9/13/5 8/12/5 5/14/5 4/15/5
f 7/11/6 12/7/6 1/8/6 6/16/6
f 8/12/7 7/11/7 6/16/7 5/14/7
f 16/17/8 17/9/8 8/12/8 9/13/8
f 14/18/9 15/19/9 10/2/9 11/1/9
f 13/20/10 14/18/10 11/1/10 12/7/10
f 18/10/11 13/20/11 12/7/11 7/11/11
f 15/19/12 16/21/12 9/5/12 10/2/12
f 17/9/13 16/17/13 22/22/13 23/23/13
f 18/10/14 17/9/14 23/23/14 24/24/14
f 14/18/15 13/20/15 19/25/15 20/26/15
f 15/19/16 14/18/16 20/26/16 21/27/16
f 16/21/17 15/19/17 21/27/17 22/28/17
f 24/24/18 19/25/18 13/20/18 18/10/18
f 21/27/19 20/26/19 26/29/19 27/30/19
f 19/25/20 24/24/20 30/31/20 25/32/20
f 22/28/21 21/27/21 27/30/21 28/33/21
f 23/23/22 22/22/22 28/34/22 29/35/22
f 24/24/23 23/23/23 29/35/23 30/31/23
f 20/26/24 19/25/24 25/32/24 26/29/24
f 26/36/25 25/37/25 31/38/25 32/39/25
f 27/40/26 26/36/26 32/39/26 33/41/26
f 28/42/27 27/40/27 33/41/27 34/43/27
f 25/37/28 37/44/28 36/45/28 31/38/28
f 29/46/29 28/47/29 34/48/29 35/49/29
f 37/50/30 25/51/30 38/52/30 41/53/30
f 29/54/31 37/50/31 41/53/31 39/55/31
f 37/44/32 29/46/32 35/49/32 36/45/32
f 25/51/33 30/56/33 40/57/33 38/52/33
f 30/58/34 29/54/34 39/55/34 40/59/34
f 39/55/35 41/53/35 45/60/35 43/61/35
f 40/59/36 39/55/36 43/61/36 44/62/36
f 41/53/37 38/52/37 42/63/37 45/60/37
f 38/52/38 40/57/38 44/64/38 42/63/38
f 45/60/39 42/63/39 46/65/39 49/66/39
f 42/63/40 76/67/40 48/68/40 46/65/40
f 43/61/41 45/60/41 49/66/41 47/69/41
f 76/70/42 42/71/42 77/72/42 80/73/42
f 47/69/43 49/66/43 53/74/43 51/75/43
f 48/76/44 47/69/44 51/75/44 52/77/44
f 49/66/45 46/65/45 50/78/45 53/74/45
f 46/65/46 48/68/46 52/79/46 50/78/46
f 51/80/47 53/81/47 50/82/47 52/83/47
f 31/38/48 36/45/48 58/84/48 54/85/48
f 35/49/49 34/48/49 57/86/49
f 36/45/50 35/49/50 57/86/50 58/84/50
f 32/39/51 31/38/51 54/85/51 55/87/51
f 59/88/52 34/89/52 62/90/52 63/91/52
f 34/92/53 59/93/53 56/94/53 57/95/53
f 33/96/54 32/97/54 60/98/54 61/99/54
f 32/97/55 59/88/55 63/91/55 60/98/55
f 59/93/56 32/39/56 55/87/56 56/94/56
f 34/89/57 33/100/57 61/101/57 62/90/57
f 63/91/58 62/90/58 66/102/58 67/103/58
f 60/98/59 63/91/59 67/103/59 64/104/59
f 61/99/60 60/98/60 64/104/60 65/105/60
f 62/90/61 61/101/61 65/106/61 66/102/61
f 64/104/62 67/103/62 71/107/62 68/108/62
f 65/105/63 64/104/63 68/108/63 69/109/63
f 67/103/64 66/102/64 70/110/64 71/107/64
f 66/102/65 65/106/65 69/111/65 70/110/65
f 70/112/66 69/113/66 68/114/66 71/115/66
f 54/85/67 58/84/67 75/116/67 72/117/67
f 58/84/68 57/86/68 74/118/68 75/116/68
f 55/87/69 54/85/69 72/117/69 73/119/69
f 56/94/70 55/87/70 73/119/70 74/120/70
f 57/95/71 56/94/71 74/120/71
f 73/121/72 72/122/72 75/123/72 74/124/72
f 44/125/73 43/126/73 78/127/73 79/128/73
f 42/129/74 44/125/74 79/128/74 77/130/74
f 76/131/75 43/61/75 47/69/75 48/76/75
f 43/126/76 76/70/76 80/73/76 78/127/76
f 79/128/77 78/127/77 82/132/77 83/133/77
f 78/127/78 80/73/78 84/134/78 82/132/78
f 77/130/79 79/128/79 83/133/79 81/135/79
f 80/73/80 77/72/80 81/136/80 84/134/80
f 83/137/81 82/138/81 84/139/81 81/140/81
