# Blender v2.78 (sub 0) OBJ File: 'Low_Poly_Trees_Pack.blend'
# www.blender.org
g Oak_Tree_NoLeaves_crk_l_02
v -0.001819 -0.011671 -0.620516
v -0.337994 -0.011671 -0.527959
v -0.587276 -0.011671 -0.184852
v -0.571419 -0.011671 0.163471
v -0.385123 -0.011671 0.452767
v 0.029453 -0.011671 0.587471
v 0.350213 -0.011671 0.462928
v 0.589321 -0.011671 0.163471
v 0.589321 -0.011671 -0.206677
v 0.350213 -0.011671 -0.506134
v -0.000000 0.531441 -0.413803
v -0.243228 0.531441 -0.334774
v -0.393550 0.531441 -0.127872
v -0.393550 0.531441 0.127872
v -0.243228 0.531441 0.334774
v 0.000000 0.531441 0.413803
v 0.243228 0.531441 0.334774
v 0.393550 0.531441 0.127872
v 0.393550 0.531441 -0.127872
v 0.243227 0.531441 -0.334774
v -0.000594 0.278899 -0.461734
v -0.257471 0.278899 -0.389180
v 0.431831 0.278899 0.138463
v 0.431831 0.278899 -0.152573
v -0.291110 0.278899 0.353229
v 0.022669 0.278899 0.455182
v -0.443396 0.278899 -0.133277
v 0.266659 0.278899 -0.374899
v 0.266660 0.278899 0.360787
v -0.433019 0.278899 0.133448
v -0.309656 -0.021646 0.725537
v -0.182372 -0.021646 0.766894
v -0.065179 0.274678 0.484475
v -0.239986 0.274678 0.427677
v -0.611946 -0.012259 -0.520195
v -0.704553 -0.012259 -0.392731
v -0.357369 0.278650 -0.369901
v -0.469589 0.278650 -0.215445
v 0.716877 -0.011671 0.062451
v 0.716877 -0.011671 -0.105657
v 0.479486 0.278899 0.091742
v 0.479486 0.278899 -0.105853
v 0.169203 -0.017456 0.655508
v 0.304545 -0.017456 0.606891
v 0.053136 0.276451 0.470206
v 0.256540 0.276451 0.404116
v 0.281288 0.867198 -0.318975
v 0.455134 0.867198 -0.121838
v 0.455134 0.867198 0.121838
v 0.281288 0.867198 0.318975
v 0.000000 0.867198 0.394275
v -0.281288 0.867198 0.318975
v -0.455134 0.867198 0.121838
v -0.455134 0.867198 -0.121838
v -0.281288 0.867198 -0.318975
v -0.000000 0.867198 -0.394275
v -0.970281 1.535597 0.126264
v -1.121817 1.141917 0.103406
v -1.082934 0.931652 -0.008855
v -1.049796 0.947187 -0.211420
v -1.055520 1.172997 -0.301854
v -0.916152 1.560973 -0.204615
v -2.169971 0.424304 -0.343360
v -2.152360 0.241131 -0.259782
v -2.102145 0.082263 -0.374178
v -2.069541 0.106566 -0.572153
v -2.087152 0.289738 -0.655730
v -2.137367 0.448607 -0.541334
v -3.067284 0.250999 -0.380803
v -3.083899 0.102399 -0.314016
v -3.068205 -0.031425 -0.407093
v -3.035896 -0.016649 -0.566957
v -3.019280 0.131951 -0.633743
v -2.906659 0.288950 -0.538471
v -5.026980 0.356855 -0.921875
v -5.080568 0.254796 -0.869726
v -4.978186 0.144534 -0.907813
v -5.080679 0.155131 -1.064889
v -5.027092 0.257190 -1.117039
v -5.000243 0.358052 -1.045532
v -3.165737 0.266452 -0.543932
v -3.397502 1.180721 -0.552559
v -3.384981 1.192589 -0.814705
v -3.249179 1.226108 -0.707727
v -3.492965 1.166965 -0.704201
v -4.554590 2.422656 -0.964183
v -4.577107 2.411232 -1.187641
v -4.478882 2.501187 -1.117063
v -4.635528 2.359385 -1.078686
v -5.934089 2.914339 -1.090551
v -5.951839 2.896746 -1.203405
v -5.945603 2.966751 -1.170793
v -5.946729 2.859233 -1.145830
v -6.637585 3.528089 -1.206503
v -6.649021 3.517749 -1.283042
v -6.638931 3.562864 -1.260674
v -6.650093 3.493151 -1.244223
v -5.890503 1.009396 -1.995992
v -5.948504 0.966750 -1.978115
v -5.966988 0.909299 -2.021242
v -5.898470 0.915815 -2.091186
v -5.850986 0.994591 -2.056997
v -5.212530 0.247141 -1.044895
v -5.945375 0.085619 0.007535
v -5.932286 -0.011398 -0.050523
v -6.069038 0.004495 -0.055308
v -6.105948 0.092262 0.015754
v -6.176336 0.129526 0.845566
v -6.165292 0.055828 0.842455
v -6.245358 0.063357 0.801445
v -6.274752 0.135142 0.808111
v -6.171199 0.030816 2.391938
v -6.169789 0.008779 2.372812
v -6.204708 0.011447 2.377683
v -6.211580 0.030341 2.400612
v -7.071074 1.403014 -2.357459
v -7.079506 1.381899 -2.346238
v -7.073538 1.374517 -2.371653
v -7.066281 1.395636 -2.382304
v 0.637284 1.918675 -0.125270
v 0.865030 1.859288 0.032634
v 0.889729 1.869266 0.274849
v 0.697988 1.943197 0.470037
v 0.506563 1.994206 0.352306
v 0.473092 1.980685 0.024068
v 1.811446 3.095556 0.108208
v 1.859098 3.055859 0.242718
v 1.754544 3.088558 0.372720
v 1.736452 3.266692 0.296698
v 1.733810 3.221487 0.114657
v 2.982144 4.341559 -0.863251
v 3.050146 4.338370 -0.783511
v 3.027391 4.410046 -0.693885
v 2.936165 4.460302 -0.725120
v 2.867444 4.371974 -0.813186
v 1.918173 3.261074 0.278472
v 2.144279 3.159622 1.316732
v 2.071939 3.176161 1.348812
v 2.073662 3.281014 1.347813
v 2.166153 3.275492 1.294547
v 2.731045 2.986938 2.452446
v 2.700195 2.994237 2.468624
v 2.704128 3.039871 2.474434
v 2.743892 3.038083 2.449344
v 3.339746 3.184964 2.809829
v 3.311413 3.181487 2.824317
v 3.297579 3.220638 2.823735
v 3.331368 3.230761 2.800350
v 3.285907 5.579351 -0.574764
v 3.332925 5.565092 -0.529418
v 3.316353 5.582160 -0.458704
v 3.252731 5.609296 -0.463609
v 3.232316 5.606812 -0.545750
v 4.210018 6.509207 -0.688385
v 4.211362 6.511467 -0.662285
v 4.195703 6.522589 -0.664314
v 4.190993 6.523146 -0.687418
v 2.922571 4.472416 -0.829171
v 1.761546 4.600354 -1.535696
v 1.734727 4.669618 -1.455124
v 1.737068 4.610710 -1.481940
v 1.769224 4.669298 -1.491265
v 1.571737 5.448437 -2.115002
v 1.561780 5.469277 -2.070415
v 1.559065 5.453336 -2.094588
v 1.576500 5.478284 -2.090858
v -0.869218 1.193543 0.026811
v -0.867730 1.182576 -0.178735
v -0.672851 1.279219 -0.287748
v -0.251995 1.290286 -0.241255
v -0.675828 1.301160 0.123478
v -0.254425 1.308200 0.094495
v -5.782149 0.003088 -0.308460
v -5.830025 0.018980 -0.436647
v -5.840799 0.100104 -0.298352
v -5.909801 0.106748 -0.443576
vt 0.9111 0.8018
vt 0.9112 0.8057
vt 0.9074 0.8056
vt 0.9073 0.8019
vt 0.8983 0.8033
vt 0.8956 0.8043
vt 0.8942 0.7995
vt 0.8961 0.7987
vt 0.9126 0.8017
vt 0.9143 0.7964
vt 0.9162 0.7967
vt 0.9154 0.8023
vt 0.9032 0.8022
vt 0.9038 0.8060
vt 0.9001 0.8068
vt 0.8993 0.8032
vt 0.8910 0.8071
vt 0.8889 0.8090
vt 0.8863 0.8053
vt 0.8875 0.8041
vt 0.9201 0.8046
vt 0.9186 0.8080
vt 0.9150 0.8066
vt 0.9165 0.8030
vt 0.8948 0.8049
vt 0.8966 0.8082
vt 0.8934 0.8098
vt 0.8916 0.8069
vt 0.9235 0.8063
vt 0.9219 0.8096
vt 0.9256 0.8026
vt 0.9220 0.8006
vt 0.8929 0.8009
vt 0.8892 0.8036
vt 0.9071 0.7974
vt 0.9026 0.7979
vt 0.9181 0.7987
vt 0.8908 0.8117
vt 0.8980 0.7988
vt 0.9113 0.7973
vt 0.9246 0.8069
vt 0.9289 0.8031
vt 0.9300 0.8042
vt 0.9266 0.8085
vt 0.9246 0.8115
vt 0.9272 0.8096
vt 0.9306 0.8075
vt 0.9042 0.8104
vt 0.9012 0.8113
vt 0.8887 0.8094
vt 0.8856 0.8070
vt 0.9226 0.8149
vt 0.9196 0.8133
vt 0.8985 0.8123
vt 0.8957 0.8133
vt 0.9109 0.8102
vt 0.9075 0.8099
vt 0.9166 0.8122
vt 0.8928 0.8149
vt 0.9138 0.8112
vt 0.9518 0.8038
vt 0.9554 0.8036
vt 0.9504 0.8102
vt 0.9472 0.8093
vt 0.9603 0.8210
vt 0.9568 0.8215
vt 0.9524 0.8160
vt 0.9555 0.8150
vt 0.9641 0.8215
vt 0.9612 0.8152
vt 0.9592 0.8029
vt 0.9560 0.8102
vt 0.9490 0.8022
vt 0.9449 0.8079
vt 0.9170 0.8448
vt 0.9149 0.8474
vt 0.8970 0.8432
vt 0.8983 0.8409
vt 0.9222 0.8434
vt 0.8995 0.8384
vt 0.9191 0.8363
vt 0.9232 0.8396
vt 0.8999 0.8354
vt 0.8997 0.8325
vt 0.9177 0.8333
vt 0.8996 0.8298
vt 0.9181 0.8305
vt 0.9000 0.8272
vt 0.8874 0.8313
vt 0.8874 0.8293
vt 0.8891 0.8356
vt 0.8876 0.8333
vt 0.8879 0.8272
vt 0.8856 0.8388
vt 0.8867 0.8371
vt 0.9523 0.8193
vt 0.9522 0.8214
vt 0.9250 0.8209
vt 0.9251 0.8193
vt 0.9523 0.8171
vt 0.9264 0.8177
vt 0.9522 0.8150
vt 0.9245 0.8161
vt 0.9504 0.8230
vt 0.9244 0.8225
vt 0.9519 0.8252
vt 0.9519 0.8272
vt 0.9242 0.8260
vt 0.9240 0.8243
vt 0.9554 0.8522
vt 0.9562 0.8544
vt 0.9436 0.8540
vt 0.9427 0.8517
vt 0.9574 0.8504
vt 0.9429 0.8496
vt 0.9560 0.8572
vt 0.9436 0.8568
vt 0.9564 0.8480
vt 0.9438 0.8474
vt 0.9184 0.8515
vt 0.9185 0.8497
vt 0.9190 0.8477
vt 0.9191 0.8534
vt 0.9190 0.8560
vt 0.8992 0.8531
vt 0.8993 0.8521
vt 0.8986 0.8543
vt 0.8990 0.8513
vt 0.8985 0.8503
vt 0.8862 0.8521
vt 0.8859 0.8515
vt 0.8856 0.8509
vt 0.8860 0.8529
vt 0.8856 0.8537
vt 0.9314 0.8128
vt 0.9314 0.8135
vt 0.9307 0.8136
vt 0.9307 0.8128
vt 0.9039 0.8239
vt 0.9037 0.8230
vt 0.9036 0.8252
vt 0.9034 0.8220
vt 0.9435 0.8069
vt 0.9447 0.8087
vt 0.9315 0.8073
vt 0.9311 0.8058
vt 0.9237 0.8163
vt 0.9225 0.8182
vt 0.9031 0.8210
vt 0.9031 0.8197
vt 0.9448 0.8022
vt 0.9436 0.8039
vt 0.9307 0.8036
vt 0.9312 0.8022
vt 0.9441 0.8112
vt 0.9307 0.8090
vt 0.9554 0.8404
vt 0.9565 0.8416
vt 0.9450 0.8414
vt 0.9448 0.8404
vt 0.9559 0.8384
vt 0.9445 0.8390
vt 0.9567 0.8371
vt 0.9445 0.8380
vt 0.9567 0.8434
vt 0.9445 0.8425
vt 0.9232 0.8408
vt 0.9233 0.8402
vt 0.9236 0.8399
vt 0.9236 0.8412
vt 0.9237 0.8417
vt 0.9318 0.8136
vt 0.9318 0.8141
vt 0.9314 0.8140
vt 0.9314 0.8134
vt 0.8856 0.8241
vt 0.8856 0.8237
vt 0.8857 0.8244
vt 0.8856 0.8234
vt 0.8856 0.8231
vt 0.8903 0.7701
vt 0.8910 0.7671
vt 0.9038 0.7720
vt 0.9034 0.7751
vt 0.8907 0.7963
vt 0.8884 0.7941
vt 0.9007 0.7878
vt 0.9026 0.7907
vt 0.8856 0.7750
vt 0.8887 0.7730
vt 0.9022 0.7785
vt 0.9007 0.7811
vt 0.8856 0.7920
vt 0.8998 0.7850
vt 0.9236 0.7826
vt 0.9238 0.7850
vt 0.9233 0.7871
vt 0.9231 0.7892
vt 0.9222 0.7805
vt 0.9231 0.7785
vt 0.8869 0.7861
vt 0.8877 0.7821
vt 0.9320 0.8135
vt 0.9324 0.8135
vt 0.9324 0.8139
vt 0.9320 0.8138
vt 0.9534 0.7829
vt 0.9518 0.7848
vt 0.9251 0.7808
vt 0.9534 0.7811
vt 0.9658 0.8300
vt 0.9663 0.8326
vt 0.9519 0.8320
vt 0.9521 0.8307
vt 0.9523 0.7862
vt 0.9524 0.7876
vt 0.9652 0.8350
vt 0.9662 0.8370
vt 0.9516 0.8345
vt 0.9517 0.8334
vt 0.9230 0.7784
vt 0.9528 0.7795
vt 0.9663 0.8272
vt 0.9518 0.8293
vt 0.9342 0.8310
vt 0.9343 0.8303
vt 0.9343 0.8328
vt 0.9344 0.8323
vt 0.9343 0.8317
vt 0.9236 0.8315
vt 0.9233 0.8310
vt 0.9235 0.8322
vt 0.9233 0.8304
vt 0.9232 0.8326
vt 0.9314 0.8128
vt 0.9319 0.8128
vt 0.9320 0.8134
vt 0.9314 0.8134
vt 0.9731 0.7830
vt 0.9731 0.7841
vt 0.9724 0.7870
vt 0.9726 0.7880
vt 0.9535 0.7849
vt 0.9725 0.7861
vt 0.9633 0.8003
vt 0.9639 0.8021
vt 0.9453 0.8011
vt 0.9452 0.8000
vt 0.9728 0.7850
vt 0.9918 0.7875
vt 0.9918 0.7879
vt 0.9919 0.7872
vt 0.9920 0.7868
vt 0.9918 0.7882
vt 0.9310 0.8140
vt 0.9307 0.8140
vt 0.9307 0.8137
vt 0.9310 0.8137
vt 0.9629 0.7978
vt 0.9641 0.7992
vt 0.9452 0.7993
vt 0.9453 0.7985
vt 0.9639 0.7964
vt 0.9451 0.7977
vt 0.9307 0.8007
vt 0.9309 0.8004
vt 0.9308 0.8000
vt 0.9307 0.7997
vt 0.9308 0.8011
vt 0.9325 0.8131
vt 0.9322 0.8134
vt 0.9320 0.8131
vt 0.9325 0.8128
vt 0.9224 0.8311
vt 0.9223 0.8341
vt 0.9190 0.8472
vt 0.8277 0.7094
vt 0.8257 0.6825
vt 0.8520 0.6825
vt 0.8492 0.7094
vt 0.8333 0.6671
vt 0.8463 0.6693
vt 0.7735 0.6924
vt 0.7875 0.6860
vt 0.7875 0.7123
vt 0.7735 0.7056
vt 0.8145 0.7095
vt 0.8145 0.6880
vt 0.8008 0.6727
vt 0.7920 0.6727
vt 0.7934 0.6656
vt 0.8037 0.6657
vt 0.8110 0.6744
vt 0.8039 0.6772
vt 0.8039 0.6669
vt 0.8111 0.6656
vn -0.2843 0.1984 -0.9380
vn 0.7744 0.6327 0.0000
vn -0.5687 0.7112 -0.4132
vn 0.7938 0.1719 -0.5834
vn 0.2609 0.5815 0.7705
vn -0.9845 0.1741 0.0196
vn 0.3041 0.1769 -0.9361
vn 0.7978 0.1400 0.5864
vn -0.8134 0.1672 0.5571
vn -0.7644 0.4156 0.4928
vn 0.7176 0.4193 0.5560
vn 0.2743 0.4602 -0.8443
vn -0.8994 0.4354 0.0384
vn 0.2980 0.2649 0.9171
vn 0.7004 0.4636 -0.5427
vn -0.7386 0.4081 -0.5366
vn 0.9467 0.3221 0.0000
vn -0.2369 0.4690 -0.8508
vn -0.2154 0.7170 0.6629
vn -0.2925 0.3221 0.9004
vn 0.3033 0.1805 0.9356
vn -0.8036 0.1935 0.5628
vn -0.8328 0.4503 0.3220
vn 0.5007 0.4347 0.7485
vn -0.9376 0.1787 0.2983
vn -0.8297 0.3795 0.4093
vn -0.1855 0.2169 -0.9584
vn -0.0646 0.4738 -0.8782
vn 0.7765 -0.0950 -0.6230
vn 0.5745 0.4536 -0.6813
vn 0.6895 0.1733 -0.7033
vn 0.5917 0.3969 0.7017
vn 0.6937 0.1348 0.7075
vn -0.4327 0.1078 0.8951
vn 0.9661 0.1135 0.2321
vn 0.8941 0.3482 0.2816
vn -0.3920 0.3743 0.8404
vn -0.2821 0.0345 0.9588
vn 0.7765 -0.0950 0.6230
vn -0.2821 0.0345 -0.9588
vn 0.2821 0.0345 -0.9588
vn -0.7765 -0.0950 0.6230
vn 0.2821 0.0345 0.9588
vn -0.7765 -0.0950 -0.6230
vn 0.9836 -0.1804 0.0000
vn -0.9836 -0.1804 0.0000
vn -0.5478 -0.2816 0.7878
vn -0.4557 -0.5291 -0.7158
vn -0.0432 0.1834 -0.9821
vn -0.0631 0.4558 0.8879
vn -0.6151 -0.7883 0.0172
vn 0.5319 -0.3056 -0.7897
vn -0.0394 0.3662 -0.9297
vn -0.4990 0.2045 0.8422
vn 0.1202 -0.4982 0.8587
vn 0.6323 -0.7743 0.0268
vn -0.6687 0.7425 -0.0399
vn 0.0385 -0.5721 0.8193
vn -0.1968 0.9783 0.0643
vn 0.1224 -0.9888 -0.0858
vn 0.0480 -0.4122 -0.9098
vn -0.1174 0.5652 -0.8166
vn -0.1153 0.4098 0.9049
vn -0.2079 0.4662 0.8599
vn -0.2606 -0.5518 0.7922
vn -0.0714 -0.9954 -0.0639
vn 0.0387 0.9981 0.0483
vn 0.1766 -0.4619 -0.8692
vn -0.8336 -0.2065 0.5124
vn -0.6673 -0.3502 -0.6573
vn 0.2265 0.6264 -0.7459
vn 0.6178 0.3511 0.7036
vn 0.5963 0.0712 -0.7996
vn -0.4794 -0.6477 -0.5921
vn 0.5072 0.2322 -0.8300
vn -0.6774 -0.4526 0.5799
vn 0.4719 0.6439 0.6022
vn -0.3031 -0.6952 0.6518
vn 0.2413 0.8162 0.5249
vn -0.2795 -0.8059 -0.5219
vn 0.1726 0.4519 -0.8752
vn -0.5728 -0.6998 -0.4269
vn 0.4062 0.3463 -0.8456
vn -0.5570 -0.5163 0.6505
vn 0.5611 0.7179 0.4120
vn -0.9754 0.1847 0.1208
vn 0.5020 0.8569 0.1170
vn 0.3808 -0.5714 -0.7270
vn 0.7715 0.0538 -0.6340
vn -0.3756 0.6221 0.6869
vn -0.4900 -0.5263 -0.6949
vn -0.4691 -0.8509 -0.2363
vn 0.5514 0.2428 0.7981
vn -0.1345 0.9876 0.0813
vn -0.8104 -0.0754 0.5810
vn 0.0735 -0.9887 -0.1306
vn -0.9364 -0.3028 -0.1773
vn 0.0518 0.9978 -0.0404
vn 0.9657 0.0448 0.2559
vn -0.1165 -0.9922 0.0442
vn 0.0237 0.9977 0.0642
vn 0.9918 0.1277 0.0058
vn -0.9271 -0.3746 0.0118
vn -0.0787 -0.9964 -0.0308
vn 0.1062 -0.7020 0.7042
vn 0.3324 0.9404 -0.0714
vn 0.2710 0.0775 -0.9594
vn -0.0986 0.4963 0.8625
vn -0.4493 -0.6066 0.6558
vn -0.2682 -0.8989 -0.3465
vn 0.9223 -0.3846 -0.0390
vn 0.6484 -0.1148 -0.7526
vn -0.0906 -0.0113 0.9958
vn -0.1137 0.3103 -0.9438
vn 0.6466 -0.3630 0.6709
vn -0.7098 0.7038 -0.0308
vn 0.5907 -0.4097 -0.6951
vn -0.3568 0.3911 0.8484
vn -0.2673 0.3874 -0.8823
vn 0.5749 -0.4620 0.6753
vn 0.7727 -0.6326 -0.0527
vn -0.6789 0.7342 -0.0030
vn -0.9408 0.2128 -0.2639
vn -0.7522 0.6477 -0.1215
vn 0.0841 0.5966 0.7981
vn 0.0344 0.9991 -0.0236
vn 0.4791 -0.7742 -0.4136
vn -0.4516 -0.2455 -0.8578
vn -0.1488 -0.9796 0.1352
vn -0.9517 0.0282 0.3059
vn 0.7942 -0.3340 0.5077
vn 0.9463 -0.2289 -0.2284
vn 0.8451 -0.2474 -0.4739
vn -0.2363 -0.9714 -0.0254
vn 0.1342 0.9817 0.1349
vn -0.8709 0.0170 0.4912
vn -0.2123 0.9646 -0.1563
vn -0.4769 -0.1095 0.8721
vn 0.5368 -0.1329 -0.8332
vn 0.1073 -0.9399 0.3242
vn 0.4710 0.2242 0.8531
vn 0.8817 -0.2866 0.3749
vn 0.7341 -0.0253 -0.6786
vn -0.1538 0.2690 -0.9508
vn 0.5041 0.4261 -0.7512
vn -0.2859 -0.1286 0.9496
vn -0.6719 0.7259 0.1471
vn 0.0122 0.2027 0.9792
vn 0.7278 -0.6415 0.2425
vn 0.4807 -0.5602 -0.6746
vn -0.2927 0.1683 -0.9413
vn 0.5847 0.8051 -0.0998
vn -0.5298 -0.3602 0.7678
vn -0.9579 0.2183 0.1863
vn -0.2392 -0.9691 0.0599
vn 0.1115 0.9887 0.0998
vn 0.5728 0.5729 0.5862
vn -0.8430 -0.4202 -0.3358
vn 0.9681 0.0487 -0.2457
vn -0.9838 -0.0977 0.1506
vn -0.7620 0.5766 -0.2947
vn -0.6533 0.5364 -0.5343
vn 0.0129 0.3469 -0.9378
vn 0.7771 -0.6266 0.0589
vn 0.3395 -0.3934 0.8544
vn 0.5333 -0.3028 -0.7899
vn 0.9237 -0.3627 0.1233
vn -0.1394 0.9901 0.0171
vn -0.4662 0.8832 -0.0505
vn -0.0204 0.9984 -0.0534
vn -0.7661 -0.5787 0.2798
vn 0.0345 0.5787 -0.8148
vn -0.5123 0.2607 0.8183
s off
f 22/1/1 12/2/1 11/3/1 21/4/1
f 42/5/2 41/6/2 39/7/2 40/8/2
f 37/9/3 35/10/3 36/11/3 38/12/3
f 28/13/4 20/14/4 19/15/4 24/16/4
f 46/17/5 45/18/5 43/19/5 44/20/5
f 30/21/6 14/22/6 13/23/6 27/24/6
f 21/4/7 11/3/7 20/14/7 28/13/7
f 23/25/8 18/26/8 17/27/8 29/28/8
f 25/29/9 15/30/9 14/22/9 30/21/9
f 5/31/10 25/29/10 30/21/10 4/32/10
f 8/33/11 23/25/11 29/28/11 7/34/11
f 1/35/12 21/4/12 28/13/12 10/36/12
f 4/32/13 30/21/13 27/24/13 3/37/13
f 17/27/14 16/38/14 45/18/14 46/17/14
f 10/36/15 28/13/15 24/16/15 9/39/15
f 12/2/16 37/9/16 38/12/16 13/23/16
f 19/15/17 18/26/17 41/6/17 42/5/17
f 2/40/18 22/1/18 21/4/18 1/35/18
f 34/41/19 31/42/19 32/43/19 33/44/19
f 15/30/20 34/41/20 33/44/20 16/45/20
f 26/46/21 16/45/21 33/44/21
f 15/30/22 25/29/22 34/41/22
f 25/29/23 5/31/23 31/42/23 34/41/23
f 6/47/24 26/46/24 33/44/24 32/43/24
f 27/24/25 13/23/25 38/12/25
f 3/37/26 27/24/26 38/12/26 36/11/26
f 12/2/27 22/1/27 37/9/27
f 22/1/28 2/40/28 35/10/28 37/9/28
f 19/15/29 20/14/29 47/48/29 48/49/29
f 24/16/30 42/5/30 40/8/30 9/39/30
f 19/15/31 42/5/31 24/16/31
f 41/6/32 23/25/32 8/33/32 39/7/32
f 23/25/33 41/6/33 18/26/33
f 26/50/34 45/18/34 16/38/34
f 17/27/35 46/17/35 29/28/35
f 29/28/36 46/17/36 44/20/36 7/34/36
f 43/19/37 45/18/37 26/50/37 6/51/37
f 15/30/38 16/45/38 51/52/38 52/53/38
f 17/27/39 18/26/39 49/54/39 50/55/39
f 11/3/40 12/2/40 55/56/40 56/57/40
f 20/14/41 11/3/41 56/57/41 47/48/41
f 14/22/42 15/30/42 52/53/42 53/58/42
f 16/38/43 17/27/43 50/55/43 51/59/43
f 12/2/44 13/23/44 54/60/44 55/56/44
f 18/26/45 19/15/45 48/49/45 49/54/45
f 13/23/46 14/22/46 53/58/46 54/60/46
f 53/61/47 52/62/47 171/63/47 167/64/47
f 55/65/48 54/66/48 168/67/48 169/68/48
f 56/69/49 55/65/49 169/68/49 170/70/49
f 52/62/50 51/71/50 172/72/50 171/63/50
f 54/73/51 53/61/51 167/64/51 168/74/51
f 61/75/52 60/76/52 66/77/52 67/78/52
f 62/79/53 61/75/53 67/78/53 68/80/53
f 58/81/54 57/82/54 63/83/54 64/84/54
f 59/85/55 58/81/55 64/84/55 65/86/55
f 60/87/56 59/85/56 65/86/56 66/88/56
f 68/80/57 63/83/57 57/82/57 62/79/57
f 65/86/58 64/84/58 70/89/58 71/90/58
f 63/83/59 68/80/59 74/91/59 69/92/59
f 66/88/60 65/86/60 71/90/60 72/93/60
f 67/78/61 66/77/61 72/94/61 73/95/61
f 68/80/62 67/78/62 73/95/62 74/91/62
f 64/84/63 63/83/63 69/92/63 70/89/63
f 70/96/64 69/97/64 75/98/64 76/99/64
f 71/100/65 70/96/65 76/99/65 77/101/65
f 72/102/66 71/100/66 77/101/66 78/103/66
f 69/97/67 81/104/67 80/105/67 75/98/67
f 73/106/68 72/107/68 78/108/68 79/109/68
f 81/110/69 69/111/69 82/112/69 85/113/69
f 73/114/70 81/110/70 85/113/70 83/115/70
f 81/104/71 73/106/71 79/109/71 80/105/71
f 69/111/72 74/116/72 84/117/72 82/112/72
f 74/118/73 73/114/73 83/115/73 84/119/73
f 83/115/74 85/113/74 89/120/74 87/121/74
f 84/119/75 83/115/75 87/121/75 88/122/75
f 85/113/76 82/112/76 86/123/76 89/120/76
f 82/112/77 84/117/77 88/124/77 86/123/77
f 89/120/78 86/123/78 90/125/78 93/126/78
f 86/123/79 88/124/79 92/127/79 90/125/79
f 87/121/80 89/120/80 93/126/80 91/128/80
f 88/122/81 87/121/81 91/128/81 92/129/81
f 91/128/82 93/126/82 97/130/82 95/131/82
f 92/129/83 91/128/83 95/131/83 96/132/83
f 93/126/84 90/125/84 94/133/84 97/130/84
f 90/125/85 92/127/85 96/134/85 94/133/85
f 95/135/86 97/136/86 94/137/86 96/138/86
f 75/98/87 80/105/87 102/139/87 98/140/87
f 79/109/88 78/108/88 101/141/88
f 80/105/89 79/109/89 101/141/89 102/139/89
f 76/99/90 75/98/90 98/140/90 99/142/90
f 103/143/91 78/144/91 174/145/91 176/146/91
f 78/147/92 103/148/92 100/149/92 101/150/92
f 77/151/93 76/152/93 175/153/93 173/154/93
f 76/152/94 103/143/94 176/146/94 175/153/94
f 103/148/95 76/99/95 99/142/95 100/149/95
f 78/144/96 77/155/96 173/156/96 174/145/96
f 107/157/97 106/158/97 110/159/97 111/160/97
f 104/161/98 107/157/98 111/160/98 108/162/98
f 105/163/99 104/161/99 108/162/99 109/164/99
f 106/158/100 105/165/100 109/166/100 110/159/100
f 108/162/101 111/160/101 115/167/101 112/168/101
f 109/164/102 108/162/102 112/168/102 113/169/102
f 111/160/103 110/159/103 114/170/103 115/167/103
f 110/159/104 109/166/104 113/171/104 114/170/104
f 114/172/105 113/173/105 112/174/105 115/175/105
f 98/140/106 102/139/106 119/176/106 116/177/106
f 102/139/107 101/141/107 118/178/107 119/176/107
f 99/142/108 98/140/108 116/177/108 117/179/108
f 100/149/109 99/142/109 117/179/109 118/180/109
f 101/150/110 100/149/110 118/180/110
f 49/181/111 48/182/111 121/183/111 122/184/111
f 48/185/112 47/186/112 120/187/112 121/188/112
f 51/189/113 50/190/113 123/191/113 124/192/113
f 47/186/114 56/193/114 125/194/114 120/187/114
f 50/190/115 49/181/115 122/184/115 123/191/115
f 124/192/116 129/195/116 130/196/116 125/194/116
f 121/188/117 120/187/117 126/197/117 127/198/117
f 124/192/118 123/191/118 128/199/118 129/195/118
f 120/187/119 125/194/119 130/196/119 126/197/119
f 123/191/120 122/184/120 127/200/120 128/199/120
f 122/184/121 121/183/121 127/200/121
f 170/201/122 172/202/122 124/192/122 125/194/122
f 117/203/123 116/204/123 119/205/123 118/206/123
f 130/196/124 129/195/124 134/207/124 135/208/124
f 129/195/125 136/209/125 133/210/125 134/207/125
f 136/211/126 129/212/126 139/213/126 140/214/126
f 127/198/127 126/197/127 131/215/127 132/216/127
f 126/197/128 130/196/128 135/208/128 131/215/128
f 128/217/129 127/218/129 137/219/129 138/220/129
f 129/212/130 128/217/130 138/220/130 139/213/130
f 136/209/131 127/221/131 132/222/131 133/210/131
f 127/223/132 136/211/132 140/214/132 137/224/132
f 137/224/133 140/214/133 144/225/133 141/226/133
f 138/220/134 137/219/134 141/227/134 142/228/134
f 140/214/135 139/213/135 143/229/135 144/225/135
f 139/213/136 138/220/136 142/228/136 143/229/136
f 144/225/137 143/229/137 147/230/137 148/231/137
f 143/229/138 142/228/138 146/232/138 147/230/138
f 141/226/139 144/225/139 148/231/139 145/233/139
f 142/228/140 141/227/140 145/234/140 146/232/140
f 146/235/141 145/236/141 148/237/141 147/238/141
f 133/210/142 132/222/142 150/239/142 151/240/142
f 132/216/143 131/215/143 149/241/143 150/242/143
f 131/215/144 158/243/144 153/244/144 149/241/144
f 158/245/145 131/246/145 159/247/145 162/248/145
f 134/207/146 133/210/146 151/240/146 152/249/146
f 153/244/147 152/249/147 156/250/147 157/251/147
f 152/249/148 151/240/148 155/252/148 156/250/148
f 151/240/149 150/239/149 154/253/149 155/252/149
f 150/242/150 149/241/150 154/254/150
f 149/241/151 153/244/151 157/251/151 154/254/151
f 157/255/152 156/256/152 155/257/152 154/258/152
f 135/259/153 134/260/153 160/261/153 161/262/153
f 158/243/154 134/207/154 152/249/154 153/244/154
f 131/263/155 135/259/155 161/262/155 159/264/155
f 134/260/156 158/245/156 162/248/156 160/261/156
f 160/261/157 162/248/157 166/265/157 164/266/157
f 159/264/158 161/262/158 165/267/158 163/268/158
f 162/248/159 159/247/159 163/269/159 166/265/159
f 161/262/160 160/261/160 164/266/160 165/267/160
f 165/270/161 164/271/161 166/272/161
f 163/273/162 165/270/162 166/272/162
f 56/193/163 170/201/163 125/194/163
f 168/274/164 167/275/164 59/85/164 60/87/164
f 59/85/165 167/275/165 58/81/165
f 60/76/166 61/75/166 168/276/166
f 57/277/167 58/278/167 61/279/167 62/280/167
f 58/278/168 167/281/168 168/282/168 61/279/168
f 167/283/169 171/284/169 169/285/169 168/286/169
f 170/287/170 169/285/170 171/284/170 172/288/170
f 174/289/171 173/290/171 175/291/171 176/292/171
f 106/293/172 107/294/172 104/295/172 105/296/172
f 172/202/173 51/189/173 124/192/173
