# Blender v2.78 (sub 0) OBJ File: 'Low_Poly_Trees_Pack.blend'
# www.blender.org
g Oak_Tree_l_04
v -0.649816 8.259419 2.733542
v -1.564998 8.131850 1.750968
v -2.200605 6.297466 2.211127
v -0.390528 6.677588 2.836460
v 0.990808 8.422735 2.239397
v 2.124231 7.826347 1.471955
v 0.823679 9.699609 2.104994
v -1.062747 9.880055 1.750286
v -2.618533 9.338006 0.490286
v 1.453576 4.804156 0.318111
v -0.903004 4.590517 1.550095
v 2.029576 5.730297 2.163916
v -1.245244 4.459925 -1.089216
v 2.884611 5.958905 -1.367359
v 3.350895 6.750000 1.087241
v 0.741263 5.364317 -1.762151
v -2.857268 5.087462 -2.077812
v -0.559251 7.062307 -3.231629
v -4.014030 6.289400 -1.737326
v -1.332508 8.021294 -2.889816
v 2.190866 7.926641 -2.694158
v 2.090420 9.058827 -1.815179
v 3.472233 8.723864 -1.250727
v 0.045156 9.640959 -2.587467
v -2.736042 9.306143 -1.737805
v -4.202433 7.092288 -0.519334
v -3.939645 6.987837 1.097017
v -1.028322 10.671894 -0.716973
v 0.334086 10.594447 -1.244291
v 1.404040 10.101888 0.191688
v 2.907430 8.544995 0.531167
v -4.481179 5.982168 -0.870633
v -3.383954 4.751804 -0.533040
v -2.575667 4.493341 1.055192
v -0.425045 -0.010686 -0.239797
v -0.555382 -0.010686 0.147595
v -0.073972 -0.010686 0.502712
v 0.277349 -0.010686 0.346884
v -0.387037 0.719203 -0.160562
v -0.390384 0.719203 0.181936
v -0.190638 0.719203 0.354114
v 0.096298 0.740085 0.210109
v -0.364917 0.283612 0.083794
v -0.062657 0.283612 0.328961
v 0.203448 0.283612 0.274702
v -0.359518 0.283612 -0.200388
v -0.579165 -0.010686 0.273733
v -0.271211 -0.010686 0.581687
v -0.405377 0.283612 0.172727
v -0.179095 0.283612 0.399009
v -0.139106 1.895674 0.277450
v -0.397786 1.841343 0.354351
v -0.546273 1.850471 0.237820
v -0.508646 1.918109 -0.013550
v -0.244884 2.038168 -0.123542
v -0.045936 1.986525 0.055837
v -0.301550 3.677459 0.311986
v -0.540249 3.685802 0.223625
v -0.579543 3.600539 -0.053176
v -0.320168 3.798077 -0.127707
v -0.134925 3.739265 0.129680
v 0.776379 5.518297 0.752943
v 0.653838 5.530877 0.742518
v 0.609808 5.608193 0.637094
v 0.718829 5.644404 0.580158
v 0.833425 5.525986 0.612414
v -0.460937 4.009306 0.057380
v -1.496954 4.042221 -0.608885
v -1.470895 3.996627 -0.688438
v -1.410051 4.086554 -0.747615
v -1.424061 4.158037 -0.644783
v -2.129560 4.995508 -0.931462
v -2.139271 4.978112 -0.968399
v -2.101121 5.000206 -1.000341
v -2.078547 5.022533 -0.954845
v 0.053058 -0.000986 -0.609198
v 0.388719 -0.000986 -0.341936
v 0.193823 0.804190 -0.124969
v 0.300876 0.324850 -0.255637
v 0.023485 0.337087 -0.463060
v -0.046432 0.850725 -0.295931
vt 0.7179 0.5580
vt 0.7236 0.5547
vt 0.7240 0.5653
vt 0.7087 0.5573
vt 0.6995 0.5604
vt 0.7091 0.5496
vt 0.7149 0.5657
vt 0.7183 0.5470
vt 0.7293 0.5482
vt 0.7046 0.5704
vt 0.7206 0.5769
vt 0.6636 0.5425
vt 0.6771 0.5514
vt 0.6610 0.5526
vt 0.6421 0.5459
vt 0.7055 0.5804
vt 0.6939 0.5643
vt 0.6689 0.5544
vt 0.6789 0.5601
vt 0.6706 0.5651
vt 0.6809 0.5712
vt 0.6709 0.5711
vt 0.6625 0.5629
vt 0.6560 0.5675
vt 0.6525 0.5601
vt 0.6635 0.5732
vt 0.6742 0.5832
vt 0.6884 0.5812
vt 0.6755 0.5936
vt 0.7227 0.5324
vt 0.7140 0.5366
vt 0.6592 0.5879
vt 0.6548 0.5776
vt 0.7039 0.5361
vt 0.6927 0.5553
vt 0.6377 0.5547
vt 0.6908 0.5686
vt 0.6914 0.5567
vt 0.6879 0.5458
vt 0.6821 0.5385
vt 0.7416 0.5784
vt 0.7329 0.5618
vt 0.7463 0.5686
vt 0.7434 0.5578
vt 0.6433 0.5758
vt 0.7289 0.5706
vt 0.9389 0.7691
vt 0.9353 0.7677
vt 0.9366 0.7641
vt 0.9405 0.7655
vt 0.9170 0.7686
vt 0.9191 0.7731
vt 0.9161 0.7744
vt 0.9149 0.7702
vt 0.9342 0.7676
vt 0.9344 0.7727
vt 0.9305 0.7720
vt 0.9311 0.7670
vt 0.9354 0.7641
vt 0.9316 0.7639
vt 0.9155 0.7660
vt 0.9125 0.7681
vt 0.9370 0.7732
vt 0.9229 0.7724
vt 0.9241 0.7860
vt 0.9214 0.7856
vt 0.9401 0.7700
vt 0.9418 0.7670
vt 0.9184 0.7858
vt 0.9331 0.7847
vt 0.9303 0.7853
vt 0.9262 0.7727
vt 0.9271 0.7865
vt 0.9287 0.8060
vt 0.9253 0.8066
vt 0.9222 0.8061
vt 0.9195 0.8057
vt 0.9314 0.8038
vt 0.9345 0.8044
vt 0.9350 0.7846
vt 0.9303 0.8305
vt 0.9286 0.8294
vt 0.9314 0.8074
vt 0.9316 0.8298
vt 0.9459 0.7637
vt 0.9492 0.7629
vt 0.9492 0.7770
vt 0.9478 0.7771
vt 0.9273 0.8297
vt 0.9261 0.8298
vt 0.9526 0.7644
vt 0.9555 0.7631
vt 0.9516 0.7771
vt 0.9506 0.7768
vt 0.9344 0.8047
vt 0.9330 0.8290
vt 0.9418 0.7635
vt 0.9463 0.7771
vt 0.9489 0.7898
vt 0.9483 0.7897
vt 0.9504 0.7896
vt 0.9500 0.7895
vt 0.9494 0.7897
vt 0.9259 0.7667
vt 0.9223 0.7670
vt 0.9217 0.7636
vt 0.9258 0.7629
vn -0.6980 0.3922 0.5992
vn 0.6102 0.1615 0.7756
vn 0.5142 -0.1163 0.8498
vn -0.7289 0.2097 0.6517
vn -0.6570 0.1890 0.7299
vn -0.1768 0.0801 0.9810
vn -0.0418 -0.3883 0.9206
vn 0.2979 -0.8864 -0.3544
vn 0.6927 -0.7144 0.0987
vn 0.6777 -0.7200 0.1498
vn 0.3568 0.2783 0.8918
vn 0.1150 -0.7431 -0.6592
vn 0.1156 -0.5979 -0.7932
vn -0.3981 0.0060 -0.9173
vn 0.4247 0.5784 -0.6965
vn 0.1223 0.2135 -0.9693
vn 0.4271 0.5778 -0.6955
vn 0.7775 -0.1394 -0.6132
vn -0.8551 0.3622 -0.3710
vn -0.8241 0.5653 0.0354
vn -0.4979 0.8277 0.2587
vn 0.1707 0.9375 0.3033
vn -0.3109 0.4233 -0.8510
vn -0.1651 0.8207 -0.5471
vn 0.0517 0.9740 0.2205
vn 0.3939 0.5422 0.7422
vn 0.5567 0.3682 0.7447
vn 0.8939 0.3185 0.3153
vn 0.4185 0.6957 -0.5839
vn -0.6771 -0.4982 -0.5416
vn -0.1555 -0.9845 -0.0811
vn 0.0451 -0.9980 0.0435
vn -0.7210 -0.5162 0.4623
vn -0.4021 0.3514 0.8455
vn -0.4306 0.4448 0.7854
vn -0.3280 0.0077 0.9447
vn 0.2769 0.1075 0.9549
vn 0.1918 0.5443 0.8167
vn 0.2706 -0.8917 0.3630
vn -0.0884 -0.7168 0.6916
vn 0.1084 -0.9935 0.0351
vn 0.4854 0.2542 0.8365
vn 0.3065 -0.9012 -0.3065
vn -0.3759 -0.1008 -0.9212
vn 0.3102 -0.4750 -0.8235
vn -0.0983 0.2628 -0.9598
vn 0.2835 -0.4654 -0.8385
vn -0.4977 0.2107 -0.8414
vn -0.8397 0.5159 0.1698
vn -0.6325 0.7742 0.0223
vn -0.2695 0.7696 -0.5788
vn 0.0828 0.9600 0.2676
vn 0.8216 0.4540 0.3447
vn 0.6596 0.6978 0.2791
vn 0.9721 -0.2016 -0.1197
vn 0.3491 0.8750 -0.3354
vn 0.6102 0.7689 -0.1909
vn -0.6427 -0.6734 -0.3654
vn -0.8746 0.3316 -0.3538
vn -0.1993 -0.9413 -0.2725
vn -0.2203 -0.4933 0.8415
vn -0.8214 -0.4549 0.3440
vn -0.9672 0.1892 0.1695
vn -0.5993 -0.3398 0.7248
vn -0.5901 0.5510 0.5901
vn 0.3304 0.1284 0.9351
vn -0.9982 -0.0585 -0.0139
vn -0.9043 0.3857 -0.1828
vn 0.2959 0.3949 0.8698
vn -0.6827 0.0326 0.7300
vn 0.9219 0.1494 0.3574
vn 0.3881 0.4265 0.8170
vn 0.5128 0.1015 0.8525
vn -0.8526 0.4563 -0.2547
vn -0.9095 0.0401 -0.4138
vn 0.3697 0.0443 0.9281
vn -0.9905 -0.1109 -0.0810
vn 0.6378 0.2276 -0.7358
vn 0.7560 0.0483 -0.6528
vn -0.0253 0.0244 0.9994
vn -0.3187 -0.0256 -0.9475
vn 0.8329 0.0423 0.5517
vn -0.9998 -0.0184 0.0038
vn -0.6170 0.0081 0.7869
vn -0.3997 0.0687 -0.9141
vn 0.6537 -0.1161 -0.7478
vn -0.3792 0.5186 -0.7664
vn 0.4668 0.7434 -0.4790
vn -0.2674 -0.0851 0.9598
vn 0.7482 -0.5253 0.4053
vn -0.5566 -0.7730 0.3045
vn 0.2523 -0.6247 -0.7390
vn -0.8026 0.3815 0.4586
vn -0.4579 0.4976 0.7367
vn 0.0397 0.3534 0.9346
vn -0.8415 -0.5158 0.1608
vn 0.7960 0.4898 -0.3557
vn -0.2830 -0.4422 -0.8511
vn 0.5759 0.3590 -0.7345
vn 0.5816 0.3270 -0.7448
vn -0.5037 0.1343 -0.8533
vn -0.5838 0.2590 -0.7695
vn 0.9502 0.2007 0.2385
vn 0.9539 0.2448 0.1736
vn -0.6354 -0.1214 0.7626
s off
f 1/1/1 2/2/1 3/3/1
f 5/4/2 6/5/2 7/6/2
f 4/7/3 6/5/3 5/4/3
f 1/1/4 8/8/4 2/2/4
f 2/2/5 8/8/5 9/9/5
f 5/4/6 7/6/6 8/8/6
f 12/10/7 3/3/7 11/11/7
f 10/12/8 13/13/8 14/14/8
f 10/12/9 14/14/9 15/15/9
f 10/16/10 15/17/10 12/10/10
f 12/10/11 6/5/11 4/7/11
f 16/18/12 13/13/12 17/19/12
f 16/18/13 17/19/13 18/20/13
f 18/20/14 19/21/14 20/22/14
f 21/23/15 22/24/15 23/25/15
f 18/20/16 24/26/16 21/23/16
f 21/23/17 24/26/17 22/24/17
f 21/23/18 23/25/18 14/14/18
f 25/27/19 19/21/19 26/28/19
f 25/27/20 26/28/20 9/29/20
f 9/9/21 8/8/21 28/30/21
f 28/30/22 8/8/22 29/31/22
f 25/27/23 24/26/23 20/22/23
f 28/32/24 29/33/24 24/26/24
f 30/34/25 8/8/25 7/6/25
f 30/34/26 6/5/26 31/35/26
f 31/35/27 6/5/27 15/17/27
f 31/36/28 15/15/28 23/25/28
f 22/24/29 24/26/29 29/33/29
f 32/37/30 19/21/30 17/19/30
f 33/38/31 13/13/31 34/39/31
f 34/39/32 13/13/32 11/40/32
f 33/41/33 27/42/33 32/43/33
f 3/3/34 2/2/34 27/42/34
f 2/2/35 9/9/35 27/42/35
f 1/1/36 3/3/36 4/7/36
f 1/1/37 4/7/37 5/4/37
f 1/1/38 5/4/38 8/8/38
f 10/16/39 12/10/39 11/11/39
f 12/10/40 4/7/40 3/3/40
f 10/12/41 11/40/41 13/13/41
f 12/10/42 15/17/42 6/5/42
f 16/18/43 14/14/43 13/13/43
f 18/20/44 17/19/44 19/21/44
f 16/18/45 18/20/45 21/23/45
f 18/20/46 20/22/46 24/26/46
f 16/18/47 21/23/47 14/14/47
f 25/27/48 20/22/48 19/21/48
f 9/9/49 26/44/49 27/42/49
f 25/27/50 9/29/50 28/32/50
f 25/27/51 28/32/51 24/26/51
f 30/34/52 29/31/52 8/8/52
f 30/34/53 7/6/53 6/5/53
f 30/45/54 31/36/54 23/25/54
f 23/25/55 15/15/55 14/14/55
f 30/45/56 23/25/56 22/24/56
f 30/45/57 22/24/57 29/33/57
f 33/38/58 32/37/58 17/19/58
f 32/37/59 26/28/59 19/21/59
f 33/38/60 17/19/60 13/13/60
f 34/46/61 11/11/61 3/3/61
f 33/41/62 34/46/62 27/42/62
f 32/43/63 27/42/63 26/44/63
f 34/46/64 3/3/64 27/42/64
f 50/47/65 49/48/65 47/49/65 48/50/65
f 45/51/66 42/52/66 41/53/66 44/54/66
f 43/55/67 40/56/67 39/57/67 46/58/67
f 36/59/68 43/55/68 46/58/68 35/60/68
f 38/61/69 45/51/69 44/54/69 37/62/69
f 41/63/70 40/56/70 49/48/70 50/47/70
f 42/52/71 78/64/71 56/65/71 51/66/71
f 44/67/72 50/47/72 48/50/72 37/68/72
f 41/63/73 50/47/73 44/67/73
f 49/48/74 43/55/74 36/59/74 47/49/74
f 43/55/75 49/48/75 40/56/75
f 42/52/76 51/66/76 52/69/76 41/53/76
f 40/56/77 53/70/77 54/71/77 39/57/77
f 56/65/78 78/64/78 81/72/78 55/73/78
f 55/73/79 60/74/79 61/75/79 56/65/79
f 52/69/80 51/66/80 57/76/80 58/77/80
f 55/73/81 54/71/81 59/78/81 60/74/81
f 51/66/82 56/65/82 61/75/82 57/76/82
f 54/71/83 53/70/83 58/79/83 59/78/83
f 53/70/84 52/80/84 58/79/84
f 55/73/85 81/72/85 39/57/85 54/71/85
f 61/75/86 60/74/86 65/81/86 66/82/86
f 60/74/87 67/83/87 64/84/87 65/81/87
f 67/85/88 60/86/88 70/87/88 71/88/88
f 58/77/89 57/76/89 62/89/89 63/90/89
f 57/76/90 61/75/90 66/82/90 62/89/90
f 59/91/91 58/92/91 68/93/91 69/94/91
f 60/86/92 59/91/92 69/94/92 70/87/92
f 67/83/93 58/95/93 63/96/93 64/84/93
f 58/97/94 67/85/94 71/88/94 68/98/94
f 68/98/95 71/88/95 75/99/95 72/100/95
f 69/94/96 68/93/96 72/101/96 73/102/96
f 71/88/97 70/87/97 74/103/97 75/99/97
f 70/87/98 69/94/98 73/102/98 74/103/98
f 80/104/99 79/105/99 77/106/99 76/107/99
f 81/72/100 78/64/100 79/105/100 80/104/100
f 39/57/101 81/72/101 80/104/101 46/58/101
f 46/58/102 80/104/102 76/107/102 35/60/102
f 45/51/103 79/105/103 78/64/103 42/52/103
f 38/61/104 77/106/104 79/105/104 45/51/104
f 41/63/105 52/80/105 53/70/105 40/56/105
