# Blender v2.78 (sub 0) OBJ File: 'Low_Poly_Trees_Pack.blend'
# www.blender.org
g Oak_Tree_NoLeaves_l_02
v -0.001819 -0.011671 -0.620516
v -0.337994 -0.011671 -0.527959
v -0.587276 -0.011671 -0.184852
v -0.571419 -0.011671 0.163471
v -0.385123 -0.011671 0.452767
v 0.029453 -0.011671 0.587471
v 0.350213 -0.011671 0.462928
v 0.589321 -0.011671 0.163471
v 0.589321 -0.011671 -0.206677
v 0.350213 -0.011671 -0.506134
v -0.000000 0.531441 -0.413803
v -0.243228 0.531441 -0.334774
v -0.393550 0.531441 -0.127872
v -0.393550 0.531441 0.127872
v -0.243228 0.531441 0.334774
v 0.000000 0.531441 0.413803
v 0.243228 0.531441 0.334774
v 0.393550 0.531441 0.127872
v 0.393550 0.531441 -0.127872
v 0.243227 0.531441 -0.334774
v -0.000594 0.278899 -0.461734
v -0.257471 0.278899 -0.389180
v 0.431831 0.278899 0.138463
v 0.431831 0.278899 -0.152573
v -0.291110 0.278899 0.353229
v 0.022669 0.278899 0.455182
v -0.443396 0.278899 -0.133277
v 0.266659 0.278899 -0.374899
v 0.266660 0.278899 0.360787
v -0.433019 0.278899 0.133448
v -0.309656 -0.021646 0.725537
v -0.182372 -0.021646 0.766894
v -0.065179 0.274678 0.484475
v -0.239986 0.274678 0.427677
v -0.611946 -0.012259 -0.520195
v -0.704553 -0.012259 -0.392731
v -0.357369 0.278650 -0.369901
v -0.469589 0.278650 -0.215445
v 0.716877 -0.011671 0.062451
v 0.716877 -0.011671 -0.105657
v 0.479486 0.278899 0.091742
v 0.479486 0.278899 -0.105853
v 0.169203 -0.017456 0.655508
v 0.304545 -0.017456 0.606891
v 0.053136 0.276451 0.470206
v 0.256540 0.276451 0.404116
v 0.281288 0.867198 -0.318975
v 0.455134 0.867198 -0.121838
v 0.455134 0.867198 0.121838
v 0.281288 0.867198 0.318975
v 0.000000 0.867198 0.394275
v -0.281288 0.867198 0.318975
v -0.455134 0.867198 0.121838
v -0.455134 0.867198 -0.121838
v -0.281288 0.867198 -0.318975
v -0.000000 0.867198 -0.394275
v -0.254425 1.308200 0.094495
v -0.251995 1.290286 -0.241255
v -1.652346 2.093941 -0.011926
v -1.822745 2.000426 0.043452
v -1.955741 1.941320 -0.096783
v -1.918339 1.975730 -0.292397
v -1.747940 2.069245 -0.347774
v -1.614944 2.128351 -0.207539
v -2.094625 2.872747 0.173704
v -2.242427 2.825362 0.225932
v -2.362780 2.798895 0.118074
v -2.335331 2.819812 -0.042011
v -2.187529 2.867197 -0.094240
v -2.005391 2.782737 -0.016126
v -2.590487 4.847123 0.192080
v -2.705215 4.851240 0.245259
v -2.777446 4.736711 0.169389
v -2.795845 4.878569 0.047619
v -2.681118 4.874451 -0.005560
v -2.578439 4.858729 0.066671
v -2.107028 3.014080 0.045585
v -1.309791 3.494304 0.198804
v -1.289079 3.561909 -0.054216
v -1.217359 3.416961 0.015469
v -1.349270 3.621088 0.077705
v -0.479648 5.030196 0.249671
v -0.492763 5.111825 0.040539
v -0.378290 5.028086 0.091579
v -0.562468 5.118601 0.154853
v -0.437600 6.468182 0.551612
v -0.457439 6.511781 0.446416
v -0.389660 6.517083 0.483577
v -0.492725 6.479594 0.496086
v -0.070051 7.322098 0.695750
v -0.081806 7.351581 0.624416
v -0.036271 7.349072 0.648033
v -0.106339 7.334204 0.659191
v -2.215437 6.134521 -0.533972
v -2.274341 6.169851 -0.505961
v -2.333766 6.182408 -0.548543
v -2.304838 6.141970 -0.633144
v -2.215960 6.111748 -0.604566
v -2.749720 5.019877 0.112076
v -3.279508 5.873696 1.714411
v -3.345800 5.839750 1.710413
v -3.351909 5.898369 1.642035
v -3.292897 5.949153 1.641975
v -3.662437 6.380795 3.127654
v -3.679332 6.365928 3.109027
v -3.686859 6.399286 3.100034
v -3.675083 6.419320 3.119781
v -2.199910 7.430258 -0.521034
v -2.222831 7.428564 -0.510329
v -2.227458 7.428296 -0.537061
v -2.204908 7.430899 -0.546904
v 0.637284 1.918675 -0.125270
v 0.865030 1.859288 0.032634
v 0.889729 1.869266 0.274849
v 0.697988 1.943197 0.470037
v 0.506563 1.994206 0.352306
v 0.473092 1.980685 0.024068
v 1.811446 3.095556 0.108208
v 1.859098 3.055859 0.242718
v 1.754544 3.088558 0.372720
v 1.736452 3.266692 0.296698
v 1.733810 3.221487 0.114657
v 2.982144 4.341559 -0.863251
v 3.050146 4.338370 -0.783511
v 3.027391 4.410046 -0.693885
v 2.936165 4.460302 -0.725120
v 2.867444 4.371974 -0.813186
v 1.918173 3.261074 0.278472
v 2.144279 3.159622 1.316732
v 2.071939 3.176161 1.348812
v 2.073662 3.281014 1.347813
v 2.166153 3.275492 1.294547
v 2.731045 2.986938 2.452446
v 2.700195 2.994237 2.468624
v 2.704128 3.039871 2.474434
v 2.743892 3.038083 2.449344
v 3.339746 3.184964 2.809829
v 3.311413 3.181487 2.824317
v 3.297579 3.220638 2.823735
v 3.331368 3.230761 2.800350
v 3.285907 5.579351 -0.574764
v 3.332925 5.565092 -0.529418
v 3.316353 5.582160 -0.458704
v 3.252731 5.609296 -0.463609
v 3.232316 5.606812 -0.545750
v 4.210018 6.509207 -0.688385
v 4.211362 6.511467 -0.662285
v 4.195703 6.522589 -0.664314
v 4.190993 6.523146 -0.687418
v 2.922571 4.472416 -0.829171
v 1.761546 4.600354 -1.535696
v 1.734727 4.669618 -1.455124
v 1.737068 4.610710 -1.481940
v 1.769224 4.669298 -1.491265
v 1.571737 5.448437 -2.115002
v 1.561780 5.469277 -2.070415
v 1.559065 5.453336 -2.094588
v 1.576500 5.478284 -2.090858
v -0.869218 1.193543 0.026811
v -0.867730 1.182576 -0.178735
v -0.672851 1.279219 -0.287748
v -0.675828 1.301160 0.123478
v -3.173962 5.256076 0.943095
v -3.170996 5.341329 0.834930
v -3.100162 5.334922 0.979028
v -3.112180 5.441662 0.859205
vt 0.9111 0.8018
vt 0.9112 0.8057
vt 0.9074 0.8056
vt 0.9073 0.8019
vt 0.8983 0.8033
vt 0.8956 0.8043
vt 0.8942 0.7995
vt 0.8961 0.7987
vt 0.9126 0.8017
vt 0.9143 0.7964
vt 0.9162 0.7967
vt 0.9154 0.8023
vt 0.9032 0.8022
vt 0.9038 0.8060
vt 0.9001 0.8068
vt 0.8993 0.8032
vt 0.8910 0.8071
vt 0.8889 0.8090
vt 0.8863 0.8053
vt 0.8875 0.8041
vt 0.9201 0.8046
vt 0.9186 0.8080
vt 0.9150 0.8066
vt 0.9165 0.8030
vt 0.8948 0.8049
vt 0.8966 0.8082
vt 0.8934 0.8098
vt 0.8916 0.8069
vt 0.9235 0.8063
vt 0.9219 0.8096
vt 0.9256 0.8026
vt 0.9220 0.8006
vt 0.8929 0.8009
vt 0.8892 0.8036
vt 0.9071 0.7974
vt 0.9026 0.7979
vt 0.9181 0.7987
vt 0.8908 0.8117
vt 0.8980 0.7988
vt 0.9113 0.7973
vt 0.9246 0.8069
vt 0.9289 0.8031
vt 0.9300 0.8042
vt 0.9266 0.8085
vt 0.9246 0.8115
vt 0.9272 0.8096
vt 0.9306 0.8075
vt 0.9042 0.8104
vt 0.9012 0.8113
vt 0.8887 0.8094
vt 0.8856 0.8070
vt 0.9226 0.8149
vt 0.9196 0.8133
vt 0.8985 0.8123
vt 0.8957 0.8133
vt 0.9109 0.8102
vt 0.9075 0.8099
vt 0.9166 0.8122
vt 0.8928 0.8149
vt 0.9138 0.8112
vt 0.9518 0.8038
vt 0.9554 0.8036
vt 0.9504 0.8102
vt 0.9472 0.8093
vt 0.9603 0.8210
vt 0.9568 0.8215
vt 0.9524 0.8160
vt 0.9555 0.8150
vt 0.9641 0.8215
vt 0.9612 0.8152
vt 0.9592 0.8029
vt 0.9560 0.8102
vt 0.9490 0.8022
vt 0.9449 0.8079
vt 0.9170 0.8448
vt 0.9149 0.8474
vt 0.8970 0.8432
vt 0.8983 0.8409
vt 0.9222 0.8434
vt 0.8995 0.8384
vt 0.9191 0.8363
vt 0.9232 0.8396
vt 0.8999 0.8354
vt 0.8997 0.8325
vt 0.9177 0.8333
vt 0.8996 0.8298
vt 0.9181 0.8305
vt 0.9000 0.8272
vt 0.8874 0.8313
vt 0.8874 0.8293
vt 0.8891 0.8356
vt 0.8876 0.8333
vt 0.8879 0.8272
vt 0.8856 0.8388
vt 0.8867 0.8371
vt 0.9523 0.8193
vt 0.9522 0.8214
vt 0.9250 0.8209
vt 0.9251 0.8193
vt 0.9523 0.8171
vt 0.9264 0.8177
vt 0.9522 0.8150
vt 0.9245 0.8161
vt 0.9504 0.8230
vt 0.9244 0.8225
vt 0.9519 0.8252
vt 0.9519 0.8272
vt 0.9242 0.8260
vt 0.9240 0.8243
vt 0.9554 0.8522
vt 0.9562 0.8544
vt 0.9436 0.8540
vt 0.9427 0.8517
vt 0.9574 0.8504
vt 0.9429 0.8496
vt 0.9560 0.8572
vt 0.9436 0.8568
vt 0.9564 0.8480
vt 0.9438 0.8474
vt 0.9184 0.8515
vt 0.9185 0.8497
vt 0.9190 0.8477
vt 0.9191 0.8534
vt 0.9190 0.8560
vt 0.8992 0.8531
vt 0.8993 0.8521
vt 0.8986 0.8543
vt 0.8990 0.8513
vt 0.8985 0.8503
vt 0.8862 0.8521
vt 0.8859 0.8515
vt 0.8856 0.8509
vt 0.8860 0.8529
vt 0.8856 0.8537
vt 0.9314 0.8128
vt 0.9314 0.8135
vt 0.9307 0.8136
vt 0.9307 0.8128
vt 0.9039 0.8239
vt 0.9037 0.8230
vt 0.9036 0.8252
vt 0.9034 0.8220
vt 0.9435 0.8069
vt 0.9447 0.8087
vt 0.9315 0.8073
vt 0.9311 0.8058
vt 0.9237 0.8163
vt 0.9225 0.8182
vt 0.9031 0.8210
vt 0.9031 0.8197
vt 0.9448 0.8022
vt 0.9436 0.8039
vt 0.9307 0.8036
vt 0.9312 0.8022
vt 0.9441 0.8112
vt 0.9307 0.8090
vt 0.9554 0.8404
vt 0.9565 0.8416
vt 0.9450 0.8414
vt 0.9448 0.8404
vt 0.9557 0.8392
vt 0.9445 0.8390
vt 0.9567 0.8371
vt 0.9445 0.8380
vt 0.9567 0.8434
vt 0.9445 0.8425
vt 0.9232 0.8408
vt 0.9233 0.8402
vt 0.9236 0.8399
vt 0.9236 0.8412
vt 0.9237 0.8417
vt 0.9318 0.8136
vt 0.9318 0.8141
vt 0.9314 0.8140
vt 0.9314 0.8134
vt 0.8856 0.8241
vt 0.8856 0.8237
vt 0.8857 0.8244
vt 0.8856 0.8234
vt 0.8856 0.8231
vt 0.8903 0.7701
vt 0.8910 0.7671
vt 0.9038 0.7720
vt 0.9034 0.7751
vt 0.8907 0.7963
vt 0.8884 0.7941
vt 0.9007 0.7878
vt 0.9026 0.7907
vt 0.8856 0.7750
vt 0.8887 0.7730
vt 0.9022 0.7785
vt 0.9007 0.7811
vt 0.8856 0.7920
vt 0.8998 0.7850
vt 0.9236 0.7826
vt 0.9238 0.7850
vt 0.9233 0.7871
vt 0.9231 0.7892
vt 0.9222 0.7805
vt 0.9231 0.7785
vt 0.8869 0.7861
vt 0.8877 0.7821
vt 0.9320 0.8135
vt 0.9324 0.8135
vt 0.9324 0.8139
vt 0.9320 0.8138
vt 0.9534 0.7829
vt 0.9518 0.7848
vt 0.9251 0.7808
vt 0.9534 0.7811
vt 0.9658 0.8300
vt 0.9663 0.8326
vt 0.9519 0.8320
vt 0.9521 0.8307
vt 0.9523 0.7862
vt 0.9524 0.7876
vt 0.9652 0.8350
vt 0.9662 0.8370
vt 0.9516 0.8345
vt 0.9517 0.8334
vt 0.9230 0.7784
vt 0.9528 0.7795
vt 0.9663 0.8272
vt 0.9518 0.8293
vt 0.9342 0.8310
vt 0.9343 0.8303
vt 0.9343 0.8328
vt 0.9344 0.8323
vt 0.9343 0.8317
vt 0.9236 0.8315
vt 0.9233 0.8310
vt 0.9235 0.8322
vt 0.9233 0.8304
vt 0.9232 0.8326
vt 0.9314 0.8128
vt 0.9319 0.8128
vt 0.9320 0.8134
vt 0.9314 0.8134
vt 0.9731 0.7830
vt 0.9731 0.7841
vt 0.9724 0.7870
vt 0.9726 0.7880
vt 0.9535 0.7849
vt 0.9725 0.7861
vt 0.9633 0.8003
vt 0.9639 0.8021
vt 0.9453 0.8011
vt 0.9452 0.8000
vt 0.9728 0.7850
vt 0.9918 0.7875
vt 0.9918 0.7879
vt 0.9919 0.7872
vt 0.9920 0.7868
vt 0.9918 0.7882
vt 0.9310 0.8140
vt 0.9307 0.8140
vt 0.9307 0.8137
vt 0.9310 0.8137
vt 0.9629 0.7978
vt 0.9641 0.7992
vt 0.9452 0.7993
vt 0.9453 0.7985
vt 0.9639 0.7964
vt 0.9451 0.7977
vt 0.9307 0.8007
vt 0.9309 0.8004
vt 0.9308 0.8000
vt 0.9307 0.7997
vt 0.9308 0.8011
vt 0.9325 0.8131
vt 0.9322 0.8134
vt 0.9320 0.8131
vt 0.9325 0.8128
vn -0.2843 0.1984 -0.9380
vn 0.7744 0.6327 0.0000
vn -0.5687 0.7112 -0.4132
vn 0.7938 0.1719 -0.5834
vn 0.2609 0.5815 0.7705
vn -0.9845 0.1741 0.0196
vn 0.3041 0.1769 -0.9361
vn 0.7978 0.1400 0.5864
vn -0.8134 0.1672 0.5571
vn -0.7644 0.4156 0.4928
vn 0.7176 0.4193 0.5560
vn 0.2743 0.4602 -0.8443
vn -0.8994 0.4354 0.0384
vn 0.2980 0.2649 0.9171
vn 0.7004 0.4636 -0.5427
vn -0.7386 0.4081 -0.5366
vn 0.9467 0.3221 0.0000
vn -0.2369 0.4690 -0.8508
vn -0.2154 0.7170 0.6629
vn -0.2925 0.3221 0.9004
vn 0.3033 0.1805 0.9356
vn -0.8036 0.1935 0.5628
vn -0.8328 0.4503 0.3220
vn 0.5007 0.4347 0.7485
vn -0.9376 0.1787 0.2983
vn -0.8297 0.3795 0.4093
vn -0.1855 0.2169 -0.9584
vn -0.0646 0.4738 -0.8782
vn 0.7765 -0.0950 -0.6230
vn 0.5745 0.4536 -0.6813
vn 0.6895 0.1733 -0.7033
vn 0.5917 0.3969 0.7017
vn 0.6937 0.1348 0.7075
vn -0.4327 0.1078 0.8951
vn 0.9661 0.1135 0.2321
vn 0.8941 0.3482 0.2816
vn -0.3920 0.3743 0.8404
vn -0.2821 0.0345 0.9588
vn 0.7765 -0.0950 0.6230
vn -0.2821 0.0345 -0.9588
vn 0.2821 0.0345 -0.9588
vn -0.7765 -0.0950 0.6230
vn 0.2821 0.0345 0.9588
vn -0.7765 -0.0950 -0.6230
vn 0.9836 -0.1804 0.0000
vn -0.9836 -0.1804 0.0000
vn -0.5478 -0.2816 0.7878
vn -0.4557 -0.5291 -0.7158
vn -0.0432 0.1834 -0.9821
vn -0.0631 0.4558 0.8879
vn -0.6151 -0.7883 0.0172
vn -0.2085 -0.3789 -0.9016
vn 0.2550 0.3674 -0.8944
vn 0.0899 0.2742 0.9574
vn -0.3643 -0.4474 0.8168
vn -0.5742 -0.8122 -0.1031
vn 0.5046 0.8609 0.0646
vn -0.5491 -0.4379 0.7118
vn 0.8674 0.4459 0.2207
vn -0.9000 -0.3750 -0.2224
vn -0.3576 0.0984 -0.9287
vn 0.5181 0.5071 -0.6888
vn 0.3345 -0.0363 0.9417
vn 0.3604 0.0776 0.9296
vn -0.6220 -0.1514 0.7682
vn -0.9669 -0.2064 -0.1503
vn 0.9596 0.2416 0.1444
vn -0.3658 -0.0451 -0.9296
vn -0.4657 0.5525 0.6913
vn -0.5259 0.6962 -0.4886
vn 0.6814 0.1908 -0.7066
vn 0.5105 -0.6640 0.5463
vn 0.2696 -0.2927 -0.9174
vn -0.7518 0.4193 -0.5089
vn 0.3956 -0.1557 -0.9051
vn -0.6526 0.3188 0.6874
vn 0.7456 -0.4165 0.5201
vn -0.7686 -0.1140 0.6295
vn 0.8395 -0.1337 0.5266
vn -0.8416 0.1707 -0.5124
vn 0.5015 0.2264 -0.8350
vn -0.8337 0.4417 -0.3314
vn 0.4730 -0.0259 -0.8807
vn -0.6773 0.1701 0.7158
vn 0.8477 -0.4215 0.3222
vn -0.1296 0.9087 0.3969
vn 0.9677 -0.2421 0.0707
vn -0.4096 -0.3042 -0.8600
vn 0.3039 -0.5053 -0.8077
vn 0.4602 0.3258 0.8259
vn -0.6375 0.4940 -0.5912
vn -0.9493 0.2482 -0.1931
vn 0.3849 -0.6623 0.6428
vn 0.8952 0.3870 0.2212
vn -0.3353 0.5498 0.7650
vn -0.9141 -0.3174 -0.2522
vn -0.6274 0.5736 -0.5267
vn 0.9724 0.2194 0.0794
vn 0.3853 -0.6939 0.6083
vn -0.9821 -0.1543 -0.1082
vn 0.9386 0.3145 0.1421
vn 0.3793 -0.8330 0.4028
vn -0.5995 0.7047 -0.3795
vn -0.9581 -0.2539 -0.1329
vn -0.7692 -0.0668 0.6355
vn 0.9984 -0.0087 -0.0552
vn 0.1781 0.0519 -0.9826
vn 0.4229 -0.0141 0.9061
vn -0.7298 0.0440 0.6822
vn -0.9302 0.0827 -0.3576
vn 0.9223 -0.3846 -0.0390
vn 0.6484 -0.1148 -0.7526
vn -0.0906 -0.0113 0.9958
vn -0.1137 0.3103 -0.9438
vn 0.6466 -0.3630 0.6709
vn -0.7098 0.7038 -0.0308
vn 0.5907 -0.4097 -0.6951
vn -0.3568 0.3911 0.8484
vn -0.2673 0.3874 -0.8823
vn 0.5749 -0.4620 0.6753
vn 0.7727 -0.6326 -0.0527
vn -0.6789 0.7342 -0.0030
vn -0.0840 0.9962 0.0224
vn -0.7522 0.6477 -0.1215
vn 0.0841 0.5966 0.7981
vn 0.0344 0.9991 -0.0236
vn 0.4791 -0.7742 -0.4136
vn -0.4516 -0.2455 -0.8578
vn -0.1488 -0.9796 0.1352
vn -0.9517 0.0282 0.3059
vn 0.7942 -0.3340 0.5077
vn 0.9463 -0.2289 -0.2284
vn 0.8451 -0.2474 -0.4739
vn -0.2363 -0.9714 -0.0254
vn 0.1342 0.9817 0.1349
vn -0.8709 0.0170 0.4912
vn -0.2123 0.9646 -0.1563
vn -0.4769 -0.1095 0.8721
vn 0.5368 -0.1329 -0.8332
vn 0.1073 -0.9399 0.3242
vn 0.4710 0.2242 0.8531
vn 0.8817 -0.2866 0.3749
vn 0.7341 -0.0253 -0.6786
vn -0.1538 0.2690 -0.9508
vn 0.5041 0.4261 -0.7512
vn -0.2859 -0.1286 0.9496
vn -0.6719 0.7259 0.1471
vn 0.0122 0.2027 0.9792
vn 0.7278 -0.6415 0.2425
vn 0.4807 -0.5602 -0.6746
vn -0.2927 0.1683 -0.9413
vn 0.5847 0.8051 -0.0998
vn -0.5298 -0.3602 0.7678
vn -0.9579 0.2183 0.1863
vn -0.2392 -0.9691 0.0599
vn 0.1115 0.9887 0.0998
vn 0.5728 0.5729 0.5862
vn -0.8430 -0.4202 -0.3358
vn 0.9681 0.0487 -0.2457
vn -0.9838 -0.0977 0.1506
vn -0.7620 0.5766 -0.2947
vn -0.6533 0.5364 -0.5343
vn 0.0129 0.3469 -0.9378
vn -0.5123 0.2607 0.8183
s off
f 22/1/1 12/2/1 11/3/1 21/4/1
f 42/5/2 41/6/2 39/7/2 40/8/2
f 37/9/3 35/10/3 36/11/3 38/12/3
f 28/13/4 20/14/4 19/15/4 24/16/4
f 46/17/5 45/18/5 43/19/5 44/20/5
f 30/21/6 14/22/6 13/23/6 27/24/6
f 21/4/7 11/3/7 20/14/7 28/13/7
f 23/25/8 18/26/8 17/27/8 29/28/8
f 25/29/9 15/30/9 14/22/9 30/21/9
f 5/31/10 25/29/10 30/21/10 4/32/10
f 8/33/11 23/25/11 29/28/11 7/34/11
f 1/35/12 21/4/12 28/13/12 10/36/12
f 4/32/13 30/21/13 27/24/13 3/37/13
f 17/27/14 16/38/14 45/18/14 46/17/14
f 10/36/15 28/13/15 24/16/15 9/39/15
f 12/2/16 37/9/16 38/12/16 13/23/16
f 19/15/17 18/26/17 41/6/17 42/5/17
f 2/40/18 22/1/18 21/4/18 1/35/18
f 34/41/19 31/42/19 32/43/19 33/44/19
f 15/30/20 34/41/20 33/44/20 16/45/20
f 26/46/21 16/45/21 33/44/21
f 15/30/22 25/29/22 34/41/22
f 25/29/23 5/31/23 31/42/23 34/41/23
f 6/47/24 26/46/24 33/44/24 32/43/24
f 27/24/25 13/23/25 38/12/25
f 3/37/26 27/24/26 38/12/26 36/11/26
f 12/2/27 22/1/27 37/9/27
f 22/1/28 2/40/28 35/10/28 37/9/28
f 19/15/29 20/14/29 47/48/29 48/49/29
f 24/16/30 42/5/30 40/8/30 9/39/30
f 19/15/31 42/5/31 24/16/31
f 41/6/32 23/25/32 8/33/32 39/7/32
f 23/25/33 41/6/33 18/26/33
f 26/50/34 45/18/34 16/38/34
f 17/27/35 46/17/35 29/28/35
f 29/28/36 46/17/36 44/20/36 7/34/36
f 43/19/37 45/18/37 26/50/37 6/51/37
f 15/30/38 16/45/38 51/52/38 52/53/38
f 17/27/39 18/26/39 49/54/39 50/55/39
f 11/3/40 12/2/40 55/56/40 56/57/40
f 20/14/41 11/3/41 56/57/41 47/48/41
f 14/22/42 15/30/42 52/53/42 53/58/42
f 16/38/43 17/27/43 50/55/43 51/59/43
f 12/2/44 13/23/44 54/60/44 55/56/44
f 18/26/45 19/15/45 48/49/45 49/54/45
f 13/23/46 14/22/46 53/58/46 54/60/46
f 53/61/47 52/62/47 162/63/47 159/64/47
f 55/65/48 54/66/48 160/67/48 161/68/48
f 56/69/49 55/65/49 161/68/49 58/70/49
f 52/62/50 51/71/50 57/72/50 162/63/50
f 54/73/51 53/61/51 159/64/51 160/74/51
f 161/75/52 160/76/52 62/77/52 63/78/52
f 58/79/53 161/75/53 63/78/53 64/80/53
f 162/81/54 57/82/54 59/83/54 60/84/54
f 159/85/55 162/81/55 60/84/55 61/86/55
f 160/87/56 159/85/56 61/86/56 62/88/56
f 64/80/57 59/83/57 57/82/57 58/79/57
f 61/86/58 60/84/58 66/89/58 67/90/58
f 59/83/59 64/80/59 70/91/59 65/92/59
f 62/88/60 61/86/60 67/90/60 68/93/60
f 63/78/61 62/77/61 68/94/61 69/95/61
f 64/80/62 63/78/62 69/95/62 70/91/62
f 60/84/63 59/83/63 65/92/63 66/89/63
f 66/96/64 65/97/64 71/98/64 72/99/64
f 67/100/65 66/96/65 72/99/65 73/101/65
f 68/102/66 67/100/66 73/101/66 74/103/66
f 65/97/67 77/104/67 76/105/67 71/98/67
f 69/106/68 68/107/68 74/108/68 75/109/68
f 77/110/69 65/111/69 78/112/69 81/113/69
f 69/114/70 77/110/70 81/113/70 79/115/70
f 77/104/71 69/106/71 75/109/71 76/105/71
f 65/111/72 70/116/72 80/117/72 78/112/72
f 70/118/73 69/114/73 79/115/73 80/119/73
f 79/115/74 81/113/74 85/120/74 83/121/74
f 80/119/75 79/115/75 83/121/75 84/122/75
f 81/113/76 78/112/76 82/123/76 85/120/76
f 78/112/77 80/117/77 84/124/77 82/123/77
f 85/120/78 82/123/78 86/125/78 89/126/78
f 82/123/79 84/124/79 88/127/79 86/125/79
f 83/121/80 85/120/80 89/126/80 87/128/80
f 84/122/81 83/121/81 87/128/81 88/129/81
f 87/128/82 89/126/82 93/130/82 91/131/82
f 88/129/83 87/128/83 91/131/83 92/132/83
f 89/126/84 86/125/84 90/133/84 93/130/84
f 86/125/85 88/127/85 92/134/85 90/133/85
f 91/135/86 93/136/86 90/137/86 92/138/86
f 71/98/87 76/105/87 98/139/87 94/140/87
f 75/109/88 74/108/88 97/141/88
f 76/105/89 75/109/89 97/141/89 98/139/89
f 72/99/90 71/98/90 94/140/90 95/142/90
f 99/143/91 74/144/91 164/145/91 166/146/91
f 74/147/92 99/148/92 96/149/92 97/150/92
f 73/151/93 72/152/93 165/153/93 163/154/93
f 72/152/94 99/143/94 166/146/94 165/153/94
f 99/148/95 72/99/95 95/142/95 96/149/95
f 74/144/96 73/155/96 163/156/96 164/145/96
f 166/157/97 164/158/97 102/159/97 103/160/97
f 165/161/98 166/157/98 103/160/98 100/162/98
f 163/163/99 165/161/99 100/162/99 101/164/99
f 164/158/100 163/165/100 101/166/100 102/159/100
f 100/162/101 103/160/101 107/167/101 104/168/101
f 101/164/102 100/162/102 104/168/102 105/169/102
f 103/160/103 102/159/103 106/170/103 107/167/103
f 102/159/104 101/166/104 105/171/104 106/170/104
f 106/172/105 105/173/105 104/174/105 107/175/105
f 94/140/106 98/139/106 111/176/106 108/177/106
f 98/139/107 97/141/107 110/178/107 111/176/107
f 95/142/108 94/140/108 108/177/108 109/179/108
f 96/149/109 95/142/109 109/179/109 110/180/109
f 97/150/110 96/149/110 110/180/110
f 49/181/111 48/182/111 113/183/111 114/184/111
f 48/185/112 47/186/112 112/187/112 113/188/112
f 51/189/113 50/190/113 115/191/113 116/192/113
f 47/186/114 56/193/114 117/194/114 112/187/114
f 50/190/115 49/181/115 114/184/115 115/191/115
f 116/192/116 121/195/116 122/196/116 117/194/116
f 113/188/117 112/187/117 118/197/117 119/198/117
f 116/192/118 115/191/118 120/199/118 121/195/118
f 112/187/119 117/194/119 122/196/119 118/197/119
f 115/191/120 114/184/120 119/200/120 120/199/120
f 114/184/121 113/183/121 119/200/121
f 58/201/122 57/202/122 116/192/122 117/194/122
f 109/203/123 108/204/123 111/205/123 110/206/123
f 122/196/124 121/195/124 126/207/124 127/208/124
f 121/195/125 128/209/125 125/210/125 126/207/125
f 128/211/126 121/212/126 131/213/126 132/214/126
f 119/198/127 118/197/127 123/215/127 124/216/127
f 118/197/128 122/196/128 127/208/128 123/215/128
f 120/217/129 119/218/129 129/219/129 130/220/129
f 121/212/130 120/217/130 130/220/130 131/213/130
f 128/209/131 119/221/131 124/222/131 125/210/131
f 119/223/132 128/211/132 132/214/132 129/224/132
f 129/224/133 132/214/133 136/225/133 133/226/133
f 130/220/134 129/219/134 133/227/134 134/228/134
f 132/214/135 131/213/135 135/229/135 136/225/135
f 131/213/136 130/220/136 134/228/136 135/229/136
f 136/225/137 135/229/137 139/230/137 140/231/137
f 135/229/138 134/228/138 138/232/138 139/230/138
f 133/226/139 136/225/139 140/231/139 137/233/139
f 134/228/140 133/227/140 137/234/140 138/232/140
f 138/235/141 137/236/141 140/237/141 139/238/141
f 125/210/142 124/222/142 142/239/142 143/240/142
f 124/216/143 123/215/143 141/241/143 142/242/143
f 123/215/144 150/243/144 145/244/144 141/241/144
f 150/245/145 123/246/145 151/247/145 154/248/145
f 126/207/146 125/210/146 143/240/146 144/249/146
f 145/244/147 144/249/147 148/250/147 149/251/147
f 144/249/148 143/240/148 147/252/148 148/250/148
f 143/240/149 142/239/149 146/253/149 147/252/149
f 142/242/150 141/241/150 146/254/150
f 141/241/151 145/244/151 149/251/151 146/254/151
f 149/255/152 148/256/152 147/257/152 146/258/152
f 127/259/153 126/260/153 152/261/153 153/262/153
f 150/243/154 126/207/154 144/249/154 145/244/154
f 123/263/155 127/259/155 153/262/155 151/264/155
f 126/260/156 150/245/156 154/248/156 152/261/156
f 152/261/157 154/248/157 158/265/157 156/266/157
f 151/264/158 153/262/158 157/267/158 155/268/158
f 154/248/159 151/247/159 155/269/159 158/265/159
f 153/262/160 152/261/160 156/266/160 157/267/160
f 157/270/161 156/271/161 158/272/161
f 155/273/162 157/270/162 158/272/162
f 56/193/163 58/201/163 117/194/163
f 57/202/164 51/189/164 116/192/164
