# Blender v2.78 (sub 0) OBJ File: 'Low_Poly_Trees_Pack.blend'
# www.blender.org
g Oak_Tree_NoLeaves_crk_m_04
v -1.906861 1.045318 -0.259121
v -1.951008 1.002807 -0.202405
v -1.879495 0.939722 -0.164991
v -1.914538 0.878677 -0.267059
v -1.870391 0.921188 -0.323774
v -1.866554 1.004509 -0.319806
v -2.251992 0.914572 -1.262694
v -2.292213 0.891716 -1.246672
v -2.295964 0.843068 -1.250687
v -2.239381 0.828704 -1.278734
v -2.215521 0.888780 -1.282730
v -2.001330 0.922290 -0.311774
v -2.441732 0.906514 0.089266
v -2.403112 0.856119 0.129413
v -2.409068 0.813959 0.049080
v -2.457856 0.851029 0.000152
v -3.007265 0.879285 -0.007823
v -3.004770 0.843090 0.025447
v -2.983176 0.815872 -0.022953
v -2.989243 0.844377 -0.065274
v -4.023703 0.739415 0.217316
v -4.011136 0.727146 0.225272
v -4.016661 0.715874 0.205600
v -4.032104 0.724564 0.196055
v -2.928527 0.877312 -1.784644
v -2.936064 0.868947 -1.772265
v -2.927511 0.856452 -1.781822
v -2.920825 0.864902 -1.794092
v 0.277903 0.000000 0.096412
v -0.030808 0.000000 0.247076
v -0.217629 0.000000 0.038694
v -0.219787 0.000000 -0.136585
v -0.035125 0.000000 -0.355495
v 0.274378 0.000000 -0.189898
v 0.209000 0.372961 -0.196911
v -0.003051 0.401750 -0.310366
v -0.129569 0.389715 -0.160384
v -0.128090 0.396010 -0.040295
v -0.000093 0.414344 0.102475
v 0.211415 0.383243 -0.000751
v 0.272395 0.843569 0.016723
v 0.138437 1.032309 0.068776
v 0.042520 1.028662 -0.006959
v 0.040943 1.024129 -0.096105
v 0.135280 1.023240 -0.177194
v 0.289613 0.985602 -0.123220
v -0.026686 1.679100 -0.062912
v -0.023871 1.671805 -0.192310
v 0.087067 1.733989 -0.265354
v 0.200805 1.743548 -0.196320
v 0.080621 1.749091 0.000923
v -0.150160 1.922976 -0.165631
v -0.125597 1.857072 -0.052289
v -0.082621 1.730864 -0.056495
v -0.064208 1.670559 -0.174043
v -0.088772 1.736463 -0.287385
v -0.131747 1.862672 -0.283179
v -1.055992 1.410371 0.054438
v -1.027117 1.363798 0.130085
v -0.982953 1.278057 0.127173
v -0.966772 1.234978 0.042361
v -0.989446 1.268316 -0.042297
v -1.042214 1.367909 -0.043426
v 0.344907 2.301531 -0.269423
v 0.201690 2.102506 -0.119845
v 0.195202 2.117399 -0.353091
vt 0.9508 0.7656
vt 0.9536 0.7667
vt 0.9534 0.7993
vt 0.9509 0.7994
vt 0.9477 0.7653
vt 0.9481 0.7977
vt 0.9447 0.7661
vt 0.9452 0.8004
vt 0.9566 0.7679
vt 0.9560 0.8003
vt 0.9597 0.7676
vt 0.9624 0.7667
vt 0.9615 0.8014
vt 0.9589 0.8014
vt 0.9572 0.8331
vt 0.9557 0.8332
vt 0.9591 0.8335
vt 0.9542 0.8337
vt 0.9696 0.7660
vt 0.9730 0.7653
vt 0.9717 0.7859
vt 0.9693 0.7869
vt 0.9462 0.8016
vt 0.9492 0.8034
vt 0.9526 0.8341
vt 0.9505 0.8340
vt 0.9630 0.7654
vt 0.9661 0.7659
vt 0.9653 0.7864
vt 0.9631 0.7856
vt 0.9769 0.7660
vt 0.9747 0.7865
vt 0.9684 0.8059
vt 0.9669 0.8058
vt 0.9649 0.8062
vt 0.9633 0.8062
vt 0.9701 0.8069
vt 0.9645 0.8402
vt 0.9636 0.8400
vt 0.9630 0.8397
vt 0.9652 0.8398
vt 0.9659 0.8398
vt 0.9618 0.8410
vt 0.9618 0.8403
vt 0.9624 0.8404
vt 0.9624 0.8413
vt 0.9566 0.8615
vt 0.9560 0.8615
vt 0.9571 0.8614
vt 0.9555 0.8614
vt 0.9550 0.8615
vt 0.9624 0.8408
vt 0.9625 0.8403
vt 0.9631 0.8403
vt 0.9630 0.8408
vt 0.9082 0.7804
vt 0.9014 0.7812
vt 0.8978 0.7679
vt 0.9060 0.7653
vt 0.8976 0.7824
vt 0.8927 0.7703
vt 0.9171 0.7792
vt 0.9167 0.7653
vt 0.9279 0.8016
vt 0.9224 0.8002
vt 0.9244 0.7791
vt 0.9324 0.7805
vt 0.9386 0.7817
vt 0.9355 0.7681
vt 0.9441 0.7705
vt 0.9251 0.7665
vt 0.9320 0.8020
vt 0.9128 0.8019
vt 0.9089 0.8024
vt 0.9176 0.7952
vt 0.9060 0.8029
vt 0.9313 0.8234
vt 0.9271 0.8248
vt 0.9231 0.8243
vt 0.8082 0.6546
vt 0.8073 0.7046
vt 0.7922 0.7044
vt 0.7922 0.6573
vt 0.9149 0.8253
vt 0.9105 0.8241
vt 0.9063 0.8244
vt 0.8072 0.7133
vt 0.9107 0.8261
vt 0.9149 0.8253
vt 0.9169 0.8587
vt 0.9139 0.8589
vt 0.9190 0.8245
vt 0.9231 0.8243
vt 0.9233 0.8577
vt 0.9198 0.8581
vt 0.9063 0.8264
vt 0.9109 0.8589
vt 0.9271 0.8248
vt 0.9312 0.8254
vt 0.9299 0.8582
vt 0.9270 0.8577
vt 0.9784 0.8302
vt 0.9733 0.8319
vt 0.9750 0.8226
vt 0.9777 0.8210
vt 0.9872 0.8279
vt 0.9803 0.8213
vt 0.9889 0.8252
vt 0.9668 0.8389
vt 0.8950 0.8572
vt 0.8864 0.8598
vt 0.8865 0.8317
vt 0.8955 0.8145
vt 0.9041 0.8575
vt 0.9043 0.8291
vt 0.8158 0.7123
vt 0.8091 0.6948
vt 0.8240 0.6981
vt 0.8102 0.6678
vt 0.8250 0.6707
vt 0.9913 0.8150
vt 0.9731 0.8150
vt 0.9838 0.8389
vt 0.8091 0.6522
vt 0.8264 0.6541
vt 0.8004 0.6441
vn -0.4739 0.7549 0.4534
vn -0.3157 -0.0255 0.9485
vn 0.1748 -0.8675 0.4657
vn -0.1878 0.8418 -0.5062
vn 0.4357 -0.8191 -0.3733
vn 0.2761 0.0887 -0.9570
vn 0.4556 0.8491 -0.2672
vn 0.5814 -0.8002 -0.1472
vn 0.9276 -0.1792 -0.3278
vn -0.5601 0.8235 0.0905
vn -0.1877 -0.8620 -0.4709
vn -0.3868 -0.9039 0.1827
vn 0.2581 0.7032 0.6625
vn -0.4099 0.8106 -0.4182
vn -0.9465 0.1418 0.2899
vn 0.3608 -0.8442 0.3965
vn 0.0796 -0.7862 -0.6128
vn 0.0513 0.8503 -0.5238
vn -0.1564 0.5945 0.7887
vn -0.0617 -0.8817 0.4677
vn -0.2297 0.8098 -0.5400
vn 0.0738 0.6594 0.7482
vn -0.0474 -0.8209 -0.5691
vn 0.1968 -0.8328 0.5174
vn -0.6939 -0.4763 0.5401
vn 0.3445 0.7899 -0.5074
vn 0.5352 -0.4134 -0.7367
vn -0.3388 0.8617 0.3776
vn -0.6220 -0.2159 0.7526
vn -0.1629 -0.9720 0.1692
vn -0.8244 -0.1151 -0.5542
vn -0.7217 0.2816 0.6323
vn -0.9746 0.2239 0.0072
vn 0.4346 0.2791 0.8563
vn 0.4258 0.0756 -0.9017
vn -0.7596 0.1345 -0.6364
vn 0.9854 0.1697 -0.0157
vn 0.4735 0.0636 -0.8785
vn -0.7015 0.2758 -0.6572
vn -0.6966 0.1724 0.6965
vn 0.3793 -0.0563 0.9236
vn 0.9915 -0.1302 -0.0074
vn -0.9656 0.2599 0.0007
vn -0.5626 -0.1570 -0.8117
vn 0.4109 -0.0615 -0.9096
vn 0.8212 0.1346 0.5545
vn -0.5712 0.0212 0.8205
vn -0.9947 -0.1027 -0.0001
vn -0.0488 0.9971 -0.0577
vn 0.1785 0.0404 0.9831
vn -0.5187 0.7389 -0.4300
vn 0.4723 -0.7496 0.4637
vn 0.2903 -0.8260 -0.4832
vn -0.2182 -0.0793 -0.9727
vn -0.3096 0.7761 0.5494
vn -0.6370 -0.7218 0.2705
vn 0.0568 -0.9967 0.0574
vn -0.1834 -0.8666 -0.4641
vn 0.1216 0.0083 0.9925
vn -0.4388 0.7243 0.5318
vn -0.6077 0.6732 -0.4213
vn 0.7879 -0.6128 -0.0610
vn 0.5997 -0.7986 -0.0516
vn 0.0626 -0.8049 -0.5901
vn 0.1250 0.0755 -0.9893
vn -0.3652 -0.2564 0.8949
vn 0.4885 0.8724 -0.0164
vn 0.7640 0.4034 0.5035
s off
f 59/1/1 58/2/1 1/3/1 2/4/1
f 60/5/2 59/1/2 2/4/2 3/6/2
f 61/7/3 60/5/3 3/6/3 4/8/3
f 58/2/4 63/9/4 6/10/4 1/3/4
f 62/11/5 61/12/5 4/13/5 5/14/5
f 63/9/6 62/11/6 5/14/6 6/10/6
f 1/3/7 6/10/7 11/15/7 7/16/7
f 5/14/8 4/13/8 10/17/8
f 6/10/9 5/14/9 10/17/9 11/15/9
f 2/4/10 1/3/10 7/16/10 8/18/10
f 12/19/11 4/20/11 15/21/11 16/22/11
f 4/23/12 12/24/12 9/25/12 10/26/12
f 3/27/13 2/28/13 13/29/13 14/30/13
f 2/28/14 12/19/14 16/22/14 13/29/14
f 12/24/15 2/4/15 8/18/15 9/25/15
f 4/20/16 3/31/16 14/32/16 15/21/16
f 16/22/17 15/21/17 19/33/17 20/34/17
f 13/29/18 16/22/18 20/34/18 17/35/18
f 14/30/19 13/29/19 17/35/19 18/36/19
f 15/21/20 14/32/20 18/37/20 19/33/20
f 17/35/21 20/34/21 24/38/21 21/39/21
f 18/36/22 17/35/22 21/39/22 22/40/22
f 20/34/23 19/33/23 23/41/23 24/38/23
f 19/33/24 18/37/24 22/42/24 23/41/24
f 23/43/25 22/44/25 21/45/25 24/46/25
f 7/16/26 11/15/26 28/47/26 25/48/26
f 11/15/27 10/17/27 27/49/27 28/47/27
f 8/18/28 7/16/28 25/48/28 26/50/28
f 9/25/29 8/18/29 26/50/29 27/51/29
f 10/26/30 9/25/30 27/51/30
f 26/52/31 25/53/31 28/54/31 27/55/31
f 39/56/32 38/57/32 31/58/32 30/59/32
f 38/57/33 37/60/33 32/61/33 31/58/33
f 40/62/34 39/56/34 30/59/34 29/63/34
f 45/64/35 46/65/35 35/66/35 36/67/35
f 37/68/36 36/67/36 33/69/36 32/70/36
f 35/66/37 40/62/37 29/63/37 34/71/37
f 36/67/38 35/66/38 34/71/38 33/69/38
f 44/72/39 45/64/39 36/67/39 37/68/39
f 42/73/40 43/74/40 38/57/40 39/56/40
f 41/75/41 42/73/41 39/56/41 40/62/41
f 46/65/42 41/75/42 40/62/42 35/66/42
f 43/74/43 44/76/43 37/60/43 38/57/43
f 45/64/44 44/72/44 48/77/44 49/78/44
f 46/65/45 45/64/45 49/78/45 50/79/45
f 46/80/46 50/81/46 51/82/46 42/83/46
f 43/74/47 42/73/47 51/84/47 47/85/47
f 44/76/48 43/74/48 47/85/48 48/86/48
f 50/81/49 49/87/49 51/82/49
f 54/88/50 53/89/50 59/90/50 60/91/50
f 52/92/51 57/93/51 63/94/51 58/95/51
f 55/96/52 54/88/52 60/91/52 61/97/52
f 56/98/53 55/99/53 61/100/53 62/101/53
f 57/93/54 56/98/54 62/101/54 63/94/54
f 53/89/55 52/92/55 58/95/55 59/90/55
f 47/102/56 54/103/56 55/104/56
f 48/105/57 47/102/57 55/104/57
f 55/106/58 56/107/58 48/108/58
f 54/103/59 47/102/59 53/109/59
f 52/110/60 53/111/60 65/112/60 64/113/60
f 57/114/61 52/110/61 64/113/61 66/115/61
f 64/116/62 65/117/62 66/118/62
f 53/119/63 57/120/63 66/118/63 65/117/63
f 48/108/64 56/107/64 49/121/64
f 56/107/65 57/122/65 49/121/65
f 47/102/66 51/123/66 53/109/66
f 53/119/67 51/124/67 49/125/67 57/120/67
f 42/83/68 41/126/68 46/80/68
