# Blender v2.78 (sub 0) OBJ File: 'Low_Poly_Trees_Pack.blend'
# www.blender.org
g Apple_Tree_NoLeaves_crk_m_03
v -0.972196 0.209315 -1.182638
v -1.116932 0.309104 -1.007373
v -1.564655 0.167115 -1.584630
v -1.630346 0.239440 -1.502137
v -1.635292 -0.005220 -1.486989
v -1.721285 0.057315 -1.414877
v -1.708661 0.184540 -1.417261
v -0.594889 0.064141 -0.774605
v -1.577279 0.039890 -1.582247
v -2.443921 0.092495 -2.174429
v -2.479980 0.192565 -2.113396
v -2.484051 0.116898 -2.114943
v -2.437334 0.214927 -2.171926
v -2.397599 0.153975 -2.199645
v -3.329924 -0.004777 -2.441122
v -3.344940 0.036284 -2.416234
v -3.344631 0.005200 -2.415609
v -3.330425 0.045519 -2.442133
v -3.321145 0.020142 -2.457515
v -4.301778 0.047604 -3.116079
v -4.308349 0.051018 -3.109585
v -4.298958 0.063140 -3.113925
v -4.295974 0.055096 -3.118761
v -2.507082 0.133409 -2.234823
v -2.368347 0.104636 -2.461649
v -2.362321 0.183179 -2.459509
v -2.343183 0.143901 -2.458106
v -2.418924 0.131671 -2.474979
v -2.454974 0.011380 -2.986356
v -2.446344 0.089481 -2.980372
v -2.429073 0.050241 -2.988913
v -2.506206 0.039378 -2.978736
v -2.192280 0.004638 -3.915824
v -2.190620 0.026801 -3.915313
v -2.185223 0.015729 -3.914698
v -2.206445 0.012224 -3.920027
v -0.439513 0.062331 -0.230707
v -0.291125 -0.037389 -0.408288
v -0.785783 0.230019 -0.536856
v 0.020336 0.000000 0.293271
v 0.209828 0.000000 0.082426
v 0.205085 0.000000 -0.194504
v -0.189825 0.000000 -0.204769
v -0.277438 0.000000 0.031498
v 0.079989 0.825484 0.202181
v 0.274543 0.797691 0.070503
v 0.214691 0.808307 -0.153823
v 0.228963 1.671612 0.134458
v 0.355332 1.655318 0.049197
v 0.315978 1.673550 -0.097817
v 0.165469 1.701391 -0.103573
v 0.111343 1.700399 0.040687
v 0.555673 2.306681 0.156026
v 0.638459 2.263914 0.088039
v 0.620770 2.303471 -0.018858
v 0.527050 2.370685 -0.016938
v 0.465785 2.305117 0.085636
v 1.271891 2.646061 0.227230
v 1.301697 2.600021 0.178036
v 1.299375 2.632631 0.112011
v 1.268132 2.698825 0.120398
v 1.251146 2.707126 0.191607
v -0.124894 0.926136 0.141775
v 0.010750 0.884613 -0.184327
v 0.012443 0.000000 -0.303746
v -0.219602 0.000000 0.256850
v -0.223530 0.482430 0.109632
v -0.095441 0.436667 0.213416
v 0.159974 0.380158 -0.185169
v 0.232052 0.372525 0.076248
v 0.056660 0.390695 0.215716
v 0.001887 0.444219 -0.268728
v 2.544300 3.874415 0.482146
v 2.538210 3.878648 0.476809
v 2.549478 3.874267 0.468300
v 2.551264 3.871707 0.476887
v 2.125451 3.086172 0.358100
v 2.151161 3.068179 0.333875
v 2.147561 3.084464 0.297910
v 2.119628 3.112523 0.299908
v 2.105961 3.113578 0.337107
v 0.622395 2.426885 0.105034
v 0.233386 2.706488 0.336134
v 0.216205 2.761720 0.243278
v 0.186340 2.705584 0.292242
v 0.272242 2.775974 0.306424
v 0.086951 3.443109 0.714182
v 0.077129 3.464348 0.660767
v 0.057233 3.455257 0.697301
v 0.118845 3.455807 0.682694
v 0.325853 4.335345 0.844551
v 0.321091 4.345593 0.822585
v 0.312854 4.338868 0.837155
v 0.338721 4.344253 0.832534
v -0.070092 1.053551 -0.210507
v -0.154622 1.052543 0.022897
v -0.133610 0.482882 -0.225620
vt 0.3183 0.7602
vt 0.3186 0.7948
vt 0.3161 0.7944
vt 0.3133 0.7605
vt 0.3244 0.7803
vt 0.3292 0.7810
vt 0.3263 0.7952
vt 0.3237 0.7948
vt 0.3288 0.7960
vt 0.3355 0.7713
vt 0.3406 0.7629
vt 0.3312 0.7963
vt 0.3217 0.7693
vt 0.3211 0.7947
vt 0.3215 0.8151
vt 0.3201 0.8151
vt 0.3242 0.8160
vt 0.3229 0.8150
vt 0.3186 0.8153
vt 0.3257 0.8166
vt 0.3201 0.8352
vt 0.3195 0.8351
vt 0.3182 0.8347
vt 0.3176 0.8347
vt 0.3335 0.8585
vt 0.3322 0.8594
vt 0.3316 0.8535
vt 0.3326 0.8534
vt 0.3226 0.8172
vt 0.3189 0.8349
vt 0.3169 0.8346
vt 0.3149 0.8592
vt 0.3145 0.8591
vt 0.3133 0.8588
vt 0.3141 0.8588
vt 0.3137 0.8588
vt 0.3336 0.8138
vt 0.3337 0.8139
vt 0.3334 0.8139
vt 0.3334 0.8138
vt 0.3304 0.8533
vt 0.3301 0.8427
vt 0.3312 0.8425
vt 0.3304 0.8586
vt 0.3321 0.8424
vt 0.3282 0.8594
vt 0.3287 0.8535
vt 0.3271 0.8585
vt 0.3279 0.8534
vt 0.3287 0.8427
vt 0.3279 0.8425
vt 0.3290 0.8232
vt 0.3294 0.8232
vt 0.3298 0.8232
vt 0.3301 0.8232
vt 0.3418 0.8147
vt 0.3420 0.8146
vt 0.3422 0.8149
vt 0.3417 0.8149
vt 0.3305 0.8232
vt 0.6994 0.7719
vt 0.6982 0.7881
vt 0.6713 0.7864
vt 0.6722 0.7748
vt 0.7221 0.7763
vt 0.7211 0.7881
vt 0.2995 0.7681
vt 0.2986 0.7765
vt 0.2942 0.7764
vt 0.2941 0.7680
vt 0.2854 0.7783
vt 0.2786 0.7802
vt 0.2781 0.7764
vt 0.2830 0.7757
vt 0.2896 0.7765
vt 0.2896 0.7680
vt 0.2912 0.7942
vt 0.2879 0.7943
vt 0.2945 0.7944
vt 0.2976 0.7943
vt 0.2850 0.7954
vt 0.2905 0.8085
vt 0.2886 0.8105
vt 0.2976 0.8099
vt 0.2950 0.8097
vt 0.2927 0.8092
vt 0.3008 0.7940
vt 0.2999 0.8097
vt 0.2960 0.8266
vt 0.2946 0.8262
vt 0.2931 0.8260
vt 0.2916 0.8258
vt 0.2882 0.8087
vt 0.2905 0.8113
vt 0.2902 0.8258
vt 0.2887 0.8258
vt 0.3026 0.7778
vt 0.3029 0.7694
vt 0.3034 0.7610
vt 0.3076 0.7615
vt 0.3055 0.7703
vt 0.2866 0.7688
vt 0.2844 0.7602
vt 0.2890 0.7602
vt 0.3041 0.7810
vt 0.2994 0.7608
vt 0.2942 0.7607
vt 0.2834 0.7698
vt 0.2800 0.7610
vt 0.2833 0.7809
vt 0.3085 0.8114
vt 0.3117 0.8110
vt 0.3101 0.8219
vt 0.3084 0.8222
vt 0.2908 0.8453
vt 0.2916 0.8454
vt 0.2890 0.8634
vt 0.2887 0.8633
vt 0.2893 0.8452
vt 0.2901 0.8452
vt 0.2884 0.8633
vt 0.2881 0.8633
vt 0.3457 0.8102
vt 0.3457 0.8100
vt 0.3460 0.8100
vt 0.3459 0.8102
vt 0.2885 0.8452
vt 0.2878 0.8633
vt 0.2923 0.8456
vt 0.3054 0.8218
vt 0.3067 0.8217
vt 0.3075 0.8395
vt 0.3068 0.8396
vt 0.3038 0.8117
vt 0.3059 0.8110
vt 0.3084 0.8395
vt 0.3141 0.8120
vt 0.3118 0.8219
vt 0.3093 0.8395
vt 0.3101 0.8396
vt 0.3089 0.8578
vt 0.3086 0.8579
vt 0.3082 0.8580
vt 0.3383 0.8064
vt 0.3380 0.8065
vt 0.3379 0.8061
vt 0.3383 0.8061
vt 0.3079 0.8578
vt 0.3076 0.8578
vt 0.6876 0.8225
vt 0.6713 0.8226
vt 0.6728 0.7998
vt 0.6846 0.7996
vt 0.6830 0.8494
vt 0.6713 0.8496
vn -0.2849 -0.9036 0.3198
vn 0.2347 0.8860 -0.4000
vn 0.3641 -0.8141 -0.4525
vn -0.6834 -0.0094 0.7300
vn -0.4435 0.8041 0.3959
vn 0.5828 -0.3352 -0.7403
vn -0.2548 0.9246 0.2832
vn 0.5504 -0.2866 -0.7842
vn -0.6705 0.0582 0.7396
vn 0.3967 0.7507 -0.5283
vn -0.3645 -0.8735 0.3228
vn -0.0046 -0.9908 -0.1355
vn -0.0090 -0.9290 0.3699
vn -0.2395 0.9513 0.1939
vn 0.8193 -0.5398 0.1931
vn 0.1546 0.5253 -0.8368
vn -0.3306 0.0035 0.9438
vn -0.2224 -0.9432 0.2468
vn -0.5840 0.0105 0.8117
vn 0.4369 -0.5941 -0.6754
vn 0.4727 0.5766 -0.6664
vn -0.2705 0.8741 0.4035
vn -0.6266 0.2175 -0.7484
vn -0.4725 -0.8499 0.2332
vn 0.2873 -0.6171 -0.7326
vn -0.4325 -0.8887 -0.1518
vn 0.8366 -0.5463 -0.0400
vn -0.6287 0.7393 -0.2413
vn 0.8685 0.4655 0.1702
vn 0.9015 0.3711 0.2227
vn -0.4792 -0.8683 -0.1283
vn 0.8777 0.4268 -0.2178
vn -0.6553 0.7549 -0.0275
vn 0.2528 -0.0628 -0.9655
vn 0.2338 0.0600 -0.9704
vn -0.6283 0.7457 -0.2217
vn 0.8145 -0.5307 0.2342
vn 0.4785 0.8623 -0.1658
vn 0.4987 0.8554 -0.1396
vn 0.9591 -0.1013 -0.2643
vn 0.8375 0.4591 0.2963
vn 0.5888 -0.0270 0.8079
vn -0.3638 0.1817 0.9136
vn 0.5568 -0.0317 0.8301
vn 0.9598 -0.0961 -0.2639
vn -0.8313 0.4936 -0.2555
vn 0.8761 -0.3887 -0.2853
vn -0.5743 0.2741 0.7714
vn 0.0541 0.0989 -0.9936
vn 0.5110 -0.2899 0.8092
vn 0.1046 0.1736 -0.9792
vn 0.2353 -0.6524 0.7205
vn -0.3807 0.9124 -0.1502
vn 0.4599 -0.7993 -0.3868
vn -0.8989 0.2160 -0.3813
vn 0.1197 0.0623 -0.9909
vn 0.3342 0.1004 -0.9371
vn -0.3843 0.0330 -0.9226
vn -0.0785 0.1591 0.9841
vn -0.1363 0.0900 0.9866
vn 0.0151 0.0969 -0.9952
vn 0.4914 0.0798 -0.8673
vn 0.6930 0.0259 0.7205
vn 0.9896 0.0307 -0.1408
vn -0.8525 0.1462 0.5019
vn -0.7621 0.1234 0.6356
vn 0.3866 0.7114 -0.5869
vn 0.8801 -0.3897 -0.2712
vn -0.5838 0.1857 0.7903
vn 0.4624 0.8715 0.1636
vn -0.7309 0.5053 -0.4588
vn -0.3343 0.3954 0.8555
vn 0.1175 0.1814 -0.9764
vn 0.2214 -0.6458 0.7307
vn -0.3958 0.8986 -0.1895
vn 0.4977 -0.7705 -0.3983
vn 0.4765 -0.3783 0.7936
vn 0.0943 0.1638 -0.9820
vn -0.5918 -0.4589 0.6627
vn -0.3145 0.4730 0.8230
vn -0.4814 -0.6475 0.5908
vn 0.7536 -0.1775 0.6329
vn -0.7594 -0.2016 -0.6186
vn 0.5398 0.0569 0.8399
vn -0.8699 0.3116 -0.3824
vn 0.4768 0.0297 -0.8785
vn 0.5517 0.5000 -0.6675
vn -0.8891 0.0900 -0.4488
vn -0.0786 0.8393 0.5379
vn -0.1295 0.9261 0.3543
vn 0.7353 -0.2861 0.6144
vn -0.4928 0.0048 0.8701
vn -0.9475 0.1255 -0.2942
vn -0.9520 0.0922 -0.2918
s off
f 37/1/1 6/2/1 5/3/1 38/4/1
f 2/5/2 1/6/2 3/7/2 4/8/2
f 9/9/3 8/10/3 38/11/3 5/12/3
f 39/13/4 7/14/4 6/2/4 37/1/4
f 2/5/5 4/8/5 7/14/5 39/13/5
f 3/7/6 1/6/6 8/10/6 9/9/6
f 7/14/7 4/8/7 13/15/7 11/16/7
f 3/7/8 9/9/8 10/17/8 14/18/8
f 6/2/9 7/14/9 11/16/9 12/19/9
f 4/8/10 3/7/10 14/18/10 13/15/10
f 6/2/11 12/19/11 5/3/11
f 9/9/12 5/12/12 12/20/12 10/17/12
f 10/17/13 12/20/13 17/21/13 15/22/13
f 11/16/14 13/15/14 18/23/14 16/24/14
f 14/25/15 10/26/15 25/27/15 27/28/15
f 13/15/16 24/29/16 19/30/16 18/23/16
f 12/19/17 11/16/17 16/24/17 17/31/17
f 15/22/18 17/21/18 21/32/18 20/33/18
f 17/31/19 16/24/19 21/34/19
f 19/30/20 15/22/20 20/33/20 23/35/20
f 18/23/21 19/30/21 23/35/21 22/36/21
f 16/24/22 18/23/22 22/36/22 21/34/22
f 20/37/23 21/38/23 22/39/23 23/40/23
f 25/27/24 28/41/24 32/42/24 29/43/24
f 24/29/25 10/17/25 15/22/25 19/30/25
f 10/26/26 24/44/26 28/41/26 25/27/26
f 27/28/27 25/27/27 29/43/27 31/45/27
f 24/44/28 13/46/28 26/47/28 28/41/28
f 13/46/29 14/48/29 27/49/29 26/47/29
f 30/50/30 31/51/30 35/52/30 34/53/30
f 29/43/31 32/42/31 36/54/31 33/55/31
f 26/47/32 27/49/32 31/51/32 30/50/32
f 28/41/33 26/47/33 30/50/33 32/42/33
f 35/56/34 33/57/34 36/58/34
f 36/58/35 34/59/35 35/56/35
f 32/42/36 30/50/36 34/53/36 36/54/36
f 31/45/37 29/43/37 33/55/37 35/60/37
f 39/61/38 8/62/38 1/63/38 2/64/38
f 37/65/39 38/66/39 8/62/39 39/61/39
f 69/67/40 47/68/40 46/69/40 70/70/40
f 63/71/41 64/72/41 95/73/41 96/74/41
f 70/70/42 46/69/42 45/75/42 71/76/42
f 45/75/43 48/77/43 52/78/43 63/71/43
f 46/69/44 49/79/44 48/77/44 45/75/44
f 47/68/45 50/80/45 49/79/45 46/69/45
f 51/81/46 52/78/46 57/82/46 56/83/46
f 49/79/47 50/80/47 55/84/47 54/85/47
f 52/78/48 48/77/48 53/86/48 57/82/48
f 50/80/49 51/87/49 56/88/49 55/84/49
f 48/77/50 49/79/50 54/85/50 53/86/50
f 55/84/51 56/88/51 61/89/51 60/90/51
f 53/86/52 54/85/52 59/91/52 58/92/52
f 56/93/53 82/94/53 62/95/53 61/96/53
f 54/85/54 55/84/54 60/90/54 59/91/54
f 64/72/55 63/71/55 52/78/55 51/81/55
f 47/68/56 64/97/56 51/87/56 50/80/56
f 72/98/57 64/97/57 47/68/57 69/67/57
f 72/98/58 65/99/58 43/100/58 97/101/58
f 68/102/59 66/103/59 40/104/59 71/76/59
f 63/71/60 68/102/60 71/76/60 45/75/60
f 64/97/61 72/98/61 97/101/61 95/105/61
f 65/99/62 72/98/62 69/67/62 42/106/62
f 41/107/63 70/70/63 71/76/63 40/104/63
f 42/106/64 69/67/64 70/70/64 41/107/64
f 66/103/65 68/102/65 67/108/65 44/109/65
f 96/110/66 67/108/66 68/102/66 63/71/66
f 82/111/67 56/112/67 84/113/67 86/114/67
f 78/115/68 79/116/68 75/117/68 76/118/68
f 81/119/69 77/120/69 73/121/69 74/122/69
f 76/123/70 75/124/70 74/125/70 73/126/70
f 80/127/71 81/119/71 74/122/71 75/128/71
f 62/95/72 58/92/72 77/120/72 81/119/72
f 60/90/73 61/89/73 80/129/73 79/116/73
f 58/92/74 59/91/74 78/115/74 77/120/74
f 61/96/75 62/95/75 81/119/75 80/127/75
f 59/91/76 60/90/76 79/116/76 78/115/76
f 77/120/77 78/115/77 76/118/77 73/121/77
f 79/116/78 80/129/78 75/117/78
f 85/130/79 83/131/79 87/132/79 89/133/79
f 82/94/80 53/86/80 58/92/80 62/95/80
f 57/134/81 53/135/81 83/131/81 85/130/81
f 83/131/82 86/114/82 90/136/82 87/132/82
f 56/112/83 57/137/83 85/138/83 84/113/83
f 53/135/84 82/111/84 86/114/84 83/131/84
f 88/139/85 89/140/85 93/141/85 92/142/85
f 90/136/86 88/139/86 92/142/86 94/143/86
f 86/114/87 84/113/87 88/139/87 90/136/87
f 84/113/88 85/138/88 89/140/88 88/139/88
f 93/144/89 91/145/89 94/146/89
f 94/146/90 92/147/90 93/144/90
f 87/132/91 90/136/91 94/143/91 91/148/91
f 89/133/92 87/132/92 91/148/92 93/149/92
f 67/150/93 97/151/93 43/152/93 44/153/93
f 96/154/94 95/155/94 97/151/94 67/150/94
