# Blender v2.78 (sub 0) OBJ File: 'Low_Poly_Trees_Pack.blend'
# www.blender.org
g Apple_Tree_NoLeaves_m_05
v 0.000000 0.000000 -0.224640
v -0.218126 0.000000 -0.066097
v -0.134809 0.000000 0.190276
v 0.134809 0.000000 0.190260
v 0.218126 0.000000 -0.066163
v -0.030936 0.390809 -0.160587
v -0.188528 0.377654 -0.044644
v -0.128333 0.382679 0.140817
v 0.066462 0.398940 0.139560
v 0.126657 0.403965 -0.046696
v -0.537565 2.129918 0.066933
v -0.631940 2.039452 0.140521
v -0.602853 2.121759 0.268957
v -0.472276 2.138076 0.269799
v -0.431926 2.143118 0.144942
v -0.056542 1.199681 0.047615
v -0.104185 1.190947 0.199498
v -0.258360 1.162683 0.203430
v -0.306002 1.153948 0.053814
v -0.181272 1.176815 -0.042734
v -0.669337 3.352193 0.109472
v -0.732486 3.338210 0.158345
v -0.708365 3.343551 0.233153
v -0.630310 3.360834 0.230592
v -0.606189 3.366175 0.154163
v -1.249115 4.709774 0.058936
v -1.278039 4.698628 0.081457
v -1.266991 4.702886 0.117896
v -1.231240 4.716664 0.117896
v -0.624098 2.242396 0.152290
v -0.867904 2.400880 0.112491
v -0.946718 2.388966 0.154710
v -0.905884 2.419067 0.233098
v -0.872767 2.485953 0.164001
v -1.570625 2.748779 -0.141983
v -1.619865 2.751200 -0.118482
v -1.591538 2.765468 -0.067950
v -1.563605 2.801503 -0.111813
v -1.864606 3.305855 -0.319852
v -1.874361 3.311134 -0.314607
v -1.867225 3.311782 -0.303465
v -1.858241 3.316157 -0.313299
v -1.278643 5.740196 0.075073
v -1.292671 5.740084 0.085265
v -1.287313 5.740127 0.101756
v -1.269974 5.740265 0.101756
vt 0.4372 0.7680
vt 0.4374 0.7743
vt 0.4342 0.7745
vt 0.4333 0.7687
vt 0.4488 0.7709
vt 0.4462 0.7759
vt 0.4434 0.7749
vt 0.4451 0.7691
vt 0.4412 0.7681
vt 0.4404 0.7744
vt 0.4312 0.7749
vt 0.4295 0.7696
vt 0.4392 0.7866
vt 0.4369 0.7866
vt 0.4346 0.7868
vt 0.4323 0.7868
vt 0.4414 0.7869
vt 0.4380 0.8019
vt 0.4360 0.8019
vt 0.4340 0.8021
vt 0.4320 0.8010
vt 0.4400 0.8022
vt 0.4437 0.7875
vt 0.4422 0.8017
vt 0.4382 0.8203
vt 0.4371 0.8202
vt 0.4360 0.8202
vt 0.4348 0.8202
vt 0.4414 0.8042
vt 0.4394 0.8205
vt 0.4487 0.8009
vt 0.4510 0.8023
vt 0.4510 0.8075
vt 0.4496 0.8073
vt 0.4336 0.8203
vt 0.4352 0.8429
vt 0.4346 0.8429
vt 0.4367 0.8430
vt 0.4358 0.8430
vt 0.4373 0.8429
vt 0.4359 0.8592
vt 0.4356 0.8592
vt 0.4523 0.8068
vt 0.4534 0.8076
vt 0.4532 0.8194
vt 0.4525 0.8190
vt 0.4324 0.8039
vt 0.4521 0.8002
vt 0.4542 0.8004
vt 0.4516 0.8194
vt 0.4463 0.8009
vt 0.4484 0.8078
vt 0.4499 0.8196
vt 0.4507 0.8191
vt 0.4516 0.8290
vt 0.4515 0.8291
vt 0.4518 0.8290
vt 0.4548 0.7959
vt 0.4546 0.7960
vt 0.4546 0.7958
vt 0.4549 0.7957
vt 0.4520 0.8290
vt 0.4522 0.8291
vt 0.4546 0.7841
vt 0.4546 0.7839
vt 0.4549 0.7838
vt 0.4549 0.7842
vt 0.4366 0.8592
vt 0.4363 0.8592
vt 0.4353 0.8592
vn -0.0017 0.1270 0.9919
vn -0.5896 0.0883 -0.8028
vn 0.9319 0.1973 0.3044
vn -0.9498 0.0564 0.3078
vn 0.5742 0.1725 -0.8004
vn 0.9353 0.1787 0.3055
vn -0.9341 -0.1804 0.3080
vn 0.5523 0.2242 -0.8030
vn 0.0242 -0.0731 0.9970
vn 0.8962 0.3257 0.3012
vn -0.8696 -0.3452 0.3530
vn 0.5339 0.2926 -0.7933
vn 0.0207 -0.0633 0.9978
vn -0.5679 -0.1238 -0.8138
vn 0.5762 0.0893 -0.8124
vn 0.0032 0.0310 0.9995
vn -0.6867 -0.0560 -0.7247
vn 0.9420 0.1318 0.3085
vn 0.5377 0.5760 0.6158
vn -0.8883 -0.3387 0.3101
vn 0.7210 0.3008 -0.6242
vn -0.0004 0.0835 0.9965
vn -0.5453 -0.2631 -0.7959
vn 0.8624 0.4072 0.3006
vn -0.0041 0.0155 0.9999
vn -0.6019 0.0074 -0.7985
vn -0.2151 -0.8157 -0.5369
vn -0.9799 -0.0881 0.1791
vn -0.3883 -0.3205 -0.8640
vn 0.4942 0.4376 -0.7512
vn -0.6240 -0.5784 0.5254
vn 0.5085 0.6368 -0.5795
vn -0.8296 -0.1933 0.5238
vn 0.4509 0.5363 0.7135
vn 0.0583 0.7220 0.6894
vn -0.5573 -0.6462 0.5214
vn -0.3050 0.9419 0.1405
vn -0.1165 0.5833 -0.8038
vn 0.7604 0.1988 -0.6183
vn -0.4354 -0.4707 -0.7674
vn -0.0080 1.0000 0.0000
vn -0.6050 -0.0052 -0.7962
vn 0.9540 0.0317 -0.2983
vn -0.9547 -0.0143 0.2971
s off
f 4/1/1 9/2/1 8/3/1 3/4/1
f 2/5/2 7/6/2 6/7/2 1/8/2
f 5/9/3 10/10/3 9/2/3 4/1/3
f 3/4/4 8/3/4 7/11/4 2/12/4
f 1/8/5 6/7/5 10/10/5 5/9/5
f 16/13/6 17/14/6 9/2/6 10/10/6
f 18/15/7 19/16/7 7/11/7 8/3/7
f 20/17/8 16/13/8 10/10/8 6/7/8
f 9/2/9 17/14/9 18/15/9 8/3/9
f 17/14/10 16/13/10 15/18/10 14/19/10
f 19/16/11 18/15/11 13/20/11 12/21/11
f 16/13/12 20/17/12 11/22/12 15/18/12
f 18/15/13 17/14/13 14/19/13 13/20/13
f 20/17/14 19/23/14 12/24/14 11/22/14
f 15/18/15 11/22/15 21/25/15 25/26/15
f 13/20/16 14/19/16 24/27/16 23/28/16
f 11/22/17 30/29/17 22/30/17 21/25/17
f 14/19/18 15/18/18 25/26/18 24/27/18
f 13/31/19 30/32/19 34/33/19 33/34/19
f 22/35/20 23/28/20 28/36/20 27/37/20
f 25/26/21 21/25/21 26/38/21 29/39/21
f 23/28/22 24/27/22 29/39/22 28/36/22
f 21/25/23 22/30/23 27/40/23 26/38/23
f 24/27/24 25/26/24 29/39/24
f 28/36/25 29/39/25 46/41/25 45/42/25
f 7/6/26 19/23/26 20/17/26 6/7/26
f 31/43/27 32/44/27 36/45/27 35/46/27
f 30/47/28 13/20/28 23/28/28 22/35/28
f 11/48/29 12/49/29 32/44/29 31/43/29
f 34/33/30 31/43/30 35/46/30 38/50/30
f 12/51/31 13/31/31 33/34/31 32/52/31
f 30/32/32 11/48/32 31/43/32 34/33/32
f 36/53/33 37/54/33 41/55/33 40/56/33
f 37/54/34 38/50/34 42/57/34 41/55/34
f 33/34/35 34/33/35 38/50/35 37/54/35
f 32/52/36 33/34/36 37/54/36 36/53/36
f 40/58/37 41/59/37 42/60/37
f 42/60/38 39/61/38 40/58/38
f 38/50/39 35/46/39 39/62/39 42/57/39
f 35/46/40 36/45/40 40/63/40 39/62/40
f 44/64/41 45/65/41 46/66/41 43/67/41
f 26/38/42 27/40/42 44/68/42 43/69/42
f 29/39/43 26/38/43 43/69/43 46/41/43
f 27/37/44 28/36/44 45/42/44 44/70/44
