# Blender v2.78 (sub 0) OBJ File: 'Low_Poly_Trees_Pack.blend'
# www.blender.org
g Apple_Tree_NoLeaves_m_07
v 0.020336 0.000000 0.293271
v 0.209828 0.000000 0.082426
v 0.205085 0.000000 -0.194504
v -0.189825 0.000000 -0.204769
v -0.277438 0.000000 0.031498
v 0.079989 0.825484 0.202181
v 0.274543 0.797691 0.070503
v 0.214691 0.808307 -0.153823
v -0.070092 1.053551 -0.210507
v -0.154622 1.052543 0.022897
v 0.228963 1.671612 0.134458
v 0.355332 1.655318 0.049197
v 0.315978 1.673550 -0.097817
v 0.165469 1.701391 -0.103573
v 0.111343 1.700399 0.040687
v 0.555673 2.306681 0.156026
v 0.638459 2.263914 0.088039
v 0.620770 2.303471 -0.018858
v 0.527050 2.370685 -0.016938
v 0.465785 2.305117 0.085636
v 1.271891 2.646061 0.227230
v 1.301697 2.600021 0.178036
v 1.299375 2.632631 0.112011
v 1.268132 2.698825 0.120398
v 1.251146 2.707126 0.191607
v -0.124894 0.926136 0.141775
v 0.010750 0.884613 -0.184327
v -0.263275 1.743976 -0.230003
v -0.283671 1.745752 -0.103780
v -0.466756 1.700478 -0.260443
v -0.501137 1.722282 -0.138590
v 0.012443 0.000000 -0.303746
v -0.219602 0.000000 0.256850
v -0.402602 1.734905 -0.058074
v -0.223530 0.482430 0.109632
v -0.095441 0.436667 0.213416
v 0.159974 0.380158 -0.185169
v 0.232052 0.372525 0.076248
v -0.133610 0.482882 -0.225620
v -0.361810 1.731353 -0.310519
v 0.056660 0.390695 0.215716
v 0.001887 0.444219 -0.268728
v -0.561376 2.762101 -0.263115
v -0.536320 2.761792 -0.143068
v -0.591738 2.753862 -0.194160
v -0.471708 2.774932 -0.180446
v -0.480975 2.755991 -0.255397
v 2.544300 3.874415 0.482146
v 2.538210 3.878648 0.476809
v 2.549478 3.874267 0.468300
v 2.551264 3.871707 0.476887
v 2.125451 3.086172 0.358100
v 2.151161 3.068179 0.333875
v 2.147561 3.084464 0.297910
v 2.119628 3.112523 0.299908
v 2.105961 3.113578 0.337107
v -1.059107 3.551015 -0.158367
v -1.048885 3.551151 -0.109109
v -1.071069 3.545619 -0.130180
v -1.023213 3.559965 -0.124274
v -1.029530 3.559881 -0.154717
v -1.282999 4.713299 -0.116215
v -1.287012 4.714078 -0.107254
v -1.271281 4.712259 -0.105465
v -1.273277 4.712174 -0.115109
v 0.622395 2.426885 0.105034
v 0.233386 2.706488 0.336134
v 0.216205 2.761720 0.243278
v 0.186340 2.705584 0.292242
v 0.272242 2.775974 0.306424
v 0.086951 3.443109 0.714182
v 0.077129 3.464348 0.660767
v 0.057233 3.455257 0.697301
v 0.118845 3.455807 0.682694
v 0.325853 4.335345 0.844551
v 0.321091 4.345593 0.822585
v 0.312854 4.338868 0.837155
v 0.338721 4.344253 0.832534
v -0.542279 2.854832 -0.244490
v -0.383565 2.907696 -0.452258
v -0.325253 2.914279 -0.399661
v -0.343005 2.893510 -0.433787
v -0.387151 2.957101 -0.420431
v -0.195547 3.331480 -0.713639
v -0.137712 3.333510 -0.660151
v -0.152282 3.320876 -0.699383
v -0.207672 3.367179 -0.668415
v 0.330936 3.776649 -1.390360
v 0.347406 3.778599 -1.375558
v 0.342311 3.772593 -1.385047
v 0.330140 3.790809 -1.381716
vt 0.2995 0.7681
vt 0.2986 0.7765
vt 0.2942 0.7764
vt 0.2941 0.7680
vt 0.2854 0.7783
vt 0.2786 0.7802
vt 0.2781 0.7764
vt 0.2830 0.7757
vt 0.2896 0.7765
vt 0.2896 0.7680
vt 0.2912 0.7942
vt 0.2879 0.7943
vt 0.3183 0.7602
vt 0.3186 0.7948
vt 0.3161 0.7944
vt 0.3133 0.7605
vt 0.2945 0.7944
vt 0.2976 0.7943
vt 0.2850 0.7954
vt 0.2905 0.8085
vt 0.2886 0.8105
vt 0.2976 0.8099
vt 0.2950 0.8097
vt 0.2927 0.8092
vt 0.3008 0.7940
vt 0.2999 0.8097
vt 0.2960 0.8266
vt 0.2946 0.8262
vt 0.2931 0.8260
vt 0.2916 0.8258
vt 0.2882 0.8087
vt 0.2905 0.8113
vt 0.2902 0.8258
vt 0.2887 0.8258
vt 0.3244 0.7803
vt 0.3292 0.7810
vt 0.3263 0.7952
vt 0.3237 0.7948
vt 0.3026 0.7778
vt 0.3029 0.7694
vt 0.3034 0.7610
vt 0.3076 0.7615
vt 0.3055 0.7703
vt 0.3288 0.7960
vt 0.3355 0.7713
vt 0.3406 0.7629
vt 0.3312 0.7963
vt 0.3217 0.7693
vt 0.3211 0.7947
vt 0.2866 0.7688
vt 0.2844 0.7602
vt 0.2890 0.7602
vt 0.3041 0.7810
vt 0.2994 0.7608
vt 0.2942 0.7607
vt 0.2834 0.7698
vt 0.2800 0.7610
vt 0.2833 0.7809
vt 0.3215 0.8151
vt 0.3201 0.8151
vt 0.3242 0.8160
vt 0.3229 0.8150
vt 0.3186 0.8153
vt 0.3085 0.8114
vt 0.3117 0.8110
vt 0.3101 0.8219
vt 0.3084 0.8222
vt 0.2908 0.8453
vt 0.2916 0.8454
vt 0.2890 0.8634
vt 0.2887 0.8633
vt 0.2893 0.8452
vt 0.2901 0.8452
vt 0.2884 0.8633
vt 0.2881 0.8633
vt 0.3457 0.8102
vt 0.3457 0.8100
vt 0.3460 0.8100
vt 0.3459 0.8102
vt 0.2885 0.8452
vt 0.2878 0.8633
vt 0.2923 0.8456
vt 0.3257 0.8166
vt 0.3201 0.8352
vt 0.3195 0.8351
vt 0.3182 0.8347
vt 0.3176 0.8347
vt 0.3335 0.8585
vt 0.3322 0.8594
vt 0.3316 0.8535
vt 0.3326 0.8534
vt 0.3226 0.8172
vt 0.3189 0.8349
vt 0.3169 0.8346
vt 0.3149 0.8592
vt 0.3145 0.8591
vt 0.3133 0.8588
vt 0.3141 0.8588
vt 0.3137 0.8588
vt 0.3336 0.8138
vt 0.3337 0.8139
vt 0.3334 0.8139
vt 0.3334 0.8138
vt 0.3054 0.8218
vt 0.3067 0.8217
vt 0.3075 0.8395
vt 0.3068 0.8396
vt 0.3038 0.8117
vt 0.3059 0.8110
vt 0.3084 0.8395
vt 0.3141 0.8120
vt 0.3118 0.8219
vt 0.3093 0.8395
vt 0.3101 0.8396
vt 0.3089 0.8578
vt 0.3086 0.8579
vt 0.3082 0.8580
vt 0.3383 0.8064
vt 0.3380 0.8065
vt 0.3379 0.8061
vt 0.3383 0.8061
vt 0.3079 0.8578
vt 0.3076 0.8578
vt 0.3304 0.8533
vt 0.3301 0.8427
vt 0.3312 0.8425
vt 0.3304 0.8586
vt 0.3321 0.8424
vt 0.3282 0.8594
vt 0.3287 0.8535
vt 0.3271 0.8585
vt 0.3279 0.8534
vt 0.3287 0.8427
vt 0.3279 0.8425
vt 0.3290 0.8232
vt 0.3294 0.8232
vt 0.3298 0.8232
vt 0.3301 0.8232
vt 0.3418 0.8147
vt 0.3420 0.8146
vt 0.3422 0.8149
vt 0.3417 0.8149
vt 0.3305 0.8232
vn 0.9591 -0.1013 -0.2643
vn 0.8375 0.4591 0.2963
vn 0.5888 -0.0270 0.8079
vn -0.3638 0.1817 0.9136
vn -0.9376 -0.1576 -0.3098
vn 0.5568 -0.0317 0.8301
vn 0.9598 -0.0961 -0.2639
vn -0.8313 0.4936 -0.2555
vn 0.8761 -0.3887 -0.2853
vn -0.5743 0.2741 0.7714
vn 0.0541 0.0989 -0.9936
vn 0.5110 -0.2899 0.8092
vn 0.1046 0.1736 -0.9792
vn 0.2353 -0.6524 0.7205
vn -0.3807 0.9124 -0.1502
vn 0.4599 -0.7993 -0.3868
vn -0.8989 0.2160 -0.3813
vn 0.9308 0.2454 0.2710
vn 0.1197 0.0623 -0.9909
vn 0.3342 0.1004 -0.9371
vn -0.3843 0.0330 -0.9226
vn -0.1827 -0.0780 -0.9801
vn -0.6995 -0.0136 0.7145
vn 0.1549 0.1717 0.9729
vn -0.0785 0.1591 0.9841
vn -0.1363 0.0900 0.9866
vn 0.4023 0.0382 -0.9147
vn 0.0151 0.0969 -0.9952
vn 0.4914 0.0798 -0.8673
vn 0.6930 0.0259 0.7205
vn 0.9896 0.0307 -0.1408
vn -0.8525 0.1462 0.5019
vn -0.7621 0.1234 0.6356
vn 0.3942 0.1332 0.9093
vn 0.4372 0.0989 -0.8939
vn -0.6482 -0.0187 0.7612
vn 0.9799 0.1965 0.0340
vn 0.3866 0.7114 -0.5869
vn 0.8801 -0.3897 -0.2712
vn -0.5838 0.1857 0.7903
vn 0.4624 0.8715 0.1636
vn -0.7309 0.5053 -0.4588
vn -0.3343 0.3954 0.8555
vn 0.1175 0.1814 -0.9764
vn 0.2214 -0.6458 0.7307
vn -0.3958 0.8986 -0.1895
vn 0.4977 -0.7705 -0.3983
vn 0.4765 -0.3783 0.7936
vn 0.0943 0.1638 -0.9820
vn -0.9622 -0.0982 -0.2539
vn -0.6495 -0.0598 -0.7580
vn -0.7950 -0.4477 -0.4092
vn 0.4412 0.2489 0.8622
vn -0.0007 -0.7919 -0.6106
vn 0.8012 0.5748 -0.1664
vn -0.5824 -0.4089 0.7026
vn -0.8998 -0.1584 -0.4066
vn -0.6640 -0.1371 0.7351
vn 0.1089 0.0571 -0.9924
vn 0.9573 0.2093 -0.1994
vn 0.2987 0.0542 0.9528
vn 0.1186 0.9924 -0.0332
vn -0.5918 -0.4589 0.6627
vn -0.3145 0.4730 0.8230
vn -0.4814 -0.6475 0.5908
vn 0.7536 -0.1775 0.6329
vn -0.7594 -0.2016 -0.6186
vn 0.5398 0.0569 0.8399
vn -0.8699 0.3116 -0.3824
vn 0.4768 0.0297 -0.8785
vn 0.5517 0.5000 -0.6675
vn -0.8891 0.0900 -0.4488
vn -0.0786 0.8393 0.5379
vn -0.1295 0.9261 0.3543
vn 0.7353 -0.2861 0.6144
vn -0.4928 0.0048 0.8701
vn -0.9107 0.1719 -0.3756
vn 0.0767 0.1783 -0.9810
vn -0.7962 0.2777 -0.5376
vn 0.1484 -0.5675 -0.8099
vn 0.2598 0.7229 0.6403
vn 0.7389 -0.6710 0.0613
vn 0.6799 -0.7333 0.0061
vn -0.8387 0.2844 -0.4644
vn 0.8608 -0.4835 -0.1591
vn 0.0934 0.4900 0.8667
vn 0.5056 0.4701 -0.7235
vn 0.5843 0.5063 -0.6343
vn 0.2746 0.7217 0.6354
vn -0.0212 -0.8277 -0.5608
s off
f 37/1/1 8/2/1 7/3/1 38/4/1
f 26/5/2 27/6/2 9/7/2 10/8/2
f 38/4/3 7/3/3 6/9/3 41/10/3
f 6/9/4 11/11/4 15/12/4 26/5/4
f 5/13/5 31/14/5 30/15/5 4/16/5
f 7/3/6 12/17/6 11/11/6 6/9/6
f 8/2/7 13/18/7 12/17/7 7/3/7
f 14/19/8 15/12/8 20/20/8 19/21/8
f 12/17/9 13/18/9 18/22/9 17/23/9
f 15/12/10 11/11/10 16/24/10 20/20/10
f 13/18/11 14/25/11 19/26/11 18/22/11
f 11/11/12 12/17/12 17/23/12 16/24/12
f 18/22/13 19/26/13 24/27/13 23/28/13
f 16/24/14 17/23/14 22/29/14 21/30/14
f 19/31/15 66/32/15 25/33/15 24/34/15
f 17/23/16 18/22/16 23/28/16 22/29/16
f 27/6/17 26/5/17 15/12/17 14/19/17
f 10/35/18 9/36/18 28/37/18 29/38/18
f 8/2/19 27/39/19 14/25/19 13/18/19
f 42/40/20 27/39/20 8/2/20 37/1/20
f 42/40/21 32/41/21 4/42/21 39/43/21
f 40/44/22 39/45/22 4/46/22 30/47/22
f 35/48/23 34/49/23 31/14/23 5/13/23
f 10/35/24 29/38/24 34/49/24 35/48/24
f 36/50/25 33/51/25 1/52/25 41/10/25
f 26/5/26 36/50/26 41/10/26 6/9/26
f 28/37/27 9/36/27 39/45/27 40/44/27
f 27/39/28 42/40/28 39/43/28 9/53/28
f 32/41/29 42/40/29 37/1/29 3/54/29
f 2/55/30 38/4/30 41/10/30 1/52/30
f 3/54/31 37/1/31 38/4/31 2/55/31
f 33/51/32 36/50/32 35/56/32 5/57/32
f 10/58/33 35/56/33 36/50/33 26/5/33
f 34/49/34 29/38/34 46/59/34 44/60/34
f 28/37/35 40/44/35 43/61/35 47/62/35
f 31/14/36 34/49/36 44/60/36 45/63/36
f 29/38/37 28/37/37 47/62/37 46/59/37
f 66/64/38 19/65/38 68/66/38 70/67/38
f 53/68/39 54/69/39 50/70/39 51/71/39
f 56/72/40 52/73/40 48/74/40 49/75/40
f 51/76/41 50/77/41 49/78/41 48/79/41
f 55/80/42 56/72/42 49/75/42 50/81/42
f 25/33/43 21/30/43 52/73/43 56/72/43
f 23/28/44 24/27/44 55/82/44 54/69/44
f 21/30/45 22/29/45 53/68/45 52/73/45
f 24/34/46 25/33/46 56/72/46 55/80/46
f 22/29/47 23/28/47 54/69/47 53/68/47
f 52/73/48 53/68/48 51/71/48 48/74/48
f 54/69/49 55/82/49 50/70/49
f 31/14/50 45/63/50 30/15/50
f 40/44/51 30/47/51 45/83/51 43/61/51
f 43/61/52 45/83/52 59/84/52 57/85/52
f 44/60/53 46/59/53 60/86/53 58/87/53
f 47/88/54 43/89/54 80/90/54 82/91/54
f 46/59/55 79/92/55 61/93/55 60/86/55
f 45/63/56 44/60/56 58/87/56 59/94/56
f 57/85/57 59/84/57 63/95/57 62/96/57
f 59/94/58 58/87/58 63/97/58
f 61/93/59 57/85/59 62/96/59 65/98/59
f 60/86/60 61/93/60 65/98/60 64/99/60
f 58/87/61 60/86/61 64/99/61 63/97/61
f 62/100/62 63/101/62 64/102/62 65/103/62
f 69/104/63 67/105/63 71/106/63 73/107/63
f 66/32/64 16/24/64 21/30/64 25/33/64
f 20/108/65 16/109/65 67/105/65 69/104/65
f 67/105/66 70/67/66 74/110/66 71/106/66
f 19/65/67 20/111/67 69/112/67 68/66/67
f 16/109/68 66/64/68 70/67/68 67/105/68
f 72/113/69 73/114/69 77/115/69 76/116/69
f 74/110/70 72/113/70 76/116/70 78/117/70
f 70/67/71 68/66/71 72/113/71 74/110/71
f 68/66/72 69/112/72 73/114/72 72/113/72
f 77/118/73 75/119/73 78/120/73
f 78/120/74 76/121/74 77/118/74
f 71/106/75 74/110/75 78/117/75 75/122/75
f 73/107/76 71/106/76 75/122/76 77/123/76
f 80/90/77 83/124/77 87/125/77 84/126/77
f 79/92/78 43/61/78 57/85/78 61/93/78
f 43/89/79 79/127/79 83/124/79 80/90/79
f 82/91/80 80/90/80 84/126/80 86/128/80
f 79/127/81 46/129/81 81/130/81 83/124/81
f 46/129/82 47/131/82 82/132/82 81/130/82
f 85/133/83 86/134/83 90/135/83 89/136/83
f 84/126/84 87/125/84 91/137/84 88/138/84
f 81/130/85 82/132/85 86/134/85 85/133/85
f 83/124/86 81/130/86 85/133/86 87/125/86
f 90/139/87 88/140/87 91/141/87
f 91/141/88 89/142/88 90/139/88
f 87/125/89 85/133/89 89/136/89 91/137/89
f 86/128/90 84/126/90 88/138/90 90/143/90
