# Blender v2.78 (sub 0) OBJ File: 'Low_Poly_Trees_Pack.blend'
# www.blender.org
g Apple_Tree_s_03
v 0.503792 1.386245 -0.179974
v 0.287890 1.437640 0.384246
v 0.108507 1.540900 -0.055832
v 0.201184 1.700463 -0.396736
v 0.799689 1.550393 -0.330846
v 0.911321 1.387983 0.114722
v 0.558501 1.418703 0.464077
v 0.616919 1.799210 -0.523180
v 0.216477 2.235189 -0.496579
v 0.674095 2.225152 -0.554684
v 0.340844 2.516229 -0.364833
v 0.673742 2.591767 -0.410790
v 0.959406 2.476535 -0.228831
v 1.081508 1.880424 -0.268783
v 0.515765 2.843545 0.168466
v 0.232317 2.689902 -0.131878
v 0.044471 2.582060 0.241796
v 0.413939 2.700613 0.411466
v 0.941732 2.758673 0.231049
v 1.143309 2.514472 0.394568
v 1.119972 2.508912 0.093125
v 0.662533 2.515279 0.610241
v 0.289790 2.398354 0.503141
v -0.038929 2.223953 0.248917
v 0.281645 1.873225 0.490936
v -0.017350 1.826121 0.081236
v 0.626713 1.865506 0.656092
v 0.887638 2.157339 0.577241
v 1.051145 1.807842 0.421254
v 1.098050 1.771582 -0.020966
v 1.101643 2.141152 0.167433
v 0.028501 2.370687 -0.138627
v -0.007505 1.941417 -0.255781
v 0.335492 1.431341 -0.225140
v 0.185227 1.378154 -0.597200
v 0.480742 1.765458 -0.511783
v 0.478382 1.830358 -0.140733
v 0.124883 1.624786 0.062134
v -0.080394 1.680187 -0.796355
v -0.318577 1.548963 -0.453268
v -0.224250 1.973101 -0.656806
v 0.178283 2.006407 -0.734330
v -0.304022 1.917953 -0.290743
v -0.142031 1.484636 -0.009281
v -0.127395 1.968708 -0.013234
v 0.052011 2.213630 -0.253798
v 0.318732 1.986239 -0.010223
v 0.359117 2.081883 -0.373018
v -0.056247 1.322691 -0.399558
v -1.030038 1.830086 0.327565
v -0.931573 2.056928 0.652054
v -1.124999 2.250237 0.159733
v -1.008626 2.129492 -0.182899
v -0.930975 1.800922 -0.199122
v -0.765728 1.546094 -0.044565
v -0.849182 1.613001 0.324692
v -0.759482 1.780798 0.675324
v -0.478301 1.960749 -0.506902
v -0.631556 2.263375 -0.440571
v -0.381368 2.458716 -0.346736
v -0.183496 2.228983 -0.437676
v -0.083962 1.911195 -0.219436
v -0.321211 1.558658 -0.163200
v 0.013864 2.494006 0.151416
v -0.284007 2.667921 -0.086322
v -0.404630 2.741605 0.295256
v -0.124132 2.508533 0.430782
v -0.071170 2.138065 0.605979
v 0.079663 2.001550 0.175300
v 0.051046 1.719097 0.421686
v -0.522679 2.401369 0.646100
v -0.760439 2.611398 0.400971
v -0.437713 1.883181 0.812795
v -0.347290 1.589177 0.654430
v -0.392869 1.495401 0.278339
v -0.668157 2.748123 -0.090053
v -0.999662 2.516984 -0.072301
v -1.014965 2.556031 0.268008
v 0.000000 -0.000000 -0.060002
v -0.060000 -0.000000 -0.000002
v 0.000000 -0.000000 0.059998
v 0.060000 -0.000000 -0.000002
v 0.021097 0.380142 -0.040927
v -0.019239 0.380142 -0.000590
v 0.021097 0.380142 0.039747
v 0.061434 0.380142 -0.000590
v -0.007712 0.719282 -0.009899
v -0.037742 0.719772 0.020502
v -0.007343 0.719386 0.050536
v 0.022687 0.718896 0.020135
v -0.004050 0.999484 -0.010008
v -0.044136 1.000138 0.030573
v -0.003558 0.999623 0.070664
v 0.036528 0.998968 0.030083
v -0.078667 1.150270 0.074238
v -0.092838 1.135906 0.098064
v -0.070520 1.146001 0.117423
v -0.056350 1.160365 0.093598
v -0.271880 1.288456 0.196701
v -0.257454 1.272488 0.221345
v -0.239070 1.282636 0.225669
v -0.245109 1.303235 0.202997
v 0.002323 1.051453 0.033260
v 0.189585 1.093551 0.018188
v 0.193598 1.087405 0.054302
v 0.175696 1.113209 0.043549
v 0.437822 1.293397 0.014730
v 0.441765 1.289338 0.045173
v 0.421217 1.305621 0.035657
v 0.609052 1.408841 0.033770
v 0.613145 1.409020 0.057855
v 0.595953 1.419852 0.049405
v -0.298511 1.556369 0.501664
v -0.285755 1.542647 0.512188
v -0.279614 1.558162 0.498648
v -0.274048 1.311276 0.222796
v -0.353680 1.443412 0.074635
v -0.335867 1.453246 0.078825
v -0.355123 1.458596 0.091998
v -0.445997 1.741788 0.022054
v -0.261134 1.910074 0.624383
v 0.042722 1.022206 -0.003197
v 0.066278 1.275214 -0.194909
v 0.067060 1.298878 -0.164132
v 0.100903 1.283682 -0.181918
v 0.083734 1.617951 -0.341560
v 0.077710 1.622475 -0.318346
v 0.102697 1.619102 -0.326942
v 0.442971 1.329156 0.035109
v 0.396111 1.400017 -0.045950
v 0.388627 1.406099 -0.031878
v 0.404599 1.415332 -0.029411
v 0.395327 1.769759 -0.109653
vt 0.4506 0.1605
vt 0.4698 0.1610
vt 0.4623 0.1694
vt 0.4557 0.1760
vt 0.3902 0.2004
vt 0.4030 0.1967
vt 0.4041 0.2088
vt 0.4725 0.1518
vt 0.3987 0.2247
vt 0.4415 0.1809
vt 0.4588 0.1885
vt 0.4470 0.1971
vt 0.4631 0.1964
vt 0.4585 0.2067
vt 0.4211 0.1794
vt 0.4294 0.1948
vt 0.4140 0.1973
vt 0.4039 0.1837
vt 0.4816 0.2053
vt 0.4715 0.1953
vt 0.4783 0.1886
vt 0.4888 0.1962
vt 0.4353 0.2062
vt 0.4294 0.2091
vt 0.4292 0.2038
vt 0.4499 0.2051
vt 0.4356 0.2181
vt 0.4362 0.1848
vt 0.4894 0.1826
vt 0.4757 0.1808
vt 0.4800 0.1676
vt 0.4686 0.1742
vt 0.4894 0.1590
vt 0.4426 0.2291
vt 0.4473 0.2164
vt 0.4183 0.2291
vt 0.4248 0.2173
vt 0.4157 0.2135
vt 0.4127 0.2035
vt 0.4217 0.2058
vt 0.4687 0.1872
vt 0.4629 0.1796
vt 0.5737 0.2269
vt 0.5626 0.2218
vt 0.5761 0.2184
vt 0.5804 0.2232
vt 0.5811 0.2316
vt 0.5447 0.2300
vt 0.5417 0.2222
vt 0.5498 0.2259
vt 0.5545 0.2365
vt 0.5344 0.2357
vt 0.5492 0.2182
vt 0.5359 0.2092
vt 0.5532 0.2092
vt 0.5631 0.2194
vt 0.5848 0.2243
vt 0.5833 0.2171
vt 0.5781 0.2053
vt 0.5950 0.2168
vt 0.5950 0.2329
vt 0.5314 0.2250
vt 0.5628 0.2345
vt 0.5780 0.2417
vt 0.5740 0.1641
vt 0.5766 0.1494
vt 0.5874 0.1620
vt 0.5896 0.1704
vt 0.5843 0.1765
vt 0.5201 0.1896
vt 0.5172 0.1630
vt 0.5262 0.1779
vt 0.5369 0.1831
vt 0.5411 0.1962
vt 0.5977 0.1864
vt 0.5998 0.1760
vt 0.5403 0.1393
vt 0.5646 0.1466
vt 0.5525 0.1509
vt 0.5451 0.1573
vt 0.5355 0.1593
vt 0.5758 0.1827
vt 0.5562 0.1658
vt 0.5682 0.1607
vt 0.5629 0.1732
vt 0.5555 0.1715
vt 0.5489 0.1725
vt 0.5475 0.1655
vt 0.5434 0.1689
vt 0.5543 0.1812
vt 0.5682 0.1863
vt 0.5436 0.1781
vt 0.5397 0.1741
vt 0.5351 0.1689
vt 0.6032 0.1622
vt 0.6094 0.1737
vt 0.5950 0.1639
vt 0.5932 0.1568
vt 0.5978 0.1494
vt 0.6138 0.1625
vt 0.4334 0.7640
vt 0.4273 0.8008
vt 0.4220 0.8002
vt 0.4251 0.7632
vt 0.4168 0.7625
vt 0.4166 0.8002
vt 0.4111 0.8003
vt 0.4085 0.7625
vt 0.4057 0.8006
vt 0.4002 0.7637
vt 0.4193 0.8498
vt 0.4161 0.8499
vt 0.4226 0.8500
vt 0.4128 0.8500
vt 0.4215 0.8655
vt 0.4188 0.8654
vt 0.4170 0.8657
vt 0.4135 0.8659
vt 0.4095 0.8499
vt 0.4099 0.8659
vt 0.4372 0.7625
vt 0.4408 0.7655
vt 0.4403 0.7747
vt 0.4381 0.7749
vt 0.4450 0.7626
vt 0.4483 0.7653
vt 0.4446 0.7758
vt 0.4425 0.7752
vt 0.4195 0.8658
vt 0.4334 0.7644
vt 0.4359 0.7752
vt 0.4437 0.7931
vt 0.4414 0.7927
vt 0.4392 0.7929
vt 0.4368 0.7928
vt 0.4352 0.7924
vt 0.4194 0.8659
vt 0.4194 0.8659
vt 0.4195 0.8660
vt 0.4195 0.8660
vt 0.4180 0.8663
vt 0.4194 0.8658
vt 0.4195 0.8660
vt 0.4190 0.8664
vt 0.4533 0.7635
vt 0.4580 0.7642
vt 0.4568 0.7883
vt 0.4536 0.7881
vt 0.4195 0.8660
vt 0.4195 0.8660
vt 0.4195 0.8660
vt 0.4195 0.8660
vt 0.4362 0.8241
vt 0.4347 0.8236
vt 0.4410 0.7950
vt 0.4376 0.8242
vt 0.4632 0.7790
vt 0.4650 0.7787
vt 0.4620 0.8026
vt 0.4391 0.8240
vt 0.4641 0.7627
vt 0.4669 0.7625
vt 0.4616 0.7625
vt 0.4616 0.7785
vt 0.4691 0.7631
vt 0.4666 0.7789
vt 0.4334 0.8580
vt 0.4615 0.7625
vt 0.4596 0.7879
vt 0.4483 0.7625
vt 0.4507 0.7878
vt 0.4557 0.8168
vt 0.4536 0.8165
vt 0.4575 0.8169
vt 0.4731 0.7721
vt 0.4749 0.7718
vt 0.4705 0.8008
vt 0.4734 0.7634
vt 0.4762 0.7625
vt 0.4713 0.7626
vt 0.4718 0.7717
vt 0.4692 0.7625
vt 0.4705 0.7716
vt 0.4518 0.8168
vn -0.3804 -0.9228 -0.0615
vn -0.4460 -0.7579 -0.4760
vn 0.2862 -0.8749 -0.3906
vn -0.0866 -0.9946 0.0575
vn -0.0342 -0.9980 0.0532
vn -0.2493 -0.1709 -0.9532
vn -0.1270 -0.0562 -0.9903
vn -0.2068 0.3573 -0.9108
vn 0.6644 0.1846 -0.7242
vn -0.0446 -0.6313 -0.7743
vn 0.1367 0.8237 -0.5504
vn -0.4203 0.8481 0.3227
vn 0.7925 0.6056 -0.0725
vn 0.0769 0.8124 0.5781
vn 0.2978 0.6886 0.6612
vn 0.4877 0.8414 -0.2327
vn 0.6374 0.6675 -0.3850
vn -0.6572 0.1677 0.7348
vn -0.6088 -0.0090 0.7933
vn -0.7891 -0.1568 0.5939
vn -0.4168 -0.3045 0.8565
vn -0.3676 0.4049 0.8372
vn 0.2311 0.0558 0.9713
vn 0.5314 -0.6078 0.5901
vn 0.9088 -0.3968 0.1289
vn 0.7515 -0.5841 -0.3067
vn 0.9981 0.0198 -0.0579
vn 0.8923 -0.1317 -0.4318
vn 0.4035 0.1709 0.8989
vn -0.8121 0.5239 -0.2570
vn -0.6441 0.5393 -0.5424
vn -0.7929 -0.4401 -0.4215
vn -0.6483 -0.1218 -0.7516
vn -0.8444 -0.4835 0.2307
vn -0.0888 -0.6221 -0.7779
vn -0.1020 0.4589 -0.8826
vn 0.4936 -0.1299 -0.8599
vn 0.5951 0.2941 -0.7479
vn 0.4983 -0.2706 -0.8237
vn -0.2561 0.8590 -0.4432
vn -0.4840 0.8750 0.0092
vn 0.1684 0.8172 0.5512
vn 0.2393 0.8317 -0.5010
vn -0.4871 0.4305 0.7599
vn -0.7575 -0.2880 0.5859
vn -0.4319 -0.0143 0.9018
vn -0.2901 -0.2316 0.9285
vn -0.2993 0.0836 0.9505
vn 0.4585 -0.1745 0.8714
vn 0.3974 -0.4129 0.8195
vn 0.7720 -0.5100 -0.3793
vn 0.9917 -0.0660 0.1106
vn 0.9633 0.2086 -0.1692
vn 0.9913 -0.1282 0.0289
vn 0.6282 -0.0526 0.7763
vn 0.9950 -0.0649 -0.0758
vn -0.9709 0.2244 -0.0839
vn -0.6524 0.4297 -0.6243
vn -0.8305 0.2104 -0.5158
vn -0.9965 0.0837 -0.0005
vn -0.9861 0.0162 -0.1654
vn -0.9291 -0.3409 -0.1438
vn 0.7963 -0.5542 -0.2424
vn 0.9348 -0.3489 0.0670
vn 0.6144 -0.3677 0.6981
vn -0.7968 -0.1081 -0.5945
vn -0.2049 0.3372 -0.9189
vn 0.4450 -0.1863 -0.8760
vn -0.8457 0.0299 0.5328
vn -0.6317 0.7270 0.2691
vn -0.6373 0.7703 -0.0228
vn 0.5490 -0.1291 0.8258
vn 0.7351 0.4886 -0.4700
vn 0.2647 0.9088 -0.3224
vn 0.4670 0.8409 0.2737
vn -0.0327 0.7125 0.7010
vn -0.4619 -0.6727 -0.5780
vn 0.2520 -0.9670 0.0365
vn 0.2111 -0.7321 0.6477
vn 0.4850 -0.1814 -0.8555
vn -0.9733 0.1236 -0.1935
vn -0.9285 -0.1184 0.3520
vn -0.2662 0.0159 0.9638
vn -0.0146 0.2038 0.9789
vn 0.7717 0.5885 0.2411
vn 0.9225 0.3812 -0.0608
vn -0.1557 0.8915 -0.4254
vn -0.6633 -0.7315 0.1578
vn -0.3425 -0.7083 -0.6173
vn 0.0772 -0.9148 0.3965
vn -0.9379 -0.0768 0.3383
vn -0.9315 -0.2953 -0.2123
vn -0.9611 -0.2188 -0.1687
vn -0.7674 -0.6386 -0.0577
vn -0.7442 -0.4200 0.5194
vn -0.5399 -0.0900 -0.8369
vn -0.0665 0.3172 -0.9460
vn 0.4890 -0.4485 -0.7482
vn -0.2771 -0.6232 -0.7313
vn 0.7030 0.4026 -0.5863
vn 0.5531 0.8003 0.2316
vn 0.9475 0.1405 0.2873
vn 0.9469 0.1515 0.2836
vn 0.9381 0.0596 -0.3411
vn 0.8925 -0.3444 -0.2911
vn -0.0629 0.7269 0.6838
vn -0.3904 0.4771 0.7874
vn -0.3508 -0.1406 0.9258
vn 0.3316 0.4416 0.8336
vn -0.3508 -0.8066 0.4757
vn -0.0103 -0.9896 -0.1434
vn 0.4627 -0.8850 -0.0517
vn 0.3969 -0.9007 0.1765
vn 0.5763 -0.1823 0.7967
vn -0.4044 0.8657 -0.2950
vn -0.1444 0.5726 -0.8070
vn -0.9255 0.1236 -0.3579
vn -0.6036 0.2317 -0.7629
vn -0.3074 0.9301 0.2012
vn -0.8918 0.1728 0.4182
vn -0.7991 -0.5896 -0.1177
vn -0.6832 -0.5751 0.4500
vn -0.5392 -0.0861 -0.8378
vn 0.1389 0.2786 -0.9503
vn 0.5169 -0.3687 -0.7726
vn -0.1716 -0.6780 -0.7148
vn 0.5560 0.6723 -0.4887
vn 0.5077 0.8615 -0.0059
vn 0.8573 0.3151 0.4071
vn 0.9104 0.1022 -0.4008
vn 0.2077 0.6664 0.7161
vn -0.4859 0.4806 0.7300
vn -0.2118 0.2676 0.9400
vn 0.2754 0.3350 0.9011
vn -0.2160 -0.9409 0.2608
vn -0.1951 -0.5109 0.8372
vn -0.2361 -0.9641 0.1213
vn 0.7585 -0.5629 -0.3284
vn 0.5489 -0.2592 0.7947
vn 0.1924 0.9354 0.2966
vn 0.1607 0.7393 -0.6540
vn -0.4008 0.5168 -0.7565
vn -0.5722 0.8115 -0.1188
vn -0.9279 0.3634 -0.0834
vn 0.7071 -0.0038 -0.7071
vn -0.7050 0.0767 0.7050
vn 0.7071 -0.0016 0.7071
vn -0.7051 0.0745 -0.7051
vn 0.7086 0.0375 0.7046
vn 0.7002 0.1235 -0.7032
vn -0.7031 -0.0818 0.7063
vn 0.7027 -0.0095 -0.7114
vn -0.7025 -0.0415 0.7105
vn 0.7097 -0.0600 0.7020
vn -0.7113 0.0090 -0.7028
vn 0.8424 0.2056 0.4981
vn -0.7659 0.0108 -0.6429
vn 0.3994 -0.8211 0.4078
vn -0.5547 -0.4975 0.6670
vn -0.7122 -0.5968 -0.3697
vn 0.0458 0.6720 -0.7391
vn -0.0715 -0.6942 0.7163
vn 0.7014 0.5053 0.5026
vn 0.6146 -0.7654 -0.1908
vn 0.3412 0.5848 -0.7359
vn -0.1866 0.4968 0.8475
vn -0.4605 0.5597 -0.6889
vn 0.4776 -0.8143 -0.3298
vn 0.6770 0.3247 0.6605
vn -0.2410 0.2447 0.9392
vn -0.1905 0.2792 0.9412
vn -0.2737 0.5572 -0.7840
vn 0.5690 -0.8101 -0.1415
vn 0.9946 0.0722 0.0748
vn -0.8827 -0.3876 0.2656
vn -0.2169 0.7252 -0.6534
vn 0.2289 -0.7020 0.6744
vn 0.5925 0.3672 0.7170
vn -0.8529 -0.4241 0.3046
vn 0.5218 0.7087 0.4748
vn -0.9231 -0.3243 0.2069
vn 0.4190 -0.4150 -0.8076
vn -0.9512 -0.2671 0.1545
vn 0.2722 -0.0847 -0.9585
vn 0.9530 -0.1451 0.2660
vn -0.7234 -0.1568 0.6724
vn -0.1796 0.3393 -0.9234
vn 0.4416 -0.7721 -0.4569
vn -0.2080 0.6700 -0.7127
vn 0.3951 -0.5779 -0.7141
vn -0.9784 0.1842 -0.0936
vn 0.4737 0.3567 0.8052
vn 0.4776 -0.3585 -0.8021
vn 0.9118 -0.0679 -0.4051
vn -0.2479 0.2626 0.9325
vn 0.8923 0.0825 -0.4438
vn -0.4060 0.4199 0.8117
vn -0.8180 -0.4850 -0.3093
vn -0.2648 0.2063 0.9420
vn -0.8938 -0.0780 -0.4416
vn -0.7089 0.0047 -0.7053
vn -0.9954 -0.0013 -0.0959
s off
f 1/1/1 2/2/1 3/3/1
f 3/3/2 4/4/2 1/1/2
f 1/5/3 5/6/3 6/7/3
f 1/1/4 7/8/4 2/2/4
f 1/5/5 6/7/5 7/9/5
f 8/10/6 4/4/6 9/11/6
f 8/10/7 9/11/7 10/12/7
f 10/12/8 11/13/8 12/14/8
f 10/15/9 13/16/9 14/17/9
f 8/18/10 5/6/10 1/5/10
f 15/19/11 11/13/11 16/20/11
f 15/19/12 17/21/12 18/22/12
f 19/23/13 20/24/13 21/25/13
f 15/26/14 22/27/14 19/23/14
f 19/23/15 22/27/15 20/24/15
f 15/26/16 13/16/16 12/28/16
f 19/23/17 21/25/17 13/16/17
f 23/29/18 17/21/18 24/30/18
f 23/29/19 24/30/19 25/31/19
f 25/31/20 26/32/20 2/2/20
f 25/31/21 7/8/21 27/33/21
f 23/34/22 22/27/22 18/35/22
f 27/36/23 28/37/23 22/27/23
f 29/38/24 7/9/24 6/7/24
f 29/38/25 6/7/25 30/39/25
f 30/39/26 5/6/26 14/17/26
f 30/39/27 14/17/27 31/40/27
f 31/40/28 13/16/28 21/25/28
f 20/24/29 22/27/29 28/37/29
f 32/41/30 17/21/30 16/20/30
f 32/41/31 11/13/31 9/11/31
f 33/42/32 4/4/32 3/3/32
f 9/11/33 4/4/33 33/42/33
f 3/3/34 2/2/34 26/32/34
f 8/10/35 1/1/35 4/4/35
f 10/12/36 9/11/36 11/13/36
f 8/18/37 10/15/37 14/17/37
f 10/15/38 12/28/38 13/16/38
f 8/18/39 14/17/39 5/6/39
f 15/19/40 12/14/40 11/13/40
f 15/19/41 16/20/41 17/21/41
f 15/26/42 18/35/42 22/27/42
f 15/26/43 19/23/43 13/16/43
f 23/29/44 18/22/44 17/21/44
f 25/31/45 24/30/45 26/32/45
f 23/29/46 25/31/46 27/33/46
f 25/31/47 2/2/47 7/8/47
f 23/34/48 27/36/48 22/27/48
f 29/38/49 28/37/49 27/36/49
f 29/38/50 27/36/50 7/9/50
f 30/39/51 6/7/51 5/6/51
f 29/38/52 30/39/52 31/40/52
f 31/40/53 14/17/53 13/16/53
f 29/38/54 31/40/54 20/24/54
f 29/38/55 20/24/55 28/37/55
f 31/40/56 21/25/56 20/24/56
f 32/41/57 24/30/57 17/21/57
f 32/41/58 16/20/58 11/13/58
f 32/41/59 9/11/59 33/42/59
f 32/41/60 33/42/60 26/32/60
f 32/41/61 26/32/61 24/30/61
f 33/42/62 3/3/62 26/32/62
f 34/43/63 35/44/63 36/45/63
f 36/45/64 37/46/64 34/43/64
f 34/43/65 37/46/65 38/47/65
f 39/48/66 40/49/66 41/50/66
f 39/48/67 41/50/67 42/51/67
f 39/48/68 42/51/68 35/52/68
f 43/53/69 44/54/69 45/55/69
f 43/53/70 45/55/70 46/56/70
f 43/53/71 46/56/71 41/50/71
f 38/47/72 37/46/72 47/57/72
f 48/58/73 36/45/73 42/59/73
f 48/58/74 42/59/74 46/60/74
f 48/58/75 46/60/75 47/57/75
f 46/60/76 45/61/76 47/57/76
f 49/62/77 40/49/77 39/48/77
f 49/63/78 35/44/78 34/43/78
f 34/43/79 38/47/79 44/64/79
f 35/44/80 42/59/80 36/45/80
f 43/53/81 41/50/81 40/49/81
f 43/53/82 40/49/82 44/54/82
f 38/47/83 45/61/83 44/64/83
f 38/47/84 47/57/84 45/61/84
f 48/58/85 47/57/85 37/46/85
f 48/58/86 37/46/86 36/45/86
f 46/56/87 42/51/87 41/50/87
f 49/62/88 44/54/88 40/49/88
f 49/62/89 39/48/89 35/52/89
f 49/63/90 34/43/90 44/64/90
f 50/65/91 51/66/91 52/67/91
f 52/67/92 53/68/92 50/65/92
f 50/65/93 53/68/93 54/69/93
f 50/70/94 55/71/94 56/72/94
f 50/70/95 57/73/95 51/74/95
f 58/75/96 53/68/96 59/76/96
f 58/77/97 60/78/97 61/79/97
f 58/77/98 62/80/98 63/81/98
f 58/75/99 55/82/99 54/69/99
f 64/83/100 60/78/100 65/84/100
f 64/83/101 66/85/101 67/86/101
f 64/83/102 68/87/102 69/88/102
f 69/88/103 68/87/103 70/89/103
f 64/83/104 62/80/104 61/79/104
f 69/88/105 70/89/105 62/80/105
f 71/90/106 66/85/106 72/91/106
f 71/90/107 72/91/107 51/74/107
f 51/74/108 57/73/108 73/92/108
f 71/90/109 68/87/109 67/86/109
f 74/93/110 57/73/110 56/72/110
f 75/94/111 55/71/111 63/81/111
f 75/94/112 63/81/112 70/89/112
f 75/94/113 70/89/113 74/93/113
f 70/89/114 68/87/114 73/92/114
f 72/91/115 66/85/115 65/84/115
f 76/95/116 60/96/116 59/76/116
f 77/97/117 53/68/117 52/67/117
f 59/76/118 53/68/118 77/97/118
f 76/95/119 78/98/119 72/99/119
f 52/67/120 51/66/120 78/98/120
f 50/65/121 54/69/121 55/82/121
f 50/70/122 56/72/122 57/73/122
f 58/75/123 54/69/123 53/68/123
f 58/75/124 59/76/124 60/96/124
f 58/77/125 61/79/125 62/80/125
f 58/77/126 63/81/126 55/71/126
f 64/83/127 61/79/127 60/78/127
f 64/83/128 65/84/128 66/85/128
f 64/83/129 67/86/129 68/87/129
f 64/83/130 69/88/130 62/80/130
f 71/90/131 67/86/131 66/85/131
f 51/66/132 72/99/132 78/98/132
f 71/90/133 51/74/133 73/92/133
f 71/90/134 73/92/134 68/87/134
f 75/94/135 74/93/135 56/72/135
f 74/93/136 73/92/136 57/73/136
f 75/94/137 56/72/137 55/71/137
f 70/89/138 63/81/138 62/80/138
f 74/93/139 70/89/139 73/92/139
f 76/95/140 72/99/140 65/100/140
f 76/95/141 65/100/141 60/96/141
f 76/95/142 59/76/142 77/97/142
f 76/95/143 77/97/143 78/98/143
f 77/97/144 52/67/144 78/98/144
f 79/101/145 83/102/145 86/103/145 82/104/145
f 81/105/146 85/106/146 84/107/146 80/108/146
f 82/104/147 86/103/147 85/106/147 81/105/147
f 80/108/148 84/107/148 83/109/148 79/110/148
f 86/103/149 90/111/149 89/112/149 85/106/149
f 83/102/150 87/113/150 90/111/150 86/103/150
f 85/106/151 89/112/151 88/114/151 84/107/151
f 90/111/152 87/113/152 91/115/152 94/116/152
f 88/114/153 89/112/153 93/117/153 92/118/153
f 89/112/154 90/111/154 94/116/154 93/117/154
f 87/119/155 88/114/155 92/118/155 91/120/155
f 93/121/156 103/122/156 98/123/156 97/124/156
f 91/125/157 92/126/157 96/127/157 95/128/157
f 93/117/158 94/116/158 105/129/158
f 92/130/159 93/121/159 97/124/159 96/131/159
f 95/128/160 96/127/160 100/132/160 99/133/160
f 98/123/161 95/128/161 99/133/161 102/134/161
f 96/131/162 97/124/162 101/135/162 100/136/162
f 97/124/163 98/123/163 102/134/163 101/135/163
f 105/137/164 104/138/164 107/139/164 108/140/164
f 103/122/165 91/125/165 95/128/165 98/123/165
f 103/141/166 93/117/166 105/129/166 106/142/166
f 104/138/167 106/142/167 109/143/167 107/139/167
f 94/116/168 122/144/168 104/138/168 105/137/168
f 103/145/169 122/146/169 125/147/169 124/148/169
f 109/143/170 108/140/170 129/149/170
f 106/142/171 105/129/171 108/140/171 109/143/171
f 107/139/172 129/149/172 112/150/172 110/151/172
f 108/140/173 107/139/173 110/151/173 111/152/173
f 101/135/174 102/134/174 115/153/174 114/154/174
f 99/133/175 100/132/175 116/155/175
f 102/134/176 116/155/176 113/156/176 115/153/176
f 100/136/177 101/135/177 114/154/177
f 119/157/178 118/158/178 120/159/178
f 116/155/179 100/132/179 114/160/179 113/156/179
f 116/161/180 102/162/180 118/158/180 119/157/180
f 99/163/181 116/161/181 119/157/181 117/164/181
f 102/162/182 99/165/182 117/166/182 118/158/182
f 117/164/183 119/157/183 120/159/183
f 118/158/184 117/166/184 120/159/184
f 114/154/185 115/153/185 121/167/185
f 113/156/186 114/160/186 121/167/186
f 115/153/187 113/156/187 121/167/187
f 122/144/188 94/116/188 91/115/188
f 122/144/189 103/141/189 106/142/189 104/138/189
f 122/146/190 91/168/190 123/169/190 125/147/190
f 91/170/191 103/145/191 124/148/191 123/171/191
f 125/147/192 128/172/192 127/173/192 124/148/192
f 123/169/193 126/174/193 128/172/193 125/147/193
f 132/175/194 130/176/194 133/177/194
f 129/149/195 108/140/195 111/152/195 112/150/195
f 129/178/196 107/179/196 130/176/196 132/175/196
f 109/180/197 129/178/197 132/175/197 131/181/197
f 107/182/198 109/180/198 131/181/198 130/183/198
f 131/181/199 132/175/199 133/177/199
f 130/183/200 131/181/200 133/177/200
f 84/107/201 88/114/201 87/119/201 83/109/201
f 124/148/202 127/173/202 126/184/202 123/171/202
