# Blender v2.78 (sub 0) OBJ File: 'Low_Poly_Trees_Pack.blend'
# www.blender.org
g Apple_Tree_m_05
v -1.203168 2.484905 -0.239109
v -1.684821 2.297917 0.309963
v -2.416058 2.315017 -0.543544
v -2.411037 3.003583 -1.126779
v -1.319630 2.806929 -0.987188
v -1.129056 3.573854 -1.434301
v -0.350448 3.088231 -0.100325
v 0.208894 3.847789 -0.085098
v 0.122168 3.329487 0.641758
v -0.107755 3.978835 -0.863300
v -0.735632 2.901381 0.935017
v -1.815391 2.585712 0.925332
v -1.202367 5.353743 -1.767488
v -2.367146 4.099931 -1.467793
v -2.527675 5.096101 -1.414869
v -1.108591 4.380197 -1.679816
v -1.320081 5.940354 -1.246981
v -2.924995 6.209157 -1.072418
v -1.515839 6.454989 -0.971759
v 0.016163 5.711296 -0.879395
v 0.356496 5.916205 -0.313870
v 0.543412 5.081769 -0.501278
v -0.581173 6.577410 -0.202043
v -0.072353 4.679575 -0.990180
v -2.351333 6.637537 0.288361
v -3.278688 5.826491 0.003939
v -2.403834 6.652879 0.974021
v -3.601654 5.211441 0.605781
v -2.481604 6.331466 1.349940
v -0.856802 7.215890 1.114473
v -0.069833 6.381342 1.512265
v -0.010755 6.747890 0.803835
v -1.273020 6.038539 1.933462
v -1.895037 6.760750 -0.456711
v -2.778838 4.432563 1.829179
v -3.570795 3.786072 0.661054
v -2.289343 3.220065 1.619156
v -3.113798 2.811026 0.071933
v -1.109971 4.092167 2.041007
v -0.341793 3.879750 1.692134
v -0.394004 4.974526 2.122670
v -2.704018 5.602241 1.444980
v 0.204301 4.606456 1.571375
v 0.469781 4.718104 0.825542
v 0.675806 5.013333 0.062064
v 0.668360 6.164554 0.728567
v -3.687267 4.607933 0.084504
v -3.669227 4.794307 -0.473113
v -3.178137 4.856652 -1.011953
v -3.093995 3.381298 -0.685090
v 0.000000 0.000000 -0.224640
v -0.218126 0.000000 -0.066097
v -0.134809 0.000000 0.190276
v 0.134809 0.000000 0.190260
v 0.218126 0.000000 -0.066163
v -0.030936 0.390809 -0.160587
v -0.188528 0.377654 -0.044644
v -0.128333 0.382679 0.140817
v 0.066462 0.398940 0.139560
v 0.126657 0.403965 -0.046696
v -0.531709 2.117463 0.064519
v -0.633971 2.044168 0.141311
v -0.611961 2.142014 0.271661
v -0.469147 2.131699 0.268944
v -0.422206 2.123815 0.141634
v -0.056542 1.199681 0.047615
v -0.104185 1.190947 0.199498
v -0.258360 1.162683 0.203430
v -0.306002 1.153948 0.053814
v -0.181272 1.176815 -0.042734
v -0.635790 3.302625 0.095364
v -0.748352 3.362880 0.164762
v -0.742041 3.394890 0.244756
v -0.632047 3.363323 0.231162
v -0.607249 3.367666 0.154559
v -0.636340 2.290352 0.153470
v -0.875056 2.413896 0.125914
v -0.922859 2.363987 0.152348
v -0.928877 2.487839 0.231790
v -0.911068 2.559470 0.181430
v -1.591952 2.775793 -0.137485
v -1.617664 2.741396 -0.085147
v -1.590547 2.760346 -0.069427
v -1.564995 2.808235 -0.109736
vt 0.4646 0.1872
vt 0.4691 0.1846
vt 0.4700 0.1916
vt 0.4680 0.1964
vt 0.4632 0.1921
vt 0.4606 0.1953
vt 0.4595 0.1859
vt 0.4545 0.1859
vt 0.4576 0.1805
vt 0.4552 0.1916
vt 0.4649 0.1785
vt 0.4720 0.1808
vt 0.4564 0.2072
vt 0.4667 0.2018
vt 0.4682 0.2098
vt 0.4588 0.1997
vt 0.4246 0.1669
vt 0.4359 0.1718
vt 0.4242 0.1748
vt 0.4320 0.1819
vt 0.4243 0.1799
vt 0.4127 0.1732
vt 0.4119 0.1806
vt 0.4038 0.1773
vt 0.4189 0.1831
vt 0.4523 0.1956
vt 0.4447 0.2012
vt 0.4450 0.1920
vt 0.4266 0.1883
vt 0.4334 0.1889
vt 0.4268 0.1928
vt 0.4350 0.1976
vt 0.4269 0.1968
vt 0.4205 0.1911
vt 0.4152 0.1947
vt 0.4161 0.1889
vt 0.4212 0.1992
vt 0.4254 0.1838
vt 0.4297 0.2071
vt 0.4409 0.2055
vt 0.4307 0.2154
vt 0.4770 0.1766
vt 0.4764 0.1902
vt 0.4178 0.2109
vt 0.4090 0.2101
vt 0.4142 0.2029
vt 0.4684 0.1669
vt 0.4615 0.1703
vt 0.4280 0.2008
vt 0.4540 0.1693
vt 0.4480 0.1765
vt 0.4447 0.1851
vt 0.4008 0.1846
vt 0.4115 0.1888
vt 0.4008 0.1943
vt 0.4056 0.2019
vt 0.4428 0.1956
vt 0.4433 0.1862
vt 0.4405 0.1776
vt 0.4734 0.1975
vt 0.4756 0.2084
vt 0.4833 0.2033
vt 0.4871 0.1956
vt 0.4848 0.1870
vt 0.4372 0.7680
vt 0.4374 0.7743
vt 0.4342 0.7745
vt 0.4333 0.7687
vt 0.4488 0.7709
vt 0.4462 0.7759
vt 0.4434 0.7749
vt 0.4451 0.7691
vt 0.4412 0.7681
vt 0.4404 0.7744
vt 0.4312 0.7749
vt 0.4295 0.7696
vt 0.4392 0.7866
vt 0.4369 0.7866
vt 0.4346 0.7868
vt 0.4323 0.7868
vt 0.4414 0.7869
vt 0.4380 0.8019
vt 0.4360 0.8019
vt 0.4340 0.8021
vt 0.4320 0.8010
vt 0.4400 0.8022
vt 0.4437 0.7875
vt 0.4422 0.8017
vt 0.4382 0.8203
vt 0.4371 0.8202
vt 0.4360 0.8202
vt 0.4348 0.8202
vt 0.4414 0.8042
vt 0.4394 0.8205
vt 0.4487 0.8009
vt 0.4510 0.8023
vt 0.4510 0.8075
vt 0.4496 0.8073
vt 0.4523 0.8068
vt 0.4534 0.8076
vt 0.4532 0.8194
vt 0.4525 0.8190
vt 0.4324 0.8039
vt 0.4336 0.8203
vt 0.4521 0.8002
vt 0.4542 0.8004
vt 0.4516 0.8194
vt 0.4463 0.8009
vt 0.4484 0.8078
vt 0.4507 0.8191
vt 0.4499 0.8196
vn 0.1790 -0.9686 -0.1728
vn -0.0188 -0.6461 -0.7630
vn 0.0188 -0.5071 -0.8617
vn 0.7691 -0.5602 -0.3077
vn 0.6287 -0.5976 -0.4976
vn 0.7440 -0.5400 -0.3936
vn 0.4752 -0.8717 0.1200
vn 0.2464 -0.8568 0.4530
vn 0.4480 -0.8940 0.0053
vn -0.2589 0.0096 -0.9659
vn -0.0952 -0.2922 -0.9516
vn -0.3127 0.5946 -0.7408
vn -0.0181 0.4661 -0.8845
vn 0.7657 0.2994 -0.5693
vn 0.2977 0.7070 -0.6415
vn 0.4457 0.7216 -0.5297
vn 0.5581 -0.0209 -0.8295
vn 0.5472 -0.2565 -0.7968
vn 0.6082 0.0330 -0.7931
vn -0.6656 0.7449 0.0461
vn -0.6452 0.7611 -0.0664
vn -0.7676 0.5568 0.3173
vn 0.5524 0.7206 0.4189
vn -0.2900 0.6135 0.7346
vn 0.1411 0.5312 0.8354
vn 0.0933 0.9715 0.2178
vn 0.2006 0.9001 -0.3867
vn 0.3530 0.8687 -0.3474
vn -0.8287 0.0038 0.5597
vn -0.6557 -0.3779 0.6537
vn -0.4242 -0.7937 0.4359
vn 0.3113 -0.3349 0.8893
vn 0.1999 -0.6323 0.7485
vn 0.1616 -0.6438 0.7479
vn -0.3904 0.3097 0.8670
vn -0.3768 0.2318 0.8968
vn -0.1628 0.0408 0.9858
vn 0.4991 -0.5308 0.6850
vn 0.9191 -0.3809 0.1007
vn 0.8669 -0.4279 -0.2557
vn 0.9264 0.1931 -0.3232
vn 0.5581 0.7060 -0.4361
vn 0.9233 0.1543 0.3517
vn 0.2211 0.3449 0.9122
vn -0.9339 0.3003 -0.1943
vn -0.7409 0.1091 -0.6627
vn -0.5424 0.0641 -0.8376
vn -0.6481 -0.4895 -0.5835
vn -0.6172 -0.2036 -0.7600
vn -0.9447 -0.3006 -0.1310
vn -0.3661 -0.8823 0.2960
vn -0.3672 -0.8700 0.3290
vn 0.2275 -0.8811 -0.4147
vn 0.5722 -0.7172 -0.3978
vn 0.5647 -0.5159 -0.6442
vn 0.5694 -0.8195 0.0639
vn -0.1430 -0.1024 -0.9844
vn -0.1006 -0.2875 -0.9525
vn -0.0584 0.2744 -0.9598
vn 0.3018 0.6659 -0.6822
vn 0.4875 0.5487 -0.6792
vn 0.5814 0.0374 -0.8128
vn 0.5799 -0.1734 -0.7960
vn 0.6769 -0.1641 -0.7175
vn -0.4188 0.9017 -0.1073
vn -0.1029 0.8202 -0.5627
vn -0.7783 0.5975 0.1929
vn -0.3378 0.9400 -0.0469
vn -0.1188 0.7667 0.6309
vn -0.0946 0.8878 -0.4504
vn -0.7174 0.2584 0.6470
vn -0.7179 0.3008 0.6278
vn -0.6329 -0.5955 0.4947
vn -0.1693 -0.2342 0.9573
vn 0.1860 -0.6586 0.7292
vn -0.1167 0.0450 0.9921
vn 0.9196 -0.2682 0.2872
vn 0.5501 -0.2828 0.7858
vn 0.7872 -0.5430 0.2922
vn 0.9703 -0.2360 -0.0525
vn 0.8662 -0.2962 -0.4024
vn 0.9692 -0.1186 0.2157
vn 0.9477 0.2553 -0.1917
vn 0.5142 0.7869 -0.3413
vn 0.7197 -0.0524 0.6924
vn 0.7147 0.1333 0.6866
vn 0.6223 0.6729 0.4000
vn -0.9438 0.3215 0.0769
vn -0.9839 -0.0144 0.1782
vn -0.8998 0.4098 -0.1500
vn -0.7146 -0.1899 -0.6733
vn -0.5161 -0.0377 -0.8557
vn -0.6109 -0.2128 -0.7626
vn -0.9051 -0.3279 -0.2707
vn -0.9271 -0.2943 -0.2322
vn -0.7414 -0.5266 -0.4161
vn -0.0017 0.1270 0.9919
vn -0.5896 0.0883 -0.8028
vn 0.9319 0.1973 0.3044
vn -0.9498 0.0564 0.3078
vn 0.5742 0.1725 -0.8004
vn 0.9353 0.1787 0.3055
vn -0.9341 -0.1804 0.3080
vn 0.5523 0.2242 -0.8030
vn 0.0242 -0.0731 0.9970
vn 0.8957 0.3242 0.3044
vn -0.8709 -0.3465 0.3486
vn 0.5323 0.2903 -0.7952
vn 0.0261 -0.0618 0.9977
vn -0.5685 -0.1241 -0.8133
vn 0.6746 0.0935 -0.7322
vn 0.0700 0.0342 0.9970
vn -0.6194 -0.0447 -0.7838
vn 0.9355 0.1348 0.3268
vn 0.5322 0.5249 0.6643
vn -0.6019 0.0074 -0.7985
vn -0.0701 -0.6477 -0.7586
vn -0.9904 -0.1025 0.0932
vn -0.3759 -0.2818 -0.8828
vn 0.4893 0.3898 -0.7802
vn -0.6045 -0.5241 0.5999
vn 0.3551 0.5117 -0.7823
vn -0.1014 0.6244 0.7745
vn -0.5029 -0.4266 0.7517
s off
f 1/1/1 2/2/1 3/3/1
f 3/3/2 4/4/2 5/5/2
f 5/5/3 4/4/3 6/6/3
f 7/7/4 8/8/4 9/9/4
f 5/5/5 10/10/5 7/7/5
f 7/7/6 10/10/6 8/8/6
f 1/1/7 11/11/7 2/2/7
f 2/2/8 11/11/8 12/12/8
f 7/7/9 9/9/9 11/11/9
f 13/13/10 14/14/10 15/15/10
f 16/16/11 4/4/11 14/14/11
f 13/17/12 15/18/12 17/19/12
f 17/19/13 18/20/13 19/21/13
f 20/22/14 21/23/14 22/24/14
f 17/19/15 23/25/15 20/22/15
f 20/22/16 23/25/16 21/23/16
f 13/13/17 24/26/17 16/16/17
f 16/16/18 10/10/18 6/6/18
f 20/27/19 22/28/19 24/26/19
f 25/29/20 18/20/20 26/30/20
f 25/29/21 26/30/21 27/31/21
f 27/31/22 28/32/22 29/33/22
f 30/34/23 31/35/23 32/36/23
f 27/31/24 33/37/24 30/34/24
f 30/34/25 33/37/25 31/35/25
f 25/29/26 23/25/26 34/38/26
f 34/38/27 23/25/27 19/21/27
f 30/34/28 32/36/28 23/25/28
f 35/39/29 28/32/29 36/40/29
f 35/39/30 36/40/30 37/41/30
f 37/42/31 38/43/31 12/12/31
f 39/44/32 40/45/32 41/46/32
f 37/42/33 11/11/33 39/47/33
f 39/47/34 11/11/34 40/48/34
f 35/39/35 33/37/35 42/49/35
f 42/49/36 33/37/36 29/33/36
f 39/44/37 41/46/37 33/37/37
f 43/50/38 11/11/38 9/9/38
f 44/51/39 8/8/39 45/52/39
f 45/52/40 10/10/40 22/28/40
f 45/53/41 21/23/41 46/54/41
f 46/54/42 23/25/42 32/36/42
f 44/55/43 31/35/43 43/56/43
f 31/35/44 33/37/44 41/46/44
f 47/57/45 28/32/45 26/30/45
f 48/58/46 18/20/46 49/59/46
f 49/59/47 18/20/47 15/18/47
f 50/60/48 4/4/48 3/3/48
f 49/61/49 14/14/49 50/60/49
f 48/62/50 38/43/50 47/63/50
f 3/3/51 2/2/51 38/43/51
f 2/2/52 12/12/52 38/43/52
f 1/1/53 3/3/53 5/5/53
f 1/1/54 5/5/54 7/7/54
f 5/5/55 6/6/55 10/10/55
f 1/1/56 7/7/56 11/11/56
f 13/13/57 16/16/57 14/14/57
f 16/16/58 6/6/58 4/4/58
f 17/19/59 15/18/59 18/20/59
f 13/17/60 17/19/60 20/22/60
f 17/19/61 19/21/61 23/25/61
f 13/13/62 20/27/62 24/26/62
f 16/16/63 24/26/63 10/10/63
f 24/26/64 22/28/64 10/10/64
f 25/29/65 34/38/65 18/20/65
f 34/38/66 19/21/66 18/20/66
f 27/31/67 26/30/67 28/32/67
f 25/29/68 27/31/68 30/34/68
f 27/31/69 29/33/69 33/37/69
f 25/29/70 30/34/70 23/25/70
f 35/39/71 42/49/71 28/32/71
f 42/49/72 29/33/72 28/32/72
f 37/42/73 36/64/73 38/43/73
f 35/39/74 37/41/74 39/44/74
f 37/42/75 12/12/75 11/11/75
f 35/39/76 39/44/76 33/37/76
f 44/51/77 43/50/77 9/9/77
f 43/56/78 41/46/78 40/45/78
f 43/50/79 40/48/79 11/11/79
f 44/51/80 9/9/80 8/8/80
f 45/52/81 8/8/81 10/10/81
f 44/55/82 45/53/82 46/54/82
f 45/53/83 22/24/83 21/23/83
f 46/54/84 21/23/84 23/25/84
f 44/55/85 46/54/85 31/35/85
f 43/56/86 31/35/86 41/46/86
f 46/54/87 32/36/87 31/35/87
f 48/58/88 47/57/88 26/30/88
f 47/57/89 36/40/89 28/32/89
f 48/58/90 26/30/90 18/20/90
f 48/62/91 49/61/91 50/60/91
f 49/61/92 15/15/92 14/14/92
f 50/60/93 14/14/93 4/4/93
f 48/62/94 50/60/94 38/43/94
f 47/63/95 38/43/95 36/64/95
f 50/60/96 3/3/96 38/43/96
f 54/65/97 59/66/97 58/67/97 53/68/97
f 52/69/98 57/70/98 56/71/98 51/72/98
f 55/73/99 60/74/99 59/66/99 54/65/99
f 53/68/100 58/67/100 57/75/100 52/76/100
f 51/72/101 56/71/101 60/74/101 55/73/101
f 66/77/102 67/78/102 59/66/102 60/74/102
f 68/79/103 69/80/103 57/75/103 58/67/103
f 70/81/104 66/77/104 60/74/104 56/71/104
f 59/66/105 67/78/105 68/79/105 58/67/105
f 67/78/106 66/77/106 65/82/106 64/83/106
f 69/80/107 68/79/107 63/84/107 62/85/107
f 66/77/108 70/81/108 61/86/108 65/82/108
f 68/79/109 67/78/109 64/83/109 63/84/109
f 70/81/110 69/87/110 62/88/110 61/86/110
f 65/82/111 61/86/111 71/89/111 75/90/111
f 63/84/112 64/83/112 74/91/112 73/92/112
f 61/86/113 76/93/113 72/94/113 71/89/113
f 64/83/114 65/82/114 75/90/114 74/91/114
f 63/95/115 76/96/115 80/97/115 79/98/115
f 57/70/116 69/87/116 70/81/116 56/71/116
f 77/99/117 78/100/117 82/101/117 81/102/117
f 76/103/118 63/84/118 73/92/118 72/104/118
f 61/105/119 62/106/119 78/100/119 77/99/119
f 80/97/120 77/99/120 81/102/120 84/107/120
f 62/108/121 63/95/121 79/98/121 78/109/121
f 76/96/122 61/105/122 77/99/122 80/97/122
f 79/98/123 80/97/123 84/107/123 83/110/123
f 78/109/124 79/98/124 83/110/124 82/111/124
