# Blender v2.78 (sub 0) OBJ File: 'Low_Poly_Trees_Pack.blend'
# www.blender.org
g Apple_Tree_crk_s_01
v 0.000000 0.000000 -0.060000
v -0.060000 0.000000 0.000000
v 0.000000 0.000000 0.060000
v 0.060000 0.000000 -0.000000
v 0.021097 0.380142 -0.040925
v -0.019239 0.380142 -0.000588
v 0.021097 0.380142 0.039749
v 0.061434 0.380142 -0.000588
v -0.008833 0.718978 -0.012704
v -0.037191 0.720589 0.019131
v -0.001924 0.654748 0.048482
v 0.030070 0.654351 0.016188
v -0.753511 0.153281 -1.742841
v -0.541741 0.081933 -1.394850
v -1.010364 -0.023026 -1.309386
v -1.419142 0.032072 -1.301337
v -1.181394 0.076324 -1.726036
v -1.497257 0.145113 -1.817463
v -0.805823 0.580583 -1.971728
v -1.000749 0.908785 -2.012897
v -0.603796 0.932490 -1.826499
v -1.346586 0.668211 -1.954849
v -0.227269 0.608397 -1.585539
v -0.374778 0.198389 -1.145661
v -2.060900 0.363261 -1.378640
v -1.787331 -0.000320 -1.213030
v -2.020708 0.059234 -0.898767
v -1.773197 0.271584 -1.614737
v -2.140619 0.547395 -1.066089
v -2.007994 0.160058 -0.376716
v -2.218852 0.682279 -0.744512
v -1.911802 0.993623 -1.581606
v -1.745774 1.334911 -1.468060
v -1.557764 1.172598 -1.854120
v -1.982806 1.272946 -0.847214
v -1.635697 0.743245 -1.834671
v -1.757794 0.760323 -0.103921
v -1.626887 0.158725 -0.050539
v -1.385001 0.828776 0.019318
v -1.034530 0.103068 -0.035405
v -1.037351 0.812208 -0.012210
v -1.466104 1.451469 -0.331854
v -0.992752 1.603328 -0.761253
v -1.484315 1.698462 -0.813239
v -0.774571 1.226158 -0.321095
v -2.010015 0.725061 -0.435162
v -0.419591 0.363479 -0.356203
v -0.747039 -0.031549 -0.320918
v -0.338059 0.261086 -0.796892
v -0.866687 -0.069581 -0.822675
v -0.174027 0.981763 -0.709015
v -0.283770 1.075649 -1.219456
v -0.466338 1.306711 -0.841117
v -0.692754 0.637983 -0.081913
v -0.542859 1.315722 -1.349662
v -0.827639 1.375849 -1.645219
v -1.232116 1.303006 -1.774446
v -1.280065 1.620562 -1.204409
v -1.200209 -0.007287 -0.241682
v -1.576806 0.004823 -0.341038
v -1.843426 0.012699 -0.639239
v -1.393280 -0.056367 -0.908072
v -0.039459 0.763660 0.012026
v -0.012774 0.760928 -0.021241
v -0.228401 0.680848 -0.186908
v -0.264022 0.684495 -0.142501
v -0.267784 0.740899 -0.150152
v -0.232163 0.737252 -0.194559
v -0.416342 0.672654 -0.190427
v -0.422118 0.683056 -0.161561
v -0.431016 0.710598 -0.173267
v -0.425240 0.700196 -0.202132
v -0.658228 0.616716 -0.091503
v -0.652261 0.646726 -0.079918
v -0.655343 0.660543 -0.096019
v -0.662716 0.636836 -0.114950
v -0.287924 0.709630 -0.202465
v -0.242316 0.815367 -0.356758
v -0.253632 0.845628 -0.339031
v -0.275435 0.822215 -0.347884
v -0.302978 0.947129 -0.640538
v -0.313183 0.972846 -0.626635
v -0.329128 0.949976 -0.627454
v -1.027791 0.786709 -0.095234
v -1.017316 0.804843 -0.090420
v -1.020531 0.796624 -0.110012
v -0.689726 0.631349 -0.091831
v -0.751253 0.450410 -0.187893
v -0.754240 0.463797 -0.203495
v -0.772212 0.460147 -0.188111
v -0.231762 0.713341 -0.227935
v -0.327568 0.550565 -0.484152
v -0.360897 0.570482 -0.484754
v -0.327390 0.581704 -0.505826
v -0.518154 0.404302 -0.769745
v -0.535353 0.416893 -0.757857
v -0.518992 0.427412 -0.776057
v 0.055808 0.768685 0.030907
v 0.029122 0.771417 0.064174
vt 0.4334 0.7640
vt 0.4273 0.8008
vt 0.4220 0.8002
vt 0.4251 0.7632
vt 0.4168 0.7625
vt 0.4166 0.8002
vt 0.4111 0.8003
vt 0.4085 0.7625
vt 0.4057 0.8006
vt 0.4002 0.7637
vt 0.4198 0.8403
vt 0.4162 0.8404
vt 0.4226 0.8500
vt 0.4128 0.8500
vt 0.4095 0.8499
vt 0.5866 0.1872
vt 0.5912 0.1846
vt 0.5920 0.1916
vt 0.5900 0.1964
vt 0.5852 0.1921
vt 0.5827 0.1953
vt 0.5815 0.1859
vt 0.5766 0.1859
vt 0.5797 0.1805
vt 0.5772 0.1916
vt 0.5869 0.1785
vt 0.5940 0.1808
vt 0.5784 0.2072
vt 0.5887 0.2018
vt 0.5903 0.2098
vt 0.5809 0.1997
vt 0.5467 0.1669
vt 0.5580 0.1718
vt 0.5462 0.1748
vt 0.5540 0.1819
vt 0.5464 0.1799
vt 0.5347 0.1732
vt 0.5339 0.1806
vt 0.5258 0.1773
vt 0.5409 0.1831
vt 0.5743 0.1956
vt 0.5667 0.2012
vt 0.5671 0.1920
vt 0.5486 0.1883
vt 0.5555 0.1889
vt 0.5489 0.1928
vt 0.5570 0.1976
vt 0.5489 0.1968
vt 0.5425 0.1911
vt 0.5373 0.1947
vt 0.5381 0.1889
vt 0.5432 0.1992
vt 0.5474 0.1838
vt 0.5517 0.2071
vt 0.5630 0.2055
vt 0.5527 0.2154
vt 0.5991 0.1766
vt 0.5985 0.1902
vt 0.5399 0.2109
vt 0.5310 0.2101
vt 0.5363 0.2029
vt 0.5904 0.1669
vt 0.5836 0.1703
vt 0.5501 0.2008
vt 0.5760 0.1693
vt 0.5700 0.1765
vt 0.5667 0.1851
vt 0.5228 0.1846
vt 0.5335 0.1888
vt 0.5228 0.1943
vt 0.5276 0.2019
vt 0.5649 0.1956
vt 0.5654 0.1862
vt 0.5626 0.1776
vt 0.5954 0.1975
vt 0.5976 0.2084
vt 0.6054 0.2033
vt 0.6091 0.1956
vt 0.6068 0.1870
vt 0.4193 0.8498
vt 0.4215 0.8655
vt 0.4188 0.8654
vt 0.4161 0.8499
vt 0.4170 0.8657
vt 0.4135 0.8659
vt 0.4099 0.8659
vt 0.4372 0.7625
vt 0.4408 0.7655
vt 0.4403 0.7747
vt 0.4381 0.7749
vt 0.4450 0.7626
vt 0.4483 0.7653
vt 0.4446 0.7758
vt 0.4425 0.7752
vt 0.4195 0.8658
vt 0.4334 0.7644
vt 0.4359 0.7752
vt 0.4437 0.7931
vt 0.4414 0.7927
vt 0.4392 0.7929
vt 0.4368 0.7928
vt 0.4352 0.7924
vt 0.4194 0.8659
vt 0.4194 0.8659
vt 0.4195 0.8660
vt 0.4195 0.8660
vt 0.4180 0.8663
vt 0.4194 0.8658
vt 0.4195 0.8660
vt 0.4190 0.8664
vt 0.4533 0.7635
vt 0.4580 0.7642
vt 0.4568 0.7883
vt 0.4536 0.7881
vt 0.4362 0.8241
vt 0.4347 0.8236
vt 0.4410 0.7950
vt 0.4376 0.8242
vt 0.4391 0.8240
vt 0.4641 0.7627
vt 0.4669 0.7625
vt 0.4650 0.7787
vt 0.4632 0.7790
vt 0.4616 0.7625
vt 0.4616 0.7785
vt 0.4691 0.7631
vt 0.4666 0.7789
vt 0.4615 0.7625
vt 0.4596 0.7879
vt 0.4483 0.7625
vt 0.4507 0.7878
vt 0.4557 0.8168
vt 0.4536 0.8165
vt 0.4575 0.8169
vt 0.4518 0.8168
vt 0.4421 0.8441
vt 0.4421 0.8402
vt 0.4500 0.8404
vt 0.4500 0.8443
vt 0.4424 0.8362
vt 0.4424 0.8481
vt 0.6840 0.8256
vt 0.6832 0.8161
vt 0.6875 0.8161
vt 0.6883 0.8254
vt 0.6837 0.8080
vt 0.6883 0.8080
vn 0.7071 -0.0038 -0.7071
vn -0.7050 0.0767 0.7050
vn 0.7071 -0.0016 0.7071
vn -0.7051 0.0745 -0.7051
vn 0.7082 0.0374 0.7050
vn 0.7075 0.1218 -0.6961
vn -0.7122 -0.0797 0.6974
vn -0.7244 -0.0024 -0.6894
vn 0.1585 -0.9438 -0.2900
vn -0.1349 -0.9749 -0.1771
vn -0.1565 -0.9695 -0.1886
vn 0.4147 0.1334 -0.9001
vn -0.0905 -0.3810 -0.9202
vn -0.0562 -0.1571 -0.9860
vn 0.6450 -0.5697 -0.5093
vn 0.7838 -0.5631 -0.2620
vn 0.5542 0.0252 -0.8320
vn -0.6575 -0.6601 -0.3632
vn -0.0619 -0.8255 -0.5610
vn -0.9599 -0.2660 -0.0881
vn -0.9127 -0.4052 -0.0521
vn -0.6719 0.5066 -0.5402
vn -0.9455 0.2634 -0.1916
vn -0.8286 0.4920 -0.2672
vn -0.6556 -0.1536 -0.7393
vn -0.6023 -0.0359 -0.7974
vn -0.6331 0.0800 -0.7699
vn -0.6486 -0.0739 0.7575
vn -0.3164 0.0153 0.9485
vn 0.0887 -0.0322 0.9955
vn 0.1237 0.8848 0.4493
vn 0.1498 0.5004 0.8527
vn 0.2497 0.7930 0.5557
vn -0.7408 0.4269 0.5186
vn -0.7854 0.3965 0.4754
vn -0.6158 0.6913 0.3780
vn 0.5503 -0.3902 0.7381
vn 0.7516 -0.5982 0.2780
vn 0.5244 -0.8459 0.0969
vn 0.7509 0.6592 -0.0402
vn 0.9734 -0.2261 0.0372
vn 0.9568 0.2420 -0.1612
vn 0.8110 0.3136 0.4938
vn 0.3693 0.3937 0.8418
vn 0.5687 0.6922 0.4443
vn 0.7279 0.4861 -0.4837
vn 0.1530 0.5756 -0.8033
vn 0.1353 0.2482 -0.9592
vn -0.2388 0.8396 -0.4878
vn -0.5671 0.6992 -0.4354
vn 0.3666 0.9153 -0.1671
vn 0.4940 0.7659 0.4115
vn -0.0929 -0.8450 0.5266
vn -0.3455 -0.8940 0.2853
vn -0.4844 -0.8567 0.1773
vn -0.1347 -0.9686 -0.2090
vn -0.1469 -0.9891 0.0081
vn -0.0523 -0.9957 0.0768
vn 0.1902 -0.9704 -0.1490
vn 0.5081 -0.8591 0.0611
vn 0.1584 -0.9438 -0.2901
vn 0.0493 -0.4669 -0.8829
vn 0.2035 -0.3031 -0.9310
vn 0.5319 -0.3483 -0.7718
vn -0.5919 -0.6576 -0.4660
vn -0.4835 -0.8675 -0.1168
vn -0.9740 -0.2168 0.0656
vn -0.9421 0.1223 -0.3123
vn -0.8917 0.2970 -0.3415
vn -0.7040 -0.0613 -0.7075
vn -0.4291 -0.2759 -0.8601
vn -0.3778 0.0266 -0.9255
vn -0.7972 0.0593 0.6007
vn -0.8311 0.0543 0.5535
vn -0.0340 -0.0915 0.9952
vn -0.3535 0.4242 0.8337
vn 0.1014 0.5528 0.8271
vn -0.6989 0.4721 0.5372
vn 0.5329 -0.2708 0.8017
vn 0.1829 -0.0314 0.9826
vn 0.5315 -0.8448 -0.0627
vn 0.9423 -0.2426 0.2307
vn 0.9292 -0.3682 -0.0316
vn 0.5895 0.2108 0.7798
vn 0.6565 0.5448 -0.5217
vn 0.7015 0.7066 -0.0930
vn 0.7081 0.4866 -0.5118
vn 0.3438 0.4989 -0.7956
vn -0.3660 0.3149 -0.8757
vn -0.0018 0.8735 -0.4868
vn -0.2269 0.8534 -0.4693
vn -0.4802 0.8718 -0.0963
vn 0.3290 0.9275 -0.1772
vn 0.4835 0.8735 -0.0573
vn 0.1985 0.9759 -0.0907
vn -0.1454 -0.8844 0.4435
vn 0.0313 -0.8915 0.4518
vn -0.3400 -0.8540 0.3938
vn -0.1094 -0.9914 0.0716
vn -0.2504 -0.9681 -0.0025
vn 0.0327 -0.9747 -0.2213
vn -0.0403 -0.9947 0.0943
vn -0.0385 -0.9957 0.0847
vn -0.0100 -0.9957 -0.0923
vn 0.6256 -0.0788 -0.7762
vn -0.5848 0.0842 0.8068
vn -0.0262 0.9944 -0.1027
vn 0.0694 -0.9895 0.1265
vn -0.0844 0.8924 -0.4432
vn 0.0145 -0.9805 0.1962
vn 0.5969 0.6819 0.4228
vn -0.1470 0.2011 0.9685
vn 0.3781 -0.6558 0.6534
vn -0.1484 -0.6136 -0.7755
vn 0.1672 0.5830 0.7951
vn -0.3755 0.7603 -0.5300
vn 0.9279 0.3718 -0.0267
vn 0.0309 -0.4048 -0.9139
vn -0.8755 0.4340 0.2124
vn -0.2775 -0.8927 -0.3549
vn 0.9822 0.1859 0.0281
vn -0.3203 0.8871 -0.3324
vn -0.7520 0.5320 0.3893
vn 0.2853 0.6980 -0.6569
vn -0.1617 -0.3272 0.9310
vn -0.3320 -0.7303 -0.5970
vn 0.3082 0.7503 0.5849
vn -0.1408 -0.2735 0.9515
vn -0.5899 0.5926 -0.5485
vn -0.1980 -0.4063 0.8920
vn 0.8802 -0.2636 -0.3947
vn 0.9975 0.0621 -0.0325
vn -0.2563 -0.7603 -0.5968
vn 0.9532 -0.1867 -0.2378
vn -0.4711 -0.7380 0.4831
vn -0.4935 0.8562 -0.1527
vn 0.8555 -0.2291 -0.4643
vn -0.3309 -0.7243 0.6049
vn -0.0313 0.9938 -0.1067
vn -0.6094 0.0977 0.7868
vn 0.6094 -0.1028 -0.7862
vn 0.3858 -0.8396 0.3822
vn 0.5998 0.5848 0.5461
s off
f 1/1/1 5/2/1 8/3/1 4/4/1
f 3/5/2 7/6/2 6/7/2 2/8/2
f 4/4/3 8/3/3 7/6/3 3/5/3
f 2/8/4 6/7/4 5/9/4 1/10/4
f 8/3/5 12/11/5 11/12/5 7/6/5
f 5/2/6 9/13/6 12/11/6 8/3/6
f 7/6/7 11/12/7 10/14/7 6/7/7
f 6/7/8 10/14/8 9/15/8 5/9/8
f 13/16/9 14/17/9 15/18/9
f 15/18/10 16/19/10 17/20/10
f 17/20/11 16/19/11 18/21/11
f 19/22/12 20/23/12 21/24/12
f 17/20/13 22/25/13 19/22/13
f 19/22/14 22/25/14 20/23/14
f 13/16/15 23/26/15 14/17/15
f 14/17/16 23/26/16 24/27/16
f 19/22/17 21/24/17 23/26/17
f 25/28/18 26/29/18 27/30/18
f 28/31/19 16/19/19 26/29/19
f 25/32/20 27/33/20 29/34/20
f 29/34/21 30/35/21 31/36/21
f 32/37/22 33/38/22 34/39/22
f 29/34/23 35/40/23 32/37/23
f 32/37/24 35/40/24 33/38/24
f 25/28/25 36/41/25 28/31/25
f 28/31/26 22/25/26 18/21/26
f 32/42/27 34/43/27 36/41/27
f 37/44/28 30/35/28 38/45/28
f 37/44/29 38/45/29 39/46/29
f 39/46/30 40/47/30 41/48/30
f 42/49/31 43/50/31 44/51/31
f 39/46/32 45/52/32 42/49/32
f 42/49/33 45/52/33 43/50/33
f 37/44/34 35/40/34 46/53/34
f 46/53/35 35/40/35 31/36/35
f 42/49/36 44/51/36 35/40/36
f 47/54/37 40/47/37 48/55/37
f 47/54/38 48/55/38 49/56/38
f 49/57/39 50/58/39 24/27/39
f 51/59/40 52/60/40 53/61/40
f 49/57/41 23/26/41 51/62/41
f 51/62/42 23/26/42 52/63/42
f 47/54/43 45/52/43 54/64/43
f 54/64/44 45/52/44 41/48/44
f 51/59/45 53/61/45 45/52/45
f 55/65/46 23/26/46 21/24/46
f 56/66/47 20/23/47 57/67/47
f 57/67/48 22/25/48 34/43/48
f 57/68/49 33/38/49 58/69/49
f 58/69/50 35/40/50 44/51/50
f 56/70/51 43/50/51 55/71/51
f 43/50/52 45/52/52 53/61/52
f 59/72/53 40/47/53 38/45/53
f 60/73/54 30/35/54 61/74/54
f 61/74/55 30/35/55 27/33/55
f 62/75/56 16/19/56 15/18/56
f 61/76/57 26/29/57 62/75/57
f 60/77/58 50/58/58 59/78/58
f 15/18/59 14/17/59 50/58/59
f 14/17/60 24/27/60 50/58/60
f 13/16/61 15/18/61 17/20/61
f 13/16/62 17/20/62 19/22/62
f 17/20/63 18/21/63 22/25/63
f 13/16/64 19/22/64 23/26/64
f 25/28/65 28/31/65 26/29/65
f 28/31/66 18/21/66 16/19/66
f 29/34/67 27/33/67 30/35/67
f 25/32/68 29/34/68 32/37/68
f 29/34/69 31/36/69 35/40/69
f 25/28/70 32/42/70 36/41/70
f 28/31/71 36/41/71 22/25/71
f 36/41/72 34/43/72 22/25/72
f 37/44/73 46/53/73 30/35/73
f 46/53/74 31/36/74 30/35/74
f 39/46/75 38/45/75 40/47/75
f 37/44/76 39/46/76 42/49/76
f 39/46/77 41/48/77 45/52/77
f 37/44/78 42/49/78 35/40/78
f 47/54/79 54/64/79 40/47/79
f 54/64/80 41/48/80 40/47/80
f 49/57/81 48/79/81 50/58/81
f 47/54/82 49/56/82 51/59/82
f 49/57/83 24/27/83 23/26/83
f 47/54/84 51/59/84 45/52/84
f 56/66/85 55/65/85 21/24/85
f 55/71/86 53/61/86 52/60/86
f 55/65/87 52/63/87 23/26/87
f 56/66/88 21/24/88 20/23/88
f 57/67/89 20/23/89 22/25/89
f 56/70/90 57/68/90 58/69/90
f 57/68/91 34/39/91 33/38/91
f 58/69/92 33/38/92 35/40/92
f 56/70/93 58/69/93 43/50/93
f 55/71/94 43/50/94 53/61/94
f 58/69/95 44/51/95 43/50/95
f 60/73/96 59/72/96 38/45/96
f 59/72/97 48/55/97 40/47/97
f 60/73/98 38/45/98 30/35/98
f 60/77/99 61/76/99 62/75/99
f 61/76/100 27/30/100 26/29/100
f 62/75/101 26/29/101 16/19/101
f 60/77/102 62/75/102 50/58/102
f 59/78/103 50/58/103 48/79/103
f 62/75/104 15/18/104 50/58/104
f 64/80/105 9/13/105 65/81/105 68/82/105
f 10/14/106 63/83/106 67/84/106 66/85/106
f 63/83/107 64/80/107 68/82/107 67/84/107
f 9/15/108 10/14/108 66/85/108 65/86/108
f 67/87/109 77/88/109 72/89/109 71/90/109
f 65/91/110 66/92/110 70/93/110 69/94/110
f 67/84/111 68/82/111 79/95/111
f 66/96/112 67/87/112 71/90/112 70/97/112
f 69/94/113 70/93/113 74/98/113 73/99/113
f 72/89/114 69/94/114 73/99/114 76/100/114
f 70/97/115 71/90/115 75/101/115 74/102/115
f 71/90/116 72/89/116 76/100/116 75/101/116
f 79/103/117 78/104/117 81/105/117 82/106/117
f 77/88/118 65/91/118 69/94/118 72/89/118
f 77/107/119 67/84/119 79/95/119 80/108/119
f 78/104/120 80/108/120 83/109/120 81/105/120
f 68/82/121 91/110/121 78/104/121 79/103/121
f 77/111/122 91/112/122 94/113/122 93/114/122
f 80/108/123 79/95/123 82/106/123 83/109/123
f 75/101/124 76/100/124 86/115/124 85/116/124
f 73/99/125 74/98/125 87/117/125
f 76/100/126 87/117/126 84/118/126 86/115/126
f 74/102/127 75/101/127 85/116/127
f 87/117/128 74/98/128 85/119/128 84/118/128
f 87/120/129 76/121/129 89/122/129 90/123/129
f 73/124/130 87/120/130 90/123/130 88/125/130
f 76/121/131 73/126/131 88/127/131 89/122/131
f 91/110/132 68/82/132 65/81/132
f 91/110/133 77/107/133 80/108/133 78/104/133
f 91/112/134 65/128/134 92/129/134 94/113/134
f 65/130/135 77/111/135 93/114/135 92/131/135
f 94/113/136 97/132/136 96/133/136 93/114/136
f 92/129/137 95/134/137 97/132/137 94/113/137
f 93/114/138 96/133/138 95/135/138 92/131/138
f 64/136/139 63/137/139 99/138/139 98/139/139
f 10/140/140 99/138/140 63/137/140
f 64/136/141 98/139/141 9/141/141
f 99/142/142 10/143/142 9/144/142 98/145/142
f 10/143/143 11/146/143 12/147/143 9/144/143
