# Blender v2.78 (sub 0) OBJ File: 'Low_Poly_Trees_Pack.blend'
# www.blender.org
g Apple_Tree_m_01
v 0.502629 3.087842 0.002750
v 0.003970 3.021149 0.677380
v -0.927551 2.440010 -0.248328
v -1.151569 2.873295 -1.042614
v 0.221840 3.018487 -0.851908
v 0.181951 3.392166 -1.520620
v 1.335386 3.740512 -0.183178
v 1.689916 4.465896 -0.559471
v 1.748677 4.507339 0.337608
v 1.325080 4.121133 -1.319427
v 1.101577 3.844702 1.171126
v -0.224564 3.356447 1.213025
v -0.817479 4.415541 -2.219558
v -1.497792 3.336485 -1.681033
v -2.232515 3.867654 -2.073425
v -0.242186 3.870420 -1.924047
v -1.323476 5.143337 -2.353583
v -3.167717 4.698709 -1.730972
v -1.794864 5.559747 -2.078758
v 0.382001 5.423008 -2.111793
v 0.698314 6.171234 -1.626137
v 1.364368 5.427061 -1.443673
v -0.865292 6.429551 -1.564630
v 1.046104 4.601656 -1.958640
v -2.830707 6.080632 -0.822798
v -3.490653 4.649215 -0.619758
v -2.656010 6.024457 0.081476
v -3.018589 4.363292 0.615688
v -2.374806 5.905626 0.780721
v -1.250857 7.194884 -0.215094
v 0.114371 6.789650 0.422406
v -0.178910 6.941503 -0.562604
v -1.038788 6.391378 1.158522
v -2.234498 5.795996 -1.490750
v -1.647114 4.534336 1.665944
v -2.444821 3.484930 0.856273
v -0.802828 3.835395 1.530337
v -1.789741 2.823048 0.316017
v 0.262632 5.215752 1.860736
v 1.223575 5.346440 1.379472
v 0.555172 6.186560 1.363824
v -2.262744 5.462567 1.439011
v 1.513925 6.080032 0.822373
v 1.894765 5.983260 0.008353
v 1.776911 5.652329 -0.845212
v 0.919393 6.908637 -0.475973
v -3.027910 3.610861 0.128664
v -3.146847 3.509645 -0.712000
v -2.791095 3.589506 -1.512596
v -2.082733 2.840760 -0.746892
v 0.000000 0.000000 -0.205175
v -0.218126 0.000000 -0.045696
v -0.134809 0.000000 0.210714
v 0.134809 0.000000 0.209897
v 0.218126 0.000000 -0.047110
v 0.069214 0.434624 -0.107600
v -0.088379 0.421469 0.008606
v -0.028184 0.426494 0.194200
v 0.166611 0.442755 0.192755
v 0.226806 0.447780 0.006248
v -0.187040 2.129918 0.017004
v -0.281415 2.039452 0.096610
v -0.252328 2.121759 0.218764
v -0.121751 2.138076 0.219785
v -0.081401 2.143118 0.094255
v 0.151402 1.208826 0.107163
v 0.103230 1.203771 0.258266
v -0.052659 1.187414 0.258741
v -0.100831 1.182360 0.107933
v 0.025285 1.195593 0.014239
v -0.018369 3.169421 0.083561
v -0.066217 3.175404 0.118548
v -0.047940 3.173118 0.175249
v 0.011203 3.165723 0.175310
v 0.029479 3.163438 0.118638
v -0.273573 2.242396 0.092869
v -0.517379 2.400880 0.038562
v -0.596193 2.388966 0.079747
v -0.555359 2.419067 0.157072
v -0.522243 2.485953 0.085418
v -1.220100 2.748779 -0.193099
v -1.269340 2.751200 -0.167021
v -1.241013 2.765468 -0.118781
v -1.213080 2.801503 -0.162095
vt 0.4646 0.1872
vt 0.4691 0.1846
vt 0.4700 0.1916
vt 0.4680 0.1964
vt 0.4632 0.1921
vt 0.4606 0.1953
vt 0.4595 0.1859
vt 0.4545 0.1859
vt 0.4576 0.1805
vt 0.4552 0.1916
vt 0.4649 0.1785
vt 0.4720 0.1808
vt 0.4564 0.2072
vt 0.4667 0.2018
vt 0.4682 0.2098
vt 0.4588 0.1997
vt 0.4246 0.1669
vt 0.4359 0.1718
vt 0.4242 0.1748
vt 0.4320 0.1819
vt 0.4243 0.1799
vt 0.4127 0.1732
vt 0.4119 0.1806
vt 0.4038 0.1773
vt 0.4189 0.1831
vt 0.4523 0.1956
vt 0.4447 0.2012
vt 0.4450 0.1920
vt 0.4266 0.1883
vt 0.4334 0.1889
vt 0.4268 0.1928
vt 0.4350 0.1976
vt 0.4269 0.1968
vt 0.4205 0.1911
vt 0.4152 0.1947
vt 0.4161 0.1889
vt 0.4212 0.1992
vt 0.4254 0.1838
vt 0.4297 0.2071
vt 0.4409 0.2055
vt 0.4307 0.2154
vt 0.4770 0.1766
vt 0.4764 0.1902
vt 0.4178 0.2109
vt 0.4090 0.2101
vt 0.4142 0.2029
vt 0.4684 0.1669
vt 0.4615 0.1703
vt 0.4280 0.2008
vt 0.4540 0.1693
vt 0.4480 0.1765
vt 0.4447 0.1851
vt 0.4008 0.1846
vt 0.4115 0.1888
vt 0.4008 0.1943
vt 0.4056 0.2019
vt 0.4428 0.1956
vt 0.4433 0.1862
vt 0.4405 0.1776
vt 0.4734 0.1975
vt 0.4756 0.2084
vt 0.4833 0.2033
vt 0.4871 0.1956
vt 0.4848 0.1870
vt 0.3175 0.7775
vt 0.3183 0.7846
vt 0.3151 0.7846
vt 0.3135 0.7775
vt 0.3302 0.7784
vt 0.3275 0.7848
vt 0.3245 0.7845
vt 0.3260 0.7777
vt 0.3218 0.7776
vt 0.3214 0.7846
vt 0.3119 0.7851
vt 0.3093 0.7786
vt 0.3211 0.7965
vt 0.3187 0.7967
vt 0.3163 0.7969
vt 0.3138 0.7970
vt 0.3236 0.7965
vt 0.3213 0.8123
vt 0.3191 0.8124
vt 0.3169 0.8124
vt 0.3147 0.8112
vt 0.3235 0.8121
vt 0.3261 0.7968
vt 0.3257 0.8111
vt 0.3230 0.8299
vt 0.3220 0.8301
vt 0.3210 0.8301
vt 0.3200 0.8301
vt 0.3255 0.8138
vt 0.3240 0.8298
vt 0.3302 0.7966
vt 0.3327 0.7981
vt 0.3327 0.8038
vt 0.3312 0.8035
vt 0.3341 0.8029
vt 0.3353 0.8038
vt 0.3351 0.8166
vt 0.3344 0.8161
vt 0.3151 0.8147
vt 0.3190 0.8302
vt 0.3339 0.7958
vt 0.3362 0.7961
vt 0.3334 0.8165
vt 0.3276 0.7966
vt 0.3299 0.8041
vt 0.3323 0.8163
vt 0.3316 0.8168
vn 0.3774 -0.9065 0.1893
vn 0.1599 -0.8469 -0.5071
vn 0.1586 -0.8578 -0.4888
vn 0.8900 -0.4544 -0.0373
vn 0.6285 -0.7358 -0.2522
vn 0.8450 -0.5047 -0.1767
vn 0.4915 -0.8240 0.2818
vn 0.2944 -0.7485 0.5942
vn 0.8083 -0.5597 0.1826
vn 0.1027 -0.4953 -0.8627
vn 0.1913 -0.7422 -0.6423
vn -0.0247 -0.1976 -0.9800
vn -0.3562 0.1992 -0.9129
vn 0.5379 0.2871 -0.7926
vn 0.0375 0.5128 -0.8577
vn 0.0538 0.5276 -0.8478
vn 0.1632 -0.3315 -0.9292
vn 0.3853 -0.3710 -0.8449
vn -0.8936 0.3775 -0.2429
vn -0.8795 0.4334 0.1968
vn -0.8603 0.3163 0.3997
vn 0.2520 0.9649 0.0737
vn -0.4921 0.7162 0.4949
vn 0.0221 0.8644 0.5023
vn -0.3575 0.7005 -0.6176
vn -0.3699 0.7329 -0.5710
vn 0.0506 0.8749 -0.4817
vn -0.5864 -0.1659 0.7928
vn -0.2492 -0.4657 0.8491
vn -0.1748 -0.6817 0.7104
vn 0.3879 0.3247 0.8626
vn 0.1750 -0.3549 0.9184
vn 0.4593 -0.1586 0.8740
vn 0.0281 0.2549 0.9666
vn -0.4184 0.7189 0.5551
vn -0.0535 0.4677 0.8823
vn 0.8106 -0.0586 0.5827
vn 0.9904 -0.0965 -0.0993
vn 0.8342 -0.0770 -0.5460
vn 0.6413 0.5840 -0.4977
vn 0.0646 0.8700 -0.4888
vn 0.4288 0.8985 0.0938
vn 0.0416 0.8500 0.5251
vn -0.9309 -0.1902 0.3117
vn -0.8369 -0.3645 -0.4083
vn -0.5757 -0.3417 -0.7428
vn -0.1124 -0.8853 -0.4512
vn -0.2287 -0.7933 -0.5642
vn -0.5473 -0.8183 0.1759
vn -0.0169 -0.8391 0.5437
vn -0.0123 -0.8499 0.5268
vn 0.4212 -0.9046 -0.0650
vn 0.5934 -0.7943 -0.1305
vn 0.5372 -0.7222 -0.4356
vn 0.6310 -0.7575 0.1672
vn 0.0227 -0.4578 -0.8887
vn -0.0170 -0.6535 -0.7568
vn -0.3249 0.0239 -0.9454
vn 0.1521 -0.0757 -0.9855
vn -0.0265 0.5295 -0.8479
vn 0.1449 -0.0669 -0.9872
vn 0.3592 -0.6639 -0.6559
vn 0.8943 -0.0690 -0.4421
vn -0.4853 0.5598 -0.6717
vn -0.5225 0.5810 -0.6241
vn -0.8593 0.3167 0.4016
vn -0.6102 0.7747 0.1660
vn -0.4008 0.8629 0.3078
vn -0.3394 0.7733 -0.5355
vn -0.5814 -0.1923 0.7906
vn -0.8718 0.3246 0.3669
vn -0.1360 -0.7038 0.6973
vn -0.0224 -0.2164 0.9761
vn 0.1725 -0.3908 0.9042
vn -0.2087 0.3208 0.9239
vn 0.9060 0.0048 0.4233
vn 0.4840 0.3996 0.7785
vn 0.9368 -0.1216 0.3281
vn 0.9920 -0.1115 -0.0598
vn 0.9162 -0.1561 -0.3691
vn 0.7308 0.5964 -0.3321
vn 0.6559 0.4360 -0.6162
vn 0.1148 0.8261 -0.5517
vn 0.4510 0.7380 0.5019
vn 0.3211 0.8586 0.3997
vn 0.0180 0.9890 0.1471
vn -0.9398 -0.2972 0.1687
vn -0.7604 -0.3462 0.5495
vn -0.9250 -0.2564 -0.2803
vn -0.5135 -0.8009 -0.3081
vn -0.2280 -0.7626 -0.6053
vn -0.1394 -0.8359 -0.5309
vn -0.5246 -0.8413 0.1306
vn -0.5440 -0.7835 0.3003
vn -0.3585 -0.9298 0.0833
vn 0.0035 0.0381 0.9993
vn -0.5756 0.2707 -0.7716
vn 0.9501 -0.0557 0.3068
vn -0.9232 0.2441 0.2970
vn 0.5821 0.0869 -0.8085
vn 0.9503 0.0531 0.3066
vn -0.9498 -0.0562 0.3077
vn 0.5712 0.1625 -0.8045
vn 0.0133 -0.0844 0.9963
vn 0.9233 0.2346 0.3040
vn -0.9277 -0.1877 0.3227
vn 0.5767 0.1330 -0.8061
vn -0.0065 0.0405 0.9992
vn -0.5743 -0.1298 -0.8083
vn 0.5914 -0.0447 -0.8052
vn -0.0077 0.0435 0.9990
vn -0.5514 0.1435 -0.8218
vn 0.9467 -0.1097 0.3029
vn 0.5172 0.6050 0.6054
vn -0.5978 0.0936 -0.7962
vn -0.2267 -0.8068 -0.5455
vn -0.9234 0.1946 0.3308
vn -0.3692 -0.3774 -0.8493
vn 0.4695 0.4288 -0.7718
vn -0.6426 -0.5489 0.5346
vn 0.5284 0.6108 -0.5897
vn 0.0842 0.7198 0.6891
vn -0.5434 -0.6514 0.5295
s off
f 1/1/1 2/2/1 3/3/1
f 3/3/2 4/4/2 5/5/2
f 5/5/3 4/4/3 6/6/3
f 7/7/4 8/8/4 9/9/4
f 5/5/5 10/10/5 7/7/5
f 7/7/6 10/10/6 8/8/6
f 1/1/7 11/11/7 2/2/7
f 2/2/8 11/11/8 12/12/8
f 7/7/9 9/9/9 11/11/9
f 13/13/10 14/14/10 15/15/10
f 16/16/11 4/4/11 14/14/11
f 13/17/12 15/18/12 17/19/12
f 17/19/13 18/20/13 19/21/13
f 20/22/14 21/23/14 22/24/14
f 17/19/15 23/25/15 20/22/15
f 20/22/16 23/25/16 21/23/16
f 13/13/17 24/26/17 16/16/17
f 16/16/18 10/10/18 6/6/18
f 20/27/14 22/28/14 24/26/14
f 25/29/19 18/20/19 26/30/19
f 25/29/20 26/30/20 27/31/20
f 27/31/21 28/32/21 29/33/21
f 30/34/22 31/35/22 32/36/22
f 27/31/23 33/37/23 30/34/23
f 30/34/24 33/37/24 31/35/24
f 25/29/25 23/25/25 34/38/25
f 34/38/26 23/25/26 19/21/26
f 30/34/27 32/36/27 23/25/27
f 35/39/28 28/32/28 36/40/28
f 35/39/29 36/40/29 37/41/29
f 37/42/30 38/43/30 12/12/30
f 39/44/31 40/45/31 41/46/31
f 37/42/32 11/11/32 39/47/32
f 39/47/33 11/11/33 40/48/33
f 35/39/34 33/37/34 42/49/34
f 42/49/35 33/37/35 29/33/35
f 39/44/36 41/46/36 33/37/36
f 43/50/37 11/11/37 9/9/37
f 44/51/38 8/8/38 45/52/38
f 45/52/39 10/10/39 22/28/39
f 45/53/40 21/23/40 46/54/40
f 46/54/41 23/25/41 32/36/41
f 44/55/42 31/35/42 43/56/42
f 31/35/43 33/37/43 41/46/43
f 47/57/44 28/32/44 26/30/44
f 48/58/45 18/20/45 49/59/45
f 49/59/46 18/20/46 15/18/46
f 50/60/47 4/4/47 3/3/47
f 49/61/48 14/14/48 50/60/48
f 48/62/49 38/43/49 47/63/49
f 3/3/50 2/2/50 38/43/50
f 2/2/51 12/12/51 38/43/51
f 1/1/52 3/3/52 5/5/52
f 1/1/53 5/5/53 7/7/53
f 5/5/54 6/6/54 10/10/54
f 1/1/55 7/7/55 11/11/55
f 13/13/56 16/16/56 14/14/56
f 16/16/57 6/6/57 4/4/57
f 17/19/58 15/18/58 18/20/58
f 13/17/59 17/19/59 20/22/59
f 17/19/60 19/21/60 23/25/60
f 13/13/61 20/27/61 24/26/61
f 16/16/62 24/26/62 10/10/62
f 24/26/63 22/28/63 10/10/63
f 25/29/64 34/38/64 18/20/64
f 34/38/65 19/21/65 18/20/65
f 27/31/66 26/30/66 28/32/66
f 25/29/67 27/31/67 30/34/67
f 27/31/68 29/33/68 33/37/68
f 25/29/69 30/34/69 23/25/69
f 35/39/70 42/49/70 28/32/70
f 42/49/71 29/33/71 28/32/71
f 37/42/72 36/64/72 38/43/72
f 35/39/73 37/41/73 39/44/73
f 37/42/74 12/12/74 11/11/74
f 35/39/75 39/44/75 33/37/75
f 44/51/76 43/50/76 9/9/76
f 43/56/77 41/46/77 40/45/77
f 43/50/78 40/48/78 11/11/78
f 44/51/79 9/9/79 8/8/79
f 45/52/80 8/8/80 10/10/80
f 44/55/81 45/53/81 46/54/81
f 45/53/82 22/24/82 21/23/82
f 46/54/83 21/23/83 23/25/83
f 44/55/84 46/54/84 31/35/84
f 43/56/85 31/35/85 41/46/85
f 46/54/86 32/36/86 31/35/86
f 48/58/87 47/57/87 26/30/87
f 47/57/88 36/40/88 28/32/88
f 48/58/89 26/30/89 18/20/89
f 48/62/90 49/61/90 50/60/90
f 49/61/91 15/15/91 14/14/91
f 50/60/92 14/14/92 4/4/92
f 48/62/93 50/60/93 38/43/93
f 47/63/94 38/43/94 36/64/94
f 50/60/95 3/3/95 38/43/95
f 54/65/96 59/66/96 58/67/96 53/68/96
f 52/69/97 57/70/97 56/71/97 51/72/97
f 55/73/98 60/74/98 59/66/98 54/65/98
f 53/68/99 58/67/99 57/75/99 52/76/99
f 51/72/100 56/71/100 60/74/100 55/73/100
f 66/77/101 67/78/101 59/66/101 60/74/101
f 68/79/102 69/80/102 57/75/102 58/67/102
f 70/81/103 66/77/103 60/74/103 56/71/103
f 59/66/104 67/78/104 68/79/104 58/67/104
f 67/78/105 66/77/105 65/82/105 64/83/105
f 69/80/106 68/79/106 63/84/106 62/85/106
f 66/77/107 70/81/107 61/86/107 65/82/107
f 68/79/108 67/78/108 64/83/108 63/84/108
f 70/81/109 69/87/109 62/88/109 61/86/109
f 65/82/110 61/86/110 71/89/110 75/90/110
f 63/84/111 64/83/111 74/91/111 73/92/111
f 61/86/112 76/93/112 72/94/112 71/89/112
f 64/83/113 65/82/113 75/90/113 74/91/113
f 63/95/114 76/96/114 80/97/114 79/98/114
f 57/70/115 69/87/115 70/81/115 56/71/115
f 77/99/116 78/100/116 82/101/116 81/102/116
f 76/103/117 63/84/117 73/92/117 72/104/117
f 61/105/118 62/106/118 78/100/118 77/99/118
f 80/97/119 77/99/119 81/102/119 84/107/119
f 62/108/120 63/95/120 79/98/120 78/109/120
f 76/96/121 61/105/121 77/99/121 80/97/121
f 79/98/122 80/97/122 84/107/122 83/110/122
f 78/109/123 79/98/123 83/110/123 82/111/123
