# Blender v2.78 (sub 0) OBJ File: 'Low_Poly_Trees_Pack.blend'
# www.blender.org
g Apple_Tree_NoLeaves_m_08
v 0.027546 0.016446 0.326446
v 0.238739 0.024834 0.092320
v 0.233184 0.021721 -0.215188
v -0.206531 0.008763 -0.226586
v -0.303906 0.007808 0.035768
v 0.103386 1.078170 0.202181
v 0.298758 1.059209 0.070503
v 0.238028 1.060345 -0.153823
v -0.041582 1.361455 -0.210507
v -0.126331 1.358093 0.022897
v 0.282262 2.247245 0.134458
v 0.409142 2.236461 0.049197
v 0.369379 2.250285 -0.097817
v 0.218124 2.270064 -0.103573
v 0.163938 2.268427 0.040687
v 0.697260 3.046087 0.156026
v 0.759270 2.960364 0.085864
v 0.762357 3.042877 -0.018858
v 0.668637 3.110091 -0.016938
v 0.619605 3.077318 0.089459
v 1.007545 3.932879 0.227230
v 1.062215 3.928493 0.178036
v 1.034932 3.946505 0.112011
v 0.963398 3.962022 0.120398
v 0.946472 3.953600 0.191608
v -0.100333 1.191401 0.141775
v 0.034783 1.144173 -0.184326
v -0.377559 2.125467 -0.230003
v -0.397701 2.133218 -0.103780
v -0.580218 2.040709 -0.260443
v -0.615258 2.068067 -0.138590
v 0.018448 0.012835 -0.336492
v -0.239563 0.009125 0.286003
v -0.517458 2.084527 -0.058074
v -0.213603 0.589648 0.109632
v -0.085687 0.542012 0.213416
v 0.169520 0.483256 -0.185169
v 0.242377 0.484035 0.076248
v -0.123531 0.591737 -0.225620
v -0.476439 2.085216 -0.310519
v 0.066226 0.494004 0.215716
v 0.011774 0.550992 -0.268728
v -0.846999 3.866818 -0.274357
v -0.817321 3.867845 -0.132092
v -0.882483 3.855377 -0.192641
v -0.741566 3.886991 -0.176388
v -0.751483 3.864054 -0.265211
v 2.255935 5.470087 0.481614
v 2.249357 5.476134 0.477695
v 2.256212 5.474558 0.466455
v 2.260648 5.470362 0.474361
v 1.544207 4.809155 0.358100
v 1.573418 4.797687 0.333875
v 1.566103 4.812675 0.297910
v 1.532373 4.833409 0.299908
v 1.518840 4.831232 0.337107
v -1.387537 4.636978 -0.182867
v -1.367298 4.638197 -0.085174
v -1.410732 4.625176 -0.126964
v -1.317259 4.658048 -0.115250
v -1.329767 4.657293 -0.175628
v -1.696558 6.345850 -0.116215
v -1.700603 6.346440 -0.107254
v -1.684804 6.345360 -0.105464
v -1.686794 6.345182 -0.115109
v 0.817738 3.126904 0.100061
v 2.470901 3.536687 1.771525
v 2.475001 3.523650 1.758623
v 2.475534 3.513373 1.770221
v 2.469177 3.520568 1.781731
v 1.887892 3.481883 0.909080
v 1.925120 3.453442 0.892630
v 1.935288 3.472125 0.845875
v 1.900810 3.521617 0.861316
v 1.041896 3.088821 0.198793
v 1.062282 3.031457 0.146226
v 1.066839 2.990046 0.197877
v 1.038095 3.021692 0.245697
v -0.829548 3.977651 -0.252285
v -0.593436 4.142127 -0.455206
v -0.528979 4.152486 -0.396692
v -0.547622 4.128479 -0.434657
v -0.599999 4.196842 -0.419799
v -0.277188 4.773976 -0.918502
v -0.226402 4.778151 -0.871404
v -0.238695 4.766437 -0.905949
v -0.289327 4.804875 -0.878681
v -0.496725 5.571490 -1.390360
v -0.480365 5.574210 -1.375558
v -0.485172 5.567972 -1.385047
v -0.498184 5.585597 -1.381716
vt 0.5773 0.8489
vt 0.5781 0.8400
vt 0.5815 0.8399
vt 0.5817 0.8490
vt 0.5882 0.8382
vt 0.5935 0.8373
vt 0.5936 0.8408
vt 0.5899 0.8409
vt 0.5851 0.8398
vt 0.5853 0.8490
vt 0.5836 0.8216
vt 0.5860 0.8216
vt 0.5469 0.7575
vt 0.5490 0.7884
vt 0.5471 0.7880
vt 0.5428 0.7579
vt 0.5812 0.8212
vt 0.5787 0.8213
vt 0.5882 0.8209
vt 0.5839 0.8072
vt 0.5855 0.8063
vt 0.5788 0.8074
vt 0.5805 0.8084
vt 0.5822 0.8073
vt 0.5763 0.8217
vt 0.5772 0.8070
vt 0.5772 0.7932
vt 0.5783 0.7929
vt 0.5804 0.8057
vt 0.5795 0.7928
vt 0.5806 0.7929
vt 0.5818 0.7930
vt 0.5829 0.7927
vt 0.5610 0.8615
vt 0.5590 0.8603
vt 0.5588 0.8562
vt 0.5600 0.8564
vt 0.5542 0.7760
vt 0.5577 0.7764
vt 0.5550 0.7891
vt 0.5530 0.7888
vt 0.5750 0.8389
vt 0.5745 0.8478
vt 0.5737 0.8560
vt 0.5700 0.8554
vt 0.5725 0.8470
vt 0.5571 0.7893
vt 0.5650 0.7676
vt 0.5708 0.7610
vt 0.5590 0.7895
vt 0.5505 0.7654
vt 0.5509 0.7883
vt 0.5877 0.8482
vt 0.5900 0.8565
vt 0.5861 0.8565
vt 0.5738 0.8356
vt 0.5772 0.8561
vt 0.5816 0.8560
vt 0.5902 0.8472
vt 0.5936 0.8553
vt 0.5898 0.8356
vt 0.5499 0.8156
vt 0.5486 0.8157
vt 0.5524 0.8164
vt 0.5512 0.8155
vt 0.5473 0.8157
vt 0.5592 0.8379
vt 0.5586 0.8384
vt 0.5580 0.8220
vt 0.5583 0.8218
vt 0.5786 0.7768
vt 0.5780 0.7769
vt 0.5774 0.7619
vt 0.5777 0.7619
vt 0.5798 0.7769
vt 0.5792 0.7769
vt 0.5779 0.7620
vt 0.5782 0.7620
vt 0.5703 0.8353
vt 0.5703 0.8351
vt 0.5705 0.8351
vt 0.5804 0.7767
vt 0.5784 0.7619
vt 0.5774 0.7769
vt 0.5538 0.8167
vt 0.5505 0.8315
vt 0.5495 0.8312
vt 0.5476 0.8308
vt 0.5466 0.8307
vt 0.5680 0.7831
vt 0.5692 0.7824
vt 0.5691 0.7887
vt 0.5683 0.7888
vt 0.5509 0.8175
vt 0.5486 0.8310
vt 0.5456 0.8306
vt 0.5446 0.8588
vt 0.5441 0.8586
vt 0.5428 0.8584
vt 0.5437 0.8584
vt 0.5432 0.8583
vt 0.5647 0.8203
vt 0.5648 0.8205
vt 0.5645 0.8205
vt 0.5646 0.8203
vt 0.5637 0.7948
vt 0.5637 0.7946
vt 0.5640 0.7945
vt 0.5577 0.8384
vt 0.5577 0.8218
vt 0.5640 0.7948
vt 0.5574 0.8561
vt 0.5568 0.8381
vt 0.5561 0.8380
vt 0.5572 0.8218
vt 0.5575 0.8217
vt 0.5564 0.8561
vt 0.5574 0.8615
vt 0.5558 0.8609
vt 0.5610 0.8559
vt 0.5626 0.8605
vt 0.5701 0.7890
vt 0.5694 0.8016
vt 0.5686 0.8015
vt 0.5704 0.7834
vt 0.5680 0.8014
vt 0.5727 0.7830
vt 0.5714 0.7891
vt 0.5739 0.7837
vt 0.5722 0.7891
vt 0.5703 0.8012
vt 0.5708 0.8014
vt 0.5700 0.8164
vt 0.5698 0.8164
vt 0.5695 0.8166
vt 0.5693 0.8165
vt 0.5629 0.8028
vt 0.5631 0.8027
vt 0.5632 0.8030
vt 0.5629 0.8030
vt 0.5691 0.8163
vt 0.5705 0.8353
vn 0.9595 -0.0981 -0.2640
vn 0.8794 0.3545 0.3178
vn 0.5875 -0.0340 0.8085
vn -0.3781 0.1433 0.9146
vn -0.9349 -0.1723 -0.3104
vn 0.5557 -0.0370 0.8306
vn 0.9600 -0.0942 -0.2636
vn -0.8324 0.4802 -0.2768
vn 0.8699 -0.4048 -0.2817
vn -0.5648 0.2718 0.7792
vn 0.0435 0.0786 -0.9960
vn 0.5155 -0.2898 0.8064
vn 0.0120 0.1472 -0.9890
vn 0.5776 -0.2582 0.7744
vn -0.8993 0.3582 -0.2509
vn 0.3822 0.6732 -0.6330
vn -0.9062 0.1806 -0.3822
vn 0.8909 0.3758 0.2552
vn 0.1141 0.0431 -0.9925
vn 0.3263 0.0677 -0.9428
vn -0.3825 0.0825 -0.9203
vn -0.0880 -0.0517 -0.9948
vn -0.5877 -0.0239 0.8087
vn 0.0631 0.1441 0.9876
vn -0.0810 0.1928 0.9779
vn -0.1420 0.0708 0.9873
vn 0.2966 0.0464 -0.9539
vn 0.0082 0.0722 -0.9974
vn 0.4929 0.1190 -0.8619
vn 0.6928 0.0659 0.7181
vn 0.9884 0.0665 -0.1367
vn -0.8530 0.1863 0.4876
vn -0.7649 0.1101 0.6347
vn 0.3846 0.1080 0.9168
vn 0.4036 0.0856 -0.9109
vn -0.6450 -0.0752 0.7605
vn 0.9793 0.2018 0.0178
vn 0.5596 -0.7755 -0.2925
vn 0.6738 -0.5936 -0.4400
vn -0.4184 0.2879 0.8614
vn 0.5751 0.7817 0.2411
vn -0.6118 0.7511 -0.2482
vn -0.4805 0.1682 0.8607
vn -0.0210 0.2185 -0.9756
vn 0.5418 -0.4426 0.7146
vn -0.8099 0.5606 -0.1727
vn 0.8155 -0.4093 -0.4091
vn 0.4352 -0.5910 0.6792
vn 0.0581 0.1890 -0.9803
vn -0.9586 -0.1506 -0.2418
vn -0.6618 -0.1023 -0.7427
vn -0.7682 -0.4913 -0.4105
vn 0.4323 0.2551 0.8649
vn 0.0975 -0.5987 -0.7950
vn 0.7814 0.5968 -0.1824
vn -0.5581 -0.4420 0.7023
vn -0.9026 -0.1474 -0.4045
vn -0.6691 -0.1211 0.7332
vn 0.1058 0.0579 -0.9927
vn 0.9569 0.2096 -0.2009
vn 0.3740 0.0805 0.9239
vn 0.0720 0.9969 -0.0331
vn 0.9749 0.1870 0.1209
vn -0.5589 0.1213 0.8203
vn 0.6687 0.6071 -0.4293
vn 0.9028 0.1570 0.4004
vn -0.6726 0.5469 0.4985
vn -0.4547 -0.8231 0.3404
vn 0.2741 0.6126 -0.7413
vn 0.9155 -0.2379 -0.3243
vn -0.6742 0.6096 0.4170
vn -0.0860 -0.7703 0.6319
vn -0.1858 -0.7644 0.6174
vn 0.6466 -0.6669 -0.3704
vn 0.2940 -0.7477 -0.5953
vn -0.1725 0.6559 0.7349
vn -0.9019 0.1567 -0.4025
vn 0.0817 0.1725 -0.9816
vn -0.7283 0.2670 -0.6311
vn 0.1410 -0.6309 -0.7629
vn 0.0253 0.6104 0.7917
vn 0.8001 -0.5984 0.0413
vn 0.9230 0.0548 -0.3808
vn -0.9622 -0.2719 -0.0174
vn 0.8564 -0.5026 -0.1178
vn 0.1132 0.5632 0.8186
vn 0.4829 0.4933 -0.7235
vn 0.5599 0.5332 -0.6342
vn 0.1283 0.5603 0.8183
vn 0.2088 -0.4542 -0.8661
vn 0.3629 0.8919 0.2697
s off
f 37/1/1 8/2/1 7/3/1 38/4/1
f 26/5/2 27/6/2 9/7/2 10/8/2
f 38/4/3 7/3/3 6/9/3 41/10/3
f 6/9/4 11/11/4 15/12/4 26/5/4
f 5/13/5 31/14/5 30/15/5 4/16/5
f 7/3/6 12/17/6 11/11/6 6/9/6
f 8/2/7 13/18/7 12/17/7 7/3/7
f 14/19/8 15/12/8 20/20/8 19/21/8
f 12/17/9 13/18/9 18/22/9 17/23/9
f 15/12/10 11/11/10 16/24/10 20/20/10
f 13/18/11 14/25/11 19/26/11 18/22/11
f 11/11/12 12/17/12 17/23/12 16/24/12
f 18/22/13 19/26/13 24/27/13 23/28/13
f 16/24/14 66/29/14 22/30/14 21/31/14
f 19/21/15 20/20/15 25/32/15 24/33/15
f 18/34/16 66/35/16 75/36/16 76/37/16
f 27/6/17 26/5/17 15/12/17 14/19/17
f 10/38/18 9/39/18 28/40/18 29/41/18
f 8/2/19 27/42/19 14/25/19 13/18/19
f 42/43/20 27/42/20 8/2/20 37/1/20
f 42/43/21 32/44/21 4/45/21 39/46/21
f 40/47/22 39/48/22 4/49/22 30/50/22
f 35/51/23 34/52/23 31/14/23 5/13/23
f 10/38/24 29/41/24 34/52/24 35/51/24
f 36/53/25 33/54/25 1/55/25 41/10/25
f 26/5/26 36/53/26 41/10/26 6/9/26
f 28/40/27 9/39/27 39/48/27 40/47/27
f 27/42/28 42/43/28 39/46/28 9/56/28
f 32/44/29 42/43/29 37/1/29 3/57/29
f 2/58/30 38/4/30 41/10/30 1/55/30
f 3/57/31 37/1/31 38/4/31 2/58/31
f 33/54/32 36/53/32 35/59/32 5/60/32
f 10/61/33 35/59/33 36/53/33 26/5/33
f 34/52/34 29/41/34 46/62/34 44/63/34
f 28/40/35 40/47/35 43/64/35 47/65/35
f 31/14/36 34/52/36 44/63/36 45/66/36
f 29/41/37 28/40/37 47/65/37 46/62/37
f 72/67/38 73/68/38 68/69/38 69/70/38
f 53/71/39 54/72/39 50/73/39 51/74/39
f 56/75/40 52/76/40 48/77/40 49/78/40
f 50/79/41 49/80/41 48/81/41
f 55/82/42 56/75/42 49/78/42 50/83/42
f 25/32/43 21/31/43 52/76/43 56/75/43
f 23/28/44 24/27/44 55/84/44 54/72/44
f 21/31/45 22/30/45 53/71/45 52/76/45
f 24/33/46 25/32/46 56/75/46 55/82/46
f 22/30/47 23/28/47 54/72/47 53/71/47
f 52/76/48 53/71/48 51/74/48 48/77/48
f 54/72/49 55/84/49 50/73/49
f 31/14/50 45/66/50 30/15/50
f 40/47/51 30/50/51 45/85/51 43/64/51
f 43/64/52 45/85/52 59/86/52 57/87/52
f 44/63/53 46/62/53 60/88/53 58/89/53
f 47/90/54 43/91/54 80/92/54 82/93/54
f 46/62/55 79/94/55 61/95/55 60/88/55
f 45/66/56 44/63/56 58/89/56 59/96/56
f 57/87/57 59/86/57 63/97/57 62/98/57
f 59/96/58 58/89/58 63/99/58
f 61/95/59 57/87/59 62/98/59 65/100/59
f 60/88/60 61/95/60 65/100/60 64/101/60
f 58/89/61 60/88/61 64/101/61 63/99/61
f 62/102/62 63/103/62 64/104/62 65/105/62
f 69/106/63 68/107/63 67/108/63
f 20/20/64 16/24/64 21/31/64 25/32/64
f 73/68/65 74/109/65 67/110/65 68/69/65
f 67/108/66 70/111/66 69/106/66
f 75/36/67 78/112/67 71/113/67 74/109/67
f 71/113/68 72/114/68 69/115/68 70/116/68
f 76/37/69 75/36/69 74/109/69 73/68/69
f 66/29/70 18/22/70 23/28/70 22/30/70
f 74/109/71 71/113/71 70/116/71 67/110/71
f 78/112/72 77/117/72 72/114/72 71/113/72
f 16/118/73 17/119/73 77/117/73 78/112/73
f 77/120/74 76/37/74 73/68/74 72/67/74
f 17/121/75 18/34/75 76/37/75 77/120/75
f 66/35/76 16/118/76 78/112/76 75/36/76
f 80/92/77 83/122/77 87/123/77 84/124/77
f 79/94/78 43/64/78 57/87/78 61/95/78
f 43/91/79 79/125/79 83/122/79 80/92/79
f 82/93/80 80/92/80 84/124/80 86/126/80
f 79/125/81 46/127/81 81/128/81 83/122/81
f 46/127/82 47/129/82 82/130/82 81/128/82
f 85/131/83 86/132/83 90/133/83 89/134/83
f 84/124/84 87/123/84 91/135/84 88/136/84
f 81/128/85 82/130/85 86/132/85 85/131/85
f 83/122/86 81/128/86 85/131/86 87/123/86
f 90/137/87 88/138/87 91/139/87
f 91/139/88 89/140/88 90/137/88
f 87/123/89 85/131/89 89/134/89 91/135/89
f 86/126/90 84/124/90 88/136/90 90/141/90
f 51/142/91 50/79/91 48/81/91
