# Blender v2.78 (sub 0) OBJ File: 'Low_Poly_Trees_Pack.blend'
# www.blender.org
g Apple_Tree_NoLeaves_m_06
v 0.000000 0.000000 -0.247104
v -0.239939 0.000000 -0.072706
v -0.148290 0.000000 0.209304
v 0.148290 0.000000 0.209286
v 0.239939 0.000000 -0.072779
v -0.034029 0.429890 -0.183673
v -0.207381 0.415419 -0.058370
v -0.141166 0.420947 0.146257
v 0.073108 0.438834 0.147215
v 0.139323 0.444361 -0.057093
v -0.613609 2.318970 -0.150758
v -0.738972 2.226944 -0.063220
v -0.691877 2.319495 0.089563
v -0.535342 2.318445 0.090564
v -0.486970 2.318121 -0.057961
v -0.090102 1.389415 -0.052060
v -0.124011 1.299078 0.117579
v -0.312102 1.348716 0.112691
v -0.364509 1.339109 -0.054770
v -0.227305 1.364262 -0.155171
v -0.581038 3.671798 0.002968
v -0.651915 3.665623 0.052482
v -0.624842 3.667982 0.137487
v -0.537233 3.675613 0.140464
v -0.510161 3.677972 0.057306
v -0.914856 5.165740 0.064829
v -0.948002 5.157741 0.089602
v -0.935341 5.160796 0.129685
v -0.894372 5.170685 0.129685
v -0.698184 2.465073 -0.049220
v -0.934299 2.662857 -0.091560
v -1.021964 2.661191 -0.045119
v -0.973105 2.688150 0.041108
v -0.927378 2.756335 -0.034899
v -1.650672 3.143254 -0.294317
v -1.704024 3.152969 -0.262921
v -1.671081 3.164459 -0.212269
v -1.635440 3.199744 -0.259338
v -1.960143 4.095809 -0.422398
v -1.970023 4.102968 -0.415619
v -1.962148 4.102650 -0.404252
v -1.951722 4.106130 -0.415154
v -0.798979 6.293733 0.082581
v -0.814294 6.295627 0.093792
v -0.808444 6.294903 0.111932
v -0.789515 6.292562 0.111932
v -0.214697 1.552294 0.104806
v 0.050702 1.641098 0.268731
v 0.016953 1.573721 0.351369
v -0.083900 1.617302 0.374290
v -0.057029 1.732780 0.322937
v 0.375534 2.240613 0.650261
v 0.374721 2.256830 0.744932
v 0.280702 2.260837 0.760145
v 0.252251 2.284308 0.652939
v 0.637382 3.262925 0.815505
v 0.637063 3.269283 0.852342
v 0.600204 3.270854 0.858911
v 0.589050 3.280056 0.818175
v 0.922220 4.027205 1.066649
v 0.921874 4.023561 1.083528
v 0.904882 4.027190 1.088062
v 0.901880 4.039490 1.072525
vt 0.3102 0.7675
vt 0.3105 0.7741
vt 0.3073 0.7744
vt 0.3061 0.7683
vt 0.3223 0.7703
vt 0.3198 0.7756
vt 0.3168 0.7746
vt 0.3185 0.7685
vt 0.3144 0.7675
vt 0.3137 0.7741
vt 0.3041 0.7749
vt 0.3022 0.7694
vt 0.3126 0.7879
vt 0.3102 0.7869
vt 0.3079 0.7883
vt 0.3054 0.7883
vt 0.3150 0.7883
vt 0.3225 0.7909
vt 0.3248 0.7932
vt 0.3245 0.7980
vt 0.3223 0.7970
vt 0.3074 0.8035
vt 0.3050 0.8024
vt 0.3142 0.8031
vt 0.3120 0.8027
vt 0.3202 0.7915
vt 0.3207 0.7967
vt 0.3174 0.7888
vt 0.3168 0.8028
vt 0.3133 0.8223
vt 0.3121 0.8222
vt 0.3096 0.8029
vt 0.3109 0.8223
vt 0.3098 0.8224
vt 0.3159 0.8053
vt 0.3145 0.8223
vt 0.3313 0.8352
vt 0.3287 0.8334
vt 0.3291 0.8282
vt 0.3306 0.8286
vt 0.3085 0.8226
vt 0.3116 0.8444
vt 0.3110 0.8445
vt 0.3132 0.8444
vt 0.3122 0.8445
vt 0.3138 0.8443
vt 0.3133 0.8612
vt 0.3131 0.8612
vt 0.3278 0.8289
vt 0.3267 0.8280
vt 0.3276 0.8157
vt 0.3283 0.8162
vt 0.3057 0.8057
vt 0.3274 0.8358
vt 0.3250 0.8353
vt 0.3292 0.8158
vt 0.3339 0.8353
vt 0.3319 0.8280
vt 0.3311 0.8157
vt 0.3302 0.8161
vt 0.3303 0.8011
vt 0.3306 0.8010
vt 0.3301 0.8011
vt 0.3253 0.7838
vt 0.3255 0.7838
vt 0.3255 0.7840
vt 0.3252 0.7840
vt 0.3299 0.8011
vt 0.3296 0.8009
vt 0.3256 0.7821
vt 0.3253 0.7821
vt 0.3252 0.7819
vt 0.3257 0.7819
vt 0.3140 0.8612
vt 0.3138 0.8612
vt 0.3128 0.8613
vt 0.3262 0.7971
vt 0.3279 0.7974
vt 0.3260 0.8100
vt 0.3248 0.8095
vt 0.3102 0.7906
vt 0.3233 0.8091
vt 0.3272 0.7909
vt 0.3296 0.7922
vt 0.3202 0.8096
vt 0.3214 0.8090
vt 0.3215 0.8239
vt 0.3210 0.8241
vt 0.3222 0.8240
vt 0.3227 0.8241
vt 0.3215 0.8354
vt 0.3213 0.8355
vt 0.3209 0.8354
vt 0.3207 0.8354
vt 0.3232 0.8243
vt 0.3256 0.7871
vt 0.3256 0.7873
vt 0.3252 0.7873
vt 0.3253 0.7870
vt 0.3218 0.8355
vn -0.0068 0.1435 0.9896
vn -0.5872 0.0731 -0.8062
vn 0.9310 0.2013 0.3045
vn -0.9495 0.0629 0.3073
vn 0.5772 0.1613 -0.8005
vn 0.9259 0.2229 0.3050
vn -0.9384 -0.1613 0.3057
vn 0.5765 0.1440 -0.8043
vn -0.0119 0.0329 0.9994
vn 0.1755 0.7183 -0.6732
vn -0.8605 -0.3428 0.3767
vn 0.5655 0.2345 -0.7907
vn 0.8963 -0.4420 -0.0359
vn -0.5052 -0.2104 -0.8370
vn 0.5943 0.0773 -0.8005
vn -0.0153 -0.0358 0.9992
vn -0.6481 0.0956 -0.7555
vn 0.9508 -0.0100 0.3095
vn 0.6095 0.5031 0.6126
vn -0.9328 -0.1926 0.3046
vn 0.7661 0.2115 -0.6069
vn -0.0233 0.0010 0.9997
vn -0.5702 -0.0932 -0.8162
vn 0.9250 0.2232 0.3075
vn -0.0020 0.0159 0.9999
vn -0.5773 -0.0949 -0.8110
vn -0.3523 -0.7493 -0.5607
vn -0.9851 0.0339 0.1686
vn -0.4340 -0.2507 -0.8653
vn 0.4915 0.4001 -0.7736
vn -0.7069 -0.4770 0.5223
vn 0.5821 0.5710 -0.5789
vn -0.8157 -0.1381 0.5617
vn 0.6144 0.3368 0.7135
vn 0.2042 0.6786 0.7055
vn -0.6011 -0.6001 0.5278
vn -0.1720 0.9741 0.1465
vn -0.0871 0.6189 -0.7806
vn 0.7422 0.1501 -0.6532
vn -0.5499 -0.2823 -0.7861
vn 0.1228 0.9924 -0.0000
vn -0.6005 0.0739 -0.7962
vn 0.9499 -0.0932 -0.2983
vn -0.9484 0.1106 0.2971
vn 0.0393 -0.5220 0.8521
vn 0.0075 0.0245 0.9997
vn 0.8781 0.3753 0.2968
vn -0.8969 0.3281 0.2965
vn -0.1481 -0.6096 0.7788
vn -0.8603 0.3949 0.3223
vn 0.9653 -0.2557 0.0522
vn 0.0240 0.1546 -0.9877
vn 0.0760 0.4937 -0.8663
vn 0.8745 -0.4840 0.0308
vn -0.9065 0.2644 0.3291
vn 0.9327 -0.3593 0.0297
vn -0.9168 0.2601 0.3029
vn 0.1565 -0.1446 0.9770
vn 0.5469 0.8159 0.1874
vn 0.3124 0.7733 0.5518
vn 0.1577 -0.3436 0.9258
vn 0.0144 0.3098 -0.9507
s off
f 4/1/1 9/2/1 8/3/1 3/4/1
f 2/5/2 7/6/2 6/7/2 1/8/2
f 5/9/3 10/10/3 9/2/3 4/1/3
f 3/4/4 8/3/4 7/11/4 2/12/4
f 1/8/5 6/7/5 10/10/5 5/9/5
f 16/13/6 17/14/6 9/2/6 10/10/6
f 18/15/7 19/16/7 7/11/7 8/3/7
f 20/17/8 16/13/8 10/10/8 6/7/8
f 9/2/9 17/14/9 18/15/9 8/3/9
f 16/18/10 47/19/10 51/20/10 48/21/10
f 19/16/11 18/15/11 13/22/11 12/23/11
f 16/13/12 20/17/12 11/24/12 15/25/12
f 17/26/13 16/18/13 48/21/13 49/27/13
f 20/17/14 19/28/14 12/29/14 11/24/14
f 15/25/15 11/24/15 21/30/15 25/31/15
f 13/22/16 14/32/16 24/33/16 23/34/16
f 11/24/17 30/35/17 22/36/17 21/30/17
f 14/32/18 15/25/18 25/31/18 24/33/18
f 13/37/19 30/38/19 34/39/19 33/40/19
f 22/41/20 23/34/20 28/42/20 27/43/20
f 25/31/21 21/30/21 26/44/21 29/45/21
f 23/34/22 24/33/22 29/45/22 28/42/22
f 21/30/23 22/36/23 27/46/23 26/44/23
f 24/33/24 25/31/24 29/45/24
f 28/42/25 29/45/25 46/47/25 45/48/25
f 7/6/26 19/28/26 20/17/26 6/7/26
f 31/49/27 32/50/27 36/51/27 35/52/27
f 30/53/28 13/22/28 23/34/28 22/41/28
f 11/54/29 12/55/29 32/50/29 31/49/29
f 34/39/30 31/49/30 35/52/30 38/56/30
f 12/57/31 13/37/31 33/40/31 32/58/31
f 30/38/32 11/54/32 31/49/32 34/39/32
f 36/59/33 37/60/33 41/61/33 40/62/33
f 37/60/34 38/56/34 42/63/34 41/61/34
f 33/40/35 34/39/35 38/56/35 37/60/35
f 32/58/36 33/40/36 37/60/36 36/59/36
f 40/64/37 41/65/37 42/66/37
f 42/66/38 39/67/38 40/64/38
f 38/56/39 35/52/39 39/68/39 42/63/39
f 35/52/40 36/51/40 40/69/40 39/68/40
f 44/70/41 45/71/41 46/72/41 43/73/41
f 26/44/42 27/46/42 44/74/42 43/75/42
f 29/45/43 26/44/43 43/75/43 46/47/43
f 27/43/44 28/42/44 45/48/44 44/76/44
f 50/77/45 49/78/45 53/79/45 54/80/45
f 47/81/46 14/32/46 13/22/46 18/15/46
f 47/81/47 16/13/47 15/25/47 14/32/47
f 51/20/48 50/77/48 54/80/48 55/82/48
f 18/83/49 17/84/49 49/78/49 50/77/49
f 47/19/50 18/83/50 50/77/50 51/20/50
f 53/85/51 52/86/51 56/87/51 57/88/51
f 52/86/52 55/82/52 59/89/52 56/87/52
f 48/21/53 51/20/53 55/82/53 52/86/53
f 49/27/54 48/21/54 52/86/54 53/85/54
f 59/89/55 58/90/55 62/91/55 63/92/55
f 57/88/56 56/87/56 60/93/56 61/94/56
f 55/82/57 54/80/57 58/90/57 59/89/57
f 54/80/58 53/79/58 57/95/58 58/90/58
f 61/96/59 60/97/59 63/98/59
f 62/99/60 61/96/60 63/98/60
f 58/90/61 57/95/61 61/100/61 62/91/61
f 56/87/62 59/89/62 63/92/62 60/93/62
