# Blender v2.78 (sub 0) OBJ File: 'Low_Poly_Trees_Pack.blend'
# www.blender.org
g Apple_Tree_NoLeaves_s_02
v 0.000000 0.000000 -0.060000
v -0.060000 0.000000 0.000000
v 0.000000 0.000000 0.060000
v 0.060000 0.000000 -0.000000
v 0.021097 0.380142 -0.040925
v -0.019239 0.380142 -0.000588
v 0.021097 0.380142 0.039749
v 0.061434 0.380142 -0.000588
v -0.007712 0.719282 -0.009897
v -0.037742 0.719772 0.020504
v -0.007343 0.719386 0.050538
v 0.022687 0.718896 0.020137
v -0.004050 0.999484 -0.010006
v -0.044136 1.000138 0.030575
v -0.003558 0.999623 0.070666
v 0.036528 0.998968 0.030085
v -0.078667 1.150270 0.074240
v -0.092838 1.135906 0.098066
v -0.070520 1.146001 0.117425
v -0.056350 1.160365 0.093600
v -0.271880 1.288456 0.196703
v -0.257454 1.272488 0.221347
v -0.239070 1.282636 0.225671
v -0.245109 1.303235 0.202999
v 0.002323 1.051453 0.033261
v 0.189585 1.093551 0.018190
v 0.193598 1.087405 0.054304
v 0.175696 1.113209 0.043551
v 0.437822 1.293397 0.014732
v 0.441765 1.289338 0.045174
v 0.421217 1.305621 0.035659
v 0.609052 1.408841 0.033772
v 0.613145 1.409020 0.057856
v 0.595953 1.419852 0.049407
v 0.836430 1.733718 0.005690
v -0.298511 1.556369 0.501666
v -0.285755 1.542647 0.512190
v -0.279614 1.558162 0.498650
v -0.274048 1.311276 0.222798
v -0.353680 1.443412 0.074637
v -0.335867 1.453246 0.078827
v -0.355123 1.458596 0.092000
v -0.445997 1.741788 0.022056
v -0.230167 1.874951 0.694473
v 0.042722 1.022206 -0.003195
v 0.066278 1.275214 -0.194907
v 0.067060 1.298878 -0.164130
v 0.100903 1.283682 -0.181916
v 0.083734 1.617951 -0.341558
v 0.077710 1.622475 -0.318344
v 0.102697 1.619102 -0.326940
v 0.029213 1.983092 -0.385576
v 0.442971 1.329156 0.035111
v 0.396111 1.400017 -0.045948
v 0.388627 1.406099 -0.031876
v 0.404599 1.415332 -0.029409
v 0.395327 1.769759 -0.109651
vt 0.4334 0.7640
vt 0.4273 0.8008
vt 0.4220 0.8002
vt 0.4251 0.7632
vt 0.4168 0.7625
vt 0.4166 0.8002
vt 0.4111 0.8003
vt 0.4085 0.7625
vt 0.4057 0.8006
vt 0.4002 0.7637
vt 0.4193 0.8498
vt 0.4161 0.8499
vt 0.4226 0.8500
vt 0.4128 0.8500
vt 0.4215 0.8655
vt 0.4188 0.8654
vt 0.4170 0.8657
vt 0.4135 0.8659
vt 0.4095 0.8499
vt 0.4099 0.8659
vt 0.4372 0.7625
vt 0.4408 0.7655
vt 0.4403 0.7747
vt 0.4381 0.7749
vt 0.4450 0.7626
vt 0.4483 0.7653
vt 0.4446 0.7758
vt 0.4425 0.7752
vt 0.4195 0.8658
vt 0.4334 0.7644
vt 0.4359 0.7752
vt 0.4437 0.7931
vt 0.4414 0.7927
vt 0.4392 0.7929
vt 0.4368 0.7928
vt 0.4352 0.7924
vt 0.4194 0.8659
vt 0.4194 0.8659
vt 0.4195 0.8660
vt 0.4195 0.8660
vt 0.4180 0.8663
vt 0.4194 0.8658
vt 0.4195 0.8660
vt 0.4190 0.8664
vt 0.4533 0.7635
vt 0.4580 0.7642
vt 0.4568 0.7883
vt 0.4536 0.7881
vt 0.4195 0.8660
vt 0.4195 0.8660
vt 0.4195 0.8660
vt 0.4195 0.8660
vt 0.4195 0.8660
vt 0.4362 0.8241
vt 0.4347 0.8236
vt 0.4410 0.7950
vt 0.4376 0.8242
vt 0.4632 0.7790
vt 0.4650 0.7787
vt 0.4620 0.8026
vt 0.4391 0.8240
vt 0.4641 0.7627
vt 0.4669 0.7625
vt 0.4616 0.7625
vt 0.4616 0.7785
vt 0.4691 0.7631
vt 0.4666 0.7789
vt 0.4334 0.8580
vt 0.4615 0.7625
vt 0.4596 0.7879
vt 0.4483 0.7625
vt 0.4507 0.7878
vt 0.4557 0.8168
vt 0.4536 0.8165
vt 0.4575 0.8169
vt 0.4542 0.8448
vt 0.4518 0.8168
vt 0.4731 0.7721
vt 0.4749 0.7718
vt 0.4705 0.8008
vt 0.4734 0.7634
vt 0.4762 0.7625
vt 0.4713 0.7626
vt 0.4718 0.7717
vt 0.4692 0.7625
vt 0.4705 0.7716
vn 0.7071 -0.0038 -0.7071
vn -0.7050 0.0767 0.7050
vn 0.7071 -0.0016 0.7071
vn -0.7051 0.0745 -0.7051
vn 0.7086 0.0375 0.7046
vn 0.7002 0.1235 -0.7032
vn -0.7031 -0.0818 0.7063
vn 0.7027 -0.0095 -0.7114
vn -0.7025 -0.0415 0.7105
vn 0.7097 -0.0600 0.7020
vn -0.7113 0.0090 -0.7028
vn 0.8424 0.2056 0.4981
vn -0.7659 0.0108 -0.6429
vn 0.3994 -0.8211 0.4078
vn -0.5547 -0.4975 0.6670
vn -0.7122 -0.5968 -0.3697
vn 0.0458 0.6720 -0.7391
vn -0.0715 -0.6942 0.7163
vn 0.7014 0.5053 0.5026
vn 0.6146 -0.7654 -0.1908
vn 0.3412 0.5848 -0.7359
vn -0.1866 0.4968 0.8475
vn -0.4605 0.5597 -0.6889
vn 0.4776 -0.8143 -0.3298
vn 0.6770 0.3247 0.6605
vn -0.2410 0.2447 0.9392
vn -0.1905 0.2792 0.9412
vn 0.8066 -0.5760 -0.1328
vn -0.5849 0.3459 -0.7336
vn -0.2737 0.5572 -0.7840
vn 0.5690 -0.8101 -0.1415
vn -0.2490 0.3182 0.9147
vn 0.9946 0.0722 0.0748
vn -0.8827 -0.3876 0.2656
vn -0.2169 0.7252 -0.6534
vn 0.2289 -0.7020 0.6744
vn 0.5925 0.3672 0.7170
vn -0.8529 -0.4241 0.3046
vn 0.5218 0.7087 0.4748
vn -0.9231 -0.3243 0.2069
vn 0.4190 -0.4150 -0.8076
vn -0.9512 -0.2671 0.1545
vn 0.2722 -0.0847 -0.9585
vn 0.9573 -0.2446 0.1539
vn -0.7496 -0.2175 0.6251
vn -0.1824 0.5374 -0.8233
vn 0.4416 -0.7721 -0.4569
vn -0.2080 0.6700 -0.7127
vn 0.3951 -0.5779 -0.7141
vn -0.9784 0.1842 -0.0936
vn 0.4737 0.3567 0.8052
vn 0.4776 -0.3585 -0.8021
vn 0.3436 0.2166 0.9138
vn 0.6107 -0.0043 -0.7919
vn -0.9614 -0.1696 -0.2164
vn 0.9118 -0.0679 -0.4051
vn -0.2479 0.2626 0.9325
vn 0.8923 0.0825 -0.4438
vn -0.4060 0.4199 0.8117
vn -0.8180 -0.4850 -0.3093
vn -0.2648 0.2063 0.9420
vn -0.8938 -0.0780 -0.4416
vn -0.7089 0.0047 -0.7053
vn -0.9954 -0.0013 -0.0959
s off
f 1/1/1 5/2/1 8/3/1 4/4/1
f 3/5/2 7/6/2 6/7/2 2/8/2
f 4/4/3 8/3/3 7/6/3 3/5/3
f 2/8/4 6/7/4 5/9/4 1/10/4
f 8/3/5 12/11/5 11/12/5 7/6/5
f 5/2/6 9/13/6 12/11/6 8/3/6
f 7/6/7 11/12/7 10/14/7 6/7/7
f 12/11/8 9/13/8 13/15/8 16/16/8
f 10/14/9 11/12/9 15/17/9 14/18/9
f 11/12/10 12/11/10 16/16/10 15/17/10
f 9/19/11 10/14/11 14/18/11 13/20/11
f 15/21/12 25/22/12 20/23/12 19/24/12
f 13/25/13 14/26/13 18/27/13 17/28/13
f 15/17/14 16/16/14 27/29/14
f 14/30/15 15/21/15 19/24/15 18/31/15
f 17/28/16 18/27/16 22/32/16 21/33/16
f 20/23/17 17/28/17 21/33/17 24/34/17
f 18/31/18 19/24/18 23/35/18 22/36/18
f 19/24/19 20/23/19 24/34/19 23/35/19
f 27/37/20 26/38/20 29/39/20 30/40/20
f 25/22/21 13/25/21 17/28/21 20/23/21
f 25/41/22 15/17/22 27/29/22 28/42/22
f 26/38/23 28/42/23 31/43/23 29/39/23
f 16/16/24 45/44/24 26/38/24 27/37/24
f 25/45/25 45/46/25 48/47/25 47/48/25
f 31/43/26 30/40/26 53/49/26
f 28/42/27 27/29/27 30/40/27 31/43/27
f 33/50/28 32/51/28 35/52/28
f 32/51/29 34/53/29 35/52/29
f 29/39/30 53/49/30 34/53/30 32/51/30
f 30/40/31 29/39/31 32/51/31 33/50/31
f 34/53/32 33/50/32 35/52/32
f 23/35/33 24/34/33 38/54/33 37/55/33
f 21/33/34 22/32/34 39/56/34
f 24/34/35 39/56/35 36/57/35 38/54/35
f 22/36/36 23/35/36 37/55/36
f 42/58/37 41/59/37 43/60/37
f 39/56/38 22/32/38 37/61/38 36/57/38
f 39/62/39 24/63/39 41/59/39 42/58/39
f 21/64/40 39/62/40 42/58/40 40/65/40
f 24/63/41 21/66/41 40/67/41 41/59/41
f 40/65/42 42/58/42 43/60/42
f 41/59/43 40/67/43 43/60/43
f 37/55/44 38/54/44 44/68/44
f 36/57/45 37/61/45 44/68/45
f 38/54/46 36/57/46 44/68/46
f 45/44/47 16/16/47 13/15/47
f 45/44/48 25/41/48 28/42/48 26/38/48
f 45/46/49 13/69/49 46/70/49 48/47/49
f 13/71/50 25/45/50 47/48/50 46/72/50
f 48/47/51 51/73/51 50/74/51 47/48/51
f 46/70/52 49/75/52 51/73/52 48/47/52
f 50/74/53 51/73/53 52/76/53
f 51/73/54 49/75/54 52/76/54
f 49/77/55 50/74/55 52/76/55
f 56/78/56 54/79/56 57/80/56
f 53/49/57 30/40/57 33/50/57 34/53/57
f 53/81/58 29/82/58 54/79/58 56/78/58
f 31/83/59 53/81/59 56/78/59 55/84/59
f 29/85/60 31/83/60 55/84/60 54/86/60
f 55/84/61 56/78/61 57/80/61
f 54/86/62 55/84/62 57/80/62
f 6/7/63 10/14/63 9/19/63 5/9/63
f 47/48/64 50/74/64 49/77/64 46/72/64
