# Blender v2.78 (sub 0) OBJ File: 'Low_Poly_Trees_Pack.blend'
# www.blender.org
g Apple_Tree_NoLeaves_crk_s_01
v -0.194123 0.901256 0.121055
v -0.169646 0.903849 0.142609
v -0.177220 0.914393 0.159671
v -0.205153 0.916610 0.145902
v -0.318234 0.659154 0.423498
v -0.301448 0.667247 0.434198
v -0.321072 0.675851 0.432583
v -0.204647 0.880655 0.146962
v -0.384937 0.862699 0.033271
v -0.392276 0.872915 0.049804
v -0.391939 0.848991 0.050510
v -0.679577 0.746633 0.038872
v -0.608136 0.574973 0.616636
v -0.093154 1.135231 0.098410
v -0.116135 1.155396 0.093589
v -0.094998 1.140483 0.129371
v -0.117664 1.161324 0.124204
v 0.000000 -0.000000 -0.060002
v -0.060000 -0.000000 -0.000002
v 0.000000 -0.000000 0.059998
v 0.060000 -0.000000 -0.000002
v 0.021097 0.380142 -0.040927
v -0.019239 0.380142 -0.000590
v 0.021097 0.380142 0.039747
v 0.061434 0.380142 -0.000590
v -0.007712 0.719282 -0.009899
v -0.037742 0.719772 0.020502
v -0.007343 0.719386 0.050536
v 0.022687 0.718896 0.020135
v -0.004050 0.999484 -0.010008
v -0.044136 1.000138 0.030573
v -0.003558 0.999623 0.070664
v 0.036528 0.998968 0.030083
v 0.002323 1.051453 0.033260
v 0.189585 1.093551 0.018188
v 0.193598 1.087405 0.054302
v 0.175696 1.113209 0.043549
v 0.437822 1.293397 0.014730
v 0.441765 1.289338 0.045173
v 0.421217 1.305621 0.035657
v 0.609052 1.408841 0.033770
v 0.613145 1.409020 0.057855
v 0.595953 1.419852 0.049405
v 0.836430 1.733718 0.005688
v 0.042722 1.022206 -0.003197
v 0.066278 1.275214 -0.194909
v 0.067060 1.298878 -0.164132
v 0.100903 1.283682 -0.181918
v 0.083734 1.617951 -0.341560
v 0.077710 1.622475 -0.318346
v 0.102697 1.619102 -0.326942
v 0.029213 1.983092 -0.385578
v 0.442971 1.329156 0.035109
v 0.396111 1.400017 -0.045950
v 0.388627 1.406099 -0.031878
v 0.404599 1.415332 -0.029411
v 0.395327 1.769759 -0.109653
v -0.104451 1.207250 0.097051
v -0.078667 1.150270 0.074238
v -0.070520 1.146001 0.117423
v -0.083314 1.192336 0.132832
v -0.100448 1.224921 0.128681
v -0.028730 1.109096 0.065194
v -0.050993 1.103316 0.103788
v -0.056908 1.106299 0.049671
v -0.078860 1.095837 0.078628
vt 0.4425 0.7752
vt 0.4446 0.7758
vt 0.4437 0.7931
vt 0.4414 0.7927
vt 0.4403 0.7747
vt 0.4392 0.7929
vt 0.4359 0.7752
vt 0.4381 0.7749
vt 0.4368 0.7928
vt 0.4352 0.7924
vt 0.4362 0.8241
vt 0.4347 0.8236
vt 0.4410 0.7950
vt 0.4376 0.8242
vt 0.4632 0.7790
vt 0.4650 0.7787
vt 0.4620 0.8026
vt 0.4391 0.8240
vt 0.4641 0.7627
vt 0.4669 0.7625
vt 0.4616 0.7625
vt 0.4616 0.7785
vt 0.4691 0.7631
vt 0.4666 0.7789
vt 0.4334 0.8580
vt 0.4334 0.7640
vt 0.4273 0.8008
vt 0.4220 0.8002
vt 0.4251 0.7632
vt 0.4168 0.7625
vt 0.4166 0.8002
vt 0.4111 0.8003
vt 0.4085 0.7625
vt 0.4057 0.8006
vt 0.4002 0.7637
vt 0.4193 0.8498
vt 0.4161 0.8499
vt 0.4226 0.8500
vt 0.4128 0.8500
vt 0.4215 0.8655
vt 0.4188 0.8654
vt 0.4170 0.8657
vt 0.4135 0.8659
vt 0.4095 0.8499
vt 0.4099 0.8659
vt 0.6841 0.8113
vt 0.6817 0.7987
vt 0.6945 0.8010
vt 0.6956 0.8113
vt 0.4432 0.7715
vt 0.4457 0.7727
vt 0.4425 0.7752
vt 0.4195 0.8658
vt 0.4351 0.7721
vt 0.4378 0.7712
vt 0.4381 0.7749
vt 0.4194 0.8659
vt 0.4194 0.8659
vt 0.4195 0.8660
vt 0.4195 0.8660
vt 0.6764 0.8041
vt 0.4180 0.8663
vt 0.4194 0.8658
vt 0.4195 0.8660
vt 0.4190 0.8664
vt 0.4533 0.7635
vt 0.4580 0.7642
vt 0.4568 0.7883
vt 0.4536 0.7881
vt 0.4195 0.8660
vt 0.4195 0.8660
vt 0.4195 0.8660
vt 0.4195 0.8660
vt 0.4195 0.8660
vt 0.4615 0.7625
vt 0.4596 0.7879
vt 0.4483 0.7625
vt 0.4507 0.7878
vt 0.4557 0.8168
vt 0.4536 0.8165
vt 0.4575 0.8169
vt 0.4542 0.8448
vt 0.4518 0.8168
vt 0.4731 0.7721
vt 0.4749 0.7718
vt 0.4705 0.8008
vt 0.4734 0.7634
vt 0.4762 0.7625
vt 0.4713 0.7626
vt 0.4718 0.7717
vt 0.4692 0.7625
vt 0.4705 0.7716
vt 0.4665 0.8155
vt 0.4647 0.8135
vt 0.4674 0.8098
vt 0.4685 0.8127
vt 0.4623 0.8126
vt 0.4643 0.8098
vt 0.6981 0.8231
vt 0.6910 0.8282
vt 0.6914 0.8178
vt 0.6814 0.8282
vt 0.6818 0.8178
vt 0.6764 0.8227
vt 0.4408 0.7655
vt 0.4450 0.7626
vt 0.4406 0.7704
vt 0.4334 0.7644
vt 0.4372 0.7625
vt 0.4483 0.7653
vt 0.7004 0.8056
vn 0.3954 -0.2560 -0.8821
vn -0.9110 0.2716 -0.3105
vn 0.9221 -0.2757 0.2715
vn -0.2627 0.1990 0.9441
vn -0.0359 0.7617 0.6469
vn 0.4609 -0.7763 -0.4300
vn -0.9257 -0.0012 -0.3782
vn 0.9128 -0.0052 0.4084
vn -0.0506 0.0287 0.9983
vn 0.5100 -0.7638 -0.3956
vn -0.4604 0.0197 0.8875
vn 0.3795 -0.7931 -0.4765
vn 0.0588 0.8607 -0.5057
vn 0.3061 -0.8018 -0.5132
vn -0.3044 0.7440 -0.5948
vn 0.2292 0.6574 0.7178
vn 0.3587 -0.9235 0.1359
vn -0.5878 0.3073 -0.7484
vn 0.7071 -0.0038 -0.7071
vn -0.7050 0.0767 0.7050
vn 0.7071 -0.0016 0.7071
vn -0.7051 0.0745 -0.7051
vn 0.7086 0.0375 0.7046
vn 0.7002 0.1235 -0.7032
vn -0.7031 -0.0818 0.7063
vn 0.7027 -0.0095 -0.7114
vn -0.7025 -0.0415 0.7105
vn 0.7097 -0.0600 0.7020
vn -0.7113 0.0090 -0.7028
vn 0.8823 0.4614 -0.0931
vn -0.8139 -0.0438 -0.5793
vn 0.3994 -0.8211 0.4078
vn -0.4659 -0.4915 0.7357
vn 0.6146 -0.7654 -0.1908
vn -0.1363 0.9882 0.0694
vn -0.1866 0.4968 0.8475
vn -0.4605 0.5597 -0.6889
vn 0.4776 -0.8143 -0.3298
vn 0.6770 0.3247 0.6605
vn -0.2410 0.2447 0.9392
vn -0.1905 0.2792 0.9412
vn 0.8066 -0.5760 -0.1328
vn -0.5849 0.3459 -0.7336
vn -0.2737 0.5572 -0.7840
vn 0.5690 -0.8101 -0.1415
vn -0.2490 0.3182 0.9147
vn 0.4416 -0.7721 -0.4569
vn -0.2080 0.6700 -0.7127
vn 0.3951 -0.5779 -0.7141
vn -0.9784 0.1842 -0.0936
vn 0.4737 0.3567 0.8052
vn 0.4776 -0.3585 -0.8021
vn 0.3436 0.2166 0.9138
vn 0.6107 -0.0043 -0.7919
vn -0.9614 -0.1696 -0.2164
vn 0.9118 -0.0679 -0.4051
vn -0.2479 0.2626 0.9325
vn 0.8923 0.0825 -0.4438
vn -0.4060 0.4199 0.8117
vn -0.8180 -0.4850 -0.3093
vn -0.2648 0.2063 0.9420
vn -0.8938 -0.0780 -0.4416
vn -0.7089 0.0047 -0.7053
vn -0.9954 -0.0013 -0.0959
vn -0.9677 0.2460 -0.0548
vn -0.2373 -0.0074 0.9714
vn 0.8511 0.4050 -0.3340
vn 0.8230 -0.1488 -0.5482
vn 0.6672 0.7399 -0.0858
vn 0.3349 0.5832 -0.7401
vn -0.5703 -0.5003 0.6516
vn -0.7479 0.0293 -0.6631
vn 0.8491 0.2193 0.4806
vn -0.5439 0.8189 0.1835
s off
f 15/1/1 14/2/1 2/3/1 1/4/1
f 17/5/2 15/1/2 1/4/2 4/6/2
f 14/7/3 16/8/3 3/9/3 2/10/3
f 16/8/4 17/5/4 4/6/4 3/9/4
f 3/9/5 4/6/5 7/11/5 6/12/5
f 1/4/6 2/3/6 8/13/6
f 4/6/7 8/13/7 5/14/7 7/11/7
f 2/10/8 3/9/8 6/12/8
f 11/15/9 10/16/9 12/17/9
f 8/13/10 2/3/10 6/18/10 5/14/10
f 8/19/11 4/20/11 10/16/11 11/15/11
f 1/21/12 8/19/12 11/15/12 9/22/12
f 4/20/13 1/23/13 9/24/13 10/16/13
f 9/22/14 11/15/14 12/17/14
f 10/16/15 9/24/15 12/17/15
f 6/12/16 7/11/16 13/25/16
f 5/14/17 6/18/17 13/25/17
f 7/11/18 5/14/18 13/25/18
f 18/26/19 22/27/19 25/28/19 21/29/19
f 20/30/20 24/31/20 23/32/20 19/33/20
f 21/29/21 25/28/21 24/31/21 20/30/21
f 19/33/22 23/32/22 22/34/22 18/35/22
f 25/28/23 29/36/23 28/37/23 24/31/23
f 22/27/24 26/38/24 29/36/24 25/28/24
f 24/31/25 28/37/25 27/39/25 23/32/25
f 29/36/26 26/38/26 30/40/26 33/41/26
f 27/39/27 28/37/27 32/42/27 31/43/27
f 28/37/28 29/36/28 33/41/28 32/42/28
f 26/44/29 27/39/29 31/43/29 30/45/29
f 64/46/30 65/47/30 59/48/30 60/49/30
f 65/50/31 66/51/31 14/2/31 59/52/31
f 32/42/32 33/41/32 36/53/32
f 66/54/33 64/55/33 60/56/33 14/7/33
f 36/57/34 35/58/34 38/59/34 39/60/34
f 64/46/35 63/61/35 65/47/35
f 34/62/36 32/42/36 36/53/36 37/63/36
f 35/58/37 37/63/37 40/64/37 38/59/37
f 33/41/38 45/65/38 35/58/38 36/57/38
f 34/66/39 45/67/39 48/68/39 47/69/39
f 40/64/40 39/60/40 53/70/40
f 37/63/41 36/53/41 39/60/41 40/64/41
f 42/71/42 41/72/42 44/73/42
f 41/72/43 43/74/43 44/73/43
f 38/59/44 53/70/44 43/74/44 41/72/44
f 39/60/45 38/59/45 41/72/45 42/71/45
f 43/74/46 42/71/46 44/73/46
f 45/65/47 33/41/47 30/40/47
f 45/65/48 34/62/48 37/63/48 35/58/48
f 45/67/49 30/75/49 46/76/49 48/68/49
f 30/77/50 34/66/50 47/69/50 46/78/50
f 48/68/51 51/79/51 50/80/51 47/69/51
f 46/76/52 49/81/52 51/79/52 48/68/52
f 50/80/53 51/79/53 52/82/53
f 51/79/54 49/81/54 52/82/54
f 49/83/55 50/80/55 52/82/55
f 56/84/56 54/85/56 57/86/56
f 53/70/57 39/60/57 42/71/57 43/74/57
f 53/87/58 38/88/58 54/85/58 56/84/58
f 40/89/59 53/87/59 56/84/59 55/90/59
f 38/91/60 40/89/60 55/90/60 54/92/60
f 55/90/61 56/84/61 57/86/61
f 54/92/62 55/90/62 57/86/62
f 23/32/63 27/39/63 26/44/63 22/34/63
f 47/69/64 50/80/64 49/83/64 46/78/64
f 15/93/65 17/94/65 62/95/65 58/96/65
f 17/94/66 16/97/66 61/98/66 62/95/66
f 62/99/67 61/100/67 58/101/67
f 58/101/68 61/100/68 16/102/68 15/103/68
f 14/104/69 15/103/69 16/102/69
f 34/105/70 30/106/70 65/50/70 63/107/70
f 31/108/71 32/109/71 64/55/71 66/54/71
f 30/106/72 31/110/72 66/51/72 65/50/72
f 32/109/73 34/105/73 63/107/73 64/55/73
f 14/111/74 60/49/74 59/48/74
