# Blender v2.78 (sub 0) OBJ File: 'Low_Poly_Trees_Pack.blend'
# www.blender.org
g Apple_Tree_m_06
v 1.074883 3.798214 -0.260362
v 1.066467 3.026642 -0.440578
v 0.305967 3.491543 -0.292985
v -0.006951 4.064877 -0.018606
v 0.762392 4.354357 -0.151622
v 0.628377 4.800761 0.166755
v 1.724691 4.212281 -0.091829
v 1.831698 4.521890 0.370584
v 1.942891 3.803683 0.225074
v 1.293988 4.853977 0.416217
v 1.747789 3.011976 -0.097282
v 1.001903 2.611170 -0.227395
v 0.212904 5.054570 1.012174
v -0.191241 4.401131 0.405980
v -0.328296 4.296558 0.950478
v 0.502916 5.006176 0.565538
v 0.180870 4.836125 1.519445
v -0.428582 3.707358 1.464868
v 0.092534 4.456570 1.825095
v 1.072337 5.150527 1.392874
v 1.412611 4.850430 1.669839
v 1.543331 5.026621 1.098904
v 0.808231 4.402186 2.188625
v 1.195684 5.111409 0.781781
v 0.140416 2.988803 2.242400
v -0.478989 2.818915 1.456882
v 0.362781 2.412715 2.012527
v -0.088265 1.949376 1.003676
v 0.560957 2.033815 1.700373
v 1.029745 3.099269 2.309569
v 2.020274 2.888503 2.063142
v 1.535645 3.692196 2.228351
v 1.242667 2.202114 1.646669
v 0.056209 3.843999 1.988219
v 0.658523 1.848206 0.568324
v 0.015267 1.992666 0.288453
v 0.903318 2.104354 0.052899
v 0.019049 2.769550 -0.133917
v 1.681206 2.179528 0.618766
v 2.014023 2.711152 0.517342
v 1.837556 2.521118 1.101112
v 0.587019 1.815109 1.189475
v 2.130902 3.151007 0.862826
v 2.322139 3.844489 0.967998
v 2.015230 4.566276 1.087865
v 1.800023 3.955266 1.774924
v -0.441637 2.437840 0.614640
v -0.567934 3.072643 0.767453
v -0.541332 3.746287 0.846928
v -0.384077 3.503444 0.044194
v -0.912306 2.910552 -0.561628
v -1.492286 2.631492 -0.006675
v -2.250223 3.003178 -0.957599
v -2.238039 3.622134 -1.496856
v -1.106881 3.352000 -1.236197
v -0.945390 3.881011 -1.612656
v -0.122534 3.351584 -0.436644
v 0.564036 3.827248 -0.559088
v 0.286229 3.533939 0.282204
v 0.332214 3.939253 -1.508249
v -0.480777 2.995636 0.704074
v -1.664019 2.968662 0.606950
v -1.318502 5.299624 -1.748517
v -2.344482 4.398479 -1.878781
v -2.568012 5.252784 -1.715639
v -1.050942 4.539969 -1.877684
v -1.507005 6.060368 -1.586639
v -3.129421 6.221767 -1.108678
v -1.774813 6.560286 -1.128322
v -0.094029 5.818916 -1.391424
v 0.178970 6.055925 -0.641774
v 0.547570 5.172875 -0.924802
v -0.847343 6.932645 -0.416019
v 0.055146 4.773892 -1.692173
v -2.597215 6.900099 0.150144
v -3.529300 5.991946 -0.211008
v -2.708192 6.738183 0.958157
v -3.468529 5.061189 0.635553
v -2.761812 6.257638 1.516691
v -1.247690 7.058635 0.979242
v -0.127633 6.415209 1.676593
v -0.217853 6.893116 0.701303
v -1.519643 5.974626 1.997409
v -2.172517 6.819242 -0.573085
v -2.441357 4.237579 1.294411
v -3.477262 3.914451 0.446117
v -2.058504 3.434654 1.040410
v -3.286153 3.073829 -0.468137
v -0.956281 3.924376 1.942365
v -0.179616 3.798298 1.460941
v -0.534219 4.833066 1.698618
v -2.629642 5.221805 1.484961
v 0.229053 4.431922 1.260776
v 0.533346 4.609590 0.538188
v 0.787670 4.957262 -0.256584
v 0.366650 6.102621 0.593683
v -3.882746 4.599532 -0.090216
v -3.790409 4.960229 -0.834188
v -3.088598 5.083183 -1.323694
v -3.154406 3.839178 -1.278847
v 0.000677 -0.003746 -0.247598
v -0.239614 -0.002545 -0.072943
v -0.141696 -0.044643 0.207947
v 0.148674 -0.001797 0.209231
v 0.243329 -0.014499 -0.074127
v -0.027839 0.397537 -0.187878
v -0.204833 0.398235 -0.060069
v -0.134622 0.381205 0.144312
v 0.087574 0.372499 0.143969
v 0.154515 0.379622 -0.063521
v -0.609118 2.268269 -0.158818
v -0.712321 2.137200 -0.072536
v -0.678449 2.205203 0.063276
v -0.530791 2.211481 0.064366
v -0.478098 2.241838 -0.071039
v -0.063407 1.274457 -0.066748
v -0.105989 1.215296 0.111606
v -0.303196 1.292681 0.108547
v -0.347702 1.220673 -0.069764
v -0.226277 1.358751 -0.156050
v -0.564083 3.603580 -0.004375
v -0.622749 3.662206 0.057942
v -0.608449 3.629188 0.116368
v -0.535928 3.607527 0.098169
v -0.513894 3.629070 0.045623
v -0.688677 2.351371 -0.061487
v -0.943101 2.544974 -0.089829
v -1.014378 2.618429 -0.063207
v -0.975602 2.625390 -0.009524
v -0.938719 2.640896 -0.058405
v -1.701605 3.068708 -0.307373
v -1.711695 3.108511 -0.291280
v -1.687748 3.119369 -0.257336
v -1.701653 3.123066 -0.282053
v -0.196907 1.464592 0.097638
v 0.076907 1.554251 0.266381
v 0.053691 1.444040 0.351593
v -0.062007 1.530659 0.375130
v -0.050868 1.710200 0.322747
v 0.462177 2.075535 0.672400
v 0.451397 2.111685 0.770643
v 0.325066 2.169809 0.776916
v 0.306725 2.170753 0.668604
vt 0.4617 0.1872
vt 0.4663 0.1846
vt 0.4671 0.1916
vt 0.4651 0.1964
vt 0.4603 0.1921
vt 0.4578 0.1953
vt 0.4566 0.1859
vt 0.4516 0.1859
vt 0.4548 0.1805
vt 0.4523 0.1916
vt 0.4620 0.1785
vt 0.4691 0.1808
vt 0.4535 0.2072
vt 0.4638 0.2018
vt 0.4653 0.2098
vt 0.4560 0.1997
vt 0.4217 0.1669
vt 0.4330 0.1718
vt 0.4213 0.1748
vt 0.4291 0.1819
vt 0.4215 0.1799
vt 0.4098 0.1732
vt 0.4090 0.1806
vt 0.4009 0.1773
vt 0.4160 0.1831
vt 0.4494 0.1956
vt 0.4418 0.2012
vt 0.4422 0.1920
vt 0.4237 0.1883
vt 0.4305 0.1889
vt 0.4239 0.1928
vt 0.4321 0.1976
vt 0.4240 0.1968
vt 0.4176 0.1911
vt 0.4124 0.1947
vt 0.4132 0.1889
vt 0.4183 0.1992
vt 0.4225 0.1838
vt 0.4268 0.2071
vt 0.4380 0.2055
vt 0.4278 0.2154
vt 0.4741 0.1766
vt 0.4736 0.1902
vt 0.4149 0.2109
vt 0.4061 0.2101
vt 0.4114 0.2029
vt 0.4655 0.1669
vt 0.4586 0.1703
vt 0.4251 0.2008
vt 0.4511 0.1693
vt 0.4451 0.1765
vt 0.4418 0.1851
vt 0.3979 0.1846
vt 0.4086 0.1888
vt 0.3979 0.1943
vt 0.4027 0.2019
vt 0.4399 0.1956
vt 0.4404 0.1862
vt 0.4376 0.1776
vt 0.4705 0.1975
vt 0.4727 0.2084
vt 0.4805 0.2033
vt 0.4842 0.1956
vt 0.4819 0.1870
vt 0.4617 0.1872
vt 0.4663 0.1846
vt 0.4671 0.1916
vt 0.4651 0.1964
vt 0.4603 0.1921
vt 0.4578 0.1953
vt 0.4566 0.1859
vt 0.4516 0.1859
vt 0.4548 0.1805
vt 0.4523 0.1916
vt 0.4620 0.1785
vt 0.4691 0.1808
vt 0.4535 0.2072
vt 0.4638 0.2018
vt 0.4653 0.2098
vt 0.4560 0.1997
vt 0.4217 0.1669
vt 0.4330 0.1718
vt 0.4213 0.1748
vt 0.4291 0.1819
vt 0.4215 0.1799
vt 0.4098 0.1732
vt 0.4090 0.1806
vt 0.4009 0.1773
vt 0.4160 0.1831
vt 0.4494 0.1956
vt 0.4418 0.2012
vt 0.4422 0.1920
vt 0.4237 0.1883
vt 0.4305 0.1889
vt 0.4239 0.1928
vt 0.4321 0.1976
vt 0.4240 0.1968
vt 0.4176 0.1911
vt 0.4124 0.1947
vt 0.4132 0.1889
vt 0.4183 0.1992
vt 0.4225 0.1838
vt 0.4268 0.2071
vt 0.4380 0.2055
vt 0.4278 0.2154
vt 0.4741 0.1766
vt 0.4736 0.1902
vt 0.4149 0.2109
vt 0.4061 0.2101
vt 0.4114 0.2029
vt 0.4655 0.1669
vt 0.4586 0.1703
vt 0.4251 0.2008
vt 0.4511 0.1693
vt 0.4451 0.1765
vt 0.4418 0.1851
vt 0.3979 0.1846
vt 0.4086 0.1888
vt 0.3979 0.1943
vt 0.4027 0.2019
vt 0.4399 0.1956
vt 0.4404 0.1862
vt 0.4376 0.1776
vt 0.4705 0.1975
vt 0.4727 0.2084
vt 0.4805 0.2033
vt 0.4842 0.1956
vt 0.4819 0.1870
vt 0.3102 0.7675
vt 0.3105 0.7741
vt 0.3073 0.7744
vt 0.3061 0.7683
vt 0.3223 0.7703
vt 0.3198 0.7756
vt 0.3168 0.7746
vt 0.3185 0.7685
vt 0.3144 0.7675
vt 0.3137 0.7741
vt 0.3041 0.7749
vt 0.3022 0.7694
vt 0.3126 0.7879
vt 0.3102 0.7869
vt 0.3079 0.7883
vt 0.3054 0.7883
vt 0.3150 0.7883
vt 0.3225 0.7909
vt 0.3248 0.7932
vt 0.3245 0.7980
vt 0.3223 0.7970
vt 0.3074 0.8035
vt 0.3050 0.8024
vt 0.3142 0.8031
vt 0.3120 0.8027
vt 0.3202 0.7915
vt 0.3207 0.7967
vt 0.3174 0.7888
vt 0.3168 0.8028
vt 0.3133 0.8223
vt 0.3121 0.8222
vt 0.3096 0.8029
vt 0.3109 0.8223
vt 0.3098 0.8224
vt 0.3159 0.8053
vt 0.3145 0.8223
vt 0.3313 0.8352
vt 0.3287 0.8334
vt 0.3291 0.8282
vt 0.3306 0.8286
vt 0.3278 0.8289
vt 0.3267 0.8280
vt 0.3276 0.8157
vt 0.3283 0.8162
vt 0.3057 0.8057
vt 0.3085 0.8226
vt 0.3274 0.8358
vt 0.3250 0.8353
vt 0.3292 0.8158
vt 0.3339 0.8353
vt 0.3319 0.8280
vt 0.3302 0.8161
vt 0.3311 0.8157
vt 0.3262 0.7971
vt 0.3279 0.7974
vt 0.3260 0.8100
vt 0.3248 0.8095
vt 0.3102 0.7906
vt 0.3233 0.8091
vt 0.3272 0.7909
vt 0.3296 0.7922
vt 0.3214 0.8090
vt 0.3202 0.8096
vn -0.0495 0.2277 -0.9725
vn -0.2687 0.2925 -0.9177
vn -0.3226 0.4835 -0.8137
vn 0.9111 0.2126 -0.3532
vn 0.1443 0.6720 -0.7264
vn 0.3951 0.7184 -0.5725
vn 0.4444 0.1992 -0.8734
vn 0.3897 -0.4676 -0.7934
vn 0.8345 0.0186 -0.5507
vn -0.8070 0.5836 -0.0910
vn -0.3946 0.6293 -0.6696
vn -0.8062 0.5601 0.1903
vn -0.8444 0.4412 0.3039
vn 0.4388 0.8254 0.3552
vn -0.1714 0.7455 0.6441
vn 0.0657 0.7159 0.6951
vn -0.0963 0.9809 -0.1688
vn 0.0907 0.8967 -0.4333
vn 0.2473 0.9689 -0.0121
vn -0.7887 0.0392 0.6135
vn -0.6326 -0.4851 0.6037
vn -0.4835 -0.6932 0.5345
vn 0.2285 -0.0619 0.9716
vn 0.2052 -0.5497 0.8098
vn 0.0782 -0.5804 0.8106
vn -0.4028 0.2241 0.8874
vn -0.4221 0.2566 0.8695
vn 0.0429 0.0996 0.9941
vn -0.1827 -0.9794 -0.0857
vn -0.0062 -0.8943 -0.4474
vn -0.1566 -0.4545 -0.8769
vn 0.8518 -0.5162 0.0895
vn 0.5142 -0.5826 -0.6295
vn 0.6628 -0.5181 -0.5407
vn 0.5022 -0.8647 0.0117
vn 0.2495 -0.8856 0.3918
vn 0.6455 -0.7062 0.2909
vn 0.9297 -0.0829 -0.3590
vn 0.8755 0.4137 -0.2496
vn 0.6354 0.6609 -0.3992
vn 0.7288 0.3821 0.5681
vn 0.5216 0.5700 0.6348
vn 0.9624 -0.2699 0.0297
vn 0.5919 -0.7840 0.1870
vn -0.8593 -0.4793 0.1787
vn -0.9834 0.0175 0.1805
vn -0.9271 0.3233 0.1895
vn -0.4285 0.1890 -0.8836
vn -0.9128 0.3054 -0.2712
vn -0.8433 -0.0387 -0.5361
vn -0.2541 -0.1107 -0.9608
vn -0.1541 -0.4320 -0.8886
vn -0.0286 0.1763 -0.9839
vn 0.0958 0.2426 -0.9654
vn 0.2348 0.6102 -0.7567
vn 0.2456 0.0091 -0.9693
vn -0.5363 0.7280 -0.4271
vn -0.5838 0.6323 -0.5093
vn -0.8357 0.4350 0.3353
vn -0.2625 0.8922 0.3676
vn -0.3092 0.6391 0.7043
vn -0.0760 0.9940 -0.0790
vn 0.0516 0.8230 -0.5657
vn 0.5350 0.7518 -0.3855
vn -0.7438 0.1221 0.6571
vn -0.7439 0.2128 0.6335
vn -0.6271 -0.5626 0.5387
vn -0.0229 -0.3781 0.9255
vn 0.2012 -0.5580 0.8051
vn -0.0847 0.0778 0.9934
vn -0.1753 -0.9818 -0.0725
vn -0.2774 -0.8883 0.3661
vn -0.1706 -0.4700 -0.8660
vn 0.3072 -0.9023 -0.3025
vn 0.4031 -0.5017 -0.7654
vn 0.2982 -0.9430 0.1479
vn 0.8806 -0.1761 -0.4399
vn 0.9167 -0.3673 0.1575
vn 0.9251 0.0498 -0.3764
vn 0.8627 0.2253 -0.4528
vn 0.5055 0.8435 -0.1815
vn 0.8252 0.2683 0.4971
vn 0.6569 0.6649 0.3556
vn 0.4803 0.3044 0.8226
vn 0.8189 0.3011 0.4886
vn 0.9051 -0.4251 -0.0096
vn 0.7291 0.3147 0.6077
vn -0.9772 -0.2065 0.0501
vn -0.7421 -0.6540 -0.1470
vn -0.9875 0.0547 0.1475
vn -0.9756 0.0633 -0.2103
vn -0.9109 0.3820 -0.1559
vn -0.6876 0.3936 -0.6102
vn -0.8335 -0.3551 -0.4234
vn -0.7369 -0.3201 -0.5954
vn -0.4392 -0.0233 -0.8981
vn 0.0556 -0.9141 -0.4016
vn 0.0168 -0.6570 -0.7537
vn 0.0455 -0.5884 -0.8073
vn 0.5536 -0.8261 -0.1052
vn 0.2930 -0.8853 -0.3612
vn 0.5273 -0.8192 -0.2255
vn 0.3795 -0.9227 -0.0674
vn -0.0192 -0.8785 0.4774
vn 0.5373 -0.8383 -0.0929
vn -0.0326 0.1792 -0.9833
vn 0.0484 -0.4356 -0.8989
vn -0.0333 0.2001 -0.9792
vn -0.1653 0.6169 -0.7695
vn 0.7766 0.4616 -0.4287
vn 0.2143 0.7215 -0.6584
vn 0.5320 0.7322 -0.4252
vn 0.1191 0.2071 -0.9711
vn 0.0923 -0.3588 -0.9288
vn 0.7338 0.2825 -0.6178
vn -0.6711 0.7330 -0.1113
vn -0.7060 0.7068 0.0447
vn -0.9026 0.3654 0.2277
vn 0.2510 0.8782 0.4071
vn -0.1630 0.6969 0.6984
vn -0.0524 0.6906 0.7213
vn -0.0667 0.9865 -0.1495
vn -0.0251 0.8990 -0.4373
vn 0.1460 0.9881 -0.0473
vn -0.6049 -0.1253 0.7864
vn -0.4710 -0.4623 0.7513
vn -0.3790 -0.7816 0.4954
vn 0.5250 -0.0156 0.8510
vn -0.1050 -0.8145 0.5706
vn 0.2828 -0.7121 0.6426
vn -0.2729 -0.2329 0.9334
vn -0.3749 -0.0761 0.9239
vn 0.3696 0.0767 0.9260
vn 0.6630 -0.5319 0.5268
vn 0.9500 -0.2411 0.1985
vn 0.9407 -0.0038 -0.3392
vn 0.8862 0.4380 -0.1512
vn 0.7169 0.5823 -0.3833
vn 0.9116 0.0794 0.4034
vn 0.2387 -0.0478 0.9699
vn -0.9005 0.2589 0.3493
vn -0.5825 0.1306 -0.8023
vn -0.6223 0.1237 -0.7730
vn -0.3175 -0.6193 -0.7181
vn -0.5964 0.0026 -0.8027
vn -0.9198 -0.2959 -0.2576
vn -0.1757 -0.9563 -0.2338
vn -0.3136 -0.8665 0.3884
vn 0.1111 -0.8166 -0.5664
vn 0.4665 -0.6725 -0.5746
vn 0.0924 -0.5959 -0.7977
vn 0.4979 -0.8600 -0.1120
vn -0.0169 0.1618 -0.9867
vn -0.0081 -0.3743 -0.9273
vn -0.2166 0.4250 -0.8789
vn 0.1738 0.2460 -0.9536
vn 0.2169 0.7203 -0.6589
vn 0.1510 0.2932 -0.9440
vn 0.1942 -0.1492 -0.9696
vn 0.7999 0.1367 -0.5844
vn -0.3696 0.8742 -0.3148
vn -0.2123 0.8185 -0.5338
vn -0.8596 0.3119 0.4046
vn -0.2137 0.9631 0.1636
vn -0.0770 0.7594 0.6460
vn -0.0523 0.9931 -0.1047
vn -0.6613 -0.2625 0.7027
vn -0.6966 -0.1106 0.7089
vn -0.4644 -0.6982 0.5449
vn -0.4350 -0.4535 0.7779
vn -0.0426 -0.6996 0.7133
vn -0.4206 -0.1396 0.8964
vn 0.9069 -0.2827 0.3124
vn 0.4832 -0.0353 0.8748
vn 0.8515 -0.4916 0.1825
vn 0.9389 -0.2673 0.2168
vn 0.9606 -0.1234 -0.2492
vn 0.9360 0.0919 0.3397
vn 0.8858 0.4276 -0.1803
vn 0.6285 0.7678 -0.1245
vn 0.9155 0.0876 0.3926
vn 0.4531 -0.1041 0.8853
vn 0.8004 0.5643 0.2025
vn -0.9693 0.2459 -0.0011
vn -0.8424 -0.0816 0.5327
vn -0.8726 0.3946 -0.2877
vn -0.5722 0.0007 -0.8201
vn -0.6005 -0.0044 -0.7996
vn -0.3065 -0.4537 -0.8368
vn -0.8476 -0.3101 -0.4305
vn -0.9013 -0.3960 0.1757
vn -0.3610 -0.6481 -0.6705
vn -0.0124 0.1582 0.9873
vn -0.5849 0.0776 -0.8074
vn 0.9307 0.2032 0.3041
vn -0.9401 0.0681 0.3340
vn 0.5739 0.1557 -0.8040
vn 0.9263 0.2255 0.3017
vn -0.9389 -0.1607 0.3045
vn 0.5502 0.1361 -0.8239
vn 0.0016 0.0391 0.9992
vn 0.2377 0.6435 -0.7276
vn -0.8654 -0.3404 0.3677
vn 0.5654 0.2373 -0.7900
vn 0.8905 -0.4500 -0.0669
vn -0.4485 -0.1862 -0.8742
vn 0.6037 0.0770 -0.7935
vn 0.0752 -0.0324 0.9966
vn -0.7054 0.1022 -0.7014
vn 0.9298 -0.0062 0.3680
vn 0.6122 0.5297 0.5871
vn -0.5510 -0.0951 -0.8291
vn -0.5899 -0.6192 0.5183
vn -0.9848 0.0383 0.1693
vn -0.4503 -0.2907 -0.8442
vn 0.4457 0.3049 -0.8417
vn -0.7494 -0.4650 0.4713
vn 0.5408 0.6289 -0.5587
vn 0.4356 0.8284 0.3522
vn -0.5956 -0.5890 0.5461
vn -0.1628 -0.4528 0.8766
vn 0.0042 0.0491 0.9988
vn 0.8621 0.3837 0.3309
vn -0.8629 0.3164 0.3941
vn -0.2632 -0.5967 0.7581
vn -0.8719 0.3525 0.3399
vn 0.2513 0.4614 -0.8508
vn 0.8506 -0.5230 -0.0535
s off
f 1/1/1 2/2/1 3/3/1
f 3/3/2 4/4/2 5/5/2
f 5/5/3 4/4/3 6/6/3
f 7/7/4 8/8/4 9/9/4
f 5/5/5 10/10/5 7/7/5
f 7/7/6 10/10/6 8/8/6
f 1/1/7 11/11/7 2/2/7
f 2/2/8 11/11/8 12/12/8
f 7/7/9 9/9/9 11/11/9
f 13/13/10 14/14/10 15/15/10
f 16/16/11 4/4/11 14/14/11
f 13/17/12 15/18/12 17/19/12
f 17/19/13 18/20/13 19/21/13
f 20/22/14 21/23/14 22/24/14
f 17/19/15 23/25/15 20/22/15
f 20/22/16 23/25/16 21/23/16
f 13/13/17 24/26/17 16/16/17
f 16/16/18 10/10/18 6/6/18
f 20/27/19 22/28/19 24/26/19
f 25/29/20 18/20/20 26/30/20
f 25/29/21 26/30/21 27/31/21
f 27/31/22 28/32/22 29/33/22
f 30/34/23 31/35/23 32/36/23
f 27/31/24 33/37/24 30/34/24
f 30/34/25 33/37/25 31/35/25
f 25/29/26 23/25/26 34/38/26
f 34/38/27 23/25/27 19/21/27
f 30/34/28 32/36/28 23/25/28
f 35/39/29 28/32/29 36/40/29
f 35/39/30 36/40/30 37/41/30
f 37/42/31 38/43/31 12/12/31
f 39/44/32 40/45/32 41/46/32
f 37/42/33 11/11/33 39/47/33
f 39/47/34 11/11/34 40/48/34
f 35/39/35 33/37/35 42/49/35
f 42/49/36 33/37/36 29/33/36
f 39/44/37 41/46/37 33/37/37
f 43/50/38 11/11/38 9/9/38
f 44/51/39 8/8/39 45/52/39
f 45/52/40 10/10/40 22/28/40
f 45/53/41 21/23/41 46/54/41
f 46/54/42 23/25/42 32/36/42
f 44/55/43 31/35/43 43/56/43
f 31/35/44 33/37/44 41/46/44
f 47/57/45 28/32/45 26/30/45
f 48/58/46 18/20/46 49/59/46
f 49/59/47 18/20/47 15/18/47
f 50/60/48 4/4/48 3/3/48
f 49/61/49 14/14/49 50/60/49
f 48/62/50 38/43/50 47/63/50
f 3/3/51 2/2/51 38/43/51
f 2/2/52 12/12/52 38/43/52
f 1/1/53 3/3/53 5/5/53
f 1/1/54 5/5/54 7/7/54
f 5/5/55 6/6/55 10/10/55
f 1/1/56 7/7/56 11/11/56
f 13/13/57 16/16/57 14/14/57
f 16/16/58 6/6/58 4/4/58
f 17/19/59 15/18/59 18/20/59
f 13/17/60 17/19/60 20/22/60
f 17/19/61 19/21/61 23/25/61
f 13/13/62 20/27/62 24/26/62
f 16/16/63 24/26/63 10/10/63
f 24/26/64 22/28/64 10/10/64
f 25/29/65 34/38/65 18/20/65
f 34/38/66 19/21/66 18/20/66
f 27/31/67 26/30/67 28/32/67
f 25/29/68 27/31/68 30/34/68
f 27/31/69 29/33/69 33/37/69
f 25/29/70 30/34/70 23/25/70
f 35/39/71 42/49/71 28/32/71
f 42/49/72 29/33/72 28/32/72
f 37/42/73 36/64/73 38/43/73
f 35/39/74 37/41/74 39/44/74
f 37/42/75 12/12/75 11/11/75
f 35/39/76 39/44/76 33/37/76
f 44/51/77 43/50/77 9/9/77
f 43/56/78 41/46/78 40/45/78
f 43/50/79 40/48/79 11/11/79
f 44/51/80 9/9/80 8/8/80
f 45/52/81 8/8/81 10/10/81
f 44/55/82 45/53/82 46/54/82
f 45/53/83 22/24/83 21/23/83
f 46/54/84 21/23/84 23/25/84
f 44/55/85 46/54/85 31/35/85
f 43/56/86 31/35/86 41/46/86
f 46/54/87 32/36/87 31/35/87
f 48/58/88 47/57/88 26/30/88
f 47/57/89 36/40/89 28/32/89
f 48/58/90 26/30/90 18/20/90
f 48/62/91 49/61/91 50/60/91
f 49/61/92 15/15/92 14/14/92
f 50/60/93 14/14/93 4/4/93
f 48/62/94 50/60/94 38/43/94
f 47/63/95 38/43/95 36/64/95
f 50/60/96 3/3/96 38/43/96
f 51/65/97 52/66/97 53/67/97
f 53/67/98 54/68/98 55/69/98
f 55/69/99 54/68/99 56/70/99
f 57/71/100 58/72/100 59/73/100
f 55/69/101 60/74/101 57/71/101
f 57/71/102 60/74/102 58/72/102
f 51/65/103 61/75/103 52/66/103
f 52/66/104 61/75/104 62/76/104
f 57/71/105 59/73/105 61/75/105
f 63/77/106 64/78/106 65/79/106
f 66/80/107 54/68/107 64/78/107
f 63/81/108 65/82/108 67/83/108
f 67/83/109 68/84/109 69/85/109
f 70/86/110 71/87/110 72/88/110
f 67/83/111 73/89/111 70/86/111
f 70/86/112 73/89/112 71/87/112
f 63/77/113 74/90/113 66/80/113
f 66/80/114 60/74/114 56/70/114
f 70/91/115 72/92/115 74/90/115
f 75/93/116 68/84/116 76/94/116
f 75/93/117 76/94/117 77/95/117
f 77/95/118 78/96/118 79/97/118
f 80/98/119 81/99/119 82/100/119
f 77/95/120 83/101/120 80/98/120
f 80/98/121 83/101/121 81/99/121
f 75/93/122 73/89/122 84/102/122
f 84/102/123 73/89/123 69/85/123
f 80/98/124 82/100/124 73/89/124
f 85/103/125 78/96/125 86/104/125
f 85/103/126 86/104/126 87/105/126
f 87/106/127 88/107/127 62/76/127
f 89/108/128 90/109/128 91/110/128
f 87/106/129 61/75/129 89/111/129
f 89/111/130 61/75/130 90/112/130
f 85/103/131 83/101/131 92/113/131
f 92/113/132 83/101/132 79/97/132
f 89/108/133 91/110/133 83/101/133
f 93/114/134 61/75/134 59/73/134
f 94/115/135 58/72/135 95/116/135
f 95/116/136 60/74/136 72/92/136
f 95/117/137 71/87/137 96/118/137
f 96/118/138 73/89/138 82/100/138
f 94/119/139 81/99/139 93/120/139
f 81/99/140 83/101/140 91/110/140
f 97/121/141 78/96/141 76/94/141
f 98/122/142 68/84/142 99/123/142
f 99/123/143 68/84/143 65/82/143
f 100/124/144 54/68/144 53/67/144
f 99/125/145 64/78/145 100/124/145
f 98/126/146 88/107/146 97/127/146
f 53/67/147 52/66/147 88/107/147
f 52/66/148 62/76/148 88/107/148
f 51/65/149 53/67/149 55/69/149
f 51/65/150 55/69/150 57/71/150
f 55/69/151 56/70/151 60/74/151
f 51/65/152 57/71/152 61/75/152
f 63/77/153 66/80/153 64/78/153
f 66/80/154 56/70/154 54/68/154
f 67/83/155 65/82/155 68/84/155
f 63/81/156 67/83/156 70/86/156
f 67/83/157 69/85/157 73/89/157
f 63/77/158 70/91/158 74/90/158
f 66/80/159 74/90/159 60/74/159
f 74/90/160 72/92/160 60/74/160
f 75/93/161 84/102/161 68/84/161
f 84/102/162 69/85/162 68/84/162
f 77/95/163 76/94/163 78/96/163
f 75/93/164 77/95/164 80/98/164
f 77/95/165 79/97/165 83/101/165
f 75/93/166 80/98/166 73/89/166
f 85/103/167 92/113/167 78/96/167
f 92/113/168 79/97/168 78/96/168
f 87/106/169 86/128/169 88/107/169
f 85/103/170 87/105/170 89/108/170
f 87/106/171 62/76/171 61/75/171
f 85/103/172 89/108/172 83/101/172
f 94/115/173 93/114/173 59/73/173
f 93/120/174 91/110/174 90/109/174
f 93/114/175 90/112/175 61/75/175
f 94/115/176 59/73/176 58/72/176
f 95/116/177 58/72/177 60/74/177
f 94/119/178 95/117/178 96/118/178
f 95/117/179 72/88/179 71/87/179
f 96/118/180 71/87/180 73/89/180
f 94/119/181 96/118/181 81/99/181
f 93/120/182 81/99/182 91/110/182
f 96/118/183 82/100/183 81/99/183
f 98/122/184 97/121/184 76/94/184
f 97/121/185 86/104/185 78/96/185
f 98/122/186 76/94/186 68/84/186
f 98/126/187 99/125/187 100/124/187
f 99/125/188 65/79/188 64/78/188
f 100/124/189 64/78/189 54/68/189
f 98/126/190 100/124/190 88/107/190
f 97/127/191 88/107/191 86/128/191
f 100/124/192 53/67/192 88/107/192
f 104/129/193 109/130/193 108/131/193 103/132/193
f 102/133/194 107/134/194 106/135/194 101/136/194
f 105/137/195 110/138/195 109/130/195 104/129/195
f 103/132/196 108/131/196 107/139/196 102/140/196
f 101/136/197 106/135/197 110/138/197 105/137/197
f 116/141/198 117/142/198 109/130/198 110/138/198
f 118/143/199 119/144/199 107/139/199 108/131/199
f 120/145/200 116/141/200 110/138/200 106/135/200
f 109/130/201 117/142/201 118/143/201 108/131/201
f 116/146/202 135/147/202 139/148/202 136/149/202
f 119/144/203 118/143/203 113/150/203 112/151/203
f 116/141/204 120/145/204 111/152/204 115/153/204
f 117/154/205 116/146/205 136/149/205 137/155/205
f 120/145/206 119/156/206 112/157/206 111/152/206
f 115/153/207 111/152/207 121/158/207 125/159/207
f 113/150/208 114/160/208 124/161/208 123/162/208
f 111/152/209 126/163/209 122/164/209 121/158/209
f 114/160/210 115/153/210 125/159/210 124/161/210
f 113/165/211 126/166/211 130/167/211 129/168/211
f 107/134/212 119/156/212 120/145/212 106/135/212
f 127/169/213 128/170/213 132/171/213 131/172/213
f 126/173/214 113/150/214 123/162/214 122/174/214
f 111/175/215 112/176/215 128/170/215 127/169/215
f 130/167/216 127/169/216 131/172/216 134/177/216
f 112/178/217 113/165/217 129/168/217 128/179/217
f 126/166/218 111/175/218 127/169/218 130/167/218
f 129/168/219 130/167/219 134/177/219 133/180/219
f 128/179/220 129/168/220 133/180/220 132/181/220
f 138/182/221 137/183/221 141/184/221 142/185/221
f 135/186/222 114/160/222 113/150/222 118/143/222
f 135/186/223 116/141/223 115/153/223 114/160/223
f 139/148/224 138/182/224 142/185/224 143/187/224
f 118/188/225 117/189/225 137/183/225 138/182/225
f 135/147/226 118/188/226 138/182/226 139/148/226
f 136/149/227 139/148/227 143/187/227 140/190/227
f 137/155/228 136/149/228 140/190/228 141/191/228
