# Blender v2.78 (sub 0) OBJ File: 'Low_Poly_Trees_Pack.blend'
# www.blender.org
g Apple_Tree_s_01
v -0.788870 2.102529 0.020453
v -0.817832 2.265631 0.432872
v -0.686807 2.730494 0.040908
v -0.510343 2.820514 -0.345847
v -0.697920 2.259960 -0.339933
v -0.516677 2.217095 -0.606557
v -0.719620 1.717444 -0.125595
v -0.577443 1.428555 -0.319218
v -0.610896 1.413469 0.114573
v -0.480333 1.735376 -0.568286
v -0.706528 1.700098 0.528518
v -0.617999 2.200443 0.694088
v 0.098544 2.307306 -0.883877
v -0.188186 2.780956 -0.591743
v 0.209191 2.828584 -0.661945
v -0.257814 2.257733 -0.803416
v 0.462382 2.304111 -0.865695
v 0.654021 2.783543 -0.374624
v 0.764194 2.306548 -0.726241
v 0.220113 1.726430 -0.793931
v 0.368263 1.472809 -0.571092
v -0.025252 1.425715 -0.641448
v 0.791044 1.756613 -0.496439
v -0.233857 1.755052 -0.792804
v 0.963895 2.360906 -0.006256
v 0.773548 2.887944 0.118027
v 0.961173 2.288440 0.408761
v 0.500794 2.834294 0.672590
v 0.796302 2.229820 0.708330
v 0.908709 1.669858 0.171634
v 0.601376 1.204662 0.390388
v 0.708844 1.376141 -0.057884
v 0.592930 1.686410 0.765835
v 0.920556 2.353069 -0.417888
v 0.073339 2.298521 0.909847
v -0.015860 2.885368 0.725008
v -0.317810 2.233677 0.830165
v -0.413283 2.918112 0.392378
v -0.129771 1.653834 0.861568
v -0.316199 1.409336 0.638400
v 0.116195 1.363719 0.684614
v 0.471814 2.261315 0.846274
v -0.153935 1.143329 0.439394
v -0.168198 1.130175 0.030691
v -0.084935 1.256068 -0.351417
v 0.422755 1.207668 -0.087285
v 0.230582 3.002780 0.396750
v 0.284653 3.085455 0.025819
v 0.253688 3.041823 -0.376341
v -0.283129 3.094467 -0.104482
v 0.000000 0.000000 -0.060000
v -0.060000 0.000000 0.000000
v 0.000000 0.000000 0.060000
v 0.060000 0.000000 -0.000000
v 0.021097 0.380142 -0.040925
v -0.019239 0.380142 -0.000588
v 0.021097 0.380142 0.039749
v 0.061434 0.380142 -0.000588
v -0.007712 0.719282 -0.009897
v -0.037742 0.719772 0.020504
v -0.007343 0.719386 0.050538
v 0.022687 0.718896 0.020137
v -0.004050 0.999484 -0.010006
v -0.044136 1.000138 0.030575
v -0.003558 0.999623 0.070666
v 0.036528 0.998968 0.030085
v -0.078667 1.150270 0.074240
v -0.097535 1.143383 0.101195
v -0.070520 1.146001 0.117425
v -0.056350 1.160365 0.093600
v 0.002323 1.051453 0.033261
v 0.189585 1.093551 0.018190
v 0.193598 1.087405 0.054304
v 0.175696 1.113209 0.043551
v 0.437822 1.293397 0.014732
v 0.441765 1.289338 0.045174
v 0.421217 1.305621 0.035659
v 0.042722 1.022206 -0.003195
v 0.066278 1.275214 -0.194907
v 0.067060 1.298878 -0.164130
v 0.100903 1.283682 -0.181916
vt 0.5863 0.1872
vt 0.5908 0.1846
vt 0.5917 0.1916
vt 0.5897 0.1964
vt 0.5849 0.1921
vt 0.5823 0.1953
vt 0.5812 0.1859
vt 0.5762 0.1859
vt 0.5794 0.1805
vt 0.5769 0.1916
vt 0.5866 0.1785
vt 0.5937 0.1808
vt 0.5781 0.2072
vt 0.5884 0.2018
vt 0.5899 0.2098
vt 0.5805 0.1997
vt 0.5463 0.1669
vt 0.5576 0.1718
vt 0.5459 0.1748
vt 0.5537 0.1819
vt 0.5461 0.1799
vt 0.5344 0.1732
vt 0.5336 0.1806
vt 0.5255 0.1773
vt 0.5406 0.1831
vt 0.5740 0.1956
vt 0.5664 0.2012
vt 0.5668 0.1920
vt 0.5483 0.1883
vt 0.5551 0.1889
vt 0.5485 0.1928
vt 0.5567 0.1976
vt 0.5486 0.1968
vt 0.5422 0.1911
vt 0.5370 0.1947
vt 0.5378 0.1889
vt 0.5429 0.1992
vt 0.5471 0.1838
vt 0.5514 0.2071
vt 0.5626 0.2055
vt 0.5524 0.2154
vt 0.5987 0.1766
vt 0.5982 0.1902
vt 0.5395 0.2109
vt 0.5307 0.2101
vt 0.5360 0.2029
vt 0.5901 0.1669
vt 0.5832 0.1703
vt 0.5497 0.2008
vt 0.5757 0.1693
vt 0.5697 0.1765
vt 0.5664 0.1851
vt 0.5225 0.1846
vt 0.5332 0.1888
vt 0.5225 0.1943
vt 0.5273 0.2019
vt 0.5645 0.1956
vt 0.5650 0.1862
vt 0.5622 0.1776
vt 0.5951 0.1975
vt 0.5973 0.2084
vt 0.6050 0.2033
vt 0.6088 0.1956
vt 0.6065 0.1870
vt 0.4334 0.7640
vt 0.4273 0.8008
vt 0.4220 0.8002
vt 0.4251 0.7632
vt 0.4168 0.7625
vt 0.4166 0.8002
vt 0.4111 0.8003
vt 0.4085 0.7625
vt 0.4057 0.8006
vt 0.4002 0.7637
vt 0.4193 0.8498
vt 0.4161 0.8499
vt 0.4226 0.8500
vt 0.4128 0.8500
vt 0.4215 0.8655
vt 0.4188 0.8654
vt 0.4170 0.8657
vt 0.4135 0.8659
vt 0.4095 0.8499
vt 0.4099 0.8659
vt 0.4372 0.7625
vt 0.4408 0.7655
vt 0.4403 0.7747
vt 0.4381 0.7749
vt 0.4450 0.7626
vt 0.4483 0.7653
vt 0.4446 0.7758
vt 0.4425 0.7752
vt 0.4195 0.8658
vt 0.4334 0.7644
vt 0.4359 0.7752
vt 0.4194 0.8659
vt 0.4194 0.8659
vt 0.4195 0.8660
vt 0.4195 0.8660
vt 0.4180 0.8663
vt 0.4194 0.8658
vt 0.4195 0.8660
vt 0.4190 0.8664
vt 0.4533 0.7635
vt 0.4580 0.7642
vt 0.4568 0.7883
vt 0.4536 0.7881
vt 0.4615 0.7625
vt 0.4596 0.7879
vt 0.4483 0.7625
vt 0.4507 0.7878
vn -0.9776 0.1632 -0.1332
vn -0.8933 0.2953 -0.3388
vn -0.7801 0.2550 -0.5713
vn -0.9153 -0.3940 -0.0843
vn -0.8668 -0.1529 -0.4747
vn -0.8725 -0.1103 -0.4761
vn -0.9814 -0.1920 0.0070
vn -0.7997 -0.0563 0.5977
vn -0.9441 -0.3296 0.0102
vn -0.2065 0.4201 -0.8837
vn -0.5321 0.3774 -0.7579
vn 0.0495 0.3823 -0.9227
vn 0.3288 0.6084 -0.7223
vn 0.2102 -0.5731 -0.7920
vn 0.4538 -0.2948 -0.8410
vn 0.4334 -0.4386 -0.7873
vn -0.2160 -0.0309 -0.9759
vn -0.5910 -0.1081 -0.7994
vn -0.0295 -0.4328 -0.9010
vn 0.8748 0.3852 -0.2939
vn 0.9433 0.3258 0.0631
vn 0.7657 0.4039 0.5005
vn 0.8314 -0.5555 -0.0132
vn 0.8524 -0.2486 0.4599
vn 0.8279 -0.3357 0.4493
vn 0.9751 -0.1987 -0.0989
vn 0.8917 -0.1368 -0.4315
vn 0.8769 -0.4321 -0.2106
vn 0.1266 0.3155 0.9405
vn -0.2339 0.2596 0.9370
vn -0.4095 0.4504 0.7934
vn -0.1474 -0.6031 0.7839
vn -0.5037 -0.1170 0.8559
vn -0.4887 -0.3549 0.7970
vn 0.1469 -0.1066 0.9834
vn 0.3869 -0.0473 0.9209
vn 0.1376 -0.4281 0.8932
vn -0.6431 -0.6911 0.3300
vn -0.3293 -0.8731 -0.3594
vn -0.5396 -0.6736 -0.5051
vn 0.1725 -0.8555 -0.4883
vn 0.4710 -0.7081 -0.5260
vn 0.0828 -0.9961 0.0292
vn 0.2689 -0.5891 0.7620
vn 0.3197 0.9151 0.2458
vn 0.5378 0.8327 -0.1318
vn 0.4436 0.6837 -0.5795
vn -0.6914 0.7065 -0.1510
vn -0.2034 0.8049 -0.5575
vn -0.1291 0.9717 0.1978
vn -0.7891 0.5105 0.3416
vn -0.6548 0.4439 0.6117
vn -0.9711 0.1635 -0.1737
vn -0.9597 -0.0693 -0.2724
vn -0.8302 -0.1061 -0.5473
vn -0.9831 -0.1824 0.0148
vn -0.2541 0.3916 -0.8843
vn -0.6047 0.3212 -0.7288
vn 0.5018 0.5128 -0.6965
vn 0.0481 -0.1430 -0.9886
vn 0.3971 -0.3373 -0.8535
vn -0.0123 -0.1555 -0.9878
vn -0.6706 -0.0476 -0.7403
vn -0.5096 -0.6043 -0.6125
vn 0.8416 0.5310 -0.0987
vn 0.7383 0.5023 -0.4501
vn 0.7821 0.4525 0.4284
vn 0.9966 -0.0816 -0.0077
vn 0.8634 -0.2786 0.4207
vn 0.9740 -0.1262 -0.1879
vn 0.1766 0.2773 0.9444
vn 0.3993 0.2474 0.8828
vn -0.5742 0.3828 0.7237
vn -0.1978 -0.0111 0.9802
vn -0.3807 -0.2291 0.8959
vn 0.1356 -0.1164 0.9839
vn -0.5323 -0.8453 0.0458
vn -0.1482 -0.6488 0.7464
vn -0.6171 -0.6768 0.4014
vn -0.5472 -0.8340 -0.0712
vn -0.2484 -0.5619 -0.7890
vn 0.0650 -0.9519 -0.2994
vn 0.1869 -0.8642 -0.4671
vn 0.5515 -0.7038 -0.4478
vn 0.1198 -0.9915 -0.0510
vn 0.1033 -0.7937 0.5995
vn 0.5124 -0.8358 -0.1969
vn 0.3217 0.9131 0.2504
vn 0.1314 0.8980 0.4198
vn 0.4047 0.8697 -0.2825
vn 0.0412 0.9930 -0.1109
vn -0.1960 0.8001 -0.5669
vn -0.3302 0.7632 -0.5554
vn -0.0585 0.9455 0.3203
vn -0.1280 0.9604 0.2474
vn -0.6464 0.7565 0.0992
vn 0.7071 -0.0038 -0.7071
vn -0.7050 0.0767 0.7050
vn 0.7071 -0.0016 0.7071
vn -0.7051 0.0745 -0.7051
vn 0.7086 0.0375 0.7046
vn 0.7002 0.1235 -0.7032
vn -0.7031 -0.0818 0.7063
vn 0.7027 -0.0095 -0.7114
vn -0.7025 -0.0415 0.7105
vn 0.7097 -0.0600 0.7020
vn -0.7113 0.0090 -0.7028
vn 0.8424 0.2056 0.4981
vn -0.7540 0.0175 -0.6566
vn 0.3994 -0.8211 0.4078
vn -0.5454 -0.4995 0.6732
vn 0.6146 -0.7654 -0.1908
vn 0.3412 0.5848 -0.7359
vn -0.1866 0.4968 0.8475
vn -0.4605 0.5597 -0.6889
vn 0.4776 -0.8143 -0.3298
vn 0.6770 0.3247 0.6605
vn -0.1905 0.2792 0.9412
vn 0.4416 -0.7721 -0.4569
vn -0.2080 0.6700 -0.7127
vn 0.3951 -0.5779 -0.7141
vn -0.9784 0.1842 -0.0936
vn -0.7089 0.0047 -0.7053
s off
f 1/1/1 2/2/1 3/3/1
f 3/3/2 4/4/2 5/5/2
f 5/5/3 4/4/3 6/6/3
f 7/7/4 8/8/4 9/9/4
f 5/5/5 10/10/5 7/7/5
f 7/7/6 10/10/6 8/8/6
f 1/1/7 11/11/7 2/2/7
f 2/2/8 11/11/8 12/12/8
f 7/7/9 9/9/9 11/11/9
f 13/13/10 14/14/10 15/15/10
f 16/16/11 4/4/11 14/14/11
f 13/17/12 15/18/12 17/19/12
f 17/19/13 18/20/13 19/21/13
f 20/22/14 21/23/14 22/24/14
f 17/19/15 23/25/15 20/22/15
f 20/22/16 23/25/16 21/23/16
f 13/13/17 24/26/17 16/16/17
f 16/16/18 10/10/18 6/6/18
f 20/27/19 22/28/19 24/26/19
f 25/29/20 18/20/20 26/30/20
f 25/29/21 26/30/21 27/31/21
f 27/31/22 28/32/22 29/33/22
f 30/34/23 31/35/23 32/36/23
f 27/31/24 33/37/24 30/34/24
f 30/34/25 33/37/25 31/35/25
f 25/29/26 23/25/26 34/38/26
f 34/38/27 23/25/27 19/21/27
f 30/34/28 32/36/28 23/25/28
f 35/39/29 28/32/29 36/40/29
f 35/39/30 36/40/30 37/41/30
f 37/42/31 38/43/31 12/12/31
f 39/44/32 40/45/32 41/46/32
f 37/42/33 11/11/33 39/47/33
f 39/47/34 11/11/34 40/48/34
f 35/39/35 33/37/35 42/49/35
f 42/49/36 33/37/36 29/33/36
f 39/44/37 41/46/37 33/37/37
f 43/50/38 11/11/38 9/9/38
f 44/51/39 8/8/39 45/52/39
f 45/52/40 10/10/40 22/28/40
f 45/53/41 21/23/41 46/54/41
f 46/54/42 23/25/42 32/36/42
f 44/55/43 31/35/43 43/56/43
f 31/35/44 33/37/44 41/46/44
f 47/57/45 28/32/45 26/30/45
f 48/58/46 18/20/46 49/59/46
f 49/59/47 18/20/47 15/18/47
f 50/60/48 4/4/48 3/3/48
f 49/61/49 14/14/49 50/60/49
f 48/62/50 38/43/50 47/63/50
f 3/3/51 2/2/51 38/43/51
f 2/2/52 12/12/52 38/43/52
f 1/1/53 3/3/53 5/5/53
f 1/1/54 5/5/54 7/7/54
f 5/5/55 6/6/55 10/10/55
f 1/1/56 7/7/56 11/11/56
f 13/13/57 16/16/57 14/14/57
f 16/16/58 6/6/58 4/4/58
f 17/19/59 15/18/59 18/20/59
f 13/17/60 17/19/60 20/22/60
f 17/19/61 19/21/61 23/25/61
f 13/13/62 20/27/62 24/26/62
f 16/16/63 24/26/63 10/10/63
f 24/26/64 22/28/64 10/10/64
f 25/29/65 34/38/65 18/20/65
f 34/38/66 19/21/66 18/20/66
f 27/31/67 26/30/67 28/32/67
f 25/29/68 27/31/68 30/34/68
f 27/31/69 29/33/69 33/37/69
f 25/29/70 30/34/70 23/25/70
f 35/39/71 42/49/71 28/32/71
f 42/49/72 29/33/72 28/32/72
f 37/42/73 36/64/73 38/43/73
f 35/39/74 37/41/74 39/44/74
f 37/42/75 12/12/75 11/11/75
f 35/39/76 39/44/76 33/37/76
f 44/51/77 43/50/77 9/9/77
f 43/56/78 41/46/78 40/45/78
f 43/50/79 40/48/79 11/11/79
f 44/51/80 9/9/80 8/8/80
f 45/52/81 8/8/81 10/10/81
f 44/55/82 45/53/82 46/54/82
f 45/53/83 22/24/83 21/23/83
f 46/54/84 21/23/84 23/25/84
f 44/55/85 46/54/85 31/35/85
f 43/56/86 31/35/86 41/46/86
f 46/54/87 32/36/87 31/35/87
f 48/58/88 47/57/88 26/30/88
f 47/57/89 36/40/89 28/32/89
f 48/58/90 26/30/90 18/20/90
f 48/62/91 49/61/91 50/60/91
f 49/61/92 15/15/92 14/14/92
f 50/60/93 14/14/93 4/4/93
f 48/62/94 50/60/94 38/43/94
f 47/63/95 38/43/95 36/64/95
f 50/60/96 3/3/96 38/43/96
f 51/65/97 55/66/97 58/67/97 54/68/97
f 53/69/98 57/70/98 56/71/98 52/72/98
f 54/68/99 58/67/99 57/70/99 53/69/99
f 52/72/100 56/71/100 55/73/100 51/74/100
f 58/67/101 62/75/101 61/76/101 57/70/101
f 55/66/102 59/77/102 62/75/102 58/67/102
f 57/70/103 61/76/103 60/78/103 56/71/103
f 62/75/104 59/77/104 63/79/104 66/80/104
f 60/78/105 61/76/105 65/81/105 64/82/105
f 61/76/106 62/75/106 66/80/106 65/81/106
f 59/83/107 60/78/107 64/82/107 63/84/107
f 65/85/108 71/86/108 70/87/108 69/88/108
f 63/89/109 64/90/109 68/91/109 67/92/109
f 65/81/110 66/80/110 73/93/110
f 64/94/111 65/85/111 69/88/111 68/95/111
f 73/96/112 72/97/112 75/98/112 76/99/112
f 71/86/113 63/89/113 67/92/113 70/87/113
f 71/100/114 65/81/114 73/93/114 74/101/114
f 72/97/115 74/101/115 77/102/115 75/98/115
f 66/80/116 78/103/116 72/97/116 73/96/116
f 71/104/117 78/105/117 81/106/117 80/107/117
f 74/101/118 73/93/118 76/99/118 77/102/118
f 78/103/119 66/80/119 63/79/119
f 78/103/120 71/100/120 74/101/120 72/97/120
f 78/105/121 63/108/121 79/109/121 81/106/121
f 63/110/122 71/104/122 80/107/122 79/111/122
f 56/71/123 60/78/123 59/83/123 55/73/123
