# Blender v2.78 (sub 0) OBJ File: 'Low_Poly_Trees_Pack.blend'
# www.blender.org
g Apple_Tree_s_02
v 0.463155 2.425399 -0.860583
v 0.270268 2.059592 -0.856721
v -0.228644 2.415880 -0.905835
v -0.353297 2.723925 -0.661357
v 0.238839 2.762079 -0.700530
v 0.223326 3.055232 -0.537186
v 0.872829 2.543246 -0.623956
v 1.040906 2.674015 -0.304493
v 1.086145 2.246706 -0.395254
v 0.713547 2.944883 -0.286756
v 0.859757 1.852358 -0.708477
v 0.247965 1.761618 -0.737359
v -0.133798 3.201689 0.102236
v -0.509867 2.953611 -0.391084
v -0.703187 2.931305 -0.012843
v 0.069290 3.131413 -0.215154
v -0.246828 3.049396 0.421578
v -0.899617 2.585121 0.387380
v -0.397502 2.897552 0.707876
v 0.468951 3.116751 0.402669
v 0.682232 2.869088 0.626523
v 0.898679 2.977597 0.236508
v 0.146978 2.689608 0.982563
v 0.574495 3.088548 -0.034400
v -0.588013 2.138268 0.835219
v -0.967884 2.089547 0.350214
v -0.481457 1.761592 0.760325
v -0.788828 1.623535 0.026200
v -0.339484 1.510153 0.563471
v 0.125170 1.947775 1.099419
v 0.684687 1.813476 0.782542
v 0.593910 2.216954 1.069514
v 0.233451 1.430880 0.599225
v -0.491416 2.540994 0.779901
v -0.174894 1.297083 -0.229516
v -0.715472 1.603754 -0.512157
v 0.075942 1.513509 -0.548230
v -0.566013 2.028979 -0.833453
v 0.554236 1.228530 -0.054240
v 0.906554 1.608998 -0.166149
v 0.742338 1.491024 0.268565
v -0.277305 1.306722 0.233761
v 1.050349 1.856438 0.078417
v 1.173931 2.249530 0.126111
v 1.056335 2.655311 0.210494
v 0.875281 2.303705 0.731718
v -0.924879 1.911361 -0.234277
v -1.056641 2.272495 -0.162066
v -0.896385 2.649768 -0.089693
v -0.702139 2.491832 -0.605409
v 0.000000 0.000000 -0.060000
v -0.060000 0.000000 0.000000
v 0.000000 0.000000 0.060000
v 0.060000 0.000000 -0.000000
v 0.021097 0.380142 -0.040925
v -0.019239 0.380142 -0.000588
v 0.021097 0.380142 0.039749
v 0.061434 0.380142 -0.000588
v -0.007712 0.719282 -0.009897
v -0.037742 0.719772 0.020504
v -0.007343 0.719386 0.050538
v 0.022687 0.718896 0.020137
v -0.004050 0.999484 -0.010006
v -0.044136 1.000138 0.030575
v -0.003558 0.999623 0.070666
v 0.036528 0.998968 0.030085
v -0.078667 1.150270 0.074240
v -0.092838 1.135906 0.098066
v -0.070520 1.146001 0.117425
v -0.056350 1.160365 0.093600
v -0.271880 1.288456 0.196703
v -0.257454 1.272488 0.221347
v -0.239070 1.282636 0.225671
v -0.245109 1.303235 0.202999
v 0.002323 1.051453 0.033261
v 0.189585 1.093551 0.018190
v 0.193598 1.087405 0.054304
v 0.175696 1.113209 0.043551
v 0.437822 1.293397 0.014732
v 0.441765 1.289338 0.045174
v 0.421217 1.305621 0.035659
v -0.298511 1.556369 0.501666
v -0.285755 1.542647 0.512190
v -0.279614 1.558162 0.498650
v -0.274048 1.311276 0.222798
v -0.353680 1.443412 0.074637
v -0.335867 1.453246 0.078827
v -0.355123 1.458596 0.092000
v 0.042722 1.022206 -0.003195
v 0.066278 1.275214 -0.194907
v 0.067060 1.298878 -0.164130
v 0.100903 1.283682 -0.181916
v 0.083734 1.617951 -0.341558
v 0.077710 1.622475 -0.318344
v 0.102697 1.619102 -0.326940
vt 0.5866 0.1872
vt 0.5912 0.1846
vt 0.5920 0.1916
vt 0.5900 0.1964
vt 0.5852 0.1921
vt 0.5827 0.1953
vt 0.5815 0.1859
vt 0.5766 0.1859
vt 0.5797 0.1805
vt 0.5772 0.1916
vt 0.5869 0.1785
vt 0.5940 0.1808
vt 0.5784 0.2072
vt 0.5887 0.2018
vt 0.5903 0.2098
vt 0.5809 0.1997
vt 0.5467 0.1669
vt 0.5580 0.1718
vt 0.5462 0.1748
vt 0.5540 0.1819
vt 0.5464 0.1799
vt 0.5347 0.1732
vt 0.5339 0.1806
vt 0.5258 0.1773
vt 0.5409 0.1831
vt 0.5743 0.1956
vt 0.5667 0.2012
vt 0.5671 0.1920
vt 0.5486 0.1883
vt 0.5555 0.1889
vt 0.5489 0.1928
vt 0.5570 0.1976
vt 0.5489 0.1968
vt 0.5425 0.1911
vt 0.5373 0.1947
vt 0.5381 0.1889
vt 0.5432 0.1992
vt 0.5474 0.1838
vt 0.5517 0.2071
vt 0.5630 0.2055
vt 0.5527 0.2154
vt 0.5991 0.1766
vt 0.5985 0.1902
vt 0.5399 0.2109
vt 0.5310 0.2101
vt 0.5363 0.2029
vt 0.5904 0.1669
vt 0.5836 0.1703
vt 0.5501 0.2008
vt 0.5760 0.1693
vt 0.5700 0.1765
vt 0.5667 0.1851
vt 0.5228 0.1846
vt 0.5335 0.1888
vt 0.5228 0.1943
vt 0.5276 0.2019
vt 0.5649 0.1956
vt 0.5654 0.1862
vt 0.5626 0.1776
vt 0.5954 0.1975
vt 0.5976 0.2084
vt 0.6054 0.2033
vt 0.6091 0.1956
vt 0.6068 0.1870
vt 0.4334 0.7640
vt 0.4273 0.8008
vt 0.4220 0.8002
vt 0.4251 0.7632
vt 0.4168 0.7625
vt 0.4166 0.8002
vt 0.4111 0.8003
vt 0.4085 0.7625
vt 0.4057 0.8006
vt 0.4002 0.7637
vt 0.4193 0.8498
vt 0.4161 0.8499
vt 0.4226 0.8500
vt 0.4128 0.8500
vt 0.4215 0.8655
vt 0.4188 0.8654
vt 0.4170 0.8657
vt 0.4135 0.8659
vt 0.4095 0.8499
vt 0.4099 0.8659
vt 0.4372 0.7625
vt 0.4408 0.7655
vt 0.4403 0.7747
vt 0.4381 0.7749
vt 0.4450 0.7626
vt 0.4483 0.7653
vt 0.4446 0.7758
vt 0.4425 0.7752
vt 0.4195 0.8658
vt 0.4334 0.7644
vt 0.4359 0.7752
vt 0.4437 0.7931
vt 0.4414 0.7927
vt 0.4392 0.7929
vt 0.4368 0.7928
vt 0.4352 0.7924
vt 0.4194 0.8659
vt 0.4194 0.8659
vt 0.4195 0.8660
vt 0.4195 0.8660
vt 0.4180 0.8663
vt 0.4194 0.8658
vt 0.4195 0.8660
vt 0.4190 0.8664
vt 0.4533 0.7635
vt 0.4580 0.7642
vt 0.4568 0.7883
vt 0.4536 0.7881
vt 0.4362 0.8241
vt 0.4347 0.8236
vt 0.4410 0.7950
vt 0.4376 0.8242
vt 0.4391 0.8240
vt 0.4641 0.7627
vt 0.4669 0.7625
vt 0.4650 0.7787
vt 0.4632 0.7790
vt 0.4616 0.7625
vt 0.4616 0.7785
vt 0.4691 0.7631
vt 0.4666 0.7789
vt 0.4615 0.7625
vt 0.4596 0.7879
vt 0.4483 0.7625
vt 0.4507 0.7878
vt 0.4557 0.8168
vt 0.4536 0.8165
vt 0.4575 0.8169
vt 0.4518 0.8168
vn 0.0658 -0.0452 -0.9968
vn -0.0912 0.5962 -0.7977
vn -0.0887 0.4812 -0.8721
vn 0.8317 0.1982 -0.5187
vn 0.3148 0.6804 -0.6618
vn 0.5177 0.6612 -0.5430
vn 0.2032 -0.1174 -0.9721
vn 0.0993 -0.3764 -0.9211
vn 0.7694 0.0632 -0.6357
vn -0.3991 0.9045 -0.1506
vn -0.0313 0.7526 -0.6577
vn -0.4559 0.8552 0.2465
vn -0.5795 0.8057 0.1224
vn 0.4287 0.7805 0.4551
vn -0.0621 0.8198 0.5693
vn 0.1817 0.7409 0.6466
vn 0.1311 0.9823 -0.1336
vn 0.2665 0.9587 -0.0993
vn 0.3130 0.9496 0.0143
vn -0.7888 0.0628 0.6115
vn -0.7281 -0.3259 0.6030
vn -0.6358 -0.6653 0.3913
vn 0.3353 -0.4948 0.8017
vn -0.1699 -0.7034 0.6902
vn 0.2537 -0.6447 0.7211
vn -0.3395 0.2075 0.9174
vn -0.3482 0.2729 0.8968
vn -0.0268 0.1563 0.9873
vn -0.4800 -0.8767 -0.0332
vn -0.1168 -0.7765 -0.6192
vn -0.0885 -0.5643 -0.8208
vn 0.7447 -0.6595 0.1023
vn 0.1978 -0.7539 -0.6265
vn 0.6280 -0.6883 -0.3631
vn 0.1929 -0.9792 0.0630
vn -0.1493 -0.8538 0.4987
vn 0.3815 -0.8134 0.4391
vn 0.9111 -0.3492 -0.2189
vn 0.9593 0.2818 -0.0185
vn 0.8392 0.4367 -0.3242
vn 0.7780 0.3613 0.5140
vn 0.5267 0.6074 0.5947
vn 0.8492 -0.3181 0.4216
vn 0.4228 -0.7455 0.5152
vn -0.9199 -0.3888 0.0508
vn -0.9226 0.3831 0.0457
vn -0.8313 0.5516 0.0691
vn -0.4256 0.4506 -0.7847
vn -0.7412 0.5108 -0.4356
vn -0.8242 -0.1944 -0.5318
vn -0.0214 -0.1658 -0.9859
vn -0.0123 -0.3710 -0.9285
vn 0.0518 0.4567 -0.8881
vn 0.2873 0.5606 -0.7766
vn 0.4848 0.4451 -0.7529
vn 0.4765 0.0979 -0.8737
vn -0.1862 0.9274 -0.3245
vn -0.3956 0.8332 -0.3863
vn -0.5502 0.7460 0.3752
vn -0.0749 0.9101 0.4075
vn 0.0780 0.8632 0.4988
vn 0.1526 0.9879 -0.0269
vn 0.2157 0.8949 -0.3906
vn 0.4765 0.8507 -0.2218
vn -0.6558 0.2549 0.7106
vn -0.6412 0.3106 0.7017
vn -0.7212 -0.5603 0.4073
vn -0.3991 -0.2861 0.8711
vn -0.1372 -0.6575 0.7409
vn -0.3060 0.1569 0.9390
vn -0.4971 -0.8628 -0.0919
vn -0.5910 -0.7316 0.3399
vn -0.1027 -0.5764 -0.8107
vn 0.0491 -0.8438 -0.5344
vn 0.1325 -0.6574 -0.7418
vn -0.1451 -0.9630 0.2270
vn 0.9473 -0.2787 -0.1580
vn 0.7914 -0.5956 0.1373
vn 0.9222 -0.3168 -0.2217
vn 0.9765 0.1385 -0.1652
vn 0.6378 0.7702 0.0089
vn 0.8898 0.1698 0.4236
vn 0.7795 0.3388 0.5269
vn 0.4523 0.3100 0.8362
vn 0.8496 -0.2842 0.4444
vn 0.7947 -0.4700 0.3840
vn 0.7753 -0.2409 0.5839
vn -0.9363 -0.3491 0.0375
vn -0.8620 -0.4972 -0.0992
vn -0.9705 0.1179 0.2103
vn -0.7984 0.4216 -0.4298
vn -0.7303 0.5935 -0.3383
vn -0.4635 0.5245 -0.7142
vn -0.7946 0.0638 -0.6038
vn -0.8448 -0.1002 -0.5256
vn -0.4853 0.2674 -0.8325
vn 0.7071 -0.0038 -0.7071
vn -0.7050 0.0767 0.7050
vn 0.7071 -0.0016 0.7071
vn -0.7051 0.0745 -0.7051
vn 0.7086 0.0375 0.7046
vn 0.7002 0.1235 -0.7032
vn -0.7031 -0.0818 0.7063
vn 0.7027 -0.0095 -0.7114
vn -0.7025 -0.0415 0.7105
vn 0.7097 -0.0600 0.7020
vn -0.7113 0.0090 -0.7028
vn 0.8424 0.2056 0.4981
vn -0.7659 0.0108 -0.6429
vn 0.3994 -0.8211 0.4078
vn -0.5547 -0.4975 0.6670
vn -0.7122 -0.5968 -0.3697
vn 0.0458 0.6720 -0.7391
vn -0.0715 -0.6942 0.7163
vn 0.7014 0.5053 0.5026
vn 0.6146 -0.7654 -0.1908
vn 0.3412 0.5848 -0.7359
vn -0.1866 0.4968 0.8475
vn -0.4605 0.5597 -0.6889
vn 0.4776 -0.8143 -0.3298
vn 0.6770 0.3247 0.6605
vn -0.1905 0.2792 0.9412
vn 0.9946 0.0722 0.0748
vn -0.8827 -0.3876 0.2656
vn -0.2169 0.7252 -0.6534
vn 0.2289 -0.7020 0.6744
vn -0.8529 -0.4241 0.3046
vn 0.5218 0.7087 0.4748
vn -0.9231 -0.3243 0.2069
vn 0.4190 -0.4150 -0.8076
vn 0.4416 -0.7721 -0.4569
vn -0.2080 0.6700 -0.7127
vn 0.3951 -0.5779 -0.7141
vn -0.9784 0.1842 -0.0936
vn 0.4737 0.3567 0.8052
vn 0.4776 -0.3585 -0.8021
vn -0.7089 0.0047 -0.7053
vn -0.9954 -0.0013 -0.0959
s off
f 1/1/1 2/2/1 3/3/1
f 3/3/2 4/4/2 5/5/2
f 5/5/3 4/4/3 6/6/3
f 7/7/4 8/8/4 9/9/4
f 5/5/5 10/10/5 7/7/5
f 7/7/6 10/10/6 8/8/6
f 1/1/7 11/11/7 2/2/7
f 2/2/8 11/11/8 12/12/8
f 7/7/9 9/9/9 11/11/9
f 13/13/10 14/14/10 15/15/10
f 16/16/11 4/4/11 14/14/11
f 13/17/12 15/18/12 17/19/12
f 17/19/13 18/20/13 19/21/13
f 20/22/14 21/23/14 22/24/14
f 17/19/15 23/25/15 20/22/15
f 20/22/16 23/25/16 21/23/16
f 13/13/17 24/26/17 16/16/17
f 16/16/18 10/10/18 6/6/18
f 20/27/19 22/28/19 24/26/19
f 25/29/20 18/20/20 26/30/20
f 25/29/21 26/30/21 27/31/21
f 27/31/22 28/32/22 29/33/22
f 30/34/23 31/35/23 32/36/23
f 27/31/24 33/37/24 30/34/24
f 30/34/25 33/37/25 31/35/25
f 25/29/26 23/25/26 34/38/26
f 34/38/27 23/25/27 19/21/27
f 30/34/28 32/36/28 23/25/28
f 35/39/29 28/32/29 36/40/29
f 35/39/30 36/40/30 37/41/30
f 37/42/31 38/43/31 12/12/31
f 39/44/32 40/45/32 41/46/32
f 37/42/33 11/11/33 39/47/33
f 39/47/34 11/11/34 40/48/34
f 35/39/35 33/37/35 42/49/35
f 42/49/36 33/37/36 29/33/36
f 39/44/37 41/46/37 33/37/37
f 43/50/38 11/11/38 9/9/38
f 44/51/39 8/8/39 45/52/39
f 45/52/40 10/10/40 22/28/40
f 45/53/41 21/23/41 46/54/41
f 46/54/42 23/25/42 32/36/42
f 44/55/43 31/35/43 43/56/43
f 31/35/44 33/37/44 41/46/44
f 47/57/45 28/32/45 26/30/45
f 48/58/46 18/20/46 49/59/46
f 49/59/47 18/20/47 15/18/47
f 50/60/48 4/4/48 3/3/48
f 49/61/49 14/14/49 50/60/49
f 48/62/50 38/43/50 47/63/50
f 3/3/51 2/2/51 38/43/51
f 2/2/52 12/12/52 38/43/52
f 1/1/53 3/3/53 5/5/53
f 1/1/54 5/5/54 7/7/54
f 5/5/55 6/6/55 10/10/55
f 1/1/56 7/7/56 11/11/56
f 13/13/57 16/16/57 14/14/57
f 16/16/58 6/6/58 4/4/58
f 17/19/59 15/18/59 18/20/59
f 13/17/60 17/19/60 20/22/60
f 17/19/61 19/21/61 23/25/61
f 13/13/62 20/27/62 24/26/62
f 16/16/63 24/26/63 10/10/63
f 24/26/64 22/28/64 10/10/64
f 25/29/65 34/38/65 18/20/65
f 34/38/66 19/21/66 18/20/66
f 27/31/67 26/30/67 28/32/67
f 25/29/68 27/31/68 30/34/68
f 27/31/69 29/33/69 33/37/69
f 25/29/70 30/34/70 23/25/70
f 35/39/71 42/49/71 28/32/71
f 42/49/72 29/33/72 28/32/72
f 37/42/73 36/64/73 38/43/73
f 35/39/74 37/41/74 39/44/74
f 37/42/75 12/12/75 11/11/75
f 35/39/76 39/44/76 33/37/76
f 44/51/77 43/50/77 9/9/77
f 43/56/78 41/46/78 40/45/78
f 43/50/79 40/48/79 11/11/79
f 44/51/80 9/9/80 8/8/80
f 45/52/81 8/8/81 10/10/81
f 44/55/82 45/53/82 46/54/82
f 45/53/83 22/24/83 21/23/83
f 46/54/84 21/23/84 23/25/84
f 44/55/85 46/54/85 31/35/85
f 43/56/86 31/35/86 41/46/86
f 46/54/87 32/36/87 31/35/87
f 48/58/88 47/57/88 26/30/88
f 47/57/89 36/40/89 28/32/89
f 48/58/90 26/30/90 18/20/90
f 48/62/91 49/61/91 50/60/91
f 49/61/92 15/15/92 14/14/92
f 50/60/93 14/14/93 4/4/93
f 48/62/94 50/60/94 38/43/94
f 47/63/95 38/43/95 36/64/95
f 50/60/96 3/3/96 38/43/96
f 51/65/97 55/66/97 58/67/97 54/68/97
f 53/69/98 57/70/98 56/71/98 52/72/98
f 54/68/99 58/67/99 57/70/99 53/69/99
f 52/72/100 56/71/100 55/73/100 51/74/100
f 58/67/101 62/75/101 61/76/101 57/70/101
f 55/66/102 59/77/102 62/75/102 58/67/102
f 57/70/103 61/76/103 60/78/103 56/71/103
f 62/75/104 59/77/104 63/79/104 66/80/104
f 60/78/105 61/76/105 65/81/105 64/82/105
f 61/76/106 62/75/106 66/80/106 65/81/106
f 59/83/107 60/78/107 64/82/107 63/84/107
f 65/85/108 75/86/108 70/87/108 69/88/108
f 63/89/109 64/90/109 68/91/109 67/92/109
f 65/81/110 66/80/110 77/93/110
f 64/94/111 65/85/111 69/88/111 68/95/111
f 67/92/112 68/91/112 72/96/112 71/97/112
f 70/87/113 67/92/113 71/97/113 74/98/113
f 68/95/114 69/88/114 73/99/114 72/100/114
f 69/88/115 70/87/115 74/98/115 73/99/115
f 77/101/116 76/102/116 79/103/116 80/104/116
f 75/86/117 63/89/117 67/92/117 70/87/117
f 75/105/118 65/81/118 77/93/118 78/106/118
f 76/102/119 78/106/119 81/107/119 79/103/119
f 66/80/120 89/108/120 76/102/120 77/101/120
f 75/109/121 89/110/121 92/111/121 91/112/121
f 78/106/122 77/93/122 80/104/122 81/107/122
f 73/99/123 74/98/123 84/113/123 83/114/123
f 71/97/124 72/96/124 85/115/124
f 74/98/125 85/115/125 82/116/125 84/113/125
f 72/100/126 73/99/126 83/114/126
f 85/115/127 72/96/127 83/117/127 82/116/127
f 85/118/128 74/119/128 87/120/128 88/121/128
f 71/122/129 85/118/129 88/121/129 86/123/129
f 74/119/130 71/124/130 86/125/130 87/120/130
f 89/108/131 66/80/131 63/79/131
f 89/108/132 75/105/132 78/106/132 76/102/132
f 89/110/133 63/126/133 90/127/133 92/111/133
f 63/128/134 75/109/134 91/112/134 90/129/134
f 92/111/135 95/130/135 94/131/135 91/112/135
f 90/127/136 93/132/136 95/130/136 92/111/136
f 56/71/137 60/78/137 59/83/137 55/73/137
f 91/112/138 94/131/138 93/133/138 90/129/138
