# Blender v2.78 (sub 0) OBJ File: 'Low_Poly_Trees_Pack.blend'
# www.blender.org
g Apple_Tree_NoLeaves_crk_m_02
v 0.751019 0.014686 0.954624
v 0.842348 -0.029396 0.863570
v 0.826211 0.106746 0.942975
v 1.256238 0.015759 1.369374
v 1.327214 0.012822 1.342732
v 1.315648 0.077254 1.325933
v 1.278426 0.078013 1.376614
v 1.637040 0.009787 2.267756
v 1.649547 0.011793 2.267015
v 1.646438 0.021631 2.262400
v 1.638002 0.020830 2.268629
v 0.849795 0.088138 0.834076
v -0.008151 0.000000 -0.271137
v -0.271686 0.000000 -0.060448
v -0.152908 0.000000 0.255037
v 0.183422 0.000000 0.239494
v 0.273044 0.000000 -0.085337
v 0.002379 0.497126 -0.179745
v -0.181688 0.491246 -0.018141
v -0.085901 0.494001 0.207027
v 0.157065 0.501524 0.184550
v 0.211657 0.503289 -0.054222
v 0.072519 2.045961 -0.020347
v -0.029183 1.989376 0.084192
v 0.050369 2.071924 0.198569
v 0.185631 1.963031 0.176131
v 0.196857 2.033111 0.037245
v 0.206331 1.096098 0.029896
v 0.181756 1.109160 0.214341
v 0.002003 1.124865 0.247014
v -0.085560 1.121361 0.082770
v 0.040739 1.103954 -0.051809
v 0.237471 2.442773 -0.405075
v 0.187799 2.477222 -0.349010
v 0.235101 2.512297 -0.291225
v 0.314010 2.499530 -0.311571
v 0.315473 2.456557 -0.381940
v 0.204612 3.063327 -0.815763
v 0.176413 3.068859 -0.785089
v 0.197394 3.074961 -0.749067
v 0.239248 3.071516 -0.763736
v 0.037671 2.190074 0.068197
v -0.369123 2.081332 0.074343
v -0.447861 2.050790 0.149044
v -0.393972 2.118048 0.227749
v -0.395203 2.192218 0.124497
v -1.137379 2.425901 -0.063871
v -1.190453 2.438906 -0.020578
v -1.142072 2.459412 0.028884
v -1.115529 2.494361 -0.036335
v -1.399673 3.214398 -0.252726
v -1.408691 3.222215 -0.245030
v -1.398188 3.223429 -0.234817
v -1.390123 3.226052 -0.248399
v 0.095619 4.094923 -0.952204
v 0.089214 4.095098 -0.945053
v 0.094026 4.095849 -0.936778
v 0.103405 4.096138 -0.938815
v 0.193037 2.158067 0.148249
v 0.474192 2.115219 0.248134
v 0.474286 2.068073 0.360012
v 0.361214 2.142614 0.375292
v 0.426002 2.205074 0.296769
vt 0.5918 0.8025
vt 0.5943 0.8033
vt 0.5939 0.8185
vt 0.5927 0.8180
vt 0.5891 0.8034
vt 0.5913 0.8186
vt 0.5953 0.8182
vt 0.5969 0.8189
vt 0.5944 0.8399
vt 0.5941 0.8397
vt 0.5937 0.8397
vt 0.5934 0.8397
vt 0.5971 0.8027
vt 0.5997 0.8039
vt 0.5639 0.8284
vt 0.5639 0.8287
vt 0.5637 0.8287
vt 0.5636 0.8284
vt 0.5930 0.8399
vt 0.6855 0.8080
vt 0.6857 0.8126
vt 0.6817 0.8118
vt 0.6814 0.8080
vt 0.5443 0.7586
vt 0.5449 0.7703
vt 0.5391 0.7704
vt 0.5371 0.7590
vt 0.5657 0.7609
vt 0.5621 0.7713
vt 0.5566 0.7704
vt 0.5585 0.7591
vt 0.5513 0.7586
vt 0.5509 0.7702
vt 0.5335 0.7711
vt 0.5298 0.7606
vt 0.5501 0.7950
vt 0.5458 0.7953
vt 0.5416 0.7957
vt 0.5372 0.7959
vt 0.5545 0.7953
vt 0.5498 0.8148
vt 0.5461 0.8129
vt 0.5425 0.8159
vt 0.5387 0.8140
vt 0.5534 0.8154
vt 0.5588 0.7961
vt 0.5573 0.8142
vt 0.5523 0.8272
vt 0.5506 0.8273
vt 0.5421 0.8135
vt 0.5457 0.8154
vt 0.5489 0.8273
vt 0.5471 0.8275
vt 0.5383 0.8190
vt 0.5421 0.8177
vt 0.5455 0.8283
vt 0.5441 0.8294
vt 0.5981 0.7953
vt 0.6011 0.7975
vt 0.5997 0.8039
vt 0.5971 0.8027
vt 0.5692 0.7965
vt 0.5736 0.7957
vt 0.5750 0.8057
vt 0.5722 0.8056
vt 0.5518 0.8434
vt 0.5510 0.8439
vt 0.5540 0.8432
vt 0.5526 0.8431
vt 0.5502 0.8443
vt 0.5589 0.8635
vt 0.5586 0.8636
vt 0.5778 0.8043
vt 0.5800 0.8060
vt 0.5793 0.8252
vt 0.5780 0.8244
vt 0.5772 0.7938
vt 0.5797 0.7964
vt 0.5766 0.8251
vt 0.5661 0.7993
vt 0.5700 0.8070
vt 0.5737 0.8255
vt 0.5750 0.8247
vt 0.5769 0.8425
vt 0.5766 0.8426
vt 0.5772 0.8425
vt 0.5646 0.8231
vt 0.5649 0.8231
vt 0.5649 0.8234
vt 0.5646 0.8235
vt 0.5775 0.8424
vt 0.5777 0.8426
vt 0.5642 0.8324
vt 0.5640 0.8324
vt 0.5639 0.8322
vt 0.5643 0.8322
vt 0.5583 0.8638
vt 0.5579 0.8639
vt 0.5593 0.8634
vt 0.5918 0.7950
vt 0.5950 0.7975
vt 0.5943 0.8033
vt 0.5918 0.8025
vt 0.5882 0.7963
vt 0.5891 0.8034
vt 0.6568 0.7681
vt 0.6734 0.7675
vt 0.6727 0.7829
vt 0.6568 0.7867
vn 0.1184 0.9901 -0.0751
vn 0.7080 -0.1590 -0.6881
vn -0.0110 -0.9999 0.0004
vn 0.0515 0.9978 0.0421
vn -0.1370 -0.9704 0.1987
vn -0.6015 0.3994 0.6919
vn 0.4863 0.4924 0.7219
vn 0.0724 -0.0849 0.9938
vn -0.8940 0.2405 0.3782
vn 0.9405 0.0915 -0.3273
vn -0.5626 0.3657 -0.7414
vn -0.9770 0.0084 -0.2130
vn 0.0639 0.1001 0.9929
vn -0.6318 0.1667 -0.7570
vn 0.9648 0.0901 0.2471
vn -0.9194 0.1486 0.3641
vn 0.5302 0.1296 -0.8379
vn 0.9822 -0.0334 0.1846
vn -0.9020 0.0843 0.4234
vn 0.4795 0.1399 -0.8663
vn 0.1278 -0.0674 0.9895
vn 0.9938 0.0050 0.1109
vn -0.8643 0.0628 0.4990
vn 0.4338 0.0135 -0.9009
vn 0.1882 0.0418 0.9812
vn -0.7268 0.0478 -0.6852
vn 0.2599 -0.7202 -0.6432
vn -0.0596 0.7800 0.6230
vn -0.9015 -0.0827 -0.4248
vn -0.2986 -0.5628 0.7708
vn 0.1037 0.7709 0.6284
vn -0.8271 0.3217 0.4609
vn 0.5600 -0.4117 -0.7189
vn 0.2946 0.6155 0.7310
vn -0.7679 -0.3855 -0.5117
vn 0.9943 0.0987 -0.0396
vn 0.3149 0.2013 0.9275
vn -0.6718 0.2047 -0.7119
vn -0.3072 -0.8295 -0.4665
vn -0.4086 0.7797 0.4745
vn -0.1967 -0.7893 -0.5817
vn 0.3383 0.3808 -0.8606
vn -0.0291 -0.7799 0.6252
vn -0.1333 0.4488 -0.8836
vn -0.7124 0.0030 0.7018
vn 0.7344 0.4281 0.5267
vn 0.2168 0.8042 0.5534
vn -0.4406 -0.5370 0.7193
vn -0.1883 0.9791 0.0773
vn -0.2548 0.5131 -0.8197
vn 0.6634 0.0372 -0.7473
vn -0.6603 -0.3732 -0.6517
vn -0.0447 0.9969 -0.0644
vn -0.7400 -0.1645 -0.6522
vn 0.8378 0.0171 -0.5458
vn -0.8645 0.0049 0.5026
vn 0.3459 0.6122 -0.7110
vn 0.9795 -0.1328 0.1515
vn -0.3928 0.8509 0.3489
vn 0.5038 -0.7909 -0.3474
vn 0.9036 0.3950 0.1657
vn 0.4306 0.4989 0.7521
s off
f 12/1/1 3/2/1 7/3/1 6/4/1
f 2/5/2 12/1/2 6/4/2 5/6/2
f 4/7/3 5/8/3 9/9/3 8/10/3
f 6/4/4 7/3/4 11/11/4 10/12/4
f 1/13/5 2/14/5 5/8/5 4/7/5
f 3/2/6 1/13/6 4/7/6 7/3/6
f 9/15/7 10/16/7 11/17/7
f 11/17/8 8/18/8 9/15/8
f 7/3/9 4/7/9 8/10/9 11/11/9
f 5/6/10 6/4/10 10/12/10 9/19/10
f 2/20/11 1/21/11 3/22/11
f 12/23/12 2/20/12 3/22/12
f 16/24/13 21/25/13 20/26/13 15/27/13
f 14/28/14 19/29/14 18/30/14 13/31/14
f 17/32/15 22/33/15 21/25/15 16/24/15
f 15/27/16 20/26/16 19/34/16 14/35/16
f 13/31/17 18/30/17 22/33/17 17/32/17
f 28/36/18 29/37/18 21/25/18 22/33/18
f 30/38/19 31/39/19 19/34/19 20/26/19
f 32/40/20 28/36/20 22/33/20 18/30/20
f 21/25/21 29/37/21 30/38/21 20/26/21
f 29/37/22 28/36/22 27/41/22 26/42/22
f 31/39/23 30/38/23 25/43/23 24/44/23
f 28/36/24 32/40/24 23/45/24 27/41/24
f 30/38/25 29/37/25 26/42/25 25/43/25
f 32/40/26 31/46/26 24/47/26 23/45/26
f 27/41/27 23/45/27 33/48/27 37/49/27
f 25/50/28 59/51/28 36/52/28 35/53/28
f 23/54/29 42/55/29 34/56/29 33/57/29
f 25/58/30 26/59/30 61/60/30 62/61/30
f 25/62/31 42/63/31 46/64/31 45/65/31
f 34/56/32 35/53/32 40/66/32 39/67/32
f 37/49/33 33/48/33 38/68/33 41/69/33
f 35/53/34 36/52/34 41/69/34 40/66/34
f 33/57/35 34/56/35 39/67/35 38/70/35
f 36/52/36 37/49/36 41/69/36
f 40/66/37 41/69/37 58/71/37 57/72/37
f 19/29/38 31/46/38 32/40/38 18/30/38
f 43/73/39 44/74/39 48/75/39 47/76/39
f 42/55/40 25/50/40 35/53/40 34/56/40
f 23/77/41 24/78/41 44/74/41 43/73/41
f 46/64/42 43/73/42 47/76/42 50/79/42
f 24/80/43 25/62/43 45/65/43 44/81/43
f 42/63/44 23/77/44 43/73/44 46/64/44
f 48/82/45 49/83/45 53/84/45 52/85/45
f 49/83/46 50/79/46 54/86/46 53/84/46
f 45/65/47 46/64/47 50/79/47 49/83/47
f 44/81/48 45/65/48 49/83/48 48/82/48
f 52/87/49 53/88/49 54/89/49
f 54/89/50 51/90/50 52/87/50
f 50/79/51 47/76/51 51/91/51 54/86/51
f 47/76/52 48/75/52 52/92/52 51/91/52
f 56/93/53 57/94/53 58/95/53 55/96/53
f 38/70/54 39/67/54 56/97/54 55/98/54
f 41/69/55 38/68/55 55/99/55 58/71/55
f 39/67/56 40/66/56 57/72/56 56/97/56
f 27/100/57 59/101/57 63/102/57 60/103/57
f 59/51/58 27/41/58 37/49/58 36/52/58
f 59/101/59 25/58/59 62/61/59 63/102/59
f 26/104/60 27/100/60 60/103/60 61/105/60
f 61/106/61 60/107/61 63/108/61
f 62/109/62 61/106/62 63/108/62
