# Blender v2.78 (sub 0) OBJ File: 'Low_Poly_Trees_Pack.blend'
# www.blender.org
g Palm_Tree_Coconut_OneSided_m_02
v 1.985829 4.640579 1.312353
v 2.046215 5.096205 0.847107
v 0.755782 5.621542 0.016701
v 1.723897 5.210103 1.299016
v 1.039597 5.759346 0.627094
v 1.410781 5.638574 0.180422
v 1.227234 5.756293 0.386008
v 1.904976 5.201453 1.072185
v 1.858337 5.483680 0.535612
v 1.433599 5.621875 1.046729
v 1.658252 5.615999 0.780431
v 1.945614 4.660061 -1.200729
v 1.563296 5.197920 -1.220009
v 0.769291 5.598366 -0.036521
v 1.975578 5.199486 -0.821317
v 1.424850 5.683973 -0.285907
v 0.989487 5.710447 -0.698511
v 1.200990 5.758138 -0.481780
v 1.779316 5.250874 -1.031084
v 1.245424 5.552155 -0.974329
v 1.739295 5.554031 -0.496738
v 1.504704 5.618283 -0.748555
v -0.736944 5.307784 -1.119477
v -0.567342 5.768450 -0.731135
v 0.716569 5.603973 -0.028039
v -0.234967 5.681005 -1.142132
v 0.502913 5.800651 -0.608230
v 0.154964 5.892195 -0.177974
v 0.354257 5.896645 -0.383312
v -0.386066 5.772049 -0.934501
v -0.255870 5.988563 -0.456975
v 0.142279 5.883811 -0.949307
v -0.037942 5.995319 -0.700476
v -0.525315 5.192093 1.267097
v -0.110308 5.657510 1.212826
v 0.789172 5.595835 0.004653
v -0.475064 5.628756 0.821464
v 0.187670 5.857304 0.162608
v 0.569518 5.887405 0.572308
v 0.392486 5.925109 0.350634
v -0.287785 5.691930 1.008991
v 0.206318 5.907219 0.971950
v -0.230622 5.872774 0.503139
v -0.006028 5.950970 0.727357
v 0.381150 3.929699 1.433947
v 0.931815 4.455325 1.282865
v 0.675388 5.547799 -0.009395
v 0.127976 4.625623 1.317253
v 0.235798 5.389800 0.647319
v 1.077304 5.211522 0.611320
v 0.673768 5.362884 0.648401
v 0.544416 4.590137 1.327645
v 1.108537 4.897114 0.948793
v 0.145621 5.101113 0.989987
v 0.645223 5.061169 1.003859
v 1.936698 3.782460 -0.185487
v 1.976828 4.501353 -0.438837
v 0.703957 5.599391 -0.043499
v 1.867907 4.398413 0.283875
v 1.226706 5.324160 0.374261
v 1.336351 5.414632 -0.385223
v 1.306409 5.434223 0.007750
v 1.960740 4.495946 -0.063455
v 1.740342 5.061802 -0.460609
v 1.609866 4.938490 0.405125
v 1.723052 5.057705 -0.010217
v 0.230771 3.986088 -1.523936
v 0.055045 4.743821 -1.425935
v 0.685945 5.573213 -0.023568
v 0.817636 4.557416 -1.401223
v 1.089709 5.373213 -0.717869
v 0.288146 5.555819 -0.732766
v 0.709464 5.532570 -0.721955
v 0.455185 4.706770 -1.431874
v 0.117773 5.244986 -1.139410
v 1.031277 5.021693 -1.109807
v 0.598072 5.203503 -1.147469
v -1.289926 4.372869 -0.080415
v -1.026460 4.995532 0.264632
v 0.715518 5.555450 -0.021686
v -0.942389 4.936325 -0.453763
v 0.052388 5.567468 -0.465153
v -0.039834 5.593746 0.288493
v 0.014876 5.649881 -0.088811
v -0.998013 5.024955 -0.099942
v -0.575500 5.382098 0.350366
v -0.474791 5.311176 -0.510197
v -0.542124 5.420393 -0.086633
v 0.606295 5.352525 -0.321166
v 0.605602 5.219274 -0.194662
v 0.520780 5.385867 -0.203402
v 0.599364 5.513993 -0.263928
v 0.732755 5.426583 -0.292595
v 0.736609 5.244438 -0.249786
v 0.598243 5.298387 -0.059239
v 0.594389 5.480532 -0.102048
v 0.725395 5.505696 -0.157172
v 0.810218 5.339103 -0.148432
v 0.731634 5.210977 -0.087905
v 0.724703 5.372445 -0.030667
v 0.000000 0.000000 -0.232320
v -0.220949 0.000000 -0.071791
v -0.136554 0.000000 0.187951
v 0.136554 0.000000 0.187951
v 0.220949 0.000000 -0.071791
v 0.675191 5.275722 -0.079116
v 0.617066 5.290035 -0.035624
v 0.639268 5.284568 0.034747
v 0.711114 5.266875 0.034747
v 0.733315 5.261408 -0.035624
v 0.234787 1.898058 0.128214
v 0.428464 3.676344 0.073592
v 0.466324 3.671346 -0.044794
v 0.294789 1.894747 -0.057689
v -0.019384 1.912085 -0.057689
v 0.268088 3.697513 -0.044794
v 0.305948 3.692516 0.073592
v 0.040617 1.908774 0.128214
v 0.367206 3.684430 -0.117961
v 0.137702 1.903416 -0.172583
v 0.710608 5.399683 -0.136427
v 0.593971 5.428405 -0.049153
v 0.638522 5.417434 0.092058
v 0.782694 5.381930 0.092058
v 0.827245 5.370959 -0.049153
v 0.785842 5.693096 -0.059383
v 0.747864 5.702447 -0.030966
v 0.762370 5.698876 0.015014
v 0.809314 5.687315 0.015014
v 0.823820 5.683743 -0.030966
v 0.899655 5.194740 0.007670
v 0.995504 5.284616 0.136103
v 0.812855 5.248902 0.116413
v 0.744011 5.255929 -0.030102
v 0.884118 5.295987 -0.100960
v 1.039547 5.313715 0.001760
v 0.899099 5.401352 0.177708
v 0.743669 5.383624 0.074988
v 0.787712 5.412723 -0.059355
v 0.970362 5.448437 -0.039665
v 1.039205 5.441410 0.106849
v 0.883561 5.502599 0.069077
v 0.367089 5.243016 0.030316
v 0.551126 5.292560 0.125761
v 0.345321 5.338167 0.151807
v 0.233647 5.368619 0.018367
v 0.370438 5.341833 -0.090148
v 0.566649 5.294826 -0.023774
v 0.531426 5.448783 0.172802
v 0.335214 5.495790 0.106427
v 0.350737 5.498056 -0.043108
v 0.556542 5.452449 -0.069154
v 0.668217 5.421997 0.064287
v 0.534774 5.547599 0.052338
vt 0.6889 0.1381
vt 0.7008 0.1656
vt 0.6889 0.1646
vt 0.6889 0.2373
vt 0.6776 0.2105
vt 0.6889 0.2097
vt 0.6889 0.1884
vt 0.7029 0.1895
vt 0.6750 0.1895
vt 0.6771 0.1656
vt 0.7003 0.2105
vt 0.8193 0.1381
vt 0.8311 0.1656
vt 0.8193 0.1646
vt 0.8193 0.2373
vt 0.8080 0.2105
vt 0.8193 0.2097
vt 0.8193 0.1884
vt 0.8333 0.1895
vt 0.8053 0.1895
vt 0.8075 0.1656
vt 0.8306 0.2105
vt 0.8193 0.1381
vt 0.8311 0.1656
vt 0.8193 0.1646
vt 0.8193 0.2373
vt 0.8080 0.2105
vt 0.8193 0.2097
vt 0.8193 0.1884
vt 0.8333 0.1895
vt 0.8053 0.1895
vt 0.8075 0.1656
vt 0.8306 0.2105
vt 0.6889 0.1381
vt 0.7008 0.1656
vt 0.6889 0.1646
vt 0.6889 0.2373
vt 0.6776 0.2105
vt 0.6889 0.2097
vt 0.6889 0.1884
vt 0.7029 0.1895
vt 0.6750 0.1895
vt 0.6771 0.1656
vt 0.7003 0.2105
vt 0.8193 0.1381
vt 0.8311 0.1656
vt 0.8193 0.1646
vt 0.8193 0.2373
vt 0.8080 0.2105
vt 0.8193 0.2097
vt 0.8193 0.1884
vt 0.8333 0.1895
vt 0.8053 0.1895
vt 0.8075 0.1656
vt 0.8306 0.2105
vt 0.9509 0.1381
vt 0.9628 0.1656
vt 0.9509 0.1646
vt 0.9509 0.2373
vt 0.9396 0.2105
vt 0.9509 0.2097
vt 0.9509 0.1884
vt 0.9649 0.1895
vt 0.9369 0.1895
vt 0.9391 0.1656
vt 0.9622 0.2105
vt 0.9509 0.1381
vt 0.9628 0.1656
vt 0.9509 0.1646
vt 0.9509 0.2373
vt 0.9396 0.2105
vt 0.9509 0.2097
vt 0.9509 0.1884
vt 0.9649 0.1895
vt 0.9369 0.1895
vt 0.9391 0.1656
vt 0.9622 0.2105
vt 0.9509 0.1381
vt 0.9628 0.1656
vt 0.9509 0.1646
vt 0.9509 0.2373
vt 0.9396 0.2105
vt 0.9509 0.2097
vt 0.9509 0.1884
vt 0.9649 0.1895
vt 0.9369 0.1895
vt 0.9391 0.1656
vt 0.9622 0.2105
vt 0.9078 0.0834
vt 0.8997 0.0940
vt 0.8956 0.0784
vt 0.9159 0.0940
vt 0.9078 0.0733
vt 0.9201 0.0784
vt 0.8985 0.0329
vt 0.9181 0.0329
vt 0.9083 0.0434
vt 0.8857 0.0476
vt 0.9005 0.0476
vt 0.8997 0.0628
vt 0.9159 0.0628
vt 0.9310 0.0476
vt 0.9162 0.0476
vt 0.8985 0.0622
vt 0.9181 0.0622
vt 0.9083 0.0518
vt 0.4344 0.9515
vt 0.4351 0.9829
vt 0.4338 0.9827
vt 0.4322 0.9516
vt 0.4406 0.9515
vt 0.4392 0.9830
vt 0.4379 0.9832
vt 0.4385 0.9514
vt 0.4364 0.9515
vt 0.4365 0.9831
vt 0.4427 0.9517
vt 0.4406 0.9828
vt 0.4406 0.8881
vt 0.4395 0.9208
vt 0.4362 0.9209
vt 0.4359 0.8883
vt 0.4499 0.8892
vt 0.4461 0.9215
vt 0.4428 0.9210
vt 0.4453 0.8884
vt 0.4329 0.9211
vt 0.4313 0.8887
vt 0.4295 0.9213
vt 0.4266 0.8889
vt 0.4348 0.9852
vt 0.4327 0.9851
vt 0.4395 0.9852
vt 0.4380 0.9852
vt 0.4365 0.9852
vt 0.4417 0.9852
vt 0.4390 0.9892
vt 0.4378 0.9891
vt 0.4366 0.9890
vt 0.4354 0.9892
vt 0.4401 0.9895
vt 0.4342 0.9895
vt 0.4099 0.9626
vt 0.4147 0.9591
vt 0.4194 0.9626
vt 0.4176 0.9682
vt 0.4117 0.9682
vt 0.9078 0.0834
vt 0.8997 0.0940
vt 0.8956 0.0784
vt 0.9159 0.0940
vt 0.9078 0.0733
vt 0.9201 0.0784
vt 0.8985 0.0329
vt 0.9181 0.0329
vt 0.9083 0.0434
vt 0.8857 0.0476
vt 0.9005 0.0476
vt 0.8997 0.0628
vt 0.9159 0.0628
vt 0.9310 0.0476
vt 0.9162 0.0476
vt 0.8985 0.0622
vt 0.9181 0.0622
vt 0.9083 0.0518
vt 0.9698 0.0834
vt 0.9617 0.0940
vt 0.9576 0.0784
vt 0.9779 0.0940
vt 0.9698 0.0733
vt 0.9821 0.0784
vt 0.9605 0.0329
vt 0.9801 0.0329
vt 0.9703 0.0434
vt 0.9477 0.0476
vt 0.9625 0.0476
vt 0.9617 0.0628
vt 0.9779 0.0628
vt 0.9930 0.0476
vt 0.9782 0.0476
vt 0.9605 0.0622
vt 0.9801 0.0622
vt 0.9703 0.0518
vn -0.1672 0.9756 -0.1425
vn 0.8651 0.2976 0.4037
vn 0.1910 0.9718 0.1381
vn 0.4204 0.8965 -0.1396
vn 0.0858 0.8957 -0.4363
vn 0.7378 0.3528 0.5755
vn 0.7605 0.5996 0.2493
vn 0.5785 0.6763 0.4561
vn 0.0088 0.9385 0.3453
vn 0.5584 0.3703 -0.7423
vn 0.3519 0.9333 -0.0718
vn 0.1282 0.9190 -0.3728
vn -0.2846 0.9563 0.0673
vn 0.7217 0.3709 -0.5844
vn 0.3434 0.7218 -0.6009
vn 0.5862 0.7227 -0.3661
vn 0.5961 0.8012 0.0521
vn -0.5796 0.6393 -0.5053
vn 0.3579 0.9208 -0.1549
vn 0.1302 0.9808 0.1455
vn 0.3491 0.8662 0.3576
vn -0.4849 0.6145 -0.6223
vn -0.3607 0.8825 -0.3018
vn -0.1916 0.8380 -0.5109
vn 0.2165 0.8191 -0.5312
vn -0.5669 0.5743 0.5906
vn -0.1319 0.9696 -0.2060
vn 0.1272 0.9896 0.0666
vn 0.4845 0.8401 -0.2440
vn -0.6707 0.5662 0.4791
vn -0.3322 0.8371 0.4347
vn -0.5178 0.8225 0.2355
vn 0.0584 0.9610 0.2703
vn 0.1550 0.1195 0.9807
vn 0.0438 0.7591 0.6494
vn 0.3242 0.7076 0.6279
vn 0.3601 0.8979 0.2533
vn -0.0109 0.1615 0.9868
vn 0.2738 0.5062 0.8178
vn 0.0246 0.5645 0.8251
vn 0.2243 0.9188 0.3247
vn 0.9983 -0.0409 0.0422
vn 0.6413 0.6790 0.3573
vn 0.6656 0.7459 0.0236
vn 0.2665 0.9634 -0.0277
vn 0.9684 -0.0734 0.2382
vn 0.9208 0.3879 0.0417
vn 0.8781 0.3421 0.3344
vn 0.3866 0.9214 -0.0406
vn -0.0029 0.1276 -0.9918
vn 0.3237 0.6930 -0.6442
vn 0.0580 0.7818 -0.6208
vn 0.0564 0.9968 -0.0561
vn 0.1202 0.0889 -0.9888
vn 0.0300 0.4917 -0.8702
vn 0.2522 0.4268 -0.8685
vn 0.1495 0.9689 -0.1973
vn -0.9125 0.4073 -0.0383
vn -0.3859 0.8844 -0.2625
vn -0.3701 0.9265 0.0674
vn 0.1165 0.9798 0.1627
vn -0.8892 0.3909 -0.2377
vn -0.6538 0.7565 0.0135
vn -0.6219 0.7297 -0.2841
vn -0.7858 -0.4237 -0.4506
vn -0.1706 -0.6779 -0.7150
vn -0.7700 0.1836 -0.6111
vn 0.0169 0.3347 -0.9422
vn 0.3305 -0.2093 -0.9203
vn 0.1038 -0.9746 -0.1983
vn -0.8762 -0.4353 0.2067
vn -0.8300 0.5508 0.0883
vn 0.4244 0.7917 -0.4394
vn 0.8484 -0.1040 -0.5190
vn -0.4244 -0.7917 0.4395
vn -0.8484 0.1040 0.5190
vn -0.1038 0.9746 0.1983
vn 0.8762 0.4353 -0.2067
vn 0.8300 -0.5508 -0.0883
vn -0.0169 -0.3347 0.9422
vn -0.3305 0.2093 0.9203
vn 0.1706 0.6779 0.7150
vn 0.7858 0.4237 0.4506
vn 0.7700 -0.1836 0.6111
vn 0.9382 -0.1593 0.3074
vn -0.9300 0.2021 0.3071
vn 0.5827 -0.0931 -0.8073
vn 0.0041 0.0236 0.9997
vn -0.5759 0.1310 -0.8070
vn -0.5865 0.0678 -0.8071
vn -0.5833 0.0998 -0.8061
vn 0.0007 0.0313 0.9995
vn 0.0026 0.0303 0.9995
vn 0.5885 -0.0171 -0.8083
vn 0.5881 -0.0510 -0.8072
vn -0.9466 0.0975 0.3074
vn -0.9401 0.1492 0.3064
vn 0.9505 -0.0394 0.3083
vn 0.9470 -0.0937 0.3071
vn 0.7453 -0.6042 0.2821
vn -0.9484 -0.1300 0.2891
vn 0.4480 -0.4775 -0.7559
vn -0.0972 -0.3947 0.9137
vn -0.6173 -0.1780 -0.7664
vn -0.8401 0.4518 0.3001
vn 0.6066 0.0528 -0.7933
vn 0.0589 0.2394 0.9691
vn -0.5089 0.3383 -0.7915
vn 0.9535 -0.0071 0.3014
vn 0.2391 0.9710 0.0000
vn 0.1112 -0.8513 0.5128
vn 0.6483 -0.7599 0.0479
vn -0.3916 -0.9094 0.1404
vn -0.1271 -0.7346 -0.6665
vn 0.4864 -0.6034 -0.6319
vn 0.9411 -0.2134 0.2623
vn -0.0306 -0.3579 0.9333
vn -0.8624 -0.3230 0.3897
vn -0.4407 -0.0444 -0.8965
vn 0.5492 0.0252 -0.8353
vn 0.4407 0.0444 0.8965
vn -0.5492 -0.0252 0.8353
vn -0.9411 0.2134 -0.2623
vn 0.0306 0.3579 -0.9333
vn 0.8624 0.3230 -0.3897
vn 0.1271 0.7346 0.6665
vn -0.4864 0.6034 0.6319
vn -0.6483 0.7599 -0.0479
vn -0.1112 0.8513 -0.5128
vn 0.3916 0.9094 -0.1404
vn -0.0993 -0.7920 0.6025
vn 0.2543 -0.9671 0.0117
vn -0.6484 -0.6514 0.3940
vn -0.5517 -0.6373 -0.5381
vn 0.0290 -0.7732 -0.6335
vn 0.7558 -0.6512 0.0686
vn 0.0590 -0.2810 0.9579
vn -0.7432 0.1407 0.6541
vn -0.5935 0.1625 -0.7883
vn 0.2553 -0.2523 -0.9334
vn 0.5935 -0.1625 0.7883
vn -0.2553 0.2523 0.9334
vn -0.7558 0.6512 -0.0686
vn -0.0590 0.2810 -0.9579
vn 0.7432 -0.1407 -0.6541
vn 0.5517 0.6373 0.5381
vn -0.0290 0.7732 0.6335
vn -0.2542 0.9671 -0.0117
vn 0.0993 0.7920 -0.6025
vn 0.6484 0.6514 -0.3940
s off
f 3/1/1 5/2/1 7/3/1
f 1/4/2 2/5/2 8/6/2
f 11/7/3 7/3/3 5/2/3 10/8/3
f 9/9/4 6/10/4 7/3/4 11/7/4
f 6/10/5 3/1/5 7/3/5
f 4/11/6 1/4/6 8/6/6
f 2/5/7 9/9/7 11/7/7 8/6/7
f 8/6/8 11/7/8 10/8/8 4/11/8
f 14/12/9 16/13/9 18/14/9
f 12/15/10 13/16/10 19/17/10
f 22/18/11 18/14/11 16/13/11 21/19/11
f 20/20/12 17/21/12 18/14/12 22/18/12
f 17/21/13 14/12/13 18/14/13
f 15/22/14 12/15/14 19/17/14
f 13/16/15 20/20/15 22/18/15 19/17/15
f 19/17/16 22/18/16 21/19/16 15/22/16
f 25/23/17 27/24/17 29/25/17
f 23/26/18 24/27/18 30/28/18
f 33/29/19 29/25/19 27/24/19 32/30/19
f 31/31/20 28/32/20 29/25/20 33/29/20
f 28/32/21 25/23/21 29/25/21
f 26/33/22 23/26/22 30/28/22
f 24/27/23 31/31/23 33/29/23 30/28/23
f 30/28/24 33/29/24 32/30/24 26/33/24
f 36/34/25 38/35/25 40/36/25
f 34/37/26 35/38/26 41/39/26
f 44/40/27 40/36/27 38/35/27 43/41/27
f 42/42/28 39/43/28 40/36/28 44/40/28
f 39/43/29 36/34/29 40/36/29
f 37/44/30 34/37/30 41/39/30
f 35/38/31 42/42/31 44/40/31 41/39/31
f 41/39/32 44/40/32 43/41/32 37/44/32
f 47/45/33 49/46/33 51/47/33
f 45/48/34 46/49/34 52/50/34
f 55/51/35 51/47/35 49/46/35 54/52/35
f 53/53/36 50/54/36 51/47/36 55/51/36
f 50/54/37 47/45/37 51/47/37
f 48/55/38 45/48/38 52/50/38
f 46/49/39 53/53/39 55/51/39 52/50/39
f 52/50/40 55/51/40 54/52/40 48/55/40
f 58/56/41 60/57/41 62/58/41
f 56/59/42 57/60/42 63/61/42
f 66/62/43 62/58/43 60/57/43 65/63/43
f 64/64/44 61/65/44 62/58/44 66/62/44
f 61/65/45 58/56/45 62/58/45
f 59/66/46 56/59/46 63/61/46
f 57/60/47 64/64/47 66/62/47 63/61/47
f 63/61/48 66/62/48 65/63/48 59/66/48
f 69/67/49 71/68/49 73/69/49
f 67/70/50 68/71/50 74/72/50
f 77/73/51 73/69/51 71/68/51 76/74/51
f 75/75/52 72/76/52 73/69/52 77/73/52
f 72/76/53 69/67/53 73/69/53
f 70/77/54 67/70/54 74/72/54
f 68/71/55 75/75/55 77/73/55 74/72/55
f 74/72/56 77/73/56 76/74/56 70/77/56
f 80/78/57 82/79/57 84/80/57
f 78/81/58 79/82/58 85/83/58
f 88/84/59 84/80/59 82/79/59 87/85/59
f 86/86/60 83/87/60 84/80/60 88/84/60
f 83/87/61 80/78/61 84/80/61
f 81/88/62 78/81/62 85/83/62
f 79/82/63 86/86/63 88/84/63 85/83/63
f 85/83/64 88/84/64 87/85/64 81/88/64
f 89/89/65 90/90/65 91/91/65
f 90/90/66 89/89/66 94/92/66
f 89/89/67 91/91/67 92/93/67
f 89/89/68 92/93/68 93/94/68
f 89/89/69 93/94/69 94/92/69
f 90/95/70 94/96/70 99/97/70
f 91/98/71 90/95/71 95/99/71
f 92/93/72 91/91/72 96/100/72
f 93/94/73 92/93/73 97/101/73
f 94/96/74 93/102/74 98/103/74
f 90/95/75 99/97/75 95/99/75
f 91/98/76 95/99/76 96/104/76
f 92/93/77 96/100/77 97/101/77
f 93/102/78 97/105/78 98/103/78
f 94/96/79 98/103/79 99/97/79
f 95/99/80 99/97/80 100/106/80
f 96/104/81 95/99/81 100/106/81
f 97/105/82 96/104/82 100/106/82
f 98/103/83 97/105/83 100/106/83
f 99/97/84 98/103/84 100/106/84
f 113/107/85 110/108/85 109/109/85 112/110/85
f 117/111/86 108/112/86 107/113/86 116/114/86
f 119/115/87 106/116/87 110/108/87 113/107/87
f 112/117/88 109/118/88 108/112/88 117/111/88
f 116/114/89 107/113/89 106/116/89 119/115/89
f 102/119/90 115/120/90 120/121/90 101/122/90
f 115/120/91 116/114/91 119/115/91 120/121/91
f 104/123/92 111/124/92 118/125/92 103/126/92
f 111/124/93 112/117/93 117/111/93 118/125/93
f 101/122/94 120/121/94 114/127/94 105/128/94
f 120/121/95 119/115/95 113/107/95 114/127/95
f 103/126/96 118/125/96 115/120/96 102/119/96
f 118/125/97 117/111/97 116/114/97 115/120/97
f 105/128/98 114/127/98 111/129/98 104/130/98
f 114/127/99 113/107/99 112/110/99 111/129/99
f 110/108/100 125/131/100 124/132/100 109/109/100
f 108/112/101 123/133/101 122/134/101 107/113/101
f 106/116/102 121/135/102 125/131/102 110/108/102
f 109/118/103 124/136/103 123/133/103 108/112/103
f 107/113/104 122/134/104 121/135/104 106/116/104
f 123/133/105 128/137/105 127/138/105 122/134/105
f 121/135/106 126/139/106 130/140/106 125/131/106
f 124/136/107 129/141/107 128/137/107 123/133/107
f 122/134/108 127/138/108 126/139/108 121/135/108
f 125/131/109 130/140/109 129/142/109 124/132/109
f 128/143/110 129/144/110 130/145/110 126/146/110
f 127/147/110 128/143/110 126/146/110
f 131/148/111 132/149/111 133/150/111
f 132/149/112 131/148/112 136/151/112
f 131/148/113 133/150/113 134/152/113
f 131/148/114 134/152/114 135/153/114
f 131/148/115 135/153/115 136/151/115
f 132/154/116 136/155/116 141/156/116
f 133/157/117 132/154/117 137/158/117
f 134/152/118 133/150/118 138/159/118
f 135/153/119 134/152/119 139/160/119
f 136/155/120 135/161/120 140/162/120
f 132/154/121 141/156/121 137/158/121
f 133/157/122 137/158/122 138/163/122
f 134/152/123 138/159/123 139/160/123
f 135/161/124 139/164/124 140/162/124
f 136/155/125 140/162/125 141/156/125
f 137/158/126 141/156/126 142/165/126
f 138/163/127 137/158/127 142/165/127
f 139/164/128 138/163/128 142/165/128
f 140/162/129 139/164/129 142/165/129
f 141/156/130 140/162/130 142/165/130
f 143/166/131 144/167/131 145/168/131
f 144/167/132 143/166/132 148/169/132
f 143/166/133 145/168/133 146/170/133
f 143/166/134 146/170/134 147/171/134
f 143/166/135 147/171/135 148/169/135
f 144/172/136 148/173/136 153/174/136
f 145/175/137 144/172/137 149/176/137
f 146/170/138 145/168/138 150/177/138
f 147/171/139 146/170/139 151/178/139
f 148/173/140 147/179/140 152/180/140
f 144/172/141 153/174/141 149/176/141
f 145/175/142 149/176/142 150/181/142
f 146/170/143 150/177/143 151/178/143
f 147/179/144 151/182/144 152/180/144
f 148/173/145 152/180/145 153/174/145
f 149/176/146 153/174/146 154/183/146
f 150/181/147 149/176/147 154/183/147
f 151/182/148 150/181/148 154/183/148
f 152/180/149 151/182/149 154/183/149
f 153/174/150 152/180/150 154/183/150
