# Blender v2.78 (sub 0) OBJ File: 'Low_Poly_Trees_Pack.blend'
# www.blender.org
g Palm_Tree_OneSided_l_05
v 3.361345 2.460659 -1.269646
v 3.474139 3.073893 -0.932293
v 5.056771 3.614343 -0.019416
v 3.833457 2.985130 -1.337654
v 4.717725 3.536934 -0.692068
v 4.341569 3.629856 -0.267713
v 4.536546 3.650854 -0.488547
v 3.650659 3.086943 -1.150331
v 3.819212 3.442970 -0.633684
v 4.249639 3.336642 -1.119264
v 4.030504 3.461571 -0.895664
v 3.281132 3.132172 1.878885
v 3.871494 3.630786 1.726138
v 5.063960 3.708684 -0.021328
v 3.422436 3.663423 1.314722
v 4.326277 3.914711 0.326934
v 4.796377 3.880544 0.757628
v 4.578476 3.970484 0.529343
v 3.653055 3.712955 1.519007
v 4.332145 3.870774 1.331843
v 3.794219 3.909870 0.839009
v 4.070792 3.972607 1.083647
v 4.725404 2.090347 2.015327
v 5.218325 2.676049 1.795779
v 5.047233 3.564904 -0.021328
v 4.428361 2.777912 1.744701
v 4.571280 3.498527 0.679284
v 5.398258 3.391891 0.732757
v 4.993278 3.516085 0.715761
v 4.829580 2.785821 1.791119
v 5.380361 3.101706 1.372692
v 4.434066 3.223727 1.311505
v 4.915007 3.236241 1.368188
v 6.414429 2.043985 1.298632
v 6.488662 2.675491 0.920760
v 5.061713 3.689375 -0.021328
v 6.118057 2.719310 1.355184
v 5.396648 3.528262 0.675846
v 5.784619 3.482390 0.221067
v 5.605879 3.574743 0.454461
v 6.325556 2.753881 1.151211
v 6.255131 3.141770 0.599798
v 5.811184 3.194260 1.120192
v 6.060893 3.238590 0.876537
v 7.257123 2.249930 -0.519710
v 6.914667 2.941367 -0.757189
v 5.063432 3.704153 -0.021328
v 7.030206 2.879525 -0.068185
v 5.888994 3.582684 0.203023
v 5.768042 3.647422 -0.518267
v 5.835495 3.690493 -0.152021
v 6.991591 2.973736 -0.410219
v 6.436412 3.386159 -0.707711
v 6.574817 3.312080 0.117645
v 6.529548 3.428202 -0.291948
v 6.286466 1.884620 -1.683437
v 5.965810 2.603957 -1.668895
v 5.047233 3.564904 -0.021328
v 6.418791 2.539168 -1.265666
v 5.775608 3.360470 -0.389550
v 5.301401 3.428295 -0.811674
v 5.553758 3.468610 -0.605822
v 6.213857 2.632410 -1.481720
v 5.675531 3.096350 -1.354968
v 6.218156 3.018740 -0.871942
v 5.973780 3.133576 -1.131498
v 4.913479 2.415144 -2.298581
v 4.638306 3.134223 -1.981107
v 5.060017 3.674784 -0.021328
v 5.346375 3.051851 -1.981107
v 5.443342 3.740865 -0.791983
v 4.702096 3.827096 -0.791983
v 5.081358 3.858237 -0.778534
v 4.999981 3.158720 -1.982807
v 4.618140 3.571280 -1.534843
v 5.466332 3.472608 -1.534843
v 5.051784 3.604017 -1.536966
v 2.675766 2.571416 0.025525
v 3.065943 3.175395 0.368029
v 5.081678 3.658683 -0.015882
v 3.066096 3.173485 -0.321376
v 4.311801 3.687818 -0.359481
v 4.311640 3.689817 0.362228
v 4.317309 3.763750 0.002044
v 3.057578 3.239344 0.024200
v 3.599281 3.533464 0.428303
v 3.599464 3.531176 -0.397533
v 3.588825 3.613420 0.016476
v 0.000000 0.000000 -0.271814
v -0.258511 0.000000 -0.083995
v -0.159769 0.000000 0.219903
v 0.159769 0.000000 0.219902
v 0.258511 0.000000 -0.083995
v 4.973698 3.317013 -0.092566
v 4.904845 3.329834 -0.041680
v 4.931144 3.324937 0.040653
v 5.016253 3.309089 0.040653
v 5.042552 3.304191 -0.041680
v 0.276751 0.691129 0.150010
v 4.116260 2.139409 0.083998
v 4.151591 2.113794 -0.051913
v 0.344542 0.672482 -0.067496
v -0.010415 0.770124 -0.067496
v 3.966597 2.247916 -0.051913
v 4.001927 2.222301 0.083999
v 0.057376 0.751476 0.150010
v 4.059094 2.180855 -0.135911
v 0.167064 0.721303 -0.201922
v 5.006756 3.464182 -0.159620
v 4.868588 3.489911 -0.057510
v 4.921364 3.480084 0.107707
v 5.092148 3.448282 0.107707
v 5.144923 3.438453 -0.057510
v 5.074959 3.811958 -0.069478
v 5.029971 3.820334 -0.036230
v 5.047155 3.817135 0.017566
v 5.102763 3.806780 0.017566
v 5.119947 3.803580 -0.036230
v 0.574890 1.158349 0.118056
v 0.608908 1.112047 -0.059953
v 0.430788 1.354486 -0.059953
v 0.464806 1.308185 0.118056
v 0.519848 1.233267 -0.169968
v 1.445425 1.468889 0.150025
v 1.309803 1.637059 -0.008235
v 1.477442 1.429189 -0.008235
v 1.341819 1.597360 0.150025
v 1.393622 1.533124 -0.106045
v 4.802848 2.657916 0.063378
v 4.657563 2.700031 -0.047045
v 4.837146 2.647974 -0.047045
v 4.691859 2.690089 0.063378
v 4.747354 2.674002 -0.115290
v 3.068619 1.777701 0.106761
v 2.925753 1.919426 -0.041625
v 3.102345 1.744244 -0.041625
v 2.959479 1.885969 0.106761
v 3.014049 1.831835 -0.133332
v 4.788717 3.337094 2.039099
v 5.261227 3.916564 1.596691
v 5.070024 3.697036 -0.069011
v 4.459076 3.894407 1.488742
v 4.568647 4.105021 0.400017
v 5.418349 4.099940 0.532999
v 5.002226 4.156095 0.423833
v 4.864969 3.933191 1.530818
v 5.431936 4.143368 1.010879
v 4.462888 4.143607 0.869237
v 4.957673 4.196750 0.919316
v 7.147070 3.488012 0.410081
v 6.699227 4.073906 -0.093750
v 5.037241 3.694613 -0.045392
v 6.557920 3.944371 0.623233
v 5.463603 4.017197 0.429217
v 5.519359 4.157697 -0.348111
v 5.444395 4.153589 0.041193
v 6.613833 4.058903 0.278588
v 6.063832 4.298985 -0.333371
v 5.972727 4.124585 0.555304
v 5.996730 4.290298 0.114253
v 5.103798 3.625354 -2.113455
v 4.769942 4.104609 -1.597126
v 5.065388 3.687892 0.016256
v 5.537195 4.039187 -1.563797
v 5.542332 4.086302 -0.514732
v 4.707699 4.143517 -0.542520
v 5.123299 4.170084 -0.476973
v 5.164537 4.128722 -1.554491
v 4.664036 4.237951 -1.064694
v 5.598734 4.160244 -1.030787
v 5.137036 4.274169 -1.011804
v 2.879584 3.839883 -0.086959
v 3.418205 4.208080 0.317793
v 5.112164 3.695344 -0.053309
v 3.434023 4.121978 -0.412379
v 4.539156 4.096014 -0.416232
v 4.553289 4.086785 0.381890
v 4.587409 4.162925 -0.023896
v 3.444849 4.224266 -0.056971
v 4.002640 4.221610 0.476454
v 3.987050 4.176619 -0.444160
v 4.014818 4.289376 0.001299
vt 0.6966 0.1383
vt 0.7081 0.1651
vt 0.6966 0.1642
vt 0.6966 0.2351
vt 0.6855 0.2090
vt 0.6966 0.2082
vt 0.6966 0.1874
vt 0.7102 0.1884
vt 0.6829 0.1884
vt 0.6850 0.1651
vt 0.7076 0.2090
vt 0.6966 0.1383
vt 0.7081 0.1651
vt 0.6966 0.1642
vt 0.6966 0.2351
vt 0.6855 0.2090
vt 0.6966 0.2082
vt 0.6966 0.1874
vt 0.7102 0.1884
vt 0.6829 0.1884
vt 0.6850 0.1651
vt 0.7076 0.2090
vt 0.8238 0.1383
vt 0.8353 0.1651
vt 0.8238 0.1642
vt 0.8238 0.2351
vt 0.8127 0.2090
vt 0.8238 0.2082
vt 0.8238 0.1874
vt 0.8374 0.1884
vt 0.8101 0.1884
vt 0.8122 0.1651
vt 0.8348 0.2090
vt 0.6966 0.1383
vt 0.7081 0.1651
vt 0.6966 0.1642
vt 0.6966 0.2351
vt 0.6855 0.2090
vt 0.6966 0.2082
vt 0.6966 0.1874
vt 0.7102 0.1884
vt 0.6829 0.1884
vt 0.6850 0.1651
vt 0.7076 0.2090
vt 0.6966 0.1383
vt 0.7081 0.1651
vt 0.6966 0.1642
vt 0.6966 0.2351
vt 0.6855 0.2090
vt 0.6966 0.2082
vt 0.6966 0.1874
vt 0.7102 0.1884
vt 0.6829 0.1884
vt 0.6850 0.1651
vt 0.7076 0.2090
vt 0.6966 0.1383
vt 0.7081 0.1651
vt 0.6966 0.1642
vt 0.6966 0.2351
vt 0.6855 0.2090
vt 0.6966 0.2082
vt 0.6966 0.1874
vt 0.7102 0.1884
vt 0.6829 0.1884
vt 0.6850 0.1651
vt 0.7076 0.2090
vt 0.8238 0.1383
vt 0.8353 0.1651
vt 0.8238 0.1642
vt 0.8238 0.2351
vt 0.8127 0.2090
vt 0.8238 0.2082
vt 0.8238 0.1874
vt 0.8374 0.1884
vt 0.8101 0.1884
vt 0.8122 0.1651
vt 0.8348 0.2090
vt 0.8238 0.1383
vt 0.8353 0.1651
vt 0.8238 0.1642
vt 0.8238 0.2351
vt 0.8127 0.2090
vt 0.8238 0.2082
vt 0.8238 0.1874
vt 0.8374 0.1884
vt 0.8101 0.1884
vt 0.8122 0.1651
vt 0.8348 0.2090
vt 0.5573 0.9660
vt 0.5577 0.9793
vt 0.5565 0.9791
vt 0.5559 0.9659
vt 0.5617 0.9660
vt 0.5611 0.9794
vt 0.5600 0.9795
vt 0.5603 0.9660
vt 0.5588 0.9660
vt 0.5588 0.9794
vt 0.5632 0.9660
vt 0.5623 0.9792
vt 0.5623 0.8988
vt 0.5614 0.9266
vt 0.5585 0.9267
vt 0.5583 0.8990
vt 0.5607 0.9493
vt 0.5605 0.9526
vt 0.5588 0.9526
vt 0.5587 0.9493
vt 0.5702 0.8998
vt 0.5670 0.9272
vt 0.5642 0.9268
vt 0.5663 0.8991
vt 0.5644 0.9496
vt 0.5641 0.9528
vt 0.5623 0.9526
vt 0.5626 0.9494
vt 0.5557 0.9268
vt 0.5544 0.8994
vt 0.5570 0.9527
vt 0.5569 0.9494
vt 0.5529 0.9270
vt 0.5504 0.8995
vt 0.5552 0.9527
vt 0.5549 0.9495
vt 0.5574 0.9812
vt 0.5556 0.9811
vt 0.5614 0.9812
vt 0.5601 0.9812
vt 0.5588 0.9812
vt 0.5632 0.9812
vt 0.5609 0.9846
vt 0.5599 0.9845
vt 0.5589 0.9845
vt 0.5579 0.9846
vt 0.5619 0.9849
vt 0.5569 0.9849
vt 0.5702 0.8995
vt 0.5712 0.8988
vt 0.5721 0.8995
vt 0.5718 0.9006
vt 0.5706 0.9006
vt 0.5564 0.9397
vt 0.5540 0.9399
vt 0.5633 0.9397
vt 0.5610 0.9396
vt 0.5587 0.9396
vt 0.5655 0.9400
vt 0.5567 0.9462
vt 0.5546 0.9463
vt 0.5628 0.9462
vt 0.5608 0.9461
vt 0.5587 0.9461
vt 0.5648 0.9464
vt 0.8193 0.1381
vt 0.8311 0.1656
vt 0.8193 0.1646
vt 0.8193 0.2373
vt 0.8080 0.2105
vt 0.8193 0.2097
vt 0.8193 0.1884
vt 0.8333 0.1895
vt 0.8053 0.1895
vt 0.8075 0.1656
vt 0.8306 0.2105
vt 0.9509 0.1381
vt 0.9628 0.1656
vt 0.9509 0.1646
vt 0.9509 0.2373
vt 0.9396 0.2105
vt 0.9509 0.2097
vt 0.9509 0.1884
vt 0.9649 0.1895
vt 0.9369 0.1895
vt 0.9391 0.1656
vt 0.9622 0.2105
vt 0.9509 0.1381
vt 0.9628 0.1656
vt 0.9509 0.1646
vt 0.9509 0.2373
vt 0.9396 0.2105
vt 0.9509 0.2097
vt 0.9509 0.1884
vt 0.9649 0.1895
vt 0.9369 0.1895
vt 0.9391 0.1656
vt 0.9622 0.2105
vt 0.9509 0.1381
vt 0.9628 0.1656
vt 0.9509 0.1646
vt 0.9509 0.2373
vt 0.9396 0.2105
vt 0.9509 0.2097
vt 0.9509 0.1884
vt 0.9649 0.1895
vt 0.9369 0.1895
vt 0.9391 0.1656
vt 0.9622 0.2105
vn 0.2939 0.9214 -0.2542
vn -0.7127 0.4342 -0.5510
vn 0.0389 0.8872 -0.4597
vn -0.2510 0.9588 -0.1326
vn -0.0086 0.9962 0.0871
vn -0.5427 0.3922 -0.7427
vn -0.5158 0.7748 -0.3656
vn -0.2632 0.7124 -0.6506
vn 0.0871 0.9273 -0.3641
vn -0.3792 0.6506 0.6580
vn -0.1222 0.9856 -0.1167
vn 0.2039 0.9619 0.1821
vn 0.4274 0.9026 -0.0523
vn -0.5704 0.6645 0.4828
vn -0.0835 0.8903 0.4477
vn -0.3676 0.9109 0.1875
vn -0.0469 0.9969 0.0626
vn 0.0722 0.2962 0.9524
vn -0.0704 0.9201 0.3854
vn 0.2511 0.8786 0.4062
vn 0.2889 0.9536 0.0843
vn -0.1151 0.3204 0.9403
vn 0.1799 0.6565 0.7325
vn -0.0995 0.6926 0.7144
vn 0.0145 0.9757 0.2185
vn 0.8303 0.2111 0.5158
vn 0.2532 0.8715 0.4200
vn 0.5398 0.8376 0.0840
vn 0.3135 0.9404 -0.1320
vn 0.6622 0.2309 0.7128
vn 0.7423 0.5890 0.3195
vn 0.4926 0.6185 0.6122
vn 0.0645 0.9575 0.2810
vn 0.9008 0.3658 -0.2338
vn 0.3821 0.8990 0.2139
vn 0.3183 0.9332 -0.1669
vn -0.0021 0.9932 -0.1164
vn 0.9382 0.3458 -0.0107
vn 0.6543 0.7246 -0.2166
vn 0.7099 0.6948 0.1152
vn 0.3286 0.9354 0.1307
vn 0.5610 0.2659 -0.7839
vn 0.5239 0.8436 -0.1180
vn 0.1949 0.8906 -0.4109
vn -0.0146 0.9845 -0.1749
vn 0.7539 0.2384 -0.6122
vn 0.4065 0.6477 -0.6444
vn 0.6931 0.6067 -0.3893
vn 0.3078 0.9227 0.2322
vn -0.0310 0.3937 -0.9187
vn 0.2853 0.9048 -0.3161
vn -0.0699 0.9461 -0.3161
vn -0.0878 0.9687 0.2322
vn 0.1205 0.3761 -0.9187
vn -0.0545 0.7109 -0.7012
vn 0.2163 0.6794 -0.7012
vn 0.1285 0.9701 -0.2057
vn -0.8625 0.4933 0.1127
vn -0.2012 0.9595 -0.1970
vn -0.1939 0.9619 0.1929
vn 0.1380 0.9698 0.2012
vn -0.8625 0.4928 -0.1152
vn -0.5642 0.8084 0.1680
vn -0.5672 0.8056 -0.1714
vn 0.9074 -0.2866 0.3073
vn -0.8873 0.3456 0.3055
vn 0.5647 -0.1702 -0.8075
vn 0.0080 0.0325 0.9994
vn -0.5500 0.2224 -0.8050
vn -0.5670 0.2041 -0.7980
vn -0.2059 0.6197 -0.7573
vn 0.0105 0.0940 0.9955
vn 0.0157 0.0183 0.9997
vn 0.5893 -0.0571 -0.8059
vn 0.2075 -0.6185 -0.7579
vn -0.9090 0.2885 0.3007
vn -0.2897 0.9207 0.2617
vn 0.9434 -0.1285 0.3059
vn 0.3211 -0.9087 0.2668
vn 0.7787 -0.5605 0.2821
vn -0.9394 -0.1842 0.2891
vn 0.4746 -0.4510 -0.7559
vn -0.0744 -0.3996 0.9137
vn -0.6060 -0.2130 -0.7664
vn -0.8646 0.4030 0.3001
vn 0.6025 0.0874 -0.7933
vn 0.0451 0.2423 0.9691
vn -0.5275 0.3086 -0.7915
vn 0.9523 0.0476 0.3014
vn 0.1831 0.9831 0.0000
vn 0.1830 0.9831 -0.0000
vn 0.8163 -0.4985 0.2920
vn -0.7646 0.5749 0.2912
vn 0.5279 -0.3095 -0.7909
vn 0.0276 0.0433 0.9987
vn -0.4830 0.3782 -0.7897
vn 0.3122 -0.9039 0.2925
vn -0.3087 0.9052 0.2921
vn 0.2471 -0.5480 -0.7992
vn -0.0289 -0.0222 0.9993
vn -0.1498 0.6060 -0.7812
vn -0.3578 0.5425 -0.7601
vn 0.0125 0.0244 0.9996
vn 0.3893 -0.5014 -0.7727
vn -0.5323 0.8036 0.2664
vn 0.5871 -0.7611 0.2758
vn 0.1879 -0.9455 0.2659
vn -0.1618 0.9515 0.2617
vn 0.1085 -0.6482 -0.7537
vn 0.0229 0.0206 0.9995
vn -0.1286 0.6368 -0.7603
vn -0.0481 0.7276 -0.6843
vn -0.0975 0.6529 0.7511
vn -0.1034 0.9899 -0.0974
vn 0.1396 0.9869 -0.0808
vn 0.2649 0.7235 -0.6375
vn -0.1396 0.6528 0.7446
vn 0.0057 0.9249 0.3801
vn -0.1319 0.9187 0.3723
vn -0.7469 0.6148 0.2531
vn 0.6959 0.6932 0.1875
vn -0.2698 0.9052 0.3283
vn -0.2436 0.9695 -0.0265
vn -0.7288 0.6716 -0.1332
vn 0.6498 0.6835 0.3326
vn 0.3165 0.9447 0.0862
vn 0.2429 0.9056 0.3477
vn 0.2005 0.6887 0.6968
vn 0.0271 0.7414 -0.6706
vn 0.2264 0.9577 0.1774
vn -0.0939 0.9780 0.1863
vn -0.1532 0.7155 0.6815
vn 0.1575 0.7252 -0.6702
vn -0.0391 0.9661 -0.2554
vn 0.2222 0.9447 -0.2411
vn 0.6447 0.7364 -0.2049
vn -0.5622 0.8270 -0.0043
vn 0.1771 0.9589 -0.2217
vn 0.2403 0.9559 0.1688
vn 0.6589 0.7274 0.1919
vn -0.5410 0.8125 -0.2174
vn -0.0853 0.9919 0.0941
vn -0.0966 0.9624 -0.2538
s off
f 3/1/1 5/2/1 7/3/1
f 1/4/2 2/5/2 8/6/2
f 11/7/3 7/3/3 5/2/3 10/8/3
f 9/9/4 6/10/4 7/3/4 11/7/4
f 6/10/5 3/1/5 7/3/5
f 4/11/6 1/4/6 8/6/6
f 2/5/7 9/9/7 11/7/7 8/6/7
f 8/6/8 11/7/8 10/8/8 4/11/8
f 14/12/9 16/13/9 18/14/9
f 12/15/10 13/16/10 19/17/10
f 22/18/11 18/14/11 16/13/11 21/19/11
f 20/20/12 17/21/12 18/14/12 22/18/12
f 17/21/13 14/12/13 18/14/13
f 15/22/14 12/15/14 19/17/14
f 13/16/15 20/20/15 22/18/15 19/17/15
f 19/17/16 22/18/16 21/19/16 15/22/16
f 25/23/17 27/24/17 29/25/17
f 23/26/18 24/27/18 30/28/18
f 33/29/19 29/25/19 27/24/19 32/30/19
f 31/31/20 28/32/20 29/25/20 33/29/20
f 28/32/21 25/23/21 29/25/21
f 26/33/22 23/26/22 30/28/22
f 24/27/23 31/31/23 33/29/23 30/28/23
f 30/28/24 33/29/24 32/30/24 26/33/24
f 36/34/25 38/35/25 40/36/25
f 34/37/26 35/38/26 41/39/26
f 44/40/27 40/36/27 38/35/27 43/41/27
f 42/42/28 39/43/28 40/36/28 44/40/28
f 39/43/29 36/34/29 40/36/29
f 37/44/30 34/37/30 41/39/30
f 35/38/31 42/42/31 44/40/31 41/39/31
f 41/39/32 44/40/32 43/41/32 37/44/32
f 47/45/33 49/46/33 51/47/33
f 45/48/34 46/49/34 52/50/34
f 55/51/35 51/47/35 49/46/35 54/52/35
f 53/53/36 50/54/36 51/47/36 55/51/36
f 50/54/37 47/45/37 51/47/37
f 48/55/38 45/48/38 52/50/38
f 46/49/39 53/53/39 55/51/39 52/50/39
f 52/50/40 55/51/40 54/52/40 48/55/40
f 58/56/41 60/57/41 62/58/41
f 56/59/42 57/60/42 63/61/42
f 66/62/43 62/58/43 60/57/43 65/63/43
f 64/64/44 61/65/44 62/58/44 66/62/44
f 61/65/45 58/56/45 62/58/45
f 59/66/46 56/59/46 63/61/46
f 57/60/47 64/64/47 66/62/47 63/61/47
f 63/61/48 66/62/48 65/63/48 59/66/48
f 69/67/49 71/68/49 73/69/49
f 67/70/50 68/71/50 74/72/50
f 77/73/51 73/69/51 71/68/51 76/74/51
f 75/75/52 72/76/52 73/69/52 77/73/52
f 72/76/53 69/67/53 73/69/53
f 70/77/54 67/70/54 74/72/54
f 68/71/55 75/75/55 77/73/55 74/72/55
f 74/72/56 77/73/56 76/74/56 70/77/56
f 80/78/57 82/79/57 84/80/57
f 78/81/58 79/82/58 85/83/58
f 88/84/59 84/80/59 82/79/59 87/85/59
f 86/86/60 83/87/60 84/80/60 88/84/60
f 83/87/61 80/78/61 84/80/61
f 81/88/62 78/81/62 85/83/62
f 79/82/63 86/86/63 88/84/63 85/83/63
f 85/83/64 88/84/64 87/85/64 81/88/64
f 131/89/65 98/90/65 97/91/65 129/92/65
f 132/93/66 96/94/66 95/95/66 130/96/66
f 133/97/67 94/98/67 98/90/67 131/89/67
f 129/99/68 97/100/68 96/94/68 132/93/68
f 130/96/69 95/95/69 94/98/69 133/97/69
f 90/101/70 103/102/70 108/103/70 89/104/70
f 135/105/71 104/106/71 107/107/71 138/108/71
f 92/109/72 99/110/72 106/111/72 91/112/72
f 134/113/73 100/114/73 105/115/73 137/116/73
f 89/104/74 108/103/74 102/117/74 93/118/74
f 138/108/75 107/107/75 101/119/75 136/120/75
f 91/112/76 106/111/76 103/102/76 90/101/76
f 137/116/77 105/115/77 104/106/77 135/105/77
f 93/118/78 102/117/78 99/121/78 92/122/78
f 136/120/79 101/119/79 100/123/79 134/124/79
f 98/90/80 113/125/80 112/126/80 97/91/80
f 96/94/81 111/127/81 110/128/81 95/95/81
f 94/98/82 109/129/82 113/125/82 98/90/82
f 97/100/83 112/130/83 111/127/83 96/94/83
f 95/95/84 110/128/84 109/129/84 94/98/84
f 111/127/85 116/131/85 115/132/85 110/128/85
f 109/129/86 114/133/86 118/134/86 113/125/86
f 112/130/87 117/135/87 116/131/87 111/127/87
f 110/128/88 115/132/88 114/133/88 109/129/88
f 113/125/89 118/134/89 117/136/89 112/126/89
f 116/137/90 117/138/90 118/139/90 114/140/90
f 115/141/91 116/137/91 114/140/91
f 102/117/92 120/142/92 119/143/92 99/121/92
f 106/111/93 122/144/93 121/145/93 103/102/93
f 108/103/94 123/146/94 120/142/94 102/117/94
f 99/110/95 119/147/95 122/144/95 106/111/95
f 103/102/96 121/145/96 123/146/96 108/103/96
f 120/142/97 126/148/97 124/149/97 119/143/97
f 122/144/98 127/150/98 125/151/98 121/145/98
f 123/146/99 128/152/99 126/148/99 120/142/99
f 119/147/100 124/153/100 127/150/100 122/144/100
f 121/145/101 125/151/101 128/152/101 123/146/101
f 104/106/102 130/96/102 133/97/102 107/107/102
f 100/114/103 129/99/103 132/93/103 105/115/103
f 107/107/104 133/97/104 131/89/104 101/119/104
f 105/115/105 132/93/105 130/96/105 104/106/105
f 101/119/106 131/89/106 129/92/106 100/123/106
f 126/148/107 136/120/107 134/124/107 124/149/107
f 127/150/108 137/116/108 135/105/108 125/151/108
f 128/152/109 138/108/109 136/120/109 126/148/109
f 124/153/110 134/113/110 137/116/110 127/150/110
f 125/151/111 135/105/111 138/108/111 128/152/111
f 141/154/112 143/155/112 145/156/112
f 139/157/113 140/158/113 146/159/113
f 149/160/114 145/156/114 143/155/114 148/161/114
f 147/162/115 144/163/115 145/156/115 149/160/115
f 144/163/116 141/154/116 145/156/116
f 142/164/117 139/157/117 146/159/117
f 140/158/118 147/162/118 149/160/118 146/159/118
f 146/159/119 149/160/119 148/161/119 142/164/119
f 152/165/120 154/166/120 156/167/120
f 150/168/121 151/169/121 157/170/121
f 160/171/122 156/167/122 154/166/122 159/172/122
f 158/173/123 155/174/123 156/167/123 160/171/123
f 155/174/124 152/165/124 156/167/124
f 153/175/125 150/168/125 157/170/125
f 151/169/126 158/173/126 160/171/126 157/170/126
f 157/170/127 160/171/127 159/172/127 153/175/127
f 163/176/128 165/177/128 167/178/128
f 161/179/129 162/180/129 168/181/129
f 171/182/130 167/178/130 165/177/130 170/183/130
f 169/184/131 166/185/131 167/178/131 171/182/131
f 166/185/132 163/176/132 167/178/132
f 164/186/133 161/179/133 168/181/133
f 162/180/134 169/184/134 171/182/134 168/181/134
f 168/181/135 171/182/135 170/183/135 164/186/135
f 174/187/136 176/188/136 178/189/136
f 172/190/137 173/191/137 179/192/137
f 182/193/138 178/189/138 176/188/138 181/194/138
f 180/195/139 177/196/139 178/189/139 182/193/139
f 177/196/140 174/187/140 178/189/140
f 175/197/141 172/190/141 179/192/141
f 173/191/142 180/195/142 182/193/142 179/192/142
f 179/192/143 182/193/143 181/194/143 175/197/143
