# Blender v2.78 (sub 0) OBJ File: 'Low_Poly_Trees_Pack.blend'
# www.blender.org
g Palm_Tree_OneSided_m_02
v 1.985829 4.640579 1.312353
v 2.046215 5.096205 0.847107
v 0.755782 5.621542 0.016701
v 1.723897 5.210103 1.299016
v 1.039597 5.759346 0.627094
v 1.410781 5.638574 0.180422
v 1.227234 5.756293 0.386008
v 1.904976 5.201453 1.072185
v 1.858337 5.483680 0.535612
v 1.433599 5.621875 1.046729
v 1.658252 5.615999 0.780431
v 1.945614 4.660061 -1.200729
v 1.563296 5.197920 -1.220009
v 0.769291 5.598366 -0.036521
v 1.975578 5.199486 -0.821317
v 1.424850 5.683973 -0.285907
v 0.989487 5.710447 -0.698511
v 1.200990 5.758138 -0.481780
v 1.779316 5.250874 -1.031084
v 1.245424 5.552155 -0.974329
v 1.739295 5.554031 -0.496738
v 1.504704 5.618283 -0.748555
v -0.736944 5.307784 -1.119477
v -0.567342 5.768450 -0.731135
v 0.716569 5.603973 -0.028039
v -0.234967 5.681005 -1.142132
v 0.502913 5.800651 -0.608230
v 0.154964 5.892195 -0.177974
v 0.354257 5.896645 -0.383312
v -0.386066 5.772049 -0.934501
v -0.255870 5.988563 -0.456975
v 0.142279 5.883811 -0.949307
v -0.037942 5.995319 -0.700476
v -0.525315 5.192093 1.267097
v -0.110308 5.657510 1.212826
v 0.789172 5.595835 0.004653
v -0.475064 5.628756 0.821464
v 0.187670 5.857304 0.162608
v 0.569518 5.887405 0.572308
v 0.392486 5.925109 0.350634
v -0.287785 5.691930 1.008991
v 0.206318 5.907219 0.971950
v -0.230622 5.872774 0.503139
v -0.006028 5.950970 0.727357
v 0.381150 3.929699 1.433947
v 0.931815 4.455325 1.282865
v 0.675388 5.547799 -0.009395
v 0.127976 4.625623 1.317253
v 0.235798 5.389800 0.647319
v 1.077304 5.211522 0.611320
v 0.673768 5.362884 0.648401
v 0.544416 4.590137 1.327645
v 1.108537 4.897114 0.948793
v 0.145621 5.101113 0.989987
v 0.645223 5.061169 1.003859
v 1.936698 3.782460 -0.185487
v 1.976828 4.501353 -0.438837
v 0.703957 5.599391 -0.043499
v 1.867907 4.398413 0.283875
v 1.226706 5.324160 0.374261
v 1.336351 5.414632 -0.385223
v 1.306409 5.434223 0.007750
v 1.960740 4.495946 -0.063455
v 1.740342 5.061802 -0.460609
v 1.609866 4.938490 0.405125
v 1.723052 5.057705 -0.010217
v 0.230771 3.986088 -1.523936
v 0.055045 4.743821 -1.425935
v 0.685945 5.573213 -0.023568
v 0.817636 4.557416 -1.401223
v 1.089709 5.373213 -0.717869
v 0.288146 5.555819 -0.732766
v 0.709464 5.532570 -0.721955
v 0.455185 4.706770 -1.431874
v 0.117773 5.244986 -1.139410
v 1.031277 5.021693 -1.109807
v 0.598072 5.203503 -1.147469
v -1.289926 4.372869 -0.080415
v -1.026460 4.995532 0.264632
v 0.715518 5.555450 -0.021686
v -0.942389 4.936325 -0.453763
v 0.052388 5.567468 -0.465153
v -0.039834 5.593746 0.288493
v 0.014876 5.649881 -0.088811
v -0.998013 5.024955 -0.099942
v -0.575500 5.382098 0.350366
v -0.474791 5.311176 -0.510197
v -0.542124 5.420393 -0.086633
v 0.000000 0.000000 -0.232320
v -0.220949 0.000000 -0.071791
v -0.136554 0.000000 0.187951
v 0.136554 0.000000 0.187951
v 0.220949 0.000000 -0.071791
v 0.675191 5.275722 -0.079116
v 0.617066 5.290035 -0.035624
v 0.639268 5.284568 0.034747
v 0.711114 5.266875 0.034747
v 0.733315 5.261408 -0.035624
v 0.234787 1.898058 0.128214
v 0.428464 3.676344 0.073592
v 0.466324 3.671346 -0.044794
v 0.294789 1.894747 -0.057689
v -0.019384 1.912085 -0.057689
v 0.268088 3.697513 -0.044794
v 0.305948 3.692516 0.073592
v 0.040617 1.908774 0.128214
v 0.367206 3.684430 -0.117961
v 0.137702 1.903416 -0.172583
v 0.710608 5.399683 -0.136427
v 0.593971 5.428405 -0.049153
v 0.638522 5.417434 0.092058
v 0.782694 5.381930 0.092058
v 0.827245 5.370959 -0.049153
v 0.785842 5.693096 -0.059383
v 0.747864 5.702447 -0.030966
v 0.762370 5.698876 0.015014
v 0.809314 5.687315 0.015014
v 0.823820 5.683743 -0.030966
vt 0.6992 0.1389
vt 0.7112 0.1666
vt 0.6992 0.1656
vt 0.6992 0.2388
vt 0.6878 0.2119
vt 0.6992 0.2111
vt 0.6992 0.1896
vt 0.7133 0.1907
vt 0.6851 0.1907
vt 0.6873 0.1666
vt 0.7106 0.2119
vt 0.9426 0.1389
vt 0.9545 0.1666
vt 0.9426 0.1656
vt 0.9426 0.2388
vt 0.9312 0.2119
vt 0.9426 0.2111
vt 0.9426 0.1896
vt 0.9567 0.1907
vt 0.9285 0.1907
vt 0.9307 0.1666
vt 0.9540 0.2119
vt 0.6992 0.1389
vt 0.7112 0.1666
vt 0.6992 0.1656
vt 0.6992 0.2388
vt 0.6878 0.2119
vt 0.6992 0.2111
vt 0.6992 0.1896
vt 0.7133 0.1907
vt 0.6851 0.1907
vt 0.6873 0.1666
vt 0.7106 0.2119
vt 0.9426 0.1389
vt 0.9545 0.1666
vt 0.9426 0.1656
vt 0.9426 0.2388
vt 0.9312 0.2119
vt 0.9426 0.2111
vt 0.9426 0.1896
vt 0.9567 0.1907
vt 0.9285 0.1907
vt 0.9307 0.1666
vt 0.9540 0.2119
vt 0.8232 0.1389
vt 0.8352 0.1666
vt 0.8232 0.1656
vt 0.8232 0.2388
vt 0.8118 0.2119
vt 0.8232 0.2111
vt 0.8232 0.1896
vt 0.8373 0.1907
vt 0.8091 0.1907
vt 0.8113 0.1666
vt 0.8346 0.2119
vt 0.8232 0.1389
vt 0.8352 0.1666
vt 0.8232 0.1656
vt 0.8232 0.2388
vt 0.8118 0.2119
vt 0.8232 0.2111
vt 0.8232 0.1896
vt 0.8373 0.1907
vt 0.8091 0.1907
vt 0.8113 0.1666
vt 0.8346 0.2119
vt 0.9426 0.1389
vt 0.9545 0.1666
vt 0.9426 0.1656
vt 0.9426 0.2388
vt 0.9312 0.2119
vt 0.9426 0.2111
vt 0.9426 0.1896
vt 0.9567 0.1907
vt 0.9285 0.1907
vt 0.9307 0.1666
vt 0.9540 0.2119
vt 0.8232 0.1389
vt 0.8352 0.1666
vt 0.8232 0.1656
vt 0.8232 0.2388
vt 0.8118 0.2119
vt 0.8232 0.2111
vt 0.8232 0.1896
vt 0.8373 0.1907
vt 0.8091 0.1907
vt 0.8113 0.1666
vt 0.8346 0.2119
vt 0.4491 0.9514
vt 0.4497 0.9770
vt 0.4486 0.9768
vt 0.4473 0.9515
vt 0.4542 0.9514
vt 0.4530 0.9771
vt 0.4519 0.9772
vt 0.4525 0.9513
vt 0.4507 0.9513
vt 0.4508 0.9771
vt 0.4559 0.9516
vt 0.4541 0.9769
vt 0.4541 0.8996
vt 0.4532 0.9263
vt 0.4505 0.9264
vt 0.4503 0.8998
vt 0.4618 0.9006
vt 0.4586 0.9269
vt 0.4559 0.9265
vt 0.4580 0.8999
vt 0.4478 0.9266
vt 0.4465 0.9001
vt 0.4451 0.9267
vt 0.4427 0.9003
vt 0.4494 0.9789
vt 0.4477 0.9788
vt 0.4533 0.9789
vt 0.4520 0.9789
vt 0.4508 0.9789
vt 0.4550 0.9788
vt 0.4528 0.9821
vt 0.4518 0.9820
vt 0.4509 0.9820
vt 0.4499 0.9821
vt 0.4538 0.9824
vt 0.4489 0.9824
vt 0.4618 0.9003
vt 0.4627 0.8996
vt 0.4636 0.9003
vt 0.4632 0.9014
vt 0.4621 0.9014
vn -0.1672 0.9756 -0.1425
vn 0.8651 0.2976 0.4037
vn 0.1910 0.9718 0.1381
vn 0.4204 0.8965 -0.1396
vn 0.0858 0.8957 -0.4363
vn 0.7378 0.3528 0.5755
vn 0.7605 0.5996 0.2493
vn 0.5785 0.6763 0.4561
vn 0.0088 0.9385 0.3453
vn 0.5584 0.3703 -0.7423
vn 0.3519 0.9333 -0.0718
vn 0.1282 0.9190 -0.3728
vn -0.2846 0.9563 0.0673
vn 0.7217 0.3709 -0.5844
vn 0.3434 0.7218 -0.6009
vn 0.5862 0.7227 -0.3661
vn 0.5961 0.8012 0.0521
vn -0.5796 0.6393 -0.5053
vn 0.3579 0.9208 -0.1549
vn 0.1302 0.9808 0.1455
vn 0.3491 0.8662 0.3576
vn -0.4849 0.6145 -0.6223
vn -0.3607 0.8825 -0.3018
vn -0.1916 0.8380 -0.5109
vn 0.2165 0.8191 -0.5312
vn -0.5669 0.5743 0.5906
vn -0.1319 0.9696 -0.2060
vn 0.1272 0.9896 0.0666
vn 0.4845 0.8401 -0.2440
vn -0.6707 0.5662 0.4791
vn -0.3322 0.8371 0.4347
vn -0.5178 0.8225 0.2355
vn 0.0584 0.9610 0.2703
vn 0.1550 0.1195 0.9807
vn 0.0438 0.7591 0.6494
vn 0.3242 0.7076 0.6279
vn 0.3601 0.8979 0.2533
vn -0.0109 0.1615 0.9868
vn 0.2738 0.5062 0.8178
vn 0.0246 0.5645 0.8251
vn 0.2243 0.9188 0.3247
vn 0.9983 -0.0409 0.0422
vn 0.6413 0.6790 0.3573
vn 0.6656 0.7459 0.0236
vn 0.2665 0.9634 -0.0277
vn 0.9684 -0.0734 0.2382
vn 0.9208 0.3879 0.0417
vn 0.8781 0.3421 0.3344
vn 0.3866 0.9214 -0.0406
vn -0.0029 0.1276 -0.9918
vn 0.3237 0.6930 -0.6442
vn 0.0580 0.7818 -0.6208
vn 0.0564 0.9968 -0.0561
vn 0.1202 0.0889 -0.9888
vn 0.0300 0.4917 -0.8702
vn 0.2522 0.4268 -0.8685
vn 0.1495 0.9689 -0.1973
vn -0.9125 0.4073 -0.0383
vn -0.3859 0.8844 -0.2625
vn -0.3701 0.9265 0.0674
vn 0.1165 0.9798 0.1627
vn -0.8892 0.3909 -0.2377
vn -0.6538 0.7565 0.0135
vn -0.6219 0.7297 -0.2841
vn 0.9382 -0.1593 0.3074
vn -0.9300 0.2021 0.3071
vn 0.5827 -0.0931 -0.8073
vn 0.0041 0.0236 0.9997
vn -0.5759 0.1310 -0.8070
vn -0.5865 0.0678 -0.8071
vn -0.5833 0.0998 -0.8061
vn 0.0007 0.0313 0.9995
vn 0.0026 0.0303 0.9995
vn 0.5885 -0.0171 -0.8083
vn 0.5881 -0.0510 -0.8072
vn -0.9466 0.0975 0.3074
vn -0.9401 0.1492 0.3064
vn 0.9505 -0.0394 0.3083
vn 0.9470 -0.0937 0.3071
vn 0.7453 -0.6042 0.2821
vn -0.9484 -0.1300 0.2891
vn 0.4480 -0.4775 -0.7559
vn -0.0972 -0.3947 0.9137
vn -0.6173 -0.1780 -0.7664
vn -0.8401 0.4518 0.3001
vn 0.6066 0.0528 -0.7933
vn 0.0589 0.2394 0.9691
vn -0.5089 0.3383 -0.7915
vn 0.9535 -0.0071 0.3014
vn 0.2391 0.9710 0.0000
s off
f 3/1/1 5/2/1 7/3/1
f 1/4/2 2/5/2 8/6/2
f 11/7/3 7/3/3 5/2/3 10/8/3
f 9/9/4 6/10/4 7/3/4 11/7/4
f 6/10/5 3/1/5 7/3/5
f 4/11/6 1/4/6 8/6/6
f 2/5/7 9/9/7 11/7/7 8/6/7
f 8/6/8 11/7/8 10/8/8 4/11/8
f 14/12/9 16/13/9 18/14/9
f 12/15/10 13/16/10 19/17/10
f 22/18/11 18/14/11 16/13/11 21/19/11
f 20/20/12 17/21/12 18/14/12 22/18/12
f 17/21/13 14/12/13 18/14/13
f 15/22/14 12/15/14 19/17/14
f 13/16/15 20/20/15 22/18/15 19/17/15
f 19/17/16 22/18/16 21/19/16 15/22/16
f 25/23/17 27/24/17 29/25/17
f 23/26/18 24/27/18 30/28/18
f 33/29/19 29/25/19 27/24/19 32/30/19
f 31/31/20 28/32/20 29/25/20 33/29/20
f 28/32/21 25/23/21 29/25/21
f 26/33/22 23/26/22 30/28/22
f 24/27/23 31/31/23 33/29/23 30/28/23
f 30/28/24 33/29/24 32/30/24 26/33/24
f 36/34/25 38/35/25 40/36/25
f 34/37/26 35/38/26 41/39/26
f 44/40/27 40/36/27 38/35/27 43/41/27
f 42/42/28 39/43/28 40/36/28 44/40/28
f 39/43/29 36/34/29 40/36/29
f 37/44/30 34/37/30 41/39/30
f 35/38/31 42/42/31 44/40/31 41/39/31
f 41/39/32 44/40/32 43/41/32 37/44/32
f 47/45/33 49/46/33 51/47/33
f 45/48/34 46/49/34 52/50/34
f 55/51/35 51/47/35 49/46/35 54/52/35
f 53/53/36 50/54/36 51/47/36 55/51/36
f 50/54/37 47/45/37 51/47/37
f 48/55/38 45/48/38 52/50/38
f 46/49/39 53/53/39 55/51/39 52/50/39
f 52/50/40 55/51/40 54/52/40 48/55/40
f 58/56/41 60/57/41 62/58/41
f 56/59/42 57/60/42 63/61/42
f 66/62/43 62/58/43 60/57/43 65/63/43
f 64/64/44 61/65/44 62/58/44 66/62/44
f 61/65/45 58/56/45 62/58/45
f 59/66/46 56/59/46 63/61/46
f 57/60/47 64/64/47 66/62/47 63/61/47
f 63/61/48 66/62/48 65/63/48 59/66/48
f 69/67/49 71/68/49 73/69/49
f 67/70/50 68/71/50 74/72/50
f 77/73/51 73/69/51 71/68/51 76/74/51
f 75/75/52 72/76/52 73/69/52 77/73/52
f 72/76/53 69/67/53 73/69/53
f 70/77/54 67/70/54 74/72/54
f 68/71/55 75/75/55 77/73/55 74/72/55
f 74/72/56 77/73/56 76/74/56 70/77/56
f 80/78/57 82/79/57 84/80/57
f 78/81/58 79/82/58 85/83/58
f 88/84/59 84/80/59 82/79/59 87/85/59
f 86/86/60 83/87/60 84/80/60 88/84/60
f 83/87/61 80/78/61 84/80/61
f 81/88/62 78/81/62 85/83/62
f 79/82/63 86/86/63 88/84/63 85/83/63
f 85/83/64 88/84/64 87/85/64 81/88/64
f 101/89/65 98/90/65 97/91/65 100/92/65
f 105/93/66 96/94/66 95/95/66 104/96/66
f 107/97/67 94/98/67 98/90/67 101/89/67
f 100/99/68 97/100/68 96/94/68 105/93/68
f 104/96/69 95/95/69 94/98/69 107/97/69
f 90/101/70 103/102/70 108/103/70 89/104/70
f 103/102/71 104/96/71 107/97/71 108/103/71
f 92/105/72 99/106/72 106/107/72 91/108/72
f 99/106/73 100/99/73 105/93/73 106/107/73
f 89/104/74 108/103/74 102/109/74 93/110/74
f 108/103/75 107/97/75 101/89/75 102/109/75
f 91/108/76 106/107/76 103/102/76 90/101/76
f 106/107/77 105/93/77 104/96/77 103/102/77
f 93/110/78 102/109/78 99/111/78 92/112/78
f 102/109/79 101/89/79 100/92/79 99/111/79
f 98/90/80 113/113/80 112/114/80 97/91/80
f 96/94/81 111/115/81 110/116/81 95/95/81
f 94/98/82 109/117/82 113/113/82 98/90/82
f 97/100/83 112/118/83 111/115/83 96/94/83
f 95/95/84 110/116/84 109/117/84 94/98/84
f 111/115/85 116/119/85 115/120/85 110/116/85
f 109/117/86 114/121/86 118/122/86 113/113/86
f 112/118/87 117/123/87 116/119/87 111/115/87
f 110/116/88 115/120/88 114/121/88 109/117/88
f 113/113/89 118/122/89 117/124/89 112/114/89
f 116/125/90 117/126/90 118/127/90 114/128/90
f 115/129/90 116/125/90 114/128/90
