# Blender v2.78 (sub 0) OBJ File: 'Low_Poly_Trees_Pack.blend'
# www.blender.org
g Palm_Tree_Coconut_OneSided_s_05
v 3.079610 2.141201 0.025230
v 3.037488 2.048758 0.086377
v 2.983304 2.139041 0.027228
v 3.022637 2.235816 0.031837
v 3.101130 2.205342 0.093836
v 3.110307 2.089734 0.127542
v 2.954480 2.086240 0.130774
v 2.945302 2.201848 0.097067
v 3.018122 2.242823 0.138233
v 3.072306 2.152540 0.197381
v 3.032973 2.055765 0.192772
v 2.975999 2.150379 0.199379
v 3.181111 2.227115 -0.017225
v 3.258188 2.140838 -0.048161
v 3.141991 2.148941 -0.022213
v 3.105311 2.206651 0.049718
v 3.198841 2.234214 0.068226
v 3.293323 2.193540 0.007733
v 3.230024 2.067051 -0.000338
v 3.135542 2.107726 0.060155
v 3.170677 2.160428 0.116049
v 3.286873 2.152325 0.090102
v 3.323554 2.094614 0.018170
v 3.247754 2.074150 0.085113
v 3.030805 2.126444 -0.025082
v 2.991927 2.048098 -0.122532
v 3.091866 2.128558 -0.098790
v 3.081804 2.224275 -0.048658
v 2.975644 2.202969 -0.041418
v 2.920098 2.094087 -0.087075
v 3.018898 2.097509 -0.206336
v 3.074444 2.206391 -0.160680
v 3.002615 2.252380 -0.125222
v 2.902675 2.171920 -0.148964
v 2.912738 2.076203 -0.199096
v 2.963736 2.174034 -0.222672
v 2.001657 1.516548 -0.849271
v 2.046448 1.922114 -0.596522
v 3.116192 2.279543 -0.011070
v 2.360080 1.863410 -0.938376
v 2.942127 2.228348 -0.506229
v 2.613797 2.289803 -0.148357
v 2.784084 2.303690 -0.334534
v 2.202707 1.930745 -0.779109
v 2.268191 2.166205 -0.391707
v 2.643892 2.095884 -0.801213
v 2.455346 2.178507 -0.611030
v 4.273383 1.187129 -0.125699
v 4.151031 1.623238 -0.367748
v 3.085346 2.316238 -0.016727
v 4.183145 1.619184 0.130814
v 3.558935 2.175137 0.200106
v 3.525316 2.179381 -0.321816
v 3.554030 2.222466 -0.062374
v 4.185174 1.657665 -0.120531
v 3.908150 1.942669 -0.395782
v 3.946620 1.937812 0.201444
v 3.949984 1.985792 -0.099749
v 3.558481 1.418325 1.169499
v 3.753486 1.778756 0.900725
v 3.102723 2.325744 -0.014703
v 3.316879 1.841442 1.116794
v 3.064910 2.284897 0.505147
v 3.521976 2.219275 0.278954
v 3.300976 2.295702 0.394620
v 3.544936 1.846309 1.017963
v 3.709519 2.040699 0.625411
v 3.186509 2.115789 0.884239
v 3.460201 2.123490 0.766324
v 3.307578 1.224184 -1.270215
v 3.115232 1.666852 -1.176988
v 3.114977 2.258204 -0.007586
v 3.532289 1.626982 -1.070576
v 3.436939 2.132399 -0.407691
v 3.000339 2.174137 -0.519089
v 3.226240 2.198946 -0.470363
v 3.332074 1.684362 -1.137614
v 3.044255 1.969863 -0.923598
v 3.543847 1.922103 -0.796129
v 3.304440 1.992771 -0.877147
v 1.848256 1.646827 0.715133
v 2.159859 2.018506 0.785710
v 3.137046 2.315914 -0.014067
v 1.957408 2.017331 0.412881
v 2.619806 2.333844 0.026313
v 2.831743 2.335073 0.416611
v 2.728993 2.380571 0.220183
v 2.054326 2.057859 0.602248
v 2.465959 2.238857 0.661618
v 2.223444 2.237448 0.215008
v 2.339319 2.288060 0.442001
v 0.000000 0.000000 -0.167270
v -0.159084 0.000000 -0.051689
v -0.098319 0.000000 0.135325
v 0.098319 0.000000 0.135325
v 0.159084 0.000000 -0.051689
v 3.060737 2.041239 -0.056963
v 3.018366 2.049128 -0.025650
v 3.034550 2.046115 0.025017
v 3.086924 2.036362 0.025017
v 3.103109 2.033349 -0.025650
v 0.170309 0.425310 0.092314
v 2.533083 1.316560 0.051691
v 2.554825 1.300796 -0.031946
v 0.212026 0.413835 -0.041536
v -0.006409 0.473922 -0.041536
v 2.440983 1.383333 -0.031946
v 2.462724 1.367570 0.051691
v 0.035308 0.462447 0.092314
v 2.497904 1.342064 -0.083637
v 0.102808 0.443879 -0.124260
v 3.081080 2.131804 -0.098228
v 2.996054 2.147638 -0.035391
v 3.028532 2.141590 0.066282
v 3.133630 2.122020 0.066281
v 3.166106 2.115971 -0.035391
v 3.123051 2.345820 -0.042756
v 3.095366 2.350975 -0.022296
v 3.105941 2.349006 0.010810
v 3.140162 2.342633 0.010810
v 3.150737 2.340665 -0.022296
v 0.353778 0.712830 0.072650
v 0.374712 0.684337 -0.036894
v 0.265100 0.833530 -0.036894
v 0.286034 0.805037 0.072650
v 0.319906 0.758933 -0.104596
v 0.889493 0.903932 0.092323
v 0.806032 1.007421 -0.005068
v 0.909195 0.879501 -0.005068
v 0.825735 0.982991 0.092323
v 0.857614 0.943461 -0.065259
v 2.955599 1.635641 0.039002
v 2.866192 1.661557 -0.028951
v 2.976705 1.629522 -0.028951
v 2.887298 1.655439 0.039002
v 2.921448 1.645540 -0.070948
v 1.888381 1.093970 0.065699
v 1.800464 1.181185 -0.025615
v 1.909136 1.073381 -0.025615
v 1.821218 1.160596 0.065699
v 1.854800 1.127283 -0.082051
vt 0.9078 0.0834
vt 0.8997 0.0940
vt 0.8956 0.0784
vt 0.9159 0.0940
vt 0.9078 0.0733
vt 0.9201 0.0784
vt 0.8985 0.0329
vt 0.9181 0.0329
vt 0.9083 0.0434
vt 0.8857 0.0476
vt 0.9005 0.0476
vt 0.8997 0.0628
vt 0.9159 0.0628
vt 0.9310 0.0476
vt 0.9162 0.0476
vt 0.8985 0.0622
vt 0.9181 0.0622
vt 0.9083 0.0518
vt 0.9699 0.0821
vt 0.9623 0.0919
vt 0.9584 0.0774
vt 0.9774 0.0919
vt 0.9699 0.0726
vt 0.9813 0.0774
vt 0.9612 0.0349
vt 0.9795 0.0349
vt 0.9703 0.0447
vt 0.9492 0.0486
vt 0.9630 0.0486
vt 0.9623 0.0628
vt 0.9774 0.0628
vt 0.9915 0.0486
vt 0.9777 0.0486
vt 0.9612 0.0623
vt 0.9795 0.0623
vt 0.9703 0.0525
vt 0.9699 0.0821
vt 0.9623 0.0919
vt 0.9584 0.0774
vt 0.9774 0.0919
vt 0.9699 0.0726
vt 0.9813 0.0774
vt 0.9612 0.0349
vt 0.9795 0.0349
vt 0.9703 0.0447
vt 0.9492 0.0486
vt 0.9630 0.0486
vt 0.9623 0.0628
vt 0.9774 0.0628
vt 0.9915 0.0486
vt 0.9777 0.0486
vt 0.9612 0.0623
vt 0.9795 0.0623
vt 0.9703 0.0525
vt 0.6928 0.1449
vt 0.7035 0.1698
vt 0.6928 0.1689
vt 0.6928 0.2347
vt 0.6826 0.2105
vt 0.6928 0.2097
vt 0.6928 0.1904
vt 0.7055 0.1914
vt 0.6802 0.1914
vt 0.6821 0.1698
vt 0.7031 0.2105
vt 0.8120 0.1449
vt 0.8227 0.1698
vt 0.8120 0.1689
vt 0.8120 0.2347
vt 0.8017 0.2105
vt 0.8120 0.2097
vt 0.8120 0.1904
vt 0.8246 0.1914
vt 0.7993 0.1914
vt 0.8013 0.1698
vt 0.8222 0.2105
vt 0.9392 0.1449
vt 0.9499 0.1698
vt 0.9392 0.1689
vt 0.9392 0.2347
vt 0.9289 0.2105
vt 0.9392 0.2097
vt 0.9392 0.1904
vt 0.9518 0.1914
vt 0.9265 0.1914
vt 0.9285 0.1698
vt 0.9494 0.2105
vt 0.6928 0.1449
vt 0.7035 0.1698
vt 0.6928 0.1689
vt 0.6928 0.2347
vt 0.6826 0.2105
vt 0.6928 0.2097
vt 0.6928 0.1904
vt 0.7055 0.1914
vt 0.6802 0.1914
vt 0.6821 0.1698
vt 0.7031 0.2105
vt 0.8120 0.1449
vt 0.8227 0.1698
vt 0.8120 0.1689
vt 0.8120 0.2347
vt 0.8017 0.2105
vt 0.8120 0.2097
vt 0.8120 0.1904
vt 0.8246 0.1914
vt 0.7993 0.1914
vt 0.8013 0.1698
vt 0.8222 0.2105
vt 0.4427 0.9635
vt 0.4431 0.9775
vt 0.4419 0.9774
vt 0.4412 0.9635
vt 0.4474 0.9636
vt 0.4467 0.9777
vt 0.4455 0.9778
vt 0.4458 0.9636
vt 0.4443 0.9636
vt 0.4443 0.9777
vt 0.4489 0.9636
vt 0.4479 0.9775
vt 0.4480 0.8929
vt 0.4470 0.9221
vt 0.4440 0.9222
vt 0.4438 0.8931
vt 0.4462 0.9460
vt 0.4461 0.9494
vt 0.4442 0.9495
vt 0.4442 0.9460
vt 0.4563 0.8939
vt 0.4529 0.9227
vt 0.4499 0.9223
vt 0.4522 0.8932
vt 0.4502 0.9463
vt 0.4498 0.9497
vt 0.4480 0.9495
vt 0.4482 0.9461
vt 0.4410 0.9224
vt 0.4396 0.8934
vt 0.4424 0.9495
vt 0.4422 0.9461
vt 0.4381 0.9225
vt 0.4354 0.8936
vt 0.4405 0.9496
vt 0.4402 0.9462
vt 0.4428 0.9796
vt 0.4409 0.9795
vt 0.4470 0.9796
vt 0.4456 0.9796
vt 0.4443 0.9796
vt 0.4489 0.9796
vt 0.4465 0.9832
vt 0.4454 0.9830
vt 0.4444 0.9830
vt 0.4433 0.9832
vt 0.4475 0.9834
vt 0.4423 0.9834
vt 0.4563 0.8936
vt 0.4573 0.8929
vt 0.4583 0.8936
vt 0.4579 0.8948
vt 0.4567 0.8948
vt 0.4417 0.9359
vt 0.4393 0.9361
vt 0.4490 0.9359
vt 0.4465 0.9358
vt 0.4441 0.9358
vt 0.4513 0.9362
vt 0.4421 0.9427
vt 0.4399 0.9428
vt 0.4485 0.9427
vt 0.4463 0.9426
vt 0.4442 0.9426
vt 0.4506 0.9430
vn -0.0050 -0.5501 -0.8351
vn 0.6214 -0.6091 -0.4928
vn -0.0220 0.0565 -0.9982
vn 0.6558 0.4378 -0.6150
vn 0.9565 -0.0091 -0.2916
vn 0.4552 -0.8870 0.0777
vn -0.5633 -0.6620 -0.4944
vn -0.6889 0.3112 -0.6547
vn 0.3915 0.9191 -0.0439
vn 0.9222 0.1739 0.3454
vn -0.3915 -0.9191 0.0439
vn -0.9222 -0.1739 -0.3454
vn -0.4552 0.8870 -0.0777
vn 0.5633 0.6620 0.4944
vn 0.6889 -0.3112 0.6547
vn -0.6558 -0.4378 0.6150
vn -0.9565 0.0091 0.2916
vn -0.6214 0.6091 0.4929
vn 0.0050 0.5501 0.8351
vn 0.0220 -0.0565 0.9982
vn -0.2041 0.1637 -0.9652
vn 0.3372 0.5699 -0.7493
vn -0.6684 0.3755 -0.6421
vn -0.2786 0.9602 -0.0220
vn 0.3128 0.9390 -0.1429
vn 0.7575 0.1649 -0.6316
vn -0.2235 -0.4686 -0.8547
vn -0.9247 -0.3064 -0.2257
vn -0.3216 0.5984 0.7339
vn 0.5674 0.7178 0.4036
vn 0.3216 -0.5984 -0.7339
vn -0.5674 -0.7178 -0.4036
vn -0.7575 -0.1649 0.6316
vn 0.2235 0.4686 0.8547
vn 0.9248 0.3064 0.2257
vn 0.2786 -0.9602 0.0220
vn -0.3128 -0.9390 0.1429
vn -0.3372 -0.5699 0.7493
vn 0.2041 -0.1637 0.9652
vn 0.6684 -0.3754 0.6421
vn 0.5136 -0.7571 0.4038
vn -0.1505 -0.7403 0.6552
vn 0.7504 -0.2430 0.6147
vn 0.0216 0.2236 0.9744
vn -0.4528 -0.1384 0.8808
vn -0.4709 -0.8658 0.1692
vn 0.6429 -0.7322 -0.2248
vn 0.9847 0.1499 -0.0886
vn -0.1431 0.8720 0.4681
vn -0.8359 0.2146 0.5052
vn 0.1431 -0.8720 -0.4681
vn 0.8359 -0.2146 -0.5052
vn 0.4709 0.8658 -0.1692
vn -0.6429 0.7322 0.2248
vn -0.9847 -0.1499 0.0886
vn -0.0216 -0.2236 -0.9744
vn 0.4528 0.1384 -0.8808
vn 0.1505 0.7403 -0.6552
vn -0.5136 0.7571 -0.4038
vn -0.7504 0.2430 -0.6147
vn 0.2505 0.9500 -0.1863
vn -0.6944 0.4343 -0.5738
vn -0.0064 0.9142 -0.4052
vn -0.2392 0.9595 -0.1489
vn 0.0000 0.9972 0.0744
vn -0.5637 0.3964 -0.7246
vn -0.4997 0.7751 -0.3866
vn -0.3036 0.7291 -0.6134
vn 0.2092 0.9630 0.1697
vn 0.9700 0.1836 -0.1595
vn 0.5171 0.8442 0.1413
vn 0.4891 0.8503 -0.1941
vn 0.1761 0.9677 -0.1802
vn 0.9823 0.1838 0.0361
vn 0.7903 0.5813 -0.1935
vn 0.8106 0.5773 0.0983
vn -0.0093 0.9969 0.0777
vn 0.5391 0.2962 0.7884
vn 0.1319 0.9201 0.3689
vn 0.4207 0.8786 0.2260
vn 0.2923 0.9536 -0.0716
vn 0.3709 0.3204 0.8717
vn 0.5224 0.6565 0.5441
vn 0.2714 0.6926 0.6683
vn 0.3133 0.9485 -0.0461
vn 0.1514 0.2662 -0.9519
vn 0.3753 0.8541 -0.3600
vn 0.0008 0.8924 -0.4513
vn -0.0771 0.9864 -0.1448
vn 0.3692 0.2391 -0.8981
vn 0.0811 0.6489 -0.7565
vn 0.4067 0.6120 -0.6783
vn 0.0147 0.9701 -0.2421
vn -0.7041 0.4933 0.5108
vn -0.2709 0.9595 -0.0771
vn -0.0783 0.9619 0.2621
vn 0.2173 0.9698 0.1109
vn -0.8128 0.4928 0.3105
vn -0.4156 0.8084 0.4170
vn -0.5802 0.8056 0.1202
vn 0.9074 -0.2866 0.3073
vn -0.8873 0.3456 0.3055
vn 0.5647 -0.1702 -0.8075
vn 0.0080 0.0325 0.9994
vn -0.5500 0.2224 -0.8050
vn -0.5670 0.2041 -0.7980
vn -0.2059 0.6197 -0.7573
vn 0.0105 0.0940 0.9955
vn 0.0157 0.0183 0.9997
vn 0.5893 -0.0571 -0.8059
vn 0.2075 -0.6185 -0.7579
vn -0.9090 0.2885 0.3007
vn -0.2897 0.9207 0.2617
vn 0.9434 -0.1285 0.3059
vn 0.3211 -0.9087 0.2668
vn 0.7787 -0.5605 0.2821
vn -0.9394 -0.1842 0.2891
vn 0.4746 -0.4510 -0.7559
vn -0.0744 -0.3996 0.9137
vn -0.6060 -0.2130 -0.7664
vn -0.8646 0.4030 0.3001
vn 0.6025 0.0874 -0.7933
vn 0.0451 0.2423 0.9691
vn -0.5275 0.3086 -0.7915
vn 0.9523 0.0476 0.3014
vn 0.1831 0.9831 0.0000
vn 0.1830 0.9831 -0.0000
vn 0.8163 -0.4985 0.2920
vn -0.7646 0.5749 0.2912
vn 0.5279 -0.3095 -0.7909
vn 0.0276 0.0433 0.9987
vn -0.4830 0.3782 -0.7897
vn 0.3122 -0.9039 0.2925
vn -0.3087 0.9052 0.2921
vn 0.2471 -0.5480 -0.7992
vn -0.0289 -0.0222 0.9993
vn -0.1498 0.6060 -0.7812
vn -0.3578 0.5425 -0.7601
vn 0.0125 0.0244 0.9996
vn 0.3893 -0.5014 -0.7727
vn -0.5323 0.8036 0.2664
vn 0.5871 -0.7611 0.2758
vn 0.1879 -0.9455 0.2659
vn -0.1618 0.9515 0.2617
vn 0.1085 -0.6482 -0.7537
vn 0.0229 0.0206 0.9995
vn -0.1286 0.6368 -0.7603
s off
f 1/1/1 2/2/1 3/3/1
f 2/2/2 1/1/2 6/4/2
f 1/1/3 3/3/3 4/5/3
f 1/1/4 4/5/4 5/6/4
f 1/1/5 5/6/5 6/4/5
f 2/7/6 6/8/6 11/9/6
f 3/10/7 2/7/7 7/11/7
f 4/5/8 3/3/8 8/12/8
f 5/6/9 4/5/9 9/13/9
f 6/8/10 5/14/10 10/15/10
f 2/7/11 11/9/11 7/11/11
f 3/10/12 7/11/12 8/16/12
f 4/5/13 8/12/13 9/13/13
f 5/14/14 9/17/14 10/15/14
f 6/8/15 10/15/15 11/9/15
f 7/11/16 11/9/16 12/18/16
f 8/16/17 7/11/17 12/18/17
f 9/17/18 8/16/18 12/18/18
f 10/15/19 9/17/19 12/18/19
f 11/9/20 10/15/20 12/18/20
f 13/19/21 14/20/21 15/21/21
f 14/20/22 13/19/22 18/22/22
f 13/19/23 15/21/23 16/23/23
f 13/19/24 16/23/24 17/24/24
f 13/19/25 17/24/25 18/22/25
f 14/25/26 18/26/26 23/27/26
f 15/28/27 14/25/27 19/29/27
f 16/23/28 15/21/28 20/30/28
f 17/24/29 16/23/29 21/31/29
f 18/26/30 17/32/30 22/33/30
f 14/25/31 23/27/31 19/29/31
f 15/28/32 19/29/32 20/34/32
f 16/23/33 20/30/33 21/31/33
f 17/32/34 21/35/34 22/33/34
f 18/26/35 22/33/35 23/27/35
f 19/29/36 23/27/36 24/36/36
f 20/34/37 19/29/37 24/36/37
f 21/35/38 20/34/38 24/36/38
f 22/33/39 21/35/39 24/36/39
f 23/27/40 22/33/40 24/36/40
f 25/37/41 26/38/41 27/39/41
f 26/38/42 25/37/42 30/40/42
f 25/37/43 27/39/43 28/41/43
f 25/37/44 28/41/44 29/42/44
f 25/37/45 29/42/45 30/40/45
f 26/43/46 30/44/46 35/45/46
f 27/46/47 26/43/47 31/47/47
f 28/41/48 27/39/48 32/48/48
f 29/42/49 28/41/49 33/49/49
f 30/44/50 29/50/50 34/51/50
f 26/43/51 35/45/51 31/47/51
f 27/46/52 31/47/52 32/52/52
f 28/41/53 32/48/53 33/49/53
f 29/50/54 33/53/54 34/51/54
f 30/44/55 34/51/55 35/45/55
f 31/47/56 35/45/56 36/54/56
f 32/52/57 31/47/57 36/54/57
f 33/53/58 32/52/58 36/54/58
f 34/51/59 33/53/59 36/54/59
f 35/45/60 34/51/60 36/54/60
f 39/55/61 41/56/61 43/57/61
f 37/58/62 38/59/62 44/60/62
f 47/61/63 43/57/63 41/56/63 46/62/63
f 45/63/64 42/64/64 43/57/64 47/61/64
f 42/64/65 39/55/65 43/57/65
f 40/65/66 37/58/66 44/60/66
f 38/59/67 45/63/67 47/61/67 44/60/67
f 44/60/68 47/61/68 46/62/68 40/65/68
f 50/66/69 52/67/69 54/68/69
f 48/69/70 49/70/70 55/71/70
f 58/72/71 54/68/71 52/67/71 57/73/71
f 56/74/72 53/75/72 54/68/72 58/72/72
f 53/75/73 50/66/73 54/68/73
f 51/76/74 48/69/74 55/71/74
f 49/70/75 56/74/75 58/72/75 55/71/75
f 55/71/76 58/72/76 57/73/76 51/76/76
f 61/77/77 63/78/77 65/79/77
f 59/80/78 60/81/78 66/82/78
f 69/83/79 65/79/79 63/78/79 68/84/79
f 67/85/80 64/86/80 65/79/80 69/83/80
f 64/86/81 61/77/81 65/79/81
f 62/87/82 59/80/82 66/82/82
f 60/81/83 67/85/83 69/83/83 66/82/83
f 66/82/84 69/83/84 68/84/84 62/87/84
f 72/88/85 74/89/85 76/90/85
f 70/91/86 71/92/86 77/93/86
f 80/94/87 76/90/87 74/89/87 79/95/87
f 78/96/88 75/97/88 76/90/88 80/94/88
f 75/97/89 72/88/89 76/90/89
f 73/98/90 70/91/90 77/93/90
f 71/92/91 78/96/91 80/94/91 77/93/91
f 77/93/92 80/94/92 79/95/92 73/98/92
f 83/99/93 85/100/93 87/101/93
f 81/102/94 82/103/94 88/104/94
f 91/105/95 87/101/95 85/100/95 90/106/95
f 89/107/96 86/108/96 87/101/96 91/105/96
f 86/108/97 83/99/97 87/101/97
f 84/109/98 81/102/98 88/104/98
f 82/103/99 89/107/99 91/105/99 88/104/99
f 88/104/100 91/105/100 90/106/100 84/109/100
f 134/110/101 101/111/101 100/112/101 132/113/101
f 135/114/102 99/115/102 98/116/102 133/117/102
f 136/118/103 97/119/103 101/111/103 134/110/103
f 132/120/104 100/121/104 99/115/104 135/114/104
f 133/117/105 98/116/105 97/119/105 136/118/105
f 93/122/106 106/123/106 111/124/106 92/125/106
f 138/126/107 107/127/107 110/128/107 141/129/107
f 95/130/108 102/131/108 109/132/108 94/133/108
f 137/134/109 103/135/109 108/136/109 140/137/109
f 92/125/110 111/124/110 105/138/110 96/139/110
f 141/129/111 110/128/111 104/140/111 139/141/111
f 94/133/112 109/132/112 106/123/112 93/122/112
f 140/137/113 108/136/113 107/127/113 138/126/113
f 96/139/114 105/138/114 102/142/114 95/143/114
f 139/141/115 104/140/115 103/144/115 137/145/115
f 101/111/116 116/146/116 115/147/116 100/112/116
f 99/115/117 114/148/117 113/149/117 98/116/117
f 97/119/118 112/150/118 116/146/118 101/111/118
f 100/121/119 115/151/119 114/148/119 99/115/119
f 98/116/120 113/149/120 112/150/120 97/119/120
f 114/148/121 119/152/121 118/153/121 113/149/121
f 112/150/122 117/154/122 121/155/122 116/146/122
f 115/151/123 120/156/123 119/152/123 114/148/123
f 113/149/124 118/153/124 117/154/124 112/150/124
f 116/146/125 121/155/125 120/157/125 115/147/125
f 119/158/126 120/159/126 121/160/126 117/161/126
f 118/162/127 119/158/127 117/161/127
f 105/138/128 123/163/128 122/164/128 102/142/128
f 109/132/129 125/165/129 124/166/129 106/123/129
f 111/124/130 126/167/130 123/163/130 105/138/130
f 102/131/131 122/168/131 125/165/131 109/132/131
f 106/123/132 124/166/132 126/167/132 111/124/132
f 123/163/133 129/169/133 127/170/133 122/164/133
f 125/165/134 130/171/134 128/172/134 124/166/134
f 126/167/135 131/173/135 129/169/135 123/163/135
f 122/168/136 127/174/136 130/171/136 125/165/136
f 124/166/137 128/172/137 131/173/137 126/167/137
f 107/127/138 133/117/138 136/118/138 110/128/138
f 103/135/139 132/120/139 135/114/139 108/136/139
f 110/128/140 136/118/140 134/110/140 104/140/140
f 108/136/141 135/114/141 133/117/141 107/127/141
f 104/140/142 134/110/142 132/113/142 103/144/142
f 129/169/143 139/141/143 137/145/143 127/170/143
f 130/171/144 140/137/144 138/126/144 128/172/144
f 131/173/145 141/129/145 139/141/145 129/169/145
f 127/174/146 137/134/146 140/137/146 130/171/146
f 128/172/147 138/126/147 141/129/147 131/173/147
