# Blender v2.78 (sub 0) OBJ File: 'Low_Poly_Trees_Pack.blend'
# www.blender.org
g Palm_Tree_Coconut_OneSided_m_01
v 1.395882 4.795669 1.193048
v 1.382620 5.213285 0.770097
v 0.147403 5.493528 0.015183
v 1.076656 5.267749 1.180924
v 0.381583 5.659134 0.570086
v 0.732395 5.605736 0.164020
v 0.550338 5.684164 0.350916
v 1.240358 5.286788 0.974713
v 1.156759 5.533033 0.486920
v 0.755333 5.594134 0.951572
v 0.957708 5.622109 0.709482
v 1.356927 4.807192 -1.091572
v 0.934405 5.233055 -1.109099
v 0.162951 5.474739 -0.033201
v 1.303976 5.295472 -0.746652
v 0.738295 5.648540 -0.259915
v 0.343872 5.607859 -0.635010
v 0.526525 5.681935 -0.437982
v 1.120331 5.312521 -0.937349
v 0.596864 5.503751 -0.885754
v 1.039571 5.578519 -0.451580
v 0.819643 5.601435 -0.680504
v -1.145088 4.991196 -1.017707
v -1.061132 5.429497 -0.664668
v 0.114831 5.471966 -0.025490
v -0.750063 5.400248 -1.038302
v -0.105917 5.616762 -0.552936
v -0.431562 5.647383 -0.161795
v -0.253461 5.680866 -0.348465
v -0.899067 5.459551 -0.849546
v -0.814327 5.673024 -0.415432
v -0.441699 5.637985 -0.863007
v -0.619853 5.711334 -0.636796
v -0.938143 4.918745 1.151906
v -0.634771 5.397622 1.102569
v 0.181158 5.475412 0.004230
v -0.957690 5.317852 0.746785
v -0.397062 5.620926 0.147825
v -0.059013 5.704435 0.520280
v -0.223383 5.712055 0.318758
v -0.799056 5.402232 0.917265
v -0.387722 5.668458 0.883591
v -0.774545 5.572901 0.457399
v -0.584664 5.676277 0.661234
v 0.061740 3.920565 1.303588
v 0.477883 4.473523 1.166241
v 0.086206 5.415487 -0.008541
v -0.268335 4.507317 1.197503
v -0.284709 5.208714 0.588472
v 0.496475 5.173336 0.555745
v 0.112118 5.249384 0.589456
v 0.110449 4.537115 1.206950
v 0.571018 4.895945 0.862539
v -0.322874 4.936427 0.899988
v 0.131163 4.974533 0.912599
v 1.478801 4.018695 -0.168624
v 1.408412 4.669455 -0.398942
v 0.104197 5.465991 -0.039545
v 1.325947 4.561003 0.258069
v 0.613815 5.296477 0.340237
v 0.698773 5.393853 -0.350203
v 0.669018 5.406994 0.007045
v 1.394781 4.662225 -0.057686
v 1.113353 5.137162 -0.418735
v 1.014569 5.007247 0.368296
v 1.098451 5.130929 -0.009288
v -0.081489 3.948889 -1.385396
v -0.351242 4.602545 -1.296304
v 0.091915 5.439844 -0.021425
v 0.360360 4.548198 -1.273839
v 0.483673 5.320203 -0.652608
v -0.262323 5.365374 -0.666151
v 0.119025 5.406869 -0.656322
v 0.013152 4.628527 -1.301704
v -0.369143 5.061355 -1.035827
v 0.483282 4.996254 -1.008916
v 0.067807 5.095223 -1.043154
v -1.502739 4.070777 -0.073105
v -1.358565 4.668273 0.240575
v 0.121069 5.428288 -0.019715
v -1.274394 4.627608 -0.412512
v -0.475514 5.340934 -0.422867
v -0.562123 5.350857 0.262266
v -0.521357 5.409304 -0.080738
v -1.337402 4.698874 -0.090856
v -1.011276 5.081745 0.318515
v -0.910448 5.033034 -0.463815
v -0.987006 5.121034 -0.078757
v 0.053130 5.230108 -0.291969
v 0.072228 5.110484 -0.176965
v -0.028508 5.247359 -0.184911
v 0.023018 5.373913 -0.239935
v 0.155600 5.315250 -0.265995
v 0.186012 5.152442 -0.227078
v 0.053919 5.180356 -0.053853
v 0.023507 5.343163 -0.092771
v 0.137291 5.385122 -0.142883
v 0.238027 5.248247 -0.134938
v 0.186501 5.121693 -0.079914
v 0.156390 5.265498 -0.027879
v 0.000000 0.000000 -0.211200
v -0.200863 0.000000 -0.065264
v -0.124140 0.000000 0.170864
v 0.124140 0.000000 0.170864
v 0.200863 0.000000 -0.065264
v 0.126293 5.171413 -0.071923
v 0.072039 5.175651 -0.032385
v 0.092762 5.174032 0.031588
v 0.159823 5.168795 0.031588
v 0.180546 5.167176 -0.032385
v 0.122653 1.725507 0.116558
v 0.141672 3.700316 0.066902
v 0.176371 3.701436 -0.040722
v 0.177200 1.722497 -0.052444
v -0.108412 1.738259 -0.052444
v -0.005312 3.695570 -0.040722
v 0.029386 3.696691 0.066902
v -0.053865 1.735249 0.116558
v 0.085529 3.698503 -0.107237
v 0.034394 1.730378 -0.156894
v 0.139716 5.287843 -0.124024
v 0.030847 5.296346 -0.044685
v 0.072431 5.293098 0.083689
v 0.207002 5.282588 0.083689
v 0.248586 5.279340 -0.044685
v 0.163778 5.562158 -0.053984
v 0.128329 5.564926 -0.028151
v 0.141869 5.563869 0.013649
v 0.185687 5.560447 0.013649
v 0.199227 5.559390 -0.028151
v 0.339613 5.131993 0.006973
v 0.412287 5.226794 0.123730
v 0.253741 5.167730 0.105830
v 0.190951 5.163846 -0.027365
v 0.310694 5.220509 -0.091782
v 0.447485 5.259412 0.001600
v 0.308539 5.317235 0.161553
v 0.171748 5.278332 0.068171
v 0.206946 5.310950 -0.053959
v 0.365491 5.370014 -0.036059
v 0.428281 5.373899 0.097136
v 0.279619 5.405751 0.062798
v -0.145224 5.096484 0.027560
v 0.012519 5.168157 0.114329
v -0.178830 5.178608 0.138006
v -0.283504 5.189397 0.016697
v -0.156843 5.185614 -0.081953
v 0.026107 5.172487 -0.021613
v -0.028270 5.305368 0.157093
v -0.211221 5.318495 0.096752
v -0.197633 5.322825 -0.039189
v -0.006284 5.312373 -0.062867
v 0.098391 5.301585 0.058442
v -0.039890 5.394499 0.047580
vt 0.6889 0.1381
vt 0.7008 0.1656
vt 0.6889 0.1646
vt 0.6889 0.2373
vt 0.6776 0.2105
vt 0.6889 0.2097
vt 0.6889 0.1884
vt 0.7029 0.1895
vt 0.6750 0.1895
vt 0.6771 0.1656
vt 0.7003 0.2105
vt 0.8193 0.1381
vt 0.8311 0.1656
vt 0.8193 0.1646
vt 0.8193 0.2373
vt 0.8080 0.2105
vt 0.8193 0.2097
vt 0.8193 0.1884
vt 0.8333 0.1895
vt 0.8053 0.1895
vt 0.8075 0.1656
vt 0.8306 0.2105
vt 0.8193 0.1381
vt 0.8311 0.1656
vt 0.8193 0.1646
vt 0.8193 0.2373
vt 0.8080 0.2105
vt 0.8193 0.2097
vt 0.8193 0.1884
vt 0.8333 0.1895
vt 0.8053 0.1895
vt 0.8075 0.1656
vt 0.8306 0.2105
vt 0.6889 0.1381
vt 0.7008 0.1656
vt 0.6889 0.1646
vt 0.6889 0.2373
vt 0.6776 0.2105
vt 0.6889 0.2097
vt 0.6889 0.1884
vt 0.7029 0.1895
vt 0.6750 0.1895
vt 0.6771 0.1656
vt 0.7003 0.2105
vt 0.8193 0.1381
vt 0.8311 0.1656
vt 0.8193 0.1646
vt 0.8193 0.2373
vt 0.8080 0.2105
vt 0.8193 0.2097
vt 0.8193 0.1884
vt 0.8333 0.1895
vt 0.8053 0.1895
vt 0.8075 0.1656
vt 0.8306 0.2105
vt 0.9509 0.1381
vt 0.9628 0.1656
vt 0.9509 0.1646
vt 0.9509 0.2373
vt 0.9396 0.2105
vt 0.9509 0.2097
vt 0.9509 0.1884
vt 0.9649 0.1895
vt 0.9369 0.1895
vt 0.9391 0.1656
vt 0.9622 0.2105
vt 0.9509 0.1381
vt 0.9628 0.1656
vt 0.9509 0.1646
vt 0.9509 0.2373
vt 0.9396 0.2105
vt 0.9509 0.2097
vt 0.9509 0.1884
vt 0.9649 0.1895
vt 0.9369 0.1895
vt 0.9391 0.1656
vt 0.9622 0.2105
vt 0.9509 0.1381
vt 0.9628 0.1656
vt 0.9509 0.1646
vt 0.9509 0.2373
vt 0.9396 0.2105
vt 0.9509 0.2097
vt 0.9509 0.1884
vt 0.9649 0.1895
vt 0.9369 0.1895
vt 0.9391 0.1656
vt 0.9622 0.2105
vt 0.9078 0.0834
vt 0.8997 0.0940
vt 0.8956 0.0784
vt 0.9159 0.0940
vt 0.9078 0.0733
vt 0.9201 0.0784
vt 0.8985 0.0329
vt 0.9181 0.0329
vt 0.9083 0.0434
vt 0.8857 0.0476
vt 0.9005 0.0476
vt 0.8997 0.0628
vt 0.9159 0.0628
vt 0.9310 0.0476
vt 0.9162 0.0476
vt 0.8985 0.0622
vt 0.9181 0.0622
vt 0.9083 0.0518
vt 0.4446 0.9515
vt 0.4453 0.9829
vt 0.4440 0.9827
vt 0.4424 0.9516
vt 0.4508 0.9515
vt 0.4494 0.9830
vt 0.4481 0.9832
vt 0.4487 0.9514
vt 0.4466 0.9515
vt 0.4467 0.9831
vt 0.4529 0.9517
vt 0.4508 0.9828
vt 0.4508 0.8881
vt 0.4497 0.9208
vt 0.4464 0.9209
vt 0.4461 0.8883
vt 0.4601 0.8892
vt 0.4563 0.9215
vt 0.4530 0.9210
vt 0.4555 0.8884
vt 0.4431 0.9211
vt 0.4414 0.8887
vt 0.4397 0.9213
vt 0.4368 0.8889
vt 0.4450 0.9852
vt 0.4429 0.9851
vt 0.4497 0.9852
vt 0.4482 0.9852
vt 0.4467 0.9852
vt 0.4519 0.9852
vt 0.4492 0.9892
vt 0.4480 0.9891
vt 0.4468 0.9890
vt 0.4456 0.9892
vt 0.4503 0.9895
vt 0.4444 0.9895
vt 0.4201 0.9626
vt 0.4248 0.9591
vt 0.4296 0.9626
vt 0.4278 0.9682
vt 0.4219 0.9682
vt 0.9078 0.0834
vt 0.8997 0.0940
vt 0.8956 0.0784
vt 0.9159 0.0940
vt 0.9078 0.0733
vt 0.9201 0.0784
vt 0.8985 0.0329
vt 0.9181 0.0329
vt 0.9083 0.0434
vt 0.8857 0.0476
vt 0.9005 0.0476
vt 0.8997 0.0628
vt 0.9159 0.0628
vt 0.9310 0.0476
vt 0.9162 0.0476
vt 0.8985 0.0622
vt 0.9181 0.0622
vt 0.9083 0.0518
vt 0.9698 0.0834
vt 0.9617 0.0940
vt 0.9576 0.0784
vt 0.9779 0.0940
vt 0.9698 0.0733
vt 0.9821 0.0784
vt 0.9605 0.0329
vt 0.9801 0.0329
vt 0.9703 0.0434
vt 0.9477 0.0476
vt 0.9625 0.0476
vt 0.9617 0.0628
vt 0.9779 0.0628
vt 0.9930 0.0476
vt 0.9782 0.0476
vt 0.9605 0.0622
vt 0.9801 0.0622
vt 0.9703 0.0518
vn -0.3238 0.9353 -0.1425
vn 0.8051 0.4344 0.4037
vn 0.0302 0.9900 0.1381
vn 0.2688 0.9530 -0.1397
vn -0.0612 0.8977 -0.4363
vn 0.6705 0.4682 0.5755
vn 0.6527 0.7154 0.2493
vn 0.4607 0.7614 0.4561
vn -0.1441 0.9274 0.3453
vn 0.4907 0.4563 -0.7423
vn 0.1953 0.9781 -0.0718
vn -0.0231 0.9276 -0.3728
vn -0.4364 0.8972 0.0673
vn 0.6517 0.4835 -0.5844
vn 0.2214 0.7681 -0.6009
vn 0.4607 0.8085 -0.3661
vn 0.4578 0.8875 0.0521
vn -0.6759 0.5365 -0.5053
vn 0.2032 0.9668 -0.1549
vn -0.0312 0.9889 0.1455
vn 0.2034 0.9115 0.3576
vn -0.5785 0.5273 -0.6223
vn -0.4996 0.8120 -0.3018
vn -0.3254 0.7956 -0.5109
vn 0.0803 0.8434 -0.5312
vn -0.6528 0.4744 0.5906
vn -0.2879 0.9352 -0.2060
vn -0.0355 0.9971 0.0666
vn 0.3413 0.9077 -0.2440
vn -0.7540 0.4494 0.4791
vn -0.4640 0.7719 0.4347
vn -0.6447 0.7272 0.2355
vn -0.0988 0.9577 0.2703
vn 0.1334 0.1432 0.9807
vn -0.0804 0.7561 0.6494
vn 0.2047 0.7509 0.6279
vn 0.2091 0.9445 0.2533
vn -0.0370 0.1576 0.9868
vn 0.1878 0.5440 0.8178
vn -0.0676 0.5609 0.8251
vn 0.0717 0.9431 0.3247
vn 0.9916 0.1222 0.0422
vn 0.5222 0.7743 0.3573
vn 0.5353 0.8443 0.0236
vn 0.1061 0.9940 -0.0277
vn 0.9675 0.0852 0.2382
vn 0.8453 0.5326 0.0417
vn 0.8107 0.4805 0.3344
vn 0.2314 0.9720 -0.0406
vn -0.0236 0.1254 -0.9918
vn 0.2066 0.7364 -0.6442
vn -0.0700 0.7808 -0.6208
vn -0.1066 0.9927 -0.0561
vn 0.1042 0.1073 -0.9888
vn -0.0504 0.4900 -0.8702
vn 0.1794 0.4622 -0.8685
vn -0.0102 0.9803 -0.1973
vn -0.9666 0.2534 -0.0383
vn -0.5247 0.8098 -0.2625
vn -0.5160 0.8539 0.0674
vn -0.0446 0.9857 0.1627
vn -0.9410 0.2410 -0.2377
vn -0.7683 0.6400 0.0135
vn -0.7324 0.6187 -0.2841
vn -0.7063 -0.5460 -0.4506
vn -0.0580 -0.6967 -0.7150
vn -0.7896 0.0558 -0.6111
vn -0.0379 0.3330 -0.9422
vn 0.3602 -0.1527 -0.9203
vn 0.2611 -0.9447 -0.1983
vn -0.7937 -0.5721 0.2067
vn -0.9086 0.4083 0.0883
vn 0.2898 0.8502 -0.4394
vn 0.8540 0.0355 -0.5190
vn -0.2898 -0.8502 0.4394
vn -0.8540 -0.0355 0.5190
vn -0.2611 0.9447 0.1983
vn 0.7937 0.5721 -0.2067
vn 0.9086 -0.4083 -0.0883
vn 0.0379 -0.3330 0.9422
vn -0.3602 0.1527 0.9203
vn 0.0580 0.6967 0.7150
vn 0.7063 0.5460 0.4506
vn 0.7896 -0.0558 0.6111
vn 0.9516 -0.0044 0.3074
vn -0.9505 0.0480 0.3071
vn 0.5901 0.0030 -0.8073
vn 0.0002 0.0240 0.9997
vn -0.5895 0.0355 -0.8070
vn -0.5879 0.0371 -0.8081
vn -0.5896 0.0358 -0.8069
vn 0.0007 0.0314 0.9995
vn 0.0005 0.0252 0.9997
vn 0.5890 0.0139 -0.8080
vn 0.5906 0.0050 -0.8070
vn -0.9501 0.0482 0.3082
vn -0.9505 0.0482 0.3070
vn 0.9513 0.0106 0.3082
vn 0.9517 -0.0014 0.3070
vn 0.8337 -0.4748 0.2821
vn -0.9146 -0.2827 0.2891
vn 0.5197 -0.3982 -0.7559
vn -0.0316 -0.4052 0.9137
vn -0.5801 -0.2761 -0.7664
vn -0.9024 0.3091 0.3001
vn 0.5899 0.1508 -0.7933
vn 0.0192 0.2458 0.9691
vn -0.5572 0.2510 -0.7915
vn 0.9419 0.1482 0.3014
vn 0.0779 0.9970 0.0000
vn 0.0778 0.9970 -0.0000
vn 0.2483 -0.8218 0.5128
vn 0.7633 -0.6442 0.0479
vn -0.2383 -0.9610 0.1404
vn -0.0058 -0.7455 -0.6665
vn 0.5782 -0.5161 -0.6319
vn 0.9633 -0.0573 0.2623
vn 0.0280 -0.3581 0.9333
vn -0.7983 -0.4591 0.3897
vn -0.4276 -0.1156 -0.8965
vn 0.5378 0.1142 -0.8353
vn 0.4276 0.1156 0.8965
vn -0.5378 -0.1142 0.8353
vn -0.9633 0.0573 -0.2623
vn -0.0280 0.3581 -0.9333
vn 0.7983 0.4591 -0.3897
vn 0.0058 0.7455 0.6665
vn -0.5782 0.5161 0.6319
vn -0.7633 0.6442 -0.0479
vn -0.2483 0.8218 -0.5128
vn 0.2383 0.9610 -0.1404
vn 0.0310 -0.7975 0.6025
vn 0.4083 -0.9128 0.0117
vn -0.5337 -0.7483 0.3940
vn -0.4406 -0.7186 -0.5381
vn 0.1545 -0.7582 -0.6335
vn 0.8518 -0.5194 0.0686
vn 0.1039 -0.2677 0.9579
vn -0.7562 0.0178 0.6541
vn -0.6120 0.0637 -0.7883
vn 0.2930 -0.2074 -0.9334
vn 0.6120 -0.0637 0.7883
vn -0.2930 0.2074 0.9334
vn -0.8518 0.5194 -0.0686
vn -0.1039 0.2677 -0.9579
vn 0.7562 -0.0178 -0.6541
vn 0.4406 0.7186 0.5381
vn -0.1545 0.7582 0.6335
vn -0.4083 0.9128 -0.0117
vn -0.0310 0.7975 -0.6025
vn 0.5337 0.7483 -0.3940
s off
f 3/1/1 5/2/1 7/3/1
f 1/4/2 2/5/2 8/6/2
f 11/7/3 7/3/3 5/2/3 10/8/3
f 9/9/4 6/10/4 7/3/4 11/7/4
f 6/10/5 3/1/5 7/3/5
f 4/11/6 1/4/6 8/6/6
f 2/5/7 9/9/7 11/7/7 8/6/7
f 8/6/8 11/7/8 10/8/8 4/11/8
f 14/12/9 16/13/9 18/14/9
f 12/15/10 13/16/10 19/17/10
f 22/18/11 18/14/11 16/13/11 21/19/11
f 20/20/12 17/21/12 18/14/12 22/18/12
f 17/21/13 14/12/13 18/14/13
f 15/22/14 12/15/14 19/17/14
f 13/16/15 20/20/15 22/18/15 19/17/15
f 19/17/16 22/18/16 21/19/16 15/22/16
f 25/23/17 27/24/17 29/25/17
f 23/26/18 24/27/18 30/28/18
f 33/29/19 29/25/19 27/24/19 32/30/19
f 31/31/20 28/32/20 29/25/20 33/29/20
f 28/32/21 25/23/21 29/25/21
f 26/33/22 23/26/22 30/28/22
f 24/27/23 31/31/23 33/29/23 30/28/23
f 30/28/24 33/29/24 32/30/24 26/33/24
f 36/34/25 38/35/25 40/36/25
f 34/37/26 35/38/26 41/39/26
f 44/40/27 40/36/27 38/35/27 43/41/27
f 42/42/28 39/43/28 40/36/28 44/40/28
f 39/43/29 36/34/29 40/36/29
f 37/44/30 34/37/30 41/39/30
f 35/38/31 42/42/31 44/40/31 41/39/31
f 41/39/32 44/40/32 43/41/32 37/44/32
f 47/45/33 49/46/33 51/47/33
f 45/48/34 46/49/34 52/50/34
f 55/51/35 51/47/35 49/46/35 54/52/35
f 53/53/36 50/54/36 51/47/36 55/51/36
f 50/54/37 47/45/37 51/47/37
f 48/55/38 45/48/38 52/50/38
f 46/49/39 53/53/39 55/51/39 52/50/39
f 52/50/40 55/51/40 54/52/40 48/55/40
f 58/56/41 60/57/41 62/58/41
f 56/59/42 57/60/42 63/61/42
f 66/62/43 62/58/43 60/57/43 65/63/43
f 64/64/44 61/65/44 62/58/44 66/62/44
f 61/65/45 58/56/45 62/58/45
f 59/66/46 56/59/46 63/61/46
f 57/60/47 64/64/47 66/62/47 63/61/47
f 63/61/48 66/62/48 65/63/48 59/66/48
f 69/67/49 71/68/49 73/69/49
f 67/70/50 68/71/50 74/72/50
f 77/73/51 73/69/51 71/68/51 76/74/51
f 75/75/52 72/76/52 73/69/52 77/73/52
f 72/76/53 69/67/53 73/69/53
f 70/77/54 67/70/54 74/72/54
f 68/71/55 75/75/55 77/73/55 74/72/55
f 74/72/56 77/73/56 76/74/56 70/77/56
f 80/78/57 82/79/57 84/80/57
f 78/81/58 79/82/58 85/83/58
f 88/84/59 84/80/59 82/79/59 87/85/59
f 86/86/60 83/87/60 84/80/60 88/84/60
f 83/87/61 80/78/61 84/80/61
f 81/88/62 78/81/62 85/83/62
f 79/82/63 86/86/63 88/84/63 85/83/63
f 85/83/64 88/84/64 87/85/64 81/88/64
f 89/89/65 90/90/65 91/91/65
f 90/90/66 89/89/66 94/92/66
f 89/89/67 91/91/67 92/93/67
f 89/89/68 92/93/68 93/94/68
f 89/89/69 93/94/69 94/92/69
f 90/95/70 94/96/70 99/97/70
f 91/98/71 90/95/71 95/99/71
f 92/93/72 91/91/72 96/100/72
f 93/94/73 92/93/73 97/101/73
f 94/96/74 93/102/74 98/103/74
f 90/95/75 99/97/75 95/99/75
f 91/98/76 95/99/76 96/104/76
f 92/93/77 96/100/77 97/101/77
f 93/102/78 97/105/78 98/103/78
f 94/96/79 98/103/79 99/97/79
f 95/99/80 99/97/80 100/106/80
f 96/104/81 95/99/81 100/106/81
f 97/105/82 96/104/82 100/106/82
f 98/103/83 97/105/83 100/106/83
f 99/97/84 98/103/84 100/106/84
f 113/107/85 110/108/85 109/109/85 112/110/85
f 117/111/86 108/112/86 107/113/86 116/114/86
f 119/115/87 106/116/87 110/108/87 113/107/87
f 112/117/88 109/118/88 108/112/88 117/111/88
f 116/114/89 107/113/89 106/116/89 119/115/89
f 102/119/90 115/120/90 120/121/90 101/122/90
f 115/120/91 116/114/91 119/115/91 120/121/91
f 104/123/92 111/124/92 118/125/92 103/126/92
f 111/124/93 112/117/93 117/111/93 118/125/93
f 101/122/94 120/121/94 114/127/94 105/128/94
f 120/121/95 119/115/95 113/107/95 114/127/95
f 103/126/96 118/125/96 115/120/96 102/119/96
f 118/125/97 117/111/97 116/114/97 115/120/97
f 105/128/98 114/127/98 111/129/98 104/130/98
f 114/127/99 113/107/99 112/110/99 111/129/99
f 110/108/100 125/131/100 124/132/100 109/109/100
f 108/112/101 123/133/101 122/134/101 107/113/101
f 106/116/102 121/135/102 125/131/102 110/108/102
f 109/118/103 124/136/103 123/133/103 108/112/103
f 107/113/104 122/134/104 121/135/104 106/116/104
f 123/133/105 128/137/105 127/138/105 122/134/105
f 121/135/106 126/139/106 130/140/106 125/131/106
f 124/136/107 129/141/107 128/137/107 123/133/107
f 122/134/108 127/138/108 126/139/108 121/135/108
f 125/131/109 130/140/109 129/142/109 124/132/109
f 128/143/110 129/144/110 130/145/110 126/146/110
f 127/147/111 128/143/111 126/146/111
f 131/148/112 132/149/112 133/150/112
f 132/149/113 131/148/113 136/151/113
f 131/148/114 133/150/114 134/152/114
f 131/148/115 134/152/115 135/153/115
f 131/148/116 135/153/116 136/151/116
f 132/154/117 136/155/117 141/156/117
f 133/157/118 132/154/118 137/158/118
f 134/152/119 133/150/119 138/159/119
f 135/153/120 134/152/120 139/160/120
f 136/155/121 135/161/121 140/162/121
f 132/154/122 141/156/122 137/158/122
f 133/157/123 137/158/123 138/163/123
f 134/152/124 138/159/124 139/160/124
f 135/161/125 139/164/125 140/162/125
f 136/155/126 140/162/126 141/156/126
f 137/158/127 141/156/127 142/165/127
f 138/163/128 137/158/128 142/165/128
f 139/164/129 138/163/129 142/165/129
f 140/162/130 139/164/130 142/165/130
f 141/156/131 140/162/131 142/165/131
f 143/166/132 144/167/132 145/168/132
f 144/167/133 143/166/133 148/169/133
f 143/166/134 145/168/134 146/170/134
f 143/166/135 146/170/135 147/171/135
f 143/166/136 147/171/136 148/169/136
f 144/172/137 148/173/137 153/174/137
f 145/175/138 144/172/138 149/176/138
f 146/170/139 145/168/139 150/177/139
f 147/171/140 146/170/140 151/178/140
f 148/173/141 147/179/141 152/180/141
f 144/172/142 153/174/142 149/176/142
f 145/175/143 149/176/143 150/181/143
f 146/170/144 150/177/144 151/178/144
f 147/179/145 151/182/145 152/180/145
f 148/173/146 152/180/146 153/174/146
f 149/176/147 153/174/147 154/183/147
f 150/181/148 149/176/148 154/183/148
f 151/182/149 150/181/149 154/183/149
f 152/180/150 151/182/150 154/183/150
f 153/174/151 152/180/151 154/183/151
