# Blender v2.78 (sub 0) OBJ File: 'Low_Poly_Trees_Pack.blend'
# www.blender.org
g Palm_Tree_Coconut_OneSided_m_06
v -2.083624 3.624833 0.776949
v -1.853103 4.046169 1.024735
v -0.706340 4.572461 0.572588
v -1.991058 4.095033 0.579943
v -1.256722 4.620028 0.441375
v -1.146385 4.564626 0.915765
v -1.196074 4.641156 0.685536
v -1.935804 4.110141 0.812960
v -1.589865 4.397511 1.037079
v -1.716120 4.460905 0.494245
v -1.657753 4.482060 0.775419
v -0.441574 3.901786 2.018351
v -0.281266 4.347529 1.747736
v -0.676827 4.558883 0.609606
v -0.748423 4.304425 1.815022
v -0.856232 4.650114 1.157725
v -0.370781 4.717818 1.080796
v -0.622361 4.732877 1.106434
v -0.517635 4.369755 1.790050
v -0.309008 4.614779 1.396009
v -0.868613 4.563146 1.476610
v -0.592297 4.643665 1.447143
v 0.813128 4.444076 0.191689
v 0.436352 4.780197 0.079416
v -0.656000 4.562987 0.570642
v 0.540489 4.748699 0.508572
v -0.189639 4.785977 0.712913
v -0.298655 4.818951 0.263648
v -0.267670 4.842434 0.496922
v 0.475292 4.802909 0.300003
v 0.082002 4.929915 0.131196
v 0.206747 4.892183 0.645280
v 0.127970 4.959110 0.395746
v -0.826004 4.100115 -0.868562
v -1.041985 4.484239 -0.597742
v -0.713306 4.552392 0.601921
v -0.601365 4.503944 -0.636181
v -0.532259 4.754779 0.115042
v -0.993524 4.734150 0.155281
v -0.763635 4.789355 0.149646
v -0.823110 4.534905 -0.612484
v -1.068827 4.711607 -0.284303
v -0.541011 4.735212 -0.330348
v -0.806712 4.774407 -0.301730
v -1.285445 3.041242 -0.288846
v -1.513019 3.483770 0.115754
v -0.642270 4.515306 0.537655
v -1.141475 3.625721 -0.435300
v -0.829467 4.320889 -0.071172
v -1.218421 4.172286 0.505705
v -1.050387 4.295491 0.215241
v -1.356730 3.592490 -0.167120
v -1.425148 3.879301 0.373930
v -0.980077 4.049344 -0.286177
v -1.239452 4.011486 0.034697
v -1.017100 3.077088 1.550926
v -0.935876 3.692416 1.663258
v -0.639210 4.560928 0.570495
v -1.338475 3.533860 1.233391
v -1.150930 4.288118 0.716203
v -0.723870 4.440262 1.165829
v -0.964183 4.415779 0.946787
v -1.169708 3.649163 1.463575
v -0.850008 4.155866 1.487620
v -1.332280 3.965930 0.972685
v -1.131795 4.105914 1.249208
v 0.696710 3.395400 1.103187
v 0.657314 4.007711 0.895225
v -0.640673 4.537532 0.550215
v 0.269944 3.846727 1.390498
v -0.380102 4.442626 1.175449
v 0.021058 4.599763 0.650046
v -0.198002 4.576485 0.920483
v 0.461026 3.975011 1.161119
v 0.397118 4.388379 0.762361
v -0.066910 4.195538 1.355646
v 0.161851 4.351676 1.081816
v 0.503615 3.573921 -0.638967
v 0.093133 4.046646 -0.677620
v -0.655383 4.522558 0.569567
v 0.519562 4.072011 -0.256716
v -0.033013 4.583286 0.360636
v -0.475230 4.527330 -0.081465
v -0.264158 4.612084 0.141411
v 0.311631 4.108376 -0.476734
v -0.224747 4.351342 -0.449478
v 0.286070 4.381729 0.054723
v 0.037264 4.427822 -0.209330
v -0.388927 4.388070 0.661364
v -0.458791 4.265714 0.604780
v -0.424421 4.403816 0.544251
v -0.436311 4.514554 0.618579
v -0.478031 4.444889 0.725047
v -0.491924 4.291099 0.716517
v -0.549353 4.316576 0.527024
v -0.535460 4.470367 0.535554
v -0.568593 4.495751 0.647291
v -0.602964 4.357650 0.707820
v -0.591073 4.246912 0.633491
v -0.638457 4.373396 0.590707
v 0.162033 0.000000 0.123375
v 0.167440 0.000000 -0.117427
v -0.059905 0.000000 -0.196981
v -0.205819 0.000000 -0.005346
v -0.068654 0.000000 0.192645
v -0.573658 4.299492 0.588516
v -0.573451 4.307142 0.527853
v -0.629716 4.295197 0.507110
v -0.664696 4.280165 0.554954
v -0.630050 4.282819 0.605266
v -0.256826 1.568483 0.162404
v -0.479514 2.963664 0.450909
v -0.420707 2.960618 0.535164
v -0.164638 1.565747 0.294918
v -0.007360 1.580074 0.088359
v -0.321075 2.976566 0.404313
v -0.417938 2.973520 0.370038
v -0.159623 1.577338 0.034743
v -0.322786 2.968592 0.506367
v -0.010460 1.572911 0.249155
v -0.565331 4.406799 0.633335
v -0.564917 4.422150 0.511603
v -0.677821 4.398180 0.469979
v -0.748015 4.368016 0.565987
v -0.678492 4.373342 0.666946
v -0.678644 4.638792 0.626435
v -0.678509 4.643790 0.586798
v -0.715272 4.635986 0.573245
v -0.738127 4.626163 0.604506
v -0.715490 4.627898 0.637379
v -0.736784 4.222452 0.695671
v -0.876203 4.282104 0.688074
v -0.767593 4.256212 0.581066
v -0.638579 4.277677 0.609766
v -0.667457 4.316836 0.734513
v -0.814315 4.319571 0.782908
v -0.864164 4.374197 0.597473
v -0.717305 4.371461 0.549077
v -0.655418 4.408927 0.643912
v -0.764027 4.434821 0.750919
v -0.893041 4.413355 0.722219
v -0.794837 4.468581 0.636314
v -0.484967 4.263595 0.334398
v -0.644408 4.292956 0.403261
v -0.560593 4.329155 0.253355
v -0.420281 4.368783 0.246185
v -0.417383 4.357074 0.391662
v -0.555900 4.310211 0.488739
v -0.678263 4.416291 0.357608
v -0.539746 4.463155 0.260531
v -0.451238 4.480410 0.346008
v -0.535054 4.444211 0.495914
v -0.675365 4.404583 0.503085
v -0.610679 4.509772 0.414872
vt 0.6889 0.1381
vt 0.7008 0.1656
vt 0.6889 0.1646
vt 0.6889 0.2373
vt 0.6776 0.2105
vt 0.6889 0.2097
vt 0.6889 0.1884
vt 0.7029 0.1895
vt 0.6750 0.1895
vt 0.6771 0.1656
vt 0.7003 0.2105
vt 0.8193 0.1381
vt 0.8311 0.1656
vt 0.8193 0.1646
vt 0.8193 0.2373
vt 0.8080 0.2105
vt 0.8193 0.2097
vt 0.8193 0.1884
vt 0.8333 0.1895
vt 0.8053 0.1895
vt 0.8075 0.1656
vt 0.8306 0.2105
vt 0.8193 0.1381
vt 0.8311 0.1656
vt 0.8193 0.1646
vt 0.8193 0.2373
vt 0.8080 0.2105
vt 0.8193 0.2097
vt 0.8193 0.1884
vt 0.8333 0.1895
vt 0.8053 0.1895
vt 0.8075 0.1656
vt 0.8306 0.2105
vt 0.6889 0.1381
vt 0.7008 0.1656
vt 0.6889 0.1646
vt 0.6889 0.2373
vt 0.6776 0.2105
vt 0.6889 0.2097
vt 0.6889 0.1884
vt 0.7029 0.1895
vt 0.6750 0.1895
vt 0.6771 0.1656
vt 0.7003 0.2105
vt 0.8193 0.1381
vt 0.8311 0.1656
vt 0.8193 0.1646
vt 0.8193 0.2373
vt 0.8080 0.2105
vt 0.8193 0.2097
vt 0.8193 0.1884
vt 0.8333 0.1895
vt 0.8053 0.1895
vt 0.8075 0.1656
vt 0.8306 0.2105
vt 0.9509 0.1381
vt 0.9628 0.1656
vt 0.9509 0.1646
vt 0.9509 0.2373
vt 0.9396 0.2105
vt 0.9509 0.2097
vt 0.9509 0.1884
vt 0.9649 0.1895
vt 0.9369 0.1895
vt 0.9391 0.1656
vt 0.9622 0.2105
vt 0.9509 0.1381
vt 0.9628 0.1656
vt 0.9509 0.1646
vt 0.9509 0.2373
vt 0.9396 0.2105
vt 0.9509 0.2097
vt 0.9509 0.1884
vt 0.9649 0.1895
vt 0.9369 0.1895
vt 0.9391 0.1656
vt 0.9622 0.2105
vt 0.9509 0.1381
vt 0.9628 0.1656
vt 0.9509 0.1646
vt 0.9509 0.2373
vt 0.9396 0.2105
vt 0.9509 0.2097
vt 0.9509 0.1884
vt 0.9649 0.1895
vt 0.9369 0.1895
vt 0.9391 0.1656
vt 0.9622 0.2105
vt 0.9078 0.0834
vt 0.8997 0.0940
vt 0.8956 0.0784
vt 0.9159 0.0940
vt 0.9078 0.0733
vt 0.9201 0.0784
vt 0.8985 0.0329
vt 0.9181 0.0329
vt 0.9083 0.0434
vt 0.8857 0.0476
vt 0.9005 0.0476
vt 0.8997 0.0628
vt 0.9159 0.0628
vt 0.9310 0.0476
vt 0.9162 0.0476
vt 0.8985 0.0622
vt 0.9181 0.0622
vt 0.9083 0.0518
vt 0.4446 0.9515
vt 0.4453 0.9829
vt 0.4440 0.9827
vt 0.4424 0.9516
vt 0.4508 0.9515
vt 0.4494 0.9830
vt 0.4481 0.9832
vt 0.4487 0.9514
vt 0.4466 0.9515
vt 0.4467 0.9831
vt 0.4529 0.9517
vt 0.4508 0.9828
vt 0.4508 0.8881
vt 0.4497 0.9208
vt 0.4464 0.9209
vt 0.4461 0.8883
vt 0.4601 0.8892
vt 0.4563 0.9215
vt 0.4530 0.9210
vt 0.4555 0.8884
vt 0.4431 0.9211
vt 0.4414 0.8887
vt 0.4397 0.9213
vt 0.4368 0.8889
vt 0.4450 0.9852
vt 0.4429 0.9851
vt 0.4497 0.9852
vt 0.4482 0.9852
vt 0.4467 0.9852
vt 0.4519 0.9852
vt 0.4492 0.9892
vt 0.4480 0.9891
vt 0.4468 0.9890
vt 0.4456 0.9892
vt 0.4503 0.9895
vt 0.4444 0.9895
vt 0.4201 0.9626
vt 0.4248 0.9591
vt 0.4296 0.9626
vt 0.4278 0.9682
vt 0.4219 0.9682
vt 0.9078 0.0834
vt 0.8997 0.0940
vt 0.8956 0.0784
vt 0.9159 0.0940
vt 0.9078 0.0733
vt 0.9201 0.0784
vt 0.8985 0.0329
vt 0.9181 0.0329
vt 0.9083 0.0434
vt 0.8857 0.0476
vt 0.9005 0.0476
vt 0.8997 0.0628
vt 0.9159 0.0628
vt 0.9310 0.0476
vt 0.9162 0.0476
vt 0.8985 0.0622
vt 0.9181 0.0622
vt 0.9083 0.0518
vt 0.9698 0.0834
vt 0.9617 0.0940
vt 0.9576 0.0784
vt 0.9779 0.0940
vt 0.9698 0.0733
vt 0.9821 0.0784
vt 0.9605 0.0329
vt 0.9801 0.0329
vt 0.9703 0.0434
vt 0.9477 0.0476
vt 0.9625 0.0476
vt 0.9617 0.0628
vt 0.9779 0.0628
vt 0.9930 0.0476
vt 0.9782 0.0476
vt 0.9605 0.0622
vt 0.9801 0.0622
vt 0.9703 0.0518
vn 0.1123 0.9872 -0.1133
vn -0.8786 0.2368 0.4147
vn -0.3268 0.9451 -0.0020
vn -0.2429 0.9032 0.3538
vn 0.1948 0.9426 0.2713
vn -0.9404 0.2712 0.2054
vn -0.7251 0.5568 0.4053
vn -0.7828 0.6085 0.1301
vn -0.3733 0.8876 -0.2699
vn 0.1982 0.4556 0.8678
vn -0.2577 0.9318 0.2558
vn 0.1166 0.9574 0.2643
vn 0.0225 0.9428 -0.3326
vn -0.0257 0.4349 0.9001
vn 0.1831 0.7884 0.5872
vn -0.1497 0.7577 0.6352
vn -0.4909 0.7830 0.3820
vn 0.6846 0.7029 -0.1932
vn -0.1951 0.9298 0.3122
vn -0.2962 0.9535 -0.0551
vn -0.5846 0.8113 -0.0040
vn 0.7205 0.6920 -0.0454
vn 0.3655 0.9166 -0.1620
vn 0.4297 0.8972 0.1022
vn 0.1966 0.8773 0.4378
vn -0.1730 0.5007 -0.8482
vn 0.1409 0.9889 -0.0462
vn -0.2337 0.9723 -0.0099
vn -0.1949 0.8597 0.4721
vn -0.0212 0.5075 -0.8614
vn -0.2229 0.7788 -0.5863
vn 0.0484 0.7910 -0.6099
vn -0.3475 0.9189 -0.1866
vn -0.8743 -0.0059 -0.4853
vn -0.6138 0.6712 -0.4156
vn -0.7640 0.6202 -0.1776
vn -0.5131 0.8557 0.0661
vn -0.7815 0.0365 -0.6228
vn -0.8605 0.3970 -0.3193
vn -0.7190 0.4562 -0.5243
vn -0.4877 0.8688 -0.0860
vn -0.6425 -0.0547 0.7643
vn -0.7446 0.6230 0.2397
vn -0.5056 0.7311 0.4581
vn -0.2428 0.9569 0.1594
vn -0.7740 -0.1113 0.6233
vn -0.6393 0.3714 0.6734
vn -0.8371 0.2896 0.4641
vn -0.3022 0.9157 0.2649
vn 0.7637 0.2511 0.5947
vn 0.2321 0.7655 0.6002
vn 0.3680 0.8530 0.3701
vn -0.0949 0.9954 0.0088
vn 0.6897 0.2112 0.6926
vn 0.6104 0.5968 0.5208
vn 0.4792 0.5302 0.6995
vn -0.0389 0.9846 0.1703
vn 0.5485 0.4170 -0.7247
vn 0.3501 0.9138 -0.2061
vn 0.0781 0.9140 -0.3981
vn -0.3011 0.9505 -0.0763
vn 0.6917 0.4256 -0.5834
vn 0.3125 0.7546 -0.5770
vn 0.5283 0.7651 -0.3681
vn 0.8796 -0.3568 -0.3146
vn 0.7346 -0.5813 0.3499
vn 0.9320 0.2657 -0.2467
vn 0.6911 0.4502 0.5654
vn 0.5380 -0.0951 0.8376
vn 0.1929 -0.9429 0.2714
vn 0.4227 -0.4500 -0.7867
vn 0.3838 0.5427 -0.7471
vn -0.0001 0.8368 0.5475
vn -0.1051 -0.0456 0.9934
vn 0.0001 -0.8368 -0.5475
vn 0.1051 0.0456 -0.9934
vn -0.1929 0.9429 -0.2714
vn -0.4227 0.4500 0.7867
vn -0.3838 -0.5427 0.7471
vn -0.6912 -0.4502 -0.5654
vn -0.5380 0.0951 -0.8376
vn -0.7346 0.5813 -0.3499
vn -0.8796 0.3568 0.3146
vn -0.9320 -0.2657 0.2467
vn -0.8112 -0.1584 0.5629
vn 0.3215 0.1482 -0.9352
vn 0.2839 -0.0058 0.9588
vn -0.7924 -0.0638 -0.6067
vn 0.9826 0.1835 0.0292
vn 0.9940 0.1071 0.0230
vn 0.9766 0.2128 0.0301
vn -0.7955 0.0387 -0.6047
vn -0.7955 -0.0017 -0.6059
vn 0.2868 -0.0450 0.9569
vn 0.2880 -0.1109 0.9512
vn 0.3259 0.1575 -0.9322
vn 0.3141 0.2762 -0.9084
vn -0.8188 -0.0873 0.5675
vn -0.7993 -0.2414 0.5503
vn -0.6157 -0.6414 0.4578
vn 0.3708 -0.1569 -0.9154
vn 0.3652 -0.3828 0.8486
vn -0.6132 -0.5053 -0.6071
vn 0.9972 -0.0749 -0.0060
vn 0.2348 0.4180 -0.8776
vn 0.2416 0.1465 0.9592
vn -0.8188 0.1153 -0.5624
vn 0.8963 0.4395 0.0585
vn -0.8211 -0.0533 0.5683
vn -0.2484 0.9611 0.1204
vn -0.2484 0.9612 0.1203
vn -0.3803 -0.9099 -0.1658
vn -0.3568 -0.7656 0.5353
vn 0.2260 -0.9163 -0.3307
vn 0.6758 -0.6440 0.3586
vn 0.2578 -0.5236 0.8120
vn -0.7614 -0.2530 0.5968
vn -0.6733 -0.4719 -0.5692
vn 0.2594 -0.3617 -0.8955
vn 0.9764 0.0724 0.2033
vn 0.3126 0.1249 0.9416
vn -0.9764 -0.0724 -0.2033
vn -0.3126 -0.1249 -0.9416
vn 0.7614 0.2530 -0.5968
vn 0.6733 0.4719 0.5692
vn -0.2594 0.3617 0.8955
vn -0.6758 0.6440 -0.3586
vn -0.2578 0.5236 -0.8120
vn 0.3568 0.7656 -0.5353
vn 0.3803 0.9099 0.1658
vn -0.2260 0.9163 0.3307
vn -0.3272 -0.8604 -0.3907
vn -0.0645 -0.9631 0.2612
vn 0.1588 -0.6899 -0.7063
vn 0.8264 -0.5598 -0.0615
vn 0.5580 -0.6878 0.4642
vn -0.4504 -0.6613 0.5999
vn -0.7557 -0.3995 -0.5190
vn -0.0690 0.0640 -0.9956
vn 0.9641 0.2654 0.0022
vn 0.5990 -0.1354 0.7892
vn -0.9641 -0.2654 -0.0022
vn -0.5990 0.1354 -0.7892
vn 0.4504 0.6613 -0.5998
vn 0.7557 0.3995 0.5190
vn 0.0690 -0.0640 0.9956
vn -0.8264 0.5598 0.0615
vn -0.5580 0.6878 -0.4642
vn 0.0645 0.9631 -0.2612
vn 0.3272 0.8604 0.3907
vn -0.1588 0.6899 0.7063
s off
f 3/1/1 5/2/1 7/3/1
f 1/4/2 2/5/2 8/6/2
f 11/7/3 7/3/3 5/2/3 10/8/3
f 9/9/4 6/10/4 7/3/4 11/7/4
f 6/10/5 3/1/5 7/3/5
f 4/11/6 1/4/6 8/6/6
f 2/5/7 9/9/7 11/7/7 8/6/7
f 8/6/8 11/7/8 10/8/8 4/11/8
f 14/12/9 16/13/9 18/14/9
f 12/15/10 13/16/10 19/17/10
f 22/18/11 18/14/11 16/13/11 21/19/11
f 20/20/12 17/21/12 18/14/12 22/18/12
f 17/21/13 14/12/13 18/14/13
f 15/22/14 12/15/14 19/17/14
f 13/16/15 20/20/15 22/18/15 19/17/15
f 19/17/16 22/18/16 21/19/16 15/22/16
f 25/23/17 27/24/17 29/25/17
f 23/26/18 24/27/18 30/28/18
f 33/29/19 29/25/19 27/24/19 32/30/19
f 31/31/20 28/32/20 29/25/20 33/29/20
f 28/32/21 25/23/21 29/25/21
f 26/33/22 23/26/22 30/28/22
f 24/27/23 31/31/23 33/29/23 30/28/23
f 30/28/24 33/29/24 32/30/24 26/33/24
f 36/34/25 38/35/25 40/36/25
f 34/37/26 35/38/26 41/39/26
f 44/40/27 40/36/27 38/35/27 43/41/27
f 42/42/28 39/43/28 40/36/28 44/40/28
f 39/43/29 36/34/29 40/36/29
f 37/44/30 34/37/30 41/39/30
f 35/38/31 42/42/31 44/40/31 41/39/31
f 41/39/32 44/40/32 43/41/32 37/44/32
f 47/45/33 49/46/33 51/47/33
f 45/48/34 46/49/34 52/50/34
f 55/51/35 51/47/35 49/46/35 54/52/35
f 53/53/36 50/54/36 51/47/36 55/51/36
f 50/54/37 47/45/37 51/47/37
f 48/55/38 45/48/38 52/50/38
f 46/49/39 53/53/39 55/51/39 52/50/39
f 52/50/40 55/51/40 54/52/40 48/55/40
f 58/56/41 60/57/41 62/58/41
f 56/59/42 57/60/42 63/61/42
f 66/62/43 62/58/43 60/57/43 65/63/43
f 64/64/44 61/65/44 62/58/44 66/62/44
f 61/65/45 58/56/45 62/58/45
f 59/66/46 56/59/46 63/61/46
f 57/60/47 64/64/47 66/62/47 63/61/47
f 63/61/48 66/62/48 65/63/48 59/66/48
f 69/67/49 71/68/49 73/69/49
f 67/70/50 68/71/50 74/72/50
f 77/73/51 73/69/51 71/68/51 76/74/51
f 75/75/52 72/76/52 73/69/52 77/73/52
f 72/76/53 69/67/53 73/69/53
f 70/77/54 67/70/54 74/72/54
f 68/71/55 75/75/55 77/73/55 74/72/55
f 74/72/56 77/73/56 76/74/56 70/77/56
f 80/78/57 82/79/57 84/80/57
f 78/81/58 79/82/58 85/83/58
f 88/84/59 84/80/59 82/79/59 87/85/59
f 86/86/60 83/87/60 84/80/60 88/84/60
f 83/87/61 80/78/61 84/80/61
f 81/88/62 78/81/62 85/83/62
f 79/82/63 86/86/63 88/84/63 85/83/63
f 85/83/64 88/84/64 87/85/64 81/88/64
f 89/89/65 90/90/65 91/91/65
f 90/90/66 89/89/66 94/92/66
f 89/89/67 91/91/67 92/93/67
f 89/89/68 92/93/68 93/94/68
f 89/89/69 93/94/69 94/92/69
f 90/95/70 94/96/70 99/97/70
f 91/98/71 90/95/71 95/99/71
f 92/93/72 91/91/72 96/100/72
f 93/94/73 92/93/73 97/101/73
f 94/96/74 93/102/74 98/103/74
f 90/95/75 99/97/75 95/99/75
f 91/98/76 95/99/76 96/104/76
f 92/93/77 96/100/77 97/101/77
f 93/102/78 97/105/78 98/103/78
f 94/96/79 98/103/79 99/97/79
f 95/99/80 99/97/80 100/106/80
f 96/104/81 95/99/81 100/106/81
f 97/105/82 96/104/82 100/106/82
f 98/103/83 97/105/83 100/106/83
f 99/97/84 98/103/84 100/106/84
f 113/107/85 110/108/85 109/109/85 112/110/85
f 117/111/86 108/112/86 107/113/86 116/114/86
f 119/115/87 106/116/87 110/108/87 113/107/87
f 112/117/88 109/118/88 108/112/88 117/111/88
f 116/114/89 107/113/89 106/116/89 119/115/89
f 102/119/90 115/120/90 120/121/90 101/122/90
f 115/120/91 116/114/91 119/115/91 120/121/91
f 104/123/92 111/124/92 118/125/92 103/126/92
f 111/124/93 112/117/93 117/111/93 118/125/93
f 101/122/94 120/121/94 114/127/94 105/128/94
f 120/121/95 119/115/95 113/107/95 114/127/95
f 103/126/96 118/125/96 115/120/96 102/119/96
f 118/125/97 117/111/97 116/114/97 115/120/97
f 105/128/98 114/127/98 111/129/98 104/130/98
f 114/127/99 113/107/99 112/110/99 111/129/99
f 110/108/100 125/131/100 124/132/100 109/109/100
f 108/112/101 123/133/101 122/134/101 107/113/101
f 106/116/102 121/135/102 125/131/102 110/108/102
f 109/118/103 124/136/103 123/133/103 108/112/103
f 107/113/104 122/134/104 121/135/104 106/116/104
f 123/133/105 128/137/105 127/138/105 122/134/105
f 121/135/106 126/139/106 130/140/106 125/131/106
f 124/136/107 129/141/107 128/137/107 123/133/107
f 122/134/108 127/138/108 126/139/108 121/135/108
f 125/131/109 130/140/109 129/142/109 124/132/109
f 128/143/110 129/144/110 130/145/110 126/146/110
f 127/147/111 128/143/111 126/146/111
f 131/148/112 132/149/112 133/150/112
f 132/149/113 131/148/113 136/151/113
f 131/148/114 133/150/114 134/152/114
f 131/148/115 134/152/115 135/153/115
f 131/148/116 135/153/116 136/151/116
f 132/154/117 136/155/117 141/156/117
f 133/157/118 132/154/118 137/158/118
f 134/152/119 133/150/119 138/159/119
f 135/153/120 134/152/120 139/160/120
f 136/155/121 135/161/121 140/162/121
f 132/154/122 141/156/122 137/158/122
f 133/157/123 137/158/123 138/163/123
f 134/152/124 138/159/124 139/160/124
f 135/161/125 139/164/125 140/162/125
f 136/155/126 140/162/126 141/156/126
f 137/158/127 141/156/127 142/165/127
f 138/163/128 137/158/128 142/165/128
f 139/164/129 138/163/129 142/165/129
f 140/162/130 139/164/130 142/165/130
f 141/156/131 140/162/131 142/165/131
f 143/166/132 144/167/132 145/168/132
f 144/167/133 143/166/133 148/169/133
f 143/166/134 145/168/134 146/170/134
f 143/166/135 146/170/135 147/171/135
f 143/166/136 147/171/136 148/169/136
f 144/172/137 148/173/137 153/174/137
f 145/175/138 144/172/138 149/176/138
f 146/170/139 145/168/139 150/177/139
f 147/171/140 146/170/140 151/178/140
f 148/173/141 147/179/141 152/180/141
f 144/172/142 153/174/142 149/176/142
f 145/175/143 149/176/143 150/181/143
f 146/170/144 150/177/144 151/178/144
f 147/179/145 151/182/145 152/180/145
f 148/173/146 152/180/146 153/174/146
f 149/176/147 153/174/147 154/183/147
f 150/181/148 149/176/148 154/183/148
f 151/182/149 150/181/149 154/183/149
f 152/180/150 151/182/150 154/183/150
f 153/174/151 152/180/151 154/183/151
