# Blender v2.78 (sub 0) OBJ File: 'Low_Poly_Trees_Pack.blend'
# www.blender.org
g Palm_Tree_OneSided_s_06
v -0.791824 2.636897 -0.599330
v -1.061660 2.976321 -0.325056
v -0.510232 3.613562 0.429943
v -0.585896 3.086317 -0.564090
v -0.437611 3.548130 -0.093785
v -0.935669 3.432980 0.156449
v -0.700344 3.532784 0.028218
v -0.838661 3.065797 -0.454187
v -1.059246 3.247220 -0.052415
v -0.489329 3.378984 -0.338753
v -0.792884 3.356182 -0.207597
v -1.374159 2.476148 0.597160
v -1.315967 2.917618 0.834519
v -0.518282 3.644458 0.462052
v -1.379980 2.927232 0.350889
v -0.938767 3.524153 0.268331
v -0.869397 3.502395 0.773937
v -0.918700 3.557580 0.523788
v -1.372312 2.954933 0.595474
v -1.131648 3.274390 0.860292
v -1.208328 3.285907 0.280954
v -1.200400 3.320769 0.574084
v 0.726566 2.856576 0.636194
v 0.599311 3.321069 0.444681
v -0.513596 3.630085 0.438861
v 0.425075 3.213350 0.921806
v -0.169382 3.626386 0.864195
v 0.009127 3.729240 0.361180
v -0.097225 3.721180 0.619037
v 0.510175 3.306549 0.694549
v 0.339146 3.594924 0.376232
v 0.130429 3.465889 0.947778
v 0.232265 3.579563 0.676132
v 0.402892 2.859136 -0.511174
v 0.074506 3.237317 -0.542096
v -0.524306 3.618046 0.455654
v 0.415649 3.257609 -0.205372
v -0.026411 3.666629 0.288509
v -0.380184 3.621864 -0.065172
v -0.211326 3.689667 0.113129
v 0.249305 3.286700 -0.381387
v -0.179798 3.481074 -0.359582
v 0.228856 3.505383 0.043778
v 0.029811 3.542257 -0.167464
v 0.129627 0.000000 0.098700
v 0.133952 0.000000 -0.093941
v -0.047924 0.000000 -0.157585
v -0.164655 0.000000 -0.004277
v -0.054923 0.000000 0.154116
v -0.458926 3.439593 0.470813
v -0.458761 3.445714 0.422282
v -0.503772 3.436157 0.405688
v -0.531757 3.424132 0.443963
v -0.504040 3.426255 0.484213
v -0.205461 1.254786 0.129923
v -0.383611 2.370931 0.360727
v -0.336566 2.368494 0.428131
v -0.131710 1.252598 0.235934
v -0.005888 1.264059 0.070687
v -0.256860 2.381252 0.323451
v -0.334350 2.378816 0.296031
v -0.127698 1.261870 0.027795
v -0.258229 2.374873 0.405093
v -0.008368 1.258328 0.199324
v -0.452265 3.525439 0.506668
v -0.451933 3.537719 0.409282
v -0.542257 3.518544 0.375983
v -0.598412 3.494412 0.452790
v -0.542794 3.498673 0.533557
v -0.542915 3.711033 0.501148
v -0.542807 3.715031 0.469438
v -0.572217 3.708788 0.458596
v -0.590502 3.700931 0.483605
v -0.572392 3.702318 0.509903
v -0.329654 2.759758 1.692241
v -0.219441 3.141528 1.514820
v -0.515797 3.620336 0.427645
v -0.670796 2.994663 1.444942
v -0.793639 3.490082 0.856637
v -0.314218 3.621080 0.929053
v -0.565690 3.600189 0.894029
v -0.458065 3.103235 1.494497
v -0.233379 3.444577 1.259153
v -0.774055 3.268649 1.175446
v -0.519895 3.400522 1.235562
vt 0.8193 0.1381
vt 0.8311 0.1656
vt 0.8193 0.1646
vt 0.8193 0.2373
vt 0.8080 0.2105
vt 0.8193 0.2097
vt 0.8193 0.1884
vt 0.8333 0.1895
vt 0.8053 0.1895
vt 0.8075 0.1656
vt 0.8306 0.2105
vt 0.9509 0.1381
vt 0.9628 0.1656
vt 0.9509 0.1646
vt 0.9509 0.2373
vt 0.9396 0.2105
vt 0.9509 0.2097
vt 0.9509 0.1884
vt 0.9649 0.1895
vt 0.9369 0.1895
vt 0.9391 0.1656
vt 0.9622 0.2105
vt 0.9509 0.1381
vt 0.9628 0.1656
vt 0.9509 0.1646
vt 0.9509 0.2373
vt 0.9396 0.2105
vt 0.9509 0.2097
vt 0.9509 0.1884
vt 0.9649 0.1895
vt 0.9369 0.1895
vt 0.9391 0.1656
vt 0.9622 0.2105
vt 0.9509 0.1381
vt 0.9628 0.1656
vt 0.9509 0.1646
vt 0.9509 0.2373
vt 0.9396 0.2105
vt 0.9509 0.2097
vt 0.9509 0.1884
vt 0.9649 0.1895
vt 0.9369 0.1895
vt 0.9391 0.1656
vt 0.9622 0.2105
vt 0.4446 0.9515
vt 0.4453 0.9829
vt 0.4440 0.9827
vt 0.4424 0.9516
vt 0.4508 0.9515
vt 0.4494 0.9830
vt 0.4481 0.9832
vt 0.4487 0.9514
vt 0.4466 0.9515
vt 0.4467 0.9831
vt 0.4529 0.9517
vt 0.4508 0.9828
vt 0.4508 0.8881
vt 0.4497 0.9208
vt 0.4464 0.9209
vt 0.4461 0.8883
vt 0.4601 0.8892
vt 0.4563 0.9215
vt 0.4530 0.9210
vt 0.4555 0.8884
vt 0.4431 0.9211
vt 0.4414 0.8887
vt 0.4397 0.9213
vt 0.4368 0.8889
vt 0.4450 0.9852
vt 0.4429 0.9851
vt 0.4497 0.9852
vt 0.4482 0.9852
vt 0.4467 0.9852
vt 0.4519 0.9852
vt 0.4492 0.9892
vt 0.4480 0.9891
vt 0.4468 0.9890
vt 0.4456 0.9892
vt 0.4503 0.9895
vt 0.4444 0.9895
vt 0.4201 0.9626
vt 0.4248 0.9591
vt 0.4296 0.9626
vt 0.4278 0.9682
vt 0.4219 0.9682
vt 0.9509 0.1381
vt 0.9628 0.1656
vt 0.9509 0.1646
vt 0.9509 0.2373
vt 0.9396 0.2105
vt 0.9509 0.2097
vt 0.9509 0.1884
vt 0.9649 0.1895
vt 0.9369 0.1895
vt 0.9391 0.1656
vt 0.9622 0.2105
vn -0.1223 0.9826 -0.1397
vn -0.5521 0.2125 -0.8062
vn -0.2802 0.8172 -0.5036
vn -0.5268 0.7661 -0.3682
vn -0.3906 0.9206 -0.0003
vn -0.4029 0.2536 -0.8794
vn -0.5718 0.5830 -0.5772
vn -0.3470 0.6398 -0.6858
vn -0.2268 0.9678 -0.1088
vn -0.9732 0.0046 0.2301
vn -0.6556 0.7527 -0.0602
vn -0.5843 0.7641 0.2733
vn -0.1695 0.9548 0.2441
vn -0.9995 0.0040 0.0309
vn -0.8635 0.4240 0.2732
vn -0.9044 0.4259 -0.0233
vn -0.3128 0.9132 0.2611
vn 0.8665 0.3738 0.3308
vn 0.3056 0.8429 0.4429
vn 0.3633 0.9147 0.1773
vn -0.1932 0.9799 -0.0490
vn 0.8267 0.3394 0.4488
vn 0.6633 0.6962 0.2743
vn 0.5938 0.6399 0.4878
vn -0.0389 0.9846 0.1703
vn 0.5485 0.4170 -0.7247
vn 0.3501 0.9138 -0.2061
vn 0.0781 0.9140 -0.3981
vn -0.3011 0.9505 -0.0763
vn 0.6917 0.4256 -0.5834
vn 0.3125 0.7546 -0.5770
vn 0.5283 0.7651 -0.3681
vn -0.8112 -0.1584 0.5629
vn 0.3215 0.1482 -0.9352
vn 0.2839 -0.0058 0.9588
vn -0.7924 -0.0638 -0.6067
vn 0.9826 0.1835 0.0292
vn 0.9940 0.1071 0.0230
vn 0.9766 0.2128 0.0301
vn -0.7955 0.0387 -0.6047
vn -0.7955 -0.0017 -0.6059
vn 0.2868 -0.0450 0.9569
vn 0.2880 -0.1109 0.9512
vn 0.3259 0.1575 -0.9322
vn 0.3141 0.2762 -0.9084
vn -0.8188 -0.0873 0.5675
vn -0.7993 -0.2414 0.5503
vn -0.6157 -0.6414 0.4578
vn 0.3708 -0.1569 -0.9154
vn 0.3652 -0.3828 0.8486
vn -0.6132 -0.5053 -0.6071
vn 0.9972 -0.0749 -0.0060
vn 0.2348 0.4181 -0.8776
vn 0.2416 0.1465 0.9592
vn -0.8188 0.1153 -0.5624
vn 0.8963 0.4395 0.0585
vn -0.8211 -0.0533 0.5683
vn -0.2484 0.9611 0.1204
vn -0.2484 0.9612 0.1203
vn -0.4339 0.9009 -0.0075
vn -0.1474 0.4515 0.8800
vn -0.4663 0.7242 0.5080
vn -0.1575 0.8486 0.5050
vn -0.0874 0.9956 0.0337
vn -0.3788 0.3513 0.8562
vn -0.1623 0.6303 0.7592
vn -0.4445 0.5357 0.7180
s off
f 3/1/1 5/2/1 7/3/1
f 1/4/2 2/5/2 8/6/2
f 11/7/3 7/3/3 5/2/3 10/8/3
f 9/9/4 6/10/4 7/3/4 11/7/4
f 6/10/5 3/1/5 7/3/5
f 4/11/6 1/4/6 8/6/6
f 2/5/7 9/9/7 11/7/7 8/6/7
f 8/6/8 11/7/8 10/8/8 4/11/8
f 14/12/9 16/13/9 18/14/9
f 12/15/10 13/16/10 19/17/10
f 22/18/11 18/14/11 16/13/11 21/19/11
f 20/20/12 17/21/12 18/14/12 22/18/12
f 17/21/13 14/12/13 18/14/13
f 15/22/14 12/15/14 19/17/14
f 13/16/15 20/20/15 22/18/15 19/17/15
f 19/17/16 22/18/16 21/19/16 15/22/16
f 25/23/17 27/24/17 29/25/17
f 23/26/18 24/27/18 30/28/18
f 33/29/19 29/25/19 27/24/19 32/30/19
f 31/31/20 28/32/20 29/25/20 33/29/20
f 28/32/21 25/23/21 29/25/21
f 26/33/22 23/26/22 30/28/22
f 24/27/23 31/31/23 33/29/23 30/28/23
f 30/28/24 33/29/24 32/30/24 26/33/24
f 36/34/25 38/35/25 40/36/25
f 34/37/26 35/38/26 41/39/26
f 44/40/27 40/36/27 38/35/27 43/41/27
f 42/42/28 39/43/28 40/36/28 44/40/28
f 39/43/29 36/34/29 40/36/29
f 37/44/30 34/37/30 41/39/30
f 35/38/31 42/42/31 44/40/31 41/39/31
f 41/39/32 44/40/32 43/41/32 37/44/32
f 57/45/33 54/46/33 53/47/33 56/48/33
f 61/49/34 52/50/34 51/51/34 60/52/34
f 63/53/35 50/54/35 54/46/35 57/45/35
f 56/55/36 53/56/36 52/50/36 61/49/36
f 60/52/37 51/51/37 50/54/37 63/53/37
f 46/57/38 59/58/38 64/59/38 45/60/38
f 59/58/39 60/52/39 63/53/39 64/59/39
f 48/61/40 55/62/40 62/63/40 47/64/40
f 55/62/41 56/55/41 61/49/41 62/63/41
f 45/60/42 64/59/42 58/65/42 49/66/42
f 64/59/43 63/53/43 57/45/43 58/65/43
f 47/64/44 62/63/44 59/58/44 46/57/44
f 62/63/45 61/49/45 60/52/45 59/58/45
f 49/66/46 58/65/46 55/67/46 48/68/46
f 58/65/47 57/45/47 56/48/47 55/67/47
f 54/46/48 69/69/48 68/70/48 53/47/48
f 52/50/49 67/71/49 66/72/49 51/51/49
f 50/54/50 65/73/50 69/69/50 54/46/50
f 53/56/51 68/74/51 67/71/51 52/50/51
f 51/51/52 66/72/52 65/73/52 50/54/52
f 67/71/53 72/75/53 71/76/53 66/72/53
f 65/73/54 70/77/54 74/78/54 69/69/54
f 68/74/55 73/79/55 72/75/55 67/71/55
f 66/72/56 71/76/56 70/77/56 65/73/56
f 69/69/57 74/78/57 73/80/57 68/70/57
f 72/81/58 73/82/58 74/83/58 70/84/58
f 71/85/59 72/81/59 70/84/59
f 77/86/60 79/87/60 81/88/60
f 75/89/61 76/90/61 82/91/61
f 85/92/62 81/88/62 79/87/62 84/93/62
f 83/94/63 80/95/63 81/88/63 85/92/63
f 80/95/64 77/86/64 81/88/64
f 78/96/65 75/89/65 82/91/65
f 76/90/66 83/94/66 85/92/66 82/91/66
f 82/91/67 85/92/67 84/93/67 78/96/67
