# Blender v2.78 (sub 0) OBJ File: 'Low_Poly_Trees_Pack.blend'
# www.blender.org
g Palm_Tree_Coconut_OneSided_l_03
v 0.219445 6.375873 -0.321850
v 0.014690 6.306730 -0.300721
v 0.149658 6.417977 -0.165346
v 0.335276 6.371909 -0.155643
v 0.315023 6.232189 -0.285022
v 0.116891 6.191908 -0.374684
v 0.003973 6.260033 -0.121454
v 0.202105 6.300313 -0.031793
v 0.304305 6.185492 -0.105756
v 0.169339 6.074245 -0.241130
v -0.016280 6.120313 -0.250834
v 0.099551 6.116348 -0.084627
v 0.575183 6.156258 0.119543
v 0.399172 6.029335 0.127465
v 0.523255 6.102589 -0.040331
v 0.590781 6.281776 -0.038757
v 0.508431 6.319263 0.130014
v 0.390010 6.163246 0.232743
v 0.305989 6.076410 -0.025939
v 0.424409 6.232428 -0.128667
v 0.415248 6.366339 -0.023389
v 0.291165 6.293085 0.144406
v 0.223637 6.113897 0.142832
v 0.239236 6.239416 -0.015467
v -0.191929 6.046871 -0.012336
v 0.005482 6.133990 0.117651
v -0.242272 6.173833 0.111229
v -0.354374 6.180922 -0.064744
v -0.175896 6.145461 -0.167078
v 0.046503 6.116456 -0.054352
v -0.034956 6.321887 0.145580
v -0.257356 6.350891 0.032853
v -0.216334 6.333356 -0.139149
v 0.031419 6.293515 -0.132727
v 0.143521 6.286425 0.043246
v -0.018923 6.420476 -0.009162
v 0.234106 6.264427 0.170743
v 0.197928 6.071012 0.248365
v 0.288739 6.139946 0.065552
v 0.217552 6.286886 -0.024658
v 0.082744 6.308767 0.102407
v 0.070617 6.175349 0.271142
v 0.159018 5.973935 0.100938
v 0.171144 6.107352 -0.067797
v 0.043834 6.211688 -0.045021
v -0.046977 6.142756 0.137793
v 0.024208 5.995814 0.228002
v 0.007657 6.018275 0.032602
v 1.789354 5.400135 1.562050
v 1.837102 5.943080 1.014063
v 0.283159 6.513023 0.047206
v 1.455820 6.061760 1.551646
v 0.618200 6.684794 0.766686
v 1.057532 6.560037 0.234810
v 0.837694 6.690302 0.480051
v 1.667939 6.060310 1.281889
v 1.595950 6.394287 0.649679
v 1.093233 6.537043 1.258292
v 1.356328 6.540905 0.941512
v 1.717695 5.433730 -1.407371
v 1.243265 6.052896 -1.423868
v 0.299599 6.486483 -0.015935
v 1.733818 6.070231 -0.956451
v 1.067898 6.616529 -0.316175
v 0.548773 6.631405 -0.799676
v 0.798561 6.695614 -0.545227
v 1.497908 6.123650 -1.202292
v 0.855166 6.456624 -1.128787
v 1.442798 6.477388 -0.568871
v 1.160686 6.544585 -0.863989
v -1.477086 6.084893 -1.283540
v -1.292636 6.634237 -0.823750
v 0.237175 6.490834 -0.005401
v -0.900216 6.547023 -1.312938
v -0.028856 6.716923 -0.688082
v -0.439665 6.808224 -0.175972
v -0.206389 6.822911 -0.420426
v -1.080585 6.647147 -1.065713
v -0.931533 6.906032 -0.501444
v -0.461455 6.801558 -1.087440
v -0.676701 6.924416 -0.791155
v -1.200093 5.945538 1.534314
v -0.730126 6.513033 1.468827
v 0.323569 6.484133 0.032529
v -1.163332 6.465562 1.009498
v -0.396401 6.766735 0.226038
v 0.057105 6.816429 0.706890
v -0.155625 6.854557 0.446731
v -0.943078 6.547176 1.229737
v -0.368968 6.822518 1.182586
v -0.887905 6.765652 0.632359
v -0.623874 6.866406 0.895696
v -0.074654 4.492100 1.716650
v 0.552088 5.136914 1.535834
v 0.191085 6.422657 0.016714
v -0.404143 5.303886 1.584682
v -0.315307 6.214253 0.795979
v 0.685731 6.039458 0.744842
v 0.203094 6.200979 0.793129
v 0.089280 5.279534 1.592985
v 0.739034 5.667796 1.141733
v -0.406431 5.867810 1.200248
v 0.185429 5.841693 1.211884
v 1.753669 4.391897 -0.212085
v 1.768340 5.243882 -0.508101
v 0.222330 6.484965 -0.023581
v 1.650763 5.114166 0.346434
v 0.855218 6.179965 0.463919
v 0.973835 6.295167 -0.434144
v 0.941296 6.315117 0.030635
v 1.753055 5.234981 -0.064368
v 1.465165 5.895908 -0.528753
v 1.324320 5.740520 0.494892
v 1.449101 5.888136 0.003644
v -0.282109 4.566800 -1.777228
v -0.520747 5.453812 -1.655858
v 0.202348 6.453188 0.000001
v 0.387997 5.265784 -1.634572
v 0.681204 6.237445 -0.825225
v -0.273315 6.419291 -0.834577
v 0.225356 6.409596 -0.825759
v -0.046661 5.427002 -1.666715
v -0.465175 6.046966 -1.315208
v 0.623405 5.821728 -1.289709
v 0.103748 6.018321 -1.329323
v -2.081026 4.952247 -0.055449
v -1.792966 5.697097 0.353168
v 0.238043 6.433450 0.001862
v -1.697846 5.634239 -0.496886
v -0.549758 6.421772 -0.516113
v -0.652785 6.445224 0.375502
v -0.594047 6.515679 -0.070591
v -1.763998 5.734834 -0.077781
v -1.275905 6.172303 0.452396
v -1.161962 6.097005 -0.565880
v -1.242164 6.221079 -0.064141
v 0.000000 0.000000 -0.271814
v -0.258511 0.000000 -0.083995
v -0.159769 0.000000 0.219903
v 0.159769 0.000000 0.219902
v 0.258511 0.000000 -0.083995
v 0.145564 6.165891 -0.092565
v 0.078940 6.187489 -0.041680
v 0.104388 6.179239 0.040654
v 0.186740 6.152543 0.040654
v 0.212188 6.144294 -0.041680
v -0.385615 1.406339 0.150010
v -0.379118 4.345344 0.086103
v -0.334822 4.339497 -0.052409
v -0.315413 1.402465 -0.067496
v -0.682995 1.422750 -0.067496
v -0.566758 4.370112 -0.052409
v -0.522462 4.364265 0.086103
v -0.612793 1.418876 0.150010
v -0.450790 4.354804 -0.138014
v -0.499204 1.412608 -0.201922
v 0.197333 6.307567 -0.159619
v 0.063640 6.350906 -0.057509
v 0.114706 6.334352 0.107708
v 0.279960 6.280781 0.107708
v 0.331026 6.264226 -0.057509
v 0.309836 6.643635 -0.069478
v 0.266305 6.657746 -0.036230
v 0.282932 6.652357 0.017566
v 0.336740 6.634913 0.017566
v 0.353368 6.629523 -0.036230
v -0.514429 2.809810 0.118056
v -0.457180 2.804950 -0.059953
v -0.756940 2.830399 -0.059953
v -0.699691 2.825539 0.118056
v -0.607060 2.817675 -0.169968
v 0.087021 6.510613 2.085116
v 0.580848 6.830910 1.571839
v 0.265076 6.554543 -0.058466
v -0.217063 6.955323 1.498496
v -0.144382 7.013926 0.445570
v 0.682098 6.841355 0.559826
v 0.285321 6.977758 0.463853
v 0.196076 6.935139 1.517445
v 0.726756 6.903162 1.011913
v -0.226236 7.083220 0.898053
v 0.268221 7.051450 0.930182
v 2.335304 6.099948 0.214465
v 1.923571 6.751601 -0.107168
v 0.232255 6.555423 -0.035255
v 1.794866 6.523398 0.573543
v 0.709857 6.754722 0.453092
v 0.787631 6.967197 -0.274584
v 0.712745 6.921082 0.102462
v 1.849243 6.686617 0.256045
v 1.338091 7.036038 -0.254418
v 1.230846 6.768395 0.574361
v 1.270311 6.971217 0.184397
v 0.053514 6.761751 -2.031811
v -0.074465 7.218069 -1.440733
v 0.258005 6.536053 0.023387
v 0.675105 7.011469 -1.498861
v 0.792772 6.917816 -0.452023
v -0.000697 7.130535 -0.433910
v 0.407804 7.061101 -0.386558
v 0.316409 7.162200 -1.438585
v -0.063736 7.303163 -0.911711
v 0.833293 7.047462 -0.957773
v 0.405773 7.232891 -0.893251
v -1.824561 7.226002 0.009540
v -1.230352 7.360875 0.444729
v 0.305977 6.543011 -0.044270
v -1.216611 7.415973 -0.269077
v -0.168996 7.104861 -0.313895
v -0.163119 6.999888 0.427099
v -0.108091 7.102409 0.055693
v -1.188805 7.442832 0.088750
v -0.667054 7.232640 0.557148
v -0.677938 7.325203 -0.305016
v -0.629256 7.354254 0.122230
vt 0.9078 0.0834
vt 0.8997 0.0940
vt 0.8956 0.0784
vt 0.9159 0.0940
vt 0.9078 0.0733
vt 0.9201 0.0784
vt 0.8985 0.0329
vt 0.9181 0.0329
vt 0.9083 0.0434
vt 0.8857 0.0476
vt 0.9005 0.0476
vt 0.8997 0.0628
vt 0.9159 0.0628
vt 0.9310 0.0476
vt 0.9162 0.0476
vt 0.8985 0.0622
vt 0.9181 0.0622
vt 0.9083 0.0518
vt 0.9078 0.0834
vt 0.8997 0.0940
vt 0.8956 0.0784
vt 0.9159 0.0940
vt 0.9078 0.0733
vt 0.9201 0.0784
vt 0.8985 0.0329
vt 0.9181 0.0329
vt 0.9083 0.0434
vt 0.8857 0.0476
vt 0.9005 0.0476
vt 0.8997 0.0628
vt 0.9159 0.0628
vt 0.9310 0.0476
vt 0.9162 0.0476
vt 0.8985 0.0622
vt 0.9181 0.0622
vt 0.9083 0.0518
vt 0.9698 0.0834
vt 0.9617 0.0940
vt 0.9576 0.0784
vt 0.9779 0.0940
vt 0.9698 0.0733
vt 0.9821 0.0784
vt 0.9605 0.0329
vt 0.9801 0.0329
vt 0.9703 0.0434
vt 0.9477 0.0476
vt 0.9625 0.0476
vt 0.9617 0.0628
vt 0.9779 0.0628
vt 0.9930 0.0476
vt 0.9782 0.0476
vt 0.9605 0.0622
vt 0.9801 0.0622
vt 0.9703 0.0518
vt 0.9078 0.0834
vt 0.8997 0.0940
vt 0.8956 0.0784
vt 0.9159 0.0940
vt 0.9078 0.0733
vt 0.9201 0.0784
vt 0.8985 0.0329
vt 0.9181 0.0329
vt 0.9083 0.0434
vt 0.8857 0.0476
vt 0.9005 0.0476
vt 0.8997 0.0628
vt 0.9159 0.0628
vt 0.9310 0.0476
vt 0.9162 0.0476
vt 0.8985 0.0622
vt 0.9181 0.0622
vt 0.9083 0.0518
vt 0.6902 0.1376
vt 0.7025 0.1660
vt 0.6902 0.1650
vt 0.6902 0.2403
vt 0.6785 0.2126
vt 0.6902 0.2118
vt 0.6902 0.1897
vt 0.7047 0.1908
vt 0.6757 0.1908
vt 0.6780 0.1660
vt 0.7019 0.2126
vt 0.8116 0.1376
vt 0.8239 0.1660
vt 0.8116 0.1650
vt 0.8116 0.2403
vt 0.7999 0.2126
vt 0.8116 0.2118
vt 0.8116 0.1897
vt 0.8261 0.1908
vt 0.7971 0.1908
vt 0.7994 0.1660
vt 0.8233 0.2126
vt 0.9279 0.1376
vt 0.9402 0.1660
vt 0.9279 0.1650
vt 0.9279 0.2403
vt 0.9162 0.2126
vt 0.9279 0.2118
vt 0.9279 0.1897
vt 0.9424 0.1908
vt 0.9134 0.1908
vt 0.9157 0.1660
vt 0.9396 0.2126
vt 0.6902 0.1376
vt 0.7025 0.1660
vt 0.6902 0.1650
vt 0.6902 0.2403
vt 0.6785 0.2126
vt 0.6902 0.2118
vt 0.6902 0.1897
vt 0.7047 0.1908
vt 0.6757 0.1908
vt 0.6780 0.1660
vt 0.7019 0.2126
vt 0.8116 0.1376
vt 0.8239 0.1660
vt 0.8116 0.1650
vt 0.8116 0.2403
vt 0.7999 0.2126
vt 0.8116 0.2118
vt 0.8116 0.1897
vt 0.8261 0.1908
vt 0.7971 0.1908
vt 0.7994 0.1660
vt 0.8233 0.2126
vt 0.9279 0.1376
vt 0.9402 0.1660
vt 0.9279 0.1650
vt 0.9279 0.2403
vt 0.9162 0.2126
vt 0.9279 0.2118
vt 0.9279 0.1897
vt 0.9424 0.1908
vt 0.9134 0.1908
vt 0.9157 0.1660
vt 0.9396 0.2126
vt 0.6902 0.1376
vt 0.7025 0.1660
vt 0.6902 0.1650
vt 0.6902 0.2403
vt 0.6785 0.2126
vt 0.6902 0.2118
vt 0.6902 0.1897
vt 0.7047 0.1908
vt 0.6757 0.1908
vt 0.6780 0.1660
vt 0.7019 0.2126
vt 0.8116 0.1376
vt 0.8239 0.1660
vt 0.8116 0.1650
vt 0.8116 0.2403
vt 0.7999 0.2126
vt 0.8116 0.2118
vt 0.8116 0.1897
vt 0.8261 0.1908
vt 0.7971 0.1908
vt 0.7994 0.1660
vt 0.8233 0.2126
vt 0.5491 0.9486
vt 0.5498 0.9751
vt 0.5486 0.9749
vt 0.5473 0.9486
vt 0.5544 0.9486
vt 0.5532 0.9752
vt 0.5521 0.9753
vt 0.5526 0.9485
vt 0.5509 0.9485
vt 0.5509 0.9752
vt 0.5562 0.9487
vt 0.5544 0.9750
vt 0.5544 0.8949
vt 0.5534 0.9226
vt 0.5506 0.9227
vt 0.5504 0.8951
vt 0.5530 0.9355
vt 0.5508 0.9356
vt 0.5623 0.8959
vt 0.5590 0.9232
vt 0.5563 0.9228
vt 0.5584 0.8952
vt 0.5576 0.9359
vt 0.5553 0.9357
vt 0.5478 0.9228
vt 0.5465 0.8954
vt 0.5485 0.9357
vt 0.5450 0.9230
vt 0.5425 0.8956
vt 0.5462 0.9358
vt 0.5495 0.9771
vt 0.5477 0.9769
vt 0.5535 0.9771
vt 0.5522 0.9770
vt 0.5509 0.9771
vt 0.5553 0.9770
vt 0.5530 0.9804
vt 0.5520 0.9803
vt 0.5510 0.9803
vt 0.5500 0.9804
vt 0.5540 0.9807
vt 0.5490 0.9807
vt 0.5195 0.9383
vt 0.5243 0.9348
vt 0.5290 0.9383
vt 0.5272 0.9439
vt 0.5213 0.9439
vt 0.8193 0.1381
vt 0.8311 0.1656
vt 0.8193 0.1646
vt 0.8193 0.2373
vt 0.8080 0.2105
vt 0.8193 0.2097
vt 0.8193 0.1884
vt 0.8333 0.1895
vt 0.8053 0.1895
vt 0.8075 0.1656
vt 0.8306 0.2105
vt 0.9509 0.1381
vt 0.9628 0.1656
vt 0.9509 0.1646
vt 0.9509 0.2373
vt 0.9396 0.2105
vt 0.9509 0.2097
vt 0.9509 0.1884
vt 0.9649 0.1895
vt 0.9369 0.1895
vt 0.9391 0.1656
vt 0.9622 0.2105
vt 0.9509 0.1381
vt 0.9628 0.1656
vt 0.9509 0.1646
vt 0.9509 0.2373
vt 0.9396 0.2105
vt 0.9509 0.2097
vt 0.9509 0.1884
vt 0.9649 0.1895
vt 0.9369 0.1895
vt 0.9391 0.1656
vt 0.9622 0.2105
vt 0.9509 0.1381
vt 0.9628 0.1656
vt 0.9509 0.1646
vt 0.9509 0.2373
vt 0.9396 0.2105
vt 0.9509 0.2097
vt 0.9509 0.1884
vt 0.9649 0.1895
vt 0.9369 0.1895
vt 0.9391 0.1656
vt 0.9622 0.2105
vn -0.3309 0.8638 -0.3799
vn -0.2213 0.3812 -0.8976
vn 0.2455 0.9580 -0.1482
vn 0.7649 0.3745 -0.5241
vn 0.4059 0.0360 -0.9132
vn -0.6506 -0.0936 -0.7537
vn -0.7086 0.6920 0.1379
vn 0.1591 0.7709 0.6167
vn 0.9871 -0.1593 0.0175
vn 0.4298 -0.5871 -0.6860
vn -0.9871 0.1593 -0.0175
vn -0.4298 0.5871 0.6860
vn 0.6506 0.0936 0.7537
vn 0.7086 -0.6920 -0.1379
vn -0.1591 -0.7709 -0.6167
vn -0.7649 -0.3745 0.5241
vn -0.4059 -0.0360 0.9132
vn 0.2213 -0.3812 0.8976
vn 0.3309 -0.8638 0.3799
vn -0.2455 -0.9580 0.1482
vn 0.5854 -0.8067 0.0807
vn 0.4234 -0.5418 0.7260
vn 0.9205 -0.3453 -0.1831
vn 0.8739 0.3353 0.3520
vn 0.5193 0.1587 0.8397
vn -0.2282 -0.6113 0.7578
vn 0.0901 -0.9355 -0.3418
vn 0.5091 -0.1845 -0.8407
vn 0.4348 0.9004 0.0122
vn -0.0120 0.5562 0.8309
vn -0.4348 -0.9004 -0.0122
vn 0.0120 -0.5562 -0.8309
vn 0.2282 0.6113 -0.7578
vn -0.0901 0.9355 0.3418
vn -0.5091 0.1845 0.8407
vn -0.8739 -0.3353 -0.3520
vn -0.5193 -0.1587 -0.8397
vn -0.4234 0.5418 -0.7260
vn -0.5854 0.8067 -0.0807
vn -0.9205 0.3453 0.1831
vn -0.1332 -0.7179 0.6833
vn 0.3033 -0.9380 0.1680
vn -0.6574 -0.6430 0.3929
vn -0.4410 -0.7355 -0.5143
vn 0.1537 -0.8405 -0.5196
vn 0.7751 -0.5827 0.2443
vn -0.0509 -0.1575 0.9862
vn -0.8287 0.1660 0.5346
vn -0.4938 0.0229 -0.8692
vn 0.3881 -0.3452 -0.8545
vn 0.4938 -0.0229 0.8692
vn -0.3881 0.3452 0.8545
vn -0.7751 0.5827 -0.2443
vn 0.0509 0.1575 -0.9862
vn 0.8287 -0.1660 -0.5346
vn 0.4410 0.7355 0.5143
vn -0.1537 0.8405 0.5196
vn -0.3033 0.9380 -0.1680
vn 0.1332 0.7179 -0.6833
vn 0.6574 0.6430 -0.3929
vn 0.8936 0.0130 0.4488
vn 0.3868 0.2802 0.8785
vn 0.9063 0.4217 -0.0283
vn 0.2421 0.9660 0.0905
vn -0.0487 0.7852 0.6173
vn -0.0145 -0.2301 0.9731
vn 0.7936 -0.5829 0.1744
vn 0.7540 -0.0373 -0.6558
vn -0.3048 0.8304 -0.4664
vn -0.6622 0.6102 0.4349
vn 0.3048 -0.8304 0.4664
vn 0.6622 -0.6102 -0.4349
vn 0.0145 0.2301 -0.9731
vn -0.7936 0.5829 -0.1744
vn -0.7540 0.0373 0.6558
vn -0.2421 -0.9660 -0.0905
vn 0.0487 -0.7852 -0.6173
vn -0.3868 -0.2802 -0.8785
vn -0.8936 -0.0130 -0.4488
vn -0.9063 -0.4217 0.0283
vn -0.2031 0.9695 -0.1369
vn 0.8571 0.3267 0.3984
vn 0.1572 0.9775 0.1409
vn 0.3869 0.9116 -0.1389
vn 0.0503 0.9000 -0.4330
vn 0.7292 0.3766 0.5714
vn 0.7405 0.6254 0.2460
vn 0.5575 0.6946 0.4546
vn -0.0220 0.9367 0.3493
vn 0.5390 0.3931 -0.7449
vn 0.3177 0.9456 -0.0704
vn 0.0923 0.9246 -0.3697
vn -0.3180 0.9452 0.0737
vn 0.7034 0.3989 -0.5883
vn 0.3127 0.7361 -0.6003
vn 0.5571 0.7447 -0.3674
vn 0.5675 0.8218 0.0510
vn -0.6060 0.6203 -0.4980
vn 0.3235 0.9337 -0.1536
vn 0.0962 0.9842 0.1488
vn 0.3207 0.8766 0.3587
vn -0.5115 0.5993 -0.6159
vn -0.3944 0.8703 -0.2951
vn -0.2254 0.8327 -0.5057
vn 0.1829 0.8285 -0.5293
vn -0.5824 0.5512 0.5974
vn -0.1681 0.9651 -0.2007
vn 0.0923 0.9933 0.0700
vn 0.4522 0.8579 -0.2440
vn -0.6868 0.5398 0.4868
vn -0.3584 0.8229 0.4409
vn -0.5450 0.8024 0.2431
vn 0.0261 0.9614 0.2741
vn 0.1583 0.1209 0.9800
vn 0.0217 0.7575 0.6524
vn 0.3036 0.7161 0.6285
vn 0.3297 0.9091 0.2545
vn -0.0089 0.1569 0.9876
vn 0.2620 0.5122 0.8179
vn 0.0109 0.5616 0.8274
vn 0.1938 0.9249 0.3270
vn 0.9994 -0.0053 0.0343
vn 0.6194 0.7000 0.3554
vn 0.6387 0.7692 0.0217
vn 0.2317 0.9725 -0.0255
vn 0.9723 -0.0397 0.2304
vn 0.9066 0.4204 0.0363
vn 0.8679 0.3719 0.3292
vn 0.3531 0.9348 -0.0395
vn -0.0153 0.1315 -0.9912
vn 0.2937 0.7068 -0.6436
vn 0.0252 0.7859 -0.6178
vn 0.0203 0.9984 -0.0521
vn 0.1092 0.0972 -0.9893
vn 0.0056 0.4961 -0.8683
vn 0.2300 0.4391 -0.8685
vn 0.1132 0.9744 -0.1941
vn -0.9267 0.3746 -0.0295
vn -0.4193 0.8711 -0.2556
vn -0.4025 0.9124 0.0743
vn 0.0826 0.9826 0.1661
vn -0.9044 0.3599 -0.2291
vn -0.6803 0.7326 0.0219
vn -0.6498 0.7082 -0.2761
vn 0.9108 -0.2777 0.3054
vn -0.8982 0.3176 0.3039
vn 0.5684 -0.1672 -0.8056
vn 0.0048 0.0235 0.9997
vn -0.5594 0.2039 -0.8034
vn -0.5832 -0.1658 -0.7952
vn -0.5857 0.0763 -0.8069
vn 0.0011 0.0498 0.9988
vn 0.0022 0.0206 0.9998
vn 0.5748 0.2431 -0.7813
vn 0.5892 -0.0431 -0.8069
vn -0.9147 -0.2769 0.2943
vn -0.9447 0.1152 0.3070
vn 0.8885 0.3595 0.2852
vn 0.9486 -0.0772 0.3069
vn 0.6999 -0.6562 0.2821
vn -0.9553 -0.0614 0.2891
vn 0.4125 -0.5085 -0.7559
vn -0.1253 -0.3866 0.9137
vn -0.6285 -0.1331 -0.7664
vn -0.8054 0.5111 0.3001
vn 0.6088 0.0090 -0.7933
vn 0.0760 0.2345 0.9691
vn -0.4833 0.3741 -0.7915
vn 0.9505 -0.0757 0.3014
vn 0.3084 0.9513 0.0000
vn 0.9482 0.0941 0.3035
vn -0.9509 -0.0517 0.3053
vn 0.5926 0.0640 -0.8029
vn 0.0016 0.0229 0.9997
vn -0.5920 -0.0269 -0.8055
vn 0.0917 0.7719 -0.6290
vn 0.1259 0.7827 0.6095
vn 0.0804 0.9862 -0.1448
vn 0.3398 0.9289 -0.1472
vn 0.3864 0.7092 -0.5896
vn 0.0115 0.7997 0.6003
vn 0.2506 0.9465 0.2032
vn 0.0445 0.9781 0.2035
vn -0.6298 0.7038 0.3287
vn 0.7522 0.6046 0.2621
vn -0.1348 0.8899 0.4359
vn -0.1164 0.9867 0.1138
vn -0.6015 0.7986 -0.0218
vn 0.7157 0.5637 0.4124
vn 0.3960 0.8928 0.2147
vn 0.3478 0.8131 0.4668
vn 0.3280 0.5214 0.7877
vn 0.1173 0.7982 -0.5908
vn 0.3981 0.8750 0.2756
vn 0.1254 0.9390 0.3202
vn 0.0127 0.6131 0.7899
vn 0.2175 0.7616 -0.6105
vn 0.1469 0.9769 -0.1553
vn 0.3639 0.9153 -0.1728
vn 0.7865 0.6046 -0.1256
vn -0.3372 0.9253 0.1737
vn 0.4099 0.9080 -0.0867
vn 0.4538 0.8437 0.2868
vn 0.7967 0.5419 0.2676
vn -0.3173 0.9472 -0.0464
vn 0.1503 0.9537 0.2606
vn 0.1604 0.9833 -0.0857
s off
f 1/1/1 2/2/1 3/3/1
f 2/2/2 1/1/2 6/4/2
f 1/1/3 3/3/3 4/5/3
f 1/1/4 4/5/4 5/6/4
f 1/1/5 5/6/5 6/4/5
f 2/7/6 6/8/6 11/9/6
f 3/10/7 2/7/7 7/11/7
f 4/5/8 3/3/8 8/12/8
f 5/6/9 4/5/9 9/13/9
f 6/8/10 5/14/10 10/15/10
f 2/7/11 11/9/11 7/11/11
f 3/10/12 7/11/12 8/16/12
f 4/5/13 8/12/13 9/13/13
f 5/14/14 9/17/14 10/15/14
f 6/8/15 10/15/15 11/9/15
f 7/11/16 11/9/16 12/18/16
f 8/16/17 7/11/17 12/18/17
f 9/17/18 8/16/18 12/18/18
f 10/15/19 9/17/19 12/18/19
f 11/9/20 10/15/20 12/18/20
f 13/19/21 14/20/21 15/21/21
f 14/20/22 13/19/22 18/22/22
f 13/19/23 15/21/23 16/23/23
f 13/19/24 16/23/24 17/24/24
f 13/19/25 17/24/25 18/22/25
f 14/25/26 18/26/26 23/27/26
f 15/28/27 14/25/27 19/29/27
f 16/23/28 15/21/28 20/30/28
f 17/24/29 16/23/29 21/31/29
f 18/26/30 17/32/30 22/33/30
f 14/25/31 23/27/31 19/29/31
f 15/28/32 19/29/32 20/34/32
f 16/23/33 20/30/33 21/31/33
f 17/32/34 21/35/34 22/33/34
f 18/26/35 22/33/35 23/27/35
f 19/29/36 23/27/36 24/36/36
f 20/34/37 19/29/37 24/36/37
f 21/35/38 20/34/38 24/36/38
f 22/33/39 21/35/39 24/36/39
f 23/27/40 22/33/40 24/36/40
f 25/37/41 26/38/41 27/39/41
f 26/38/42 25/37/42 30/40/42
f 25/37/43 27/39/43 28/41/43
f 25/37/44 28/41/44 29/42/44
f 25/37/45 29/42/45 30/40/45
f 26/43/46 30/44/46 35/45/46
f 27/46/47 26/43/47 31/47/47
f 28/41/48 27/39/48 32/48/48
f 29/42/49 28/41/49 33/49/49
f 30/44/50 29/50/50 34/51/50
f 26/43/51 35/45/51 31/47/51
f 27/46/52 31/47/52 32/52/52
f 28/41/53 32/48/53 33/49/53
f 29/50/54 33/53/54 34/51/54
f 30/44/55 34/51/55 35/45/55
f 31/47/56 35/45/56 36/54/56
f 32/52/57 31/47/57 36/54/57
f 33/53/58 32/52/58 36/54/58
f 34/51/59 33/53/59 36/54/59
f 35/45/60 34/51/60 36/54/60
f 37/55/61 38/56/61 39/57/61
f 38/56/62 37/55/62 42/58/62
f 37/55/63 39/57/63 40/59/63
f 37/55/64 40/59/64 41/60/64
f 37/55/65 41/60/65 42/58/65
f 38/61/66 42/62/66 47/63/66
f 39/64/67 38/61/67 43/65/67
f 40/59/68 39/57/68 44/66/68
f 41/60/69 40/59/69 45/67/69
f 42/62/70 41/68/70 46/69/70
f 38/61/71 47/63/71 43/65/71
f 39/64/72 43/65/72 44/70/72
f 40/59/73 44/66/73 45/67/73
f 41/68/74 45/71/74 46/69/74
f 42/62/75 46/69/75 47/63/75
f 43/65/76 47/63/76 48/72/76
f 44/70/77 43/65/77 48/72/77
f 45/71/78 44/70/78 48/72/78
f 46/69/79 45/71/79 48/72/79
f 47/63/80 46/69/80 48/72/80
f 51/73/81 53/74/81 55/75/81
f 49/76/82 50/77/82 56/78/82
f 59/79/83 55/75/83 53/74/83 58/80/83
f 57/81/84 54/82/84 55/75/84 59/79/84
f 54/82/85 51/73/85 55/75/85
f 52/83/86 49/76/86 56/78/86
f 50/77/87 57/81/87 59/79/87 56/78/87
f 56/78/88 59/79/88 58/80/88 52/83/88
f 62/84/89 64/85/89 66/86/89
f 60/87/90 61/88/90 67/89/90
f 70/90/91 66/86/91 64/85/91 69/91/91
f 68/92/92 65/93/92 66/86/92 70/90/92
f 65/93/93 62/84/93 66/86/93
f 63/94/94 60/87/94 67/89/94
f 61/88/95 68/92/95 70/90/95 67/89/95
f 67/89/96 70/90/96 69/91/96 63/94/96
f 73/95/97 75/96/97 77/97/97
f 71/98/98 72/99/98 78/100/98
f 81/101/99 77/97/99 75/96/99 80/102/99
f 79/103/100 76/104/100 77/97/100 81/101/100
f 76/104/101 73/95/101 77/97/101
f 74/105/102 71/98/102 78/100/102
f 72/99/103 79/103/103 81/101/103 78/100/103
f 78/100/104 81/101/104 80/102/104 74/105/104
f 84/106/105 86/107/105 88/108/105
f 82/109/106 83/110/106 89/111/106
f 92/112/107 88/108/107 86/107/107 91/113/107
f 90/114/108 87/115/108 88/108/108 92/112/108
f 87/115/109 84/106/109 88/108/109
f 85/116/110 82/109/110 89/111/110
f 83/110/111 90/114/111 92/112/111 89/111/111
f 89/111/112 92/112/112 91/113/112 85/116/112
f 95/117/113 97/118/113 99/119/113
f 93/120/114 94/121/114 100/122/114
f 103/123/115 99/119/115 97/118/115 102/124/115
f 101/125/116 98/126/116 99/119/116 103/123/116
f 98/126/117 95/117/117 99/119/117
f 96/127/118 93/120/118 100/122/118
f 94/121/119 101/125/119 103/123/119 100/122/119
f 100/122/120 103/123/120 102/124/120 96/127/120
f 106/128/121 108/129/121 110/130/121
f 104/131/122 105/132/122 111/133/122
f 114/134/123 110/130/123 108/129/123 113/135/123
f 112/136/124 109/137/124 110/130/124 114/134/124
f 109/137/125 106/128/125 110/130/125
f 107/138/126 104/131/126 111/133/126
f 105/132/127 112/136/127 114/134/127 111/133/127
f 111/133/128 114/134/128 113/135/128 107/138/128
f 117/139/129 119/140/129 121/141/129
f 115/142/130 116/143/130 122/144/130
f 125/145/131 121/141/131 119/140/131 124/146/131
f 123/147/132 120/148/132 121/141/132 125/145/132
f 120/148/133 117/139/133 121/141/133
f 118/149/134 115/142/134 122/144/134
f 116/143/135 123/147/135 125/145/135 122/144/135
f 122/144/136 125/145/136 124/146/136 118/149/136
f 128/150/137 130/151/137 132/152/137
f 126/153/138 127/154/138 133/155/138
f 136/156/139 132/152/139 130/151/139 135/157/139
f 134/158/140 131/159/140 132/152/140 136/156/140
f 131/159/141 128/150/141 132/152/141
f 129/160/142 126/153/142 133/155/142
f 127/154/143 134/158/143 136/156/143 133/155/143
f 133/155/144 136/156/144 135/157/144 129/160/144
f 149/161/145 146/162/145 145/163/145 148/164/145
f 153/165/146 144/166/146 143/167/146 152/168/146
f 155/169/147 142/170/147 146/162/147 149/161/147
f 148/171/148 145/172/148 144/166/148 153/165/148
f 152/168/149 143/167/149 142/170/149 155/169/149
f 138/173/150 151/174/150 156/175/150 137/176/150
f 169/177/151 152/168/151 155/169/151 171/178/151
f 140/179/152 147/180/152 154/181/152 139/182/152
f 167/183/153 148/171/153 153/165/153 170/184/153
f 137/176/154 156/175/154 150/185/154 141/186/154
f 171/178/155 155/169/155 149/161/155 168/187/155
f 139/182/156 154/181/156 151/174/156 138/173/156
f 170/184/157 153/165/157 152/168/157 169/177/157
f 141/186/158 150/185/158 147/188/158 140/189/158
f 168/187/159 149/161/159 148/164/159 167/190/159
f 146/162/160 161/191/160 160/192/160 145/163/160
f 144/166/161 159/193/161 158/194/161 143/167/161
f 142/170/162 157/195/162 161/191/162 146/162/162
f 145/172/163 160/196/163 159/193/163 144/166/163
f 143/167/164 158/194/164 157/195/164 142/170/164
f 159/193/165 164/197/165 163/198/165 158/194/165
f 157/195/166 162/199/166 166/200/166 161/191/166
f 160/196/167 165/201/167 164/197/167 159/193/167
f 158/194/168 163/198/168 162/199/168 157/195/168
f 161/191/169 166/200/169 165/202/169 160/192/169
f 164/203/170 165/204/170 166/205/170 162/206/170
f 163/207/170 164/203/170 162/206/170
f 150/185/171 168/187/171 167/190/171 147/188/171
f 154/181/172 170/184/172 169/177/172 151/174/172
f 156/175/173 171/178/173 168/187/173 150/185/173
f 147/180/174 167/183/174 170/184/174 154/181/174
f 151/174/175 169/177/175 171/178/175 156/175/175
f 174/208/176 176/209/176 178/210/176
f 172/211/177 173/212/177 179/213/177
f 182/214/178 178/210/178 176/209/178 181/215/178
f 180/216/179 177/217/179 178/210/179 182/214/179
f 177/217/180 174/208/180 178/210/180
f 175/218/181 172/211/181 179/213/181
f 173/212/182 180/216/182 182/214/182 179/213/182
f 179/213/183 182/214/183 181/215/183 175/218/183
f 185/219/184 187/220/184 189/221/184
f 183/222/185 184/223/185 190/224/185
f 193/225/186 189/221/186 187/220/186 192/226/186
f 191/227/187 188/228/187 189/221/187 193/225/187
f 188/228/188 185/219/188 189/221/188
f 186/229/189 183/222/189 190/224/189
f 184/223/190 191/227/190 193/225/190 190/224/190
f 190/224/191 193/225/191 192/226/191 186/229/191
f 196/230/192 198/231/192 200/232/192
f 194/233/193 195/234/193 201/235/193
f 204/236/194 200/232/194 198/231/194 203/237/194
f 202/238/195 199/239/195 200/232/195 204/236/195
f 199/239/196 196/230/196 200/232/196
f 197/240/197 194/233/197 201/235/197
f 195/234/198 202/238/198 204/236/198 201/235/198
f 201/235/199 204/236/199 203/237/199 197/240/199
f 207/241/200 209/242/200 211/243/200
f 205/244/201 206/245/201 212/246/201
f 215/247/202 211/243/202 209/242/202 214/248/202
f 213/249/203 210/250/203 211/243/203 215/247/203
f 210/250/204 207/241/204 211/243/204
f 208/251/205 205/244/205 212/246/205
f 206/245/206 213/249/206 215/247/206 212/246/206
f 212/246/207 215/247/207 214/248/207 208/251/207
