# Blender v2.78 (sub 0) OBJ File: 'Low_Poly_Trees_Pack.blend'
# www.blender.org
g Palm_Tree_Coconut_OneSided_s_03
v 0.167891 3.816170 0.015611
v 0.240773 3.745267 0.076602
v 0.159014 3.827266 0.110909
v 0.148944 3.916721 0.057709
v 0.224482 3.890005 -0.009478
v 0.281235 3.784042 0.002199
v 0.266870 3.801997 0.156395
v 0.210118 3.907961 0.144717
v 0.250579 3.946735 0.070315
v 0.332339 3.864736 0.036008
v 0.342408 3.775282 0.089208
v 0.323462 3.875832 0.131306
v 0.183703 3.965462 -0.083217
v 0.131721 3.913151 -0.177573
v 0.135109 3.896615 -0.059439
v 0.216931 3.907776 -0.004387
v 0.264111 3.931209 -0.088501
v 0.211448 3.934531 -0.195534
v 0.132822 3.823135 -0.157059
v 0.185485 3.819813 -0.050026
v 0.265212 3.841194 -0.067987
v 0.261824 3.857729 -0.186121
v 0.180002 3.846568 -0.241173
v 0.213230 3.788883 -0.162343
v 0.076146 3.880375 0.044224
v -0.040670 3.858992 0.055020
v 0.030119 3.920227 -0.018183
v 0.108499 3.972369 0.011886
v 0.086149 3.943357 0.103675
v -0.006042 3.873288 0.130332
v -0.080514 3.937772 0.029355
v 0.011677 4.007841 0.002698
v 0.046305 4.022137 0.078010
v -0.024484 3.960902 0.151213
v -0.102863 3.908761 0.121144
v -0.070511 4.000754 0.088806
v -0.387374 2.861707 0.969177
v 0.032076 3.223010 0.967472
v 0.156634 4.012963 0.015754
v -0.506884 3.374686 0.840757
v -0.273139 3.919570 0.392836
v 0.291077 3.760788 0.525489
v 0.019210 3.884951 0.475835
v -0.231133 3.334672 0.926219
v 0.233450 3.534584 0.767281
v -0.412169 3.716275 0.615490
v -0.081523 3.670193 0.719007
v 0.813003 2.704572 -0.590598
v 0.775285 3.235363 -0.748689
v 0.174563 4.050018 -0.005168
v 0.970595 3.134549 -0.258960
v 0.643805 3.819691 0.055467
v 0.434783 3.912914 -0.457758
v 0.562534 3.912157 -0.200781
v 0.904086 3.216805 -0.508377
v 0.643815 3.649204 -0.662550
v 0.877776 3.528439 -0.075905
v 0.799713 3.628618 -0.374916
v -0.514365 2.932580 -0.968119
v -0.587023 3.486192 -0.852643
v 0.168330 4.030818 0.011881
v -0.057379 3.324189 -0.992379
v 0.302458 3.889646 -0.557712
v -0.252558 4.049971 -0.403299
v 0.042673 4.018430 -0.481276
v -0.310489 3.445784 -0.938246
v -0.465626 3.840553 -0.657594
v 0.168833 3.646489 -0.824983
v -0.133762 3.794244 -0.760951
v -1.301859 3.232267 0.186657
v -1.048696 3.668494 0.411092
v 0.188620 4.016852 0.008727
v -1.074167 3.635578 -0.115059
v -0.337807 4.057844 -0.231858
v -0.315365 4.066502 0.320144
v -0.317784 4.112170 0.043638
v -1.069502 3.695491 0.146468
v -0.700420 3.931198 0.424607
v -0.730931 3.891768 -0.205666
v -0.725760 3.965781 0.107535
v 0.956006 2.940281 0.721994
v 1.058996 3.358639 0.474562
v 0.164063 4.022368 -0.002997
v 0.733455 3.374244 0.820132
v 0.332731 3.941232 0.484533
v 0.670237 3.901608 0.121490
v 0.508638 3.966539 0.303953
v 0.911006 3.401603 0.658722
v 0.928828 3.674054 0.279965
v 0.538864 3.692748 0.693922
v 0.752315 3.727337 0.501157
v 0.000000 0.000000 -0.167270
v -0.159084 0.000000 -0.051689
v -0.098319 0.000000 0.135325
v 0.098319 0.000000 0.135325
v 0.159084 0.000000 -0.051689
v 0.089578 3.794394 -0.056963
v 0.048579 3.807685 -0.025649
v 0.064239 3.802608 0.025018
v 0.114917 3.786180 0.025018
v 0.130577 3.781104 -0.025649
v -0.237301 0.865439 0.092314
v -0.233303 2.674058 0.052986
v -0.206044 2.670460 -0.032252
v -0.194100 0.863056 -0.041536
v -0.420305 0.875538 -0.041536
v -0.348774 2.689299 -0.032252
v -0.321515 2.685701 0.052986
v -0.377104 0.873154 0.092314
v -0.277409 2.679879 -0.084932
v -0.307202 0.869297 -0.124260
v 0.121436 3.881579 -0.098227
v 0.039163 3.908250 -0.035390
v 0.070589 3.898063 0.066282
v 0.172283 3.865096 0.066282
v 0.203708 3.854908 -0.035390
v 0.190669 4.088390 -0.042756
v 0.163880 4.097074 -0.022295
v 0.174112 4.093758 0.010810
v 0.207225 4.083023 0.010810
v 0.217457 4.079706 -0.022295
v -0.316572 1.729114 0.072650
v -0.281342 1.726123 -0.036894
v -0.465809 1.741784 -0.036894
v -0.430579 1.738793 0.072650
v -0.373575 1.733953 -0.104596
vt 0.9078 0.0834
vt 0.8997 0.0940
vt 0.8956 0.0784
vt 0.9159 0.0940
vt 0.9078 0.0733
vt 0.9201 0.0784
vt 0.8985 0.0329
vt 0.9181 0.0329
vt 0.9083 0.0434
vt 0.8857 0.0476
vt 0.9005 0.0476
vt 0.8997 0.0628
vt 0.9159 0.0628
vt 0.9310 0.0476
vt 0.9162 0.0476
vt 0.8985 0.0622
vt 0.9181 0.0622
vt 0.9083 0.0518
vt 0.9699 0.0821
vt 0.9623 0.0919
vt 0.9584 0.0774
vt 0.9774 0.0919
vt 0.9699 0.0726
vt 0.9813 0.0774
vt 0.9612 0.0349
vt 0.9795 0.0349
vt 0.9703 0.0447
vt 0.9492 0.0486
vt 0.9630 0.0486
vt 0.9623 0.0628
vt 0.9774 0.0628
vt 0.9915 0.0486
vt 0.9777 0.0486
vt 0.9612 0.0623
vt 0.9795 0.0623
vt 0.9703 0.0525
vt 0.9699 0.0821
vt 0.9623 0.0919
vt 0.9584 0.0774
vt 0.9774 0.0919
vt 0.9699 0.0726
vt 0.9813 0.0774
vt 0.9612 0.0349
vt 0.9795 0.0349
vt 0.9703 0.0447
vt 0.9492 0.0486
vt 0.9630 0.0486
vt 0.9623 0.0628
vt 0.9774 0.0628
vt 0.9915 0.0486
vt 0.9777 0.0486
vt 0.9612 0.0623
vt 0.9795 0.0623
vt 0.9703 0.0525
vt 0.6885 0.1406
vt 0.7005 0.1683
vt 0.6885 0.1673
vt 0.6885 0.2405
vt 0.6771 0.2136
vt 0.6885 0.2128
vt 0.6885 0.1913
vt 0.7026 0.1924
vt 0.6744 0.1924
vt 0.6766 0.1683
vt 0.6999 0.2136
vt 0.8184 0.1406
vt 0.8303 0.1683
vt 0.8184 0.1673
vt 0.8184 0.2405
vt 0.8070 0.2136
vt 0.8184 0.2128
vt 0.8184 0.1913
vt 0.8324 0.1924
vt 0.8043 0.1924
vt 0.8064 0.1683
vt 0.8298 0.2136
vt 0.6885 0.1406
vt 0.7005 0.1683
vt 0.6885 0.1673
vt 0.6885 0.2405
vt 0.6771 0.2136
vt 0.6885 0.2128
vt 0.6885 0.1913
vt 0.7026 0.1924
vt 0.6744 0.1924
vt 0.6766 0.1683
vt 0.6999 0.2136
vt 0.8184 0.1406
vt 0.8303 0.1683
vt 0.8184 0.1673
vt 0.8184 0.2405
vt 0.8070 0.2136
vt 0.8184 0.2128
vt 0.8184 0.1913
vt 0.8324 0.1924
vt 0.8043 0.1924
vt 0.8064 0.1683
vt 0.8298 0.2136
vt 0.6885 0.1406
vt 0.7005 0.1683
vt 0.6885 0.1673
vt 0.6885 0.2405
vt 0.6771 0.2136
vt 0.6885 0.2128
vt 0.6885 0.1913
vt 0.7026 0.1924
vt 0.6744 0.1924
vt 0.6766 0.1683
vt 0.6999 0.2136
vt 0.5629 0.9517
vt 0.5636 0.9820
vt 0.5623 0.9818
vt 0.5608 0.9518
vt 0.5689 0.9517
vt 0.5676 0.9821
vt 0.5663 0.9823
vt 0.5669 0.9516
vt 0.5649 0.9517
vt 0.5650 0.9822
vt 0.5709 0.9519
vt 0.5689 0.9819
vt 0.5689 0.8905
vt 0.5678 0.9221
vt 0.5646 0.9222
vt 0.5644 0.8907
vt 0.5674 0.9369
vt 0.5647 0.9369
vt 0.5779 0.8916
vt 0.5742 0.9227
vt 0.5710 0.9223
vt 0.5734 0.8908
vt 0.5726 0.9373
vt 0.5700 0.9370
vt 0.5614 0.9224
vt 0.5599 0.8911
vt 0.5621 0.9370
vt 0.5582 0.9225
vt 0.5554 0.8913
vt 0.5595 0.9372
vt 0.5633 0.9843
vt 0.5613 0.9841
vt 0.5679 0.9843
vt 0.5664 0.9842
vt 0.5649 0.9843
vt 0.5699 0.9842
vt 0.5673 0.9881
vt 0.5662 0.9880
vt 0.5650 0.9879
vt 0.5639 0.9881
vt 0.5684 0.9884
vt 0.5627 0.9884
vt 0.5287 0.9511
vt 0.5335 0.9476
vt 0.5383 0.9511
vt 0.5364 0.9567
vt 0.5305 0.9567
vn -0.7045 -0.7095 0.0170
vn -0.2866 -0.7769 -0.5607
vn -0.9852 -0.1548 -0.0738
vn -0.6086 0.2061 -0.7662
vn -0.1702 -0.1976 -0.9654
vn 0.3043 -0.9025 -0.3048
vn -0.4160 -0.6714 0.6134
vn -0.7792 0.2533 0.5733
vn -0.1789 0.8286 -0.5306
vn 0.4095 0.1196 -0.9045
vn 0.1789 -0.8286 0.5306
vn -0.4095 -0.1196 0.9045
vn -0.3043 0.9025 0.3048
vn 0.4160 0.6714 -0.6134
vn 0.7792 -0.2533 -0.5733
vn 0.6086 -0.2061 0.7662
vn 0.1702 0.1976 0.9654
vn 0.2866 0.7769 0.5607
vn 0.7045 0.7095 -0.0170
vn 0.9852 0.1548 0.0738
vn -0.7947 0.5977 0.1064
vn -0.3124 0.8933 -0.3232
vn -0.5081 0.5789 0.6378
vn 0.3765 0.8161 0.4385
vn 0.3782 0.9122 -0.1578
vn -0.3185 0.5238 -0.7901
vn -0.9996 -0.0059 0.0278
vn -0.5192 -0.2400 0.8203
vn 0.8496 0.1271 0.5119
vn 0.7951 0.4754 -0.3765
vn -0.8496 -0.1271 -0.5119
vn -0.7951 -0.4754 0.3765
vn 0.3185 -0.5238 0.7901
vn 0.9996 0.0059 -0.0278
vn 0.5192 0.2400 -0.8203
vn -0.3765 -0.8161 -0.4385
vn -0.3782 -0.9122 0.1578
vn 0.3124 -0.8933 0.3232
vn 0.7947 -0.5977 -0.1064
vn 0.5081 -0.5789 -0.6378
vn 0.0936 -0.8064 -0.5840
vn 0.1880 -0.9772 0.0990
vn 0.5626 -0.4432 -0.6979
vn 0.9484 -0.2839 0.1412
vn 0.6052 -0.5952 0.5287
vn -0.3523 -0.8764 0.3283
vn -0.4108 -0.4636 -0.7851
vn 0.1868 0.2648 -0.9460
vn 0.7838 0.5113 0.3524
vn 0.3720 -0.1404 0.9176
vn -0.7838 -0.5113 -0.3524
vn -0.3720 0.1404 -0.9176
vn 0.3523 0.8764 -0.3283
vn 0.4109 0.4636 0.7851
vn -0.1868 -0.2648 0.9460
vn -0.9484 0.2839 -0.1412
vn -0.6052 0.5952 -0.5287
vn -0.1880 0.9772 -0.0990
vn -0.0936 0.8064 0.5840
vn -0.5626 0.4432 0.6979
vn 0.0349 0.9601 0.2776
vn -0.1023 0.1235 0.9871
vn -0.0921 0.7642 0.6384
vn 0.1915 0.6942 0.6938
vn 0.3372 0.8761 0.3445
vn -0.2683 0.1747 0.9474
vn 0.0801 0.4996 0.8625
vn -0.1686 0.5731 0.8020
vn 0.4126 0.8908 0.1906
vn 0.8760 -0.0794 -0.4757
vn 0.7729 0.6345 -0.0017
vn 0.6278 0.7188 -0.2988
vn 0.2719 0.9532 -0.1324
vn 0.9484 -0.1216 -0.2930
vn 0.8347 0.3512 -0.4241
vn 0.9445 0.2910 -0.1522
vn 0.4102 0.9031 -0.1272
vn -0.2700 0.1625 -0.9490
vn 0.1705 0.6993 -0.6942
vn -0.0731 0.7996 -0.5960
vn 0.0934 0.9944 -0.0488
vn -0.1532 0.1180 -0.9811
vn -0.1848 0.5202 -0.8338
vn 0.0253 0.4449 -0.8952
vn 0.1676 0.9648 -0.2024
vn -0.8838 0.4534 0.1157
vn -0.3750 0.9090 -0.1821
vn -0.3045 0.9419 0.1416
vn 0.1932 0.9683 0.1582
vn -0.8936 0.4408 -0.0850
vn -0.6019 0.7877 0.1311
vn -0.6194 0.7669 -0.1681
vn 0.0197 0.9873 0.1575
vn 0.7874 0.1585 0.5957
vn 0.3735 0.7726 0.5135
vn 0.5637 0.7901 0.2408
vn 0.2570 0.9597 -0.1139
vn 0.6494 0.1652 0.7423
vn 0.7077 0.5573 0.4342
vn 0.5034 0.5643 0.6544
vn 0.9108 -0.2777 0.3054
vn -0.8982 0.3176 0.3039
vn 0.5684 -0.1672 -0.8056
vn 0.0048 0.0235 0.9997
vn -0.5594 0.2039 -0.8034
vn -0.5832 -0.1658 -0.7952
vn -0.5857 0.0763 -0.8069
vn 0.0011 0.0498 0.9988
vn 0.0022 0.0206 0.9998
vn 0.5748 0.2431 -0.7813
vn 0.5892 -0.0431 -0.8069
vn -0.9147 -0.2769 0.2943
vn -0.9447 0.1152 0.3070
vn 0.8885 0.3595 0.2852
vn 0.9486 -0.0772 0.3069
vn 0.6999 -0.6562 0.2821
vn -0.9553 -0.0614 0.2891
vn 0.4125 -0.5085 -0.7559
vn -0.1253 -0.3866 0.9137
vn -0.6285 -0.1331 -0.7664
vn -0.8054 0.5111 0.3001
vn 0.6088 0.0090 -0.7933
vn 0.0760 0.2345 0.9691
vn -0.4833 0.3741 -0.7915
vn 0.9505 -0.0757 0.3014
vn 0.3084 0.9513 -0.0000
vn 0.9482 0.0941 0.3035
vn -0.9509 -0.0517 0.3053
vn 0.5926 0.0640 -0.8029
vn 0.0016 0.0229 0.9997
vn -0.5920 -0.0269 -0.8055
s off
f 1/1/1 2/2/1 3/3/1
f 2/2/2 1/1/2 6/4/2
f 1/1/3 3/3/3 4/5/3
f 1/1/4 4/5/4 5/6/4
f 1/1/5 5/6/5 6/4/5
f 2/7/6 6/8/6 11/9/6
f 3/10/7 2/7/7 7/11/7
f 4/5/8 3/3/8 8/12/8
f 5/6/9 4/5/9 9/13/9
f 6/8/10 5/14/10 10/15/10
f 2/7/11 11/9/11 7/11/11
f 3/10/12 7/11/12 8/16/12
f 4/5/13 8/12/13 9/13/13
f 5/14/14 9/17/14 10/15/14
f 6/8/15 10/15/15 11/9/15
f 7/11/16 11/9/16 12/18/16
f 8/16/17 7/11/17 12/18/17
f 9/17/18 8/16/18 12/18/18
f 10/15/19 9/17/19 12/18/19
f 11/9/20 10/15/20 12/18/20
f 13/19/21 14/20/21 15/21/21
f 14/20/22 13/19/22 18/22/22
f 13/19/23 15/21/23 16/23/23
f 13/19/24 16/23/24 17/24/24
f 13/19/25 17/24/25 18/22/25
f 14/25/26 18/26/26 23/27/26
f 15/28/27 14/25/27 19/29/27
f 16/23/28 15/21/28 20/30/28
f 17/24/29 16/23/29 21/31/29
f 18/26/30 17/32/30 22/33/30
f 14/25/31 23/27/31 19/29/31
f 15/28/32 19/29/32 20/34/32
f 16/23/33 20/30/33 21/31/33
f 17/32/34 21/35/34 22/33/34
f 18/26/35 22/33/35 23/27/35
f 19/29/36 23/27/36 24/36/36
f 20/34/37 19/29/37 24/36/37
f 21/35/38 20/34/38 24/36/38
f 22/33/39 21/35/39 24/36/39
f 23/27/40 22/33/40 24/36/40
f 25/37/41 26/38/41 27/39/41
f 26/38/42 25/37/42 30/40/42
f 25/37/43 27/39/43 28/41/43
f 25/37/44 28/41/44 29/42/44
f 25/37/45 29/42/45 30/40/45
f 26/43/46 30/44/46 35/45/46
f 27/46/47 26/43/47 31/47/47
f 28/41/48 27/39/48 32/48/48
f 29/42/49 28/41/49 33/49/49
f 30/44/50 29/50/50 34/51/50
f 26/43/51 35/45/51 31/47/51
f 27/46/52 31/47/52 32/52/52
f 28/41/53 32/48/53 33/49/53
f 29/50/54 33/53/54 34/51/54
f 30/44/55 34/51/55 35/45/55
f 31/47/56 35/45/56 36/54/56
f 32/52/57 31/47/57 36/54/57
f 33/53/58 32/52/58 36/54/58
f 34/51/59 33/53/59 36/54/59
f 35/45/60 34/51/60 36/54/60
f 39/55/61 41/56/61 43/57/61
f 37/58/62 38/59/62 44/60/62
f 47/61/63 43/57/63 41/56/63 46/62/63
f 45/63/64 42/64/64 43/57/64 47/61/64
f 42/64/65 39/55/65 43/57/65
f 40/65/66 37/58/66 44/60/66
f 38/59/67 45/63/67 47/61/67 44/60/67
f 44/60/68 47/61/68 46/62/68 40/65/68
f 50/66/69 52/67/69 54/68/69
f 48/69/70 49/70/70 55/71/70
f 58/72/71 54/68/71 52/67/71 57/73/71
f 56/74/72 53/75/72 54/68/72 58/72/72
f 53/75/73 50/66/73 54/68/73
f 51/76/74 48/69/74 55/71/74
f 49/70/75 56/74/75 58/72/75 55/71/75
f 55/71/76 58/72/76 57/73/76 51/76/76
f 61/77/77 63/78/77 65/79/77
f 59/80/78 60/81/78 66/82/78
f 69/83/79 65/79/79 63/78/79 68/84/79
f 67/85/80 64/86/80 65/79/80 69/83/80
f 64/86/81 61/77/81 65/79/81
f 62/87/82 59/80/82 66/82/82
f 60/81/83 67/85/83 69/83/83 66/82/83
f 66/82/84 69/83/84 68/84/84 62/87/84
f 72/88/85 74/89/85 76/90/85
f 70/91/86 71/92/86 77/93/86
f 80/94/87 76/90/87 74/89/87 79/95/87
f 78/96/88 75/97/88 76/90/88 80/94/88
f 75/97/89 72/88/89 76/90/89
f 73/98/90 70/91/90 77/93/90
f 71/92/91 78/96/91 80/94/91 77/93/91
f 77/93/92 80/94/92 79/95/92 73/98/92
f 83/99/93 85/100/93 87/101/93
f 81/102/94 82/103/94 88/104/94
f 91/105/95 87/101/95 85/100/95 90/106/95
f 89/107/96 86/108/96 87/101/96 91/105/96
f 86/108/97 83/99/97 87/101/97
f 84/109/98 81/102/98 88/104/98
f 82/103/99 89/107/99 91/105/99 88/104/99
f 88/104/100 91/105/100 90/106/100 84/109/100
f 104/110/101 101/111/101 100/112/101 103/113/101
f 108/114/102 99/115/102 98/116/102 107/117/102
f 110/118/103 97/119/103 101/111/103 104/110/103
f 103/120/104 100/121/104 99/115/104 108/114/104
f 107/117/105 98/116/105 97/119/105 110/118/105
f 93/122/106 106/123/106 111/124/106 92/125/106
f 124/126/107 107/117/107 110/118/107 126/127/107
f 95/128/108 102/129/108 109/130/108 94/131/108
f 122/132/109 103/120/109 108/114/109 125/133/109
f 92/125/110 111/124/110 105/134/110 96/135/110
f 126/127/111 110/118/111 104/110/111 123/136/111
f 94/131/112 109/130/112 106/123/112 93/122/112
f 125/133/113 108/114/113 107/117/113 124/126/113
f 96/135/114 105/134/114 102/137/114 95/138/114
f 123/136/115 104/110/115 103/113/115 122/139/115
f 101/111/116 116/140/116 115/141/116 100/112/116
f 99/115/117 114/142/117 113/143/117 98/116/117
f 97/119/118 112/144/118 116/140/118 101/111/118
f 100/121/119 115/145/119 114/142/119 99/115/119
f 98/116/120 113/143/120 112/144/120 97/119/120
f 114/142/121 119/146/121 118/147/121 113/143/121
f 112/144/122 117/148/122 121/149/122 116/140/122
f 115/145/123 120/150/123 119/146/123 114/142/123
f 113/143/124 118/147/124 117/148/124 112/144/124
f 116/140/125 121/149/125 120/151/125 115/141/125
f 119/152/126 120/153/126 121/154/126 117/155/126
f 118/156/126 119/152/126 117/155/126
f 105/134/127 123/136/127 122/139/127 102/137/127
f 109/130/128 125/133/128 124/126/128 106/123/128
f 111/124/129 126/127/129 123/136/129 105/134/129
f 102/129/130 122/132/130 125/133/130 109/130/130
f 106/123/131 124/126/131 126/127/131 111/124/131
