# Blender v2.78 (sub 0) OBJ File: 'Low_Poly_Trees_Pack.blend'
# www.blender.org
g Palm_Tree_Coconut_OneSided_s_04
v 0.471538 4.068666 0.016515
v 0.548640 3.993659 0.081037
v 0.462147 4.080406 0.117331
v 0.451494 4.175039 0.061050
v 0.531406 4.146777 -0.010027
v 0.591444 4.034678 0.002327
v 0.576248 4.053674 0.165450
v 0.516210 4.165772 0.153096
v 0.559014 4.206791 0.074386
v 0.645507 4.120045 0.038092
v 0.656160 4.025412 0.094373
v 0.636116 4.131784 0.138908
v 0.488266 4.226602 -0.088035
v 0.433274 4.171263 -0.187854
v 0.436859 4.153770 -0.062880
v 0.523418 4.165577 -0.004641
v 0.573329 4.190366 -0.093624
v 0.517617 4.193881 -0.206855
v 0.434439 4.076036 -0.166153
v 0.490151 4.072522 -0.052922
v 0.574494 4.095140 -0.071923
v 0.570910 4.112632 -0.196897
v 0.484350 4.100825 -0.255136
v 0.519503 4.039800 -0.171742
v 0.400052 4.123747 0.047368
v 0.264351 4.098908 0.059910
v 0.346584 4.170042 -0.025129
v 0.437635 4.230613 0.009802
v 0.411672 4.196912 0.116430
v 0.304577 4.115515 0.147397
v 0.218065 4.190423 0.030095
v 0.325160 4.271821 -0.000872
v 0.365387 4.288427 0.086615
v 0.283154 4.217293 0.171654
v 0.192103 4.156722 0.136723
v 0.229686 4.263588 0.099157
v -0.281776 3.493247 0.932146
v -0.059654 3.954970 0.984969
v 0.523777 4.336157 -0.014261
v -0.420123 3.904176 0.628651
v -0.023827 4.351421 0.136673
v 0.353533 4.404596 0.509687
v 0.160493 4.423613 0.318483
v -0.249449 3.968514 0.808413
v 0.105478 4.261281 0.836997
v -0.326326 4.200434 0.410166
v -0.122370 4.279515 0.625585
v 0.783187 3.016765 1.096022
v 1.095063 3.436548 0.807806
v 0.441434 4.273584 0.029308
v 0.552938 3.545249 1.115445
v 0.374329 4.137910 0.630592
v 0.941858 4.024116 0.308539
v 0.675132 4.129269 0.477563
v 0.842463 3.529395 0.976198
v 1.088763 3.782159 0.523909
v 0.439353 3.912371 0.892427
v 0.787128 3.895369 0.726377
v 1.381370 2.951532 -0.379368
v 1.343539 3.506185 -0.568570
v 0.444660 4.314147 -0.016754
v 1.405261 3.421738 -0.010417
v 0.921742 4.115588 0.190309
v 0.853752 4.190586 -0.395487
v 0.907151 4.203574 -0.096906
v 1.404482 3.500391 -0.286020
v 1.148866 3.930663 -0.533376
v 1.222802 3.829504 0.135234
v 1.223423 3.925604 -0.194730
v 0.239974 3.065395 -1.209026
v 0.077136 3.642852 -1.146878
v 0.431294 4.293460 -0.025170
v 0.663962 3.520444 -1.070561
v 0.798078 4.153008 -0.526440
v 0.180798 4.271393 -0.598180
v 0.503014 4.265081 -0.558155
v 0.384791 3.625399 -1.121281
v 0.089669 4.029004 -0.922528
v 0.792625 3.882371 -0.831109
v 0.458942 4.010356 -0.892514
v -1.023864 3.316326 -0.335525
v -0.887575 3.801235 -0.039962
v 0.454196 4.280611 -0.025588
v -0.726517 3.760313 -0.573012
v 0.010827 4.273008 -0.450050
v -0.160192 4.288275 0.108679
v -0.070023 4.334143 -0.170017
v -0.818252 3.825801 -0.312469
v -0.568212 4.110600 0.084492
v -0.375281 4.061581 -0.554047
v -0.485748 4.142354 -0.242252
v 0.000000 0.000000 -0.178742
v -0.169994 0.000000 -0.055234
v -0.105062 0.000000 0.144606
v 0.105062 0.000000 0.144606
v 0.169994 0.000000 -0.055234
v 0.420282 4.059428 -0.060870
v 0.375478 4.070095 -0.027408
v 0.392592 4.066021 0.026733
v 0.447972 4.052836 0.026733
v 0.465085 4.048762 -0.027408
v 0.354327 0.904531 0.098645
v 0.243773 2.740214 0.056620
v 0.272902 2.736370 -0.034464
v 0.400491 0.901983 -0.044385
v 0.158773 0.915322 -0.044385
v 0.120383 2.756502 -0.034464
v 0.149511 2.752657 0.056620
v 0.204937 0.912775 0.098645
v 0.196642 2.746436 -0.090757
v 0.279632 0.908653 -0.132782
v 0.446794 4.155009 -0.104964
v 0.356888 4.176414 -0.037818
v 0.391229 4.168238 0.070828
v 0.502359 4.141780 0.070828
v 0.536700 4.133604 -0.037818
v 0.502932 4.381196 -0.045688
v 0.473657 4.388165 -0.023824
v 0.484839 4.385503 0.011552
v 0.521024 4.376888 0.011552
v 0.532206 4.374226 -0.023824
v 0.463703 1.788083 0.077633
v 0.501432 1.790083 -0.039424
v 0.303882 1.779609 -0.039424
v 0.341611 1.781609 0.077633
v 0.402657 1.784846 -0.111769
v 0.274830 3.396221 0.041677
v 0.176956 3.413274 -0.030936
v 0.297935 3.392196 -0.030936
v 0.200061 3.409249 0.041677
v 0.237446 3.402735 -0.075813
vt 0.9078 0.0834
vt 0.8997 0.0940
vt 0.8956 0.0784
vt 0.9159 0.0940
vt 0.9078 0.0733
vt 0.9201 0.0784
vt 0.8985 0.0329
vt 0.9181 0.0329
vt 0.9083 0.0434
vt 0.8857 0.0476
vt 0.9005 0.0476
vt 0.8997 0.0628
vt 0.9159 0.0628
vt 0.9310 0.0476
vt 0.9162 0.0476
vt 0.8985 0.0622
vt 0.9181 0.0622
vt 0.9083 0.0518
vt 0.9699 0.0821
vt 0.9623 0.0919
vt 0.9584 0.0774
vt 0.9774 0.0919
vt 0.9699 0.0726
vt 0.9813 0.0774
vt 0.9612 0.0349
vt 0.9795 0.0349
vt 0.9703 0.0447
vt 0.9492 0.0486
vt 0.9630 0.0486
vt 0.9623 0.0628
vt 0.9774 0.0628
vt 0.9915 0.0486
vt 0.9777 0.0486
vt 0.9612 0.0623
vt 0.9795 0.0623
vt 0.9703 0.0525
vt 0.9699 0.0821
vt 0.9623 0.0919
vt 0.9584 0.0774
vt 0.9774 0.0919
vt 0.9699 0.0726
vt 0.9813 0.0774
vt 0.9612 0.0349
vt 0.9795 0.0349
vt 0.9703 0.0447
vt 0.9492 0.0486
vt 0.9630 0.0486
vt 0.9623 0.0628
vt 0.9774 0.0628
vt 0.9915 0.0486
vt 0.9777 0.0486
vt 0.9612 0.0623
vt 0.9795 0.0623
vt 0.9703 0.0525
vt 0.6961 0.1343
vt 0.7082 0.1623
vt 0.6961 0.1613
vt 0.6961 0.2356
vt 0.6845 0.2083
vt 0.6961 0.2074
vt 0.6961 0.1856
vt 0.7104 0.1867
vt 0.6818 0.1867
vt 0.6840 0.1623
vt 0.7077 0.2083
vt 0.8104 0.1343
vt 0.8225 0.1623
vt 0.8104 0.1613
vt 0.8104 0.2356
vt 0.7989 0.2083
vt 0.8104 0.2074
vt 0.8104 0.1856
vt 0.8247 0.1867
vt 0.7961 0.1867
vt 0.7983 0.1623
vt 0.8220 0.2083
vt 0.9441 0.1343
vt 0.9562 0.1623
vt 0.9441 0.1613
vt 0.9441 0.2356
vt 0.9325 0.2083
vt 0.9441 0.2074
vt 0.9441 0.1856
vt 0.9583 0.1867
vt 0.9298 0.1867
vt 0.9320 0.1623
vt 0.9556 0.2083
vt 0.8104 0.1343
vt 0.8225 0.1623
vt 0.8104 0.1613
vt 0.8104 0.2356
vt 0.7989 0.2083
vt 0.8104 0.2074
vt 0.8104 0.1856
vt 0.8247 0.1867
vt 0.7961 0.1867
vt 0.7983 0.1623
vt 0.8220 0.2083
vt 0.9441 0.1343
vt 0.9562 0.1623
vt 0.9441 0.1613
vt 0.9441 0.2356
vt 0.9325 0.2083
vt 0.9441 0.2074
vt 0.9441 0.1856
vt 0.9583 0.1867
vt 0.9298 0.1867
vt 0.9320 0.1623
vt 0.9556 0.2083
vt 0.5634 0.9637
vt 0.5638 0.9781
vt 0.5625 0.9779
vt 0.5618 0.9637
vt 0.5681 0.9638
vt 0.5675 0.9782
vt 0.5663 0.9783
vt 0.5666 0.9638
vt 0.5650 0.9638
vt 0.5650 0.9782
vt 0.5697 0.9638
vt 0.5687 0.9780
vt 0.5687 0.8915
vt 0.5677 0.9214
vt 0.5647 0.9215
vt 0.5645 0.8917
vt 0.5673 0.9353
vt 0.5669 0.9493
vt 0.5649 0.9493
vt 0.5648 0.9354
vt 0.5773 0.8925
vt 0.5738 0.9220
vt 0.5708 0.9216
vt 0.5730 0.8918
vt 0.5722 0.9358
vt 0.5707 0.9496
vt 0.5688 0.9494
vt 0.5698 0.9355
vt 0.5617 0.9216
vt 0.5602 0.8921
vt 0.5630 0.9494
vt 0.5624 0.9355
vt 0.5586 0.9218
vt 0.5559 0.8923
vt 0.5611 0.9495
vt 0.5599 0.9357
vt 0.5635 0.9802
vt 0.5615 0.9801
vt 0.5678 0.9802
vt 0.5663 0.9802
vt 0.5650 0.9802
vt 0.5697 0.9801
vt 0.5672 0.9838
vt 0.5662 0.9837
vt 0.5651 0.9837
vt 0.5640 0.9838
vt 0.5683 0.9841
vt 0.5629 0.9841
vt 0.5287 0.9383
vt 0.5335 0.9348
vt 0.5383 0.9383
vt 0.5364 0.9439
vt 0.5305 0.9439
vn -0.7045 -0.7095 0.0170
vn -0.2865 -0.7769 -0.5607
vn -0.9852 -0.1548 -0.0737
vn -0.6086 0.2061 -0.7662
vn -0.1702 -0.1976 -0.9654
vn 0.3043 -0.9025 -0.3048
vn -0.4160 -0.6714 0.6134
vn -0.7792 0.2533 0.5733
vn -0.1789 0.8286 -0.5306
vn 0.4095 0.1196 -0.9045
vn 0.1789 -0.8286 0.5306
vn -0.4095 -0.1196 0.9045
vn -0.3043 0.9025 0.3048
vn 0.4160 0.6714 -0.6134
vn 0.7792 -0.2533 -0.5733
vn 0.6086 -0.2061 0.7662
vn 0.1702 0.1976 0.9654
vn 0.2866 0.7769 0.5607
vn 0.7045 0.7095 -0.0170
vn 0.9852 0.1548 0.0737
vn -0.7947 0.5977 0.1064
vn -0.3124 0.8933 -0.3232
vn -0.5081 0.5789 0.6378
vn 0.3765 0.8161 0.4385
vn 0.3782 0.9122 -0.1578
vn -0.3185 0.5238 -0.7901
vn -0.9996 -0.0059 0.0278
vn -0.5192 -0.2400 0.8203
vn 0.8496 0.1271 0.5119
vn 0.7951 0.4754 -0.3765
vn -0.8496 -0.1271 -0.5119
vn -0.7951 -0.4754 0.3765
vn 0.3185 -0.5238 0.7901
vn 0.9996 0.0059 -0.0278
vn 0.5192 0.2400 -0.8203
vn -0.3765 -0.8161 -0.4385
vn -0.3782 -0.9122 0.1578
vn 0.3124 -0.8933 0.3232
vn 0.7947 -0.5977 -0.1064
vn 0.5081 -0.5789 -0.6378
vn 0.0936 -0.8064 -0.5840
vn 0.1880 -0.9772 0.0990
vn 0.5626 -0.4432 -0.6979
vn 0.9484 -0.2839 0.1412
vn 0.6052 -0.5952 0.5287
vn -0.3523 -0.8764 0.3283
vn -0.4109 -0.4636 -0.7851
vn 0.1868 0.2648 -0.9460
vn 0.7838 0.5113 0.3524
vn 0.3720 -0.1404 0.9176
vn -0.7838 -0.5113 -0.3524
vn -0.3720 0.1404 -0.9176
vn 0.3523 0.8764 -0.3283
vn 0.4108 0.4636 0.7851
vn -0.1868 -0.2648 0.9460
vn -0.9484 0.2839 -0.1412
vn -0.6052 0.5952 -0.5287
vn -0.1880 0.9772 -0.0990
vn -0.0936 0.8064 0.5840
vn -0.5626 0.4432 0.6979
vn -0.0604 0.9472 -0.3149
vn -0.6536 0.2320 0.7204
vn -0.4081 0.9115 0.0518
vn -0.1808 0.9439 0.2763
vn 0.1694 0.9828 -0.0733
vn -0.7455 0.2150 0.6309
vn -0.5295 0.5816 0.6176
vn -0.6949 0.5550 0.4573
vn 0.1463 0.9614 0.2332
vn 0.5810 0.1209 0.8049
vn 0.3120 0.7575 0.5734
vn 0.5533 0.7161 0.4255
vn 0.4088 0.9091 0.0796
vn 0.4350 0.1569 0.8866
vn 0.6010 0.5122 0.6135
vn 0.3809 0.5616 0.7346
vn 0.2679 0.9249 0.2697
vn 0.9775 -0.0053 -0.2109
vn 0.6875 0.7000 0.1932
vn 0.6246 0.7692 -0.1350
vn 0.2184 0.9725 -0.0814
vn 0.9991 -0.0397 -0.0141
vn 0.8880 0.4204 -0.1863
vn 0.9221 0.3719 0.1071
vn 0.3553 0.9348 -0.0020
vn 0.0896 0.1315 -0.9873
vn 0.3600 0.7068 -0.6090
vn 0.0903 0.7859 -0.6117
vn 0.0257 0.9984 -0.0497
vn 0.2132 0.0972 -0.9722
vn 0.0973 0.4961 -0.8628
vn 0.3205 0.4391 -0.8393
vn 0.1465 0.9744 -0.1704
vn -0.9061 0.3746 -0.1967
vn -0.3661 0.8711 -0.3272
vn -0.4093 0.9124 0.0003
vn 0.0512 0.9826 0.1783
vn -0.8480 0.3599 -0.3890
vn -0.6731 0.7326 -0.1016
vn -0.5891 0.7082 -0.3891
vn 0.9218 -0.2362 0.3076
vn -0.9115 0.2740 0.3067
vn 0.5725 -0.1412 -0.8077
vn 0.0043 0.0215 0.9998
vn -0.5647 0.1753 -0.8065
vn -0.5718 0.2154 -0.7916
vn -0.5907 -0.1080 -0.7997
vn 0.0012 0.0502 0.9987
vn 0.0006 0.0220 0.9998
vn 0.5811 -0.1386 -0.8020
vn 0.5885 0.1449 -0.7954
vn -0.9005 0.3203 0.2942
vn -0.9373 -0.1783 0.2995
vn 0.9231 -0.2393 0.3009
vn 0.9289 0.2219 0.2964
vn 0.7499 -0.5984 0.2821
vn -0.9474 -0.1374 0.2891
vn 0.4517 -0.4740 -0.7559
vn -0.0941 -0.3954 0.9137
vn -0.6159 -0.1827 -0.7664
vn -0.8436 0.4453 0.3001
vn 0.6061 0.0575 -0.7933
vn 0.0571 0.2398 0.9691
vn -0.5115 0.3344 -0.7915
vn 0.9535 0.0003 0.3014
vn 0.2316 0.9728 0.0000
vn 0.9459 -0.1095 0.3053
vn -0.9400 0.1556 0.3035
vn 0.5892 -0.0629 -0.8056
vn 0.0002 0.0240 0.9997
vn -0.5871 0.1024 -0.8030
vn -0.5885 0.0550 -0.8066
vn 0.0034 0.0226 0.9997
vn 0.5929 -0.0184 -0.8051
vn -0.9485 0.0800 0.3065
vn 0.9515 -0.0380 0.3054
s off
f 1/1/1 2/2/1 3/3/1
f 2/2/2 1/1/2 6/4/2
f 1/1/3 3/3/3 4/5/3
f 1/1/4 4/5/4 5/6/4
f 1/1/5 5/6/5 6/4/5
f 2/7/6 6/8/6 11/9/6
f 3/10/7 2/7/7 7/11/7
f 4/5/8 3/3/8 8/12/8
f 5/6/9 4/5/9 9/13/9
f 6/8/10 5/14/10 10/15/10
f 2/7/11 11/9/11 7/11/11
f 3/10/12 7/11/12 8/16/12
f 4/5/13 8/12/13 9/13/13
f 5/14/14 9/17/14 10/15/14
f 6/8/15 10/15/15 11/9/15
f 7/11/16 11/9/16 12/18/16
f 8/16/17 7/11/17 12/18/17
f 9/17/18 8/16/18 12/18/18
f 10/15/19 9/17/19 12/18/19
f 11/9/20 10/15/20 12/18/20
f 13/19/21 14/20/21 15/21/21
f 14/20/22 13/19/22 18/22/22
f 13/19/23 15/21/23 16/23/23
f 13/19/24 16/23/24 17/24/24
f 13/19/25 17/24/25 18/22/25
f 14/25/26 18/26/26 23/27/26
f 15/28/27 14/25/27 19/29/27
f 16/23/28 15/21/28 20/30/28
f 17/24/29 16/23/29 21/31/29
f 18/26/30 17/32/30 22/33/30
f 14/25/31 23/27/31 19/29/31
f 15/28/32 19/29/32 20/34/32
f 16/23/33 20/30/33 21/31/33
f 17/32/34 21/35/34 22/33/34
f 18/26/35 22/33/35 23/27/35
f 19/29/36 23/27/36 24/36/36
f 20/34/37 19/29/37 24/36/37
f 21/35/38 20/34/38 24/36/38
f 22/33/39 21/35/39 24/36/39
f 23/27/40 22/33/40 24/36/40
f 25/37/41 26/38/41 27/39/41
f 26/38/42 25/37/42 30/40/42
f 25/37/43 27/39/43 28/41/43
f 25/37/44 28/41/44 29/42/44
f 25/37/45 29/42/45 30/40/45
f 26/43/46 30/44/46 35/45/46
f 27/46/47 26/43/47 31/47/47
f 28/41/48 27/39/48 32/48/48
f 29/42/49 28/41/49 33/49/49
f 30/44/50 29/50/50 34/51/50
f 26/43/51 35/45/51 31/47/51
f 27/46/52 31/47/52 32/52/52
f 28/41/53 32/48/53 33/49/53
f 29/50/54 33/53/54 34/51/54
f 30/44/55 34/51/55 35/45/55
f 31/47/56 35/45/56 36/54/56
f 32/52/57 31/47/57 36/54/57
f 33/53/58 32/52/58 36/54/58
f 34/51/59 33/53/59 36/54/59
f 35/45/60 34/51/60 36/54/60
f 39/55/61 41/56/61 43/57/61
f 37/58/62 38/59/62 44/60/62
f 47/61/63 43/57/63 41/56/63 46/62/63
f 45/63/64 42/64/64 43/57/64 47/61/64
f 42/64/65 39/55/65 43/57/65
f 40/65/66 37/58/66 44/60/66
f 38/59/67 45/63/67 47/61/67 44/60/67
f 44/60/68 47/61/68 46/62/68 40/65/68
f 50/66/69 52/67/69 54/68/69
f 48/69/70 49/70/70 55/71/70
f 58/72/71 54/68/71 52/67/71 57/73/71
f 56/74/72 53/75/72 54/68/72 58/72/72
f 53/75/73 50/66/73 54/68/73
f 51/76/74 48/69/74 55/71/74
f 49/70/75 56/74/75 58/72/75 55/71/75
f 55/71/76 58/72/76 57/73/76 51/76/76
f 61/77/77 63/78/77 65/79/77
f 59/80/78 60/81/78 66/82/78
f 69/83/79 65/79/79 63/78/79 68/84/79
f 67/85/80 64/86/80 65/79/80 69/83/80
f 64/86/81 61/77/81 65/79/81
f 62/87/82 59/80/82 66/82/82
f 60/81/83 67/85/83 69/83/83 66/82/83
f 66/82/84 69/83/84 68/84/84 62/87/84
f 72/88/85 74/89/85 76/90/85
f 70/91/86 71/92/86 77/93/86
f 80/94/87 76/90/87 74/89/87 79/95/87
f 78/96/88 75/97/88 76/90/88 80/94/88
f 75/97/89 72/88/89 76/90/89
f 73/98/90 70/91/90 77/93/90
f 71/92/91 78/96/91 80/94/91 77/93/91
f 77/93/92 80/94/92 79/95/92 73/98/92
f 83/99/93 85/100/93 87/101/93
f 81/102/94 82/103/94 88/104/94
f 91/105/95 87/101/95 85/100/95 90/106/95
f 89/107/96 86/108/96 87/101/96 91/105/96
f 86/108/97 83/99/97 87/101/97
f 84/109/98 81/102/98 88/104/98
f 82/103/99 89/107/99 91/105/99 88/104/99
f 88/104/100 91/105/100 90/106/100 84/109/100
f 129/110/101 101/111/101 100/112/101 127/113/101
f 130/114/102 99/115/102 98/116/102 128/117/102
f 131/118/103 97/119/103 101/111/103 129/110/103
f 127/120/104 100/121/104 99/115/104 130/114/104
f 128/117/105 98/116/105 97/119/105 131/118/105
f 93/122/106 106/123/106 111/124/106 92/125/106
f 124/126/107 107/127/107 110/128/107 126/129/107
f 95/130/108 102/131/108 109/132/108 94/133/108
f 122/134/109 103/135/109 108/136/109 125/137/109
f 92/125/110 111/124/110 105/138/110 96/139/110
f 126/129/111 110/128/111 104/140/111 123/141/111
f 94/133/112 109/132/112 106/123/112 93/122/112
f 125/137/113 108/136/113 107/127/113 124/126/113
f 96/139/114 105/138/114 102/142/114 95/143/114
f 123/141/115 104/140/115 103/144/115 122/145/115
f 101/111/116 116/146/116 115/147/116 100/112/116
f 99/115/117 114/148/117 113/149/117 98/116/117
f 97/119/118 112/150/118 116/146/118 101/111/118
f 100/121/119 115/151/119 114/148/119 99/115/119
f 98/116/120 113/149/120 112/150/120 97/119/120
f 114/148/121 119/152/121 118/153/121 113/149/121
f 112/150/122 117/154/122 121/155/122 116/146/122
f 115/151/123 120/156/123 119/152/123 114/148/123
f 113/149/124 118/153/124 117/154/124 112/150/124
f 116/146/125 121/155/125 120/157/125 115/147/125
f 119/158/126 120/159/126 121/160/126 117/161/126
f 118/162/126 119/158/126 117/161/126
f 105/138/127 123/141/127 122/145/127 102/142/127
f 109/132/128 125/137/128 124/126/128 106/123/128
f 111/124/129 126/129/129 123/141/129 105/138/129
f 102/131/130 122/134/130 125/137/130 109/132/130
f 106/123/131 124/126/131 126/129/131 111/124/131
f 107/127/132 128/117/132 131/118/132 110/128/132
f 103/135/133 127/120/133 130/114/133 108/136/133
f 110/128/134 131/118/134 129/110/134 104/140/134
f 108/136/135 130/114/135 128/117/135 107/127/135
f 104/140/136 129/110/136 127/113/136 103/144/136
