# Blender v2.78 (sub 0) OBJ File: 'Low_Poly_Trees_Pack.blend'
# www.blender.org
g Palm_Tree_OneSided_m_05
v 0.000000 0.000000 -0.209088
v -0.198855 0.000000 -0.064612
v -0.122899 0.000000 0.169156
v 0.122899 0.000000 0.169156
v 0.198855 0.000000 -0.064612
v 3.825922 2.551548 -0.071204
v 3.772958 2.561410 -0.032062
v 3.793187 2.557644 0.031272
v 3.858655 2.545453 0.031272
v 3.878886 2.541686 -0.032062
v 0.212886 0.531638 0.115392
v 3.166354 1.645699 0.064614
v 3.193531 1.625995 -0.039933
v 0.265032 0.517294 -0.051920
v -0.008012 0.592403 -0.051920
v 3.051229 1.729166 -0.039933
v 3.078406 1.709462 0.064614
v 0.044135 0.578058 0.115392
v 3.122380 1.677580 -0.104547
v 0.128510 0.554848 -0.155325
v 3.851351 2.664756 -0.122784
v 3.745068 2.684547 -0.044238
v 3.785664 2.676988 0.082852
v 3.917037 2.652525 0.082852
v 3.957633 2.644964 -0.044238
v 3.903814 2.932275 -0.053445
v 3.869208 2.938718 -0.027869
v 3.882427 2.936257 0.013512
v 3.925202 2.928292 0.013512
v 3.938421 2.925831 -0.027869
v 2.585650 1.892815 -0.976651
v 2.672415 2.364533 -0.717149
v 3.889824 2.780264 -0.014935
v 2.948813 2.296254 -1.028965
v 3.629019 2.720718 -0.532360
v 3.339669 2.792197 -0.205933
v 3.489651 2.808349 -0.375806
v 2.808199 2.374572 -0.884870
v 2.937855 2.648438 -0.487449
v 3.268953 2.566647 -0.860972
v 3.100388 2.662747 -0.688972
v 2.523948 2.409363 1.445296
v 2.978073 2.792912 1.327799
v 3.895354 2.852834 -0.016406
v 2.632643 2.818017 1.011324
v 3.327906 3.011316 0.251488
v 3.689521 2.985034 0.582791
v 3.521905 3.054218 0.407187
v 2.810043 2.856119 1.168467
v 3.332419 2.977518 1.024495
v 2.918630 3.007592 0.645391
v 3.131378 3.055851 0.833575
v 3.634926 1.607959 1.550251
v 4.014096 2.058499 1.381369
v 3.882487 2.742234 -0.016406
v 3.406432 2.136856 1.342078
v 3.516369 2.691175 0.522526
v 4.152506 2.609147 0.563659
v 3.840983 2.704681 0.550585
v 3.715062 2.142939 1.377784
v 4.138739 2.385927 1.055917
v 3.410820 2.479790 1.008850
v 3.780775 2.489416 1.052452
v 4.934176 1.572296 0.998948
v 4.991279 2.058070 0.708277
v 3.893626 2.837981 -0.016406
v 4.706198 2.091777 1.042449
v 4.151268 2.714047 0.519882
v 4.449708 2.678762 0.170052
v 4.312215 2.749803 0.349585
v 4.865813 2.118371 0.885547
v 4.811640 2.416746 0.461383
v 4.470142 2.457123 0.861686
v 4.662226 2.491224 0.674260
v 5.582402 1.730715 -0.399777
v 5.318975 2.262590 -0.582453
v 3.894948 2.849348 -0.016406
v 5.407851 2.215019 -0.052450
v 4.529996 2.755911 0.156171
v 4.436955 2.805709 -0.398667
v 4.488842 2.838841 -0.116939
v 5.378147 2.287489 -0.315553
v 4.951087 2.604738 -0.544393
v 5.057551 2.547754 0.090496
v 5.022729 2.637079 -0.224576
v 4.835743 1.449708 -1.294952
v 4.589085 2.003044 -1.283766
v 3.882487 2.742234 -0.016406
v 4.937532 1.953206 -0.973589
v 4.442775 2.584977 -0.299654
v 4.078001 2.637150 -0.624364
v 4.272122 2.668161 -0.466017
v 4.779890 2.024931 -1.139785
v 4.365794 2.381808 -1.042283
v 4.783197 2.322108 -0.670725
v 4.595216 2.410443 -0.870383
v 3.779600 1.857803 -1.768139
v 3.567928 2.410940 -1.523929
v 3.892320 2.826757 -0.016406
v 4.112596 2.347578 -1.523929
v 4.187187 2.877589 -0.609218
v 3.616997 2.943920 -0.609218
v 3.908737 2.967875 -0.598873
v 3.846140 2.429784 -1.525236
v 3.552416 2.747139 -1.180648
v 4.204871 2.671237 -1.180649
v 3.885988 2.772321 -1.182282
v 2.058281 1.978013 0.019634
v 2.358418 2.442611 0.283099
v 3.908984 2.814372 -0.012217
v 2.358535 2.441142 -0.247212
v 3.316770 2.836783 -0.276524
v 3.316647 2.838321 0.278637
v 3.321007 2.895192 0.001573
v 2.351983 2.491803 0.018615
v 2.768677 2.718050 0.329464
v 2.768819 2.716289 -0.305795
v 2.760635 2.779554 0.012674
v 0.442223 0.891037 0.090812
v 0.468390 0.855421 -0.046118
v 0.331375 1.041912 -0.046118
v 0.357543 1.006296 0.090812
v 0.399883 0.948667 -0.130745
v 1.111866 1.129915 0.115404
v 1.007541 1.259276 -0.006335
v 1.136494 1.099376 -0.006335
v 1.032168 1.228738 0.115404
v 1.072017 1.179326 -0.081573
v 3.694499 2.044551 0.048752
v 3.582740 2.076946 -0.036188
v 3.720881 2.036903 -0.036188
v 3.609122 2.069299 0.048752
v 3.651811 2.056924 -0.088685
v 2.360476 1.367462 0.082124
v 2.250579 1.476481 -0.032019
v 2.386420 1.341726 -0.032019
v 2.276522 1.450745 0.082124
v 2.318499 1.409104 -0.102563
vt 0.5533 0.9660
vt 0.5536 0.9793
vt 0.5525 0.9791
vt 0.5518 0.9659
vt 0.5577 0.9660
vt 0.5571 0.9794
vt 0.5560 0.9795
vt 0.5562 0.9660
vt 0.5548 0.9660
vt 0.5548 0.9794
vt 0.5591 0.9660
vt 0.5582 0.9792
vt 0.5583 0.8988
vt 0.5573 0.9266
vt 0.5545 0.9267
vt 0.5543 0.8990
vt 0.5566 0.9493
vt 0.5565 0.9526
vt 0.5547 0.9526
vt 0.5547 0.9493
vt 0.5662 0.8998
vt 0.5629 0.9272
vt 0.5601 0.9268
vt 0.5623 0.8991
vt 0.5604 0.9496
vt 0.5600 0.9528
vt 0.5583 0.9526
vt 0.5585 0.9494
vt 0.5517 0.9268
vt 0.5503 0.8994
vt 0.5530 0.9527
vt 0.5528 0.9494
vt 0.5489 0.9270
vt 0.5464 0.8995
vt 0.5511 0.9527
vt 0.5509 0.9495
vt 0.5534 0.9812
vt 0.5516 0.9811
vt 0.5574 0.9812
vt 0.5560 0.9812
vt 0.5548 0.9812
vt 0.5592 0.9812
vt 0.5569 0.9846
vt 0.5559 0.9845
vt 0.5549 0.9845
vt 0.5539 0.9846
vt 0.5579 0.9849
vt 0.5528 0.9849
vt 0.5662 0.8995
vt 0.5671 0.8988
vt 0.5681 0.8995
vt 0.5677 0.9006
vt 0.5666 0.9006
vt 0.6966 0.1383
vt 0.7081 0.1651
vt 0.6966 0.1642
vt 0.6966 0.2351
vt 0.6855 0.2090
vt 0.6966 0.2082
vt 0.6966 0.1874
vt 0.7102 0.1884
vt 0.6829 0.1884
vt 0.6850 0.1651
vt 0.7076 0.2090
vt 0.6966 0.1383
vt 0.7081 0.1651
vt 0.6966 0.1642
vt 0.6966 0.2351
vt 0.6855 0.2090
vt 0.6966 0.2082
vt 0.6966 0.1874
vt 0.7102 0.1884
vt 0.6829 0.1884
vt 0.6850 0.1651
vt 0.7076 0.2090
vt 0.8238 0.1383
vt 0.8353 0.1651
vt 0.8238 0.1642
vt 0.8238 0.2351
vt 0.8127 0.2090
vt 0.8238 0.2082
vt 0.8238 0.1874
vt 0.8374 0.1884
vt 0.8101 0.1884
vt 0.8122 0.1651
vt 0.8348 0.2090
vt 0.6966 0.1383
vt 0.7081 0.1651
vt 0.6966 0.1642
vt 0.6966 0.2351
vt 0.6855 0.2090
vt 0.6966 0.2082
vt 0.6966 0.1874
vt 0.7102 0.1884
vt 0.6829 0.1884
vt 0.6850 0.1651
vt 0.7076 0.2090
vt 0.6966 0.1383
vt 0.7081 0.1651
vt 0.6966 0.1642
vt 0.6966 0.2351
vt 0.6855 0.2090
vt 0.6966 0.2082
vt 0.6966 0.1874
vt 0.7102 0.1884
vt 0.6829 0.1884
vt 0.6850 0.1651
vt 0.7076 0.2090
vt 0.6966 0.1383
vt 0.7081 0.1651
vt 0.6966 0.1642
vt 0.6966 0.2351
vt 0.6855 0.2090
vt 0.6966 0.2082
vt 0.6966 0.1874
vt 0.7102 0.1884
vt 0.6829 0.1884
vt 0.6850 0.1651
vt 0.7076 0.2090
vt 0.8238 0.1383
vt 0.8353 0.1651
vt 0.8238 0.1642
vt 0.8238 0.2351
vt 0.8127 0.2090
vt 0.8238 0.2082
vt 0.8238 0.1874
vt 0.8374 0.1884
vt 0.8101 0.1884
vt 0.8122 0.1651
vt 0.8348 0.2090
vt 0.8238 0.1383
vt 0.8353 0.1651
vt 0.8238 0.1642
vt 0.8238 0.2351
vt 0.8127 0.2090
vt 0.8238 0.2082
vt 0.8238 0.1874
vt 0.8374 0.1884
vt 0.8101 0.1884
vt 0.8122 0.1651
vt 0.8348 0.2090
vt 0.5523 0.9397
vt 0.5500 0.9399
vt 0.5592 0.9397
vt 0.5569 0.9396
vt 0.5546 0.9396
vt 0.5615 0.9400
vt 0.5527 0.9462
vt 0.5506 0.9463
vt 0.5588 0.9462
vt 0.5567 0.9461
vt 0.5547 0.9461
vt 0.5608 0.9464
vn 0.9074 -0.2866 0.3073
vn -0.8873 0.3456 0.3055
vn 0.5647 -0.1702 -0.8075
vn 0.0080 0.0325 0.9994
vn -0.5500 0.2224 -0.8050
vn -0.5670 0.2041 -0.7980
vn -0.2059 0.6197 -0.7573
vn 0.0105 0.0940 0.9955
vn 0.0157 0.0183 0.9997
vn 0.5893 -0.0571 -0.8059
vn 0.2075 -0.6185 -0.7579
vn -0.9090 0.2885 0.3007
vn -0.2897 0.9207 0.2617
vn 0.9434 -0.1285 0.3059
vn 0.3211 -0.9087 0.2668
vn 0.7787 -0.5605 0.2821
vn -0.9394 -0.1842 0.2891
vn 0.4746 -0.4510 -0.7559
vn -0.0744 -0.3996 0.9137
vn -0.6060 -0.2130 -0.7664
vn -0.8646 0.4030 0.3001
vn 0.6025 0.0874 -0.7933
vn 0.0451 0.2423 0.9691
vn -0.5275 0.3086 -0.7915
vn 0.9523 0.0476 0.3014
vn 0.1831 0.9831 0.0000
vn 0.1830 0.9831 0.0000
vn 0.2939 0.9214 -0.2542
vn -0.7127 0.4342 -0.5510
vn 0.0389 0.8872 -0.4597
vn -0.2510 0.9588 -0.1326
vn -0.0086 0.9962 0.0871
vn -0.5427 0.3922 -0.7427
vn -0.5158 0.7748 -0.3656
vn -0.2632 0.7124 -0.6506
vn 0.0871 0.9273 -0.3641
vn -0.3792 0.6506 0.6580
vn -0.1222 0.9856 -0.1167
vn 0.2039 0.9619 0.1821
vn 0.4274 0.9026 -0.0523
vn -0.5704 0.6645 0.4828
vn -0.0835 0.8903 0.4477
vn -0.3676 0.9109 0.1875
vn -0.0469 0.9969 0.0626
vn 0.0722 0.2962 0.9524
vn -0.0704 0.9201 0.3854
vn 0.2511 0.8786 0.4062
vn 0.2889 0.9536 0.0843
vn -0.1151 0.3204 0.9403
vn 0.1799 0.6565 0.7325
vn -0.0995 0.6926 0.7144
vn 0.0145 0.9757 0.2185
vn 0.8303 0.2111 0.5158
vn 0.2532 0.8715 0.4200
vn 0.5398 0.8376 0.0840
vn 0.3135 0.9404 -0.1320
vn 0.6622 0.2309 0.7128
vn 0.7423 0.5890 0.3195
vn 0.4926 0.6185 0.6122
vn 0.0645 0.9575 0.2810
vn 0.9008 0.3658 -0.2338
vn 0.3821 0.8990 0.2139
vn 0.3183 0.9332 -0.1669
vn -0.0021 0.9932 -0.1164
vn 0.9382 0.3458 -0.0107
vn 0.6543 0.7246 -0.2166
vn 0.7099 0.6948 0.1152
vn 0.3286 0.9354 0.1307
vn 0.5610 0.2659 -0.7839
vn 0.5239 0.8436 -0.1180
vn 0.1949 0.8906 -0.4109
vn -0.0146 0.9845 -0.1749
vn 0.7539 0.2384 -0.6122
vn 0.4065 0.6477 -0.6444
vn 0.6931 0.6067 -0.3893
vn 0.3078 0.9227 0.2322
vn -0.0310 0.3937 -0.9187
vn 0.2853 0.9048 -0.3161
vn -0.0699 0.9461 -0.3161
vn -0.0878 0.9687 0.2322
vn 0.1205 0.3761 -0.9187
vn -0.0545 0.7109 -0.7012
vn 0.2163 0.6794 -0.7012
vn 0.1285 0.9701 -0.2057
vn -0.8625 0.4933 0.1127
vn -0.2012 0.9595 -0.1970
vn -0.1939 0.9619 0.1929
vn 0.1380 0.9698 0.2012
vn -0.8625 0.4928 -0.1152
vn -0.5642 0.8084 0.1680
vn -0.5672 0.8056 -0.1714
vn 0.8163 -0.4985 0.2920
vn -0.7646 0.5749 0.2912
vn 0.5279 -0.3095 -0.7909
vn 0.0276 0.0433 0.9987
vn -0.4830 0.3782 -0.7897
vn 0.3122 -0.9039 0.2925
vn -0.3086 0.9052 0.2921
vn 0.2471 -0.5480 -0.7992
vn -0.0289 -0.0222 0.9993
vn -0.1498 0.6060 -0.7812
vn -0.3578 0.5425 -0.7601
vn 0.0125 0.0244 0.9996
vn 0.3893 -0.5014 -0.7727
vn -0.5323 0.8036 0.2664
vn 0.5871 -0.7611 0.2758
vn 0.1879 -0.9455 0.2659
vn -0.1618 0.9515 0.2617
vn 0.1085 -0.6482 -0.7537
vn 0.0229 0.0206 0.9995
vn -0.1286 0.6368 -0.7603
s off
f 131/1/1 10/2/1 9/3/1 129/4/1
f 132/5/2 8/6/2 7/7/2 130/8/2
f 133/9/3 6/10/3 10/2/3 131/1/3
f 129/11/4 9/12/4 8/6/4 132/5/4
f 130/8/5 7/7/5 6/10/5 133/9/5
f 2/13/6 15/14/6 20/15/6 1/16/6
f 135/17/7 16/18/7 19/19/7 138/20/7
f 4/21/8 11/22/8 18/23/8 3/24/8
f 134/25/9 12/26/9 17/27/9 137/28/9
f 1/16/10 20/15/10 14/29/10 5/30/10
f 138/20/11 19/19/11 13/31/11 136/32/11
f 3/24/12 18/23/12 15/14/12 2/13/12
f 137/28/13 17/27/13 16/18/13 135/17/13
f 5/30/14 14/29/14 11/33/14 4/34/14
f 136/32/15 13/31/15 12/35/15 134/36/15
f 10/2/16 25/37/16 24/38/16 9/3/16
f 8/6/17 23/39/17 22/40/17 7/7/17
f 6/10/18 21/41/18 25/37/18 10/2/18
f 9/12/19 24/42/19 23/39/19 8/6/19
f 7/7/20 22/40/20 21/41/20 6/10/20
f 23/39/21 28/43/21 27/44/21 22/40/21
f 21/41/22 26/45/22 30/46/22 25/37/22
f 24/42/23 29/47/23 28/43/23 23/39/23
f 22/40/24 27/44/24 26/45/24 21/41/24
f 25/37/25 30/46/25 29/48/25 24/38/25
f 28/49/26 29/50/26 30/51/26 26/52/26
f 27/53/27 28/49/27 26/52/27
f 33/54/28 35/55/28 37/56/28
f 31/57/29 32/58/29 38/59/29
f 41/60/30 37/56/30 35/55/30 40/61/30
f 39/62/31 36/63/31 37/56/31 41/60/31
f 36/63/32 33/54/32 37/56/32
f 34/64/33 31/57/33 38/59/33
f 32/58/34 39/62/34 41/60/34 38/59/34
f 38/59/35 41/60/35 40/61/35 34/64/35
f 44/65/36 46/66/36 48/67/36
f 42/68/37 43/69/37 49/70/37
f 52/71/38 48/67/38 46/66/38 51/72/38
f 50/73/39 47/74/39 48/67/39 52/71/39
f 47/74/40 44/65/40 48/67/40
f 45/75/41 42/68/41 49/70/41
f 43/69/42 50/73/42 52/71/42 49/70/42
f 49/70/43 52/71/43 51/72/43 45/75/43
f 55/76/44 57/77/44 59/78/44
f 53/79/45 54/80/45 60/81/45
f 63/82/46 59/78/46 57/77/46 62/83/46
f 61/84/47 58/85/47 59/78/47 63/82/47
f 58/85/48 55/76/48 59/78/48
f 56/86/49 53/79/49 60/81/49
f 54/80/50 61/84/50 63/82/50 60/81/50
f 60/81/51 63/82/51 62/83/51 56/86/51
f 66/87/52 68/88/52 70/89/52
f 64/90/53 65/91/53 71/92/53
f 74/93/54 70/89/54 68/88/54 73/94/54
f 72/95/55 69/96/55 70/89/55 74/93/55
f 69/96/56 66/87/56 70/89/56
f 67/97/57 64/90/57 71/92/57
f 65/91/58 72/95/58 74/93/58 71/92/58
f 71/92/59 74/93/59 73/94/59 67/97/59
f 77/98/60 79/99/60 81/100/60
f 75/101/61 76/102/61 82/103/61
f 85/104/62 81/100/62 79/99/62 84/105/62
f 83/106/63 80/107/63 81/100/63 85/104/63
f 80/107/64 77/98/64 81/100/64
f 78/108/65 75/101/65 82/103/65
f 76/102/66 83/106/66 85/104/66 82/103/66
f 82/103/67 85/104/67 84/105/67 78/108/67
f 88/109/68 90/110/68 92/111/68
f 86/112/69 87/113/69 93/114/69
f 96/115/70 92/111/70 90/110/70 95/116/70
f 94/117/71 91/118/71 92/111/71 96/115/71
f 91/118/72 88/109/72 92/111/72
f 89/119/73 86/112/73 93/114/73
f 87/113/74 94/117/74 96/115/74 93/114/74
f 93/114/75 96/115/75 95/116/75 89/119/75
f 99/120/76 101/121/76 103/122/76
f 97/123/77 98/124/77 104/125/77
f 107/126/78 103/122/78 101/121/78 106/127/78
f 105/128/79 102/129/79 103/122/79 107/126/79
f 102/129/80 99/120/80 103/122/80
f 100/130/81 97/123/81 104/125/81
f 98/124/82 105/128/82 107/126/82 104/125/82
f 104/125/83 107/126/83 106/127/83 100/130/83
f 110/131/84 112/132/84 114/133/84
f 108/134/85 109/135/85 115/136/85
f 118/137/86 114/133/86 112/132/86 117/138/86
f 116/139/87 113/140/87 114/133/87 118/137/87
f 113/140/88 110/131/88 114/133/88
f 111/141/89 108/134/89 115/136/89
f 109/135/90 116/139/90 118/137/90 115/136/90
f 115/136/91 118/137/91 117/138/91 111/141/91
f 14/29/92 120/142/92 119/143/92 11/33/92
f 18/23/93 122/144/93 121/145/93 15/14/93
f 20/15/94 123/146/94 120/142/94 14/29/94
f 11/22/95 119/147/95 122/144/95 18/23/95
f 15/14/96 121/145/96 123/146/96 20/15/96
f 120/142/97 126/148/97 124/149/97 119/143/97
f 122/144/98 127/150/98 125/151/98 121/145/98
f 123/146/99 128/152/99 126/148/99 120/142/99
f 119/147/100 124/153/100 127/150/100 122/144/100
f 121/145/101 125/151/101 128/152/101 123/146/101
f 16/18/102 130/8/102 133/9/102 19/19/102
f 12/26/103 129/11/103 132/5/103 17/27/103
f 19/19/104 133/9/104 131/1/104 13/31/104
f 17/27/105 132/5/105 130/8/105 16/18/105
f 13/31/106 131/1/106 129/4/106 12/35/106
f 126/148/107 136/32/107 134/36/107 124/149/107
f 127/150/108 137/28/108 135/17/108 125/151/108
f 128/152/109 138/20/109 136/32/109 126/148/109
f 124/153/110 134/25/110 137/28/110 127/150/110
f 125/151/111 135/17/111 138/20/111 128/152/111
