# Blender v2.78 (sub 0) OBJ File: 'Low_Poly_Trees_Pack.blend'
# www.blender.org
g Palm_Tree_OneSided_m_01
v 1.395882 4.795669 1.193048
v 1.382620 5.213285 0.770097
v 0.147403 5.493528 0.015183
v 1.076656 5.267749 1.180924
v 0.381583 5.659134 0.570086
v 0.732395 5.605736 0.164020
v 0.550338 5.684164 0.350916
v 1.240358 5.286788 0.974713
v 1.156759 5.533033 0.486920
v 0.755333 5.594134 0.951572
v 0.957708 5.622109 0.709482
v 1.356927 4.807192 -1.091572
v 0.934405 5.233055 -1.109099
v 0.162951 5.474739 -0.033201
v 1.303976 5.295472 -0.746652
v 0.738295 5.648540 -0.259915
v 0.343872 5.607859 -0.635010
v 0.526525 5.681935 -0.437982
v 1.120331 5.312521 -0.937349
v 0.596864 5.503751 -0.885754
v 1.039571 5.578519 -0.451580
v 0.819643 5.601435 -0.680504
v -1.145088 4.991196 -1.017707
v -1.061132 5.429497 -0.664668
v 0.114831 5.471966 -0.025490
v -0.750063 5.400248 -1.038302
v -0.105917 5.616762 -0.552936
v -0.431562 5.647383 -0.161795
v -0.253461 5.680866 -0.348465
v -0.899067 5.459551 -0.849546
v -0.814327 5.673024 -0.415432
v -0.441699 5.637985 -0.863007
v -0.619853 5.711334 -0.636796
v -0.938143 4.918745 1.151906
v -0.634771 5.397622 1.102569
v 0.181158 5.475412 0.004230
v -0.957690 5.317852 0.746785
v -0.397062 5.620926 0.147825
v -0.059013 5.704435 0.520280
v -0.223383 5.712055 0.318758
v -0.799056 5.402232 0.917265
v -0.387722 5.668458 0.883591
v -0.774545 5.572901 0.457399
v -0.584664 5.676277 0.661234
v 0.061740 3.920565 1.303588
v 0.477883 4.473523 1.166241
v 0.086206 5.415487 -0.008541
v -0.268335 4.507317 1.197503
v -0.284709 5.208714 0.588472
v 0.496475 5.173336 0.555745
v 0.112118 5.249384 0.589456
v 0.110449 4.537115 1.206950
v 0.571018 4.895945 0.862539
v -0.322874 4.936427 0.899988
v 0.131163 4.974533 0.912599
v 1.478801 4.018695 -0.168624
v 1.408412 4.669455 -0.398942
v 0.104197 5.465991 -0.039545
v 1.325947 4.561003 0.258069
v 0.613815 5.296477 0.340237
v 0.698773 5.393853 -0.350203
v 0.669018 5.406994 0.007045
v 1.394781 4.662225 -0.057686
v 1.113353 5.137162 -0.418735
v 1.014569 5.007247 0.368296
v 1.098451 5.130929 -0.009288
v -0.081489 3.948889 -1.385396
v -0.351242 4.602545 -1.296304
v 0.091915 5.439844 -0.021425
v 0.360360 4.548198 -1.273839
v 0.483673 5.320203 -0.652608
v -0.262323 5.365374 -0.666151
v 0.119025 5.406869 -0.656322
v 0.013152 4.628527 -1.301704
v -0.369143 5.061355 -1.035827
v 0.483282 4.996254 -1.008916
v 0.067807 5.095223 -1.043154
v -1.502739 4.070777 -0.073105
v -1.358565 4.668273 0.240575
v 0.121069 5.428288 -0.019715
v -1.274394 4.627608 -0.412512
v -0.475514 5.340934 -0.422867
v -0.562123 5.350857 0.262266
v -0.521357 5.409304 -0.080738
v -1.337402 4.698874 -0.090856
v -1.011276 5.081745 0.318515
v -0.910448 5.033034 -0.463815
v -0.987006 5.121034 -0.078757
v 0.000000 0.000000 -0.211200
v -0.200863 0.000000 -0.065264
v -0.124140 0.000000 0.170864
v 0.124140 0.000000 0.170864
v 0.200863 0.000000 -0.065264
v 0.126293 5.171413 -0.071923
v 0.072039 5.175651 -0.032385
v 0.092762 5.174032 0.031588
v 0.159823 5.168795 0.031588
v 0.180546 5.167176 -0.032385
v 0.122653 1.725507 0.116558
v 0.141672 3.700316 0.066902
v 0.176371 3.701436 -0.040722
v 0.177200 1.722497 -0.052444
v -0.108412 1.738259 -0.052444
v -0.005312 3.695570 -0.040722
v 0.029386 3.696691 0.066902
v -0.053865 1.735249 0.116558
v 0.085529 3.698503 -0.107237
v 0.034394 1.730378 -0.156894
v 0.139716 5.287843 -0.124024
v 0.030847 5.296346 -0.044685
v 0.072431 5.293098 0.083689
v 0.207002 5.282588 0.083689
v 0.248586 5.279340 -0.044685
v 0.163778 5.562158 -0.053984
v 0.128329 5.564926 -0.028151
v 0.141869 5.563869 0.013649
v 0.185687 5.560447 0.013649
v 0.199227 5.559390 -0.028151
vt 0.6889 0.1381
vt 0.7008 0.1656
vt 0.6889 0.1646
vt 0.6889 0.2373
vt 0.6776 0.2105
vt 0.6889 0.2097
vt 0.6889 0.1884
vt 0.7029 0.1895
vt 0.6750 0.1895
vt 0.6771 0.1656
vt 0.7003 0.2105
vt 0.8193 0.1381
vt 0.8311 0.1656
vt 0.8193 0.1646
vt 0.8193 0.2373
vt 0.8080 0.2105
vt 0.8193 0.2097
vt 0.8193 0.1884
vt 0.8333 0.1895
vt 0.8053 0.1895
vt 0.8075 0.1656
vt 0.8306 0.2105
vt 0.8193 0.1381
vt 0.8311 0.1656
vt 0.8193 0.1646
vt 0.8193 0.2373
vt 0.8080 0.2105
vt 0.8193 0.2097
vt 0.8193 0.1884
vt 0.8333 0.1895
vt 0.8053 0.1895
vt 0.8075 0.1656
vt 0.8306 0.2105
vt 0.6889 0.1381
vt 0.7008 0.1656
vt 0.6889 0.1646
vt 0.6889 0.2373
vt 0.6776 0.2105
vt 0.6889 0.2097
vt 0.6889 0.1884
vt 0.7029 0.1895
vt 0.6750 0.1895
vt 0.6771 0.1656
vt 0.7003 0.2105
vt 0.8193 0.1381
vt 0.8311 0.1656
vt 0.8193 0.1646
vt 0.8193 0.2373
vt 0.8080 0.2105
vt 0.8193 0.2097
vt 0.8193 0.1884
vt 0.8333 0.1895
vt 0.8053 0.1895
vt 0.8075 0.1656
vt 0.8306 0.2105
vt 0.9509 0.1381
vt 0.9628 0.1656
vt 0.9509 0.1646
vt 0.9509 0.2373
vt 0.9396 0.2105
vt 0.9509 0.2097
vt 0.9509 0.1884
vt 0.9649 0.1895
vt 0.9369 0.1895
vt 0.9391 0.1656
vt 0.9622 0.2105
vt 0.9509 0.1381
vt 0.9628 0.1656
vt 0.9509 0.1646
vt 0.9509 0.2373
vt 0.9396 0.2105
vt 0.9509 0.2097
vt 0.9509 0.1884
vt 0.9649 0.1895
vt 0.9369 0.1895
vt 0.9391 0.1656
vt 0.9622 0.2105
vt 0.9509 0.1381
vt 0.9628 0.1656
vt 0.9509 0.1646
vt 0.9509 0.2373
vt 0.9396 0.2105
vt 0.9509 0.2097
vt 0.9509 0.1884
vt 0.9649 0.1895
vt 0.9369 0.1895
vt 0.9391 0.1656
vt 0.9622 0.2105
vt 0.4446 0.9515
vt 0.4453 0.9829
vt 0.4440 0.9827
vt 0.4424 0.9516
vt 0.4508 0.9515
vt 0.4494 0.9830
vt 0.4481 0.9832
vt 0.4487 0.9514
vt 0.4466 0.9515
vt 0.4467 0.9831
vt 0.4529 0.9517
vt 0.4508 0.9828
vt 0.4508 0.8881
vt 0.4497 0.9208
vt 0.4464 0.9209
vt 0.4461 0.8883
vt 0.4601 0.8892
vt 0.4563 0.9215
vt 0.4530 0.9210
vt 0.4555 0.8884
vt 0.4431 0.9211
vt 0.4414 0.8887
vt 0.4397 0.9213
vt 0.4368 0.8889
vt 0.4450 0.9852
vt 0.4429 0.9851
vt 0.4497 0.9852
vt 0.4482 0.9852
vt 0.4467 0.9852
vt 0.4519 0.9852
vt 0.4492 0.9892
vt 0.4480 0.9891
vt 0.4468 0.9890
vt 0.4456 0.9892
vt 0.4503 0.9895
vt 0.4444 0.9895
vt 0.4201 0.9626
vt 0.4248 0.9591
vt 0.4296 0.9626
vt 0.4278 0.9682
vt 0.4219 0.9682
vn -0.3238 0.9353 -0.1425
vn 0.8051 0.4344 0.4037
vn 0.0302 0.9900 0.1381
vn 0.2688 0.9530 -0.1397
vn -0.0612 0.8977 -0.4363
vn 0.6705 0.4682 0.5755
vn 0.6527 0.7154 0.2493
vn 0.4607 0.7614 0.4561
vn -0.1441 0.9274 0.3453
vn 0.4907 0.4563 -0.7423
vn 0.1953 0.9781 -0.0718
vn -0.0231 0.9276 -0.3728
vn -0.4364 0.8972 0.0673
vn 0.6517 0.4835 -0.5844
vn 0.2214 0.7681 -0.6009
vn 0.4607 0.8085 -0.3661
vn 0.4578 0.8875 0.0521
vn -0.6759 0.5365 -0.5053
vn 0.2032 0.9668 -0.1549
vn -0.0312 0.9889 0.1455
vn 0.2034 0.9115 0.3576
vn -0.5785 0.5273 -0.6223
vn -0.4996 0.8120 -0.3018
vn -0.3254 0.7956 -0.5109
vn 0.0803 0.8434 -0.5312
vn -0.6528 0.4744 0.5906
vn -0.2879 0.9352 -0.2060
vn -0.0355 0.9971 0.0666
vn 0.3413 0.9077 -0.2440
vn -0.7540 0.4494 0.4791
vn -0.4640 0.7719 0.4347
vn -0.6447 0.7272 0.2355
vn -0.0988 0.9577 0.2703
vn 0.1334 0.1432 0.9807
vn -0.0804 0.7561 0.6494
vn 0.2047 0.7509 0.6279
vn 0.2091 0.9445 0.2533
vn -0.0370 0.1576 0.9868
vn 0.1878 0.5440 0.8178
vn -0.0676 0.5609 0.8251
vn 0.0717 0.9431 0.3247
vn 0.9916 0.1222 0.0422
vn 0.5222 0.7743 0.3573
vn 0.5353 0.8443 0.0236
vn 0.1061 0.9940 -0.0277
vn 0.9675 0.0852 0.2382
vn 0.8453 0.5326 0.0417
vn 0.8107 0.4805 0.3344
vn 0.2314 0.9720 -0.0406
vn -0.0236 0.1254 -0.9918
vn 0.2066 0.7364 -0.6442
vn -0.0700 0.7808 -0.6208
vn -0.1066 0.9927 -0.0561
vn 0.1042 0.1073 -0.9888
vn -0.0504 0.4900 -0.8702
vn 0.1794 0.4622 -0.8685
vn -0.0102 0.9803 -0.1973
vn -0.9666 0.2534 -0.0383
vn -0.5247 0.8098 -0.2625
vn -0.5160 0.8539 0.0674
vn -0.0446 0.9857 0.1627
vn -0.9410 0.2410 -0.2377
vn -0.7683 0.6400 0.0135
vn -0.7324 0.6187 -0.2841
vn 0.9516 -0.0044 0.3074
vn -0.9505 0.0480 0.3071
vn 0.5901 0.0030 -0.8073
vn 0.0002 0.0240 0.9997
vn -0.5895 0.0355 -0.8070
vn -0.5879 0.0371 -0.8081
vn -0.5896 0.0358 -0.8069
vn 0.0007 0.0314 0.9995
vn 0.0005 0.0252 0.9997
vn 0.5890 0.0139 -0.8080
vn 0.5906 0.0050 -0.8070
vn -0.9501 0.0482 0.3082
vn -0.9505 0.0482 0.3070
vn 0.9513 0.0106 0.3082
vn 0.9517 -0.0014 0.3070
vn 0.8337 -0.4748 0.2821
vn -0.9146 -0.2827 0.2891
vn 0.5197 -0.3982 -0.7559
vn -0.0316 -0.4052 0.9137
vn -0.5801 -0.2761 -0.7664
vn -0.9024 0.3091 0.3001
vn 0.5899 0.1508 -0.7933
vn 0.0192 0.2458 0.9691
vn -0.5572 0.2510 -0.7915
vn 0.9419 0.1482 0.3014
vn 0.0779 0.9970 0.0000
vn 0.0778 0.9970 -0.0000
s off
f 3/1/1 5/2/1 7/3/1
f 1/4/2 2/5/2 8/6/2
f 11/7/3 7/3/3 5/2/3 10/8/3
f 9/9/4 6/10/4 7/3/4 11/7/4
f 6/10/5 3/1/5 7/3/5
f 4/11/6 1/4/6 8/6/6
f 2/5/7 9/9/7 11/7/7 8/6/7
f 8/6/8 11/7/8 10/8/8 4/11/8
f 14/12/9 16/13/9 18/14/9
f 12/15/10 13/16/10 19/17/10
f 22/18/11 18/14/11 16/13/11 21/19/11
f 20/20/12 17/21/12 18/14/12 22/18/12
f 17/21/13 14/12/13 18/14/13
f 15/22/14 12/15/14 19/17/14
f 13/16/15 20/20/15 22/18/15 19/17/15
f 19/17/16 22/18/16 21/19/16 15/22/16
f 25/23/17 27/24/17 29/25/17
f 23/26/18 24/27/18 30/28/18
f 33/29/19 29/25/19 27/24/19 32/30/19
f 31/31/20 28/32/20 29/25/20 33/29/20
f 28/32/21 25/23/21 29/25/21
f 26/33/22 23/26/22 30/28/22
f 24/27/23 31/31/23 33/29/23 30/28/23
f 30/28/24 33/29/24 32/30/24 26/33/24
f 36/34/25 38/35/25 40/36/25
f 34/37/26 35/38/26 41/39/26
f 44/40/27 40/36/27 38/35/27 43/41/27
f 42/42/28 39/43/28 40/36/28 44/40/28
f 39/43/29 36/34/29 40/36/29
f 37/44/30 34/37/30 41/39/30
f 35/38/31 42/42/31 44/40/31 41/39/31
f 41/39/32 44/40/32 43/41/32 37/44/32
f 47/45/33 49/46/33 51/47/33
f 45/48/34 46/49/34 52/50/34
f 55/51/35 51/47/35 49/46/35 54/52/35
f 53/53/36 50/54/36 51/47/36 55/51/36
f 50/54/37 47/45/37 51/47/37
f 48/55/38 45/48/38 52/50/38
f 46/49/39 53/53/39 55/51/39 52/50/39
f 52/50/40 55/51/40 54/52/40 48/55/40
f 58/56/41 60/57/41 62/58/41
f 56/59/42 57/60/42 63/61/42
f 66/62/43 62/58/43 60/57/43 65/63/43
f 64/64/44 61/65/44 62/58/44 66/62/44
f 61/65/45 58/56/45 62/58/45
f 59/66/46 56/59/46 63/61/46
f 57/60/47 64/64/47 66/62/47 63/61/47
f 63/61/48 66/62/48 65/63/48 59/66/48
f 69/67/49 71/68/49 73/69/49
f 67/70/50 68/71/50 74/72/50
f 77/73/51 73/69/51 71/68/51 76/74/51
f 75/75/52 72/76/52 73/69/52 77/73/52
f 72/76/53 69/67/53 73/69/53
f 70/77/54 67/70/54 74/72/54
f 68/71/55 75/75/55 77/73/55 74/72/55
f 74/72/56 77/73/56 76/74/56 70/77/56
f 80/78/57 82/79/57 84/80/57
f 78/81/58 79/82/58 85/83/58
f 88/84/59 84/80/59 82/79/59 87/85/59
f 86/86/60 83/87/60 84/80/60 88/84/60
f 83/87/61 80/78/61 84/80/61
f 81/88/62 78/81/62 85/83/62
f 79/82/63 86/86/63 88/84/63 85/83/63
f 85/83/64 88/84/64 87/85/64 81/88/64
f 101/89/65 98/90/65 97/91/65 100/92/65
f 105/93/66 96/94/66 95/95/66 104/96/66
f 107/97/67 94/98/67 98/90/67 101/89/67
f 100/99/68 97/100/68 96/94/68 105/93/68
f 104/96/69 95/95/69 94/98/69 107/97/69
f 90/101/70 103/102/70 108/103/70 89/104/70
f 103/102/71 104/96/71 107/97/71 108/103/71
f 92/105/72 99/106/72 106/107/72 91/108/72
f 99/106/73 100/99/73 105/93/73 106/107/73
f 89/104/74 108/103/74 102/109/74 93/110/74
f 108/103/75 107/97/75 101/89/75 102/109/75
f 91/108/76 106/107/76 103/102/76 90/101/76
f 106/107/77 105/93/77 104/96/77 103/102/77
f 93/110/78 102/109/78 99/111/78 92/112/78
f 102/109/79 101/89/79 100/92/79 99/111/79
f 98/90/80 113/113/80 112/114/80 97/91/80
f 96/94/81 111/115/81 110/116/81 95/95/81
f 94/98/82 109/117/82 113/113/82 98/90/82
f 97/100/83 112/118/83 111/115/83 96/94/83
f 95/95/84 110/116/84 109/117/84 94/98/84
f 111/115/85 116/119/85 115/120/85 110/116/85
f 109/117/86 114/121/86 118/122/86 113/113/86
f 112/118/87 117/123/87 116/119/87 111/115/87
f 110/116/88 115/120/88 114/121/88 109/117/88
f 113/113/89 118/122/89 117/124/89 112/114/89
f 116/125/90 117/126/90 118/127/90 114/128/90
f 115/129/91 116/125/91 114/128/91
