# Blender v2.78 (sub 0) OBJ File: 'Low_Poly_Trees_Pack.blend'
# www.blender.org
g Palm_Tree_Coconut_OneSided_m_04
v 0.574462 5.204993 -0.228802
v 0.407839 5.148726 -0.211608
v 0.517672 5.239254 -0.101444
v 0.668721 5.201766 -0.093548
v 0.652240 5.088067 -0.198833
v 0.491007 5.055287 -0.271796
v 0.399118 5.110725 -0.065727
v 0.560352 5.143504 0.007237
v 0.643519 5.050066 -0.052951
v 0.533687 4.959538 -0.163115
v 0.382637 4.997025 -0.171011
v 0.476896 4.993799 -0.035757
v 0.863950 5.026276 0.130389
v 0.720718 4.922991 0.136836
v 0.821692 4.982603 0.000289
v 0.876644 5.128419 0.001570
v 0.809629 5.158925 0.138910
v 0.713262 5.031963 0.222508
v 0.644889 4.961299 0.012001
v 0.741255 5.088261 -0.071596
v 0.733801 5.197233 0.014076
v 0.632826 5.137621 0.150622
v 0.577874 4.991805 0.149341
v 0.590567 5.093948 0.020523
v 0.239699 4.937261 0.023070
v 0.400346 5.008155 0.128849
v 0.198732 5.040578 0.123624
v 0.107507 5.046347 -0.019578
v 0.252746 5.017490 -0.102854
v 0.433728 4.993886 -0.011120
v 0.367439 5.161059 0.151577
v 0.186458 5.184663 0.059844
v 0.219839 5.170393 -0.080126
v 0.421453 5.137972 -0.074900
v 0.512677 5.132202 0.068301
v 0.380486 5.241289 0.025653
v 0.586393 5.114300 0.172054
v 0.556952 4.956906 0.235220
v 0.630852 5.013001 0.086453
v 0.572922 5.132577 0.013043
v 0.463220 5.150383 0.116444
v 0.453351 5.041812 0.253755
v 0.525289 4.877908 0.115249
v 0.535156 4.986478 -0.022062
v 0.431556 5.071383 -0.003527
v 0.357656 5.015288 0.145240
v 0.415585 4.895712 0.218650
v 0.402116 4.913990 0.059639
v 1.824905 4.456377 1.259166
v 1.863761 4.898209 0.813232
v 0.599213 5.362010 0.026435
v 1.553487 4.994787 1.250700
v 0.871859 5.501791 0.611925
v 1.229373 5.400268 0.179102
v 1.050476 5.506273 0.378671
v 1.726102 4.993607 1.031180
v 1.667520 5.265386 0.516709
v 1.258425 5.381556 1.011978
v 1.472523 5.384699 0.754193
v 1.766591 4.483716 -1.157252
v 1.380516 4.987574 -1.170676
v 0.612592 5.340413 -0.024946
v 1.779712 5.001680 -0.790308
v 1.237808 5.446239 -0.269272
v 0.815361 5.458344 -0.662729
v 1.018631 5.510596 -0.455667
v 1.587736 5.045150 -0.990365
v 1.064694 5.316114 -0.930549
v 1.542890 5.333011 -0.474908
v 1.313316 5.387693 -0.715065
v -0.833217 5.013611 -1.056482
v -0.683117 5.460650 -0.682320
v 0.561793 5.343953 -0.016374
v -0.363778 5.389678 -1.080405
v 0.345305 5.527937 -0.571918
v 0.011003 5.602234 -0.155180
v 0.200835 5.614186 -0.354108
v -0.510557 5.471156 -0.879222
v -0.389263 5.681827 -0.420037
v -0.006729 5.596809 -0.896902
v -0.181890 5.696788 -0.655795
v -0.607809 4.900209 1.236595
v -0.225365 5.362018 1.183305
v 0.632097 5.338500 0.014492
v -0.577894 5.323388 0.809518
v 0.046210 5.568471 0.171963
v 0.415258 5.608912 0.563265
v 0.242145 5.639939 0.351556
v -0.398658 5.389802 0.988741
v 0.068534 5.613866 0.950371
v -0.353760 5.567591 0.502614
v -0.138901 5.649581 0.716909
v 0.308037 3.717449 1.384975
v 0.818059 4.242177 1.237832
v 0.524286 5.288473 0.001622
v 0.039909 4.378054 1.277584
v 0.112201 5.118880 0.635762
v 0.926813 4.976638 0.594149
v 0.534059 5.108078 0.633443
v 0.441441 4.358237 1.284340
v 0.970190 4.674191 0.917126
v 0.038047 4.836957 0.964744
v 0.519684 4.815703 0.974212
v 1.795866 3.635907 -0.184567
v 1.807805 4.329225 -0.425455
v 0.549713 5.339177 -0.031168
v 1.712125 4.223665 0.269938
v 1.064736 5.090978 0.365543
v 1.161263 5.184726 -0.365271
v 1.134783 5.200960 0.012951
v 1.795366 4.321981 -0.064359
v 1.561091 4.859822 -0.442261
v 1.446476 4.733373 0.390748
v 1.548018 4.853497 -0.009014
v 0.139216 3.778237 -1.458229
v -0.054979 4.500058 -1.359462
v 0.533452 5.313318 -0.011979
v 0.684527 4.347048 -1.342140
v 0.923129 5.137754 -0.683520
v 0.146373 5.285734 -0.691131
v 0.552175 5.277844 -0.683955
v 0.330816 4.478241 -1.368297
v -0.009757 4.982747 -1.082252
v 0.876094 4.799457 -1.061502
v 0.453214 4.959437 -1.093738
v -1.324683 4.091901 -0.057102
v -1.090269 4.698036 0.275417
v 0.562499 5.297256 -0.010464
v -1.012864 4.646884 -0.416329
v -0.078587 5.287753 -0.431975
v -0.162427 5.306837 0.293592
v -0.114628 5.364172 -0.069423
v -1.066696 4.728745 -0.075274
v -0.669502 5.084743 0.356166
v -0.576779 5.023468 -0.472474
v -0.642045 5.124435 -0.064175
v 0.000000 0.000000 -0.223428
v -0.212493 0.000000 -0.069043
v -0.131328 0.000000 0.180757
v 0.131328 0.000000 0.180757
v 0.212493 0.000000 -0.069043
v 0.525352 5.074286 -0.076087
v 0.469348 5.087619 -0.034260
v 0.490740 5.082527 0.033417
v 0.559965 5.066045 0.033417
v 0.581357 5.060953 -0.034260
v 0.442909 1.130663 0.123306
v 0.304717 3.425268 0.070775
v 0.341127 3.420462 -0.043080
v 0.500614 1.127479 -0.055481
v 0.198466 1.144153 -0.055481
v 0.150479 3.445627 -0.043080
v 0.186889 3.440821 0.070775
v 0.256171 1.140969 0.123306
v 0.245803 3.433045 -0.113446
v 0.349540 1.135816 -0.165977
v 0.558492 5.193762 -0.131205
v 0.446109 5.220517 -0.047272
v 0.489036 5.210298 0.088535
v 0.627948 5.177226 0.088534
v 0.670875 5.167005 -0.047272
v 0.628665 5.476494 -0.057110
v 0.592072 5.485206 -0.029780
v 0.606049 5.481879 0.014439
v 0.651280 5.471110 0.014439
v 0.665258 5.467783 -0.029780
v 0.579629 2.235103 0.097041
v 0.626790 2.237604 -0.049280
v 0.379852 2.224512 -0.049280
v 0.427013 2.227012 0.097041
v 0.503321 2.231058 -0.139712
v 0.343538 4.245276 0.052096
v 0.221195 4.266593 -0.038670
v 0.372419 4.240244 -0.038670
v 0.250076 4.261561 0.052096
v 0.296807 4.253418 -0.094767
vt 0.9078 0.0834
vt 0.8997 0.0940
vt 0.8956 0.0784
vt 0.9159 0.0940
vt 0.9078 0.0733
vt 0.9201 0.0784
vt 0.8985 0.0329
vt 0.9181 0.0329
vt 0.9083 0.0434
vt 0.8857 0.0476
vt 0.9005 0.0476
vt 0.8997 0.0628
vt 0.9159 0.0628
vt 0.9310 0.0476
vt 0.9162 0.0476
vt 0.8985 0.0622
vt 0.9181 0.0622
vt 0.9083 0.0518
vt 0.9078 0.0834
vt 0.8997 0.0940
vt 0.8956 0.0784
vt 0.9159 0.0940
vt 0.9078 0.0733
vt 0.9201 0.0784
vt 0.8985 0.0329
vt 0.9181 0.0329
vt 0.9083 0.0434
vt 0.8857 0.0476
vt 0.9005 0.0476
vt 0.8997 0.0628
vt 0.9159 0.0628
vt 0.9310 0.0476
vt 0.9162 0.0476
vt 0.8985 0.0622
vt 0.9181 0.0622
vt 0.9083 0.0518
vt 0.9698 0.0834
vt 0.9617 0.0940
vt 0.9576 0.0784
vt 0.9779 0.0940
vt 0.9698 0.0733
vt 0.9821 0.0784
vt 0.9605 0.0329
vt 0.9801 0.0329
vt 0.9703 0.0434
vt 0.9477 0.0476
vt 0.9625 0.0476
vt 0.9617 0.0628
vt 0.9779 0.0628
vt 0.9930 0.0476
vt 0.9782 0.0476
vt 0.9605 0.0622
vt 0.9801 0.0622
vt 0.9703 0.0518
vt 0.9078 0.0834
vt 0.8997 0.0940
vt 0.8956 0.0784
vt 0.9159 0.0940
vt 0.9078 0.0733
vt 0.9201 0.0784
vt 0.8985 0.0329
vt 0.9181 0.0329
vt 0.9083 0.0434
vt 0.8857 0.0476
vt 0.9005 0.0476
vt 0.8997 0.0628
vt 0.9159 0.0628
vt 0.9310 0.0476
vt 0.9162 0.0476
vt 0.8985 0.0622
vt 0.9181 0.0622
vt 0.9083 0.0518
vt 0.9428 0.1411
vt 0.9528 0.1642
vt 0.9428 0.1634
vt 0.9428 0.2247
vt 0.9333 0.2022
vt 0.9428 0.2015
vt 0.9428 0.1835
vt 0.9546 0.1844
vt 0.9310 0.1844
vt 0.9328 0.1642
vt 0.9523 0.2022
vt 0.8150 0.1411
vt 0.8250 0.1642
vt 0.8150 0.1634
vt 0.8150 0.2247
vt 0.8054 0.2022
vt 0.8150 0.2015
vt 0.8150 0.1835
vt 0.8268 0.1844
vt 0.8032 0.1844
vt 0.8050 0.1642
vt 0.8245 0.2022
vt 0.9428 0.1411
vt 0.9528 0.1642
vt 0.9428 0.1634
vt 0.9428 0.2247
vt 0.9333 0.2022
vt 0.9428 0.2015
vt 0.9428 0.1835
vt 0.9546 0.1844
vt 0.9310 0.1844
vt 0.9328 0.1642
vt 0.9523 0.2022
vt 0.8150 0.1411
vt 0.8250 0.1642
vt 0.8150 0.1634
vt 0.8150 0.2247
vt 0.8054 0.2022
vt 0.8150 0.2015
vt 0.8150 0.1835
vt 0.8268 0.1844
vt 0.8032 0.1844
vt 0.8050 0.1642
vt 0.8245 0.2022
vt 0.6953 0.1411
vt 0.7053 0.1642
vt 0.6953 0.1634
vt 0.6953 0.2247
vt 0.6858 0.2022
vt 0.6953 0.2015
vt 0.6953 0.1835
vt 0.7071 0.1844
vt 0.6835 0.1844
vt 0.6853 0.1642
vt 0.7048 0.2022
vt 0.8150 0.1411
vt 0.8250 0.1642
vt 0.8150 0.1634
vt 0.8150 0.2247
vt 0.8054 0.2022
vt 0.8150 0.2015
vt 0.8150 0.1835
vt 0.8268 0.1844
vt 0.8032 0.1844
vt 0.8050 0.1642
vt 0.8245 0.2022
vt 0.6953 0.1411
vt 0.7053 0.1642
vt 0.6953 0.1634
vt 0.6953 0.2247
vt 0.6858 0.2022
vt 0.6953 0.2015
vt 0.6953 0.1835
vt 0.7071 0.1844
vt 0.6835 0.1844
vt 0.6853 0.1642
vt 0.7048 0.2022
vt 0.6953 0.1411
vt 0.7053 0.1642
vt 0.6953 0.1634
vt 0.6953 0.2247
vt 0.6858 0.2022
vt 0.6953 0.2015
vt 0.6953 0.1835
vt 0.7071 0.1844
vt 0.6835 0.1844
vt 0.6853 0.1642
vt 0.7048 0.2022
vt 0.5683 0.9643
vt 0.5687 0.9792
vt 0.5674 0.9791
vt 0.5666 0.9642
vt 0.5733 0.9643
vt 0.5726 0.9794
vt 0.5713 0.9795
vt 0.5716 0.9644
vt 0.5700 0.9643
vt 0.5700 0.9794
vt 0.5749 0.9643
vt 0.5739 0.9791
vt 0.5739 0.8888
vt 0.5728 0.9200
vt 0.5697 0.9201
vt 0.5694 0.8891
vt 0.5724 0.9346
vt 0.5719 0.9492
vt 0.5699 0.9493
vt 0.5698 0.9347
vt 0.5828 0.8899
vt 0.5791 0.9207
vt 0.5760 0.9203
vt 0.5784 0.8892
vt 0.5775 0.9351
vt 0.5759 0.9495
vt 0.5739 0.9493
vt 0.5750 0.9348
vt 0.5665 0.9203
vt 0.5650 0.8894
vt 0.5679 0.9493
vt 0.5672 0.9348
vt 0.5633 0.9205
vt 0.5605 0.8896
vt 0.5659 0.9494
vt 0.5646 0.9350
vt 0.5684 0.9815
vt 0.5664 0.9813
vt 0.5729 0.9815
vt 0.5714 0.9814
vt 0.5699 0.9815
vt 0.5749 0.9814
vt 0.5723 0.9853
vt 0.5712 0.9851
vt 0.5701 0.9851
vt 0.5690 0.9853
vt 0.5734 0.9855
vt 0.5678 0.9855
vt 0.5195 0.9423
vt 0.5243 0.9388
vt 0.5290 0.9423
vt 0.5272 0.9479
vt 0.5213 0.9479
vn -0.3309 0.8638 -0.3799
vn -0.2213 0.3812 -0.8976
vn 0.2455 0.9580 -0.1482
vn 0.7649 0.3745 -0.5241
vn 0.4059 0.0360 -0.9132
vn -0.6506 -0.0936 -0.7536
vn -0.7086 0.6920 0.1379
vn 0.1591 0.7709 0.6167
vn 0.9871 -0.1593 0.0175
vn 0.4298 -0.5871 -0.6860
vn -0.9871 0.1593 -0.0175
vn -0.4298 0.5871 0.6860
vn 0.6506 0.0936 0.7537
vn 0.7086 -0.6920 -0.1379
vn -0.1591 -0.7709 -0.6167
vn -0.7649 -0.3745 0.5241
vn -0.4059 -0.0360 0.9132
vn 0.2213 -0.3812 0.8976
vn 0.3309 -0.8638 0.3799
vn -0.2455 -0.9580 0.1482
vn 0.5854 -0.8067 0.0807
vn 0.4234 -0.5418 0.7260
vn 0.9205 -0.3453 -0.1831
vn 0.8739 0.3353 0.3520
vn 0.5193 0.1587 0.8397
vn -0.2282 -0.6113 0.7578
vn 0.0901 -0.9355 -0.3418
vn 0.5091 -0.1845 -0.8407
vn 0.4348 0.9004 0.0122
vn -0.0120 0.5562 0.8309
vn -0.4348 -0.9004 -0.0122
vn 0.0120 -0.5562 -0.8309
vn 0.2282 0.6113 -0.7578
vn -0.0901 0.9355 0.3418
vn -0.5091 0.1845 0.8407
vn -0.8739 -0.3353 -0.3520
vn -0.5193 -0.1587 -0.8397
vn -0.4234 0.5418 -0.7260
vn -0.5854 0.8067 -0.0807
vn -0.9205 0.3453 0.1831
vn -0.1332 -0.7179 0.6833
vn 0.3033 -0.9380 0.1680
vn -0.6574 -0.6430 0.3929
vn -0.4410 -0.7355 -0.5143
vn 0.1537 -0.8405 -0.5196
vn 0.7751 -0.5827 0.2443
vn -0.0509 -0.1575 0.9862
vn -0.8287 0.1660 0.5346
vn -0.4938 0.0229 -0.8692
vn 0.3881 -0.3452 -0.8545
vn 0.4939 -0.0229 0.8692
vn -0.3881 0.3452 0.8545
vn -0.7751 0.5827 -0.2443
vn 0.0509 0.1575 -0.9862
vn 0.8287 -0.1660 -0.5346
vn 0.4410 0.7355 0.5143
vn -0.1537 0.8405 0.5196
vn -0.3033 0.9380 -0.1680
vn 0.1331 0.7179 -0.6833
vn 0.6574 0.6430 -0.3929
vn 0.8936 0.0130 0.4488
vn 0.3868 0.2802 0.8785
vn 0.9063 0.4217 -0.0283
vn 0.2421 0.9660 0.0905
vn -0.0487 0.7852 0.6173
vn -0.0145 -0.2301 0.9731
vn 0.7936 -0.5829 0.1744
vn 0.7540 -0.0373 -0.6558
vn -0.3048 0.8304 -0.4664
vn -0.6622 0.6102 0.4349
vn 0.3048 -0.8304 0.4664
vn 0.6622 -0.6102 -0.4349
vn 0.0145 0.2301 -0.9731
vn -0.7936 0.5829 -0.1744
vn -0.7540 0.0373 0.6558
vn -0.2421 -0.9660 -0.0905
vn 0.0487 -0.7852 -0.6173
vn -0.3868 -0.2802 -0.8785
vn -0.8936 -0.0130 -0.4488
vn -0.9063 -0.4217 0.0283
vn -0.2031 0.9695 -0.1369
vn 0.8571 0.3267 0.3984
vn 0.1572 0.9775 0.1409
vn 0.3869 0.9116 -0.1389
vn 0.0503 0.9000 -0.4330
vn 0.7292 0.3766 0.5714
vn 0.7405 0.6254 0.2461
vn 0.5575 0.6946 0.4546
vn -0.0220 0.9367 0.3493
vn 0.5390 0.3931 -0.7449
vn 0.3177 0.9456 -0.0704
vn 0.0923 0.9246 -0.3697
vn -0.3180 0.9452 0.0737
vn 0.7034 0.3989 -0.5883
vn 0.3127 0.7361 -0.6003
vn 0.5571 0.7447 -0.3674
vn 0.5675 0.8218 0.0510
vn -0.6060 0.6203 -0.4980
vn 0.3235 0.9337 -0.1536
vn 0.0962 0.9842 0.1488
vn 0.3207 0.8766 0.3587
vn -0.5115 0.5993 -0.6159
vn -0.3944 0.8703 -0.2951
vn -0.2254 0.8327 -0.5057
vn 0.1829 0.8285 -0.5293
vn -0.5824 0.5512 0.5974
vn -0.1681 0.9651 -0.2007
vn 0.0923 0.9933 0.0700
vn 0.4522 0.8579 -0.2440
vn -0.6868 0.5398 0.4868
vn -0.3584 0.8229 0.4409
vn -0.5450 0.8024 0.2431
vn 0.0261 0.9614 0.2741
vn 0.1583 0.1209 0.9800
vn 0.0217 0.7575 0.6524
vn 0.3036 0.7161 0.6285
vn 0.3297 0.9091 0.2545
vn -0.0089 0.1569 0.9876
vn 0.2620 0.5122 0.8179
vn 0.0109 0.5616 0.8274
vn 0.1938 0.9249 0.3270
vn 0.9994 -0.0053 0.0343
vn 0.6194 0.7000 0.3554
vn 0.6387 0.7692 0.0217
vn 0.2317 0.9725 -0.0255
vn 0.9723 -0.0397 0.2304
vn 0.9066 0.4204 0.0363
vn 0.8679 0.3719 0.3292
vn 0.3531 0.9348 -0.0395
vn -0.0153 0.1315 -0.9912
vn 0.2937 0.7068 -0.6436
vn 0.0252 0.7859 -0.6178
vn 0.0203 0.9984 -0.0521
vn 0.1092 0.0972 -0.9893
vn 0.0056 0.4961 -0.8683
vn 0.2300 0.4391 -0.8685
vn 0.1132 0.9744 -0.1941
vn -0.9267 0.3746 -0.0295
vn -0.4193 0.8711 -0.2556
vn -0.4025 0.9124 0.0744
vn 0.0826 0.9826 0.1661
vn -0.9044 0.3599 -0.2291
vn -0.6803 0.7326 0.0219
vn -0.6498 0.7082 -0.2761
vn 0.9218 -0.2362 0.3076
vn -0.9115 0.2740 0.3067
vn 0.5725 -0.1412 -0.8077
vn 0.0043 0.0215 0.9998
vn -0.5647 0.1753 -0.8065
vn -0.5718 0.2154 -0.7916
vn -0.5907 -0.1080 -0.7997
vn 0.0012 0.0502 0.9987
vn 0.0006 0.0220 0.9998
vn 0.5811 -0.1386 -0.8020
vn 0.5885 0.1449 -0.7954
vn -0.9005 0.3203 0.2942
vn -0.9373 -0.1783 0.2995
vn 0.9231 -0.2393 0.3009
vn 0.9289 0.2219 0.2964
vn 0.7499 -0.5984 0.2821
vn -0.9474 -0.1374 0.2891
vn 0.4517 -0.4740 -0.7559
vn -0.0941 -0.3954 0.9137
vn -0.6159 -0.1827 -0.7664
vn -0.8436 0.4453 0.3001
vn 0.6061 0.0575 -0.7933
vn 0.0571 0.2398 0.9691
vn -0.5115 0.3344 -0.7915
vn 0.9535 0.0003 0.3014
vn 0.2316 0.9728 -0.0000
vn 0.9459 -0.1095 0.3053
vn -0.9400 0.1556 0.3035
vn 0.5892 -0.0629 -0.8056
vn 0.0002 0.0240 0.9997
vn -0.5871 0.1024 -0.8030
vn -0.5885 0.0550 -0.8066
vn 0.0034 0.0226 0.9997
vn 0.5929 -0.0184 -0.8051
vn -0.9485 0.0800 0.3065
vn 0.9515 -0.0380 0.3054
s off
f 1/1/1 2/2/1 3/3/1
f 2/2/2 1/1/2 6/4/2
f 1/1/3 3/3/3 4/5/3
f 1/1/4 4/5/4 5/6/4
f 1/1/5 5/6/5 6/4/5
f 2/7/6 6/8/6 11/9/6
f 3/10/7 2/7/7 7/11/7
f 4/5/8 3/3/8 8/12/8
f 5/6/9 4/5/9 9/13/9
f 6/8/10 5/14/10 10/15/10
f 2/7/11 11/9/11 7/11/11
f 3/10/12 7/11/12 8/16/12
f 4/5/13 8/12/13 9/13/13
f 5/14/14 9/17/14 10/15/14
f 6/8/15 10/15/15 11/9/15
f 7/11/16 11/9/16 12/18/16
f 8/16/17 7/11/17 12/18/17
f 9/17/18 8/16/18 12/18/18
f 10/15/19 9/17/19 12/18/19
f 11/9/20 10/15/20 12/18/20
f 13/19/21 14/20/21 15/21/21
f 14/20/22 13/19/22 18/22/22
f 13/19/23 15/21/23 16/23/23
f 13/19/24 16/23/24 17/24/24
f 13/19/25 17/24/25 18/22/25
f 14/25/26 18/26/26 23/27/26
f 15/28/27 14/25/27 19/29/27
f 16/23/28 15/21/28 20/30/28
f 17/24/29 16/23/29 21/31/29
f 18/26/30 17/32/30 22/33/30
f 14/25/31 23/27/31 19/29/31
f 15/28/32 19/29/32 20/34/32
f 16/23/33 20/30/33 21/31/33
f 17/32/34 21/35/34 22/33/34
f 18/26/35 22/33/35 23/27/35
f 19/29/36 23/27/36 24/36/36
f 20/34/37 19/29/37 24/36/37
f 21/35/38 20/34/38 24/36/38
f 22/33/39 21/35/39 24/36/39
f 23/27/40 22/33/40 24/36/40
f 25/37/41 26/38/41 27/39/41
f 26/38/42 25/37/42 30/40/42
f 25/37/43 27/39/43 28/41/43
f 25/37/44 28/41/44 29/42/44
f 25/37/45 29/42/45 30/40/45
f 26/43/46 30/44/46 35/45/46
f 27/46/47 26/43/47 31/47/47
f 28/41/48 27/39/48 32/48/48
f 29/42/49 28/41/49 33/49/49
f 30/44/50 29/50/50 34/51/50
f 26/43/51 35/45/51 31/47/51
f 27/46/52 31/47/52 32/52/52
f 28/41/53 32/48/53 33/49/53
f 29/50/54 33/53/54 34/51/54
f 30/44/55 34/51/55 35/45/55
f 31/47/56 35/45/56 36/54/56
f 32/52/57 31/47/57 36/54/57
f 33/53/58 32/52/58 36/54/58
f 34/51/59 33/53/59 36/54/59
f 35/45/60 34/51/60 36/54/60
f 37/55/61 38/56/61 39/57/61
f 38/56/62 37/55/62 42/58/62
f 37/55/63 39/57/63 40/59/63
f 37/55/64 40/59/64 41/60/64
f 37/55/65 41/60/65 42/58/65
f 38/61/66 42/62/66 47/63/66
f 39/64/67 38/61/67 43/65/67
f 40/59/68 39/57/68 44/66/68
f 41/60/69 40/59/69 45/67/69
f 42/62/70 41/68/70 46/69/70
f 38/61/71 47/63/71 43/65/71
f 39/64/72 43/65/72 44/70/72
f 40/59/73 44/66/73 45/67/73
f 41/68/74 45/71/74 46/69/74
f 42/62/75 46/69/75 47/63/75
f 43/65/76 47/63/76 48/72/76
f 44/70/77 43/65/77 48/72/77
f 45/71/78 44/70/78 48/72/78
f 46/69/79 45/71/79 48/72/79
f 47/63/80 46/69/80 48/72/80
f 51/73/81 53/74/81 55/75/81
f 49/76/82 50/77/82 56/78/82
f 59/79/83 55/75/83 53/74/83 58/80/83
f 57/81/84 54/82/84 55/75/84 59/79/84
f 54/82/85 51/73/85 55/75/85
f 52/83/86 49/76/86 56/78/86
f 50/77/87 57/81/87 59/79/87 56/78/87
f 56/78/88 59/79/88 58/80/88 52/83/88
f 62/84/89 64/85/89 66/86/89
f 60/87/90 61/88/90 67/89/90
f 70/90/91 66/86/91 64/85/91 69/91/91
f 68/92/92 65/93/92 66/86/92 70/90/92
f 65/93/93 62/84/93 66/86/93
f 63/94/94 60/87/94 67/89/94
f 61/88/95 68/92/95 70/90/95 67/89/95
f 67/89/96 70/90/96 69/91/96 63/94/96
f 73/95/97 75/96/97 77/97/97
f 71/98/98 72/99/98 78/100/98
f 81/101/99 77/97/99 75/96/99 80/102/99
f 79/103/100 76/104/100 77/97/100 81/101/100
f 76/104/101 73/95/101 77/97/101
f 74/105/102 71/98/102 78/100/102
f 72/99/103 79/103/103 81/101/103 78/100/103
f 78/100/104 81/101/104 80/102/104 74/105/104
f 84/106/105 86/107/105 88/108/105
f 82/109/106 83/110/106 89/111/106
f 92/112/107 88/108/107 86/107/107 91/113/107
f 90/114/108 87/115/108 88/108/108 92/112/108
f 87/115/109 84/106/109 88/108/109
f 85/116/110 82/109/110 89/111/110
f 83/110/111 90/114/111 92/112/111 89/111/111
f 89/111/112 92/112/112 91/113/112 85/116/112
f 95/117/113 97/118/113 99/119/113
f 93/120/114 94/121/114 100/122/114
f 103/123/115 99/119/115 97/118/115 102/124/115
f 101/125/116 98/126/116 99/119/116 103/123/116
f 98/126/117 95/117/117 99/119/117
f 96/127/118 93/120/118 100/122/118
f 94/121/119 101/125/119 103/123/119 100/122/119
f 100/122/120 103/123/120 102/124/120 96/127/120
f 106/128/121 108/129/121 110/130/121
f 104/131/122 105/132/122 111/133/122
f 114/134/123 110/130/123 108/129/123 113/135/123
f 112/136/124 109/137/124 110/130/124 114/134/124
f 109/137/125 106/128/125 110/130/125
f 107/138/126 104/131/126 111/133/126
f 105/132/127 112/136/127 114/134/127 111/133/127
f 111/133/128 114/134/128 113/135/128 107/138/128
f 117/139/129 119/140/129 121/141/129
f 115/142/130 116/143/130 122/144/130
f 125/145/131 121/141/131 119/140/131 124/146/131
f 123/147/132 120/148/132 121/141/132 125/145/132
f 120/148/133 117/139/133 121/141/133
f 118/149/134 115/142/134 122/144/134
f 116/143/135 123/147/135 125/145/135 122/144/135
f 122/144/136 125/145/136 124/146/136 118/149/136
f 128/150/137 130/151/137 132/152/137
f 126/153/138 127/154/138 133/155/138
f 136/156/139 132/152/139 130/151/139 135/157/139
f 134/158/140 131/159/140 132/152/140 136/156/140
f 131/159/141 128/150/141 132/152/141
f 129/160/142 126/153/142 133/155/142
f 127/154/143 134/158/143 136/156/143 133/155/143
f 133/155/144 136/156/144 135/157/144 129/160/144
f 174/161/145 146/162/145 145/163/145 172/164/145
f 175/165/146 144/166/146 143/167/146 173/168/146
f 176/169/147 142/170/147 146/162/147 174/161/147
f 172/171/148 145/172/148 144/166/148 175/165/148
f 173/168/149 143/167/149 142/170/149 176/169/149
f 138/173/150 151/174/150 156/175/150 137/176/150
f 169/177/151 152/178/151 155/179/151 171/180/151
f 140/181/152 147/182/152 154/183/152 139/184/152
f 167/185/153 148/186/153 153/187/153 170/188/153
f 137/176/154 156/175/154 150/189/154 141/190/154
f 171/180/155 155/179/155 149/191/155 168/192/155
f 139/184/156 154/183/156 151/174/156 138/173/156
f 170/188/157 153/187/157 152/178/157 169/177/157
f 141/190/158 150/189/158 147/193/158 140/194/158
f 168/192/159 149/191/159 148/195/159 167/196/159
f 146/162/160 161/197/160 160/198/160 145/163/160
f 144/166/161 159/199/161 158/200/161 143/167/161
f 142/170/162 157/201/162 161/197/162 146/162/162
f 145/172/163 160/202/163 159/199/163 144/166/163
f 143/167/164 158/200/164 157/201/164 142/170/164
f 159/199/165 164/203/165 163/204/165 158/200/165
f 157/201/166 162/205/166 166/206/166 161/197/166
f 160/202/167 165/207/167 164/203/167 159/199/167
f 158/200/168 163/204/168 162/205/168 157/201/168
f 161/197/169 166/206/169 165/208/169 160/198/169
f 164/209/170 165/210/170 166/211/170 162/212/170
f 163/213/170 164/209/170 162/212/170
f 150/189/171 168/192/171 167/196/171 147/193/171
f 154/183/172 170/188/172 169/177/172 151/174/172
f 156/175/173 171/180/173 168/192/173 150/189/173
f 147/182/174 167/185/174 170/188/174 154/183/174
f 151/174/175 169/177/175 171/180/175 156/175/175
f 152/178/176 173/168/176 176/169/176 155/179/176
f 148/186/177 172/171/177 175/165/177 153/187/177
f 155/179/178 176/169/178 174/161/178 149/191/178
f 153/187/179 175/165/179 173/168/179 152/178/179
f 149/191/180 174/161/180 172/164/180 148/195/180
