# Blender v2.78 (sub 0) OBJ File: 'Low_Poly_Trees_Pack.blend'
# www.blender.org
g Palm_Tree_OneSided_s_05
v 0.000000 0.000000 -0.167270
v -0.159084 0.000000 -0.051689
v -0.098319 0.000000 0.135325
v 0.098319 0.000000 0.135325
v 0.159084 0.000000 -0.051689
v 3.060737 2.041239 -0.056963
v 3.018366 2.049128 -0.025650
v 3.034550 2.046115 0.025017
v 3.086924 2.036362 0.025017
v 3.103109 2.033349 -0.025650
v 0.170309 0.425310 0.092314
v 2.533083 1.316560 0.051691
v 2.554825 1.300796 -0.031946
v 0.212026 0.413835 -0.041536
v -0.006409 0.473922 -0.041536
v 2.440983 1.383333 -0.031946
v 2.462724 1.367570 0.051691
v 0.035308 0.462447 0.092314
v 2.497904 1.342064 -0.083637
v 0.102808 0.443879 -0.124260
v 3.081080 2.131804 -0.098228
v 2.996054 2.147638 -0.035391
v 3.028532 2.141590 0.066282
v 3.133630 2.122020 0.066281
v 3.166106 2.115971 -0.035391
v 3.123051 2.345820 -0.042756
v 3.095366 2.350975 -0.022296
v 3.105941 2.349006 0.010810
v 3.140162 2.342633 0.010810
v 3.150737 2.340665 -0.022296
v 2.001657 1.516548 -0.849271
v 2.046448 1.922114 -0.596522
v 3.116192 2.279543 -0.011070
v 2.360080 1.863410 -0.938376
v 2.942127 2.228348 -0.506230
v 2.613798 2.289803 -0.148357
v 2.784085 2.303690 -0.334534
v 2.202707 1.930745 -0.779109
v 2.268191 2.166205 -0.391707
v 2.643892 2.095884 -0.801213
v 2.455346 2.178507 -0.611030
v 4.273383 1.187129 -0.125699
v 4.151031 1.623239 -0.367748
v 3.085346 2.316238 -0.016727
v 4.183145 1.619184 0.130814
v 3.558935 2.175137 0.200106
v 3.525316 2.179381 -0.321817
v 3.554030 2.222467 -0.062374
v 4.185174 1.657665 -0.120531
v 3.908150 1.942669 -0.395782
v 3.946620 1.937812 0.201444
v 3.949984 1.985792 -0.099749
v 3.558481 1.418325 1.169499
v 3.753487 1.778757 0.900725
v 3.102724 2.325745 -0.014703
v 3.316879 1.841442 1.116794
v 3.064910 2.284898 0.505147
v 3.521976 2.219275 0.278954
v 3.300976 2.295702 0.394620
v 3.544936 1.846309 1.017963
v 3.709519 2.040699 0.625411
v 3.186509 2.115789 0.884239
v 3.460201 2.123490 0.766325
v 3.307578 1.224184 -1.270215
v 3.115232 1.666852 -1.176988
v 3.114977 2.258204 -0.007586
v 3.532289 1.626982 -1.070577
v 3.436939 2.132399 -0.407691
v 3.000340 2.174137 -0.519089
v 3.226241 2.198946 -0.470363
v 3.332074 1.684362 -1.137614
v 3.044256 1.969863 -0.923598
v 3.543847 1.922103 -0.796129
v 3.304440 1.992771 -0.877147
v 1.848257 1.646827 0.715133
v 2.159859 2.018506 0.785710
v 3.137046 2.315914 -0.014067
v 1.957408 2.017331 0.412881
v 2.619806 2.333844 0.026313
v 2.831743 2.335073 0.416611
v 2.728994 2.380571 0.220183
v 2.054326 2.057859 0.602248
v 2.465959 2.238857 0.661618
v 2.223444 2.237448 0.215008
v 2.339319 2.288060 0.442001
v 0.353778 0.712830 0.072650
v 0.374712 0.684337 -0.036894
v 0.265100 0.833530 -0.036894
v 0.286034 0.805037 0.072650
v 0.319906 0.758933 -0.104596
v 0.889493 0.903932 0.092323
v 0.806032 1.007421 -0.005068
v 0.909195 0.879501 -0.005068
v 0.825735 0.982991 0.092323
v 0.857614 0.943461 -0.065259
v 2.955599 1.635641 0.039002
v 2.866192 1.661557 -0.028951
v 2.976705 1.629522 -0.028951
v 2.887298 1.655439 0.039002
v 2.921448 1.645540 -0.070948
v 1.888381 1.093970 0.065699
v 1.800464 1.181185 -0.025615
v 1.909136 1.073381 -0.025615
v 1.821218 1.160596 0.065699
v 1.854800 1.127283 -0.082051
vt 0.4427 0.9635
vt 0.4431 0.9775
vt 0.4419 0.9774
vt 0.4412 0.9635
vt 0.4474 0.9636
vt 0.4467 0.9777
vt 0.4455 0.9778
vt 0.4458 0.9636
vt 0.4443 0.9636
vt 0.4443 0.9777
vt 0.4489 0.9636
vt 0.4479 0.9775
vt 0.4480 0.8929
vt 0.4470 0.9221
vt 0.4440 0.9222
vt 0.4438 0.8931
vt 0.4462 0.9460
vt 0.4461 0.9494
vt 0.4442 0.9495
vt 0.4442 0.9460
vt 0.4563 0.8939
vt 0.4529 0.9227
vt 0.4499 0.9223
vt 0.4522 0.8932
vt 0.4502 0.9463
vt 0.4498 0.9497
vt 0.4480 0.9495
vt 0.4482 0.9461
vt 0.4410 0.9224
vt 0.4396 0.8934
vt 0.4424 0.9495
vt 0.4422 0.9461
vt 0.4381 0.9225
vt 0.4354 0.8936
vt 0.4405 0.9496
vt 0.4402 0.9462
vt 0.4428 0.9796
vt 0.4409 0.9795
vt 0.4470 0.9796
vt 0.4456 0.9796
vt 0.4443 0.9796
vt 0.4489 0.9796
vt 0.4465 0.9832
vt 0.4454 0.9830
vt 0.4444 0.9830
vt 0.4433 0.9832
vt 0.4475 0.9834
vt 0.4423 0.9834
vt 0.4563 0.8936
vt 0.4573 0.8929
vt 0.4583 0.8936
vt 0.4579 0.8948
vt 0.4567 0.8948
vt 0.6928 0.1449
vt 0.7035 0.1698
vt 0.6928 0.1689
vt 0.6928 0.2347
vt 0.6826 0.2105
vt 0.6928 0.2097
vt 0.6928 0.1904
vt 0.7055 0.1914
vt 0.6802 0.1914
vt 0.6821 0.1698
vt 0.7031 0.2105
vt 0.8120 0.1449
vt 0.8227 0.1698
vt 0.8120 0.1689
vt 0.8120 0.2347
vt 0.8017 0.2105
vt 0.8120 0.2097
vt 0.8120 0.1904
vt 0.8246 0.1914
vt 0.7993 0.1914
vt 0.8013 0.1698
vt 0.8222 0.2105
vt 0.9392 0.1449
vt 0.9499 0.1698
vt 0.9392 0.1689
vt 0.9392 0.2347
vt 0.9289 0.2105
vt 0.9392 0.2097
vt 0.9392 0.1904
vt 0.9518 0.1914
vt 0.9265 0.1914
vt 0.9285 0.1698
vt 0.9494 0.2105
vt 0.6928 0.1449
vt 0.7035 0.1698
vt 0.6928 0.1689
vt 0.6928 0.2347
vt 0.6826 0.2105
vt 0.6928 0.2097
vt 0.6928 0.1904
vt 0.7055 0.1914
vt 0.6802 0.1914
vt 0.6821 0.1698
vt 0.7031 0.2105
vt 0.8120 0.1449
vt 0.8227 0.1698
vt 0.8120 0.1689
vt 0.8120 0.2347
vt 0.8017 0.2105
vt 0.8120 0.2097
vt 0.8120 0.1904
vt 0.8246 0.1914
vt 0.7993 0.1914
vt 0.8013 0.1698
vt 0.8222 0.2105
vt 0.4417 0.9359
vt 0.4393 0.9361
vt 0.4490 0.9359
vt 0.4465 0.9358
vt 0.4441 0.9358
vt 0.4513 0.9362
vt 0.4421 0.9427
vt 0.4399 0.9428
vt 0.4485 0.9427
vt 0.4463 0.9426
vt 0.4442 0.9426
vt 0.4506 0.9430
vn 0.9074 -0.2866 0.3073
vn -0.8873 0.3456 0.3055
vn 0.5647 -0.1702 -0.8075
vn 0.0080 0.0325 0.9994
vn -0.5500 0.2224 -0.8050
vn -0.5670 0.2041 -0.7980
vn -0.2059 0.6197 -0.7573
vn 0.0105 0.0940 0.9955
vn 0.0157 0.0183 0.9997
vn 0.5893 -0.0571 -0.8059
vn 0.2075 -0.6185 -0.7579
vn -0.9090 0.2885 0.3007
vn -0.2897 0.9207 0.2617
vn 0.9434 -0.1285 0.3059
vn 0.3211 -0.9087 0.2668
vn 0.7787 -0.5605 0.2821
vn -0.9394 -0.1842 0.2891
vn 0.4746 -0.4510 -0.7559
vn -0.0744 -0.3996 0.9137
vn -0.6060 -0.2130 -0.7664
vn -0.8646 0.4030 0.3001
vn 0.6025 0.0874 -0.7933
vn 0.0451 0.2423 0.9691
vn -0.5275 0.3086 -0.7915
vn 0.9523 0.0476 0.3014
vn 0.1831 0.9831 0.0000
vn 0.1830 0.9831 -0.0000
vn 0.2505 0.9500 -0.1863
vn -0.6944 0.4343 -0.5738
vn -0.0064 0.9142 -0.4052
vn -0.2392 0.9595 -0.1489
vn 0.0000 0.9972 0.0744
vn -0.5637 0.3964 -0.7246
vn -0.4997 0.7751 -0.3866
vn -0.3036 0.7291 -0.6134
vn 0.2092 0.9630 0.1697
vn 0.9700 0.1836 -0.1595
vn 0.5171 0.8442 0.1413
vn 0.4891 0.8503 -0.1941
vn 0.1761 0.9677 -0.1802
vn 0.9823 0.1838 0.0361
vn 0.7903 0.5813 -0.1935
vn 0.8106 0.5773 0.0983
vn -0.0093 0.9969 0.0777
vn 0.5391 0.2962 0.7884
vn 0.1319 0.9201 0.3689
vn 0.4207 0.8786 0.2260
vn 0.2923 0.9536 -0.0716
vn 0.3709 0.3204 0.8717
vn 0.5224 0.6565 0.5441
vn 0.2714 0.6926 0.6683
vn 0.3133 0.9485 -0.0461
vn 0.1514 0.2662 -0.9519
vn 0.3753 0.8541 -0.3600
vn 0.0008 0.8924 -0.4513
vn -0.0771 0.9864 -0.1448
vn 0.3692 0.2391 -0.8981
vn 0.0811 0.6489 -0.7565
vn 0.4067 0.6120 -0.6783
vn 0.0147 0.9701 -0.2421
vn -0.7041 0.4933 0.5108
vn -0.2709 0.9595 -0.0771
vn -0.0783 0.9619 0.2621
vn 0.2173 0.9698 0.1109
vn -0.8128 0.4928 0.3105
vn -0.4156 0.8084 0.4170
vn -0.5802 0.8056 0.1202
vn 0.8163 -0.4985 0.2920
vn -0.7646 0.5749 0.2912
vn 0.5279 -0.3095 -0.7909
vn 0.0276 0.0433 0.9987
vn -0.4830 0.3782 -0.7897
vn 0.3122 -0.9039 0.2925
vn -0.3087 0.9052 0.2921
vn 0.2471 -0.5480 -0.7992
vn -0.0289 -0.0222 0.9993
vn -0.1498 0.6060 -0.7812
vn -0.3578 0.5425 -0.7601
vn 0.0125 0.0244 0.9996
vn 0.3893 -0.5014 -0.7727
vn -0.5323 0.8036 0.2664
vn 0.5871 -0.7611 0.2758
vn 0.1879 -0.9455 0.2659
vn -0.1618 0.9515 0.2617
vn 0.1085 -0.6482 -0.7537
vn 0.0229 0.0206 0.9995
vn -0.1286 0.6368 -0.7603
s off
f 98/1/1 10/2/1 9/3/1 96/4/1
f 99/5/2 8/6/2 7/7/2 97/8/2
f 100/9/3 6/10/3 10/2/3 98/1/3
f 96/11/4 9/12/4 8/6/4 99/5/4
f 97/8/5 7/7/5 6/10/5 100/9/5
f 2/13/6 15/14/6 20/15/6 1/16/6
f 102/17/7 16/18/7 19/19/7 105/20/7
f 4/21/8 11/22/8 18/23/8 3/24/8
f 101/25/9 12/26/9 17/27/9 104/28/9
f 1/16/10 20/15/10 14/29/10 5/30/10
f 105/20/11 19/19/11 13/31/11 103/32/11
f 3/24/12 18/23/12 15/14/12 2/13/12
f 104/28/13 17/27/13 16/18/13 102/17/13
f 5/30/14 14/29/14 11/33/14 4/34/14
f 103/32/15 13/31/15 12/35/15 101/36/15
f 10/2/16 25/37/16 24/38/16 9/3/16
f 8/6/17 23/39/17 22/40/17 7/7/17
f 6/10/18 21/41/18 25/37/18 10/2/18
f 9/12/19 24/42/19 23/39/19 8/6/19
f 7/7/20 22/40/20 21/41/20 6/10/20
f 23/39/21 28/43/21 27/44/21 22/40/21
f 21/41/22 26/45/22 30/46/22 25/37/22
f 24/42/23 29/47/23 28/43/23 23/39/23
f 22/40/24 27/44/24 26/45/24 21/41/24
f 25/37/25 30/46/25 29/48/25 24/38/25
f 28/49/26 29/50/26 30/51/26 26/52/26
f 27/53/27 28/49/27 26/52/27
f 33/54/28 35/55/28 37/56/28
f 31/57/29 32/58/29 38/59/29
f 41/60/30 37/56/30 35/55/30 40/61/30
f 39/62/31 36/63/31 37/56/31 41/60/31
f 36/63/32 33/54/32 37/56/32
f 34/64/33 31/57/33 38/59/33
f 32/58/34 39/62/34 41/60/34 38/59/34
f 38/59/35 41/60/35 40/61/35 34/64/35
f 44/65/36 46/66/36 48/67/36
f 42/68/37 43/69/37 49/70/37
f 52/71/38 48/67/38 46/66/38 51/72/38
f 50/73/39 47/74/39 48/67/39 52/71/39
f 47/74/40 44/65/40 48/67/40
f 45/75/41 42/68/41 49/70/41
f 43/69/42 50/73/42 52/71/42 49/70/42
f 49/70/43 52/71/43 51/72/43 45/75/43
f 55/76/44 57/77/44 59/78/44
f 53/79/45 54/80/45 60/81/45
f 63/82/46 59/78/46 57/77/46 62/83/46
f 61/84/47 58/85/47 59/78/47 63/82/47
f 58/85/48 55/76/48 59/78/48
f 56/86/49 53/79/49 60/81/49
f 54/80/50 61/84/50 63/82/50 60/81/50
f 60/81/51 63/82/51 62/83/51 56/86/51
f 66/87/52 68/88/52 70/89/52
f 64/90/53 65/91/53 71/92/53
f 74/93/54 70/89/54 68/88/54 73/94/54
f 72/95/55 69/96/55 70/89/55 74/93/55
f 69/96/56 66/87/56 70/89/56
f 67/97/57 64/90/57 71/92/57
f 65/91/58 72/95/58 74/93/58 71/92/58
f 71/92/59 74/93/59 73/94/59 67/97/59
f 77/98/60 79/99/60 81/100/60
f 75/101/61 76/102/61 82/103/61
f 85/104/62 81/100/62 79/99/62 84/105/62
f 83/106/63 80/107/63 81/100/63 85/104/63
f 80/107/64 77/98/64 81/100/64
f 78/108/65 75/101/65 82/103/65
f 76/102/66 83/106/66 85/104/66 82/103/66
f 82/103/67 85/104/67 84/105/67 78/108/67
f 14/29/68 87/109/68 86/110/68 11/33/68
f 18/23/69 89/111/69 88/112/69 15/14/69
f 20/15/70 90/113/70 87/109/70 14/29/70
f 11/22/71 86/114/71 89/111/71 18/23/71
f 15/14/72 88/112/72 90/113/72 20/15/72
f 87/109/73 93/115/73 91/116/73 86/110/73
f 89/111/74 94/117/74 92/118/74 88/112/74
f 90/113/75 95/119/75 93/115/75 87/109/75
f 86/114/76 91/120/76 94/117/76 89/111/76
f 88/112/77 92/118/77 95/119/77 90/113/77
f 16/18/78 97/8/78 100/9/78 19/19/78
f 12/26/79 96/11/79 99/5/79 17/27/79
f 19/19/80 100/9/80 98/1/80 13/31/80
f 17/27/81 99/5/81 97/8/81 16/18/81
f 13/31/82 98/1/82 96/4/82 12/35/82
f 93/115/83 103/32/83 101/36/83 91/116/83
f 94/117/84 104/28/84 102/17/84 92/118/84
f 95/119/85 105/20/85 103/32/85 93/115/85
f 91/120/86 101/25/86 104/28/86 94/117/86
f 92/118/87 102/17/87 105/20/87 95/119/87
