# Blender v2.78 (sub 0) OBJ File: 'Low_Poly_Trees_Pack.blend'
# www.blender.org
g Palm_Tree_Coconut_OneSided_s_06
v -0.791824 2.636897 -0.599330
v -1.061660 2.976321 -0.325056
v -0.510232 3.613562 0.429943
v -0.585896 3.086317 -0.564090
v -0.437611 3.548130 -0.093785
v -0.935669 3.432980 0.156449
v -0.700344 3.532784 0.028218
v -0.838661 3.065797 -0.454187
v -1.059246 3.247220 -0.052415
v -0.489329 3.378984 -0.338753
v -0.792884 3.356182 -0.207597
v -1.374159 2.476148 0.597160
v -1.315967 2.917618 0.834519
v -0.518282 3.644458 0.462052
v -1.379980 2.927232 0.350889
v -0.938767 3.524153 0.268331
v -0.869397 3.502395 0.773937
v -0.918700 3.557580 0.523788
v -1.372312 2.954933 0.595474
v -1.131648 3.274390 0.860292
v -1.208328 3.285907 0.280954
v -1.200400 3.320769 0.574084
v 0.726566 2.856576 0.636194
v 0.599311 3.321069 0.444681
v -0.513596 3.630085 0.438861
v 0.425075 3.213350 0.921806
v -0.169382 3.626386 0.864195
v 0.009127 3.729240 0.361180
v -0.097225 3.721180 0.619037
v 0.510175 3.306549 0.694549
v 0.339146 3.594924 0.376232
v 0.130429 3.465889 0.947778
v 0.232265 3.579563 0.676132
v 0.402892 2.859136 -0.511174
v 0.074506 3.237317 -0.542096
v -0.524306 3.618046 0.455654
v 0.415649 3.257609 -0.205372
v -0.026411 3.666629 0.288509
v -0.380184 3.621864 -0.065172
v -0.211326 3.689667 0.113129
v 0.249305 3.286700 -0.381387
v -0.179798 3.481074 -0.359582
v 0.228856 3.505383 0.043778
v 0.029811 3.542257 -0.167464
v -0.311142 3.510456 0.529091
v -0.367033 3.412571 0.483824
v -0.339537 3.523052 0.435400
v -0.349049 3.611643 0.494864
v -0.382425 3.555911 0.580038
v -0.393539 3.432879 0.573214
v -0.439483 3.453261 0.421619
v -0.428368 3.576293 0.428443
v -0.454874 3.596601 0.517833
v -0.482371 3.486120 0.566256
v -0.472859 3.397529 0.506793
v -0.510765 3.498716 0.472566
v 0.129627 0.000000 0.098700
v 0.133952 0.000000 -0.093941
v -0.047924 0.000000 -0.157585
v -0.164655 0.000000 -0.004277
v -0.054923 0.000000 0.154116
v -0.458926 3.439593 0.470813
v -0.458761 3.445714 0.422282
v -0.503772 3.436157 0.405688
v -0.531757 3.424132 0.443963
v -0.504040 3.426255 0.484213
v -0.205461 1.254786 0.129923
v -0.383611 2.370931 0.360727
v -0.336566 2.368494 0.428131
v -0.131710 1.252598 0.235934
v -0.005888 1.264059 0.070687
v -0.256860 2.381252 0.323451
v -0.334350 2.378816 0.296031
v -0.127698 1.261870 0.027795
v -0.258229 2.374873 0.405093
v -0.008368 1.258328 0.199324
v -0.452265 3.525439 0.506668
v -0.451933 3.537719 0.409282
v -0.542257 3.518544 0.375983
v -0.598412 3.494412 0.452790
v -0.542794 3.498673 0.533557
v -0.542915 3.711033 0.501148
v -0.542807 3.715031 0.469438
v -0.572217 3.708788 0.458596
v -0.590502 3.700931 0.483605
v -0.572392 3.702318 0.509903
v -0.589427 3.377961 0.556536
v -0.700962 3.425683 0.550459
v -0.614075 3.404969 0.464853
v -0.510863 3.422142 0.487813
v -0.533966 3.453468 0.587610
v -0.651452 3.455657 0.626326
v -0.691331 3.499357 0.477978
v -0.573844 3.497169 0.439262
v -0.524334 3.527142 0.515129
v -0.611222 3.547856 0.600735
v -0.714433 3.530684 0.577776
v -0.635869 3.574864 0.509052
v -0.387974 3.410875 0.267518
v -0.515527 3.434365 0.322609
v -0.448474 3.463324 0.202684
v -0.336225 3.495026 0.196948
v -0.333906 3.485659 0.313329
v -0.444720 3.448168 0.390991
v -0.542611 3.533033 0.286087
v -0.431797 3.570524 0.208425
v -0.360991 3.584327 0.276807
v -0.428043 3.555368 0.396731
v -0.540292 3.523666 0.402468
v -0.488543 3.607817 0.331898
v -0.329654 2.759758 1.692241
v -0.219441 3.141528 1.514820
v -0.515797 3.620336 0.427645
v -0.670796 2.994663 1.444942
v -0.793639 3.490082 0.856637
v -0.314218 3.621080 0.929053
v -0.565690 3.600189 0.894029
v -0.458065 3.103235 1.494497
v -0.233379 3.444577 1.259153
v -0.774055 3.268649 1.175446
v -0.519895 3.400522 1.235562
vt 0.8193 0.1381
vt 0.8311 0.1656
vt 0.8193 0.1646
vt 0.8193 0.2373
vt 0.8080 0.2105
vt 0.8193 0.2097
vt 0.8193 0.1884
vt 0.8333 0.1895
vt 0.8053 0.1895
vt 0.8075 0.1656
vt 0.8306 0.2105
vt 0.9509 0.1381
vt 0.9628 0.1656
vt 0.9509 0.1646
vt 0.9509 0.2373
vt 0.9396 0.2105
vt 0.9509 0.2097
vt 0.9509 0.1884
vt 0.9649 0.1895
vt 0.9369 0.1895
vt 0.9391 0.1656
vt 0.9622 0.2105
vt 0.9509 0.1381
vt 0.9628 0.1656
vt 0.9509 0.1646
vt 0.9509 0.2373
vt 0.9396 0.2105
vt 0.9509 0.2097
vt 0.9509 0.1884
vt 0.9649 0.1895
vt 0.9369 0.1895
vt 0.9391 0.1656
vt 0.9622 0.2105
vt 0.9509 0.1381
vt 0.9628 0.1656
vt 0.9509 0.1646
vt 0.9509 0.2373
vt 0.9396 0.2105
vt 0.9509 0.2097
vt 0.9509 0.1884
vt 0.9649 0.1895
vt 0.9369 0.1895
vt 0.9391 0.1656
vt 0.9622 0.2105
vt 0.9078 0.0834
vt 0.8997 0.0940
vt 0.8956 0.0784
vt 0.9159 0.0940
vt 0.9078 0.0733
vt 0.9201 0.0784
vt 0.8985 0.0329
vt 0.9181 0.0329
vt 0.9083 0.0434
vt 0.8857 0.0476
vt 0.9005 0.0476
vt 0.8997 0.0628
vt 0.9159 0.0628
vt 0.9310 0.0476
vt 0.9162 0.0476
vt 0.8985 0.0622
vt 0.9181 0.0622
vt 0.9083 0.0518
vt 0.4446 0.9515
vt 0.4453 0.9829
vt 0.4440 0.9827
vt 0.4424 0.9516
vt 0.4508 0.9515
vt 0.4494 0.9830
vt 0.4481 0.9832
vt 0.4487 0.9514
vt 0.4466 0.9515
vt 0.4467 0.9831
vt 0.4529 0.9517
vt 0.4508 0.9828
vt 0.4508 0.8881
vt 0.4497 0.9208
vt 0.4464 0.9209
vt 0.4461 0.8883
vt 0.4601 0.8892
vt 0.4563 0.9215
vt 0.4530 0.9210
vt 0.4555 0.8884
vt 0.4431 0.9211
vt 0.4414 0.8887
vt 0.4397 0.9213
vt 0.4368 0.8889
vt 0.4450 0.9852
vt 0.4429 0.9851
vt 0.4497 0.9852
vt 0.4482 0.9852
vt 0.4467 0.9852
vt 0.4519 0.9852
vt 0.4492 0.9892
vt 0.4480 0.9891
vt 0.4468 0.9890
vt 0.4456 0.9892
vt 0.4503 0.9895
vt 0.4444 0.9895
vt 0.4201 0.9626
vt 0.4248 0.9591
vt 0.4296 0.9626
vt 0.4278 0.9682
vt 0.4219 0.9682
vt 0.9078 0.0834
vt 0.8997 0.0940
vt 0.8956 0.0784
vt 0.9159 0.0940
vt 0.9078 0.0733
vt 0.9201 0.0784
vt 0.8985 0.0329
vt 0.9181 0.0329
vt 0.9083 0.0434
vt 0.8857 0.0476
vt 0.9005 0.0476
vt 0.8997 0.0628
vt 0.9159 0.0628
vt 0.9310 0.0476
vt 0.9162 0.0476
vt 0.8985 0.0622
vt 0.9181 0.0622
vt 0.9083 0.0518
vt 0.9698 0.0834
vt 0.9617 0.0940
vt 0.9576 0.0784
vt 0.9779 0.0940
vt 0.9698 0.0733
vt 0.9821 0.0784
vt 0.9605 0.0329
vt 0.9801 0.0329
vt 0.9703 0.0434
vt 0.9477 0.0476
vt 0.9625 0.0476
vt 0.9617 0.0628
vt 0.9779 0.0628
vt 0.9930 0.0476
vt 0.9782 0.0476
vt 0.9605 0.0622
vt 0.9801 0.0622
vt 0.9703 0.0518
vt 0.9509 0.1381
vt 0.9628 0.1656
vt 0.9509 0.1646
vt 0.9509 0.2373
vt 0.9396 0.2105
vt 0.9509 0.2097
vt 0.9509 0.1884
vt 0.9649 0.1895
vt 0.9369 0.1895
vt 0.9391 0.1656
vt 0.9622 0.2105
vn -0.1223 0.9826 -0.1397
vn -0.5521 0.2125 -0.8062
vn -0.2802 0.8172 -0.5036
vn -0.5268 0.7661 -0.3682
vn -0.3906 0.9206 -0.0003
vn -0.4029 0.2536 -0.8794
vn -0.5718 0.5830 -0.5772
vn -0.3470 0.6398 -0.6858
vn -0.2268 0.9678 -0.1088
vn -0.9732 0.0046 0.2301
vn -0.6556 0.7527 -0.0602
vn -0.5843 0.7641 0.2733
vn -0.1695 0.9548 0.2441
vn -0.9995 0.0040 0.0309
vn -0.8635 0.4240 0.2732
vn -0.9044 0.4259 -0.0233
vn -0.3128 0.9132 0.2611
vn 0.8665 0.3738 0.3308
vn 0.3056 0.8429 0.4429
vn 0.3633 0.9147 0.1773
vn -0.1932 0.9799 -0.0490
vn 0.8267 0.3394 0.4488
vn 0.6633 0.6962 0.2743
vn 0.5938 0.6399 0.4878
vn -0.0389 0.9846 0.1703
vn 0.5485 0.4170 -0.7247
vn 0.3501 0.9138 -0.2061
vn 0.0781 0.9140 -0.3981
vn -0.3011 0.9505 -0.0763
vn 0.6917 0.4256 -0.5834
vn 0.3125 0.7546 -0.5770
vn 0.5283 0.7651 -0.3681
vn 0.8796 -0.3568 -0.3146
vn 0.7346 -0.5813 0.3499
vn 0.9320 0.2657 -0.2467
vn 0.6911 0.4502 0.5654
vn 0.5380 -0.0951 0.8376
vn 0.1929 -0.9429 0.2714
vn 0.4227 -0.4500 -0.7867
vn 0.3838 0.5427 -0.7471
vn -0.0001 0.8368 0.5475
vn -0.1051 -0.0456 0.9934
vn 0.0001 -0.8368 -0.5475
vn 0.1051 0.0456 -0.9934
vn -0.1929 0.9429 -0.2714
vn -0.4227 0.4500 0.7867
vn -0.3838 -0.5427 0.7471
vn -0.6911 -0.4502 -0.5654
vn -0.5380 0.0951 -0.8376
vn -0.7346 0.5813 -0.3499
vn -0.8796 0.3568 0.3146
vn -0.9320 -0.2657 0.2467
vn -0.8112 -0.1584 0.5629
vn 0.3215 0.1482 -0.9352
vn 0.2839 -0.0058 0.9588
vn -0.7924 -0.0638 -0.6067
vn 0.9826 0.1835 0.0292
vn 0.9940 0.1071 0.0230
vn 0.9766 0.2128 0.0301
vn -0.7955 0.0387 -0.6047
vn -0.7955 -0.0017 -0.6059
vn 0.2868 -0.0450 0.9569
vn 0.2880 -0.1109 0.9512
vn 0.3259 0.1575 -0.9322
vn 0.3141 0.2762 -0.9084
vn -0.8188 -0.0873 0.5675
vn -0.7993 -0.2414 0.5503
vn -0.6157 -0.6414 0.4578
vn 0.3708 -0.1569 -0.9154
vn 0.3652 -0.3828 0.8486
vn -0.6132 -0.5053 -0.6071
vn 0.9972 -0.0749 -0.0060
vn 0.2348 0.4181 -0.8776
vn 0.2416 0.1465 0.9592
vn -0.8188 0.1153 -0.5624
vn 0.8963 0.4395 0.0585
vn -0.8211 -0.0533 0.5683
vn -0.2484 0.9611 0.1204
vn -0.2484 0.9612 0.1203
vn -0.3803 -0.9099 -0.1658
vn -0.3568 -0.7656 0.5353
vn 0.2260 -0.9163 -0.3307
vn 0.6758 -0.6440 0.3586
vn 0.2578 -0.5236 0.8120
vn -0.7614 -0.2530 0.5968
vn -0.6733 -0.4719 -0.5692
vn 0.2594 -0.3617 -0.8955
vn 0.9764 0.0724 0.2033
vn 0.3126 0.1249 0.9416
vn -0.9764 -0.0724 -0.2033
vn -0.3126 -0.1249 -0.9416
vn 0.7614 0.2530 -0.5968
vn 0.6733 0.4719 0.5692
vn -0.2594 0.3617 0.8955
vn -0.6758 0.6440 -0.3586
vn -0.2578 0.5236 -0.8120
vn 0.3568 0.7656 -0.5353
vn 0.3803 0.9099 0.1658
vn -0.2260 0.9163 0.3307
vn -0.3272 -0.8604 -0.3907
vn -0.0645 -0.9631 0.2612
vn 0.1588 -0.6899 -0.7063
vn 0.8264 -0.5598 -0.0615
vn 0.5580 -0.6878 0.4642
vn -0.4504 -0.6613 0.5998
vn -0.7557 -0.3995 -0.5190
vn -0.0690 0.0640 -0.9956
vn 0.9641 0.2654 0.0022
vn 0.5990 -0.1354 0.7892
vn -0.9641 -0.2654 -0.0022
vn -0.5990 0.1354 -0.7892
vn 0.4504 0.6613 -0.5998
vn 0.7557 0.3995 0.5190
vn 0.0690 -0.0640 0.9956
vn -0.8264 0.5598 0.0615
vn -0.5580 0.6878 -0.4642
vn 0.0645 0.9631 -0.2612
vn 0.3272 0.8604 0.3907
vn -0.1588 0.6899 0.7063
vn -0.4339 0.9009 -0.0075
vn -0.1474 0.4515 0.8800
vn -0.4663 0.7242 0.5080
vn -0.1575 0.8486 0.5050
vn -0.0874 0.9956 0.0337
vn -0.3788 0.3513 0.8562
vn -0.1623 0.6303 0.7592
vn -0.4445 0.5357 0.7180
s off
f 3/1/1 5/2/1 7/3/1
f 1/4/2 2/5/2 8/6/2
f 11/7/3 7/3/3 5/2/3 10/8/3
f 9/9/4 6/10/4 7/3/4 11/7/4
f 6/10/5 3/1/5 7/3/5
f 4/11/6 1/4/6 8/6/6
f 2/5/7 9/9/7 11/7/7 8/6/7
f 8/6/8 11/7/8 10/8/8 4/11/8
f 14/12/9 16/13/9 18/14/9
f 12/15/10 13/16/10 19/17/10
f 22/18/11 18/14/11 16/13/11 21/19/11
f 20/20/12 17/21/12 18/14/12 22/18/12
f 17/21/13 14/12/13 18/14/13
f 15/22/14 12/15/14 19/17/14
f 13/16/15 20/20/15 22/18/15 19/17/15
f 19/17/16 22/18/16 21/19/16 15/22/16
f 25/23/17 27/24/17 29/25/17
f 23/26/18 24/27/18 30/28/18
f 33/29/19 29/25/19 27/24/19 32/30/19
f 31/31/20 28/32/20 29/25/20 33/29/20
f 28/32/21 25/23/21 29/25/21
f 26/33/22 23/26/22 30/28/22
f 24/27/23 31/31/23 33/29/23 30/28/23
f 30/28/24 33/29/24 32/30/24 26/33/24
f 36/34/25 38/35/25 40/36/25
f 34/37/26 35/38/26 41/39/26
f 44/40/27 40/36/27 38/35/27 43/41/27
f 42/42/28 39/43/28 40/36/28 44/40/28
f 39/43/29 36/34/29 40/36/29
f 37/44/30 34/37/30 41/39/30
f 35/38/31 42/42/31 44/40/31 41/39/31
f 41/39/32 44/40/32 43/41/32 37/44/32
f 45/45/33 46/46/33 47/47/33
f 46/46/34 45/45/34 50/48/34
f 45/45/35 47/47/35 48/49/35
f 45/45/36 48/49/36 49/50/36
f 45/45/37 49/50/37 50/48/37
f 46/51/38 50/52/38 55/53/38
f 47/54/39 46/51/39 51/55/39
f 48/49/40 47/47/40 52/56/40
f 49/50/41 48/49/41 53/57/41
f 50/52/42 49/58/42 54/59/42
f 46/51/43 55/53/43 51/55/43
f 47/54/44 51/55/44 52/60/44
f 48/49/45 52/56/45 53/57/45
f 49/58/46 53/61/46 54/59/46
f 50/52/47 54/59/47 55/53/47
f 51/55/48 55/53/48 56/62/48
f 52/60/49 51/55/49 56/62/49
f 53/61/50 52/60/50 56/62/50
f 54/59/51 53/61/51 56/62/51
f 55/53/52 54/59/52 56/62/52
f 69/63/53 66/64/53 65/65/53 68/66/53
f 73/67/54 64/68/54 63/69/54 72/70/54
f 75/71/55 62/72/55 66/64/55 69/63/55
f 68/73/56 65/74/56 64/68/56 73/67/56
f 72/70/57 63/69/57 62/72/57 75/71/57
f 58/75/58 71/76/58 76/77/58 57/78/58
f 71/76/59 72/70/59 75/71/59 76/77/59
f 60/79/60 67/80/60 74/81/60 59/82/60
f 67/80/61 68/73/61 73/67/61 74/81/61
f 57/78/62 76/77/62 70/83/62 61/84/62
f 76/77/63 75/71/63 69/63/63 70/83/63
f 59/82/64 74/81/64 71/76/64 58/75/64
f 74/81/65 73/67/65 72/70/65 71/76/65
f 61/84/66 70/83/66 67/85/66 60/86/66
f 70/83/67 69/63/67 68/66/67 67/85/67
f 66/64/68 81/87/68 80/88/68 65/65/68
f 64/68/69 79/89/69 78/90/69 63/69/69
f 62/72/70 77/91/70 81/87/70 66/64/70
f 65/74/71 80/92/71 79/89/71 64/68/71
f 63/69/72 78/90/72 77/91/72 62/72/72
f 79/89/73 84/93/73 83/94/73 78/90/73
f 77/91/74 82/95/74 86/96/74 81/87/74
f 80/92/75 85/97/75 84/93/75 79/89/75
f 78/90/76 83/94/76 82/95/76 77/91/76
f 81/87/77 86/96/77 85/98/77 80/88/77
f 84/99/78 85/100/78 86/101/78 82/102/78
f 83/103/79 84/99/79 82/102/79
f 87/104/80 88/105/80 89/106/80
f 88/105/81 87/104/81 92/107/81
f 87/104/82 89/106/82 90/108/82
f 87/104/83 90/108/83 91/109/83
f 87/104/84 91/109/84 92/107/84
f 88/110/85 92/111/85 97/112/85
f 89/113/86 88/110/86 93/114/86
f 90/108/87 89/106/87 94/115/87
f 91/109/88 90/108/88 95/116/88
f 92/111/89 91/117/89 96/118/89
f 88/110/90 97/112/90 93/114/90
f 89/113/91 93/114/91 94/119/91
f 90/108/92 94/115/92 95/116/92
f 91/117/93 95/120/93 96/118/93
f 92/111/94 96/118/94 97/112/94
f 93/114/95 97/112/95 98/121/95
f 94/119/96 93/114/96 98/121/96
f 95/120/97 94/119/97 98/121/97
f 96/118/98 95/120/98 98/121/98
f 97/112/99 96/118/99 98/121/99
f 99/122/100 100/123/100 101/124/100
f 100/123/101 99/122/101 104/125/101
f 99/122/102 101/124/102 102/126/102
f 99/122/103 102/126/103 103/127/103
f 99/122/104 103/127/104 104/125/104
f 100/128/105 104/129/105 109/130/105
f 101/131/106 100/128/106 105/132/106
f 102/126/107 101/124/107 106/133/107
f 103/127/108 102/126/108 107/134/108
f 104/129/109 103/135/109 108/136/109
f 100/128/110 109/130/110 105/132/110
f 101/131/111 105/132/111 106/137/111
f 102/126/112 106/133/112 107/134/112
f 103/135/113 107/138/113 108/136/113
f 104/129/114 108/136/114 109/130/114
f 105/132/115 109/130/115 110/139/115
f 106/137/116 105/132/116 110/139/116
f 107/138/117 106/137/117 110/139/117
f 108/136/118 107/138/118 110/139/118
f 109/130/119 108/136/119 110/139/119
f 113/140/120 115/141/120 117/142/120
f 111/143/121 112/144/121 118/145/121
f 121/146/122 117/142/122 115/141/122 120/147/122
f 119/148/123 116/149/123 117/142/123 121/146/123
f 116/149/124 113/140/124 117/142/124
f 114/150/125 111/143/125 118/145/125
f 112/144/126 119/148/126 121/146/126 118/145/126
f 118/145/127 121/146/127 120/147/127 114/150/127
