# Blender v2.78 (sub 0) OBJ File: 'Low_Poly_Trees_Pack.blend'
# www.blender.org
g Birch_Tree_l_04
v -0.052048 0.000000 -0.360000
v -0.544338 0.000000 -0.111246
v -0.356300 0.000000 0.291246
v 0.252204 0.000000 0.291246
v 0.440242 0.000000 -0.111246
v 0.530828 0.254848 -0.215039
v 0.317564 0.302968 -0.077025
v 0.389339 0.292336 0.146285
v 0.646962 0.237645 0.146285
v 0.718737 0.227012 -0.077025
v 0.936930 0.681404 -0.180649
v 0.785211 0.706613 -0.068907
v 0.843162 0.696984 0.111895
v 1.030698 0.665823 0.111895
v 1.088649 0.656194 -0.068907
v 1.432274 1.915544 -0.148615
v 1.313341 1.932307 -0.061345
v 1.358769 1.925904 0.079862
v 1.505780 1.905184 0.079862
v 1.551208 1.898781 -0.061345
v 1.798344 3.430360 -0.136280
v 1.691849 3.442169 -0.058433
v 1.732526 3.437658 0.067527
v 1.864162 3.423062 0.067527
v 1.904839 3.418552 -0.058433
v 1.950244 5.225539 -0.120594
v 1.863666 5.261693 -0.054644
v 1.898083 5.263799 0.051477
v 2.009456 5.270615 0.051477
v 2.043873 5.272721 -0.054644
v 1.727696 6.298667 -0.089564
v 1.676012 6.261885 -0.047637
v 1.691900 6.296475 0.020812
v 1.763492 6.300858 0.020812
v 1.785616 6.302211 -0.047404
v 1.764112 8.135432 -0.068003
v 1.726413 8.133125 -0.040562
v 1.740813 8.134006 0.003837
v 1.787410 8.136858 0.003837
v 1.801809 8.137739 -0.040562
v 1.674407 6.424806 -0.047068
v 1.387499 6.474772 -0.176768
v 1.346459 6.446650 -0.142800
v 1.362488 6.486424 -0.093283
v 1.411997 6.527822 -0.131878
v 1.039310 7.304881 -0.211634
v 0.996355 7.282454 -0.179393
v 1.018508 7.315098 -0.129906
v 1.071511 7.349133 -0.166105
v 0.355195 8.443515 -0.280479
v 0.323293 8.437651 -0.258825
v 0.346198 8.446987 -0.224378
v 0.387279 8.457754 -0.248176
v 1.926436 5.391918 -0.116522
v 1.841582 5.271749 -0.467519
v 1.769040 5.334313 -0.454069
v 1.908234 5.342833 -0.454069
v 1.818740 5.434374 -0.455611
v 1.938173 5.726748 -0.893952
v 1.877406 5.730341 -0.860158
v 1.972739 5.752274 -0.837683
v 1.894253 5.772857 -0.794006
v 2.058244 6.496075 -0.961484
v 2.006494 6.485547 -0.936613
v 2.083708 6.503507 -0.908382
v 2.015566 6.502506 -0.871990
v 2.320622 7.676921 -1.339175
v 2.276636 7.667973 -1.318036
v 2.342266 7.683238 -1.294041
v 2.284347 7.682388 -1.263108
v 0.849816 8.173340 -1.584867
v 0.591800 7.715331 -1.293752
v -0.131873 8.470903 -1.665906
v 0.218168 9.353367 -1.867237
v -0.282037 9.826340 -1.602881
v 0.166028 10.423910 -1.410878
v 0.804134 9.663766 -1.622932
v 1.157751 8.789345 -1.441411
v -0.277115 10.466439 -1.063908
v -0.650919 9.920444 -0.878957
v -0.069608 10.539433 -0.446920
v 0.138141 10.696776 -0.781216
v 0.822924 9.963433 -0.248110
v 0.681930 10.370719 -0.884865
v 0.166394 10.027275 -0.014192
v -0.036411 9.099326 0.317301
v -0.469085 8.459689 -0.152293
v 0.642133 7.802204 0.067551
v 0.853626 9.045531 0.232494
v -0.104885 7.701013 -0.662637
v 0.471863 7.499586 -0.576007
v 1.189015 7.872994 -0.777107
v 1.316820 8.453450 -0.414718
v 1.278529 9.202721 -0.943330
v -0.544081 8.443040 -0.908692
v -0.527905 9.474309 -0.152725
v -0.579024 9.092172 -1.326936
v 1.987877 8.779099 -1.302860
v 1.615363 8.193650 -0.977231
v 0.839918 9.368399 -1.393539
v 1.384291 10.500716 -1.609464
v 0.848245 11.212694 -1.300559
v 1.476650 11.918505 -1.070160
v 2.140222 10.791592 -1.323294
v 2.448577 9.539144 -1.128137
v 0.950651 12.036372 -0.673206
v 0.424285 11.361413 -0.470846
v 1.220133 12.055378 0.035163
v 1.489237 12.249320 -0.344753
v 2.222813 11.101288 0.256158
v 2.100669 11.716016 -0.467178
v 1.439980 11.295205 0.523411
v 1.069206 10.065697 0.888089
v 0.449925 9.318511 0.339120
v 1.706248 8.212543 0.583494
v 2.138083 9.831724 0.792382
v 0.778201 8.264386 -0.256352
v 1.449430 7.879909 -0.158801
v 2.367147 8.259641 -0.381477
v 2.607678 8.991592 0.042997
v 2.659043 10.039247 -0.550868
v 0.346908 9.359313 -0.527712
v 0.520408 10.692089 0.354326
v 0.389786 10.264707 -0.996718
v 2.606065 7.585403 -2.387686
v 2.312258 7.231950 -2.132998
v 1.878718 8.075785 -2.438854
v 2.336013 8.785447 -2.628616
v 2.039346 9.317651 -2.407197
v 2.526391 9.745578 -2.268330
v 2.875690 8.925164 -2.444370
v 2.983398 8.062400 -2.286326
v 2.188814 9.879864 -1.972172
v 1.781413 9.475832 -1.801364
v 2.385697 9.889176 -1.466957
v 2.576166 9.986625 -1.751050
v 2.987185 9.169284 -1.311451
v 2.942091 9.573268 -1.842894
v 2.480161 9.372801 -1.104691
v 2.134755 8.587215 -0.809510
v 1.644372 8.122061 -1.177862
v 2.404830 7.279337 -1.008221
v 2.834722 8.337345 -0.897991
v 1.766966 7.369521 -1.595057
v 2.189788 7.057164 -1.532215
v 2.836338 7.229208 -1.720772
v 3.067526 7.712619 -1.433591
v 3.177941 8.396598 -1.883688
v 1.561768 8.134653 -1.802377
v 1.806350 9.040091 -1.194749
v 1.657010 8.727080 -2.159387
vt 0.2045 0.1137
vt 0.1894 0.1521
vt 0.1629 0.1405
vt 0.1659 0.0821
vt 0.1442 0.0225
vt 0.1379 0.1169
vt 0.1086 0.1120
vt 0.1036 0.0068
vt 0.0738 0.0540
vt 0.0820 0.1315
vt 0.0605 0.1516
vt 0.0523 0.1108
vt 0.0895 0.2069
vt 0.0685 0.2164
vt 0.1575 0.2114
vt 0.1362 0.2003
vt 0.1119 0.1975
vt 0.1795 0.2165
vt 0.1670 0.3701
vt 0.1496 0.3684
vt 0.1322 0.3649
vt 0.1150 0.3641
vt 0.0977 0.3669
vt 0.0806 0.3699
vt 0.0848 0.2194
vt 0.0882 0.4035
vt 0.0674 0.4044
vt 0.0618 0.2225
vt 0.1546 0.2209
vt 0.1511 0.4038
vt 0.1301 0.4029
vt 0.1311 0.2175
vt 0.1080 0.2166
vt 0.1092 0.4027
vt 0.1780 0.2226
vt 0.1719 0.4044
vt 0.1768 0.4328
vt 0.1678 0.6495
vt 0.1504 0.6486
vt 0.1560 0.4322
vt 0.1350 0.4312
vt 0.1328 0.6465
vt 0.1156 0.6459
vt 0.1141 0.4310
vt 0.0931 0.4318
vt 0.0985 0.6428
vt 0.0813 0.6495
vt 0.0723 0.4328
vt 0.0947 0.7034
vt 0.0882 0.8131
vt 0.0804 0.8132
vt 0.0826 0.7047
vt 0.0687 0.7055
vt 0.0727 0.8084
vt 0.0654 0.8136
vt 0.0562 0.7191
vt 0.1072 0.7037
vt 0.0963 0.8133
vt 0.0944 0.9922
vt 0.0892 0.9924
vt 0.1688 0.7535
vt 0.1800 0.7620
vt 0.1802 0.7968
vt 0.1711 0.7967
vt 0.0575 0.8140
vt 0.0734 0.9929
vt 0.0683 0.9928
vt 0.0842 0.9929
vt 0.0734 0.8273
vt 0.0787 0.9932
vt 0.1612 0.7555
vt 0.1638 0.7954
vt 0.1922 0.7530
vt 0.1999 0.7556
vt 0.1954 0.7963
vt 0.1886 0.7955
vt 0.1823 0.9026
vt 0.1752 0.9046
vt 0.1890 0.9026
vt 0.1684 0.9036
vt 0.1618 0.9017
vt 0.0141 0.6595
vt 0.0209 0.6605
vt 0.0174 0.8019
vt 0.0121 0.8019
vt 0.0075 0.6576
vt 0.0076 0.8015
vt 0.0280 0.6584
vt 0.0226 0.8014
vt 0.0347 0.6585
vt 0.0267 0.8020
vt 0.0425 0.7059
vt 0.1504 0.6365
vt 0.1628 0.6321
vt 0.1636 0.6762
vt 0.1528 0.6750
vt 0.1788 0.6402
vt 0.1911 0.6302
vt 0.1909 0.6765
vt 0.1752 0.6823
vt 0.1995 0.6379
vt 0.2020 0.6745
vt 0.1863 0.7497
vt 0.1754 0.7477
vt 0.1669 0.7463
vt 0.1594 0.7491
vt 0.1939 0.7496
vt 0.1761 0.8314
vt 0.1697 0.8310
vt 0.1897 0.8336
vt 0.1835 0.8336
vt 0.1640 0.8338
vt 0.1818 0.9693
vt 0.1750 0.9674
vt 0.1690 0.9668
vt 0.1642 0.9690
vt 0.1871 0.9691
vt 0.3528 0.0645
vt 0.3537 0.0728
vt 0.3395 0.0709
vt 0.3402 0.0602
vt 0.3312 0.0615
vt 0.3346 0.0499
vt 0.3468 0.0515
vt 0.3551 0.0548
vt 0.3202 0.0533
vt 0.3156 0.0684
vt 0.2839 0.0342
vt 0.2988 0.0409
vt 0.2801 0.0519
vt 0.2675 0.0477
vt 0.2746 0.0696
vt 0.2600 0.0677
vt 0.3259 0.0342
vt 0.3452 0.0342
vt 0.2833 0.0612
vt 0.2920 0.0639
vt 0.3038 0.0621
vt 0.2971 0.0789
vt 0.2836 0.0726
vt 0.3156 0.0716
vt 0.3615 0.0857
vt 0.3462 0.0895
vt 0.3689 0.0655
vt 0.2886 0.0965
vt 0.2813 0.0859
vt 0.2669 0.0862
vt 0.3606 0.0441
vt 0.3156 0.0555
vt 0.2959 0.0555
vt 0.3295 0.0724
vt 0.3317 0.0839
vt 0.3094 0.0880
vt 0.4778 0.0645
vt 0.4787 0.0728
vt 0.4645 0.0709
vt 0.4652 0.0602
vt 0.4562 0.0615
vt 0.4596 0.0499
vt 0.4718 0.0515
vt 0.4801 0.0548
vt 0.4452 0.0533
vt 0.4406 0.0684
vt 0.4089 0.0342
vt 0.4238 0.0409
vt 0.4051 0.0519
vt 0.3925 0.0477
vt 0.3996 0.0696
vt 0.3850 0.0677
vt 0.4509 0.0342
vt 0.4702 0.0342
vt 0.4083 0.0612
vt 0.4170 0.0639
vt 0.4288 0.0621
vt 0.4221 0.0789
vt 0.4086 0.0726
vt 0.4406 0.0716
vt 0.4865 0.0857
vt 0.4712 0.0895
vt 0.4939 0.0655
vt 0.4136 0.0965
vt 0.4063 0.0859
vt 0.3919 0.0862
vt 0.4856 0.0441
vt 0.4406 0.0555
vt 0.4209 0.0555
vt 0.4545 0.0724
vt 0.4567 0.0839
vt 0.4344 0.0880
vt 0.6028 0.0645
vt 0.6037 0.0728
vt 0.5895 0.0709
vt 0.5902 0.0602
vt 0.5812 0.0615
vt 0.5846 0.0499
vt 0.5968 0.0515
vt 0.6051 0.0548
vt 0.5702 0.0533
vt 0.5656 0.0684
vt 0.5339 0.0342
vt 0.5488 0.0409
vt 0.5301 0.0519
vt 0.5175 0.0477
vt 0.5246 0.0696
vt 0.5100 0.0677
vt 0.5759 0.0342
vt 0.5952 0.0342
vt 0.5333 0.0612
vt 0.5420 0.0639
vt 0.5538 0.0621
vt 0.5471 0.0789
vt 0.5336 0.0726
vt 0.5656 0.0716
vt 0.6115 0.0857
vt 0.5962 0.0895
vt 0.6189 0.0655
vt 0.5386 0.0965
vt 0.5313 0.0859
vt 0.5169 0.0862
vt 0.6106 0.0441
vt 0.5656 0.0555
vt 0.5459 0.0555
vt 0.5795 0.0724
vt 0.5817 0.0839
vt 0.5594 0.0880
vn 0.5774 -0.7763 0.2529
vn -0.3337 0.9299 0.1544
vn 0.4227 -0.4667 -0.7769
vn 0.0274 0.4337 0.9006
vn -0.2429 0.8037 -0.5432
vn 0.4969 -0.4127 -0.7634
vn 0.0133 0.0690 0.9975
vn -0.4248 0.4862 -0.7636
vn 0.7282 -0.6319 0.2654
vn -0.6361 0.7330 0.2410
vn 0.8924 -0.3342 0.3032
vn -0.8767 0.3758 0.3002
vn 0.5593 -0.2035 -0.8036
vn 0.0038 0.0244 0.9997
vn -0.5502 0.2418 -0.7993
vn 0.5748 -0.1323 -0.8076
vn 0.0010 0.0079 1.0000
vn -0.5726 0.1450 -0.8069
vn 0.9267 -0.2163 0.3075
vn -0.9233 0.2308 0.3070
vn 0.9488 -0.0719 0.3077
vn -0.9474 0.0887 0.3075
vn 0.5879 -0.0426 -0.8078
vn 0.0003 0.0087 1.0000
vn -0.5872 0.0569 -0.8074
vn -0.0018 0.0293 0.9996
vn -0.5812 -0.1034 -0.8072
vn 0.9244 0.2298 0.3044
vn -0.9351 -0.1776 0.3068
vn 0.9512 -0.0095 0.3083
vn -0.0198 0.5340 0.8453
vn 0.5886 -0.0022 -0.8084
vn -0.0006 0.0093 1.0000
vn -0.5910 0.0211 -0.8064
vn -0.5381 -0.6397 0.5489
vn -0.1500 -0.6534 -0.7420
vn -0.9528 0.0280 0.3024
vn 0.4317 0.4505 -0.7815
vn 0.6742 0.2521 -0.6941
vn -0.5040 -0.2467 -0.8277
vn 0.4592 0.2274 0.8587
vn -0.7911 -0.3066 0.5293
vn 0.4014 0.3109 0.8615
vn -0.7219 -0.3807 0.5779
vn 0.6008 0.3165 -0.7341
vn -0.4666 -0.3292 -0.8209
vn 0.5758 0.1501 -0.8037
vn -0.5245 -0.8514 0.0073
vn 0.7271 0.6727 -0.1370
vn -0.8218 0.4841 0.3006
vn 0.6602 -0.6786 -0.3219
vn 0.5247 0.5383 0.6594
vn -0.5059 -0.5379 -0.6744
vn -0.9199 0.3679 0.1357
vn 0.7619 -0.5128 -0.3957
vn -0.9777 0.1767 0.1134
vn 0.8844 -0.1738 -0.4331
vn 0.4805 0.0127 0.8769
vn -0.4619 -0.0083 -0.8869
vn 0.4611 0.1828 0.8683
vn -0.3909 -0.2005 -0.8983
vn -0.9671 0.2441 0.0717
vn 0.8726 -0.3137 -0.3745
vn -0.0810 -0.5018 -0.8612
vn -0.1203 0.3843 -0.9153
vn -0.4759 -0.0118 -0.8794
vn 0.1684 0.3935 -0.9038
vn 0.4379 -0.0095 -0.8990
vn -0.4719 0.5700 -0.6726
vn -0.7983 0.3915 -0.4577
vn -0.7786 0.5978 0.1911
vn 0.5285 0.7634 0.3713
vn 0.4345 0.8333 -0.3419
vn -0.5381 0.3854 0.7496
vn -0.3833 -0.3640 0.8489
vn 0.0851 -0.1453 0.9857
vn 0.3386 0.4453 0.8289
vn 0.3009 0.6926 0.6556
vn -0.4936 -0.6360 0.5932
vn -0.2696 -0.9089 -0.3182
vn 0.5912 -0.6427 -0.4872
vn 0.7649 -0.4538 0.4572
vn 0.9758 -0.0906 -0.1991
vn 0.8469 0.4470 -0.2879
vn 0.8802 0.2429 0.4077
vn -0.8703 -0.4830 0.0969
vn -0.9895 -0.0573 0.1324
vn -0.6335 -0.0342 -0.7730
vn -0.8206 -0.3401 -0.4592
vn -0.7180 -0.5614 -0.4115
vn 0.0116 -0.2268 -0.9739
vn 0.3900 -0.0116 -0.9207
vn -0.2245 0.8905 -0.3958
vn -0.5223 0.8494 0.0752
vn -0.7898 0.4538 0.4126
vn 0.3527 0.7429 0.5689
vn 0.5841 0.6323 -0.5089
vn -0.4461 0.4115 0.7948
vn -0.7066 -0.0407 0.7064
vn 0.1088 0.3132 0.9434
vn -0.3530 -0.8073 0.4730
vn -0.4662 -0.7079 -0.5307
vn 0.4079 -0.8909 -0.1996
vn 0.8311 -0.3076 -0.4634
vn 0.5019 -0.8262 0.2557
vn 0.6943 -0.2094 0.6885
vn 0.9823 -0.0869 -0.1661
vn 0.8657 0.2615 -0.4269
vn 0.8887 0.4494 0.0907
vn 0.9135 0.2647 0.3090
vn -0.9922 -0.0738 0.1000
vn -0.9971 -0.0715 -0.0277
vn -0.8676 0.1762 -0.4650
vn -0.1402 -0.4117 -0.9005
vn -0.0609 0.3583 -0.9316
vn -0.4512 0.0470 -0.8912
vn 0.2183 0.3345 -0.9168
vn 0.4119 -0.0404 -0.9103
vn -0.4002 0.5862 -0.7044
vn -0.7592 0.4515 -0.4688
vn -0.7229 0.6410 0.2578
vn 0.6405 0.6352 0.4317
vn 0.5759 0.7400 -0.3475
vn -0.4676 0.3780 0.7991
vn -0.4192 -0.2857 0.8618
vn 0.0572 -0.1427 0.9881
vn 0.3780 0.3387 0.8616
vn 0.3883 0.5749 0.7202
vn -0.5854 -0.5293 0.6142
vn -0.4118 -0.8199 -0.3978
vn 0.5098 -0.6425 -0.5721
vn 0.7215 -0.5092 0.4693
vn 0.9559 -0.1790 -0.2330
vn 0.9010 0.3149 -0.2984
vn 0.8963 0.1204 0.4267
vn -0.9340 -0.3444 0.0948
vn -0.9868 0.0489 0.1546
vn -0.6116 0.0426 -0.7900
vn -0.8484 -0.2112 -0.4853
vn -0.7861 -0.4217 -0.4520
vn -0.0149 -0.1804 -0.9835
vn 0.3663 -0.0372 -0.9298
vn -0.1073 0.9053 -0.4110
vn -0.4380 0.8875 0.1428
vn -0.7298 0.4869 0.4800
vn 0.4521 0.6230 0.6383
vn 0.6759 0.5162 -0.5261
vn -0.3744 0.3892 0.8416
vn -0.6811 0.0268 0.7317
vn 0.1391 0.2428 0.9600
vn -0.4855 -0.7228 0.4918
vn -0.5594 -0.5793 -0.5928
vn 0.3063 -0.9080 -0.2860
vn 0.7785 -0.3525 -0.5192
vn 0.4209 -0.8732 0.2457
vn 0.6543 -0.2658 0.7080
vn 0.9641 -0.1770 -0.1982
vn 0.8815 0.1471 -0.4488
vn 0.9452 0.3096 0.1035
vn 0.9358 0.1380 0.3243
vn -0.9922 0.0350 0.1196
vn -0.9991 0.0391 -0.0159
vn -0.8419 0.2546 -0.4758
vn -0.2317 -0.4345 -0.8703
vn -0.0503 0.3596 -0.9317
vn -0.4925 0.0858 -0.8661
vn 0.2379 0.2995 -0.9240
vn 0.3938 -0.1178 -0.9116
vn -0.3559 0.6292 -0.6909
vn -0.7177 0.5354 -0.4453
vn -0.6337 0.7376 0.2333
vn 0.7349 0.5685 0.3698
vn 0.6530 0.6605 -0.3706
vn -0.4085 0.4729 0.7807
vn -0.4412 -0.2232 0.8692
vn 0.0770 -0.1342 0.9880
vn 0.4658 0.3239 0.8235
vn 0.4954 0.5578 0.6659
vn -0.6382 -0.4502 0.6245
vn -0.5272 -0.7810 -0.3347
vn 0.4178 -0.7336 -0.5360
vn 0.6727 -0.5883 0.4488
vn 0.9239 -0.3030 -0.2338
vn 0.9285 0.1970 -0.3148
vn 0.9249 0.0192 0.3797
vn -0.9664 -0.2258 0.1233
vn -0.9707 0.1743 0.1651
vn -0.6482 0.1031 -0.7545
vn -0.8932 -0.1179 -0.4339
vn -0.8551 -0.3363 -0.3947
vn -0.0747 -0.2124 -0.9743
vn 0.3463 -0.1091 -0.9317
vn -0.0092 0.9067 -0.4216
vn -0.3208 0.9410 0.1077
vn -0.6604 0.5967 0.4558
vn 0.5599 0.5929 0.5788
vn 0.7274 0.4253 -0.5385
vn -0.3100 0.4755 0.8233
vn -0.6723 0.1320 0.7284
vn 0.2121 0.2606 0.9418
vn -0.5595 -0.6553 0.5075
vn -0.6591 -0.5315 -0.5321
vn 0.1837 -0.9533 -0.2399
vn 0.7272 -0.4687 -0.5014
vn 0.3177 -0.9128 0.2566
vn 0.6546 -0.3365 0.6770
vn 0.9323 -0.3008 -0.2008
vn 0.8907 0.0281 -0.4537
vn 0.9789 0.1940 0.0644
vn 0.9595 0.0294 0.2801
vn -0.9782 0.1601 0.1326
vn -0.9868 0.1616 0.0049
vn -0.8260 0.3489 -0.4428
s off
f 5/1/1 10/2/1 9/3/1 4/4/1
f 3/5/2 8/6/2 7/7/2 2/8/2
f 1/9/3 6/10/3 10/11/3 5/12/3
f 4/4/4 9/3/4 8/6/4 3/5/4
f 2/8/5 7/7/5 6/10/5 1/9/5
f 6/10/6 11/13/6 15/14/6 10/11/6
f 9/3/7 14/15/7 13/16/7 8/6/7
f 7/7/8 12/17/8 11/13/8 6/10/8
f 10/2/9 15/18/9 14/15/9 9/3/9
f 8/6/10 13/16/10 12/17/10 7/7/10
f 15/18/11 20/19/11 19/20/11 14/15/11
f 13/16/12 18/21/12 17/22/12 12/17/12
f 11/13/13 16/23/13 20/24/13 15/14/13
f 14/15/14 19/20/14 18/21/14 13/16/14
f 12/17/15 17/22/15 16/23/15 11/13/15
f 16/25/16 21/26/16 25/27/16 20/28/16
f 19/29/17 24/30/17 23/31/17 18/32/17
f 17/33/18 22/34/18 21/26/18 16/25/18
f 20/35/19 25/36/19 24/30/19 19/29/19
f 18/32/20 23/31/20 22/34/20 17/33/20
f 25/37/21 30/38/21 29/39/21 24/40/21
f 23/41/22 28/42/22 27/43/22 22/44/22
f 21/45/23 26/46/23 30/47/23 25/48/23
f 24/40/24 29/39/24 28/42/24 23/41/24
f 22/44/25 27/43/25 26/46/25 21/45/25
f 29/49/26 34/50/26 33/51/26 28/52/26
f 27/53/27 32/54/27 31/55/27 54/56/27
f 30/57/28 35/58/28 34/50/28 29/49/28
f 28/52/29 33/51/29 32/54/29 27/53/29
f 34/50/30 35/58/30 40/59/30 39/60/30
f 33/61/31 41/62/31 45/63/31 44/64/31
f 35/65/32 31/55/32 36/66/32 40/67/32
f 33/51/33 34/50/33 39/60/33 38/68/33
f 31/55/34 41/69/34 37/70/34 36/66/34
f 32/71/35 33/61/35 44/64/35 43/72/35
f 31/73/36 32/74/36 43/75/36 42/76/36
f 41/69/37 33/51/37 38/68/37 37/70/37
f 41/62/38 31/73/38 42/76/38 45/63/38
f 45/63/39 42/76/39 46/77/39 49/78/39
f 42/76/40 43/75/40 47/79/40 46/77/40
f 44/64/41 45/63/41 49/78/41 48/80/41
f 43/72/42 44/64/42 48/80/42 47/81/42
f 48/82/43 49/83/43 53/84/43 52/85/43
f 47/86/44 48/82/44 52/85/44 51/87/44
f 49/83/45 46/88/45 50/89/45 53/84/45
f 46/88/46 47/90/46 51/91/46 50/89/46
f 30/92/47 54/56/47 31/55/47 35/65/47
f 26/93/48 27/94/48 56/95/48 55/96/48
f 54/97/49 30/98/49 57/99/49 58/100/49
f 27/94/50 54/97/50 58/100/50 56/95/50
f 30/98/51 26/101/51 55/102/51 57/99/51
f 58/100/52 57/99/52 61/103/52 62/104/52
f 55/96/53 56/95/53 60/105/53 59/106/53
f 56/95/54 58/100/54 62/104/54 60/105/54
f 57/99/55 55/102/55 59/107/55 61/103/55
f 60/105/56 62/104/56 66/108/56 64/109/56
f 61/103/57 59/107/57 63/110/57 65/111/57
f 62/104/58 61/103/58 65/111/58 66/108/58
f 59/106/59 60/105/59 64/109/59 63/112/59
f 66/108/60 65/111/60 69/113/60 70/114/60
f 63/112/61 64/109/61 68/115/61 67/116/61
f 64/109/62 66/108/62 70/114/62 68/115/62
f 65/111/63 63/110/63 67/117/63 69/113/63
f 71/118/64 72/119/64 73/120/64
f 74/121/65 75/122/65 76/123/65
f 73/120/66 75/122/66 74/121/66
f 74/121/67 76/123/67 77/124/67
f 77/124/68 78/125/68 71/118/68
f 76/123/69 75/122/69 79/126/69
f 79/126/70 75/122/70 80/127/70
f 79/128/71 80/129/71 81/130/71
f 82/131/72 83/132/72 84/133/72
f 82/134/73 84/135/73 76/123/73
f 85/136/74 81/130/74 86/137/74
f 86/137/75 87/138/75 88/139/75
f 86/137/76 88/139/76 89/140/76
f 89/140/77 83/132/77 85/136/77
f 85/136/78 83/132/78 81/130/78
f 88/139/79 87/138/79 90/141/79
f 91/142/80 90/143/80 72/119/80
f 72/119/81 71/118/81 92/144/81
f 92/145/82 93/146/82 88/139/82
f 93/146/83 92/145/83 94/147/83
f 94/148/84 77/124/84 84/135/84
f 83/132/85 89/140/85 93/146/85
f 95/149/86 90/141/86 87/138/86
f 87/138/87 96/150/87 80/129/87
f 97/151/88 75/122/88 73/120/88
f 97/151/89 73/120/89 95/152/89
f 95/152/90 73/120/90 90/143/90
f 74/121/91 71/118/91 73/120/91
f 74/121/92 77/124/92 71/118/92
f 82/134/93 76/123/93 79/126/93
f 82/131/94 79/128/94 81/130/94
f 81/130/95 80/129/95 96/150/95
f 82/131/96 81/130/96 83/132/96
f 76/123/97 84/135/97 77/124/97
f 86/137/98 81/130/98 96/150/98
f 86/137/99 96/150/99 87/138/99
f 86/137/100 89/140/100 85/136/100
f 91/153/101 88/139/101 90/141/101
f 72/119/102 90/143/102 73/120/102
f 91/142/103 72/119/103 92/144/103
f 92/144/104 71/118/104 78/125/104
f 91/153/105 92/145/105 88/139/105
f 88/139/106 93/146/106 89/140/106
f 94/148/107 92/144/107 78/125/107
f 94/148/108 78/125/108 77/124/108
f 94/147/109 84/133/109 83/132/109
f 94/147/110 83/132/110 93/146/110
f 95/149/111 87/138/111 80/129/111
f 95/152/112 80/127/112 97/151/112
f 97/151/113 80/127/113 75/122/113
f 98/154/114 99/155/114 100/156/114
f 101/157/115 102/158/115 103/159/115
f 100/156/116 102/158/116 101/157/116
f 101/157/117 103/159/117 104/160/117
f 104/160/118 105/161/118 98/154/118
f 103/159/119 102/158/119 106/162/119
f 106/162/120 102/158/120 107/163/120
f 106/164/121 107/165/121 108/166/121
f 109/167/122 110/168/122 111/169/122
f 109/170/123 111/171/123 103/159/123
f 112/172/124 108/166/124 113/173/124
f 113/173/125 114/174/125 115/175/125
f 113/173/126 115/175/126 116/176/126
f 116/176/127 110/168/127 112/172/127
f 112/172/128 110/168/128 108/166/128
f 115/175/129 114/174/129 117/177/129
f 118/178/130 117/179/130 99/155/130
f 99/155/131 98/154/131 119/180/131
f 119/181/132 120/182/132 115/175/132
f 120/182/133 119/181/133 121/183/133
f 121/184/134 104/160/134 111/171/134
f 110/168/135 116/176/135 120/182/135
f 122/185/136 117/177/136 114/174/136
f 114/174/137 123/186/137 107/165/137
f 124/187/138 102/158/138 100/156/138
f 124/187/139 100/156/139 122/188/139
f 122/188/140 100/156/140 117/179/140
f 101/157/141 98/154/141 100/156/141
f 101/157/142 104/160/142 98/154/142
f 109/170/143 103/159/143 106/162/143
f 109/167/144 106/164/144 108/166/144
f 108/166/145 107/165/145 123/186/145
f 109/167/146 108/166/146 110/168/146
f 103/159/147 111/171/147 104/160/147
f 113/173/148 108/166/148 123/186/148
f 113/173/149 123/186/149 114/174/149
f 113/173/150 116/176/150 112/172/150
f 118/189/151 115/175/151 117/177/151
f 99/155/152 117/179/152 100/156/152
f 118/178/153 99/155/153 119/180/153
f 119/180/154 98/154/154 105/161/154
f 118/189/155 119/181/155 115/175/155
f 115/175/156 120/182/156 116/176/156
f 121/184/157 119/180/157 105/161/157
f 121/184/158 105/161/158 104/160/158
f 121/183/159 111/169/159 110/168/159
f 121/183/160 110/168/160 120/182/160
f 122/185/161 114/174/161 107/165/161
f 122/188/162 107/163/162 124/187/162
f 124/187/163 107/163/163 102/158/163
f 125/190/164 126/191/164 127/192/164
f 128/193/165 129/194/165 130/195/165
f 127/192/166 129/194/166 128/193/166
f 128/193/167 130/195/167 131/196/167
f 131/196/168 132/197/168 125/190/168
f 130/195/169 129/194/169 133/198/169
f 133/198/170 129/194/170 134/199/170
f 133/200/171 134/201/171 135/202/171
f 136/203/172 137/204/172 138/205/172
f 136/206/173 138/207/173 130/195/173
f 139/208/174 135/202/174 140/209/174
f 140/209/175 141/210/175 142/211/175
f 140/209/176 142/211/176 143/212/176
f 143/212/177 137/204/177 139/208/177
f 139/208/178 137/204/178 135/202/178
f 142/211/179 141/210/179 144/213/179
f 145/214/180 144/215/180 126/191/180
f 126/191/181 125/190/181 146/216/181
f 146/217/182 147/218/182 142/211/182
f 147/218/183 146/217/183 148/219/183
f 148/220/184 131/196/184 138/207/184
f 137/204/185 143/212/185 147/218/185
f 149/221/186 144/213/186 141/210/186
f 141/210/187 150/222/187 134/201/187
f 151/223/188 129/194/188 127/192/188
f 151/223/189 127/192/189 149/224/189
f 149/224/190 127/192/190 144/215/190
f 128/193/191 125/190/191 127/192/191
f 128/193/192 131/196/192 125/190/192
f 136/206/193 130/195/193 133/198/193
f 136/203/194 133/200/194 135/202/194
f 135/202/195 134/201/195 150/222/195
f 136/203/196 135/202/196 137/204/196
f 130/195/197 138/207/197 131/196/197
f 140/209/198 135/202/198 150/222/198
f 140/209/199 150/222/199 141/210/199
f 140/209/200 143/212/200 139/208/200
f 145/225/201 142/211/201 144/213/201
f 126/191/202 144/215/202 127/192/202
f 145/214/203 126/191/203 146/216/203
f 146/216/204 125/190/204 132/197/204
f 145/225/205 146/217/205 142/211/205
f 142/211/206 147/218/206 143/212/206
f 148/220/207 146/216/207 132/197/207
f 148/220/208 132/197/208 131/196/208
f 148/219/209 138/205/209 137/204/209
f 148/219/210 137/204/210 147/218/210
f 149/221/211 141/210/211 134/201/211
f 149/224/212 134/199/212 151/223/212
f 151/223/213 134/199/213 129/194/213
