# Blender v2.78 (sub 0) OBJ File: 'Low_Poly_Trees_Pack.blend'
# www.blender.org
g Birch_Tree_crk_l_01
v -0.021531 0.000000 -0.216000
v -0.302585 0.000000 -0.066748
v -0.195232 0.000000 0.174748
v 0.152170 0.000000 0.174748
v 0.259524 0.000000 -0.066748
v 0.153187 0.664153 -0.216000
v -0.052241 0.664153 -0.066748
v 0.026225 0.664153 0.174748
v 0.244359 0.478419 0.174748
v 0.358615 0.664153 -0.066748
v 0.100381 1.614754 -0.060938
v 0.279934 1.614754 -0.191391
v 0.168964 1.614754 0.150139
v 0.459487 1.614754 -0.060938
v 0.065135 1.616732 -0.091032
v -0.011509 1.819275 -0.042461
v 0.100441 1.966273 -0.165410
v 0.246274 1.854578 -0.289968
v 0.224453 1.638550 -0.244000
v -1.502213 1.393501 -1.866551
v -1.569063 1.570162 -1.824186
v -1.471419 1.698375 -1.931424
v -1.344221 1.600954 -2.040065
v -1.152044 1.442357 -1.766766
v -2.289037 1.439549 -2.479355
v -2.322045 1.574950 -2.431135
v -2.254503 1.672313 -2.518922
v -2.179751 1.597086 -2.621397
v -2.201095 1.453230 -2.596944
v -4.132130 1.319155 -4.236940
v -4.175852 1.421444 -4.217597
v -4.117091 1.496515 -4.278096
v -4.037054 1.440624 -4.334830
v -4.046347 1.331009 -4.309394
v -1.618253 1.402113 -2.200819
v -1.708167 0.958791 -3.220768
v -1.654088 1.110081 -3.341237
v -1.590600 0.962516 -3.329105
v -1.831904 1.045317 -3.319125
v -2.476625 0.735622 -4.849810
v -2.451321 0.856761 -4.937519
v -2.429235 0.747709 -4.949132
v -2.573318 0.812655 -4.897632
v -3.403858 0.686570 -6.231953
v -3.407231 0.737333 -6.263809
v -3.392770 0.695046 -6.278990
v -3.449838 0.717569 -6.230609
v -3.204207 0.135099 -6.281001
v -3.160519 0.498454 -5.888319
v -4.098156 0.182085 -6.071335
v -4.342546 -0.233567 -6.894205
v -5.086413 -0.063048 -7.150305
v -5.161269 -0.156057 -8.023704
v -4.134062 -0.221234 -7.577310
v -3.442454 0.091432 -7.094352
v -5.765012 0.395964 -8.029930
v -5.691761 0.693895 -7.472425
v -5.878692 0.814507 -8.748204
v -5.674752 0.357331 -8.832156
v -4.683475 0.880990 -8.729026
v -4.793785 0.204276 -8.665156
v -5.359359 1.221917 -8.597402
v -5.009773 1.594596 -7.827945
v -4.762956 1.423816 -6.763764
v -3.567842 1.578360 -6.765959
v -4.304167 1.395378 -8.145701
v -3.835136 1.130063 -5.913269
v -3.302751 1.149681 -6.033023
v -2.980392 0.792163 -6.605657
v -3.387022 0.954908 -7.426485
v -3.739414 0.394086 -7.807980
v -4.592433 0.851861 -6.284930
v -5.487226 1.257293 -7.629877
v -4.926609 0.384432 -6.603607
v -5.996071 0.958642 -9.088180
v -5.328999 1.636841 -7.954525
v -3.847857 0.991261 -6.020458
v -5.463371 0.185935 -7.594520
v -4.669684 0.081183 -5.829688
v -6.887038 -0.003880 -7.644314
v -7.576304 -0.486693 -9.612326
v -7.914308 0.458002 -10.391999
v -5.723176 -0.050025 -5.468983
v -4.428284 0.711503 -4.029127
v -7.647337 0.444134 -5.918026
v -8.132627 -0.034719 -7.086924
v -10.265169 0.820235 -9.149307
v -9.615095 -0.231958 -9.561834
v -8.484372 1.142657 -6.561748
v -7.091277 2.021846 -5.442578
v -4.606452 2.220054 -4.211745
v -7.268709 2.715036 -7.436028
v -9.559611 2.018005 -8.132325
v -4.160892 2.320308 -5.341257
v -5.574699 2.439548 -7.063419
v -7.554173 2.055941 -9.654163
v -9.321496 1.701862 -10.214791
v -9.512119 0.594251 -10.739656
v -3.545513 1.669696 -4.323887
v -5.417194 1.568461 -4.168144
v -3.624241 0.883208 -4.587040
v 0.515829 2.035423 0.519589
v 0.835917 2.213963 0.618480
v 0.773611 2.070725 0.272083
vt 0.1423 0.0274
vt 0.1430 0.1021
vt 0.1152 0.1002
vt 0.1159 0.0237
vt 0.0852 0.0330
vt 0.0880 0.1055
vt 0.0615 0.1109
vt 0.0532 0.0415
vt 0.1762 0.0378
vt 0.1715 0.0887
vt 0.2036 0.0424
vt 0.1964 0.1120
vt 0.3240 0.8922
vt 0.3376 0.9053
vt 0.3137 0.9053
vt 0.1402 0.2085
vt 0.1160 0.2077
vt 0.0919 0.2097
vt 0.0677 0.2121
vt 0.3422 0.9606
vt 0.3213 0.9606
vt 0.0919 0.2097
vt 0.0940 0.4718
vt 0.0721 0.4380
vt 0.0677 0.2121
vt 0.1644 0.2112
vt 0.1582 0.4725
vt 0.1370 0.4731
vt 0.1402 0.2085
vt 0.1160 0.2077
vt 0.1153 0.4732
vt 0.1884 0.2131
vt 0.1808 0.4384
vt 0.0977 0.5806
vt 0.0818 0.5818
vt 0.0741 0.5050
vt 0.1447 0.5832
vt 0.1290 0.5808
vt 0.1134 0.5798
vt 0.1033 0.6314
vt 0.0984 0.8982
vt 0.0890 0.8985
vt 0.0909 0.6302
vt 0.0788 0.6286
vt 0.0799 0.9001
vt 0.0704 0.9008
vt 0.0667 0.6285
vt 0.0547 0.6301
vt 0.0611 0.8998
vt 0.0518 0.8989
vt 0.0425 0.6324
vt 0.1754 0.5093
vt 0.1607 0.5853
vt 0.0959 0.1994
vt 0.1232 0.1720
vt 0.1170 0.3243
vt 0.0964 0.3306
vt 0.1539 0.1483
vt 0.1343 0.3248
vt 0.0823 0.1631
vt 0.0801 0.3184
vt 0.0470 0.1452
vt 0.0646 0.3265
vt 0.1252 0.5242
vt 0.1117 0.5287
vt 0.1371 0.5248
vt 0.0997 0.5211
vt 0.0905 0.5290
vt 0.1159 0.6710
vt 0.1252 0.6782
vt 0.1274 0.8224
vt 0.1230 0.8204
vt 0.1077 0.6768
vt 0.1198 0.8232
vt 0.1367 0.6756
vt 0.1324 0.8222
vt 0.1465 0.6771
vt 0.1367 0.8227
vt 0.4723 0.0686
vt 0.4730 0.0753
vt 0.4616 0.0737
vt 0.4621 0.0651
vt 0.4549 0.0661
vt 0.4577 0.0568
vt 0.4675 0.0581
vt 0.4741 0.0608
vt 0.4460 0.0595
vt 0.4424 0.0717
vt 0.4168 0.0442
vt 0.4288 0.0496
vt 0.4137 0.0584
vt 0.4036 0.0550
vt 0.4093 0.0726
vt 0.3975 0.0712
vt 0.4506 0.0442
vt 0.4662 0.0442
vt 0.4163 0.0659
vt 0.4233 0.0681
vt 0.4329 0.0667
vt 0.4274 0.0802
vt 0.4166 0.0751
vt 0.4423 0.0743
vt 0.4794 0.0857
vt 0.4670 0.0887
vt 0.4853 0.0693
vt 0.4206 0.0943
vt 0.4147 0.0858
vt 0.4031 0.0861
vt 0.4786 0.0521
vt 0.4423 0.0613
vt 0.4265 0.0613
vt 0.4535 0.0749
vt 0.4553 0.0842
vt 0.4374 0.0875
vt 0.3444 0.0686
vt 0.3451 0.0753
vt 0.3337 0.0737
vt 0.3342 0.0651
vt 0.3270 0.0661
vt 0.3297 0.0568
vt 0.3396 0.0581
vt 0.3462 0.0608
vt 0.3181 0.0595
vt 0.3144 0.0717
vt 0.2889 0.0442
vt 0.3008 0.0496
vt 0.2858 0.0584
vt 0.2756 0.0550
vt 0.2813 0.0726
vt 0.2696 0.0712
vt 0.3227 0.0442
vt 0.3382 0.0442
vt 0.2884 0.0659
vt 0.2954 0.0681
vt 0.3049 0.0667
vt 0.2995 0.0802
vt 0.2886 0.0751
vt 0.3144 0.0743
vt 0.3514 0.0857
vt 0.3391 0.0887
vt 0.3573 0.0693
vt 0.2926 0.0943
vt 0.2867 0.0858
vt 0.2751 0.0861
vt 0.3507 0.0521
vt 0.3144 0.0613
vt 0.2986 0.0613
vt 0.3256 0.0749
vt 0.3274 0.0842
vt 0.3094 0.0875
vt 0.2893 0.9128
vt 0.2952 0.9006
vt 0.3081 0.9006
vt 0.3099 0.9157
vt 0.3043 0.9618
vt 0.2836 0.9589
vt 0.1263 0.7011
vt 0.0858 0.6969
vt 0.0913 0.4942
vt 0.1274 0.5540
vt 0.0451 0.6996
vt 0.0532 0.5527
vt 0.2913 0.9796
vt 0.3253 0.9729
vt 0.3382 0.9729
vn -0.8859 0.3147 0.3408
vn 0.5200 -0.1072 -0.8474
vn 0.0000 0.0000 1.0000
vn -0.5158 0.1651 -0.8406
vn 0.9192 -0.1539 0.3626
vn 0.4837 0.5681 0.6658
vn -0.9404 0.1491 0.3056
vn 0.5868 -0.0573 -0.8077
vn 0.5865 -0.0672 0.8072
vn -0.5849 0.0988 -0.8051
vn 0.1377 -0.9905 0.0030
vn 0.3106 0.8591 -0.4068
vn -0.6608 -0.4020 0.6338
vn 0.7385 -0.2101 -0.6406
vn -0.5540 0.7404 0.3808
vn -0.0362 -0.9982 -0.0470
vn 0.2903 0.8579 -0.4239
vn -0.5790 -0.3927 0.7145
vn -0.4127 0.7496 0.5174
vn 0.6713 -0.2204 -0.7076
vn -0.4931 0.7460 0.4475
vn 0.1027 -0.9939 -0.0397
vn 0.3060 0.8592 -0.4100
vn -0.6209 -0.3932 0.6781
vn 0.5570 -0.1556 -0.8158
vn -0.4441 0.8712 -0.2091
vn 0.8534 0.3835 -0.3531
vn -0.7750 -0.5518 0.3082
vn 0.1124 -0.9550 0.2746
vn -0.3377 0.9411 0.0196
vn 0.8390 0.2788 -0.4673
vn -0.7033 -0.5785 0.4133
vn 0.1613 -0.9855 0.0531
vn -0.6276 -0.6349 0.4506
vn 0.1598 -0.9843 -0.0745
vn -0.3059 0.9425 0.1347
vn 0.7675 0.2869 -0.5732
vn 0.1179 -0.7354 0.6673
vn -0.2622 -0.9570 0.1244
vn -0.3540 -0.7883 0.5033
vn -0.0490 -0.9983 -0.0330
vn 0.4604 -0.8834 -0.0874
vn -0.6694 -0.7305 0.1352
vn -0.7970 -0.4830 0.3628
vn -0.9895 -0.0238 0.1427
vn 0.1649 -0.1193 -0.9791
vn -0.0520 -0.8577 -0.5116
vn -0.5916 0.7976 -0.1175
vn -0.1257 0.9746 0.1855
vn 0.1724 0.9603 -0.2193
vn 0.1973 0.6681 -0.7174
vn -0.0046 0.3523 -0.9359
vn -0.1148 0.8936 0.4339
vn 0.2033 0.2545 0.9455
vn 0.9564 -0.2596 0.1338
vn 0.7944 0.5350 -0.2875
vn 0.8561 -0.2198 -0.4677
vn 0.5730 -0.5833 -0.5757
vn 0.6722 0.2811 -0.6850
vn -0.5212 0.4511 0.7244
vn -0.7353 0.4164 0.5348
vn -0.5386 -0.5680 0.6223
vn -0.5604 -0.1541 0.8137
vn -0.4313 -0.0307 0.9017
vn 0.0553 -0.8977 0.4370
vn 0.2748 -0.9592 0.0666
vn -0.6740 -0.7376 -0.0403
vn -0.9157 -0.3930 -0.0841
vn -0.9103 0.3777 0.1691
vn 0.0056 0.1830 -0.9831
vn 0.1294 -0.8943 -0.4283
vn -0.6020 0.7918 -0.1028
vn -0.4884 0.8367 0.2476
vn 0.0475 0.8903 -0.4528
vn 0.0764 0.8725 0.4827
vn -0.1504 -0.1219 0.9811
vn 0.9012 0.2718 0.3376
vn 0.8787 -0.4155 -0.2351
vn 0.7926 0.6060 0.0678
vn 0.6410 0.6380 -0.4267
vn 0.8545 -0.2435 -0.4588
vn 0.6240 -0.5916 -0.5106
vn 0.6399 -0.1749 -0.7483
vn 0.7073 0.0358 -0.7060
vn -0.7182 0.3082 0.6239
vn -0.7366 0.0679 0.6729
vn -0.7572 -0.3793 0.5318
vn 0.8086 0.1539 -0.5679
vn 0.1353 -0.9836 -0.1192
vn 0.6623 -0.6689 -0.3376
vn 0.1229 -0.9729 0.1957
vn 0.5857 -0.3809 -0.7154
vn 0.0984 -0.9924 -0.0737
vn 0.2173 -0.9300 0.2964
vn -0.3277 -0.6810 0.6549
vn -0.6708 -0.5904 0.4489
vn 0.0475 -0.9976 0.0510
vn -0.6191 -0.0184 0.7851
vn -0.2399 0.9101 0.3378
vn -0.3659 0.8684 0.3346
vn -0.8240 0.0044 0.5666
vn -0.7412 -0.3750 0.5568
vn 0.0527 0.9927 0.1089
vn 0.5945 0.6721 -0.4415
vn 0.5837 0.4980 -0.6414
vn -0.1058 0.9568 -0.2707
vn 0.2066 0.3897 -0.8975
vn -0.1153 -0.8084 -0.5772
vn -0.7726 0.6086 -0.1807
vn 0.4662 0.8459 0.2590
vn -0.0394 0.1155 0.9925
vn 0.7151 -0.6798 -0.1628
vn 0.9865 -0.0461 -0.1574
vn 0.8819 0.3620 -0.3019
vn 0.7247 -0.4716 -0.5024
vn 0.6649 -0.5397 -0.5163
vn 0.0123 -0.9995 -0.0278
vn -0.3209 -0.8222 0.4701
vn -0.4442 -0.3810 0.8109
vn -0.6924 -0.5198 0.5004
vn -0.1126 -0.9552 0.2738
vn -0.6096 -0.0239 0.7923
vn -0.4049 0.5526 0.7285
vn -0.7045 0.2938 0.6461
vn 0.1765 0.9813 -0.0770
vn 0.7829 0.4193 -0.4596
vn 0.5099 0.7043 -0.4939
vn 0.4916 0.2713 -0.8275
vn 0.2176 0.9276 -0.3036
vn -0.2384 0.9557 -0.1724
vn 0.2276 0.3655 -0.9026
vn 0.1194 -0.6062 -0.7863
vn -0.8524 -0.3901 -0.3482
vn -0.8260 0.3511 -0.4410
vn 0.1750 0.1387 0.9748
vn 0.5858 -0.3093 0.7491
vn 0.3719 -0.8906 0.2619
vn -0.0999 -0.9758 -0.1945
vn 0.6188 -0.2228 -0.7533
vn -0.6092 -0.3954 0.6875
vn 0.6023 0.3284 0.7276
vn 0.2552 -0.9582 0.1291
vn 0.1552 0.8800 -0.4489
vn -0.5703 0.7767 0.2674
vn 0.3967 -0.8713 0.2889
vn 0.0000 1.0000 0.0000
s off
f 3/1/1 8/2/1 7/3/1 2/4/1
f 1/5/2 6/6/2 10/7/2 5/8/2
f 4/9/3 9/10/3 8/2/3 3/1/3
f 2/4/4 7/3/4 6/6/4 1/5/4
f 5/11/5 10/12/5 9/10/5 4/9/5
f 9/13/6 10/14/6 8/15/6
f 8/2/7 13/16/7 11/17/7 7/3/7
f 6/6/8 12/18/8 14/19/8 10/7/8
f 10/14/9 14/20/9 13/21/9 8/15/9
f 7/3/10 11/17/10 12/18/10 6/6/10
f 15/22/11 20/23/11 24/24/11 19/25/11
f 18/26/12 23/27/12 22/28/12 17/29/12
f 16/30/13 21/31/13 20/23/13 15/22/13
f 19/32/14 24/33/14 23/27/14 18/26/14
f 17/29/15 22/28/15 21/31/15 16/30/15
f 20/23/16 25/34/16 29/35/16 35/36/16
f 23/27/17 28/37/17 27/38/17 22/28/17
f 21/31/18 26/39/18 25/34/18 20/23/18
f 22/28/19 27/38/19 26/39/19 21/31/19
f 29/40/20 34/41/20 33/42/20 28/43/20
f 27/44/21 32/45/21 31/46/21 26/47/21
f 25/48/22 30/49/22 34/50/22 29/51/22
f 28/43/23 33/42/23 32/45/23 27/44/23
f 26/47/24 31/46/24 30/49/24 25/48/24
f 23/27/25 35/52/25 29/53/25 28/37/25
f 35/54/26 23/55/26 37/56/26 39/57/26
f 23/55/27 24/58/27 38/59/27 37/56/27
f 20/60/28 35/54/28 39/57/28 36/61/28
f 24/62/29 20/60/29 36/61/29 38/63/29
f 39/57/30 37/56/30 41/64/30 43/65/30
f 37/56/31 38/59/31 42/66/31 41/64/31
f 36/61/32 39/57/32 43/65/32 40/67/32
f 38/63/33 36/61/33 40/67/33 42/68/33
f 40/69/34 43/70/34 47/71/34 44/72/34
f 42/73/35 40/69/35 44/72/35 46/74/35
f 43/70/36 41/75/36 45/76/36 47/71/36
f 41/75/37 42/77/37 46/78/37 45/76/37
f 48/79/38 49/80/38 50/81/38
f 51/82/39 52/83/39 53/84/39
f 50/81/40 52/83/40 51/82/40
f 51/82/41 53/84/41 54/85/41
f 54/85/42 55/86/42 48/79/42
f 53/84/43 52/83/43 56/87/43
f 56/87/44 52/83/44 57/88/44
f 56/89/45 57/90/45 58/91/45
f 59/92/46 60/93/46 61/94/46
f 59/95/47 61/96/47 53/84/47
f 62/97/48 58/91/48 63/98/48
f 63/98/49 64/99/49 65/100/49
f 63/98/50 65/100/50 66/101/50
f 66/101/51 60/93/51 62/97/51
f 62/97/52 60/93/52 58/91/52
f 65/100/53 64/99/53 67/102/53
f 68/103/54 67/104/54 49/80/54
f 49/80/55 48/79/55 69/105/55
f 69/106/56 70/107/56 65/100/56
f 70/107/57 69/106/57 71/108/57
f 71/109/58 54/85/58 61/96/58
f 60/93/59 66/101/59 70/107/59
f 72/110/60 67/102/60 64/99/60
f 64/99/61 73/111/61 57/90/61
f 74/112/62 52/83/62 50/81/62
f 74/112/63 50/81/63 72/113/63
f 72/113/64 50/81/64 67/104/64
f 51/82/65 48/79/65 50/81/65
f 51/82/66 54/85/66 48/79/66
f 59/95/67 53/84/67 56/87/67
f 59/92/68 56/89/68 58/91/68
f 58/91/69 57/90/69 73/111/69
f 59/92/70 58/91/70 60/93/70
f 53/84/71 61/96/71 54/85/71
f 63/98/72 58/91/72 73/111/72
f 63/98/73 73/111/73 64/99/73
f 63/98/74 66/101/74 62/97/74
f 68/114/75 65/100/75 67/102/75
f 49/80/76 67/104/76 50/81/76
f 68/103/77 49/80/77 69/105/77
f 69/105/78 48/79/78 55/86/78
f 68/114/79 69/106/79 65/100/79
f 65/100/80 70/107/80 66/101/80
f 71/109/81 69/105/81 55/86/81
f 71/109/82 55/86/82 54/85/82
f 71/108/83 61/94/83 60/93/83
f 71/108/84 60/93/84 70/107/84
f 72/110/85 64/99/85 57/90/85
f 72/113/86 57/88/86 74/112/86
f 74/112/87 57/88/87 52/83/87
f 75/115/88 76/116/88 77/117/88
f 78/118/89 79/119/89 80/120/89
f 77/117/90 79/119/90 78/118/90
f 78/118/91 80/120/91 81/121/91
f 81/121/92 82/122/92 75/115/92
f 80/120/93 79/119/93 83/123/93
f 83/123/94 79/119/94 84/124/94
f 83/125/95 84/126/95 85/127/95
f 86/128/96 87/129/96 88/130/96
f 86/131/97 88/132/97 80/120/97
f 89/133/98 85/127/98 90/134/98
f 90/134/99 91/135/99 92/136/99
f 90/134/100 92/136/100 93/137/100
f 93/137/101 87/129/101 89/133/101
f 89/133/102 87/129/102 85/127/102
f 92/136/103 91/135/103 94/138/103
f 95/139/104 94/140/104 76/116/104
f 76/116/105 75/115/105 96/141/105
f 96/142/106 97/143/106 92/136/106
f 97/143/107 96/142/107 98/144/107
f 98/145/108 81/121/108 88/132/108
f 87/129/109 93/137/109 97/143/109
f 99/146/110 94/138/110 91/135/110
f 91/135/111 100/147/111 84/126/111
f 101/148/112 79/119/112 77/117/112
f 101/148/113 77/117/113 99/149/113
f 99/149/114 77/117/114 94/140/114
f 78/118/115 75/115/115 77/117/115
f 78/118/116 81/121/116 75/115/116
f 86/131/117 80/120/117 83/123/117
f 86/128/118 83/125/118 85/127/118
f 85/127/119 84/126/119 100/147/119
f 86/128/120 85/127/120 87/129/120
f 80/120/121 88/132/121 81/121/121
f 90/134/122 85/127/122 100/147/122
f 90/134/123 100/147/123 91/135/123
f 90/134/124 93/137/124 89/133/124
f 95/150/125 92/136/125 94/138/125
f 76/116/126 94/140/126 77/117/126
f 95/139/127 76/116/127 96/141/127
f 96/141/128 75/115/128 82/122/128
f 95/150/129 96/142/129 92/136/129
f 92/136/130 97/143/130 93/137/130
f 98/145/131 96/141/131 82/122/131
f 98/145/132 82/122/132 81/121/132
f 98/144/133 88/130/133 87/129/133
f 98/144/134 87/129/134 97/143/134
f 99/146/135 91/135/135 84/126/135
f 99/149/136 84/124/136 101/148/136
f 101/148/137 84/124/137 79/119/137
f 12/18/138 11/17/138 15/22/138 19/25/138
f 19/25/139 18/26/139 12/18/139
f 15/22/140 11/17/140 16/30/140
f 16/151/141 11/152/141 12/153/141 18/154/141
f 16/151/142 18/154/142 104/155/142 102/156/142
f 18/157/143 17/158/143 103/159/143 104/160/143
f 17/158/144 16/161/144 102/162/144 103/159/144
f 103/163/145 102/156/145 104/155/145
f 11/164/146 13/21/146 14/20/146 12/165/146
