# Blender v2.78 (sub 0) OBJ File: 'Low_Poly_Trees_Pack.blend'
# www.blender.org
g Birch_Tree_crk_l_03
v 0.052276 0.000000 -0.272405
v -0.371147 0.000000 -0.080063
v -0.209414 0.000000 0.231152
v 0.313965 0.000000 0.231152
v 0.475698 0.000000 -0.080063
v -0.035678 0.629749 -0.295112
v -0.304749 0.629749 -0.099620
v -0.201973 0.629749 0.216691
v 0.130617 0.629749 0.216691
v 0.233393 0.629749 -0.099620
v 0.220224 2.103454 -0.294579
v 0.012756 2.103647 -0.143407
v 0.092002 2.103574 0.100319
v 0.348446 2.103334 0.099779
v 0.427692 2.103261 -0.144281
v -0.100506 4.046943 -0.219890
v 0.073523 4.037328 -0.346723
v -0.025239 3.907928 -0.006648
v 0.181078 4.031384 -0.014671
v 0.247551 4.027710 -0.219890
v 2.506208 0.227025 1.770498
v 2.409353 0.272925 1.905972
v 2.328193 0.112254 2.079142
v 2.444069 -0.054666 2.014884
v 2.548849 0.065068 1.820448
v 3.712378 0.263468 3.474952
v 3.600031 0.307269 3.589843
v 3.445084 0.169797 3.562768
v 3.596507 0.038847 3.582740
v 3.710166 0.097315 3.470584
v 4.822450 0.329746 4.229462
v 4.712630 0.366050 4.299337
v 4.664834 0.256183 4.362008
v 4.745124 0.152067 4.330858
v 4.842532 0.197513 4.248943
v 5.987331 0.849593 5.827857
v 5.914981 0.790852 5.911541
v 5.977588 0.722553 5.889359
v 6.034883 0.744956 5.810007
v 8.070265 1.442529 8.414892
v 8.055834 1.433549 8.431593
v 8.068336 1.423774 8.427179
v 8.083297 1.428534 8.414766
v 3.620746 0.157720 3.736933
v 3.249978 0.222740 4.444412
v 3.141450 0.124421 4.431871
v 3.233542 0.016229 4.468648
v 3.342204 0.130615 4.485332
v 3.345382 0.247171 5.422369
v 3.258686 0.195837 5.470402
v 3.323999 0.117581 5.460740
v 3.414524 0.179005 5.412386
v 3.697419 0.947369 6.495356
v 3.634322 0.910009 6.530314
v 3.681856 0.853055 6.523282
v 3.747740 0.897759 6.488091
v 6.092768 0.778686 5.887089
v 6.362285 0.500677 6.084455
v 6.410427 0.503031 6.022086
v 6.435957 0.567576 6.074705
v 7.586805 0.362596 7.006280
v 7.606624 0.357745 6.982269
v 7.606376 0.388386 6.993304
v 4.946433 1.267577 5.516720
v 4.154608 1.269070 5.391161
v 4.587877 2.400765 6.222458
v 5.722008 2.283924 6.715057
v 5.531379 2.738814 7.541943
v 6.334623 2.168240 7.982173
v 6.221881 1.473896 6.855021
v 5.564823 0.883585 6.095258
v 5.595685 2.464767 8.641408
v 4.646504 2.552232 8.420648
v 5.160909 1.439666 9.253934
v 5.957040 1.538928 8.980462
v 5.294249 0.220777 8.194630
v 6.200768 0.983999 8.080068
v 4.575688 0.681032 8.828555
v 3.595237 0.690805 8.249303
v 3.159513 1.506483 7.477703
v 3.194286 0.095145 6.449913
v 4.249950 -0.171268 7.714293
v 3.169552 1.487533 6.168603
v 3.327140 0.787614 5.755736
v 4.291815 0.216854 5.644218
v 4.584895 -0.157765 6.432490
v 5.598447 0.492385 6.773757
v 3.687539 2.211064 6.943534
v 3.833664 1.648394 8.493462
v 4.506073 2.666111 7.267953
v 8.273456 1.203710 5.632213
v 7.141449 1.266200 5.693734
v 8.105968 2.747823 6.737709
v 9.807608 2.457479 7.081961
v 9.836393 3.083412 8.294419
v 11.016961 2.185310 8.656994
v 10.451638 1.226036 7.113538
v 9.256951 0.632438 6.244660
v 10.221168 2.645389 9.797351
v 8.852511 2.865944 9.774976
v 9.692411 1.278936 10.760364
v 10.723066 1.343065 10.145155
v 9.423304 -0.005515 9.227775
v 10.719821 0.527483 8.810713
v 8.677142 0.535170 10.331453
v 7.151109 0.570990 9.819333
v 6.406838 1.580202 8.891245
v 6.001973 0.017748 7.430402
v 7.805526 -0.149539 8.866900
v 6.031951 1.605157 7.070235
v 6.053866 0.744003 6.438428
v 7.294657 0.050276 5.986809
v 7.891083 -0.238368 6.987502
v 9.447228 0.078773 7.167873
v 7.053799 2.533860 8.003947
v 7.654279 1.678387 10.103202
v 8.329791 3.087086 8.218157
vt 0.2188 0.0207
vt 0.2082 0.0806
vt 0.1762 0.0762
vt 0.1853 0.0153
vt 0.1404 0.0135
vt 0.1431 0.0768
vt 0.1067 0.0764
vt 0.0992 0.0056
vt 0.0680 0.0119
vt 0.0696 0.0783
vt 0.0353 0.0824
vt 0.0215 0.0243
vt 0.1117 0.2324
vt 0.1160 0.4233
vt 0.0940 0.4244
vt 0.0876 0.2321
vt 0.1890 0.2322
vt 0.1794 0.4129
vt 0.1579 0.4260
vt 0.1628 0.2311
vt 0.1363 0.2319
vt 0.1372 0.4245
vt 0.0720 0.4135
vt 0.0627 0.2333
vt 0.1782 0.4384
vt 0.1696 0.6221
vt 0.1519 0.6344
vt 0.1529 0.4307
vt 0.1372 0.4245
vt 0.1353 0.6309
vt 0.1188 0.6288
vt 0.1210 0.4286
vt 0.1025 0.6310
vt 0.0946 0.4371
vt 0.0853 0.6230
vt 0.0735 0.4390
vt 0.0720 0.6273
vt 0.0709 0.7527
vt 0.0592 0.7506
vt 0.0563 0.6240
vt 0.1858 0.6305
vt 0.2043 0.6339
vt 0.2011 0.7172
vt 0.1878 0.7169
vt 0.0883 0.6294
vt 0.0828 0.7525
vt 0.0473 0.7491
vt 0.0413 0.6354
vt 0.1032 0.6279
vt 0.0948 0.7506
vt 0.0810 0.9322
vt 0.0697 0.9312
vt 0.0607 0.9330
vt 0.0514 0.9326
vt 0.1070 0.7503
vt 0.0924 0.9333
vt 0.1448 0.6798
vt 0.1561 0.6813
vt 0.1333 0.9850
vt 0.1280 0.9843
vt 0.1244 0.6802
vt 0.1334 0.6877
vt 0.1229 0.9850
vt 0.1178 0.9846
vt 0.1335 0.6785
vt 0.1151 0.6795
vt 0.1126 0.9840
vt 0.1405 0.6343
vt 0.1584 0.6305
vt 0.1591 0.7196
vt 0.1456 0.7185
vt 0.1194 0.6370
vt 0.1725 0.6430
vt 0.1753 0.7196
vt 0.1739 0.8131
vt 0.1635 0.8139
vt 0.1543 0.8162
vt 0.1826 0.8150
vt 0.1932 0.8169
vt 0.1785 0.9438
vt 0.1723 0.9430
vt 0.1856 0.9431
vt 0.1645 0.9415
vt 0.1577 0.9427
vt 0.0323 0.2623
vt 0.0420 0.2610
vt 0.0418 0.4145
vt 0.0380 0.4141
vt 0.0317 0.2144
vt 0.0427 0.2102
vt 0.0240 0.2096
vt 0.0244 0.2613
vt 0.0521 0.2096
vt 0.0494 0.2612
vt 0.0346 0.4149
vt 0.0448 0.4147
vt 0.3496 0.0666
vt 0.3503 0.0736
vt 0.3385 0.0720
vt 0.3390 0.0629
vt 0.3315 0.0640
vt 0.3343 0.0543
vt 0.3446 0.0557
vt 0.3515 0.0585
vt 0.3222 0.0572
vt 0.3184 0.0698
vt 0.2917 0.0411
vt 0.3042 0.0468
vt 0.2885 0.0560
vt 0.2779 0.0525
vt 0.2839 0.0708
vt 0.2717 0.0693
vt 0.3270 0.0411
vt 0.3432 0.0411
vt 0.2912 0.0638
vt 0.2985 0.0661
vt 0.3085 0.0646
vt 0.3028 0.0787
vt 0.2915 0.0734
vt 0.3184 0.0726
vt 0.3569 0.0844
vt 0.3440 0.0876
vt 0.3631 0.0674
vt 0.2957 0.0934
vt 0.2895 0.0846
vt 0.2774 0.0848
vt 0.3561 0.0495
vt 0.3184 0.0591
vt 0.3018 0.0590
vt 0.3300 0.0732
vt 0.3319 0.0829
vt 0.3132 0.0863
vt 0.4707 0.0666
vt 0.4714 0.0736
vt 0.4596 0.0720
vt 0.4601 0.0629
vt 0.4526 0.0640
vt 0.4554 0.0543
vt 0.4657 0.0557
vt 0.4726 0.0585
vt 0.4433 0.0572
vt 0.4395 0.0698
vt 0.4128 0.0411
vt 0.4253 0.0468
vt 0.4096 0.0560
vt 0.3990 0.0525
vt 0.4050 0.0708
vt 0.3928 0.0693
vt 0.4481 0.0411
vt 0.4643 0.0411
vt 0.4123 0.0638
vt 0.4196 0.0661
vt 0.4296 0.0646
vt 0.4239 0.0787
vt 0.4126 0.0734
vt 0.4395 0.0726
vt 0.4780 0.0844
vt 0.4651 0.0876
vt 0.4842 0.0674
vt 0.4167 0.0934
vt 0.4106 0.0846
vt 0.3985 0.0848
vt 0.4772 0.0495
vt 0.4395 0.0591
vt 0.4229 0.0590
vt 0.4511 0.0732
vt 0.4530 0.0829
vt 0.4343 0.0863
vt 0.3063 0.9590
vt 0.2875 0.9657
vt 0.2760 0.9491
vt 0.3121 0.9306
vt 0.2876 0.9227
vt 0.3158 0.9321
vt 0.3413 0.9215
vt 0.3573 0.9395
vt 0.3194 0.9579
vt 0.3450 0.9625
vn -0.9196 0.0644 0.3876
vn 0.4863 0.0984 -0.8683
vn 0.0000 0.0230 0.9997
vn -0.4883 -0.0376 -0.8719
vn 0.8772 0.3064 0.3697
vn 0.9466 0.1005 0.3062
vn -0.9504 -0.0434 0.3081
vn 0.5880 0.0230 -0.8086
vn 0.0027 0.0594 0.9982
vn -0.5888 -0.0662 -0.8056
vn 0.0009 0.0787 0.9969
vn -0.9300 0.2093 0.3023
vn -0.5852 0.1020 -0.8045
vn 0.9447 -0.1153 0.3069
vn 0.5843 -0.1013 -0.8052
vn -0.6011 0.6810 0.4182
vn 0.8167 0.0205 -0.5768
vn 0.3857 -0.8902 -0.2426
vn -0.6130 -0.6224 0.4867
vn 0.2459 -0.9401 -0.2360
vn -0.6395 0.7459 -0.1863
vn 0.5647 -0.0080 -0.8253
vn -0.3581 -0.6484 0.6718
vn 0.1223 0.9558 -0.2673
vn 0.7485 0.2094 -0.6292
vn -0.5018 -0.6066 0.6166
vn 0.0785 0.9298 -0.3596
vn 0.4093 -0.9124 0.0088
vn -0.6413 0.7098 0.2913
vn -0.4688 0.8651 0.1784
vn 0.4135 -0.9059 -0.0916
vn 0.6389 0.4022 -0.6558
vn -0.4810 -0.6595 0.5777
vn -0.6414 -0.7176 -0.2714
vn -0.4563 0.5878 0.6681
vn 0.7316 0.5974 0.3285
vn 0.7376 -0.6186 0.2707
vn 0.6620 -0.7495 0.0023
vn -0.7668 -0.6282 0.1319
vn 0.7105 0.6980 -0.0892
vn -0.6052 0.7957 0.0260
vn 0.5287 0.6210 -0.5787
vn -0.6012 0.7450 -0.2889
vn 0.6372 -0.7173 0.2819
vn -0.5854 -0.5609 0.5854
vn -0.4350 0.6018 0.6698
vn 0.6375 0.4585 -0.6191
vn -0.2158 0.4175 0.8827
vn 0.6206 0.3791 -0.6864
vn -0.3192 -0.8644 -0.3885
vn 0.6158 0.3184 -0.7207
vn -0.0862 -0.9955 -0.0390
vn 0.2105 0.9629 -0.1691
vn 0.1314 0.5537 -0.8223
vn 0.6475 0.7208 -0.2473
vn 0.2700 0.8686 -0.4156
vn 0.8214 0.4453 -0.3565
vn 0.7124 0.1009 -0.6945
vn 0.5014 0.8459 0.1815
vn 0.0336 0.9702 0.2399
vn -0.1405 0.5511 0.8225
vn 0.5827 -0.6119 0.5348
vn 0.9482 -0.0818 0.3071
vn -0.5073 -0.0893 0.8571
vn -0.9312 -0.2293 0.2834
vn -0.6163 -0.6963 0.3678
vn 0.0217 -0.7972 0.6034
vn 0.2600 -0.6170 0.7427
vn -0.9998 -0.0193 -0.0074
vn -0.5365 0.3359 -0.7742
vn 0.1527 -0.2122 -0.9652
vn -0.1707 -0.9130 -0.3704
vn 0.5789 -0.6318 -0.5155
vn 0.8356 -0.5149 -0.1915
vn 0.3206 -0.9443 0.0738
vn -0.8055 0.5925 -0.0148
vn -0.6787 0.6395 0.3611
vn -0.0029 0.9692 -0.2462
vn -0.3906 0.8845 -0.2551
vn -0.4851 0.7770 -0.4012
vn 0.3755 0.5727 -0.7287
vn 0.6687 0.2947 -0.6827
vn 0.6850 0.4709 0.5559
vn 0.2483 0.4171 0.8743
vn -0.3990 0.4243 0.8129
vn 0.3258 -0.5996 0.7310
vn 0.9930 -0.1146 -0.0287
vn -0.5059 -0.0927 0.8576
vn -0.8356 0.0691 0.5449
vn -0.3787 -0.6784 0.6296
vn -0.9651 -0.0682 -0.2527
vn -0.3852 0.6376 -0.6672
vn -0.2601 -0.2577 -0.9306
vn 0.4840 -0.3962 -0.7803
vn -0.4311 -0.5962 -0.6773
vn -0.1793 -0.9821 -0.0572
vn 0.5341 -0.7207 -0.4420
vn 0.8110 -0.4885 -0.3218
vn 0.6434 -0.7655 -0.0086
vn 0.5494 -0.8345 -0.0419
vn -0.6622 0.6997 0.2683
vn -0.5244 0.8387 0.1468
vn -0.0995 0.9890 0.1098
vn -0.0121 0.5812 -0.8137
vn 0.6320 0.6824 -0.3673
vn 0.2379 0.8607 -0.4500
vn 0.7628 0.3856 -0.5191
vn 0.5600 0.0800 -0.8246
vn 0.5867 0.8054 0.0845
vn 0.1506 0.9588 0.2409
vn 0.0758 0.5546 0.8286
vn 0.4603 -0.7580 0.4622
vn 0.9810 -0.1666 0.0994
vn -0.3186 -0.1082 0.9417
vn -0.8613 -0.2096 0.4628
vn -0.3795 -0.8444 0.3781
vn -0.0159 -0.9021 0.4312
vn 0.3087 -0.7550 0.5785
vn -0.9773 0.0643 0.2021
vn -0.6415 0.4431 -0.6262
vn -0.0660 -0.2417 -0.9681
vn -0.1728 -0.9690 -0.1765
vn 0.2271 -0.8913 -0.3925
vn 0.6916 -0.6228 -0.3657
vn 0.0774 -0.9957 0.0506
vn -0.7404 0.6525 0.1614
vn -0.5376 0.6802 0.4983
vn 0.0138 0.9742 -0.2253
vn -0.3712 0.9157 -0.1537
vn -0.4974 0.8230 -0.2742
vn 0.2555 0.5810 -0.7728
vn 0.5408 0.2623 -0.7992
vn 0.8148 0.4206 0.3989
vn 0.4542 0.3891 0.8015
vn -0.1962 0.4402 0.8762
vn 0.3774 -0.7413 0.5550
vn 0.9540 -0.1923 -0.2299
vn -0.3223 -0.0950 0.9419
vn -0.6959 0.1354 0.7053
vn -0.1896 -0.8413 0.5062
vn -0.9989 0.0084 -0.0461
vn -0.4692 0.6920 -0.5486
vn -0.4562 -0.2624 -0.8503
vn 0.2513 -0.4729 -0.8446
vn -0.5536 -0.6578 -0.5106
vn -0.1247 -0.9913 0.0412
vn 0.3041 -0.7880 -0.5353
vn 0.6460 -0.5886 -0.4861
vn 0.3707 -0.9281 -0.0337
vn 0.2037 -0.9783 -0.0377
vn -0.5358 0.7407 0.4053
vn -0.4207 0.8678 0.2645
vn -0.0048 0.9898 0.1422
vn -0.8130 -0.3561 -0.4606
vn -0.7554 -0.2774 -0.5937
vn -0.3953 0.6994 0.5955
vn 0.0552 0.9985 0.0000
s off
f 3/1/1 8/2/1 7/3/1 2/4/1
f 1/5/2 6/6/2 10/7/2 5/8/2
f 4/9/3 9/10/3 8/11/3 3/12/3
f 2/4/4 7/3/4 6/6/4 1/5/4
f 5/8/5 10/7/5 9/10/5 4/9/5
f 15/13/6 20/14/6 19/15/6 14/16/6
f 13/17/7 18/18/7 16/19/7 12/20/7
f 11/21/8 17/22/8 20/14/8 15/13/8
f 14/16/9 19/15/9 18/23/9 13/24/9
f 12/20/10 16/19/10 17/22/10 11/21/10
f 9/10/11 14/16/11 13/24/11 8/11/11
f 8/2/12 13/17/12 12/20/12 7/3/12
f 7/3/13 12/20/13 11/21/13 6/6/13
f 10/7/14 15/13/14 14/16/14 9/10/14
f 6/6/15 11/21/15 15/13/15 10/7/15
f 23/25/16 28/26/16 27/27/16 22/28/16
f 21/29/17 26/30/17 30/31/17 25/32/17
f 25/32/18 30/31/18 29/33/18 24/34/18
f 24/34/19 29/33/19 28/35/19 23/36/19
f 30/37/20 35/38/20 34/39/20 29/40/20
f 27/41/21 28/42/21 46/43/21 45/44/21
f 26/45/22 31/46/22 35/38/22 30/37/22
f 29/40/23 34/39/23 33/47/23 44/48/23
f 27/49/24 32/50/24 31/46/24 26/45/24
f 31/46/25 36/51/25 39/52/25 35/38/25
f 34/39/26 38/53/26 37/54/26 33/47/26
f 32/50/27 36/51/27 31/46/27
f 35/38/28 39/52/28 38/53/28 34/39/28
f 33/55/29 37/56/29 36/51/29 32/50/29
f 36/57/30 37/58/30 41/59/30 40/60/30
f 38/61/31 57/62/31 43/63/31 42/64/31
f 39/65/32 36/57/32 57/62/32
f 37/66/33 38/61/33 42/64/33 41/67/33
f 28/68/34 29/69/34 47/70/34 46/71/34
f 27/49/35 44/72/35 33/55/35 32/50/35
f 44/73/36 27/41/36 45/44/36 48/74/36
f 29/69/37 44/73/37 48/74/37 47/70/37
f 47/70/38 48/74/38 52/75/38 51/76/38
f 46/71/39 47/70/39 51/76/39 50/77/39
f 48/74/40 45/44/40 49/78/40 52/75/40
f 45/44/41 46/43/41 50/79/41 49/78/41
f 52/75/42 49/78/42 53/80/42 56/81/42
f 49/78/43 50/79/43 54/82/43 53/80/43
f 51/76/44 52/75/44 56/81/44 55/83/44
f 50/77/45 51/76/45 55/83/45 54/84/45
f 60/85/46 58/86/46 61/87/46 63/88/46
f 57/62/47 36/57/47 40/60/47 43/63/47
f 57/89/48 38/90/48 58/86/48 60/85/48
f 39/91/49 57/89/49 60/85/49 59/92/49
f 38/90/50 39/93/50 59/94/50 58/86/50
f 59/92/51 60/85/51 63/88/51 62/95/51
f 58/86/52 59/94/52 62/96/52 61/87/52
f 22/28/53 27/27/53 26/30/53 21/29/53
f 64/97/54 65/98/54 66/99/54
f 67/100/55 68/101/55 69/102/55
f 66/99/56 68/101/56 67/100/56
f 67/100/57 69/102/57 70/103/57
f 70/103/58 71/104/58 64/97/58
f 69/102/59 68/101/59 72/105/59
f 72/105/60 68/101/60 73/106/60
f 72/107/61 73/108/61 74/109/61
f 75/110/62 76/111/62 77/112/62
f 75/113/63 77/114/63 69/102/63
f 78/115/64 74/109/64 79/116/64
f 79/116/65 80/117/65 81/118/65
f 79/116/66 81/118/66 82/119/66
f 82/119/67 76/111/67 78/115/67
f 78/115/68 76/111/68 74/109/68
f 81/118/69 80/117/69 83/120/69
f 84/121/70 83/122/70 65/98/70
f 65/98/71 64/97/71 85/123/71
f 85/124/72 86/125/72 81/118/72
f 86/125/73 85/124/73 87/126/73
f 87/127/74 70/103/74 77/114/74
f 76/111/75 82/119/75 86/125/75
f 88/128/76 83/120/76 80/117/76
f 80/117/77 89/129/77 73/108/77
f 90/130/78 68/101/78 66/99/78
f 90/130/79 66/99/79 88/131/79
f 88/131/80 66/99/80 83/122/80
f 67/100/81 64/97/81 66/99/81
f 67/100/82 70/103/82 64/97/82
f 75/113/83 69/102/83 72/105/83
f 75/110/84 72/107/84 74/109/84
f 74/109/85 73/108/85 89/129/85
f 75/110/86 74/109/86 76/111/86
f 69/102/87 77/114/87 70/103/87
f 79/116/88 74/109/88 89/129/88
f 79/116/89 89/129/89 80/117/89
f 79/116/90 82/119/90 78/115/90
f 84/132/91 81/118/91 83/120/91
f 65/98/92 83/122/92 66/99/92
f 84/121/93 65/98/93 85/123/93
f 85/123/94 64/97/94 71/104/94
f 84/132/95 85/124/95 81/118/95
f 81/118/96 86/125/96 82/119/96
f 87/127/97 85/123/97 71/104/97
f 87/127/98 71/104/98 70/103/98
f 87/126/99 77/112/99 76/111/99
f 87/126/100 76/111/100 86/125/100
f 88/128/101 80/117/101 73/108/101
f 88/131/102 73/106/102 90/130/102
f 90/130/103 73/106/103 68/101/103
f 91/133/104 92/134/104 93/135/104
f 94/136/105 95/137/105 96/138/105
f 93/135/106 95/137/106 94/136/106
f 94/136/107 96/138/107 97/139/107
f 97/139/108 98/140/108 91/133/108
f 96/138/109 95/137/109 99/141/109
f 99/141/110 95/137/110 100/142/110
f 99/143/111 100/144/111 101/145/111
f 102/146/112 103/147/112 104/148/112
f 102/149/113 104/150/113 96/138/113
f 105/151/114 101/145/114 106/152/114
f 106/152/115 107/153/115 108/154/115
f 106/152/116 108/154/116 109/155/116
f 109/155/117 103/147/117 105/151/117
f 105/151/118 103/147/118 101/145/118
f 108/154/119 107/153/119 110/156/119
f 111/157/120 110/158/120 92/134/120
f 92/134/121 91/133/121 112/159/121
f 112/160/122 113/161/122 108/154/122
f 113/161/123 112/160/123 114/162/123
f 114/163/124 97/139/124 104/150/124
f 103/147/125 109/155/125 113/161/125
f 115/164/126 110/156/126 107/153/126
f 107/153/127 116/165/127 100/144/127
f 117/166/128 95/137/128 93/135/128
f 117/166/129 93/135/129 115/167/129
f 115/167/130 93/135/130 110/158/130
f 94/136/131 91/133/131 93/135/131
f 94/136/132 97/139/132 91/133/132
f 102/149/133 96/138/133 99/141/133
f 102/146/134 99/143/134 101/145/134
f 101/145/135 100/144/135 116/165/135
f 102/146/136 101/145/136 103/147/136
f 96/138/137 104/150/137 97/139/137
f 106/152/138 101/145/138 116/165/138
f 106/152/139 116/165/139 107/153/139
f 106/152/140 109/155/140 105/151/140
f 111/168/141 108/154/141 110/156/141
f 92/134/142 110/158/142 93/135/142
f 111/157/143 92/134/143 112/159/143
f 112/159/144 91/133/144 98/140/144
f 111/168/145 112/160/145 108/154/145
f 108/154/146 113/161/146 109/155/146
f 114/163/147 112/159/147 98/140/147
f 114/163/148 98/140/148 97/139/148
f 114/162/149 104/148/149 103/147/149
f 114/162/150 103/147/150 113/161/150
f 115/164/151 107/153/151 100/144/151
f 115/167/152 100/142/152 117/166/152
f 117/166/153 100/142/153 95/137/153
f 22/169/154 21/170/154 25/171/154
f 23/172/155 22/169/155 25/171/155 24/173/155
f 16/174/156 18/175/156 19/176/156
f 17/177/157 16/174/157 19/176/157 20/178/157
