# Blender v2.78 (sub 0) OBJ File: 'Low_Poly_Trees_Pack.blend'
# www.blender.org
g Birch_Tree_m_06
v -0.000000 0.000000 -0.127240
v -0.120534 0.000000 -0.039667
v -0.074494 0.000000 0.102030
v 0.074494 0.000000 0.102030
v 0.120534 0.000000 -0.039667
v -0.058676 1.111064 -0.103749
v -0.153176 1.095121 -0.034121
v -0.117080 1.101210 0.078540
v -0.000273 1.120918 0.078540
v 0.035823 1.127008 -0.034121
v -0.230812 2.513581 -0.085243
v -0.305665 2.498399 -0.029752
v -0.277073 2.504198 0.060035
v -0.175166 2.451569 0.060977
v -0.155959 2.528764 -0.029752
v -0.484314 4.024905 -0.050030
v -0.522881 4.017083 -0.021439
v -0.508149 4.020070 0.024822
v -0.460479 4.029740 0.024822
v -0.445747 4.032728 -0.021439
v 0.106548 0.255166 -0.038751
v 0.163190 0.305991 -0.141565
v 0.237579 0.297570 -0.014799
v 0.261848 0.234167 -0.087953
v 0.160572 0.375916 -0.059479
v 0.510836 1.773014 -0.346854
v 0.559446 1.769353 -0.269218
v 0.586544 1.752213 -0.321753
v 0.494479 1.797978 -0.287243
v 0.651451 3.226816 -0.442417
v 0.683777 3.223552 -0.392964
v 0.701245 3.218081 -0.427439
v 0.640302 3.237555 -0.402911
v -0.211295 2.665006 0.056571
v -0.126944 2.669408 0.256368
v -0.051140 2.630260 0.257069
v -0.036853 2.687681 0.189581
v -0.103224 2.733784 0.197298
v 0.021568 3.205091 0.593417
v 0.075231 3.188901 0.601697
v 0.081365 3.215037 0.548477
v 0.035262 3.223230 0.548648
v 0.030071 3.988018 0.772792
v 0.064503 3.979836 0.779344
v 0.068170 3.993514 0.744229
v 0.038681 3.997344 0.743535
v -0.380138 4.972598 1.030620
v -0.253083 5.195348 0.819540
v -0.448456 4.539634 0.620997
v -0.384254 3.989155 0.664650
v -0.304661 3.811641 0.897694
v -0.367961 4.385781 1.163468
v -0.110134 4.641510 0.360726
v 0.048291 5.248142 0.627267
v 0.222279 4.705434 0.402092
v 0.377835 5.116485 0.784314
v 0.439846 4.480229 0.504584
v 0.058397 3.961489 0.352362
v 0.536186 4.728170 0.892452
v 0.310770 5.127585 1.056175
v 0.367482 4.514449 1.249846
v 0.461676 3.930284 0.861304
v 0.363432 3.913216 0.549991
v 0.028150 5.150322 1.192777
v -0.041799 4.611313 1.354047
v 0.062369 3.879096 1.199486
v 0.004810 3.537878 0.856290
v 0.087716 3.573695 0.601235
v -1.584642 6.060332 0.236033
v -1.519660 6.554746 -0.103222
v -1.608542 4.985616 -0.292199
v -1.240433 4.034975 -0.165466
v -1.027919 3.783067 0.196850
v -1.419175 4.874392 0.511297
v -1.098594 5.266059 -0.680566
v -1.083851 6.632829 -0.391760
v -0.588851 5.518893 -0.636025
v -0.528922 6.455338 -0.158691
v -0.156817 5.172842 -0.470143
v -0.573153 4.049614 -0.603827
v -0.169972 5.733945 0.093784
v -0.708793 6.687691 0.239723
v -0.356976 5.359164 0.658758
v -0.011842 4.201073 0.147250
v -0.121345 4.083380 -0.304617
v -1.186492 6.817793 0.443885
v -1.010636 5.449307 0.783210
v -0.570459 4.062224 0.634242
v -0.396609 3.372729 0.180320
v -0.306793 3.402840 -0.192693
v 0.202319 5.108397 -0.262718
v 0.375156 5.388741 -0.544610
v 0.108514 4.398597 -0.687392
v 0.153800 3.596274 -0.547168
v 0.232585 3.376377 -0.238084
v 0.179828 4.272300 -0.012297
v 0.531499 4.481941 -1.001091
v 0.748549 5.414841 -0.770872
v 0.935566 4.567352 -0.948768
v 1.134465 5.235526 -0.550051
v 1.182620 4.245890 -0.782901
v 0.697276 3.474587 -0.898835
v 1.300599 4.678766 -0.354365
v 1.045334 5.306866 -0.229590
v 1.073250 4.441569 0.099307
v 1.166712 3.506048 -0.270392
v 1.056953 3.426516 -0.643444
v 0.700631 5.380044 -0.080856
v 0.580648 4.623499 0.192913
v 0.670369 3.514878 0.126145
v 0.592600 2.951788 -0.233021
v 0.702976 2.951699 -0.540087
vt 0.0838 0.0872
vt 0.0917 0.2912
vt 0.0700 0.2935
vt 0.0590 0.1340
vt 0.1645 0.0863
vt 0.1570 0.2919
vt 0.1353 0.2897
vt 0.1376 0.0871
vt 0.1107 0.0876
vt 0.1134 0.2893
vt 0.0567 0.5728
vt 0.0686 0.5318
vt 0.0737 0.5832
vt 0.0594 0.5923
vt 0.1787 0.2934
vt 0.1676 0.5524
vt 0.1506 0.5382
vt 0.1332 0.5497
vt 0.1160 0.5495
vt 0.0988 0.5508
vt 0.0816 0.5525
vt 0.0539 0.6125
vt 0.0655 0.9308
vt 0.0584 0.9312
vt 0.0403 0.6144
vt 0.1615 0.6354
vt 0.1802 0.6490
vt 0.1788 0.6784
vt 0.1663 0.6776
vt 0.0674 0.6111
vt 0.0726 0.9306
vt 0.1082 0.6132
vt 0.0940 0.9308
vt 0.0869 0.9304
vt 0.0937 0.6420
vt 0.0810 0.6113
vt 0.0798 0.9304
vt 0.0725 0.8063
vt 0.0623 0.8092
vt 0.1892 0.1341
vt 0.0887 0.5396
vt 0.0873 0.5785
vt 0.0814 0.8056
vt 0.1091 0.5336
vt 0.1056 0.5845
vt 0.1215 0.5742
vt 0.1187 0.5937
vt 0.0758 0.7270
vt 0.0875 0.7285
vt 0.0876 0.9412
vt 0.0800 0.9405
vt 0.0569 0.7317
vt 0.0670 0.7283
vt 0.0743 0.9411
vt 0.0678 0.9430
vt 0.0930 0.8078
vt 0.1024 0.8106
vt 0.0970 0.7308
vt 0.0937 0.9425
vt 0.1455 0.6394
vt 0.1529 0.6789
vt 0.1983 0.6354
vt 0.2126 0.6397
vt 0.2060 0.6787
vt 0.1933 0.6776
vt 0.1876 0.7790
vt 0.1804 0.7790
vt 0.1737 0.7788
vt 0.1648 0.7788
vt 0.1959 0.7786
vt 0.1812 0.8984
vt 0.1771 0.8977
vt 0.1907 0.8966
vt 0.1857 0.8978
vt 0.1717 0.8967
vt 0.4348 0.0388
vt 0.4329 0.0300
vt 0.4462 0.0330
vt 0.4513 0.0391
vt 0.4517 0.0468
vt 0.4402 0.0481
vt 0.4507 0.0172
vt 0.4291 0.0172
vt 0.4664 0.0679
vt 0.4664 0.0924
vt 0.4553 0.0793
vt 0.4518 0.0941
vt 0.4473 0.0824
vt 0.4448 0.0643
vt 0.4435 0.0922
vt 0.4477 0.1017
vt 0.4340 0.0988
vt 0.4344 0.0857
vt 0.4390 0.0778
vt 0.4483 0.1137
vt 0.4297 0.0594
vt 0.4487 0.0642
vt 0.4258 0.1130
vt 0.4184 0.0949
vt 0.4621 0.0530
vt 0.4689 0.0421
vt 0.4660 0.0266
vt 0.4285 0.0700
vt 0.4186 0.0787
vt 0.4184 0.0410
vt 0.3020 0.0388
vt 0.3001 0.0300
vt 0.3134 0.0330
vt 0.3185 0.0391
vt 0.3188 0.0468
vt 0.3074 0.0481
vt 0.3179 0.0172
vt 0.2963 0.0172
vt 0.3336 0.0679
vt 0.3336 0.0924
vt 0.3225 0.0793
vt 0.3190 0.0941
vt 0.3145 0.0824
vt 0.3120 0.0643
vt 0.3106 0.0922
vt 0.3148 0.1017
vt 0.3012 0.0988
vt 0.3016 0.0857
vt 0.3062 0.0778
vt 0.3155 0.1137
vt 0.2969 0.0594
vt 0.3159 0.0642
vt 0.2930 0.1130
vt 0.2856 0.0949
vt 0.3293 0.0530
vt 0.3361 0.0421
vt 0.3332 0.0266
vt 0.2957 0.0700
vt 0.2858 0.0787
vt 0.2856 0.0410
vt 0.5530 0.0388
vt 0.5510 0.0300
vt 0.5644 0.0330
vt 0.5695 0.0391
vt 0.5698 0.0468
vt 0.5584 0.0481
vt 0.5688 0.0172
vt 0.5473 0.0172
vt 0.5846 0.0679
vt 0.5846 0.0924
vt 0.5735 0.0793
vt 0.5700 0.0941
vt 0.5654 0.0824
vt 0.5630 0.0643
vt 0.5616 0.0922
vt 0.5658 0.1017
vt 0.5521 0.0988
vt 0.5525 0.0857
vt 0.5572 0.0778
vt 0.5665 0.1137
vt 0.5479 0.0594
vt 0.5669 0.0642
vt 0.5440 0.1130
vt 0.5365 0.0949
vt 0.5803 0.0530
vt 0.5871 0.0421
vt 0.5842 0.0266
vt 0.5467 0.0700
vt 0.5368 0.0787
vt 0.5365 0.0410
vn 0.5757 0.0491 -0.8162
vn -0.0016 0.0211 0.9998
vn -0.5894 -0.0138 -0.8077
vn -0.2959 0.4335 0.8512
vn -0.9510 -0.0301 0.3078
vn 0.9425 0.1280 0.3087
vn -0.9456 -0.1037 0.3082
vn 0.5824 0.0822 -0.8087
vn -0.0024 0.0129 0.9999
vn -0.5858 -0.0612 -0.8081
vn 0.5763 0.1155 -0.8090
vn 0.4221 0.6219 -0.6596
vn -0.5833 -0.0790 -0.8084
vn 0.9326 0.1778 0.3142
vn -0.9414 -0.1363 0.3086
vn -0.2546 0.2148 0.9429
vn 0.9421 0.0719 0.3274
vn 0.8474 -0.3655 0.3852
vn 0.8895 -0.1204 0.4407
vn 0.4286 -0.3387 -0.8376
vn -0.8668 0.4190 -0.2704
vn 0.2836 -0.0906 -0.9547
vn -0.2114 0.1002 0.9723
vn 0.3095 -0.2063 -0.9283
vn -0.9497 0.1863 -0.2519
vn -0.9539 0.0732 -0.2911
vn 0.8856 -0.0361 0.4630
vn 0.8881 -0.4255 -0.1740
vn -0.3139 -0.5945 0.7403
vn -0.0035 0.0227 0.9997
vn -0.8361 0.4277 0.3436
vn -0.9433 0.3210 -0.0848
vn 0.9743 -0.2252 0.0089
vn -0.2570 -0.4636 0.8479
vn 0.1967 0.5276 -0.8264
vn 0.0455 0.2440 -0.9687
vn -0.2199 -0.2161 0.9513
vn -0.9620 0.0707 -0.2636
vn 0.9943 -0.0100 0.1058
vn -0.9206 0.3350 -0.2006
vn -0.9642 -0.1913 0.1836
vn -0.5345 0.4531 -0.7134
vn 0.0386 0.3935 -0.9185
vn 0.6716 0.3521 -0.6519
vn 0.4026 -0.0275 -0.9150
vn -0.5793 -0.1314 -0.8045
vn 0.8134 0.2423 0.5288
vn 0.9216 -0.1007 0.3748
vn 0.9451 -0.1506 -0.2900
vn 0.4340 0.3076 0.8468
vn -0.5814 0.1681 0.7960
vn -0.3597 -0.2414 0.9013
vn 0.2040 -0.1743 0.9633
vn 0.6299 -0.3572 0.6897
vn -0.6515 -0.6929 -0.3091
vn -0.5234 -0.4879 -0.6986
vn 0.7455 -0.6357 -0.2004
vn 0.6473 -0.7550 0.1044
vn 0.5431 -0.6392 0.5445
vn 0.3506 0.9353 0.0483
vn -0.5022 0.7283 0.4663
vn -0.9885 0.0136 0.1505
vn -0.9875 -0.1059 0.1165
vn -0.6323 0.3909 -0.6689
vn 0.5253 0.4643 -0.7131
vn 0.1156 0.0409 -0.9924
vn 0.5231 -0.1378 -0.8411
vn -0.5769 -0.1331 -0.8059
vn 0.8876 0.2551 -0.3836
vn 0.8861 0.4175 0.2015
vn 0.9783 -0.0840 -0.1893
vn 0.2923 0.2391 0.9259
vn -0.4641 0.3086 0.8303
vn -0.5361 -0.4026 0.7420
vn -0.4402 -0.5988 0.6691
vn -0.6536 -0.6928 -0.3045
vn 0.4284 -0.4649 -0.7748
vn 0.1621 0.9713 0.1738
vn -0.0652 0.9837 0.1678
vn -0.9935 0.0674 -0.0921
vn -0.8866 -0.3897 0.2491
vn -0.5652 0.1764 -0.8059
vn -0.0171 0.2069 -0.9782
vn 0.5647 0.3458 -0.7493
vn 0.3466 -0.0168 -0.9379
vn -0.4718 -0.2935 -0.8314
vn 0.7836 0.3659 0.5021
vn 0.9202 0.1081 0.3763
vn 0.9721 -0.0040 -0.2345
vn 0.4488 0.3747 0.8113
vn -0.6358 0.0892 0.7667
vn -0.3281 -0.2032 0.9225
vn 0.1804 -0.0483 0.9824
vn 0.6694 -0.1240 0.7325
vn -0.5534 -0.8089 -0.1986
vn -0.4284 -0.6038 -0.6723
vn 0.9463 -0.2834 -0.1555
vn 0.8945 -0.4082 0.1824
vn 0.6692 -0.2834 0.6869
vn 0.4069 0.8570 -0.3161
vn -0.8642 0.3569 0.3546
vn -0.9724 -0.0852 0.2174
vn -0.9262 -0.3357 0.1718
vn -0.6443 0.1273 -0.7541
vn 0.4589 0.3800 -0.8031
vn 0.0972 -0.0208 -0.9950
vn 0.5545 -0.1073 -0.8252
vn -0.5233 -0.2769 -0.8059
vn 0.8898 0.3338 -0.3113
vn 0.8722 0.4749 0.1168
vn 0.9921 0.0997 -0.0760
vn 0.2152 0.2610 0.9411
vn -0.6200 0.1128 0.7764
vn -0.4943 -0.3996 0.7720
vn -0.3544 -0.5749 0.7375
vn -0.5322 -0.8088 -0.2501
vn 0.5447 -0.2785 -0.7910
vn 0.1810 0.9647 -0.1913
vn -0.3242 0.9144 -0.2422
vn -0.9171 0.2869 -0.2770
vn -0.9789 -0.1022 0.1768
vn -0.5078 0.3159 -0.8015
vn 0.0790 0.2215 -0.9720
vn 0.7083 0.1942 -0.6787
vn 0.4264 -0.1339 -0.8946
vn -0.5645 -0.1729 -0.8071
vn 0.8178 0.2273 0.5287
vn 0.9065 -0.0737 0.4157
vn 0.9525 -0.1870 -0.2404
vn 0.4323 0.3325 0.8382
vn -0.6026 0.2438 0.7599
vn -0.3926 -0.0869 0.9156
vn 0.1702 -0.0455 0.9844
vn 0.6033 -0.2403 0.7605
vn -0.7329 -0.6273 -0.2633
vn -0.5503 -0.4764 -0.6857
vn 0.7868 -0.6087 -0.1017
vn 0.6816 -0.6895 0.2452
vn 0.5328 -0.5062 0.6782
vn 0.4537 0.8883 -0.0716
vn -0.5468 0.7369 0.3976
vn -0.9913 0.0615 0.1162
vn -0.9944 -0.0390 0.0977
vn -0.6073 0.2712 -0.7468
vn 0.5728 0.2875 -0.7676
vn 0.1439 -0.0765 -0.9866
vn 0.5448 -0.2212 -0.8089
vn -0.5622 -0.1746 -0.8084
vn 0.9116 0.1357 -0.3880
vn 0.9231 0.3392 0.1812
vn 0.9816 -0.1226 -0.1464
vn 0.2801 0.2871 0.9160
vn -0.4881 0.3644 0.7931
vn -0.5780 -0.2313 0.7826
vn -0.5005 -0.4154 0.7596
vn -0.7353 -0.6266 -0.2583
vn 0.4559 -0.5001 -0.7362
vn 0.2341 0.9700 0.0652
vn -0.0410 0.9980 0.0475
s off
f 1/1/1 6/2/1 10/3/1 21/4/1
f 4/5/2 9/6/2 8/7/2 3/8/2
f 2/9/3 7/10/3 6/2/3 1/1/3
f 21/11/4 4/12/4 23/13/4 25/14/4
f 3/8/5 8/7/5 7/10/5 2/9/5
f 10/15/6 15/16/6 14/17/6 9/6/6
f 8/7/7 13/18/7 12/19/7 7/10/7
f 6/2/8 11/20/8 15/21/8 10/3/8
f 9/6/9 14/17/9 13/18/9 8/7/9
f 7/10/10 12/19/10 11/20/10 6/2/10
f 11/22/11 16/23/11 20/24/11 15/25/11
f 15/26/12 34/27/12 38/28/12 37/29/12
f 12/30/13 17/31/13 16/23/13 11/22/13
f 15/32/14 20/33/14 19/34/14 34/35/14
f 13/36/15 18/37/15 17/31/15 12/30/15
f 25/14/16 23/13/16 27/38/16 29/39/16
f 4/5/17 21/40/17 10/15/17 9/6/17
f 4/12/18 5/41/18 24/42/18 23/13/18
f 23/13/19 24/42/19 28/43/19 27/38/19
f 5/41/20 1/44/20 22/45/20 24/42/20
f 1/44/21 21/46/21 25/47/21 22/45/21
f 28/48/22 26/49/22 30/50/22 32/51/22
f 29/52/23 27/53/23 31/54/23 33/55/23
f 24/42/24 22/45/24 26/56/24 28/43/24
f 22/45/25 25/47/25 29/57/25 26/56/25
f 26/49/26 29/58/26 33/59/26 30/50/26
f 27/53/27 28/48/27 32/51/27 31/54/27
f 14/60/28 15/26/28 37/29/28 36/61/28
f 13/62/29 14/63/29 36/64/29 35/65/29
f 13/36/30 34/35/30 19/34/30 18/37/30
f 34/27/31 13/62/31 35/65/31 38/28/31
f 38/28/32 35/65/32 39/66/32 42/67/32
f 36/61/33 37/29/33 41/68/33 40/69/33
f 35/65/34 36/64/34 40/70/34 39/66/34
f 37/29/35 38/28/35 42/67/35 41/68/35
f 41/68/36 42/67/36 46/71/36 45/72/36
f 39/66/37 40/70/37 44/73/37 43/74/37
f 42/67/38 39/66/38 43/74/38 46/71/38
f 40/69/39 41/68/39 45/72/39 44/75/39
f 47/76/40 48/77/40 49/78/40
f 50/79/41 51/80/41 52/81/41
f 53/82/42 48/77/42 54/83/42
f 53/84/43 54/85/43 55/86/43
f 55/86/44 56/87/44 57/88/44
f 55/86/45 57/88/45 58/89/45
f 53/82/46 50/79/46 49/78/46
f 59/90/47 60/91/47 61/92/47
f 59/90/48 61/92/48 62/93/48
f 62/93/49 63/94/49 57/88/49
f 61/92/50 60/91/50 64/95/50
f 65/96/51 47/76/51 52/81/51
f 65/96/52 52/81/52 66/97/52
f 65/98/53 66/99/53 61/92/53
f 66/99/54 62/93/54 61/92/54
f 67/100/55 50/79/55 68/101/55
f 68/101/56 50/79/56 58/102/56
f 68/103/57 63/94/57 62/93/57
f 68/103/58 62/93/58 67/104/58
f 67/104/59 62/93/59 66/99/59
f 60/91/60 56/87/60 54/85/60
f 48/77/61 47/76/61 64/105/61
f 49/78/62 52/81/62 47/76/62
f 49/78/63 50/79/63 52/81/63
f 53/82/64 49/78/64 48/77/64
f 55/86/65 54/85/65 56/87/65
f 53/84/66 55/86/66 58/89/66
f 58/89/67 57/88/67 63/94/67
f 53/82/68 58/102/68 50/79/68
f 59/90/69 57/88/69 56/87/69
f 59/90/70 56/87/70 60/91/70
f 59/90/71 62/93/71 57/88/71
f 65/98/72 61/92/72 64/95/72
f 65/96/73 64/105/73 47/76/73
f 66/97/74 52/81/74 51/80/74
f 67/100/75 66/97/75 51/80/75
f 67/100/76 51/80/76 50/79/76
f 68/103/77 58/89/77 63/94/77
f 64/95/78 60/91/78 54/85/78
f 64/105/79 54/83/79 48/77/79
f 69/106/80 70/107/80 71/108/80
f 72/109/81 73/110/81 74/111/81
f 75/112/82 70/107/82 76/113/82
f 75/114/83 76/115/83 77/116/83
f 77/116/84 78/117/84 79/118/84
f 77/116/85 79/118/85 80/119/85
f 75/112/86 72/109/86 71/108/86
f 81/120/87 82/121/87 83/122/87
f 81/120/88 83/122/88 84/123/88
f 84/123/89 85/124/89 79/118/89
f 83/122/90 82/121/90 86/125/90
f 87/126/91 69/106/91 74/111/91
f 87/126/92 74/111/92 88/127/92
f 87/128/93 88/129/93 83/122/93
f 88/129/94 84/123/94 83/122/94
f 89/130/95 72/109/95 90/131/95
f 90/131/96 72/109/96 80/132/96
f 90/133/97 85/124/97 84/123/97
f 90/133/98 84/123/98 89/134/98
f 89/134/99 84/123/99 88/129/99
f 82/121/100 78/117/100 76/115/100
f 70/107/101 69/106/101 86/135/101
f 71/108/102 74/111/102 69/106/102
f 71/108/103 72/109/103 74/111/103
f 75/112/104 71/108/104 70/107/104
f 77/116/105 76/115/105 78/117/105
f 75/114/106 77/116/106 80/119/106
f 80/119/107 79/118/107 85/124/107
f 75/112/108 80/132/108 72/109/108
f 81/120/109 79/118/109 78/117/109
f 81/120/110 78/117/110 82/121/110
f 81/120/111 84/123/111 79/118/111
f 87/128/112 83/122/112 86/125/112
f 87/126/113 86/135/113 69/106/113
f 88/127/114 74/111/114 73/110/114
f 89/130/115 88/127/115 73/110/115
f 89/130/116 73/110/116 72/109/116
f 90/133/117 80/119/117 85/124/117
f 86/125/118 82/121/118 76/115/118
f 86/135/119 76/113/119 70/107/119
f 91/136/120 92/137/120 93/138/120
f 94/139/121 95/140/121 96/141/121
f 97/142/122 92/137/122 98/143/122
f 97/144/123 98/145/123 99/146/123
f 99/146/124 100/147/124 101/148/124
f 99/146/125 101/148/125 102/149/125
f 97/142/126 94/139/126 93/138/126
f 103/150/127 104/151/127 105/152/127
f 103/150/128 105/152/128 106/153/128
f 106/153/129 107/154/129 101/148/129
f 105/152/130 104/151/130 108/155/130
f 109/156/131 91/136/131 96/141/131
f 109/156/132 96/141/132 110/157/132
f 109/158/133 110/159/133 105/152/133
f 110/159/134 106/153/134 105/152/134
f 111/160/135 94/139/135 112/161/135
f 112/161/136 94/139/136 102/162/136
f 112/163/137 107/154/137 106/153/137
f 112/163/138 106/153/138 111/164/138
f 111/164/139 106/153/139 110/159/139
f 104/151/140 100/147/140 98/145/140
f 92/137/141 91/136/141 108/165/141
f 93/138/142 96/141/142 91/136/142
f 93/138/143 94/139/143 96/141/143
f 97/142/144 93/138/144 92/137/144
f 99/146/145 98/145/145 100/147/145
f 97/144/146 99/146/146 102/149/146
f 102/149/147 101/148/147 107/154/147
f 97/142/148 102/162/148 94/139/148
f 103/150/149 101/148/149 100/147/149
f 103/150/150 100/147/150 104/151/150
f 103/150/151 106/153/151 101/148/151
f 109/158/152 105/152/152 108/155/152
f 109/156/153 108/165/153 91/136/153
f 110/157/154 96/141/154 95/140/154
f 111/160/155 110/157/155 95/140/155
f 111/160/156 95/140/156 94/139/156
f 112/163/157 102/149/157 107/154/157
f 108/155/158 104/151/158 98/145/158
f 108/165/159 98/143/159 92/137/159
