# Blender v2.78 (sub 0) OBJ File: 'Low_Poly_Trees_Pack.blend'
# www.blender.org
g Birch_Tree_l_01
v -0.021531 0.000000 -0.216000
v -0.302585 0.000000 -0.066748
v -0.195232 0.000000 0.174748
v 0.152170 0.000000 0.174748
v 0.259524 0.000000 -0.066748
v 0.153187 0.664153 -0.216000
v -0.052241 0.664153 -0.066748
v 0.026225 0.664153 0.174748
v 0.280149 0.664153 0.174748
v 0.358615 0.664153 -0.066748
v 0.279934 1.614754 -0.191391
v 0.100381 1.614754 -0.060938
v 0.168964 1.614754 0.150139
v 0.390904 1.614754 0.150139
v 0.459487 1.614754 -0.060938
v 0.358864 3.992183 -0.169570
v 0.202255 3.992183 -0.055787
v 0.262075 3.992183 0.128318
v 0.455654 3.992183 0.128318
v 0.508365 3.676220 -0.056524
v 0.162602 4.970429 -0.134094
v 0.045709 4.946549 -0.047412
v 0.090358 4.955671 0.092843
v 0.234847 4.985187 0.092843
v 0.279496 4.994309 -0.047412
v 0.025716 7.621896 -0.107501
v -0.065347 7.629084 -0.041134
v -0.030564 7.626338 0.066250
v 0.081996 7.617454 0.066250
v 0.116779 7.614707 -0.041134
v 0.465881 4.313004 -0.065183
v 1.202326 5.151192 -0.066790
v 1.229332 5.188612 0.128648
v 1.338504 5.148953 0.017016
v 1.132676 5.299726 0.007763
v 1.723955 6.876063 0.149622
v 1.728841 6.911996 0.296907
v 1.804753 6.914581 0.214775
v 1.648490 6.970293 0.204362
v 1.943051 8.520567 0.318839
v 1.932306 8.541492 0.375638
v 1.972795 8.546397 0.347907
v 1.896758 8.548453 0.329919
v 2.386516 8.467685 -0.084828
v 1.995155 8.119539 0.113097
v 1.675005 8.926137 -0.440979
v 2.209869 9.728978 -0.588383
v 1.788465 10.410414 -0.591157
v 2.311526 11.108283 -0.405649
v 2.724028 10.080251 -0.238383
v 2.728094 9.226972 0.093945
v 1.688871 11.486955 -0.202418
v 1.205495 10.995970 -0.028716
v 1.677212 12.027620 0.630052
v 2.119063 11.993032 0.282752
v 2.407851 11.188785 1.076211
v 2.666090 11.279931 0.389345
v 1.709769 11.525267 1.117116
v 1.309241 10.695129 1.259013
v 0.965455 9.770724 0.755446
v 1.665432 8.940244 1.282901
v 2.056642 10.460550 1.429599
v 1.244914 8.544784 0.457748
v 1.646066 8.264719 0.701493
v 2.367003 8.490853 0.711965
v 2.491828 9.352081 1.028861
v 2.785925 9.922180 0.537504
v 1.117192 9.359306 0.090878
v 1.064875 10.908715 0.720012
v 1.329430 9.861531 -0.319752
v 1.691511 12.337424 0.898695
v 1.148103 11.001395 1.246819
v 1.373628 8.644148 0.365179
v 1.730040 10.979938 -0.430277
v 1.205970 9.149097 -0.790749
v 1.118418 12.039804 -1.367078
v 1.672903 13.920696 -0.632107
v 1.401075 14.634390 0.405422
v 0.343537 9.613782 -1.323976
v -0.006890 7.618422 -0.817928
v -0.922276 11.212364 -1.320866
v -0.233209 12.450677 -1.608278
v -1.023356 15.311173 -0.525248
v 0.164845 15.254936 -1.059008
v -1.467688 12.190970 -0.719057
v -1.622879 10.352454 0.030611
v -0.780671 7.744247 0.495940
v -0.969555 11.859127 1.368124
v -1.733295 13.989853 0.321405
v 0.095551 8.249311 1.175290
v 0.073073 10.453927 1.518919
v 0.419438 13.717534 1.598431
v -0.249005 15.362667 0.958251
v 0.477727 15.967562 0.155390
v 0.256365 7.146654 0.403724
v -1.009940 8.322631 -0.338736
v 0.748132 7.458077 -0.192255
vt 0.1423 0.0274
vt 0.1430 0.1021
vt 0.1152 0.1002
vt 0.1159 0.0237
vt 0.0852 0.0330
vt 0.0880 0.1055
vt 0.0615 0.1109
vt 0.0532 0.0415
vt 0.1762 0.0378
vt 0.1697 0.1085
vt 0.2036 0.0424
vt 0.1964 0.1120
vt 0.1884 0.2131
vt 0.1644 0.2112
vt 0.1402 0.2085
vt 0.1160 0.2077
vt 0.0919 0.2097
vt 0.0677 0.2121
vt 0.0940 0.4718
vt 0.0721 0.4380
vt 0.1582 0.4725
vt 0.1370 0.4731
vt 0.1153 0.4732
vt 0.1808 0.4384
vt 0.0977 0.5806
vt 0.0818 0.5818
vt 0.0741 0.5050
vt 0.1447 0.5832
vt 0.1290 0.5808
vt 0.1134 0.5798
vt 0.1033 0.6314
vt 0.0984 0.8982
vt 0.0890 0.8985
vt 0.0909 0.6302
vt 0.0788 0.6286
vt 0.0799 0.9001
vt 0.0704 0.9008
vt 0.0667 0.6285
vt 0.0547 0.6301
vt 0.0611 0.8998
vt 0.0518 0.8989
vt 0.0425 0.6324
vt 0.1754 0.5093
vt 0.1607 0.5853
vt 0.0959 0.1994
vt 0.1232 0.1720
vt 0.1170 0.3243
vt 0.0964 0.3306
vt 0.1539 0.1483
vt 0.1343 0.3248
vt 0.0823 0.1631
vt 0.0801 0.3184
vt 0.0470 0.1452
vt 0.0646 0.3265
vt 0.1252 0.5242
vt 0.1117 0.5287
vt 0.1371 0.5248
vt 0.0997 0.5211
vt 0.0905 0.5290
vt 0.1159 0.6710
vt 0.1252 0.6782
vt 0.1274 0.8224
vt 0.1230 0.8204
vt 0.1077 0.6768
vt 0.1198 0.8232
vt 0.1367 0.6756
vt 0.1324 0.8222
vt 0.1465 0.6771
vt 0.1367 0.8227
vt 0.3505 0.0605
vt 0.3513 0.0681
vt 0.3385 0.0663
vt 0.3391 0.0566
vt 0.3309 0.0577
vt 0.3340 0.0472
vt 0.3451 0.0487
vt 0.3526 0.0517
vt 0.3208 0.0503
vt 0.3167 0.0640
vt 0.2878 0.0329
vt 0.3014 0.0390
vt 0.2843 0.0491
vt 0.2729 0.0452
vt 0.2793 0.0651
vt 0.2661 0.0634
vt 0.3260 0.0329
vt 0.3436 0.0329
vt 0.2873 0.0575
vt 0.2952 0.0600
vt 0.3060 0.0583
vt 0.2999 0.0736
vt 0.2876 0.0679
vt 0.3167 0.0670
vt 0.3585 0.0798
vt 0.3445 0.0833
vt 0.3652 0.0614
vt 0.2921 0.0896
vt 0.2854 0.0800
vt 0.2723 0.0803
vt 0.3577 0.0419
vt 0.3167 0.0523
vt 0.2988 0.0523
vt 0.3293 0.0677
vt 0.3313 0.0782
vt 0.3111 0.0819
vt 0.3505 0.0605
vt 0.3513 0.0681
vt 0.3385 0.0663
vt 0.3391 0.0566
vt 0.3309 0.0577
vt 0.3340 0.0472
vt 0.3451 0.0487
vt 0.3526 0.0517
vt 0.3208 0.0503
vt 0.3167 0.0640
vt 0.2878 0.0329
vt 0.3014 0.0390
vt 0.2843 0.0491
vt 0.2729 0.0452
vt 0.2793 0.0651
vt 0.2661 0.0634
vt 0.3260 0.0329
vt 0.3436 0.0329
vt 0.2873 0.0575
vt 0.2952 0.0600
vt 0.3060 0.0583
vt 0.2999 0.0736
vt 0.2876 0.0679
vt 0.3167 0.0670
vt 0.3585 0.0798
vt 0.3445 0.0833
vt 0.3652 0.0614
vt 0.2921 0.0896
vt 0.2854 0.0800
vt 0.2723 0.0803
vt 0.3577 0.0419
vt 0.3167 0.0523
vt 0.2988 0.0523
vt 0.3293 0.0677
vt 0.3313 0.0782
vt 0.3111 0.0819
vn -0.8859 0.3147 0.3408
vn 0.5200 -0.1072 -0.8474
vn 0.0000 0.0000 1.0000
vn -0.5158 0.1651 -0.8406
vn 0.9217 -0.1576 0.3546
vn 0.9461 -0.1023 0.3074
vn -0.9404 0.1491 0.3056
vn 0.5868 -0.0573 -0.8077
vn 0.0000 0.0259 0.9997
vn -0.5849 0.0988 -0.8051
vn 0.5872 -0.0121 -0.8093
vn 0.0000 0.0092 1.0000
vn -0.5876 0.0269 -0.8087
vn 0.9506 -0.0231 0.3097
vn -0.9503 0.0401 0.3088
vn 0.5050 0.1437 -0.8511
vn -0.0031 0.0356 0.9994
vn -0.5838 -0.0883 -0.8071
vn -0.9388 -0.1564 0.3068
vn 0.9502 0.0583 0.3063
vn -0.9511 -0.0401 0.3061
vn 0.5903 0.0386 -0.8063
vn -0.0008 0.0100 0.9999
vn -0.5914 -0.0225 -0.8061
vn 0.9022 0.2233 0.3691
vn -0.6129 0.3812 0.6922
vn 0.5659 -0.3605 0.7415
vn -0.4044 0.3537 -0.8434
vn 0.4003 -0.1946 -0.8955
vn -0.7065 0.1367 0.6944
vn 0.6732 -0.2590 0.6926
vn -0.4029 0.2308 -0.8856
vn 0.5721 -0.0649 -0.8176
vn -0.3614 0.1368 -0.9223
vn 0.6510 -0.0069 -0.7591
vn -0.7498 0.0637 0.6586
vn 0.6853 -0.1247 0.7175
vn 0.0650 -0.5474 -0.8344
vn 0.1923 0.1149 -0.9746
vn -0.1379 -0.0893 -0.9864
vn 0.5264 0.0734 -0.8470
vn 0.7889 -0.2198 -0.5739
vn -0.1062 0.3290 -0.9383
vn -0.5366 0.2423 -0.8083
vn -0.7223 0.5753 -0.3838
vn 0.7174 0.6026 0.3497
vn 0.7430 0.5042 -0.4402
vn -0.7394 0.4434 0.5067
vn -0.6908 -0.1305 0.7112
vn -0.2325 -0.0340 0.9720
vn 0.2172 0.3394 0.9152
vn 0.3576 0.6619 0.6588
vn -0.7787 -0.3100 0.5454
vn -0.5261 -0.8440 -0.1039
vn 0.6748 -0.7370 0.0380
vn 0.4352 -0.3658 0.8227
vn 0.9299 -0.2380 0.2805
vn 0.9947 0.0809 -0.0629
vn 0.6954 0.0133 0.7185
vn -0.9751 -0.1980 -0.1001
vn -0.9813 0.0803 -0.1749
vn -0.4590 -0.0546 -0.8868
vn -0.7522 -0.1964 -0.6290
vn -0.7747 -0.3566 -0.5221
vn 0.2439 -0.3299 -0.9120
vn 0.6425 -0.2048 -0.7384
vn 0.1300 0.6263 -0.7686
vn -0.3433 0.7855 -0.5150
vn -0.8756 0.4704 -0.1096
vn 0.4752 0.6985 0.5350
vn 0.8557 0.2717 -0.4403
vn -0.7367 0.4441 0.5100
vn -0.8928 0.0917 0.4411
vn -0.1457 0.2346 0.9611
vn -0.6743 -0.4705 0.5691
vn -0.5890 -0.6032 -0.5378
vn 0.2719 -0.8843 0.3795
vn 0.9084 -0.4167 0.0344
vn 0.1911 -0.6435 0.7413
vn 0.3712 -0.1834 0.9103
vn 0.9353 -0.2423 0.2578
vn 0.9960 -0.0285 -0.0853
vn 0.9237 0.1212 0.3634
vn 0.8448 0.0248 0.5345
vn -0.9695 0.0346 -0.2428
vn -0.8961 0.0159 -0.4437
vn -0.6165 0.1318 -0.7762
vn 0.7745 -0.1552 0.6132
vn 0.7774 -0.1003 -0.6210
vn 0.9457 -0.2244 -0.2352
vn 0.8252 -0.0227 -0.5644
vn 0.9766 0.1555 0.1489
vn 0.4549 -0.1609 -0.8759
vn 0.3854 -0.2899 -0.8760
vn -0.2504 -0.1964 -0.9480
vn -0.3897 0.2300 -0.8918
vn 0.2197 0.1574 -0.9628
vn -0.8383 -0.1437 -0.5260
vn -0.8053 -0.1581 0.5714
vn -0.8652 -0.0660 0.4970
vn -0.8616 0.1528 -0.4841
vn -0.6142 0.1358 -0.7774
vn -0.5261 -0.1994 0.8267
vn 0.3108 -0.1433 0.9396
vn 0.5002 0.0221 0.8656
vn -0.3992 0.1871 0.8976
vn 0.4433 0.4757 0.7597
vn 0.6483 0.5719 -0.5026
vn -0.7125 0.6076 0.3508
vn -0.2647 -0.5785 0.7715
vn -0.6411 -0.7019 -0.3103
vn 0.8972 -0.3418 -0.2795
vn 0.7593 -0.5579 0.3350
vn 0.5752 -0.4110 0.7072
vn 0.9853 -0.1043 0.1351
vn 0.9998 0.0200 0.0085
vn 0.1555 -0.0672 -0.9856
vn -0.1695 -0.1323 -0.9766
vn -0.5556 -0.2524 -0.7922
vn -0.5855 0.1405 -0.7984
vn 0.4360 0.2131 -0.8743
vn -0.8333 -0.1551 -0.5306
vn -0.9530 -0.2979 0.0554
vn -0.9733 -0.0112 -0.2290
vn -0.3347 -0.1485 0.9306
vn 0.5714 -0.2390 0.7851
vn 0.2699 -0.0521 0.9615
vn 0.6529 0.2370 0.7194
vn -0.1534 -0.0078 0.9881
vn -0.5409 0.2066 0.8153
vn 0.4721 0.4672 0.7475
vn 0.8254 0.5423 -0.1568
vn -0.1683 0.8685 -0.4663
vn -0.4719 0.8546 0.2167
vn -0.5019 -0.8377 -0.2153
vn 0.1202 -0.9171 -0.3801
vn 0.5301 -0.4068 -0.7440
s off
f 3/1/1 8/2/1 7/3/1 2/4/1
f 1/5/2 6/6/2 10/7/2 5/8/2
f 4/9/3 9/10/3 8/2/3 3/1/3
f 2/4/4 7/3/4 6/6/4 1/5/4
f 5/11/5 10/12/5 9/10/5 4/9/5
f 10/12/6 15/13/6 14/14/6 9/10/6
f 8/2/7 13/15/7 12/16/7 7/3/7
f 6/6/8 11/17/8 15/18/8 10/7/8
f 9/10/9 14/14/9 13/15/9 8/2/9
f 7/3/10 12/16/10 11/17/10 6/6/10
f 11/17/11 16/19/11 20/20/11 15/18/11
f 14/14/12 19/21/12 18/22/12 13/15/12
f 12/16/13 17/23/13 16/19/13 11/17/13
f 15/13/14 20/24/14 19/21/14 14/14/14
f 13/15/15 18/22/15 17/23/15 12/16/15
f 16/19/16 21/25/16 25/26/16 31/27/16
f 19/21/17 24/28/17 23/29/17 18/22/17
f 17/23/18 22/30/18 21/25/18 16/19/18
f 18/22/19 23/29/19 22/30/19 17/23/19
f 25/31/20 30/32/20 29/33/20 24/34/20
f 23/35/21 28/36/21 27/37/21 22/38/21
f 21/39/22 26/40/22 30/41/22 25/42/22
f 24/34/23 29/33/23 28/36/23 23/35/23
f 22/38/24 27/37/24 26/40/24 21/39/24
f 19/21/25 31/43/25 25/44/25 24/28/25
f 31/45/26 19/46/26 33/47/26 35/48/26
f 19/46/27 20/49/27 34/50/27 33/47/27
f 16/51/28 31/45/28 35/48/28 32/52/28
f 20/53/29 16/51/29 32/52/29 34/54/29
f 35/48/30 33/47/30 37/55/30 39/56/30
f 33/47/31 34/50/31 38/57/31 37/55/31
f 32/52/32 35/48/32 39/56/32 36/58/32
f 34/54/33 32/52/33 36/58/33 38/59/33
f 36/60/34 39/61/34 43/62/34 40/63/34
f 38/64/35 36/60/35 40/63/35 42/65/35
f 39/61/36 37/66/36 41/67/36 43/62/36
f 37/66/37 38/68/37 42/69/37 41/67/37
f 44/70/38 45/71/38 46/72/38
f 47/73/39 48/74/39 49/75/39
f 46/72/40 48/74/40 47/73/40
f 47/73/41 49/75/41 50/76/41
f 50/76/42 51/77/42 44/70/42
f 49/75/43 48/74/43 52/78/43
f 52/78/44 48/74/44 53/79/44
f 52/80/45 53/81/45 54/82/45
f 55/83/46 56/84/46 57/85/46
f 55/86/47 57/87/47 49/75/47
f 58/88/48 54/82/48 59/89/48
f 59/89/49 60/90/49 61/91/49
f 59/89/50 61/91/50 62/92/50
f 62/92/51 56/84/51 58/88/51
f 58/88/52 56/84/52 54/82/52
f 61/91/53 60/90/53 63/93/53
f 64/94/54 63/95/54 45/71/54
f 45/71/55 44/70/55 65/96/55
f 65/97/56 66/98/56 61/91/56
f 66/98/57 65/97/57 67/99/57
f 67/100/58 50/76/58 57/87/58
f 56/84/59 62/92/59 66/98/59
f 68/101/60 63/93/60 60/90/60
f 60/90/61 69/102/61 53/81/61
f 70/103/62 48/74/62 46/72/62
f 70/103/63 46/72/63 68/104/63
f 68/104/64 46/72/64 63/95/64
f 47/73/65 44/70/65 46/72/65
f 47/73/66 50/76/66 44/70/66
f 55/86/67 49/75/67 52/78/67
f 55/83/68 52/80/68 54/82/68
f 54/82/69 53/81/69 69/102/69
f 55/83/70 54/82/70 56/84/70
f 49/75/71 57/87/71 50/76/71
f 59/89/72 54/82/72 69/102/72
f 59/89/73 69/102/73 60/90/73
f 59/89/74 62/92/74 58/88/74
f 64/105/75 61/91/75 63/93/75
f 45/71/76 63/95/76 46/72/76
f 64/94/77 45/71/77 65/96/77
f 65/96/78 44/70/78 51/77/78
f 64/105/79 65/97/79 61/91/79
f 61/91/80 66/98/80 62/92/80
f 67/100/81 65/96/81 51/77/81
f 67/100/82 51/77/82 50/76/82
f 67/99/83 57/85/83 56/84/83
f 67/99/84 56/84/84 66/98/84
f 68/101/85 60/90/85 53/81/85
f 68/104/86 53/79/86 70/103/86
f 70/103/87 53/79/87 48/74/87
f 71/106/88 72/107/88 73/108/88
f 74/109/89 75/110/89 76/111/89
f 73/108/90 75/110/90 74/109/90
f 74/109/91 76/111/91 77/112/91
f 77/112/92 78/113/92 71/106/92
f 76/111/93 75/110/93 79/114/93
f 79/114/94 75/110/94 80/115/94
f 79/116/95 80/117/95 81/118/95
f 82/119/96 83/120/96 84/121/96
f 82/122/97 84/123/97 76/111/97
f 85/124/98 81/118/98 86/125/98
f 86/125/99 87/126/99 88/127/99
f 86/125/100 88/127/100 89/128/100
f 89/128/101 83/120/101 85/124/101
f 85/124/102 83/120/102 81/118/102
f 88/127/103 87/126/103 90/129/103
f 91/130/104 90/131/104 72/107/104
f 72/107/105 71/106/105 92/132/105
f 92/133/106 93/134/106 88/127/106
f 93/134/107 92/133/107 94/135/107
f 94/136/108 77/112/108 84/123/108
f 83/120/109 89/128/109 93/134/109
f 95/137/110 90/129/110 87/126/110
f 87/126/111 96/138/111 80/117/111
f 97/139/112 75/110/112 73/108/112
f 97/139/113 73/108/113 95/140/113
f 95/140/114 73/108/114 90/131/114
f 74/109/115 71/106/115 73/108/115
f 74/109/116 77/112/116 71/106/116
f 82/122/117 76/111/117 79/114/117
f 82/119/118 79/116/118 81/118/118
f 81/118/119 80/117/119 96/138/119
f 82/119/120 81/118/120 83/120/120
f 76/111/121 84/123/121 77/112/121
f 86/125/122 81/118/122 96/138/122
f 86/125/123 96/138/123 87/126/123
f 86/125/124 89/128/124 85/124/124
f 91/141/125 88/127/125 90/129/125
f 72/107/126 90/131/126 73/108/126
f 91/130/127 72/107/127 92/132/127
f 92/132/128 71/106/128 78/113/128
f 91/141/129 92/133/129 88/127/129
f 88/127/130 93/134/130 89/128/130
f 94/136/131 92/132/131 78/113/131
f 94/136/132 78/113/132 77/112/132
f 94/135/133 84/121/133 83/120/133
f 94/135/134 83/120/134 93/134/134
f 95/137/135 87/126/135 80/117/135
f 95/140/136 80/115/136 97/139/136
f 97/139/137 80/115/137 75/110/137
