# Blender v2.78 (sub 0) OBJ File: 'Low_Poly_Trees_Pack.blend'
# www.blender.org
g Birch_Tree_crk_m_05
v -0.721326 0.101434 -0.135144
v -0.683595 -0.006088 -0.228362
v -0.666470 -0.019976 -0.131027
v -1.597421 0.115152 -0.305290
v -1.567376 0.021784 -0.383766
v -1.571431 0.005313 -0.301156
v -1.602151 0.115066 -0.396515
v -3.305648 0.291261 -1.081222
v -3.291924 0.248788 -1.117045
v -3.306652 0.241315 -1.081720
v -3.295243 0.292941 -1.122337
v -3.437590 0.684968 -1.117097
v -3.169451 0.450957 -1.151977
v -3.889333 0.841552 -1.848930
v -4.709186 0.888062 -2.119353
v -5.054886 0.926263 -1.974413
v -4.313124 0.971163 -1.370857
v -3.783832 0.395175 -1.978457
v -3.148500 0.149905 -1.235253
v -3.819860 0.063712 -1.813640
v -3.437316 -0.066386 -1.126801
v -4.255905 -0.073100 -1.842538
v -4.765348 0.412399 -2.411479
v -4.099129 -0.044929 -1.297498
v -3.475335 0.058213 -0.894122
v -4.430441 0.162993 -0.983858
v -5.123858 0.155030 -1.816108
v -5.006798 0.169865 -2.173704
v -3.395099 0.323255 -0.822862
v -4.147428 0.597287 -0.978562
v -5.162002 0.683584 -1.575824
v -5.484819 0.741049 -2.169794
v -5.380968 0.560808 -2.397146
v -0.825144 0.144332 -0.285985
v -0.087095 0.000000 0.110605
v 0.066838 0.000000 0.107864
v 0.135543 0.000000 -0.019457
v 0.013824 0.000000 -0.139177
v -0.224438 0.000000 -0.114984
v 0.073922 1.111064 0.197463
v 0.191069 1.095121 0.204868
v 0.235835 1.101210 0.095363
v 0.146355 1.120918 0.020280
v 0.046288 1.127008 0.083382
v 0.227745 2.513581 0.302378
v 0.320754 2.498399 0.307984
v 0.356566 2.504198 0.220825
v 0.285689 2.522964 0.161352
v 0.206073 2.528764 0.211755
v 0.317343 4.206613 0.331592
v 0.365264 4.198791 0.334480
v 0.383716 4.201778 0.289573
v 0.347198 4.211448 0.258931
v 0.306177 4.214436 0.284900
v -0.027147 0.389893 0.132560
v -0.140896 0.474766 -0.031731
v 0.162368 0.386435 0.013813
v 0.056887 0.393351 -0.074696
v 0.110433 0.384298 0.141905
v 0.625686 4.107192 -0.296009
v 0.221188 3.896676 -0.108117
v 0.137817 5.272216 -0.490415
v 0.322469 6.389140 -0.347175
v 0.694895 6.682307 -0.155155
v 0.968199 5.422252 -0.219379
v -0.366749 5.141936 -0.047086
v 0.094419 3.671005 0.224507
v -0.405589 5.000953 0.457177
v 0.108713 3.881479 0.708643
v -0.252313 5.433383 0.824718
v -0.255544 6.540576 0.250063
v 0.256874 4.823547 1.009096
v 0.473003 3.792326 0.617542
v 0.878655 5.137934 0.895861
v 0.409268 6.448431 0.997404
v -0.027523 6.578773 0.768980
v 0.679640 3.765437 0.199771
v 1.119649 4.897608 0.315746
v 1.034199 6.450927 0.477804
v 0.619018 7.256562 0.323399
v 0.205839 7.260795 0.382463
v -0.257122 0.234167 -0.100937
v -0.191509 0.297570 -0.141376
v -0.216007 0.305991 0.003549
vt 0.1215 0.1412
vt 0.1402 0.1204
vt 0.1447 0.2387
vt 0.1329 0.2449
vt 0.1531 0.1152
vt 0.1554 0.2356
vt 0.1697 0.2398
vt 0.1644 0.4934
vt 0.1572 0.4927
vt 0.1520 0.4933
vt 0.1459 0.4949
vt 0.1700 0.1230
vt 0.1882 0.1410
vt 0.1808 0.2443
vt 0.1700 0.4948
vt 0.4256 0.0344
vt 0.4235 0.0252
vt 0.4376 0.0283
vt 0.4429 0.0347
vt 0.4433 0.0429
vt 0.4313 0.0443
vt 0.4423 0.0117
vt 0.4196 0.0117
vt 0.4588 0.0651
vt 0.4588 0.0909
vt 0.4472 0.0772
vt 0.4435 0.0927
vt 0.4387 0.0804
vt 0.4361 0.0613
vt 0.4347 0.0907
vt 0.4391 0.1007
vt 0.4247 0.0977
vt 0.4251 0.0839
vt 0.4300 0.0755
vt 0.4398 0.1133
vt 0.4202 0.0562
vt 0.4402 0.0613
vt 0.4161 0.1126
vt 0.4082 0.0936
vt 0.4543 0.0494
vt 0.4615 0.0379
vt 0.4584 0.0216
vt 0.4189 0.0673
vt 0.4085 0.0765
vt 0.4082 0.0368
vt 0.1313 0.1546
vt 0.1578 0.1767
vt 0.1386 0.1840
vt 0.1308 0.1556
vt 0.1640 0.3100
vt 0.1406 0.3094
vt 0.1207 0.1834
vt 0.1172 0.3091
vt 0.0937 0.3094
vt 0.1011 0.1760
vt 0.1300 0.1556
vt 0.1296 0.1547
vt 0.1886 0.3105
vt 0.1750 0.5962
vt 0.1561 0.5946
vt 0.1374 0.5921
vt 0.1185 0.5914
vt 0.0997 0.5935
vt 0.0809 0.5959
vt 0.0689 0.3102
vt 0.0586 0.6567
vt 0.0665 0.8704
vt 0.0604 0.8714
vt 0.0468 0.6583
vt 0.0940 0.6575
vt 0.0847 0.8709
vt 0.0787 0.8697
vt 0.0823 0.6559
vt 0.0704 0.6555
vt 0.0725 0.8694
vt 0.1058 0.6584
vt 0.0908 0.8715
vt 0.0529 0.1595
vt 0.0916 0.1107
vt 0.1305 0.1535
vt 0.1307 0.1180
vt 0.1602 0.1090
vt 0.2033 0.1608
vt 0.3054 0.0344
vt 0.3034 0.0252
vt 0.3175 0.0283
vt 0.3228 0.0347
vt 0.3232 0.0429
vt 0.3111 0.0443
vt 0.3222 0.0117
vt 0.2995 0.0117
vt 0.3387 0.0651
vt 0.3387 0.0909
vt 0.3271 0.0772
vt 0.3234 0.0927
vt 0.3186 0.0804
vt 0.3160 0.0613
vt 0.3145 0.0907
vt 0.3190 0.1007
vt 0.3045 0.0977
vt 0.3050 0.0839
vt 0.3099 0.0755
vt 0.3197 0.1133
vt 0.3001 0.0562
vt 0.3201 0.0613
vt 0.2960 0.1126
vt 0.2881 0.0936
vt 0.3342 0.0494
vt 0.3414 0.0379
vt 0.3383 0.0216
vt 0.2988 0.0673
vt 0.2883 0.0765
vt 0.2881 0.0368
vt 0.3457 0.9254
vt 0.3527 0.9472
vt 0.3310 0.9710
vt 0.3310 0.9343
vt 0.3029 0.8946
vt 0.3316 0.9207
vt 0.2976 0.9207
vt 0.2856 0.8998
vn 0.1560 -0.1682 -0.9733
vn 0.0010 -0.9861 -0.1664
vn -0.4159 -0.0444 0.9083
vn 0.3914 -0.0123 -0.9201
vn -0.1882 -0.0308 0.9816
vn -0.0418 0.9805 0.1922
vn 0.0965 0.9952 0.0161
vn -0.0411 -0.9779 -0.2051
vn 0.6239 0.7484 -0.2250
vn 0.0518 0.9892 -0.1372
vn 0.7762 0.2177 -0.5917
vn 0.6271 -0.4004 -0.6682
vn 0.3021 -0.8917 -0.3372
vn 0.2437 -0.6191 -0.7465
vn 0.3124 0.3321 -0.8900
vn -0.1387 -0.8866 0.4412
vn -0.3146 -0.9098 0.2708
vn -0.2558 -0.9588 -0.1235
vn -0.1156 -0.2251 0.9675
vn 0.0423 0.7321 0.6799
vn -0.3726 0.5881 0.7179
vn -0.4663 0.2937 0.8345
vn -0.7242 -0.3280 0.6066
vn -0.1014 0.7565 -0.6461
vn 0.1035 0.5116 -0.8530
vn -0.6306 -0.7390 -0.2371
vn -0.8562 -0.5163 0.0183
vn -0.8582 -0.2624 0.4411
vn 0.6381 -0.6305 0.4419
vn 0.5666 0.5590 0.6054
vn 0.3070 0.9516 0.0141
vn 0.1108 0.9796 -0.1674
vn 0.7428 0.3425 -0.5753
vn 0.4480 -0.7992 -0.4009
vn 0.3545 -0.4469 -0.8213
vn 0.0637 -0.7303 -0.6802
vn 0.3661 0.4552 -0.8116
vn -0.0493 -0.9966 0.0657
vn -0.1443 -0.8820 0.4487
vn -0.2489 -0.9609 0.1213
vn -0.1676 0.0973 0.9810
vn 0.0718 0.6345 0.7696
vn -0.3796 0.8320 0.4046
vn -0.4999 0.7929 0.3484
vn -0.1259 0.8433 -0.5225
vn -0.1635 -0.6028 -0.7809
vn 0.7177 -0.3750 0.5868
vn 0.8374 -0.0908 0.5389
vn 0.6758 0.0317 -0.7364
vn 0.6443 0.0208 -0.7645
vn -0.0721 -0.0796 0.9942
vn -0.0239 -0.0689 0.9973
vn 0.9192 -0.1368 0.3694
vn -0.5226 0.1366 -0.8416
vn 0.9218 -0.1125 0.3709
vn -0.9654 0.0875 0.2458
vn 0.6445 0.0129 -0.7645
vn -0.0715 -0.0666 0.9952
vn -0.9697 0.0472 0.2398
vn 0.6458 0.0206 -0.7632
vn -0.0624 -0.0139 0.9980
vn -0.5301 0.0682 -0.8452
vn 0.9252 -0.0301 0.3782
vn -0.6317 0.4176 0.6531
vn -0.1945 -0.0653 -0.9787
vn -0.8511 -0.1691 0.4970
vn 0.8982 -0.1190 0.4232
vn -0.5764 0.0427 0.8160
vn 0.2076 0.1361 -0.9687
vn 0.0286 0.5200 -0.8537
vn -0.2765 0.1986 -0.9403
vn -0.8673 0.1187 0.4835
vn -0.2849 -0.2727 -0.9189
vn 0.3732 0.1278 -0.9189
vn -0.7777 -0.3413 -0.5279
vn -0.9327 -0.3223 -0.1620
vn -0.7768 -0.2247 0.5883
vn -0.9597 0.1272 0.2505
vn -0.6754 0.2026 -0.7091
vn 0.3075 -0.2808 0.9092
vn 0.1841 -0.0102 0.9828
vn -0.4294 0.1278 0.8940
vn 0.8337 -0.3411 0.4343
vn 0.8728 -0.2014 -0.4445
vn 0.9763 0.0749 -0.2029
vn 0.9251 0.0113 0.3796
vn 0.6300 0.1669 0.7585
vn -0.1035 0.6302 -0.7695
vn -0.5641 0.4843 -0.6687
vn -0.2570 0.5415 0.8004
vn 0.1175 0.6179 0.7774
vn 0.5762 0.4301 0.6950
vn -0.1227 -0.9088 0.3987
vn 0.1536 -0.8057 -0.5721
vn 0.3145 -0.0266 -0.9489
vn 0.2975 0.0729 -0.9519
vn -0.6027 -0.2474 -0.7587
vn -0.9077 -0.3744 0.1896
vn -0.9946 0.0900 -0.0514
vn -0.9030 0.1958 0.3824
vn -0.6771 0.2041 -0.7070
vn -0.5217 -0.1837 0.8331
vn 0.1547 -0.3222 0.9339
vn -0.3027 0.0352 0.9524
vn 0.7993 -0.3599 0.4812
vn 0.8951 -0.3156 -0.3150
vn 0.8914 0.2137 -0.3997
vn 0.8650 0.3838 -0.3234
vn -0.0980 0.6294 -0.7708
vn -0.8219 0.4665 0.3268
vn 0.1636 -0.9760 0.1437
vn 0.1135 -0.8417 -0.5278
vn -0.8663 0.4684 -0.1737
vn 0.8080 0.5214 -0.2744
s off
f 34/1/1 2/2/1 5/3/1 7/4/1
f 2/2/2 3/5/2 6/6/2 5/3/2
f 6/6/3 4/7/3 8/8/3 10/9/3
f 7/4/4 5/3/4 9/10/4 11/11/4
f 3/5/5 1/12/5 4/7/5 6/6/5
f 1/12/6 34/13/6 7/14/6 4/7/6
f 4/7/7 7/14/7 11/15/7 8/8/7
f 5/3/8 6/6/8 10/9/8 9/10/8
f 12/16/9 13/17/9 14/18/9
f 15/19/10 16/20/10 17/21/10
f 18/22/11 13/17/11 19/23/11
f 18/24/12 19/25/12 20/26/12
f 20/26/13 21/27/13 22/28/13
f 20/26/14 22/28/14 23/29/14
f 18/22/15 15/19/15 14/18/15
f 24/30/16 25/31/16 26/32/16
f 24/30/17 26/32/17 27/33/17
f 27/33/18 28/34/18 22/28/18
f 26/32/19 25/31/19 29/35/19
f 30/36/20 12/16/20 17/21/20
f 30/36/21 17/21/21 31/37/21
f 30/38/22 31/39/22 26/32/22
f 31/39/23 27/33/23 26/32/23
f 32/40/24 15/19/24 33/41/24
f 33/41/25 15/19/25 23/42/25
f 33/43/26 28/34/26 27/33/26
f 33/43/27 27/33/27 32/44/27
f 32/44/28 27/33/28 31/39/28
f 25/31/29 21/27/29 19/25/29
f 13/17/30 12/16/30 29/45/30
f 14/18/31 17/21/31 12/16/31
f 14/18/32 15/19/32 17/21/32
f 18/22/33 14/18/33 13/17/33
f 20/26/34 19/25/34 21/27/34
f 18/24/35 20/26/35 23/29/35
f 23/29/36 22/28/36 28/34/36
f 18/22/37 23/42/37 15/19/37
f 24/30/38 22/28/38 21/27/38
f 24/30/39 21/27/39 25/31/39
f 24/30/40 27/33/40 22/28/40
f 30/38/41 26/32/41 29/35/41
f 30/36/42 29/45/42 12/16/42
f 31/37/43 17/21/43 16/20/43
f 32/40/44 31/37/44 16/20/44
f 32/40/45 16/20/45 15/19/45
f 33/43/46 23/29/46 28/34/46
f 29/35/47 25/31/47 19/25/47
f 29/45/48 19/23/48 13/17/48
f 38/46/49 58/47/49 57/48/49 37/49/49
f 58/47/50 43/50/50 42/51/50 57/48/50
f 59/52/51 41/53/51 40/54/51 55/55/51
f 36/56/52 59/52/52 55/55/52 35/57/52
f 57/48/53 42/51/53 41/53/53 59/52/53
f 44/58/54 49/59/54 48/60/54 43/50/54
f 42/51/55 47/61/55 46/62/55 41/53/55
f 40/54/56 45/63/56 49/64/56 44/65/56
f 43/50/57 48/60/57 47/61/57 42/51/57
f 41/53/58 46/62/58 45/63/58 40/54/58
f 45/66/59 50/67/59 54/68/59 49/69/59
f 48/70/60 53/71/60 52/72/60 47/73/60
f 46/74/61 51/75/61 50/67/61 45/66/61
f 49/76/62 54/77/62 53/71/62 48/70/62
f 47/73/63 52/72/63 51/75/63 46/74/63
f 55/55/64 56/78/64 84/79/64
f 38/46/65 39/80/65 82/81/65 83/82/65
f 39/80/66 35/57/66 84/79/66 82/81/66
f 37/49/67 57/48/67 59/52/67 36/56/67
f 35/57/68 55/55/68 84/79/68
f 58/47/69 38/46/69 83/82/69
f 56/83/70 58/47/70 83/82/70
f 44/58/71 43/50/71 58/47/71 56/83/71
f 44/65/72 56/78/72 55/55/72 40/54/72
f 60/84/73 61/85/73 62/86/73
f 63/87/74 64/88/74 65/89/74
f 66/90/75 61/85/75 67/91/75
f 66/92/76 67/93/76 68/94/76
f 68/94/77 69/95/77 70/96/77
f 68/94/78 70/96/78 71/97/78
f 66/90/79 63/87/79 62/86/79
f 72/98/80 73/99/80 74/100/80
f 72/98/81 74/100/81 75/101/81
f 75/101/82 76/102/82 70/96/82
f 74/100/83 73/99/83 77/103/83
f 78/104/84 60/84/84 65/89/84
f 78/104/85 65/89/85 79/105/85
f 78/106/86 79/107/86 74/100/86
f 79/107/87 75/101/87 74/100/87
f 80/108/88 63/87/88 81/109/88
f 81/109/89 63/87/89 71/110/89
f 81/111/90 76/102/90 75/101/90
f 81/111/91 75/101/91 80/112/91
f 80/112/92 75/101/92 79/107/92
f 73/99/93 69/95/93 67/93/93
f 61/85/94 60/84/94 77/113/94
f 62/86/95 65/89/95 60/84/95
f 62/86/96 63/87/96 65/89/96
f 66/90/97 62/86/97 61/85/97
f 68/94/98 67/93/98 69/95/98
f 66/92/99 68/94/99 71/97/99
f 71/97/100 70/96/100 76/102/100
f 66/90/101 71/110/101 63/87/101
f 72/98/102 70/96/102 69/95/102
f 72/98/103 69/95/103 73/99/103
f 72/98/104 75/101/104 70/96/104
f 78/106/105 74/100/105 77/103/105
f 78/104/106 77/113/106 60/84/106
f 79/105/107 65/89/107 64/88/107
f 80/108/108 79/105/108 64/88/108
f 80/108/109 64/88/109 63/87/109
f 81/111/110 71/97/110 76/102/110
f 77/103/111 73/99/111 67/93/111
f 77/113/112 67/91/112 61/85/112
f 82/114/113 84/115/113 56/116/113 83/117/113
f 2/118/114 34/119/114 1/120/114 3/121/114
