# Blender v2.78 (sub 0) OBJ File: 'Low_Poly_Trees_Pack.blend'
# www.blender.org
g Birch_Tree_NoLeaves_crk_m_04
v -0.779528 0.085728 0.303551
v -0.795545 0.041069 0.208611
v -1.713822 -0.015992 0.460477
v -1.681721 -0.002609 0.530786
v -1.705168 0.070855 0.516679
v -1.731534 0.036612 0.448396
v -2.608898 0.014237 0.860490
v -2.588076 0.025975 0.912346
v -2.606701 0.074577 0.900667
v -2.622856 0.048954 0.850662
v -3.637392 -0.000702 1.233856
v -3.625441 0.004111 1.247395
v -3.634227 0.017452 1.246521
v -3.644034 0.008777 1.232853
v -0.645999 -0.011885 0.317652
v -0.781077 -0.028925 0.229818
v 0.000000 0.000000 -0.127692
v -0.118359 0.000000 -0.041699
v -0.073150 0.000000 0.097440
v 0.073150 0.000000 0.097440
v 0.118359 0.000000 -0.041699
v 0.011650 1.384377 -0.106267
v -0.084961 1.352841 -0.036756
v -0.047578 1.384377 0.076016
v 0.070877 1.384377 0.076016
v 0.107482 1.384377 -0.036641
v 0.086982 2.297392 -0.092067
v 0.005204 2.299036 -0.032634
v 0.036441 2.298483 0.063506
v 0.137524 2.296498 0.063492
v 0.168761 2.295825 -0.032657
v 0.156855 3.506785 -0.077786
v 0.091718 3.508300 -0.030468
v 0.116598 3.508192 0.046110
v 0.197113 3.506610 0.046122
v 0.221993 3.505741 -0.030448
v 0.132380 4.995918 -0.073938
v 0.096848 4.991099 -0.047682
v 0.110419 4.993585 -0.005487
v 0.154343 4.999994 -0.005643
v 0.167918 5.001477 -0.047935
v -0.037431 6.633651 -0.093208
v -0.039352 6.633787 -0.067864
v -0.019224 6.636819 -0.067915
v -0.013003 6.637430 -0.087288
v -0.024752 1.738904 -0.020662
v -0.132371 1.929366 -0.098802
v -0.192774 1.786566 -0.051783
v -0.174499 1.929376 0.030850
v -0.096871 1.952878 -0.037603
vt 0.1746 0.5898
vt 0.1879 0.5902
vt 0.1798 0.7199
vt 0.1698 0.7189
vt 0.1973 0.5896
vt 0.2130 0.5756
vt 0.1966 0.7184
vt 0.1868 0.7187
vt 0.1608 0.5728
vt 0.1603 0.7165
vt 0.1723 0.8512
vt 0.1649 0.8512
vt 0.1579 0.8496
vt 0.1848 0.8509
vt 0.1776 0.8504
vt 0.1653 0.9984
vt 0.1629 0.9993
vt 0.1678 0.9976
vt 0.1606 0.9985
vt 0.1582 0.9974
vt 0.0203 0.9441
vt 0.0178 0.9444
vt 0.0178 0.9419
vt 0.0204 0.9423
vt 0.3334 0.9381
vt 0.3567 0.9407
vt 0.3567 0.9739
vt 0.3050 0.9801
vt 0.1346 0.1305
vt 0.1319 0.3419
vt 0.1137 0.3417
vt 0.1125 0.1304
vt 0.0903 0.1305
vt 0.0957 0.3413
vt 0.0775 0.3371
vt 0.0680 0.1313
vt 0.1569 0.1309
vt 0.1500 0.3416
vt 0.1792 0.1317
vt 0.1682 0.3375
vt 0.0892 0.5079
vt 0.0889 0.6325
vt 0.0752 0.6324
vt 0.0730 0.5077
vt 0.0568 0.5074
vt 0.0616 0.6320
vt 0.0480 0.6325
vt 0.0462 0.5562
vt 0.1053 0.5076
vt 0.1025 0.6321
vt 0.1573 0.5127
vt 0.1726 0.5139
vt 0.1746 0.5898
vt 0.1608 0.5728
vt 0.0995 0.7951
vt 0.0887 0.7950
vt 0.0778 0.7950
vt 0.0670 0.7953
vt 0.1162 0.6320
vt 0.1103 0.7955
vt 0.0562 0.7959
vt 0.0998 0.9960
vt 0.0937 0.9963
vt 0.0877 0.9966
vt 0.0817 0.9965
vt 0.0756 0.9961
vt 0.0696 0.9962
vt 0.1671 0.7721
vt 0.1723 0.9960
vt 0.1684 0.9962
vt 0.1611 0.7722
vt 0.1852 0.7723
vt 0.1841 0.9960
vt 0.1802 0.9962
vt 0.1792 0.7726
vt 0.1731 0.7724
vt 0.1763 0.9961
vt 0.1912 0.7720
vt 0.1183 0.5558
vt 0.1892 0.5596
vt 0.1879 0.5902
vt 0.2085 0.5140
vt 0.1973 0.5896
vt 0.2240 0.5157
vt 0.2130 0.5756
vt 0.0206 0.8401
vt 0.0212 0.8428
vt 0.0178 0.8433
vt 0.0178 0.8399
vt 0.3213 0.9098
vt 0.3184 0.9355
vt 0.3002 0.9355
vt 0.2819 0.9005
vn -0.1090 0.9058 -0.4095
vn 0.0256 -0.9863 0.1627
vn -0.2333 -0.3114 -0.9212
vn 0.1992 0.3347 0.9210
vn -0.1661 0.9026 -0.3971
vn 0.3750 0.3135 0.8724
vn 0.0468 -0.9822 0.1817
vn -0.3901 -0.3547 -0.8497
vn -0.3139 -0.3615 -0.8779
vn 0.0871 -0.9753 0.2032
vn -0.1867 0.8947 -0.4058
vn 0.2869 0.3106 0.9062
vn -0.6283 -0.3684 0.6852
vn 0.9655 0.1315 -0.2247
vn 0.4336 0.4833 -0.7606
vn 0.9510 0.0063 0.3090
vn -0.9508 0.0223 0.3089
vn 0.5878 0.0076 -0.8090
vn 0.0000 0.0155 0.9999
vn -0.5877 0.0175 -0.8089
vn 0.9490 -0.0651 0.3085
vn -0.9790 0.0788 0.1878
vn 0.5872 -0.0359 -0.8087
vn 0.0002 0.0137 0.9999
vn -0.8880 -0.1872 0.4199
vn 0.5873 -0.0244 -0.8090
vn 0.0003 0.0143 0.9999
vn -0.5867 0.0434 -0.8087
vn 0.9501 -0.0424 0.3091
vn -0.9488 0.0673 0.3085
vn -0.5899 -0.0075 -0.8075
vn 0.9507 0.0379 0.3078
vn -0.9514 0.0068 0.3079
vn 0.5884 0.0118 -0.8085
vn -0.0002 0.0347 0.9994
vn -0.9818 -0.0793 0.1724
vn 0.4655 0.0340 -0.8844
vn -0.0023 0.0378 0.9993
vn -0.5866 -0.0703 -0.8068
vn 0.9451 0.1119 0.3072
vn -0.7083 0.0517 -0.7040
vn 0.5456 0.2095 0.8115
vn 0.7974 0.2201 -0.5618
vn -0.4912 -0.1330 -0.8608
vn -0.1489 0.9887 -0.0167
vn -0.3876 0.9132 -0.1260
vn -0.9108 0.2878 -0.2960
s off
f 1/1/1 2/2/1 6/3/1 5/4/1
f 16/5/2 15/6/2 4/7/2 3/8/2
f 2/2/3 16/5/3 3/8/3 6/3/3
f 15/9/4 1/1/4 5/4/4 4/10/4
f 5/4/5 6/3/5 10/11/5 9/12/5
f 4/10/6 5/4/6 9/12/6 8/13/6
f 3/8/7 4/7/7 8/14/7 7/15/7
f 6/3/8 3/8/8 7/15/8 10/11/8
f 10/11/9 7/15/9 11/16/9 14/17/9
f 7/15/10 8/14/10 12/18/10 11/16/10
f 9/12/11 10/11/11 14/17/11 13/19/11
f 8/13/12 9/12/12 13/19/12 12/20/12
f 11/21/13 12/22/13 13/23/13 14/24/13
f 16/25/14 2/26/14 1/27/14
f 15/28/15 16/25/15 1/27/15
f 21/29/16 26/30/16 25/31/16 20/32/16
f 19/33/17 24/34/17 23/35/17 18/36/17
f 17/37/18 22/38/18 26/30/18 21/29/18
f 20/32/19 25/31/19 24/34/19 19/33/19
f 18/39/20 23/40/20 22/38/20 17/37/20
f 26/41/21 31/42/21 30/43/21 25/44/21
f 24/45/22 29/46/22 28/47/22 46/48/22
f 22/49/23 27/50/23 31/42/23 26/41/23
f 25/44/24 30/43/24 29/46/24 24/45/24
f 23/51/25 24/52/25 49/53/25 48/54/25
f 27/50/26 32/55/26 36/56/26 31/42/26
f 30/43/27 35/57/27 34/58/27 29/46/27
f 28/59/28 33/60/28 32/55/28 27/50/28
f 31/42/29 36/56/29 35/57/29 30/43/29
f 29/46/30 34/58/30 33/61/30 28/47/30
f 33/60/31 38/62/31 37/63/31 32/55/31
f 36/56/32 41/64/32 40/65/32 35/57/32
f 34/58/33 39/66/33 38/67/33 33/61/33
f 32/55/34 37/63/34 41/64/34 36/56/34
f 35/57/35 40/65/35 39/66/35 34/58/35
f 39/68/36 43/69/36 42/70/36 38/71/36
f 37/72/37 42/73/37 45/74/37 41/75/37
f 40/76/38 44/77/38 43/69/38 39/68/38
f 38/78/39 42/73/39 37/72/39
f 41/75/40 45/74/40 44/77/40 40/76/40
f 22/49/41 46/79/41 28/59/41 27/50/41
f 24/52/42 46/80/42 50/81/42 49/53/42
f 46/80/43 22/82/43 47/83/43 50/81/43
f 22/82/44 23/84/44 48/85/44 47/83/44
f 44/86/45 45/87/45 42/88/45 43/89/45
f 49/90/46 50/91/46 47/92/46
f 48/93/47 49/90/47 47/92/47
