# Blender v2.78 (sub 0) OBJ File: 'Low_Poly_Trees_Pack.blend'
# www.blender.org
g Birch_Tree_NoLeaves_m_05
v -0.000000 0.000000 -0.127240
v -0.120534 0.000000 -0.039667
v -0.074494 0.000000 0.102030
v 0.074494 0.000000 0.102030
v 0.120534 0.000000 -0.039667
v -0.058676 1.111064 -0.103749
v -0.153176 1.095121 -0.034121
v -0.117080 1.101210 0.078540
v -0.000273 1.120918 0.078540
v 0.035823 1.127008 -0.034121
v -0.230812 2.513581 -0.085243
v -0.305665 2.498399 -0.029752
v -0.277073 2.504198 0.060035
v -0.184550 2.522964 0.060035
v -0.155959 2.528764 -0.029752
v -0.484314 4.024905 -0.050030
v -0.522881 4.017083 -0.021439
v -0.508149 4.020070 0.024822
v -0.460479 4.029740 0.024822
v -0.445747 4.032728 -0.021439
v -0.920036 5.798265 -0.030258
v -0.938229 5.794576 -0.016772
v -0.931280 5.795986 0.005051
v -0.905318 5.801251 -0.005861
v 0.106548 0.255166 -0.038751
v 0.163190 0.305991 -0.141565
v 0.237579 0.297570 -0.014799
v 0.261848 0.234167 -0.087953
v 0.160572 0.375916 -0.059479
v 0.509864 1.774567 -0.347199
v 0.558691 1.770011 -0.267953
v 0.581319 1.741314 -0.318737
v 0.499649 1.809609 -0.290098
v 0.651451 3.226816 -0.442417
v 0.683777 3.223552 -0.392964
v 0.701245 3.218081 -0.427439
v 0.640302 3.237555 -0.402911
v 0.741952 4.795995 -0.394204
v 0.756003 4.794531 -0.373243
v 0.764036 4.794552 -0.388379
v 0.736329 4.798456 -0.376731
vt 0.0858 0.1012
vt 0.0930 0.3034
vt 0.0715 0.3057
vt 0.0610 0.1475
vt 0.1658 0.1006
vt 0.1577 0.3044
vt 0.1362 0.3021
vt 0.1390 0.1013
vt 0.1124 0.1017
vt 0.1145 0.3016
vt 0.0846 0.6449
vt 0.0954 0.6067
vt 0.1004 0.6559
vt 0.0847 0.6644
vt 0.1792 0.3059
vt 0.1676 0.5625
vt 0.1504 0.5613
vt 0.1333 0.5599
vt 0.1163 0.5596
vt 0.0992 0.5608
vt 0.0821 0.5623
vt 0.0546 0.6371
vt 0.0647 0.9181
vt 0.0569 0.9184
vt 0.0397 0.6386
vt 0.0991 0.6376
vt 0.0880 0.9181
vt 0.0802 0.9180
vt 0.0842 0.6362
vt 0.0694 0.6359
vt 0.0725 0.9180
vt 0.1140 0.6388
vt 0.0958 0.9185
vt 0.1479 0.6294
vt 0.1341 0.9647
vt 0.1389 0.6290
vt 0.1300 0.6288
vt 0.1283 0.9648
vt 0.1226 0.9649
vt 0.1210 0.6288
vt 0.1120 0.6290
vt 0.1168 0.9648
vt 0.1110 0.9648
vt 0.1031 0.6293
vt 0.0139 0.7995
vt 0.0131 0.7961
vt 0.0174 0.7954
vt 0.0174 0.7997
vt 0.0892 0.8887
vt 0.0790 0.8933
vt 0.1901 0.1479
vt 0.1140 0.6135
vt 0.1140 0.6511
vt 0.0984 0.8864
vt 0.0549 0.6134
vt 0.0732 0.6080
vt 0.0703 0.6559
vt 0.0519 0.6499
vt 0.1642 0.7368
vt 0.1761 0.7405
vt 0.1710 0.9646
vt 0.1630 0.9636
vt 0.1854 0.7448
vt 0.1956 0.7403
vt 0.1841 0.9647
vt 0.1772 0.9661
vt 0.0696 0.8890
vt 0.0577 0.8852
vt 0.2048 0.7379
vt 0.1900 0.9646
vt 0.0264 0.3890
vt 0.0326 0.3906
vt 0.0235 0.6282
vt 0.0195 0.6275
vt 0.0184 0.3880
vt 0.0153 0.6274
vt 0.0395 0.3892
vt 0.0454 0.3890
vt 0.0317 0.6281
vt 0.0276 0.6279
vt 0.0168 0.9089
vt 0.0133 0.9089
vt 0.0131 0.9061
vt 0.0162 0.9064
vn 0.5757 0.0491 -0.8162
vn -0.0016 0.0211 0.9998
vn -0.5894 -0.0138 -0.8077
vn -0.2959 0.4335 0.8512
vn -0.9510 -0.0301 0.3078
vn 0.9425 0.1280 0.3087
vn -0.9456 -0.1037 0.3082
vn 0.5824 0.0822 -0.8087
vn -0.0024 0.0129 0.9999
vn -0.5858 -0.0612 -0.8081
vn 0.5763 0.1155 -0.8090
vn -0.0046 0.0225 0.9997
vn -0.5833 -0.0790 -0.8084
vn 0.9342 0.1783 0.3090
vn -0.9414 -0.1363 0.3086
vn 0.9213 0.2367 0.3086
vn -0.9260 -0.2172 0.3089
vn 0.6755 0.1779 -0.7156
vn 0.1370 0.0476 0.9894
vn -0.5730 -0.1318 -0.8089
vn -0.1988 0.9800 -0.0000
vn -0.2717 0.2178 0.9374
vn 0.9421 0.0719 0.3274
vn 0.8474 -0.3655 0.3852
vn 0.8947 -0.1226 0.4296
vn 0.4286 -0.3387 -0.8376
vn -0.8668 0.4190 -0.2704
vn 0.3070 -0.0933 -0.9471
vn -0.2480 0.1024 0.9633
vn 0.3185 -0.2070 -0.9251
vn -0.9539 0.1906 -0.2317
vn -0.9653 0.0766 -0.2497
vn 0.8979 -0.0401 0.4383
vn -0.9533 0.0638 -0.2954
vn 0.2797 0.0130 -0.9600
vn 0.8863 -0.0466 0.4607
vn -0.2089 -0.0031 0.9779
vn 0.1316 0.9911 -0.0190
s off
f 1/1/1 6/2/1 10/3/1 25/4/1
f 4/5/2 9/6/2 8/7/2 3/8/2
f 2/9/3 7/10/3 6/2/3 1/1/3
f 25/11/4 4/12/4 27/13/4 29/14/4
f 3/8/5 8/7/5 7/10/5 2/9/5
f 10/15/6 15/16/6 14/17/6 9/6/6
f 8/7/7 13/18/7 12/19/7 7/10/7
f 6/2/8 11/20/8 15/21/8 10/3/8
f 9/6/9 14/17/9 13/18/9 8/7/9
f 7/10/10 12/19/10 11/20/10 6/2/10
f 11/22/11 16/23/11 20/24/11 15/25/11
f 14/26/12 19/27/12 18/28/12 13/29/12
f 12/30/13 17/31/13 16/23/13 11/22/13
f 15/32/14 20/33/14 19/27/14 14/26/14
f 13/29/15 18/28/15 17/31/15 12/30/15
f 20/34/16 24/35/16 19/36/16
f 18/37/17 23/38/17 22/39/17 17/40/17
f 16/41/18 21/42/18 24/43/18 20/44/18
f 19/36/19 24/35/19 23/38/19 18/37/19
f 17/40/20 22/39/20 21/42/20 16/41/20
f 22/45/21 23/46/21 24/47/21 21/48/21
f 29/14/22 27/13/22 31/49/22 33/50/22
f 4/5/23 25/51/23 10/15/23 9/6/23
f 4/12/24 5/52/24 28/53/24 27/13/24
f 27/13/25 28/53/25 32/54/25 31/49/25
f 5/55/26 1/56/26 26/57/26 28/58/26
f 1/56/27 25/11/27 29/14/27 26/57/27
f 32/59/28 30/60/28 34/61/28 36/62/28
f 33/63/29 31/64/29 35/65/29 37/66/29
f 28/58/30 26/57/30 30/67/30 32/68/30
f 26/57/31 29/14/31 33/50/31 30/67/31
f 30/60/32 33/63/32 37/66/32 34/61/32
f 31/64/33 32/69/33 36/70/33 35/65/33
f 34/71/34 37/72/34 41/73/34 38/74/34
f 36/75/35 34/71/35 38/74/35 40/76/35
f 35/77/36 36/78/36 40/79/36 39/80/36
f 37/72/37 35/77/37 39/80/37 41/73/37
f 40/81/38 38/82/38 41/83/38 39/84/38
