# Blender v2.78 (sub 0) OBJ File: 'Low_Poly_Trees_Pack.blend'
# www.blender.org
g Birch_Tree_m_01
v -0.000000 0.000000 -0.189172
v -0.138664 0.000000 -0.088427
v -0.085699 0.000000 0.074582
v 0.085699 0.000000 0.074582
v 0.138664 0.000000 -0.088427
v 0.095468 1.706080 -0.154628
v -0.002529 1.677229 -0.080408
v 0.034903 1.688249 0.039684
v 0.153826 1.592530 0.040793
v 0.193466 1.734931 -0.080408
v -0.124286 6.132535 -0.087364
v -0.153938 6.121562 -0.064393
v -0.142612 6.125752 -0.027224
v -0.102816 6.096835 -0.026832
v -0.094633 6.143507 -0.064393
v 0.155205 1.851580 0.038354
v 0.259938 1.855411 0.139437
v 0.365133 1.781922 0.143480
v 0.390977 1.888447 0.031482
v 0.271857 1.937700 0.075167
v 0.368571 2.242065 0.224697
v 0.465773 2.222356 0.241626
v 0.449914 2.237003 0.117509
v 0.351460 2.262585 0.144314
v 0.626572 3.749329 0.336631
v 0.677900 3.738922 0.345571
v 0.669526 3.746656 0.280029
v 0.617536 3.760164 0.294184
v 0.025581 2.583069 -0.139424
v 0.108257 2.583069 -0.076807
v 0.076016 2.583069 0.023446
v -0.025516 2.583069 0.024509
v -0.057095 2.583069 -0.076807
v 0.129333 5.505329 0.516326
v 0.322740 5.804729 0.164578
v 0.064374 4.804191 -0.007266
v 0.160279 4.108516 0.158678
v 0.262554 3.919486 0.534520
v 0.146948 4.693286 0.814425
v 0.575424 4.902573 -0.381696
v 0.776890 5.813094 -0.103475
v 1.057902 4.998909 -0.311061
v 1.250630 5.671433 0.172996
v 1.371045 4.732100 -0.107492
v 0.828487 4.035752 -0.261419
v 1.483642 5.111100 0.420819
v 1.131156 5.826857 0.550130
v 1.215017 4.889457 0.966400
v 1.383968 4.084467 0.510872
v 1.261465 4.012086 0.054696
v 0.706819 5.939301 0.719104
v 0.610137 5.020821 1.080190
v 0.778085 4.061456 0.985552
v 0.720138 3.570591 0.543529
v 0.858133 3.579005 0.171659
v -1.046676 8.300428 0.224418
v -0.761396 8.730322 -0.305682
v -1.153737 7.249980 -0.527373
v -1.016961 6.226618 -0.262398
v -0.864257 5.957681 0.297404
v -1.025428 7.109874 0.688722
v -0.401305 7.379358 -1.087762
v -0.092884 8.730457 -0.705786
v 0.312888 7.519228 -0.990544
v 0.608062 8.525049 -0.297408
v 0.774815 7.128326 -0.684694
v -0.034365 6.100414 -0.886502
v 0.949334 7.702722 0.083254
v 0.436384 8.766926 0.255975
v 0.555395 7.394135 0.897957
v 0.793505 6.190156 0.247733
v 0.607807 6.070827 -0.422738
v -0.187869 8.941978 0.505890
v -0.335863 7.597175 1.067392
v -0.097419 6.175957 0.954759
v -0.191467 5.438412 0.317101
v 0.009117 5.438481 -0.233553
vt 0.0914 0.1272
vt 0.0845 0.2932
vt 0.0705 0.2960
vt 0.0718 0.1275
vt 0.1489 0.1312
vt 0.1281 0.2849
vt 0.1130 0.2922
vt 0.1295 0.1286
vt 0.0561 0.2820
vt 0.0522 0.1273
vt 0.0987 0.2907
vt 0.1105 0.1272
vt 0.0844 0.2776
vt 0.1020 0.2791
vt 0.0711 0.7603
vt 0.0605 0.7616
vt 0.1372 0.2821
vt 0.1545 0.2829
vt 0.1033 0.7547
vt 0.0923 0.7603
vt 0.1194 0.2809
vt 0.0817 0.7590
vt 0.1860 0.5676
vt 0.2018 0.5680
vt 0.2073 0.5978
vt 0.1916 0.5990
vt 0.1799 0.5876
vt 0.1787 0.6060
vt 0.1628 0.5770
vt 0.1603 0.6084
vt 0.0665 0.2771
vt 0.0506 0.7515
vt 0.1418 0.5691
vt 0.1424 0.6023
vt 0.1882 0.6506
vt 0.1782 0.6509
vt 0.2003 0.6516
vt 0.1659 0.6501
vt 0.1507 0.6525
vt 0.1779 0.8211
vt 0.1714 0.8203
vt 0.1636 0.8201
vt 0.1830 0.8203
vt 0.1894 0.8201
vt 0.0664 0.1782
vt 0.0871 0.1629
vt 0.1299 0.1587
vt 0.1512 0.1625
vt 0.1084 0.1606
vt 0.1709 0.1852
vt 0.5503 0.0317
vt 0.5482 0.0222
vt 0.5627 0.0254
vt 0.5682 0.0320
vt 0.5685 0.0404
vt 0.5562 0.0418
vt 0.5675 0.0083
vt 0.5441 0.0083
vt 0.5845 0.0633
vt 0.5845 0.0897
vt 0.5725 0.0756
vt 0.5687 0.0916
vt 0.5638 0.0790
vt 0.5612 0.0593
vt 0.5596 0.0896
vt 0.5642 0.0999
vt 0.5494 0.0967
vt 0.5498 0.0825
vt 0.5548 0.0740
vt 0.5649 0.1128
vt 0.5448 0.0540
vt 0.5654 0.0593
vt 0.5405 0.1121
vt 0.5325 0.0925
vt 0.5799 0.0470
vt 0.5872 0.0352
vt 0.5841 0.0185
vt 0.5435 0.0655
vt 0.5327 0.0749
vt 0.5325 0.0341
vt 0.3042 0.0317
vt 0.3021 0.0222
vt 0.3166 0.0254
vt 0.3221 0.0320
vt 0.3224 0.0404
vt 0.3101 0.0418
vt 0.3214 0.0083
vt 0.2981 0.0083
vt 0.3384 0.0633
vt 0.3384 0.0897
vt 0.3264 0.0756
vt 0.3226 0.0916
vt 0.3177 0.0790
vt 0.3151 0.0593
vt 0.3136 0.0896
vt 0.3181 0.0999
vt 0.3033 0.0967
vt 0.3037 0.0825
vt 0.3087 0.0740
vt 0.3189 0.1128
vt 0.2987 0.0540
vt 0.3193 0.0593
vt 0.2944 0.1121
vt 0.2864 0.0925
vt 0.3338 0.0470
vt 0.3412 0.0352
vt 0.3380 0.0185
vt 0.2974 0.0655
vt 0.2866 0.0749
vt 0.2864 0.0341
vn 0.5957 -0.0161 -0.8031
vn 0.0030 0.0208 0.9998
vn 0.9550 -0.0330 0.2946
vn -0.9508 0.0749 0.3007
vn 0.6033 0.0372 -0.7966
vn 0.0078 0.0148 0.9999
vn -0.6052 -0.0138 -0.7960
vn -0.2205 -0.2634 0.9392
vn -0.9546 -0.0272 0.2966
vn -0.6129 0.4945 0.6163
vn -0.1213 0.6333 -0.7643
vn 0.9532 0.0530 0.2976
vn 0.7025 -0.5762 -0.4177
vn -0.9591 0.2134 0.1861
vn -0.1786 -0.1697 0.9692
vn -0.2151 0.2611 -0.9410
vn 0.9811 -0.1859 -0.0539
vn -0.2270 0.1368 -0.9642
vn 0.9818 -0.1277 -0.1405
vn -0.9593 0.1463 0.2415
vn -0.1797 -0.0422 0.9828
vn -0.5977 0.0510 -0.8001
vn 0.9615 0.1019 0.2552
vn -0.9522 -0.0589 0.2997
vn -0.6000 -0.0335 -0.7993
vn -0.0027 0.0183 0.9998
vn 0.5962 0.0623 -0.8004
vn -0.9215 0.2835 -0.2654
vn -0.9659 -0.2025 0.1610
vn -0.4806 0.3518 -0.8033
vn 0.0856 0.2738 -0.9580
vn 0.6823 0.2881 -0.6719
vn 0.4448 -0.1514 -0.8827
vn -0.5361 -0.2651 -0.8014
vn 0.8013 0.3012 0.5169
vn 0.9040 -0.0505 0.4246
vn 0.9544 -0.1960 -0.2252
vn 0.4285 0.3984 0.8109
vn -0.6125 0.2607 0.7463
vn -0.4040 -0.1596 0.9007
vn 0.1704 -0.0672 0.9831
vn 0.5958 -0.2972 0.7461
vn -0.5848 -0.7765 -0.2346
vn -0.4629 -0.6255 -0.6280
vn 0.7180 -0.6911 -0.0831
vn 0.6052 -0.7686 0.2072
vn 0.5027 -0.6105 0.6120
vn 0.4026 0.8842 -0.2368
vn -0.6371 0.7236 0.2656
vn -0.9946 0.0159 0.1021
vn -0.9897 -0.1165 0.0837
vn -0.6017 0.2836 -0.7467
vn 0.5484 0.3793 -0.7453
vn 0.1617 -0.0892 -0.9828
vn 0.5596 -0.2623 -0.7862
vn -0.5336 -0.2671 -0.8025
vn 0.9090 0.2219 -0.3529
vn 0.8994 0.4229 0.1106
vn 0.9853 -0.1073 -0.1330
vn 0.2436 0.3325 0.9111
vn -0.5367 0.3570 0.7645
vn -0.5584 -0.3547 0.7499
vn -0.4473 -0.5688 0.6903
vn -0.5871 -0.7760 -0.2305
vn 0.4507 -0.5986 -0.6622
vn 0.2047 0.9700 -0.1314
vn -0.1125 0.9807 -0.1600
vn -0.9213 0.2840 -0.2656
vn -0.9662 -0.1932 0.1708
vn -0.4833 0.3386 -0.8074
vn 0.0815 0.2539 -0.9638
vn 0.6800 0.2702 -0.6816
vn 0.4385 -0.1720 -0.8821
vn -0.5426 -0.2778 -0.7927
vn 0.8063 0.3065 0.5060
vn 0.9062 -0.0477 0.4201
vn 0.9518 -0.2065 -0.2269
vn 0.4359 0.4120 0.8002
vn -0.6063 0.2795 0.7445
vn -0.3995 -0.1388 0.9062
vn 0.1759 -0.0484 0.9832
vn 0.5985 -0.2858 0.7484
vn -0.5910 -0.7774 -0.2154
vn -0.4706 -0.6351 -0.6125
vn 0.7131 -0.6972 -0.0734
vn 0.6017 -0.7681 0.2191
vn 0.5026 -0.6012 0.6213
vn 0.4067 0.8767 -0.2570
vn -0.6309 0.7328 0.2548
vn -0.9939 0.0242 0.1077
vn -0.9898 -0.1085 0.0919
vn -0.6044 0.2723 -0.7487
vn 0.5462 0.3607 -0.7560
vn 0.1552 -0.1100 -0.9817
vn 0.5532 -0.2816 -0.7840
vn -0.5401 -0.2799 -0.7937
vn 0.9082 0.2090 -0.3627
vn 0.9026 0.4194 0.0967
vn 0.9838 -0.1162 -0.1366
vn 0.2512 0.3493 0.9027
vn -0.5299 0.3758 0.7603
vn -0.5560 -0.3360 0.7602
vn -0.4466 -0.5519 0.7042
vn -0.5933 -0.7767 -0.2113
vn 0.4430 -0.6147 -0.6526
vn 0.2099 0.9658 -0.1521
vn -0.1074 0.9779 -0.1791
s off
f 1/1/1 6/2/1 10/3/1 5/4/1
f 4/5/2 9/6/2 8/7/2 3/8/2
f 5/4/3 10/3/3 9/9/3 4/10/3
f 3/8/4 8/7/4 7/11/4 2/12/4
f 30/13/5 29/14/5 11/15/5 15/16/5
f 32/17/6 31/18/6 14/19/6 13/20/6
f 29/14/7 33/21/7 12/22/7 11/15/7
f 8/23/8 9/24/8 18/25/8 17/26/8
f 33/21/9 32/17/9 13/20/9 12/22/9
f 16/27/10 8/23/10 17/26/10 20/28/10
f 10/29/11 16/27/11 20/28/11 19/30/11
f 31/31/12 30/13/12 15/16/12 14/32/12
f 9/33/13 10/29/13 19/30/13 18/34/13
f 20/28/14 17/26/14 21/35/14 24/36/14
f 17/26/15 18/25/15 22/37/15 21/35/15
f 19/30/16 20/28/16 24/36/16 23/38/16
f 18/34/17 19/30/17 23/38/17 22/39/17
f 23/38/18 24/36/18 28/40/18 27/41/18
f 22/39/19 23/38/19 27/41/19 26/42/19
f 24/36/20 21/35/20 25/43/20 28/40/20
f 21/35/21 22/37/21 26/44/21 25/43/21
f 2/12/22 7/11/22 6/2/22 1/1/22
f 16/45/23 10/46/23 30/13/23 31/31/23
f 7/47/24 8/48/24 32/17/24 33/21/24
f 6/49/25 7/47/25 33/21/25 29/14/25
f 8/48/26 16/50/26 31/18/26 32/17/26
f 10/46/27 6/49/27 29/14/27 30/13/27
f 34/51/28 35/52/28 36/53/28
f 37/54/29 38/55/29 39/56/29
f 40/57/30 35/52/30 41/58/30
f 40/59/31 41/60/31 42/61/31
f 42/61/32 43/62/32 44/63/32
f 42/61/33 44/63/33 45/64/33
f 40/57/34 37/54/34 36/53/34
f 46/65/35 47/66/35 48/67/35
f 46/65/36 48/67/36 49/68/36
f 49/68/37 50/69/37 44/63/37
f 48/67/38 47/66/38 51/70/38
f 52/71/39 34/51/39 39/56/39
f 52/71/40 39/56/40 53/72/40
f 52/73/41 53/74/41 48/67/41
f 53/74/42 49/68/42 48/67/42
f 54/75/43 37/54/43 55/76/43
f 55/76/44 37/54/44 45/77/44
f 55/78/45 50/69/45 49/68/45
f 55/78/46 49/68/46 54/79/46
f 54/79/47 49/68/47 53/74/47
f 47/66/48 43/62/48 41/60/48
f 35/52/49 34/51/49 51/80/49
f 36/53/50 39/56/50 34/51/50
f 36/53/51 37/54/51 39/56/51
f 40/57/52 36/53/52 35/52/52
f 42/61/53 41/60/53 43/62/53
f 40/59/54 42/61/54 45/64/54
f 45/64/55 44/63/55 50/69/55
f 40/57/56 45/77/56 37/54/56
f 46/65/57 44/63/57 43/62/57
f 46/65/58 43/62/58 47/66/58
f 46/65/59 49/68/59 44/63/59
f 52/73/60 48/67/60 51/70/60
f 52/71/61 51/80/61 34/51/61
f 53/72/62 39/56/62 38/55/62
f 54/75/63 53/72/63 38/55/63
f 54/75/64 38/55/64 37/54/64
f 55/78/65 45/64/65 50/69/65
f 51/70/66 47/66/66 41/60/66
f 51/80/67 41/58/67 35/52/67
f 56/81/68 57/82/68 58/83/68
f 59/84/69 60/85/69 61/86/69
f 62/87/70 57/82/70 63/88/70
f 62/89/71 63/90/71 64/91/71
f 64/91/72 65/92/72 66/93/72
f 64/91/73 66/93/73 67/94/73
f 62/87/74 59/84/74 58/83/74
f 68/95/75 69/96/75 70/97/75
f 68/95/76 70/97/76 71/98/76
f 71/98/77 72/99/77 66/93/77
f 70/97/78 69/96/78 73/100/78
f 74/101/79 56/81/79 61/86/79
f 74/101/80 61/86/80 75/102/80
f 74/103/81 75/104/81 70/97/81
f 75/104/82 71/98/82 70/97/82
f 76/105/83 59/84/83 77/106/83
f 77/106/84 59/84/84 67/107/84
f 77/108/85 72/99/85 71/98/85
f 77/108/86 71/98/86 76/109/86
f 76/109/87 71/98/87 75/104/87
f 69/96/88 65/92/88 63/90/88
f 57/82/89 56/81/89 73/110/89
f 58/83/90 61/86/90 56/81/90
f 58/83/91 59/84/91 61/86/91
f 62/87/92 58/83/92 57/82/92
f 64/91/93 63/90/93 65/92/93
f 62/89/94 64/91/94 67/94/94
f 67/94/95 66/93/95 72/99/95
f 62/87/96 67/107/96 59/84/96
f 68/95/97 66/93/97 65/92/97
f 68/95/98 65/92/98 69/96/98
f 68/95/99 71/98/99 66/93/99
f 74/103/100 70/97/100 73/100/100
f 74/101/101 73/110/101 56/81/101
f 75/102/102 61/86/102 60/85/102
f 76/105/103 75/102/103 60/85/103
f 76/105/104 60/85/104 59/84/104
f 77/108/105 67/94/105 72/99/105
f 73/100/106 69/96/106 63/90/106
f 73/110/107 63/88/107 57/82/107
