# Blender v2.78 (sub 0) OBJ File: 'Low_Poly_Trees_Pack.blend'
# www.blender.org
g Birch_Tree_m_02
v -0.000000 0.000000 -0.259344
v -0.224978 0.000000 -0.095888
v -0.139044 0.000000 0.168589
v 0.139044 0.000000 0.168589
v 0.224978 0.000000 -0.095888
v 0.095230 0.524560 -0.078874
v 0.038242 0.524560 0.096517
v -0.146176 0.524560 0.096517
v -0.203164 0.524560 -0.078874
v -0.053967 0.524560 -0.187273
v -0.022795 2.041050 -0.070916
v -0.066200 2.039088 0.062807
v -0.206661 2.032735 0.062807
v -0.250067 2.030772 -0.070916
v -0.136431 2.035911 -0.153562
v -0.338897 3.766184 -0.080537
v -0.373271 3.711394 0.054482
v -0.521665 3.736022 0.054048
v -0.538342 3.746791 -0.067254
v -0.447610 3.761765 -0.134067
v -0.947790 5.394528 -0.062179
v -0.976292 5.396707 0.025798
v -1.068528 5.403757 0.025798
v -1.097030 5.405935 -0.062179
v -1.022410 5.400232 -0.116552
v -1.305558 6.972852 -0.053250
v -1.318944 6.972369 -0.012024
v -1.362263 6.970805 -0.012024
v -1.375650 6.970321 -0.053250
v -1.340604 6.971587 -0.078729
v -0.442310 3.928254 0.054048
v 0.007874 4.157802 0.195784
v 0.042140 4.071948 0.269634
v -0.023068 4.112799 0.335147
v -0.030767 4.213051 0.275102
v 0.364281 4.623197 0.302233
v 0.422217 4.561338 0.358591
v 0.362750 4.573203 0.420885
v 0.306406 4.632395 0.370716
v 0.669825 5.769152 0.438969
v 0.710844 5.751448 0.475009
v 0.676648 5.755316 0.509929
v 0.636900 5.772527 0.477549
v 0.481056 6.252720 1.233019
v 0.753758 6.584177 1.243368
v 0.350788 7.116703 1.010706
v 0.006213 6.597713 0.853458
v -0.001275 7.003674 0.531118
v -0.114148 6.358800 0.339454
v 0.054082 5.905852 0.749906
v 0.397269 5.794542 0.986910
v 0.104303 6.895721 0.044936
v 0.405337 7.337848 0.094434
v 0.555391 6.529747 -0.325801
v 0.234454 6.225959 -0.158146
v 0.797412 5.623217 0.017594
v 0.283483 5.647941 0.177184
v 0.936491 6.308688 -0.241795
v 1.250027 6.693224 -0.048559
v 1.152336 7.299253 0.324503
v 1.452249 6.389114 0.642127
v 1.218673 5.862551 0.139104
v 1.085510 7.189736 0.878688
v 1.189729 6.685148 1.002758
v 0.991154 5.931232 1.053876
v 1.031074 5.632385 0.701818
v 0.559590 5.517131 0.655318
v 0.755457 7.444354 0.639775
v 0.930399 7.165762 -0.057604
v 0.365375 7.381417 0.585414
v -1.991704 7.253327 -0.767716
v -2.232134 7.836437 -0.517897
v -1.762490 8.755273 -0.909986
v -1.281464 7.870870 -1.112708
v -0.962182 8.615694 -0.972475
v -0.583150 7.538090 -0.866930
v -1.105973 6.709924 -0.874862
v -1.594773 6.505290 -0.623288
v -0.466274 8.517668 -0.508937
v -0.784971 9.285319 -0.271186
v -0.303204 7.984447 0.314304
v -0.236280 7.416323 -0.114213
v -0.740766 6.397982 0.510161
v -0.576195 6.378557 -0.187379
v -0.629263 7.619933 0.729582
v -1.112646 8.266809 0.894935
v -1.549982 9.234017 0.434055
v -1.997099 7.649599 0.713837
v -1.196819 6.816113 0.870387
v -2.121357 8.952456 0.005076
v -2.267795 8.078172 0.124146
v -2.092745 6.769052 -0.012600
v -1.680053 6.318810 0.317693
v -1.291424 6.096829 -0.170479
v -1.657986 9.402954 -0.253825
v -0.946518 9.052732 0.458279
v -1.322583 9.277220 -0.652423
vt 0.1081 0.1455
vt 0.1142 0.2247
vt 0.0837 0.2257
vt 0.0653 0.1482
vt 0.2346 0.1556
vt 0.2047 0.2280
vt 0.1756 0.2238
vt 0.1938 0.1451
vt 0.1511 0.1436
vt 0.1450 0.2237
vt 0.0545 0.2288
vt 0.0238 0.1564
vt 0.1885 0.4591
vt 0.1657 0.4590
vt 0.0964 0.4601
vt 0.0735 0.4598
vt 0.1427 0.4602
vt 0.1195 0.4608
vt 0.1373 0.2942
vt 0.1352 0.6285
vt 0.1106 0.6311
vt 0.1087 0.2949
vt 0.0878 0.6311
vt 0.0802 0.2940
vt 0.1937 0.2929
vt 0.1923 0.6281
vt 0.1638 0.6187
vt 0.1656 0.2926
vt 0.0634 0.6288
vt 0.0521 0.2937
vt 0.2085 0.4816
vt 0.1982 0.7484
vt 0.1841 0.7495
vt 0.1861 0.5098
vt 0.1289 0.4876
vt 0.1432 0.7530
vt 0.1294 0.7501
vt 0.1107 0.4838
vt 0.0349 0.6354
vt 0.0549 0.6330
vt 0.0659 0.7153
vt 0.0495 0.7138
vt 0.1649 0.4862
vt 0.1708 0.7543
vt 0.1569 0.7562
vt 0.1463 0.4892
vt 0.1730 0.9980
vt 0.1662 0.9984
vt 0.1595 0.9981
vt 0.1864 0.9972
vt 0.1797 0.9973
vt 0.1527 0.9980
vt 0.1041 0.6240
vt 0.1186 0.6380
vt 0.1095 0.7163
vt 0.0959 0.7155
vt 0.0851 0.6443
vt 0.0805 0.7206
vt 0.0788 0.8026
vt 0.0650 0.8036
vt 0.1054 0.8016
vt 0.0928 0.7999
vt 0.0503 0.8003
vt 0.0847 0.9909
vt 0.0757 0.9925
vt 0.0670 0.9923
vt 0.0573 0.9907
vt 0.0930 0.9908
vt 0.4783 0.0635
vt 0.4792 0.0720
vt 0.4649 0.0700
vt 0.4655 0.0591
vt 0.4565 0.0604
vt 0.4599 0.0487
vt 0.4723 0.0503
vt 0.4806 0.0537
vt 0.4452 0.0521
vt 0.4407 0.0674
vt 0.4085 0.0328
vt 0.4236 0.0396
vt 0.4046 0.0508
vt 0.3918 0.0465
vt 0.3990 0.0686
vt 0.3843 0.0668
vt 0.4510 0.0328
vt 0.4706 0.0328
vt 0.4079 0.0601
vt 0.4167 0.0629
vt 0.4287 0.0611
vt 0.4219 0.0781
vt 0.4082 0.0717
vt 0.4406 0.0707
vt 0.4872 0.0850
vt 0.4716 0.0889
vt 0.4946 0.0645
vt 0.4132 0.0959
vt 0.4058 0.0852
vt 0.3912 0.0856
vt 0.4862 0.0428
vt 0.4406 0.0544
vt 0.4207 0.0543
vt 0.4547 0.0715
vt 0.4569 0.0832
vt 0.4344 0.0873
vt 0.3514 0.0635
vt 0.3523 0.0720
vt 0.3379 0.0700
vt 0.3386 0.0591
vt 0.3295 0.0604
vt 0.3330 0.0487
vt 0.3453 0.0503
vt 0.3537 0.0537
vt 0.3183 0.0521
vt 0.3137 0.0674
vt 0.2815 0.0328
vt 0.2966 0.0396
vt 0.2776 0.0508
vt 0.2649 0.0465
vt 0.2720 0.0686
vt 0.2573 0.0668
vt 0.3241 0.0328
vt 0.3436 0.0328
vt 0.2809 0.0601
vt 0.2897 0.0629
vt 0.3017 0.0611
vt 0.2949 0.0781
vt 0.2813 0.0717
vt 0.3137 0.0707
vt 0.3602 0.0850
vt 0.3447 0.0889
vt 0.3677 0.0645
vt 0.2863 0.0959
vt 0.2789 0.0852
vt 0.2643 0.0856
vt 0.3593 0.0428
vt 0.3137 0.0544
vt 0.2937 0.0543
vt 0.3278 0.0715
vt 0.3300 0.0832
vt 0.3074 0.0873
vn -0.5870 0.0506 -0.8080
vn 0.9278 0.2197 0.3015
vn -0.9506 0.0295 0.3089
vn 0.5793 0.1692 -0.7974
vn 0.0000 0.1361 0.9907
vn 0.9485 0.0722 0.3085
vn 0.5866 0.0500 -0.8083
vn -0.0004 0.0223 0.9998
vn -0.9506 -0.0312 0.3089
vn -0.5877 -0.0140 -0.8089
vn -0.9606 -0.1692 0.2205
vn -0.5814 -0.0958 -0.8079
vn 0.9357 0.1733 0.3074
vn 0.5168 0.0964 -0.8506
vn -0.0012 0.0048 1.0000
vn 0.8984 0.3325 0.2871
vn 0.4990 0.1901 -0.8455
vn 0.7626 -0.5368 -0.3611
vn -0.9334 -0.3089 0.1824
vn -0.5732 -0.1916 -0.7967
vn -0.9383 -0.1687 0.3020
vn -0.5883 -0.1000 -0.8024
vn 0.9310 0.2095 0.2991
vn 0.5867 0.1377 -0.7980
vn 0.0010 0.0243 0.9997
vn 0.0566 -0.6048 0.7944
vn -0.6189 0.3006 0.7257
vn -0.0142 0.0131 0.9998
vn -0.1041 0.6623 -0.7420
vn -0.5509 0.5709 -0.6087
vn 0.4914 -0.5242 0.6955
vn -0.5633 0.3046 0.7680
vn 0.5863 -0.2981 -0.7533
vn -0.6014 0.1000 0.7927
vn 0.6444 -0.0815 -0.7603
vn -0.7189 0.2683 -0.6412
vn 0.6812 -0.2331 0.6940
vn -0.2784 0.1998 0.9395
vn -0.9776 0.1196 0.1733
vn -0.7874 0.3744 0.4898
vn -0.9559 -0.1071 0.2736
vn -0.6057 -0.2877 0.7419
vn -0.9362 0.2401 -0.2566
vn -0.7748 0.5603 -0.2927
vn -0.3967 0.3644 -0.8425
vn -0.2787 -0.4995 -0.8202
vn -0.8096 -0.3444 -0.4753
vn 0.3215 0.2027 -0.9250
vn 0.9523 0.2558 -0.1662
vn 0.9402 -0.1085 -0.3230
vn 0.4545 -0.3944 -0.7987
vn 0.0008 -0.3541 -0.9352
vn 0.9132 0.3645 0.1821
vn 0.4079 0.2966 0.8635
vn 0.2089 -0.2018 0.9569
vn 0.7994 -0.4103 0.4389
vn 0.1192 -0.7502 0.6504
vn -0.5904 -0.7977 0.1227
vn 0.5231 -0.8357 -0.1674
vn 0.4875 0.8435 0.2255
vn 0.1734 0.8940 -0.4131
vn -0.6941 0.6216 0.3631
vn -0.2059 0.8339 0.5120
vn 0.0530 0.7190 0.6930
vn -0.5622 0.1256 0.8174
vn -0.6828 -0.1541 0.7141
vn -0.8169 0.0161 -0.5766
vn -0.5589 0.1393 -0.8175
vn -0.1129 0.4418 -0.8900
vn -0.1200 -0.3795 -0.9174
vn -0.8772 -0.4575 -0.1453
vn 0.3222 0.2002 -0.9253
vn 0.6908 0.4565 -0.5607
vn 0.6716 -0.1873 -0.7169
vn 0.8708 0.2793 0.4046
vn 0.1111 0.4673 0.8771
vn 0.4946 -0.0715 0.8662
vn 0.0100 -0.4746 0.8801
vn 0.7370 -0.1494 0.6592
vn 0.8730 -0.4784 0.0954
vn 0.0953 -0.7401 0.6658
vn -0.5154 -0.7645 0.3873
vn -0.1098 -0.9730 -0.2028
vn 0.2434 -0.9674 -0.0702
vn 0.1329 0.9532 -0.2715
vn -0.1450 0.9844 -0.0992
vn -0.7038 0.7003 -0.1194
vn -0.6791 0.0342 -0.7333
vn 0.3442 0.0291 -0.9384
vn -0.0412 0.2019 -0.9785
vn 0.2611 -0.1557 -0.9527
vn -0.3148 -0.3383 -0.8868
vn 0.6906 0.1741 -0.7020
vn 0.6537 0.4580 -0.6025
vn 0.9281 0.3683 0.0547
vn 0.9209 -0.3176 0.2261
vn 0.8628 -0.2517 -0.4383
vn 0.6220 0.2777 0.7321
vn -0.3650 0.2608 0.8937
vn -0.1971 -0.0052 0.9804
vn 0.4899 -0.1972 0.8492
vn 0.8418 -0.1689 0.5127
vn -0.6636 0.3077 0.6819
vn -0.9825 0.1495 -0.1109
vn -0.9225 -0.2569 -0.2882
vn -0.7854 -0.3409 0.5166
vn -0.6527 -0.7345 -0.1857
vn 0.2851 -0.7589 -0.5855
vn -0.0856 -0.7023 0.7067
vn -0.5848 0.7618 0.2789
vn 0.2573 0.9027 0.3448
vn 0.0063 0.4383 -0.8988
vn -0.4499 0.6704 -0.5901
vn -0.7435 0.5314 -0.4061
vn -0.4216 -0.0215 -0.9065
vn -0.2553 -0.2309 -0.9389
vn 0.9100 0.0422 -0.4125
vn 0.9811 0.1761 -0.0803
vn 0.8281 0.4544 0.3283
vn 0.8945 -0.1972 0.4011
vn 0.6286 -0.3904 -0.6726
vn 0.6219 0.2757 0.7329
vn 0.1047 0.4660 0.8786
vn 0.2840 -0.0327 0.9583
vn -0.8218 0.2098 0.5297
vn -0.8735 0.2750 -0.4018
vn -0.9912 -0.1320 -0.0054
vn -0.7678 -0.4877 -0.4155
vn -0.9359 -0.1580 0.3148
vn -0.5217 -0.3552 0.7757
vn -0.6521 -0.7261 -0.2181
vn -0.0255 -0.7507 -0.6601
vn 0.3665 -0.9236 0.1122
vn -0.0070 -0.9124 0.4093
vn 0.1346 0.9670 0.2164
vn 0.1269 0.9716 -0.1997
vn 0.4662 0.5780 -0.6697
s off
f 2/1/1 9/2/1 10/3/1 1/4/1
f 5/5/2 6/6/2 7/7/2 4/8/2
f 3/9/3 8/10/3 9/2/3 2/1/3
f 1/4/4 10/3/4 6/11/4 5/12/4
f 4/8/5 7/7/5 8/10/5 3/9/5
f 6/6/6 11/13/6 12/14/6 7/7/6
f 10/3/7 15/15/7 11/16/7 6/11/7
f 7/7/8 12/14/8 13/17/8 8/10/8
f 8/10/9 13/17/9 14/18/9 9/2/9
f 9/2/10 14/18/10 15/15/10 10/3/10
f 13/19/11 18/20/11 19/21/11 14/22/11
f 14/22/12 19/21/12 20/23/12 15/24/12
f 11/25/13 16/26/13 17/27/13 12/28/13
f 15/24/14 20/23/14 16/29/14 11/30/14
f 12/28/15 17/27/15 18/20/15 13/19/15
f 16/31/16 21/32/16 22/33/16 31/34/16
f 20/35/17 25/36/17 21/37/17 16/38/17
f 17/39/18 16/40/18 32/41/18 33/42/18
f 18/43/19 23/44/19 24/45/19 19/46/19
f 19/46/20 24/45/20 25/36/20 20/35/20
f 23/44/21 28/47/21 29/48/21 24/45/21
f 24/45/22 29/48/22 30/49/22 25/36/22
f 21/32/23 26/50/23 27/51/23 22/33/23
f 25/36/24 30/49/24 26/52/24 21/37/24
f 22/33/25 27/51/25 28/47/25 23/44/25
f 18/53/26 17/54/26 33/55/26 34/56/26
f 31/57/27 18/53/27 34/56/27 35/58/27
f 18/43/28 31/34/28 22/33/28 23/44/28
f 16/40/29 31/57/29 35/58/29 32/41/29
f 32/41/30 35/58/30 39/59/30 36/60/30
f 34/56/31 33/55/31 37/61/31 38/62/31
f 35/58/32 34/56/32 38/62/32 39/59/32
f 33/42/33 32/41/33 36/60/33 37/63/33
f 39/59/34 38/62/34 42/64/34 43/65/34
f 37/63/35 36/60/35 40/66/35 41/67/35
f 36/60/36 39/59/36 43/65/36 40/66/36
f 38/62/37 37/61/37 41/68/37 42/64/37
f 44/69/38 45/70/38 46/71/38
f 47/72/39 48/73/39 49/74/39
f 46/71/40 48/73/40 47/72/40
f 47/72/41 49/74/41 50/75/41
f 50/75/42 51/76/42 44/69/42
f 49/74/43 48/73/43 52/77/43
f 52/77/44 48/73/44 53/78/44
f 52/79/45 53/80/45 54/81/45
f 55/82/46 56/83/46 57/84/46
f 55/85/47 57/86/47 49/74/47
f 58/87/48 54/81/48 59/88/48
f 59/88/49 60/89/49 61/90/49
f 59/88/50 61/90/50 62/91/50
f 62/91/51 56/83/51 58/87/51
f 58/87/52 56/83/52 54/81/52
f 61/90/53 60/89/53 63/92/53
f 64/93/54 63/94/54 45/70/54
f 45/70/55 44/69/55 65/95/55
f 65/96/56 66/97/56 61/90/56
f 66/97/57 65/96/57 67/98/57
f 67/99/58 50/75/58 57/86/58
f 56/83/59 62/91/59 66/97/59
f 68/100/60 63/92/60 60/89/60
f 60/89/61 69/101/61 53/80/61
f 70/102/62 48/73/62 46/71/62
f 70/102/63 46/71/63 68/103/63
f 68/103/64 46/71/64 63/94/64
f 47/72/65 44/69/65 46/71/65
f 47/72/66 50/75/66 44/69/66
f 55/85/67 49/74/67 52/77/67
f 55/82/68 52/79/68 54/81/68
f 54/81/69 53/80/69 69/101/69
f 55/82/70 54/81/70 56/83/70
f 49/74/71 57/86/71 50/75/71
f 59/88/72 54/81/72 69/101/72
f 59/88/73 69/101/73 60/89/73
f 59/88/74 62/91/74 58/87/74
f 64/104/75 61/90/75 63/92/75
f 45/70/76 63/94/76 46/71/76
f 64/93/77 45/70/77 65/95/77
f 65/95/78 44/69/78 51/76/78
f 64/104/79 65/96/79 61/90/79
f 61/90/80 66/97/80 62/91/80
f 67/99/81 65/95/81 51/76/81
f 67/99/82 51/76/82 50/75/82
f 67/98/83 57/84/83 56/83/83
f 67/98/84 56/83/84 66/97/84
f 68/100/85 60/89/85 53/80/85
f 68/103/86 53/78/86 70/102/86
f 70/102/87 53/78/87 48/73/87
f 71/105/88 72/106/88 73/107/88
f 74/108/89 75/109/89 76/110/89
f 73/107/90 75/109/90 74/108/90
f 74/108/91 76/110/91 77/111/91
f 77/111/92 78/112/92 71/105/92
f 76/110/93 75/109/93 79/113/93
f 79/113/94 75/109/94 80/114/94
f 79/115/95 80/116/95 81/117/95
f 82/118/96 83/119/96 84/120/96
f 82/121/97 84/122/97 76/110/97
f 85/123/98 81/117/98 86/124/98
f 86/124/99 87/125/99 88/126/99
f 86/124/100 88/126/100 89/127/100
f 89/127/101 83/119/101 85/123/101
f 85/123/102 83/119/102 81/117/102
f 88/126/103 87/125/103 90/128/103
f 91/129/104 90/130/104 72/106/104
f 72/106/105 71/105/105 92/131/105
f 92/132/106 93/133/106 88/126/106
f 93/133/107 92/132/107 94/134/107
f 94/135/108 77/111/108 84/122/108
f 83/119/109 89/127/109 93/133/109
f 95/136/110 90/128/110 87/125/110
f 87/125/111 96/137/111 80/116/111
f 97/138/112 75/109/112 73/107/112
f 97/138/113 73/107/113 95/139/113
f 95/139/114 73/107/114 90/130/114
f 74/108/115 71/105/115 73/107/115
f 74/108/116 77/111/116 71/105/116
f 82/121/117 76/110/117 79/113/117
f 82/118/118 79/115/118 81/117/118
f 81/117/119 80/116/119 96/137/119
f 82/118/120 81/117/120 83/119/120
f 76/110/121 84/122/121 77/111/121
f 86/124/122 81/117/122 96/137/122
f 86/124/123 96/137/123 87/125/123
f 86/124/124 89/127/124 85/123/124
f 91/140/125 88/126/125 90/128/125
f 72/106/126 90/130/126 73/107/126
f 91/129/127 72/106/127 92/131/127
f 92/131/128 71/105/128 78/112/128
f 91/140/129 92/132/129 88/126/129
f 88/126/130 93/133/130 89/127/130
f 94/135/131 92/131/131 78/112/131
f 94/135/132 78/112/132 77/111/132
f 94/134/133 84/120/133 83/119/133
f 94/134/134 83/119/134 93/133/134
f 95/136/135 87/125/135 80/116/135
f 95/139/136 80/114/136 97/138/136
f 97/138/137 80/114/137 75/109/137
