# Blender v2.78 (sub 0) OBJ File: 'Low_Poly_Trees_Pack.blend'
# www.blender.org
g Birch_Tree_crk_l_02
v -0.285351 0.000000 -0.109233
v -0.221012 0.000000 0.350292
v 0.163415 0.000000 0.323634
v 0.336665 0.000000 -0.152367
v 0.059313 0.000000 -0.419893
v -0.282602 0.664153 -0.106208
v -0.181844 0.664153 0.245177
v 0.183478 0.664153 0.257934
v 0.308502 0.664153 -0.085566
v 0.020449 0.664153 -0.310618
v -0.281543 4.146717 0.236763
v -0.008278 4.146522 0.246210
v 0.084399 4.145886 -0.011349
v -0.131589 4.145691 -0.179977
v 1.728499 4.062137 0.553286
v 1.635791 3.963855 0.759256
v 1.591762 3.726398 0.718279
v 1.657257 3.677935 0.486982
v 1.741764 3.885776 0.385010
v 5.365989 3.013640 2.144406
v 5.330815 2.923877 2.320240
v 5.084120 2.783039 2.222152
v 5.282880 2.706069 2.085486
v 5.336376 2.879083 1.999311
v 7.124304 2.542679 2.517842
v 6.988722 2.500435 2.631582
v 7.028698 2.331550 2.619414
v 7.087503 2.295339 2.479096
v 7.146587 2.425824 2.416319
v 9.640386 1.987036 3.003940
v 9.612108 1.846914 3.040050
v 9.659077 1.819511 2.936868
v 9.704116 1.916721 2.890503
v 3.316513 3.469720 1.682095
v 3.324372 3.205717 1.424603
v 3.272509 3.248599 1.643071
v 3.395473 3.563153 1.487793
v 3.400270 3.399790 1.328681
v 5.472505 2.688644 2.321428
v 5.454248 2.201521 2.990335
v 5.288932 2.101093 2.929514
v 5.424079 2.010196 2.842513
v 5.595694 2.120097 2.920306
v 6.506866 1.563708 3.915973
v 6.420985 1.446522 3.944573
v 6.491510 1.404757 3.837499
v 6.584376 1.532510 3.816780
v 7.895424 1.325697 4.554121
v 7.847310 1.267270 4.570144
v 7.886821 1.242956 4.510157
v 7.938845 1.306958 4.498550
v 7.260847 2.447903 2.658919
v 7.350806 2.640163 3.065183
v 7.234712 2.584586 3.153465
v 7.301520 2.443532 3.152522
v 7.417616 2.499110 3.064240
v 8.336984 2.712337 3.809281
v 8.282609 2.691026 3.879313
v 8.300739 2.602586 3.866478
v 8.355113 2.623896 3.796445
v 9.094725 -0.203178 4.339373
v 8.198535 -0.252713 4.407939
v 7.528763 0.559078 3.520513
v 8.821290 0.926139 3.687113
v 7.986484 1.638472 3.615044
v 9.284749 1.817526 4.291530
v 10.070530 0.820026 4.557920
v 9.997224 0.141502 4.931684
v 7.985238 2.323582 4.398765
v 6.858809 2.131922 4.358028
v 8.162027 2.390937 5.835216
v 9.090639 2.286364 5.477125
v 9.725480 1.232299 6.735303
v 10.215361 1.446791 5.769001
v 8.228110 1.807863 6.538078
v 7.229795 1.343828 6.420374
v 6.250273 1.051709 5.273188
v 7.758450 0.014783 6.291245
v 8.883092 0.743740 7.000274
v 6.642413 0.263971 4.691707
v 7.528207 0.365884 5.218336
v 9.169827 0.169997 5.616131
v 9.625118 0.105744 6.348440
v 10.296237 0.396296 5.804667
v 6.429425 0.935831 4.197055
v 6.640393 1.834784 5.479684
v 6.919527 1.352575 3.731817
v 11.502591 0.952787 3.966833
v 10.415799 0.831375 4.003367
v 9.620526 1.911464 2.912975
v 11.181684 2.355109 3.176508
v 10.169711 3.207320 3.048819
v 11.727460 3.403583 3.919855
v 12.676814 2.174542 4.276442
v 12.582264 1.266548 4.717734
v 10.149251 4.014447 3.982282
v 8.786025 3.797780 3.877047
v 10.332293 4.083838 5.701957
v 11.465340 3.953683 5.322186
v 12.210551 2.688002 6.852358
v 12.824204 2.946137 5.726221
v 10.398973 3.387909 6.542246
v 9.193460 2.841010 6.351732
v 8.032392 2.493889 4.936122
v 9.841178 1.105160 6.224238
v 11.185810 2.095889 7.125440
v 8.522779 1.403044 4.263138
v 9.586109 0.846157 4.934804
v 11.566974 0.582403 5.491127
v 12.101448 1.061515 6.386283
v 12.924801 1.618622 5.772535
v 8.272943 2.368918 3.663476
v 8.498153 3.440724 5.201848
v 8.875425 2.877464 3.134143
v 13.337161 -0.177842 2.612977
v 11.632078 -0.205268 2.508993
v 10.000904 0.884549 1.382079
v 12.297019 1.151348 1.629805
v 10.728723 2.144177 1.533772
v 13.339849 2.030861 2.518778
v 14.991162 0.550960 3.155563
v 15.104769 -0.111170 3.582242
v 10.995811 2.866359 2.555990
v 9.064366 2.782003 2.455110
v 11.901150 2.753826 4.399906
v 13.470144 2.392180 4.002584
v 15.210513 0.760985 5.314924
v 15.540085 0.944095 4.395710
v 12.419244 1.916109 5.281190
v 10.603361 1.552275 5.103514
v 8.477655 1.445839 3.557834
v 11.665799 -0.028434 4.932397
v 14.073237 0.410880 5.672462
v 8.984118 0.354315 2.818825
v 10.784765 0.280346 3.526770
v 14.178514 -0.055386 4.169237
v 15.097497 -0.032256 4.889311
v 15.731705 0.062371 4.417559
v 8.372568 1.414295 2.209852
v 9.148293 2.344451 3.855700
v 8.983579 1.915265 1.656965
v 0.092364 4.464637 0.296789
v 0.211336 4.569381 0.073045
v 0.049293 4.198141 0.253329
v 0.141644 4.138182 0.002726
v 0.241793 4.367619 -0.108696
v -1.065731 4.964697 -0.005311
v -1.271938 5.163189 -0.362668
v -0.894299 4.853394 -0.470502
v 0.196451 2.405020 -0.048458
v -0.231694 2.405435 0.240970
v -0.055570 2.404922 -0.245297
v 0.087600 2.405337 0.252072
v -0.317061 2.260728 -0.069723
vt 0.2016 0.0114
vt 0.1957 0.0626
vt 0.1661 0.0599
vt 0.1728 0.0064
vt 0.1378 0.0065
vt 0.1361 0.0590
vt 0.1063 0.0579
vt 0.1028 0.0041
vt 0.0738 0.0075
vt 0.0768 0.0596
vt 0.0480 0.0633
vt 0.0353 0.0135
vt 0.0833 0.2019
vt 0.0898 0.3441
vt 0.0677 0.3446
vt 0.0579 0.2039
vt 0.1865 0.2033
vt 0.1774 0.3440
vt 0.1558 0.3436
vt 0.1609 0.2018
vt 0.1092 0.2011
vt 0.1121 0.3443
vt 0.3066 0.8985
vt 0.3299 0.8980
vt 0.3321 0.9762
vt 0.3122 0.9766
vt 0.1121 0.3443
vt 0.1140 0.4716
vt 0.0952 0.4724
vt 0.0898 0.3441
vt 0.1774 0.3440
vt 0.1718 0.4741
vt 0.1521 0.4741
vt 0.1558 0.3436
vt 0.1344 0.3441
vt 0.1328 0.4727
vt 0.0761 0.4747
vt 0.0677 0.3446
vt 0.1352 0.2396
vt 0.1383 0.4027
vt 0.1153 0.4002
vt 0.1093 0.2396
vt 0.0832 0.2406
vt 0.0921 0.4015
vt 0.0685 0.3900
vt 0.0568 0.2420
vt 0.1617 0.2402
vt 0.1611 0.4054
vt 0.1883 0.2405
vt 0.1848 0.3887
vt 0.1141 0.5447
vt 0.0964 0.5436
vt 0.1947 0.5571
vt 0.2136 0.5570
vt 0.2090 0.6201
vt 0.1957 0.6237
vt 0.1316 0.5426
vt 0.0788 0.5413
vt 0.0703 0.4194
vt 0.1497 0.5359
vt 0.1385 0.7379
vt 0.1229 0.7414
vt 0.1099 0.7409
vt 0.0969 0.7394
vt 0.1316 0.6701
vt 0.1400 0.6722
vt 0.1398 0.7006
vt 0.1316 0.7008
vt 0.1652 0.5402
vt 0.1550 0.7389
vt 0.1464 0.5555
vt 0.0975 0.6259
vt 0.0799 0.6303
vt 0.1337 0.6268
vt 0.1157 0.6239
vt 0.1511 0.6303
vt 0.1688 0.6298
vt 0.1524 0.5559
vt 0.1684 0.5548
vt 0.1681 0.6227
vt 0.1559 0.6196
vt 0.1823 0.4207
vt 0.1671 0.5423
vt 0.1827 0.5689
vt 0.1831 0.6282
vt 0.1793 0.7422
vt 0.1684 0.7399
vt 0.1586 0.7392
vt 0.1882 0.7414
vt 0.1986 0.7407
vt 0.1787 0.8513
vt 0.1741 0.8511
vt 0.1843 0.8506
vt 0.1685 0.8497
vt 0.1634 0.8499
vt 0.1052 0.6715
vt 0.1140 0.6701
vt 0.1146 0.7012
vt 0.1064 0.7006
vt 0.1247 0.6781
vt 0.1228 0.7017
vt 0.1225 0.7684
vt 0.1187 0.7681
vt 0.1261 0.7682
vt 0.1132 0.7680
vt 0.1315 0.7681
vt 0.4668 0.0647
vt 0.4675 0.0715
vt 0.4560 0.0699
vt 0.4565 0.0611
vt 0.4492 0.0622
vt 0.4520 0.0528
vt 0.4619 0.0541
vt 0.4686 0.0568
vt 0.4402 0.0555
vt 0.4365 0.0678
vt 0.4107 0.0400
vt 0.4228 0.0454
vt 0.4075 0.0544
vt 0.3973 0.0510
vt 0.4030 0.0688
vt 0.3912 0.0673
vt 0.4448 0.0400
vt 0.4606 0.0400
vt 0.4102 0.0620
vt 0.4173 0.0642
vt 0.4269 0.0627
vt 0.4214 0.0764
vt 0.4104 0.0713
vt 0.4365 0.0705
vt 0.4739 0.0820
vt 0.4614 0.0850
vt 0.4799 0.0654
vt 0.4145 0.0907
vt 0.4085 0.0821
vt 0.3968 0.0824
vt 0.4731 0.0481
vt 0.4365 0.0574
vt 0.4205 0.0573
vt 0.4478 0.0711
vt 0.4496 0.0805
vt 0.4315 0.0838
vt 0.5947 0.0647
vt 0.5954 0.0715
vt 0.5839 0.0699
vt 0.5844 0.0611
vt 0.5772 0.0622
vt 0.5799 0.0528
vt 0.5899 0.0541
vt 0.5966 0.0568
vt 0.5681 0.0555
vt 0.5644 0.0678
vt 0.5386 0.0400
vt 0.5507 0.0454
vt 0.5355 0.0544
vt 0.5252 0.0510
vt 0.5310 0.0688
vt 0.5191 0.0673
vt 0.5728 0.0400
vt 0.5885 0.0400
vt 0.5381 0.0620
vt 0.5452 0.0642
vt 0.5548 0.0627
vt 0.5494 0.0764
vt 0.5384 0.0713
vt 0.5644 0.0705
vt 0.6018 0.0820
vt 0.5893 0.0850
vt 0.6078 0.0654
vt 0.5424 0.0907
vt 0.5364 0.0821
vt 0.5247 0.0824
vt 0.6011 0.0481
vt 0.5644 0.0574
vt 0.5484 0.0573
vt 0.5757 0.0711
vt 0.5775 0.0805
vt 0.5594 0.0838
vt 0.4668 0.0647
vt 0.4675 0.0715
vt 0.4560 0.0699
vt 0.4565 0.0611
vt 0.4492 0.0622
vt 0.4520 0.0528
vt 0.4619 0.0541
vt 0.4686 0.0568
vt 0.4402 0.0555
vt 0.4365 0.0678
vt 0.4107 0.0400
vt 0.4228 0.0454
vt 0.4075 0.0544
vt 0.3973 0.0510
vt 0.4030 0.0688
vt 0.3912 0.0673
vt 0.4448 0.0400
vt 0.4606 0.0400
vt 0.4102 0.0620
vt 0.4173 0.0642
vt 0.4269 0.0627
vt 0.4214 0.0764
vt 0.4104 0.0713
vt 0.4365 0.0705
vt 0.4739 0.0820
vt 0.4614 0.0850
vt 0.4799 0.0654
vt 0.4145 0.0907
vt 0.4085 0.0821
vt 0.3968 0.0824
vt 0.4731 0.0481
vt 0.4365 0.0574
vt 0.4205 0.0573
vt 0.4478 0.0711
vt 0.4496 0.0805
vt 0.4315 0.0838
vt 0.3286 0.9880
vt 0.3163 0.9882
vt 0.3178 0.8877
vt 0.2863 0.9057
vt 0.2927 0.8944
vt 0.3050 0.8941
vt 0.3059 0.9093
vt 0.3055 0.9675
vt 0.2830 0.9634
vt 0.2927 0.9837
vt 0.1345 0.5026
vt 0.1040 0.5085
vt 0.1040 0.3622
vt 0.1348 0.3144
vt 0.1656 0.5016
vt 0.1683 0.3542
vt 0.1353 0.1897
vn 0.0184 0.1267 0.9918
vn -0.6217 0.0492 -0.7817
vn 0.9397 0.0054 0.3420
vn -0.9789 0.0462 0.1993
vn 0.6511 0.1319 -0.7474
vn 0.9393 0.0530 0.3391
vn -0.0347 0.0014 0.9994
vn 0.6145 0.0563 -0.7869
vn -0.9402 -0.0280 -0.3395
vn 0.1317 -0.4791 -0.8678
vn -0.3160 -0.1034 0.9431
vn 0.4180 0.6427 -0.6421
vn -0.3201 -0.9413 0.1069
vn 0.1384 0.8674 0.4780
vn 0.3986 0.6388 -0.6581
vn -0.2834 -0.9513 0.1211
vn 0.0913 0.8810 0.4642
vn 0.1666 -0.4847 -0.8587
vn -0.3247 -0.0957 0.9410
vn 0.0866 -0.4646 -0.8813
vn -0.5536 0.5136 0.6555
vn 0.3213 0.6583 -0.6807
vn -0.2468 -0.9598 0.1337
vn 0.1326 0.8700 0.4748
vn 0.2706 0.7770 -0.5683
vn -0.2074 -0.9648 0.1620
vn -0.3614 0.9324 0.0013
vn 0.0730 -0.4580 -0.8859
vn -0.1293 0.1183 0.9845
vn -0.3255 -0.9396 0.1059
vn 0.5194 0.6071 -0.6013
vn 0.3044 -0.5158 -0.8008
vn 0.0224 0.8979 0.4397
vn -0.4934 -0.0567 0.8679
vn -0.6236 -0.6375 -0.4525
vn -0.2135 -0.1223 0.9693
vn 0.7196 0.5518 0.4215
vn 0.6380 -0.4972 -0.5880
vn 0.5025 -0.3717 -0.7806
vn -0.5195 -0.8539 0.0332
vn 0.4843 0.8738 0.0451
vn -0.4573 0.4111 0.7886
vn 0.2273 0.9646 -0.1336
vn -0.3096 0.4492 0.8381
vn 0.3558 -0.4104 -0.8397
vn -0.2203 -0.9480 0.2298
vn -0.8306 -0.3059 0.4653
vn 0.7989 0.4557 -0.3925
vn 0.0971 0.8671 0.4886
vn 0.4373 -0.8982 -0.0440
vn 0.2676 -0.9480 -0.1723
vn 0.5714 0.2582 -0.7790
vn -0.5359 -0.2468 0.8074
vn -0.2343 0.9495 0.2088
vn -0.0103 -0.7417 -0.6707
vn 0.3886 0.3701 -0.8438
vn 0.1174 0.0371 -0.9924
vn 0.5689 0.2380 -0.7872
vn 0.6043 -0.4335 -0.6685
vn 0.2324 0.7324 -0.6399
vn -0.1037 0.7487 -0.6547
vn -0.1668 0.9857 -0.0257
vn 0.4736 0.7780 0.4128
vn 0.6189 0.7598 -0.1991
vn -0.3923 0.6895 0.6089
vn -0.6739 -0.3322 0.6600
vn -0.3988 -0.2445 0.8839
vn 0.0419 0.4196 0.9067
vn 0.2122 0.7618 0.6120
vn -0.6845 -0.6218 0.3807
vn -0.1931 -0.8504 0.4894
vn 0.0741 -0.9584 0.2758
vn 0.0520 -0.9915 -0.1193
vn 0.2280 -0.9474 -0.2248
vn 0.9855 0.0706 -0.1544
vn 0.4503 -0.3256 0.8314
vn -0.9202 -0.3748 -0.1128
vn -0.8883 0.4563 -0.0521
vn -0.1467 0.1479 -0.9781
vn -0.5651 -0.2223 -0.7945
vn -0.5584 -0.5993 -0.5736
vn 0.2371 -0.4422 -0.8650
vn 0.5211 -0.3287 -0.7876
vn 0.3243 0.8966 -0.3015
vn 0.0897 0.9943 -0.0577
vn -0.3730 0.9123 0.1691
vn 0.2920 0.8005 0.5234
vn 0.7772 0.5161 -0.3600
vn -0.3941 0.6901 0.6071
vn -0.7685 0.2249 0.5989
vn -0.2328 0.2633 0.9362
vn 0.3126 -0.8809 -0.3554
vn -0.3541 -0.8076 -0.4715
vn -0.2165 -0.8541 0.4729
vn 0.1870 -0.9458 0.2654
vn -0.0402 -0.9522 -0.3030
vn 0.0128 -0.7073 0.7068
vn 0.1551 -0.9614 0.2275
vn 0.9378 -0.2397 -0.2512
vn 0.8812 0.0836 0.4653
vn 0.6753 -0.2927 0.6770
vn -0.9155 0.3543 -0.1906
vn -0.7842 0.3504 -0.5122
vn -0.2434 0.5959 -0.7653
vn 0.0528 -0.6899 -0.7219
vn 0.4172 0.3711 -0.8296
vn 0.1560 0.0374 -0.9870
vn 0.5942 0.2359 -0.7690
vn 0.5988 -0.3997 -0.6940
vn 0.2590 0.7334 -0.6285
vn -0.0694 0.7539 -0.6534
vn -0.1552 0.9876 -0.0233
vn 0.4535 0.7826 0.4265
vn 0.6201 0.7628 -0.1833
vn -0.4069 0.6874 0.6016
vn -0.6973 -0.3077 0.6474
vn -0.4242 -0.2227 0.8778
vn 0.0038 0.4133 0.9106
vn 0.1893 0.7636 0.6174
vn -0.7199 -0.5689 0.3976
vn -0.3118 -0.9129 -0.2633
vn 0.0999 -0.9659 -0.2389
vn -0.0523 -0.8671 0.4953
vn 0.5955 -0.8001 0.0727
vn 0.9880 0.0701 -0.1377
vn 0.3939 -0.2775 0.8763
vn -0.9328 -0.3306 -0.1438
vn -0.8872 0.4560 -0.0699
vn -0.1022 0.1465 -0.9839
vn -0.5309 -0.2223 -0.8178
vn -0.5419 -0.5400 -0.6440
vn 0.2670 -0.4261 -0.8644
vn 0.5367 -0.3177 -0.7817
vn 0.3356 0.8966 -0.2890
vn 0.0973 0.9940 -0.0505
vn -0.3665 0.9153 0.1671
vn 0.2705 0.8024 0.5320
vn 0.7878 0.5070 -0.3499
vn -0.4053 0.6868 0.6033
vn -0.7801 0.2193 0.5860
vn -0.2641 0.2586 0.9292
vn -0.5747 -0.7729 0.2689
vn -0.3100 -0.7788 -0.5453
vn -0.1090 -0.9907 -0.0814
vn 0.4164 -0.8793 -0.2312
vn -0.1915 -0.9543 0.2296
vn -0.0680 -0.6192 0.7823
vn 0.5953 -0.8001 0.0737
vn 0.9479 -0.2136 -0.2365
vn 0.8670 0.0828 0.4914
vn 0.6802 -0.2437 0.6913
vn -0.9105 0.3579 -0.2072
vn -0.7680 0.3554 -0.5327
vn -0.2045 0.6027 -0.7713
vn 0.0557 -0.6762 -0.7346
vn 0.3329 0.4454 -0.8311
vn 0.1000 0.0618 -0.9931
vn 0.5175 0.2218 -0.8265
vn 0.4467 -0.4292 -0.7850
vn 0.2597 0.7554 -0.6016
vn -0.0056 0.8174 -0.5760
vn -0.0479 0.9953 0.0842
vn 0.4958 0.8003 0.3372
vn 0.5867 0.7735 -0.2399
vn -0.2017 0.6480 0.7345
vn -0.5174 -0.4280 0.7410
vn -0.2395 -0.2622 0.9348
vn 0.1576 0.4070 0.8997
vn 0.3134 0.7734 0.5510
vn -0.5343 -0.6297 0.5639
vn -0.1613 -0.9362 0.3124
vn 0.0116 -0.9973 0.0722
vn -0.0007 -0.9995 0.0330
vn 0.0882 -0.9928 -0.0806
vn 0.8772 0.1796 -0.4452
vn 0.3939 -0.4775 0.7854
vn -0.8826 -0.4634 0.0796
vn -0.8155 0.5368 0.2166
vn -0.0917 0.1711 -0.9810
vn -0.5061 -0.2822 -0.8150
vn -0.5049 -0.6302 -0.5899
vn 0.1506 -0.5090 -0.8475
vn 0.4162 -0.3073 -0.8558
vn 0.3215 0.9131 -0.2506
vn 0.2135 0.9759 -0.0453
vn -0.1985 0.9321 0.3031
vn 0.3169 0.7764 0.5448
vn 0.6813 0.5548 -0.4775
vn -0.2386 0.6696 0.7033
vn -0.5848 0.1738 0.7923
vn -0.1210 0.1230 0.9850
vn 0.0581 -0.9668 -0.2488
vn -0.2348 -0.8461 -0.4784
vn -0.1529 -0.9353 0.3190
vn -0.0077 -0.9966 0.0826
vn -0.0639 -0.9824 -0.1757
vn 0.0053 -0.8673 0.4977
vn 0.0477 -0.9845 0.1688
vn 0.8015 -0.2206 -0.5558
vn 0.9073 0.2063 0.3664
vn 0.5755 -0.4488 0.6837
vn -0.8950 0.4421 0.0594
vn -0.7724 0.4677 -0.4297
vn -0.1399 0.6778 -0.7219
vn 0.3119 -0.9234 0.2237
vn 0.0260 -0.1650 0.9860
vn 0.1471 -0.4833 -0.8630
vn 0.0008 1.0000 -0.0022
vn -0.5763 0.7899 -0.2096
vn -0.8515 0.3753 -0.3662
vn -0.4101 -0.9096 0.0665
vn -0.6425 -0.7644 -0.0539
vn 0.4555 0.6851 -0.5685
vn 0.2449 0.8742 0.4194
vn -0.5596 0.0068 -0.8288
vn 0.6146 0.0563 -0.7868
vn -0.9608 -0.0269 0.2760
vn -0.0348 0.0014 0.9994
vn 0.9386 0.0530 0.3408
s off
f 3/1/1 8/2/1 7/3/1 2/4/1
f 1/5/2 6/6/2 10/7/2 5/8/2
f 4/9/3 9/10/3 8/11/3 3/12/3
f 2/4/4 7/3/4 6/6/4 1/5/4
f 5/8/5 10/7/5 9/10/5 4/9/5
f 150/13/6 13/14/6 12/15/6 153/16/6
f 153/17/7 12/18/7 11/19/7 151/20/7
f 152/21/8 14/22/8 13/14/8 150/13/8
f 152/23/9 151/24/9 11/25/9 14/26/9
f 146/27/10 19/28/10 18/29/10 145/30/10
f 144/31/11 17/32/11 16/33/11 142/34/11
f 143/35/12 15/36/12 19/28/12 146/27/12
f 145/30/13 18/29/13 17/37/13 144/38/13
f 142/34/14 16/33/14 15/36/14 143/35/14
f 37/39/15 20/40/15 24/41/15 38/42/15
f 35/43/16 23/44/16 22/45/16 36/46/16
f 34/47/17 21/48/17 20/40/17 37/39/17
f 38/42/18 24/41/18 23/44/18 35/43/18
f 36/49/19 22/50/19 21/48/19 34/47/19
f 24/41/20 29/51/20 28/52/20 23/44/20
f 21/53/21 22/54/21 41/55/21 40/56/21
f 20/40/22 25/57/22 29/51/22 24/41/22
f 23/44/23 28/52/23 27/58/23 39/59/23
f 21/48/24 26/60/24 25/57/24 20/40/24
f 25/57/25 30/61/25 33/62/25 29/51/25
f 28/52/26 32/63/26 31/64/26 27/58/26
f 25/65/27 26/66/27 54/67/27 53/68/27
f 29/51/28 33/62/28 32/63/28 28/52/28
f 27/69/29 31/70/29 30/61/29 52/71/29
f 18/29/30 35/72/30 36/73/30 17/37/30
f 15/36/31 37/74/31 38/75/31 19/28/31
f 19/28/32 38/75/32 35/72/32 18/29/32
f 16/33/33 34/76/33 37/74/33 15/36/33
f 17/32/34 36/77/34 34/76/34 16/33/34
f 22/78/35 23/79/35 42/80/35 41/81/35
f 21/48/36 39/82/36 27/83/36 26/60/36
f 39/84/37 21/53/37 40/56/37 43/85/37
f 23/79/38 39/84/38 43/85/38 42/80/38
f 42/80/39 43/85/39 47/86/39 46/87/39
f 41/81/40 42/80/40 46/87/40 45/88/40
f 43/85/41 40/56/41 44/89/41 47/86/41
f 40/56/42 41/55/42 45/90/42 44/89/42
f 47/86/43 44/89/43 48/91/43 51/92/43
f 44/89/44 45/90/44 49/93/44 48/91/44
f 46/87/45 47/86/45 51/92/45 50/94/45
f 45/88/46 46/87/46 50/94/46 49/95/46
f 26/96/47 27/97/47 55/98/47 54/99/47
f 52/100/48 25/65/48 53/68/48 56/101/48
f 25/57/49 52/71/49 30/61/49
f 27/97/50 52/100/50 56/101/50 55/98/50
f 55/98/51 56/101/51 60/102/51 59/103/51
f 56/101/52 53/68/52 57/104/52 60/102/52
f 54/99/53 55/98/53 59/103/53 58/105/53
f 53/68/54 54/67/54 58/106/54 57/104/54
f 61/107/55 62/108/55 63/109/55
f 64/110/56 65/111/56 66/112/56
f 63/109/57 65/111/57 64/110/57
f 64/110/58 66/112/58 67/113/58
f 67/113/59 68/114/59 61/107/59
f 66/112/60 65/111/60 69/115/60
f 69/115/61 65/111/61 70/116/61
f 69/117/62 70/118/62 71/119/62
f 72/120/63 73/121/63 74/122/63
f 72/123/64 74/124/64 66/112/64
f 75/125/65 71/119/65 76/126/65
f 76/126/66 77/127/66 78/128/66
f 76/126/67 78/128/67 79/129/67
f 79/129/68 73/121/68 75/125/68
f 75/125/69 73/121/69 71/119/69
f 78/128/70 77/127/70 80/130/70
f 81/131/71 80/132/71 62/108/71
f 62/108/72 61/107/72 82/133/72
f 82/134/73 83/135/73 78/128/73
f 83/135/74 82/134/74 84/136/74
f 84/137/75 67/113/75 74/124/75
f 73/121/76 79/129/76 83/135/76
f 85/138/77 80/130/77 77/127/77
f 77/127/78 86/139/78 70/118/78
f 87/140/79 65/111/79 63/109/79
f 87/140/80 63/109/80 85/141/80
f 85/141/81 63/109/81 80/132/81
f 64/110/82 61/107/82 63/109/82
f 64/110/83 67/113/83 61/107/83
f 72/123/84 66/112/84 69/115/84
f 72/120/85 69/117/85 71/119/85
f 71/119/86 70/118/86 86/139/86
f 72/120/87 71/119/87 73/121/87
f 66/112/88 74/124/88 67/113/88
f 76/126/89 71/119/89 86/139/89
f 76/126/90 86/139/90 77/127/90
f 76/126/91 79/129/91 75/125/91
f 81/142/92 78/128/92 80/130/92
f 62/108/93 80/132/93 63/109/93
f 81/131/94 62/108/94 82/133/94
f 82/133/95 61/107/95 68/114/95
f 81/142/96 82/134/96 78/128/96
f 78/128/97 83/135/97 79/129/97
f 84/137/98 82/133/98 68/114/98
f 84/137/99 68/114/99 67/113/99
f 84/136/100 74/122/100 73/121/100
f 84/136/101 73/121/101 83/135/101
f 85/138/102 77/127/102 70/118/102
f 85/141/103 70/116/103 87/140/103
f 87/140/104 70/116/104 65/111/104
f 88/143/105 89/144/105 90/145/105
f 91/146/106 92/147/106 93/148/106
f 90/145/107 92/147/107 91/146/107
f 91/146/108 93/148/108 94/149/108
f 94/149/109 95/150/109 88/143/109
f 93/148/110 92/147/110 96/151/110
f 96/151/111 92/147/111 97/152/111
f 96/153/112 97/154/112 98/155/112
f 99/156/113 100/157/113 101/158/113
f 99/159/114 101/160/114 93/148/114
f 102/161/115 98/155/115 103/162/115
f 103/162/116 104/163/116 105/164/116
f 103/162/117 105/164/117 106/165/117
f 106/165/118 100/157/118 102/161/118
f 102/161/119 100/157/119 98/155/119
f 105/164/120 104/163/120 107/166/120
f 108/167/121 107/168/121 89/144/121
f 89/144/122 88/143/122 109/169/122
f 109/170/123 110/171/123 105/164/123
f 110/171/124 109/170/124 111/172/124
f 111/173/125 94/149/125 101/160/125
f 100/157/126 106/165/126 110/171/126
f 112/174/127 107/166/127 104/163/127
f 104/163/128 113/175/128 97/154/128
f 114/176/129 92/147/129 90/145/129
f 114/176/130 90/145/130 112/177/130
f 112/177/131 90/145/131 107/168/131
f 91/146/132 88/143/132 90/145/132
f 91/146/133 94/149/133 88/143/133
f 99/159/134 93/148/134 96/151/134
f 99/156/135 96/153/135 98/155/135
f 98/155/136 97/154/136 113/175/136
f 99/156/137 98/155/137 100/157/137
f 93/148/138 101/160/138 94/149/138
f 103/162/139 98/155/139 113/175/139
f 103/162/140 113/175/140 104/163/140
f 103/162/141 106/165/141 102/161/141
f 108/178/142 105/164/142 107/166/142
f 89/144/143 107/168/143 90/145/143
f 108/167/144 89/144/144 109/169/144
f 109/169/145 88/143/145 95/150/145
f 108/178/146 109/170/146 105/164/146
f 105/164/147 110/171/147 106/165/147
f 111/173/148 109/169/148 95/150/148
f 111/173/149 95/150/149 94/149/149
f 111/172/150 101/158/150 100/157/150
f 111/172/151 100/157/151 110/171/151
f 112/174/152 104/163/152 97/154/152
f 112/177/153 97/152/153 114/176/153
f 114/176/154 97/152/154 92/147/154
f 115/179/155 116/180/155 117/181/155
f 118/182/156 119/183/156 120/184/156
f 117/181/157 119/183/157 118/182/157
f 118/182/158 120/184/158 121/185/158
f 121/185/159 122/186/159 115/179/159
f 120/184/160 119/183/160 123/187/160
f 123/187/161 119/183/161 124/188/161
f 123/189/162 124/190/162 125/191/162
f 126/192/163 127/193/163 128/194/163
f 126/195/164 128/196/164 120/184/164
f 129/197/165 125/191/165 130/198/165
f 130/198/166 131/199/166 132/200/166
f 130/198/167 132/200/167 133/201/167
f 133/201/168 127/193/168 129/197/168
f 129/197/169 127/193/169 125/191/169
f 132/200/170 131/199/170 134/202/170
f 135/203/171 134/204/171 116/180/171
f 116/180/172 115/179/172 136/205/172
f 136/206/173 137/207/173 132/200/173
f 137/207/174 136/206/174 138/208/174
f 138/209/175 121/185/175 128/196/175
f 127/193/176 133/201/176 137/207/176
f 139/210/177 134/202/177 131/199/177
f 131/199/178 140/211/178 124/190/178
f 141/212/179 119/183/179 117/181/179
f 141/212/180 117/181/180 139/213/180
f 139/213/181 117/181/181 134/204/181
f 118/182/182 115/179/182 117/181/182
f 118/182/183 121/185/183 115/179/183
f 126/195/184 120/184/184 123/187/184
f 126/192/185 123/189/185 125/191/185
f 125/191/186 124/190/186 140/211/186
f 126/192/187 125/191/187 127/193/187
f 120/184/188 128/196/188 121/185/188
f 130/198/189 125/191/189 140/211/189
f 130/198/190 140/211/190 131/199/190
f 130/198/191 133/201/191 129/197/191
f 135/214/192 132/200/192 134/202/192
f 116/180/193 134/204/193 117/181/193
f 135/203/194 116/180/194 136/205/194
f 136/205/195 115/179/195 122/186/195
f 135/214/196 136/206/196 132/200/196
f 132/200/197 137/207/197 133/201/197
f 138/209/198 136/205/198 122/186/198
f 138/209/199 122/186/199 121/185/199
f 138/208/200 128/194/200 127/193/200
f 138/208/201 127/193/201 137/207/201
f 139/210/202 131/199/202 124/190/202
f 139/213/203 124/188/203 141/212/203
f 141/212/204 124/188/204 119/183/204
f 12/15/205 13/14/205 145/30/205 144/38/205
f 144/38/206 142/34/206 12/15/206
f 145/30/207 13/14/207 146/27/207
f 12/215/208 13/216/208 14/26/208 11/25/208
f 152/23/209 154/217/209 151/24/209
f 146/218/210 13/219/210 12/220/210 142/221/210
f 146/218/211 142/221/211 147/222/211 149/223/211
f 148/224/212 149/223/212 147/222/212
f 143/225/213 146/226/213 149/227/213 148/228/213
f 142/229/214 143/225/214 148/228/214 147/230/214
f 6/6/215 154/231/215 152/21/215 10/7/215
f 10/7/216 152/21/216 150/13/216 9/10/216
f 7/3/217 151/20/217 154/231/217 6/6/217
f 8/2/218 153/17/218 151/20/218 7/3/218
f 9/10/219 150/13/219 153/16/219 8/11/219
