# Blender v2.78 (sub 0) OBJ File: 'Low_Poly_Trees_Pack.blend'
# www.blender.org
g Birch_Tree_crk_m_03
v -0.194532 1.116288 -0.135402
v -0.300885 1.133846 -0.086278
v -0.329080 1.248093 -0.099881
v -0.240152 1.301144 -0.157413
v -0.785513 0.855045 -1.394058
v -0.869138 0.869591 -1.352728
v -0.892042 0.960430 -1.364402
v -0.822573 1.002027 -1.412946
v -0.756735 0.936895 -1.431275
v -1.442210 0.587855 -2.938824
v -1.485296 0.595349 -2.917530
v -1.497096 0.642152 -2.923544
v -1.461304 0.663584 -2.948556
v -1.427382 0.630026 -2.957999
v -1.630044 1.259676 -2.868065
v -1.211940 1.027367 -2.747811
v -1.501300 1.197514 -4.137968
v -2.039003 0.943449 -5.111856
v -2.507110 0.789192 -5.248244
v -2.367542 1.074118 -3.996885
v -1.050558 0.686822 -4.073728
v -1.071268 0.710027 -2.508764
v -1.043367 0.208224 -3.857957
v -1.219201 0.213892 -2.612961
v -1.373454 -0.177676 -4.154096
v -1.627971 0.231043 -5.304873
v -1.691486 -0.176453 -3.403083
v -1.521309 0.384743 -2.444156
v -2.356658 0.011231 -3.546588
v -2.332679 -0.354600 -4.893298
v -1.928983 -0.234442 -5.180605
v -1.647188 0.834278 -2.438824
v -2.425835 0.653935 -3.360807
v -2.846356 0.270663 -4.817731
v -2.681262 0.232070 -5.721346
v -2.302444 0.094362 -5.829776
v -0.156997 1.219684 -0.179366
v -0.004377 0.000000 -0.140712
v -0.120534 0.000000 -0.039667
v -0.091325 0.000000 0.102030
v 0.078872 0.000000 0.115502
v 0.245840 0.000000 -0.056183
v -0.089055 1.127008 -0.034121
v -0.064413 0.389893 -0.118997
v 0.163190 0.305991 -0.141565
v 0.237579 0.297570 -0.014799
v 0.261848 0.234167 -0.087953
v 0.128329 0.474766 -0.066259
v 0.380913 1.143328 -0.360984
v 0.446727 1.137187 -0.254168
v 0.477227 1.098505 -0.322620
v 0.367144 1.190561 -0.284017
v 0.635365 2.820317 -0.442417
v 0.667692 2.817052 -0.392964
v 0.685160 2.811582 -0.427439
v 0.624217 2.831056 -0.402911
v -0.133260 0.386435 0.093787
v 0.004435 0.393351 0.093787
v -0.175811 0.384298 -0.037720
v 0.150074 0.870134 0.211355
v 0.062994 0.921309 0.157838
v 0.021117 0.912449 0.265965
v 0.091988 1.848862 0.459303
v 0.021738 1.871096 0.418103
v -0.004088 1.877232 0.499785
v 0.050089 3.035048 0.650365
v 0.006420 3.048869 0.624754
v -0.009633 3.052683 0.675528
v 0.106670 4.338740 1.107163
v -0.135843 4.433410 1.005513
v -0.164483 3.785409 1.192920
v -0.043378 3.284526 1.076529
v 0.177725 3.167362 0.952798
v 0.323780 3.748095 1.023293
v -0.467313 3.851784 0.939634
v -0.216357 4.547809 0.817140
v -0.496612 3.936794 0.647372
v -0.209867 4.472323 0.526619
v -0.404476 3.758069 0.418239
v -0.387429 3.226688 0.725537
v -0.113860 4.057292 0.322902
v 0.004388 4.517999 0.579934
v 0.257172 3.923434 0.376187
v -0.004069 3.316497 0.283815
v -0.257532 3.236672 0.417738
v 0.129623 4.517535 0.824739
v 0.401530 4.014628 0.722064
v 0.368776 3.308274 0.584571
v 0.135638 2.922925 0.656190
v -0.108149 2.913601 0.624412
v 1.342378 4.694052 -0.582087
v 1.238289 4.968362 -0.373443
v 1.366256 3.922746 -0.176564
v 1.111967 3.104879 -0.297177
v 0.998375 2.880123 -0.578520
v 1.271142 3.769202 -0.804905
v 0.994281 4.089288 0.112877
v 0.971095 5.040257 -0.203914
v 0.645057 4.247563 0.054541
v 0.627723 4.930317 -0.350008
v 0.331443 3.924932 -0.057064
v 0.674993 3.065371 0.071218
v 0.384455 4.304572 -0.478231
v 0.713833 4.971154 -0.606312
v 0.432843 4.115860 -0.953837
v 0.232354 3.144298 -0.518617
v 0.327879 3.060674 -0.164216
v 0.993185 4.985992 -0.714202
v 0.953926 4.212305 -0.968497
v 0.690249 3.063406 -0.897941
v 0.678272 2.489655 -0.535346
v 0.580223 2.517912 -0.244539
v -0.278054 1.095121 -0.034121
v -0.183554 1.111064 -0.103749
v -0.241958 1.101210 0.078540
v -0.215739 1.312974 0.171308
v -0.082580 1.391345 0.219609
v -0.043657 1.284565 0.091823
v -0.219481 0.687903 -0.036183
v -0.179687 0.691729 0.087274
v -0.042534 0.657061 0.088260
v -0.115300 0.697918 -0.112484
v 0.035480 0.753350 -0.052532
vt 0.1822 0.3446
vt 0.1703 0.6157
vt 0.1523 0.6144
vt 0.1594 0.3432
vt 0.1366 0.3423
vt 0.1345 0.6124
vt 0.1165 0.6119
vt 0.1138 0.3422
vt 0.0909 0.3431
vt 0.0986 0.6137
vt 0.0807 0.6158
vt 0.0682 0.3448
vt 0.0531 0.4931
vt 0.0663 0.8177
vt 0.0571 0.8190
vt 0.0352 0.4952
vt 0.1068 0.4938
vt 0.0941 0.8182
vt 0.0849 0.8169
vt 0.0890 0.4918
vt 0.0710 0.4913
vt 0.0756 0.8165
vt 0.1248 0.4952
vt 0.1034 0.8190
vt 0.2999 0.0336
vt 0.2978 0.0243
vt 0.3120 0.0274
vt 0.3175 0.0340
vt 0.3178 0.0422
vt 0.3056 0.0436
vt 0.3168 0.0106
vt 0.2938 0.0106
vt 0.3336 0.0647
vt 0.3336 0.0908
vt 0.3218 0.0769
vt 0.3180 0.0926
vt 0.3132 0.0802
vt 0.3106 0.0608
vt 0.3091 0.0906
vt 0.3136 0.1008
vt 0.2990 0.0977
vt 0.2994 0.0837
vt 0.3043 0.0753
vt 0.3143 0.1135
vt 0.2944 0.0556
vt 0.3147 0.0608
vt 0.2903 0.1128
vt 0.2823 0.0935
vt 0.3290 0.0488
vt 0.3362 0.0371
vt 0.3331 0.0207
vt 0.2932 0.0670
vt 0.2826 0.0762
vt 0.2823 0.0361
vt 0.1714 0.1247
vt 0.1649 0.2009
vt 0.1385 0.2027
vt 0.1390 0.1281
vt 0.3324 0.9320
vt 0.3428 0.9255
vt 0.3581 0.9338
vt 0.1126 0.2628
vt 0.1138 0.3422
vt 0.0909 0.3431
vt 0.0876 0.2621
vt 0.1115 0.1290
vt 0.1118 0.2036
vt 0.0851 0.2017
vt 0.0826 0.1257
vt 0.1377 0.2623
vt 0.1366 0.3423
vt 0.0670 0.3350
vt 0.0866 0.3127
vt 0.0925 0.4383
vt 0.0800 0.4449
vt 0.0453 0.2148
vt 0.0439 0.1793
vt 0.2170 0.1226
vt 0.2267 0.1668
vt 0.2128 0.1798
vt 0.1002 0.3071
vt 0.1038 0.4350
vt 0.0332 0.1180
vt 0.0253 0.1622
vt 0.1190 0.4391
vt 0.1161 0.6833
vt 0.1083 0.6832
vt 0.1028 0.6837
vt 0.0961 0.6850
vt 0.1180 0.3152
vt 0.1376 0.3340
vt 0.1310 0.4437
vt 0.1221 0.6846
vt 0.0615 0.6265
vt 0.0947 0.6076
vt 0.0855 0.6955
vt 0.0665 0.7040
vt 0.1948 0.2699
vt 0.1629 0.2525
vt 0.2043 0.2142
vt 0.0551 0.2703
vt 0.0684 0.6923
vt 0.0875 0.6838
vt 0.0823 0.8270
vt 0.0680 0.8321
vt 0.0312 0.6327
vt 0.0502 0.7015
vt 0.1123 0.6318
vt 0.1003 0.7024
vt 0.0762 0.9938
vt 0.0672 0.9967
vt 0.0521 0.6898
vt 0.0564 0.8290
vt 0.1022 0.6907
vt 0.0939 0.8298
vt 0.0598 0.9953
vt 0.0832 0.9958
vt 0.5634 0.0336
vt 0.5613 0.0243
vt 0.5756 0.0274
vt 0.5810 0.0340
vt 0.5814 0.0422
vt 0.5692 0.0436
vt 0.5803 0.0106
vt 0.5574 0.0106
vt 0.5971 0.0647
vt 0.5971 0.0908
vt 0.5853 0.0769
vt 0.5816 0.0926
vt 0.5767 0.0802
vt 0.5741 0.0608
vt 0.5726 0.0906
vt 0.5771 0.1008
vt 0.5625 0.0977
vt 0.5629 0.0837
vt 0.5679 0.0753
vt 0.5778 0.1135
vt 0.5580 0.0556
vt 0.5783 0.0608
vt 0.5538 0.1128
vt 0.5459 0.0935
vt 0.5925 0.0488
vt 0.5998 0.0371
vt 0.5967 0.0207
vt 0.5567 0.0670
vt 0.5461 0.0762
vt 0.5459 0.0361
vt 0.4285 0.0336
vt 0.4265 0.0243
vt 0.4407 0.0274
vt 0.4461 0.0340
vt 0.4465 0.0422
vt 0.4343 0.0436
vt 0.4455 0.0106
vt 0.4225 0.0106
vt 0.4622 0.0647
vt 0.4622 0.0908
vt 0.4504 0.0769
vt 0.4467 0.0926
vt 0.4418 0.0802
vt 0.4392 0.0608
vt 0.4377 0.0906
vt 0.4422 0.1008
vt 0.4276 0.0977
vt 0.4281 0.0837
vt 0.4330 0.0753
vt 0.4430 0.1135
vt 0.4231 0.0556
vt 0.4434 0.0608
vt 0.4189 0.1128
vt 0.4110 0.0935
vt 0.4577 0.0488
vt 0.4649 0.0371
vt 0.4618 0.0207
vt 0.4218 0.0670
vt 0.4112 0.0762
vt 0.4110 0.0361
vt 0.3193 0.9835
vt 0.3222 0.9865
vt 0.3239 0.9866
vt 0.3401 0.9576
vt 0.2973 0.9277
vt 0.2765 0.9536
vt 0.1364 0.2841
vt 0.1592 0.2627
vt 0.1821 0.2864
vt 0.2676 0.9270
vt 0.3167 0.9372
vt 0.3169 0.9269
vt 0.3330 0.9339
vt 0.3263 0.9416
vt 0.0682 0.3448
vt 0.3217 0.8890
vt 0.3444 0.8956
vt 0.3338 0.9287
vt 0.3167 0.9263
vn 0.5708 0.6987 -0.4313
vn -0.8860 -0.1674 0.4325
vn 0.8457 -0.4370 -0.3064
vn -0.5000 0.8656 0.0257
vn -0.0558 -0.9721 0.2279
vn 0.8546 -0.4317 -0.2886
vn -0.5037 0.8636 0.0192
vn -0.0714 -0.9773 0.1994
vn 0.5862 0.7049 -0.3992
vn -0.9045 -0.1783 0.3874
vn 0.4843 0.8749 0.0063
vn -0.2579 0.9479 -0.1871
vn 0.9125 0.4090 0.0060
vn 0.9997 0.0208 0.0129
vn 0.7149 -0.6914 0.1041
vn 0.8275 -0.4458 -0.3414
vn 0.6752 0.5316 -0.5114
vn -0.3340 -0.7865 0.5195
vn -0.3117 -0.9183 0.2439
vn 0.2358 -0.9690 -0.0740
vn -0.7419 -0.2153 0.6351
vn -0.6950 0.6276 0.3509
vn -0.9121 0.3755 0.1645
vn -0.9283 -0.1920 0.3184
vn -0.7532 -0.6381 0.1599
vn 0.0145 0.6430 -0.7658
vn 0.4781 0.4759 -0.7382
vn -0.0401 -0.9005 -0.4330
vn -0.4125 -0.8162 -0.4046
vn -0.7743 -0.6223 -0.1149
vn 0.3373 -0.2888 0.8960
vn 0.1857 0.6942 0.6954
vn -0.1509 0.9865 -0.0636
vn -0.1651 0.9728 -0.1626
vn 0.7523 0.6544 -0.0765
vn 0.9415 -0.3090 0.1344
vn 0.9153 -0.1541 -0.3722
vn 0.7340 -0.5723 -0.3656
vn 0.6761 0.5290 -0.5129
vn 0.4270 -0.8857 0.1823
vn -0.1811 -0.8344 0.5205
vn 0.1366 -0.9888 0.0594
vn -0.7105 -0.2649 0.6519
vn -0.6995 0.5214 0.4888
vn -0.8465 0.5317 -0.0267
vn -0.8849 0.4295 -0.1800
vn 0.0098 0.6455 -0.7637
vn 0.5826 -0.5391 -0.6082
vn 0.1255 0.0234 0.9918
vn 0.2281 0.6483 0.7264
vn -0.0444 0.0317 0.9985
vn 0.1874 0.7593 0.6232
vn -0.5833 -0.0795 -0.8083
vn -0.6228 -0.0689 -0.7794
vn -0.9414 -0.1368 0.3083
vn -0.0506 0.2950 0.9542
vn 0.0641 0.4176 -0.9063
vn 0.7781 -0.0653 0.6247
vn 0.8993 -0.1060 0.4243
vn 0.3326 -0.1691 -0.9278
vn -0.9601 -0.1190 0.2531
vn 0.3107 -0.0943 -0.9458
vn -0.2504 0.1107 0.9618
vn 0.2487 -0.3083 -0.9182
vn -0.8777 0.1280 -0.4619
vn -0.9541 0.1309 -0.2693
vn 0.8899 -0.0802 0.4491
vn -0.0830 0.0427 -0.9956
vn 0.4637 0.1361 0.8755
vn 0.2891 -0.3115 0.9052
vn 0.7611 0.1868 0.6212
vn 0.2731 0.0999 -0.9568
vn 0.3222 -0.2147 0.9220
vn -0.8628 0.1541 -0.4815
vn 0.7317 0.3643 -0.5761
vn 0.3500 -0.1369 0.9267
vn -0.9408 0.0537 -0.3348
vn 0.5795 0.2355 -0.7802
vn -0.9518 0.0410 -0.3040
vn 0.5355 0.1527 -0.8306
vn -0.2769 0.2782 0.9197
vn 0.3918 -0.2073 0.8964
vn -0.7534 0.3676 0.5452
vn -0.9107 0.3630 0.1969
vn -0.7835 0.2963 -0.5462
vn -0.9531 -0.1738 -0.2477
vn -0.6484 -0.3176 0.6920
vn 0.2740 0.4140 -0.8681
vn 0.1689 0.0769 -0.9826
vn -0.4336 -0.1213 -0.8929
vn 0.7855 0.4714 -0.4010
vn 0.8591 0.2526 0.4452
vn 0.9801 -0.0808 0.1815
vn 0.9191 0.0338 -0.3925
vn 0.6188 -0.1490 -0.7713
vn -0.0538 -0.7682 0.6379
vn -0.4971 -0.6346 0.5918
vn -0.2204 -0.5959 -0.7722
vn 0.1220 -0.6590 -0.7422
vn 0.5505 -0.4623 -0.6951
vn -0.1414 0.9574 -0.2519
vn 0.1012 0.8368 0.5380
vn 0.3272 -0.0139 0.9449
vn 0.3152 -0.1419 0.9384
vn -0.5888 0.2485 0.7691
vn -0.8859 0.4439 -0.1351
vn -0.9877 -0.1456 0.0567
vn -0.8891 -0.2502 -0.3833
vn -0.6499 -0.3193 0.6897
vn -0.5380 0.2679 -0.7993
vn 0.1209 0.4598 -0.8798
vn -0.3149 0.0034 -0.9491
vn 0.7479 0.4947 -0.4426
vn 0.8587 0.3985 0.3221
vn 0.8932 -0.2684 0.3607
vn 0.8465 -0.4635 0.2618
vn -0.0489 -0.7674 0.6393
vn -0.7541 -0.5640 -0.3365
vn 0.0880 0.9952 -0.0431
vn 0.0648 0.8650 0.4976
vn 0.9520 0.1651 0.2579
vn 0.9394 -0.3197 -0.1238
vn 0.5667 0.2728 0.7775
vn -0.0154 0.3157 0.9487
vn -0.6331 0.3826 0.6729
vn -0.3395 0.0047 0.9406
vn 0.5091 -0.2784 0.8144
vn -0.8870 0.3911 -0.2454
vn -0.9792 0.1337 -0.1527
vn -0.9668 -0.0275 0.2541
vn -0.3427 0.4481 -0.8257
vn 0.6036 0.1425 -0.7844
vn 0.3070 -0.1284 -0.9430
vn -0.0175 -0.0573 -0.9982
vn -0.6458 -0.1971 -0.7376
vn 0.7196 -0.6247 0.3033
vn 0.5912 -0.4773 0.6501
vn -0.8902 -0.4342 0.1375
vn -0.8089 -0.5454 -0.2197
vn -0.6241 -0.4081 -0.6663
vn -0.3211 0.9461 0.0428
vn 0.6670 0.5946 -0.4490
vn 0.9893 -0.0426 -0.1393
vn 0.9553 -0.2860 -0.0747
vn 0.6581 0.2163 0.7212
vn -0.4673 0.4419 0.7658
vn -0.1604 0.0099 0.9870
vn -0.5576 -0.0999 0.8241
vn 0.6394 -0.2293 0.7339
vn -0.9291 0.3251 0.1761
vn -0.8885 0.3937 -0.2358
vn -0.9915 0.1302 -0.0074
vn -0.0849 0.3150 -0.9453
vn 0.5149 0.2440 -0.8218
vn 0.5588 -0.3615 -0.7464
vn 0.4808 -0.4756 -0.7367
vn 0.7706 -0.6120 0.1778
vn -0.5210 -0.3570 0.7753
vn -0.0948 0.9895 -0.1093
vn 0.2021 0.9748 -0.0949
vn -0.2304 -0.8969 -0.3774
vn -0.9434 -0.2015 0.2634
vn 0.8185 -0.4494 -0.3580
vn 0.4505 0.4567 0.7671
vn -0.0442 -0.9673 0.2499
vn -0.5091 0.8607 0.0068
vn 0.5804 0.7032 -0.4108
vn 0.1864 -0.7252 0.6628
vn -0.1664 0.9861 -0.0000
vn 0.4314 0.1365 -0.8918
vn 0.5422 0.1191 0.8317
vn -0.9417 -0.1368 0.3073
vn -0.5845 -0.0797 -0.8075
vn -0.0015 0.0209 0.9998
s off
f 37/1/1 9/2/1 8/3/1 4/4/1
f 3/5/2 7/6/2 6/7/2 2/8/2
f 1/9/3 5/10/3 9/11/3 37/12/3
f 4/4/4 8/3/4 7/6/4 3/5/4
f 2/8/5 6/7/5 5/10/5 1/9/5
f 5/13/6 10/14/6 14/15/6 9/16/6
f 8/17/7 13/18/7 12/19/7 7/20/7
f 6/21/8 11/22/8 10/14/8 5/13/8
f 9/23/9 14/24/9 13/18/9 8/17/9
f 7/20/10 12/19/10 11/22/10 6/21/10
f 15/25/11 16/26/11 17/27/11
f 18/28/12 19/29/12 20/30/12
f 21/31/13 16/26/13 22/32/13
f 21/33/14 22/34/14 23/35/14
f 23/35/15 24/36/15 25/37/15
f 23/35/16 25/37/16 26/38/16
f 21/31/17 18/28/17 17/27/17
f 27/39/18 28/40/18 29/41/18
f 27/39/19 29/41/19 30/42/19
f 30/42/20 31/43/20 25/37/20
f 29/41/21 28/40/21 32/44/21
f 33/45/22 15/25/22 20/30/22
f 33/45/23 20/30/23 34/46/23
f 33/47/24 34/48/24 29/41/24
f 34/48/25 30/42/25 29/41/25
f 35/49/26 18/28/26 36/50/26
f 36/50/27 18/28/27 26/51/27
f 36/52/28 31/43/28 30/42/28
f 36/52/29 30/42/29 35/53/29
f 35/53/30 30/42/30 34/48/30
f 28/40/31 24/36/31 22/34/31
f 16/26/32 15/25/32 32/54/32
f 17/27/33 20/30/33 15/25/33
f 17/27/34 18/28/34 20/30/34
f 21/31/35 17/27/35 16/26/35
f 23/35/36 22/34/36 24/36/36
f 21/33/37 23/35/37 26/38/37
f 26/38/38 25/37/38 31/43/38
f 21/31/39 26/51/39 18/28/39
f 27/39/40 25/37/40 24/36/40
f 27/39/41 24/36/41 28/40/41
f 27/39/42 30/42/42 25/37/42
f 33/47/43 29/41/43 32/44/43
f 33/45/44 32/54/44 15/25/44
f 34/46/45 20/30/45 19/29/45
f 35/49/46 34/46/46 19/29/46
f 35/49/47 19/29/47 18/28/47
f 36/52/48 26/38/48 31/43/48
f 32/44/49 28/40/49 22/34/49
f 32/54/50 22/32/50 16/26/50
f 41/55/51 58/56/51 57/57/51 40/58/51
f 120/59/52 121/60/52 123/61/52
f 119/62/53 113/63/53 114/64/53 122/65/53
f 39/66/54 59/67/54 44/68/54 38/69/54
f 120/70/55 115/71/55 113/63/55 119/62/55
f 48/72/56 46/73/56 50/74/56 52/75/56
f 44/68/57 48/76/57 45/77/57
f 41/55/58 42/78/58 47/79/58 46/80/58
f 46/73/59 47/81/59 51/82/59 50/74/59
f 42/83/60 38/69/60 45/77/60 47/84/60
f 40/58/61 57/57/61 59/67/61 39/66/61
f 51/82/62 49/85/62 53/86/62 55/87/62
f 52/75/63 50/74/63 54/88/63 56/89/63
f 47/81/64 45/90/64 49/85/64 51/82/64
f 45/90/65 48/91/65 52/92/65 49/85/65
f 49/85/66 52/92/66 56/93/66 53/86/66
f 50/74/67 51/82/67 55/87/67 54/88/67
f 38/69/68 44/68/68 45/77/68
f 58/56/69 41/55/69 46/80/69
f 58/94/70 46/95/70 60/96/70 62/97/70
f 123/98/71 121/99/71 58/56/71 48/100/71
f 123/101/72 48/76/72 44/68/72 122/65/72
f 62/102/73 60/103/73 63/104/73 65/105/73
f 48/106/74 58/94/74 62/97/74 61/107/74
f 46/95/75 48/108/75 61/109/75 60/96/75
f 65/105/76 63/104/76 66/110/76 68/111/76
f 61/112/77 62/102/77 65/105/77 64/113/77
f 60/103/78 61/114/78 64/115/78 63/104/78
f 64/113/79 65/105/79 68/111/79 67/116/79
f 63/104/80 64/115/80 67/117/80 66/110/80
f 69/118/81 70/119/81 71/120/81
f 72/121/82 73/122/82 74/123/82
f 75/124/83 70/119/83 76/125/83
f 75/126/84 76/127/84 77/128/84
f 77/128/85 78/129/85 79/130/85
f 77/128/86 79/130/86 80/131/86
f 75/124/87 72/121/87 71/120/87
f 81/132/88 82/133/88 83/134/88
f 81/132/89 83/134/89 84/135/89
f 84/135/90 85/136/90 79/130/90
f 83/134/91 82/133/91 86/137/91
f 87/138/92 69/118/92 74/123/92
f 87/138/93 74/123/93 88/139/93
f 87/140/94 88/141/94 83/134/94
f 88/141/95 84/135/95 83/134/95
f 89/142/96 72/121/96 90/143/96
f 90/143/97 72/121/97 80/144/97
f 90/145/98 85/136/98 84/135/98
f 90/145/99 84/135/99 89/146/99
f 89/146/100 84/135/100 88/141/100
f 82/133/101 78/129/101 76/127/101
f 70/119/102 69/118/102 86/147/102
f 71/120/103 74/123/103 69/118/103
f 71/120/104 72/121/104 74/123/104
f 75/124/105 71/120/105 70/119/105
f 77/128/106 76/127/106 78/129/106
f 75/126/107 77/128/107 80/131/107
f 80/131/108 79/130/108 85/136/108
f 75/124/109 80/144/109 72/121/109
f 81/132/110 79/130/110 78/129/110
f 81/132/111 78/129/111 82/133/111
f 81/132/112 84/135/112 79/130/112
f 87/140/113 83/134/113 86/137/113
f 87/138/114 86/147/114 69/118/114
f 88/139/115 74/123/115 73/122/115
f 89/142/116 88/139/116 73/122/116
f 89/142/117 73/122/117 72/121/117
f 90/145/118 80/131/118 85/136/118
f 86/137/119 82/133/119 76/127/119
f 86/147/120 76/125/120 70/119/120
f 91/148/121 92/149/121 93/150/121
f 94/151/122 95/152/122 96/153/122
f 97/154/123 92/149/123 98/155/123
f 97/156/124 98/157/124 99/158/124
f 99/158/125 100/159/125 101/160/125
f 99/158/126 101/160/126 102/161/126
f 97/154/127 94/151/127 93/150/127
f 103/162/128 104/163/128 105/164/128
f 103/162/129 105/164/129 106/165/129
f 106/165/130 107/166/130 101/160/130
f 105/164/131 104/163/131 108/167/131
f 109/168/132 91/148/132 96/153/132
f 109/168/133 96/153/133 110/169/133
f 109/170/134 110/171/134 105/164/134
f 110/171/135 106/165/135 105/164/135
f 111/172/136 94/151/136 112/173/136
f 112/173/137 94/151/137 102/174/137
f 112/175/138 107/166/138 106/165/138
f 112/175/139 106/165/139 111/176/139
f 111/176/140 106/165/140 110/171/140
f 104/163/141 100/159/141 98/157/141
f 92/149/142 91/148/142 108/177/142
f 93/150/143 96/153/143 91/148/143
f 93/150/144 94/151/144 96/153/144
f 97/154/145 93/150/145 92/149/145
f 99/158/146 98/157/146 100/159/146
f 97/156/147 99/158/147 102/161/147
f 102/161/148 101/160/148 107/166/148
f 97/154/149 102/174/149 94/151/149
f 103/162/150 101/160/150 100/159/150
f 103/162/151 100/159/151 104/163/151
f 103/162/152 106/165/152 101/160/152
f 109/170/153 105/164/153 108/167/153
f 109/168/154 108/177/154 91/148/154
f 110/169/155 96/153/155 95/152/155
f 111/172/156 110/169/156 95/152/156
f 111/172/157 95/152/157 94/151/157
f 112/175/158 102/161/158 107/166/158
f 108/167/159 104/163/159 98/157/159
f 108/177/160 98/155/160 92/149/160
f 1/9/161 114/64/161 113/63/161 2/8/161
f 2/8/162 113/63/162 3/5/162
f 37/12/163 114/64/163 1/9/163
f 3/178/164 113/179/164 114/180/164 37/181/164
f 3/178/165 37/181/165 118/182/165 116/183/165
f 4/4/166 3/5/166 116/184/166 117/185/166
f 37/1/167 4/4/167 117/185/167 118/186/167
f 118/182/168 117/187/168 116/183/168
f 113/188/169 115/189/169 43/190/169 114/191/169
f 43/192/170 123/101/170 122/65/170 114/64/170
f 120/193/171 123/194/171 43/195/171 115/196/171
f 57/57/172 120/70/172 119/62/172 59/67/172
f 59/67/173 119/62/173 122/65/173 44/68/173
f 58/56/174 121/99/174 120/70/174 57/57/174
