# Blender v2.78 (sub 0) OBJ File: 'Low_Poly_Trees_Pack.blend'
# www.blender.org
g Birch_Tree_crk_m_02
v -0.000000 0.000000 -0.259344
v -0.224978 0.000000 -0.095888
v -0.139044 0.000000 0.168589
v 0.139044 0.000000 0.168589
v 0.224978 0.000000 -0.095888
v 0.095230 0.524560 -0.078874
v 0.038242 0.524560 0.096517
v -0.146176 0.524560 0.096517
v -0.203164 0.524560 -0.078874
v -0.053967 0.524560 -0.187273
v -0.066200 2.039088 0.062807
v -0.201743 1.910105 0.065548
v -0.250067 2.030772 -0.070916
v -0.136431 2.035911 -0.153562
v -0.022795 2.041050 -0.070916
v -2.212335 0.175993 -0.098858
v -2.235299 0.038055 -0.084178
v -2.224487 -0.021539 -0.211070
v -2.271019 0.086883 -0.324719
v -2.264056 0.207960 -0.256076
v -3.890607 0.338414 -0.581685
v -3.862355 0.194337 -0.552405
v -3.881556 0.136953 -0.690122
v -3.867703 0.240206 -0.755355
v -3.872196 0.340218 -0.701523
v -5.469975 0.383126 -1.308451
v -5.488485 0.297641 -1.299130
v -5.492381 0.261800 -1.383702
v -5.476278 0.325017 -1.445292
v -5.462431 0.400123 -1.398784
v -7.006674 0.561725 -1.805330
v -7.013873 0.522733 -1.800822
v -7.010925 0.503825 -1.840000
v -7.001904 0.531154 -1.868721
v -6.999278 0.566977 -1.847294
v -4.072519 0.201849 -0.639407
v -4.340041 0.300794 -0.198851
v -4.271558 0.234856 -0.128417
v -4.322346 0.155885 -0.165791
v -4.408522 0.222940 -0.208130
v -4.828669 0.431234 0.116073
v -4.781032 0.394768 0.198294
v -4.802969 0.316269 0.168059
v -4.849264 0.347424 0.090076
v -5.988487 0.637570 0.321336
v -5.979568 0.617649 0.375091
v -5.989110 0.574718 0.357670
v -5.998308 0.591952 0.306599
v -6.612378 -0.044563 0.416104
v -6.948120 0.099835 0.631151
v -7.411023 0.262900 0.112116
v -6.860270 0.209101 -0.206575
v -7.194425 0.557929 -0.388417
v -6.521114 0.572196 -0.496500
v -6.163497 0.174843 -0.127903
v -6.112252 0.057350 0.291745
v -6.996451 0.990576 -0.476443
v -7.449266 1.117201 -0.232185
v -6.579629 1.401667 -0.175391
v -6.304441 1.087388 -0.365593
v -5.766759 1.032745 0.283644
v -5.805596 0.701137 -0.121650
v -6.391981 1.436329 0.229240
v -6.817047 1.456603 0.549186
v -7.481101 1.184086 0.543412
v -6.661515 0.873208 1.045053
v -6.038948 1.138295 0.688686
v -7.480616 0.647042 0.718225
v -7.013970 0.493358 0.919000
v -6.278767 0.240900 0.843032
v -5.917970 0.519370 0.770637
v -5.780485 0.355914 0.336406
v -7.672343 0.778098 0.293808
v -7.267878 1.414045 0.202649
v -7.587237 0.683438 -0.075461
v -7.118564 0.903422 -2.747757
v -7.731253 0.702513 -2.930317
v -8.569845 1.336646 -2.763855
v -7.679035 1.572234 -2.310256
v -8.446915 1.689164 -2.046507
v -7.424092 1.588178 -1.539847
v -6.593923 1.258466 -1.925911
v -6.426923 0.811845 -2.245807
v -8.458236 1.468487 -1.398306
v -9.246831 1.244209 -1.677346
v -8.102992 0.757381 -0.859114
v -7.464168 1.081099 -0.907853
v -6.572624 0.217901 -1.001289
v -6.421750 0.852543 -1.130748
v -7.816839 0.246296 -0.947423
v -8.467463 -0.005367 -1.391816
v -9.310305 0.328516 -2.082371
v -7.798140 -0.248647 -2.199632
v -7.038324 -0.192996 -1.316888
v -8.931353 0.444285 -2.742998
v -8.093266 0.199598 -2.730837
v -6.789254 0.144324 -2.481384
v -6.426506 -0.029077 -1.923319
v -6.125645 0.496007 -1.742341
v -9.337008 0.897274 -2.476489
v -9.157134 0.519400 -1.504257
v -9.146343 1.361029 -2.318464
vt 0.1081 0.1455
vt 0.1142 0.2247
vt 0.0837 0.2257
vt 0.0653 0.1482
vt 0.2346 0.1556
vt 0.2047 0.2280
vt 0.1756 0.2238
vt 0.1938 0.1451
vt 0.1511 0.1436
vt 0.1450 0.2237
vt 0.0545 0.2288
vt 0.0238 0.1564
vt 0.1885 0.4591
vt 0.1657 0.4590
vt 0.0964 0.4601
vt 0.0735 0.4598
vt 0.1429 0.4410
vt 0.1195 0.4608
vt 0.3064 0.9490
vt 0.3017 0.9636
vt 0.2864 0.9636
vt 0.2817 0.9490
vt 0.2941 0.9328
vt 0.1373 0.2942
vt 0.1352 0.6285
vt 0.1106 0.6311
vt 0.1088 0.3102
vt 0.0878 0.6311
vt 0.0806 0.3094
vt 0.1937 0.2929
vt 0.1923 0.6281
vt 0.1638 0.6187
vt 0.1656 0.2926
vt 0.0634 0.6288
vt 0.0521 0.2937
vt 0.2085 0.4816
vt 0.1982 0.7484
vt 0.1841 0.7495
vt 0.1861 0.5098
vt 0.1289 0.4876
vt 0.1432 0.7530
vt 0.1294 0.7501
vt 0.1107 0.4838
vt 0.0349 0.6354
vt 0.0549 0.6330
vt 0.0659 0.7153
vt 0.0495 0.7138
vt 0.1649 0.4862
vt 0.1708 0.7543
vt 0.1569 0.7562
vt 0.1463 0.4892
vt 0.1730 0.9980
vt 0.1662 0.9984
vt 0.1595 0.9981
vt 0.1864 0.9972
vt 0.1797 0.9973
vt 0.1527 0.9980
vt 0.1041 0.6240
vt 0.1186 0.6380
vt 0.1095 0.7163
vt 0.0959 0.7155
vt 0.0851 0.6443
vt 0.0805 0.7206
vt 0.0788 0.8026
vt 0.0650 0.8036
vt 0.1054 0.8016
vt 0.0928 0.7999
vt 0.0503 0.8003
vt 0.0847 0.9909
vt 0.0757 0.9925
vt 0.0670 0.9923
vt 0.0573 0.9907
vt 0.0930 0.9908
vt 0.4783 0.0635
vt 0.4792 0.0720
vt 0.4649 0.0700
vt 0.4655 0.0591
vt 0.4565 0.0604
vt 0.4599 0.0487
vt 0.4723 0.0503
vt 0.4806 0.0537
vt 0.4452 0.0521
vt 0.4407 0.0674
vt 0.4085 0.0328
vt 0.4236 0.0396
vt 0.4046 0.0508
vt 0.3918 0.0465
vt 0.3990 0.0686
vt 0.3843 0.0668
vt 0.4510 0.0328
vt 0.4706 0.0328
vt 0.4079 0.0601
vt 0.4167 0.0629
vt 0.4287 0.0611
vt 0.4219 0.0781
vt 0.4082 0.0717
vt 0.4406 0.0707
vt 0.4872 0.0850
vt 0.4716 0.0889
vt 0.4946 0.0645
vt 0.4132 0.0959
vt 0.4058 0.0852
vt 0.3912 0.0856
vt 0.4862 0.0428
vt 0.4406 0.0544
vt 0.4207 0.0543
vt 0.4547 0.0715
vt 0.4569 0.0832
vt 0.4344 0.0873
vt 0.3514 0.0635
vt 0.3523 0.0720
vt 0.3379 0.0700
vt 0.3386 0.0591
vt 0.3295 0.0604
vt 0.3330 0.0487
vt 0.3453 0.0503
vt 0.3537 0.0537
vt 0.3183 0.0521
vt 0.3137 0.0674
vt 0.2815 0.0328
vt 0.2966 0.0396
vt 0.2776 0.0508
vt 0.2649 0.0465
vt 0.2720 0.0686
vt 0.2573 0.0668
vt 0.3241 0.0328
vt 0.3436 0.0328
vt 0.2809 0.0601
vt 0.2897 0.0629
vt 0.3017 0.0611
vt 0.2949 0.0781
vt 0.2813 0.0717
vt 0.3137 0.0707
vt 0.3602 0.0850
vt 0.3447 0.0889
vt 0.3677 0.0645
vt 0.2863 0.0959
vt 0.2789 0.0852
vt 0.2643 0.0856
vt 0.3593 0.0428
vt 0.3137 0.0544
vt 0.2937 0.0543
vt 0.3278 0.0715
vt 0.3300 0.0832
vt 0.3074 0.0873
vt 0.3260 0.9328
vt 0.3433 0.9367
vt 0.3433 0.9518
vt 0.3259 0.9575
vt 0.3170 0.9452
vn -0.5870 0.0506 -0.8080
vn 0.9278 0.2197 0.3015
vn -0.9506 0.0295 0.3089
vn 0.5793 0.1692 -0.7974
vn 0.0000 0.1361 0.9907
vn 0.9485 0.0722 0.3085
vn 0.5866 0.0500 -0.8083
vn -0.0004 0.0223 0.9998
vn -0.9506 -0.0312 0.3089
vn -0.5877 -0.0140 -0.8089
vn -0.0452 0.9990 -0.0000
vn -0.5081 0.5480 0.6645
vn 0.1545 -0.6237 -0.7663
vn 0.2718 0.4640 -0.8431
vn -0.2608 0.1439 0.9546
vn 0.0567 0.9919 0.1141
vn -0.2014 -0.8935 0.4014
vn -0.4072 0.1720 0.8970
vn -0.0068 0.9961 0.0883
vn 0.5721 0.5517 0.6069
vn 0.2778 -0.6133 -0.7394
vn 0.3730 0.4462 -0.8135
vn 0.0945 -0.7160 -0.6916
vn 0.2943 0.4670 -0.8339
vn -0.2862 0.1640 0.9440
vn 0.0577 0.9834 0.1719
vn -0.2589 -0.8826 0.3924
vn 0.4346 -0.7865 0.4388
vn -0.4171 -0.8568 -0.3032
vn -0.2269 -0.9049 0.3600
vn -0.4996 0.7294 -0.4672
vn -0.4217 0.4090 -0.8093
vn 0.3608 -0.5036 0.7850
vn -0.4312 -0.8708 -0.2361
vn 0.4211 0.8683 0.2621
vn -0.2448 -0.9378 -0.2463
vn 0.2172 0.9303 0.2955
vn -0.1090 0.3216 -0.9406
vn 0.0653 -0.3792 0.9230
vn -0.3725 -0.9271 0.0410
vn -0.1213 -0.5477 -0.8278
vn -0.4085 -0.6980 -0.5882
vn 0.0532 -0.6530 -0.7555
vn 0.1239 -0.9515 -0.2815
vn -0.1545 -0.1286 -0.9796
vn -0.4671 0.0340 -0.8835
vn -0.1816 0.6942 -0.6965
vn 0.6687 0.5427 -0.5082
vn 0.4592 0.0324 -0.8877
vn -0.0124 0.9967 -0.0796
vn -0.2481 0.5881 0.7698
vn 0.1391 0.6626 0.7359
vn 0.5288 0.8376 0.1371
vn 0.5339 0.7847 -0.3148
vn -0.4215 0.2803 0.8624
vn -0.4759 -0.5697 0.6700
vn -0.0010 -0.8309 0.5564
vn 0.2892 -0.1280 0.9487
vn 0.6021 -0.6655 0.4411
vn 0.7517 -0.5062 -0.4227
vn 0.8345 0.2294 0.5010
vn -0.8845 0.1437 0.4439
vn -0.7902 0.6070 -0.0848
vn -0.6275 -0.5210 -0.5786
vn -0.9011 -0.4220 -0.0995
vn -0.8356 -0.5023 0.2224
vn -0.2513 -0.9272 -0.2777
vn -0.0031 -0.9265 -0.3762
vn 0.1288 0.1930 -0.9727
vn 0.0560 0.5524 -0.8317
vn -0.2455 0.8453 -0.4746
vn 0.5563 0.7288 -0.3993
vn 0.4843 -0.3196 -0.8144
vn -0.0287 0.9960 -0.0849
vn -0.3571 0.8625 0.3586
vn 0.3018 0.8889 0.3447
vn -0.3815 0.0476 0.9231
vn -0.6403 -0.6799 0.3574
vn -0.1241 -0.5993 0.7909
vn 0.2741 -0.8846 0.3773
vn -0.0077 -0.3085 0.9512
vn 0.4214 0.1995 0.8846
vn 0.5792 -0.7048 0.4096
vn 0.6632 -0.6957 -0.2758
vn 0.9969 -0.0260 -0.0742
vn 0.9538 0.0041 0.3005
vn -0.8832 0.4628 -0.0762
vn -0.9417 0.2024 -0.2689
vn -0.6360 -0.0752 -0.7681
vn 0.1332 0.4127 -0.9011
vn 0.1290 0.9896 -0.0632
vn -0.0140 0.8983 -0.4391
vn 0.3159 0.9406 -0.1240
vn 0.5136 0.6182 -0.5950
vn -0.0655 0.9450 0.3206
vn -0.3566 0.8863 0.2955
vn -0.4061 0.4146 0.8144
vn 0.2363 0.1400 0.9615
vn 0.2919 0.7369 0.6097
vn -0.4185 -0.3771 0.8262
vn -0.3576 -0.9338 -0.0151
vn -0.1373 -0.9741 0.1796
vn 0.0196 -0.6229 0.7820
vn 0.0394 -0.1487 0.9881
vn -0.3572 -0.8634 -0.3562
vn -0.0791 -0.3178 -0.9448
vn 0.3345 -0.1795 -0.9251
vn 0.2253 -0.8793 -0.4197
vn 0.7764 -0.2447 -0.5807
vn 0.8383 0.5372 0.0927
vn 0.5106 -0.8069 0.2970
vn -0.7682 -0.3886 -0.5088
vn -0.9607 -0.0539 0.2723
vn -0.2631 0.8830 -0.3888
vn -0.5304 0.4606 -0.7117
vn -0.4208 0.1496 -0.8947
vn 0.2019 0.6490 -0.7335
vn 0.4080 0.7141 -0.5689
vn -0.0047 0.7801 0.6256
vn -0.2031 0.5252 0.8264
vn -0.5389 0.1320 0.8319
vn 0.0858 -0.0193 0.9961
vn 0.4737 0.8217 0.3169
vn -0.4206 -0.3758 0.8258
vn -0.5971 -0.7012 0.3897
vn -0.1335 -0.7657 0.6291
vn -0.2264 -0.8028 -0.5516
vn -0.1631 0.0430 -0.9857
vn 0.1486 -0.4552 -0.8779
vn 0.5844 -0.0310 -0.8109
vn 0.0977 -0.7332 -0.6730
vn 0.1748 -0.9806 -0.0887
vn 0.7751 -0.2104 -0.5958
vn 0.8545 0.4731 -0.2145
vn 0.8687 -0.1079 0.4835
vn 0.7915 -0.5473 0.2720
vn -0.9945 0.0239 0.1019
vn -0.9139 0.3997 -0.0704
vn -0.4517 0.8875 0.0909
vn 0.9512 0.1072 -0.2894
vn 0.9774 -0.1465 0.1521
s off
f 2/1/1 9/2/1 10/3/1 1/4/1
f 5/5/2 6/6/2 7/7/2 4/8/2
f 3/9/3 8/10/3 9/2/3 2/1/3
f 1/4/4 10/3/4 6/11/4 5/12/4
f 4/8/5 7/7/5 8/10/5 3/9/5
f 6/6/6 15/13/6 11/14/6 7/7/6
f 10/3/7 14/15/7 15/16/7 6/11/7
f 7/7/8 11/14/8 12/17/8 8/10/8
f 8/10/9 12/17/9 13/18/9 9/2/9
f 9/2/10 13/18/10 14/15/10 10/3/10
f 11/19/11 15/20/11 14/21/11 13/22/11
f 12/23/12 11/19/12 13/22/12
f 18/24/13 23/25/13 24/26/13 19/27/13
f 19/27/14 24/26/14 25/28/14 20/29/14
f 16/30/15 21/31/15 22/32/15 17/33/15
f 20/29/16 25/28/16 21/34/16 16/35/16
f 17/33/17 22/32/17 23/25/17 18/24/17
f 21/36/18 26/37/18 27/38/18 36/39/18
f 25/40/19 30/41/19 26/42/19 21/43/19
f 22/44/20 21/45/20 37/46/20 38/47/20
f 23/48/21 28/49/21 29/50/21 24/51/21
f 24/51/22 29/50/22 30/41/22 25/40/22
f 28/49/23 33/52/23 34/53/23 29/50/23
f 29/50/24 34/53/24 35/54/24 30/41/24
f 26/37/25 31/55/25 32/56/25 27/38/25
f 30/41/26 35/54/26 31/57/26 26/42/26
f 27/38/27 32/56/27 33/52/27 28/49/27
f 23/58/28 22/59/28 38/60/28 39/61/28
f 36/62/29 23/58/29 39/61/29 40/63/29
f 23/48/30 36/39/30 27/38/30 28/49/30
f 21/45/31 36/62/31 40/63/31 37/46/31
f 37/46/32 40/63/32 44/64/32 41/65/32
f 39/61/33 38/60/33 42/66/33 43/67/33
f 40/63/34 39/61/34 43/67/34 44/64/34
f 38/47/35 37/46/35 41/65/35 42/68/35
f 44/64/36 43/67/36 47/69/36 48/70/36
f 42/68/37 41/65/37 45/71/37 46/72/37
f 41/65/38 44/64/38 48/70/38 45/71/38
f 43/67/39 42/66/39 46/73/39 47/69/39
f 49/74/40 50/75/40 51/76/40
f 52/77/41 53/78/41 54/79/41
f 51/76/42 53/78/42 52/77/42
f 52/77/43 54/79/43 55/80/43
f 55/80/44 56/81/44 49/74/44
f 54/79/45 53/78/45 57/82/45
f 57/82/46 53/78/46 58/83/46
f 57/84/47 58/85/47 59/86/47
f 60/87/48 61/88/48 62/89/48
f 60/90/49 62/91/49 54/79/49
f 63/92/50 59/86/50 64/93/50
f 64/93/51 65/94/51 66/95/51
f 64/93/52 66/95/52 67/96/52
f 67/96/53 61/88/53 63/92/53
f 63/92/54 61/88/54 59/86/54
f 66/95/55 65/94/55 68/97/55
f 69/98/56 68/99/56 50/75/56
f 50/75/57 49/74/57 70/100/57
f 70/101/58 71/102/58 66/95/58
f 71/102/59 70/101/59 72/103/59
f 72/104/60 55/80/60 62/91/60
f 61/88/61 67/96/61 71/102/61
f 73/105/62 68/97/62 65/94/62
f 65/94/63 74/106/63 58/85/63
f 75/107/64 53/78/64 51/76/64
f 75/107/65 51/76/65 73/108/65
f 73/108/66 51/76/66 68/99/66
f 52/77/67 49/74/67 51/76/67
f 52/77/68 55/80/68 49/74/68
f 60/90/69 54/79/69 57/82/69
f 60/87/70 57/84/70 59/86/70
f 59/86/71 58/85/71 74/106/71
f 60/87/72 59/86/72 61/88/72
f 54/79/73 62/91/73 55/80/73
f 64/93/74 59/86/74 74/106/74
f 64/93/75 74/106/75 65/94/75
f 64/93/76 67/96/76 63/92/76
f 69/109/77 66/95/77 68/97/77
f 50/75/78 68/99/78 51/76/78
f 69/98/79 50/75/79 70/100/79
f 70/100/80 49/74/80 56/81/80
f 69/109/81 70/101/81 66/95/81
f 66/95/82 71/102/82 67/96/82
f 72/104/83 70/100/83 56/81/83
f 72/104/84 56/81/84 55/80/84
f 72/103/85 62/89/85 61/88/85
f 72/103/86 61/88/86 71/102/86
f 73/105/87 65/94/87 58/85/87
f 73/108/88 58/83/88 75/107/88
f 75/107/89 58/83/89 53/78/89
f 76/110/90 77/111/90 78/112/90
f 79/113/91 80/114/91 81/115/91
f 78/112/92 80/114/92 79/113/92
f 79/113/93 81/115/93 82/116/93
f 82/116/94 83/117/94 76/110/94
f 81/115/95 80/114/95 84/118/95
f 84/118/96 80/114/96 85/119/96
f 84/120/97 85/121/97 86/122/97
f 87/123/98 88/124/98 89/125/98
f 87/126/99 89/127/99 81/115/99
f 90/128/100 86/122/100 91/129/100
f 91/129/101 92/130/101 93/131/101
f 91/129/102 93/131/102 94/132/102
f 94/132/103 88/124/103 90/128/103
f 90/128/104 88/124/104 86/122/104
f 93/131/105 92/130/105 95/133/105
f 96/134/106 95/135/106 77/111/106
f 77/111/107 76/110/107 97/136/107
f 97/137/108 98/138/108 93/131/108
f 98/138/109 97/137/109 99/139/109
f 99/140/110 82/116/110 89/127/110
f 88/124/111 94/132/111 98/138/111
f 100/141/112 95/133/112 92/130/112
f 92/130/113 101/142/113 85/121/113
f 102/143/114 80/114/114 78/112/114
f 102/143/115 78/112/115 100/144/115
f 100/144/116 78/112/116 95/135/116
f 79/113/117 76/110/117 78/112/117
f 79/113/118 82/116/118 76/110/118
f 87/126/119 81/115/119 84/118/119
f 87/123/120 84/120/120 86/122/120
f 86/122/121 85/121/121 101/142/121
f 87/123/122 86/122/122 88/124/122
f 81/115/123 89/127/123 82/116/123
f 91/129/124 86/122/124 101/142/124
f 91/129/125 101/142/125 92/130/125
f 91/129/126 94/132/126 90/128/126
f 96/145/127 93/131/127 95/133/127
f 77/111/128 95/135/128 78/112/128
f 96/134/129 77/111/129 97/136/129
f 97/136/130 76/110/130 83/117/130
f 96/145/131 97/137/131 93/131/131
f 93/131/132 98/138/132 94/132/132
f 99/140/133 97/136/133 83/117/133
f 99/140/134 83/117/134 82/116/134
f 99/139/135 89/125/135 88/124/135
f 99/139/136 88/124/136 98/138/136
f 100/141/137 92/130/137 85/121/137
f 100/144/138 85/119/138 102/143/138
f 102/143/139 85/119/139 80/114/139
f 18/146/140 19/147/140 20/148/140 16/149/140
f 17/150/141 18/146/141 16/149/141
