# Blender v2.78 (sub 0) OBJ File: 'Low_Poly_Trees_Pack.blend'
# www.blender.org
g Birch_Tree_NoLeaves_l_03
v 0.111083 0.000000 -0.272405
v -0.312339 0.000000 -0.080063
v -0.150606 0.000000 0.231152
v 0.372773 0.000000 0.231152
v 0.534506 0.000000 -0.080063
v 0.023129 0.629749 -0.295112
v -0.245942 0.629749 -0.099620
v -0.143166 0.629749 0.216691
v 0.189424 0.629749 0.216691
v 0.292200 0.629749 -0.099620
v 0.279031 2.103454 -0.294579
v 0.071564 2.103647 -0.143407
v 0.150809 2.103574 0.100319
v 0.407253 2.103334 0.099779
v 0.486499 2.103261 -0.144281
v 0.132330 4.037328 -0.346723
v -0.041699 4.046943 -0.219890
v 0.024774 4.043270 -0.014671
v 0.239885 4.031384 -0.014671
v 0.306359 4.027710 -0.219890
v 0.226097 6.132112 -0.210148
v 0.096444 6.164477 -0.109802
v 0.128367 6.027450 0.050924
v 0.306226 6.112106 0.051607
v 0.355749 6.099743 -0.110442
v 0.584883 7.405439 -0.474344
v 0.475649 7.402220 -0.394911
v 0.517373 7.403448 -0.266384
v 0.652394 7.407426 -0.266385
v 0.694118 7.408654 -0.394911
v 0.465600 9.440566 -0.533659
v 0.455574 9.451376 -0.404520
v 0.558501 9.456549 -0.404774
v 0.588480 9.433319 -0.499835
v 0.678523 12.782698 -0.514178
v 0.676516 12.784863 -0.488418
v 0.697120 12.785897 -0.488418
v 0.703487 12.786219 -0.508064
v 0.180825 6.269560 0.047558
v -0.281889 6.624862 0.604712
v -0.262866 6.533474 0.719655
v -0.137262 6.598153 0.752490
v -0.169658 6.695713 0.630177
v -0.506296 7.458150 1.080733
v -0.528680 7.435510 1.187714
v -0.427787 7.452230 1.192646
v -0.410944 7.478707 1.077229
v -1.118763 8.637160 1.062590
v -1.135054 8.620683 1.140449
v -1.061625 8.632852 1.144039
v -1.049367 8.652122 1.060040
v -1.353218 10.448934 1.050316
v -1.358598 10.443492 1.076025
v -1.334352 10.447512 1.077210
v -1.330304 10.453875 1.049474
v 0.584386 9.532313 -0.503138
v 0.997009 9.774806 -0.305419
v 1.032523 9.756009 -0.373988
v 0.985306 9.823833 -0.396627
v 1.878933 11.126833 -0.160389
v 1.897064 11.119486 -0.184621
v 1.864172 11.135023 -0.201574
vt 0.2188 0.0207
vt 0.2082 0.0806
vt 0.1762 0.0762
vt 0.1853 0.0153
vt 0.1404 0.0135
vt 0.1431 0.0768
vt 0.1067 0.0764
vt 0.0992 0.0056
vt 0.0680 0.0119
vt 0.0696 0.0783
vt 0.0353 0.0824
vt 0.0215 0.0243
vt 0.1117 0.2324
vt 0.1160 0.4233
vt 0.0940 0.4244
vt 0.0876 0.2321
vt 0.1890 0.2322
vt 0.1787 0.4264
vt 0.1579 0.4260
vt 0.1628 0.2311
vt 0.1363 0.2319
vt 0.1372 0.4245
vt 0.0727 0.4270
vt 0.0627 0.2333
vt 0.1696 0.6221
vt 0.1519 0.6344
vt 0.1353 0.6309
vt 0.1188 0.6288
vt 0.1025 0.6310
vt 0.0853 0.6230
vt 0.0720 0.6273
vt 0.0709 0.7527
vt 0.0592 0.7506
vt 0.0563 0.6240
vt 0.1858 0.6305
vt 0.2043 0.6339
vt 0.2011 0.7172
vt 0.1878 0.7169
vt 0.0883 0.6294
vt 0.0828 0.7525
vt 0.0473 0.7491
vt 0.0413 0.6354
vt 0.1032 0.6279
vt 0.0948 0.7506
vt 0.0810 0.9322
vt 0.0697 0.9312
vt 0.0607 0.9330
vt 0.0514 0.9326
vt 0.1070 0.7503
vt 0.0924 0.9333
vt 0.1448 0.6798
vt 0.1561 0.6813
vt 0.1333 0.9850
vt 0.1280 0.9843
vt 0.1244 0.6802
vt 0.1334 0.6877
vt 0.1229 0.9850
vt 0.1178 0.9846
vt 0.0311 0.8457
vt 0.0335 0.8477
vt 0.0311 0.8481
vt 0.0331 0.8458
vt 0.1335 0.6785
vt 0.1151 0.6795
vt 0.1126 0.9840
vt 0.1405 0.6343
vt 0.1584 0.6305
vt 0.1591 0.7196
vt 0.1456 0.7185
vt 0.1194 0.6370
vt 0.1725 0.6430
vt 0.1753 0.7196
vt 0.1739 0.8131
vt 0.1635 0.8139
vt 0.1543 0.8162
vt 0.1826 0.8150
vt 0.1932 0.8169
vt 0.1785 0.9438
vt 0.1723 0.9430
vt 0.1856 0.9431
vt 0.1645 0.9415
vt 0.1577 0.9427
vt 0.0395 0.4405
vt 0.0473 0.4420
vt 0.0447 0.6062
vt 0.0421 0.6056
vt 0.0327 0.4417
vt 0.0393 0.6056
vt 0.0535 0.4429
vt 0.0474 0.6061
vt 0.0606 0.4421
vt 0.0504 0.6056
vt 0.0224 0.8144
vt 0.0224 0.8118
vt 0.0246 0.8123
vt 0.0245 0.8150
vt 0.0323 0.2623
vt 0.0420 0.2610
vt 0.0418 0.4145
vt 0.0380 0.4141
vt 0.0317 0.2144
vt 0.0427 0.2102
vt 0.0240 0.2096
vt 0.0244 0.2613
vt 0.0521 0.2096
vt 0.0494 0.2612
vt 0.0345 0.8826
vt 0.0303 0.8826
vt 0.0317 0.8801
vt 0.0346 0.4149
vt 0.0448 0.4147
vn -0.9196 0.0644 0.3876
vn 0.4863 0.0984 -0.8683
vn 0.0000 0.0230 0.9997
vn -0.4883 -0.0376 -0.8719
vn 0.8772 0.3064 0.3697
vn 0.9466 0.1005 0.3062
vn -0.9504 -0.0434 0.3081
vn 0.5880 0.0230 -0.8086
vn 0.0027 0.0594 0.9982
vn -0.5888 -0.0662 -0.8056
vn -0.9603 0.0448 0.2754
vn 0.6001 0.0266 -0.7995
vn 0.9523 -0.0393 0.3025
vn 0.0043 -0.0326 0.9995
vn 0.9371 -0.1767 0.3010
vn -0.8829 -0.4285 -0.1919
vn 0.5452 -0.3125 -0.7779
vn 0.1145 0.2198 0.9688
vn -0.6012 0.0019 -0.7991
vn 0.4383 -0.0121 -0.8987
vn -0.0015 0.0673 0.9977
vn -0.5860 -0.0579 -0.8082
vn 0.9521 0.0645 0.2990
vn -0.9924 -0.0091 0.1225
vn -0.9945 0.0638 -0.0826
vn 0.9695 -0.0347 0.2426
vn 0.0009 0.0787 0.9969
vn -0.9300 0.2093 0.3023
vn -0.5852 0.1020 -0.8045
vn 0.9447 -0.1153 0.3069
vn 0.5843 -0.1013 -0.8052
vn -0.1169 0.9889 -0.0922
vn -0.0502 0.9987 0.0001
vn 0.2642 -0.0213 -0.9642
vn 0.0008 0.0251 0.9997
vn 0.2684 -0.6950 0.6670
vn -0.9005 0.3402 0.2707
vn -0.1331 0.7818 -0.6091
vn 0.8204 0.5614 0.1085
vn 0.9598 0.2696 0.0779
vn 0.0153 -0.4555 0.8901
vn -0.1133 0.4679 -0.8765
vn -0.9705 -0.2080 -0.1216
vn -0.0300 -0.0310 -0.9991
vn -0.8520 -0.4468 -0.2728
vn 0.8531 0.4675 0.2317
vn -0.0511 0.0137 0.9986
vn 0.9723 0.1526 0.1769
vn -0.0536 0.0287 0.9982
vn -0.0343 -0.0112 -0.9993
vn -0.9652 -0.1265 -0.2287
vn -0.1849 0.9660 0.1808
vn -0.7969 0.4800 0.3668
vn 0.2536 -0.0106 -0.9673
vn -0.6000 0.6881 0.4081
vn 0.3018 -0.0552 -0.9518
vn 0.4730 -0.7890 0.3920
vn 0.4129 0.9102 0.0330
vn 0.3564 -0.0988 -0.9291
vn 0.6794 -0.5028 0.5344
vn -0.5900 0.0795 -0.8034
s off
f 3/1/1 8/2/1 7/3/1 2/4/1
f 1/5/2 6/6/2 10/7/2 5/8/2
f 4/9/3 9/10/3 8/11/3 3/12/3
f 2/4/4 7/3/4 6/6/4 1/5/4
f 5/8/5 10/7/5 9/10/5 4/9/5
f 15/13/6 20/14/6 19/15/6 14/16/6
f 13/17/7 18/18/7 17/19/7 12/20/7
f 11/21/8 16/22/8 20/14/8 15/13/8
f 14/16/9 19/15/9 18/23/9 13/24/9
f 12/20/10 17/19/10 16/22/10 11/21/10
f 18/18/11 23/25/11 22/26/11 17/19/11
f 16/22/12 21/27/12 25/28/12 20/14/12
f 20/14/13 25/28/13 24/29/13 19/15/13
f 19/15/14 24/29/14 23/30/14 18/23/14
f 25/31/15 30/32/15 29/33/15 24/34/15
f 22/35/16 23/36/16 41/37/16 40/38/16
f 21/39/17 26/40/17 30/32/17 25/31/17
f 24/34/18 29/33/18 28/41/18 39/42/18
f 22/43/19 27/44/19 26/40/19 21/39/19
f 26/40/20 31/45/20 34/46/20 30/32/20
f 29/33/21 33/47/21 32/48/21 28/41/21
f 27/44/22 31/45/22 26/40/22
f 30/32/23 34/46/23 33/47/23 29/33/23
f 28/49/24 32/50/24 31/45/24 27/44/24
f 31/51/25 32/52/25 36/53/25 35/54/25
f 33/55/26 56/56/26 38/57/26 37/58/26
f 9/10/27 14/16/27 13/24/27 8/11/27
f 8/2/28 13/17/28 12/20/28 7/3/28
f 7/3/29 12/20/29 11/21/29 6/6/29
f 10/7/30 15/13/30 14/16/30 9/10/30
f 6/6/31 11/21/31 15/13/31 10/7/31
f 36/59/32 38/60/32 35/61/32
f 37/62/33 38/60/33 36/59/33
f 34/63/34 31/51/34 56/56/34
f 32/64/35 33/55/35 37/58/35 36/65/35
f 23/66/36 24/67/36 42/68/36 41/69/36
f 22/43/37 39/70/37 28/49/37 27/44/37
f 39/71/38 22/35/38 40/38/38 43/72/38
f 24/67/39 39/71/39 43/72/39 42/68/39
f 42/68/40 43/72/40 47/73/40 46/74/40
f 41/69/41 42/68/41 46/74/41 45/75/41
f 43/72/42 40/38/42 44/76/42 47/73/42
f 40/38/43 41/37/43 45/77/43 44/76/43
f 47/73/44 44/76/44 48/78/44 51/79/44
f 44/76/45 45/77/45 49/80/45 48/78/45
f 46/74/46 47/73/46 51/79/46 50/81/46
f 45/75/47 46/74/47 50/81/47 49/82/47
f 50/83/48 51/84/48 55/85/48 54/86/48
f 49/87/49 50/83/49 54/86/49 53/88/49
f 51/84/50 48/89/50 52/90/50 55/85/50
f 48/89/51 49/91/51 53/92/51 52/90/51
f 52/93/52 53/94/52 54/95/52 55/96/52
f 59/97/53 57/98/53 60/99/53 62/100/53
f 56/56/54 31/51/54 35/54/54 38/57/54
f 56/101/55 33/102/55 57/98/55 59/97/55
f 34/103/56 56/101/56 59/97/56 58/104/56
f 33/102/57 34/105/57 58/106/57 57/98/57
f 62/107/58 60/108/58 61/109/58
f 58/104/59 59/97/59 62/100/59 61/110/59
f 57/98/60 58/106/60 61/111/60 60/99/60
f 17/19/61 22/26/61 21/27/61 16/22/61
