# Blender v2.78 (sub 0) OBJ File: 'Low_Poly_Trees_Pack.blend'
# www.blender.org
g Birch_Tree_NoLeaves_crk_l_03
v 0.052276 0.000000 -0.272405
v -0.371147 0.000000 -0.080063
v -0.209414 0.000000 0.231152
v 0.313965 0.000000 0.231152
v 0.475698 0.000000 -0.080063
v -0.035678 0.629749 -0.295112
v -0.304749 0.629749 -0.099620
v -0.201973 0.629749 0.216691
v 0.130617 0.629749 0.216691
v 0.233393 0.629749 -0.099620
v 0.220224 2.103454 -0.294579
v 0.012756 2.103647 -0.143407
v 0.092002 2.103574 0.100319
v 0.348446 2.103334 0.099779
v 0.427692 2.103261 -0.144281
v -0.100506 4.046943 -0.219890
v 0.073523 4.037328 -0.346723
v -0.025239 3.907928 -0.006648
v 0.181078 4.031384 -0.014671
v 0.247551 4.027710 -0.219890
v 2.451011 0.287709 1.787196
v 2.358114 0.332863 1.925660
v 2.270292 0.169493 2.092955
v 2.376473 -0.000425 2.020345
v 2.485488 0.121759 1.829801
v 3.674665 0.188268 3.476610
v 3.565979 0.233017 3.594615
v 3.403676 0.105170 3.563738
v 3.548120 -0.034304 3.576343
v 3.663581 0.022797 3.465329
v 4.794299 0.163929 4.219420
v 4.687279 0.202973 4.292108
v 4.634350 0.093219 4.350718
v 4.708672 -0.013569 4.314252
v 4.807520 0.030115 4.233107
v 6.001343 0.553457 5.823593
v 5.926826 0.495115 5.905638
v 5.985486 0.424614 5.879847
v 6.043082 0.447312 5.800797
v 8.139021 0.925632 8.407146
v 8.124304 0.916724 8.423635
v 8.136223 0.906501 8.418662
v 8.151290 0.910988 8.406275
v 3.580208 0.076482 3.735057
v 3.220627 0.130892 4.449175
v 3.106904 0.039047 4.433881
v 3.193485 -0.075308 4.464959
v 3.308236 0.032385 4.485063
v 3.327124 0.108781 5.426041
v 3.238314 0.060095 5.472957
v 3.299274 -0.021013 5.459224
v 3.392440 0.037552 5.412362
v 3.726764 0.743342 6.522913
v 3.662129 0.707910 6.557058
v 3.706494 0.648880 6.547063
v 3.774300 0.691503 6.512959
v 4.708035 1.147984 8.009862
v 4.686693 1.136284 8.021136
v 4.701343 1.116793 8.017838
v 4.723732 1.130867 8.006577
v 6.103457 0.474647 5.878499
v 6.359807 0.174709 6.060719
v 6.407370 0.177166 5.997910
v 6.436829 0.237988 6.052861
v 7.584558 -0.008834 6.960725
v 7.603846 -0.013700 6.936288
v 7.605339 0.016416 6.948597
vt 0.2188 0.0207
vt 0.2082 0.0806
vt 0.1762 0.0762
vt 0.1853 0.0153
vt 0.1404 0.0135
vt 0.1431 0.0768
vt 0.1067 0.0764
vt 0.0992 0.0056
vt 0.0680 0.0119
vt 0.0696 0.0783
vt 0.0353 0.0824
vt 0.0215 0.0243
vt 0.1117 0.2324
vt 0.1160 0.4233
vt 0.0940 0.4244
vt 0.0876 0.2321
vt 0.1890 0.2322
vt 0.1794 0.4129
vt 0.1579 0.4260
vt 0.1628 0.2311
vt 0.1363 0.2319
vt 0.1372 0.4245
vt 0.0720 0.4135
vt 0.0627 0.2333
vt 0.1782 0.4384
vt 0.1696 0.6221
vt 0.1519 0.6344
vt 0.1529 0.4307
vt 0.1372 0.4245
vt 0.1353 0.6309
vt 0.1188 0.6288
vt 0.1210 0.4286
vt 0.1025 0.6310
vt 0.0946 0.4371
vt 0.0853 0.6230
vt 0.0735 0.4390
vt 0.0720 0.6273
vt 0.0709 0.7527
vt 0.0592 0.7506
vt 0.0563 0.6240
vt 0.1858 0.6305
vt 0.2043 0.6339
vt 0.2011 0.7172
vt 0.1878 0.7169
vt 0.0883 0.6294
vt 0.0828 0.7525
vt 0.0473 0.7491
vt 0.0413 0.6354
vt 0.1032 0.6279
vt 0.0948 0.7506
vt 0.0810 0.9322
vt 0.0697 0.9312
vt 0.0607 0.9330
vt 0.0514 0.9326
vt 0.1070 0.7503
vt 0.0924 0.9333
vt 0.1448 0.6798
vt 0.1561 0.6813
vt 0.1333 0.9850
vt 0.1280 0.9843
vt 0.1244 0.6802
vt 0.1334 0.6877
vt 0.1229 0.9850
vt 0.1178 0.9846
vt 0.0311 0.8457
vt 0.0335 0.8477
vt 0.0311 0.8481
vt 0.0331 0.8458
vt 0.1335 0.6785
vt 0.1151 0.6795
vt 0.1126 0.9840
vt 0.1405 0.6343
vt 0.1584 0.6305
vt 0.1591 0.7196
vt 0.1456 0.7185
vt 0.1194 0.6370
vt 0.1725 0.6430
vt 0.1753 0.7196
vt 0.1739 0.8131
vt 0.1635 0.8139
vt 0.1543 0.8162
vt 0.1826 0.8150
vt 0.1932 0.8169
vt 0.1785 0.9438
vt 0.1723 0.9430
vt 0.1856 0.9431
vt 0.1645 0.9415
vt 0.1577 0.9427
vt 0.0395 0.4405
vt 0.0473 0.4420
vt 0.0447 0.6062
vt 0.0421 0.6056
vt 0.0327 0.4417
vt 0.0393 0.6056
vt 0.0535 0.4429
vt 0.0474 0.6061
vt 0.0606 0.4421
vt 0.0504 0.6056
vt 0.0224 0.8144
vt 0.0224 0.8118
vt 0.0246 0.8123
vt 0.0245 0.8150
vt 0.0323 0.2623
vt 0.0420 0.2610
vt 0.0418 0.4145
vt 0.0380 0.4141
vt 0.0317 0.2144
vt 0.0427 0.2102
vt 0.0240 0.2096
vt 0.0244 0.2613
vt 0.0521 0.2096
vt 0.0494 0.2612
vt 0.0345 0.8826
vt 0.0303 0.8826
vt 0.0317 0.8801
vt 0.0346 0.4149
vt 0.0448 0.4147
vt 0.3063 0.9590
vt 0.2875 0.9657
vt 0.2760 0.9491
vt 0.3121 0.9306
vt 0.2876 0.9227
vt 0.3158 0.9321
vt 0.3413 0.9215
vt 0.3573 0.9395
vt 0.3194 0.9579
vt 0.3450 0.9625
vn -0.9196 0.0644 0.3876
vn 0.4863 0.0984 -0.8683
vn 0.0000 0.0230 0.9997
vn -0.4883 -0.0376 -0.8719
vn 0.8772 0.3064 0.3697
vn 0.9466 0.1005 0.3062
vn -0.9504 -0.0434 0.3081
vn 0.5880 0.0230 -0.8086
vn 0.0027 0.0594 0.9982
vn -0.5888 -0.0662 -0.8056
vn 0.0009 0.0787 0.9969
vn -0.9300 0.2093 0.3023
vn -0.5852 0.1020 -0.8045
vn 0.9447 -0.1153 0.3069
vn 0.5843 -0.1013 -0.8052
vn -0.5598 0.6934 0.4537
vn 0.8107 0.0019 -0.5855
vn 0.3354 -0.8982 -0.2843
vn -0.6402 -0.6093 0.4678
vn 0.1932 -0.9409 -0.2781
vn -0.6008 0.7858 -0.1470
vn 0.5551 -0.0027 -0.8318
vn -0.3852 -0.6565 0.6485
vn 0.1702 0.9585 -0.2286
vn 0.7522 0.1962 -0.6291
vn -0.5271 -0.6050 0.5968
vn 0.1242 0.9388 -0.3214
vn 0.3603 -0.9322 -0.0344
vn -0.5997 0.7296 0.3286
vn -0.4203 0.8803 0.2202
vn 0.3638 -0.9217 -0.1345
vn 0.5525 0.4200 0.7200
vn 0.5608 0.2738 0.7813
vn 0.6527 0.3954 -0.6462
vn -0.5095 -0.6572 0.5555
vn -0.6814 -0.6706 -0.2932
vn -0.4176 0.5822 0.6976
vn 0.7656 0.5436 0.3441
vn 0.7064 -0.6675 0.2355
vn 0.6212 -0.7828 -0.0372
vn -0.7977 -0.5919 0.1150
vn 0.7456 0.6628 -0.0688
vn -0.5618 0.8246 0.0667
vn 0.5550 0.6163 -0.5587
vn -0.5637 0.7872 -0.2501
vn 0.6010 -0.7611 0.2437
vn -0.6084 -0.5536 0.5687
vn 0.5059 -0.8598 -0.0687
vn -0.6004 -0.5496 0.5809
vn 0.5649 0.6221 -0.5421
vn -0.4557 0.8882 0.0590
vn 0.3807 0.1516 0.9122
vn -0.4092 0.6061 0.6821
vn 0.6547 0.4501 -0.6073
vn -0.1843 0.3905 0.9020
vn 0.6329 0.3746 -0.6776
vn -0.3687 -0.8291 -0.4203
vn 0.7215 -0.2923 0.6277
vn 0.6145 0.3231 -0.7197
vn -0.1102 -0.9923 -0.0570
vn 0.2597 0.9567 -0.1313
vn -0.8354 -0.2929 -0.4650
vn -0.7750 -0.2118 -0.5954
vn -0.3953 0.6994 0.5955
vn 0.0552 0.9985 0.0000
s off
f 3/1/1 8/2/1 7/3/1 2/4/1
f 1/5/2 6/6/2 10/7/2 5/8/2
f 4/9/3 9/10/3 8/11/3 3/12/3
f 2/4/4 7/3/4 6/6/4 1/5/4
f 5/8/5 10/7/5 9/10/5 4/9/5
f 15/13/6 20/14/6 19/15/6 14/16/6
f 13/17/7 18/18/7 16/19/7 12/20/7
f 11/21/8 17/22/8 20/14/8 15/13/8
f 14/16/9 19/15/9 18/23/9 13/24/9
f 12/20/10 16/19/10 17/22/10 11/21/10
f 9/10/11 14/16/11 13/24/11 8/11/11
f 8/2/12 13/17/12 12/20/12 7/3/12
f 7/3/13 12/20/13 11/21/13 6/6/13
f 10/7/14 15/13/14 14/16/14 9/10/14
f 6/6/15 11/21/15 15/13/15 10/7/15
f 23/25/16 28/26/16 27/27/16 22/28/16
f 21/29/17 26/30/17 30/31/17 25/32/17
f 25/32/18 30/31/18 29/33/18 24/34/18
f 24/34/19 29/33/19 28/35/19 23/36/19
f 30/37/20 35/38/20 34/39/20 29/40/20
f 27/41/21 28/42/21 46/43/21 45/44/21
f 26/45/22 31/46/22 35/38/22 30/37/22
f 29/40/23 34/39/23 33/47/23 44/48/23
f 27/49/24 32/50/24 31/46/24 26/45/24
f 31/46/25 36/51/25 39/52/25 35/38/25
f 34/39/26 38/53/26 37/54/26 33/47/26
f 32/50/27 36/51/27 31/46/27
f 35/38/28 39/52/28 38/53/28 34/39/28
f 33/55/29 37/56/29 36/51/29 32/50/29
f 36/57/30 37/58/30 41/59/30 40/60/30
f 38/61/31 61/62/31 43/63/31 42/64/31
f 41/65/32 43/66/32 40/67/32
f 42/68/33 43/66/33 41/65/33
f 39/69/34 36/57/34 61/62/34
f 37/70/35 38/61/35 42/64/35 41/71/35
f 28/72/36 29/73/36 47/74/36 46/75/36
f 27/49/37 44/76/37 33/55/37 32/50/37
f 44/77/38 27/41/38 45/44/38 48/78/38
f 29/73/39 44/77/39 48/78/39 47/74/39
f 47/74/40 48/78/40 52/79/40 51/80/40
f 46/75/41 47/74/41 51/80/41 50/81/41
f 48/78/42 45/44/42 49/82/42 52/79/42
f 45/44/43 46/43/43 50/83/43 49/82/43
f 52/79/44 49/82/44 53/84/44 56/85/44
f 49/82/45 50/83/45 54/86/45 53/84/45
f 51/80/46 52/79/46 56/85/46 55/87/46
f 50/81/47 51/80/47 55/87/47 54/88/47
f 55/89/48 56/90/48 60/91/48 59/92/48
f 54/93/49 55/89/49 59/92/49 58/94/49
f 56/90/50 53/95/50 57/96/50 60/91/50
f 53/95/51 54/97/51 58/98/51 57/96/51
f 57/99/52 58/100/52 59/101/52 60/102/52
f 64/103/53 62/104/53 65/105/53 67/106/53
f 61/62/54 36/57/54 40/60/54 43/63/54
f 61/107/55 38/108/55 62/104/55 64/103/55
f 39/109/56 61/107/56 64/103/56 63/110/56
f 38/108/57 39/111/57 63/112/57 62/104/57
f 67/113/58 65/114/58 66/115/58
f 63/110/59 64/103/59 67/106/59 66/116/59
f 62/104/60 63/112/60 66/117/60 65/105/60
f 22/28/61 27/27/61 26/30/61 21/29/61
f 22/118/62 21/119/62 25/120/62
f 23/121/63 22/118/63 25/120/63 24/122/63
f 16/123/64 18/124/64 19/125/64
f 17/126/65 16/123/65 19/125/65 20/127/65
