# Blender v2.78 (sub 0) OBJ File: 'Low_Poly_Trees_Pack.blend'
# www.blender.org
g Birch_Tree_NoLeaves_m_02
v -0.000000 0.000000 -0.259344
v -0.224978 0.000000 -0.095888
v -0.139044 0.000000 0.168589
v 0.139044 0.000000 0.168589
v 0.224978 0.000000 -0.095888
v 0.095230 0.524560 -0.078874
v 0.038242 0.524560 0.096517
v -0.146176 0.524560 0.096517
v -0.203164 0.524560 -0.078874
v -0.053967 0.524560 -0.187273
v -0.022795 2.041050 -0.070916
v -0.066200 2.039088 0.062807
v -0.206661 2.032735 0.062807
v -0.250067 2.030772 -0.070916
v -0.136431 2.035911 -0.153562
v -0.338897 3.766184 -0.080537
v -0.373271 3.711394 0.054482
v -0.521665 3.736022 0.054048
v -0.538342 3.746791 -0.067254
v -0.447610 3.761765 -0.134067
v -0.947790 5.394528 -0.062179
v -0.976292 5.396707 0.025798
v -1.068528 5.403757 0.025798
v -1.097030 5.405935 -0.062179
v -1.022410 5.400232 -0.116552
v -1.305558 6.972852 -0.053250
v -1.318944 6.972369 -0.012024
v -1.362263 6.970805 -0.012024
v -1.375650 6.970321 -0.053250
v -1.340604 6.971587 -0.078729
v -1.472248 8.955443 -0.048900
v -1.478238 8.955227 -0.030453
v -1.500617 8.954419 -0.039676
v -1.487930 8.954877 -0.060300
v -0.442310 3.928254 0.054048
v 0.007874 4.157802 0.195784
v 0.042140 4.071948 0.269634
v -0.023068 4.112799 0.335147
v -0.030767 4.213051 0.275102
v 0.364281 4.623197 0.302233
v 0.422217 4.561338 0.358591
v 0.362750 4.573203 0.420885
v 0.306406 4.632395 0.370716
v 0.669825 5.769152 0.438969
v 0.710844 5.751448 0.475009
v 0.676648 5.755316 0.509929
v 0.636900 5.772527 0.477549
v 0.658221 7.017755 0.501304
v 0.676815 7.009729 0.517641
v 0.661314 7.011483 0.533471
v 0.643295 7.019284 0.518793
vt 0.1081 0.1455
vt 0.1142 0.2247
vt 0.0837 0.2257
vt 0.0653 0.1482
vt 0.2346 0.1556
vt 0.2047 0.2280
vt 0.1756 0.2238
vt 0.1938 0.1451
vt 0.1511 0.1436
vt 0.1450 0.2237
vt 0.0545 0.2288
vt 0.0238 0.1564
vt 0.1885 0.4591
vt 0.1657 0.4590
vt 0.0964 0.4601
vt 0.0735 0.4598
vt 0.1427 0.4602
vt 0.1195 0.4608
vt 0.1373 0.2942
vt 0.1352 0.6285
vt 0.1106 0.6311
vt 0.1087 0.2949
vt 0.0878 0.6311
vt 0.0802 0.2940
vt 0.1937 0.2929
vt 0.1923 0.6281
vt 0.1638 0.6187
vt 0.1656 0.2926
vt 0.0634 0.6288
vt 0.0521 0.2937
vt 0.2085 0.4816
vt 0.1982 0.7484
vt 0.1841 0.7495
vt 0.1861 0.5098
vt 0.1289 0.4876
vt 0.1432 0.7530
vt 0.1294 0.7501
vt 0.1107 0.4838
vt 0.0349 0.6354
vt 0.0549 0.6330
vt 0.0659 0.7153
vt 0.0495 0.7138
vt 0.1649 0.4862
vt 0.1708 0.7543
vt 0.1569 0.7562
vt 0.1463 0.4892
vt 0.1730 0.9980
vt 0.1662 0.9984
vt 0.1595 0.9981
vt 0.1864 0.9972
vt 0.1797 0.9973
vt 0.1527 0.9980
vt 0.1242 0.7586
vt 0.1168 0.9974
vt 0.1145 0.9974
vt 0.1191 0.7586
vt 0.1037 0.7588
vt 0.1087 0.9974
vt 0.1063 0.9974
vt 0.0985 0.7586
vt 0.1116 0.9974
vt 0.1140 0.7590
vt 0.1088 0.7591
vt 0.0114 0.8457
vt 0.0116 0.8427
vt 0.0145 0.8420
vt 0.0151 0.8457
vt 0.1041 0.6240
vt 0.1186 0.6380
vt 0.1095 0.7163
vt 0.0959 0.7155
vt 0.0851 0.6443
vt 0.0805 0.7206
vt 0.0788 0.8026
vt 0.0650 0.8036
vt 0.1054 0.8016
vt 0.0928 0.7999
vt 0.0503 0.8003
vt 0.0847 0.9909
vt 0.0757 0.9925
vt 0.0670 0.9923
vt 0.0573 0.9907
vt 0.0930 0.9908
vt 0.0317 0.7612
vt 0.0404 0.7617
vt 0.0344 0.9956
vt 0.0302 0.9950
vt 0.0494 0.7603
vt 0.0577 0.7605
vt 0.0429 0.9940
vt 0.0387 0.9943
vt 0.0221 0.7593
vt 0.0256 0.9936
vt 0.0060 0.7906
vt 0.0094 0.7904
vt 0.0094 0.7944
vt 0.0059 0.7944
vn -0.5870 0.0506 -0.8080
vn 0.9278 0.2197 0.3015
vn -0.9506 0.0295 0.3089
vn 0.5793 0.1692 -0.7974
vn 0.0000 0.1361 0.9907
vn 0.9485 0.0722 0.3085
vn 0.5866 0.0500 -0.8083
vn -0.0004 0.0223 0.9998
vn -0.9506 -0.0312 0.3089
vn -0.5877 -0.0140 -0.8089
vn -0.9606 -0.1692 0.2205
vn -0.5814 -0.0958 -0.8079
vn 0.9357 0.1733 0.3074
vn 0.5168 0.0964 -0.8506
vn -0.0012 0.0048 1.0000
vn 0.8984 0.3325 0.2871
vn 0.4990 0.1901 -0.8455
vn 0.7626 -0.5368 -0.3611
vn -0.9334 -0.3089 0.1824
vn -0.5732 -0.1916 -0.7967
vn -0.9383 -0.1687 0.3020
vn -0.5883 -0.1000 -0.8024
vn 0.9310 0.2095 0.2991
vn 0.5867 0.1377 -0.7980
vn 0.0010 0.0243 0.9997
vn 0.9479 0.0790 0.3087
vn 0.5861 0.0510 -0.8087
vn -0.1391 0.0011 0.9903
vn -0.9491 -0.0619 0.3089
vn -0.6933 -0.0418 -0.7194
vn -0.0361 0.9993 0.0000
vn 0.0566 -0.6048 0.7944
vn -0.6189 0.3006 0.7257
vn -0.0142 0.0131 0.9998
vn -0.1041 0.6623 -0.7420
vn -0.5509 0.5709 -0.6087
vn 0.4914 -0.5242 0.6955
vn -0.5633 0.3046 0.7680
vn 0.5863 -0.2981 -0.7533
vn -0.6014 0.1000 0.7927
vn 0.6444 -0.0815 -0.7603
vn -0.7189 0.2683 -0.6412
vn 0.6812 -0.2331 0.6940
vn -0.7593 0.0254 -0.6502
vn 0.7142 -0.0044 0.6999
vn -0.6372 -0.0222 0.7704
vn 0.6699 0.0432 -0.7412
vn 0.2757 0.9481 0.1584
s off
f 2/1/1 9/2/1 10/3/1 1/4/1
f 5/5/2 6/6/2 7/7/2 4/8/2
f 3/9/3 8/10/3 9/2/3 2/1/3
f 1/4/4 10/3/4 6/11/4 5/12/4
f 4/8/5 7/7/5 8/10/5 3/9/5
f 6/6/6 11/13/6 12/14/6 7/7/6
f 10/3/7 15/15/7 11/16/7 6/11/7
f 7/7/8 12/14/8 13/17/8 8/10/8
f 8/10/9 13/17/9 14/18/9 9/2/9
f 9/2/10 14/18/10 15/15/10 10/3/10
f 13/19/11 18/20/11 19/21/11 14/22/11
f 14/22/12 19/21/12 20/23/12 15/24/12
f 11/25/13 16/26/13 17/27/13 12/28/13
f 15/24/14 20/23/14 16/29/14 11/30/14
f 12/28/15 17/27/15 18/20/15 13/19/15
f 16/31/16 21/32/16 22/33/16 35/34/16
f 20/35/17 25/36/17 21/37/17 16/38/17
f 17/39/18 16/40/18 36/41/18 37/42/18
f 18/43/19 23/44/19 24/45/19 19/46/19
f 19/46/20 24/45/20 25/36/20 20/35/20
f 23/44/21 28/47/21 29/48/21 24/45/21
f 24/45/22 29/48/22 30/49/22 25/36/22
f 21/32/23 26/50/23 27/51/23 22/33/23
f 25/36/24 30/49/24 26/52/24 21/37/24
f 22/33/25 27/51/25 28/47/25 23/44/25
f 26/53/26 31/54/26 32/55/26 27/56/26
f 30/57/27 34/58/27 31/59/27 26/60/27
f 27/56/28 32/55/28 33/61/28 28/62/28
f 28/62/29 33/61/29 29/63/29
f 29/63/30 33/61/30 34/58/30 30/57/30
f 32/64/31 31/65/31 34/66/31 33/67/31
f 18/68/32 17/69/32 37/70/32 38/71/32
f 35/72/33 18/68/33 38/71/33 39/73/33
f 18/43/34 35/34/34 22/33/34 23/44/34
f 16/40/35 35/72/35 39/73/35 36/41/35
f 36/41/36 39/73/36 43/74/36 40/75/36
f 38/71/37 37/70/37 41/76/37 42/77/37
f 39/73/38 38/71/38 42/77/38 43/74/38
f 37/42/39 36/41/39 40/75/39 41/78/39
f 43/74/40 42/77/40 46/79/40 47/80/40
f 41/78/41 40/75/41 44/81/41 45/82/41
f 40/75/42 43/74/42 47/80/42 44/81/42
f 42/77/43 41/76/43 45/83/43 46/79/43
f 44/84/44 47/85/44 51/86/44 48/87/44
f 46/88/45 45/89/45 49/90/45 50/91/45
f 47/85/46 46/88/46 50/91/46 51/86/46
f 45/92/47 44/84/47 48/87/47 49/93/47
f 50/94/48 49/95/48 48/96/48 51/97/48
