# Blender v2.78 (sub 0) OBJ File: 'Low_Poly_Trees_Pack.blend'
# www.blender.org
g Birch_Tree_crk_m_04
v -0.793198 0.081762 0.260197
v -0.818159 0.040378 0.165705
v -1.727215 0.107683 0.446795
v -1.691387 0.116059 0.516071
v -1.704987 0.192136 0.502916
v -1.737929 0.162298 0.435427
v -2.596686 0.257250 0.875438
v -2.572832 0.265667 0.926628
v -2.584985 0.316441 0.915681
v -2.606062 0.293617 0.866154
v -3.607580 0.363831 1.281572
v -3.594662 0.366870 1.294733
v -3.601562 0.381293 1.294176
v -3.612890 0.374137 1.280808
v -2.765446 0.501059 1.019097
v -2.822044 0.625784 1.264562
v -2.817153 0.242985 1.429364
v -2.863620 0.068097 1.069732
v -3.071641 -0.077326 1.280303
v -3.233451 -0.097829 0.920695
v -3.016969 0.180579 0.729342
v -2.962702 0.462077 0.764077
v -3.485882 -0.126645 1.260661
v -3.512997 -0.006647 1.570238
v -3.951380 0.088232 1.202741
v -3.740871 -0.013958 0.955731
v -3.849181 0.460065 0.799963
v -3.551604 0.201396 0.668197
v -4.035463 0.373009 1.193709
v -3.962495 0.560364 1.475268
v -3.594774 0.502394 1.754201
v -3.532087 0.938471 1.365947
v -3.879493 0.728234 1.037802
v -3.160390 0.633717 1.672066
v -3.144113 0.818088 1.440328
v -3.101652 0.826034 0.997778
v -3.407873 0.804971 0.860197
v -3.293068 0.520764 0.671117
v -3.208453 0.327633 1.714533
v -3.821064 0.288340 1.629367
v -3.122799 0.098156 1.574946
v -0.673914 -0.033291 0.269746
v -0.812750 -0.031085 0.186253
v 0.000000 0.000000 -0.127692
v -0.118359 0.000000 -0.041699
v -0.073150 0.000000 0.097440
v 0.073150 0.000000 0.097440
v 0.118359 0.000000 -0.041699
v 0.011650 1.384377 -0.106267
v -0.084961 1.352841 -0.036756
v -0.047578 1.384377 0.076016
v 0.070877 1.384377 0.076016
v 0.107482 1.384377 -0.036641
v 0.086982 2.297392 -0.092067
v 0.005204 2.299036 -0.032634
v 0.036441 2.298483 0.063506
v 0.137524 2.296498 0.063492
v 0.168761 2.295825 -0.032657
v 0.156855 3.506785 -0.077786
v 0.091718 3.508300 -0.030468
v 0.116598 3.508192 0.046110
v 0.197113 3.506610 0.046122
v 0.221993 3.505741 -0.030448
v 0.132380 4.995918 -0.073938
v 0.096848 4.991099 -0.047682
v 0.110419 4.993585 -0.005487
v 0.154343 4.999994 -0.005643
v 0.167918 5.001477 -0.047935
v -0.024752 1.738904 -0.020662
v -0.132371 1.929366 -0.098802
v -0.192774 1.786566 -0.051783
v 0.635131 6.318388 0.420558
v 0.460448 5.831953 0.610009
v 0.595498 5.064554 0.179546
v 0.717690 5.821070 -0.159665
v 0.516256 5.225717 -0.387866
v 0.452302 6.158397 -0.596028
v 0.600319 6.820050 -0.199369
v 0.518707 6.978641 0.194139
v 0.115884 5.368610 -0.653939
v -0.049846 4.722042 -0.418442
v -0.452137 5.879853 -0.609121
v -0.124492 6.331376 -0.707559
v -0.409872 7.195457 -0.209568
v 0.053128 7.175345 -0.442595
v -0.664636 6.193095 -0.296210
v -0.744207 5.632941 0.047172
v -0.414082 4.765616 0.240188
v -0.429200 6.084503 0.660594
v -0.615113 6.841529 0.156156
v 0.000187 4.938454 0.579251
v 0.000000 5.669934 0.734825
v 0.155271 6.768137 0.637485
v -0.114149 7.192212 0.420395
v 0.178689 7.369243 0.073038
v 0.074544 4.571869 0.193201
v -0.518707 4.955579 -0.172744
v 0.306907 4.671001 -0.105187
v -0.174499 1.929376 0.030850
v -0.096871 1.952878 -0.037603
vt 0.1746 0.5898
vt 0.1879 0.5902
vt 0.1798 0.7199
vt 0.1698 0.7189
vt 0.1973 0.5896
vt 0.2130 0.5756
vt 0.1966 0.7184
vt 0.1868 0.7187
vt 0.1608 0.5728
vt 0.1603 0.7165
vt 0.1723 0.8512
vt 0.1649 0.8512
vt 0.1579 0.8496
vt 0.1848 0.8509
vt 0.1776 0.8504
vt 0.1653 0.9984
vt 0.1629 0.9993
vt 0.1678 0.9976
vt 0.1606 0.9985
vt 0.1582 0.9974
vt 0.3494 0.0597
vt 0.3503 0.0679
vt 0.3364 0.0660
vt 0.3370 0.0554
vt 0.3282 0.0567
vt 0.3315 0.0453
vt 0.3436 0.0468
vt 0.3517 0.0501
vt 0.3173 0.0486
vt 0.3128 0.0635
vt 0.2815 0.0298
vt 0.2962 0.0364
vt 0.2777 0.0473
vt 0.2653 0.0431
vt 0.2723 0.0646
vt 0.2580 0.0628
vt 0.3229 0.0298
vt 0.3419 0.0298
vt 0.2809 0.0564
vt 0.2895 0.0591
vt 0.3012 0.0573
vt 0.2946 0.0739
vt 0.2813 0.0677
vt 0.3128 0.0667
vt 0.3581 0.0806
vt 0.3429 0.0843
vt 0.3653 0.0606
vt 0.2861 0.0912
vt 0.2789 0.0808
vt 0.2647 0.0811
vt 0.3572 0.0396
vt 0.3128 0.0508
vt 0.2934 0.0507
vt 0.3265 0.0674
vt 0.3287 0.0788
vt 0.3067 0.0828
vt 0.3334 0.9381
vt 0.3567 0.9407
vt 0.3567 0.9739
vt 0.3050 0.9801
vt 0.1346 0.1305
vt 0.1319 0.3419
vt 0.1137 0.3417
vt 0.1125 0.1304
vt 0.0903 0.1305
vt 0.0957 0.3413
vt 0.0775 0.3371
vt 0.0680 0.1313
vt 0.1569 0.1309
vt 0.1500 0.3416
vt 0.1792 0.1317
vt 0.1682 0.3375
vt 0.0892 0.5079
vt 0.0889 0.6325
vt 0.0752 0.6324
vt 0.0730 0.5077
vt 0.0568 0.5074
vt 0.0616 0.6320
vt 0.0480 0.6325
vt 0.0462 0.5562
vt 0.1053 0.5076
vt 0.1025 0.6321
vt 0.1573 0.5127
vt 0.1726 0.5139
vt 0.1746 0.5898
vt 0.1608 0.5728
vt 0.0995 0.7951
vt 0.0887 0.7950
vt 0.0778 0.7950
vt 0.0670 0.7953
vt 0.1162 0.6320
vt 0.1103 0.7955
vt 0.0562 0.7959
vt 0.0998 0.9960
vt 0.0937 0.9963
vt 0.0877 0.9966
vt 0.0817 0.9965
vt 0.0756 0.9961
vt 0.0696 0.9962
vt 0.1183 0.5558
vt 0.1892 0.5596
vt 0.1879 0.5902
vt 0.2085 0.5140
vt 0.1973 0.5896
vt 0.2240 0.5157
vt 0.2130 0.5756
vt 0.6004 0.0597
vt 0.6013 0.0679
vt 0.5874 0.0660
vt 0.5880 0.0554
vt 0.5792 0.0567
vt 0.5825 0.0453
vt 0.5946 0.0468
vt 0.6027 0.0501
vt 0.5683 0.0486
vt 0.5638 0.0635
vt 0.5325 0.0298
vt 0.5472 0.0364
vt 0.5287 0.0473
vt 0.5163 0.0431
vt 0.5233 0.0646
vt 0.5089 0.0628
vt 0.5739 0.0298
vt 0.5929 0.0298
vt 0.5319 0.0564
vt 0.5405 0.0591
vt 0.5522 0.0573
vt 0.5455 0.0739
vt 0.5322 0.0677
vt 0.5638 0.0667
vt 0.6091 0.0806
vt 0.5939 0.0843
vt 0.6163 0.0606
vt 0.5371 0.0912
vt 0.5299 0.0808
vt 0.5157 0.0811
vt 0.6081 0.0396
vt 0.5638 0.0508
vt 0.5444 0.0507
vt 0.5775 0.0674
vt 0.5796 0.0788
vt 0.5577 0.0828
vt 0.3213 0.9098
vt 0.3184 0.9355
vt 0.3002 0.9355
vt 0.2819 0.9005
vn 0.0032 0.9150 -0.4035
vn -0.1046 -0.9817 0.1593
vn -0.3026 -0.2701 -0.9140
vn 0.2720 0.2978 0.9150
vn -0.0533 0.9196 -0.3892
vn 0.4417 0.2532 0.8607
vn -0.0825 -0.9806 0.1776
vn -0.4615 -0.2921 -0.8377
vn -0.3829 -0.3080 -0.8710
vn -0.0277 -0.9813 0.1905
vn -0.0876 0.9160 -0.3915
vn 0.3507 0.2612 0.8993
vn 0.9795 0.0901 0.1801
vn 0.4557 -0.8765 -0.1551
vn 0.7051 -0.6693 0.2344
vn 0.5119 -0.7200 -0.4685
vn 0.7943 -0.0788 -0.6024
vn 0.1181 -0.9930 0.0035
vn 0.0928 -0.9256 0.3669
vn -0.4305 -0.8536 0.2932
vn -0.6252 -0.3689 -0.6878
vn -0.1667 -0.7334 -0.6590
vn -0.8845 -0.2486 0.3947
vn -0.3968 0.6415 0.6565
vn -0.6247 0.7613 0.1736
vn -0.8983 0.2302 -0.3741
vn -0.8477 -0.2649 -0.4596
vn -0.0620 0.6686 0.7410
vn 0.6288 0.5864 0.5107
vn 0.6879 0.6988 -0.1964
vn 0.0435 0.9686 -0.2450
vn 0.2900 0.6085 -0.7386
vn 0.1102 -0.0801 -0.9907
vn -0.3664 0.5939 -0.7163
vn 0.1517 0.1124 0.9820
vn -0.1673 -0.3587 0.9183
vn 0.5533 -0.6699 0.4951
vn 0.5208 -0.2933 0.8017
vn 0.5915 0.0189 0.8061
vn 0.9747 -0.2230 -0.0175
vn 0.8503 -0.2471 -0.4647
vn -0.1736 -0.9621 -0.2104
vn -0.4208 -0.9070 0.0167
vn -0.5539 -0.6759 0.4862
vn -0.7796 -0.3490 -0.5200
vn 0.0678 -0.6004 -0.7968
vn -0.8896 -0.2438 0.3861
vn -0.5824 0.1498 0.7990
vn -0.9191 0.3933 -0.0235
vn 0.1203 0.7727 0.6232
vn 0.7428 0.2727 0.6114
vn 0.5381 0.8402 0.0667
vn 0.5977 0.5822 -0.5513
vn 0.2882 0.9565 0.0448
vn -0.2641 0.9146 -0.3063
vn 0.3139 0.5950 -0.7399
vn 0.2808 0.0640 -0.9576
vn -0.2421 0.2046 -0.9484
vn -0.2477 0.4653 -0.8498
vn -0.0613 -0.3479 0.9355
vn 0.1193 -0.4831 0.8674
vn 0.2145 -0.8223 0.5270
vn 0.9669 -0.0002 -0.2553
vn 0.4715 0.4247 -0.7728
vn 0.9510 0.0063 0.3090
vn -0.9508 0.0223 0.3089
vn 0.5878 0.0076 -0.8090
vn 0.0000 0.0155 0.9999
vn -0.5877 0.0175 -0.8089
vn 0.9490 -0.0651 0.3085
vn -0.9790 0.0788 0.1878
vn 0.5872 -0.0359 -0.8087
vn 0.0002 0.0137 0.9999
vn -0.8880 -0.1872 0.4199
vn 0.5873 -0.0244 -0.8090
vn 0.0003 0.0143 0.9999
vn -0.5867 0.0434 -0.8087
vn 0.9501 -0.0424 0.3091
vn -0.9488 0.0673 0.3085
vn -0.5899 -0.0075 -0.8075
vn 0.9507 0.0379 0.3078
vn -0.9514 0.0068 0.3079
vn 0.5884 0.0118 -0.8085
vn -0.0002 0.0347 0.9994
vn -0.7083 0.0517 -0.7040
vn 0.5456 0.2095 0.8115
vn 0.7974 0.2201 -0.5618
vn -0.4912 -0.1330 -0.8608
vn 0.8650 -0.1210 0.4870
vn 0.8285 -0.0673 -0.5559
vn 0.9487 -0.2437 -0.2017
vn 0.8790 0.0846 -0.4692
vn 0.9705 0.2110 0.1163
vn 0.5081 -0.1543 -0.8474
vn 0.4026 -0.4026 -0.8221
vn -0.3033 -0.2565 -0.9177
vn -0.4088 0.3506 -0.8426
vn 0.2534 0.2408 -0.9369
vn -0.8812 -0.1498 -0.4485
vn -0.8118 -0.1858 0.5536
vn -0.9049 0.0586 0.4215
vn -0.9274 0.2590 -0.2698
vn -0.6801 0.2329 -0.6951
vn -0.5441 -0.2605 0.7976
vn 0.3205 -0.1970 0.9265
vn 0.5162 0.1435 0.8444
vn -0.2931 0.2815 0.9137
vn 0.4235 0.6113 0.6686
vn 0.6177 0.6747 -0.4041
vn -0.6493 0.6952 0.3084
vn -0.2263 -0.7277 0.6475
vn -0.5306 -0.8131 -0.2396
vn 0.8580 -0.4500 -0.2476
vn 0.6624 -0.6925 0.2858
vn 0.5415 -0.5551 0.6314
vn 0.9777 -0.0690 0.1983
vn 0.9922 0.1182 0.0399
vn 0.1876 -0.0079 -0.9822
vn -0.1634 -0.0955 -0.9819
vn -0.5600 -0.3204 -0.7641
vn -0.5815 0.2535 -0.7730
vn 0.5550 0.3329 -0.7623
vn -0.8817 -0.1480 -0.4481
vn -0.9374 -0.3386 0.0817
vn -0.9926 0.1105 -0.0497
vn -0.3472 -0.1952 0.9173
vn 0.5738 -0.3215 0.7532
vn 0.2444 0.0513 0.9683
vn 0.6372 0.3482 0.6876
vn -0.0762 0.0987 0.9922
vn -0.6106 0.3298 0.7200
vn 0.4550 0.6001 0.6579
vn 0.7654 0.6361 -0.0976
vn -0.1219 0.9384 -0.3232
vn -0.3535 0.9197 0.1707
vn -0.3768 -0.9144 -0.1479
vn 0.0851 -0.9635 -0.2539
vn 0.5127 -0.5355 -0.6711
vn -0.3876 0.9132 -0.1260
vn -0.9108 0.2878 -0.2960
s off
f 1/1/1 2/2/1 6/3/1 5/4/1
f 43/5/2 42/6/2 4/7/2 3/8/2
f 2/2/3 43/5/3 3/8/3 6/3/3
f 42/9/4 1/1/4 5/4/4 4/10/4
f 5/4/5 6/3/5 10/11/5 9/12/5
f 4/10/6 5/4/6 9/12/6 8/13/6
f 3/8/7 4/7/7 8/14/7 7/15/7
f 6/3/8 3/8/8 7/15/8 10/11/8
f 10/11/9 7/15/9 11/16/9 14/17/9
f 7/15/10 8/14/10 12/18/10 11/16/10
f 9/12/11 10/11/11 14/17/11 13/19/11
f 8/13/12 9/12/12 13/19/12 12/20/12
f 15/21/13 16/22/13 17/23/13
f 18/24/14 19/25/14 20/26/14
f 17/23/15 19/25/15 18/24/15
f 18/24/16 20/26/16 21/27/16
f 21/27/17 22/28/17 15/21/17
f 20/26/18 19/25/18 23/29/18
f 23/29/19 19/25/19 24/30/19
f 23/31/20 24/32/20 25/33/20
f 26/34/21 27/35/21 28/36/21
f 26/37/22 28/38/22 20/26/22
f 29/39/23 25/33/23 30/40/23
f 30/40/24 31/41/24 32/42/24
f 30/40/25 32/42/25 33/43/25
f 33/43/26 27/35/26 29/39/26
f 29/39/27 27/35/27 25/33/27
f 32/42/28 31/41/28 34/44/28
f 35/45/29 34/46/29 16/22/29
f 16/22/30 15/21/30 36/47/30
f 36/48/31 37/49/31 32/42/31
f 37/49/32 36/48/32 38/50/32
f 38/51/33 21/27/33 28/38/33
f 27/35/34 33/43/34 37/49/34
f 39/52/35 34/44/35 31/41/35
f 31/41/36 40/53/36 24/32/36
f 41/54/37 19/25/37 17/23/37
f 41/54/38 17/23/38 39/55/38
f 39/55/39 17/23/39 34/46/39
f 18/24/40 15/21/40 17/23/40
f 18/24/41 21/27/41 15/21/41
f 26/37/42 20/26/42 23/29/42
f 26/34/43 23/31/43 25/33/43
f 25/33/44 24/32/44 40/53/44
f 26/34/45 25/33/45 27/35/45
f 20/26/46 28/38/46 21/27/46
f 30/40/47 25/33/47 40/53/47
f 30/40/48 40/53/48 31/41/48
f 30/40/49 33/43/49 29/39/49
f 35/56/50 32/42/50 34/44/50
f 16/22/51 34/46/51 17/23/51
f 35/45/52 16/22/52 36/47/52
f 36/47/53 15/21/53 22/28/53
f 35/56/54 36/48/54 32/42/54
f 32/42/55 37/49/55 33/43/55
f 38/51/56 36/47/56 22/28/56
f 38/51/57 22/28/57 21/27/57
f 38/50/58 28/36/58 27/35/58
f 38/50/59 27/35/59 37/49/59
f 39/52/60 31/41/60 24/32/60
f 39/55/61 24/30/61 41/54/61
f 41/54/62 24/30/62 19/25/62
f 43/57/63 2/58/63 1/59/63
f 42/60/64 43/57/64 1/59/64
f 48/61/65 53/62/65 52/63/65 47/64/65
f 46/65/66 51/66/66 50/67/66 45/68/66
f 44/69/67 49/70/67 53/62/67 48/61/67
f 47/64/68 52/63/68 51/66/68 46/65/68
f 45/71/69 50/72/69 49/70/69 44/69/69
f 53/73/70 58/74/70 57/75/70 52/76/70
f 51/77/71 56/78/71 55/79/71 69/80/71
f 49/81/72 54/82/72 58/74/72 53/73/72
f 52/76/73 57/75/73 56/78/73 51/77/73
f 50/83/74 51/84/74 99/85/74 71/86/74
f 54/82/75 59/87/75 63/88/75 58/74/75
f 57/75/76 62/89/76 61/90/76 56/78/76
f 55/91/77 60/92/77 59/87/77 54/82/77
f 58/74/78 63/88/78 62/89/78 57/75/78
f 56/78/79 61/90/79 60/93/79 55/79/79
f 60/92/80 65/94/80 64/95/80 59/87/80
f 63/88/81 68/96/81 67/97/81 62/89/81
f 61/90/82 66/98/82 65/99/82 60/93/82
f 59/87/83 64/95/83 68/96/83 63/88/83
f 62/89/84 67/97/84 66/98/84 61/90/84
f 49/81/85 69/100/85 55/91/85 54/82/85
f 51/84/86 69/101/86 100/102/86 99/85/86
f 69/101/87 49/103/87 70/104/87 100/102/87
f 49/103/88 50/105/88 71/106/88 70/104/88
f 72/107/89 73/108/89 74/109/89
f 75/110/90 76/111/90 77/112/90
f 74/109/91 76/111/91 75/110/91
f 75/110/92 77/112/92 78/113/92
f 78/113/93 79/114/93 72/107/93
f 77/112/94 76/111/94 80/115/94
f 80/115/95 76/111/95 81/116/95
f 80/117/96 81/118/96 82/119/96
f 83/120/97 84/121/97 85/122/97
f 83/123/98 85/124/98 77/112/98
f 86/125/99 82/119/99 87/126/99
f 87/126/100 88/127/100 89/128/100
f 87/126/101 89/128/101 90/129/101
f 90/129/102 84/121/102 86/125/102
f 86/125/103 84/121/103 82/119/103
f 89/128/104 88/127/104 91/130/104
f 92/131/105 91/132/105 73/108/105
f 73/108/106 72/107/106 93/133/106
f 93/134/107 94/135/107 89/128/107
f 94/135/108 93/134/108 95/136/108
f 95/137/109 78/113/109 85/124/109
f 84/121/110 90/129/110 94/135/110
f 96/138/111 91/130/111 88/127/111
f 88/127/112 97/139/112 81/118/112
f 98/140/113 76/111/113 74/109/113
f 98/140/114 74/109/114 96/141/114
f 96/141/115 74/109/115 91/132/115
f 75/110/116 72/107/116 74/109/116
f 75/110/117 78/113/117 72/107/117
f 83/123/118 77/112/118 80/115/118
f 83/120/119 80/117/119 82/119/119
f 82/119/120 81/118/120 97/139/120
f 83/120/121 82/119/121 84/121/121
f 77/112/122 85/124/122 78/113/122
f 87/126/123 82/119/123 97/139/123
f 87/126/124 97/139/124 88/127/124
f 87/126/125 90/129/125 86/125/125
f 92/142/126 89/128/126 91/130/126
f 73/108/127 91/132/127 74/109/127
f 92/131/128 73/108/128 93/133/128
f 93/133/129 72/107/129 79/114/129
f 92/142/130 93/134/130 89/128/130
f 89/128/131 94/135/131 90/129/131
f 95/137/132 93/133/132 79/114/132
f 95/137/133 79/114/133 78/113/133
f 95/136/134 85/122/134 84/121/134
f 95/136/135 84/121/135 94/135/135
f 96/138/136 88/127/136 81/118/136
f 96/141/137 81/116/137 98/140/137
f 98/140/138 81/116/138 76/111/138
f 99/143/139 100/144/139 70/145/139
f 71/146/140 99/143/140 70/145/140
