# Blender v2.78 (sub 0) OBJ File: 'Low_Poly_Trees_Pack.blend'
# www.blender.org
g Birch_Tree_m_04
v 0.000000 0.000000 -0.127692
v -0.118359 0.000000 -0.041699
v -0.073150 0.000000 0.097440
v 0.073150 0.000000 0.097440
v 0.118359 0.000000 -0.041699
v 0.011650 1.384377 -0.106267
v -0.084961 1.352841 -0.036756
v -0.047578 1.384377 0.076016
v 0.070877 1.384377 0.076016
v 0.107482 1.384377 -0.036641
v 0.086982 2.297392 -0.092067
v 0.005204 2.299036 -0.032634
v 0.036441 2.298483 0.063506
v 0.137524 2.296498 0.063492
v 0.168761 2.295825 -0.032657
v 0.156855 3.506785 -0.077786
v 0.091718 3.508300 -0.030468
v 0.116598 3.508192 0.046110
v 0.197113 3.506610 0.046122
v 0.221993 3.505741 -0.030448
v 0.132380 4.995918 -0.073938
v 0.096848 4.991099 -0.047682
v 0.110419 4.993585 -0.005487
v 0.154343 4.999994 -0.005643
v 0.167918 5.001477 -0.047935
v -0.024752 1.738904 -0.020662
v -0.132371 1.929366 -0.098802
v -0.220432 1.897833 -0.055638
v -0.174499 1.929376 0.030850
v -0.096871 1.952878 -0.037603
v -0.485218 2.823013 -0.082050
v -0.544637 2.783771 -0.049151
v -0.516382 2.815588 0.016690
v -0.463223 2.846954 -0.035468
v -0.999879 3.650734 -0.040664
v -1.043864 3.624579 -0.015618
v -1.022367 3.649993 0.031268
v -0.983184 3.669729 -0.007550
v -1.521115 4.610227 -0.063568
v -1.531131 4.597221 -0.054571
v -1.527625 4.607901 -0.039806
v -1.518309 4.618266 -0.053164
v 0.635131 6.318388 0.420558
v 0.460448 5.831953 0.610009
v 0.595498 5.064554 0.179546
v 0.717690 5.821070 -0.159665
v 0.516256 5.225717 -0.387866
v 0.452302 6.158397 -0.596028
v 0.600319 6.820050 -0.199369
v 0.518707 6.978641 0.194139
v 0.115884 5.368610 -0.653939
v -0.049846 4.722042 -0.418442
v -0.452137 5.879853 -0.609121
v -0.124492 6.331376 -0.707559
v -0.409872 7.195457 -0.209568
v 0.053128 7.175345 -0.442595
v -0.664636 6.193095 -0.296210
v -0.744207 5.632941 0.047172
v -0.414082 4.765616 0.240188
v -0.429200 6.084503 0.660594
v -0.615113 6.841529 0.156156
v 0.000187 4.938454 0.579251
v 0.000000 5.669934 0.734825
v 0.155271 6.768137 0.637485
v -0.114149 7.192212 0.420395
v 0.178689 7.369243 0.073038
v 0.074544 4.571869 0.193201
v -0.518707 4.955579 -0.172744
v 0.306907 4.671001 -0.105187
v -1.105527 3.857600 0.197059
v -1.319186 3.920011 0.374662
v -1.578280 3.799701 0.004062
v -1.283684 3.834213 -0.279480
v -1.555984 3.977396 -0.426792
v -1.238673 4.162939 -0.571042
v -0.950201 4.042825 -0.280559
v -0.900577 4.061265 0.045892
v -1.609383 4.369329 -0.560770
v -1.877704 4.399841 -0.349906
v -1.560294 4.886920 -0.415624
v -1.319399 4.678613 -0.550256
v -1.059685 4.922541 -0.097721
v -0.961393 4.575054 -0.367475
v -1.488689 5.043710 -0.127036
v -1.701400 4.993656 0.153519
v -1.930672 4.596494 0.236927
v -1.442199 4.676608 0.581946
v -1.227305 4.994659 0.225518
v -1.756907 4.213827 0.428464
v -1.486325 4.264450 0.557179
v -1.052192 4.266731 0.460871
v -0.970039 4.571151 0.343502
v -0.844882 4.404720 0.016968
v -1.883697 4.178402 0.107491
v -1.899442 4.772400 -0.067291
v -1.800100 4.045829 -0.169888
vt 0.1346 0.1305
vt 0.1319 0.3419
vt 0.1137 0.3417
vt 0.1125 0.1304
vt 0.0903 0.1305
vt 0.0957 0.3413
vt 0.0775 0.3371
vt 0.0680 0.1313
vt 0.1569 0.1309
vt 0.1500 0.3416
vt 0.1792 0.1317
vt 0.1682 0.3375
vt 0.0892 0.5079
vt 0.0889 0.6325
vt 0.0752 0.6324
vt 0.0730 0.5077
vt 0.0568 0.5074
vt 0.0616 0.6320
vt 0.0480 0.6325
vt 0.0462 0.5562
vt 0.1053 0.5076
vt 0.1025 0.6321
vt 0.1573 0.5127
vt 0.1726 0.5139
vt 0.1746 0.5898
vt 0.1617 0.5882
vt 0.0995 0.7951
vt 0.0887 0.7950
vt 0.0778 0.7950
vt 0.0670 0.7953
vt 0.1162 0.6320
vt 0.1103 0.7955
vt 0.0562 0.7959
vt 0.0998 0.9960
vt 0.0937 0.9963
vt 0.0877 0.9966
vt 0.0817 0.9965
vt 0.0756 0.9961
vt 0.0696 0.9962
vt 0.1879 0.5902
vt 0.1798 0.7199
vt 0.1698 0.7189
vt 0.1183 0.5558
vt 0.1892 0.5596
vt 0.1973 0.5896
vt 0.2102 0.5909
vt 0.1966 0.7184
vt 0.1868 0.7187
vt 0.2085 0.5140
vt 0.2240 0.5157
vt 0.1603 0.7165
vt 0.1723 0.8512
vt 0.1649 0.8512
vt 0.1579 0.8496
vt 0.1848 0.8509
vt 0.1776 0.8504
vt 0.1653 0.9984
vt 0.1629 0.9993
vt 0.1678 0.9976
vt 0.1606 0.9985
vt 0.1582 0.9974
vt 0.6004 0.0597
vt 0.6013 0.0679
vt 0.5874 0.0660
vt 0.5880 0.0554
vt 0.5792 0.0567
vt 0.5825 0.0453
vt 0.5946 0.0468
vt 0.6027 0.0501
vt 0.5683 0.0486
vt 0.5638 0.0635
vt 0.5325 0.0298
vt 0.5472 0.0364
vt 0.5287 0.0473
vt 0.5163 0.0431
vt 0.5233 0.0646
vt 0.5089 0.0628
vt 0.5739 0.0298
vt 0.5929 0.0298
vt 0.5319 0.0564
vt 0.5405 0.0591
vt 0.5522 0.0573
vt 0.5455 0.0739
vt 0.5322 0.0677
vt 0.5638 0.0667
vt 0.6091 0.0806
vt 0.5939 0.0843
vt 0.6163 0.0606
vt 0.5371 0.0912
vt 0.5299 0.0808
vt 0.5157 0.0811
vt 0.6081 0.0396
vt 0.5638 0.0508
vt 0.5444 0.0507
vt 0.5775 0.0674
vt 0.5796 0.0788
vt 0.5577 0.0828
vt 0.3494 0.0597
vt 0.3503 0.0679
vt 0.3364 0.0660
vt 0.3370 0.0554
vt 0.3282 0.0567
vt 0.3315 0.0453
vt 0.3436 0.0468
vt 0.3517 0.0501
vt 0.3173 0.0486
vt 0.3128 0.0635
vt 0.2815 0.0298
vt 0.2962 0.0364
vt 0.2777 0.0473
vt 0.2653 0.0431
vt 0.2723 0.0646
vt 0.2580 0.0628
vt 0.3229 0.0298
vt 0.3419 0.0298
vt 0.2809 0.0564
vt 0.2895 0.0591
vt 0.3012 0.0573
vt 0.2946 0.0739
vt 0.2813 0.0677
vt 0.3128 0.0667
vt 0.3581 0.0806
vt 0.3429 0.0843
vt 0.3653 0.0606
vt 0.2861 0.0912
vt 0.2789 0.0808
vt 0.2647 0.0811
vt 0.3572 0.0396
vt 0.3128 0.0508
vt 0.2934 0.0507
vt 0.3265 0.0674
vt 0.3287 0.0788
vt 0.3067 0.0828
vn 0.9510 0.0063 0.3090
vn -0.9508 0.0223 0.3089
vn 0.5878 0.0076 -0.8090
vn 0.0000 0.0155 0.9999
vn -0.5877 0.0175 -0.8089
vn 0.9490 -0.0651 0.3085
vn -0.9790 0.0788 0.1878
vn 0.5872 -0.0359 -0.8087
vn 0.0002 0.0137 0.9999
vn -0.8837 -0.1875 0.4289
vn 0.5873 -0.0244 -0.8090
vn 0.0003 0.0143 0.9999
vn -0.5867 0.0434 -0.8087
vn 0.9501 -0.0424 0.3091
vn -0.9488 0.0673 0.3085
vn -0.5899 -0.0075 -0.8075
vn 0.9507 0.0379 0.3078
vn -0.9514 0.0068 0.3079
vn 0.5884 0.0118 -0.8085
vn -0.0002 0.0347 0.9994
vn 0.6002 0.2439 0.7618
vn -0.7083 0.0517 -0.7040
vn 0.5456 0.2095 0.8115
vn -0.3998 -0.1403 -0.9058
vn 0.7974 0.2201 -0.5618
vn -0.4828 -0.1329 -0.8656
vn 0.7721 0.3164 -0.5512
vn -0.8028 -0.2995 0.5156
vn 0.5637 0.3296 0.7573
vn -0.7143 -0.4442 0.5408
vn -0.3840 -0.1928 -0.9030
vn 0.6823 0.4518 -0.5747
vn 0.7299 0.3838 -0.5656
vn -0.3920 -0.2331 -0.8899
vn 0.5722 0.3574 0.7381
vn -0.7685 -0.3652 0.5254
vn 0.8650 -0.1210 0.4870
vn 0.8285 -0.0673 -0.5559
vn 0.9487 -0.2437 -0.2017
vn 0.8790 0.0846 -0.4692
vn 0.9705 0.2110 0.1163
vn 0.5081 -0.1543 -0.8474
vn 0.4026 -0.4026 -0.8221
vn -0.3033 -0.2565 -0.9177
vn -0.4088 0.3506 -0.8426
vn 0.2534 0.2408 -0.9369
vn -0.8812 -0.1498 -0.4485
vn -0.8118 -0.1858 0.5536
vn -0.9049 0.0586 0.4215
vn -0.9274 0.2590 -0.2698
vn -0.6801 0.2329 -0.6951
vn -0.5441 -0.2605 0.7976
vn 0.3205 -0.1970 0.9265
vn 0.5162 0.1435 0.8444
vn -0.2931 0.2815 0.9137
vn 0.4235 0.6113 0.6686
vn 0.6177 0.6747 -0.4041
vn -0.6493 0.6952 0.3084
vn -0.2263 -0.7277 0.6475
vn -0.5306 -0.8131 -0.2396
vn 0.8580 -0.4500 -0.2476
vn 0.6624 -0.6925 0.2858
vn 0.5415 -0.5551 0.6314
vn 0.9777 -0.0690 0.1983
vn 0.9922 0.1182 0.0399
vn 0.1876 -0.0079 -0.9822
vn -0.1634 -0.0955 -0.9819
vn -0.5600 -0.3204 -0.7641
vn -0.5815 0.2535 -0.7730
vn 0.5550 0.3329 -0.7623
vn -0.8817 -0.1480 -0.4481
vn -0.9374 -0.3386 0.0817
vn -0.9926 0.1105 -0.0497
vn -0.3472 -0.1952 0.9173
vn 0.5738 -0.3215 0.7532
vn 0.2444 0.0513 0.9683
vn 0.6372 0.3482 0.6876
vn -0.0762 0.0987 0.9922
vn -0.6106 0.3298 0.7200
vn 0.4550 0.6001 0.6579
vn 0.7654 0.6361 -0.0976
vn -0.1219 0.9384 -0.3232
vn -0.3535 0.9197 0.1707
vn -0.3768 -0.9144 -0.1479
vn 0.0851 -0.9635 -0.2539
vn 0.5127 -0.5355 -0.6711
vn -0.0133 -0.9483 0.3172
vn 0.0518 -0.6666 -0.7436
vn -0.2613 -0.8875 -0.3795
vn 0.3974 -0.6388 -0.6588
vn 0.6801 -0.7305 -0.0621
vn -0.2158 -0.3420 -0.9146
vn -0.6062 -0.3300 -0.7236
vn -0.5755 0.2710 -0.7716
vn 0.4921 0.6164 -0.6147
vn 0.4770 0.1098 -0.8720
vn -0.5587 0.7790 -0.2846
vn -0.5600 0.4670 0.6844
vn -0.0972 0.7710 0.6294
vn 0.2756 0.9586 -0.0710
vn 0.2659 0.8179 -0.5103
vn -0.5863 0.1337 0.7990
vn -0.2724 -0.5504 0.7892
vn 0.4481 -0.5250 0.7236
vn 0.4770 0.2011 0.8556
vn 0.9129 -0.0931 0.3974
vn 0.9529 -0.0292 -0.3018
vn 0.7830 0.5543 0.2824
vn -0.8991 -0.2184 0.3793
vn -0.9954 0.0135 -0.0944
vn -0.5671 -0.7507 -0.3389
vn -0.7663 -0.6382 0.0741
vn -0.6839 -0.6448 0.3413
vn 0.1200 -0.9928 0.0039
vn 0.5236 -0.8378 -0.1546
vn -0.0058 0.0394 -0.9992
vn -0.2691 0.2836 -0.9204
vn -0.7202 0.3921 -0.5723
vn 0.3183 0.7461 -0.5848
vn 0.6840 -0.1035 -0.7221
vn -0.5558 0.7812 -0.2843
vn -0.8250 0.5218 0.2170
vn -0.0259 0.9873 0.1565
vn -0.4283 -0.0084 0.9036
vn -0.4249 -0.7308 0.5343
vn 0.2022 -0.3801 0.9026
vn 0.7697 -0.4138 0.4861
vn 0.2163 -0.0816 0.9729
vn 0.4774 0.4927 0.7275
vn 0.9133 -0.1152 0.3907
vn 0.9757 -0.1699 -0.1387
vn 0.9260 0.3570 -0.1225
vn 0.9033 0.4056 0.1395
vn -0.9939 -0.0936 -0.0583
vn -0.9471 -0.2838 -0.1498
vn -0.7072 -0.4375 -0.5554
s off
f 5/1/1 10/2/1 9/3/1 4/4/1
f 3/5/2 8/6/2 7/7/2 2/8/2
f 1/9/3 6/10/3 10/2/3 5/1/3
f 4/4/4 9/3/4 8/6/4 3/5/4
f 2/11/5 7/12/5 6/10/5 1/9/5
f 10/13/6 15/14/6 14/15/6 9/16/6
f 8/17/7 13/18/7 12/19/7 26/20/7
f 6/21/8 11/22/8 15/14/8 10/13/8
f 9/16/9 14/15/9 13/18/9 8/17/9
f 7/23/10 8/24/10 29/25/10 28/26/10
f 11/22/11 16/27/11 20/28/11 15/14/11
f 14/15/12 19/29/12 18/30/12 13/18/12
f 12/31/13 17/32/13 16/27/13 11/22/13
f 15/14/14 20/28/14 19/29/14 14/15/14
f 13/18/15 18/30/15 17/33/15 12/19/15
f 17/32/16 22/34/16 21/35/16 16/27/16
f 20/28/17 25/36/17 24/37/17 19/29/17
f 18/30/18 23/38/18 22/39/18 17/33/18
f 16/27/19 21/35/19 25/36/19 20/28/19
f 19/29/20 24/37/20 23/38/20 18/30/20
f 29/25/21 30/40/21 34/41/21 33/42/21
f 6/21/22 26/43/22 12/31/22 11/22/22
f 8/24/23 26/44/23 30/40/23 29/25/23
f 27/45/24 28/46/24 32/47/24 31/48/24
f 26/44/25 6/49/25 27/45/25 30/40/25
f 6/49/26 7/50/26 28/46/26 27/45/26
f 30/40/27 27/45/27 31/48/27 34/41/27
f 28/26/28 29/25/28 33/42/28 32/51/28
f 33/42/29 34/41/29 38/52/29 37/53/29
f 32/51/30 33/42/30 37/53/30 36/54/30
f 31/48/31 32/47/31 36/55/31 35/56/31
f 34/41/32 31/48/32 35/56/32 38/52/32
f 38/52/33 35/56/33 39/57/33 42/58/33
f 35/56/34 36/55/34 40/59/34 39/57/34
f 37/53/35 38/52/35 42/58/35 41/60/35
f 36/54/36 37/53/36 41/60/36 40/61/36
f 43/62/37 44/63/37 45/64/37
f 46/65/38 47/66/38 48/67/38
f 45/64/39 47/66/39 46/65/39
f 46/65/40 48/67/40 49/68/40
f 49/68/41 50/69/41 43/62/41
f 48/67/42 47/66/42 51/70/42
f 51/70/43 47/66/43 52/71/43
f 51/72/44 52/73/44 53/74/44
f 54/75/45 55/76/45 56/77/45
f 54/78/46 56/79/46 48/67/46
f 57/80/47 53/74/47 58/81/47
f 58/81/48 59/82/48 60/83/48
f 58/81/49 60/83/49 61/84/49
f 61/84/50 55/76/50 57/80/50
f 57/80/51 55/76/51 53/74/51
f 60/83/52 59/82/52 62/85/52
f 63/86/53 62/87/53 44/63/53
f 44/63/54 43/62/54 64/88/54
f 64/89/55 65/90/55 60/83/55
f 65/90/56 64/89/56 66/91/56
f 66/92/57 49/68/57 56/79/57
f 55/76/58 61/84/58 65/90/58
f 67/93/59 62/85/59 59/82/59
f 59/82/60 68/94/60 52/73/60
f 69/95/61 47/66/61 45/64/61
f 69/95/62 45/64/62 67/96/62
f 67/96/63 45/64/63 62/87/63
f 46/65/64 43/62/64 45/64/64
f 46/65/65 49/68/65 43/62/65
f 54/78/66 48/67/66 51/70/66
f 54/75/67 51/72/67 53/74/67
f 53/74/68 52/73/68 68/94/68
f 54/75/69 53/74/69 55/76/69
f 48/67/70 56/79/70 49/68/70
f 58/81/71 53/74/71 68/94/71
f 58/81/72 68/94/72 59/82/72
f 58/81/73 61/84/73 57/80/73
f 63/97/74 60/83/74 62/85/74
f 44/63/75 62/87/75 45/64/75
f 63/86/76 44/63/76 64/88/76
f 64/88/77 43/62/77 50/69/77
f 63/97/78 64/89/78 60/83/78
f 60/83/79 65/90/79 61/84/79
f 66/92/80 64/88/80 50/69/80
f 66/92/81 50/69/81 49/68/81
f 66/91/82 56/77/82 55/76/82
f 66/91/83 55/76/83 65/90/83
f 67/93/84 59/82/84 52/73/84
f 67/96/85 52/71/85 69/95/85
f 69/95/86 52/71/86 47/66/86
f 70/98/87 71/99/87 72/100/87
f 73/101/88 74/102/88 75/103/88
f 72/100/89 74/102/89 73/101/89
f 73/101/90 75/103/90 76/104/90
f 76/104/91 77/105/91 70/98/91
f 75/103/92 74/102/92 78/106/92
f 78/106/93 74/102/93 79/107/93
f 78/108/94 79/109/94 80/110/94
f 81/111/95 82/112/95 83/113/95
f 81/114/96 83/115/96 75/103/96
f 84/116/97 80/110/97 85/117/97
f 85/117/98 86/118/98 87/119/98
f 85/117/99 87/119/99 88/120/99
f 88/120/100 82/112/100 84/116/100
f 84/116/101 82/112/101 80/110/101
f 87/119/102 86/118/102 89/121/102
f 90/122/103 89/123/103 71/99/103
f 71/99/104 70/98/104 91/124/104
f 91/125/105 92/126/105 87/119/105
f 92/126/106 91/125/106 93/127/106
f 93/128/107 76/104/107 83/115/107
f 82/112/108 88/120/108 92/126/108
f 94/129/109 89/121/109 86/118/109
f 86/118/110 95/130/110 79/109/110
f 96/131/111 74/102/111 72/100/111
f 96/131/112 72/100/112 94/132/112
f 94/132/113 72/100/113 89/123/113
f 73/101/114 70/98/114 72/100/114
f 73/101/115 76/104/115 70/98/115
f 81/114/116 75/103/116 78/106/116
f 81/111/117 78/108/117 80/110/117
f 80/110/118 79/109/118 95/130/118
f 81/111/119 80/110/119 82/112/119
f 75/103/120 83/115/120 76/104/120
f 85/117/121 80/110/121 95/130/121
f 85/117/122 95/130/122 86/118/122
f 85/117/123 88/120/123 84/116/123
f 90/133/124 87/119/124 89/121/124
f 71/99/125 89/123/125 72/100/125
f 90/122/126 71/99/126 91/124/126
f 91/124/127 70/98/127 77/105/127
f 90/133/128 91/125/128 87/119/128
f 87/119/129 92/126/129 88/120/129
f 93/128/130 91/124/130 77/105/130
f 93/128/131 77/105/131 76/104/131
f 93/127/132 83/113/132 82/112/132
f 93/127/133 82/112/133 92/126/133
f 94/129/134 86/118/134 79/109/134
f 94/132/135 79/107/135 96/131/135
f 96/131/136 79/107/136 74/102/136
