# Blender v2.78 (sub 0) OBJ File: 'Low_Poly_Trees_Pack.blend'
# www.blender.org
g Birch_Tree_crk_m_01
v 0.816631 0.070691 0.469534
v 0.848204 -0.022073 0.446701
v 0.884249 0.055369 0.354102
v 0.845191 0.130386 0.416656
v 2.135880 0.371678 1.190596
v 2.152552 0.322692 1.178539
v 2.171586 0.363586 1.129641
v 2.150961 0.403200 1.162673
v 3.234064 1.333576 2.300468
v 3.670634 1.459176 2.089743
v 2.774148 1.375353 1.554348
v 2.222581 0.961257 1.342220
v 2.026136 0.629850 1.539775
v 2.512354 0.875327 2.167318
v 3.224699 1.184392 1.140118
v 3.990430 1.229162 1.739031
v 3.540958 0.802469 1.105891
v 4.056498 0.667316 1.768987
v 3.439994 0.356807 1.062567
v 2.631534 0.603527 0.765103
v 3.665250 0.155218 1.649128
v 4.018138 0.639673 2.191391
v 3.199885 0.025614 2.079922
v 2.763402 -0.189870 1.275492
v 2.760200 0.098974 0.894833
v 3.837459 0.938239 2.506780
v 2.952614 0.501268 2.409609
v 2.296357 0.056580 1.835917
v 1.987621 0.131852 1.253932
v 2.166119 0.203091 0.906853
v -0.000000 0.000000 -0.189172
v -0.138664 0.000000 -0.088427
v -0.085699 0.000000 0.074582
v 0.085699 0.000000 0.074582
v 0.138664 0.000000 -0.088427
v 0.095468 1.706080 -0.154628
v -0.002529 1.677229 -0.080408
v 0.034903 1.688249 0.039684
v 0.153826 1.592530 0.040793
v 0.193466 1.734931 -0.080408
v -0.124286 6.132535 -0.087364
v -0.153938 6.121562 -0.064393
v -0.142612 6.125752 -0.027224
v -0.102816 6.096835 -0.026832
v -0.094633 6.143507 -0.064393
v 0.155205 1.851580 0.038354
v 0.259938 1.855411 0.139437
v 0.365133 1.781922 0.143480
v 0.390977 1.888447 0.031482
v 0.271857 1.937700 0.075167
v 0.025581 2.583069 -0.139424
v 0.108257 2.583069 -0.076807
v 0.076016 2.583069 0.023446
v -0.025516 2.583069 0.024509
v -0.057095 2.583069 -0.076807
v -1.046676 8.300428 0.224418
v -0.761396 8.730322 -0.305682
v -1.153737 7.249980 -0.527373
v -1.016961 6.226618 -0.262398
v -0.864257 5.957681 0.297404
v -1.025428 7.109874 0.688722
v -0.401305 7.379358 -1.087762
v -0.092884 8.730457 -0.705786
v 0.312888 7.519228 -0.990544
v 0.608062 8.525049 -0.297408
v 0.774815 7.128326 -0.684694
v -0.034365 6.100414 -0.886502
v 0.949334 7.702722 0.083254
v 0.436384 8.766926 0.255975
v 0.555395 7.394135 0.897957
v 0.793505 6.190156 0.247733
v 0.607807 6.070827 -0.422738
v -0.187869 8.941978 0.505890
v -0.335863 7.597175 1.067392
v -0.097419 6.175957 0.954759
v -0.191467 5.438412 0.317101
v 0.009117 5.438481 -0.233553
v 0.465773 2.222356 0.241626
v 0.368571 2.242065 0.224697
v 0.449914 2.237003 0.117509
v 0.351460 2.262585 0.144314
vt 0.1659 0.6501
vt 0.1782 0.6509
vt 0.1779 0.8211
vt 0.1714 0.8203
vt 0.1507 0.6525
vt 0.1636 0.8201
vt 0.1882 0.6506
vt 0.1830 0.8203
vt 0.2003 0.6516
vt 0.1894 0.8201
vt 0.4329 0.0309
vt 0.4309 0.0220
vt 0.4445 0.0250
vt 0.4496 0.0312
vt 0.4500 0.0391
vt 0.4384 0.0404
vt 0.4490 0.0090
vt 0.4271 0.0090
vt 0.4650 0.0606
vt 0.4650 0.0854
vt 0.4537 0.0722
vt 0.4502 0.0872
vt 0.4455 0.0753
vt 0.4431 0.0568
vt 0.4417 0.0853
vt 0.4459 0.0949
vt 0.4320 0.0920
vt 0.4324 0.0787
vt 0.4371 0.0706
vt 0.4466 0.1071
vt 0.4277 0.0519
vt 0.4470 0.0568
vt 0.4237 0.1064
vt 0.4161 0.0880
vt 0.4607 0.0454
vt 0.4676 0.0343
vt 0.4646 0.0185
vt 0.4265 0.0627
vt 0.4164 0.0715
vt 0.4161 0.0332
vt 0.3012 0.9152
vt 0.3321 0.9253
vt 0.3350 0.9526
vt 0.3012 0.9560
vt 0.0914 0.1272
vt 0.0845 0.2932
vt 0.0705 0.2960
vt 0.0718 0.1275
vt 0.1489 0.1312
vt 0.1281 0.2849
vt 0.1130 0.2922
vt 0.1295 0.1286
vt 0.0561 0.2820
vt 0.0522 0.1273
vt 0.0987 0.2907
vt 0.1105 0.1272
vt 0.0844 0.2776
vt 0.1020 0.2791
vt 0.0711 0.7603
vt 0.0605 0.7616
vt 0.1372 0.2821
vt 0.1545 0.2829
vt 0.1033 0.7547
vt 0.0923 0.7603
vt 0.1194 0.2809
vt 0.0817 0.7590
vt 0.1860 0.5676
vt 0.2018 0.5680
vt 0.2073 0.5978
vt 0.1916 0.5990
vt 0.1799 0.5876
vt 0.1787 0.6060
vt 0.1628 0.5770
vt 0.1603 0.6084
vt 0.0665 0.2771
vt 0.0506 0.7515
vt 0.1418 0.5691
vt 0.1424 0.6023
vt 0.1882 0.6506
vt 0.1782 0.6509
vt 0.2003 0.6516
vt 0.1659 0.6501
vt 0.1507 0.6525
vt 0.0664 0.1782
vt 0.0871 0.1629
vt 0.1299 0.1587
vt 0.1512 0.1625
vt 0.1084 0.1606
vt 0.1709 0.1852
vt 0.3012 0.0309
vt 0.2992 0.0220
vt 0.3128 0.0250
vt 0.3180 0.0312
vt 0.3183 0.0391
vt 0.3067 0.0404
vt 0.3174 0.0090
vt 0.2954 0.0090
vt 0.3334 0.0606
vt 0.3333 0.0854
vt 0.3221 0.0722
vt 0.3185 0.0872
vt 0.3139 0.0753
vt 0.3114 0.0568
vt 0.3100 0.0853
vt 0.3143 0.0949
vt 0.3004 0.0920
vt 0.3008 0.0787
vt 0.3055 0.0706
vt 0.3150 0.1071
vt 0.2960 0.0519
vt 0.3154 0.0568
vt 0.2921 0.1064
vt 0.2845 0.0880
vt 0.3290 0.0454
vt 0.3359 0.0343
vt 0.3329 0.0185
vt 0.2948 0.0627
vt 0.2847 0.0715
vt 0.2845 0.0332
vt 0.3012 0.9194
vt 0.3419 0.9153
vt 0.3419 0.9494
vt 0.3144 0.9492
vn 0.2432 0.6928 -0.6789
vn 0.4584 -0.7614 -0.4583
vn -0.4581 0.7021 0.5451
vn -0.3891 -0.3429 0.8550
vn -0.1940 0.9655 0.1736
vn -0.7207 0.6164 0.3173
vn 0.2381 0.8974 -0.3715
vn 0.5184 0.4919 -0.6995
vn 0.7728 -0.1144 -0.6242
vn 0.3485 0.0121 -0.9372
vn -0.2877 0.7116 -0.6410
vn 0.5333 -0.7730 0.3435
vn 0.3298 -0.9412 0.0731
vn 0.4113 -0.7245 -0.5532
vn 0.3349 -0.5810 0.7418
vn -0.3143 0.2271 0.9218
vn -0.5814 -0.1688 0.7959
vn -0.2224 -0.6308 0.7434
vn -0.1176 -0.9414 0.3160
vn -0.8741 0.2892 -0.3902
vn -0.5840 0.4365 -0.6844
vn -0.1502 -0.7882 -0.5968
vn -0.3493 -0.8662 -0.3574
vn -0.3837 -0.9196 0.0846
vn 0.9878 0.1214 0.0976
vn 0.1714 0.6486 0.7416
vn -0.5450 0.7485 0.3778
vn -0.6438 0.7042 0.2994
vn 0.1038 0.9413 -0.3211
vn 0.7940 0.0611 -0.6049
vn 0.2739 0.3084 -0.9110
vn 0.2953 -0.1666 -0.9408
vn -0.2877 0.7093 -0.6435
vn 0.7565 -0.4720 -0.4527
vn 0.7906 -0.6115 0.0318
vn 0.4747 -0.7602 -0.4436
vn 0.1569 -0.5062 0.8480
vn -0.2012 0.1940 0.9602
vn -0.7808 -0.0462 0.6230
vn -0.8778 -0.1856 0.4416
vn -0.8760 0.2892 -0.3859
vn -0.0658 -0.2642 -0.9622
vn 0.9233 0.2602 0.2826
vn 0.7701 0.5304 0.3544
vn -0.8638 -0.1138 -0.4909
vn 0.5957 -0.0161 -0.8031
vn 0.0030 0.0208 0.9998
vn 0.9550 -0.0330 0.2946
vn -0.9508 0.0749 0.3007
vn 0.6033 0.0372 -0.7966
vn 0.0078 0.0148 0.9999
vn -0.6052 -0.0138 -0.7960
vn -0.2205 -0.2634 0.9392
vn -0.9546 -0.0272 0.2966
vn -0.6129 0.4945 0.6163
vn -0.1213 0.6333 -0.7643
vn 0.9532 0.0530 0.2976
vn 0.7025 -0.5762 -0.4177
vn -0.9591 0.2134 0.1861
vn -0.1786 -0.1697 0.9692
vn -0.2151 0.2611 -0.9410
vn 0.9811 -0.1859 -0.0539
vn -0.5977 0.0510 -0.8001
vn 0.9615 0.1019 0.2552
vn -0.9522 -0.0589 0.2997
vn -0.6000 -0.0335 -0.7993
vn -0.0027 0.0183 0.9998
vn 0.5962 0.0623 -0.8004
vn -0.9213 0.2840 -0.2656
vn -0.9662 -0.1932 0.1708
vn -0.4833 0.3386 -0.8074
vn 0.0815 0.2539 -0.9638
vn 0.6800 0.2702 -0.6816
vn 0.4385 -0.1720 -0.8821
vn -0.5426 -0.2778 -0.7927
vn 0.8063 0.3065 0.5060
vn 0.9062 -0.0477 0.4201
vn 0.9518 -0.2065 -0.2269
vn 0.4359 0.4120 0.8002
vn -0.6063 0.2795 0.7445
vn -0.3995 -0.1388 0.9062
vn 0.1759 -0.0484 0.9832
vn 0.5985 -0.2858 0.7484
vn -0.5910 -0.7774 -0.2154
vn -0.4706 -0.6351 -0.6125
vn 0.7131 -0.6972 -0.0734
vn 0.6017 -0.7681 0.2191
vn 0.5026 -0.6012 0.6213
vn 0.4067 0.8767 -0.2570
vn -0.6309 0.7328 0.2548
vn -0.9939 0.0242 0.1077
vn -0.9898 -0.1085 0.0919
vn -0.6044 0.2723 -0.7487
vn 0.5462 0.3607 -0.7560
vn 0.1552 -0.1100 -0.9817
vn 0.5532 -0.2816 -0.7840
vn -0.5401 -0.2799 -0.7937
vn 0.9082 0.2090 -0.3627
vn 0.9026 0.4194 0.0967
vn 0.9838 -0.1162 -0.1366
vn 0.2512 0.3493 0.9027
vn -0.5299 0.3758 0.7603
vn -0.5560 -0.3360 0.7602
vn -0.4466 -0.5519 0.7042
vn -0.5933 -0.7767 -0.2113
vn 0.4430 -0.6147 -0.6526
vn 0.2099 0.9658 -0.1521
vn -0.1074 0.9779 -0.1791
vn 0.2298 0.9647 0.1288
s off
f 3/1/1 4/2/1 8/3/1 7/4/1
f 2/5/2 3/1/2 7/4/2 6/6/2
f 4/2/3 1/7/3 5/8/3 8/3/3
f 1/7/4 2/9/4 6/10/4 5/8/4
f 9/11/5 10/12/5 11/13/5
f 12/14/6 13/15/6 14/16/6
f 15/17/7 10/12/7 16/18/7
f 15/19/8 16/20/8 17/21/8
f 17/21/9 18/22/9 19/23/9
f 17/21/10 19/23/10 20/24/10
f 15/17/11 12/14/11 11/13/11
f 21/25/12 22/26/12 23/27/12
f 21/25/13 23/27/13 24/28/13
f 24/28/14 25/29/14 19/23/14
f 23/27/15 22/26/15 26/30/15
f 27/31/16 9/11/16 14/16/16
f 27/31/17 14/16/17 28/32/17
f 27/33/18 28/34/18 23/27/18
f 28/34/19 24/28/19 23/27/19
f 29/35/20 12/14/20 30/36/20
f 30/36/21 12/14/21 20/37/21
f 30/38/22 25/29/22 24/28/22
f 30/38/23 24/28/23 29/39/23
f 29/39/24 24/28/24 28/34/24
f 22/26/25 18/22/25 16/20/25
f 10/12/26 9/11/26 26/40/26
f 11/13/27 14/16/27 9/11/27
f 11/13/28 12/14/28 14/16/28
f 15/17/29 11/13/29 10/12/29
f 17/21/30 16/20/30 18/22/30
f 15/19/31 17/21/31 20/24/31
f 20/24/32 19/23/32 25/29/32
f 15/17/33 20/37/33 12/14/33
f 21/25/34 19/23/34 18/22/34
f 21/25/35 18/22/35 22/26/35
f 21/25/36 24/28/36 19/23/36
f 27/33/37 23/27/37 26/30/37
f 27/31/38 26/40/38 9/11/38
f 28/32/39 14/16/39 13/15/39
f 29/35/40 28/32/40 13/15/40
f 29/35/41 13/15/41 12/14/41
f 30/38/42 20/24/42 25/29/42
f 26/30/43 22/26/43 16/20/43
f 26/40/44 16/18/44 10/12/44
f 2/41/45 1/42/45 4/43/45 3/44/45
f 31/45/46 36/46/46 40/47/46 35/48/46
f 34/49/47 39/50/47 38/51/47 33/52/47
f 35/48/48 40/47/48 39/53/48 34/54/48
f 33/52/49 38/51/49 37/55/49 32/56/49
f 52/57/50 51/58/50 41/59/50 45/60/50
f 54/61/51 53/62/51 44/63/51 43/64/51
f 51/58/52 55/65/52 42/66/52 41/59/52
f 38/67/53 39/68/53 48/69/53 47/70/53
f 55/65/54 54/61/54 43/64/54 42/66/54
f 46/71/55 38/67/55 47/70/55 50/72/55
f 40/73/56 46/71/56 50/72/56 49/74/56
f 53/75/57 52/57/57 45/60/57 44/76/57
f 39/77/58 40/73/58 49/74/58 48/78/58
f 50/72/59 47/70/59 79/79/59 81/80/59
f 47/70/60 48/69/60 78/81/60 79/79/60
f 49/74/61 50/72/61 81/80/61 80/82/61
f 48/78/62 49/74/62 80/82/62 78/83/62
f 32/56/63 37/55/63 36/46/63 31/45/63
f 46/84/64 40/85/64 52/57/64 53/75/64
f 37/86/65 38/87/65 54/61/65 55/65/65
f 36/88/66 37/86/66 55/65/66 51/58/66
f 38/87/67 46/89/67 53/62/67 54/61/67
f 40/85/68 36/88/68 51/58/68 52/57/68
f 56/90/69 57/91/69 58/92/69
f 59/93/70 60/94/70 61/95/70
f 62/96/71 57/91/71 63/97/71
f 62/98/72 63/99/72 64/100/72
f 64/100/73 65/101/73 66/102/73
f 64/100/74 66/102/74 67/103/74
f 62/96/75 59/93/75 58/92/75
f 68/104/76 69/105/76 70/106/76
f 68/104/77 70/106/77 71/107/77
f 71/107/78 72/108/78 66/102/78
f 70/106/79 69/105/79 73/109/79
f 74/110/80 56/90/80 61/95/80
f 74/110/81 61/95/81 75/111/81
f 74/112/82 75/113/82 70/106/82
f 75/113/83 71/107/83 70/106/83
f 76/114/84 59/93/84 77/115/84
f 77/115/85 59/93/85 67/116/85
f 77/117/86 72/108/86 71/107/86
f 77/117/87 71/107/87 76/118/87
f 76/118/88 71/107/88 75/113/88
f 69/105/89 65/101/89 63/99/89
f 57/91/90 56/90/90 73/119/90
f 58/92/91 61/95/91 56/90/91
f 58/92/92 59/93/92 61/95/92
f 62/96/93 58/92/93 57/91/93
f 64/100/94 63/99/94 65/101/94
f 62/98/95 64/100/95 67/103/95
f 67/103/96 66/102/96 72/108/96
f 62/96/97 67/116/97 59/93/97
f 68/104/98 66/102/98 65/101/98
f 68/104/99 65/101/99 69/105/99
f 68/104/100 71/107/100 66/102/100
f 74/112/101 70/106/101 73/109/101
f 74/110/102 73/119/102 56/90/102
f 75/111/103 61/95/103 60/94/103
f 76/114/104 75/111/104 60/94/104
f 76/114/105 60/94/105 59/93/105
f 77/117/106 67/103/106 72/108/106
f 73/109/107 69/105/107 63/99/107
f 73/119/108 63/97/108 57/91/108
f 78/120/109 80/121/109 81/122/109 79/123/109
