# Blender v2.78 (sub 0) OBJ File: 'Low_Poly_Trees_Pack.blend'
# www.blender.org
g Birch_Tree_NoLeaves_crk_m_05
v -0.715518 0.109452 -0.144239
v -0.681471 -0.023247 -0.198146
v -0.663152 -0.005488 -0.101662
v -1.593640 0.089312 -0.302912
v -1.566756 -0.025057 -0.347363
v -1.569888 -0.013960 -0.263821
v -1.599767 0.059988 -0.389207
v -3.309505 0.048456 -1.080897
v -3.297222 -0.003611 -1.101236
v -3.311559 0.001049 -1.065274
v -3.299698 0.036558 -1.120442
v -4.674203 0.038949 -1.867350
v -4.668514 0.014761 -1.876743
v -4.677868 0.016562 -1.860453
v -4.667021 0.033706 -1.885681
v -0.820716 0.104072 -0.300045
v -0.087095 0.000000 0.110605
v 0.066838 0.000000 0.107864
v 0.135543 0.000000 -0.019457
v 0.013824 0.000000 -0.139177
v -0.224438 0.000000 -0.114984
v 0.073922 1.111064 0.197463
v 0.191069 1.095121 0.204868
v 0.235835 1.101210 0.095363
v 0.146355 1.120918 0.020280
v 0.046288 1.127008 0.083382
v 0.227745 2.513581 0.302378
v 0.320754 2.498399 0.307984
v 0.356566 2.504198 0.220825
v 0.285689 2.522964 0.161352
v 0.206073 2.528764 0.211755
v 0.317343 4.206613 0.331592
v 0.365264 4.198791 0.334480
v 0.383716 4.201778 0.289573
v 0.347198 4.211448 0.258931
v 0.306177 4.214436 0.284900
v 0.330049 6.400025 0.306867
v 0.343262 6.397870 0.307664
v 0.348349 6.398693 0.295282
v 0.332625 6.401770 0.290414
v -0.027147 0.389893 0.132560
v -0.140896 0.474766 -0.031731
v 0.162368 0.386435 0.013813
v 0.056887 0.393351 -0.074696
v 0.110433 0.384298 0.141905
v -0.257122 0.234167 -0.100937
v -0.191509 0.297570 -0.141376
v -0.216007 0.305991 0.003549
vt 0.1215 0.1412
vt 0.1402 0.1204
vt 0.1447 0.2387
vt 0.1329 0.2449
vt 0.1531 0.1152
vt 0.1554 0.2356
vt 0.1697 0.2398
vt 0.1644 0.4934
vt 0.1572 0.4927
vt 0.1520 0.4933
vt 0.1459 0.4949
vt 0.1700 0.1230
vt 0.1882 0.1410
vt 0.1808 0.2443
vt 0.1700 0.4948
vt 0.0349 0.7319
vt 0.0405 0.7332
vt 0.0366 0.9468
vt 0.0329 0.9463
vt 0.0277 0.7312
vt 0.0291 0.9462
vt 0.0225 0.7317
vt 0.0254 0.9462
vt 0.0164 0.7333
vt 0.0217 0.9468
vt 0.0272 0.5585
vt 0.0237 0.5585
vt 0.0236 0.5558
vt 0.0266 0.5560
vt 0.1313 0.1546
vt 0.1578 0.1767
vt 0.1386 0.1840
vt 0.1308 0.1556
vt 0.1640 0.3100
vt 0.1406 0.3094
vt 0.1207 0.1834
vt 0.1172 0.3091
vt 0.0937 0.3094
vt 0.1011 0.1760
vt 0.1300 0.1556
vt 0.1296 0.1547
vt 0.1886 0.3105
vt 0.1750 0.5962
vt 0.1561 0.5946
vt 0.1374 0.5921
vt 0.1185 0.5914
vt 0.0997 0.5935
vt 0.0809 0.5959
vt 0.0689 0.3102
vt 0.0586 0.6567
vt 0.0665 0.8704
vt 0.0604 0.8714
vt 0.0468 0.6583
vt 0.0940 0.6575
vt 0.0847 0.8709
vt 0.0787 0.8697
vt 0.0823 0.6559
vt 0.0704 0.6555
vt 0.0725 0.8694
vt 0.1058 0.6584
vt 0.0908 0.8715
vt 0.1462 0.6697
vt 0.1377 0.9471
vt 0.1401 0.6692
vt 0.1341 0.6680
vt 0.1330 0.9461
vt 0.1281 0.9458
vt 0.1279 0.6676
vt 0.1218 0.6686
vt 0.1233 0.9466
vt 0.1185 0.9472
vt 0.1158 0.6696
vt 0.0240 0.6633
vt 0.0236 0.6615
vt 0.0258 0.6612
vt 0.0529 0.1595
vt 0.0916 0.1107
vt 0.1305 0.1535
vt 0.1307 0.1180
vt 0.1602 0.1090
vt 0.2033 0.1608
vt 0.0258 0.6634
vt 0.3457 0.9254
vt 0.3527 0.9472
vt 0.3310 0.9710
vt 0.3310 0.9343
vt 0.3029 0.8946
vt 0.3316 0.9207
vt 0.2976 0.9207
vt 0.2856 0.8998
vn 0.1375 -0.4763 -0.8685
vn -0.0221 -0.9869 0.1600
vn -0.4028 0.2606 0.8774
vn 0.3769 -0.3174 -0.8702
vn -0.1738 0.2914 0.9407
vn -0.0184 0.9909 -0.1336
vn 0.1174 0.9447 -0.3060
vn -0.0647 -0.9905 0.1212
vn 0.1347 0.9602 -0.2448
vn -0.4768 0.3051 0.8244
vn -0.0657 -0.9935 0.0931
vn 0.4525 -0.3772 -0.8081
vn -0.9269 0.0366 -0.3736
vn -0.8638 -0.1576 -0.4785
vn 0.6758 0.0317 -0.7364
vn 0.6443 0.0208 -0.7645
vn -0.0721 -0.0796 0.9942
vn -0.0239 -0.0689 0.9973
vn 0.9192 -0.1368 0.3694
vn -0.5226 0.1366 -0.8416
vn 0.9218 -0.1125 0.3709
vn -0.9654 0.0875 0.2458
vn 0.6445 0.0129 -0.7645
vn -0.0715 -0.0666 0.9952
vn -0.9697 0.0472 0.2398
vn 0.6458 0.0206 -0.7632
vn -0.0624 -0.0139 0.9980
vn -0.5301 0.0682 -0.8452
vn 0.9252 -0.0301 0.3782
vn -0.5344 0.0086 -0.8452
vn 0.9246 0.0139 0.3808
vn -0.9906 0.0095 0.1362
vn 0.5644 0.0134 -0.8254
vn -0.0583 0.0116 0.9982
vn 0.1522 0.9801 0.1277
vn -0.6317 0.4176 0.6531
vn -0.1945 -0.0653 -0.9787
vn -0.8511 -0.1691 0.4970
vn 0.8982 -0.1190 0.4232
vn -0.5764 0.0427 0.8160
vn 0.2076 0.1361 -0.9687
vn 0.0286 0.5200 -0.8537
vn -0.2765 0.1986 -0.9403
vn -0.8673 0.1187 0.4835
vn -0.8663 0.4684 -0.1737
vn 0.8144 0.3853 -0.4340
s off
f 16/1/1 2/2/1 5/3/1 7/4/1
f 2/2/2 3/5/2 6/6/2 5/3/2
f 6/6/3 4/7/3 8/8/3 10/9/3
f 7/4/4 5/3/4 9/10/4 11/11/4
f 3/5/5 1/12/5 4/7/5 6/6/5
f 1/12/6 16/13/6 7/14/6 4/7/6
f 4/7/7 7/14/7 11/15/7 8/8/7
f 5/3/8 6/6/8 10/9/8 9/10/8
f 8/16/9 11/17/9 15/18/9 12/19/9
f 10/20/10 8/16/10 12/19/10 14/21/10
f 9/22/11 10/20/11 14/21/11 13/23/11
f 11/24/12 9/22/12 13/23/12 15/25/12
f 14/26/13 12/27/13 15/28/13
f 13/29/14 14/26/14 15/28/14
f 20/30/15 44/31/15 43/32/15 19/33/15
f 44/31/16 25/34/16 24/35/16 43/32/16
f 45/36/17 23/37/17 22/38/17 41/39/17
f 18/40/18 45/36/18 41/39/18 17/41/18
f 43/32/19 24/35/19 23/37/19 45/36/19
f 26/42/20 31/43/20 30/44/20 25/34/20
f 24/35/21 29/45/21 28/46/21 23/37/21
f 22/38/22 27/47/22 31/48/22 26/49/22
f 25/34/23 30/44/23 29/45/23 24/35/23
f 23/37/24 28/46/24 27/47/24 22/38/24
f 27/50/25 32/51/25 36/52/25 31/53/25
f 30/54/26 35/55/26 34/56/26 29/57/26
f 28/58/27 33/59/27 32/51/27 27/50/27
f 31/60/28 36/61/28 35/55/28 30/54/28
f 29/57/29 34/56/29 33/59/29 28/58/29
f 36/62/30 40/63/30 35/64/30
f 34/65/31 39/66/31 38/67/31 33/68/31
f 32/69/32 37/70/32 40/71/32 36/72/32
f 35/64/33 40/63/33 39/66/33 34/65/33
f 33/68/34 38/67/34 37/70/34 32/69/34
f 38/73/35 39/74/35 40/75/35
f 41/39/36 42/76/36 48/77/36
f 20/30/37 21/78/37 46/79/37 47/80/37
f 21/78/38 17/41/38 48/77/38 46/79/38
f 19/33/39 43/32/39 45/36/39 18/40/39
f 17/41/40 41/39/40 48/77/40
f 44/31/41 20/30/41 47/80/41
f 42/81/42 44/31/42 47/80/42
f 26/42/43 25/34/43 44/31/43 42/81/43
f 26/49/44 42/76/44 41/39/44 22/38/44
f 37/82/35 38/73/35 40/75/35
f 46/83/45 48/84/45 42/85/45 47/86/45
f 2/87/46 16/88/46 1/89/46 3/90/46
