# Blender v2.78 (sub 0) OBJ File: 'Low_Poly_Trees_Pack.blend'
# www.blender.org
g Birch_Tree_NoLeaves_crk_m_01
v 0.665500 0.105832 0.461243
v 0.641321 0.010131 0.480733
v 0.729827 0.010591 0.391082
v 0.731323 0.114306 0.408604
v 1.778963 0.067598 1.514656
v 1.766195 0.017062 1.524948
v 1.812932 0.017304 1.477606
v 1.813721 0.072073 1.486859
v 2.922997 0.113761 2.412342
v 2.918494 0.095934 2.415972
v 2.934979 0.096020 2.399272
v 2.935258 0.115339 2.402537
v -0.000000 0.000000 -0.189172
v -0.138664 0.000000 -0.088427
v -0.085699 0.000000 0.074582
v 0.085699 0.000000 0.074582
v 0.138664 0.000000 -0.088427
v 0.095468 1.706080 -0.154628
v -0.002529 1.677229 -0.080408
v 0.034903 1.688249 0.039684
v 0.153826 1.592530 0.040793
v 0.193466 1.734931 -0.080408
v -0.124286 6.132535 -0.087364
v -0.153938 6.121562 -0.064393
v -0.142612 6.125752 -0.027224
v -0.102816 6.096835 -0.026832
v -0.094633 6.143507 -0.064393
v -0.395638 8.110517 -0.065818
v -0.404043 8.107406 -0.059306
v -0.400833 8.108594 -0.048770
v -0.388838 8.113031 -0.054038
v -0.117395 6.168352 -0.027851
v 0.283528 6.812524 0.462404
v 0.294216 6.804758 0.462509
v 0.293125 6.809220 0.448578
v 0.282643 6.816259 0.451740
v 0.155205 1.851580 0.038354
v 0.259938 1.855411 0.139437
v 0.365133 1.781922 0.143480
v 0.390977 1.888447 0.031482
v 0.271857 1.937700 0.075167
v 0.025581 2.583069 -0.139424
v 0.108257 2.583069 -0.076807
v 0.076016 2.583069 0.023446
v -0.025516 2.583069 0.024509
v -0.057095 2.583069 -0.076807
v 0.465773 2.222356 0.241626
v 0.368571 2.242065 0.224697
v 0.449914 2.237003 0.117509
v 0.351460 2.262585 0.144314
vt 0.1659 0.6501
vt 0.1782 0.6509
vt 0.1779 0.8211
vt 0.1714 0.8203
vt 0.1507 0.6525
vt 0.1636 0.8201
vt 0.1882 0.6506
vt 0.1830 0.8203
vt 0.2003 0.6516
vt 0.1894 0.8201
vt 0.1812 0.9796
vt 0.1782 0.9798
vt 0.1753 0.9803
vt 0.1724 0.9799
vt 0.1694 0.9797
vt 0.0129 0.8881
vt 0.0129 0.8903
vt 0.0112 0.8903
vt 0.0104 0.8884
vt 0.3012 0.9152
vt 0.3321 0.9253
vt 0.3350 0.9526
vt 0.3012 0.9560
vt 0.0914 0.1272
vt 0.0845 0.2932
vt 0.0705 0.2960
vt 0.0718 0.1275
vt 0.1489 0.1312
vt 0.1281 0.2849
vt 0.1130 0.2922
vt 0.1295 0.1286
vt 0.0561 0.2820
vt 0.0522 0.1273
vt 0.0987 0.2907
vt 0.1105 0.1272
vt 0.0844 0.2776
vt 0.1020 0.2791
vt 0.0711 0.7603
vt 0.0605 0.7616
vt 0.1372 0.2821
vt 0.1545 0.2829
vt 0.1033 0.7547
vt 0.0923 0.7603
vt 0.1194 0.2809
vt 0.0817 0.7590
vt 0.1860 0.5676
vt 0.2018 0.5680
vt 0.2073 0.5978
vt 0.1916 0.5990
vt 0.1185 0.6779
vt 0.1244 0.6764
vt 0.1396 0.9864
vt 0.1343 0.9876
vt 0.0874 0.8955
vt 0.0903 0.8911
vt 0.0880 0.9903
vt 0.0864 0.9899
vt 0.1305 0.6767
vt 0.1450 0.9865
vt 0.1126 0.6794
vt 0.1289 0.9885
vt 0.1361 0.6832
vt 0.1504 0.9873
vt 0.0144 0.9096
vt 0.0141 0.9084
vt 0.0156 0.9082
vt 0.0156 0.9097
vt 0.0955 0.8909
vt 0.0898 0.9902
vt 0.0770 0.8909
vt 0.0831 0.8926
vt 0.0847 0.9897
vt 0.0830 0.9903
vt 0.1065 0.6841
vt 0.0288 0.8948
vt 0.0304 0.8948
vt 0.0304 0.8962
vt 0.0292 0.8962
vt 0.1799 0.5876
vt 0.1787 0.6060
vt 0.1628 0.5770
vt 0.1603 0.6084
vt 0.0665 0.2771
vt 0.0506 0.7515
vt 0.1418 0.5691
vt 0.1424 0.6023
vt 0.1882 0.6506
vt 0.1782 0.6509
vt 0.2003 0.6516
vt 0.1659 0.6501
vt 0.1507 0.6525
vt 0.0664 0.1782
vt 0.0871 0.1629
vt 0.1299 0.1587
vt 0.1512 0.1625
vt 0.1084 0.1606
vt 0.1709 0.1852
vt 0.3012 0.9194
vt 0.3419 0.9153
vt 0.3419 0.9494
vt 0.3144 0.9492
vn 0.7037 0.1085 -0.7022
vn 0.0057 -1.0000 0.0005
vn -0.0537 0.9942 0.0929
vn -0.6488 0.3058 0.6968
vn -0.5960 0.3021 0.7440
vn 0.6250 0.1213 -0.7712
vn 0.0410 -0.9985 0.0354
vn -0.0837 0.9949 0.0555
vn 0.6294 -0.1383 0.7647
vn 0.7113 -0.0368 0.7020
vn -0.6782 0.0801 -0.7305
vn 0.5957 -0.0161 -0.8031
vn 0.0030 0.0208 0.9998
vn 0.9550 -0.0330 0.2946
vn -0.9508 0.0749 0.3007
vn 0.6033 0.0372 -0.7966
vn 0.0078 0.0148 0.9999
vn -0.6052 -0.0138 -0.7960
vn -0.2205 -0.2634 0.9392
vn -0.9546 -0.0272 0.2966
vn -0.5938 -0.0727 -0.8013
vn -0.8736 0.4793 0.0846
vn -0.9458 -0.1199 0.3017
vn 0.6665 0.1015 -0.7385
vn 0.1213 0.0284 0.9922
vn -0.3470 0.9379 0.0000
vn -0.3109 -0.4163 0.8544
vn 0.9077 -0.3536 -0.2261
vn 0.8787 0.1288 0.4597
vn -0.2128 0.6671 -0.7139
vn 0.5804 0.7854 0.2151
vn -0.6129 0.4945 0.6163
vn -0.1213 0.6333 -0.7643
vn 0.9532 0.0530 0.2976
vn 0.7025 -0.5762 -0.4177
vn -0.9591 0.2134 0.1861
vn -0.1786 -0.1697 0.9692
vn -0.2151 0.2611 -0.9410
vn 0.9811 -0.1859 -0.0539
vn -0.5977 0.0510 -0.8001
vn 0.9615 0.1019 0.2552
vn -0.9522 -0.0589 0.2997
vn -0.6000 -0.0335 -0.7993
vn -0.0027 0.0183 0.9998
vn 0.5962 0.0623 -0.8004
vn 0.2298 0.9647 0.1288
s off
f 3/1/1 4/2/1 8/3/1 7/4/1
f 2/5/2 3/1/2 7/4/2 6/6/2
f 4/2/3 1/7/3 5/8/3 8/3/3
f 1/7/4 2/9/4 6/10/4 5/8/4
f 5/8/5 6/10/5 10/11/5 9/12/5
f 7/4/6 8/3/6 12/13/6 11/14/6
f 6/6/7 7/4/7 11/14/7 10/15/7
f 8/3/8 5/8/8 9/12/8 12/13/8
f 11/16/9 12/17/9 9/18/9
f 10/19/10 11/16/10 9/18/10
f 2/20/11 1/21/11 4/22/11 3/23/11
f 13/24/12 18/25/12 22/26/12 17/27/12
f 16/28/13 21/29/13 20/30/13 15/31/13
f 17/27/14 22/26/14 21/32/14 16/33/14
f 15/31/15 20/30/15 19/34/15 14/35/15
f 43/36/16 42/37/16 23/38/16 27/39/16
f 45/40/17 44/41/17 26/42/17 25/43/17
f 42/37/18 46/44/18 24/45/18 23/38/18
f 20/46/19 21/47/19 39/48/19 38/49/19
f 46/44/20 45/40/20 25/43/20 24/45/20
f 23/50/21 24/51/21 29/52/21 28/53/21
f 32/54/22 25/55/22 33/56/22 36/57/22
f 24/51/23 25/58/23 30/59/23 29/52/23
f 27/60/24 23/50/24 28/53/24 31/61/24
f 25/58/25 32/62/25 31/63/25 30/59/25
f 29/64/26 30/65/26 31/66/26 28/67/26
f 25/55/27 26/68/27 34/69/27 33/56/27
f 26/70/28 27/71/28 35/72/28 34/73/28
f 32/74/29 27/60/29 31/61/29
f 27/71/30 32/54/30 36/57/30 35/72/30
f 34/75/31 35/76/31 36/77/31 33/78/31
f 37/79/32 20/46/32 38/49/32 41/80/32
f 22/81/33 37/79/33 41/80/33 40/82/33
f 44/83/34 43/36/34 27/39/34 26/84/34
f 21/85/35 22/81/35 40/82/35 39/86/35
f 41/80/36 38/49/36 48/87/36 50/88/36
f 38/49/37 39/48/37 47/89/37 48/87/37
f 40/82/38 41/80/38 50/88/38 49/90/38
f 39/86/39 40/82/39 49/90/39 47/91/39
f 14/35/40 19/34/40 18/25/40 13/24/40
f 37/92/41 22/93/41 43/36/41 44/83/41
f 19/94/42 20/95/42 45/40/42 46/44/42
f 18/96/43 19/94/43 46/44/43 42/37/43
f 20/95/44 37/97/44 44/41/44 45/40/44
f 22/93/45 18/96/45 42/37/45 43/36/45
f 47/98/46 49/99/46 50/100/46 48/101/46
