# Blender v2.78 (sub 0) OBJ File: 'Low_Poly_Trees_Pack.blend'
# www.blender.org
g Fir_Tree_OneSided_s_07
v -0.153855 0.154611 -0.135143
v -0.139816 0.122623 0.173072
v 0.183925 0.130872 0.150686
v 0.185887 0.164304 -0.174001
v -0.041550 0.928259 -0.033940
v -0.019343 0.929493 0.005527
v 0.032892 0.930382 0.015387
v 0.033004 0.928848 -0.046589
v -0.118723 0.568048 -0.099459
v -0.090547 0.574677 0.101500
v 0.125535 0.577016 0.137759
v 0.125668 0.567838 -0.133315
v -0.010245 1.523266 -0.000557
v 0.056635 1.117292 -0.051229
v 0.056519 1.119035 0.047164
v -0.034663 1.117384 0.030363
v -0.048666 1.115828 -0.047267
v -0.010900 0.000000 -0.059060
v -0.068696 0.000000 0.015434
v 0.013825 0.000000 0.067551
v 0.057816 0.000000 -0.009135
v -0.012676 0.421389 -0.045951
v -0.039053 0.421670 0.002746
v -0.007484 0.421578 0.021344
v 0.024806 0.421331 -0.014898
vt 0.7255 0.4096
vt 0.6898 0.4719
vt 0.6858 0.4437
vt 0.6916 0.4367
vt 0.6445 0.4497
vt 0.6762 0.3896
vt 0.6851 0.4336
vt 0.6823 0.4399
vt 0.7335 0.4432
vt 0.6628 0.4643
vt 0.6775 0.4488
vt 0.6971 0.4422
vt 0.7098 0.3833
vt 0.6905 0.4224
vt 0.6513 0.4156
vt 0.6740 0.4330
vt 0.6835 0.4408
vt 0.7923 0.8916
vt 0.8218 0.8911
vt 0.8214 0.9870
vt 0.7922 0.9866
vt 0.8507 0.8911
vt 0.8501 0.9873
vt 0.8357 0.9873
vt 0.8363 0.8906
vt 0.7777 0.9869
vt 0.7777 0.8908
vn -0.1256 0.1426 -0.9818
vn 0.0282 0.1857 0.9822
vn 0.9814 0.1908 0.0210
vn -0.9820 0.1495 0.1156
vn -0.1072 0.1209 -0.9869
vn 0.9921 0.1255 -0.0030
vn -0.1702 0.1433 0.9749
vn -0.0390 0.1174 -0.9923
vn -0.9818 0.0724 0.1756
vn -0.9826 0.1160 0.1454
vn -0.1820 0.0856 0.9796
vn 0.9867 0.1628 -0.0017
vn -0.5257 0.0644 0.8482
vn 0.6060 0.0319 -0.7948
vn -0.8253 0.0276 -0.5640
vn 0.8256 0.0876 0.5575
s off
f 4/1/1 1/2/1 5/3/1 8/4/1
f 2/5/2 3/6/2 7/7/2 6/8/2
f 3/6/3 4/1/3 8/4/3 7/7/3
f 1/2/4 2/5/4 6/8/4 5/3/4
f 12/9/5 9/10/5 17/11/5 14/12/5
f 11/13/6 12/9/6 14/12/6 15/14/6
f 10/15/7 11/13/7 15/14/7 16/16/7
f 17/11/8 13/17/8 14/12/8
f 17/11/9 16/16/9 13/17/9
f 9/10/10 10/15/10 16/16/10 17/11/10
f 15/14/11 13/17/11 16/16/11
f 14/12/12 13/17/12 15/14/12
f 19/18/13 20/19/13 24/20/13 23/21/13
f 18/22/14 22/23/14 25/24/14 21/25/14
f 19/18/15 23/21/15 22/26/15 18/27/15
f 21/25/16 25/24/16 24/20/16 20/19/16
