# Blender v2.78 (sub 0) OBJ File: 'Low_Poly_Trees_Pack.blend'
# www.blender.org
g Fir_Tree_OneSided_s_03
v 0.061037 0.228539 -0.627156
v -0.499912 0.231537 -0.182054
v -0.420853 0.199496 0.451587
v 0.285424 0.171413 0.429045
v 0.458560 0.202856 -0.362961
v 0.020259 1.296608 -0.033589
v -0.064560 1.302442 0.053703
v -0.039357 1.297621 0.114626
v 0.081122 1.284895 0.113472
v 0.080604 1.289342 -0.008836
v -0.009984 0.834864 -0.395702
v -0.386449 0.795482 -0.021623
v -0.235279 0.732501 0.436501
v 0.323854 0.738010 0.300330
v 0.331207 0.808446 -0.255145
v 0.138149 1.701870 -0.023457
v 0.050603 1.710585 0.067071
v 0.123821 1.697729 0.129836
v 0.201790 1.686567 0.129152
v 0.200787 1.691950 0.002256
v 0.032435 1.283683 -0.276977
v -0.224675 1.301648 -0.010198
v -0.085365 1.282323 0.279764
v 0.310058 1.249674 0.277279
v 0.352446 1.261445 -0.183445
v 0.335141 2.297263 0.118445
v 0.196571 1.923153 -0.020056
v 0.277166 1.908236 0.010359
v 0.277978 1.900300 0.161118
v 0.172216 1.917643 0.162145
v 0.121988 1.931204 0.057352
v -0.028160 0.550375 -0.037917
v 0.002696 0.000890 -0.134189
v -0.111695 0.000416 -0.021135
v 0.019254 -0.000099 0.084817
v 0.109385 0.000432 -0.037547
v -0.007872 0.541171 -0.106548
v -0.055485 0.539679 -0.022565
v -0.004708 0.538558 0.003985
v 0.051441 0.539536 -0.059362
v -0.094197 0.203632 -0.018900
v 0.084146 0.203646 -0.033064
v -0.000291 0.204367 -0.114055
v 0.004869 0.202889 0.062841
vt 0.6447 0.4427
vt 0.6783 0.3957
vt 0.6802 0.4254
vt 0.6738 0.4432
vt 0.7376 0.4577
vt 0.6845 0.4770
vt 0.6813 0.4499
vt 0.6985 0.4429
vt 0.7376 0.4209
vt 0.6979 0.4325
vt 0.6428 0.4437
vt 0.6793 0.3946
vt 0.6871 0.4336
vt 0.6844 0.4387
vt 0.7345 0.4573
vt 0.6815 0.4790
vt 0.6871 0.4433
vt 0.6936 0.4403
vt 0.7345 0.4170
vt 0.6938 0.4365
vt 0.8343 0.3890
vt 0.8608 0.4560
vt 0.8245 0.4458
vt 0.8172 0.4237
vt 0.7804 0.4087
vt 0.8020 0.4302
vt 0.8335 0.4846
vt 0.7771 0.4618
vt 0.8014 0.4474
vt 0.8149 0.4540
vt 0.8110 0.4400
vt 0.8507 0.9169
vt 0.8501 0.9883
vt 0.8364 0.9884
vt 0.8367 0.9167
vt 0.7954 0.9172
vt 0.7949 0.9877
vt 0.7811 0.9880
vt 0.7816 0.9168
vt 0.8370 0.8961
vt 0.8227 0.9169
vt 0.8232 0.8966
vt 0.7950 0.8970
vt 0.7811 0.8963
vt 0.8228 0.9880
vt 0.8508 0.8966
vn 0.0413 0.2797 0.9592
vn -0.5840 0.3848 -0.7147
vn 0.9501 0.2481 0.1891
vn 0.5042 0.4279 -0.7501
vn -0.9218 0.3545 0.1572
vn 0.2070 0.2128 0.9549
vn -0.6658 0.3841 -0.6396
vn 0.9905 0.1354 0.0243
vn -0.8212 0.3954 0.4113
vn 0.3857 0.3088 -0.8694
vn 0.9945 0.0781 0.0701
vn 0.0243 0.1747 0.9843
vn -0.6369 0.4214 -0.6456
vn 0.3777 0.1952 -0.9051
vn -0.8067 0.3967 0.4380
vn -0.8110 0.4042 0.4231
vn 0.0266 0.1031 0.9943
vn 0.9895 -0.1439 -0.0129
vn -0.6134 0.4638 -0.6392
vn 0.3073 0.2957 -0.9045
vn 0.6656 0.0190 -0.7461
vn -0.7843 0.0398 -0.6191
vn 0.7855 0.1029 0.6103
vn -0.7057 0.0640 -0.7056
vn -0.5820 0.1004 0.8070
vn 0.6782 0.0912 -0.7292
vn 0.7547 0.1291 0.6432
vn -0.6315 0.0425 0.7742
s off
f 3/1/1 4/2/1 9/3/1 8/4/1
f 1/5/2 2/6/2 7/7/2 6/8/2
f 4/2/3 5/9/3 10/10/3 9/3/3
f 5/9/4 1/5/4 6/8/4 10/10/4
f 2/6/5 3/1/5 8/4/5 7/7/5
f 13/11/6 14/12/6 19/13/6 18/14/6
f 11/15/7 12/16/7 17/17/7 16/18/7
f 14/12/8 15/19/8 20/20/8 19/13/8
f 12/16/9 13/11/9 18/14/9 17/17/9
f 15/19/10 11/15/10 16/18/10 20/20/10
f 24/21/11 25/22/11 28/23/11 29/24/11
f 23/25/12 24/21/12 29/24/12 30/26/12
f 21/27/13 22/28/13 31/29/13 27/30/13
f 28/23/14 27/30/14 26/31/14
f 31/29/15 30/26/15 26/31/15
f 22/28/16 23/25/16 30/26/16 31/29/16
f 29/24/17 26/31/17 30/26/17
f 28/23/18 26/31/18 29/24/18
f 31/29/19 26/31/19 27/30/19
f 25/22/20 21/27/20 27/30/20 28/23/20
f 43/32/21 37/33/21 40/34/21 42/35/21
f 41/36/22 38/37/22 37/38/22 43/39/22
f 36/40/23 42/35/23 44/41/23 35/42/23
f 34/43/24 41/36/24 43/39/24 33/44/24
f 44/41/25 39/45/25 38/37/25 41/36/25
f 33/46/26 43/32/26 42/35/26 36/40/26
f 42/35/27 40/34/27 39/45/27 44/41/27
f 44/41/28 41/36/28 34/43/28 35/42/28
