# Blender v2.78 (sub 0) OBJ File: 'Low_Poly_Trees_Pack.blend'
# www.blender.org
g Fir_Tree_OneSided_m_02
v -0.042920 0.846318 -1.439092
v -0.972402 0.939140 -0.957146
v -1.435608 0.855106 0.005055
v -0.969993 0.976608 0.965041
v -0.039192 0.903137 1.442496
v 0.890393 1.004372 0.960295
v 1.353464 0.896350 -0.001622
v 0.887751 0.966150 -0.961357
v -0.083966 2.585154 -0.810864
v -0.610997 2.595815 -0.592288
v -0.828389 2.607743 -0.063767
v -0.608868 2.614258 0.465097
v -0.081284 2.611574 0.684507
v 0.445388 2.600945 0.465936
v 0.662881 2.588583 -0.062582
v 0.443720 2.582035 -0.591451
v 0.004255 1.849676 -1.571246
v -1.022413 1.841511 -1.088165
v -1.371388 1.872869 0.018740
v -1.029312 1.782876 1.047380
v -0.005702 1.772812 1.391070
v 1.024881 1.689527 1.051260
v 1.368834 1.747837 0.023859
v 1.032459 1.750869 -1.237784
v -0.023588 4.214429 -0.140617
v -0.158262 4.216101 -0.084448
v -0.214162 4.218721 0.051546
v -0.158552 4.220857 0.187699
v -0.024007 4.221288 0.244253
v 0.110668 4.219671 0.188080
v 0.166581 4.216914 0.052088
v 0.110969 4.214725 -0.084061
v -0.011018 3.113647 -1.042933
v -0.768765 3.044414 -0.676340
v -1.143029 3.002349 0.076863
v -0.781728 2.907579 0.822606
v -0.027456 2.911057 1.204436
v 0.718664 2.922263 0.827804
v 1.103614 3.021726 0.084659
v 0.727807 3.055604 -0.671139
v -0.002283 5.111180 -0.154219
v -0.142277 5.110899 -0.096020
v -0.200473 5.113262 0.045031
v -0.142791 5.116918 0.186304
v -0.003019 5.119761 0.245045
v 0.136979 5.120098 0.186843
v 0.195190 5.117690 0.045796
v 0.137504 5.113980 -0.095476
v 0.027785 4.164427 -0.683406
v -0.505455 4.265585 -0.500520
v -0.689281 4.183305 0.040134
v -0.506010 4.296081 0.586185
v 0.027061 4.206048 0.766156
v 0.568561 4.299509 0.587996
v 0.744148 4.186969 0.042605
v 0.569103 4.267582 -0.498626
v -0.023830 6.659184 0.106771
v -0.210041 5.598760 -0.122001
v -0.023165 5.600446 -0.199485
v 0.179284 5.603570 -0.121228
v 0.256516 5.607193 0.066891
v 0.178841 5.609290 0.254712
v -0.023733 5.608390 0.332186
v -0.210405 5.604280 0.253954
v -0.287580 5.600333 0.065821
v 0.000000 0.000000 -0.271531
v -0.260336 0.000000 -0.082386
v -0.160897 0.000000 0.223658
v 0.160897 0.000000 0.223658
v 0.260336 0.000000 -0.082386
v -0.001533 2.135222 -0.124400
v -0.141416 2.136376 -0.023135
v -0.087883 2.136837 0.141071
v 0.085089 2.135995 0.141289
v 0.138457 2.134984 -0.022780
v -0.217480 0.552972 -0.050526
v -0.133620 0.552934 0.207566
v 0.221613 0.552997 -0.050526
v 0.002067 0.553012 -0.210036
v 0.137754 0.552948 0.207566
vt 0.3319 0.3606
vt 0.3257 0.3309
vt 0.3384 0.3187
vt 0.3624 0.3337
vt 0.3385 0.3015
vt 0.3633 0.2921
vt 0.3333 0.2628
vt 0.3263 0.2890
vt 0.3085 0.2882
vt 0.2920 0.2628
vt 0.2638 0.2910
vt 0.2954 0.3001
vt 0.2949 0.3181
vt 0.2640 0.3296
vt 0.2912 0.3581
vt 0.3077 0.3305
vt 0.3638 0.2947
vt 0.3638 0.3310
vt 0.3253 0.3163
vt 0.3247 0.3061
vt 0.2932 0.2647
vt 0.3306 0.2644
vt 0.3174 0.2991
vt 0.3072 0.2991
vt 0.2669 0.3293
vt 0.2669 0.2913
vt 0.3004 0.3066
vt 0.3009 0.3167
vt 0.3348 0.3565
vt 0.2944 0.3562
vt 0.3083 0.3233
vt 0.3182 0.3236
vt 0.3325 0.2632
vt 0.3607 0.2909
vt 0.3207 0.3101
vt 0.3180 0.3072
vt 0.2655 0.2910
vt 0.2932 0.2634
vt 0.3141 0.3072
vt 0.3112 0.3100
vt 0.2925 0.3586
vt 0.2650 0.3300
vt 0.3113 0.3140
vt 0.3140 0.3167
vt 0.3607 0.3306
vt 0.3325 0.3591
vt 0.3179 0.3166
vt 0.3204 0.3138
vt 0.3182 0.4594
vt 0.3069 0.4586
vt 0.3143 0.4455
vt 0.3277 0.4512
vt 0.3204 0.4295
vt 0.3285 0.4391
vt 0.2986 0.4388
vt 0.3069 0.4298
vt 0.2996 0.4503
vt 0.2681 0.4619
vt 0.2686 0.4204
vt 0.2985 0.3932
vt 0.3373 0.3953
vt 0.3634 0.4229
vt 0.3634 0.4614
vt 0.2970 0.4903
vt 0.3365 0.4895
vt 0.9329 0.9188
vt 0.9328 0.9820
vt 0.9194 0.9820
vt 0.9199 0.9186
vt 0.9729 0.9185
vt 0.9724 0.9826
vt 0.9593 0.9827
vt 0.9595 0.9183
vt 0.9460 0.9185
vt 0.9461 0.9823
vt 0.9061 0.9823
vt 0.9067 0.9183
vt 0.9598 0.8940
vt 0.9465 0.8945
vt 0.9195 0.8949
vt 0.9061 0.8942
vt 0.9331 0.8951
vt 0.9730 0.8945
vn -0.3976 0.2919 -0.8699
vn 0.3889 0.3139 -0.8661
vn 0.8599 0.3583 0.3637
vn -0.3876 0.3565 0.8501
vn -0.8776 0.2829 -0.3870
vn 0.8624 0.3315 -0.3827
vn 0.3827 0.3762 0.8438
vn -0.8729 0.3122 0.3749
vn 0.3137 0.4953 -0.8101
vn 0.8545 0.4141 0.3135
vn -0.2954 0.4065 0.8646
vn -0.8550 0.4299 -0.2903
vn 0.8684 0.4321 -0.2433
vn 0.3205 0.4056 0.8560
vn -0.8505 0.4161 0.3218
vn -0.3727 0.4752 -0.7970
vn 0.8459 0.3564 -0.3968
vn 0.4078 0.3568 0.8405
vn -0.8255 0.3683 0.4277
vn -0.4211 0.3658 -0.8300
vn 0.4286 0.3606 -0.8284
vn 0.8194 0.3555 0.4497
vn -0.4138 0.3636 0.8346
vn -0.8433 0.3682 -0.3915
vn -0.3721 0.2577 -0.8917
vn 0.3445 0.2611 -0.9017
vn 0.9011 0.2261 0.3701
vn -0.3828 0.1937 0.9033
vn -0.8971 0.2379 -0.3723
vn 0.8935 0.2522 -0.3717
vn 0.3495 0.1966 0.9161
vn -0.9058 0.2114 0.3671
vn -0.9207 0.2675 0.2841
vn 0.2751 0.3028 0.9125
vn 0.9030 0.3279 -0.2777
vn -0.9141 0.2754 -0.2975
vn -0.2934 0.2845 0.9127
vn 0.9092 0.3221 0.2637
vn 0.2737 0.3248 -0.9053
vn -0.2856 0.3079 -0.9075
vn -0.9502 0.0404 0.3091
vn 0.5871 0.0451 -0.8083
vn -0.0004 0.0419 0.9991
vn -0.5866 0.0423 -0.8087
vn 0.9499 0.0487 0.3087
vn -0.5853 0.0918 -0.8056
vn -0.0000 0.0291 0.9996
vn 0.5855 0.0874 -0.8059
vn -0.9496 0.0558 0.3085
vn 0.9501 0.0445 0.3087
s off
f 2/1/1 10/2/1 9/3/1 1/4/1
f 1/4/2 9/3/2 16/5/2 8/6/2
f 7/7/3 15/8/3 14/9/3 6/10/3
f 5/11/4 13/12/4 12/13/4 4/14/4
f 3/15/5 11/16/5 10/2/5 2/1/5
f 8/6/6 16/5/6 15/8/6 7/7/6
f 6/10/7 14/9/7 13/12/7 5/11/7
f 4/14/8 12/13/8 11/16/8 3/15/8
f 24/17/9 17/18/9 25/19/9 32/20/9
f 22/21/10 23/22/10 31/23/10 30/24/10
f 20/25/11 21/26/11 29/27/11 28/28/11
f 18/29/12 19/30/12 27/31/12 26/32/12
f 23/22/13 24/17/13 32/20/13 31/23/13
f 21/26/14 22/21/14 30/24/14 29/27/14
f 19/30/15 20/25/15 28/28/15 27/31/15
f 17/18/16 18/29/16 26/32/16 25/19/16
f 39/33/17 40/34/17 48/35/17 47/36/17
f 37/37/18 38/38/18 46/39/18 45/40/18
f 35/41/19 36/42/19 44/43/19 43/44/19
f 33/45/20 34/46/20 42/47/20 41/48/20
f 40/34/21 33/45/21 41/48/21 48/35/21
f 38/38/22 39/33/22 47/36/22 46/39/22
f 36/42/23 37/37/23 45/40/23 44/43/23
f 34/46/24 35/41/24 43/44/24 42/47/24
f 59/49/25 58/50/25 57/51/25
f 60/52/26 59/49/26 57/51/26
f 62/53/27 61/54/27 57/51/27
f 64/55/28 63/56/28 57/51/28
f 58/50/29 65/57/29 57/51/29
f 61/54/30 60/52/30 57/51/30
f 63/56/31 62/53/31 57/51/31
f 65/57/32 64/55/32 57/51/32
f 51/58/33 52/59/33 64/55/33 65/57/33
f 53/60/34 54/61/34 62/53/34 63/56/34
f 55/62/35 56/63/35 60/52/35 61/54/35
f 50/64/36 51/58/36 65/57/36 58/50/36
f 52/59/37 53/60/37 63/56/37 64/55/37
f 54/61/38 55/62/38 61/54/38 62/53/38
f 56/63/39 49/65/39 59/49/39 60/52/39
f 49/65/40 50/64/40 58/50/40 59/49/40
f 77/66/41 73/67/41 72/68/41 76/69/41
f 79/70/42 71/71/42 75/72/42 78/73/42
f 80/74/43 74/75/43 73/67/43 77/66/43
f 76/69/44 72/68/44 71/76/44 79/77/44
f 70/78/45 78/73/45 80/74/45 69/79/45
f 67/80/46 76/69/46 79/77/46 66/81/46
f 69/79/47 80/74/47 77/66/47 68/82/47
f 66/83/48 79/70/48 78/73/48 70/78/48
f 68/82/49 77/66/49 76/69/49 67/80/49
f 78/73/50 75/72/50 74/75/50 80/74/50
