# Blender v2.78 (sub 0) OBJ File: 'Low_Poly_Trees_Pack.blend'
# www.blender.org
g Fir_Tree_OneSided_s_02
v 0.254453 0.239722 -0.587595
v -0.390829 0.250721 -0.279650
v -0.453951 0.230909 0.355906
v 0.239004 0.204907 0.497052
v 0.583170 0.219428 -0.237734
v -0.009912 1.308706 -0.072988
v -0.098429 1.310638 0.010624
v -0.075241 1.311599 0.072721
v 0.047455 1.311065 0.076116
v 0.049897 1.308839 -0.046195
v 0.084343 0.841189 -0.392418
v -0.334953 0.804273 -0.075426
v -0.252721 0.764054 0.404864
v 0.323572 0.781458 0.357022
v 0.405984 0.830818 -0.203712
v -0.002802 1.568439 -0.068861
v -0.079945 1.569249 0.008695
v -0.016989 1.571133 0.063763
v 0.051405 1.571910 0.063895
v 0.051610 1.569529 -0.045996
v 0.021214 1.286205 -0.316287
v -0.249654 1.293117 -0.062237
v -0.122098 1.301773 0.235727
v 0.232721 1.302898 0.246839
v 0.245365 1.289347 -0.214392
v -0.001329 2.358926 0.024342
v -0.010129 1.932626 -0.088598
v 0.071173 1.933880 -0.057171
v 0.070995 1.936177 0.093803
v -0.036618 1.934793 0.093594
v -0.086532 1.932593 -0.011938
v 0.014973 0.000000 -0.116998
v -0.113794 0.000000 -0.022018
v 0.002664 0.000000 0.103013
v 0.107960 0.000000 -0.005953
v 0.000150 0.612651 -0.052114
v -0.059537 0.613160 0.023469
v -0.011946 0.612992 0.057861
v 0.053048 0.612546 0.002809
v -0.097925 0.202909 -0.009712
v 0.081103 0.202917 0.006759
v 0.010341 0.202922 -0.087281
v -0.011835 0.202900 0.088739
vt 0.3917 0.4428
vt 0.4282 0.3917
vt 0.4303 0.4240
vt 0.4233 0.4434
vt 0.4928 0.4591
vt 0.4350 0.4801
vt 0.4315 0.4506
vt 0.4502 0.4429
vt 0.4928 0.4191
vt 0.4496 0.4317
vt 0.3896 0.4439
vt 0.4293 0.3904
vt 0.4378 0.4328
vt 0.4349 0.4384
vt 0.4893 0.4587
vt 0.4317 0.4823
vt 0.4378 0.4434
vt 0.4449 0.4402
vt 0.4893 0.4148
vt 0.4451 0.4360
vt 0.5852 0.3868
vt 0.6141 0.4600
vt 0.5745 0.4488
vt 0.5665 0.4246
vt 0.5263 0.4083
vt 0.5498 0.4318
vt 0.5843 0.4912
vt 0.5226 0.4663
vt 0.5492 0.4505
vt 0.5640 0.4578
vt 0.5597 0.4424
vt 0.9803 0.9100
vt 0.9797 0.9847
vt 0.9653 0.9848
vt 0.9656 0.9097
vt 0.9223 0.9102
vt 0.9219 0.9841
vt 0.9073 0.9844
vt 0.9079 0.9098
vt 0.9659 0.8881
vt 0.9510 0.9100
vt 0.9514 0.8887
vt 0.9220 0.8891
vt 0.9073 0.8883
vt 0.9510 0.9844
vt 0.9804 0.8886
vn -0.1557 0.3148 0.9363
vn -0.4412 0.3224 -0.8375
vn 0.8747 0.3262 0.3584
vn 0.6361 0.4420 -0.6325
vn -0.9531 0.2990 -0.0465
vn 0.0582 0.3695 0.9274
vn -0.6108 0.2719 -0.7436
vn 0.9119 0.3860 0.1394
vn -0.9060 0.3268 0.2691
vn 0.4571 0.3987 -0.7950
vn 0.9671 0.2542 0.0137
vn -0.0251 0.2255 0.9739
vn -0.6701 0.2218 -0.7083
vn 0.3475 0.2334 -0.9082
vn -0.8958 0.1432 0.4207
vn -0.8982 0.2036 0.3896
vn -0.0040 0.1615 0.9869
vn 0.9857 0.1684 -0.0014
vn -0.6944 0.1977 -0.6919
vn 0.3752 0.3192 -0.8702
vn 0.7681 0.0601 -0.6376
vn -0.6713 0.0845 -0.7364
vn 0.6919 0.0733 0.7183
vn -0.5856 0.0995 -0.8045
vn -0.7045 0.0309 0.7090
vn 0.7753 0.1249 -0.6191
vn 0.6545 0.0545 0.7541
vn -0.7409 0.0058 0.6715
s off
f 3/1/1 4/2/1 9/3/1 8/4/1
f 1/5/2 2/6/2 7/7/2 6/8/2
f 4/2/3 5/9/3 10/10/3 9/3/3
f 5/9/4 1/5/4 6/8/4 10/10/4
f 2/6/5 3/1/5 8/4/5 7/7/5
f 13/11/6 14/12/6 19/13/6 18/14/6
f 11/15/7 12/16/7 17/17/7 16/18/7
f 14/12/8 15/19/8 20/20/8 19/13/8
f 12/16/9 13/11/9 18/14/9 17/17/9
f 15/19/10 11/15/10 16/18/10 20/20/10
f 24/21/11 25/22/11 28/23/11 29/24/11
f 23/25/12 24/21/12 29/24/12 30/26/12
f 21/27/13 22/28/13 31/29/13 27/30/13
f 28/23/14 27/30/14 26/31/14
f 31/29/15 30/26/15 26/31/15
f 22/28/16 23/25/16 30/26/16 31/29/16
f 29/24/17 26/31/17 30/26/17
f 28/23/18 26/31/18 29/24/18
f 31/29/19 26/31/19 27/30/19
f 25/22/20 21/27/20 27/30/20 28/23/20
f 42/32/21 36/33/21 39/34/21 41/35/21
f 40/36/22 37/37/22 36/38/22 42/39/22
f 35/40/23 41/35/23 43/41/23 34/42/23
f 33/43/24 40/36/24 42/39/24 32/44/24
f 43/41/25 38/45/25 37/37/25 40/36/25
f 32/46/26 42/32/26 41/35/26 35/40/26
f 41/35/27 39/34/27 38/45/27 43/41/27
f 43/41/28 40/36/28 33/43/28 34/42/28
