# Blender v2.78 (sub 0) OBJ File: 'Low_Poly_Trees_Pack.blend'
# www.blender.org
g Fir_Tree_OneSided_m_03
v -0.038702 1.071603 -1.976178
v -1.472522 0.851208 -1.477449
v -1.950643 0.836947 -0.005392
v -1.475734 0.703483 1.482400
v -0.042990 0.874343 1.976178
v 1.384691 0.907217 1.490476
v 1.868951 1.108998 0.005392
v 1.387903 1.054942 -1.469372
v 0.054461 2.330062 -1.222441
v -0.735388 2.330062 -0.895275
v -1.062554 2.330062 -0.105426
v -0.735388 2.330062 0.684423
v 0.054461 2.330062 1.011589
v 0.844311 2.330062 0.684423
v 1.171477 2.330062 -0.105426
v 0.844311 2.330062 -0.895275
v 0.011110 1.849127 -2.144920
v -1.244506 2.007910 -1.325829
v -1.869507 2.061286 0.038810
v -1.244506 2.084805 1.288536
v 0.011110 1.964298 1.924413
v 1.266726 1.878401 1.291622
v 1.891727 1.752140 0.043432
v 1.266726 1.801505 -1.509043
v 0.040846 3.675824 -0.651241
v -0.419651 3.675824 -0.460497
v -0.610395 3.675824 0.000000
v -0.419651 3.675824 0.460497
v 0.040846 3.675824 0.651241
v 0.501343 3.675824 0.460497
v 0.692087 3.675824 -0.000000
v 0.501343 3.675824 -0.460497
v 0.040846 3.357423 -1.470013
v -1.094810 3.292573 -1.081775
v -1.477969 3.148572 0.045508
v -1.094810 3.140833 1.193371
v 0.040846 3.154801 1.568043
v 1.180016 3.301903 1.198624
v 1.559661 3.363652 0.052523
v 1.180016 3.453643 -1.076521
v -0.077248 4.797293 -0.355148
v -0.328375 4.797293 -0.251127
v -0.432395 4.797293 0.000000
v -0.328375 4.797293 0.251127
v -0.077248 4.797293 0.355148
v 0.173880 4.797293 0.251127
v 0.277900 4.797293 -0.000000
v 0.173880 4.797293 -0.251127
v -0.015076 4.373477 -0.927886
v -0.695318 4.278266 -0.599936
v -1.036106 4.394994 0.093032
v -0.695318 4.306998 0.763320
v -0.015076 4.416512 1.113951
v 0.668087 4.306998 0.763320
v 1.005953 4.394994 0.093032
v 0.668087 4.278266 -0.599936
v -0.021761 6.613449 -0.098030
v -0.461115 5.316751 -0.295008
v -0.133430 5.316751 -0.430740
v 0.221485 5.316751 -0.295008
v 0.357217 5.316751 0.032677
v 0.221485 5.316751 0.360362
v -0.133430 5.316751 0.496093
v -0.461115 5.316751 0.360362
v -0.596847 5.316751 0.032677
v 0.000000 0.000000 -0.300759
v -0.290211 0.000000 -0.089908
v -0.179360 0.000000 0.251256
v 0.179360 0.000000 0.251256
v 0.290211 0.000000 -0.089908
v 0.000000 2.009793 -0.259200
v -0.246514 2.009793 -0.080097
v -0.152354 2.009793 0.209697
v 0.152354 2.009793 0.209697
v 0.246514 2.009793 -0.080097
v -0.281917 0.545543 -0.056623
v -0.187757 0.545543 0.233172
v 0.211111 0.545543 -0.056623
v -0.035403 0.545543 -0.235726
v 0.116951 0.545543 0.233172
vt 0.4579 0.4907
vt 0.4513 0.4591
vt 0.4648 0.4461
vt 0.4903 0.4621
vt 0.4650 0.4278
vt 0.4912 0.4179
vt 0.4594 0.3868
vt 0.4520 0.4146
vt 0.4330 0.4137
vt 0.4155 0.3868
vt 0.3856 0.4168
vt 0.4191 0.4264
vt 0.4186 0.4455
vt 0.3858 0.4577
vt 0.4147 0.4880
vt 0.4323 0.4587
vt 0.4918 0.4206
vt 0.4918 0.4592
vt 0.4508 0.4436
vt 0.4502 0.4328
vt 0.4168 0.3888
vt 0.4565 0.3884
vt 0.4425 0.4253
vt 0.4317 0.4254
vt 0.3889 0.4574
vt 0.3889 0.4170
vt 0.4245 0.4333
vt 0.4249 0.4440
vt 0.4610 0.4863
vt 0.4181 0.4859
vt 0.4329 0.4510
vt 0.4433 0.4514
vt 0.4586 0.3872
vt 0.4885 0.4166
vt 0.4460 0.4370
vt 0.4431 0.4340
vt 0.3874 0.4167
vt 0.4168 0.3874
vt 0.4390 0.4339
vt 0.4359 0.4369
vt 0.4161 0.4885
vt 0.3868 0.4581
vt 0.4360 0.4412
vt 0.4389 0.4440
vt 0.4885 0.4588
vt 0.4586 0.4891
vt 0.4430 0.4439
vt 0.4457 0.4410
vt 0.5644 0.4553
vt 0.5523 0.4545
vt 0.5602 0.4406
vt 0.5744 0.4467
vt 0.5667 0.4236
vt 0.5754 0.4338
vt 0.5436 0.4335
vt 0.5524 0.4239
vt 0.5446 0.4457
vt 0.5112 0.4580
vt 0.5117 0.4139
vt 0.5435 0.3851
vt 0.5846 0.3873
vt 0.6123 0.4166
vt 0.6123 0.4574
vt 0.5419 0.4882
vt 0.5838 0.4873
vt 0.8083 0.9207
vt 0.8082 0.9812
vt 0.7954 0.9812
vt 0.7958 0.9206
vt 0.8466 0.9204
vt 0.8461 0.9818
vt 0.8335 0.9818
vt 0.8337 0.9202
vt 0.8209 0.9204
vt 0.8210 0.9815
vt 0.7826 0.9815
vt 0.7832 0.9203
vt 0.8340 0.8970
vt 0.8213 0.8975
vt 0.7955 0.8979
vt 0.7826 0.8972
vt 0.8084 0.8980
vt 0.8467 0.8974
vn -0.3453 0.4941 -0.7979
vn 0.3114 0.4840 -0.8178
vn 0.8054 0.4918 0.3309
vn -0.3287 0.5346 0.7786
vn -0.8195 0.4950 -0.2887
vn 0.8283 0.4688 -0.3068
vn 0.2841 0.5337 0.7965
vn -0.8023 0.5087 0.3123
vn 0.3679 0.5751 -0.7307
vn 0.7951 0.5004 0.3426
vn -0.3251 0.5661 0.7575
vn -0.7481 0.5633 -0.3508
vn 0.8065 0.5005 -0.3146
vn 0.3877 0.5325 0.7524
vn -0.7413 0.5754 0.3457
vn -0.3726 0.5801 -0.7244
vn 0.7248 0.6558 -0.2112
vn 0.1992 0.6031 0.7724
vn -0.8030 0.5247 0.2825
vn -0.2982 0.5710 -0.7649
vn 0.2270 0.6169 -0.7536
vn 0.7101 0.6484 0.2745
vn -0.2747 0.5631 0.7794
vn -0.8168 0.5275 -0.2336
vn -0.3695 0.2607 -0.8919
vn 0.3497 0.2045 -0.9143
vn 0.8828 0.2949 0.3657
vn -0.3482 0.4151 0.8405
vn -0.8661 0.3480 -0.3588
vn 0.9001 0.2255 -0.3728
vn 0.3320 0.3691 0.8681
vn -0.8430 0.4091 0.3492
vn -0.8183 0.3872 0.4249
vn 0.4065 0.5213 0.7503
vn 0.7719 0.4829 -0.4134
vn -0.8363 0.3409 -0.4294
vn -0.4278 0.4461 0.7861
vn 0.7514 0.5227 0.4027
vn 0.3996 0.4395 -0.8044
vn -0.4176 0.3618 -0.8335
vn -0.9507 0.0279 0.3089
vn 0.5876 -0.0272 -0.8087
vn 0.0000 0.0160 0.9999
vn -0.5878 0.0012 -0.8090
vn 0.9444 0.1182 0.3069
vn -0.5868 0.0582 -0.8076
vn 0.0000 0.0331 0.9995
vn 0.5825 0.1334 -0.8018
vn -0.9510 -0.0044 0.3090
vn 0.9509 -0.0180 0.3090
s off
f 2/1/1 10/2/1 9/3/1 1/4/1
f 1/4/2 9/3/2 16/5/2 8/6/2
f 7/7/3 15/8/3 14/9/3 6/10/3
f 5/11/4 13/12/4 12/13/4 4/14/4
f 3/15/5 11/16/5 10/2/5 2/1/5
f 8/6/6 16/5/6 15/8/6 7/7/6
f 6/10/7 14/9/7 13/12/7 5/11/7
f 4/14/8 12/13/8 11/16/8 3/15/8
f 24/17/9 17/18/9 25/19/9 32/20/9
f 22/21/10 23/22/10 31/23/10 30/24/10
f 20/25/11 21/26/11 29/27/11 28/28/11
f 18/29/12 19/30/12 27/31/12 26/32/12
f 23/22/13 24/17/13 32/20/13 31/23/13
f 21/26/14 22/21/14 30/24/14 29/27/14
f 19/30/15 20/25/15 28/28/15 27/31/15
f 17/18/16 18/29/16 26/32/16 25/19/16
f 39/33/17 40/34/17 48/35/17 47/36/17
f 37/37/18 38/38/18 46/39/18 45/40/18
f 35/41/19 36/42/19 44/43/19 43/44/19
f 33/45/20 34/46/20 42/47/20 41/48/20
f 40/34/21 33/45/21 41/48/21 48/35/21
f 38/38/22 39/33/22 47/36/22 46/39/22
f 36/42/23 37/37/23 45/40/23 44/43/23
f 34/46/24 35/41/24 43/44/24 42/47/24
f 59/49/25 58/50/25 57/51/25
f 60/52/26 59/49/26 57/51/26
f 62/53/27 61/54/27 57/51/27
f 64/55/28 63/56/28 57/51/28
f 58/50/29 65/57/29 57/51/29
f 61/54/30 60/52/30 57/51/30
f 63/56/31 62/53/31 57/51/31
f 65/57/32 64/55/32 57/51/32
f 51/58/33 52/59/33 64/55/33 65/57/33
f 53/60/34 54/61/34 62/53/34 63/56/34
f 55/62/35 56/63/35 60/52/35 61/54/35
f 50/64/36 51/58/36 65/57/36 58/50/36
f 52/59/37 53/60/37 63/56/37 64/55/37
f 54/61/38 55/62/38 61/54/38 62/53/38
f 56/63/39 49/65/39 59/49/39 60/52/39
f 49/65/40 50/64/40 58/50/40 59/49/40
f 77/66/41 73/67/41 72/68/41 76/69/41
f 79/70/42 71/71/42 75/72/42 78/73/42
f 80/74/43 74/75/43 73/67/43 77/66/43
f 76/69/44 72/68/44 71/76/44 79/77/44
f 70/78/45 78/73/45 80/74/45 69/79/45
f 67/80/46 76/69/46 79/77/46 66/81/46
f 69/79/47 80/74/47 77/66/47 68/82/47
f 66/83/48 79/70/48 78/73/48 70/78/48
f 68/82/49 77/66/49 76/69/49 67/80/49
f 78/73/50 75/72/50 74/75/50 80/74/50
