# Blender v2.78 (sub 0) OBJ File: 'Low_Poly_Trees_Pack.blend'
# www.blender.org
g Fir_Tree_OneSided_m_11
v 0.219380 0.601267 -0.973250
v -0.610290 0.581373 -0.501610
v -0.586362 0.526402 0.637393
v 0.476829 0.519730 0.640112
v 0.811507 0.574943 -0.486345
v 0.013170 1.632526 -0.476447
v -0.295783 1.636973 -0.316084
v -0.081603 1.624235 0.193088
v 0.329321 1.613795 0.077470
v 0.343865 1.622326 -0.467704
v 0.164832 1.147639 -1.027628
v -0.645428 1.151969 -0.384703
v -0.531232 1.105687 0.530556
v 0.488946 1.065123 0.497995
v 0.739031 1.110541 -0.646013
v 0.105931 2.690405 -0.170254
v -0.016586 2.698832 -0.044165
v 0.019818 2.691868 0.043834
v 0.193844 2.673486 0.042169
v 0.193095 2.679910 -0.134499
v 0.062246 2.023442 -0.693306
v -0.481537 1.966556 -0.152969
v -0.263180 1.875583 0.508765
v 0.544457 1.883541 0.312074
v 0.555077 1.985283 -0.490278
v 0.276216 3.275784 -0.155619
v 0.149761 3.288372 -0.024856
v 0.255520 3.269802 0.065805
v 0.368142 3.253680 0.064817
v 0.366693 3.261455 -0.118477
v 0.123518 2.671736 -0.521814
v -0.247863 2.697686 -0.136467
v -0.046638 2.669772 0.282368
v 0.524528 2.622612 0.278777
v 0.585756 2.639615 -0.386713
v 0.560760 4.135796 0.049351
v 0.360604 3.595415 -0.150706
v 0.477018 3.573868 -0.106774
v 0.478191 3.562405 0.110990
v 0.325423 3.587456 0.112473
v 0.252872 3.607044 -0.038894
v 0.003895 0.001286 -0.193829
v -0.161338 0.000601 -0.030528
v 0.027812 -0.000143 0.122514
v 0.158001 0.000624 -0.054234
v -0.011371 1.324494 -0.153903
v -0.080145 1.322340 -0.032594
v -0.006800 1.320720 0.005756
v 0.074303 1.322133 -0.085744
v -0.136063 0.294136 -0.027300
v 0.121545 0.294156 -0.047759
v -0.000420 0.295196 -0.164745
v 0.007033 0.293061 0.090770
vt 0.7425 0.4644
vt 0.7151 0.4472
vt 0.7153 0.4275
vt 0.7435 0.4168
vt 0.6390 0.4384
vt 0.6667 0.4395
vt 0.6907 0.4611
vt 0.6888 0.4828
vt 0.6395 0.4443
vt 0.6773 0.3914
vt 0.6795 0.4249
vt 0.6722 0.4449
vt 0.7441 0.4612
vt 0.6843 0.4829
vt 0.6807 0.4525
vt 0.7001 0.4445
vt 0.7442 0.4198
vt 0.6994 0.4329
vt 0.6374 0.4455
vt 0.6785 0.3901
vt 0.6873 0.4340
vt 0.6842 0.4398
vt 0.7406 0.4608
vt 0.6810 0.4852
vt 0.6873 0.4449
vt 0.6945 0.4416
vt 0.7406 0.4154
vt 0.6948 0.4373
vt 0.8337 0.3869
vt 0.8635 0.4624
vt 0.8227 0.4508
vt 0.8144 0.4259
vt 0.7730 0.4091
vt 0.7973 0.4333
vt 0.8328 0.4945
vt 0.7693 0.4689
vt 0.7966 0.4526
vt 0.8119 0.4601
vt 0.8074 0.4443
vt 0.6846 0.4131
vt 0.6783 0.3900
vt 0.8514 0.9139
vt 0.8508 0.9855
vt 0.8371 0.9856
vt 0.8374 0.9136
vt 0.7959 0.9141
vt 0.7955 0.9849
vt 0.7815 0.9852
vt 0.7820 0.9137
vt 0.8377 0.8930
vt 0.8234 0.9139
vt 0.8238 0.8935
vt 0.7956 0.8939
vt 0.7815 0.8932
vt 0.8234 0.9852
vt 0.8515 0.8935
vn 0.4539 0.3503 -0.8193
vn -0.9184 0.3671 0.1478
vn 0.0413 0.2797 0.9592
vn -0.5840 0.3848 -0.7147
vn 0.9501 0.2481 0.1891
vn 0.5042 0.4279 -0.7501
vn -0.9218 0.3545 0.1572
vn 0.2070 0.2128 0.9549
vn -0.6658 0.3841 -0.6396
vn 0.9905 0.1354 0.0243
vn -0.8212 0.3954 0.4113
vn 0.3857 0.3088 -0.8694
vn 0.9945 0.0781 0.0701
vn 0.0243 0.1747 0.9843
vn -0.6369 0.4214 -0.6456
vn 0.3777 0.1952 -0.9051
vn -0.8067 0.3967 0.4380
vn -0.8110 0.4042 0.4231
vn 0.0266 0.1031 0.9943
vn 0.9895 -0.1439 -0.0129
vn -0.6134 0.4638 -0.6392
vn 0.3073 0.2957 -0.9045
vn -0.4665 0.2967 -0.8333
vn 0.9255 0.3181 0.2055
vn 0.6656 0.0090 -0.7463
vn -0.7847 0.0188 -0.6196
vn 0.7855 0.1029 0.6103
vn -0.7057 0.0640 -0.7056
vn -0.5847 0.0475 0.8099
vn 0.6782 0.0912 -0.7292
vn 0.7600 0.0613 0.6470
vn -0.6315 0.0425 0.7742
vn 0.0745 0.4062 0.9107
s off
f 1/1/1 6/2/1 10/3/1 5/4/1
f 3/5/2 8/6/2 7/7/2 2/8/2
f 13/9/3 14/10/3 19/11/3 18/12/3
f 11/13/4 12/14/4 17/15/4 16/16/4
f 14/10/5 15/17/5 20/18/5 19/11/5
f 15/17/6 11/13/6 16/16/6 20/18/6
f 12/14/7 13/9/7 18/12/7 17/15/7
f 23/19/8 24/20/8 29/21/8 28/22/8
f 21/23/9 22/24/9 27/25/9 26/26/9
f 24/20/10 25/27/10 30/28/10 29/21/10
f 22/24/11 23/19/11 28/22/11 27/25/11
f 25/27/12 21/23/12 26/26/12 30/28/12
f 34/29/13 35/30/13 38/31/13 39/32/13
f 33/33/14 34/29/14 39/32/14 40/34/14
f 31/35/15 32/36/15 41/37/15 37/38/15
f 38/31/16 37/38/16 36/39/16
f 41/37/17 40/34/17 36/39/17
f 32/36/18 33/33/18 40/34/18 41/37/18
f 39/32/19 36/39/19 40/34/19
f 38/31/20 36/39/20 39/32/20
f 41/37/21 36/39/21 37/38/21
f 35/30/22 31/35/22 37/38/22 38/31/22
f 2/8/23 7/7/23 6/2/23 1/1/23
f 5/4/24 10/3/24 9/40/24 4/41/24
f 52/42/25 46/43/25 49/44/25 51/45/25
f 50/46/26 47/47/26 46/48/26 52/49/26
f 45/50/27 51/45/27 53/51/27 44/52/27
f 43/53/28 50/46/28 52/49/28 42/54/28
f 53/51/29 48/55/29 47/47/29 50/46/29
f 42/56/30 52/42/30 51/45/30 45/50/30
f 51/45/31 49/44/31 48/55/31 53/51/31
f 53/51/32 50/46/32 43/53/32 44/52/32
f 4/41/33 9/40/33 8/6/33 3/5/33
