# Blender v2.78 (sub 0) OBJ File: 'Low_Poly_Trees_Pack.blend'
# www.blender.org
g Fir_Tree_OneSided_m_08
v -0.013740 0.711754 -1.936850
v -1.255124 0.807635 -1.292298
v -1.893650 0.609674 -0.010557
v -1.274721 0.624132 1.279415
v -0.040971 0.442091 1.940196
v 1.199037 0.578612 1.295429
v 1.833325 0.532604 0.014152
v 1.215439 0.751999 -1.275630
v 0.044517 2.638731 -0.897662
v -0.521922 2.701885 -0.658756
v -0.756492 2.732343 -0.083901
v -0.521464 2.712505 0.490012
v 0.044891 2.652409 0.726739
v 0.610500 2.587028 0.487747
v 0.844619 2.556208 -0.086902
v 0.610421 2.578269 -0.660728
v -0.011487 1.814106 -1.958419
v -1.235324 1.873271 -1.338717
v -1.630117 1.925049 0.070089
v -1.220178 1.819258 1.373174
v 0.005711 1.740253 1.782043
v 1.228351 1.580556 1.345567
v 1.618154 1.612063 0.033702
v 1.215699 1.647631 -1.560480
v 0.208509 4.645379 -0.542568
v -0.124983 4.701780 -0.395622
v -0.262279 4.705579 -0.051435
v -0.122884 4.654967 0.288350
v 0.211546 4.579882 0.424663
v 0.545038 4.523908 0.277671
v 0.682238 4.519566 -0.066484
v 0.542842 4.569750 -0.406223
v 0.072026 3.298548 -1.411479
v -0.970928 3.292428 -0.915260
v -1.500354 3.273488 0.063198
v -0.993367 3.069802 1.031803
v 0.042045 2.974761 1.524680
v 1.072082 2.882335 1.026659
v 1.611016 2.976582 0.055514
v 1.090155 3.086942 -0.920918
v 0.259220 5.234856 -0.221748
v 0.125171 5.257824 -0.161559
v 0.070048 5.256406 -0.022901
v 0.126153 5.231491 0.113004
v 0.260622 5.197696 0.166538
v 0.394676 5.174767 0.106340
v 0.449784 5.176107 -0.032319
v 0.393675 5.200986 -0.168215
v 0.208931 4.261467 -1.192453
v -0.551015 4.458926 -0.908934
v -0.813900 4.343230 -0.054355
v -0.534725 4.395000 0.784671
v 0.230868 4.179273 1.053645
v 1.020845 4.209610 0.757653
v 1.249230 4.097416 -0.089908
v 1.004112 4.272279 -0.935079
v 0.632525 6.951581 0.206621
v 0.104751 5.811901 -0.184594
v 0.348184 5.770093 -0.295122
v 0.612509 5.698545 -0.200419
v 0.714328 5.646540 0.045079
v 0.614236 5.639850 0.296895
v 0.350581 5.686620 0.408120
v 0.106415 5.752638 0.312634
v 0.004596 5.804554 0.067128
v 0.001828 -0.000004 -0.265497
v -0.252774 -0.000004 -0.080555
v -0.155526 -0.000004 0.218688
v 0.159178 -0.000004 0.218688
v 0.256429 -0.000004 -0.080555
v 0.104056 2.125462 -0.124389
v -0.030531 2.137110 -0.025333
v 0.021072 2.133737 0.135069
v 0.187524 2.119929 0.135145
v 0.238793 2.114743 -0.025205
v -0.234938 0.799128 -0.048492
v -0.154029 0.798955 0.200742
v 0.188709 0.798290 -0.048480
v -0.023104 0.798737 -0.202520
v 0.107800 0.798438 0.200749
vt 0.3320 0.3623
vt 0.3256 0.3313
vt 0.3389 0.3186
vt 0.3638 0.3342
vt 0.3390 0.3007
vt 0.3647 0.2910
vt 0.3335 0.2604
vt 0.3263 0.2877
vt 0.3077 0.2869
vt 0.2905 0.2604
vt 0.2612 0.2898
vt 0.2940 0.2993
vt 0.2935 0.3180
vt 0.2614 0.3299
vt 0.2897 0.3596
vt 0.3069 0.3309
vt 0.3653 0.2936
vt 0.3653 0.3314
vt 0.3251 0.3162
vt 0.3245 0.3056
vt 0.2918 0.2625
vt 0.3307 0.2621
vt 0.3169 0.2982
vt 0.3064 0.2983
vt 0.2644 0.3297
vt 0.2644 0.2901
vt 0.2993 0.3060
vt 0.2998 0.3165
vt 0.3351 0.3579
vt 0.2931 0.3576
vt 0.3075 0.3234
vt 0.3178 0.3237
vt 0.3327 0.2609
vt 0.3620 0.2897
vt 0.3204 0.3096
vt 0.3176 0.3067
vt 0.2630 0.2898
vt 0.2918 0.2611
vt 0.3135 0.3066
vt 0.3105 0.3096
vt 0.2911 0.3601
vt 0.2624 0.3304
vt 0.3106 0.3138
vt 0.3135 0.3166
vt 0.3620 0.3310
vt 0.3327 0.3607
vt 0.3174 0.3164
vt 0.3201 0.3135
vt 0.3161 0.4534
vt 0.3043 0.4526
vt 0.3120 0.4390
vt 0.3260 0.4449
vt 0.3184 0.4223
vt 0.3269 0.4323
vt 0.2958 0.4320
vt 0.3043 0.4226
vt 0.2968 0.4439
vt 0.2640 0.4561
vt 0.2645 0.4129
vt 0.2957 0.3846
vt 0.3360 0.3867
vt 0.3631 0.4155
vt 0.3631 0.4555
vt 0.2941 0.4856
vt 0.3352 0.4847
vt 0.8061 0.9165
vt 0.8061 0.9848
vt 0.7915 0.9849
vt 0.7921 0.9163
vt 0.8494 0.9162
vt 0.8488 0.9855
vt 0.8346 0.9855
vt 0.8348 0.9160
vt 0.8203 0.9162
vt 0.8204 0.9852
vt 0.7771 0.9852
vt 0.7778 0.9160
vt 0.8352 0.8897
vt 0.8208 0.8903
vt 0.7916 0.8907
vt 0.7771 0.8899
vt 0.8063 0.8909
vt 0.8495 0.8902
vn -0.3640 0.4357 -0.8232
vn 0.4104 0.4172 -0.8109
vn 0.8326 0.4097 0.3726
vn -0.3490 0.4509 0.8215
vn -0.8293 0.4350 -0.3507
vn 0.8527 0.3981 -0.3383
vn 0.3817 0.4359 0.8150
vn -0.8148 0.4425 0.3746
vn 0.3516 0.4048 -0.8441
vn 0.9048 0.3089 0.2930
vn -0.2593 0.4314 0.8641
vn -0.8637 0.4220 -0.2755
vn 0.9223 0.2988 -0.2452
vn 0.3703 0.3851 0.8453
vn -0.8394 0.4377 0.3223
vn -0.3728 0.4303 -0.8221
vn 0.8274 0.4147 -0.3787
vn 0.4231 0.4421 0.7909
vn -0.6865 0.5585 0.4656
vn -0.3621 0.5083 -0.7814
vn 0.4587 0.4305 -0.7774
vn 0.7833 0.4229 0.4557
vn -0.3168 0.5115 0.7988
vn -0.7373 0.5615 -0.3756
vn -0.3097 0.4338 -0.8461
vn 0.3899 0.2789 -0.8776
vn 0.9291 0.0125 0.3696
vn -0.3045 0.2157 0.9278
vn -0.8172 0.4852 -0.3110
vn 0.9263 0.1029 -0.3624
vn 0.3967 0.0575 0.9162
vn -0.8159 0.3953 0.4220
vn -0.8337 0.4681 0.2929
vn 0.3412 0.3603 0.8682
vn 0.9120 0.3476 -0.2178
vn -0.8359 0.5035 -0.2183
vn -0.2091 0.4031 0.8910
vn 0.9168 0.3164 0.2436
vn 0.3009 0.4831 -0.8222
vn -0.1999 0.5245 -0.8276
vn -0.9419 0.1386 0.3059
vn 0.5898 -0.0086 -0.8075
vn 0.0015 0.0492 0.9988
vn -0.5844 0.1033 -0.8049
vn 0.9489 0.0680 0.3082
vn -0.5872 0.0455 -0.8081
vn 0.0000 0.0225 0.9997
vn 0.5860 0.0820 -0.8062
vn -0.9510 0.0088 0.3089
vn 0.9507 -0.0418 0.3073
s off
f 2/1/1 10/2/1 9/3/1 1/4/1
f 1/4/2 9/3/2 16/5/2 8/6/2
f 7/7/3 15/8/3 14/9/3 6/10/3
f 5/11/4 13/12/4 12/13/4 4/14/4
f 3/15/5 11/16/5 10/2/5 2/1/5
f 8/6/6 16/5/6 15/8/6 7/7/6
f 6/10/7 14/9/7 13/12/7 5/11/7
f 4/14/8 12/13/8 11/16/8 3/15/8
f 24/17/9 17/18/9 25/19/9 32/20/9
f 22/21/10 23/22/10 31/23/10 30/24/10
f 20/25/11 21/26/11 29/27/11 28/28/11
f 18/29/12 19/30/12 27/31/12 26/32/12
f 23/22/13 24/17/13 32/20/13 31/23/13
f 21/26/14 22/21/14 30/24/14 29/27/14
f 19/30/15 20/25/15 28/28/15 27/31/15
f 17/18/16 18/29/16 26/32/16 25/19/16
f 39/33/17 40/34/17 48/35/17 47/36/17
f 37/37/18 38/38/18 46/39/18 45/40/18
f 35/41/19 36/42/19 44/43/19 43/44/19
f 33/45/20 34/46/20 42/47/20 41/48/20
f 40/34/21 33/45/21 41/48/21 48/35/21
f 38/38/22 39/33/22 47/36/22 46/39/22
f 36/42/23 37/37/23 45/40/23 44/43/23
f 34/46/24 35/41/24 43/44/24 42/47/24
f 59/49/25 58/50/25 57/51/25
f 60/52/26 59/49/26 57/51/26
f 62/53/27 61/54/27 57/51/27
f 64/55/28 63/56/28 57/51/28
f 58/50/29 65/57/29 57/51/29
f 61/54/30 60/52/30 57/51/30
f 63/56/31 62/53/31 57/51/31
f 65/57/32 64/55/32 57/51/32
f 51/58/33 52/59/33 64/55/33 65/57/33
f 53/60/34 54/61/34 62/53/34 63/56/34
f 55/62/35 56/63/35 60/52/35 61/54/35
f 50/64/36 51/58/36 65/57/36 58/50/36
f 52/59/37 53/60/37 63/56/37 64/55/37
f 54/61/38 55/62/38 61/54/38 62/53/38
f 56/63/39 49/65/39 59/49/39 60/52/39
f 49/65/40 50/64/40 58/50/40 59/49/40
f 77/66/41 73/67/41 72/68/41 76/69/41
f 79/70/42 71/71/42 75/72/42 78/73/42
f 80/74/43 74/75/43 73/67/43 77/66/43
f 76/69/44 72/68/44 71/76/44 79/77/44
f 70/78/45 78/73/45 80/74/45 69/79/45
f 67/80/46 76/69/46 79/77/46 66/81/46
f 69/79/47 80/74/47 77/66/47 68/82/47
f 66/83/48 79/70/48 78/73/48 70/78/48
f 68/82/49 77/66/49 76/69/49 67/80/49
f 78/73/50 75/72/50 74/75/50 80/74/50
