# Blender v2.78 (sub 0) OBJ File: 'Low_Poly_Trees_Pack.blend'
# www.blender.org
g Fir_Tree_OneSided_s_05
v -0.228892 0.183294 -0.176326
v -0.216159 0.163302 0.222940
v 0.204861 0.101487 0.199322
v 0.211913 0.117440 -0.220930
v -0.023425 0.864118 -0.023449
v -0.008975 0.862220 0.002035
v 0.023984 0.856219 0.008402
v 0.023526 0.855166 -0.031617
v -0.185569 0.503595 -0.126144
v -0.151328 0.517394 0.129335
v 0.157676 0.557359 0.175430
v 0.158436 0.544913 -0.169185
v 0.022194 1.332773 0.000826
v 0.066480 1.001180 -0.048383
v 0.066950 1.002947 0.047596
v -0.019138 1.022812 0.031207
v -0.033399 1.024515 -0.044519
v -0.006200 0.000000 -0.060389
v -0.065813 0.000000 0.016448
v 0.019302 0.000000 0.070203
v 0.064677 0.000000 -0.008894
v -0.015939 0.406884 -0.043687
v -0.042428 0.407198 0.005828
v -0.010658 0.407094 0.024738
v 0.021715 0.406819 -0.012113
vt 0.3523 0.2850
vt 0.3177 0.3455
vt 0.3137 0.3181
vt 0.3194 0.3113
vt 0.2735 0.3239
vt 0.3044 0.2655
vt 0.3130 0.3083
vt 0.3103 0.3144
vt 0.3601 0.3176
vt 0.2913 0.3381
vt 0.3056 0.3231
vt 0.3247 0.3166
vt 0.3371 0.2593
vt 0.3183 0.2974
vt 0.2802 0.2908
vt 0.3023 0.3077
vt 0.3114 0.3153
vt 0.7897 0.8878
vt 0.8205 0.8874
vt 0.8201 0.9875
vt 0.7896 0.9872
vt 0.8508 0.8873
vt 0.8501 0.9878
vt 0.8351 0.9879
vt 0.8357 0.8868
vt 0.7744 0.9875
vt 0.7744 0.8870
vn -0.0689 0.2347 -0.9696
vn 0.0769 0.2705 0.9597
vn 0.9705 0.2401 0.0217
vn -0.9543 0.2891 0.0760
vn -0.1111 0.2081 -0.9718
vn 0.9801 0.1985 -0.0058
vn -0.1635 0.2348 0.9582
vn -0.0041 0.1463 -0.9892
vn -0.9713 0.1478 0.1863
vn -0.9550 0.2667 0.1301
vn -0.1595 0.1173 0.9802
vn 0.9910 0.1334 -0.0073
vn -0.5272 0.0542 0.8480
vn 0.6070 0.0525 -0.7930
vn -0.8262 0.0181 -0.5631
vn 0.8259 0.1071 0.5535
s off
f 4/1/1 1/2/1 5/3/1 8/4/1
f 2/5/2 3/6/2 7/7/2 6/8/2
f 3/6/3 4/1/3 8/4/3 7/7/3
f 1/2/4 2/5/4 6/8/4 5/3/4
f 12/9/5 9/10/5 17/11/5 14/12/5
f 11/13/6 12/9/6 14/12/6 15/14/6
f 10/15/7 11/13/7 15/14/7 16/16/7
f 17/11/8 13/17/8 14/12/8
f 17/11/9 16/16/9 13/17/9
f 9/10/10 10/15/10 16/16/10 17/11/10
f 15/14/11 13/17/11 16/16/11
f 14/12/12 13/17/12 15/14/12
f 19/18/13 20/19/13 24/20/13 23/21/13
f 18/22/14 22/23/14 25/24/14 21/25/14
f 19/18/15 23/21/15 22/26/15 18/27/15
f 21/25/16 25/24/16 24/20/16 20/19/16
