# Blender v2.78 (sub 0) OBJ File: 'Low_Poly_Trees_Pack.blend'
# www.blender.org
g Fir_Tree_OneSided_m_10
v 0.223607 0.441385 -0.933842
v -0.606561 0.426638 -0.466909
v -0.582892 0.382430 0.669854
v 0.481312 0.378423 0.682107
v 0.816291 0.420523 -0.441638
v -0.044454 1.462592 -0.528144
v -0.362220 1.472025 -0.227359
v -0.142618 1.478169 0.299058
v 0.279716 1.470585 0.184945
v 0.295173 1.460565 -0.376456
v 0.171462 0.977532 -0.967601
v -0.639104 0.993420 -0.327600
v -0.524914 0.964803 0.587847
v 0.496322 0.927244 0.565224
v 0.746314 0.948218 -0.579818
v -0.015332 2.521621 -0.091401
v -0.139205 2.524411 0.033505
v -0.103059 2.525799 0.122004
v 0.071934 2.525028 0.122252
v 0.072130 2.521813 -0.054640
v 0.050732 1.846319 -0.610430
v -0.491630 1.792995 -0.073921
v -0.268287 1.734901 0.589049
v 0.539422 1.760040 0.400894
v 0.546056 1.831337 -0.402529
v -0.001484 3.104509 -0.100242
v -0.130307 3.105862 0.029270
v -0.025177 3.109008 0.121228
v 0.089036 3.110305 0.121448
v 0.089378 3.106329 -0.062060
v 0.018060 2.489119 -0.444214
v -0.361170 2.499104 -0.061559
v -0.162393 2.511606 0.359712
v 0.347077 2.513232 0.360570
v 0.347409 2.493658 -0.305651
v -0.001920 4.038606 0.049351
v -0.014631 3.422838 -0.113785
v 0.102805 3.424650 -0.068391
v 0.102548 3.427968 0.149683
v -0.052893 3.425968 0.149380
v -0.124990 3.422791 -0.003054
v 0.005769 0.000000 -0.175331
v -0.159555 0.000000 -0.012922
v 0.029726 0.000000 0.141391
v 0.159985 0.000000 -0.034668
v -0.003102 1.170142 -0.079081
v -0.071948 1.170877 0.041623
v 0.001492 1.170635 0.080861
v 0.082686 1.169990 -0.009854
v -0.132846 0.293090 0.003239
v 0.124979 0.293102 -0.015168
v 0.002900 0.293110 -0.133236
v 0.010380 0.293078 0.122544
vt 0.4880 0.4611
vt 0.4629 0.4453
vt 0.4630 0.4273
vt 0.4889 0.4175
vt 0.3931 0.4373
vt 0.4186 0.4383
vt 0.4405 0.4581
vt 0.4388 0.4779
vt 0.3936 0.4427
vt 0.4283 0.3943
vt 0.4302 0.4249
vt 0.4236 0.4433
vt 0.4894 0.4582
vt 0.4347 0.4781
vt 0.4314 0.4502
vt 0.4491 0.4429
vt 0.4895 0.4202
vt 0.4485 0.4322
vt 0.3917 0.4438
vt 0.4293 0.3931
vt 0.4374 0.4333
vt 0.4346 0.4386
vt 0.4862 0.4578
vt 0.4316 0.4802
vt 0.4374 0.4433
vt 0.4440 0.4403
vt 0.4862 0.4162
vt 0.4443 0.4363
vt 0.5912 0.3874
vt 0.6185 0.4565
vt 0.5812 0.4459
vt 0.5736 0.4231
vt 0.5356 0.4077
vt 0.5579 0.4298
vt 0.5904 0.4859
vt 0.5322 0.4624
vt 0.5573 0.4475
vt 0.5713 0.4544
vt 0.5672 0.4399
vt 0.4349 0.4141
vt 0.4291 0.3929
vt 0.9722 0.9115
vt 0.9716 0.9839
vt 0.9577 0.9839
vt 0.9580 0.9113
vt 0.9161 0.9118
vt 0.9157 0.9833
vt 0.9016 0.9835
vt 0.9021 0.9113
vt 0.9583 0.8904
vt 0.9439 0.9115
vt 0.9443 0.8909
vt 0.9158 0.8914
vt 0.9016 0.8906
vt 0.9439 0.9836
vt 0.9722 0.8909
vn 0.5326 0.3770 -0.7578
vn -0.9399 0.3094 0.1446
vn 0.0268 0.2764 0.9607
vn -0.5885 0.3527 -0.7275
vn 0.9308 0.3178 0.1804
vn 0.4918 0.4663 -0.7353
vn -0.9462 0.2871 0.1495
vn 0.1846 0.2730 0.9441
vn -0.6924 0.2451 -0.6786
vn 0.9450 0.3258 0.0289
vn -0.8804 0.2525 0.4014
vn 0.3678 0.3616 -0.8567
vn 0.9666 0.2562 -0.0060
vn -0.0029 0.2242 0.9745
vn -0.6902 0.2200 -0.6893
vn 0.3475 0.2334 -0.9082
vn -0.8958 0.1432 0.4207
vn -0.8879 0.2012 0.4137
vn -0.0040 0.1615 0.9869
vn 0.9857 0.1684 -0.0014
vn -0.6944 0.1977 -0.6919
vn 0.3568 0.3202 -0.8776
vn -0.5397 0.2453 -0.8053
vn 0.9157 0.3503 0.1971
vn 0.6688 0.0436 -0.7422
vn -0.7812 0.0572 -0.6216
vn 0.7863 0.0722 0.6136
vn -0.7011 0.0987 -0.7062
vn -0.5904 0.0190 0.8069
vn 0.6786 0.1200 -0.7247
vn 0.7588 0.0356 0.6503
vn -0.6354 0.0115 0.7721
vn 0.0665 0.3617 0.9299
s off
f 1/1/1 6/2/1 10/3/1 5/4/1
f 3/5/2 8/6/2 7/7/2 2/8/2
f 13/9/3 14/10/3 19/11/3 18/12/3
f 11/13/4 12/14/4 17/15/4 16/16/4
f 14/10/5 15/17/5 20/18/5 19/11/5
f 15/17/6 11/13/6 16/16/6 20/18/6
f 12/14/7 13/9/7 18/12/7 17/15/7
f 23/19/8 24/20/8 29/21/8 28/22/8
f 21/23/9 22/24/9 27/25/9 26/26/9
f 24/20/10 25/27/10 30/28/10 29/21/10
f 22/24/11 23/19/11 28/22/11 27/25/11
f 25/27/12 21/23/12 26/26/12 30/28/12
f 34/29/13 35/30/13 38/31/13 39/32/13
f 33/33/14 34/29/14 39/32/14 40/34/14
f 31/35/15 32/36/15 41/37/15 37/38/15
f 38/31/16 37/38/16 36/39/16
f 41/37/17 40/34/17 36/39/17
f 32/36/18 33/33/18 40/34/18 41/37/18
f 39/32/19 36/39/19 40/34/19
f 38/31/20 36/39/20 39/32/20
f 41/37/21 36/39/21 37/38/21
f 35/30/22 31/35/22 37/38/22 38/31/22
f 2/8/23 7/7/23 6/2/23 1/1/23
f 5/4/24 10/3/24 9/40/24 4/41/24
f 52/42/25 46/43/25 49/44/25 51/45/25
f 50/46/26 47/47/26 46/48/26 52/49/26
f 45/50/27 51/45/27 53/51/27 44/52/27
f 43/53/28 50/46/28 52/49/28 42/54/28
f 53/51/29 48/55/29 47/47/29 50/46/29
f 42/56/30 52/42/30 51/45/30 45/50/30
f 51/45/31 49/44/31 48/55/31 53/51/31
f 53/51/32 50/46/32 43/53/32 44/52/32
f 4/41/33 9/40/33 8/6/33 3/5/33
