# Blender v2.78 (sub 0) OBJ File: 'Low_Poly_Trees_Pack.blend'
# www.blender.org
g Fir_Tree_OneSided_s_09
v -0.186345 0.194821 -0.132825
v -0.173757 0.165758 0.164336
v 0.147618 0.171941 0.142753
v 0.149515 0.201456 -0.170290
v 0.041117 0.897813 -0.031386
v 0.057912 0.895914 -0.001655
v 0.096224 0.889907 0.005772
v 0.095779 0.888853 -0.040914
v -0.124380 0.577518 -0.098420
v -0.096776 0.581973 0.095331
v 0.141001 0.567842 0.130289
v 0.140019 0.559747 -0.131062
v 0.212347 1.406508 -0.003066
v 0.164814 1.045589 -0.051920
v 0.165279 1.047088 0.042943
v 0.080192 1.063933 0.026745
v 0.066096 1.065377 -0.048101
v -0.017169 -0.000000 -0.064681
v -0.076783 -0.000000 0.012156
v 0.008332 -0.000000 0.065910
v 0.053707 -0.000000 -0.013186
v 0.003354 0.450423 -0.032919
v -0.023466 0.450737 0.016597
v 0.008634 0.450634 0.035506
v 0.041466 0.450358 -0.001345
vt 0.4747 0.4094
vt 0.4385 0.4727
vt 0.4343 0.4441
vt 0.4402 0.4370
vt 0.3923 0.4501
vt 0.4246 0.3890
vt 0.4336 0.4338
vt 0.4307 0.4402
vt 0.4828 0.4435
vt 0.4109 0.4650
vt 0.4259 0.4493
vt 0.4458 0.4425
vt 0.4587 0.3826
vt 0.4391 0.4224
vt 0.3992 0.4155
vt 0.4224 0.4332
vt 0.4319 0.4411
vt 0.7900 0.8905
vt 0.8183 0.8900
vt 0.8179 0.9820
vt 0.7899 0.9817
vt 0.8461 0.8900
vt 0.8454 0.9823
vt 0.8317 0.9823
vt 0.8322 0.8895
vt 0.7760 0.9820
vt 0.7760 0.8897
vn -0.1166 0.1768 -0.9773
vn 0.0384 0.2000 0.9790
vn 0.9972 0.0746 0.0099
vn -0.9446 0.3078 0.1141
vn -0.0835 0.1495 -0.9852
vn 0.9987 -0.0508 -0.0027
vn -0.1363 0.1864 0.9730
vn -0.0112 0.1356 -0.9907
vn -0.9126 0.3676 0.1790
vn -0.9251 0.3531 0.1397
vn -0.1571 0.1456 0.9768
vn 0.9915 -0.1302 -0.0028
vn -0.5260 0.0557 0.8486
vn 0.6059 0.0329 -0.7949
vn -0.8219 0.0899 -0.5625
vn 0.8289 0.0225 0.5590
s off
f 4/1/1 1/2/1 5/3/1 8/4/1
f 2/5/2 3/6/2 7/7/2 6/8/2
f 3/6/3 4/1/3 8/4/3 7/7/3
f 1/2/4 2/5/4 6/8/4 5/3/4
f 12/9/5 9/10/5 17/11/5 14/12/5
f 11/13/6 12/9/6 14/12/6 15/14/6
f 10/15/7 11/13/7 15/14/7 16/16/7
f 17/11/8 13/17/8 14/12/8
f 17/11/9 16/16/9 13/17/9
f 9/10/10 10/15/10 16/16/10 17/11/10
f 15/14/11 13/17/11 16/16/11
f 14/12/12 13/17/12 15/14/12
f 19/18/13 20/19/13 24/20/13 23/21/13
f 18/22/14 22/23/14 25/24/14 21/25/14
f 19/18/15 23/21/15 22/26/15 18/27/15
f 21/25/16 25/24/16 24/20/16 20/19/16
