# Blender v2.78 (sub 0) OBJ File: 'Low_Poly_Trees_Pack.blend'
# www.blender.org
g Fir_Tree_OneSided_m_01
v -0.042815 0.446164 -1.357326
v -1.058138 0.296369 -1.033806
v -1.356467 0.454453 0.004864
v -1.055516 0.337150 1.058335
v -0.039299 0.499759 1.360730
v 0.969360 0.367369 1.053169
v 1.274324 0.493356 -0.001433
v 0.966484 0.325768 -1.038389
v -0.083966 2.087015 -0.810864
v -0.610997 2.097676 -0.592288
v -0.828389 2.109603 -0.063767
v -0.608868 2.116118 0.465097
v -0.081284 2.113434 0.684507
v 0.445388 2.102805 0.465936
v 0.662881 2.090444 -0.062582
v 0.443720 2.083896 -0.591451
v 0.019948 1.176280 -1.701165
v -0.958041 1.226153 -1.034147
v -1.493464 1.175949 0.015493
v -0.983371 1.309878 0.979076
v -0.021484 1.315084 1.520921
v 0.953538 1.410406 0.999083
v 1.488005 1.330136 0.046266
v 0.980997 1.319268 -1.158745
v -0.023588 3.716289 -0.140617
v -0.158262 3.717961 -0.084448
v -0.214162 3.720582 0.051546
v -0.158552 3.722717 0.187699
v -0.024007 3.723148 0.244253
v 0.110668 3.721531 0.188080
v 0.166581 3.718774 0.052088
v 0.110969 3.716585 -0.084061
v 0.050082 2.578361 -1.006917
v -0.781131 2.636182 -0.746352
v -1.044728 2.576210 0.073695
v -0.802105 2.585998 0.926665
v 0.025808 2.515518 1.166745
v 0.865905 2.542380 0.936165
v 1.119689 2.517099 0.086187
v 0.882492 2.588842 -0.736626
v -0.002283 4.613040 -0.154219
v -0.142277 4.612760 -0.096020
v -0.200473 4.615122 0.045031
v -0.142791 4.618778 0.186304
v -0.003019 4.621620 0.245045
v 0.136979 4.621957 0.186843
v 0.195190 4.619550 0.045796
v 0.137504 4.615840 -0.095476
v 0.005430 3.857208 -0.797061
v -0.539963 3.696342 -0.512762
v -0.833284 3.815361 0.048760
v -0.540485 3.659591 0.588777
v 0.004630 3.801743 0.898490
v 0.548772 3.678471 0.591300
v 0.843372 3.843357 0.052642
v 0.549301 3.713769 -0.510244
v 0.003262 6.353173 0.111944
v -0.210041 5.100620 -0.122001
v -0.023165 5.102306 -0.199485
v 0.179284 5.105431 -0.121228
v 0.256516 5.109053 0.066891
v 0.178841 5.111150 0.254712
v -0.023733 5.110250 0.332186
v -0.210405 5.106141 0.253954
v -0.287580 5.102193 0.065821
v 0.000000 0.000000 -0.271531
v -0.260336 0.000000 -0.082386
v -0.160897 0.000000 0.223658
v 0.160897 0.000000 0.223658
v 0.260336 0.000000 -0.082386
v -0.001533 1.637083 -0.124400
v -0.141416 1.638236 -0.023135
v -0.087883 1.638697 0.141071
v 0.085089 1.637856 0.141289
v 0.138457 1.636844 -0.022780
v -0.217480 0.552972 -0.050526
v -0.133620 0.552934 0.207566
v 0.221613 0.552997 -0.050526
v 0.002067 0.553012 -0.210036
v 0.137754 0.552948 0.207566
vt 0.3317 0.3645
vt 0.3253 0.3338
vt 0.3385 0.3212
vt 0.3632 0.3367
vt 0.3386 0.3034
vt 0.3642 0.2937
vt 0.3331 0.2635
vt 0.3260 0.2905
vt 0.3075 0.2897
vt 0.2905 0.2635
vt 0.2614 0.2926
vt 0.2940 0.3020
vt 0.2935 0.3206
vt 0.2616 0.3325
vt 0.2897 0.3619
vt 0.3068 0.3334
vt 0.3647 0.2964
vt 0.3647 0.3339
vt 0.3249 0.3188
vt 0.3243 0.3082
vt 0.2918 0.2655
vt 0.3304 0.2651
vt 0.3167 0.3010
vt 0.3062 0.3010
vt 0.2646 0.3322
vt 0.2646 0.2929
vt 0.2992 0.3087
vt 0.2997 0.3191
vt 0.3347 0.3603
vt 0.2930 0.3599
vt 0.3074 0.3260
vt 0.3175 0.3263
vt 0.3324 0.2639
vt 0.3615 0.2925
vt 0.3201 0.3123
vt 0.3174 0.3094
vt 0.2632 0.2926
vt 0.2917 0.2641
vt 0.3133 0.3093
vt 0.3103 0.3122
vt 0.2910 0.3624
vt 0.2626 0.3329
vt 0.3104 0.3164
vt 0.3133 0.3192
vt 0.3615 0.3335
vt 0.3324 0.3630
vt 0.3172 0.3190
vt 0.3199 0.3162
vt 0.3159 0.4549
vt 0.3042 0.4542
vt 0.3119 0.4406
vt 0.3257 0.4465
vt 0.3182 0.4240
vt 0.3266 0.4340
vt 0.2957 0.4337
vt 0.3042 0.4244
vt 0.2967 0.4455
vt 0.2642 0.4576
vt 0.2646 0.4147
vt 0.2956 0.3866
vt 0.3356 0.3888
vt 0.3626 0.4173
vt 0.3626 0.4570
vt 0.2940 0.4869
vt 0.3348 0.4860
vt 0.8059 0.9160
vt 0.8058 0.9861
vt 0.7909 0.9861
vt 0.7915 0.9159
vt 0.8502 0.9157
vt 0.8497 0.9867
vt 0.8351 0.9868
vt 0.8353 0.9155
vt 0.8204 0.9157
vt 0.8206 0.9864
vt 0.7762 0.9864
vt 0.7768 0.9155
vt 0.8357 0.8886
vt 0.8210 0.8892
vt 0.7911 0.8896
vt 0.7762 0.8888
vt 0.8061 0.8898
vt 0.8503 0.8891
vn -0.3404 0.2963 -0.8924
vn 0.3362 0.3152 -0.8875
vn 0.8778 0.3605 0.3156
vn -0.3318 0.3651 0.8698
vn -0.8996 0.2891 -0.3274
vn 0.8807 0.3361 -0.3338
vn 0.3313 0.3815 0.8630
vn -0.8948 0.3150 0.3164
vn 0.3680 0.4899 -0.7903
vn 0.8035 0.4389 0.4022
vn -0.4372 0.4165 0.7971
vn -0.8205 0.4155 -0.3925
vn 0.8200 0.4541 -0.3484
vn 0.3882 0.4301 0.8150
vn -0.8307 0.4100 0.3766
vn -0.4721 0.4493 -0.7584
vn 0.8864 0.3938 -0.2433
vn 0.2492 0.3976 0.8831
vn -0.8878 0.3775 0.2631
vn -0.2695 0.3722 -0.8882
vn 0.2919 0.3801 -0.8777
vn 0.8784 0.3974 0.2654
vn -0.2461 0.3932 0.8859
vn -0.8873 0.3703 -0.2749
vn -0.3744 0.2315 -0.8979
vn 0.3488 0.2195 -0.9111
vn 0.9110 0.1719 0.3748
vn -0.3841 0.1692 0.9077
vn -0.9004 0.2231 -0.3736
vn 0.9054 0.1979 -0.3755
vn 0.3522 0.1559 0.9228
vn -0.9084 0.1976 0.3685
vn -0.8169 0.3177 0.4813
vn 0.4742 0.3368 0.8134
vn 0.8087 0.3616 -0.4640
vn -0.8211 0.3370 -0.4606
vn -0.4929 0.3188 0.8096
vn 0.8026 0.3429 0.4881
vn 0.4634 0.3711 -0.8047
vn -0.4763 0.3544 -0.8047
vn -0.9493 0.0588 0.3088
vn 0.5864 0.0657 -0.8073
vn -0.0004 0.0611 0.9981
vn -0.5860 0.0617 -0.8080
vn 0.9499 0.0487 0.3087
vn -0.5853 0.0918 -0.8056
vn -0.0000 0.0291 0.9996
vn 0.5855 0.0874 -0.8059
vn -0.9496 0.0558 0.3085
vn 0.9491 0.0649 0.3084
s off
f 2/1/1 10/2/1 9/3/1 1/4/1
f 1/4/2 9/3/2 16/5/2 8/6/2
f 7/7/3 15/8/3 14/9/3 6/10/3
f 5/11/4 13/12/4 12/13/4 4/14/4
f 3/15/5 11/16/5 10/2/5 2/1/5
f 8/6/6 16/5/6 15/8/6 7/7/6
f 6/10/7 14/9/7 13/12/7 5/11/7
f 4/14/8 12/13/8 11/16/8 3/15/8
f 24/17/9 17/18/9 25/19/9 32/20/9
f 22/21/10 23/22/10 31/23/10 30/24/10
f 20/25/11 21/26/11 29/27/11 28/28/11
f 18/29/12 19/30/12 27/31/12 26/32/12
f 23/22/13 24/17/13 32/20/13 31/23/13
f 21/26/14 22/21/14 30/24/14 29/27/14
f 19/30/15 20/25/15 28/28/15 27/31/15
f 17/18/16 18/29/16 26/32/16 25/19/16
f 39/33/17 40/34/17 48/35/17 47/36/17
f 37/37/18 38/38/18 46/39/18 45/40/18
f 35/41/19 36/42/19 44/43/19 43/44/19
f 33/45/20 34/46/20 42/47/20 41/48/20
f 40/34/21 33/45/21 41/48/21 48/35/21
f 38/38/22 39/33/22 47/36/22 46/39/22
f 36/42/23 37/37/23 45/40/23 44/43/23
f 34/46/24 35/41/24 43/44/24 42/47/24
f 59/49/25 58/50/25 57/51/25
f 60/52/26 59/49/26 57/51/26
f 62/53/27 61/54/27 57/51/27
f 64/55/28 63/56/28 57/51/28
f 58/50/29 65/57/29 57/51/29
f 61/54/30 60/52/30 57/51/30
f 63/56/31 62/53/31 57/51/31
f 65/57/32 64/55/32 57/51/32
f 51/58/33 52/59/33 64/55/33 65/57/33
f 53/60/34 54/61/34 62/53/34 63/56/34
f 55/62/35 56/63/35 60/52/35 61/54/35
f 50/64/36 51/58/36 65/57/36 58/50/36
f 52/59/37 53/60/37 63/56/37 64/55/37
f 54/61/38 55/62/38 61/54/38 62/53/38
f 56/63/39 49/65/39 59/49/39 60/52/39
f 49/65/40 50/64/40 58/50/40 59/49/40
f 77/66/41 73/67/41 72/68/41 76/69/41
f 79/70/42 71/71/42 75/72/42 78/73/42
f 80/74/43 74/75/43 73/67/43 77/66/43
f 76/69/44 72/68/44 71/76/44 79/77/44
f 70/78/45 78/73/45 80/74/45 69/79/45
f 67/80/46 76/69/46 79/77/46 66/81/46
f 69/79/47 80/74/47 77/66/47 68/82/47
f 66/83/48 79/70/48 78/73/48 70/78/48
f 68/82/49 77/66/49 76/69/49 67/80/49
f 78/73/50 75/72/50 74/75/50 80/74/50
