# Blender v2.78 (sub 0) OBJ File: 'Low_Poly_Trees_Pack.blend'
# www.blender.org
g Fir_Tree_OneSided_m_09
v -0.031484 0.572007 -1.012127
v -0.692732 0.576179 -0.326447
v -0.343814 0.602501 0.756284
v 0.679129 0.611985 0.462694
v 0.677516 0.588652 -0.710438
v -0.054578 1.641920 -0.527062
v -0.365425 1.651353 -0.215098
v -0.131196 1.657497 0.302524
v 0.289302 1.649914 0.175889
v 0.288418 1.639893 -0.384443
v 0.002766 1.163860 -1.021310
v -0.671564 1.175229 -0.241910
v -0.376368 1.137938 0.642708
v 0.627651 1.098817 0.403261
v 0.631498 1.129958 -0.758838
v -0.015332 2.700949 -0.091401
v -0.139205 2.703739 0.033505
v -0.103059 2.705127 0.122004
v 0.071934 2.704356 0.122252
v 0.072130 2.701141 -0.054640
v 0.050732 2.025647 -0.647354
v -0.491630 1.972323 -0.110844
v -0.265401 1.914229 0.553228
v 0.541167 1.939368 0.362025
v 0.546056 2.010665 -0.439454
v -0.004849 3.284351 -0.080593
v -0.110836 3.285464 0.025961
v -0.024341 3.288052 0.101618
v 0.069626 3.289120 0.101799
v 0.069907 3.285848 -0.049179
v 0.018060 2.668447 -0.444214
v -0.361170 2.678432 -0.061559
v -0.162393 2.690934 0.359712
v 0.347077 2.692560 0.360570
v 0.347409 2.672986 -0.305651
v -0.015489 4.290040 0.069401
v -0.015057 3.601860 -0.129665
v 0.116535 3.603891 -0.078798
v 0.116247 3.607609 0.165563
v -0.057932 3.605366 0.165224
v -0.138720 3.601808 -0.005586
v 0.000000 0.000000 -0.176495
v -0.142328 0.000000 0.006954
v 0.060885 0.000000 0.135294
v 0.169219 0.000000 -0.053551
v -0.000997 1.349465 -0.080860
v -0.065030 1.350214 0.045467
v 0.011610 1.349967 0.081754
v 0.089997 1.349309 -0.014807
v -0.114471 0.359432 0.027662
v 0.144049 0.359448 -0.032842
v 0.001344 0.359458 -0.136523
v 0.045843 0.359416 0.124834
vt 0.3649 0.3373
vt 0.3380 0.3205
vt 0.3381 0.3011
vt 0.3659 0.2906
vt 0.2631 0.3118
vt 0.2904 0.3129
vt 0.3139 0.3342
vt 0.3121 0.3555
vt 0.2636 0.3176
vt 0.3008 0.2656
vt 0.3029 0.2985
vt 0.2958 0.3182
vt 0.3665 0.3343
vt 0.3077 0.3556
vt 0.3041 0.3256
vt 0.3232 0.3178
vt 0.3665 0.2935
vt 0.3225 0.3064
vt 0.2615 0.3188
vt 0.3019 0.2644
vt 0.3106 0.3076
vt 0.3076 0.3132
vt 0.3630 0.3338
vt 0.3044 0.3579
vt 0.3106 0.3183
vt 0.3177 0.3150
vt 0.3630 0.2892
vt 0.3180 0.3108
vt 0.3348 0.3806
vt 0.3641 0.4548
vt 0.3241 0.4434
vt 0.3159 0.4190
vt 0.2752 0.4024
vt 0.2991 0.4262
vt 0.3340 0.4864
vt 0.2715 0.4612
vt 0.2984 0.4452
vt 0.3134 0.4526
vt 0.3090 0.4370
vt 0.3079 0.2870
vt 0.3017 0.2642
vt 0.8512 0.9194
vt 0.8506 0.9874
vt 0.8367 0.9874
vt 0.8369 0.9192
vt 0.7950 0.9196
vt 0.7945 0.9868
vt 0.7804 0.9870
vt 0.7810 0.9193
vt 0.8373 0.8935
vt 0.8227 0.9194
vt 0.8232 0.8941
vt 0.7946 0.8945
vt 0.7804 0.8937
vt 0.8228 0.9871
vt 0.8513 0.8940
vn 0.3531 0.3932 -0.8489
vn -0.9035 0.2810 0.3235
vn 0.2005 0.2568 0.9455
vn -0.6964 0.3607 -0.6204
vn 0.9439 0.3300 0.0097
vn 0.3563 0.4858 -0.7981
vn -0.9105 0.2623 0.3197
vn 0.1928 0.2634 0.9452
vn -0.6888 0.2710 -0.6724
vn 0.9406 0.3382 0.0293
vn -0.8847 0.2508 0.3928
vn 0.3635 0.3950 -0.8437
vn 0.9701 0.2427 -0.0055
vn -0.0029 0.2080 0.9781
vn -0.6922 0.2085 -0.6910
vn 0.3445 0.2611 -0.9017
vn -0.8989 0.1149 0.4228
vn -0.8898 0.1896 0.4150
vn -0.0037 0.1388 0.9903
vn 0.9819 0.1893 -0.0017
vn -0.6941 0.1996 -0.6917
vn 0.3580 0.3068 -0.8819
vn -0.6848 0.2837 -0.6712
vn 0.9369 0.3495 -0.0081
vn 0.5870 0.0468 -0.8082
vn -0.8495 0.0397 -0.5260
vn 0.8583 0.0407 0.5116
vn -0.8001 0.0826 -0.5941
vn -0.4907 0.0149 0.8712
vn 0.5855 0.0874 -0.8059
vn 0.8206 0.0438 0.5699
vn -0.5271 -0.0027 0.8498
vn 0.2623 0.3416 0.9025
s off
f 1/1/1 6/2/1 10/3/1 5/4/1
f 3/5/2 8/6/2 7/7/2 2/8/2
f 13/9/3 14/10/3 19/11/3 18/12/3
f 11/13/4 12/14/4 17/15/4 16/16/4
f 14/10/5 15/17/5 20/18/5 19/11/5
f 15/17/6 11/13/6 16/16/6 20/18/6
f 12/14/7 13/9/7 18/12/7 17/15/7
f 23/19/8 24/20/8 29/21/8 28/22/8
f 21/23/9 22/24/9 27/25/9 26/26/9
f 24/20/10 25/27/10 30/28/10 29/21/10
f 22/24/11 23/19/11 28/22/11 27/25/11
f 25/27/12 21/23/12 26/26/12 30/28/12
f 34/29/13 35/30/13 38/31/13 39/32/13
f 33/33/14 34/29/14 39/32/14 40/34/14
f 31/35/15 32/36/15 41/37/15 37/38/15
f 38/31/16 37/38/16 36/39/16
f 41/37/17 40/34/17 36/39/17
f 32/36/18 33/33/18 40/34/18 41/37/18
f 39/32/19 36/39/19 40/34/19
f 38/31/20 36/39/20 39/32/20
f 41/37/21 36/39/21 37/38/21
f 35/30/22 31/35/22 37/38/22 38/31/22
f 2/8/23 7/7/23 6/2/23 1/1/23
f 5/4/24 10/3/24 9/40/24 4/41/24
f 52/42/25 46/43/25 49/44/25 51/45/25
f 50/46/26 47/47/26 46/48/26 52/49/26
f 45/50/27 51/45/27 53/51/27 44/52/27
f 43/53/28 50/46/28 52/49/28 42/54/28
f 53/51/29 48/55/29 47/47/29 50/46/29
f 42/56/30 52/42/30 51/45/30 45/50/30
f 51/45/31 49/44/31 48/55/31 53/51/31
f 53/51/32 50/46/32 43/53/32 44/52/32
f 4/41/33 9/40/33 8/6/33 3/5/33
