# Blender v2.78 (sub 0) OBJ File: 'Low_Poly_Trees_Pack.blend'
# www.blender.org
g Fir_Tree_OneSided_s_04
v 0.013248 0.208090 -0.604318
v -0.449133 0.245506 -0.064431
v -0.244758 0.237197 0.548116
v 0.444236 0.191431 0.381946
v 0.436248 0.179851 -0.368995
v 0.244045 1.305739 0.039754
v 0.161756 1.328285 0.126228
v 0.186567 1.323250 0.187497
v 0.303947 1.293515 0.187668
v 0.302937 1.291299 0.065204
v 0.133323 0.799861 -0.347497
v -0.230873 0.877313 0.027186
v -0.081905 0.831312 0.488155
v 0.460306 0.710231 0.352419
v 0.464540 0.718591 -0.204540
v 0.409138 1.695215 0.047237
v 0.339518 1.716706 0.121005
v 0.398199 1.701474 0.173383
v 0.460637 1.683741 0.173508
v 0.459316 1.681560 0.068985
v 0.277398 1.306007 -0.192831
v 0.011018 1.326768 0.078871
v 0.147416 1.273314 0.377670
v 0.508483 1.199102 0.357501
v 0.541373 1.244986 -0.097553
v 0.689435 2.380695 0.149505
v 0.491898 1.906594 0.013264
v 0.579513 1.880714 0.048479
v 0.581067 1.883125 0.217652
v 0.466136 1.917698 0.217418
v 0.411152 1.932098 0.099165
v -0.009319 0.001024 -0.122189
v -0.107747 0.001428 0.004814
v 0.032637 0.000879 0.093665
v 0.107546 0.000552 -0.037074
v 0.046272 0.537102 -0.055980
v 0.002629 0.542721 0.031477
v 0.054939 0.536538 0.056599
v 0.108386 0.529844 -0.010251
v -0.070170 0.253466 0.019151
v 0.107831 0.250406 -0.022737
v 0.009664 0.252108 -0.094516
v 0.040143 0.251584 0.086423
vt 0.2672 0.3175
vt 0.3008 0.2704
vt 0.3027 0.3002
vt 0.2963 0.3180
vt 0.3603 0.3326
vt 0.3071 0.3519
vt 0.3039 0.3248
vt 0.3211 0.3177
vt 0.3603 0.2956
vt 0.3205 0.3073
vt 0.2653 0.3186
vt 0.3018 0.2693
vt 0.3097 0.3084
vt 0.3070 0.3135
vt 0.3571 0.3322
vt 0.3041 0.3540
vt 0.3097 0.3181
vt 0.3162 0.3151
vt 0.3571 0.2918
vt 0.3164 0.3113
vt 0.3335 0.3851
vt 0.3633 0.4605
vt 0.3226 0.4489
vt 0.3143 0.4240
vt 0.2729 0.4072
vt 0.2972 0.4314
vt 0.3326 0.4925
vt 0.2692 0.4670
vt 0.2965 0.4507
vt 0.3118 0.4582
vt 0.3073 0.4424
vt 0.9754 0.9173
vt 0.9748 0.9857
vt 0.9608 0.9858
vt 0.9610 0.9171
vt 0.9188 0.9175
vt 0.9183 0.9851
vt 0.9041 0.9854
vt 0.9047 0.9171
vt 0.9614 0.8912
vt 0.9467 0.9173
vt 0.9472 0.8918
vt 0.9184 0.8922
vt 0.9041 0.8914
vt 0.9468 0.9854
vt 0.9755 0.8917
vn 0.2161 0.2129 0.9529
vn -0.6399 0.4775 -0.6021
vn 0.9922 0.1240 -0.0122
vn 0.4672 0.3711 -0.8025
vn -0.8510 0.4323 0.2980
vn 0.2557 0.1873 0.9484
vn -0.5802 0.4703 -0.6650
vn 1.0000 0.0023 0.0044
vn -0.7683 0.5203 0.3728
vn 0.4354 0.2478 -0.8654
vn 0.9955 -0.0837 0.0441
vn 0.0856 0.1955 0.9770
vn -0.6164 0.4371 -0.6549
vn 0.3958 0.0975 -0.9131
vn -0.7909 0.4433 0.4218
vn -0.7616 0.4861 0.4286
vn 0.0364 0.1278 0.9911
vn 0.9769 -0.2136 -0.0059
vn -0.5856 0.4397 -0.6810
vn 0.3811 0.1804 -0.9068
vn 0.5922 0.0338 -0.8051
vn -0.8311 0.2042 -0.5173
vn 0.8594 -0.0206 0.5109
vn -0.7953 0.1387 -0.5901
vn -0.4877 0.1008 0.8672
vn 0.5891 0.0450 -0.8068
vn 0.8236 -0.0050 0.5671
vn -0.5281 0.0354 0.8485
s off
f 3/1/1 4/2/1 9/3/1 8/4/1
f 1/5/2 2/6/2 7/7/2 6/8/2
f 4/2/3 5/9/3 10/10/3 9/3/3
f 5/9/4 1/5/4 6/8/4 10/10/4
f 2/6/5 3/1/5 8/4/5 7/7/5
f 13/11/6 14/12/6 19/13/6 18/14/6
f 11/15/7 12/16/7 17/17/7 16/18/7
f 14/12/8 15/19/8 20/20/8 19/13/8
f 12/16/9 13/11/9 18/14/9 17/17/9
f 15/19/10 11/15/10 16/18/10 20/20/10
f 24/21/11 25/22/11 28/23/11 29/24/11
f 23/25/12 24/21/12 29/24/12 30/26/12
f 21/27/13 22/28/13 31/29/13 27/30/13
f 28/23/14 27/30/14 26/31/14
f 31/29/15 30/26/15 26/31/15
f 22/28/16 23/25/16 30/26/16 31/29/16
f 29/24/17 26/31/17 30/26/17
f 28/23/18 26/31/18 29/24/18
f 31/29/19 26/31/19 27/30/19
f 25/22/20 21/27/20 27/30/20 28/23/20
f 42/32/21 36/33/21 39/34/21 41/35/21
f 40/36/22 37/37/22 36/38/22 42/39/22
f 35/40/23 41/35/23 43/41/23 34/42/23
f 33/43/24 40/36/24 42/39/24 32/44/24
f 43/41/25 38/45/25 37/37/25 40/36/25
f 32/46/26 42/32/26 41/35/26 35/40/26
f 41/35/27 39/34/27 38/45/27 43/41/27
f 43/41/28 40/36/28 33/43/28 34/42/28
