# Blender v2.78 (sub 0) OBJ File: 'Low_Poly_Trees_Pack.blend'
# www.blender.org
g Dead_Tree_m_05
v 0.385443 0.000000 -0.550470
v -0.550470 0.000000 -0.385443
v -0.385443 0.000000 0.550470
v 0.550470 0.000000 0.385443
v 0.231582 0.743805 -0.315560
v -0.337279 0.743805 -0.354760
v -0.376479 0.743805 0.214102
v 0.192382 0.743805 0.253302
v 0.309546 2.120596 -0.209170
v -0.087908 2.102641 -0.422362
v -0.334789 2.114454 -0.076071
v 0.125335 2.196765 0.248333
v -0.247263 1.869875 0.032871
v 0.091205 1.849136 0.217864
v 0.263927 1.808711 -0.123377
v -0.068681 1.861775 -0.316022
v -0.078296 2.178496 0.099021
v 0.133007 2.130102 -0.310457
v -0.120001 2.215368 -0.590063
v -0.397828 2.230367 -0.268202
v -0.127566 2.465633 -0.028663
v 0.065637 2.382412 -0.441471
v -0.675630 2.207712 -1.122962
v -0.876077 2.227025 -0.961230
v -0.935453 2.473563 -1.057761
v -0.700629 2.422513 -1.203929
v 0.370630 2.973821 -0.011652
v 0.283945 2.916420 0.305805
v 0.134681 3.055206 0.262847
v 0.231934 3.100842 -0.028087
v 0.962630 3.410493 0.073487
v 0.943310 3.300635 0.246950
v 0.880708 3.462618 0.289412
v 0.906186 3.556627 0.124569
v 1.760406 3.559374 0.729121
v 1.707627 3.529638 0.794897
v 1.715673 3.605389 0.809246
v 1.766062 3.628227 0.747343
v -0.879692 1.973163 -2.125875
v -1.099698 2.062409 -1.987484
v -1.151045 2.302681 -2.102626
v -0.898078 2.182890 -2.220729
v -1.145552 2.295358 -2.721924
v -1.302057 2.336797 -2.699621
v -1.255681 2.493033 -2.645612
v -1.094460 2.420764 -2.667055
v -1.182522 2.409436 -3.857030
v -1.232418 2.422401 -3.853027
v -1.219103 2.469836 -3.830143
v -1.167775 2.447118 -3.834671
v -0.731145 2.072215 -1.236834
v -0.765418 2.273851 -1.336081
v -0.933621 2.095861 -1.078537
v -1.003448 2.325429 -1.195838
v -1.806862 2.506619 -0.837088
v -1.848036 2.675594 -0.821125
v -1.821248 2.470615 -0.949772
v -1.865518 2.636719 -0.951849
v -2.842860 1.923076 -0.674764
v -2.890995 1.990364 -0.699158
v -2.848793 1.878601 -0.712847
v -2.898756 1.939841 -0.743860
v -4.245176 1.876280 -0.638961
v 1.795183 3.399998 1.509013
v 1.757434 3.405117 1.545854
v 1.773906 3.447640 1.540299
v 1.808987 3.439957 1.506668
v 2.075343 2.840908 1.933980
v 1.007447 3.485960 0.366604
v 1.035035 3.565257 0.215821
v 1.063508 3.338260 0.335187
v 1.085846 3.431569 0.175986
v 1.404739 3.698708 -0.344831
v 1.406221 3.774892 -0.296849
v 1.482548 3.748665 -0.265967
v 1.481472 3.678194 -0.306158
v 1.749470 4.127685 -0.613061
v 1.743090 4.143517 -0.572155
v 1.779282 4.123967 -0.561332
v 1.785039 4.108083 -0.597518
v 2.273586 4.522657 -0.798239
v -1.152356 3.405595 -4.565380
v -0.354070 2.230116 -0.828093
v -0.287662 2.423401 -0.805886
v -0.497913 2.511712 -0.530035
v -0.580357 2.247621 -0.576362
v 0.145447 1.400883 0.249880
v -0.243202 1.365519 -0.319286
v -0.327928 1.329380 0.159593
v 0.231206 1.419546 -0.228495
v -0.383092 2.897191 -1.291007
v -0.287387 2.838547 -1.365507
v -0.337347 2.818690 -1.450057
v -0.433674 2.879224 -1.378110
v -0.109405 3.296645 -1.411942
v -0.070199 3.259229 -1.442550
v -0.089946 3.257456 -1.484381
v -0.129048 3.295814 -1.454930
v -0.036635 3.742733 -1.854580
vt 0.6147 0.6675
vt 0.5965 0.6696
vt 0.5889 0.6593
vt 0.6043 0.6494
vt 0.5545 0.6349
vt 0.5506 0.6490
vt 0.5396 0.6500
vt 0.5366 0.6349
vt 0.5294 0.6541
vt 0.5210 0.6416
vt 0.5785 0.6517
vt 0.5876 0.6376
vt 0.5760 0.6826
vt 0.5708 0.6881
vt 0.5677 0.6836
vt 0.5705 0.6763
vt 0.5891 0.7193
vt 0.5877 0.7149
vt 0.5919 0.7142
vt 0.5426 0.6712
vt 0.5452 0.6769
vt 0.5365 0.6801
vt 0.5355 0.6735
vt 0.5960 0.6928
vt 0.5922 0.6959
vt 0.5872 0.6903
vt 0.5912 0.6882
vt 0.5796 0.6684
vt 0.5633 0.6717
vt 0.5706 0.6630
vt 0.5421 0.6633
vt 0.5333 0.6656
vt 0.5506 0.6603
vt 0.5498 0.6698
vt 0.5845 0.6776
vt 0.5853 0.7124
vt 0.5896 0.7098
vt 0.5969 0.6988
vt 0.5486 0.6756
vt 0.5935 0.7028
vt 0.5879 0.6972
vt 0.5839 0.6904
vt 0.5810 0.7084
vt 0.5797 0.7116
vt 0.5723 0.7113
vt 0.5714 0.7075
vt 0.5808 0.6978
vt 0.5825 0.7024
vt 0.5708 0.7028
vt 0.5723 0.6985
vt 0.5788 0.6922
vt 0.5717 0.6942
vt 0.5611 0.6856
vt 0.5526 0.6793
vt 0.5509 0.6978
vt 0.5468 0.6967
vt 0.5609 0.7007
vt 0.5569 0.6992
vt 0.5387 0.6952
vt 0.5463 0.7164
vt 0.5429 0.7144
vt 0.5392 0.7125
vt 0.5552 0.7173
vt 0.5509 0.7168
vt 0.6131 0.7266
vt 0.6090 0.7251
vt 0.6117 0.7084
vt 0.6129 0.7092
vt 0.6059 0.7245
vt 0.6099 0.7086
vt 0.6165 0.7262
vt 0.6143 0.7093
vt 0.6201 0.7240
vt 0.6154 0.7084
vt 0.5264 0.7251
vt 0.5248 0.7208
vt 0.5431 0.7208
vt 0.5452 0.7251
vt 0.5229 0.7393
vt 0.5210 0.7344
vt 0.5397 0.7364
vt 0.5411 0.7420
vt 0.5241 0.7298
vt 0.5435 0.7318
vt 0.5569 0.7265
vt 0.5556 0.7290
vt 0.5559 0.7349
vt 0.5559 0.7385
vt 0.5555 0.7321
vt 0.5811 0.7329
vt 0.5811 0.7342
vt 0.5809 0.7354
vt 0.5814 0.7320
vt 0.5809 0.7365
vt 0.5275 0.7177
vt 0.5226 0.7180
vt 0.5238 0.6994
vt 0.5262 0.6991
vt 0.5648 0.6349
vt 0.5678 0.6377
vt 0.5637 0.6523
vt 0.5619 0.6513
vt 0.5692 0.6982
vt 0.5686 0.6939
vt 0.5699 0.7133
vt 0.5686 0.7096
vt 0.5207 0.7000
vt 0.5194 0.6738
vt 0.5211 0.6730
vt 0.5328 0.7191
vt 0.5292 0.6991
vt 0.5174 0.7201
vt 0.5366 0.7185
vt 0.5317 0.6986
vt 0.5257 0.6732
vt 0.5245 0.6737
vt 0.5194 0.6421
vt 0.5226 0.6734
vt 0.6107 0.6919
vt 0.6115 0.6924
vt 0.6124 0.6927
vt 0.6133 0.6921
vt 0.6143 0.6916
vt 0.6121 0.6751
vt 0.5404 0.7164
vt 0.5371 0.7147
vt 0.6017 0.7281
vt 0.6011 0.7310
vt 0.5872 0.7295
vt 0.5870 0.7277
vt 0.5546 0.7207
vt 0.5510 0.7205
vt 0.5472 0.7198
vt 0.5748 0.7274
vt 0.5751 0.7266
vt 0.6007 0.7188
vt 0.6017 0.7221
vt 0.5877 0.7239
vt 0.5872 0.7220
vt 0.6023 0.7251
vt 0.5875 0.7259
vt 0.5753 0.7258
vt 0.5615 0.7256
vt 0.5751 0.7250
vt 0.5749 0.7241
vt 0.6085 0.7373
vt 0.5592 0.6514
vt 0.5596 0.6628
vt 0.5581 0.6624
vt 0.5599 0.6373
vt 0.5707 0.6422
vt 0.5663 0.6540
vt 0.5565 0.6399
vt 0.5574 0.6519
vt 0.5572 0.6621
vt 0.5565 0.6770
vt 0.5606 0.6628
vt 0.5619 0.6632
vn 0.0790 0.3163 0.9454
vn -0.0820 0.1783 -0.9805
vn 0.9410 0.3293 -0.0787
vn -0.9831 0.1637 0.0822
vn -0.5244 0.0371 0.8507
vn 0.4590 -0.3279 -0.8257
vn 0.9063 -0.0747 0.4159
vn -0.7923 -0.3844 -0.4739
vn -0.9364 0.1958 -0.2912
vn 0.9537 -0.0018 0.3008
vn 0.3311 0.0379 -0.9428
vn -0.3259 0.1583 0.9320
vn 0.6216 -0.3876 -0.6807
vn -0.5825 0.1476 0.7993
vn 0.4473 -0.3068 -0.8401
vn -0.6916 0.3208 0.6471
vn -0.5040 -0.7831 -0.3644
vn 0.6789 -0.1717 -0.7139
vn -0.7789 0.0961 0.6197
vn -0.0133 -0.9971 0.0751
vn -0.5877 0.2424 0.7719
vn 0.4607 -0.3090 -0.8320
vn 0.6617 0.1865 -0.7262
vn -0.6265 -0.0064 0.7794
vn 0.9267 -0.1827 0.3284
vn -0.8119 0.4598 -0.3597
vn 0.2376 0.9661 -0.1014
vn 0.0643 0.1707 -0.9832
vn 0.5435 -0.8234 -0.1632
vn 0.0158 0.0128 0.9998
vn -0.5265 0.8422 0.1163
vn -0.3235 0.8938 0.3106
vn -0.4892 -0.2747 0.8278
vn 0.5448 0.3411 -0.7660
vn 0.4430 -0.8406 -0.3118
vn 0.9856 0.0499 -0.1616
vn -0.1874 -0.9767 0.1048
vn 0.2784 0.9548 -0.1042
vn -0.9710 -0.1649 0.1729
vn 0.8748 -0.1407 -0.4635
vn -0.4116 -0.8758 -0.2521
vn 0.4714 0.8526 0.2256
vn -0.9688 0.0259 0.2465
vn 0.4075 0.9132 -0.0051
vn -0.9553 0.2934 -0.0356
vn 0.9357 -0.3465 -0.0659
vn -0.2643 -0.9604 -0.0876
vn 0.0749 0.8072 -0.5854
vn -0.6820 0.7122 -0.1663
vn 0.4029 -0.6911 0.6001
vn 0.9160 -0.0423 -0.3990
vn -0.0970 -0.1826 -0.9784
vn 0.2468 0.2417 0.9384
vn -0.3267 -0.3581 -0.8746
vn -0.1897 -0.7650 0.6154
vn 0.0411 -0.6530 0.7562
vn -0.5604 0.7677 -0.3106
vn 0.5139 -0.7836 0.3490
vn 0.0928 0.0705 0.9932
vn 0.0123 0.3486 0.9372
vn -0.0455 -0.4806 -0.8757
vn -0.0891 0.6676 -0.7391
vn -0.9750 0.1941 0.1080
vn 0.9828 -0.1632 -0.0865
vn 0.0570 -0.9811 -0.1851
vn 0.0743 0.9725 0.2207
vn 0.6085 0.6220 0.4927
vn -0.4832 0.2949 0.8244
vn 0.6166 -0.2567 -0.7442
vn -0.5692 -0.6590 -0.4917
vn 0.5013 -0.7649 -0.4044
vn 0.7652 -0.0646 0.6405
vn -0.4533 -0.3674 0.8121
vn -0.3681 0.8397 0.3992
vn 0.8471 -0.3255 0.4200
vn 0.2333 -0.9158 -0.3269
vn -0.6996 0.1393 -0.7008
vn -0.1041 0.9447 0.3109
vn 0.0114 0.5003 0.8658
vn -0.0339 0.6263 0.7788
vn 0.1520 -0.6175 -0.7717
vn -0.8076 0.3869 -0.4450
vn 0.0879 -0.5161 -0.8520
vn -0.6392 0.6784 -0.3622
vn 0.6842 -0.6215 0.3816
vn 0.3195 0.5712 0.7560
vn -0.9678 0.1946 0.1598
vn 0.9415 -0.2138 -0.2606
vn -0.2103 -0.5623 -0.7997
vn 0.1423 0.9748 -0.1718
vn -0.0700 -0.9975 -0.0050
vn -0.7930 0.2393 0.5603
vn 0.6995 -0.1590 -0.6967
vn -0.1263 0.0464 0.9909
vn 0.1189 0.0848 -0.9893
vn 0.9925 0.0278 0.1189
vn -0.9870 0.1148 -0.1128
vn -0.4870 0.2039 -0.8493
vn -0.4758 0.2013 -0.8562
vn 0.5035 -0.1819 0.8446
vn 0.7623 -0.6404 0.0943
vn 0.8415 -0.3831 -0.3810
vn 0.8006 -0.4794 -0.3595
vn -0.7379 0.5985 0.3119
vn 0.5501 -0.1301 0.8249
vn -0.7996 0.4837 0.3560
vn 0.7674 0.3842 0.5133
vn -0.7560 -0.3425 -0.5578
s off
f 4/1/1 8/2/1 7/3/1 3/4/1
f 2/5/2 6/6/2 5/7/2 1/8/2
f 1/8/3 5/7/3 8/9/3 4/10/3
f 3/4/4 7/3/4 6/11/4 2/12/4
f 14/13/5 12/14/5 17/15/5 13/16/5
f 16/17/6 10/18/6 18/19/6
f 15/20/7 9/21/7 12/22/7 14/23/7
f 13/24/8 11/25/8 10/26/8 16/27/8
f 89/28/9 13/16/9 16/29/9 88/30/9
f 90/31/10 15/20/10 14/23/10 87/32/10
f 88/33/11 16/34/11 15/20/11 90/31/11
f 87/35/12 14/13/12 13/16/12 89/28/12
f 18/19/13 10/18/13 19/36/13 22/37/13
f 13/24/14 17/38/14 11/25/14
f 18/39/15 9/21/15 15/20/15 16/34/15
f 11/25/16 17/38/16 21/40/16 20/41/16
f 10/26/17 11/25/17 20/41/17 19/42/17
f 84/43/18 83/44/18 23/45/18 26/46/18
f 86/47/19 85/48/19 25/49/19 24/50/19
f 83/51/20 86/47/20 24/50/20 23/52/20
f 17/15/21 12/14/21 21/53/21
f 18/39/22 22/54/22 9/21/22
f 9/21/23 22/54/23 30/55/23 27/56/23
f 21/53/24 12/14/24 28/57/24 29/58/24
f 12/22/25 9/21/25 27/56/25 28/59/25
f 22/54/26 21/53/26 29/58/26 30/55/26
f 84/43/27 85/48/27 21/40/27 22/37/27
f 27/56/28 30/55/28 34/60/28 31/61/28
f 28/59/29 27/56/29 31/61/29 32/62/29
f 29/58/30 28/57/30 32/63/30 33/64/30
f 30/55/31 29/58/31 33/64/31 34/60/31
f 70/65/32 69/66/32 37/67/32 38/68/32
f 69/66/33 71/69/33 36/70/33 37/67/33
f 72/71/34 70/65/34 38/68/34 35/72/34
f 71/73/35 72/71/35 35/72/35 36/74/35
f 52/75/36 51/76/36 39/77/36 42/78/36
f 51/79/37 53/80/37 40/81/37 39/82/37
f 54/83/38 52/75/38 42/78/38 41/84/38
f 53/80/39 54/83/39 41/84/39 40/81/39
f 42/78/40 39/77/40 43/85/40 46/86/40
f 39/82/41 40/81/41 44/87/41 43/88/41
f 41/84/42 42/78/42 46/86/42 45/89/42
f 40/81/43 41/84/43 45/89/43 44/87/43
f 45/89/44 46/86/44 50/90/44 49/91/44
f 44/87/45 45/89/45 49/91/45 48/92/45
f 46/86/46 43/85/46 47/93/46 50/90/46
f 43/88/47 44/87/47 48/92/47 47/94/47
f 25/95/48 54/96/48 58/97/48 56/98/48
f 54/99/49 25/100/49 91/101/49 94/102/49
f 23/52/50 24/50/50 53/103/50 51/104/50
f 26/46/51 23/45/51 51/105/51 52/106/51
f 58/97/52 57/107/52 61/108/52 62/109/52
f 24/110/53 25/95/53 56/98/53 55/111/53
f 54/96/54 53/112/54 57/107/54 58/97/54
f 53/113/55 24/110/55 55/111/55 57/114/55
f 61/115/56 59/116/56 63/117/56
f 56/98/57 58/97/57 62/109/57 60/118/57
f 57/114/58 55/111/58 59/116/58 61/115/58
f 55/111/59 56/98/59 60/118/59 59/116/59
f 59/116/60 60/118/60 63/117/60
f 62/109/61 61/108/61 63/117/61
f 60/118/62 62/109/62 63/117/62
f 37/67/63 36/70/63 65/119/63 66/120/63
f 35/72/64 38/68/64 67/121/64 64/122/64
f 36/74/65 35/72/65 64/122/65 65/123/65
f 38/68/66 37/67/66 66/120/66 67/121/66
f 67/121/67 66/120/67 68/124/67
f 66/120/68 65/119/68 68/124/68
f 64/122/69 67/121/69 68/124/69
f 65/123/70 64/122/70 68/124/70
f 32/62/71 31/61/71 72/125/71 71/126/71
f 70/127/72 72/128/72 76/129/72 75/130/72
f 33/64/73 32/63/73 71/131/73 69/132/73
f 34/60/74 33/64/74 69/132/74 70/133/74
f 75/130/75 76/129/75 80/134/75 79/135/75
f 72/136/76 31/137/76 73/138/76 76/139/76
f 31/137/77 34/140/77 74/141/77 73/138/77
f 34/140/78 70/127/78 75/130/78 74/141/78
f 78/142/79 79/135/79 81/143/79
f 74/141/80 75/130/80 79/135/80 78/142/80
f 76/139/81 73/138/81 77/144/81 80/145/81
f 73/138/82 74/141/82 78/142/82 77/144/82
f 80/145/83 77/144/83 81/143/83
f 77/144/84 78/142/84 81/143/84
f 79/135/85 80/134/85 81/143/85
f 49/91/86 50/90/86 82/146/86
f 48/92/87 49/91/87 82/146/87
f 50/90/88 47/93/88 82/146/88
f 47/94/89 48/92/89 82/146/89
f 26/46/90 25/49/90 85/48/90 84/43/90
f 19/42/91 20/41/91 86/47/91 83/51/91
f 20/41/92 21/40/92 85/48/92 86/47/92
f 22/37/93 19/36/93 83/44/93 84/43/93
f 8/2/94 87/35/94 89/28/94 7/3/94
f 6/6/95 88/33/95 90/31/95 5/7/95
f 5/7/96 90/31/96 87/32/96 8/9/96
f 7/3/97 89/28/97 88/30/97 6/11/97
f 93/147/98 94/102/98 98/148/98 97/149/98
f 52/150/99 54/99/99 94/102/99 93/147/99
f 25/100/100 26/151/100 92/152/100 91/101/100
f 26/153/101 52/150/101 93/147/101 92/154/101
f 96/155/102 97/149/102 99/156/102
f 92/154/103 93/147/103 97/149/103 96/155/103
f 94/102/104 91/101/104 95/157/104 98/148/104
f 91/101/105 92/152/105 96/158/105 95/157/105
f 98/148/106 95/157/106 99/156/106
f 95/157/107 96/158/107 99/156/107
f 97/149/108 98/148/108 99/156/108
