# Blender v2.78 (sub 0) OBJ File: 'Low_Poly_Trees_Pack.blend'
# www.blender.org
g Dead_Tree_m_04
v 0.000000 0.000000 -0.672000
v -0.672000 0.000000 0.000000
v 0.000000 0.000000 0.672000
v 0.672000 0.000000 -0.000000
v 0.008703 0.743805 -0.391322
v -0.479765 0.743805 -0.097147
v -0.185590 0.743805 0.391322
v 0.302878 0.743805 0.097147
v 0.150102 2.331334 -0.238669
v -0.311417 2.402202 -0.168368
v -0.305430 2.310946 0.247137
v 0.279916 2.273912 0.239762
v -0.188625 2.005230 0.220026
v 0.187481 1.946683 0.154228
v 0.121169 2.006492 -0.219855
v -0.250310 2.098409 -0.155735
v 0.027274 2.289896 0.242945
v -0.049047 2.361914 -0.208333
v -0.512908 2.593499 -0.250724
v -0.545517 2.510880 0.165351
v -0.047577 2.599050 0.242945
v -0.145074 2.637854 -0.208333
v -0.996199 2.930751 -0.328047
v -1.067347 2.927281 -0.079782
v -1.024536 3.194456 -0.059545
v -0.937671 3.154086 -0.324003
v 0.430219 3.101343 0.062576
v 0.547658 2.944254 0.368313
v 0.352819 3.171382 0.466297
v 0.259665 3.308723 0.172719
v 1.013537 3.517600 -0.106377
v 1.084319 3.364138 0.011823
v 1.081026 3.506228 0.120268
v 1.018046 3.642315 0.001214
v 2.065763 3.495839 -0.042749
v 2.081209 3.470796 0.041695
v 2.057357 3.544336 0.047338
v 2.045833 3.563690 -0.032569
v -1.492073 2.893659 -0.727119
v -1.532360 2.975540 -0.467905
v -1.576455 3.241988 -0.494093
v -1.508224 3.120991 -0.764268
v -1.977755 3.391560 -0.941530
v -2.062137 3.448071 -0.813488
v -1.950611 3.577088 -0.793645
v -1.870950 3.490195 -0.926980
v -2.701750 3.793133 -1.717172
v -2.732687 3.800616 -1.676420
v -2.712219 3.850385 -1.668986
v -2.679640 3.833356 -1.711644
v -1.155660 2.891277 -0.414197
v -1.118553 3.115437 -0.421727
v -1.227522 2.893641 -0.166319
v -1.210028 3.160076 -0.159760
v -1.563363 3.372360 0.638422
v -1.499792 3.515647 0.715431
v -1.640173 3.401884 0.552228
v -1.587992 3.552510 0.616601
v -2.568638 3.120721 1.243620
v -2.579906 3.202150 1.269735
v -2.612125 3.104466 1.207450
v -2.630675 3.184689 1.228156
v -3.621997 3.480270 2.098675
v 2.519150 3.830883 0.490426
v 2.528414 3.818993 0.541232
v 2.518380 3.863822 0.541570
v 2.511204 3.872348 0.493647
v 2.908023 4.512815 0.554688
v 1.230716 3.512070 0.109086
v 1.175625 3.630260 -0.003966
v 1.237162 3.380491 0.016403
v 1.174863 3.514263 -0.096621
v 1.162686 3.923711 -0.622464
v 1.202240 3.983993 -0.568520
v 1.277798 3.953008 -0.596773
v 1.243893 3.896117 -0.643639
v 1.193230 4.631906 -0.936447
v 1.209545 4.645931 -0.897696
v 1.248089 4.643285 -0.915487
v 1.234377 4.629209 -0.950253
v 0.927886 5.048886 -1.218124
v -3.607633 3.602026 -1.937785
vt 0.7341 0.6580
vt 0.7180 0.6634
vt 0.7091 0.6555
vt 0.7212 0.6436
vt 0.6635 0.6411
vt 0.6654 0.6547
vt 0.6562 0.6596
vt 0.6480 0.6478
vt 0.6491 0.6670
vt 0.6371 0.6594
vt 0.6984 0.6505
vt 0.7040 0.6361
vt 0.7008 0.6807
vt 0.6980 0.6871
vt 0.6939 0.6842
vt 0.6940 0.6772
vt 0.6849 0.7282
vt 0.6788 0.7278
vt 0.6808 0.7230
vt 0.6690 0.6799
vt 0.6725 0.6845
vt 0.6652 0.6892
vt 0.6629 0.6834
vt 0.6666 0.7049
vt 0.6655 0.7112
vt 0.6573 0.7103
vt 0.6592 0.7049
vt 0.6862 0.6756
vt 0.6752 0.6771
vt 0.6739 0.7307
vt 0.6751 0.7235
vt 0.6717 0.7093
vt 0.6754 0.6827
vt 0.6719 0.7152
vt 0.6622 0.7166
vt 0.6543 0.7150
vt 0.6649 0.7376
vt 0.6615 0.7352
vt 0.6571 0.7322
vt 0.6545 0.7277
vt 0.6501 0.7255
vt 0.6890 0.6881
vt 0.6798 0.6852
vt 0.6833 0.7008
vt 0.6778 0.7011
vt 0.6940 0.7010
vt 0.6886 0.7007
vt 0.6703 0.7021
vt 0.6836 0.7167
vt 0.6807 0.7163
vt 0.6770 0.7160
vt 0.6914 0.7163
vt 0.6877 0.7165
vt 0.6461 0.7174
vt 0.6433 0.7161
vt 0.6459 0.7008
vt 0.6472 0.7015
vt 0.6409 0.7157
vt 0.6444 0.7007
vt 0.6487 0.7174
vt 0.6485 0.7015
vt 0.6524 0.7157
vt 0.6499 0.7007
vt 0.7048 0.7393
vt 0.7007 0.7396
vt 0.6991 0.7313
vt 0.7031 0.7292
vt 0.7183 0.7403
vt 0.7139 0.7420
vt 0.7146 0.7338
vt 0.7196 0.7318
vt 0.7092 0.7410
vt 0.7098 0.7306
vt 0.7037 0.7177
vt 0.7063 0.7190
vt 0.7122 0.7185
vt 0.7150 0.7182
vt 0.7094 0.7190
vt 0.7088 0.6984
vt 0.7099 0.6984
vt 0.7108 0.6979
vt 0.7081 0.6980
vt 0.7118 0.6979
vt 0.7315 0.7340
vt 0.7270 0.7345
vt 0.7276 0.7173
vt 0.7298 0.7170
vt 0.6605 0.7389
vt 0.6556 0.7362
vt 0.6523 0.7304
vt 0.6479 0.7282
vt 0.6642 0.7411
vt 0.7248 0.7179
vt 0.7230 0.6940
vt 0.7246 0.6933
vt 0.7363 0.7352
vt 0.7326 0.7169
vt 0.7223 0.7365
vt 0.7398 0.7345
vt 0.7349 0.7164
vt 0.7287 0.6933
vt 0.7277 0.6938
vt 0.7223 0.6650
vt 0.7260 0.6935
vt 0.6449 0.6846
vt 0.6456 0.6840
vt 0.6465 0.6845
vt 0.6472 0.6850
vt 0.6481 0.6845
vt 0.6456 0.6687
vt 0.6793 0.7189
vt 0.6760 0.7186
vt 0.6775 0.6733
vt 0.6749 0.6724
vt 0.6779 0.6602
vt 0.6795 0.6603
vt 0.6914 0.7193
vt 0.6883 0.7196
vt 0.6848 0.7196
vt 0.6822 0.6454
vt 0.6829 0.6457
vt 0.6853 0.6736
vt 0.6824 0.6740
vt 0.6830 0.6612
vt 0.6847 0.6613
vt 0.6798 0.6741
vt 0.6813 0.6607
vt 0.6837 0.6458
vt 0.6853 0.6343
vt 0.6845 0.6456
vt 0.6853 0.6458
vt 0.7094 0.6785
vn 0.6070 0.3163 0.7291
vn -0.6296 0.1783 -0.7562
vn 0.7257 0.3293 -0.6042
vn -0.7581 0.1637 0.6312
vn 0.0815 -0.2136 0.9735
vn -0.1612 -0.0733 -0.9842
vn 0.9582 -0.1536 -0.2416
vn -0.9597 -0.2805 0.0167
vn -0.9144 0.1133 0.3887
vn 0.9229 0.0366 -0.3832
vn -0.3750 0.0888 -0.9228
vn 0.3872 0.0612 0.9200
vn 0.0049 -0.1706 -0.9853
vn 0.0071 -0.0856 0.9963
vn -0.1738 -0.0514 -0.9834
vn -0.0956 0.1000 0.9904
vn -0.6139 -0.7685 -0.1803
vn 0.1283 -0.0324 -0.9912
vn -0.2601 0.1324 0.9565
vn -0.5488 -0.8138 -0.1912
vn 0.0128 0.0031 0.9999
vn -0.1586 -0.0552 -0.9858
vn 0.1331 0.3718 -0.9187
vn -0.0653 -0.2392 0.9688
vn 0.9052 -0.2396 -0.3510
vn -0.8591 0.4031 0.3152
vn 0.5336 0.8457 -0.0098
vn -0.4088 0.3486 -0.8434
vn 0.2428 -0.7280 -0.6411
vn 0.5512 -0.1619 0.8185
vn -0.1540 0.7958 0.5856
vn 0.0469 0.8210 0.5690
vn 0.0509 -0.4256 0.9035
vn 0.0362 0.4907 -0.8706
vn 0.0609 -0.7659 -0.6400
vn 0.6658 -0.1040 -0.7388
vn -0.2318 -0.9666 0.1093
vn 0.2906 0.9349 -0.2038
vn -0.6887 -0.0077 0.7250
vn 0.2765 -0.1428 -0.9503
vn -0.6992 -0.7143 0.0302
vn 0.7177 0.6902 -0.0925
vn -0.5161 0.1017 0.8504
vn 0.5114 0.8421 -0.1711
vn -0.6449 0.3745 0.6662
vn 0.5489 -0.4038 -0.7319
vn -0.4799 -0.8773 0.0047
vn 0.2273 0.9261 -0.3010
vn -0.0926 0.9776 -0.1892
vn 0.1949 -0.9793 0.0540
vn 0.4921 -0.1119 -0.8633
vn -0.5788 0.3549 -0.7342
vn 0.7041 -0.3313 0.6280
vn -0.7971 0.2282 -0.5591
vn -0.2783 -0.8720 0.4026
vn 0.0109 -0.9169 0.3990
vn -0.1505 0.9481 0.2800
vn 0.1239 -0.9661 -0.2265
vn 0.5239 -0.4530 0.7214
vn 0.5843 -0.1734 0.7928
vn -0.6516 0.0448 -0.7572
vn -0.0319 0.9348 -0.3537
vn -0.6415 -0.2208 0.7346
vn 0.6493 0.2535 -0.7171
vn 0.7689 -0.5671 -0.2953
vn -0.7154 0.6535 0.2472
vn -0.8393 0.4996 0.2145
vn -0.0154 -0.0110 0.9998
vn 0.0216 0.0816 -0.9964
vn 0.8487 -0.4593 -0.2622
vn 0.0613 -0.6085 -0.7912
vn 0.9776 -0.2098 0.0171
vn 0.0608 -0.5897 0.8053
vn 0.0525 0.6864 0.7253
vn 0.9052 -0.1498 -0.3978
vn -0.1286 -0.7839 -0.6074
vn -0.9501 0.3003 -0.0848
vn 0.2267 0.8205 0.5248
vn 0.3316 0.7182 0.6117
vn 0.4414 0.3937 0.8063
vn -0.3387 -0.3679 -0.8660
vn -0.9021 0.2035 0.3805
vn -0.2790 -0.6531 -0.7040
vn -0.8594 -0.2430 0.4498
vn 0.8318 0.3163 -0.4561
vn -0.1140 0.8896 -0.4422
vn -0.2803 -0.0281 0.9595
vn 0.2358 0.0039 -0.9718
vn 0.1335 -0.9518 0.2762
s off
f 4/1/1 8/2/1 7/3/1 3/4/1
f 2/5/2 6/6/2 5/7/2 1/8/2
f 1/8/3 5/7/3 8/9/3 4/10/3
f 3/4/4 7/3/4 6/11/4 2/12/4
f 14/13/5 12/14/5 17/15/5 13/16/5
f 16/17/6 10/18/6 18/19/6
f 15/20/7 9/21/7 12/22/7 14/23/7
f 13/24/8 11/25/8 10/26/8 16/27/8
f 7/3/9 13/16/9 16/28/9 6/11/9
f 5/7/10 15/20/10 14/23/10 8/9/10
f 6/6/11 16/29/11 15/20/11 5/7/11
f 8/2/12 14/13/12 13/16/12 7/3/12
f 18/19/13 10/18/13 19/30/13 22/31/13
f 13/24/14 17/32/14 11/25/14
f 18/33/15 9/21/15 15/20/15 16/29/15
f 11/25/16 17/32/16 21/34/16 20/35/16
f 10/26/17 11/25/17 20/35/17 19/36/17
f 22/31/18 19/30/18 23/37/18 26/38/18
f 20/35/19 21/34/19 25/39/19 24/40/19
f 19/36/20 20/35/20 24/40/20 23/41/20
f 17/15/21 12/14/21 21/42/21
f 18/33/22 22/43/22 9/21/22
f 9/21/23 22/43/23 30/44/23 27/45/23
f 21/42/24 12/14/24 28/46/24 29/47/24
f 12/22/25 9/21/25 27/45/25 28/48/25
f 22/43/26 21/42/26 29/47/26 30/44/26
f 26/38/27 25/39/27 21/34/27 22/31/27
f 27/45/28 30/44/28 34/49/28 31/50/28
f 28/48/29 27/45/29 31/50/29 32/51/29
f 29/47/30 28/46/30 32/52/30 33/53/30
f 30/44/31 29/47/31 33/53/31 34/49/31
f 70/54/32 69/55/32 37/56/32 38/57/32
f 69/55/33 71/58/33 36/59/33 37/56/33
f 72/60/34 70/54/34 38/57/34 35/61/34
f 71/62/35 72/60/35 35/61/35 36/63/35
f 52/64/36 51/65/36 39/66/36 42/67/36
f 51/68/37 53/69/37 40/70/37 39/71/37
f 54/72/38 52/64/38 42/67/38 41/73/38
f 53/69/39 54/72/39 41/73/39 40/70/39
f 42/67/40 39/66/40 43/74/40 46/75/40
f 39/71/41 40/70/41 44/76/41 43/77/41
f 41/73/42 42/67/42 46/75/42 45/78/42
f 40/70/43 41/73/43 45/78/43 44/76/43
f 45/78/44 46/75/44 50/79/44 49/80/44
f 44/76/45 45/78/45 49/80/45 48/81/45
f 46/75/46 43/74/46 47/82/46 50/79/46
f 43/77/47 44/76/47 48/81/47 47/83/47
f 25/84/48 54/85/48 58/86/48 56/87/48
f 25/39/49 26/38/49 52/88/49 54/89/49
f 23/41/50 24/40/50 53/90/50 51/91/50
f 26/38/51 23/37/51 51/92/51 52/88/51
f 58/86/52 57/93/52 61/94/52 62/95/52
f 24/96/53 25/84/53 56/87/53 55/97/53
f 54/85/54 53/98/54 57/93/54 58/86/54
f 53/99/55 24/96/55 55/97/55 57/100/55
f 61/101/56 59/102/56 63/103/56
f 56/87/57 58/86/57 62/95/57 60/104/57
f 57/100/58 55/97/58 59/102/58 61/101/58
f 55/97/59 56/87/59 60/104/59 59/102/59
f 59/102/60 60/104/60 63/103/60
f 62/95/61 61/94/61 63/103/61
f 60/104/62 62/95/62 63/103/62
f 37/56/63 36/59/63 65/105/63 66/106/63
f 35/61/64 38/57/64 67/107/64 64/108/64
f 36/63/65 35/61/65 64/108/65 65/109/65
f 38/57/66 37/56/66 66/106/66 67/107/66
f 67/107/67 66/106/67 68/110/67
f 66/106/68 65/105/68 68/110/68
f 64/108/69 67/107/69 68/110/69
f 65/109/70 64/108/70 68/110/70
f 32/51/71 31/50/71 72/111/71 71/112/71
f 70/113/72 72/114/72 76/115/72 75/116/72
f 33/53/73 32/52/73 71/117/73 69/118/73
f 34/49/74 33/53/74 69/118/74 70/119/74
f 75/116/75 76/115/75 80/120/75 79/121/75
f 72/122/76 31/123/76 73/124/76 76/125/76
f 31/123/77 34/126/77 74/127/77 73/124/77
f 34/126/78 70/113/78 75/116/78 74/127/78
f 78/128/79 79/121/79 81/129/79
f 74/127/80 75/116/80 79/121/80 78/128/80
f 76/125/81 73/124/81 77/130/81 80/131/81
f 73/124/82 74/127/82 78/128/82 77/130/82
f 80/131/83 77/130/83 81/129/83
f 77/130/84 78/128/84 81/129/84
f 79/121/85 80/120/85 81/129/85
f 49/80/86 50/79/86 82/132/86
f 48/81/87 49/80/87 82/132/87
f 50/79/88 47/82/88 82/132/88
f 47/83/89 48/81/89 82/132/89
