# Blender v2.78 (sub 0) OBJ File: 'Low_Poly_Trees_Pack.blend'
# www.blender.org
g Dead_Tree_s_04
v 0.000000 0.000000 -0.120000
v -0.103923 0.000000 0.060000
v 0.103923 0.000000 0.060000
v -0.011356 0.681330 -0.009065
v -0.040212 0.664073 0.109768
v 0.067667 0.720860 0.083336
v -0.184046 1.169030 -0.062239
v -0.227321 1.179279 0.017577
v -0.140770 1.158781 -0.003993
v -0.128600 1.730055 -0.159675
v -0.149096 1.740243 -0.085714
v -0.084980 1.703551 -0.107951
v -0.290484 1.928954 -0.186277
v -0.084245 1.789943 -0.108356
v 0.011319 1.755024 -0.300748
v 0.029765 1.749726 -0.283017
v 0.023364 1.780113 -0.283895
v 0.214002 1.972623 -0.424315
v 0.014786 0.831961 0.061181
v 0.087557 0.986794 0.400860
v 0.133073 1.005367 0.376674
v 0.107835 1.047415 0.351975
v 0.182953 1.590211 0.577030
v 0.192429 1.590195 0.567769
v 0.183937 1.591370 0.557628
v 0.251906 1.953954 0.765328
v -0.299216 1.933295 -0.154764
v -0.271585 1.954471 -0.164411
v -0.465937 2.302872 -0.344977
vt 0.6827 0.6376
vt 0.6794 0.6676
vt 0.6739 0.6686
vt 0.6746 0.6376
vt 0.6690 0.6663
vt 0.6656 0.6378
vt 0.6906 0.6396
vt 0.6849 0.6675
vt 0.6749 0.6735
vt 0.6692 0.6683
vt 0.6766 0.6896
vt 0.6733 0.6914
vt 0.6830 0.6907
vt 0.6795 0.6906
vt 0.6810 0.7118
vt 0.6785 0.7107
vt 0.6761 0.7124
vt 0.6837 0.7118
vt 0.7093 0.6390
vt 0.7119 0.6380
vt 0.7132 0.6466
vt 0.7118 0.6465
vt 0.6787 0.7131
vt 0.6796 0.7212
vt 0.6782 0.7212
vt 0.6813 0.7210
vt 0.7153 0.6606
vt 0.6825 0.7210
vt 0.7153 0.6376
vt 0.7144 0.6460
vt 0.7065 0.6395
vt 0.7107 0.6468
vt 0.6995 0.6554
vt 0.7026 0.6543
vt 0.7013 0.6818
vt 0.7005 0.6816
vt 0.7001 0.6401
vt 0.7065 0.6376
vt 0.6954 0.6386
vt 0.6973 0.6548
vt 0.6906 0.6376
vt 0.6950 0.6547
vt 0.7010 0.6993
vt 0.7000 0.6818
vt 0.6995 0.6819
vt 0.6812 0.7389
vn 0.8218 0.0819 -0.5638
vn 0.0930 -0.0543 0.9942
vn -0.9124 0.0834 -0.4006
vn 0.7017 0.1975 -0.6846
vn 0.1999 0.2580 0.9452
vn -0.8725 -0.3608 -0.3295
vn 0.7378 -0.1921 -0.6472
vn 0.3239 0.1362 0.9362
vn -0.9211 0.0404 -0.3873
vn -0.5710 0.7098 -0.4125
vn 0.0437 0.3664 0.9294
vn 0.5112 0.3088 -0.8021
vn -0.7767 0.5628 -0.2828
vn -0.7615 -0.6363 -0.1234
vn 0.3285 0.0016 0.9445
vn 0.8414 0.0467 0.5384
vn -0.1288 -0.9402 -0.3154
vn 0.4996 0.1300 0.8565
vn 0.3812 -0.6988 -0.6053
vn -0.9730 0.1893 -0.1317
vn 0.7465 0.2090 -0.6317
vn -0.9420 0.3319 0.0505
vn 0.8365 0.2831 -0.4692
vn 0.5082 -0.6757 0.5341
vn -0.9781 0.2048 -0.0374
vn 0.7836 0.1202 -0.6095
vn 0.5682 -0.3096 0.7624
vn 0.7616 0.2087 -0.6135
vn 0.6240 -0.4493 0.6393
vn -0.8614 -0.4776 -0.1729
vn 0.7262 0.0497 -0.6857
vn -0.0301 0.4466 0.8942
s off
f 1/1/1 4/2/1 6/3/1 3/4/1
f 3/4/2 6/3/2 5/5/2 2/6/2
f 2/7/3 5/8/3 4/2/3 1/1/3
f 6/3/4 4/2/4 19/9/4
f 5/10/5 19/9/5 9/11/5 8/12/5
f 4/2/6 5/8/6 8/13/6 7/14/6
f 9/11/7 7/14/7 10/15/7 12/16/7
f 8/12/8 9/11/8 12/16/8 11/17/8
f 7/14/9 8/13/9 11/18/9 10/15/9
f 10/19/10 14/20/10 17/21/10 15/22/10
f 11/17/11 14/23/11 28/24/11 27/25/11
f 14/23/12 10/15/12 13/26/12 28/24/12
f 15/22/13 17/21/13 18/27/13
f 10/15/14 11/18/14 27/28/14 13/26/14
f 14/23/15 11/17/15 12/16/15
f 14/20/16 12/29/16 16/30/16 17/21/16
f 12/31/17 10/19/17 15/22/17 16/32/17
f 17/21/18 16/30/18 18/27/18
f 16/32/19 15/22/19 18/27/19
f 22/33/20 20/34/20 23/35/20 25/36/20
f 19/9/21 4/2/21 7/14/21 9/11/21
f 19/37/22 5/38/22 20/34/22 22/33/22
f 6/39/23 19/37/23 22/33/23 21/40/23
f 5/41/24 6/39/24 21/40/24 20/42/24
f 25/36/25 23/35/25 26/43/25
f 21/40/26 22/33/26 25/36/26 24/44/26
f 20/42/27 21/40/27 24/44/27 23/45/27
f 24/44/28 25/36/28 26/43/28
f 23/45/29 24/44/29 26/43/29
f 13/26/30 27/28/30 29/46/30
f 28/24/31 13/26/31 29/46/31
f 27/25/32 28/24/32 29/46/32
