# Blender v2.78 (sub 0) OBJ File: 'Low_Poly_Trees_Pack.blend'
# www.blender.org
g Dead_Tree_s_05
v 0.118177 0.000000 -0.020838
v -0.077135 0.000000 -0.091925
v -0.041042 0.000000 0.112763
v -0.033778 0.681330 -0.243768
v -0.155816 0.664073 -0.251550
v -0.111053 0.720860 -0.149900
v 0.037084 1.155495 -0.116389
v -0.047973 1.172846 -0.143239
v -0.011700 1.152348 -0.061748
v -0.093465 1.689522 -0.349203
v -0.147502 1.694114 -0.346823
v -0.115195 1.717594 -0.312407
v 0.023092 1.222866 -0.141328
v 0.269444 1.308384 0.129451
v 0.250716 1.302453 0.154450
v 0.251267 1.329395 0.114107
v 0.354242 1.639592 0.234537
v 0.343758 1.635588 0.249493
v 0.342185 1.650225 0.225052
v 0.419363 1.799096 0.373401
v -0.438618 2.094418 -0.710219
v -0.415538 2.092527 -0.709416
v -0.425773 2.100992 -0.692194
v -0.396638 2.368144 -0.810809
v 0.110200 1.774359 -0.362962
v -0.115679 1.720793 -0.374887
v 0.109730 1.801057 -0.351939
v 0.109558 1.796830 -0.378711
v 0.273948 1.975106 -0.344037
vt 0.5685 0.6346
vt 0.5656 0.6610
vt 0.5604 0.6622
vt 0.5622 0.6335
vt 0.5560 0.6598
vt 0.5560 0.6353
vt 0.5750 0.6373
vt 0.5703 0.6610
vt 0.5636 0.6797
vt 0.5614 0.6795
vt 0.5585 0.6806
vt 0.5669 0.6808
vt 0.5638 0.6822
vt 0.5621 0.7006
vt 0.5604 0.7009
vt 0.5585 0.7011
vt 0.5792 0.6474
vt 0.5811 0.6475
vt 0.5811 0.6608
vt 0.5802 0.6608
vt 0.5639 0.7017
vt 0.5801 0.6335
vt 0.5833 0.6339
vt 0.5780 0.6335
vt 0.5781 0.6475
vt 0.5750 0.6337
vt 0.5769 0.6476
vt 0.5801 0.6685
vt 0.5796 0.6608
vt 0.5789 0.6609
vt 0.5620 0.7023
vt 0.5586 0.7260
vt 0.5578 0.7259
vt 0.5569 0.7261
vt 0.5594 0.7264
vt 0.5568 0.7366
vt 0.5830 0.6732
vt 0.5835 0.6723
vt 0.5936 0.6734
vt 0.5753 0.6734
vt 0.5750 0.6718
vt 0.5750 0.6699
vt 0.5837 0.6712
vt 0.5757 0.6685
vt 0.5833 0.6701
vn 0.6819 0.3334 0.6510
vn -0.9655 -0.0246 0.2594
vn 0.2465 -0.2257 -0.9425
vn 0.6943 -0.2875 0.6598
vn -0.9164 0.1223 0.3812
vn 0.1616 0.2022 -0.9659
vn 0.7637 0.3911 0.5136
vn -0.8601 0.0515 0.5076
vn 0.2324 -0.2948 -0.9268
vn -0.9625 0.2212 0.1572
vn 0.1264 -0.3577 -0.9252
vn -0.6707 0.6599 0.3386
vn 0.7444 -0.0330 -0.6669
vn 0.3644 -0.9083 0.2054
vn -0.9382 0.2669 0.2203
vn 0.6721 0.0633 -0.7378
vn 0.7935 -0.3602 0.4906
vn 0.7536 0.6555 0.0489
vn 0.7273 0.2571 -0.6364
vn 0.7231 -0.5973 0.3469
vn -0.7644 0.0241 0.6443
vn -0.0894 -0.6693 -0.7376
vn 0.0043 -0.3455 -0.9384
vn -0.8249 0.3021 0.4777
vn 0.8774 0.1115 0.4666
vn 0.6155 -0.4405 -0.6535
vn -0.0475 -0.6896 -0.7226
vn 0.1743 -0.5537 -0.8143
vn -0.3347 0.9423 -0.0084
vn 0.3122 -0.5498 0.7747
vn 0.3339 -0.3547 0.8733
vn -0.7211 0.6851 -0.1035
s off
f 1/1/1 4/2/1 6/3/1 3/4/1
f 3/4/2 6/3/2 5/5/2 2/6/2
f 2/7/3 5/8/3 4/2/3 1/1/3
f 6/3/4 4/2/4 7/9/4 9/10/4
f 5/5/5 6/3/5 9/10/5 8/11/5
f 4/2/6 5/8/6 8/12/6 7/9/6
f 9/10/7 13/13/7 10/14/7 12/15/7
f 8/11/8 9/10/8 12/15/8 11/16/8
f 7/9/9 8/12/9 13/13/9
f 16/17/10 15/18/10 18/19/10 19/20/10
f 13/13/11 8/12/11 11/21/11 10/14/11
f 13/22/12 9/23/12 15/18/12 16/17/12
f 7/24/13 13/22/13 16/17/13 14/25/13
f 9/26/14 7/24/14 14/25/14 15/27/14
f 19/20/15 18/19/15 20/28/15
f 14/25/16 16/17/16 19/20/16 17/29/16
f 15/27/17 14/25/17 17/29/17 18/30/17
f 12/15/18 26/31/18 22/32/18 23/33/18
f 17/29/19 19/20/19 20/28/19
f 18/30/20 17/29/20 20/28/20
f 11/16/21 12/15/21 23/33/21 21/34/21
f 10/14/22 11/21/22 26/31/22
f 22/32/23 21/35/23 24/36/23
f 21/34/24 23/33/24 24/36/24
f 23/33/25 22/32/25 24/36/25
f 25/37/26 28/38/26 29/39/26
f 26/31/27 11/21/27 21/35/27 22/32/27
f 10/40/28 26/41/28 28/38/28 25/37/28
f 26/41/29 12/42/29 27/43/29 28/38/29
f 12/42/30 10/44/30 25/45/30 27/43/30
f 27/43/31 25/45/31 29/39/31
f 28/38/32 27/43/32 29/39/32
