# Blender v2.78 (sub 0) OBJ File: 'Low_Poly_Trees_Pack.blend'
# www.blender.org
g Dead_Tree_crk_m_03
v 0.000000 0.000000 -0.490066
v -0.490066 0.000000 0.000000
v 0.000000 0.000000 0.490066
v 0.490066 0.000000 -0.000000
v -0.160282 0.899348 -0.322432
v -0.340266 0.899348 0.099835
v 0.082001 0.899348 0.279820
v 0.261985 0.899348 -0.142447
v -0.992111 0.158134 1.025649
v -0.969680 -0.078762 1.256568
v -0.692531 0.012475 1.407191
v -0.725798 0.271788 1.159831
v -1.228588 0.348523 1.747339
v -1.263342 0.192493 1.766328
v -0.966851 0.095092 1.832672
v -0.917090 0.300317 1.809766
v -1.118669 0.334459 1.496249
v -0.865430 0.301531 1.701070
v -0.929927 0.050641 1.730339
v -1.176023 0.106377 1.523750
v -1.142401 0.094565 1.851260
v -1.066721 0.388675 1.820668
v -0.576811 0.073802 2.379286
v -0.554927 0.175950 2.373412
v -0.661416 0.098928 2.399740
v -0.640324 0.201311 2.394057
v -0.409661 -0.043155 3.060690
v -0.402681 -0.013933 3.060260
v -0.427039 -0.037054 3.079067
v -0.420222 -0.007775 3.078808
v -1.894140 0.599693 2.281573
v -1.941424 0.425489 2.306191
v -1.874840 0.418294 2.433015
v -1.828084 0.592555 2.407391
v -1.698067 0.519488 2.301700
v -1.725182 0.404986 2.321720
v -1.805475 0.416972 2.203599
v -1.777724 0.531379 2.184514
v -1.916711 0.515304 2.294114
v -1.849203 0.512850 2.419602
v -3.040659 -0.069629 2.283193
v -3.038008 -0.070827 2.319089
v -3.037211 -0.039347 2.283950
v -3.034252 -0.037733 2.319773
v -2.148492 0.857468 2.355143
v -2.127926 0.857957 2.428802
v -2.207638 0.802896 2.381863
v -2.181431 0.808708 2.453341
v -2.234227 1.095987 2.407725
v -2.226999 1.094984 2.421126
v -2.244646 1.085756 2.412579
v -2.236573 1.085551 2.425653
v -2.539319 0.353773 2.565864
v -2.524047 0.274534 2.546253
v -2.554026 0.289387 2.464078
v -2.567893 0.361848 2.482324
v -1.002976 0.747988 2.038121
v -1.031325 0.798394 1.910441
v -0.964316 0.804924 1.966867
v -1.055814 0.755476 1.996550
v -1.061858 1.537977 2.139120
v -1.082802 1.542171 2.031566
v -1.026623 1.547613 2.070771
v -1.103197 1.543240 2.106500
v -1.347672 2.078402 2.521272
v -1.357883 2.098865 2.496465
v -1.342786 2.099484 2.511258
v -1.360442 2.080351 2.511357
v -0.119950 1.725487 0.155070
v 0.088810 1.804476 -0.135105
v 0.186477 1.738873 0.341750
v 0.342497 1.826979 0.057200
vt 0.5836 0.6465
vt 0.5775 0.6719
vt 0.5639 0.6688
vt 0.5471 0.6391
vt 0.5491 0.6676
vt 0.5349 0.6670
vt 0.5657 0.6409
vt 0.5272 0.6413
vt 0.5219 0.6699
vt 0.5081 0.6470
vt 0.5566 0.6967
vt 0.5478 0.6934
vt 0.5382 0.6914
vt 0.5290 0.6960
vt 0.5656 0.6967
vt 0.5830 0.7137
vt 0.5782 0.7157
vt 0.5822 0.7019
vt 0.5840 0.7021
vt 0.5897 0.6563
vt 0.5978 0.6616
vt 0.5930 0.6636
vt 0.5153 0.7035
vt 0.5185 0.6968
vt 0.5212 0.6989
vt 0.5184 0.7051
vt 0.6150 0.6592
vt 0.6201 0.6628
vt 0.6154 0.6684
vt 0.6110 0.6662
vt 0.5765 0.6968
vt 0.5730 0.7059
vt 0.5618 0.7039
vt 0.5613 0.6969
vt 0.5722 0.7155
vt 0.5762 0.7253
vt 0.5603 0.7210
vt 0.5606 0.7134
vt 0.5765 0.7347
vt 0.5618 0.7306
vt 0.5170 0.7100
vt 0.5403 0.7056
vt 0.5397 0.7081
vt 0.5081 0.7086
vt 0.6067 0.6632
vt 0.5224 0.7214
vt 0.5184 0.7184
vt 0.5399 0.7113
vt 0.5414 0.7135
vt 0.5401 0.7028
vt 0.5603 0.7066
vt 0.5602 0.7073
vt 0.5599 0.7052
vt 0.5603 0.7058
vt 0.5598 0.7044
vt 0.5580 0.7157
vt 0.5550 0.7210
vt 0.5530 0.7186
vt 0.6040 0.6876
vt 0.6073 0.6884
vt 0.6052 0.6925
vt 0.6027 0.6927
vt 0.6000 0.6866
vt 0.5986 0.6917
vt 0.5558 0.7118
vt 0.5513 0.7147
vt 0.5966 0.6856
vt 0.5924 0.6853
vt 0.5346 0.7219
vt 0.5356 0.7240
vt 0.5156 0.7270
vt 0.5148 0.7263
vt 0.5544 0.7258
vt 0.5579 0.7294
vt 0.5531 0.7282
vt 0.5964 0.6908
vt 0.5351 0.7263
vt 0.5346 0.7284
vt 0.5146 0.7288
vt 0.5152 0.7281
vt 0.5333 0.7198
vt 0.5142 0.7254
vt 0.5762 0.7016
vt 0.5762 0.7026
vt 0.5752 0.7025
vt 0.5751 0.7016
vt 0.5923 0.6920
vt 0.5959 0.7031
vt 0.5939 0.7035
vt 0.6002 0.7039
vt 0.5980 0.7035
vt 0.6025 0.7043
vt 0.5976 0.7108
vt 0.5973 0.7107
vt 0.5984 0.7110
vt 0.5980 0.7110
vt 0.5968 0.7108
vt 0.5759 0.7035
vt 0.5751 0.7036
vt 0.5752 0.7027
vt 0.5759 0.7026
vt 0.5751 0.7049
vt 0.5751 0.7044
vt 0.5756 0.7045
vt 0.5756 0.7049
vt 0.5797 0.7008
vt 0.5808 0.6785
vt 0.5831 0.6777
vt 0.5889 0.7199
vt 0.5869 0.7018
vt 0.5956 0.7162
vt 0.5895 0.7008
vt 0.5749 0.7164
vt 0.5889 0.6785
vt 0.5868 0.6788
vt 0.5859 0.6538
vt 0.5866 0.6536
vt 0.5849 0.6777
vt 0.5758 0.7043
vt 0.5751 0.7044
vt 0.5753 0.7037
vt 0.5758 0.7036
vt 0.5847 0.6539
vt 0.5852 0.6539
vt 0.5840 0.6536
vt 0.6885 0.8223
vt 0.6572 0.8223
vt 0.6582 0.7930
vt 0.6859 0.7905
vt 0.7175 0.8190
vt 0.6887 0.8218
vt 0.6887 0.7939
vt 0.7199 0.7905
vn 0.3812 0.2346 -0.8942
vn -0.3803 0.2433 0.8923
vn 0.8822 0.2833 0.3760
vn -0.9026 0.1931 -0.3847
vn 0.7035 0.1003 0.7035
vn -0.7066 0.0393 0.7066
vn -0.7071 0.0058 -0.7071
vn 0.7055 0.0672 -0.7055
vn 0.8996 -0.1546 0.4084
vn -0.8528 0.2919 -0.4330
vn 0.4776 0.0985 -0.8731
vn -0.4497 0.0249 0.8928
vn -0.3358 -0.4434 0.8311
vn -0.6451 -0.7631 0.0387
vn 0.8941 -0.1769 0.4115
vn -0.9030 0.1687 -0.3950
vn -0.9260 -0.1279 -0.3552
vn 0.9102 0.1530 0.3850
vn -0.1202 -0.9551 0.2709
vn -0.0188 0.9787 -0.2043
vn -0.0861 -0.9949 0.0531
vn -0.1616 -0.9841 0.0735
vn -0.1811 0.9743 -0.1338
vn 0.4295 0.9017 -0.0506
vn 0.7896 -0.2370 -0.5660
vn -0.7359 0.2376 0.6340
vn 0.3481 0.9213 0.1735
vn -0.3199 -0.9440 -0.0811
vn 0.9382 -0.2190 -0.2681
vn -0.9107 0.2091 0.3563
vn 0.5934 -0.0469 0.8035
vn -0.6212 0.0327 -0.7830
vn 0.3878 0.9075 -0.1615
vn -0.0928 -0.9954 -0.0223
vn -0.4519 -0.8914 -0.0347
vn 0.0733 0.9688 -0.2367
vn -0.6177 0.0321 -0.7858
vn 0.6039 -0.0534 0.7953
vn -0.2933 -0.1990 0.9351
vn -0.5991 0.0575 -0.7986
vn 0.6155 -0.0221 0.7878
vn 0.2206 0.1990 -0.9549
vn 0.6257 -0.7310 -0.2723
vn -0.9909 0.1109 0.0769
vn -0.6777 0.7026 0.2171
vn -0.6181 -0.7239 0.3064
vn 0.6406 0.7247 -0.2540
vn -0.3415 -0.0641 -0.9377
vn 0.2169 0.1494 0.9647
vn 0.2928 0.1528 0.9439
vn -0.4428 0.0389 -0.8958
vn -0.9124 -0.1523 0.3800
vn 0.8854 0.3706 -0.2805
vn -0.1922 0.9717 0.1373
vn 0.1752 -0.9674 -0.1830
vn -0.2754 0.0549 -0.9598
vn 0.2002 -0.0468 0.9786
vn 0.6916 -0.1548 0.7054
vn -0.5632 0.7441 0.3594
vn 0.8824 0.0069 0.4704
vn -0.9953 0.0718 0.0646
vn 0.5800 0.4731 -0.6632
vn 0.8991 -0.0512 0.4347
vn 0.3936 0.6983 -0.5979
vn 0.5948 0.1646 -0.7868
vn -0.6243 -0.1447 0.7676
vn -0.9617 -0.0208 -0.2734
vn -0.5547 0.5152 0.6533
vn -0.5170 -0.6593 0.5459
vn -0.9316 -0.2288 -0.2825
vn 0.8664 0.1107 0.4870
vn -0.1769 0.9695 0.1696
vn 0.5408 -0.5515 -0.6351
s off
f 1/1/1 5/2/1 8/3/1
f 3/4/2 7/5/2 6/6/2
f 4/7/3 8/3/3 7/5/3
f 2/8/4 6/6/4 5/9/4
f 3/4/5 4/7/5 7/5/5
f 2/8/6 3/4/6 6/6/6
f 1/10/7 2/8/7 5/9/7
f 4/7/8 1/1/8 8/3/8
f 7/5/9 8/3/9 72/11/9 71/12/9
f 5/9/10 6/6/10 69/13/10 70/14/10
f 8/3/11 5/2/11 70/15/11 72/11/11
f 6/6/12 7/5/12 71/12/12 69/13/12
f 22/16/13 16/17/13 57/18/13 60/19/13
f 20/20/14 21/21/14 14/22/14
f 19/23/15 18/24/15 16/25/15 15/26/15
f 17/27/16 20/28/16 14/29/16 13/30/16
f 9/31/17 10/32/17 20/33/17 17/34/17
f 11/35/18 12/36/18 18/37/18 19/38/18
f 10/32/19 11/35/19 19/38/19 20/33/19
f 12/36/20 9/39/20 17/40/20 18/37/20
f 21/41/21 15/26/21 23/42/21 25/43/21
f 21/41/22 20/44/22 19/23/22 15/26/22
f 22/45/23 17/27/23 13/30/23
f 16/46/24 22/47/24 26/48/24 24/49/24
f 15/26/25 16/25/25 24/50/25 23/42/25
f 25/43/26 26/48/26 22/47/26 21/41/26
f 24/49/27 26/48/27 30/51/27 28/52/27
f 25/43/28 23/42/28 27/53/28 29/54/28
f 23/42/29 24/50/29 28/55/29 27/53/29
f 26/48/30 25/43/30 29/54/30 30/51/30
f 36/56/31 40/57/31 33/58/31
f 38/59/32 37/60/32 39/61/32 31/62/32
f 35/63/33 38/59/33 31/62/33 34/64/33
f 37/65/34 36/56/34 33/58/34 32/66/34
f 14/22/35 21/21/35 36/67/35 37/68/35
f 22/45/36 13/30/36 38/59/36 35/63/36
f 13/30/37 14/29/37 37/60/37 38/59/37
f 21/21/38 22/45/38 35/63/38 36/67/38
f 54/69/39 53/70/39 44/71/39 42/72/39
f 39/73/40 37/74/40 32/75/40
f 40/76/41 36/67/41 35/63/41 34/64/41
f 56/77/42 55/78/42 41/79/42 43/80/42
f 55/81/43 54/69/43 42/72/43 41/82/43
f 42/83/44 44/84/44 43/85/44 41/86/44
f 53/70/45 56/77/45 43/80/45 44/71/45
f 39/87/46 40/76/46 48/88/46 47/89/46
f 34/64/47 31/62/47 45/90/47 46/91/47
f 31/62/48 39/61/48 47/92/48 45/90/48
f 40/76/49 34/64/49 46/91/49 48/88/49
f 48/88/50 46/91/50 50/93/50 52/94/50
f 45/90/51 47/92/51 51/95/51 49/96/51
f 47/89/52 48/88/52 52/94/52 51/97/52
f 46/91/53 45/90/53 49/96/53 50/93/53
f 40/57/54 39/73/54 56/77/54 53/70/54
f 32/66/55 33/58/55 54/69/55 55/81/55
f 39/73/56 32/75/56 55/78/56 56/77/56
f 33/58/57 40/57/57 53/70/57 54/69/57
f 28/98/58 30/99/58 29/100/58 27/101/58
f 49/102/59 51/103/59 52/104/59 50/105/59
f 57/18/60 59/106/60 63/107/60 61/108/60
f 17/109/61 22/16/61 60/19/61 58/110/61
f 18/111/62 17/109/62 58/110/62 59/112/62
f 16/17/63 18/113/63 59/106/63 57/18/63
f 63/114/64 62/115/64 66/116/64 67/117/64
f 59/112/65 58/110/65 62/115/65 63/114/65
f 60/19/66 57/18/66 61/108/66 64/118/66
f 58/110/67 60/19/67 64/118/67 62/115/67
f 67/119/68 66/120/68 68/121/68 65/122/68
f 64/118/69 61/108/69 65/123/69 68/124/69
f 62/115/70 64/118/70 68/124/70 66/116/70
f 61/108/71 63/107/71 67/125/71 65/123/71
f 69/126/72 71/127/72 72/128/72 70/129/72
f 10/130/73 9/131/73 12/132/73 11/133/73
