# Blender v2.78 (sub 0) OBJ File: 'Low_Poly_Trees_Pack.blend'
# www.blender.org
g Dead_Tree_crk_m_01
v 0.258367 2.474975 0.581706
v 0.165504 2.054100 0.476504
v 0.072343 2.146932 0.094096
v 0.167828 2.580018 0.166508
v 1.474477 2.047928 -0.010425
v 1.118721 1.770700 -0.002985
v 1.248764 1.787396 -0.434591
v 1.184560 2.216717 -0.311974
v 0.749758 1.958657 -0.272439
v 0.900807 2.324711 -0.212768
v 0.983636 2.228614 0.167069
v 0.832587 1.862560 0.107398
v 0.880556 1.234469 -1.420183
v 1.056128 1.386765 -1.462397
v 0.916359 1.506948 -1.610122
v 0.740787 1.354651 -1.567908
v 1.920848 0.570180 -2.703295
v 2.053602 0.764919 -2.597691
v 1.966354 0.846286 -2.750875
v 1.838870 0.699933 -2.756003
v 1.850167 -0.014786 -4.050912
v 1.950884 0.057885 -4.101536
v 1.862342 0.138723 -4.161647
v 1.761625 0.066052 -4.111024
v 1.764647 -0.020171 -5.464556
v 1.946215 3.063280 0.999054
v 1.789411 2.818256 1.278382
v 1.996181 2.795461 1.083317
v 1.739445 3.086076 1.194120
v 2.868696 2.890046 1.146858
v 2.764640 2.704292 1.347004
v 2.892251 2.688391 1.185270
v 2.741085 2.905949 1.308592
v 3.605618 2.651534 2.080064
v 3.512398 2.532864 2.206713
v 3.583005 2.514309 2.088068
v 3.535012 2.670089 2.198710
v 3.331298 2.584643 2.111426
v 3.421194 2.715345 2.134474
v 3.481827 2.543668 2.022934
v 3.504936 2.693465 2.010841
v 3.560570 2.012627 2.960603
v 3.416711 2.000866 2.925640
v 3.448804 2.066488 2.965000
v 3.508133 1.950068 2.890882
v 3.961541 1.661957 3.379133
v 4.559417 2.586481 2.298244
v 4.538589 2.528463 2.363135
v 4.562036 2.523563 2.304556
v 4.535971 2.591382 2.356823
v 5.011309 2.212483 3.123827
v 2.080865 0.269619 0.261970
v 1.444247 0.927380 -0.096096
v 1.357031 0.916182 0.193372
v 1.595628 1.102112 0.188382
v 2.021468 0.261993 0.459105
v 2.183959 0.388616 0.455707
v 4.085162 -0.022564 0.516557
v 2.388705 2.894878 -0.654572
v 2.261503 2.861553 -0.901820
v 2.295524 3.079161 -0.761488
v 3.436770 3.166913 -1.437153
v 3.377852 3.202501 -1.604457
v 3.373097 3.292916 -1.485739
v 4.438493 4.122092 -1.179232
v 1.811588 0.686031 -2.473274
v 2.661537 -0.020035 -2.116178
v 2.671271 0.109883 -2.059212
v 3.340505 0.099643 -2.039670
v 2.631169 -0.008558 -1.972460
v 3.388100 0.166203 -2.002674
v 3.336728 0.107052 -1.946990
v 4.393186 0.102615 -1.650874
v 1.753986 2.985459 -2.295178
v 2.489764 2.962582 -1.038520
v 2.157211 2.835602 -3.524310
v 1.703324 3.064191 -2.281935
v 1.812243 3.052645 -2.297862
v -0.437742 0.000000 0.870915
v 0.626056 0.000000 0.534515
v 0.289656 0.000000 -0.529283
v -0.774142 0.000000 -0.192883
v -0.464539 1.078266 0.408658
v 0.184942 1.078266 0.382345
v 0.158629 1.078266 -0.267135
v -0.490852 1.078266 -0.240822
v 0.017076 2.135595 0.558088
v 0.122583 2.374803 0.132196
v 0.221209 2.306567 0.539610
v -0.388593 2.644321 0.836715
v -0.479133 2.749364 0.421518
v -0.342671 2.569206 0.341759
v -0.246147 2.491402 0.751196
v -0.287992 2.135595 0.521668
v -0.226838 2.139188 0.078689
vt 0.5946 0.6930
vt 0.5905 0.6982
vt 0.5695 0.6951
vt 0.5689 0.6908
vt 0.5916 0.6881
vt 0.5690 0.6855
vt 0.5862 0.6475
vt 0.5747 0.6479
vt 0.5757 0.6422
vt 0.5871 0.6417
vt 0.5878 0.6601
vt 0.5755 0.6593
vt 0.5749 0.6536
vt 0.5871 0.6540
vt 0.5863 0.6662
vt 0.5751 0.6650
vt 0.5873 0.6625
vt 0.5867 0.6509
vt 0.5705 0.6646
vt 0.5704 0.6538
vt 0.5711 0.6417
vt 0.5753 0.7216
vt 0.5702 0.7181
vt 0.5924 0.7183
vt 0.5927 0.7220
vt 0.5733 0.7125
vt 0.5931 0.7150
vt 0.5716 0.7264
vt 0.5937 0.7255
vt 0.5741 0.7328
vt 0.5938 0.7289
vt 0.5542 0.6972
vt 0.5523 0.7002
vt 0.5357 0.7036
vt 0.5353 0.7015
vt 0.6147 0.7186
vt 0.6172 0.7208
vt 0.6176 0.7231
vt 0.6176 0.7258
vt 0.5752 0.7008
vt 0.5753 0.7025
vt 0.5545 0.7051
vt 0.5536 0.7027
vt 0.5758 0.7042
vt 0.5754 0.7061
vt 0.5565 0.6954
vt 0.5762 0.6993
vt 0.5944 0.7046
vt 0.5917 0.6774
vt 0.5963 0.6833
vt 0.5702 0.6815
vt 0.5700 0.6774
vt 0.5549 0.6861
vt 0.5553 0.6837
vt 0.5555 0.6881
vt 0.5555 0.6905
vt 0.5560 0.6809
vt 0.5424 0.6855
vt 0.5423 0.6876
vt 0.5404 0.6871
vt 0.5409 0.6850
vt 0.5419 0.6895
vt 0.5402 0.6890
vt 0.5427 0.6835
vt 0.5420 0.6818
vt 0.5415 0.6818
vt 0.5431 0.6814
vt 0.5416 0.6835
vt 0.5890 0.6704
vt 0.5915 0.6724
vt 0.5769 0.6718
vt 0.5759 0.6702
vt 0.5905 0.6745
vt 0.5767 0.6730
vt 0.5911 0.6691
vt 0.5765 0.6687
vt 0.5906 0.6668
vt 0.5770 0.6671
vt 0.5651 0.6691
vt 0.5270 0.6836
vt 0.5270 0.6827
vt 0.5266 0.6843
vt 0.5269 0.6819
vt 0.5273 0.6810
vt 0.5678 0.7073
vt 0.5694 0.7131
vt 0.5566 0.7123
vt 0.5558 0.7083
vt 0.5120 0.6797
vt 0.5699 0.7196
vt 0.5667 0.7240
vt 0.5543 0.7219
vt 0.5559 0.7177
vt 0.5414 0.7180
vt 0.5407 0.7152
vt 0.5423 0.7118
vt 0.5426 0.7088
vt 0.5117 0.7073
vt 0.6032 0.6915
vt 0.6109 0.6904
vt 0.6058 0.7120
vt 0.6018 0.7116
vt 0.5108 0.7163
vt 0.5160 0.7139
vt 0.5299 0.7183
vt 0.5294 0.7206
vt 0.5967 0.6918
vt 0.5987 0.7129
vt 0.6157 0.6947
vt 0.6084 0.7146
vt 0.5506 0.7236
vt 0.5104 0.7195
vt 0.5293 0.7228
vt 0.5132 0.7096
vt 0.5308 0.7165
vt 0.6176 0.7159
vt 0.5534 0.7034
vt 0.5356 0.7058
vt 0.5531 0.6920
vt 0.5345 0.6994
vt 0.5258 0.7037
vt 0.5254 0.7026
vt 0.5259 0.7055
vt 0.5253 0.7046
vt 0.5128 0.7061
vt 0.6138 0.6867
vt 0.6091 0.6847
vt 0.6089 0.6637
vt 0.6104 0.6636
vt 0.6021 0.6883
vt 0.5990 0.6904
vt 0.5990 0.6670
vt 0.6004 0.6670
vt 0.5135 0.7133
vt 0.6076 0.6638
vt 0.6033 0.6461
vt 0.6065 0.6646
vt 0.6065 0.6851
vt 0.5580 0.6459
vt 0.5477 0.6599
vt 0.5387 0.6567
vt 0.5430 0.6417
vt 0.5269 0.6417
vt 0.5297 0.6573
vt 0.5214 0.6612
vt 0.5120 0.6473
vt 0.5703 0.6564
vt 0.5557 0.6652
vt 0.5421 0.6750
vt 0.5364 0.6726
vt 0.5459 0.6773
vt 0.7064 0.7920
vt 0.6827 0.7924
vt 0.6827 0.7762
vt 0.7075 0.7762
vt 0.5321 0.6731
vt 0.5261 0.6761
vt 0.5898 0.6418
vt 0.5946 0.6519
vt 0.5975 0.6539
vt 0.5980 0.6604
vt 0.5951 0.6620
vt 0.6757 0.8375
vt 0.6637 0.8380
vt 0.6642 0.8148
vt 0.6769 0.8148
vt 0.7058 0.8132
vt 0.7045 0.8357
vt 0.7183 0.8133
vt 0.5890 0.6660
vt 0.7185 0.8380
vn -0.4510 0.8348 -0.3157
vn 0.8232 0.1593 -0.5449
vn -0.3441 -0.9268 -0.1503
vn 0.3914 0.9088 0.1446
vn 0.3930 -0.3037 0.8679
vn -0.3814 0.2336 -0.8944
vn 0.2725 -0.2633 0.9254
vn 0.3954 0.9073 0.1433
vn -0.3558 -0.9215 -0.1555
vn -0.2336 0.2496 -0.9398
vn 0.6602 -0.7328 0.1645
vn -0.6745 -0.6567 0.3375
vn 0.8907 0.3157 -0.3272
vn -0.5570 0.7634 -0.3271
vn 0.6746 0.0718 -0.7347
vn 0.5351 -0.4523 0.7135
vn -0.5227 0.4397 -0.7304
vn 0.5956 0.7987 0.0857
vn 0.7007 -0.6649 0.2587
vn -0.6935 0.6650 -0.2771
vn 0.8170 0.4939 -0.2977
vn -0.8139 -0.5116 0.2753
vn -0.6014 0.7972 -0.0521
vn 0.7170 0.6834 -0.1371
vn -0.6899 -0.7226 0.0445
vn 0.5743 -0.8180 -0.0316
vn -0.7116 -0.2587 0.6532
vn 0.4886 -0.7963 0.3566
vn -0.1171 -0.9931 -0.0020
vn 0.0961 -0.2375 -0.9666
vn 0.1730 0.9834 0.0555
vn -0.0533 0.2446 0.9682
vn 0.5135 -0.1411 -0.8464
vn 0.3426 0.9375 0.0618
vn 0.2312 0.9720 0.0426
vn 0.8004 -0.0843 -0.5935
vn -0.2093 -0.9778 -0.0103
vn -0.7567 0.1801 0.6284
vn -0.4493 0.1256 0.8845
vn 0.6084 0.6523 0.4522
vn -0.8390 0.4062 0.3621
vn 0.9249 -0.2923 -0.2432
vn -0.5120 -0.7193 -0.4695
vn 0.4227 0.8520 0.3089
vn -0.6748 -0.1079 0.7301
vn 0.7557 0.0897 -0.6488
vn -0.4989 -0.8654 -0.0474
vn 0.2160 -0.0911 -0.9721
vn 0.0892 0.9925 -0.0840
vn -0.1493 0.0854 0.9851
vn -0.2719 -0.9623 -0.0113
vn -0.9044 -0.3177 -0.2848
vn 0.8748 -0.0122 -0.4843
vn 0.4890 0.8635 0.1235
vn -0.8458 0.0183 0.5332
vn -0.0200 -0.9925 0.1207
vn -0.1265 0.1885 0.9739
vn -0.1585 0.2292 0.9604
vn -0.6380 -0.7377 -0.2208
vn -0.1340 -0.9879 -0.0786
vn -0.0205 0.0531 0.9984
vn 0.1893 0.7886 -0.5851
vn 0.7123 0.3620 -0.6014
vn 0.8795 0.0126 -0.4758
vn 0.6913 -0.7210 -0.0478
vn -0.4367 -0.8940 -0.1000
vn 0.1380 -0.9754 -0.1722
vn -0.1662 0.6636 0.7294
vn -0.5852 0.2818 -0.7604
vn 0.6886 -0.6210 -0.3746
vn 0.3888 0.5623 0.7298
vn -0.5270 0.6150 -0.5866
vn -0.3839 0.1569 0.9100
vn -0.3990 0.7217 -0.5656
vn -0.5853 -0.8049 -0.0978
vn 0.0891 0.6655 0.7410
vn -0.6145 -0.7840 -0.0875
vn -0.6801 -0.1372 0.7201
vn 0.1594 -0.9820 0.1015
vn -0.1224 0.6586 0.7425
vn 0.0329 0.4234 -0.9054
vn 0.3335 0.2645 -0.9049
vn -0.1752 0.7512 0.6364
vn -0.0262 -0.9966 0.0786
vn 0.2955 0.9491 -0.1093
vn -0.9142 -0.2258 0.3366
vn 0.3706 -0.9264 -0.0658
vn 0.7238 -0.6152 0.3125
vn 0.0823 0.9851 -0.1512
vn -0.8375 -0.5030 -0.2134
vn 0.3975 -0.8832 -0.2488
vn -0.9652 0.1631 0.2043
vn 0.9445 0.2608 -0.2000
vn -0.2058 0.1111 -0.9723
vn 0.1971 0.3079 0.9308
vn -0.9773 0.2095 -0.0305
vn -0.0105 -0.1352 0.9908
vn -0.0141 0.9998 0.0147
vn 0.9933 0.1119 0.0270
vn -0.5139 -0.8539 -0.0821
vn -0.3220 0.1978 -0.9258
vn -0.3853 0.2756 -0.8807
vn 0.3113 0.9352 0.1687
vn 0.2992 -0.2659 0.9164
vn -0.7595 -0.6499 0.0282
vn -0.4018 -0.9133 -0.0673
vn -0.9516 0.1666 0.2583
vn 0.3297 -0.2968 0.8962
vn -0.0134 0.3055 -0.9521
vn -0.6441 0.7627 -0.0581
s off
f 8/1/1 11/2/1 29/3/1 26/4/1
f 5/5/2 8/1/2 26/4/2 28/6/2
f 3/7/3 9/8/3 12/9/3 2/10/3
f 1/11/4 11/12/4 10/13/4 4/14/4
f 2/15/5 12/16/5 11/12/5 89/17/5
f 4/14/6 10/13/6 88/18/6
f 12/16/7 6/19/7 11/12/7
f 10/13/8 11/12/8 8/20/8
f 12/9/9 9/8/9 6/21/9
f 10/13/10 8/20/10 9/8/10
f 7/22/11 6/23/11 13/24/11 14/25/11
f 6/23/12 9/26/12 16/27/12 13/24/12
f 8/28/13 7/22/13 14/25/13 15/29/13
f 9/30/14 8/28/14 15/29/14 16/31/14
f 17/32/15 18/33/15 68/34/15 67/35/15
f 14/25/16 13/24/16 66/36/16 18/37/16
f 16/31/17 15/29/17 19/38/17 20/39/17
f 15/29/18 14/25/18 18/37/18 19/38/18
f 18/33/19 17/32/19 21/40/19 22/41/19
f 20/42/20 19/43/20 23/44/20 24/45/20
f 19/43/21 18/33/21 22/41/21 23/44/21
f 17/32/22 20/46/22 24/47/22 21/40/22
f 24/45/23 23/44/23 25/48/23
f 23/44/24 22/41/24 25/48/24
f 21/40/25 24/47/25 25/48/25
f 22/41/26 21/40/26 25/48/26
f 11/49/27 6/50/27 27/51/27 29/52/27
f 6/50/28 5/5/28 28/6/28 27/51/28
f 27/51/29 28/6/29 32/53/29 31/54/29
f 28/6/30 26/4/30 30/55/30 32/53/30
f 26/4/31 29/3/31 33/56/31 30/55/31
f 29/52/32 27/51/32 31/54/32 33/57/32
f 40/58/33 41/59/33 34/60/33 36/61/33
f 41/59/34 39/62/34 37/63/34 34/60/34
f 30/55/35 33/56/35 39/62/35 41/59/35
f 32/53/36 30/55/36 41/59/36 40/58/36
f 31/54/37 32/53/37 40/58/37 38/64/37
f 33/57/38 31/54/38 38/64/38 39/65/38
f 37/66/39 39/67/39 35/68/39
f 35/69/40 39/70/40 44/71/40 42/72/40
f 39/70/41 38/73/41 43/74/41 44/71/41
f 40/75/42 35/69/42 42/72/42 45/76/42
f 38/77/43 40/75/43 45/76/43 43/78/43
f 42/72/44 44/71/44 46/79/44
f 44/71/45 43/74/45 46/79/45
f 45/76/46 42/72/46 46/79/46
f 43/78/47 45/76/47 46/79/47
f 36/61/48 34/60/48 47/80/48 49/81/48
f 34/60/49 37/63/49 50/82/49 47/80/49
f 37/66/50 35/68/50 48/83/50 50/84/50
f 36/61/51 35/68/51 40/58/51
f 6/85/52 7/86/52 53/87/52 54/88/52
f 49/81/53 47/80/53 51/89/53
f 47/80/54 50/82/54 51/89/54
f 50/84/55 48/83/55 51/89/55
f 35/68/56 36/61/56 49/81/56 48/83/56
f 5/90/57 6/91/57 54/92/57 55/93/57
f 55/93/58 54/92/58 56/94/58 57/95/58
f 54/88/59 53/87/59 52/96/59 56/97/59
f 56/97/60 52/96/60 58/98/60
f 57/95/61 56/94/61 58/98/61
f 58/98/62 52/96/62 57/95/62
f 53/87/63 55/93/63 57/95/63 52/96/63
f 55/93/64 53/87/64 7/86/64 5/90/64
f 5/99/65 7/100/65 60/101/65 59/102/65
f 49/81/66 51/89/66 48/83/66
f 59/103/67 75/104/67 63/105/67 62/106/67
f 8/107/68 5/99/68 59/102/68 61/108/68
f 7/100/69 8/109/69 61/110/69 60/101/69
f 62/106/70 63/105/70 65/111/70
f 61/112/71 59/103/71 62/106/71 64/113/71
f 61/114/72 64/115/72 63/105/72 75/104/72
f 64/113/73 62/106/73 65/111/73
f 63/105/74 64/115/74 65/111/74
f 13/24/75 16/27/75 20/116/75 66/36/75
f 18/33/76 66/117/76 70/118/76 68/34/76
f 66/119/77 20/46/77 67/35/77 70/120/77
f 20/46/78 17/32/78 67/35/78
f 70/120/79 67/35/79 69/121/79 72/122/79
f 68/34/80 70/118/80 72/123/80 71/124/80
f 67/35/81 68/34/81 71/124/81 69/121/81
f 69/121/82 71/124/82 73/125/82
f 71/124/83 72/123/83 73/125/83
f 72/122/84 69/121/84 73/125/84
f 61/126/85 75/127/85 78/128/85 77/129/85
f 60/130/86 61/131/86 77/132/86 74/133/86
f 75/104/87 59/103/87 60/134/87
f 78/128/88 74/135/88 76/136/88
f 77/129/89 78/128/89 76/136/89
f 74/135/90 77/137/90 76/136/90
f 78/128/91 75/127/91 60/138/91 74/135/91
f 79/139/92 83/140/92 86/141/92 82/142/92
f 81/143/93 85/144/93 84/145/93 80/146/93
f 82/142/94 86/141/94 85/144/94 81/143/94
f 80/147/95 84/148/95 83/140/95 79/139/95
f 86/141/96 83/140/96 94/149/96 95/150/96
f 84/148/97 87/151/97 94/149/97 83/140/97
f 95/152/98 94/153/98 87/154/98 3/155/98
f 85/144/99 3/156/99 87/157/99 84/145/99
f 2/10/100 87/158/100 3/7/100
f 4/14/101 88/18/101 92/159/101 91/160/101
f 88/18/102 10/13/102 9/8/102 3/7/102
f 89/17/5 11/12/5 1/11/5
f 1/11/103 4/14/103 91/160/103 90/161/103
f 89/17/104 1/11/104 90/161/104 93/162/104
f 93/163/105 90/164/105 91/165/105 92/166/105
f 88/167/106 89/168/106 93/163/106 92/166/106
f 89/168/107 88/167/107 3/169/107
f 87/170/108 2/15/108 89/17/108
f 95/150/109 3/156/109 85/144/109 86/141/109
f 87/171/110 89/168/110 3/169/110
