# Blender v2.78 (sub 0) OBJ File: 'Low_Poly_Trees_Pack.blend'
# www.blender.org
g Dead_Tree_s_01
v 0.000000 0.000000 -0.120000
v -0.103923 0.000000 0.060000
v 0.103923 0.000000 0.060000
v -0.245930 0.681330 -0.009065
v -0.274786 0.664073 0.109768
v -0.166907 0.720860 0.083336
v -0.106118 1.162597 -0.057445
v -0.149393 1.172846 0.022371
v -0.062842 1.152348 0.000800
v -0.228841 1.820202 0.002320
v -0.249587 1.818278 0.076885
v -0.176479 1.822654 0.052645
v -0.595081 2.469731 0.052788
vt 0.5715 0.6382
vt 0.5686 0.6651
vt 0.5633 0.6663
vt 0.5651 0.6371
vt 0.5588 0.6639
vt 0.5588 0.6390
vt 0.5781 0.6410
vt 0.5734 0.6651
vt 0.5669 0.6848
vt 0.5643 0.6845
vt 0.5612 0.6853
vt 0.5700 0.6852
vt 0.5669 0.7075
vt 0.5644 0.7071
vt 0.5619 0.7079
vt 0.5696 0.7080
vt 0.5653 0.7348
vn 0.7596 0.3334 -0.5585
vn 0.0878 -0.0246 0.9958
vn -0.8854 -0.2257 -0.4064
vn 0.7702 -0.2874 -0.5694
vn 0.2163 0.1223 0.9686
vn -0.9228 0.2022 -0.3279
vn 0.7438 0.1863 -0.6419
vn 0.2725 -0.0334 0.9616
vn -0.9189 -0.1244 -0.3744
vn 0.6240 0.4038 -0.6690
vn 0.2984 0.1928 0.9348
vn -0.8518 -0.4610 -0.2489
s off
f 1/1/1 4/2/1 6/3/1 3/4/1
f 3/4/2 6/3/2 5/5/2 2/6/2
f 2/7/3 5/8/3 4/2/3 1/1/3
f 6/3/4 4/2/4 7/9/4 9/10/4
f 5/5/5 6/3/5 9/10/5 8/11/5
f 4/2/6 5/8/6 8/12/6 7/9/6
f 9/10/7 7/9/7 10/13/7 12/14/7
f 8/11/8 9/10/8 12/14/8 11/15/8
f 7/9/9 8/12/9 11/16/9 10/13/9
f 12/14/10 10/13/10 13/17/10
f 11/15/11 12/14/11 13/17/11
f 10/13/12 11/16/12 13/17/12
