# Blender v2.78 (sub 0) OBJ File: 'Low_Poly_Trees_Pack.blend'
# www.blender.org
g Simple_Log_05
v -1.082336 0.208364 -0.221440
v -1.094116 0.324790 -0.163943
v -1.109782 0.365917 -0.041151
v -1.120157 0.307652 0.075008
v -1.119164 0.184127 0.116488
v -1.107384 0.067700 0.058992
v -1.091718 0.026574 -0.063801
v -1.081343 0.084839 -0.179959
v 1.087283 0.148963 -0.127732
v 1.090752 0.241879 -0.094431
v 1.092040 0.284060 -0.005138
v 1.090393 0.250797 0.087842
v 1.086776 0.161576 0.130041
v 1.083308 0.068661 0.096740
v 1.082020 0.026480 0.007446
v 1.083666 0.059742 -0.085533
v -0.543304 -0.011526 0.012115
v 0.086313 -0.000875 0.061302
v 0.638886 0.026299 0.015620
v 0.636034 0.061645 -0.100830
v 0.063698 0.018933 -0.076483
v -0.545101 0.040576 -0.128087
v -0.546634 0.191211 0.200300
v 0.104766 0.221510 0.191860
v 0.647755 0.199825 0.157897
v 0.643732 0.083572 0.122696
v 0.103250 0.083143 0.172035
v -0.543996 0.050807 0.148002
v -0.551094 0.380338 -0.002188
v 0.067187 0.355774 -0.027641
v 0.645747 0.342850 -0.015641
v 0.648598 0.307185 0.100688
v 0.089906 0.334270 0.109587
v -0.549518 0.327767 0.138224
v -0.548178 0.176924 -0.190627
v 0.048547 0.132062 -0.160164
v 0.636846 0.169131 -0.158355
v 0.640871 0.285704 -0.123032
v 0.049960 0.272170 -0.139795
v -0.550595 0.317796 -0.138539
v -1.093112 0.344244 -0.180812
v -1.079549 0.210198 -0.247010
v -1.111149 0.391594 -0.039437
v -1.123094 0.324512 0.094300
v -1.121951 0.182293 0.142058
v -1.108388 0.048247 0.075861
v -1.090351 0.000897 -0.065515
v -1.078406 0.067979 -0.199252
v -0.869766 0.204350 -0.200965
v -0.881546 0.320776 -0.143469
v -0.897212 0.361903 -0.020676
v -0.907587 0.303638 0.095483
v -0.906594 0.180113 0.136963
v -0.894814 0.063686 0.079467
v -0.879148 0.022560 -0.043326
v -0.868773 0.080825 -0.159485
v 1.091362 0.256080 -0.110104
v 1.087325 0.147929 -0.148865
v 1.092862 0.305177 -0.006169
v 1.090945 0.266461 0.102056
v 1.086735 0.162610 0.151174
v 1.082698 0.054460 0.112413
v 1.081198 0.005362 0.008478
v 1.083115 0.044079 -0.099747
v 0.977541 0.153212 -0.128156
v 0.981009 0.246127 -0.094855
v 0.982297 0.288308 -0.005561
v 0.980651 0.255046 0.087418
v 0.977034 0.165825 0.129617
v 0.973565 0.072909 0.096316
v 0.972277 0.030728 0.007023
v 0.973924 0.063991 -0.085957
vt 0.3349 0.7030
vt 0.3539 0.7026
vt 0.3540 0.7082
vt 0.3351 0.7085
vt 0.3350 0.6699
vt 0.3542 0.6696
vt 0.3540 0.6752
vt 0.3351 0.6755
vt 0.3351 0.6811
vt 0.3538 0.6807
vt 0.3538 0.6862
vt 0.3350 0.6865
vt 0.3349 0.6920
vt 0.3538 0.6917
vt 0.3538 0.6971
vt 0.3349 0.6974
vt 0.3350 0.6641
vt 0.3544 0.6639
vt 0.2769 0.6973
vt 0.2771 0.7027
vt 0.2688 0.7033
vt 0.2687 0.6978
vt 0.2775 0.6866
vt 0.2965 0.6866
vt 0.2963 0.6923
vt 0.2776 0.6919
vt 0.3159 0.6877
vt 0.3154 0.6935
vt 0.2773 0.6758
vt 0.2970 0.6756
vt 0.2968 0.6811
vt 0.2773 0.6812
vt 0.3169 0.6763
vt 0.3166 0.6820
vt 0.2770 0.6646
vt 0.2963 0.6645
vt 0.2968 0.6701
vt 0.2772 0.6703
vt 0.3161 0.6651
vt 0.3168 0.6707
vt 0.2779 0.6972
vt 0.2964 0.6980
vt 0.2968 0.7037
vt 0.2781 0.7027
vt 0.3154 0.6993
vt 0.3159 0.7050
vt 0.2972 0.7094
vt 0.2782 0.7083
vt 0.3167 0.7106
vt 0.2768 0.6919
vt 0.2766 0.6866
vt 0.2765 0.6813
vt 0.2763 0.6759
vt 0.2762 0.6703
vt 0.2761 0.6650
vt 0.2772 0.7080
vt 0.6672 0.9631
vt 0.6563 0.9519
vt 0.6566 0.9363
vt 0.6678 0.9255
vt 0.2679 0.6702
vt 0.2679 0.6648
vt 0.2682 0.6812
vt 0.2680 0.6757
vt 0.2686 0.6923
vt 0.2684 0.6868
vt 0.2691 0.7087
vt 0.3550 0.7078
vt 0.3549 0.7025
vt 0.3604 0.7025
vt 0.3604 0.7077
vt 0.3548 0.6917
vt 0.3548 0.6971
vt 0.3548 0.6862
vt 0.3548 0.6807
vt 0.3550 0.6752
vt 0.3552 0.6697
vt 0.3554 0.6644
vt 0.7102 0.9628
vt 0.6993 0.9519
vt 0.6993 0.9365
vt 0.7102 0.9256
vt 0.3607 0.6699
vt 0.3606 0.6754
vt 0.3605 0.6808
vt 0.3604 0.6863
vt 0.3604 0.6917
vt 0.3603 0.6971
vt 0.3609 0.6646
vt 0.6827 0.9633
vt 0.6834 0.9257
vt 0.6939 0.9525
vt 0.6942 0.9369
vt 0.7365 0.9519
vt 0.7256 0.9628
vt 0.7256 0.9256
vt 0.7365 0.9365
vn -0.0432 -0.9489 -0.3126
vn -0.0052 -0.3129 0.9498
vn 0.0796 0.9464 0.3131
vn 0.0412 0.3115 -0.9494
vn -0.0089 -0.4503 -0.8928
vn -0.0417 -0.8917 0.4507
vn 0.0451 0.4483 0.8927
vn 0.0779 0.8898 -0.4497
vn -0.0850 0.3166 0.9448
vn 0.0580 0.9296 -0.3640
vn 0.0384 0.8602 -0.5085
vn 0.0129 0.8412 -0.5406
vn -0.0863 0.3641 0.9273
vn 0.0105 0.5016 0.8650
vn 0.0565 0.5370 0.8417
vn -0.0573 -0.9297 0.3639
vn -0.0003 -0.8600 0.5103
vn 0.0680 -0.8401 0.5382
vn 0.0902 -0.3655 -0.9265
vn 0.0310 -0.5037 -0.8633
vn 0.0206 -0.5380 -0.8427
vn 0.1059 0.3982 -0.9112
vn 0.0425 0.2496 -0.9674
vn 0.0063 0.2119 -0.9773
vn -0.0221 0.9166 0.3992
vn 0.0249 0.9664 0.2557
vn 0.0337 0.9757 0.2166
vn -0.1002 -0.3994 0.9113
vn 0.0005 -0.2505 0.9681
vn 0.0708 -0.2122 0.9747
vn 0.0210 -0.9171 -0.3982
vn 0.0119 -0.9678 -0.2514
vn 0.0471 -0.9752 -0.2163
vn -0.9927 -0.0454 -0.1114
vn 0.0479 0.9490 -0.3117
vn 0.0850 -0.3166 -0.9448
vn -0.0479 -0.9490 0.3117
vn -0.0261 0.8945 0.4463
vn 0.0941 0.4485 -0.8888
vn 0.0261 -0.8945 -0.4463
vn -0.0941 -0.4485 0.8888
vn 0.0351 0.9408 0.3372
vn 0.9992 -0.0387 0.0039
vn 0.0167 0.3368 -0.9414
vn -0.0351 -0.9408 -0.3372
vn -0.0167 -0.3368 0.9414
vn 0.0130 0.4271 0.9041
vn 0.0366 0.9034 -0.4273
vn -0.0130 -0.4271 -0.9041
vn -0.0366 -0.9034 0.4273
s off
f 20/1/1 64/2/1 63/3/1 19/4/1
f 26/5/2 62/6/2 61/7/2 25/8/2
f 32/9/3 60/10/3 59/11/3 31/12/3
f 38/13/4 57/14/4 58/15/4 37/16/4
f 37/16/5 58/15/5 64/2/5 20/1/5
f 19/17/6 63/18/6 62/6/6 26/5/6
f 25/8/7 61/7/7 60/10/7 32/9/7
f 31/12/8 59/11/8 57/14/8 38/13/8
f 1/19/9 8/20/9 56/21/9 49/22/9
f 43/23/10 29/24/10 40/25/10 41/26/10
f 29/24/11 30/27/11 39/28/11 40/25/11
f 30/27/12 31/12/12 38/13/12 39/28/12
f 45/29/13 23/30/13 34/31/13 44/32/13
f 23/30/14 24/33/14 33/34/14 34/31/14
f 24/33/15 25/8/15 32/9/15 33/34/15
f 47/35/16 17/36/16 28/37/16 46/38/16
f 17/36/17 18/39/17 27/40/17 28/37/17
f 18/39/18 19/17/18 26/5/18 27/40/18
f 42/41/19 35/42/19 22/43/19 48/44/19
f 35/42/20 36/45/20 21/46/20 22/43/20
f 36/45/21 37/16/21 20/1/21 21/46/21
f 41/26/22 40/25/22 35/42/22 42/41/22
f 40/25/23 39/28/23 36/45/23 35/42/23
f 39/28/24 38/13/24 37/16/24 36/45/24
f 44/32/25 34/31/25 29/24/25 43/23/25
f 34/31/26 33/34/26 30/27/26 29/24/26
f 33/34/27 32/9/27 31/12/27 30/27/27
f 46/38/28 28/37/28 23/30/28 45/29/28
f 28/37/29 27/40/29 24/33/29 23/30/29
f 27/40/30 26/5/30 25/8/30 24/33/30
f 48/44/31 22/43/31 17/47/31 47/48/31
f 22/43/32 21/46/32 18/49/32 17/47/32
f 21/46/33 20/1/33 19/4/33 18/49/33
f 1/19/34 2/50/34 41/26/34 42/41/34
f 2/50/34 3/51/34 43/23/34 41/26/34
f 3/51/34 4/52/34 44/32/34 43/23/34
f 4/52/34 5/53/34 45/29/34 44/32/34
f 5/53/34 6/54/34 46/38/34 45/29/34
f 6/54/34 7/55/34 47/35/34 46/38/34
f 7/56/34 8/20/34 48/44/34 47/48/34
f 8/20/34 1/19/34 42/41/34 48/44/34
f 50/57/34 49/58/34 56/59/34 55/60/34
f 7/55/35 6/54/35 54/61/35 55/62/35
f 5/53/36 4/52/36 52/63/36 53/64/36
f 3/51/37 2/50/37 50/65/37 51/66/37
f 8/20/38 7/56/38 55/67/38 56/21/38
f 6/54/39 5/53/39 53/64/39 54/61/39
f 4/52/40 3/51/40 51/66/40 52/63/40
f 2/50/41 1/19/41 49/22/41 50/65/41
f 15/68/42 16/69/42 72/70/42 71/71/42
f 10/72/43 9/73/43 58/15/43 57/14/43
f 11/74/43 10/72/43 57/14/43 59/11/43
f 12/75/43 11/74/43 59/11/43 60/10/43
f 13/76/43 12/75/43 60/10/43 61/7/43
f 14/77/43 13/76/43 61/7/43 62/6/43
f 15/78/43 14/77/43 62/6/43 63/18/43
f 16/69/43 15/68/43 63/3/43 64/2/43
f 9/73/43 16/69/43 64/2/43 58/15/43
f 67/79/43 68/80/43 69/81/43 70/82/43
f 13/76/44 14/77/44 70/83/44 69/84/44
f 11/74/45 12/75/45 68/85/45 67/86/45
f 9/73/46 10/72/46 66/87/46 65/88/46
f 16/69/47 9/73/47 65/88/47 72/70/47
f 14/77/48 15/78/48 71/89/48 70/83/48
f 12/75/49 13/76/49 69/84/49 68/85/49
f 10/72/50 11/74/50 67/86/50 66/87/50
f 51/90/34 50/57/34 55/60/34 54/91/34
f 52/92/34 51/90/34 54/91/34 53/93/34
f 65/94/43 66/95/43 71/96/43 72/97/43
f 66/95/43 67/79/43 70/82/43 71/96/43
