# Blender v2.78 (sub 0) OBJ File: 'Low_Poly_Trees_Pack.blend'
# www.blender.org
g Simple_Log_03
v 1.291591 0.018080 -0.108498
v 1.294105 0.017669 0.044186
v 1.290198 0.165969 0.090648
v 1.285110 0.259669 -0.039801
v 1.286331 0.162215 -0.152588
v -1.471068 0.015332 0.041849
v -1.453964 0.015390 -0.021560
v -1.468187 0.109060 0.015923
v -1.466920 0.070300 0.069117
v -1.478844 0.070681 -0.035668
v 1.294902 -0.000650 0.057610
v 1.291944 -0.000167 -0.122045
v 1.290323 0.173115 0.112050
v 1.284361 0.282934 -0.040838
v 1.285797 0.168252 -0.173563
v -1.467910 0.006699 0.048235
v -1.447711 0.006490 -0.028930
v -1.467160 0.121205 0.015802
v -1.465196 0.073285 0.081482
v -1.476780 0.075264 -0.045886
vt 0.3201 0.6404
vt 0.3191 0.7371
vt 0.3150 0.7360
vt 0.3150 0.6404
vt 0.3050 0.6407
vt 0.3072 0.7371
vt 0.3029 0.7372
vt 0.2996 0.6408
vt 0.3113 0.7375
vt 0.3100 0.6406
vt 0.3253 0.6406
vt 0.3231 0.7370
vt 0.8029 0.6690
vt 0.8029 0.6510
vt 0.8199 0.6457
vt 0.8195 0.6718
vt 0.8310 0.6582
vt 0.7826 0.7126
vt 0.8075 0.6941
vt 0.8031 0.7126
vt 0.7763 0.6937
vt 0.7922 0.6824
vt 0.3428 0.6985
vt 0.3312 0.7068
vt 0.3292 0.7061
vt 0.3428 0.6964
vt 0.3358 0.7205
vt 0.3345 0.7222
vt 0.3508 0.7205
vt 0.3521 0.7222
vt 0.3540 0.7070
vt 0.3559 0.7063
vt 0.3472 0.6849
vt 0.3556 0.6750
vt 0.3582 0.6749
vt 0.3478 0.6870
vt 0.3351 0.6697
vt 0.3351 0.6828
vt 0.3331 0.6845
vt 0.3331 0.6682
vt 0.3475 0.6658
vt 0.3479 0.6637
vn -0.0026 -1.0000 -0.0012
vn -0.0357 0.8098 0.5857
vn -0.0341 -0.2819 -0.9589
vn -0.0011 -0.3427 0.9394
vn -0.9861 0.1224 0.1127
vn -0.9934 0.0188 0.1131
vn -0.8631 -0.4479 -0.2332
vn 0.9994 0.0315 -0.0164
vn -0.8631 -0.4504 -0.2286
vn -0.9900 0.0995 0.0995
vn -0.8480 -0.4420 -0.2925
vn -0.9703 -0.0617 0.2340
vn -0.9798 0.1983 0.0278
vn -0.0568 0.7708 -0.6345
s off
f 11/1/1 16/2/1 17/3/1 12/4/1
f 14/5/2 18/6/2 19/7/2 13/8/2
f 12/4/3 17/3/3 20/9/3 15/10/3
f 13/11/4 19/12/4 16/2/4 11/1/4
f 9/13/5 8/14/5 10/15/5
f 6/16/6 9/13/6 10/15/6
f 7/17/7 6/16/7 10/15/7
f 3/18/8 5/19/8 4/20/8
f 2/21/8 1/22/8 5/19/8 3/18/8
f 1/23/8 2/24/8 11/25/8 12/26/8
f 2/24/8 3/27/8 13/28/8 11/25/8
f 3/27/8 4/29/8 14/30/8 13/28/8
f 4/29/8 5/31/8 15/32/8 14/30/8
f 5/31/8 1/23/8 12/26/8 15/32/8
f 6/33/9 7/34/9 17/35/9 16/36/9
f 8/37/10 9/38/10 19/39/10 18/40/10
f 7/34/11 10/41/11 20/42/11 17/35/11
f 9/38/12 6/33/12 16/36/12 19/39/12
f 10/41/13 8/37/13 18/40/13 20/42/13
f 15/10/14 20/9/14 18/6/14 14/5/14
