# Blender v2.78 (sub 0) OBJ File: 'Low_Poly_Trees_Pack.blend'
# www.blender.org
g Simple_Log_01
v 1.146286 -0.000167 -0.143532
v 1.149244 -0.000650 0.036123
v 1.144665 0.173115 0.090564
v 1.138703 0.282934 -0.062324
v 1.140139 0.168252 -0.195049
v -1.435376 0.011915 0.027240
v -1.414532 0.011699 -0.052388
v -1.434602 0.130076 -0.006228
v -1.432575 0.080627 0.061549
v -1.444529 0.082668 -0.069885
vt 0.3207 0.6382
vt 0.3196 0.7374
vt 0.3155 0.7362
vt 0.3154 0.6382
vt 0.3052 0.6385
vt 0.3074 0.7374
vt 0.3030 0.7375
vt 0.2997 0.6386
vt 0.3116 0.7378
vt 0.3103 0.6384
vt 0.3260 0.6384
vt 0.3237 0.7373
vt 0.8042 0.6747
vt 0.8042 0.6524
vt 0.8245 0.6461
vt 0.8244 0.6781
vt 0.8387 0.6616
vt 0.7849 0.7183
vt 0.8142 0.6965
vt 0.8090 0.7183
vt 0.7776 0.6962
vt 0.7963 0.6829
vn -0.0048 -1.0000 -0.0014
vn -0.0355 0.8097 0.5857
vn -0.0363 -0.2819 -0.9588
vn -0.0016 -0.3437 0.9391
vn -0.9922 0.0848 0.0916
vn -0.9959 -0.0046 0.0905
vn -0.8754 -0.4262 -0.2280
vn 0.9994 0.0315 -0.0164
vn -0.0579 0.7712 -0.6340
s off
f 2/1/1 6/2/1 7/3/1 1/4/1
f 4/5/2 8/6/2 9/7/2 3/8/2
f 1/4/3 7/3/3 10/9/3 5/10/3
f 3/11/4 9/12/4 6/2/4 2/1/4
f 9/13/5 8/14/5 10/15/5
f 6/16/6 9/13/6 10/15/6
f 7/17/7 6/16/7 10/15/7
f 3/18/8 5/19/8 4/20/8
f 2/21/8 1/22/8 5/19/8 3/18/8
f 5/10/9 10/9/9 8/6/9 4/5/9
